999
dxfrw 0.6.3
  0
SECTION
  2
HEADER
  9
$ACADVER
  1
AC1021
  9
$DWGCODEPAGE
  3
ANSI_1252
  9
$INSBASE
 10
0
 20
0
 30
0
  9
$EXTMIN
 10
-35.62500000000001
 20
-101.5
 30
0
  9
$EXTMAX
 10
281.25
 20
115.625
 30
0
  9
$LIMMIN
 10
0
 20
0
  9
$LIMMAX
 10
420
 20
297
  9
$ORTHOMODE
 70
    0
  9
$REGENMODE
 70
    1
  9
$FILLMODE
 70
    1
  9
$QTEXTMODE
 70
    0
  9
$MIRRTEXT
 70
    0
  9
$LTSCALE
 40
1
  9
$ATTMODE
 70
    0
  9
$TEXTSIZE
 40
2.5
  9
$TRACEWID
 40
15.68
  9
$TEXTSTYLE
  7
STANDARD
  9
$CLAYER
  8
Dim
  9
$CELTYPE
  6
BYLAYER
  9
$CECOLOR
 62
  256
  9
$CELTSCALE
 40
1
  9
$DISPSILH
 70
    0
  9
$DIMSCALE
 40
0.02
  9
$DIMASZ
 40
250
  9
$DIMEXO
 40
0.625
  9
$DIMDLI
 40
3.75
  9
$DIMRND
 40
0
  9
$DIMDLE
 40
0
  9
$DIMEXE
 40
62.5
  9
$DIMTP
 40
0
  9
$DIMTM
 40
0
  9
$DIMTXT
 40
250
  9
$DIMCEN
 40
2.5
  9
$DIMTSZ
 40
0
  9
$DIMTOL
 70
    0
  9
$DIMLIM
 70
    0
  9
$DIMTIH
 70
    0
  9
$DIMTOH
 70
    0
  9
$DIMSE1
 70
    0
  9
$DIMSE2
 70
    0
  9
$DIMTAD
 70
    1
  9
$DIMZIN
 70
    8
  9
$DIMBLK
  1

  9
$DIMASO
 70
    1
  9
$DIMSHO
 70
    1
  9
$DIMPOST
  1

  9
$DIMAPOST
  1

  9
$DIMALT
 70
    0
  9
$DIMALTD
 70
    3
  9
$DIMALTF
 40
0.03937
  9
$DIMLFAC
 40
1
  9
$DIMTOFL
 70
    1
  9
$DIMTVP
 40
0
  9
$DIMTIX
 70
    0
  9
$DIMSOXD
 70
    0
  9
$DIMSAH
 70
    0
  9
$DIMBLK1
  1

  9
$DIMBLK2
  1

  9
$DIMSTYLE
  2
STANDARD
  9
$DIMCLRD
 70
    0
  9
$DIMCLRE
 70
    0
  9
$DIMCLRT
 70
    0
  9
$DIMTFAC
 40
1
  9
$DIMGAP
 40
31.25
  9
$DIMJUST
 70
    0
  9
$DIMSD1
 70
    0
  9
$DIMSD2
 70
    0
  9
$DIMTOLJ
 70
    0
  9
$DIMTZIN
 70
    8
  9
$DIMALTZ
 70
    0
  9
$DIMALTTZ
 70
    0
  9
$DIMUPT
 70
    0
  9
$DIMDEC
 70
    1
  9
$DIMTDEC
 70
    2
  9
$DIMALTU
 70
    2
  9
$DIMALTTD
 70
    3
  9
$DIMTXSTY
  7
standard
  9
$DIMAUNIT
 70
    0
  9
$DIMADEC
 70
    1
  9
$DIMALTRND
 40
0
  9
$DIMAZIN
 70
    2
  9
$DIMDSEP
 70
   44
  9
$DIMATFIT
 70
    3
  9
$DIMFRAC
 70
    0
  9
$DIMLDRBLK
  1
STANDARD
  9
$DIMLUNIT
 70
    2
  9
$DIMLWD
 70
   -2
  9
$DIMLWE
 70
   -2
  9
$DIMTMOVE
 70
    0
  9
$DIMFXL
 40
1
  9
$DIMFXLON
 70
    0
  9
$DIMJOGANG
 40
0.7854
  9
$DIMTFILL
 70
    0
  9
$DIMTFILLCLR
 70
    0
  9
$DIMARCSYM
 70
    0
  9
$DIMLTYPE
  6

  9
$DIMLTEX1
  6

  9
$DIMLTEX2
  6

  9
$LUNITS
 70
    2
  9
$LUPREC
 70
    2
  9
$SKETCHINC
 40
1
  9
$FILLETRAD
 40
0
  9
$AUNITS
 70
    0
  9
$AUPREC
 70
    2
  9
$MENU
  1
.
  9
$ELEVATION
 40
0
  9
$PELEVATION
 40
0
  9
$THICKNESS
 40
0
  9
$LIMCHECK
 70
    0
  9
$CHAMFERA
 40
0
  9
$CHAMFERB
 40
0
  9
$CHAMFERC
 40
0
  9
$CHAMFERD
 40
0
  9
$SKPOLY
 70
    0
  9
$USRTIMER
 70
    1
  9
$ANGBASE
 50
0
  9
$ANGDIR
 70
    0
  9
$PDMODE
 70
   34
  9
$PDSIZE
 40
0
  9
$PLINEWID
 40
0
  9
$SPLFRAME
 70
    0
  9
$SPLINETYPE
 70
    2
  9
$SPLINESEGS
 70
    8
  9
$HANDSEED
  5
20000
  9
$SURFTAB1
 70
    6
  9
$SURFTAB2
 70
    6
  9
$SURFTYPE
 70
    6
  9
$SURFU
 70
    6
  9
$SURFV
 70
    6
  9
$UCSBASE
  2

  9
$UCSNAME
  2

  9
$UCSORG
 10
0
 20
0
 30
0
  9
$UCSXDIR
 10
1
 20
0
 30
0
  9
$UCSYDIR
 10
0
 20
1
 30
0
  9
$UCSORTHOREF
  2

  9
$UCSORTHOVIEW
 70
    0
  9
$UCSORGTOP
 10
0
 20
0
 30
0
  9
$UCSORGBOTTOM
 10
0
 20
0
 30
0
  9
$UCSORGLEFT
 10
0
 20
0
 30
0
  9
$UCSORGRIGHT
 10
0
 20
0
 30
0
  9
$UCSORGFRONT
 10
0
 20
0
 30
0
  9
$UCSORGBACK
 10
0
 20
0
 30
0
  9
$PUCSBASE
  2

  9
$PUCSNAME
  2

  9
$PUCSORG
 10
0
 20
0
 30
0
  9
$PUCSXDIR
 10
1
 20
0
 30
0
  9
$PUCSYDIR
 10
0
 20
1
 30
0
  9
$PUCSORTHOREF
  2

  9
$PUCSORTHOVIEW
 70
    0
  9
$PUCSORGTOP
 10
0
 20
0
 30
0
  9
$PUCSORGBOTTOM
 10
0
 20
0
 30
0
  9
$PUCSORGLEFT
 10
0
 20
0
 30
0
  9
$PUCSORGRIGHT
 10
0
 20
0
 30
0
  9
$PUCSORGFRONT
 10
0
 20
0
 30
0
  9
$PUCSORGBACK
 10
0
 20
0
 30
0
  9
$USERI1
 70
    0
  9
$USERI2
 70
    0
  9
$USERI3
 70
    0
  9
$USERI4
 70
    0
  9
$USERI5
 70
    0
  9
$USERR1
 40
0
  9
$USERR2
 40
0
  9
$USERR3
 40
0
  9
$USERR4
 40
0
  9
$USERR5
 40
0
  9
$WORLDVIEW
 70
    1
  9
$SHADEDGE
 70
    3
  9
$SHADEDIF
 70
   70
  9
$TILEMODE
 70
    1
  9
$MAXACTVP
 70
   64
  9
$PINSBASE
 10
6.580414746543779
 20
1.25
 30
0
  9
$PLIMCHECK
 70
    0
  9
$PEXTMIN
 10
0
 20
0
 30
0
  9
$PEXTMAX
 10
0
 20
0
 30
0
  9
$GRIDMODE
 70
    1
  9
$SNAPSTYLE
 70
    0
  9
$GRIDUNIT
 10
0
 20
0
  9
$PLIMMIN
 10
0
 20
0
  9
$PLIMMAX
 10
29.7
 20
21
  9
$UNITMODE
 70
    0
  9
$VISRETAIN
 70
    1
  9
$PLINEGEN
 70
    0
  9
$PSLTSCALE
 70
    1
  9
$TREEDEPTH
 70
 3020
  9
$CMLSTYLE
  2
Standard
  9
$CMLJUST
 70
    0
  9
$CMLSCALE
 40
20
  9
$PROXYGRAPHICS
 70
    1
  9
$MEASUREMENT
 70
    1
  9
$CELWEIGHT
370
   -1
  9
$ENDCAPS
280
    0
  9
$JOINSTYLE
280
    0
  9
$LWDISPLAY
290
    0
  9
$INSUNITS
 70
    5
  9
$HYPERLINKBASE
  1

  9
$STYLESHEET
  1

  9
$XEDIT
290
    1
  9
$CEPSNTYPE
380
    0
  9
$PSTYLEMODE
290
    1
  9
$EXTNAMES
290
    1
  9
$PSVPSCALE
 40
0.1364055500690212
  9
$OLESTARTUP
290
    0
  9
$SORTENTS
280
  127
  9
$INDEXCTL
280
    0
  9
$HIDETEXT
280
    1
  9
$XCLIPFRAME
290
    0
  9
$HALOGAP
280
    0
  9
$OBSCOLOR
 70
  257
  9
$OBSLTYPE
280
    0
  9
$INTERSECTIONDISPLAY
280
    0
  9
$INTERSECTIONCOLOR
 70
  257
  9
$DIMASSOC
280
    1
  9
$PROJECTNAME
  1

  9
$CAMERADISPLAY
290
    0
  9
$LENSLENGTH
 40
50
  9
$CAMERAHEIGHT
 40
0
  9
$STEPSPERSEC
 40
2
  9
$STEPSIZE
 40
50
  9
$3DDWFPREC
 40
2
  9
$PSOLWIDTH
 40
5
  9
$PSOLHEIGHT
 40
80
  9
$LOFTANG1
 40
1.570796326794897
  9
$LOFTANG2
 40
1.570796326794897
  9
$LOFTMAG1
 40
0
  9
$LOFTMAG2
 40
0
  9
$LOFTPARAM
 70
    7
  9
$LOFTNORMALS
280
    1
  9
$LATITUDE
 40
1
  9
$LONGITUDE
 40
1
  9
$NORTHDIRECTION
 40
0
  9
$TIMEZONE
 70
-8000
  9
$LIGHTGLYPHDISPLAY
280
    1
  9
$TILEMODELIGHTSYNCH
280
    1
  9
$SOLIDHIST
280
    1
  9
$SHOWHIST
280
    1
  9
$DWFFRAME
280
    2
  9
$DGNFRAME
280
    0
  9
$REALWORLDSCALE
290
    1
  9
$INTERFERECOLOR
 62
    1
  9
$CSHADOW
280
    0
  9
$SHADOWPLANELOCATION
 40
0
  0
ENDSEC
  0
SECTION
  2
CLASSES
  0
ENDSEC
  0
SECTION
  2
TABLES
  0
TABLE
  2
VPORT
  5
8
330
0
100
AcDbSymbolTable
 70
    1
  0
VPORT
  5
31
330
2
100
AcDbSymbolTableRecord
100
AcDbViewportTableRecord
  2
*ACTIVE
 70
    0
 10
0
 20
0
 11
1
 21
1
 12
65.89512876851333
 22
39.78379849206655
 13
0
 23
0
 14
10
 24
10
 15
10
 25
10
 16
0
 26
0
 36
1
 17
0
 27
0
 37
0
 40
37.35085302011416
 41
1.711926605504587
 42
50
 43
0
 44
0
 50
0
 51
0
 71
    0
 72
  100
 73
    1
 74
    3
 75
    0
 76
    1
 77
    0
 78
    0
281
    0
 65
    1
110
0
120
0
130
0
111
1
121
0
131
0
112
0
122
1
132
0
 79
    0
146
0
348
10020
 60
    7
 61
    5
292
1
282
    1
141
0
142
0
 63
  250
421
3358443
  0
ENDTAB
  0
TABLE
  2
LTYPE
  5
5
330
0
100
AcDbSymbolTable
 70
    4
  0
LTYPE
  5
14
330
5
100
AcDbSymbolTableRecord
100
AcDbLinetypeTableRecord
  2
ByBlock
 70
    0
  3

 72
   65
 73
    0
 40
0
  0
LTYPE
  5
15
330
5
100
AcDbSymbolTableRecord
100
AcDbLinetypeTableRecord
  2
ByLayer
 70
    0
  3

 72
   65
 73
    0
 40
0
  0
LTYPE
  5
16
330
5
100
AcDbSymbolTableRecord
100
AcDbLinetypeTableRecord
  2
Continuous
 70
    0
  3
Solid line
 72
   65
 73
    0
 40
0
  0
LTYPE
  5
32
330
5
100
AcDbSymbolTableRecord
100
AcDbLinetypeTableRecord
  2
DOT
 70
    0
  3
Dot . . . . . . . . . . . . . . . . . . . . . .
 72
   65
 73
    2
 40
6.35
 49
0
 74
    0
 49
-6.35
 74
    0
  0
LTYPE
  5
33
330
5
100
AcDbSymbolTableRecord
100
AcDbLinetypeTableRecord
  2
DOTTINY
 70
    0
  3
Dot (.15x) .....................................
 72
   65
 73
    2
 40
0.9525
 49
0
 74
    0
 49
-0.9525
 74
    0
  0
LTYPE
  5
34
330
5
100
AcDbSymbolTableRecord
100
AcDbLinetypeTableRecord
  2
DOT2
 70
    0
  3
Dot (.5x) .....................................
 72
   65
 73
    2
 40
3.175
 49
0
 74
    0
 49
-3.175
 74
    0
  0
LTYPE
  5
35
330
5
100
AcDbSymbolTableRecord
100
AcDbLinetypeTableRecord
  2
DOTX2
 70
    0
  3
Dot (2x) .  .  .  .  .  .  .  .  .  .  .  .  .
 72
   65
 73
    2
 40
12.7
 49
0
 74
    0
 49
-12.7
 74
    0
  0
LTYPE
  5
36
330
5
100
AcDbSymbolTableRecord
100
AcDbLinetypeTableRecord
  2
DASHED
 70
    0
  3
Dashed _ _ _ _ _ _ _ _ _ _ _ _ _ _ _ _ _
 72
   65
 73
    2
 40
19.05
 49
12.7
 74
    0
 49
-6.35
 74
    0
  0
LTYPE
  5
37
330
5
100
AcDbSymbolTableRecord
100
AcDbLinetypeTableRecord
  2
DASHEDTINY
 70
    0
  3
Dashed (.15x) _ _ _ _ _ _ _ _ _ _ _ _ _ _ _ _ _
 72
   65
 73
    2
 40
2.8575
 49
1.905
 74
    0
 49
-0.9525
 74
    0
  0
LTYPE
  5
38
330
5
100
AcDbSymbolTableRecord
100
AcDbLinetypeTableRecord
  2
DASHED2
 70
    0
  3
Dashed (.5x) _ _ _ _ _ _ _ _ _ _ _ _ _ _ _ _ _
 72
   65
 73
    2
 40
9.524999999999999
 49
6.35
 74
    0
 49
-3.175
 74
    0
  0
LTYPE
  5
39
330
5
100
AcDbSymbolTableRecord
100
AcDbLinetypeTableRecord
  2
DASHEDX2
 70
    0
  3
Dashed (2x) ____  ____  ____  ____  ____  ___
 72
   65
 73
    2
 40
38.09999999999999
 49
25.4
 74
    0
 49
-12.7
 74
    0
  0
LTYPE
  5
3A
330
5
100
AcDbSymbolTableRecord
100
AcDbLinetypeTableRecord
  2
DASHDOT
 70
    0
  3
Dash dot __ . __ . __ . __ . __ . __ . __ . __
 72
   65
 73
    4
 40
25.4
 49
12.7
 74
    0
 49
-6.35
 74
    0
 49
0
 74
    0
 49
-6.35
 74
    0
  0
LTYPE
  5
3B
330
5
100
AcDbSymbolTableRecord
100
AcDbLinetypeTableRecord
  2
DASHDOTTINY
 70
    0
  3
Dash dot (.15x) _._._._._._._._._._._._._._._.
 72
   65
 73
    4
 40
3.81
 49
1.905
 74
    0
 49
-0.9525
 74
    0
 49
0
 74
    0
 49
-0.9525
 74
    0
  0
LTYPE
  5
3C
330
5
100
AcDbSymbolTableRecord
100
AcDbLinetypeTableRecord
  2
DASHDOT2
 70
    0
  3
Dash dot (.5x) _._._._._._._._._._._._._._._.
 72
   65
 73
    4
 40
12.7
 49
6.35
 74
    0
 49
-3.175
 74
    0
 49
0
 74
    0
 49
-3.175
 74
    0
  0
LTYPE
  5
3D
330
5
100
AcDbSymbolTableRecord
100
AcDbLinetypeTableRecord
  2
DASHDOTX2
 70
    0
  3
Dash dot (2x) ____  .  ____  .  ____  .  ___
 72
   65
 73
    4
 40
50.8
 49
25.4
 74
    0
 49
-12.7
 74
    0
 49
0
 74
    0
 49
-12.7
 74
    0
  0
LTYPE
  5
3E
330
5
100
AcDbSymbolTableRecord
100
AcDbLinetypeTableRecord
  2
DIVIDE
 70
    0
  3
Divide ____ . . ____ . . ____ . . ____ . . ____
 72
   65
 73
    6
 40
31.75
 49
12.7
 74
    0
 49
-6.35
 74
    0
 49
0
 74
    0
 49
-6.35
 74
    0
 49
0
 74
    0
 49
-6.35
 74
    0
  0
LTYPE
  5
3F
330
5
100
AcDbSymbolTableRecord
100
AcDbLinetypeTableRecord
  2
DIVIDETINY
 70
    0
  3
Divide (.15x) __..__..__..__..__..__..__..__.._
 72
   65
 73
    6
 40
4.7625
 49
1.905
 74
    0
 49
-0.9525
 74
    0
 49
0
 74
    0
 49
-0.9525
 74
    0
 49
0
 74
    0
 49
-0.9525
 74
    0
  0
LTYPE
  5
40
330
5
100
AcDbSymbolTableRecord
100
AcDbLinetypeTableRecord
  2
DIVIDE2
 70
    0
  3
Divide (.5x) __..__..__..__..__..__..__..__.._
 72
   65
 73
    6
 40
15.875
 49
6.35
 74
    0
 49
-3.175
 74
    0
 49
0
 74
    0
 49
-3.175
 74
    0
 49
0
 74
    0
 49
-3.175
 74
    0
  0
LTYPE
  5
41
330
5
100
AcDbSymbolTableRecord
100
AcDbLinetypeTableRecord
  2
DIVIDEX2
 70
    0
  3
Divide (2x) ________  .  .  ________  .  .  _
 72
   65
 73
    6
 40
63.5
 49
25.4
 74
    0
 49
-12.7
 74
    0
 49
0
 74
    0
 49
-12.7
 74
    0
 49
0
 74
    0
 49
-12.7
 74
    0
  0
LTYPE
  5
42
330
5
100
AcDbSymbolTableRecord
100
AcDbLinetypeTableRecord
  2
BORDER
 70
    0
  3
Border __ __ . __ __ . __ __ . __ __ . __ __ .
 72
   65
 73
    6
 40
44.45
 49
12.7
 74
    0
 49
-6.35
 74
    0
 49
12.7
 74
    0
 49
-6.35
 74
    0
 49
0
 74
    0
 49
-6.35
 74
    0
  0
LTYPE
  5
43
330
5
100
AcDbSymbolTableRecord
100
AcDbLinetypeTableRecord
  2
BORDERTINY
 70
    0
  3
Border (.15x) __.__.__.__.__.__.__.__.__.__.__.
 72
   65
 73
    6
 40
6.6675
 49
1.905
 74
    0
 49
-0.9525
 74
    0
 49
1.905
 74
    0
 49
-0.9525
 74
    0
 49
0
 74
    0
 49
-0.9525
 74
    0
  0
LTYPE
  5
44
330
5
100
AcDbSymbolTableRecord
100
AcDbLinetypeTableRecord
  2
BORDER2
 70
    0
  3
Border (.5x) __.__.__.__.__.__.__.__.__.__.__.
 72
   65
 73
    6
 40
22.225
 49
6.35
 74
    0
 49
-3.175
 74
    0
 49
6.35
 74
    0
 49
-3.175
 74
    0
 49
0
 74
    0
 49
-3.175
 74
    0
  0
LTYPE
  5
45
330
5
100
AcDbSymbolTableRecord
100
AcDbLinetypeTableRecord
  2
BORDERX2
 70
    0
  3
Border (2x) ____  ____  .  ____  ____  .  ___
 72
   65
 73
    6
 40
88.89999999999999
 49
25.4
 74
    0
 49
-12.7
 74
    0
 49
25.4
 74
    0
 49
-12.7
 74
    0
 49
0
 74
    0
 49
-12.7
 74
    0
  0
LTYPE
  5
46
330
5
100
AcDbSymbolTableRecord
100
AcDbLinetypeTableRecord
  2
CENTER
 70
    0
  3
Center ____ _ ____ _ ____ _ ____ _ ____ _ ____
 72
   65
 73
    4
 40
50.8
 49
31.75
 74
    0
 49
-6.35
 74
    0
 49
6.35
 74
    0
 49
-6.35
 74
    0
  0
LTYPE
  5
47
330
5
100
AcDbSymbolTableRecord
100
AcDbLinetypeTableRecord
  2
CENTERTINY
 70
    0
  3
Center (.15x) ___ _ ___ _ ___ _ ___ _ ___ _ ___
 72
   65
 73
    4
 40
7.619999999999999
 49
4.7625
 74
    0
 49
-0.9525
 74
    0
 49
0.9525
 74
    0
 49
-0.9525
 74
    0
  0
LTYPE
  5
48
330
5
100
AcDbSymbolTableRecord
100
AcDbLinetypeTableRecord
  2
CENTER2
 70
    0
  3
Center (.5x) ___ _ ___ _ ___ _ ___ _ ___ _ ___
 72
   65
 73
    4
 40
28.575
 49
19.05
 74
    0
 49
-3.175
 74
    0
 49
3.175
 74
    0
 49
-3.175
 74
    0
  0
LTYPE
  5
49
330
5
100
AcDbSymbolTableRecord
100
AcDbLinetypeTableRecord
  2
CENTERX2
 70
    0
  3
Center (2x) ________  __  ________  __  _____
 72
   65
 73
    4
 40
101.6
 49
63.5
 74
    0
 49
-12.7
 74
    0
 49
12.7
 74
    0
 49
-12.7
 74
    0
  0
ENDTAB
  0
TABLE
  2
LAYER
  5
2
330
0
100
AcDbSymbolTable
 70
    1
  0
LAYER
  5
10
330
2
100
AcDbSymbolTableRecord
100
AcDbLayerTableRecord
  2
0
 70
    0
 62
    7
  6
CONTINUOUS
370
    0
390
F
1001
LibreCad
1070
    1
  0
LAYER
  5
4A
330
2
100
AcDbSymbolTableRecord
100
AcDbLayerTableRecord
  2
Derevo_obresh
 70
    0
 62
   56
420
8421376
  6
CONTINUOUS
370
   35
390
F
  0
LAYER
  5
4B
330
2
100
AcDbSymbolTableRecord
100
AcDbLayerTableRecord
  2
Derevo_obsh
 70
    0
 62
    2
  6
CONTINUOUS
370
   35
390
F
  0
LAYER
  5
4C
330
2
100
AcDbSymbolTableRecord
100
AcDbLayerTableRecord
  2
Dim
 70
    0
 62
    4
  6
CONTINUOUS
370
   18
390
F
  0
LAYER
  5
4D
330
2
100
AcDbSymbolTableRecord
100
AcDbLayerTableRecord
  2
Karkas
 70
    0
 62
    5
  6
CONTINUOUS
370
   35
390
F
  0
LAYER
  5
4E
330
2
100
AcDbSymbolTableRecord
100
AcDbLayerTableRecord
  2
Names
 70
    0
 62
    3
  6
CONTINUOUS
370
   18
390
F
  0
LAYER
  5
4F
330
2
100
AcDbSymbolTableRecord
100
AcDbLayerTableRecord
  2
Shifer
 70
    0
 62
    6
  6
CONTINUOUS
370
   35
390
F
1001
LibreCad
1070
    1
  0
ENDTAB
  0
TABLE
  2
STYLE
  5
3
330
0
100
AcDbSymbolTable
 70
    3
  0
STYLE
  5
50
330
2
100
AcDbSymbolTableRecord
100
AcDbTextStyleTableRecord
  2
Standard
 70
    0
 40
0
 41
1
 50
0
 71
    0
 42
1
  3
txt
  4

  0
ENDTAB
  0
TABLE
  2
VIEW
  5
6
330
0
100
AcDbSymbolTable
 70
    0
  0
ENDTAB
  0
TABLE
  2
UCS
  5
7
330
0
100
AcDbSymbolTable
 70
    0
  0
ENDTAB
  0
TABLE
  2
APPID
  5
9
330
0
100
AcDbSymbolTable
 70
    1
  0
APPID
  5
12
330
9
100
AcDbSymbolTableRecord
100
AcDbRegAppTableRecord
  2
ACAD
 70
    0
  0
APPID
  5
51
330
9
100
AcDbSymbolTableRecord
100
AcDbRegAppTableRecord
  2
LibreCad
 70
    0
  0
ENDTAB
  0
TABLE
  2
DIMSTYLE
  5
A
330
0
100
AcDbSymbolTable
 70
    1
100
AcDbDimStyleTable
 71
    1
  0
DIMSTYLE
105
52
330
A
100
AcDbSymbolTableRecord
100
AcDbDimStyleTableRecord
  2
Standard
 70
    0
 40
0.02
 41
250
 42
0.625
 43
0.38
 44
62.5
 45
0
 46
0
 47
0
 48
0
 49
1
140
250
141
0.09
142
0
143
25.4
144
1
145
0
146
1
147
31.25
148
0
 71
    0
 72
    0
 73
    0
 74
    1
 75
    0
 76
    0
 77
    0
 78
    8
 79
    2
170
    0
171
    2
172
    0
173
    0
174
    0
175
    0
176
    0
177
    0
178
    0
179
    1
271
    1
272
    4
273
    2
274
    2
275
    0
276
    0
277
    2
278
   44
279
    0
280
    0
281
    0
282
    0
283
    1
284
    0
285
    0
286
    0
288
    0
289
    3
340
standard
341

371
   -2
372
   -2
  0
ENDTAB
  0
TABLE
  2
BLOCK_RECORD
  5
1
330
0
100
AcDbSymbolTable
 70
    2
  0
BLOCK_RECORD
  5
1F
330
1
100
AcDbSymbolTableRecord
100
AcDbBlockTableRecord
  2
*Model_Space
 70
    0
280
    1
281
    0
  0
BLOCK_RECORD
  5
1E
330
1
100
AcDbSymbolTableRecord
100
AcDbBlockTableRecord
  2
*Paper_Space
 70
    0
280
    1
281
    0
  0
BLOCK_RECORD
  5
53
330
1
100
AcDbSymbolTableRecord
100
AcDbBlockTableRecord
  2
*D15
 70
    0
280
    1
281
    0
  0
BLOCK_RECORD
  5
56
330
1
100
AcDbSymbolTableRecord
100
AcDbBlockTableRecord
  2
*D5
 70
    0
280
    1
281
    0
  0
BLOCK_RECORD
  5
59
330
1
100
AcDbSymbolTableRecord
100
AcDbBlockTableRecord
  2
*D10
 70
    0
280
    1
281
    0
  0
BLOCK_RECORD
  5
5C
330
1
100
AcDbSymbolTableRecord
100
AcDbBlockTableRecord
  2
*D4
 70
    0
280
    1
281
    0
  0
BLOCK_RECORD
  5
5F
330
1
100
AcDbSymbolTableRecord
100
AcDbBlockTableRecord
  2
*D14
 70
    0
280
    1
281
    0
  0
BLOCK_RECORD
  5
62
330
1
100
AcDbSymbolTableRecord
100
AcDbBlockTableRecord
  2
*D6
 70
    0
280
    1
281
    0
  0
BLOCK_RECORD
  5
65
330
1
100
AcDbSymbolTableRecord
100
AcDbBlockTableRecord
  2
*D8
 70
    0
280
    1
281
    0
  0
BLOCK_RECORD
  5
68
330
1
100
AcDbSymbolTableRecord
100
AcDbBlockTableRecord
  2
*D18
 70
    0
280
    1
281
    0
  0
BLOCK_RECORD
  5
6B
330
1
100
AcDbSymbolTableRecord
100
AcDbBlockTableRecord
  2
*D12
 70
    0
280
    1
281
    0
  0
BLOCK_RECORD
  5
6E
330
1
100
AcDbSymbolTableRecord
100
AcDbBlockTableRecord
  2
*D1
 70
    0
280
    1
281
    0
  0
BLOCK_RECORD
  5
71
330
1
100
AcDbSymbolTableRecord
100
AcDbBlockTableRecord
  2
*D2
 70
    0
280
    1
281
    0
  0
BLOCK_RECORD
  5
74
330
1
100
AcDbSymbolTableRecord
100
AcDbBlockTableRecord
  2
*D13
 70
    0
280
    1
281
    0
  0
BLOCK_RECORD
  5
77
330
1
100
AcDbSymbolTableRecord
100
AcDbBlockTableRecord
  2
*D7
 70
    0
280
    1
281
    0
  0
BLOCK_RECORD
  5
7A
330
1
100
AcDbSymbolTableRecord
100
AcDbBlockTableRecord
  2
*D9
 70
    0
280
    1
281
    0
  0
BLOCK_RECORD
  5
7D
330
1
100
AcDbSymbolTableRecord
100
AcDbBlockTableRecord
  2
*D3
 70
    0
280
    1
281
    0
  0
BLOCK_RECORD
  5
80
330
1
100
AcDbSymbolTableRecord
100
AcDbBlockTableRecord
  2
*D16
 70
    0
280
    1
281
    0
  0
BLOCK_RECORD
  5
83
330
1
100
AcDbSymbolTableRecord
100
AcDbBlockTableRecord
  2
*D11
 70
    0
280
    1
281
    0
  0
BLOCK_RECORD
  5
86
330
1
100
AcDbSymbolTableRecord
100
AcDbBlockTableRecord
  2
*D17
 70
    0
280
    1
281
    0
  0
ENDTAB
  0
ENDSEC
  0
SECTION
  2
BLOCKS
  0
BLOCK
  5
20
330
1F
100
AcDbEntity
  8
0
100
AcDbBlockBegin
  2
*Model_Space
 70
    0
 10
0
 20
0
 30
0
  3
*Model_Space
  1

  0
ENDBLK
  5
21
330
1F
100
AcDbEntity
  8
0
100
AcDbBlockEnd
  0
BLOCK
  5
1C
330
1B
100
AcDbEntity
  8
0
100
AcDbBlockBegin
  2
*Paper_Space
 70
    0
 10
0
 20
0
 30
0
  3
*Paper_Space
  1

  0
ENDBLK
  5
1D
330
1F
100
AcDbEntity
  8
0
100
AcDbBlockEnd
  0
BLOCK
  5
54
330
53
100
AcDbEntity
  8
0
100
AcDbBlockBegin
  2
*D15
 70
    1
 10
0
 20
0
  3
*D15
  1

  0
LINE
  5
89
100
AcDbEntity
  8
Dim
  6
ByBlock
 62
    0
370
   -2
100
AcDbLine
 10
-20.34034906343732
 20
90.02687439462501
 11
-16.90745247763681
 21
110.6242539094281
  0
LINE
  5
8A
100
AcDbEntity
  8
Dim
  6
ByBlock
 62
    0
370
   -2
100
AcDbLine
 10
105.0020549873413
 20
69.13647371949519
 11
108.4349515731418
 21
89.73385323429828
  0
LINE
  5
8B
100
AcDbEntity
  8
Dim
  6
ByBlock
 62
    0
370
   -2
100
AcDbLine
 10
-17.1129512117685
 20
109.3912615046379
 11
108.2294528390101
 21
88.5008608295081
  0
SOLID
  5
8C
100
AcDbEntity
  8
Dim
  6
ByBlock
 62
    0
370
   -2
100
AcDbTrace
 10
-17.1129512117685
 20
109.3912615046379
 30
0
 11
-12.04410804027056
 21
109.3905078821345
 31
0
 12
-12.31785514494501
 22
107.7480252540878
 32
0
 13
-12.31785514494501
 23
107.7480252540878
 33
0
  0
SOLID
  5
8D
100
AcDbEntity
  8
Dim
  6
ByBlock
 62
    0
370
   -2
100
AcDbTrace
 10
108.2294528390101
 20
88.5008608295081
 30
0
 11
103.1606096675122
 21
88.50161445201155
 31
0
 12
103.4343567721866
 22
90.14409708005823
 32
0
 13
103.4343567721866
 23
90.14409708005823
 33
0
  0
MTEXT
  5
8E
100
AcDbEntity
  8
Dim
  6
CONTINUOUS
 62
    0
370
   -2
100
AcDbMText
 10
46.07199764895007
 20
102.0285421790485
 30
0
 40
5
 41
13.61111111111111
 71
    5
 72
    1
  1
127,1
  7
standard
210
0
220
0
230
1
 50
350.5376777919743
 73
    2
 44
1
  0
ENDBLK
  5
55
330
53
100
AcDbEntity
  8
0
100
AcDbBlockEnd
  0
BLOCK
  5
57
330
56
100
AcDbEntity
  8
0
100
AcDbBlockBegin
  2
*D5
 70
    1
 10
0
 20
0
  3
*D5
  1

  0
LINE
  5
8F
100
AcDbEntity
  8
Dim
  6
ByBlock
 62
    0
370
   -2
100
AcDbLine
 10
150
 20
70
 11
252
 21
70
  0
SOLID
  5
90
100
AcDbEntity
  8
Dim
  6
ByBlock
 62
    0
370
   -2
100
AcDbTrace
 10
150
 20
70
 30
0
 11
155
 21
70.83256931554568
 31
0
 12
155
 22
69.16743068445432
 32
0
 13
155
 23
69.16743068445432
 33
0
  0
SOLID
  5
91
100
AcDbEntity
  8
Dim
  6
ByBlock
 62
    0
370
   -2
100
AcDbTrace
 10
252
 20
70
 30
0
 11
247
 21
69.16743068445432
 31
0
 12
247
 22
70.83256931554568
 32
0
 13
247
 23
70.83256931554568
 33
0
  0
MTEXT
  5
92
100
AcDbEntity
  8
Dim
  6
CONTINUOUS
 62
    0
370
   -2
100
AcDbMText
 10
201
 20
73.125
 30
0
 40
5
 41
8.888888888888889
 71
    5
 72
    1
  1
102
  7
standard
210
0
220
0
230
1
 50
0
 73
    2
 44
1
  0
LINE
  5
93
100
AcDbEntity
  8
Dim
  6
ByBlock
 62
    0
370
   -2
100
AcDbLine
 10
150
 20
60.0125
 11
150
 21
71.25
  0
LINE
  5
94
100
AcDbEntity
  8
Dim
  6
ByBlock
 62
    0
370
   -2
100
AcDbLine
 10
252
 20
60.0125
 11
252
 21
71.25
  0
ENDBLK
  5
58
330
56
100
AcDbEntity
  8
0
100
AcDbBlockEnd
  0
BLOCK
  5
5A
330
59
100
AcDbEntity
  8
0
100
AcDbBlockBegin
  2
*D10
 70
    1
 10
0
 20
0
  3
*D10
  1

  0
LINE
  5
95
100
AcDbEntity
  8
Dim
  6
ByBlock
 62
    0
370
   -2
100
AcDbLine
 10
260
 20
70
 11
260
 21
42.4
  0
SOLID
  5
96
100
AcDbEntity
  8
Dim
  6
ByBlock
 62
    0
370
   -2
100
AcDbTrace
 10
260
 20
59.99999999999999
 30
0
 11
259.1674306844543
 21
65
 31
0
 12
260.8325693155457
 22
65
 32
0
 13
260.8325693155457
 23
65
 33
0
  0
SOLID
  5
97
100
AcDbEntity
  8
Dim
  6
ByBlock
 62
    0
370
   -2
100
AcDbTrace
 10
260
 20
52.4
 30
0
 11
260.8325693155457
 21
47.4
 31
0
 12
259.1674306844543
 22
47.4
 32
0
 13
259.1674306844543
 23
47.4
 33
0
  0
MTEXT
  5
98
100
AcDbEntity
  8
Dim
  6
CONTINUOUS
 62
    0
370
   -2
100
AcDbMText
 10
256.875
 20
64.65277777777793
 30
0
 40
5
 41
8.055555555555866
 71
    5
 72
    1
  1
7,6
  7
standard
210
0
220
0
230
1
 50
90
 73
    2
 44
1
  0
LINE
  5
99
100
AcDbEntity
  8
Dim
  6
ByBlock
 62
    0
370
   -2
100
AcDbLine
 10
252.0125
 20
59.99999999999999
 11
261.25
 21
59.99999999999999
  0
LINE
  5
9A
100
AcDbEntity
  8
Dim
  6
ByBlock
 62
    0
370
   -2
100
AcDbLine
 10
252.0125000000001
 20
52.4
 11
261.25
 21
52.4
  0
ENDBLK
  5
5B
330
59
100
AcDbEntity
  8
0
100
AcDbBlockEnd
  0
BLOCK
  5
5D
330
5C
100
AcDbEntity
  8
0
100
AcDbBlockBegin
  2
*D4
 70
    1
 10
0
 20
0
  3
*D4
  1

  0
LINE
  5
9B
100
AcDbEntity
  8
Dim
  6
ByBlock
 62
    0
370
   -2
100
AcDbLine
 10
120
 20
8
 11
120
 21
-98
  0
SOLID
  5
9C
100
AcDbEntity
  8
Dim
  6
ByBlock
 62
    0
370
   -2
100
AcDbTrace
 10
120
 20
8
 30
0
 11
120.8325693155457
 21
3
 31
0
 12
119.1674306844543
 22
3
 32
0
 13
119.1674306844543
 23
3
 33
0
  0
SOLID
  5
9D
100
AcDbEntity
  8
Dim
  6
ByBlock
 62
    0
370
   -2
100
AcDbTrace
 10
120
 20
-98
 30
0
 11
119.1674306844543
 21
-93
 31
0
 12
120.8325693155457
 22
-93
 32
0
 13
120.8325693155457
 23
-93
 33
0
  0
MTEXT
  5
9E
100
AcDbEntity
  8
Dim
  6
CONTINUOUS
 62
    0
370
   -2
100
AcDbMText
 10
116.875
 20
-45
 30
0
 40
5
 41
8.888888888889198
 71
    5
 72
    1
  1
106
  7
standard
210
0
220
0
230
1
 50
90
 73
    2
 44
1
  0
LINE
  5
9F
100
AcDbEntity
  8
Dim
  6
ByBlock
 62
    0
370
   -2
100
AcDbLine
 10
100.0125
 20
8
 11
121.25
 21
8
  0
LINE
  5
A0
100
AcDbEntity
  8
Dim
  6
ByBlock
 62
    0
370
   -2
100
AcDbLine
 10
100.0125
 20
-98
 11
121.25
 21
-98
  0
ENDBLK
  5
5E
330
5C
100
AcDbEntity
  8
0
100
AcDbBlockEnd
  0
BLOCK
  5
60
330
5F
100
AcDbEntity
  8
0
100
AcDbBlockBegin
  2
*D14
 70
    1
 10
0
 20
0
  3
*D14
  1

  0
LINE
  5
A1
100
AcDbEntity
  8
Dim
  6
ByBlock
 62
    0
370
   -2
100
AcDbLine
 10
-13.5871294526568
 20
84.88065754552449
 11
-11.55374844816935
 21
98.1963452578219
  0
LINE
  5
A2
100
AcDbEntity
  8
Dim
  6
ByBlock
 62
    0
370
   -2
100
AcDbLine
 10
-20.99811305322401
 20
86.01235675652688
 11
-18.96473204873656
 21
99.3280444688243
  0
LINE
  5
A3
100
AcDbEntity
  8
Dim
  6
ByBlock
 62
    0
370
   -2
100
AcDbLine
 10
-1.857037904265084
 20
95.45111218434056
 11
-29.03883194783918
 21
99.60192623692978
  0
SOLID
  5
A4
100
AcDbEntity
  8
Dim
  6
ByBlock
 62
    0
370
   -2
100
AcDbTrace
 10
-11.74244312576853
 20
96.96066960513397
 30
0
 11
-6.674059396156119
 21
97.02891940065315
 31
0
 12
-6.925421633877492
 22
95.38286238882139
 32
0
 13
-6.925421633877492
 23
95.38286238882139
 33
0
  0
SOLID
  5
A5
100
AcDbEntity
  8
Dim
  6
ByBlock
 62
    0
370
   -2
100
AcDbTrace
 10
-19.15342672633574
 20
98.09236881613637
 30
0
 11
-24.22181045594814
 21
98.02411902061719
 31
0
 12
-23.97044821822677
 22
99.67017603244896
 32
0
 13
-23.97044821822677
 23
99.67017603244896
 33
0
  0
MTEXT
  5
A6
100
AcDbEntity
  8
Dim
  6
CONTINUOUS
 62
    0
370
   -2
100
AcDbMText
 10
-6.67124705787648
 20
99.34749521467906
 30
0
 40
5
 41
8.055555555555866
 71
    5
 72
    1
  1
7,5
  7
standard
210
0
220
0
230
1
 50
351.3176827385735
 73
    2
 44
1
  0
ENDBLK
  5
61
330
5F
100
AcDbEntity
  8
0
100
AcDbBlockEnd
  0
BLOCK
  5
63
330
62
100
AcDbEntity
  8
0
100
AcDbBlockBegin
  2
*D6
 70
    1
 10
0
 20
0
  3
*D6
  1

  0
LINE
  5
A7
100
AcDbEntity
  8
Dim
  6
ByBlock
 62
    0
370
   -2
100
AcDbLine
 10
150
 20
-10
 11
252
 21
-10
  0
SOLID
  5
A8
100
AcDbEntity
  8
Dim
  6
ByBlock
 62
    0
370
   -2
100
AcDbTrace
 10
150
 20
-10
 30
0
 11
155
 21
-9.16743068445432
 31
0
 12
155
 22
-10.83256931554568
 32
0
 13
155
 23
-10.83256931554568
 33
0
  0
SOLID
  5
A9
100
AcDbEntity
  8
Dim
  6
ByBlock
 62
    0
370
   -2
100
AcDbTrace
 10
252
 20
-10
 30
0
 11
247
 21
-10.83256931554568
 31
0
 12
247
 22
-9.167430684454319
 32
0
 13
247
 23
-9.167430684454319
 33
0
  0
MTEXT
  5
AA
100
AcDbEntity
  8
Dim
  6
CONTINUOUS
 62
    0
370
   -2
100
AcDbMText
 10
201
 20
-6.875
 30
0
 40
5
 41
8.888888888888889
 71
    5
 72
    1
  1
102
  7
standard
210
0
220
0
230
1
 50
0
 73
    2
 44
1
  0
LINE
  5
AB
100
AcDbEntity
  8
Dim
  6
ByBlock
 62
    0
370
   -2
100
AcDbLine
 10
150
 20
-19.9875
 11
150
 21
-8.75
  0
LINE
  5
AC
100
AcDbEntity
  8
Dim
  6
ByBlock
 62
    0
370
   -2
100
AcDbLine
 10
252
 20
-19.98750000000001
 11
252
 21
-8.75
  0
ENDBLK
  5
64
330
62
100
AcDbEntity
  8
0
100
AcDbBlockEnd
  0
BLOCK
  5
66
330
65
100
AcDbEntity
  8
0
100
AcDbBlockBegin
  2
*D8
 70
    1
 10
0
 20
0
  3
*D8
  1

  0
LINE
  5
AD
100
AcDbEntity
  8
Dim
  6
ByBlock
 62
    0
370
   -2
100
AcDbLine
 10
253.5449043663395
 20
-50
 11
274.378236479264
 21
-50
  0
SOLID
  5
AE
100
AcDbEntity
  8
Dim
  6
ByBlock
 62
    0
370
   -2
100
AcDbTrace
 10
263.5449043663395
 20
-50
 30
0
 11
258.5449043663395
 21
-50.83256931554568
 31
0
 12
258.5449043663395
 22
-49.16743068445432
 32
0
 13
258.5449043663395
 23
-49.16743068445432
 33
0
  0
SOLID
  5
AF
100
AcDbEntity
  8
Dim
  6
ByBlock
 62
    0
370
   -2
100
AcDbTrace
 10
264.378236479264
 20
-50
 30
0
 11
269.378236479264
 21
-49.16743068445432
 31
0
 12
269.378236479264
 22
-50.83256931554568
 32
0
 13
269.378236479264
 23
-50.83256931554568
 33
0
  0
MTEXT
  5
B0
100
AcDbEntity
  8
Dim
  6
CONTINUOUS
 62
    0
370
   -2
100
AcDbMText
 10
269.0310142570417
 20
-46.875
 30
0
 40
5
 41
8.055555555555555
 71
    5
 72
    1
  1
0,8
  7
standard
210
0
220
0
230
1
 50
0
 73
    2
 44
1
  0
LINE
  5
B1
100
AcDbEntity
  8
Dim
  6
ByBlock
 62
    0
370
   -2
100
AcDbLine
 10
263.5449043663395
 20
-59.98750736301578
 11
263.5449043663395
 21
-48.75
  0
LINE
  5
B2
100
AcDbEntity
  8
Dim
  6
ByBlock
 62
    0
370
   -2
100
AcDbLine
 10
264.378236479264
 20
-64.98749584737429
 11
264.378236479264
 21
-48.75
  0
ENDBLK
  5
67
330
65
100
AcDbEntity
  8
0
100
AcDbBlockEnd
  0
BLOCK
  5
69
330
68
100
AcDbEntity
  8
0
100
AcDbBlockBegin
  2
*D18
 70
    1
 10
0
 20
0
  3
*D18
  1

  0
LINE
  5
B3
100
AcDbEntity
  8
Dim
  6
ByBlock
 62
    0
370
   -2
100
AcDbLine
 10
280
 20
109.9999954680086
 11
280
 21
79.99999540377971
  0
SOLID
  5
B4
100
AcDbEntity
  8
Dim
  6
ByBlock
 62
    0
370
   -2
100
AcDbTrace
 10
280
 20
99.99999546800863
 30
0
 11
279.1674306844543
 21
104.9999954680086
 31
0
 12
280.8325693155457
 22
104.9999954680086
 32
0
 13
280.8325693155457
 23
104.9999954680086
 33
0
  0
SOLID
  5
B5
100
AcDbEntity
  8
Dim
  6
ByBlock
 62
    0
370
   -2
100
AcDbTrace
 10
280
 20
89.99999540377971
 30
0
 11
280.8325693155457
 21
84.99999540377971
 31
0
 12
279.1674306844543
 22
84.99999540377971
 32
0
 13
279.1674306844543
 23
84.99999540377971
 33
0
  0
MTEXT
  5
B6
100
AcDbEntity
  8
Dim
  6
CONTINUOUS
 62
    0
370
   -2
100
AcDbMText
 10
276.875
 20
94.99999543589416
 30
0
 40
5
 41
5
 71
    5
 72
    1
  1
10
  7
standard
210
0
220
0
230
1
 50
90
 73
    2
 44
1
  0
LINE
  5
B7
100
AcDbEntity
  8
Dim
  6
ByBlock
 62
    0
370
   -2
100
AcDbLine
 10
267.6125755857656
 20
99.99999546800863
 11
281.25
 21
99.99999546800863
  0
LINE
  5
B8
100
AcDbEntity
  8
Dim
  6
ByBlock
 62
    0
370
   -2
100
AcDbLine
 10
269.2792418670591
 20
89.99999540377971
 11
281.25
 21
89.99999540377971
  0
ENDBLK
  5
6A
330
68
100
AcDbEntity
  8
0
100
AcDbBlockEnd
  0
BLOCK
  5
6C
330
6B
100
AcDbEntity
  8
0
100
AcDbBlockBegin
  2
*D12
 70
    1
 10
0
 20
0
  3
*D12
  1

  0
LINE
  5
B9
100
AcDbEntity
  8
Dim
  6
ByBlock
 62
    0
370
   -2
100
AcDbLine
 10
260
 20
-42
 11
260
 21
-10.00000000000001
  0
SOLID
  5
BA
100
AcDbEntity
  8
Dim
  6
ByBlock
 62
    0
370
   -2
100
AcDbTrace
 10
260
 20
-32
 30
0
 11
260.8325693155457
 21
-37
 31
0
 12
259.1674306844543
 22
-37
 32
0
 13
259.1674306844543
 23
-37
 33
0
  0
SOLID
  5
BB
100
AcDbEntity
  8
Dim
  6
ByBlock
 62
    0
370
   -2
100
AcDbTrace
 10
260
 20
-20.00000000000001
 30
0
 11
259.1674306844543
 21
-15.00000000000001
 31
0
 12
260.8325693155457
 22
-15.00000000000001
 32
0
 13
260.8325693155457
 23
-15.00000000000001
 33
0
  0
MTEXT
  5
BC
100
AcDbEntity
  8
Dim
  6
CONTINUOUS
 62
    0
370
   -2
100
AcDbMText
 10
256.875
 20
-26
 30
0
 40
5
 41
5
 71
    5
 72
    1
  1
12
  7
standard
210
0
220
0
230
1
 50
90
 73
    2
 44
1
  0
LINE
  5
BD
100
AcDbEntity
  8
Dim
  6
ByBlock
 62
    0
370
   -2
100
AcDbLine
 10
252.0125
 20
-32
 11
261.25
 21
-32
  0
LINE
  5
BE
100
AcDbEntity
  8
Dim
  6
ByBlock
 62
    0
370
   -2
100
AcDbLine
 10
252.0125
 20
-20.00000000000001
 11
261.25
 21
-20.00000000000001
  0
ENDBLK
  5
6D
330
6B
100
AcDbEntity
  8
0
100
AcDbBlockEnd
  0
BLOCK
  5
6F
330
6E
100
AcDbEntity
  8
0
100
AcDbBlockBegin
  2
*D1
 70
    1
 10
0
 20
0
  3
*D1
  1

  0
LINE
  5
BF
100
AcDbEntity
  8
Dim
  6
ByBlock
 62
    0
370
   -2
100
AcDbLine
 10
-30.00000000000001
 20
-101.5
 11
-30
 21
11.5
  0
SOLID
  5
C0
100
AcDbEntity
  8
Dim
  6
ByBlock
 62
    0
370
   -2
100
AcDbTrace
 10
-30.00000000000001
 20
-101.5
 30
0
 11
-30.83256931554569
 21
-96.5
 31
0
 12
-29.16743068445432
 22
-96.5
 32
0
 13
-29.16743068445432
 23
-96.5
 33
0
  0
SOLID
  5
C1
100
AcDbEntity
  8
Dim
  6
ByBlock
 62
    0
370
   -2
100
AcDbTrace
 10
-30
 20
11.5
 30
0
 11
-29.16743068445432
 21
6.5
 31
0
 12
-30.83256931554568
 22
6.5
 32
0
 13
-30.83256931554568
 23
6.5
 33
0
  0
MTEXT
  5
C2
100
AcDbEntity
  8
Dim
  6
CONTINUOUS
 62
    0
370
   -2
100
AcDbMText
 10
-33.125
 20
-45
 30
0
 40
5
 41
7.777777777778089
 71
    5
 72
    1
  1
113
  7
standard
210
0
220
0
230
1
 50
90
 73
    2
 44
1
  0
LINE
  5
C3
100
AcDbEntity
  8
Dim
  6
ByBlock
 62
    0
370
   -2
100
AcDbLine
 10
-21.0125
 20
-101.5
 11
-31.25000000000001
 21
-101.5
  0
LINE
  5
C4
100
AcDbEntity
  8
Dim
  6
ByBlock
 62
    0
370
   -2
100
AcDbLine
 10
-21.0125
 20
11.5
 11
-31.25
 21
11.5
  0
ENDBLK
  5
70
330
6E
100
AcDbEntity
  8
0
100
AcDbBlockEnd
  0
BLOCK
  5
72
330
71
100
AcDbEntity
  8
0
100
AcDbBlockBegin
  2
*D2
 70
    1
 10
0
 20
0
  3
*D2
  1

  0
LINE
  5
C5
100
AcDbEntity
  8
Dim
  6
ByBlock
 62
    0
370
   -2
100
AcDbLine
 10
150
 20
110
 11
267.6000755857655
 21
110
  0
SOLID
  5
C6
100
AcDbEntity
  8
Dim
  6
ByBlock
 62
    0
370
   -2
100
AcDbTrace
 10
150
 20
110
 30
0
 11
155
 21
110.8325693155457
 31
0
 12
155
 22
109.1674306844543
 32
0
 13
155
 23
109.1674306844543
 33
0
  0
SOLID
  5
C7
100
AcDbEntity
  8
Dim
  6
ByBlock
 62
    0
370
   -2
100
AcDbTrace
 10
267.6000755857655
 20
110
 30
0
 11
262.6000755857655
 21
109.1674306844543
 31
0
 12
262.6000755857655
 22
110.8325693155457
 32
0
 13
262.6000755857655
 23
110.8325693155457
 33
0
  0
MTEXT
  5
C8
100
AcDbEntity
  8
Dim
  6
CONTINUOUS
 62
    0
370
   -2
100
AcDbMText
 10
208.8000377928828
 20
113.125
 30
0
 40
5
 41
13.61111111111142
 71
    5
 72
    1
  1
117,6
  7
standard
210
0
220
0
230
1
 50
0
 73
    2
 44
1
  0
LINE
  5
C9
100
AcDbEntity
  8
Dim
  6
ByBlock
 62
    0
370
   -2
100
AcDbLine
 10
150
 20
100.0125
 11
150
 21
111.25
  0
LINE
  5
CA
100
AcDbEntity
  8
Dim
  6
ByBlock
 62
    0
370
   -2
100
AcDbLine
 10
267.6000755857655
 20
100.0124954680086
 11
267.6000755857655
 21
111.25
  0
ENDBLK
  5
73
330
71
100
AcDbEntity
  8
0
100
AcDbBlockEnd
  0
BLOCK
  5
75
330
74
100
AcDbEntity
  8
0
100
AcDbBlockBegin
  2
*D13
 70
    1
 10
0
 20
0
  3
*D13
  1

  0
LINE
  5
CB
100
AcDbEntity
  8
Dim
  6
ByBlock
 62
    0
370
   -2
100
AcDbLine
 10
98.00205498734131
 20
66.24796536596305
 11
100.3294497435509
 21
80.21233390322037
  0
LINE
  5
CC
100
AcDbEntity
  8
Dim
  6
ByBlock
 62
    0
370
   -2
100
AcDbLine
 10
104.3444590381197
 20
65.19089802416663
 11
106.6718537943293
 21
79.15526656142394
  0
LINE
  5
CD
100
AcDbEntity
  8
Dim
  6
ByBlock
 62
    0
370
   -2
100
AcDbLine
 10
90.26001177109779
 20
80.6233313714838
 11
116.3302942985191
 21
76.27828428358015
  0
SOLID
  5
CE
100
AcDbEntity
  8
Dim
  6
ByBlock
 62
    0
370
   -2
100
AcDbTrace
 10
100.1239510094192
 20
78.97934149843019
 30
0
 11
95.05510783792128
 21
78.98009512093365
 31
0
 12
95.32885494259574
 22
80.62257774898035
 32
0
 13
95.32885494259574
 23
80.62257774898035
 33
0
  0
SOLID
  5
CF
100
AcDbEntity
  8
Dim
  6
ByBlock
 62
    0
370
   -2
100
AcDbTrace
 10
106.4663550601976
 20
77.92227415663376
 30
0
 11
111.5351982316956
 21
77.92152053413029
 31
0
 12
111.2614511270211
 22
76.2790379060836
 32
0
 13
111.2614511270211
 23
76.2790379060836
 33
0
  0
MTEXT
  5
D0
100
AcDbEntity
  8
Dim
  6
CONTINUOUS
 62
    0
370
   -2
100
AcDbMText
 10
111.8435719366439
 20
80.19417682842301
 30
0
 40
5
 41
8.611111111111422
 71
    5
 72
    1
  1
6,4
  7
standard
210
0
220
0
230
1
 50
350.5376777919741
 73
    2
 44
1
  0
ENDBLK
  5
76
330
74
100
AcDbEntity
  8
0
100
AcDbBlockEnd
  0
BLOCK
  5
78
330
77
100
AcDbEntity
  8
0
100
AcDbBlockBegin
  2
*D7
 70
    1
 10
0
 20
0
  3
*D7
  1

  0
LINE
  5
D1
100
AcDbEntity
  8
Dim
  6
ByBlock
 62
    0
370
   -2
100
AcDbLine
 10
150
 20
-50
 11
263.5449043663395
 21
-50
  0
SOLID
  5
D2
100
AcDbEntity
  8
Dim
  6
ByBlock
 62
    0
370
   -2
100
AcDbTrace
 10
150
 20
-50
 30
0
 11
155
 21
-49.16743068445432
 31
0
 12
155
 22
-50.83256931554568
 32
0
 13
155
 23
-50.83256931554568
 33
0
  0
SOLID
  5
D3
100
AcDbEntity
  8
Dim
  6
ByBlock
 62
    0
370
   -2
100
AcDbTrace
 10
263.5449043663395
 20
-50
 30
0
 11
258.5449043663395
 21
-50.83256931554568
 31
0
 12
258.5449043663395
 22
-49.16743068445432
 32
0
 13
258.5449043663395
 23
-49.16743068445432
 33
0
  0
MTEXT
  5
D4
100
AcDbEntity
  8
Dim
  6
CONTINUOUS
 62
    0
370
   -2
100
AcDbMText
 10
206.7724521831697
 20
-46.875
 30
0
 40
5
 41
13.61111111111174
 71
    5
 72
    1
  1
113,5
  7
standard
210
0
220
0
230
1
 50
0
 73
    2
 44
1
  0
LINE
  5
D5
100
AcDbEntity
  8
Dim
  6
ByBlock
 62
    0
370
   -2
100
AcDbLine
 10
150
 20
-59.9875
 11
150
 21
-48.75
  0
LINE
  5
D6
100
AcDbEntity
  8
Dim
  6
ByBlock
 62
    0
370
   -2
100
AcDbLine
 10
263.5449043663395
 20
-59.98750736301578
 11
263.5449043663395
 21
-48.75
  0
ENDBLK
  5
79
330
77
100
AcDbEntity
  8
0
100
AcDbBlockEnd
  0
BLOCK
  5
7B
330
7A
100
AcDbEntity
  8
0
100
AcDbBlockBegin
  2
*D9
 70
    1
 10
0
 20
0
  3
*D9
  1

  0
LINE
  5
D7
100
AcDbEntity
  8
Dim
  6
ByBlock
 62
    0
370
   -2
100
AcDbLine
 10
150
 20
30
 11
252
 21
30
  0
SOLID
  5
D8
100
AcDbEntity
  8
Dim
  6
ByBlock
 62
    0
370
   -2
100
AcDbTrace
 10
150
 20
30
 30
0
 11
155
 21
30.83256931554568
 31
0
 12
155
 22
29.16743068445432
 32
0
 13
155
 23
29.16743068445432
 33
0
  0
SOLID
  5
D9
100
AcDbEntity
  8
Dim
  6
ByBlock
 62
    0
370
   -2
100
AcDbTrace
 10
252
 20
30
 30
0
 11
247
 21
29.16743068445432
 31
0
 12
247
 22
30.83256931554568
 32
0
 13
247
 23
30.83256931554568
 33
0
  0
MTEXT
  5
DA
100
AcDbEntity
  8
Dim
  6
CONTINUOUS
 62
    0
370
   -2
100
AcDbMText
 10
201
 20
33.125
 30
0
 40
5
 41
8.888888888888889
 71
    5
 72
    1
  1
102
  7
standard
210
0
220
0
230
1
 50
0
 73
    2
 44
1
  0
LINE
  5
DB
100
AcDbEntity
  8
Dim
  6
ByBlock
 62
    0
370
   -2
100
AcDbLine
 10
150
 20
20.0125
 11
150
 21
31.25
  0
LINE
  5
DC
100
AcDbEntity
  8
Dim
  6
ByBlock
 62
    0
370
   -2
100
AcDbLine
 10
252
 20
20.01249999999999
 11
252
 21
31.25
  0
ENDBLK
  5
7C
330
7A
100
AcDbEntity
  8
0
100
AcDbBlockEnd
  0
BLOCK
  5
7E
330
7D
100
AcDbEntity
  8
0
100
AcDbBlockBegin
  2
*D3
 70
    1
 10
0
 20
0
  3
*D3
  1

  0
LINE
  5
DD
100
AcDbEntity
  8
Dim
  6
ByBlock
 62
    0
370
   -2
100
AcDbLine
 10
257.6000755857655
 20
110
 11
279.266741867059
 21
110
  0
SOLID
  5
DE
100
AcDbEntity
  8
Dim
  6
ByBlock
 62
    0
370
   -2
100
AcDbTrace
 10
267.6000755857655
 20
110
 30
0
 11
262.6000755857655
 21
109.1674306844543
 31
0
 12
262.6000755857655
 22
110.8325693155457
 32
0
 13
262.6000755857655
 23
110.8325693155457
 33
0
  0
SOLID
  5
DF
100
AcDbEntity
  8
Dim
  6
ByBlock
 62
    0
370
   -2
100
AcDbTrace
 10
269.266741867059
 20
110
 30
0
 11
274.266741867059
 21
110.8325693155457
 31
0
 12
274.266741867059
 22
109.1674306844543
 32
0
 13
274.266741867059
 23
109.1674306844543
 33
0
  0
MTEXT
  5
E0
100
AcDbEntity
  8
Dim
  6
CONTINUOUS
 62
    0
370
   -2
100
AcDbMText
 10
273.3639640892813
 20
113.125
 30
0
 40
5
 41
6.944444444444445
 71
    5
 72
    1
  1
1,7
  7
standard
210
0
220
0
230
1
 50
0
 73
    2
 44
1
  0
LINE
  5
E1
100
AcDbEntity
  8
Dim
  6
ByBlock
 62
    0
370
   -2
100
AcDbLine
 10
267.6000755857655
 20
100.0124954680086
 11
267.6000755857655
 21
111.25
  0
LINE
  5
E2
100
AcDbEntity
  8
Dim
  6
ByBlock
 62
    0
370
   -2
100
AcDbLine
 10
269.266741867059
 20
90.01249540377975
 11
269.266741867059
 21
111.25
  0
ENDBLK
  5
7F
330
7D
100
AcDbEntity
  8
0
100
AcDbBlockEnd
  0
BLOCK
  5
81
330
80
100
AcDbEntity
  8
0
100
AcDbBlockBegin
  2
*D16
 70
    1
 10
0
 20
0
  3
*D16
  1

  0
LINE
  5
E3
100
AcDbEntity
  8
Dim
  6
ByBlock
 62
    0
370
   -2
100
AcDbLine
 10
-14.00205498798445
 20
77.32100340939259
 11
-16.69198522126129
 21
61.18142200973139
  0
LINE
  5
E4
100
AcDbEntity
  8
Dim
  6
ByBlock
 62
    0
370
   -2
100
AcDbLine
 10
-0.002054987341316948
 20
74.9876700759521
 11
-2.691985220618157
 21
58.8480886762909
  0
LINE
  5
E5
100
AcDbEntity
  8
Dim
  6
ByBlock
 62
    0
370
   -2
100
AcDbLine
 10
-16.48648648712959
 20
62.41441441452157
 11
-2.486486486486463
 21
60.08108108108108
  0
SOLID
  5
E6
100
AcDbEntity
  8
Dim
  6
ByBlock
 62
    0
370
   -2
100
AcDbTrace
 10
-16.48648648712959
 20
62.41441441452157
 30
0
 11
-11.41764331563165
 21
62.41366079201814
 31
0
 12
-11.6913904203061
 22
60.77117816397145
 32
0
 13
-11.6913904203061
 23
60.77117816397145
 33
0
  0
SOLID
  5
E7
100
AcDbEntity
  8
Dim
  6
ByBlock
 62
    0
370
   -2
100
AcDbTrace
 10
-2.486486486486463
 20
60.08108108108108
 30
0
 11
-7.555329657984406
 21
60.08183470358451
 31
0
 12
-7.281582553309961
 22
61.72431733163121
 32
0
 13
-7.281582553309961
 23
61.72431733163121
 33
0
  0
MTEXT
  5
E8
100
AcDbEntity
  8
Dim
  6
CONTINUOUS
 62
    0
370
   -2
100
AcDbMText
 10
-8.972739651478776
 20
64.33022875977677
 30
0
 40
5
 41
11.38888888888889
 71
    5
 72
    1
  1
14,2
  7
standard
210
0
220
0
230
1
 50
350.5376777919745
 73
    2
 44
1
  0
ENDBLK
  5
82
330
80
100
AcDbEntity
  8
0
100
AcDbBlockEnd
  0
BLOCK
  5
84
330
83
100
AcDbEntity
  8
0
100
AcDbBlockBegin
  2
*D11
 70
    1
 10
0
 20
0
  3
*D11
  1

  0
LINE
  5
E9
100
AcDbEntity
  8
Dim
  6
ByBlock
 62
    0
370
   -2
100
AcDbLine
 10
260
 20
2.800000000000001
 11
260
 21
29.99999999999999
  0
SOLID
  5
EA
100
AcDbEntity
  8
Dim
  6
ByBlock
 62
    0
370
   -2
100
AcDbTrace
 10
260
 20
12.8
 30
0
 11
260.8325693155457
 21
7.800000000000001
 31
0
 12
259.1674306844543
 22
7.800000000000001
 32
0
 13
259.1674306844543
 23
7.800000000000001
 33
0
  0
SOLID
  5
EB
100
AcDbEntity
  8
Dim
  6
ByBlock
 62
    0
370
   -2
100
AcDbTrace
 10
260
 20
19.99999999999999
 30
0
 11
259.1674306844543
 21
24.99999999999999
 31
0
 12
260.8325693155457
 22
24.99999999999999
 32
0
 13
260.8325693155457
 23
24.99999999999999
 33
0
  0
MTEXT
  5
EC
100
AcDbEntity
  8
Dim
  6
CONTINUOUS
 62
    0
370
   -2
100
AcDbMText
 10
256.875
 20
24.65277777777777
 30
0
 40
5
 41
8.055555555555555
 71
    5
 72
    1
  1
7,2
  7
standard
210
0
220
0
230
1
 50
90
 73
    2
 44
1
  0
LINE
  5
ED
100
AcDbEntity
  8
Dim
  6
ByBlock
 62
    0
370
   -2
100
AcDbLine
 10
252.0125
 20
12.8
 11
261.25
 21
12.8
  0
LINE
  5
EE
100
AcDbEntity
  8
Dim
  6
ByBlock
 62
    0
370
   -2
100
AcDbLine
 10
252.0125
 20
19.99999999999999
 11
261.25
 21
19.99999999999999
  0
ENDBLK
  5
85
330
83
100
AcDbEntity
  8
0
100
AcDbBlockEnd
  0
BLOCK
  5
87
330
86
100
AcDbEntity
  8
0
100
AcDbBlockBegin
  2
*D17
 70
    1
 10
0
 20
0
  3
*D17
  1

  0
LINE
  5
EF
100
AcDbEntity
  8
Dim
  6
ByBlock
 62
    0
370
   -2
100
AcDbLine
 10
97.99794501265892
 20
58.6543367426187
 11
96.41612288749013
 21
49.16340399160617
  0
LINE
  5
F0
100
AcDbEntity
  8
Dim
  6
ByBlock
 62
    0
370
   -2
100
AcDbLine
 10
89.99794501265869
 20
59.9876700759521
 11
88.41612288748991
 21
50.49673732493956
  0
LINE
  5
F1
100
AcDbEntity
  8
Dim
  6
ByBlock
 62
    0
370
   -2
100
AcDbLine
 10
106.4855608599433
 20
48.75240652334274
 11
78.75768238330016
 21
53.37371960278334
  0
SOLID
  5
F2
100
AcDbEntity
  8
Dim
  6
ByBlock
 62
    0
370
   -2
100
AcDbTrace
 10
96.62162162162183
 20
50.39639639639635
 30
0
 11
101.6904647931198
 21
50.3956427738929
 31
0
 12
101.4167176884453
 22
48.7531601458462
 32
0
 13
101.4167176884453
 23
48.7531601458462
 33
0
  0
SOLID
  5
F3
100
AcDbEntity
  8
Dim
  6
ByBlock
 62
    0
370
   -2
100
AcDbTrace
 10
88.6216216216216
 20
51.72972972972974
 30
0
 11
83.55277845012365
 21
51.73048335223319
 31
0
 12
83.82652555479811
 22
53.37296598027989
 32
0
 13
83.82652555479811
 23
53.37296598027989
 33
0
  0
MTEXT
  5
F4
100
AcDbEntity
  8
Dim
  6
CONTINUOUS
 62
    0
370
   -2
100
AcDbMText
 10
93.13536845695097
 20
54.1455440750385
 30
0
 40
5
 41
6.944444444444445
 71
    5
 72
    1
  1
8,1
  7
standard
210
0
220
0
230
1
 50
350.5376777919743
 73
    2
 44
1
  0
ENDBLK
  5
88
330
86
100
AcDbEntity
  8
0
100
AcDbBlockEnd
  0
ENDSEC
  0
SECTION
  2
ENTITIES
  0
HATCH
  5
F5
100
AcDbEntity
  8
Derevo_obresh
  6
ByLayer
 62
  256
370
   -1
100
AcDbHatch
 10
0
 20
0
 30
0
210
0
220
0
230
1
  2
gost_wood
 70
    0
 71
    0
 91
    1
 92
    0
 93
    5
 72
    1
 10
6.1388614171789
 20
81.58031708064149
 11
5.727877816611798
 21
79.11432995981849
 72
    1
 10
5.727877816611798
 20
79.11432995981849
 11
17.56461599656219
 21
77.1416086770964
 72
    1
 10
17.56461599656219
 20
77.1416086770964
 11
17.97559959712929
 21
79.6075957979194
 72
    1
 10
17.97559959712929
 20
79.6075957979194
 11
6.1388614171789
 21
81.58031708064149
 72
    1
 10
6.1388614171789
 20
81.58031708064149
 11
6.1388614171789
 21
81.58031708064149
 97
    0
 75
    0
 76
    1
 52
0
 41
0.5
 77
    0
 78
    0
 98
    0
  0
HATCH
  5
F6
100
AcDbEntity
  8
Derevo_obresh
  6
ByLayer
 62
  256
370
   -1
100
AcDbHatch
 10
0
 20
0
 30
0
210
0
220
0
230
1
  2
gost_wood
 70
    0
 71
    0
 91
    1
 92
    0
 93
    5
 72
    1
 10
25.86673923379058
 20
78.29233337228541
 11
25.45575563322348
 21
75.8263462514624
 72
    1
 10
25.45575563322348
 20
75.8263462514624
 11
37.29249381317388
 21
73.85362496874031
 72
    1
 10
37.29249381317388
 20
73.85362496874031
 11
37.70347741374098
 21
76.31961208956329
 72
    1
 10
37.70347741374098
 20
76.31961208956329
 11
25.86673923379058
 21
78.29233337228541
 72
    1
 10
25.86673923379058
 20
78.29233337228541
 11
25.86673923379058
 21
78.29233337228541
 97
    0
 75
    0
 76
    1
 52
0
 41
0.5
 77
    0
 78
    0
 98
    0
  0
HATCH
  5
F7
100
AcDbEntity
  8
Derevo_obresh
  6
ByLayer
 62
  256
370
   -1
100
AcDbHatch
 10
0
 20
0
 30
0
210
0
220
0
230
1
  2
gost_wood
 70
    0
 71
    0
 91
    1
 92
    0
 93
    5
 72
    1
 10
45.59461705040227
 20
75.0043496639292
 11
45.18363344983517
 21
72.5383625431062
 72
    1
 10
45.18363344983517
 20
72.5383625431062
 11
57.02037162978556
 21
70.5656412603842
 72
    1
 10
57.02037162978556
 20
70.5656412603842
 11
57.43135523035266
 21
73.0316283812072
 72
    1
 10
57.43135523035266
 20
73.0316283812072
 11
45.59461705040227
 21
75.0043496639292
 72
    1
 10
45.59461705040227
 20
75.0043496639292
 11
45.59461705040227
 21
75.0043496639292
 97
    0
 75
    0
 76
    1
 52
0
 41
0.5
 77
    0
 78
    0
 98
    0
  0
HATCH
  5
F8
100
AcDbEntity
  8
Derevo_obresh
  6
ByLayer
 62
  256
370
   -1
100
AcDbHatch
 10
0
 20
0
 30
0
210
0
220
0
230
1
  2
gost_wood
 70
    0
 71
    0
 91
    1
 92
    0
 93
    5
 72
    1
 10
65.32249486701396
 20
71.7163659555731
 11
64.91151126644685
 21
69.25037883475009
 72
    1
 10
64.91151126644685
 20
69.25037883475009
 11
76.74824944639724
 21
67.277657552028
 72
    1
 10
76.74824944639724
 20
67.277657552028
 11
77.15923304696435
 21
69.743644672851
 72
    1
 10
77.15923304696435
 20
69.743644672851
 11
65.32249486701396
 21
71.7163659555731
 72
    1
 10
65.32249486701396
 20
71.7163659555731
 11
65.32249486701396
 21
71.7163659555731
 97
    0
 75
    0
 76
    1
 52
0
 41
0.5
 77
    0
 78
    0
 98
    0
  0
HATCH
  5
F9
100
AcDbEntity
  8
Derevo_obresh
  6
ByLayer
 62
  256
370
   -1
100
AcDbHatch
 10
0
 20
0
 30
0
210
0
220
0
230
1
  2
gost_wood
 70
    0
 71
    0
 91
    1
 92
    0
 93
    5
 72
    1
 10
85.75787976017558
 20
65.7759800135412
 11
86.16886336074269
 21
68.2419671343642
 72
    1
 10
86.16886336074269
 20
68.2419671343642
 11
85.75787976017558
 21
65.7759800135412
 72
    1
 10
85.75787976017558
 20
65.7759800135412
 11
97.59461794012597
 21
63.8032587308191
 72
    1
 10
97.59461794012597
 20
63.8032587308191
 11
98.00560154069308
 21
66.2692458516421
 72
    1
 10
98.00560154069308
 20
66.2692458516421
 11
86.16886336074269
 21
68.2419671343642
 97
    0
 75
    0
 76
    1
 52
0
 41
0.5
 77
    0
 78
    0
 98
    0
  0
HATCH
  5
FA
100
AcDbEntity
  8
Derevo_obresh
  6
ByLayer
 62
  256
370
   -1
100
AcDbHatch
 10
0
 20
0
 30
0
210
0
220
0
230
1
  2
gost_wood
 70
    0
 71
    0
 91
    1
 92
    0
 93
    5
 72
    1
 10
-13.99999999999989
 20
82.4023136681746
 11
-13.58901639943278
 21
84.8683007889976
 72
    1
 10
-13.58901639943278
 20
84.8683007889976
 11
-1.752278219482394
 21
82.89557950627551
 72
    1
 10
-1.752278219482394
 20
82.89557950627551
 11
-2.163261820049495
 21
80.42959238545251
 72
    1
 10
-2.163261820049495
 20
80.42959238545251
 11
-13.99999999999989
 21
82.4023136681746
 72
    1
 10
-13.99999999999989
 20
82.4023136681746
 11
-13.58901639943278
 21
84.8683007889976
 97
    0
 75
    0
 76
    1
 52
0
 41
0.5
 77
    0
 78
    0
 98
    0
  0
LWPOLYLINE
  5
FB
100
AcDbEntity
  8
Karkas
  6
ByLayer
 62
  256
370
   -1
100
AcDbPolyline
 90
    4
 70
    1
 43
0
 10
0
 20
-90
 10
91
 20
-90
 10
91
 20
0
 10
0
 20
0
  0
LINE
  5
FC
100
AcDbEntity
  8
Karkas
  6
ByLayer
 62
  256
370
   -1
100
AcDbLine
 10
91
 20
-3.5
 11
-6.429395695523604e-16
 21
-3.5
  0
LINE
  5
FD
100
AcDbEntity
  8
Karkas
  6
ByLayer
 62
  256
370
   -1
100
AcDbLine
 10
2.143131898507868e-16
 20
-86.5
 11
91
 21
-86.5
  0
LINE
  5
FE
100
AcDbEntity
  8
Karkas
  6
ByLayer
 62
  256
370
   -1
100
AcDbLine
 10
87.5
 20
-86.5
 11
87.5
 21
-3.5
  0
LINE
  5
FF
100
AcDbEntity
  8
Karkas
  6
ByLayer
 62
  256
370
   -1
100
AcDbLine
 10
3.5
 20
-3.5
 11
3.5
 21
-86.5
  0
LWPOLYLINE
  5
100
100
AcDbEntity
  8
Shifer
  6
ByLayer
 62
  256
370
   -1
100
AcDbPolyline
 90
    4
 70
    1
 43
0
 10
-21
 20
-101.5
 10
105
 20
-101.5
 10
105
 20
11.5
 10
-21
 20
11.5
  0
LWPOLYLINE
  5
101
100
AcDbEntity
  8
Derevo_obsh
  6
ByLayer
 62
  256
370
   -1
100
AcDbPolyline
 90
    4
 70
    1
 43
0
 10
-16
 20
6
 10
-14
 20
6
 10
-14
 20
-96
 10
-16
 20
-96
  0
LWPOLYLINE
  5
102
100
AcDbEntity
  8
Derevo_obsh
  6
ByLayer
 62
  256
370
   -1
100
AcDbPolyline
 90
    4
 70
    1
 43
0
 10
100
 20
-96
 10
98
 20
-96
 10
98
 20
6
 10
100
 20
6
  0
LWPOLYLINE
  5
103
100
AcDbEntity
  8
Derevo_obsh
  6
ByLayer
 62
  256
370
   -1
100
AcDbPolyline
 90
    4
 70
    1
 43
0
 10
100
 20
6
 10
-16
 20
6
 10
-16
 20
8
 10
100
 20
8
  0
LWPOLYLINE
  5
104
100
AcDbEntity
  8
Derevo_obsh
  6
ByLayer
 62
  256
370
   -1
100
AcDbPolyline
 90
    4
 70
    1
 43
0
 10
-16
 20
-98
 10
100
 20
-98
 10
100
 20
-96
 10
-16
 20
-96
  0
LWPOLYLINE
  5
105
100
AcDbEntity
  8
Derevo_obresh
  6
ByLayer
 62
  256
370
   -1
100
AcDbPolyline
 90
    4
 70
    1
 43
0
 10
-13.67568849270151
 20
1
 10
98
 20
1
 10
98
 20
-4
 10
-13.67568849270151
 20
-4
  0
LWPOLYLINE
  5
106
100
AcDbEntity
  8
Derevo_obresh
  6
ByLayer
 62
  256
370
   -1
100
AcDbPolyline
 90
    4
 70
    1
 43
0
 10
98
 20
-86
 10
-13.67568849270151
 20
-86
 10
-13.67568849270151
 20
-91
 10
98
 20
-91
  0
DIMENSION
  5
107
100
AcDbEntity
  8
Dim
  6
ByLayer
 62
  256
370
   -1
100
AcDbDimension
  2
*D1
 10
-30
 20
11.5
 30
0
 11
-33.125
 21
-45
 31
0
 70
   32
 71
    5
 72
    0
  3
Standard
 53
0
210
0
220
0
230
1
100
AcDbAlignedDimension
 13
-21
 23
-101.5
 33
0
 14
-21
 24
11.5
 34
0
 50
90
100
AcDbRotatedDimension
  0
DIMENSION
  5
108
100
AcDbEntity
  8
Dim
  6
ByLayer
 62
  256
370
   -1
100
AcDbDimension
  2
*D2
 10
267.6000755857655
 20
110
 30
0
 11
208.8000377928828
 21
113.125
 31
0
 70
   32
 71
    5
 72
    0
  3
Standard
 53
0
210
0
220
0
230
1
100
AcDbAlignedDimension
 13
150
 23
100
 33
0
 14
267.6000755857655
 24
99.99999546800861
 34
0
100
AcDbRotatedDimension
  0
DIMENSION
  5
109
100
AcDbEntity
  8
Dim
  6
ByLayer
 62
  256
370
   -1
100
AcDbDimension
  2
*D3
 10
269.266741867059
 20
110
 30
0
 11
268.4334087264123
 21
113.125
 31
0
 70
   32
 71
    5
 72
    0
  3
Standard
 53
0
210
0
220
0
230
1
100
AcDbAlignedDimension
 13
267.6000755857655
 23
99.99999546800861
 33
0
 14
269.266741867059
 24
89.99999540377975
 34
0
100
AcDbRotatedDimension
  0
LWPOLYLINE
  5
10A
100
AcDbEntity
  8
Derevo_obsh
  6
ByLayer
 62
  256
370
   -1
100
AcDbPolyline
 90
    5
 70
    0
 43
0
 10
269.2667418670591
 20
89.99999540377971
 10
267.6000755857656
 20
99.99999546800863
 10
150.0000000000001
 20
99.99999999999999
 10
151.6666662812937
 20
89.99999993577107
 10
269.2667418670591
 20
89.99999540377971
  0
DIMENSION
  5
10B
100
AcDbEntity
  8
Dim
  6
ByLayer
 62
  256
370
   -1
100
AcDbDimension
  2
*D4
 10
120
 20
-98
 30
0
 11
116.875
 21
-45
 31
0
 70
   32
 71
    5
 72
    0
  3
Standard
 53
0
210
0
220
0
230
1
100
AcDbAlignedDimension
 13
100
 23
8
 33
0
 14
100
 24
-98
 34
0
 50
90
100
AcDbRotatedDimension
  0
DIMENSION
  5
10C
100
AcDbEntity
  8
Dim
  6
ByLayer
 62
  256
370
   -1
100
AcDbDimension
  2
*D5
 10
252
 20
70
 30
0
 11
201
 21
73.125
 31
0
 70
   32
 71
    5
 72
    0
  3
Standard
 53
0
210
0
220
0
230
1
100
AcDbAlignedDimension
 13
150
 23
60
 33
0
 14
252
 24
59.99999999999999
 34
0
100
AcDbRotatedDimension
  0
LWPOLYLINE
  5
10D
100
AcDbEntity
  8
Derevo_obresh
  6
ByLayer
 62
  256
370
   -1
100
AcDbPolyline
 90
    5
 70
    1
 43
0
 10
264.378236479264
 20
-64.99999584737429
 10
150.8333359136982
 20
-65.00001128898205
 10
150
 20
-60
 10
263.5449043663395
 20
-60.00000736301578
 10
263.5449043663395
 20
-60.00000736301578
  0
DIMENSION
  5
10E
100
AcDbEntity
  8
Dim
  6
ByLayer
 62
  256
370
   -1
100
AcDbDimension
  2
*D6
 10
252
 20
-10
 30
0
 11
201
 21
-6.875
 31
0
 70
   32
 71
    5
 72
    0
  3
Standard
 53
0
210
0
220
0
230
1
100
AcDbAlignedDimension
 13
150
 23
-20
 33
0
 14
252
 24
-20.00000000000001
 34
0
100
AcDbRotatedDimension
  0
DIMENSION
  5
10F
100
AcDbEntity
  8
Dim
  6
ByLayer
 62
  256
370
   -1
100
AcDbDimension
  2
*D7
 10
263.5449043663395
 20
-50
 30
0
 11
206.7724521831697
 21
-46.875
 31
0
 70
   32
 71
    5
 72
    0
  3
Standard
 53
0
210
0
220
0
230
1
100
AcDbAlignedDimension
 13
150
 23
-60
 33
0
 14
263.5449043663395
 24
-60.00000736301578
 34
0
100
AcDbRotatedDimension
  0
DIMENSION
  5
110
100
AcDbEntity
  8
Dim
  6
ByLayer
 62
  256
370
   -1
100
AcDbDimension
  2
*D8
 10
264.378236479264
 20
-50
 30
0
 11
263.9615704228017
 21
-46.875
 31
0
 70
   32
 71
    5
 72
    0
  3
Standard
 53
0
210
0
220
0
230
1
100
AcDbAlignedDimension
 13
263.5449043663395
 23
-60.00000736301578
 33
0
 14
264.378236479264
 24
-64.99999584737429
 34
0
100
AcDbRotatedDimension
  0
DIMENSION
  5
111
100
AcDbEntity
  8
Dim
  6
ByLayer
 62
  256
370
   -1
100
AcDbDimension
  2
*D9
 10
252
 20
30
 30
0
 11
201
 21
33.125
 31
0
 70
   32
 71
    5
 72
    0
  3
Standard
 53
0
210
0
220
0
230
1
100
AcDbAlignedDimension
 13
150
 23
20
 33
0
 14
252
 24
19.99999999999999
 34
0
100
AcDbRotatedDimension
  0
LWPOLYLINE
  5
112
100
AcDbEntity
  8
Derevo_obsh
  6
ByLayer
 62
  256
370
   -1
100
AcDbPolyline
 90
    4
 70
    1
 43
0
 10
150
 20
52.40000000000001
 10
150
 20
60
 10
252
 20
59.99999999999999
 10
252
 20
52.40000000000001
  0
LWPOLYLINE
  5
113
100
AcDbEntity
  8
Derevo_obsh
  6
ByLayer
 62
  256
370
   -1
100
AcDbPolyline
 90
    4
 70
    1
 43
0
 10
150
 20
12.8
 10
150
 20
20
 10
252
 20
19.99999999999999
 10
252
 20
12.8
  0
DIMENSION
  5
114
100
AcDbEntity
  8
Dim
  6
ByLayer
 62
  256
370
   -1
100
AcDbDimension
  2
*D10
 10
260
 20
52.4
 30
0
 11
256.875
 21
56.2
 31
0
 70
   32
 71
    5
 72
    0
  3
Standard
 53
0
210
0
220
0
230
1
100
AcDbAlignedDimension
 13
252
 23
59.99999999999999
 33
0
 14
252.0000000000001
 24
52.4
 34
0
 50
90
100
AcDbRotatedDimension
  0
DIMENSION
  5
115
100
AcDbEntity
  8
Dim
  6
ByLayer
 62
  256
370
   -1
100
AcDbDimension
  2
*D11
 10
260
 20
19.99999999999999
 30
0
 11
256.875
 21
16.4
 31
0
 70
   32
 71
    5
 72
    0
  3
Standard
 53
0
210
0
220
0
230
1
100
AcDbAlignedDimension
 13
252
 23
12.8
 33
0
 14
252
 24
19.99999999999999
 34
0
 50
90
100
AcDbRotatedDimension
  0
LWPOLYLINE
  5
116
100
AcDbEntity
  8
Derevo_obresh
  6
ByLayer
 62
  256
370
   -1
100
AcDbPolyline
 90
    4
 70
    1
 43
0
 10
150
 20
-32
 10
150
 20
-20
 10
252
 20
-20.00000000000001
 10
252
 20
-32
  0
DIMENSION
  5
117
100
AcDbEntity
  8
Dim
  6
ByLayer
 62
  256
370
   -1
100
AcDbDimension
  2
*D12
 10
260
 20
-20.00000000000001
 30
0
 11
256.875
 21
-26
 31
0
 70
   32
 71
    5
 72
    0
  3
Standard
 53
0
210
0
220
0
230
1
100
AcDbAlignedDimension
 13
252
 23
-32
 33
0
 14
252
 24
-20.00000000000001
 34
0
 50
90
100
AcDbRotatedDimension
  0
LWPOLYLINE
  5
118
100
AcDbEntity
  8
Karkas
  6
ByLayer
 62
  256
370
   -1
100
AcDbPolyline
 90
    8
 70
    1
 43
0
 10
3.5
 20
70.86838852399271
 10
3.5
 20
50
 10
0
 20
50
 10
0
 20
75
 10
90
 20
60
 10
90
 20
50
 10
86.5
 20
50
 10
86.5
 20
57.03505519065941
  0
LWPOLYLINE
  5
119
100
AcDbEntity
  8
Shifer
  6
ByLayer
 62
  256
370
   -1
100
AcDbPolyline
 90
    4
 70
    1
 43
0
 10
104.3424040507786
 20
65.1785681001187
 10
105
 20
69.1241437954473
 10
-20.34240405077858
 20
90.01454447057711
 10
-21
 20
86.06896877524849
  0
LWPOLYLINE
  5
11A
100
AcDbEntity
  8
Derevo_obresh
  6
DASHED2
 62
  256
370
   -1
100
AcDbPolyline
 90
    5
 70
    1
 43
0
 10
-13.99999999999989
 20
82.4023136681746
 10
-2.163261820049495
 20
80.42959238545251
 10
-1.752278219482394
 20
82.89557950627551
 10
-13.58901639943278
 20
84.8683007889976
 10
-13.58901639943278
 20
84.8683007889976
  0
LWPOLYLINE
  5
11B
100
AcDbEntity
  8
Derevo_obresh
  6
DASHED2
 62
  256
370
   -1
100
AcDbPolyline
 90
    5
 70
    1
 43
0
 10
5.727877816611798
 20
79.11432995981849
 10
17.56461599656219
 20
77.1416086770964
 10
17.97559959712929
 20
79.6075957979194
 10
6.1388614171789
 20
81.58031708064149
 10
6.1388614171789
 20
81.58031708064149
  0
LWPOLYLINE
  5
11C
100
AcDbEntity
  8
Derevo_obresh
  6
DASHED2
 62
  256
370
   -1
100
AcDbPolyline
 90
    5
 70
    1
 43
0
 10
25.45575563322348
 20
75.8263462514624
 10
37.29249381317388
 20
73.85362496874031
 10
37.70347741374098
 20
76.31961208956329
 10
25.86673923379058
 20
78.29233337228541
 10
25.86673923379058
 20
78.29233337228541
  0
LWPOLYLINE
  5
11D
100
AcDbEntity
  8
Derevo_obresh
  6
DASHED2
 62
  256
370
   -1
100
AcDbPolyline
 90
    5
 70
    1
 43
0
 10
45.18363344983517
 20
72.5383625431062
 10
57.02037162978556
 20
70.5656412603842
 10
57.43135523035266
 20
73.0316283812072
 10
45.59461705040227
 20
75.0043496639292
 10
45.59461705040227
 20
75.0043496639292
  0
LWPOLYLINE
  5
11E
100
AcDbEntity
  8
Derevo_obresh
  6
DASHED2
 62
  256
370
   -1
100
AcDbPolyline
 90
    5
 70
    1
 43
0
 10
64.91151126644685
 20
69.25037883475009
 10
76.74824944639724
 20
67.277657552028
 10
77.15923304696435
 20
69.743644672851
 10
65.32249486701396
 20
71.7163659555731
 10
65.32249486701396
 20
71.7163659555731
  0
LWPOLYLINE
  5
11F
100
AcDbEntity
  8
Derevo_obresh
  6
DASHED2
 62
  256
370
   -1
100
AcDbPolyline
 90
    5
 70
    1
 43
0
 10
85.75787976017558
 20
65.7759800135412
 10
97.59461794012597
 20
63.8032587308191
 10
98.00560154069308
 20
66.2692458516421
 10
86.16886336074269
 20
68.2419671343642
 10
86.16886336074269
 20
68.2419671343642
  0
LWPOLYLINE
  5
120
100
AcDbEntity
  8
Derevo_obresh
  6
DASHED2
 62
  256
370
   -1
100
AcDbPolyline
 90
    4
 70
    1
 43
0
 10
97.99999999935676
 20
58.66666666677381
 10
-14.00000000064325
 20
77.33333333344051
 10
-14.00000000064325
 20
82.40231366828181
 10
97.99999999935676
 20
63.73562388242961
  0
LWPOLYLINE
  5
121
100
AcDbEntity
  8
Derevo_obsh
  6
ByLayer
 62
  256
370
   -1
100
AcDbPolyline
 90
    5
 70
    0
 43
0
 10
100
 20
58.33333333333333
 10
100
 20
68.47127088383043
 10
-16
 20
87.80460421716373
 10
-15.99999999999989
 20
77.66666666666661
 10
100
 20
58.33333333333333
  0
LWPOLYLINE
  5
122
100
AcDbEntity
  8
Derevo_obsh
  6
DASHED2
 62
  256
370
   -1
100
AcDbPolyline
 90
    5
 70
    1
 43
0
 10
-16
 20
84.8347371332593
 10
-14
 20
84.8347371332593
 10
-13.99999999999988
 20
77.6666666666666
 10
-15.99999999999988
 20
77.6666666666666
 10
-15.99999999999988
 20
77.6666666666666
  0
LWPOLYLINE
  5
123
100
AcDbEntity
  8
Derevo_obsh
  6
DASHED2
 62
  256
370
   -1
100
AcDbPolyline
 90
    5
 70
    1
 43
0
 10
98
 20
66
 10
100
 20
66
 10
100.0000000000001
 20
58.33333333333331
 10
98.00000000000013
 20
58.33333333333331
 10
98.00000000000013
 20
58.33333333333331
  0
DIMENSION
  5
124
100
AcDbEntity
  8
Dim
  6
ByLayer
 62
  256
370
   -1
100
AcDbDimension
  2
*D13
 10
106.4663550601976
 20
77.92227415663376
 30
0
 11
103.8088998701377
 21
81.53328883950741
 31
0
 70
   33
 71
    5
 72
    0
  3
Standard
 53
0
210
0
220
0
230
1
100
AcDbAlignedDimension
 13
98
 23
66.23563544191515
 33
0
 14
104.3424040507784
 24
65.17856810011872
 34
0
  0
DIMENSION
  5
125
100
AcDbEntity
  8
Dim
  6
ByLayer
 62
  256
370
   -1
100
AcDbDimension
  2
*D14
 10
-19.15342672633574
 20
98.09236881613637
 30
0
 11
-14.9761982320542
 21
100.615708342355
 31
0
 70
   33
 71
    5
 72
    0
  3
Standard
 53
0
210
0
220
0
230
1
100
AcDbAlignedDimension
 13
-13.58901639943279
 23
84.8683007889976
 33
0
 14
-21
 24
86
 34
0
  0
DIMENSION
  5
126
100
AcDbEntity
  8
Dim
  6
ByLayer
 62
  256
370
   -1
100
AcDbDimension
  2
*D15
 10
108.2294528390101
 20
88.5008608295081
 30
0
 11
46.07199764895007
 21
102.0285421790485
 31
0
 70
   33
 71
    5
 72
    0
  3
Standard
 53
0
210
0
220
0
230
1
100
AcDbAlignedDimension
 13
-20.34240405077864
 23
90.01454447057711
 33
0
 14
105
 24
69.12414379544728
 34
0
  0
DIMENSION
  5
127
100
AcDbEntity
  8
Dim
  6
ByLayer
 62
  256
370
   -1
100
AcDbDimension
  2
*D16
 10
-2.486486486486455
 20
60.08108108108108
 30
0
 11
-8.972739651478776
 21
64.33022875977677
 31
0
 70
   33
 71
    5
 72
    0
  3
Standard
 53
0
210
0
220
0
230
1
100
AcDbAlignedDimension
 13
-14.00000000064313
 23
77.33333333344049
 33
0
 14
0
 24
75
 34
0
  0
DIMENSION
  5
128
100
AcDbEntity
  8
Dim
  6
ByLayer
 62
  256
370
   -1
100
AcDbDimension
  2
*D17
 10
88.6216216216216
 20
51.72972972972974
 30
0
 11
93.13536845695097
 21
54.1455440750385
 31
0
 70
   33
 71
    5
 72
    0
  3
Standard
 53
0
210
0
220
0
230
1
100
AcDbAlignedDimension
 13
98.00000000000023
 23
58.66666666666661
 33
0
 14
90
 24
60
 34
0
  0
DIMENSION
  5
129
100
AcDbEntity
  8
Dim
  6
ByLayer
 62
  256
370
   -1
100
AcDbDimension
  2
*D18
 10
280
 20
89.99999540377971
 30
0
 11
276.875
 21
94.99999543589416
 31
0
 70
   32
 71
    5
  3
Standard
 53
0
210
0
220
0
230
1
100
AcDbAlignedDimension
 13
267.6000755857656
 23
99.99999546800863
 33
0
 14
269.2667418670591
 24
89.99999540377971
 34
0
 50
90
100
AcDbRotatedDimension
  0
ENDSEC
  0
SECTION
  2
OBJECTS
  0
DICTIONARY
  5
C
330
0
100
AcDbDictionary
281
    1
  3
ACAD_GROUP
350
D
  0
DICTIONARY
  5
D
330
C
100
AcDbDictionary
281
    1
  0
ENDSEC
  0
EOF
