999
dxfrw 0.6.3
  0
SECTION
  2
HEADER
  9
$ACADVER
  1
AC1021
  9
$DWGCODEPAGE
  3
ANSI_1252
  9
$INSBASE
 10
0
 20
0
 30
0
  9
$EXTMIN
 10
10000000000
 20
10000000000
 30
0
  9
$EXTMAX
 10
-10000000000
 20
-10000000000
 30
0
  9
$LIMMIN
 10
0
 20
0
  9
$LIMMAX
 10
420
 20
297
  9
$ORTHOMODE
 70
    0
  9
$REGENMODE
 70
    1
  9
$FILLMODE
 70
    1
  9
$QTEXTMODE
 70
    0
  9
$MIRRTEXT
 70
    0
  9
$LTSCALE
 40
1
  9
$ATTMODE
 70
    0
  9
$TEXTSIZE
 40
2.5
  9
$TRACEWID
 40
15.68
  9
$TEXTSTYLE
  7
STANDARD
  9
$CLAYER
  8
stelia
  9
$CELTYPE
  6
BYLAYER
  9
$CECOLOR
 62
  256
  9
$CELTSCALE
 40
1
  9
$DISPSILH
 70
    0
  9
$DIMSCALE
 40
1
  9
$DIMASZ
 40
5
  9
$DIMEXO
 40
1
  9
$DIMDLI
 40
3.75
  9
$DIMRND
 40
0
  9
$DIMDLE
 40
0
  9
$DIMEXE
 40
2
  9
$DIMTP
 40
0
  9
$DIMTM
 40
0
  9
$DIMTXT
 40
4
  9
$DIMCEN
 40
2.5
  9
$DIMTSZ
 40
0
  9
$DIMTOL
 70
    0
  9
$DIMLIM
 70
    0
  9
$DIMTIH
 70
    0
  9
$DIMTOH
 70
    0
  9
$DIMSE1
 70
    0
  9
$DIMSE2
 70
    0
  9
$DIMTAD
 70
    1
  9
$DIMZIN
 70
    8
  9
$DIMBLK
  1

  9
$DIMASO
 70
    1
  9
$DIMSHO
 70
    1
  9
$DIMPOST
  1

  9
$DIMAPOST
  1

  9
$DIMALT
 70
    0
  9
$DIMALTD
 70
    3
  9
$DIMALTF
 40
0.03937
  9
$DIMLFAC
 40
1
  9
$DIMTOFL
 70
    1
  9
$DIMTVP
 40
0
  9
$DIMTIX
 70
    0
  9
$DIMSOXD
 70
    0
  9
$DIMSAH
 70
    0
  9
$DIMBLK1
  1

  9
$DIMBLK2
  1

  9
$DIMSTYLE
  2
STANDARD
  9
$DIMCLRD
 70
    0
  9
$DIMCLRE
 70
    0
  9
$DIMCLRT
 70
    0
  9
$DIMTFAC
 40
1
  9
$DIMGAP
 40
1
  9
$DIMJUST
 70
    0
  9
$DIMSD1
 70
    0
  9
$DIMSD2
 70
    0
  9
$DIMTOLJ
 70
    0
  9
$DIMTZIN
 70
    8
  9
$DIMALTZ
 70
    0
  9
$DIMALTTZ
 70
    0
  9
$DIMUPT
 70
    0
  9
$DIMDEC
 70
    1
  9
$DIMTDEC
 70
    2
  9
$DIMALTU
 70
    2
  9
$DIMALTTD
 70
    3
  9
$DIMTXSTY
  7
standard
  9
$DIMAUNIT
 70
    0
  9
$DIMADEC
 70
    0
  9
$DIMALTRND
 40
0
  9
$DIMAZIN
 70
    0
  9
$DIMDSEP
 70
   44
  9
$DIMATFIT
 70
    3
  9
$DIMFRAC
 70
    0
  9
$DIMLDRBLK
  1
STANDARD
  9
$DIMLUNIT
 70
    2
  9
$DIMLWD
 70
   -2
  9
$DIMLWE
 70
   -2
  9
$DIMTMOVE
 70
    0
  9
$DIMFXL
 40
1
  9
$DIMFXLON
 70
    0
  9
$DIMJOGANG
 40
0.7854
  9
$DIMTFILL
 70
    0
  9
$DIMTFILLCLR
 70
    0
  9
$DIMARCSYM
 70
    0
  9
$DIMLTYPE
  6

  9
$DIMLTEX1
  6

  9
$DIMLTEX2
  6

  9
$LUNITS
 70
    2
  9
$LUPREC
 70
    2
  9
$SKETCHINC
 40
1
  9
$FILLETRAD
 40
0
  9
$AUNITS
 70
    0
  9
$AUPREC
 70
    2
  9
$MENU
  1
.
  9
$ELEVATION
 40
0
  9
$PELEVATION
 40
0
  9
$THICKNESS
 40
0
  9
$LIMCHECK
 70
    0
  9
$CHAMFERA
 40
0
  9
$CHAMFERB
 40
0
  9
$CHAMFERC
 40
0
  9
$CHAMFERD
 40
0
  9
$SKPOLY
 70
    0
  9
$USRTIMER
 70
    1
  9
$ANGBASE
 50
0
  9
$ANGDIR
 70
    0
  9
$PDMODE
 70
   34
  9
$PDSIZE
 40
0
  9
$PLINEWID
 40
0
  9
$SPLFRAME
 70
    0
  9
$SPLINETYPE
 70
    2
  9
$SPLINESEGS
 70
    8
  9
$HANDSEED
  5
20000
  9
$SURFTAB1
 70
    6
  9
$SURFTAB2
 70
    6
  9
$SURFTYPE
 70
    6
  9
$SURFU
 70
    6
  9
$SURFV
 70
    6
  9
$UCSBASE
  2

  9
$UCSNAME
  2

  9
$UCSORG
 10
0
 20
0
 30
0
  9
$UCSXDIR
 10
1
 20
0
 30
0
  9
$UCSYDIR
 10
0
 20
1
 30
0
  9
$UCSORTHOREF
  2

  9
$UCSORTHOVIEW
 70
    0
  9
$UCSORGTOP
 10
0
 20
0
 30
0
  9
$UCSORGBOTTOM
 10
0
 20
0
 30
0
  9
$UCSORGLEFT
 10
0
 20
0
 30
0
  9
$UCSORGRIGHT
 10
0
 20
0
 30
0
  9
$UCSORGFRONT
 10
0
 20
0
 30
0
  9
$UCSORGBACK
 10
0
 20
0
 30
0
  9
$PUCSBASE
  2

  9
$PUCSNAME
  2

  9
$PUCSORG
 10
0
 20
0
 30
0
  9
$PUCSXDIR
 10
1
 20
0
 30
0
  9
$PUCSYDIR
 10
0
 20
1
 30
0
  9
$PUCSORTHOREF
  2

  9
$PUCSORTHOVIEW
 70
    0
  9
$PUCSORGTOP
 10
0
 20
0
 30
0
  9
$PUCSORGBOTTOM
 10
0
 20
0
 30
0
  9
$PUCSORGLEFT
 10
0
 20
0
 30
0
  9
$PUCSORGRIGHT
 10
0
 20
0
 30
0
  9
$PUCSORGFRONT
 10
0
 20
0
 30
0
  9
$PUCSORGBACK
 10
0
 20
0
 30
0
  9
$USERI1
 70
    0
  9
$USERI2
 70
    0
  9
$USERI3
 70
    0
  9
$USERI4
 70
    0
  9
$USERI5
 70
    0
  9
$USERR1
 40
0
  9
$USERR2
 40
0
  9
$USERR3
 40
0
  9
$USERR4
 40
0
  9
$USERR5
 40
0
  9
$WORLDVIEW
 70
    1
  9
$SHADEDGE
 70
    3
  9
$SHADEDIF
 70
   70
  9
$TILEMODE
 70
    1
  9
$MAXACTVP
 70
   64
  9
$PINSBASE
 10
4.875242326332796
 20
3.68578352180937
 30
0
  9
$PLIMCHECK
 70
    0
  9
$PEXTMIN
 10
0
 20
0
 30
0
  9
$PEXTMAX
 10
0
 20
0
 30
0
  9
$GRIDMODE
 70
    1
  9
$SNAPSTYLE
 70
    0
  9
$GRIDUNIT
 10
0
 20
0
  9
$PLIMMIN
 10
0
 20
0
  9
$PLIMMAX
 10
29.7
 20
21
  9
$UNITMODE
 70
    0
  9
$VISRETAIN
 70
    1
  9
$PLINEGEN
 70
    0
  9
$PSLTSCALE
 70
    1
  9
$TREEDEPTH
 70
 3020
  9
$CMLSTYLE
  2
Standard
  9
$CMLJUST
 70
    0
  9
$CMLSCALE
 40
20
  9
$PROXYGRAPHICS
 70
    1
  9
$MEASUREMENT
 70
    1
  9
$CELWEIGHT
370
   -1
  9
$ENDCAPS
280
    0
  9
$JOINSTYLE
280
    0
  9
$LWDISPLAY
290
    0
  9
$INSUNITS
 70
    5
  9
$HYPERLINKBASE
  1

  9
$STYLESHEET
  1

  9
$XEDIT
290
    1
  9
$CEPSNTYPE
380
    0
  9
$PSTYLEMODE
290
    1
  9
$EXTNAMES
290
    1
  9
$PSVPSCALE
 40
0.07471719541535289
  9
$OLESTARTUP
290
    0
  9
$SORTENTS
280
  127
  9
$INDEXCTL
280
    0
  9
$HIDETEXT
280
    1
  9
$XCLIPFRAME
290
    0
  9
$HALOGAP
280
    0
  9
$OBSCOLOR
 70
  257
  9
$OBSLTYPE
280
    0
  9
$INTERSECTIONDISPLAY
280
    0
  9
$INTERSECTIONCOLOR
 70
  257
  9
$DIMASSOC
280
    1
  9
$PROJECTNAME
  1

  9
$CAMERADISPLAY
290
    0
  9
$LENSLENGTH
 40
50
  9
$CAMERAHEIGHT
 40
0
  9
$STEPSPERSEC
 40
2
  9
$STEPSIZE
 40
50
  9
$3DDWFPREC
 40
2
  9
$PSOLWIDTH
 40
5
  9
$PSOLHEIGHT
 40
80
  9
$LOFTANG1
 40
1.570796326794897
  9
$LOFTANG2
 40
1.570796326794897
  9
$LOFTMAG1
 40
0
  9
$LOFTMAG2
 40
0
  9
$LOFTPARAM
 70
    7
  9
$LOFTNORMALS
280
    1
  9
$LATITUDE
 40
1
  9
$LONGITUDE
 40
1
  9
$NORTHDIRECTION
 40
0
  9
$TIMEZONE
 70
-8000
  9
$LIGHTGLYPHDISPLAY
280
    1
  9
$TILEMODELIGHTSYNCH
280
    1
  9
$SOLIDHIST
280
    1
  9
$SHOWHIST
280
    1
  9
$DWFFRAME
280
    2
  9
$DGNFRAME
280
    0
  9
$REALWORLDSCALE
290
    1
  9
$INTERFERECOLOR
 62
    1
  9
$CSHADOW
280
    0
  9
$SHADOWPLANELOCATION
 40
0
  0
ENDSEC
  0
SECTION
  2
CLASSES
  0
ENDSEC
  0
SECTION
  2
TABLES
  0
TABLE
  2
VPORT
  5
8
330
0
100
AcDbSymbolTable
 70
    1
  0
VPORT
  5
31
330
2
100
AcDbSymbolTableRecord
100
AcDbViewportTableRecord
  2
*ACTIVE
 70
    0
 10
0
 20
0
 11
1
 21
1
 12
144.8213090663178
 22
134.1090642989657
 13
0
 23
0
 14
10
 24
10
 15
10
 25
10
 16
0
 26
0
 36
1
 17
0
 27
0
 37
0
 40
224.5451307002652
 41
1.748623853211009
 42
50
 43
0
 44
0
 50
0
 51
0
 71
    0
 72
  100
 73
    1
 74
    3
 75
    0
 76
    1
 77
    0
 78
    0
281
    0
 65
    1
110
0
120
0
130
0
111
1
121
0
131
0
112
0
122
1
132
0
 79
    0
146
0
348
10020
 60
    7
 61
    5
292
1
282
    1
141
0
142
0
 63
  250
421
3358443
  0
ENDTAB
  0
TABLE
  2
LTYPE
  5
5
330
0
100
AcDbSymbolTable
 70
    4
  0
LTYPE
  5
14
330
5
100
AcDbSymbolTableRecord
100
AcDbLinetypeTableRecord
  2
ByBlock
 70
    0
  3

 72
   65
 73
    0
 40
0
  0
LTYPE
  5
15
330
5
100
AcDbSymbolTableRecord
100
AcDbLinetypeTableRecord
  2
ByLayer
 70
    0
  3

 72
   65
 73
    0
 40
0
  0
LTYPE
  5
16
330
5
100
AcDbSymbolTableRecord
100
AcDbLinetypeTableRecord
  2
Continuous
 70
    0
  3
Solid line
 72
   65
 73
    0
 40
0
  0
LTYPE
  5
32
330
5
100
AcDbSymbolTableRecord
100
AcDbLinetypeTableRecord
  2
DOT
 70
    0
  3
Dot . . . . . . . . . . . . . . . . . . . . . .
 72
   65
 73
    2
 40
6.35
 49
0
 74
    0
 49
-6.35
 74
    0
  0
LTYPE
  5
33
330
5
100
AcDbSymbolTableRecord
100
AcDbLinetypeTableRecord
  2
DOTTINY
 70
    0
  3
Dot (.15x) .....................................
 72
   65
 73
    2
 40
0.9525
 49
0
 74
    0
 49
-0.9525
 74
    0
  0
LTYPE
  5
34
330
5
100
AcDbSymbolTableRecord
100
AcDbLinetypeTableRecord
  2
DOT2
 70
    0
  3
Dot (.5x) .....................................
 72
   65
 73
    2
 40
3.175
 49
0
 74
    0
 49
-3.175
 74
    0
  0
LTYPE
  5
35
330
5
100
AcDbSymbolTableRecord
100
AcDbLinetypeTableRecord
  2
DOTX2
 70
    0
  3
Dot (2x) .  .  .  .  .  .  .  .  .  .  .  .  .
 72
   65
 73
    2
 40
12.7
 49
0
 74
    0
 49
-12.7
 74
    0
  0
LTYPE
  5
36
330
5
100
AcDbSymbolTableRecord
100
AcDbLinetypeTableRecord
  2
DASHED
 70
    0
  3
Dashed _ _ _ _ _ _ _ _ _ _ _ _ _ _ _ _ _
 72
   65
 73
    2
 40
19.05
 49
12.7
 74
    0
 49
-6.35
 74
    0
  0
LTYPE
  5
37
330
5
100
AcDbSymbolTableRecord
100
AcDbLinetypeTableRecord
  2
DASHEDTINY
 70
    0
  3
Dashed (.15x) _ _ _ _ _ _ _ _ _ _ _ _ _ _ _ _ _
 72
   65
 73
    2
 40
2.8575
 49
1.905
 74
    0
 49
-0.9525
 74
    0
  0
LTYPE
  5
38
330
5
100
AcDbSymbolTableRecord
100
AcDbLinetypeTableRecord
  2
DASHED2
 70
    0
  3
Dashed (.5x) _ _ _ _ _ _ _ _ _ _ _ _ _ _ _ _ _
 72
   65
 73
    2
 40
9.524999999999999
 49
6.35
 74
    0
 49
-3.175
 74
    0
  0
LTYPE
  5
39
330
5
100
AcDbSymbolTableRecord
100
AcDbLinetypeTableRecord
  2
DASHEDX2
 70
    0
  3
Dashed (2x) ____  ____  ____  ____  ____  ___
 72
   65
 73
    2
 40
38.09999999999999
 49
25.4
 74
    0
 49
-12.7
 74
    0
  0
LTYPE
  5
3A
330
5
100
AcDbSymbolTableRecord
100
AcDbLinetypeTableRecord
  2
DASHDOT
 70
    0
  3
Dash dot __ . __ . __ . __ . __ . __ . __ . __
 72
   65
 73
    4
 40
25.4
 49
12.7
 74
    0
 49
-6.35
 74
    0
 49
0
 74
    0
 49
-6.35
 74
    0
  0
LTYPE
  5
3B
330
5
100
AcDbSymbolTableRecord
100
AcDbLinetypeTableRecord
  2
DASHDOTTINY
 70
    0
  3
Dash dot (.15x) _._._._._._._._._._._._._._._.
 72
   65
 73
    4
 40
3.81
 49
1.905
 74
    0
 49
-0.9525
 74
    0
 49
0
 74
    0
 49
-0.9525
 74
    0
  0
LTYPE
  5
3C
330
5
100
AcDbSymbolTableRecord
100
AcDbLinetypeTableRecord
  2
DASHDOT2
 70
    0
  3
Dash dot (.5x) _._._._._._._._._._._._._._._.
 72
   65
 73
    4
 40
12.7
 49
6.35
 74
    0
 49
-3.175
 74
    0
 49
0
 74
    0
 49
-3.175
 74
    0
  0
LTYPE
  5
3D
330
5
100
AcDbSymbolTableRecord
100
AcDbLinetypeTableRecord
  2
DASHDOTX2
 70
    0
  3
Dash dot (2x) ____  .  ____  .  ____  .  ___
 72
   65
 73
    4
 40
50.8
 49
25.4
 74
    0
 49
-12.7
 74
    0
 49
0
 74
    0
 49
-12.7
 74
    0
  0
LTYPE
  5
3E
330
5
100
AcDbSymbolTableRecord
100
AcDbLinetypeTableRecord
  2
DIVIDE
 70
    0
  3
Divide ____ . . ____ . . ____ . . ____ . . ____
 72
   65
 73
    6
 40
31.75
 49
12.7
 74
    0
 49
-6.35
 74
    0
 49
0
 74
    0
 49
-6.35
 74
    0
 49
0
 74
    0
 49
-6.35
 74
    0
  0
LTYPE
  5
3F
330
5
100
AcDbSymbolTableRecord
100
AcDbLinetypeTableRecord
  2
DIVIDETINY
 70
    0
  3
Divide (.15x) __..__..__..__..__..__..__..__.._
 72
   65
 73
    6
 40
4.7625
 49
1.905
 74
    0
 49
-0.9525
 74
    0
 49
0
 74
    0
 49
-0.9525
 74
    0
 49
0
 74
    0
 49
-0.9525
 74
    0
  0
LTYPE
  5
40
330
5
100
AcDbSymbolTableRecord
100
AcDbLinetypeTableRecord
  2
DIVIDE2
 70
    0
  3
Divide (.5x) __..__..__..__..__..__..__..__.._
 72
   65
 73
    6
 40
15.875
 49
6.35
 74
    0
 49
-3.175
 74
    0
 49
0
 74
    0
 49
-3.175
 74
    0
 49
0
 74
    0
 49
-3.175
 74
    0
  0
LTYPE
  5
41
330
5
100
AcDbSymbolTableRecord
100
AcDbLinetypeTableRecord
  2
DIVIDEX2
 70
    0
  3
Divide (2x) ________  .  .  ________  .  .  _
 72
   65
 73
    6
 40
63.5
 49
25.4
 74
    0
 49
-12.7
 74
    0
 49
0
 74
    0
 49
-12.7
 74
    0
 49
0
 74
    0
 49
-12.7
 74
    0
  0
LTYPE
  5
42
330
5
100
AcDbSymbolTableRecord
100
AcDbLinetypeTableRecord
  2
BORDER
 70
    0
  3
Border __ __ . __ __ . __ __ . __ __ . __ __ .
 72
   65
 73
    6
 40
44.45
 49
12.7
 74
    0
 49
-6.35
 74
    0
 49
12.7
 74
    0
 49
-6.35
 74
    0
 49
0
 74
    0
 49
-6.35
 74
    0
  0
LTYPE
  5
43
330
5
100
AcDbSymbolTableRecord
100
AcDbLinetypeTableRecord
  2
BORDERTINY
 70
    0
  3
Border (.15x) __.__.__.__.__.__.__.__.__.__.__.
 72
   65
 73
    6
 40
6.6675
 49
1.905
 74
    0
 49
-0.9525
 74
    0
 49
1.905
 74
    0
 49
-0.9525
 74
    0
 49
0
 74
    0
 49
-0.9525
 74
    0
  0
LTYPE
  5
44
330
5
100
AcDbSymbolTableRecord
100
AcDbLinetypeTableRecord
  2
BORDER2
 70
    0
  3
Border (.5x) __.__.__.__.__.__.__.__.__.__.__.
 72
   65
 73
    6
 40
22.225
 49
6.35
 74
    0
 49
-3.175
 74
    0
 49
6.35
 74
    0
 49
-3.175
 74
    0
 49
0
 74
    0
 49
-3.175
 74
    0
  0
LTYPE
  5
45
330
5
100
AcDbSymbolTableRecord
100
AcDbLinetypeTableRecord
  2
BORDERX2
 70
    0
  3
Border (2x) ____  ____  .  ____  ____  .  ___
 72
   65
 73
    6
 40
88.89999999999999
 49
25.4
 74
    0
 49
-12.7
 74
    0
 49
25.4
 74
    0
 49
-12.7
 74
    0
 49
0
 74
    0
 49
-12.7
 74
    0
  0
LTYPE
  5
46
330
5
100
AcDbSymbolTableRecord
100
AcDbLinetypeTableRecord
  2
CENTER
 70
    0
  3
Center ____ _ ____ _ ____ _ ____ _ ____ _ ____
 72
   65
 73
    4
 40
50.8
 49
31.75
 74
    0
 49
-6.35
 74
    0
 49
6.35
 74
    0
 49
-6.35
 74
    0
  0
LTYPE
  5
47
330
5
100
AcDbSymbolTableRecord
100
AcDbLinetypeTableRecord
  2
CENTERTINY
 70
    0
  3
Center (.15x) ___ _ ___ _ ___ _ ___ _ ___ _ ___
 72
   65
 73
    4
 40
7.619999999999999
 49
4.7625
 74
    0
 49
-0.9525
 74
    0
 49
0.9525
 74
    0
 49
-0.9525
 74
    0
  0
LTYPE
  5
48
330
5
100
AcDbSymbolTableRecord
100
AcDbLinetypeTableRecord
  2
CENTER2
 70
    0
  3
Center (.5x) ___ _ ___ _ ___ _ ___ _ ___ _ ___
 72
   65
 73
    4
 40
28.575
 49
19.05
 74
    0
 49
-3.175
 74
    0
 49
3.175
 74
    0
 49
-3.175
 74
    0
  0
LTYPE
  5
49
330
5
100
AcDbSymbolTableRecord
100
AcDbLinetypeTableRecord
  2
CENTERX2
 70
    0
  3
Center (2x) ________  __  ________  __  _____
 72
   65
 73
    4
 40
101.6
 49
63.5
 74
    0
 49
-12.7
 74
    0
 49
12.7
 74
    0
 49
-12.7
 74
    0
  0
ENDTAB
  0
TABLE
  2
LAYER
  5
2
330
0
100
AcDbSymbolTable
 70
    1
  0
LAYER
  5
10
330
2
100
AcDbSymbolTableRecord
100
AcDbLayerTableRecord
  2
0
 70
    0
 62
    7
  6
CONTINUOUS
370
   -3
390
F
1001
LibreCad
1070
    1
  0
LAYER
  5
4A
330
2
100
AcDbSymbolTableRecord
100
AcDbLayerTableRecord
  2
cegla_tr
 70
    0
 62
    6
  6
CONTINUOUS
370
   50
390
F
  0
LAYER
  5
4B
330
2
100
AcDbSymbolTableRecord
100
AcDbLayerTableRecord
  2
cegla_zv
 70
    0
 62
    3
  6
CONTINUOUS
370
   50
390
F
  0
LAYER
  5
4C
330
2
100
AcDbSymbolTableRecord
100
AcDbLayerTableRecord
  2
metal
 70
    0
 62
    5
  6
CONTINUOUS
370
   50
390
F
  0
LAYER
  5
4D
330
2
100
AcDbSymbolTableRecord
100
AcDbLayerTableRecord
  2
rozmir
 70
    0
 62
    4
  6
CONTINUOUS
370
   13
390
F
  0
LAYER
  5
4E
330
2
100
AcDbSymbolTableRecord
100
AcDbLayerTableRecord
  2
stelia
 70
    0
 62
    1
  6
CONTINUOUS
370
   50
390
F
  0
ENDTAB
  0
TABLE
  2
STYLE
  5
3
330
0
100
AcDbSymbolTable
 70
    3
  0
STYLE
  5
4F
330
2
100
AcDbSymbolTableRecord
100
AcDbTextStyleTableRecord
  2
Standard
 70
    0
 40
0
 41
1
 50
0
 71
    0
 42
1
  3
txt
  4

  0
ENDTAB
  0
TABLE
  2
VIEW
  5
6
330
0
100
AcDbSymbolTable
 70
    0
  0
ENDTAB
  0
TABLE
  2
UCS
  5
7
330
0
100
AcDbSymbolTable
 70
    0
  0
ENDTAB
  0
TABLE
  2
APPID
  5
9
330
0
100
AcDbSymbolTable
 70
    1
  0
APPID
  5
12
330
9
100
AcDbSymbolTableRecord
100
AcDbRegAppTableRecord
  2
ACAD
 70
    0
  0
APPID
  5
50
330
9
100
AcDbSymbolTableRecord
100
AcDbRegAppTableRecord
  2
LibreCad
 70
    0
  0
ENDTAB
  0
TABLE
  2
DIMSTYLE
  5
A
330
0
100
AcDbSymbolTable
 70
    1
100
AcDbDimStyleTable
 71
    1
  0
DIMSTYLE
105
51
330
A
100
AcDbSymbolTableRecord
100
AcDbDimStyleTableRecord
  2
Standard
 70
    0
 40
1
 41
5
 42
1
 43
0.38
 44
2
 45
0
 46
0
 47
0
 48
0
 49
1
140
4
141
0.09
142
0
143
25.4
144
1
145
0
146
1
147
1
148
0
 71
    0
 72
    0
 73
    0
 74
    1
 75
    0
 76
    0
 77
    0
 78
    8
 79
    0
170
    0
171
    2
172
    0
173
    0
174
    0
175
    0
176
    0
177
    0
178
    0
179
    0
271
    1
272
    4
273
    2
274
    2
275
    0
276
    0
277
    2
278
   44
279
    0
280
    0
281
    0
282
    0
283
    1
284
    0
285
    0
286
    0
288
    0
289
    3
340
standard
341

371
   -2
372
   -2
  0
ENDTAB
  0
TABLE
  2
BLOCK_RECORD
  5
1
330
0
100
AcDbSymbolTable
 70
    2
  0
BLOCK_RECORD
  5
1F
330
1
100
AcDbSymbolTableRecord
100
AcDbBlockTableRecord
  2
*Model_Space
 70
    0
280
    1
281
    0
  0
BLOCK_RECORD
  5
1E
330
1
100
AcDbSymbolTableRecord
100
AcDbBlockTableRecord
  2
*Paper_Space
 70
    0
280
    1
281
    0
  0
ENDTAB
  0
ENDSEC
  0
SECTION
  2
BLOCKS
  0
BLOCK
  5
20
330
1F
100
AcDbEntity
  8
0
100
AcDbBlockBegin
  2
*Model_Space
 70
    0
 10
0
 20
0
 30
0
  3
*Model_Space
  1

  0
ENDBLK
  5
21
330
1F
100
AcDbEntity
  8
0
100
AcDbBlockEnd
  0
BLOCK
  5
1C
330
1B
100
AcDbEntity
  8
0
100
AcDbBlockBegin
  2
*Paper_Space
 70
    0
 10
0
 20
0
 30
0
  3
*Paper_Space
  1

  0
ENDBLK
  5
1D
330
1F
100
AcDbEntity
  8
0
100
AcDbBlockEnd
  0
ENDSEC
  0
SECTION
  2
ENTITIES
  0
HATCH
  5
52
100
AcDbEntity
  8
cegla_zv
  6
ByLayer
 62
  256
370
   -1
100
AcDbHatch
 10
0
 20
0
 30
0
210
0
220
0
230
1
  2
gost_stone
 70
    0
 71
    0
 91
    1
 92
    0
 93
    4
 72
    1
 10
117
 20
239.5
 11
110.5
 21
239.5
 72
    1
 10
110.5
 20
239.5
 11
110.5
 21
227
 72
    1
 10
110.5
 20
227
 11
117
 21
227
 72
    1
 10
117
 20
227
 11
117
 21
239.5
 97
    0
 75
    0
 76
    1
 52
1.570796326794897
 41
0.5
 77
    0
 78
    0
 98
    0
  0
HATCH
  5
53
100
AcDbEntity
  8
cegla_zv
  6
ByLayer
 62
  256
370
   -1
100
AcDbHatch
 10
0
 20
0
 30
0
210
0
220
0
230
1
  2
gost_stone
 70
    0
 71
    0
 91
    1
 92
    0
 93
    4
 72
    1
 10
78
 20
227
 11
90.5
 21
227
 72
    1
 10
90.5
 20
227
 11
90.5
 21
233.5
 72
    1
 10
90.5
 20
233.5
 11
78
 21
233.5
 72
    1
 10
78
 20
233.5
 11
78
 21
227
 97
    0
 75
    0
 76
    1
 52
3.141592653589794
 41
0.5
 77
    0
 78
    0
 98
    0
  0
HATCH
  5
54
100
AcDbEntity
  8
cegla_zv
  6
ByLayer
 62
  256
370
   -1
100
AcDbHatch
 10
0
 20
0
 30
0
210
0
220
0
230
1
  2
gost_stone
 70
    0
 71
    0
 91
    1
 92
    0
 93
    4
 72
    1
 10
65
 20
227
 11
77.5
 21
227
 72
    1
 10
77.5
 20
227
 11
77.5
 21
233.5
 72
    1
 10
77.5
 20
233.5
 11
65
 21
233.5
 72
    1
 10
65
 20
233.5
 11
65
 21
227
 97
    0
 75
    0
 76
    1
 52
3.141592653589794
 41
0.5
 77
    0
 78
    0
 98
    0
  0
HATCH
  5
55
100
AcDbEntity
  8
cegla_zv
  6
ByLayer
 62
  256
370
   -1
100
AcDbHatch
 10
0
 20
0
 30
0
210
0
220
0
230
1
  2
gost_stone
 70
    0
 71
    0
 91
    1
 92
    0
 93
    4
 72
    1
 10
52
 20
227
 11
64.5
 21
227
 72
    1
 10
64.5
 20
227
 11
64.5
 21
233.5
 72
    1
 10
64.5
 20
233.5
 11
52
 21
233.5
 72
    1
 10
52
 20
233.5
 11
52
 21
227
 97
    0
 75
    0
 76
    1
 52
3.141592653589794
 41
0.5
 77
    0
 78
    0
 98
    0
  0
HATCH
  5
56
100
AcDbEntity
  8
cegla_zv
  6
ByLayer
 62
  256
370
   -1
100
AcDbHatch
 10
0
 20
0
 30
0
210
0
220
0
230
1
  2
gost_stone
 70
    0
 71
    0
 91
    1
 92
    0
 93
    4
 72
    1
 10
39
 20
227
 11
51.5
 21
227
 72
    1
 10
51.5
 20
227
 11
51.5
 21
233.5
 72
    1
 10
51.5
 20
233.5
 11
39
 21
233.5
 72
    1
 10
39
 20
233.5
 11
39
 21
227
 97
    0
 75
    0
 76
    1
 52
3.141592653589794
 41
0.5
 77
    0
 78
    0
 98
    0
  0
HATCH
  5
57
100
AcDbEntity
  8
cegla_zv
  6
ByLayer
 62
  256
370
   -1
100
AcDbHatch
 10
0
 20
0
 30
0
210
0
220
0
230
1
  2
gost_stone
 70
    0
 71
    0
 91
    1
 92
    0
 93
    4
 72
    1
 10
26
 20
227
 11
38.5
 21
227
 72
    1
 10
38.5
 20
227
 11
38.5
 21
233.5
 72
    1
 10
38.5
 20
233.5
 11
26
 21
233.5
 72
    1
 10
26
 20
233.5
 11
26
 21
227
 97
    0
 75
    0
 76
    1
 52
3.141592653589794
 41
0.5
 77
    0
 78
    0
 98
    0
  0
HATCH
  5
58
100
AcDbEntity
  8
cegla_zv
  6
ByLayer
 62
  256
370
   -1
100
AcDbHatch
 10
0
 20
0
 30
0
210
0
220
0
230
1
  2
gost_stone
 70
    0
 71
    0
 91
    1
 92
    0
 93
    4
 72
    1
 10
13
 20
227
 11
25.5
 21
227
 72
    1
 10
25.5
 20
227
 11
25.5
 21
233.5
 72
    1
 10
25.5
 20
233.5
 11
13
 21
233.5
 72
    1
 10
13
 20
233.5
 11
13
 21
227
 97
    0
 75
    0
 76
    1
 52
3.141592653589794
 41
0.5
 77
    0
 78
    0
 98
    0
  0
HATCH
  5
59
100
AcDbEntity
  8
cegla_zv
  6
ByLayer
 62
  256
370
   -1
100
AcDbHatch
 10
0
 20
0
 30
0
210
0
220
0
230
1
  2
gost_stone
 70
    0
 71
    0
 91
    1
 92
    0
 93
    4
 72
    1
 10
12.5
 20
233.5
 11
0
 21
233.5
 72
    1
 10
0
 20
233.5
 11
0
 21
227
 72
    1
 10
0
 20
227
 11
12.5
 21
227
 72
    1
 10
12.5
 20
227
 11
12.5
 21
233.5
 97
    0
 75
    0
 76
    1
 52
3.141592653589794
 41
0.5
 77
    0
 78
    0
 98
    0
  0
HATCH
  5
5A
100
AcDbEntity
  8
cegla_zv
  6
ByLayer
 62
  256
370
   -1
100
AcDbHatch
 10
0
 20
0
 30
0
210
0
220
0
230
1
  2
gost_stone
 70
    0
 71
    0
 91
    1
 92
    0
 93
    4
 72
    1
 10
110.5
 20
214
 11
117
 21
214
 72
    1
 10
117
 20
214
 11
117
 21
226.5
 72
    1
 10
117
 20
226.5
 11
110.5
 21
226.5
 72
    1
 10
110.5
 20
226.5
 11
110.5
 21
214
 97
    0
 75
    0
 76
    1
 52
1.570796326794897
 41
0.5
 77
    0
 78
    0
 98
    0
  0
HATCH
  5
5B
100
AcDbEntity
  8
cegla_zv
  6
ByLayer
 62
  256
370
   -1
100
AcDbHatch
 10
0
 20
0
 30
0
210
0
220
0
230
1
  2
gost_stone
 70
    0
 71
    0
 91
    1
 92
    0
 93
    4
 72
    1
 10
6.5
 20
219.5
 11
0
 21
219.5
 72
    1
 10
0
 20
219.5
 11
0
 21
207
 72
    1
 10
0
 20
207
 11
6.5
 21
207
 72
    1
 10
6.5
 20
207
 11
6.5
 21
219.5
 97
    0
 75
    0
 76
    1
 52
1.570796326794897
 41
0.5
 77
    0
 78
    0
 98
    0
  0
HATCH
  5
5C
100
AcDbEntity
  8
cegla_zv
  6
ByLayer
 62
  256
370
   -1
100
AcDbHatch
 10
0
 20
0
 30
0
210
0
220
0
230
1
  2
gost_stone
 70
    0
 71
    0
 91
    1
 92
    0
 93
    4
 72
    1
 10
0
 20
167
 11
6.5
 21
167
 72
    1
 10
6.5
 20
167
 11
6.5
 21
179.5
 72
    1
 10
6.5
 20
179.5
 11
0
 21
179.5
 72
    1
 10
0
 20
179.5
 11
0
 21
167
 97
    0
 75
    0
 76
    1
 52
1.570796326794897
 41
0.5
 77
    0
 78
    0
 98
    0
  0
HATCH
  5
5D
100
AcDbEntity
  8
cegla_zv
  6
ByLayer
 62
  256
370
   -1
100
AcDbHatch
 10
0
 20
0
 30
0
210
0
220
0
230
1
  2
gost_stone
 70
    0
 71
    0
 91
    1
 92
    0
 93
    4
 72
    1
 10
117
 20
186.5
 11
110.5
 21
186.5
 72
    1
 10
110.5
 20
186.5
 11
110.5
 21
174
 72
    1
 10
110.5
 20
174
 11
117
 21
174
 72
    1
 10
117
 20
174
 11
117
 21
186.5
 97
    0
 75
    0
 76
    1
 52
1.570796326794897
 41
0.5
 77
    0
 78
    0
 98
    0
  0
HATCH
  5
5E
100
AcDbEntity
  8
cegla_zv
  6
ByLayer
 62
  256
370
   -1
100
AcDbHatch
 10
0
 20
0
 30
0
210
0
220
0
230
1
  2
gost_stone
 70
    0
 71
    0
 91
    1
 92
    0
 93
    4
 72
    1
 10
0
 20
187
 11
12.5
 21
187
 72
    1
 10
12.5
 20
187
 11
12.5
 21
193.5
 72
    1
 10
12.5
 20
193.5
 11
0
 21
193.5
 72
    1
 10
0
 20
193.5
 11
0
 21
187
 97
    0
 75
    0
 76
    1
 52
3.141592653589794
 41
0.5
 77
    0
 78
    0
 98
    0
  0
HATCH
  5
5F
100
AcDbEntity
  8
cegla_zv
  6
ByLayer
 62
  256
370
   -1
100
AcDbHatch
 10
0
 20
0
 30
0
210
0
220
0
230
1
  2
gost_stone
 70
    0
 71
    0
 91
    1
 92
    0
 93
    4
 72
    1
 10
25.5
 20
193.5
 11
13
 21
193.5
 72
    1
 10
13
 20
193.5
 11
13
 21
187
 72
    1
 10
13
 20
187
 11
25.5
 21
187
 72
    1
 10
25.5
 20
187
 11
25.5
 21
193.5
 97
    0
 75
    0
 76
    1
 52
3.141592653589794
 41
0.5
 77
    0
 78
    0
 98
    0
  0
HATCH
  5
60
100
AcDbEntity
  8
cegla_zv
  6
ByLayer
 62
  256
370
   -1
100
AcDbHatch
 10
0
 20
0
 30
0
210
0
220
0
230
1
  2
gost_stone
 70
    0
 71
    0
 91
    1
 92
    0
 93
    4
 72
    1
 10
38.5
 20
193.5
 11
26
 21
193.5
 72
    1
 10
26
 20
193.5
 11
26
 21
187
 72
    1
 10
26
 20
187
 11
38.5
 21
187
 72
    1
 10
38.5
 20
187
 11
38.5
 21
193.5
 97
    0
 75
    0
 76
    1
 52
3.141592653589794
 41
0.5
 77
    0
 78
    0
 98
    0
  0
HATCH
  5
61
100
AcDbEntity
  8
cegla_zv
  6
ByLayer
 62
  256
370
   -1
100
AcDbHatch
 10
0
 20
0
 30
0
210
0
220
0
230
1
  2
gost_stone
 70
    0
 71
    0
 91
    1
 92
    0
 93
    4
 72
    1
 10
51.5
 20
193.5
 11
39
 21
193.5
 72
    1
 10
39
 20
193.5
 11
39
 21
187
 72
    1
 10
39
 20
187
 11
51.5
 21
187
 72
    1
 10
51.5
 20
187
 11
51.5
 21
193.5
 97
    0
 75
    0
 76
    1
 52
3.141592653589794
 41
0.5
 77
    0
 78
    0
 98
    0
  0
HATCH
  5
62
100
AcDbEntity
  8
cegla_zv
  6
ByLayer
 62
  256
370
   -1
100
AcDbHatch
 10
0
 20
0
 30
0
210
0
220
0
230
1
  2
gost_stone
 70
    0
 71
    0
 91
    1
 92
    0
 93
    4
 72
    1
 10
64.5
 20
193.5
 11
52
 21
193.5
 72
    1
 10
52
 20
193.5
 11
52
 21
187
 72
    1
 10
52
 20
187
 11
64.5
 21
187
 72
    1
 10
64.5
 20
187
 11
64.5
 21
193.5
 97
    0
 75
    0
 76
    1
 52
3.141592653589794
 41
0.5
 77
    0
 78
    0
 98
    0
  0
HATCH
  5
63
100
AcDbEntity
  8
cegla_zv
  6
ByLayer
 62
  256
370
   -1
100
AcDbHatch
 10
0
 20
0
 30
0
210
0
220
0
230
1
  2
gost_stone
 70
    0
 71
    0
 91
    1
 92
    0
 93
    4
 72
    1
 10
77.5
 20
193.5
 11
65
 21
193.5
 72
    1
 10
65
 20
193.5
 11
65
 21
187
 72
    1
 10
65
 20
187
 11
77.5
 21
187
 72
    1
 10
77.5
 20
187
 11
77.5
 21
193.5
 97
    0
 75
    0
 76
    1
 52
3.141592653589794
 41
0.5
 77
    0
 78
    0
 98
    0
  0
HATCH
  5
64
100
AcDbEntity
  8
cegla_zv
  6
ByLayer
 62
  256
370
   -1
100
AcDbHatch
 10
0
 20
0
 30
0
210
0
220
0
230
1
  2
gost_stone
 70
    0
 71
    0
 91
    1
 92
    0
 93
    4
 72
    1
 10
90.5
 20
193.5
 11
78
 21
193.5
 72
    1
 10
78
 20
193.5
 11
78
 21
187
 72
    1
 10
78
 20
187
 11
90.5
 21
187
 72
    1
 10
90.5
 20
187
 11
90.5
 21
193.5
 97
    0
 75
    0
 76
    1
 52
3.141592653589794
 41
0.5
 77
    0
 78
    0
 98
    0
  0
HATCH
  5
65
100
AcDbEntity
  8
cegla_zv
  6
ByLayer
 62
  256
370
   -1
100
AcDbHatch
 10
0
 20
0
 30
0
210
0
220
0
230
1
  2
gost_stone
 70
    0
 71
    0
 91
    1
 92
    0
 93
    4
 72
    1
 10
0
 20
194
 11
6.5
 21
194
 72
    1
 10
6.5
 20
194
 11
6.5
 21
206.5
 72
    1
 10
6.5
 20
206.5
 11
0
 21
206.5
 72
    1
 10
0
 20
206.5
 11
0
 21
194
 97
    0
 75
    0
 76
    1
 52
1.570796326794897
 41
0.5
 77
    0
 78
    0
 98
    0
  0
HATCH
  5
66
100
AcDbEntity
  8
cegla_zv
  6
ByLayer
 62
  256
370
   -1
100
AcDbHatch
 10
0
 20
0
 30
0
210
0
220
0
230
1
  2
gost_stone
 70
    0
 71
    0
 91
    1
 92
    0
 93
    4
 72
    1
 10
110.5
 20
187
 11
117
 21
187
 72
    1
 10
117
 20
187
 11
117
 21
199.5
 72
    1
 10
117
 20
199.5
 11
110.5
 21
199.5
 72
    1
 10
110.5
 20
199.5
 11
110.5
 21
187
 97
    0
 75
    0
 76
    1
 52
1.570796326794897
 41
0.5
 77
    0
 78
    0
 98
    0
  0
HATCH
  5
67
100
AcDbEntity
  8
cegla_zv
  6
ByLayer
 62
  256
370
   -1
100
AcDbHatch
 10
0
 20
0
 30
0
210
0
220
0
230
1
  2
gost_stone
 70
    0
 71
    0
 91
    1
 92
    0
 93
    4
 72
    1
 10
104.5
 20
207
 11
117
 21
207
 72
    1
 10
117
 20
207
 11
117
 21
213.5
 72
    1
 10
117
 20
213.5
 11
104.5
 21
213.5
 72
    1
 10
104.5
 20
213.5
 11
104.5
 21
207
 97
    0
 75
    0
 76
    1
 52
3.141592653589794
 41
0.5
 77
    0
 78
    0
 98
    0
  0
HATCH
  5
68
100
AcDbEntity
  8
cegla_zv
  6
ByLayer
 62
  256
370
   -1
100
AcDbHatch
 10
0
 20
0
 30
0
210
0
220
0
230
1
  2
gost_stone
 70
    0
 71
    0
 91
    1
 92
    0
 93
    4
 72
    1
 10
91.5
 20
207
 11
104
 21
207
 72
    1
 10
104
 20
207
 11
104
 21
213.5
 72
    1
 10
104
 20
213.5
 11
91.5
 21
213.5
 72
    1
 10
91.5
 20
213.5
 11
91.5
 21
207
 97
    0
 75
    0
 76
    1
 52
3.141592653589794
 41
0.5
 77
    0
 78
    0
 98
    0
  0
HATCH
  5
69
100
AcDbEntity
  8
cegla_zv
  6
ByLayer
 62
  256
370
   -1
100
AcDbHatch
 10
0
 20
0
 30
0
210
0
220
0
230
1
  2
gost_stone
 70
    0
 71
    0
 91
    1
 92
    0
 93
    4
 72
    1
 10
78.5
 20
207
 11
91
 21
207
 72
    1
 10
91
 20
207
 11
91
 21
213.5
 72
    1
 10
91
 20
213.5
 11
78.5
 21
213.5
 72
    1
 10
78.5
 20
213.5
 11
78.5
 21
207
 97
    0
 75
    0
 76
    1
 52
3.141592653589794
 41
0.5
 77
    0
 78
    0
 98
    0
  0
HATCH
  5
6A
100
AcDbEntity
  8
cegla_zv
  6
ByLayer
 62
  256
370
   -1
100
AcDbHatch
 10
0
 20
0
 30
0
210
0
220
0
230
1
  2
gost_stone
 70
    0
 71
    0
 91
    1
 92
    0
 93
    4
 72
    1
 10
65.5
 20
207
 11
78
 21
207
 72
    1
 10
78
 20
207
 11
78
 21
213.5
 72
    1
 10
78
 20
213.5
 11
65.5
 21
213.5
 72
    1
 10
65.5
 20
213.5
 11
65.5
 21
207
 97
    0
 75
    0
 76
    1
 52
3.141592653589794
 41
0.5
 77
    0
 78
    0
 98
    0
  0
HATCH
  5
6B
100
AcDbEntity
  8
cegla_zv
  6
ByLayer
 62
  256
370
   -1
100
AcDbHatch
 10
0
 20
0
 30
0
210
0
220
0
230
1
  2
gost_stone
 70
    0
 71
    0
 91
    1
 92
    0
 93
    4
 72
    1
 10
52.5
 20
207
 11
65
 21
207
 72
    1
 10
65
 20
207
 11
65
 21
213.5
 72
    1
 10
65
 20
213.5
 11
52.5
 21
213.5
 72
    1
 10
52.5
 20
213.5
 11
52.5
 21
207
 97
    0
 75
    0
 76
    1
 52
3.141592653589794
 41
0.5
 77
    0
 78
    0
 98
    0
  0
HATCH
  5
6C
100
AcDbEntity
  8
cegla_zv
  6
ByLayer
 62
  256
370
   -1
100
AcDbHatch
 10
0
 20
0
 30
0
210
0
220
0
230
1
  2
gost_stone
 70
    0
 71
    0
 91
    1
 92
    0
 93
    4
 72
    1
 10
39.5
 20
207
 11
52
 21
207
 72
    1
 10
52
 20
207
 11
52
 21
213.5
 72
    1
 10
52
 20
213.5
 11
39.5
 21
213.5
 72
    1
 10
39.5
 20
213.5
 11
39.5
 21
207
 97
    0
 75
    0
 76
    1
 52
3.141592653589794
 41
0.5
 77
    0
 78
    0
 98
    0
  0
HATCH
  5
6D
100
AcDbEntity
  8
cegla_zv
  6
ByLayer
 62
  256
370
   -1
100
AcDbHatch
 10
0
 20
0
 30
0
210
0
220
0
230
1
  2
gost_stone
 70
    0
 71
    0
 91
    1
 92
    0
 93
    4
 72
    1
 10
39
 20
213.5
 11
26.5
 21
213.5
 72
    1
 10
26.5
 20
213.5
 11
26.5
 21
207
 72
    1
 10
26.5
 20
207
 11
39
 21
207
 72
    1
 10
39
 20
207
 11
39
 21
213.5
 97
    0
 75
    0
 76
    1
 52
3.141592653589794
 41
0.5
 77
    0
 78
    0
 98
    0
  0
HATCH
  5
6E
100
AcDbEntity
  8
cegla_zv
  6
ByLayer
 62
  256
370
   -1
100
AcDbHatch
 10
0
 20
0
 30
0
210
0
220
0
230
1
  2
gost_stone
 70
    0
 71
    0
 91
    1
 92
    0
 93
    4
 72
    1
 10
26.5
 20
167
 11
39
 21
167
 72
    1
 10
39
 20
167
 11
39
 21
173.5
 72
    1
 10
39
 20
173.5
 11
26.5
 21
173.5
 72
    1
 10
26.5
 20
173.5
 11
26.5
 21
167
 97
    0
 75
    0
 76
    1
 52
3.141592653589794
 41
0.5
 77
    0
 78
    0
 98
    0
  0
HATCH
  5
6F
100
AcDbEntity
  8
cegla_zv
  6
ByLayer
 62
  256
370
   -1
100
AcDbHatch
 10
0
 20
0
 30
0
210
0
220
0
230
1
  2
gost_stone
 70
    0
 71
    0
 91
    1
 92
    0
 93
    4
 72
    1
 10
52
 20
173.5
 11
39.5
 21
173.5
 72
    1
 10
39.5
 20
173.5
 11
39.5
 21
167
 72
    1
 10
39.5
 20
167
 11
52
 21
167
 72
    1
 10
52
 20
167
 11
52
 21
173.5
 97
    0
 75
    0
 76
    1
 52
3.141592653589794
 41
0.5
 77
    0
 78
    0
 98
    0
  0
HATCH
  5
70
100
AcDbEntity
  8
cegla_zv
  6
ByLayer
 62
  256
370
   -1
100
AcDbHatch
 10
0
 20
0
 30
0
210
0
220
0
230
1
  2
gost_stone
 70
    0
 71
    0
 91
    1
 92
    0
 93
    4
 72
    1
 10
65
 20
173.5
 11
52.5
 21
173.5
 72
    1
 10
52.5
 20
173.5
 11
52.5
 21
167
 72
    1
 10
52.5
 20
167
 11
65
 21
167
 72
    1
 10
65
 20
167
 11
65
 21
173.5
 97
    0
 75
    0
 76
    1
 52
3.141592653589794
 41
0.5
 77
    0
 78
    0
 98
    0
  0
HATCH
  5
71
100
AcDbEntity
  8
cegla_zv
  6
ByLayer
 62
  256
370
   -1
100
AcDbHatch
 10
0
 20
0
 30
0
210
0
220
0
230
1
  2
gost_stone
 70
    0
 71
    0
 91
    1
 92
    0
 93
    4
 72
    1
 10
78
 20
173.5
 11
65.5
 21
173.5
 72
    1
 10
65.5
 20
173.5
 11
65.5
 21
167
 72
    1
 10
65.5
 20
167
 11
78
 21
167
 72
    1
 10
78
 20
167
 11
78
 21
173.5
 97
    0
 75
    0
 76
    1
 52
3.141592653589794
 41
0.5
 77
    0
 78
    0
 98
    0
  0
HATCH
  5
72
100
AcDbEntity
  8
cegla_zv
  6
ByLayer
 62
  256
370
   -1
100
AcDbHatch
 10
0
 20
0
 30
0
210
0
220
0
230
1
  2
gost_stone
 70
    0
 71
    0
 91
    1
 92
    0
 93
    4
 72
    1
 10
91
 20
173.5
 11
78.5
 21
173.5
 72
    1
 10
78.5
 20
173.5
 11
78.5
 21
167
 72
    1
 10
78.5
 20
167
 11
91
 21
167
 72
    1
 10
91
 20
167
 11
91
 21
173.5
 97
    0
 75
    0
 76
    1
 52
3.141592653589794
 41
0.5
 77
    0
 78
    0
 98
    0
  0
HATCH
  5
73
100
AcDbEntity
  8
cegla_zv
  6
ByLayer
 62
  256
370
   -1
100
AcDbHatch
 10
0
 20
0
 30
0
210
0
220
0
230
1
  2
gost_stone
 70
    0
 71
    0
 91
    1
 92
    0
 93
    4
 72
    1
 10
104
 20
173.5
 11
91.5
 21
173.5
 72
    1
 10
91.5
 20
173.5
 11
91.5
 21
167
 72
    1
 10
91.5
 20
167
 11
104
 21
167
 72
    1
 10
104
 20
167
 11
104
 21
173.5
 97
    0
 75
    0
 76
    1
 52
3.141592653589794
 41
0.5
 77
    0
 78
    0
 98
    0
  0
HATCH
  5
74
100
AcDbEntity
  8
cegla_zv
  6
ByLayer
 62
  256
370
   -1
100
AcDbHatch
 10
0
 20
0
 30
0
210
0
220
0
230
1
  2
gost_stone
 70
    0
 71
    0
 91
    1
 92
    0
 93
    4
 72
    1
 10
117
 20
173.5
 11
104.5
 21
173.5
 72
    1
 10
104.5
 20
173.5
 11
104.5
 21
167
 72
    1
 10
104.5
 20
167
 11
117
 21
167
 72
    1
 10
117
 20
167
 11
117
 21
173.5
 97
    0
 75
    0
 76
    1
 52
3.141592653589794
 41
0.5
 77
    0
 78
    0
 98
    0
  0
HATCH
  5
75
100
AcDbEntity
  8
cegla_zv
  6
ByLayer
 62
  256
370
   -1
100
AcDbHatch
 10
0
 20
0
 30
0
210
0
220
0
230
1
  2
gost_stone
 70
    0
 71
    0
 91
    1
 92
    0
 93
    4
 72
    1
 10
117
 20
159.5
 11
110.5
 21
159.5
 72
    1
 10
110.5
 20
159.5
 11
110.5
 21
147
 72
    1
 10
110.5
 20
147
 11
117
 21
147
 72
    1
 10
117
 20
147
 11
117
 21
159.5
 97
    0
 75
    0
 76
    1
 52
1.570796326794897
 41
0.5
 77
    0
 78
    0
 98
    0
  0
HATCH
  5
76
100
AcDbEntity
  8
cegla_zv
  6
ByLayer
 62
  256
370
   -1
100
AcDbHatch
 10
0
 20
0
 30
0
210
0
220
0
230
1
  2
gost_stone
 70
    0
 71
    0
 91
    1
 92
    0
 93
    4
 72
    1
 10
6.5
 20
166.5
 11
0
 21
166.5
 72
    1
 10
0
 20
166.5
 11
0
 21
154
 72
    1
 10
0
 20
154
 11
6.5
 21
154
 72
    1
 10
6.5
 20
154
 11
6.5
 21
166.5
 97
    0
 75
    0
 76
    1
 52
1.570796326794897
 41
0.5
 77
    0
 78
    0
 98
    0
  0
HATCH
  5
77
100
AcDbEntity
  8
cegla_zv
  6
ByLayer
 62
  256
370
   -1
100
AcDbHatch
 10
0
 20
0
 30
0
210
0
220
0
230
1
  2
gost_stone
 70
    0
 71
    0
 91
    1
 92
    0
 93
    4
 72
    1
 10
78
 20
147
 11
90.5
 21
147
 72
    1
 10
90.5
 20
147
 11
90.5
 21
153.5
 72
    1
 10
90.5
 20
153.5
 11
78
 21
153.5
 72
    1
 10
78
 20
153.5
 11
78
 21
147
 97
    0
 75
    0
 76
    1
 52
3.141592653589794
 41
0.5
 77
    0
 78
    0
 98
    0
  0
HATCH
  5
78
100
AcDbEntity
  8
cegla_zv
  6
ByLayer
 62
  256
370
   -1
100
AcDbHatch
 10
0
 20
0
 30
0
210
0
220
0
230
1
  2
gost_stone
 70
    0
 71
    0
 91
    1
 92
    0
 93
    4
 72
    1
 10
65
 20
147
 11
77.5
 21
147
 72
    1
 10
77.5
 20
147
 11
77.5
 21
153.5
 72
    1
 10
77.5
 20
153.5
 11
65
 21
153.5
 72
    1
 10
65
 20
153.5
 11
65
 21
147
 97
    0
 75
    0
 76
    1
 52
3.141592653589794
 41
0.5
 77
    0
 78
    0
 98
    0
  0
HATCH
  5
79
100
AcDbEntity
  8
cegla_zv
  6
ByLayer
 62
  256
370
   -1
100
AcDbHatch
 10
0
 20
0
 30
0
210
0
220
0
230
1
  2
gost_stone
 70
    0
 71
    0
 91
    1
 92
    0
 93
    4
 72
    1
 10
52
 20
147
 11
64.5
 21
147
 72
    1
 10
64.5
 20
147
 11
64.5
 21
153.5
 72
    1
 10
64.5
 20
153.5
 11
52
 21
153.5
 72
    1
 10
52
 20
153.5
 11
52
 21
147
 97
    0
 75
    0
 76
    1
 52
3.141592653589794
 41
0.5
 77
    0
 78
    0
 98
    0
  0
HATCH
  5
7A
100
AcDbEntity
  8
cegla_zv
  6
ByLayer
 62
  256
370
   -1
100
AcDbHatch
 10
0
 20
0
 30
0
210
0
220
0
230
1
  2
gost_stone
 70
    0
 71
    0
 91
    1
 92
    0
 93
    4
 72
    1
 10
39
 20
147
 11
51.5
 21
147
 72
    1
 10
51.5
 20
147
 11
51.5
 21
153.5
 72
    1
 10
51.5
 20
153.5
 11
39
 21
153.5
 72
    1
 10
39
 20
153.5
 11
39
 21
147
 97
    0
 75
    0
 76
    1
 52
3.141592653589794
 41
0.5
 77
    0
 78
    0
 98
    0
  0
HATCH
  5
7B
100
AcDbEntity
  8
cegla_zv
  6
ByLayer
 62
  256
370
   -1
100
AcDbHatch
 10
0
 20
0
 30
0
210
0
220
0
230
1
  2
gost_stone
 70
    0
 71
    0
 91
    1
 92
    0
 93
    4
 72
    1
 10
26
 20
147
 11
38.5
 21
147
 72
    1
 10
38.5
 20
147
 11
38.5
 21
153.5
 72
    1
 10
38.5
 20
153.5
 11
26
 21
153.5
 72
    1
 10
26
 20
153.5
 11
26
 21
147
 97
    0
 75
    0
 76
    1
 52
3.141592653589794
 41
0.5
 77
    0
 78
    0
 98
    0
  0
HATCH
  5
7C
100
AcDbEntity
  8
cegla_zv
  6
ByLayer
 62
  256
370
   -1
100
AcDbHatch
 10
0
 20
0
 30
0
210
0
220
0
230
1
  2
gost_stone
 70
    0
 71
    0
 91
    1
 92
    0
 93
    4
 72
    1
 10
13
 20
147
 11
25.5
 21
147
 72
    1
 10
25.5
 20
147
 11
25.5
 21
153.5
 72
    1
 10
25.5
 20
153.5
 11
13
 21
153.5
 72
    1
 10
13
 20
153.5
 11
13
 21
147
 97
    0
 75
    0
 76
    1
 52
3.141592653589794
 41
0.5
 77
    0
 78
    0
 98
    0
  0
HATCH
  5
7D
100
AcDbEntity
  8
cegla_zv
  6
ByLayer
 62
  256
370
   -1
100
AcDbHatch
 10
0
 20
0
 30
0
210
0
220
0
230
1
  2
gost_stone
 70
    0
 71
    0
 91
    1
 92
    0
 93
    4
 72
    1
 10
12.5
 20
153.5
 11
0
 21
153.5
 72
    1
 10
0
 20
153.5
 11
0
 21
147
 72
    1
 10
0
 20
147
 11
12.5
 21
147
 72
    1
 10
12.5
 20
147
 11
12.5
 21
153.5
 97
    0
 75
    0
 76
    1
 52
3.141592653589794
 41
0.5
 77
    0
 78
    0
 98
    0
  0
HATCH
  5
7E
100
AcDbEntity
  8
cegla_zv
  6
ByLayer
 62
  256
370
   -1
100
AcDbHatch
 10
0
 20
0
 30
0
210
0
220
0
230
1
  2
gost_stone
 70
    0
 71
    0
 91
    1
 92
    0
 93
    4
 72
    1
 10
110.5
 20
134
 11
117
 21
134
 72
    1
 10
117
 20
134
 11
117
 21
146.5
 72
    1
 10
117
 20
146.5
 11
110.5
 21
146.5
 72
    1
 10
110.5
 20
146.5
 11
110.5
 21
134
 97
    0
 75
    0
 76
    1
 52
1.570796326794897
 41
0.5
 77
    0
 78
    0
 98
    0
  0
HATCH
  5
7F
100
AcDbEntity
  8
cegla_tr
  6
ByLayer
 62
  256
370
   -1
100
AcDbHatch
 10
0
 20
0
 30
0
210
0
220
0
230
1
  2
gost_ceramics
 70
    0
 71
    0
 91
    1
 92
    0
 93
    4
 72
    1
 10
6.500000000000001
 20
138.5
 11
8.881784197001252e-16
 21
138.5
 72
    1
 10
8.881784197001252e-16
 20
138.5
 11
8.881784197001252e-16
 21
127
 72
    1
 10
8.881784197001252e-16
 20
127
 11
6.500000000000001
 21
127
 72
    1
 10
6.500000000000001
 20
127
 11
6.500000000000001
 21
138.5
 97
    0
 75
    0
 76
    1
 52
0
 41
0.5
 77
    0
 78
    0
 98
    0
  0
HATCH
  5
80
100
AcDbEntity
  8
cegla_tr
  6
ByLayer
 62
  256
370
   -1
100
AcDbHatch
 10
0
 20
0
 30
0
210
0
220
0
230
1
  2
gost_ceramics
 70
    0
 71
    0
 91
    1
 92
    0
 93
    4
 72
    1
 10
33
 20
127
 11
33
 21
133.5
 72
    1
 10
33
 20
133.5
 11
21.5
 21
133.5
 72
    1
 10
21.5
 20
133.5
 11
21.5
 21
127
 72
    1
 10
21.5
 20
127
 11
33
 21
127
 97
    0
 75
    0
 76
    1
 52
0
 41
0.5
 77
    0
 78
    0
 98
    0
  0
HATCH
  5
81
100
AcDbEntity
  8
cegla_tr
  6
ByLayer
 62
  256
370
   -1
100
AcDbHatch
 10
0
 20
0
 30
0
210
0
220
0
230
1
  2
gost_ceramics
 70
    0
 71
    0
 91
    1
 92
    0
 93
    4
 72
    1
 10
33.50000000000001
 20
133.5
 11
33.50000000000001
 21
127
 72
    1
 10
33.50000000000001
 20
127
 11
45.00000000000001
 21
127
 72
    1
 10
45.00000000000001
 20
127
 11
45.00000000000001
 21
133.5
 72
    1
 10
45.00000000000001
 20
133.5
 11
33.50000000000001
 21
133.5
 97
    0
 75
    0
 76
    1
 52
0
 41
0.5
 77
    0
 78
    0
 98
    0
  0
HATCH
  5
82
100
AcDbEntity
  8
cegla_tr
  6
ByLayer
 62
  256
370
   -1
100
AcDbHatch
 10
0
 20
0
 30
0
210
0
220
0
230
1
  2
gost_ceramics
 70
    0
 71
    0
 91
    1
 92
    0
 93
    4
 72
    1
 10
57.00000000000001
 20
127
 11
57.00000000000001
 21
133.5
 72
    1
 10
57.00000000000001
 20
133.5
 11
45.50000000000001
 21
133.5
 72
    1
 10
45.50000000000001
 20
133.5
 11
45.50000000000001
 21
127
 72
    1
 10
45.50000000000001
 20
127
 11
57.00000000000001
 21
127
 97
    0
 75
    0
 76
    1
 52
0
 41
0.5
 77
    0
 78
    0
 98
    0
  0
HATCH
  5
83
100
AcDbEntity
  8
cegla_tr
  6
ByLayer
 62
  256
370
   -1
100
AcDbHatch
 10
0
 20
0
 30
0
210
0
220
0
230
1
  2
gost_ceramics
 70
    0
 71
    0
 91
    1
 92
    0
 93
    4
 72
    1
 10
69.00000000000001
 20
127
 11
69.00000000000001
 21
133.5
 72
    1
 10
69.00000000000001
 20
133.5
 11
57.50000000000001
 21
133.5
 72
    1
 10
57.50000000000001
 20
133.5
 11
57.50000000000001
 21
127
 72
    1
 10
57.50000000000001
 20
127
 11
69.00000000000001
 21
127
 97
    0
 75
    0
 76
    1
 52
0
 41
0.5
 77
    0
 78
    0
 98
    0
  0
HATCH
  5
84
100
AcDbEntity
  8
cegla_tr
  6
ByLayer
 62
  256
370
   -1
100
AcDbHatch
 10
0
 20
0
 30
0
210
0
220
0
230
1
  2
gost_ceramics
 70
    0
 71
    0
 91
    1
 92
    0
 93
    4
 72
    1
 10
81.00000000000001
 20
127
 11
81.00000000000001
 21
133.5
 72
    1
 10
81.00000000000001
 20
133.5
 11
69.50000000000001
 21
133.5
 72
    1
 10
69.50000000000001
 20
133.5
 11
69.50000000000001
 21
127
 72
    1
 10
69.50000000000001
 20
127
 11
81.00000000000001
 21
127
 97
    0
 75
    0
 76
    1
 52
0
 41
0.5
 77
    0
 78
    0
 98
    0
  0
HATCH
  5
85
100
AcDbEntity
  8
cegla_tr
  6
ByLayer
 62
  256
370
   -1
100
AcDbHatch
 10
0
 20
0
 30
0
210
0
220
0
230
1
  2
gost_ceramics
 70
    0
 71
    0
 91
    1
 92
    0
 93
    4
 72
    1
 10
93.00000000000001
 20
127
 11
93.00000000000001
 21
133.5
 72
    1
 10
93.00000000000001
 20
133.5
 11
81.50000000000001
 21
133.5
 72
    1
 10
81.50000000000001
 20
133.5
 11
81.50000000000001
 21
127
 72
    1
 10
81.50000000000001
 20
127
 11
93.00000000000001
 21
127
 97
    0
 75
    0
 76
    1
 52
0
 41
0.5
 77
    0
 78
    0
 98
    0
  0
HATCH
  5
86
100
AcDbEntity
  8
cegla_tr
  6
ByLayer
 62
  256
370
   -1
100
AcDbHatch
 10
0
 20
0
 30
0
210
0
220
0
230
1
  2
gost_ceramics
 70
    0
 71
    0
 91
    1
 92
    0
 93
    4
 72
    1
 10
105
 20
127
 11
105
 21
133.5
 72
    1
 10
105
 20
133.5
 11
93.50000000000001
 21
133.5
 72
    1
 10
93.50000000000001
 20
133.5
 11
93.50000000000001
 21
127
 72
    1
 10
93.50000000000001
 20
127
 11
105
 21
127
 97
    0
 75
    0
 76
    1
 52
0
 41
0.5
 77
    0
 78
    0
 98
    0
  0
HATCH
  5
87
100
AcDbEntity
  8
cegla_tr
  6
ByLayer
 62
  256
370
   -1
100
AcDbHatch
 10
0
 20
0
 30
0
210
0
220
0
230
1
  2
gost_ceramics
 70
    0
 71
    0
 91
    1
 92
    0
 93
    4
 72
    1
 10
117
 20
127
 11
117
 21
133.5
 72
    1
 10
117
 20
133.5
 11
105.5
 21
133.5
 72
    1
 10
105.5
 20
133.5
 11
105.5
 21
127
 72
    1
 10
105.5
 20
127
 11
117
 21
127
 97
    0
 75
    0
 76
    1
 52
0
 41
0.5
 77
    0
 78
    0
 98
    0
  0
HATCH
  5
88
100
AcDbEntity
  8
cegla_tr
  6
ByLayer
 62
  256
370
   -1
100
AcDbHatch
 10
0
 20
0
 30
0
210
0
220
0
230
1
  2
gost_ceramics
 70
    0
 71
    0
 91
    1
 92
    0
 93
    4
 72
    1
 10
105.5
 20
118.5
 11
105.5
 21
112
 72
    1
 10
105.5
 20
112
 11
117
 21
112
 72
    1
 10
117
 20
112
 11
117
 21
118.5
 72
    1
 10
117
 20
118.5
 11
105.5
 21
118.5
 97
    0
 75
    0
 76
    1
 52
0
 41
0.5
 77
    0
 78
    0
 98
    0
  0
HATCH
  5
89
100
AcDbEntity
  8
cegla_tr
  6
ByLayer
 62
  256
370
   -1
100
AcDbHatch
 10
0
 20
0
 30
0
210
0
220
0
230
1
  2
gost_ceramics
 70
    0
 71
    0
 91
    1
 92
    0
 93
    4
 72
    1
 10
117
 20
119
 11
117
 21
125.5
 72
    1
 10
117
 20
125.5
 11
105.5
 21
125.5
 72
    1
 10
105.5
 20
125.5
 11
105.5
 21
119
 72
    1
 10
105.5
 20
119
 11
117
 21
119
 97
    0
 75
    0
 76
    1
 52
0
 41
0.5
 77
    0
 78
    0
 98
    0
  0
HATCH
  5
8A
100
AcDbEntity
  8
cegla_tr
  6
ByLayer
 62
  256
370
   -1
100
AcDbHatch
 10
0
 20
0
 30
0
210
0
220
0
230
1
  2
gost_ceramics
 70
    0
 71
    0
 91
    1
 92
    0
 93
    4
 72
    1
 10
-93.5
 20
79.5
 11
-185.5
 21
79.5
 72
    1
 10
-185.5
 20
79.5
 11
-185.5
 21
73
 72
    1
 10
-185.5
 20
73
 11
-93.5
 21
73
 72
    1
 10
-93.5
 20
73
 11
-93.5
 21
79.5
 97
    0
 75
    0
 76
    1
 52
0
 41
0.5
 77
    0
 78
    0
 98
    0
  0
HATCH
  5
8B
100
AcDbEntity
  8
cegla_tr
  6
ByLayer
 62
  256
370
   -1
100
AcDbHatch
 10
0
 20
0
 30
0
210
0
220
0
230
1
  2
gost_ceramics
 70
    0
 71
    0
 91
    1
 92
    0
 93
    4
 72
    1
 10
72
 20
114.5
 11
72
 21
108
 72
    1
 10
72
 20
108
 11
83.5
 21
108
 72
    1
 10
83.5
 20
108
 11
83.5
 21
114.5
 72
    1
 10
83.5
 20
114.5
 11
72
 21
114.5
 97
    0
 75
    0
 76
    1
 52
0
 41
0.5
 77
    0
 78
    0
 98
    0
  0
HATCH
  5
8C
100
AcDbEntity
  8
cegla_tr
  6
ByLayer
 62
  256
370
   -1
100
AcDbHatch
 10
0
 20
0
 30
0
210
0
220
0
230
1
  2
gost_ceramics
 70
    0
 71
    0
 91
    1
 92
    0
 93
    4
 72
    1
 10
-105.5
 20
79.5
 11
-197.5
 21
79.5
 72
    1
 10
-197.5
 20
79.5
 11
-197.5
 21
73
 72
    1
 10
-197.5
 20
73
 11
-105.5
 21
73
 72
    1
 10
-105.5
 20
73
 11
-105.5
 21
79.5
 97
    0
 75
    0
 76
    1
 52
0
 41
0.5
 77
    0
 78
    0
 98
    0
  0
HATCH
  5
8D
100
AcDbEntity
  8
cegla_tr
  6
ByLayer
 62
  256
370
   -1
100
AcDbHatch
 10
0
 20
0
 30
0
210
0
220
0
230
1
  2
gost_ceramics
 70
    0
 71
    0
 91
    1
 92
    0
 93
    4
 72
    1
 10
60
 20
114.5
 11
60
 21
108
 72
    1
 10
60
 20
108
 11
71.5
 21
108
 72
    1
 10
71.5
 20
108
 11
71.5
 21
114.5
 72
    1
 10
71.5
 20
114.5
 11
60
 21
114.5
 97
    0
 75
    0
 76
    1
 52
0
 41
0.5
 77
    0
 78
    0
 98
    0
  0
HATCH
  5
8E
100
AcDbEntity
  8
cegla_tr
  6
ByLayer
 62
  256
370
   -1
100
AcDbHatch
 10
0
 20
0
 30
0
210
0
220
0
230
1
  2
gost_ceramics
 70
    0
 71
    0
 91
    1
 92
    0
 93
    4
 72
    1
 10
-117.5
 20
79.5
 11
-209.5
 21
79.5
 72
    1
 10
-209.5
 20
79.5
 11
-209.5
 21
73
 72
    1
 10
-209.5
 20
73
 11
-117.5
 21
73
 72
    1
 10
-117.5
 20
73
 11
-117.5
 21
79.5
 97
    0
 75
    0
 76
    1
 52
0
 41
0.5
 77
    0
 78
    0
 98
    0
  0
HATCH
  5
8F
100
AcDbEntity
  8
cegla_tr
  6
ByLayer
 62
  256
370
   -1
100
AcDbHatch
 10
0
 20
0
 30
0
210
0
220
0
230
1
  2
gost_ceramics
 70
    0
 71
    0
 91
    1
 92
    0
 93
    4
 72
    1
 10
48
 20
114.5
 11
48
 21
108
 72
    1
 10
48
 20
108
 11
59.5
 21
108
 72
    1
 10
59.5
 20
108
 11
59.5
 21
114.5
 72
    1
 10
59.5
 20
114.5
 11
48
 21
114.5
 97
    0
 75
    0
 76
    1
 52
0
 41
0.5
 77
    0
 78
    0
 98
    0
  0
HATCH
  5
90
100
AcDbEntity
  8
cegla_tr
  6
ByLayer
 62
  256
370
   -1
100
AcDbHatch
 10
0
 20
0
 30
0
210
0
220
0
230
1
  2
gost_ceramics
 70
    0
 71
    0
 91
    1
 92
    0
 93
    4
 72
    1
 10
-129.5
 20
79.5
 11
-221.5
 21
79.5
 72
    1
 10
-221.5
 20
79.5
 11
-221.5
 21
73
 72
    1
 10
-221.5
 20
73
 11
-129.5
 21
73
 72
    1
 10
-129.5
 20
73
 11
-129.5
 21
79.5
 97
    0
 75
    0
 76
    1
 52
0
 41
0.5
 77
    0
 78
    0
 98
    0
  0
HATCH
  5
91
100
AcDbEntity
  8
cegla_tr
  6
ByLayer
 62
  256
370
   -1
100
AcDbHatch
 10
0
 20
0
 30
0
210
0
220
0
230
1
  2
gost_ceramics
 70
    0
 71
    0
 91
    1
 92
    0
 93
    4
 72
    1
 10
36
 20
114.5
 11
36
 21
108
 72
    1
 10
36
 20
108
 11
47.5
 21
108
 72
    1
 10
47.5
 20
108
 11
47.5
 21
114.5
 72
    1
 10
47.5
 20
114.5
 11
36
 21
114.5
 97
    0
 75
    0
 76
    1
 52
0
 41
0.5
 77
    0
 78
    0
 98
    0
  0
HATCH
  5
92
100
AcDbEntity
  8
cegla_tr
  6
ByLayer
 62
  256
370
   -1
100
AcDbHatch
 10
0
 20
0
 30
0
210
0
220
0
230
1
  2
gost_ceramics
 70
    0
 71
    0
 91
    1
 92
    0
 93
    4
 72
    1
 10
-141.5
 20
79.5
 11
-233.5
 21
79.5
 72
    1
 10
-233.5
 20
79.5
 11
-233.5
 21
73
 72
    1
 10
-233.5
 20
73
 11
-141.5
 21
73
 72
    1
 10
-141.5
 20
73
 11
-141.5
 21
79.5
 97
    0
 75
    0
 76
    1
 52
0
 41
0.5
 77
    0
 78
    0
 98
    0
  0
HATCH
  5
93
100
AcDbEntity
  8
cegla_tr
  6
ByLayer
 62
  256
370
   -1
100
AcDbHatch
 10
0
 20
0
 30
0
210
0
220
0
230
1
  2
gost_ceramics
 70
    0
 71
    0
 91
    1
 92
    0
 93
    4
 72
    1
 10
24
 20
114.5
 11
24
 21
108
 72
    1
 10
24
 20
108
 11
35.5
 21
108
 72
    1
 10
35.5
 20
108
 11
35.5
 21
114.5
 72
    1
 10
35.5
 20
114.5
 11
24
 21
114.5
 97
    0
 75
    0
 76
    1
 52
0
 41
0.5
 77
    0
 78
    0
 98
    0
  0
HATCH
  5
94
100
AcDbEntity
  8
cegla_tr
  6
ByLayer
 62
  256
370
   -1
100
AcDbHatch
 10
0
 20
0
 30
0
210
0
220
0
230
1
  2
gost_ceramics
 70
    0
 71
    0
 91
    1
 92
    0
 93
    4
 72
    1
 10
-153.5
 20
79.5
 11
-245.5
 21
79.5
 72
    1
 10
-245.5
 20
79.5
 11
-245.5
 21
73
 72
    1
 10
-245.5
 20
73
 11
-153.5
 21
73
 72
    1
 10
-153.5
 20
73
 11
-153.5
 21
79.5
 97
    0
 75
    0
 76
    1
 52
0
 41
0.5
 77
    0
 78
    0
 98
    0
  0
HATCH
  5
95
100
AcDbEntity
  8
cegla_tr
  6
ByLayer
 62
  256
370
   -1
100
AcDbHatch
 10
0
 20
0
 30
0
210
0
220
0
230
1
  2
gost_ceramics
 70
    0
 71
    0
 91
    1
 92
    0
 93
    4
 72
    1
 10
12
 20
114.5
 11
12
 21
108
 72
    1
 10
12
 20
108
 11
23.5
 21
108
 72
    1
 10
23.5
 20
108
 11
23.5
 21
114.5
 72
    1
 10
23.5
 20
114.5
 11
12
 21
114.5
 97
    0
 75
    0
 76
    1
 52
0
 41
0.5
 77
    0
 78
    0
 98
    0
  0
HATCH
  5
96
100
AcDbEntity
  8
cegla_tr
  6
ByLayer
 62
  256
370
   -1
100
AcDbHatch
 10
0
 20
0
 30
0
210
0
220
0
230
1
  2
gost_ceramics
 70
    0
 71
    0
 91
    1
 92
    0
 93
    4
 72
    1
 10
11.5
 20
108
 11
11.5
 21
114.5
 72
    1
 10
11.5
 20
114.5
 11
0
 21
114.5
 72
    1
 10
0
 20
114.5
 11
0
 21
108
 72
    1
 10
0
 20
108
 11
11.5
 21
108
 97
    0
 75
    0
 76
    1
 52
0
 41
0.5
 77
    0
 78
    0
 98
    0
  0
HATCH
  5
97
100
AcDbEntity
  8
cegla_tr
  6
ByLayer
 62
  256
370
   -1
100
AcDbHatch
 10
0
 20
0
 30
0
210
0
220
0
230
1
  2
gost_ceramics
 70
    0
 71
    0
 91
    1
 92
    0
 93
    4
 72
    1
 10
-257.5
 20
73
 11
-165.5
 21
73
 72
    1
 10
-165.5
 20
73
 11
-165.5
 21
79.5
 72
    1
 10
-165.5
 20
79.5
 11
-257.5
 21
79.5
 72
    1
 10
-257.5
 20
79.5
 11
-257.5
 21
73
 97
    0
 75
    0
 76
    1
 52
0
 41
0.5
 77
    0
 78
    0
 98
    0
  0
HATCH
  5
98
100
AcDbEntity
  8
cegla_tr
  6
ByLayer
 62
  256
370
   -1
100
AcDbHatch
 10
0
 20
0
 30
0
210
0
220
0
230
1
  2
gost_ceramics
 70
    0
 71
    0
 91
    1
 92
    0
 93
    4
 72
    1
 10
-60
 20
76.5
 11
-152
 21
76.5
 72
    1
 10
-152
 20
76.5
 11
-152
 21
70
 72
    1
 10
-152
 20
70
 11
-60
 21
70
 72
    1
 10
-60
 20
70
 11
-60
 21
76.5
 97
    0
 75
    0
 76
    1
 52
0
 41
0.5
 77
    0
 78
    0
 98
    0
  0
HATCH
  5
99
100
AcDbEntity
  8
cegla_tr
  6
ByLayer
 62
  256
370
   -1
100
AcDbHatch
 10
0
 20
0
 30
0
210
0
220
0
230
1
  2
gost_ceramics
 70
    0
 71
    0
 91
    1
 92
    0
 93
    4
 72
    1
 10
80.50000000000003
 20
105
 11
92.00000000000003
 21
105
 72
    1
 10
92.00000000000003
 20
105
 11
92.00000000000003
 21
107.5
 72
    1
 10
92.00000000000003
 20
107.5
 11
80.50000000000003
 21
107.5
 72
    1
 10
80.50000000000003
 20
107.5
 11
80.50000000000003
 21
105
 97
    0
 75
    0
 76
    1
 52
0
 41
0.5
 77
    0
 78
    0
 98
    0
  0
HATCH
  5
9A
100
AcDbEntity
  8
cegla_tr
  6
ByLayer
 62
  256
370
   -1
100
AcDbHatch
 10
0
 20
0
 30
0
210
0
220
0
230
1
  2
gost_ceramics
 70
    0
 71
    0
 91
    1
 92
    0
 93
    4
 72
    1
 10
87.00000000000001
 20
63.00000000000001
 11
87.00000000000001
 21
69.50000000000001
 72
    1
 10
87.00000000000001
 20
69.50000000000001
 11
75.50000000000001
 21
69.50000000000001
 72
    1
 10
75.50000000000001
 20
69.50000000000001
 11
75.50000000000001
 21
63.00000000000001
 72
    1
 10
75.50000000000001
 20
63.00000000000001
 11
87.00000000000001
 21
63.00000000000001
 97
    0
 75
    0
 76
    1
 52
0
 41
0.5
 77
    0
 78
    0
 98
    0
  0
HATCH
  5
9B
100
AcDbEntity
  8
cegla_tr
  6
ByLayer
 62
  256
370
   -1
100
AcDbHatch
 10
0
 20
0
 30
0
210
0
220
0
230
1
  2
gost_ceramics
 70
    0
 71
    0
 91
    1
 92
    0
 93
    4
 72
    1
 10
80.50000000000001
 20
104.5
 11
80.50000000000001
 21
98.00000000000001
 72
    1
 10
80.50000000000001
 20
98.00000000000001
 11
92.00000000000001
 21
98.00000000000001
 72
    1
 10
92.00000000000001
 20
98.00000000000001
 11
92.00000000000001
 21
104.5
 72
    1
 10
92.00000000000001
 20
104.5
 11
80.50000000000001
 21
104.5
 97
    0
 75
    0
 76
    1
 52
0
 41
0.5
 77
    0
 78
    0
 98
    0
  0
HATCH
  5
9C
100
AcDbEntity
  8
cegla_tr
  6
ByLayer
 62
  256
370
   -1
100
AcDbHatch
 10
0
 20
0
 30
0
210
0
220
0
230
1
  2
gost_ceramics
 70
    0
 71
    0
 91
    1
 92
    0
 93
    4
 72
    1
 10
80.50000000000001
 20
97.50000000000001
 11
80.50000000000001
 21
91.00000000000001
 72
    1
 10
80.50000000000001
 20
91.00000000000001
 11
92.00000000000001
 21
91.00000000000001
 72
    1
 10
92.00000000000001
 20
91.00000000000001
 11
92.00000000000001
 21
97.50000000000001
 72
    1
 10
92.00000000000001
 20
97.50000000000001
 11
80.50000000000001
 21
97.50000000000001
 97
    0
 75
    0
 76
    1
 52
0
 41
0.5
 77
    0
 78
    0
 98
    0
  0
HATCH
  5
9D
100
AcDbEntity
  8
cegla_tr
  6
ByLayer
 62
  256
370
   -1
100
AcDbHatch
 10
0
 20
0
 30
0
210
0
220
0
230
1
  2
gost_ceramics
 70
    0
 71
    0
 91
    1
 92
    0
 93
    4
 72
    1
 10
80.50000000000001
 20
90.50000000000001
 11
80.50000000000001
 21
84.00000000000001
 72
    1
 10
80.50000000000001
 20
84.00000000000001
 11
92.00000000000001
 21
84.00000000000001
 72
    1
 10
92.00000000000001
 20
84.00000000000001
 11
92.00000000000001
 21
90.50000000000001
 72
    1
 10
92.00000000000001
 20
90.50000000000001
 11
80.50000000000001
 21
90.50000000000001
 97
    0
 75
    0
 76
    1
 52
0
 41
0.5
 77
    0
 78
    0
 98
    0
  0
HATCH
  5
9E
100
AcDbEntity
  8
cegla_tr
  6
ByLayer
 62
  256
370
   -1
100
AcDbHatch
 10
0
 20
0
 30
0
210
0
220
0
230
1
  2
gost_ceramics
 70
    0
 71
    0
 91
    1
 92
    0
 93
    4
 72
    1
 10
80.50000000000001
 20
83.50000000000001
 11
80.50000000000001
 21
77.00000000000001
 72
    1
 10
80.50000000000001
 20
77.00000000000001
 11
92.00000000000001
 21
77.00000000000001
 72
    1
 10
92.00000000000001
 20
77.00000000000001
 11
92.00000000000001
 21
83.50000000000001
 72
    1
 10
92.00000000000001
 20
83.50000000000001
 11
80.50000000000001
 21
83.50000000000001
 97
    0
 75
    0
 76
    1
 52
0
 41
0.5
 77
    0
 78
    0
 98
    0
  0
HATCH
  5
9F
100
AcDbEntity
  8
cegla_tr
  6
ByLayer
 62
  256
370
   -1
100
AcDbHatch
 10
0
 20
0
 30
0
210
0
220
0
230
1
  2
gost_ceramics
 70
    0
 71
    0
 91
    1
 92
    0
 93
    4
 72
    1
 10
92.00000000000001
 20
70.00000000000001
 11
92.00000000000001
 21
76.50000000000001
 72
    1
 10
92.00000000000001
 20
76.50000000000001
 11
80.50000000000001
 21
76.50000000000001
 72
    1
 10
80.50000000000001
 20
76.50000000000001
 11
80.50000000000001
 21
70.00000000000001
 72
    1
 10
80.50000000000001
 20
70.00000000000001
 11
92.00000000000001
 21
70.00000000000001
 97
    0
 75
    0
 76
    1
 52
0
 41
0.5
 77
    0
 78
    0
 98
    0
  0
HATCH
  5
A0
100
AcDbEntity
  8
cegla_tr
  6
ByLayer
 62
  256
370
   -1
100
AcDbHatch
 10
0
 20
0
 30
0
210
0
220
0
230
1
  2
gost_ceramics
 70
    0
 71
    0
 91
    1
 92
    0
 93
    4
 72
    1
 10
105.5
 20
111.5
 11
105.5
 21
105
 72
    1
 10
105.5
 20
105
 11
117
 21
105
 72
    1
 10
117
 20
105
 11
117
 21
111.5
 72
    1
 10
117
 20
111.5
 11
105.5
 21
111.5
 97
    0
 75
    0
 76
    1
 52
0
 41
0.5
 77
    0
 78
    0
 98
    0
  0
HATCH
  5
A1
100
AcDbEntity
  8
cegla_tr
  6
ByLayer
 62
  256
370
   -1
100
AcDbHatch
 10
0
 20
0
 30
0
210
0
220
0
230
1
  2
gost_ceramics
 70
    0
 71
    0
 91
    1
 92
    0
 93
    4
 72
    1
 10
0
 20
115
 11
6.5
 21
115
 72
    1
 10
6.5
 20
115
 11
6.5
 21
126.5
 72
    1
 10
6.5
 20
126.5
 11
0
 21
126.5
 72
    1
 10
0
 20
126.5
 11
0
 21
115
 97
    0
 75
    0
 76
    1
 52
0
 41
0.5
 77
    0
 78
    0
 98
    0
  0
HATCH
  5
A2
100
AcDbEntity
  8
cegla_tr
  6
ByLayer
 62
  256
370
   -1
100
AcDbHatch
 10
0
 20
0
 30
0
210
0
220
0
230
1
  2
gost_ceramics
 70
    0
 71
    0
 91
    1
 92
    0
 93
    4
 72
    1
 10
6.5
 20
81.5
 11
0
 21
81.5
 72
    1
 10
0
 20
81.5
 11
0
 21
70
 72
    1
 10
0
 20
70
 11
6.5
 21
70
 72
    1
 10
6.5
 20
70
 11
6.5
 21
81.5
 97
    0
 75
    0
 76
    1
 52
0
 41
0.5
 77
    0
 78
    0
 98
    0
  0
HATCH
  5
A3
100
AcDbEntity
  8
cegla_tr
  6
ByLayer
 62
  256
370
   -1
100
AcDbHatch
 10
0
 20
0
 30
0
210
0
220
0
230
1
  2
gost_ceramics
 70
    0
 71
    0
 91
    1
 92
    0
 93
    4
 72
    1
 10
0
 20
69.5
 11
0
 21
63
 72
    1
 10
0
 20
63
 11
11.5
 21
63
 72
    1
 10
11.5
 20
63
 11
11.5
 21
69.5
 72
    1
 10
11.5
 20
69.5
 11
0
 21
69.5
 97
    0
 75
    0
 76
    1
 52
0
 41
0.5
 77
    0
 78
    0
 98
    0
  0
HATCH
  5
A4
100
AcDbEntity
  8
cegla_tr
  6
ByLayer
 62
  256
370
   -1
100
AcDbHatch
 10
0
 20
0
 30
0
210
0
220
0
230
1
  2
gost_ceramics
 70
    0
 71
    0
 91
    1
 92
    0
 93
    4
 72
    1
 10
105.5
 20
76.5
 11
105.5
 21
70
 72
    1
 10
105.5
 20
70
 11
117
 21
70
 72
    1
 10
117
 20
70
 11
117
 21
76.5
 72
    1
 10
117
 20
76.5
 11
105.5
 21
76.5
 97
    0
 75
    0
 76
    1
 52
0
 41
0.5
 77
    0
 78
    0
 98
    0
  0
HATCH
  5
A5
100
AcDbEntity
  8
cegla_tr
  6
ByLayer
 62
  256
370
   -1
100
AcDbHatch
 10
0
 20
0
 30
0
210
0
220
0
230
1
  2
gost_ceramics
 70
    0
 71
    0
 91
    1
 92
    0
 93
    4
 72
    1
 10
105.5
 20
69.5
 11
105.5
 21
63
 72
    1
 10
105.5
 20
63
 11
117
 21
63
 72
    1
 10
117
 20
63
 11
117
 21
69.5
 72
    1
 10
117
 20
69.5
 11
105.5
 21
69.5
 97
    0
 75
    0
 76
    1
 52
0
 41
0.5
 77
    0
 78
    0
 98
    0
  0
HATCH
  5
A6
100
AcDbEntity
  8
cegla_tr
  6
ByLayer
 62
  256
370
   -1
100
AcDbHatch
 10
0
 20
0
 30
0
210
0
220
0
230
1
  2
gost_ceramics
 70
    0
 71
    0
 91
    1
 92
    0
 93
    4
 72
    1
 10
117
 20
56
 11
117
 21
62.5
 72
    1
 10
117
 20
62.5
 11
105.5
 21
62.5
 72
    1
 10
105.5
 20
62.5
 11
105.5
 21
56
 72
    1
 10
105.5
 20
56
 11
117
 21
56
 97
    0
 75
    0
 76
    1
 52
0
 41
0.5
 77
    0
 78
    0
 98
    0
  0
HATCH
  5
A7
100
AcDbEntity
  8
cegla_tr
  6
ByLayer
 62
  256
370
   -1
100
AcDbHatch
 10
0
 20
0
 30
0
210
0
220
0
230
1
  2
gost_ceramics
 70
    0
 71
    0
 91
    1
 92
    0
 93
    4
 72
    1
 10
117
 20
77
 11
117
 21
83.5
 72
    1
 10
117
 20
83.5
 11
105.5
 21
83.5
 72
    1
 10
105.5
 20
83.5
 11
105.5
 21
77
 72
    1
 10
105.5
 20
77
 11
117
 21
77
 97
    0
 75
    0
 76
    1
 52
0
 41
0.5
 77
    0
 78
    0
 98
    0
  0
HATCH
  5
A8
100
AcDbEntity
  8
cegla_tr
  6
ByLayer
 62
  256
370
   -1
100
AcDbHatch
 10
0
 20
0
 30
0
210
0
220
0
230
1
  2
gost_ceramics
 70
    0
 71
    0
 91
    1
 92
    0
 93
    4
 72
    1
 10
117
 20
84
 11
117
 21
90.5
 72
    1
 10
117
 20
90.5
 11
105.5
 21
90.5
 72
    1
 10
105.5
 20
90.5
 11
105.5
 21
84
 72
    1
 10
105.5
 20
84
 11
117
 21
84
 97
    0
 75
    0
 76
    1
 52
0
 41
0.5
 77
    0
 78
    0
 98
    0
  0
HATCH
  5
A9
100
AcDbEntity
  8
cegla_tr
  6
ByLayer
 62
  256
370
   -1
100
AcDbHatch
 10
0
 20
0
 30
0
210
0
220
0
230
1
  2
gost_ceramics
 70
    0
 71
    0
 91
    1
 92
    0
 93
    4
 72
    1
 10
117
 20
91
 11
117
 21
97.5
 72
    1
 10
117
 20
97.5
 11
105.5
 21
97.5
 72
    1
 10
105.5
 20
97.5
 11
105.5
 21
91
 72
    1
 10
105.5
 20
91
 11
117
 21
91
 97
    0
 75
    0
 76
    1
 52
0
 41
0.5
 77
    0
 78
    0
 98
    0
  0
HATCH
  5
AA
100
AcDbEntity
  8
cegla_tr
  6
ByLayer
 62
  256
370
   -1
100
AcDbHatch
 10
0
 20
0
 30
0
210
0
220
0
230
1
  2
gost_ceramics
 70
    0
 71
    0
 91
    1
 92
    0
 93
    4
 72
    1
 10
117
 20
98
 11
117
 21
104.5
 72
    1
 10
117
 20
104.5
 11
105.5
 21
104.5
 72
    1
 10
105.5
 20
104.5
 11
105.5
 21
98
 72
    1
 10
105.5
 20
98
 11
117
 21
98
 97
    0
 75
    0
 76
    1
 52
0
 41
0.5
 77
    0
 78
    0
 98
    0
  0
HATCH
  5
AB
100
AcDbEntity
  8
cegla_zv
  6
ByLayer
 62
  256
370
   -1
100
AcDbHatch
 10
0
 20
0
 30
0
210
0
220
0
230
1
  2
gost_stone
 70
    0
 71
    0
 91
    1
 92
    0
 93
    4
 72
    1
 10
6.5
 20
94.5
 11
0
 21
94.5
 72
    1
 10
0
 20
94.5
 11
0
 21
82
 72
    1
 10
0
 20
82
 11
6.5
 21
82
 72
    1
 10
6.5
 20
82
 11
6.5
 21
94.5
 97
    0
 75
    0
 76
    1
 52
1.570796326794897
 41
0.5
 77
    0
 78
    0
 98
    0
  0
HATCH
  5
AC
100
AcDbEntity
  8
cegla_zv
  6
ByLayer
 62
  256
370
   -1
100
AcDbHatch
 10
0
 20
0
 30
0
210
0
220
0
230
1
  2
gost_stone
 70
    0
 71
    0
 91
    1
 92
    0
 93
    4
 72
    1
 10
6.5
 20
107.5
 11
0
 21
107.5
 72
    1
 10
0
 20
107.5
 11
0
 21
95
 72
    1
 10
0
 20
95
 11
6.5
 21
95
 72
    1
 10
6.5
 20
95
 11
6.5
 21
107.5
 97
    0
 75
    0
 76
    1
 52
1.570796326794897
 41
0.5
 77
    0
 78
    0
 98
    0
  0
HATCH
  5
AD
100
AcDbEntity
  8
cegla_tr
  6
ByLayer
 62
  256
370
   -1
100
AcDbHatch
 10
0
 20
0
 30
0
210
0
220
0
230
1
  2
gost_ceramics
 70
    0
 71
    0
 91
    1
 92
    0
 93
    4
 72
    1
 10
105.5
 20
48.5
 11
105.5
 21
42
 72
    1
 10
105.5
 20
42
 11
117
 21
42
 72
    1
 10
117
 20
42
 11
117
 21
48.5
 72
    1
 10
117
 20
48.5
 11
105.5
 21
48.5
 97
    0
 75
    0
 76
    1
 52
0
 41
0.5
 77
    0
 78
    0
 98
    0
  0
HATCH
  5
AE
100
AcDbEntity
  8
cegla_tr
  6
ByLayer
 62
  256
370
   -1
100
AcDbHatch
 10
0
 20
0
 30
0
210
0
220
0
230
1
  2
gost_ceramics
 70
    0
 71
    0
 91
    1
 92
    0
 93
    4
 72
    1
 10
117
 20
49
 11
117
 21
55.5
 72
    1
 10
117
 20
55.5
 11
105.5
 21
55.5
 72
    1
 10
105.5
 20
55.5
 11
105.5
 21
49
 72
    1
 10
105.5
 20
49
 11
117
 21
49
 97
    0
 75
    0
 76
    1
 52
0
 41
0.5
 77
    0
 78
    0
 98
    0
  0
HATCH
  5
AF
100
AcDbEntity
  8
cegla_tr
  6
ByLayer
 62
  256
370
   -1
100
AcDbHatch
 10
0
 20
0
 30
0
210
0
220
0
230
1
  2
gost_ceramics
 70
    0
 71
    0
 91
    1
 92
    0
 93
    4
 72
    1
 10
11.50000000000001
 20
27.89999999999999
 11
11.50000000000001
 21
34.4
 72
    1
 10
11.50000000000001
 20
34.4
 11
1.412758798835512e-14
 21
34.4
 72
    1
 10
1.412758798835512e-14
 20
34.4
 11
1.412758798835512e-14
 21
27.9
 72
    1
 10
1.412758798835512e-14
 20
27.9
 11
11.50000000000001
 21
27.89999999999999
 97
    0
 75
    0
 76
    1
 52
0
 41
0.5
 77
    0
 78
    0
 98
    0
  0
HATCH
  5
B0
100
AcDbEntity
  8
cegla_tr
  6
ByLayer
 62
  256
370
   -1
100
AcDbHatch
 10
0
 20
0
 30
0
210
0
220
0
230
1
  2
gost_ceramics
 70
    0
 71
    0
 91
    1
 92
    0
 93
    6
 72
    1
 10
117
 20
35.1
 11
41.5
 21
35.09999999999999
 72
    1
 10
41.5
 20
35.09999999999999
 11
41.5
 21
39.59999999999999
 72
    1
 10
41.5
 20
39.59999999999999
 11
44.5
 21
39.59999999999999
 72
    1
 10
44.5
 20
39.59999999999999
 11
44.5
 21
41.59999999999999
 72
    1
 10
44.5
 20
41.59999999999999
 11
117
 21
41.59999999999999
 72
    1
 10
117
 20
41.59999999999999
 11
117
 21
35.1
 97
    0
 75
    0
 76
    1
 52
0
 41
0.5
 77
    0
 78
    0
 98
    0
  0
HATCH
  5
B1
100
AcDbEntity
  8
cegla_tr
  6
ByLayer
 62
  256
370
   -1
100
AcDbHatch
 10
0
 20
0
 30
0
210
0
220
0
230
1
  2
gost_ceramics
 70
    0
 71
    0
 91
    1
 92
    0
 93
    6
 72
    1
 10
11.5
 20
35
 11
-2.498001805406602e-16
 21
35
 72
    1
 10
-2.498001805406602e-16
 20
35
 11
-2.498001805406602e-16
 21
41.5
 72
    1
 10
-2.498001805406602e-16
 20
41.5
 11
8.5
 21
41.5
 72
    1
 10
8.5
 20
41.5
 11
8.5
 21
39.59999999999999
 72
    1
 10
8.5
 20
39.59999999999999
 11
11.5
 21
39.59999999999999
 72
    1
 10
11.5
 20
39.59999999999999
 11
11.5
 21
35
 97
    0
 75
    0
 76
    1
 52
0
 41
0.5
 77
    0
 78
    0
 98
    0
  0
HATCH
  5
B2
100
AcDbEntity
  8
cegla_zv
  6
ByLayer
 62
  256
370
   -1
100
AcDbHatch
 10
0
 20
0
 30
0
210
0
220
0
230
1
  2
gost_stone
 70
    0
 71
    0
 91
    1
 92
    0
 93
    4
 72
    1
 10
117
 20
34.49999999999999
 11
41.5
 21
34.49999999999999
 72
    1
 10
41.5
 20
34.49999999999999
 11
41.5
 21
28
 72
    1
 10
41.5
 20
28
 11
117
 21
28
 72
    1
 10
117
 20
28
 11
117
 21
34.49999999999999
 97
    0
 75
    0
 76
    1
 52
1.570796326794897
 41
0.5
 77
    0
 78
    0
 98
    0
  0
HATCH
  5
B3
100
AcDbEntity
  8
cegla_zv
  6
ByLayer
 62
  256
370
   -1
100
AcDbHatch
 10
0
 20
0
 30
0
210
0
220
0
230
1
  2
gost_stone
 70
    0
 71
    0
 91
    1
 92
    0
 93
    4
 72
    1
 10
41.5
 20
21
 11
117
 21
21
 72
    1
 10
117
 20
21
 11
117
 21
27.49999999999999
 72
    1
 10
117
 20
27.49999999999999
 11
41.5
 21
27.49999999999999
 72
    1
 10
41.5
 20
27.49999999999999
 11
41.5
 21
21
 97
    0
 75
    0
 76
    1
 52
1.570796326794897
 41
0.5
 77
    0
 78
    0
 98
    0
  0
HATCH
  5
B4
100
AcDbEntity
  8
cegla_zv
  6
ByLayer
 62
  256
370
   -1
100
AcDbHatch
 10
0
 20
0
 30
0
210
0
220
0
230
1
  2
gost_stone
 70
    0
 71
    0
 91
    1
 92
    0
 93
    4
 72
    1
 10
117
 20
6.999999999999993
 11
117
 21
13.49999999999999
 72
    1
 10
117
 20
13.49999999999999
 11
0
 21
13.5
 72
    1
 10
0
 20
13.5
 11
0
 21
7.000000000000007
 72
    1
 10
0
 20
7.000000000000007
 11
117
 21
6.999999999999993
 97
    0
 75
    0
 76
    1
 52
1.570796326794897
 41
0.5
 77
    0
 78
    0
 98
    0
  0
HATCH
  5
B5
100
AcDbEntity
  8
cegla_zv
  6
ByLayer
 62
  256
370
   -1
100
AcDbHatch
 10
0
 20
0
 30
0
210
0
220
0
230
1
  2
gost_stone
 70
    0
 71
    0
 91
    1
 92
    0
 93
    4
 72
    1
 10
117
 20
-7.105427357601002e-15
 11
117
 21
6.499999999999993
 72
    1
 10
117
 20
6.499999999999993
 11
0
 21
6.5
 72
    1
 10
0
 20
6.5
 11
0
 21
7.105427357601002e-15
 72
    1
 10
0
 20
7.105427357601002e-15
 11
117
 21
-7.105427357601002e-15
 97
    0
 75
    0
 76
    1
 52
1.570796326794897
 41
0.5
 77
    0
 78
    0
 98
    0
  0
HATCH
  5
B6
100
AcDbEntity
  8
cegla_zv
  6
ByLayer
 62
  256
370
   -1
100
AcDbHatch
 10
0
 20
0
 30
0
210
0
220
0
230
1
  2
gost_stone
 70
    0
 71
    0
 91
    1
 92
    0
 93
    4
 72
    1
 10
41.5
 20
20.49999999999999
 11
41.5
 21
14
 72
    1
 10
41.5
 20
14
 11
117
 21
14
 72
    1
 10
117
 20
14
 11
117
 21
20.49999999999999
 72
    1
 10
117
 20
20.49999999999999
 11
41.5
 21
20.49999999999999
 97
    0
 75
    0
 76
    1
 52
1.570796326794897
 41
0.5
 77
    0
 78
    0
 98
    0
  0
LWPOLYLINE
  5
B7
100
AcDbEntity
  8
cegla_tr
  6
ByLayer
 62
  256
370
   -1
100
AcDbPolyline
 90
    4
 70
    1
 43
0
 10
-100
 20
40
 10
-77
 20
40
 10
-77
 20
51.5
 10
-100
 20
51.5
  0
LWPOLYLINE
  5
B8
100
AcDbEntity
  8
cegla_zv
  6
ByLayer
 62
  256
370
   -1
100
AcDbPolyline
 90
    4
 70
    1
 43
0
 10
-100
 20
10
 10
-75
 20
10
 10
-75
 20
22.5
 10
-100
 20
22.5
  0
LWPOLYLINE
  5
B9
100
AcDbEntity
  8
cegla_tr
  6
ByLayer
 62
  256
370
   -1
100
AcDbPolyline
 90
    4
 70
    1
 43
0
 10
-100
 20
30
 10
-77
 20
30
 10
-77
 20
36.5
 10
-100
 20
36.5
  0
LWPOLYLINE
  5
BA
100
AcDbEntity
  8
cegla_zv
  6
ByLayer
 62
  256
370
   -1
100
AcDbPolyline
 90
    4
 70
    1
 43
0
 10
-70
 20
10
 10
-63.5
 20
10
 10
-63.5
 20
22.5
 10
-70
 20
22.5
  0
LWPOLYLINE
  5
BB
100
AcDbEntity
  8
cegla_tr
  6
ByLayer
 62
  256
370
   -1
100
AcDbPolyline
 90
    4
 70
    1
 43
0
 10
-70
 20
40
 10
-63.5
 20
40
 10
-63.5
 20
51.5
 10
-70
 20
51.5
  0
LWPOLYLINE
  5
BC
100
AcDbEntity
  8
cegla_zv
  6
ByLayer
 62
  256
370
   -1
100
AcDbPolyline
 90
    4
 70
    1
 43
0
 10
-100
 20
0
 10
-75
 20
0
 10
-75
 20
6.499999999999993
 10
-100
 20
6.499999999999993
  0
LWPOLYLINE
  5
BD
100
AcDbEntity
  8
cegla_tr
  6
ByLayer
 62
  256
370
   -1
100
AcDbPolyline
 90
    4
 70
    1
 43
0
 10
0
 20
70
 10
6.5
 20
70
 10
6.5
 20
81.5
 10
0
 20
81.5
  0
LWPOLYLINE
  5
BE
100
AcDbEntity
  8
cegla_zv
  6
ByLayer
 62
  256
370
   -1
100
AcDbPolyline
 90
    4
 70
    1
 43
0
 10
0
 20
82
 10
6.5
 20
82
 10
6.5
 20
94.5
 10
0
 20
94.5
  0
LWPOLYLINE
  5
BF
100
AcDbEntity
  8
cegla_zv
  6
ByLayer
 62
  256
370
   -1
100
AcDbPolyline
 90
    4
 70
    1
 43
0
 10
0
 20
95
 10
6.5
 20
95
 10
6.5
 20
107.5
 10
0
 20
107.5
  0
LWPOLYLINE
  5
C0
100
AcDbEntity
  8
cegla_tr
  6
ByLayer
 62
  256
370
   -1
100
AcDbPolyline
 90
    4
 70
    1
 43
0
 10
117
 20
70
 10
117
 20
76.5
 10
105.5
 20
76.5
 10
105.5
 20
70
  0
LWPOLYLINE
  5
C1
100
AcDbEntity
  8
cegla_tr
  6
ByLayer
 62
  256
370
   -1
100
AcDbPolyline
 90
    4
 70
    1
 43
0
 10
11.5
 20
63
 10
11.5
 20
69.5
 10
0
 20
69.5
 10
0
 20
63
  0
LWPOLYLINE
  5
C2
100
AcDbEntity
  8
cegla_tr
  6
ByLayer
 62
  256
370
   -1
100
AcDbPolyline
 90
    4
 70
    1
 43
0
 10
117
 20
63
 10
117
 20
69.5
 10
105.5
 20
69.5
 10
105.5
 20
63
  0
LWPOLYLINE
  5
C3
100
AcDbEntity
  8
cegla_tr
  6
ByLayer
 62
  256
370
   -1
100
AcDbPolyline
 90
    4
 70
    1
 43
0
 10
117
 20
56
 10
117
 20
62.5
 10
105.5
 20
62.5
 10
105.5
 20
56
  0
LWPOLYLINE
  5
C4
100
AcDbEntity
  8
cegla_tr
  6
ByLayer
 62
  256
370
   -1
100
AcDbPolyline
 90
    4
 70
    1
 43
0
 10
117
 20
77
 10
117
 20
83.5
 10
105.5
 20
83.5
 10
105.5
 20
77
  0
LWPOLYLINE
  5
C5
100
AcDbEntity
  8
cegla_tr
  6
ByLayer
 62
  256
370
   -1
100
AcDbPolyline
 90
    4
 70
    1
 43
0
 10
117
 20
84
 10
117
 20
90.5
 10
105.5
 20
90.5
 10
105.5
 20
84
  0
LWPOLYLINE
  5
C6
100
AcDbEntity
  8
cegla_tr
  6
ByLayer
 62
  256
370
   -1
100
AcDbPolyline
 90
    4
 70
    1
 43
0
 10
117
 20
91
 10
117
 20
97.5
 10
105.5
 20
97.5
 10
105.5
 20
91
  0
LWPOLYLINE
  5
C7
100
AcDbEntity
  8
cegla_tr
  6
ByLayer
 62
  256
370
   -1
100
AcDbPolyline
 90
    4
 70
    1
 43
0
 10
117
 20
98
 10
117
 20
104.5
 10
105.5
 20
104.5
 10
105.5
 20
98
  0
LWPOLYLINE
  5
C8
100
AcDbEntity
  8
cegla_tr
  6
ByLayer
 62
  256
370
   -1
100
AcDbPolyline
 90
    4
 70
    1
 43
0
 10
117
 20
49
 10
117
 20
55.5
 10
105.5
 20
55.5
 10
105.5
 20
49
  0
LWPOLYLINE
  5
C9
100
AcDbEntity
  8
cegla_tr
  6
ByLayer
 62
  256
370
   -1
100
AcDbPolyline
 90
    4
 70
    1
 43
0
 10
117
 20
42
 10
117
 20
48.5
 10
105.5
 20
48.5
 10
105.5
 20
42
  0
LINE
  5
CA
100
AcDbEntity
  8
0
  6
ByLayer
 62
  256
370
   -1
100
AcDbLine
 10
105.5
 20
42
 11
117
 21
42
  0
LWPOLYLINE
  5
CB
100
AcDbEntity
  8
cegla_tr
  6
ByLayer
 62
  256
370
   -1
100
AcDbPolyline
 90
    4
 70
    1
 43
0
 10
11.50000000000001
 20
27.89999999999999
 10
11.50000000000001
 20
34.4
 10
1.412758798835512e-14
 20
34.4
 10
1.412758798835512e-14
 20
27.9
  0
LWPOLYLINE
  5
CC
100
AcDbEntity
  8
cegla_tr
  6
ByLayer
 62
  256
370
   -1
100
AcDbPolyline
 90
    7
 70
    0
 43
0
 10
-2.498001805406602e-16
 20
41.5
 10
8.5
 20
41.5
 10
8.5
 20
39.59999999999999
 10
11.5
 20
39.59999999999999
 10
11.5
 20
35
 10
-2.498001805406602e-16
 20
35
 10
-2.498001805406602e-16
 20
41.5
  0
LWPOLYLINE
  5
CD
100
AcDbEntity
  8
metal
  6
ByLayer
 62
  256
370
   -1
100
AcDbPolyline
 90
    4
 70
    1
 43
0
 10
9
 20
39.6
 10
44.00000000000001
 20
39.6
 10
44.00000000000001
 20
41.59999999999999
 10
9
 20
41.59999999999999
  0
LWPOLYLINE
  5
CE
100
AcDbEntity
  8
cegla_tr
  6
ByLayer
 62
  256
370
   -1
100
AcDbPolyline
 90
    7
 70
    0
 43
0
 10
41.5
 20
39.59999999999999
 10
44.5
 20
39.59999999999999
 10
44.5
 20
41.59999999999999
 10
117
 20
41.59999999999999
 10
117
 20
35.1
 10
41.5
 20
35.09999999999999
 10
41.5
 20
39.59999999999999
  0
LWPOLYLINE
  5
CF
100
AcDbEntity
  8
cegla_zv
  6
ByLayer
 62
  256
370
   -1
100
AcDbPolyline
 90
    4
 70
    1
 43
0
 10
41.5
 20
28
 10
117
 20
28
 10
117
 20
34.49999999999999
 10
41.5
 20
34.49999999999999
  0
LWPOLYLINE
  5
D0
100
AcDbEntity
  8
cegla_zv
  6
ByLayer
 62
  256
370
   -1
100
AcDbPolyline
 90
    4
 70
    1
 43
0
 10
41.5
 20
21
 10
117
 20
21
 10
117
 20
27.49999999999999
 10
41.5
 20
27.49999999999999
  0
LWPOLYLINE
  5
D1
100
AcDbEntity
  8
cegla_zv
  6
ByLayer
 62
  256
370
   -1
100
AcDbPolyline
 90
    4
 70
    1
 43
0
 10
41.5
 20
14
 10
117
 20
14
 10
117
 20
20.49999999999999
 10
41.5
 20
20.49999999999999
  0
LWPOLYLINE
  5
D2
100
AcDbEntity
  8
cegla_zv
  6
ByLayer
 62
  256
370
   -1
100
AcDbPolyline
 90
    4
 70
    1
 43
0
 10
0
 20
7.000000000000007
 10
117
 20
6.999999999999993
 10
117
 20
13.49999999999999
 10
0
 20
13.5
  0
LWPOLYLINE
  5
D3
100
AcDbEntity
  8
cegla_zv
  6
ByLayer
 62
  256
370
   -1
100
AcDbPolyline
 90
    4
 70
    1
 43
0
 10
0
 20
7.105427357601002e-15
 10
117
 20
-7.105427357601002e-15
 10
117
 20
6.499999999999993
 10
0
 20
6.5
  0
LINE
  5
D4
100
AcDbEntity
  8
cegla_zv
  6
ByLayer
 62
  256
370
   -1
100
AcDbLine
 10
0
 20
28
 11
0
 21
13.5
  0
LINE
  5
D5
100
AcDbEntity
  8
cegla_zv
  6
ByLayer
 62
  256
370
   -1
100
AcDbLine
 10
11.50000000000001
 20
27.89999999999999
 11
11.5
 21
13.49999999999999
  0
LINE
  5
D6
100
AcDbEntity
  8
cegla_tr
  6
ByLayer
 62
  256
370
   -1
100
AcDbLine
 10
0
 20
63
 11
-2.498001805406602e-16
 21
41.5
  0
LINE
  5
D7
100
AcDbEntity
  8
cegla_tr
  6
ByLayer
 62
  256
370
   -1
100
AcDbLine
 10
11.5
 20
63
 11
11.5
 21
41.6
  0
LWPOLYLINE
  5
D8
100
AcDbEntity
  8
cegla_tr
  6
ByLayer
 62
  256
370
   -1
100
AcDbPolyline
 90
    4
 70
    1
 43
0
 10
0
 20
-17
 10
23
 20
-17
 10
23
 20
-10.5
 10
0
 20
-10.5
  0
LWPOLYLINE
  5
D9
100
AcDbEntity
  8
cegla_tr
  6
ByLayer
 62
  256
370
   -1
100
AcDbPolyline
 90
    4
 70
    1
 43
0
 10
23.5
 20
-17
 10
46.5
 20
-17
 10
46.5
 20
-10.5
 10
23.5
 20
-10.5
  0
LWPOLYLINE
  5
DA
100
AcDbEntity
  8
cegla_tr
  6
ByLayer
 62
  256
370
   -1
100
AcDbPolyline
 90
    4
 70
    1
 43
0
 10
47
 20
-17
 10
70
 20
-17
 10
70
 20
-10.5
 10
47
 20
-10.5
  0
LWPOLYLINE
  5
DB
100
AcDbEntity
  8
cegla_tr
  6
ByLayer
 62
  256
370
   -1
100
AcDbPolyline
 90
    4
 70
    1
 43
0
 10
70.5
 20
-17
 10
93.5
 20
-17
 10
93.5
 20
-10.5
 10
70.5
 20
-10.5
  0
LWPOLYLINE
  5
DC
100
AcDbEntity
  8
cegla_tr
  6
ByLayer
 62
  256
370
   -1
100
AcDbPolyline
 90
    4
 70
    1
 43
0
 10
94
 20
-17
 10
117
 20
-17
 10
117
 20
-10.5
 10
94
 20
-10.5
  0
LWPOLYLINE
  5
DD
100
AcDbEntity
  8
cegla_tr
  6
ByLayer
 62
  256
370
   -1
100
AcDbPolyline
 90
    4
 70
    1
 43
0
 10
0
 20
115
 10
6.5
 20
115
 10
6.5
 20
126.5
 10
0
 20
126.5
  0
LWPOLYLINE
  5
DE
100
AcDbEntity
  8
cegla_tr
  6
ByLayer
 62
  256
370
   -1
100
AcDbPolyline
 90
    4
 70
    1
 43
0
 10
117
 20
105
 10
117
 20
111.5
 10
105.5
 20
111.5
 10
105.5
 20
105
  0
LWPOLYLINE
  5
DF
100
AcDbEntity
  8
metal
  6
ByLayer
 62
  256
370
   -1
100
AcDbPolyline
 90
    4
 70
    1
 43
0
 10
8.500000000000002
 20
70
 10
78.50000000000001
 20
70
 10
78.50000000000001
 20
70.8
 10
8.500000000000002
 20
70.8
  0
LWPOLYLINE
  5
E0
100
AcDbEntity
  8
cegla_tr
  6
ByLayer
 62
  256
370
   -1
100
AcDbPolyline
 90
    4
 70
    1
 43
0
 10
92.00000000000001
 20
70.00000000000001
 10
92.00000000000001
 20
76.50000000000001
 10
80.50000000000001
 20
76.50000000000001
 10
80.50000000000001
 20
70.00000000000001
  0
LWPOLYLINE
  5
E1
100
AcDbEntity
  8
cegla_tr
  6
ByLayer
 62
  256
370
   -1
100
AcDbPolyline
 90
    4
 70
    1
 43
0
 10
92.00000000000001
 20
77.00000000000001
 10
92.00000000000001
 20
83.50000000000001
 10
80.50000000000001
 20
83.50000000000001
 10
80.50000000000001
 20
77.00000000000001
  0
LWPOLYLINE
  5
E2
100
AcDbEntity
  8
cegla_tr
  6
ByLayer
 62
  256
370
   -1
100
AcDbPolyline
 90
    4
 70
    1
 43
0
 10
92.00000000000001
 20
84.00000000000001
 10
92.00000000000001
 20
90.50000000000001
 10
80.50000000000001
 20
90.50000000000001
 10
80.50000000000001
 20
84.00000000000001
  0
LWPOLYLINE
  5
E3
100
AcDbEntity
  8
cegla_tr
  6
ByLayer
 62
  256
370
   -1
100
AcDbPolyline
 90
    4
 70
    1
 43
0
 10
92.00000000000001
 20
91.00000000000001
 10
92.00000000000001
 20
97.50000000000001
 10
80.50000000000001
 20
97.50000000000001
 10
80.50000000000001
 20
91.00000000000001
  0
LWPOLYLINE
  5
E4
100
AcDbEntity
  8
cegla_tr
  6
ByLayer
 62
  256
370
   -1
100
AcDbPolyline
 90
    4
 70
    1
 43
0
 10
92.00000000000001
 20
98.00000000000001
 10
92.00000000000001
 20
104.5
 10
80.50000000000001
 20
104.5
 10
80.50000000000001
 20
98.00000000000001
  0
LWPOLYLINE
  5
E5
100
AcDbEntity
  8
cegla_tr
  6
ByLayer
 62
  256
370
   -1
100
AcDbPolyline
 90
    4
 70
    1
 43
0
 10
92.00000000000003
 20
105
 10
92.00000000000003
 20
107.5
 10
80.50000000000003
 20
107.5
 10
80.50000000000003
 20
105
  0
LWPOLYLINE
  5
E6
100
AcDbEntity
  8
cegla_tr
  6
ByLayer
 62
  256
370
   -1
100
AcDbPolyline
 90
    4
 70
    1
 43
0
 10
87.00000000000001
 20
63.00000000000001
 10
87.00000000000001
 20
69.50000000000001
 10
75.50000000000001
 20
69.50000000000001
 10
75.50000000000001
 20
63.00000000000001
  0
LWPOLYLINE
  5
E7
100
AcDbEntity
  8
cegla_tr
  6
ByLayer
 62
  256
370
   -1
100
AcDbPolyline
 90
    4
 70
    1
 43
0
 10
117
 20
-53
 10
117
 20
-30
 10
105.5
 20
-30
 10
105.5
 20
-53
  0
LWPOLYLINE
  5
E8
100
AcDbEntity
  8
cegla_tr
  6
ByLayer
 62
  256
370
   -1
100
AcDbPolyline
 90
    4
 70
    1
 43
0
 10
117
 20
-76.5
 10
117
 20
-53.50000000000001
 10
105.5
 20
-53.50000000000001
 10
105.5
 20
-76.5
  0
LWPOLYLINE
  5
E9
100
AcDbEntity
  8
cegla_tr
  6
ByLayer
 62
  256
370
   -1
100
AcDbPolyline
 90
    4
 70
    1
 43
0
 10
11.5
 20
-53
 10
11.5
 20
-30
 10
0
 20
-30
 10
0
 20
-53
  0
LWPOLYLINE
  5
EA
100
AcDbEntity
  8
cegla_tr
  6
ByLayer
 62
  256
370
   -1
100
AcDbPolyline
 90
    4
 70
    1
 43
0
 10
11.50000000000001
 20
-76.5
 10
11.50000000000001
 20
-53.50000000000001
 10
1.4210854715202e-14
 20
-53.50000000000001
 10
1.4210854715202e-14
 20
-76.5
  0
LWPOLYLINE
  5
EB
100
AcDbEntity
  8
cegla_tr
  6
ByLayer
 62
  256
370
   -1
100
AcDbPolyline
 90
    4
 70
    1
 43
0
 10
11.9
 20
-41.50000000000001
 10
34.9
 20
-41.50000000000001
 10
34.9
 20
-30.00000000000001
 10
11.9
 20
-30.00000000000001
  0
LWPOLYLINE
  5
EC
100
AcDbEntity
  8
cegla_tr
  6
ByLayer
 62
  256
370
   -1
100
AcDbPolyline
 90
    4
 70
    1
 43
0
 10
35.3
 20
-41.50000000000001
 10
58.3
 20
-41.50000000000001
 10
58.3
 20
-30.00000000000001
 10
35.3
 20
-30.00000000000001
  0
LWPOLYLINE
  5
ED
100
AcDbEntity
  8
cegla_tr
  6
ByLayer
 62
  256
370
   -1
100
AcDbPolyline
 90
    4
 70
    1
 43
0
 10
58.7
 20
-41.50000000000001
 10
81.7
 20
-41.50000000000001
 10
81.7
 20
-30.00000000000001
 10
58.7
 20
-30.00000000000001
  0
LWPOLYLINE
  5
EE
100
AcDbEntity
  8
cegla_tr
  6
ByLayer
 62
  256
370
   -1
100
AcDbPolyline
 90
    4
 70
    1
 43
0
 10
82.09999999999999
 20
-41.5
 10
105.1
 20
-41.5
 10
105.1
 20
-30
 10
82.09999999999999
 20
-30
  0
LWPOLYLINE
  5
EF
100
AcDbEntity
  8
cegla_tr
  6
ByLayer
 62
  256
370
   -1
100
AcDbPolyline
 90
    4
 70
    1
 43
0
 10
11.9
 20
-76.5
 10
34.9
 20
-76.5
 10
34.9
 20
-65
 10
11.9
 20
-65
  0
LWPOLYLINE
  5
F0
100
AcDbEntity
  8
cegla_tr
  6
ByLayer
 62
  256
370
   -1
100
AcDbPolyline
 90
    4
 70
    1
 43
0
 10
35.3
 20
-76.5
 10
58.3
 20
-76.5
 10
58.3
 20
-65
 10
35.3
 20
-65
  0
LWPOLYLINE
  5
F1
100
AcDbEntity
  8
cegla_tr
  6
ByLayer
 62
  256
370
   -1
100
AcDbPolyline
 90
    4
 70
    1
 43
0
 10
58.7
 20
-76.5
 10
81.7
 20
-76.5
 10
81.7
 20
-65
 10
58.7
 20
-65
  0
LWPOLYLINE
  5
F2
100
AcDbEntity
  8
cegla_tr
  6
ByLayer
 62
  256
370
   -1
100
AcDbPolyline
 90
    4
 70
    1
 43
0
 10
82.09999999999999
 20
-76.5
 10
105.1
 20
-76.5
 10
105.1
 20
-65
 10
82.09999999999999
 20
-65
  0
LINE
  5
F3
100
AcDbEntity
  8
stelia
  6
ByLayer
 62
  256
370
   -1
100
AcDbLine
 10
-20
 20
285
 11
200
 21
285
  0
LWPOLYLINE
  5
F4
100
AcDbEntity
  8
cegla_tr
  6
ByLayer
 62
  256
370
   -1
100
AcDbPolyline
 90
    4
 70
    1
 43
0
 10
-152
 20
70
 10
-60
 20
70
 10
-60
 20
76.5
 10
-152
 20
76.5
  0
LWPOLYLINE
  5
F5
100
AcDbEntity
  8
cegla_tr
  6
ByLayer
 62
  256
370
   -1
100
AcDbPolyline
 90
    4
 70
    1
 43
0
 10
11.5
 20
108
 10
11.5
 20
114.5
 10
0
 20
114.5
 10
0
 20
108
  0
LWPOLYLINE
  5
F6
100
AcDbEntity
  8
cegla_tr
  6
ByLayer
 62
  256
370
   -1
100
AcDbPolyline
 90
    4
 70
    1
 43
0
 10
-257.5
 20
73
 10
-165.5
 20
73
 10
-165.5
 20
79.5
 10
-257.5
 20
79.5
  0
LWPOLYLINE
  5
F7
100
AcDbEntity
  8
cegla_tr
  6
ByLayer
 62
  256
370
   -1
100
AcDbPolyline
 90
    4
 70
    1
 43
0
 10
23.5
 20
108
 10
23.5
 20
114.5
 10
12
 20
114.5
 10
12
 20
108
  0
LWPOLYLINE
  5
F8
100
AcDbEntity
  8
cegla_tr
  6
ByLayer
 62
  256
370
   -1
100
AcDbPolyline
 90
    4
 70
    1
 43
0
 10
-245.5
 20
73
 10
-153.5
 20
73
 10
-153.5
 20
79.5
 10
-245.5
 20
79.5
  0
LWPOLYLINE
  5
F9
100
AcDbEntity
  8
cegla_tr
  6
ByLayer
 62
  256
370
   -1
100
AcDbPolyline
 90
    4
 70
    1
 43
0
 10
35.5
 20
108
 10
35.5
 20
114.5
 10
24
 20
114.5
 10
24
 20
108
  0
LWPOLYLINE
  5
FA
100
AcDbEntity
  8
cegla_tr
  6
ByLayer
 62
  256
370
   -1
100
AcDbPolyline
 90
    4
 70
    1
 43
0
 10
-233.5
 20
73
 10
-141.5
 20
73
 10
-141.5
 20
79.5
 10
-233.5
 20
79.5
  0
LWPOLYLINE
  5
FB
100
AcDbEntity
  8
cegla_tr
  6
ByLayer
 62
  256
370
   -1
100
AcDbPolyline
 90
    4
 70
    1
 43
0
 10
47.5
 20
108
 10
47.5
 20
114.5
 10
36
 20
114.5
 10
36
 20
108
  0
LWPOLYLINE
  5
FC
100
AcDbEntity
  8
cegla_tr
  6
ByLayer
 62
  256
370
   -1
100
AcDbPolyline
 90
    4
 70
    1
 43
0
 10
-221.5
 20
73
 10
-129.5
 20
73
 10
-129.5
 20
79.5
 10
-221.5
 20
79.5
  0
LWPOLYLINE
  5
FD
100
AcDbEntity
  8
cegla_tr
  6
ByLayer
 62
  256
370
   -1
100
AcDbPolyline
 90
    4
 70
    1
 43
0
 10
59.5
 20
108
 10
59.5
 20
114.5
 10
48
 20
114.5
 10
48
 20
108
  0
LWPOLYLINE
  5
FE
100
AcDbEntity
  8
cegla_tr
  6
ByLayer
 62
  256
370
   -1
100
AcDbPolyline
 90
    4
 70
    1
 43
0
 10
-209.5
 20
73
 10
-117.5
 20
73
 10
-117.5
 20
79.5
 10
-209.5
 20
79.5
  0
LWPOLYLINE
  5
FF
100
AcDbEntity
  8
cegla_tr
  6
ByLayer
 62
  256
370
   -1
100
AcDbPolyline
 90
    4
 70
    1
 43
0
 10
71.5
 20
108
 10
71.5
 20
114.5
 10
60
 20
114.5
 10
60
 20
108
  0
LWPOLYLINE
  5
100
100
AcDbEntity
  8
cegla_tr
  6
ByLayer
 62
  256
370
   -1
100
AcDbPolyline
 90
    4
 70
    1
 43
0
 10
-197.5
 20
73
 10
-105.5
 20
73
 10
-105.5
 20
79.5
 10
-197.5
 20
79.5
  0
LWPOLYLINE
  5
101
100
AcDbEntity
  8
cegla_tr
  6
ByLayer
 62
  256
370
   -1
100
AcDbPolyline
 90
    4
 70
    1
 43
0
 10
83.5
 20
108
 10
83.5
 20
114.5
 10
72
 20
114.5
 10
72
 20
108
  0
LWPOLYLINE
  5
102
100
AcDbEntity
  8
cegla_tr
  6
ByLayer
 62
  256
370
   -1
100
AcDbPolyline
 90
    4
 70
    1
 43
0
 10
-185.5
 20
73
 10
-93.5
 20
73
 10
-93.5
 20
79.5
 10
-185.5
 20
79.5
  0
LWPOLYLINE
  5
103
100
AcDbEntity
  8
cegla_tr
  6
ByLayer
 62
  256
370
   -1
100
AcDbPolyline
 90
    4
 70
    1
 43
0
 10
117
 20
112
 10
117
 20
118.5
 10
105.5
 20
118.5
 10
105.5
 20
112
  0
LWPOLYLINE
  5
104
100
AcDbEntity
  8
cegla_tr
  6
ByLayer
 62
  256
370
   -1
100
AcDbPolyline
 90
    4
 70
    1
 43
0
 10
117
 20
119
 10
117
 20
125.5
 10
105.5
 20
125.5
 10
105.5
 20
119
  0
LINE
  5
105
100
AcDbEntity
  8
0
  6
ByLayer
 62
  256
370
   -1
100
AcDbLine
 10
80.50000000000001
 20
-9
 11
80.50000000000001
 21
-20
  0
LWPOLYLINE
  5
106
100
AcDbEntity
  8
cegla_tr
  6
ByLayer
 62
  256
370
   -1
100
AcDbPolyline
 90
    4
 70
    1
 43
0
 10
92.00000000000001
 20
-64.70000000000002
 10
92.00000000000001
 20
-41.70000000000002
 10
80.50000000000001
 20
-41.70000000000002
 10
80.50000000000001
 20
-64.70000000000002
  0
LWPOLYLINE
  5
107
100
AcDbEntity
  8
cegla_tr
  6
ByLayer
 62
  256
370
   -1
100
AcDbPolyline
 90
    4
 70
    1
 43
0
 10
45.00000000000001
 20
127
 10
45.00000000000001
 20
133.5
 10
33.50000000000001
 20
133.5
 10
33.50000000000001
 20
127
  0
LWPOLYLINE
  5
108
100
AcDbEntity
  8
cegla_tr
  6
ByLayer
 62
  256
370
   -1
100
AcDbPolyline
 90
    4
 70
    1
 43
0
 10
57.00000000000001
 20
127
 10
57.00000000000001
 20
133.5
 10
45.50000000000001
 20
133.5
 10
45.50000000000001
 20
127
  0
LWPOLYLINE
  5
109
100
AcDbEntity
  8
cegla_tr
  6
ByLayer
 62
  256
370
   -1
100
AcDbPolyline
 90
    4
 70
    1
 43
0
 10
69.00000000000001
 20
127
 10
69.00000000000001
 20
133.5
 10
57.50000000000001
 20
133.5
 10
57.50000000000001
 20
127
  0
LWPOLYLINE
  5
10A
100
AcDbEntity
  8
cegla_tr
  6
ByLayer
 62
  256
370
   -1
100
AcDbPolyline
 90
    4
 70
    1
 43
0
 10
81.00000000000001
 20
127
 10
81.00000000000001
 20
133.5
 10
69.50000000000001
 20
133.5
 10
69.50000000000001
 20
127
  0
LWPOLYLINE
  5
10B
100
AcDbEntity
  8
cegla_tr
  6
ByLayer
 62
  256
370
   -1
100
AcDbPolyline
 90
    4
 70
    1
 43
0
 10
93.00000000000001
 20
127
 10
93.00000000000001
 20
133.5
 10
81.50000000000001
 20
133.5
 10
81.50000000000001
 20
127
  0
LWPOLYLINE
  5
10C
100
AcDbEntity
  8
cegla_tr
  6
ByLayer
 62
  256
370
   -1
100
AcDbPolyline
 90
    4
 70
    1
 43
0
 10
105
 20
127
 10
105
 20
133.5
 10
93.50000000000001
 20
133.5
 10
93.50000000000001
 20
127
  0
LWPOLYLINE
  5
10D
100
AcDbEntity
  8
cegla_tr
  6
ByLayer
 62
  256
370
   -1
100
AcDbPolyline
 90
    4
 70
    1
 43
0
 10
117
 20
127
 10
117
 20
133.5
 10
105.5
 20
133.5
 10
105.5
 20
127
  0
LWPOLYLINE
  5
10E
100
AcDbEntity
  8
cegla_tr
  6
ByLayer
 62
  256
370
   -1
100
AcDbPolyline
 90
    4
 70
    1
 43
0
 10
33
 20
127
 10
33
 20
133.5
 10
21.5
 20
133.5
 10
21.5
 20
127
  0
LWPOLYLINE
  5
10F
100
AcDbEntity
  8
cegla_tr
  6
ByLayer
 62
  256
370
   -1
100
AcDbPolyline
 90
    4
 70
    1
 43
0
 10
8.881784197001252e-16
 20
127
 10
6.500000000000001
 20
127
 10
6.500000000000001
 20
138.5
 10
8.881784197001252e-16
 20
138.5
  0
LWPOLYLINE
  5
110
100
AcDbEntity
  8
cegla_zv
  6
ByLayer
 62
  256
370
   -1
100
AcDbPolyline
 90
    4
 70
    1
 43
0
 10
110.5
 20
134
 10
117
 20
134
 10
117
 20
146.5
 10
110.5
 20
146.5
  0
LWPOLYLINE
  5
111
100
AcDbEntity
  8
cegla_zv
  6
ByLayer
 62
  256
370
   -1
100
AcDbPolyline
 90
    4
 70
    1
 43
0
 10
12.5
 20
147
 10
12.5
 20
153.5
 10
0
 20
153.5
 10
0
 20
147
  0
LWPOLYLINE
  5
112
100
AcDbEntity
  8
cegla_zv
  6
ByLayer
 62
  256
370
   -1
100
AcDbPolyline
 90
    4
 70
    1
 43
0
 10
25.5
 20
147
 10
25.5
 20
153.5
 10
13
 20
153.5
 10
13
 20
147
  0
LWPOLYLINE
  5
113
100
AcDbEntity
  8
cegla_zv
  6
ByLayer
 62
  256
370
   -1
100
AcDbPolyline
 90
    4
 70
    1
 43
0
 10
38.5
 20
147
 10
38.5
 20
153.5
 10
26
 20
153.5
 10
26
 20
147
  0
LWPOLYLINE
  5
114
100
AcDbEntity
  8
cegla_zv
  6
ByLayer
 62
  256
370
   -1
100
AcDbPolyline
 90
    4
 70
    1
 43
0
 10
51.5
 20
147
 10
51.5
 20
153.5
 10
39
 20
153.5
 10
39
 20
147
  0
LWPOLYLINE
  5
115
100
AcDbEntity
  8
cegla_zv
  6
ByLayer
 62
  256
370
   -1
100
AcDbPolyline
 90
    4
 70
    1
 43
0
 10
64.5
 20
147
 10
64.5
 20
153.5
 10
52
 20
153.5
 10
52
 20
147
  0
LWPOLYLINE
  5
116
100
AcDbEntity
  8
cegla_zv
  6
ByLayer
 62
  256
370
   -1
100
AcDbPolyline
 90
    4
 70
    1
 43
0
 10
77.5
 20
147
 10
77.5
 20
153.5
 10
65
 20
153.5
 10
65
 20
147
  0
LWPOLYLINE
  5
117
100
AcDbEntity
  8
cegla_zv
  6
ByLayer
 62
  256
370
   -1
100
AcDbPolyline
 90
    4
 70
    1
 43
0
 10
90.5
 20
147
 10
90.5
 20
153.5
 10
78
 20
153.5
 10
78
 20
147
  0
LWPOLYLINE
  5
118
100
AcDbEntity
  8
cegla_zv
  6
ByLayer
 62
  256
370
   -1
100
AcDbPolyline
 90
    4
 70
    1
 43
0
 10
0
 20
154
 10
6.5
 20
154
 10
6.5
 20
166.5
 10
0
 20
166.5
  0
LWPOLYLINE
  5
119
100
AcDbEntity
  8
cegla_zv
  6
ByLayer
 62
  256
370
   -1
100
AcDbPolyline
 90
    4
 70
    1
 43
0
 10
110.5
 20
147
 10
117
 20
147
 10
117
 20
159.5
 10
110.5
 20
159.5
  0
LWPOLYLINE
  5
11A
100
AcDbEntity
  8
cegla_zv
  6
ByLayer
 62
  256
370
   -1
100
AcDbPolyline
 90
    4
 70
    1
 43
0
 10
39
 20
167
 10
39
 20
173.5
 10
26.5
 20
173.5
 10
26.5
 20
167
  0
LWPOLYLINE
  5
11B
100
AcDbEntity
  8
cegla_zv
  6
ByLayer
 62
  256
370
   -1
100
AcDbPolyline
 90
    4
 70
    1
 43
0
 10
52
 20
167
 10
52
 20
173.5
 10
39.5
 20
173.5
 10
39.5
 20
167
  0
LWPOLYLINE
  5
11C
100
AcDbEntity
  8
cegla_zv
  6
ByLayer
 62
  256
370
   -1
100
AcDbPolyline
 90
    4
 70
    1
 43
0
 10
65
 20
167
 10
65
 20
173.5
 10
52.5
 20
173.5
 10
52.5
 20
167
  0
LWPOLYLINE
  5
11D
100
AcDbEntity
  8
cegla_zv
  6
ByLayer
 62
  256
370
   -1
100
AcDbPolyline
 90
    4
 70
    1
 43
0
 10
78
 20
167
 10
78
 20
173.5
 10
65.5
 20
173.5
 10
65.5
 20
167
  0
LWPOLYLINE
  5
11E
100
AcDbEntity
  8
cegla_zv
  6
ByLayer
 62
  256
370
   -1
100
AcDbPolyline
 90
    4
 70
    1
 43
0
 10
91
 20
167
 10
91
 20
173.5
 10
78.5
 20
173.5
 10
78.5
 20
167
  0
LWPOLYLINE
  5
11F
100
AcDbEntity
  8
cegla_zv
  6
ByLayer
 62
  256
370
   -1
100
AcDbPolyline
 90
    4
 70
    1
 43
0
 10
104
 20
167
 10
104
 20
173.5
 10
91.5
 20
173.5
 10
91.5
 20
167
  0
LWPOLYLINE
  5
120
100
AcDbEntity
  8
cegla_zv
  6
ByLayer
 62
  256
370
   -1
100
AcDbPolyline
 90
    4
 70
    1
 43
0
 10
117
 20
167
 10
117
 20
173.5
 10
104.5
 20
173.5
 10
104.5
 20
167
  0
LWPOLYLINE
  5
121
100
AcDbEntity
  8
cegla_zv
  6
ByLayer
 62
  256
370
   -1
100
AcDbPolyline
 90
    4
 70
    1
 43
0
 10
110.5
 20
174
 10
117
 20
174
 10
117
 20
186.5
 10
110.5
 20
186.5
  0
LWPOLYLINE
  5
122
100
AcDbEntity
  8
cegla_zv
  6
ByLayer
 62
  256
370
   -1
100
AcDbPolyline
 90
    4
 70
    1
 43
0
 10
12.5
 20
187
 10
12.5
 20
193.5
 10
0
 20
193.5
 10
0
 20
187
  0
LWPOLYLINE
  5
123
100
AcDbEntity
  8
cegla_zv
  6
ByLayer
 62
  256
370
   -1
100
AcDbPolyline
 90
    4
 70
    1
 43
0
 10
25.5
 20
187
 10
25.5
 20
193.5
 10
13
 20
193.5
 10
13
 20
187
  0
LWPOLYLINE
  5
124
100
AcDbEntity
  8
cegla_zv
  6
ByLayer
 62
  256
370
   -1
100
AcDbPolyline
 90
    4
 70
    1
 43
0
 10
38.5
 20
187
 10
38.5
 20
193.5
 10
26
 20
193.5
 10
26
 20
187
  0
LWPOLYLINE
  5
125
100
AcDbEntity
  8
cegla_zv
  6
ByLayer
 62
  256
370
   -1
100
AcDbPolyline
 90
    4
 70
    1
 43
0
 10
51.5
 20
187
 10
51.5
 20
193.5
 10
39
 20
193.5
 10
39
 20
187
  0
LWPOLYLINE
  5
126
100
AcDbEntity
  8
cegla_zv
  6
ByLayer
 62
  256
370
   -1
100
AcDbPolyline
 90
    4
 70
    1
 43
0
 10
64.5
 20
187
 10
64.5
 20
193.5
 10
52
 20
193.5
 10
52
 20
187
  0
LWPOLYLINE
  5
127
100
AcDbEntity
  8
cegla_zv
  6
ByLayer
 62
  256
370
   -1
100
AcDbPolyline
 90
    4
 70
    1
 43
0
 10
77.5
 20
187
 10
77.5
 20
193.5
 10
65
 20
193.5
 10
65
 20
187
  0
LWPOLYLINE
  5
128
100
AcDbEntity
  8
cegla_zv
  6
ByLayer
 62
  256
370
   -1
100
AcDbPolyline
 90
    4
 70
    1
 43
0
 10
90.5
 20
187
 10
90.5
 20
193.5
 10
78
 20
193.5
 10
78
 20
187
  0
LWPOLYLINE
  5
129
100
AcDbEntity
  8
cegla_zv
  6
ByLayer
 62
  256
370
   -1
100
AcDbPolyline
 90
    4
 70
    1
 43
0
 10
0
 20
194
 10
6.5
 20
194
 10
6.5
 20
206.5
 10
0
 20
206.5
  0
LWPOLYLINE
  5
12A
100
AcDbEntity
  8
cegla_zv
  6
ByLayer
 62
  256
370
   -1
100
AcDbPolyline
 90
    4
 70
    1
 43
0
 10
110.5
 20
187
 10
117
 20
187
 10
117
 20
199.5
 10
110.5
 20
199.5
  0
LWPOLYLINE
  5
12B
100
AcDbEntity
  8
cegla_zv
  6
ByLayer
 62
  256
370
   -1
100
AcDbPolyline
 90
    4
 70
    1
 43
0
 10
39
 20
207
 10
39
 20
213.5
 10
26.5
 20
213.5
 10
26.5
 20
207
  0
LWPOLYLINE
  5
12C
100
AcDbEntity
  8
cegla_zv
  6
ByLayer
 62
  256
370
   -1
100
AcDbPolyline
 90
    4
 70
    1
 43
0
 10
52
 20
207
 10
52
 20
213.5
 10
39.5
 20
213.5
 10
39.5
 20
207
  0
LWPOLYLINE
  5
12D
100
AcDbEntity
  8
cegla_zv
  6
ByLayer
 62
  256
370
   -1
100
AcDbPolyline
 90
    4
 70
    1
 43
0
 10
65
 20
207
 10
65
 20
213.5
 10
52.5
 20
213.5
 10
52.5
 20
207
  0
LWPOLYLINE
  5
12E
100
AcDbEntity
  8
cegla_zv
  6
ByLayer
 62
  256
370
   -1
100
AcDbPolyline
 90
    4
 70
    1
 43
0
 10
78
 20
207
 10
78
 20
213.5
 10
65.5
 20
213.5
 10
65.5
 20
207
  0
LWPOLYLINE
  5
12F
100
AcDbEntity
  8
cegla_zv
  6
ByLayer
 62
  256
370
   -1
100
AcDbPolyline
 90
    4
 70
    1
 43
0
 10
91
 20
207
 10
91
 20
213.5
 10
78.5
 20
213.5
 10
78.5
 20
207
  0
LWPOLYLINE
  5
130
100
AcDbEntity
  8
cegla_zv
  6
ByLayer
 62
  256
370
   -1
100
AcDbPolyline
 90
    4
 70
    1
 43
0
 10
104
 20
207
 10
104
 20
213.5
 10
91.5
 20
213.5
 10
91.5
 20
207
  0
LWPOLYLINE
  5
131
100
AcDbEntity
  8
cegla_zv
  6
ByLayer
 62
  256
370
   -1
100
AcDbPolyline
 90
    4
 70
    1
 43
0
 10
117
 20
207
 10
117
 20
213.5
 10
104.5
 20
213.5
 10
104.5
 20
207
  0
LWPOLYLINE
  5
132
100
AcDbEntity
  8
cegla_zv
  6
ByLayer
 62
  256
370
   -1
100
AcDbPolyline
 90
    4
 70
    1
 43
0
 10
0
 20
167
 10
6.5
 20
167
 10
6.5
 20
179.5
 10
0
 20
179.5
  0
LWPOLYLINE
  5
133
100
AcDbEntity
  8
cegla_zv
  6
ByLayer
 62
  256
370
   -1
100
AcDbPolyline
 90
    4
 70
    1
 43
0
 10
0
 20
207
 10
6.5
 20
207
 10
6.5
 20
219.5
 10
0
 20
219.5
  0
LWPOLYLINE
  5
134
100
AcDbEntity
  8
cegla_zv
  6
ByLayer
 62
  256
370
   -1
100
AcDbPolyline
 90
    4
 70
    1
 43
0
 10
110.5
 20
214
 10
117
 20
214
 10
117
 20
226.5
 10
110.5
 20
226.5
  0
LWPOLYLINE
  5
135
100
AcDbEntity
  8
cegla_zv
  6
ByLayer
 62
  256
370
   -1
100
AcDbPolyline
 90
    4
 70
    1
 43
0
 10
12.5
 20
227
 10
12.5
 20
233.5
 10
0
 20
233.5
 10
0
 20
227
  0
LWPOLYLINE
  5
136
100
AcDbEntity
  8
cegla_zv
  6
ByLayer
 62
  256
370
   -1
100
AcDbPolyline
 90
    4
 70
    1
 43
0
 10
25.5
 20
227
 10
25.5
 20
233.5
 10
13
 20
233.5
 10
13
 20
227
  0
LWPOLYLINE
  5
137
100
AcDbEntity
  8
cegla_zv
  6
ByLayer
 62
  256
370
   -1
100
AcDbPolyline
 90
    4
 70
    1
 43
0
 10
38.5
 20
227
 10
38.5
 20
233.5
 10
26
 20
233.5
 10
26
 20
227
  0
LWPOLYLINE
  5
138
100
AcDbEntity
  8
cegla_zv
  6
ByLayer
 62
  256
370
   -1
100
AcDbPolyline
 90
    4
 70
    1
 43
0
 10
51.5
 20
227
 10
51.5
 20
233.5
 10
39
 20
233.5
 10
39
 20
227
  0
LWPOLYLINE
  5
139
100
AcDbEntity
  8
cegla_zv
  6
ByLayer
 62
  256
370
   -1
100
AcDbPolyline
 90
    4
 70
    1
 43
0
 10
64.5
 20
227
 10
64.5
 20
233.5
 10
52
 20
233.5
 10
52
 20
227
  0
LWPOLYLINE
  5
13A
100
AcDbEntity
  8
cegla_zv
  6
ByLayer
 62
  256
370
   -1
100
AcDbPolyline
 90
    4
 70
    1
 43
0
 10
77.5
 20
227
 10
77.5
 20
233.5
 10
65
 20
233.5
 10
65
 20
227
  0
LWPOLYLINE
  5
13B
100
AcDbEntity
  8
cegla_zv
  6
ByLayer
 62
  256
370
   -1
100
AcDbPolyline
 90
    4
 70
    1
 43
0
 10
90.5
 20
227
 10
90.5
 20
233.5
 10
78
 20
233.5
 10
78
 20
227
  0
LWPOLYLINE
  5
13C
100
AcDbEntity
  8
cegla_zv
  6
ByLayer
 62
  256
370
   -1
100
AcDbPolyline
 90
    4
 70
    1
 43
0
 10
110.5
 20
227
 10
117
 20
227
 10
117
 20
239.5
 10
110.5
 20
239.5
  0
ENDSEC
  0
SECTION
  2
OBJECTS
  0
DICTIONARY
  5
C
330
0
100
AcDbDictionary
281
    1
  3
ACAD_GROUP
350
D
  0
DICTIONARY
  5
D
330
C
100
AcDbDictionary
281
    1
  0
ENDSEC
  0
EOF
