999
dxfrw 0.6.3
  0
SECTION
  2
HEADER
  9
$ACADVER
  1
AC1021
  9
$DWGCODEPAGE
  3
ANSI_1252
  9
$INSBASE
 10
0
 20
0
 30
0
  9
$EXTMIN
 10
-45
 20
-224
 30
0
  9
$EXTMAX
 10
602
 20
326.6719468036098
 30
0
  9
$LIMMIN
 10
0
 20
0
  9
$LIMMAX
 10
420
 20
297
  9
$ORTHOMODE
 70
    0
  9
$REGENMODE
 70
    1
  9
$FILLMODE
 70
    1
  9
$QTEXTMODE
 70
    0
  9
$MIRRTEXT
 70
    0
  9
$LTSCALE
 40
1
  9
$ATTMODE
 70
    0
  9
$TEXTSIZE
 40
2.5
  9
$TRACEWID
 40
15.68
  9
$TEXTSTYLE
  7
STANDARD
  9
$CLAYER
  8
tekst
  9
$CELTYPE
  6
BYLAYER
  9
$CECOLOR
 62
  256
  9
$CELTSCALE
 40
1
  9
$DISPSILH
 70
    0
  9
$DIMSCALE
 40
1
  9
$DIMASZ
 40
10
  9
$DIMEXO
 40
1
  9
$DIMDLI
 40
3.75
  9
$DIMRND
 40
0
  9
$DIMDLE
 40
0
  9
$DIMEXE
 40
2
  9
$DIMTP
 40
0
  9
$DIMTM
 40
0
  9
$DIMTXT
 40
10
  9
$DIMCEN
 40
2.5
  9
$DIMTSZ
 40
0
  9
$DIMTOL
 70
    0
  9
$DIMLIM
 70
    0
  9
$DIMTIH
 70
    0
  9
$DIMTOH
 70
    0
  9
$DIMSE1
 70
    0
  9
$DIMSE2
 70
    0
  9
$DIMTAD
 70
    1
  9
$DIMZIN
 70
    8
  9
$DIMBLK
  1

  9
$DIMASO
 70
    1
  9
$DIMSHO
 70
    1
  9
$DIMPOST
  1

  9
$DIMAPOST
  1

  9
$DIMALT
 70
    0
  9
$DIMALTD
 70
    3
  9
$DIMALTF
 40
0.03937
  9
$DIMLFAC
 40
1
  9
$DIMTOFL
 70
    1
  9
$DIMTVP
 40
0
  9
$DIMTIX
 70
    0
  9
$DIMSOXD
 70
    0
  9
$DIMSAH
 70
    0
  9
$DIMBLK1
  1

  9
$DIMBLK2
  1

  9
$DIMSTYLE
  2
STANDARD
  9
$DIMCLRD
 70
    0
  9
$DIMCLRE
 70
    0
  9
$DIMCLRT
 70
    0
  9
$DIMTFAC
 40
1
  9
$DIMGAP
 40
5
  9
$DIMJUST
 70
    0
  9
$DIMSD1
 70
    0
  9
$DIMSD2
 70
    0
  9
$DIMTOLJ
 70
    0
  9
$DIMTZIN
 70
    8
  9
$DIMALTZ
 70
    0
  9
$DIMALTTZ
 70
    0
  9
$DIMUPT
 70
    0
  9
$DIMDEC
 70
    1
  9
$DIMTDEC
 70
    2
  9
$DIMALTU
 70
    2
  9
$DIMALTTD
 70
    3
  9
$DIMTXSTY
  7
standard
  9
$DIMAUNIT
 70
    0
  9
$DIMADEC
 70
    0
  9
$DIMALTRND
 40
0
  9
$DIMAZIN
 70
    0
  9
$DIMDSEP
 70
   44
  9
$DIMATFIT
 70
    3
  9
$DIMFRAC
 70
    0
  9
$DIMLDRBLK
  1
STANDARD
  9
$DIMLUNIT
 70
    2
  9
$DIMLWD
 70
   -2
  9
$DIMLWE
 70
   -2
  9
$DIMTMOVE
 70
    0
  9
$DIMFXL
 40
1
  9
$DIMFXLON
 70
    0
  9
$DIMJOGANG
 40
0.7854
  9
$DIMTFILL
 70
    0
  9
$DIMTFILLCLR
 70
    0
  9
$DIMARCSYM
 70
    0
  9
$DIMLTYPE
  6

  9
$DIMLTEX1
  6

  9
$DIMLTEX2
  6

  9
$LUNITS
 70
    2
  9
$LUPREC
 70
    2
  9
$SKETCHINC
 40
1
  9
$FILLETRAD
 40
0
  9
$AUNITS
 70
    0
  9
$AUPREC
 70
    2
  9
$MENU
  1
.
  9
$ELEVATION
 40
0
  9
$PELEVATION
 40
0
  9
$THICKNESS
 40
0
  9
$LIMCHECK
 70
    0
  9
$CHAMFERA
 40
0
  9
$CHAMFERB
 40
0
  9
$CHAMFERC
 40
0
  9
$CHAMFERD
 40
0
  9
$SKPOLY
 70
    0
  9
$USRTIMER
 70
    1
  9
$ANGBASE
 50
0
  9
$ANGDIR
 70
    0
  9
$PDMODE
 70
   34
  9
$PDSIZE
 40
0
  9
$PLINEWID
 40
0
  9
$SPLFRAME
 70
    0
  9
$SPLINETYPE
 70
    2
  9
$SPLINESEGS
 70
    8
  9
$HANDSEED
  5
20000
  9
$SURFTAB1
 70
    6
  9
$SURFTAB2
 70
    6
  9
$SURFTYPE
 70
    6
  9
$SURFU
 70
    6
  9
$SURFV
 70
    6
  9
$UCSBASE
  2

  9
$UCSNAME
  2

  9
$UCSORG
 10
0
 20
0
 30
0
  9
$UCSXDIR
 10
1
 20
0
 30
0
  9
$UCSYDIR
 10
0
 20
1
 30
0
  9
$UCSORTHOREF
  2

  9
$UCSORTHOVIEW
 70
    0
  9
$UCSORGTOP
 10
0
 20
0
 30
0
  9
$UCSORGBOTTOM
 10
0
 20
0
 30
0
  9
$UCSORGLEFT
 10
0
 20
0
 30
0
  9
$UCSORGRIGHT
 10
0
 20
0
 30
0
  9
$UCSORGFRONT
 10
0
 20
0
 30
0
  9
$UCSORGBACK
 10
0
 20
0
 30
0
  9
$PUCSBASE
  2

  9
$PUCSNAME
  2

  9
$PUCSORG
 10
0
 20
0
 30
0
  9
$PUCSXDIR
 10
1
 20
0
 30
0
  9
$PUCSYDIR
 10
0
 20
1
 30
0
  9
$PUCSORTHOREF
  2

  9
$PUCSORTHOVIEW
 70
    0
  9
$PUCSORGTOP
 10
0
 20
0
 30
0
  9
$PUCSORGBOTTOM
 10
0
 20
0
 30
0
  9
$PUCSORGLEFT
 10
0
 20
0
 30
0
  9
$PUCSORGRIGHT
 10
0
 20
0
 30
0
  9
$PUCSORGFRONT
 10
0
 20
0
 30
0
  9
$PUCSORGBACK
 10
0
 20
0
 30
0
  9
$USERI1
 70
    0
  9
$USERI2
 70
    0
  9
$USERI3
 70
    0
  9
$USERI4
 70
    0
  9
$USERI5
 70
    0
  9
$USERR1
 40
0
  9
$USERR2
 40
0
  9
$USERR3
 40
0
  9
$USERR4
 40
0
  9
$USERR5
 40
0
  9
$WORLDVIEW
 70
    1
  9
$SHADEDGE
 70
    3
  9
$SHADEDIF
 70
   70
  9
$TILEMODE
 70
    1
  9
$MAXACTVP
 70
   64
  9
$PINSBASE
 10
4.875242326332796
 20
3.68578352180937
 30
0
  9
$PLIMCHECK
 70
    0
  9
$PEXTMIN
 10
0
 20
0
 30
0
  9
$PEXTMAX
 10
0
 20
0
 30
0
  9
$GRIDMODE
 70
    1
  9
$SNAPSTYLE
 70
    0
  9
$GRIDUNIT
 10
0
 20
0
  9
$PLIMMIN
 10
0
 20
0
  9
$PLIMMAX
 10
297
 20
210
  9
$UNITMODE
 70
    0
  9
$VISRETAIN
 70
    1
  9
$PLINEGEN
 70
    0
  9
$PSLTSCALE
 70
    1
  9
$TREEDEPTH
 70
 3020
  9
$CMLSTYLE
  2
Standard
  9
$CMLJUST
 70
    0
  9
$CMLSCALE
 40
20
  9
$PROXYGRAPHICS
 70
    1
  9
$MEASUREMENT
 70
    1
  9
$CELWEIGHT
370
   -1
  9
$ENDCAPS
280
    0
  9
$JOINSTYLE
280
    0
  9
$LWDISPLAY
290
    0
  9
$INSUNITS
 70
    4
  9
$HYPERLINKBASE
  1

  9
$STYLESHEET
  1

  9
$XEDIT
290
    1
  9
$CEPSNTYPE
380
    0
  9
$PSTYLEMODE
290
    1
  9
$EXTNAMES
290
    1
  9
$PSVPSCALE
 40
0.07471719541535289
  9
$OLESTARTUP
290
    0
  9
$SORTENTS
280
  127
  9
$INDEXCTL
280
    0
  9
$HIDETEXT
280
    1
  9
$XCLIPFRAME
290
    0
  9
$HALOGAP
280
    0
  9
$OBSCOLOR
 70
  257
  9
$OBSLTYPE
280
    0
  9
$INTERSECTIONDISPLAY
280
    0
  9
$INTERSECTIONCOLOR
 70
  257
  9
$DIMASSOC
280
    1
  9
$PROJECTNAME
  1

  9
$CAMERADISPLAY
290
    0
  9
$LENSLENGTH
 40
50
  9
$CAMERAHEIGHT
 40
0
  9
$STEPSPERSEC
 40
2
  9
$STEPSIZE
 40
50
  9
$3DDWFPREC
 40
2
  9
$PSOLWIDTH
 40
5
  9
$PSOLHEIGHT
 40
80
  9
$LOFTANG1
 40
1.570796326794897
  9
$LOFTANG2
 40
1.570796326794897
  9
$LOFTMAG1
 40
0
  9
$LOFTMAG2
 40
0
  9
$LOFTPARAM
 70
    7
  9
$LOFTNORMALS
280
    1
  9
$LATITUDE
 40
1
  9
$LONGITUDE
 40
1
  9
$NORTHDIRECTION
 40
0
  9
$TIMEZONE
 70
-8000
  9
$LIGHTGLYPHDISPLAY
280
    1
  9
$TILEMODELIGHTSYNCH
280
    1
  9
$SOLIDHIST
280
    1
  9
$SHOWHIST
280
    1
  9
$DWFFRAME
280
    2
  9
$DGNFRAME
280
    0
  9
$REALWORLDSCALE
290
    1
  9
$INTERFERECOLOR
 62
    1
  9
$CSHADOW
280
    0
  9
$SHADOWPLANELOCATION
 40
0
  0
ENDSEC
  0
SECTION
  2
CLASSES
  0
ENDSEC
  0
SECTION
  2
TABLES
  0
TABLE
  2
VPORT
  5
8
330
0
100
AcDbSymbolTable
 70
    1
  0
VPORT
  5
31
330
2
100
AcDbSymbolTableRecord
100
AcDbViewportTableRecord
  2
*ACTIVE
 70
    0
 10
0
 20
0
 11
1
 21
1
 12
208.6420182901571
 22
114.2563433493718
 13
0
 23
0
 14
10
 24
10
 15
10
 25
10
 16
0
 26
0
 36
1
 17
0
 27
0
 37
0
 40
230.3755618620485
 41
1.987870619946092
 42
50
 43
0
 44
0
 50
0
 51
0
 71
    0
 72
  100
 73
    1
 74
    3
 75
    0
 76
    1
 77
    0
 78
    0
281
    0
 65
    1
110
0
120
0
130
0
111
1
121
0
131
0
112
0
122
1
132
0
 79
    0
146
0
348
10020
 60
    7
 61
    5
292
1
282
    1
141
0
142
0
 63
  250
421
3358443
  0
ENDTAB
  0
TABLE
  2
LTYPE
  5
5
330
0
100
AcDbSymbolTable
 70
    4
  0
LTYPE
  5
14
330
5
100
AcDbSymbolTableRecord
100
AcDbLinetypeTableRecord
  2
ByBlock
 70
    0
  3

 72
   65
 73
    0
 40
0
  0
LTYPE
  5
15
330
5
100
AcDbSymbolTableRecord
100
AcDbLinetypeTableRecord
  2
ByLayer
 70
    0
  3

 72
   65
 73
    0
 40
0
  0
LTYPE
  5
16
330
5
100
AcDbSymbolTableRecord
100
AcDbLinetypeTableRecord
  2
Continuous
 70
    0
  3
Solid line
 72
   65
 73
    0
 40
0
  0
LTYPE
  5
32
330
5
100
AcDbSymbolTableRecord
100
AcDbLinetypeTableRecord
  2
DOT
 70
    0
  3
Dot . . . . . . . . . . . . . . . . . . . . . .
 72
   65
 73
    2
 40
6.35
 49
0
 74
    0
 49
-6.35
 74
    0
  0
LTYPE
  5
33
330
5
100
AcDbSymbolTableRecord
100
AcDbLinetypeTableRecord
  2
DOTTINY
 70
    0
  3
Dot (.15x) .....................................
 72
   65
 73
    2
 40
0.9525
 49
0
 74
    0
 49
-0.9525
 74
    0
  0
LTYPE
  5
34
330
5
100
AcDbSymbolTableRecord
100
AcDbLinetypeTableRecord
  2
DOT2
 70
    0
  3
Dot (.5x) .....................................
 72
   65
 73
    2
 40
3.175
 49
0
 74
    0
 49
-3.175
 74
    0
  0
LTYPE
  5
35
330
5
100
AcDbSymbolTableRecord
100
AcDbLinetypeTableRecord
  2
DOTX2
 70
    0
  3
Dot (2x) .  .  .  .  .  .  .  .  .  .  .  .  .
 72
   65
 73
    2
 40
12.7
 49
0
 74
    0
 49
-12.7
 74
    0
  0
LTYPE
  5
36
330
5
100
AcDbSymbolTableRecord
100
AcDbLinetypeTableRecord
  2
DASHED
 70
    0
  3
Dashed _ _ _ _ _ _ _ _ _ _ _ _ _ _ _ _ _
 72
   65
 73
    2
 40
19.05
 49
12.7
 74
    0
 49
-6.35
 74
    0
  0
LTYPE
  5
37
330
5
100
AcDbSymbolTableRecord
100
AcDbLinetypeTableRecord
  2
DASHEDTINY
 70
    0
  3
Dashed (.15x) _ _ _ _ _ _ _ _ _ _ _ _ _ _ _ _ _
 72
   65
 73
    2
 40
2.8575
 49
1.905
 74
    0
 49
-0.9525
 74
    0
  0
LTYPE
  5
38
330
5
100
AcDbSymbolTableRecord
100
AcDbLinetypeTableRecord
  2
DASHED2
 70
    0
  3
Dashed (.5x) _ _ _ _ _ _ _ _ _ _ _ _ _ _ _ _ _
 72
   65
 73
    2
 40
9.524999999999999
 49
6.35
 74
    0
 49
-3.175
 74
    0
  0
LTYPE
  5
39
330
5
100
AcDbSymbolTableRecord
100
AcDbLinetypeTableRecord
  2
DASHEDX2
 70
    0
  3
Dashed (2x) ____  ____  ____  ____  ____  ___
 72
   65
 73
    2
 40
38.09999999999999
 49
25.4
 74
    0
 49
-12.7
 74
    0
  0
LTYPE
  5
3A
330
5
100
AcDbSymbolTableRecord
100
AcDbLinetypeTableRecord
  2
DASHDOT
 70
    0
  3
Dash dot __ . __ . __ . __ . __ . __ . __ . __
 72
   65
 73
    4
 40
25.4
 49
12.7
 74
    0
 49
-6.35
 74
    0
 49
0
 74
    0
 49
-6.35
 74
    0
  0
LTYPE
  5
3B
330
5
100
AcDbSymbolTableRecord
100
AcDbLinetypeTableRecord
  2
DASHDOTTINY
 70
    0
  3
Dash dot (.15x) _._._._._._._._._._._._._._._.
 72
   65
 73
    4
 40
3.81
 49
1.905
 74
    0
 49
-0.9525
 74
    0
 49
0
 74
    0
 49
-0.9525
 74
    0
  0
LTYPE
  5
3C
330
5
100
AcDbSymbolTableRecord
100
AcDbLinetypeTableRecord
  2
DASHDOT2
 70
    0
  3
Dash dot (.5x) _._._._._._._._._._._._._._._.
 72
   65
 73
    4
 40
12.7
 49
6.35
 74
    0
 49
-3.175
 74
    0
 49
0
 74
    0
 49
-3.175
 74
    0
  0
LTYPE
  5
3D
330
5
100
AcDbSymbolTableRecord
100
AcDbLinetypeTableRecord
  2
DASHDOTX2
 70
    0
  3
Dash dot (2x) ____  .  ____  .  ____  .  ___
 72
   65
 73
    4
 40
50.8
 49
25.4
 74
    0
 49
-12.7
 74
    0
 49
0
 74
    0
 49
-12.7
 74
    0
  0
LTYPE
  5
3E
330
5
100
AcDbSymbolTableRecord
100
AcDbLinetypeTableRecord
  2
DIVIDE
 70
    0
  3
Divide ____ . . ____ . . ____ . . ____ . . ____
 72
   65
 73
    6
 40
31.75
 49
12.7
 74
    0
 49
-6.35
 74
    0
 49
0
 74
    0
 49
-6.35
 74
    0
 49
0
 74
    0
 49
-6.35
 74
    0
  0
LTYPE
  5
3F
330
5
100
AcDbSymbolTableRecord
100
AcDbLinetypeTableRecord
  2
DIVIDETINY
 70
    0
  3
Divide (.15x) __..__..__..__..__..__..__..__.._
 72
   65
 73
    6
 40
4.7625
 49
1.905
 74
    0
 49
-0.9525
 74
    0
 49
0
 74
    0
 49
-0.9525
 74
    0
 49
0
 74
    0
 49
-0.9525
 74
    0
  0
LTYPE
  5
40
330
5
100
AcDbSymbolTableRecord
100
AcDbLinetypeTableRecord
  2
DIVIDE2
 70
    0
  3
Divide (.5x) __..__..__..__..__..__..__..__.._
 72
   65
 73
    6
 40
15.875
 49
6.35
 74
    0
 49
-3.175
 74
    0
 49
0
 74
    0
 49
-3.175
 74
    0
 49
0
 74
    0
 49
-3.175
 74
    0
  0
LTYPE
  5
41
330
5
100
AcDbSymbolTableRecord
100
AcDbLinetypeTableRecord
  2
DIVIDEX2
 70
    0
  3
Divide (2x) ________  .  .  ________  .  .  _
 72
   65
 73
    6
 40
63.5
 49
25.4
 74
    0
 49
-12.7
 74
    0
 49
0
 74
    0
 49
-12.7
 74
    0
 49
0
 74
    0
 49
-12.7
 74
    0
  0
LTYPE
  5
42
330
5
100
AcDbSymbolTableRecord
100
AcDbLinetypeTableRecord
  2
BORDER
 70
    0
  3
Border __ __ . __ __ . __ __ . __ __ . __ __ .
 72
   65
 73
    6
 40
44.45
 49
12.7
 74
    0
 49
-6.35
 74
    0
 49
12.7
 74
    0
 49
-6.35
 74
    0
 49
0
 74
    0
 49
-6.35
 74
    0
  0
LTYPE
  5
43
330
5
100
AcDbSymbolTableRecord
100
AcDbLinetypeTableRecord
  2
BORDERTINY
 70
    0
  3
Border (.15x) __.__.__.__.__.__.__.__.__.__.__.
 72
   65
 73
    6
 40
6.6675
 49
1.905
 74
    0
 49
-0.9525
 74
    0
 49
1.905
 74
    0
 49
-0.9525
 74
    0
 49
0
 74
    0
 49
-0.9525
 74
    0
  0
LTYPE
  5
44
330
5
100
AcDbSymbolTableRecord
100
AcDbLinetypeTableRecord
  2
BORDER2
 70
    0
  3
Border (.5x) __.__.__.__.__.__.__.__.__.__.__.
 72
   65
 73
    6
 40
22.225
 49
6.35
 74
    0
 49
-3.175
 74
    0
 49
6.35
 74
    0
 49
-3.175
 74
    0
 49
0
 74
    0
 49
-3.175
 74
    0
  0
LTYPE
  5
45
330
5
100
AcDbSymbolTableRecord
100
AcDbLinetypeTableRecord
  2
BORDERX2
 70
    0
  3
Border (2x) ____  ____  .  ____  ____  .  ___
 72
   65
 73
    6
 40
88.89999999999999
 49
25.4
 74
    0
 49
-12.7
 74
    0
 49
25.4
 74
    0
 49
-12.7
 74
    0
 49
0
 74
    0
 49
-12.7
 74
    0
  0
LTYPE
  5
46
330
5
100
AcDbSymbolTableRecord
100
AcDbLinetypeTableRecord
  2
CENTER
 70
    0
  3
Center ____ _ ____ _ ____ _ ____ _ ____ _ ____
 72
   65
 73
    4
 40
50.8
 49
31.75
 74
    0
 49
-6.35
 74
    0
 49
6.35
 74
    0
 49
-6.35
 74
    0
  0
LTYPE
  5
47
330
5
100
AcDbSymbolTableRecord
100
AcDbLinetypeTableRecord
  2
CENTERTINY
 70
    0
  3
Center (.15x) ___ _ ___ _ ___ _ ___ _ ___ _ ___
 72
   65
 73
    4
 40
7.619999999999999
 49
4.7625
 74
    0
 49
-0.9525
 74
    0
 49
0.9525
 74
    0
 49
-0.9525
 74
    0
  0
LTYPE
  5
48
330
5
100
AcDbSymbolTableRecord
100
AcDbLinetypeTableRecord
  2
CENTER2
 70
    0
  3
Center (.5x) ___ _ ___ _ ___ _ ___ _ ___ _ ___
 72
   65
 73
    4
 40
28.575
 49
19.05
 74
    0
 49
-3.175
 74
    0
 49
3.175
 74
    0
 49
-3.175
 74
    0
  0
LTYPE
  5
49
330
5
100
AcDbSymbolTableRecord
100
AcDbLinetypeTableRecord
  2
CENTERX2
 70
    0
  3
Center (2x) ________  __  ________  __  _____
 72
   65
 73
    4
 40
101.6
 49
63.5
 74
    0
 49
-12.7
 74
    0
 49
12.7
 74
    0
 49
-12.7
 74
    0
  0
ENDTAB
  0
TABLE
  2
LAYER
  5
2
330
0
100
AcDbSymbolTable
 70
    1
  0
LAYER
  5
10
330
2
100
AcDbSymbolTableRecord
100
AcDbLayerTableRecord
  2
0
 70
    0
 62
    7
  6
CONTINUOUS
370
   -3
390
F
1001
LibreCad
1070
    1
  0
LAYER
  5
4A
330
2
100
AcDbSymbolTableRecord
100
AcDbLayerTableRecord
  2
kronshtein
 70
    0
 62
    5
  6
CONTINUOUS
370
   25
390
F
  0
LAYER
  5
4B
330
2
100
AcDbSymbolTableRecord
100
AcDbLayerTableRecord
  2
ramka
 70
    0
 62
  136
420
32896
  6
CONTINUOUS
370
   25
390
F
  0
LAYER
  5
4C
330
2
100
AcDbSymbolTableRecord
100
AcDbLayerTableRecord
  2
rozmir
 70
    0
 62
    4
  6
CONTINUOUS
370
   13
390
F
  0
LAYER
  5
4D
330
2
100
AcDbSymbolTableRecord
100
AcDbLayerTableRecord
  2
tekst
 70
    0
 62
  136
420
32896
  6
CONTINUOUS
370
   25
390
F
  0
ENDTAB
  0
TABLE
  2
STYLE
  5
3
330
0
100
AcDbSymbolTable
 70
    3
  0
STYLE
  5
4E
330
2
100
AcDbSymbolTableRecord
100
AcDbTextStyleTableRecord
  2
cyrillic_ii
 70
    0
 40
0
 41
1
 50
0
 71
    0
 42
1
  3
cyrillic_ii
  4

  0
STYLE
  5
4F
330
2
100
AcDbSymbolTableRecord
100
AcDbTextStyleTableRecord
  2
Standard
 70
    0
 40
0
 41
1
 50
0
 71
    0
 42
1
  3
txt
  4

  0
ENDTAB
  0
TABLE
  2
VIEW
  5
6
330
0
100
AcDbSymbolTable
 70
    0
  0
ENDTAB
  0
TABLE
  2
UCS
  5
7
330
0
100
AcDbSymbolTable
 70
    0
  0
ENDTAB
  0
TABLE
  2
APPID
  5
9
330
0
100
AcDbSymbolTable
 70
    1
  0
APPID
  5
12
330
9
100
AcDbSymbolTableRecord
100
AcDbRegAppTableRecord
  2
ACAD
 70
    0
  0
APPID
  5
50
330
9
100
AcDbSymbolTableRecord
100
AcDbRegAppTableRecord
  2
LibreCad
 70
    0
  0
ENDTAB
  0
TABLE
  2
DIMSTYLE
  5
A
330
0
100
AcDbSymbolTable
 70
    1
100
AcDbDimStyleTable
 71
    1
  0
DIMSTYLE
105
51
330
A
100
AcDbSymbolTableRecord
100
AcDbDimStyleTableRecord
  2
Standard
 70
    0
 40
1
 41
10
 42
1
 43
0.38
 44
2
 45
0
 46
0
 47
0
 48
0
 49
1
140
10
141
0.09
142
0
143
25.4
144
1
145
0
146
1
147
5
148
0
 71
    0
 72
    0
 73
    0
 74
    1
 75
    0
 76
    0
 77
    0
 78
    8
 79
    0
170
    0
171
    2
172
    0
173
    0
174
    0
175
    0
176
    0
177
    0
178
    0
179
    0
271
    1
272
    4
273
    2
274
    2
275
    0
276
    0
277
    2
278
   44
279
    0
280
    0
281
    0
282
    0
283
    1
284
    0
285
    0
286
    0
288
    0
289
    3
340
standard
341

371
   -2
372
   -2
  0
ENDTAB
  0
TABLE
  2
BLOCK_RECORD
  5
1
330
0
100
AcDbSymbolTable
 70
    2
  0
BLOCK_RECORD
  5
1F
330
1
100
AcDbSymbolTableRecord
100
AcDbBlockTableRecord
  2
*Model_Space
 70
    0
280
    1
281
    0
  0
BLOCK_RECORD
  5
1E
330
1
100
AcDbSymbolTableRecord
100
AcDbBlockTableRecord
  2
*Paper_Space
 70
    0
280
    1
281
    0
  0
BLOCK_RECORD
  5
52
330
1
100
AcDbSymbolTableRecord
100
AcDbBlockTableRecord
  2
*D23
 70
    0
280
    1
281
    0
  0
BLOCK_RECORD
  5
55
330
1
100
AcDbSymbolTableRecord
100
AcDbBlockTableRecord
  2
*D2
 70
    0
280
    1
281
    0
  0
BLOCK_RECORD
  5
58
330
1
100
AcDbSymbolTableRecord
100
AcDbBlockTableRecord
  2
*D8
 70
    0
280
    1
281
    0
  0
BLOCK_RECORD
  5
5B
330
1
100
AcDbSymbolTableRecord
100
AcDbBlockTableRecord
  2
*D11
 70
    0
280
    1
281
    0
  0
BLOCK_RECORD
  5
5E
330
1
100
AcDbSymbolTableRecord
100
AcDbBlockTableRecord
  2
*D5
 70
    0
280
    1
281
    0
  0
BLOCK_RECORD
  5
61
330
1
100
AcDbSymbolTableRecord
100
AcDbBlockTableRecord
  2
*D15
 70
    0
280
    1
281
    0
  0
BLOCK_RECORD
  5
64
330
1
100
AcDbSymbolTableRecord
100
AcDbBlockTableRecord
  2
*D18
 70
    0
280
    1
281
    0
  0
BLOCK_RECORD
  5
67
330
1
100
AcDbSymbolTableRecord
100
AcDbBlockTableRecord
  2
*D12
 70
    0
280
    1
281
    0
  0
BLOCK_RECORD
  5
6A
330
1
100
AcDbSymbolTableRecord
100
AcDbBlockTableRecord
  2
*D10
 70
    0
280
    1
281
    0
  0
BLOCK_RECORD
  5
6D
330
1
100
AcDbSymbolTableRecord
100
AcDbBlockTableRecord
  2
*D20
 70
    0
280
    1
281
    0
  0
BLOCK_RECORD
  5
70
330
1
100
AcDbSymbolTableRecord
100
AcDbBlockTableRecord
  2
*D3
 70
    0
280
    1
281
    0
  0
BLOCK_RECORD
  5
73
330
1
100
AcDbSymbolTableRecord
100
AcDbBlockTableRecord
  2
*D6
 70
    0
280
    1
281
    0
  0
BLOCK_RECORD
  5
76
330
1
100
AcDbSymbolTableRecord
100
AcDbBlockTableRecord
  2
*D16
 70
    0
280
    1
281
    0
  0
BLOCK_RECORD
  5
79
330
1
100
AcDbSymbolTableRecord
100
AcDbBlockTableRecord
  2
*D19
 70
    0
280
    1
281
    0
  0
BLOCK_RECORD
  5
7C
330
1
100
AcDbSymbolTableRecord
100
AcDbBlockTableRecord
  2
*D1
 70
    0
280
    1
281
    0
  0
BLOCK_RECORD
  5
7F
330
1
100
AcDbSymbolTableRecord
100
AcDbBlockTableRecord
  2
*D7
 70
    0
280
    1
281
    0
  0
BLOCK_RECORD
  5
82
330
1
100
AcDbSymbolTableRecord
100
AcDbBlockTableRecord
  2
*D13
 70
    0
280
    1
281
    0
  0
BLOCK_RECORD
  5
85
330
1
100
AcDbSymbolTableRecord
100
AcDbBlockTableRecord
  2
*D22
 70
    0
280
    1
281
    0
  0
BLOCK_RECORD
  5
88
330
1
100
AcDbSymbolTableRecord
100
AcDbBlockTableRecord
  2
*D9
 70
    0
280
    1
281
    0
  0
BLOCK_RECORD
  5
8B
330
1
100
AcDbSymbolTableRecord
100
AcDbBlockTableRecord
  2
*D21
 70
    0
280
    1
281
    0
  0
BLOCK_RECORD
  5
8E
330
1
100
AcDbSymbolTableRecord
100
AcDbBlockTableRecord
  2
*D17
 70
    0
280
    1
281
    0
  0
BLOCK_RECORD
  5
91
330
1
100
AcDbSymbolTableRecord
100
AcDbBlockTableRecord
  2
*D14
 70
    0
280
    1
281
    0
  0
BLOCK_RECORD
  5
94
330
1
100
AcDbSymbolTableRecord
100
AcDbBlockTableRecord
  2
*D4
 70
    0
280
    1
281
    0
  0
ENDTAB
  0
ENDSEC
  0
SECTION
  2
BLOCKS
  0
BLOCK
  5
20
330
1F
100
AcDbEntity
  8
0
100
AcDbBlockBegin
  2
*Model_Space
 70
    0
 10
0
 20
0
 30
0
  3
*Model_Space
  1

  0
ENDBLK
  5
21
330
1F
100
AcDbEntity
  8
0
100
AcDbBlockEnd
  0
BLOCK
  5
1C
330
1B
100
AcDbEntity
  8
0
100
AcDbBlockBegin
  2
*Paper_Space
 70
    0
 10
0
 20
0
 30
0
  3
*Paper_Space
  1

  0
ENDBLK
  5
1D
330
1F
100
AcDbEntity
  8
0
100
AcDbBlockEnd
  0
BLOCK
  5
53
330
52
100
AcDbEntity
  8
0
100
AcDbBlockBegin
  2
*D23
 70
    1
 10
0
 20
0
  3
*D23
  1

  0
LINE
  5
97
100
AcDbEntity
  8
rozmir
  6
ByBlock
 62
    0
370
   -2
100
AcDbLine
 10
230
 20
170
 11
205
 21
170
  0
SOLID
  5
98
100
AcDbEntity
  8
rozmir
  6
ByBlock
 62
    0
370
   -2
100
AcDbTrace
 10
230
 20
170
 30
0
 11
220
 21
168.3348613689086
 31
0
 12
220
 22
171.6651386310914
 32
0
 13
220
 23
171.6651386310914
 33
0
  0
SOLID
  5
99
100
AcDbEntity
  8
rozmir
  6
ByBlock
 62
    0
370
   -2
100
AcDbTrace
 10
205
 20
170
 30
0
 11
215
 21
171.6651386310914
 31
0
 12
215
 22
168.3348613689086
 32
0
 13
215
 23
168.3348613689086
 33
0
  0
MTEXT
  5
9A
100
AcDbEntity
  8
rozmir
  6
CONTINUOUS
 62
    0
370
   -2
100
AcDbMText
 10
217.5
 20
180
 30
0
 40
10
 41
12.22222222222284
 71
    5
 72
    1
  1
25
  7
standard
210
0
220
0
230
1
 50
360
 73
    2
 44
1
  0
LINE
  5
9B
100
AcDbEntity
  8
rozmir
  6
ByBlock
 62
    0
370
   -2
100
AcDbLine
 10
230
 20
121
 11
230
 21
172
  0
LINE
  5
9C
100
AcDbEntity
  8
rozmir
  6
ByBlock
 62
    0
370
   -2
100
AcDbLine
 10
205
 20
103
 11
205
 21
172
  0
ENDBLK
  5
54
330
52
100
AcDbEntity
  8
0
100
AcDbBlockEnd
  0
BLOCK
  5
56
330
55
100
AcDbEntity
  8
0
100
AcDbBlockBegin
  2
*D2
 70
    1
 10
0
 20
0
  3
*D2
  1

  0
LINE
  5
9D
100
AcDbEntity
  8
rozmir
  6
ByBlock
 62
    0
370
   -2
100
AcDbLine
 10
175
 20
120
 11
175
 21
95
  0
SOLID
  5
9E
100
AcDbEntity
  8
rozmir
  6
ByBlock
 62
    0
370
   -2
100
AcDbTrace
 10
175
 20
120
 30
0
 11
176.6651386310914
 21
110
 31
0
 12
173.3348613689086
 22
110
 32
0
 13
173.3348613689086
 23
110
 33
0
  0
SOLID
  5
9F
100
AcDbEntity
  8
rozmir
  6
ByBlock
 62
    0
370
   -2
100
AcDbTrace
 10
175
 20
95
 30
0
 11
173.3348613689086
 21
105
 31
0
 12
176.6651386310914
 22
105
 32
0
 13
176.6651386310914
 23
105
 33
0
  0
MTEXT
  5
A0
100
AcDbEntity
  8
rozmir
  6
CONTINUOUS
 62
    0
370
   -2
100
AcDbMText
 10
165
 20
107.5
 30
0
 40
10
 41
12.22222222222284
 71
    5
 72
    1
  1
25
  7
standard
210
0
220
0
230
1
 50
90
 73
    2
 44
1
  0
LINE
  5
A1
100
AcDbEntity
  8
rozmir
  6
ByBlock
 62
    0
370
   -2
100
AcDbLine
 10
204
 20
120
 11
173
 21
120
  0
LINE
  5
A2
100
AcDbEntity
  8
rozmir
  6
ByBlock
 62
    0
370
   -2
100
AcDbLine
 10
211
 20
95
 11
173
 21
95
  0
ENDBLK
  5
57
330
55
100
AcDbEntity
  8
0
100
AcDbBlockEnd
  0
BLOCK
  5
59
330
58
100
AcDbEntity
  8
0
100
AcDbBlockBegin
  2
*D8
 70
    1
 10
0
 20
0
  3
*D8
  1

  0
LINE
  5
A3
100
AcDbEntity
  8
rozmir
  6
ByBlock
 62
    0
370
   -2
100
AcDbLine
 10
119.6949713349167
 20
-194.1312858313544
 11
150.3050286650833
 21
-155.8687141686456
  0
SOLID
  5
A4
100
AcDbEntity
  8
rozmir
  6
ByBlock
 62
    0
370
   -2
100
AcDbTrace
 10
132.1888722860051
 20
-178.5139096424937
 30
0
 11
127.2421766308788
 21
-187.3628015932584
 31
0
 12
124.641666990043
 22
-185.2823938805897
 32
0
 13
124.641666990043
 23
-185.2823938805897
 33
0
  0
SOLID
  5
A5
100
AcDbEntity
  8
rozmir
  6
ByBlock
 62
    0
370
   -2
100
AcDbTrace
 10
137.8111277139949
 20
-171.4860903575063
 30
0
 11
142.7578233691212
 21
-162.6371984067417
 31
0
 12
145.358333009957
 22
-164.7176061194103
 32
0
 13
145.358333009957
 23
-164.7176061194103
 33
0
  0
MTEXT
  5
A6
100
AcDbEntity
  8
rozmir
  6
CONTINUOUS
 62
    0
370
   -2
100
AcDbMText
 10
115.4462894063267
 20
-187.9421382420915
 30
0
 40
10
 41
14.44444444444444
 71
    5
 72
    1
  1
%%C9
  7
standard
210
0
220
0
230
1
 50
51.34019174591033
 73
    2
 44
1
  0
ENDBLK
  5
5A
330
58
100
AcDbEntity
  8
0
100
AcDbBlockEnd
  0
BLOCK
  5
5C
330
5B
100
AcDbEntity
  8
0
100
AcDbBlockBegin
  2
*D11
 70
    1
 10
0
 20
0
  3
*D11
  1

  0
LINE
  5
A7
100
AcDbEntity
  8
rozmir
  6
ByBlock
 62
    0
370
   -2
100
AcDbLine
 10
50
 20
-70
 11
160
 21
-70
  0
SOLID
  5
A8
100
AcDbEntity
  8
rozmir
  6
ByBlock
 62
    0
370
   -2
100
AcDbTrace
 10
50
 20
-70
 30
0
 11
60
 21
-68.33486136890863
 31
0
 12
60
 22
-71.66513863109137
 32
0
 13
60
 23
-71.66513863109137
 33
0
  0
SOLID
  5
A9
100
AcDbEntity
  8
rozmir
  6
ByBlock
 62
    0
370
   -2
100
AcDbTrace
 10
160
 20
-70
 30
0
 11
150
 21
-71.66513863109137
 31
0
 12
150
 22
-68.33486136890863
 32
0
 13
150
 23
-68.33486136890863
 33
0
  0
MTEXT
  5
AA
100
AcDbEntity
  8
rozmir
  6
CONTINUOUS
 62
    0
370
   -2
100
AcDbMText
 10
105
 20
-60
 30
0
 40
10
 41
15.55555555555556
 71
    5
 72
    1
  1
110
  7
standard
210
0
220
0
230
1
 50
0
 73
    2
 44
1
  0
LINE
  5
AB
100
AcDbEntity
  8
rozmir
  6
ByBlock
 62
    0
370
   -2
100
AcDbLine
 10
50
 20
-149
 11
50
 21
-68
  0
LINE
  5
AC
100
AcDbEntity
  8
rozmir
  6
ByBlock
 62
    0
370
   -2
100
AcDbLine
 10
160
 20
-149
 11
160
 21
-68
  0
ENDBLK
  5
5D
330
5B
100
AcDbEntity
  8
0
100
AcDbBlockEnd
  0
BLOCK
  5
5F
330
5E
100
AcDbEntity
  8
0
100
AcDbBlockBegin
  2
*D5
 70
    1
 10
0
 20
0
  3
*D5
  1

  0
LINE
  5
AD
100
AcDbEntity
  8
rozmir
  6
ByBlock
 62
    0
370
   -2
100
AcDbLine
 10
0
 20
200
 11
230
 21
200
  0
SOLID
  5
AE
100
AcDbEntity
  8
rozmir
  6
ByBlock
 62
    0
370
   -2
100
AcDbTrace
 10
0
 20
200
 30
0
 11
10
 21
201.6651386310914
 31
0
 12
10
 22
198.3348613689086
 32
0
 13
10
 23
198.3348613689086
 33
0
  0
SOLID
  5
AF
100
AcDbEntity
  8
rozmir
  6
ByBlock
 62
    0
370
   -2
100
AcDbTrace
 10
230
 20
200
 30
0
 11
220
 21
198.3348613689086
 31
0
 12
220
 22
201.6651386310914
 32
0
 13
220
 23
201.6651386310914
 33
0
  0
MTEXT
  5
B0
100
AcDbEntity
  8
rozmir
  6
CONTINUOUS
 62
    0
370
   -2
100
AcDbMText
 10
115
 20
210
 30
0
 40
10
 41
20.00000000000062
 71
    5
 72
    1
  1
230
  7
standard
210
0
220
0
230
1
 50
0
 73
    2
 44
1
  0
LINE
  5
B1
100
AcDbEntity
  8
rozmir
  6
ByBlock
 62
    0
370
   -2
100
AcDbLine
 10
6.123233995736766e-17
 20
121
 11
1.224646799147353e-16
 21
202
  0
LINE
  5
B2
100
AcDbEntity
  8
rozmir
  6
ByBlock
 62
    0
370
   -2
100
AcDbLine
 10
230
 20
121
 11
230
 21
202
  0
ENDBLK
  5
60
330
5E
100
AcDbEntity
  8
0
100
AcDbBlockEnd
  0
BLOCK
  5
62
330
61
100
AcDbEntity
  8
0
100
AcDbBlockBegin
  2
*D15
 70
    1
 10
0
 20
0
  3
*D15
  1

  0
LINE
  5
B3
100
AcDbEntity
  8
rozmir
  6
ByBlock
 62
    0
370
   -2
100
AcDbLine
 10
500
 20
150
 11
500
 21
125
  0
SOLID
  5
B4
100
AcDbEntity
  8
rozmir
  6
ByBlock
 62
    0
370
   -2
100
AcDbTrace
 10
500
 20
150
 30
0
 11
501.6651386310913
 21
140
 31
0
 12
498.3348613689087
 22
140
 32
0
 13
498.3348613689087
 23
140
 33
0
  0
SOLID
  5
B5
100
AcDbEntity
  8
rozmir
  6
ByBlock
 62
    0
370
   -2
100
AcDbTrace
 10
500
 20
125
 30
0
 11
498.3348613689087
 21
135
 31
0
 12
501.6651386310913
 22
135
 32
0
 13
501.6651386310913
 23
135
 33
0
  0
MTEXT
  5
B6
100
AcDbEntity
  8
rozmir
  6
CONTINUOUS
 62
    0
370
   -2
100
AcDbMText
 10
490
 20
137.5
 30
0
 40
10
 41
12.22222222222284
 71
    5
 72
    1
  1
25
  7
standard
210
0
220
0
230
1
 50
90
 73
    2
 44
1
  0
LINE
  5
B7
100
AcDbEntity
  8
rozmir
  6
ByBlock
 62
    0
370
   -2
100
AcDbLine
 10
519
 20
150
 11
498
 21
150
  0
LINE
  5
B8
100
AcDbEntity
  8
rozmir
  6
ByBlock
 62
    0
370
   -2
100
AcDbLine
 10
544
 20
125
 11
498
 21
125
  0
ENDBLK
  5
63
330
61
100
AcDbEntity
  8
0
100
AcDbBlockEnd
  0
BLOCK
  5
65
330
64
100
AcDbEntity
  8
0
100
AcDbBlockBegin
  2
*D18
 70
    1
 10
0
 20
0
  3
*D18
  1

  0
LINE
  5
B9
100
AcDbEntity
  8
rozmir
  6
ByBlock
 62
    0
370
   -2
100
AcDbLine
 10
520
 20
90
 11
545
 21
90
  0
SOLID
  5
BA
100
AcDbEntity
  8
rozmir
  6
ByBlock
 62
    0
370
   -2
100
AcDbTrace
 10
520
 20
90
 30
0
 11
530
 21
91.66513863109137
 31
0
 12
530
 22
88.33486136890863
 32
0
 13
530
 23
88.33486136890863
 33
0
  0
SOLID
  5
BB
100
AcDbEntity
  8
rozmir
  6
ByBlock
 62
    0
370
   -2
100
AcDbTrace
 10
545
 20
90
 30
0
 11
535
 21
88.33486136890863
 31
0
 12
535
 22
91.66513863109137
 32
0
 13
535
 23
91.66513863109137
 33
0
  0
MTEXT
  5
BC
100
AcDbEntity
  8
rozmir
  6
CONTINUOUS
 62
    0
370
   -2
100
AcDbMText
 10
532.5
 20
100
 30
0
 40
10
 41
12.22222222222284
 71
    5
 72
    1
  1
25
  7
standard
210
0
220
0
230
1
 50
0
 73
    2
 44
1
  0
LINE
  5
BD
100
AcDbEntity
  8
rozmir
  6
ByBlock
 62
    0
370
   -2
100
AcDbLine
 10
520
 20
149
 11
520
 21
88
  0
LINE
  5
BE
100
AcDbEntity
  8
rozmir
  6
ByBlock
 62
    0
370
   -2
100
AcDbLine
 10
545
 20
117
 11
545
 21
88
  0
ENDBLK
  5
66
330
64
100
AcDbEntity
  8
0
100
AcDbBlockEnd
  0
BLOCK
  5
68
330
67
100
AcDbEntity
  8
0
100
AcDbBlockBegin
  2
*D12
 70
    1
 10
0
 20
0
  3
*D12
  1

  0
LINE
  5
BF
100
AcDbEntity
  8
rozmir
  6
ByBlock
 62
    0
370
   -2
100
AcDbLine
 10
520
 20
170
 11
570
 21
170
  0
SOLID
  5
C0
100
AcDbEntity
  8
rozmir
  6
ByBlock
 62
    0
370
   -2
100
AcDbTrace
 10
520
 20
170
 30
0
 11
530
 21
171.6651386310914
 31
0
 12
530
 22
168.3348613689086
 32
0
 13
530
 23
168.3348613689086
 33
0
  0
SOLID
  5
C1
100
AcDbEntity
  8
rozmir
  6
ByBlock
 62
    0
370
   -2
100
AcDbTrace
 10
570
 20
170
 30
0
 11
560
 21
168.3348613689086
 31
0
 12
560
 22
171.6651386310914
 32
0
 13
560
 23
171.6651386310914
 33
0
  0
MTEXT
  5
C2
100
AcDbEntity
  8
rozmir
  6
CONTINUOUS
 62
    0
370
   -2
100
AcDbMText
 10
545
 20
180
 30
0
 40
10
 41
12.22222222222284
 71
    5
 72
    1
  1
50
  7
standard
210
0
220
0
230
1
 50
0
 73
    2
 44
1
  0
LINE
  5
C3
100
AcDbEntity
  8
rozmir
  6
ByBlock
 62
    0
370
   -2
100
AcDbLine
 10
520
 20
151
 11
520
 21
172
  0
LINE
  5
C4
100
AcDbEntity
  8
rozmir
  6
ByBlock
 62
    0
370
   -2
100
AcDbLine
 10
570
 20
151
 11
570
 21
172
  0
ENDBLK
  5
69
330
67
100
AcDbEntity
  8
0
100
AcDbBlockEnd
  0
BLOCK
  5
6B
330
6A
100
AcDbEntity
  8
0
100
AcDbBlockBegin
  2
*D10
 70
    1
 10
0
 20
0
  3
*D10
  1

  0
LINE
  5
C5
100
AcDbEntity
  8
rozmir
  6
ByBlock
 62
    0
370
   -2
100
AcDbLine
 10
50
 20
-100
 11
135
 21
-100
  0
SOLID
  5
C6
100
AcDbEntity
  8
rozmir
  6
ByBlock
 62
    0
370
   -2
100
AcDbTrace
 10
50
 20
-100
 30
0
 11
60
 21
-98.33486136890863
 31
0
 12
60
 22
-101.6651386310914
 32
0
 13
60
 23
-101.6651386310914
 33
0
  0
SOLID
  5
C7
100
AcDbEntity
  8
rozmir
  6
ByBlock
 62
    0
370
   -2
100
AcDbTrace
 10
135
 20
-100
 30
0
 11
125
 21
-101.6651386310914
 31
0
 12
125
 22
-98.33486136890863
 32
0
 13
125
 23
-98.33486136890863
 33
0
  0
MTEXT
  5
C8
100
AcDbEntity
  8
rozmir
  6
CONTINUOUS
 62
    0
370
   -2
100
AcDbMText
 10
92.5
 20
-90
 30
0
 40
10
 41
12.22222222222284
 71
    5
 72
    1
  1
85
  7
standard
210
0
220
0
230
1
 50
0
 73
    2
 44
1
  0
LINE
  5
C9
100
AcDbEntity
  8
rozmir
  6
ByBlock
 62
    0
370
   -2
100
AcDbLine
 10
50
 20
-149
 11
50
 21
-98
  0
LINE
  5
CA
100
AcDbEntity
  8
rozmir
  6
ByBlock
 62
    0
370
   -2
100
AcDbLine
 10
135
 20
-167
 11
135
 21
-98
  0
ENDBLK
  5
6C
330
6A
100
AcDbEntity
  8
0
100
AcDbBlockEnd
  0
BLOCK
  5
6E
330
6D
100
AcDbEntity
  8
0
100
AcDbBlockBegin
  2
*D20
 70
    1
 10
0
 20
0
  3
*D20
  1

  0
LINE
  5
CB
100
AcDbEntity
  8
rozmir
  6
ByBlock
 62
    0
370
   -2
100
AcDbLine
 10
600
 20
150
 11
600
 21
-100
  0
SOLID
  5
CC
100
AcDbEntity
  8
rozmir
  6
ByBlock
 62
    0
370
   -2
100
AcDbTrace
 10
600
 20
150
 30
0
 11
601.6651386310914
 21
140
 31
0
 12
598.3348613689086
 22
140
 32
0
 13
598.3348613689086
 23
140
 33
0
  0
SOLID
  5
CD
100
AcDbEntity
  8
rozmir
  6
ByBlock
 62
    0
370
   -2
100
AcDbTrace
 10
600
 20
-100
 30
0
 11
598.3348613689086
 21
-90
 31
0
 12
601.6651386310914
 22
-90
 32
0
 13
601.6651386310914
 23
-90
 33
0
  0
MTEXT
  5
CE
100
AcDbEntity
  8
rozmir
  6
CONTINUOUS
 62
    0
370
   -2
100
AcDbMText
 10
590
 20
25
 30
0
 40
10
 41
20.00000000000062
 71
    5
 72
    1
  1
250
  7
standard
210
0
220
0
230
1
 50
90
 73
    2
 44
1
  0
LINE
  5
CF
100
AcDbEntity
  8
rozmir
  6
ByBlock
 62
    0
370
   -2
100
AcDbLine
 10
571
 20
150
 11
602
 21
150
  0
LINE
  5
D0
100
AcDbEntity
  8
rozmir
  6
ByBlock
 62
    0
370
   -2
100
AcDbLine
 10
571
 20
-100
 11
602
 21
-100
  0
ENDBLK
  5
6F
330
6D
100
AcDbEntity
  8
0
100
AcDbBlockEnd
  0
BLOCK
  5
71
330
70
100
AcDbEntity
  8
0
100
AcDbBlockBegin
  2
*D3
 70
    1
 10
0
 20
0
  3
*D3
  1

  0
LINE
  5
D1
100
AcDbEntity
  8
rozmir
  6
ByBlock
 62
    0
370
   -2
100
AcDbLine
 10
189.6949713349167
 20
75.86871416864562
 11
220.3050286650833
 21
114.1312858313544
  0
SOLID
  5
D2
100
AcDbEntity
  8
rozmir
  6
ByBlock
 62
    0
370
   -2
100
AcDbTrace
 10
202.1888722860051
 20
91.48609035750633
 30
0
 11
197.2421766308788
 21
82.63719840674166
 31
0
 12
194.641666990043
 22
84.71760611941029
 32
0
 13
194.641666990043
 23
84.71760611941029
 33
0
  0
SOLID
  5
D3
100
AcDbEntity
  8
rozmir
  6
ByBlock
 62
    0
370
   -2
100
AcDbTrace
 10
207.8111277139949
 20
98.51390964249367
 30
0
 11
212.7578233691212
 21
107.3628015932583
 31
0
 12
215.358333009957
 22
105.2823938805897
 32
0
 13
215.358333009957
 23
105.2823938805897
 33
0
  0
MTEXT
  5
D4
100
AcDbEntity
  8
rozmir
  6
CONTINUOUS
 62
    0
370
   -2
100
AcDbMText
 10
185.4462894063267
 20
82.05786175790854
 30
0
 40
10
 41
14.44444444444444
 71
    5
 72
    1
  1
%%C9
  7
standard
210
0
220
0
230
1
 50
51.34019174591035
 73
    2
 44
1
  0
ENDBLK
  5
72
330
70
100
AcDbEntity
  8
0
100
AcDbBlockEnd
  0
BLOCK
  5
74
330
73
100
AcDbEntity
  8
0
100
AcDbBlockBegin
  2
*D6
 70
    1
 10
0
 20
0
  3
*D6
  1

  0
LINE
  5
D5
100
AcDbEntity
  8
rozmir
  6
ByBlock
 62
    0
370
   -2
100
AcDbLine
 10
70
 20
-100
 11
20
 21
-100
  0
SOLID
  5
D6
100
AcDbEntity
  8
rozmir
  6
ByBlock
 62
    0
370
   -2
100
AcDbTrace
 10
50
 20
-100
 30
0
 11
60
 21
-98.33486136890863
 31
0
 12
60
 22
-101.6651386310914
 32
0
 13
60
 23
-101.6651386310914
 33
0
  0
SOLID
  5
D7
100
AcDbEntity
  8
rozmir
  6
ByBlock
 62
    0
370
   -2
100
AcDbTrace
 10
40
 20
-100
 30
0
 11
30
 21
-101.6651386310914
 31
0
 12
30
 22
-98.33486136890863
 32
0
 13
30
 23
-98.33486136890863
 33
0
  0
MTEXT
  5
D8
100
AcDbEntity
  8
rozmir
  6
CONTINUOUS
 62
    0
370
   -2
100
AcDbMText
 10
10
 20
-90
 30
0
 40
10
 41
10
 71
    5
 72
    1
  1
10
  7
standard
210
0
220
0
230
1
 50
360
 73
    2
 44
1
  0
LINE
  5
D9
100
AcDbEntity
  8
rozmir
  6
ByBlock
 62
    0
370
   -2
100
AcDbLine
 10
50
 20
-149
 11
50
 21
-98
  0
LINE
  5
DA
100
AcDbEntity
  8
rozmir
  6
ByBlock
 62
    0
370
   -2
100
AcDbLine
 10
40
 20
-129
 11
40
 21
-98
  0
ENDBLK
  5
75
330
73
100
AcDbEntity
  8
0
100
AcDbBlockEnd
  0
BLOCK
  5
77
330
76
100
AcDbEntity
  8
0
100
AcDbBlockBegin
  2
*D16
 70
    1
 10
0
 20
0
  3
*D16
  1

  0
LINE
  5
DB
100
AcDbEntity
  8
rozmir
  6
ByBlock
 62
    0
370
   -2
100
AcDbLine
 10
480
 20
150
 11
480
 21
50
  0
SOLID
  5
DC
100
AcDbEntity
  8
rozmir
  6
ByBlock
 62
    0
370
   -2
100
AcDbTrace
 10
480
 20
150
 30
0
 11
481.6651386310913
 21
140
 31
0
 12
478.3348613689087
 22
140
 32
0
 13
478.3348613689087
 23
140
 33
0
  0
SOLID
  5
DD
100
AcDbEntity
  8
rozmir
  6
ByBlock
 62
    0
370
   -2
100
AcDbTrace
 10
480
 20
50
 30
0
 11
478.3348613689087
 21
60
 31
0
 12
481.6651386310913
 22
60
 32
0
 13
481.6651386310913
 23
60
 33
0
  0
MTEXT
  5
DE
100
AcDbEntity
  8
rozmir
  6
CONTINUOUS
 62
    0
370
   -2
100
AcDbMText
 10
470
 20
100
 30
0
 40
10
 41
17.77777777777778
 71
    5
 72
    1
  1
100
  7
standard
210
0
220
0
230
1
 50
90
 73
    2
 44
1
  0
LINE
  5
DF
100
AcDbEntity
  8
rozmir
  6
ByBlock
 62
    0
370
   -2
100
AcDbLine
 10
519
 20
150
 11
478
 21
150
  0
LINE
  5
E0
100
AcDbEntity
  8
rozmir
  6
ByBlock
 62
    0
370
   -2
100
AcDbLine
 10
519
 20
50
 11
478
 21
50
  0
ENDBLK
  5
78
330
76
100
AcDbEntity
  8
0
100
AcDbBlockEnd
  0
BLOCK
  5
7A
330
79
100
AcDbEntity
  8
0
100
AcDbBlockBegin
  2
*D19
 70
    1
 10
0
 20
0
  3
*D19
  1

  0
LINE
  5
E1
100
AcDbEntity
  8
rozmir
  6
ByBlock
 62
    0
370
   -2
100
AcDbLine
 10
480
 20
50
 11
480
 21
0
  0
SOLID
  5
E2
100
AcDbEntity
  8
rozmir
  6
ByBlock
 62
    0
370
   -2
100
AcDbTrace
 10
480
 20
50
 30
0
 11
481.6651386310913
 21
40
 31
0
 12
478.3348613689087
 22
40
 32
0
 13
478.3348613689087
 23
40
 33
0
  0
SOLID
  5
E3
100
AcDbEntity
  8
rozmir
  6
ByBlock
 62
    0
370
   -2
100
AcDbTrace
 10
480
 20
0
 30
0
 11
478.3348613689087
 21
10
 31
0
 12
481.6651386310913
 22
10
 32
0
 13
481.6651386310913
 23
10
 33
0
  0
MTEXT
  5
E4
100
AcDbEntity
  8
rozmir
  6
CONTINUOUS
 62
    0
370
   -2
100
AcDbMText
 10
470
 20
25
 30
0
 40
10
 41
12.22222222222284
 71
    5
 72
    1
  1
50
  7
standard
210
0
220
0
230
1
 50
90
 73
    2
 44
1
  0
LINE
  5
E5
100
AcDbEntity
  8
rozmir
  6
ByBlock
 62
    0
370
   -2
100
AcDbLine
 10
519
 20
50
 11
478
 21
50
  0
LINE
  5
E6
100
AcDbEntity
  8
rozmir
  6
ByBlock
 62
    0
370
   -2
100
AcDbLine
 10
519
 20
1.224646799147353e-16
 11
478
 21
2.449293598294706e-16
  0
ENDBLK
  5
7B
330
79
100
AcDbEntity
  8
0
100
AcDbBlockEnd
  0
BLOCK
  5
7D
330
7C
100
AcDbEntity
  8
0
100
AcDbBlockBegin
  2
*D1
 70
    1
 10
0
 20
0
  3
*D1
  1

  0
LINE
  5
E7
100
AcDbEntity
  8
rozmir
  6
ByBlock
 62
    0
370
   -2
100
AcDbLine
 10
20
 20
170
 11
-30
 21
170
  0
SOLID
  5
E8
100
AcDbEntity
  8
rozmir
  6
ByBlock
 62
    0
370
   -2
100
AcDbTrace
 10
0
 20
170
 30
0
 11
10
 21
171.6651386310914
 31
0
 12
10
 22
168.3348613689086
 32
0
 13
10
 23
168.3348613689086
 33
0
  0
SOLID
  5
E9
100
AcDbEntity
  8
rozmir
  6
ByBlock
 62
    0
370
   -2
100
AcDbTrace
 10
-10
 20
170
 30
0
 11
-20
 21
168.3348613689086
 31
0
 12
-20
 22
171.6651386310914
 32
0
 13
-20
 23
171.6651386310914
 33
0
  0
MTEXT
  5
EA
100
AcDbEntity
  8
rozmir
  6
CONTINUOUS
 62
    0
370
   -2
100
AcDbMText
 10
-40
 20
180
 30
0
 40
10
 41
10
 71
    5
 72
    1
  1
10
  7
standard
210
0
220
0
230
1
 50
360
 73
    2
 44
1
  0
LINE
  5
EB
100
AcDbEntity
  8
rozmir
  6
ByBlock
 62
    0
370
   -2
100
AcDbLine
 10
6.123233995736766e-17
 20
121
 11
1.224646799147353e-16
 21
172
  0
LINE
  5
EC
100
AcDbEntity
  8
rozmir
  6
ByBlock
 62
    0
370
   -2
100
AcDbLine
 10
-10
 20
141
 11
-10
 21
172
  0
ENDBLK
  5
7E
330
7C
100
AcDbEntity
  8
0
100
AcDbBlockEnd
  0
BLOCK
  5
80
330
7F
100
AcDbEntity
  8
0
100
AcDbBlockBegin
  2
*D7
 70
    1
 10
0
 20
0
  3
*D7
  1

  0
LINE
  5
ED
100
AcDbEntity
  8
rozmir
  6
ByBlock
 62
    0
370
   -2
100
AcDbLine
 10
105
 20
-150
 11
105
 21
-175
  0
SOLID
  5
EE
100
AcDbEntity
  8
rozmir
  6
ByBlock
 62
    0
370
   -2
100
AcDbTrace
 10
105
 20
-150
 30
0
 11
106.6651386310914
 21
-160
 31
0
 12
103.3348613689086
 22
-160
 32
0
 13
103.3348613689086
 23
-160
 33
0
  0
SOLID
  5
EF
100
AcDbEntity
  8
rozmir
  6
ByBlock
 62
    0
370
   -2
100
AcDbTrace
 10
105
 20
-175
 30
0
 11
103.3348613689086
 21
-165
 31
0
 12
106.6651386310914
 22
-165
 32
0
 13
106.6651386310914
 23
-165
 33
0
  0
MTEXT
  5
F0
100
AcDbEntity
  8
rozmir
  6
CONTINUOUS
 62
    0
370
   -2
100
AcDbMText
 10
95
 20
-162.5
 30
0
 40
10
 41
12.22222222222284
 71
    5
 72
    1
  1
25
  7
standard
210
0
220
0
230
1
 50
90
 73
    2
 44
1
  0
LINE
  5
F1
100
AcDbEntity
  8
rozmir
  6
ByBlock
 62
    0
370
   -2
100
AcDbLine
 10
134
 20
-150
 11
103
 21
-150
  0
LINE
  5
F2
100
AcDbEntity
  8
rozmir
  6
ByBlock
 62
    0
370
   -2
100
AcDbLine
 10
141
 20
-175
 11
103
 21
-175
  0
ENDBLK
  5
81
330
7F
100
AcDbEntity
  8
0
100
AcDbBlockEnd
  0
BLOCK
  5
83
330
82
100
AcDbEntity
  8
0
100
AcDbBlockBegin
  2
*D13
 70
    1
 10
0
 20
0
  3
*D13
  1

  0
LINE
  5
F3
100
AcDbEntity
  8
rozmir
  6
ByBlock
 62
    0
370
   -2
100
AcDbLine
 10
350
 20
170
 11
520
 21
170
  0
SOLID
  5
F4
100
AcDbEntity
  8
rozmir
  6
ByBlock
 62
    0
370
   -2
100
AcDbTrace
 10
350
 20
170
 30
0
 11
360
 21
171.6651386310914
 31
0
 12
360
 22
168.3348613689086
 32
0
 13
360
 23
168.3348613689086
 33
0
  0
SOLID
  5
F5
100
AcDbEntity
  8
rozmir
  6
ByBlock
 62
    0
370
   -2
100
AcDbTrace
 10
520
 20
170
 30
0
 11
510
 21
168.3348613689086
 31
0
 12
510
 22
171.6651386310914
 32
0
 13
510
 23
171.6651386310914
 33
0
  0
MTEXT
  5
F6
100
AcDbEntity
  8
rozmir
  6
CONTINUOUS
 62
    0
370
   -2
100
AcDbMText
 10
435
 20
180
 30
0
 40
10
 41
17.77777777777778
 71
    5
 72
    1
  1
170
  7
standard
210
0
220
0
230
1
 50
0
 73
    2
 44
1
  0
LINE
  5
F7
100
AcDbEntity
  8
rozmir
  6
ByBlock
 62
    0
370
   -2
100
AcDbLine
 10
350
 20
51
 11
350
 21
172
  0
LINE
  5
F8
100
AcDbEntity
  8
rozmir
  6
ByBlock
 62
    0
370
   -2
100
AcDbLine
 10
520
 20
151
 11
520
 21
172
  0
ENDBLK
  5
84
330
82
100
AcDbEntity
  8
0
100
AcDbBlockEnd
  0
BLOCK
  5
86
330
85
100
AcDbEntity
  8
0
100
AcDbBlockBegin
  2
*D22
 70
    1
 10
0
 20
0
  3
*D22
  1

  0
LINE
  5
F9
100
AcDbEntity
  8
rozmir
  6
ByBlock
 62
    0
370
   -2
100
AcDbLine
 10
350
 20
200
 11
570
 21
200
  0
SOLID
  5
FA
100
AcDbEntity
  8
rozmir
  6
ByBlock
 62
    0
370
   -2
100
AcDbTrace
 10
350
 20
200
 30
0
 11
360
 21
201.6651386310914
 31
0
 12
360
 22
198.3348613689086
 32
0
 13
360
 23
198.3348613689086
 33
0
  0
SOLID
  5
FB
100
AcDbEntity
  8
rozmir
  6
ByBlock
 62
    0
370
   -2
100
AcDbTrace
 10
570
 20
200
 30
0
 11
560
 21
198.3348613689086
 31
0
 12
560
 22
201.6651386310914
 32
0
 13
560
 23
201.6651386310914
 33
0
  0
MTEXT
  5
FC
100
AcDbEntity
  8
rozmir
  6
CONTINUOUS
 62
    0
370
   -2
100
AcDbMText
 10
460
 20
210
 30
0
 40
10
 41
20
 71
    5
 72
    1
  1
220
  7
standard
210
0
220
0
230
1
 50
0
 73
    2
 44
1
  0
LINE
  5
FD
100
AcDbEntity
  8
rozmir
  6
ByBlock
 62
    0
370
   -2
100
AcDbLine
 10
350
 20
51
 11
350
 21
202
  0
LINE
  5
FE
100
AcDbEntity
  8
rozmir
  6
ByBlock
 62
    0
370
   -2
100
AcDbLine
 10
570
 20
151
 11
570
 21
202
  0
ENDBLK
  5
87
330
85
100
AcDbEntity
  8
0
100
AcDbBlockEnd
  0
BLOCK
  5
89
330
88
100
AcDbEntity
  8
0
100
AcDbBlockBegin
  2
*D9
 70
    1
 10
0
 20
0
  3
*D9
  1

  0
LINE
  5
FF
100
AcDbEntity
  8
rozmir
  6
ByBlock
 62
    0
370
   -2
100
AcDbLine
 10
190
 20
-150
 11
190
 21
-200
  0
SOLID
  5
100
100
AcDbEntity
  8
rozmir
  6
ByBlock
 62
    0
370
   -2
100
AcDbTrace
 10
190
 20
-150
 30
0
 11
191.6651386310914
 21
-160
 31
0
 12
188.3348613689086
 22
-160
 32
0
 13
188.3348613689086
 23
-160
 33
0
  0
SOLID
  5
101
100
AcDbEntity
  8
rozmir
  6
ByBlock
 62
    0
370
   -2
100
AcDbTrace
 10
190
 20
-200
 30
0
 11
188.3348613689086
 21
-190
 31
0
 12
191.6651386310914
 22
-190
 32
0
 13
191.6651386310914
 23
-190
 33
0
  0
MTEXT
  5
102
100
AcDbEntity
  8
rozmir
  6
CONTINUOUS
 62
    0
370
   -2
100
AcDbMText
 10
180
 20
-175
 30
0
 40
10
 41
12.22222222222284
 71
    5
 72
    1
  1
50
  7
standard
210
0
220
0
230
1
 50
90
 73
    2
 44
1
  0
LINE
  5
103
100
AcDbEntity
  8
rozmir
  6
ByBlock
 62
    0
370
   -2
100
AcDbLine
 10
161
 20
-150
 11
192
 21
-150
  0
LINE
  5
104
100
AcDbEntity
  8
rozmir
  6
ByBlock
 62
    0
370
   -2
100
AcDbLine
 10
161
 20
-200
 11
192
 21
-200
  0
ENDBLK
  5
8A
330
88
100
AcDbEntity
  8
0
100
AcDbBlockEnd
  0
BLOCK
  5
8C
330
8B
100
AcDbEntity
  8
0
100
AcDbBlockBegin
  2
*D21
 70
    1
 10
0
 20
0
  3
*D21
  1

  0
LINE
  5
105
100
AcDbEntity
  8
rozmir
  6
CONTINUOUS
 62
    7
370
    0
100
AcDbLine
 10
547.9
 20
121.5
 11
560
 21
80
  0
LINE
  5
106
100
AcDbEntity
  8
rozmir
  6
CONTINUOUS
 62
    7
370
    0
100
AcDbLine
 10
560
 20
80
 11
560
 21
10
  0
SOLID
  5
107
100
AcDbEntity
  8
rozmir
  6
CONTINUOUS
 62
    7
370
    0
100
AcDbTrace
 10
547.9
 20
121.5
 30
0
 11
552.2976878961883
 21
112.3658318480296
 31
0
 12
549.100535453584
 22
111.4336500515112
 32
0
 13
549.100535453584
 23
111.4336500515112
 33
0
  0
ENDBLK
  5
8D
330
8B
100
AcDbEntity
  8
0
100
AcDbBlockEnd
  0
BLOCK
  5
8F
330
8E
100
AcDbEntity
  8
0
100
AcDbBlockBegin
  2
*D17
 70
    1
 10
0
 20
0
  3
*D17
  1

  0
LINE
  5
108
100
AcDbEntity
  8
rozmir
  6
ByBlock
 62
    0
370
   -2
100
AcDbLine
 10
480
 20
0
 11
480
 21
-100
  0
SOLID
  5
109
100
AcDbEntity
  8
rozmir
  6
ByBlock
 62
    0
370
   -2
100
AcDbTrace
 10
480
 20
0
 30
0
 11
481.6651386310913
 21
-10
 31
0
 12
478.3348613689087
 22
-10
 32
0
 13
478.3348613689087
 23
-10
 33
0
  0
SOLID
  5
10A
100
AcDbEntity
  8
rozmir
  6
ByBlock
 62
    0
370
   -2
100
AcDbTrace
 10
480
 20
-100
 30
0
 11
478.3348613689087
 21
-90
 31
0
 12
481.6651386310913
 22
-90
 32
0
 13
481.6651386310913
 23
-90
 33
0
  0
MTEXT
  5
10B
100
AcDbEntity
  8
rozmir
  6
CONTINUOUS
 62
    0
370
   -2
100
AcDbMText
 10
470
 20
-50
 30
0
 40
10
 41
17.77777777777778
 71
    5
 72
    1
  1
100
  7
standard
210
0
220
0
230
1
 50
90
 73
    2
 44
1
  0
LINE
  5
10C
100
AcDbEntity
  8
rozmir
  6
ByBlock
 62
    0
370
   -2
100
AcDbLine
 10
519
 20
1.224646799147353e-16
 11
478
 21
2.449293598294706e-16
  0
LINE
  5
10D
100
AcDbEntity
  8
rozmir
  6
ByBlock
 62
    0
370
   -2
100
AcDbLine
 10
519
 20
-100
 11
478
 21
-100
  0
ENDBLK
  5
90
330
8E
100
AcDbEntity
  8
0
100
AcDbBlockEnd
  0
BLOCK
  5
92
330
91
100
AcDbEntity
  8
0
100
AcDbBlockBegin
  2
*D14
 70
    1
 10
0
 20
0
  3
*D14
  1

  0
LINE
  5
10E
100
AcDbEntity
  8
rozmir
  6
ByBlock
 62
    0
370
   -2
100
AcDbLine
 10
370
 20
100
 11
320
 21
100
  0
SOLID
  5
10F
100
AcDbEntity
  8
rozmir
  6
ByBlock
 62
    0
370
   -2
100
AcDbTrace
 10
350
 20
100
 30
0
 11
360
 21
101.6651386310914
 31
0
 12
360
 22
98.33486136890863
 32
0
 13
360
 23
98.33486136890863
 33
0
  0
SOLID
  5
110
100
AcDbEntity
  8
rozmir
  6
ByBlock
 62
    0
370
   -2
100
AcDbTrace
 10
340
 20
100
 30
0
 11
330
 21
98.33486136890863
 31
0
 12
330
 22
101.6651386310914
 32
0
 13
330
 23
101.6651386310914
 33
0
  0
MTEXT
  5
111
100
AcDbEntity
  8
rozmir
  6
CONTINUOUS
 62
    0
370
   -2
100
AcDbMText
 10
345
 20
110
 30
0
 40
10
 41
10
 71
    5
 72
    1
  1
10
  7
standard
210
0
220
0
230
1
 50
360
 73
    2
 44
1
  0
LINE
  5
112
100
AcDbEntity
  8
rozmir
  6
ByBlock
 62
    0
370
   -2
100
AcDbLine
 10
350
 20
51
 11
350
 21
102
  0
LINE
  5
113
100
AcDbEntity
  8
rozmir
  6
ByBlock
 62
    0
370
   -2
100
AcDbLine
 10
340
 20
71
 11
340
 21
102
  0
ENDBLK
  5
93
330
91
100
AcDbEntity
  8
0
100
AcDbBlockEnd
  0
BLOCK
  5
95
330
94
100
AcDbEntity
  8
0
100
AcDbBlockBegin
  2
*D4
 70
    1
 10
0
 20
0
  3
*D4
  1

  0
LINE
  5
114
100
AcDbEntity
  8
rozmir
  6
ByBlock
 62
    0
370
   -2
100
AcDbLine
 10
260
 20
120
 11
260
 21
70
  0
SOLID
  5
115
100
AcDbEntity
  8
rozmir
  6
ByBlock
 62
    0
370
   -2
100
AcDbTrace
 10
260
 20
120
 30
0
 11
261.6651386310913
 21
110
 31
0
 12
258.3348613689087
 22
110
 32
0
 13
258.3348613689087
 23
110
 33
0
  0
SOLID
  5
116
100
AcDbEntity
  8
rozmir
  6
ByBlock
 62
    0
370
   -2
100
AcDbTrace
 10
260
 20
70
 30
0
 11
258.3348613689087
 21
80
 31
0
 12
261.6651386310913
 22
80
 32
0
 13
261.6651386310913
 23
80
 33
0
  0
MTEXT
  5
117
100
AcDbEntity
  8
rozmir
  6
CONTINUOUS
 62
    0
370
   -2
100
AcDbMText
 10
250
 20
95
 30
0
 40
10
 41
12.22222222222284
 71
    5
 72
    1
  1
50
  7
standard
210
0
220
0
230
1
 50
90
 73
    2
 44
1
  0
LINE
  5
118
100
AcDbEntity
  8
rozmir
  6
ByBlock
 62
    0
370
   -2
100
AcDbLine
 10
231
 20
120
 11
262
 21
120
  0
LINE
  5
119
100
AcDbEntity
  8
rozmir
  6
ByBlock
 62
    0
370
   -2
100
AcDbLine
 10
231
 20
70
 11
262
 21
70
  0
ENDBLK
  5
96
330
94
100
AcDbEntity
  8
0
100
AcDbBlockEnd
  0
ENDSEC
  0
SECTION
  2
ENTITIES
  0
DIMENSION
  5
11A
100
AcDbEntity
  8
rozmir
  6
ByLayer
 62
  256
370
   -1
100
AcDbDimension
  2
*D1
 10
-10
 20
170
 30
0
 11
-40
 21
180
 31
0
 70
   32
 71
    5
 72
    0
  3
Standard
 53
0
210
0
220
0
230
1
100
AcDbAlignedDimension
 13
0
 23
120
 33
0
 14
-10
 24
140
 34
0
100
AcDbRotatedDimension
  0
LINE
  5
11B
100
AcDbEntity
  8
ramka
  6
DASHED2
 62
  256
370
   -1
100
AcDbLine
 10
40
 20
120
 11
40
 21
70
  0
LWPOLYLINE
  5
11C
100
AcDbEntity
  8
ramka
  6
ByLayer
 62
  256
370
   -1
100
AcDbPolyline
 90
   24
 70
    0
 43
0
 10
40
 20
70
 10
40
 20
50
 10
30
 20
50
 10
28
 20
54
 10
24
 20
46
 10
22
 20
50
 10
8
 20
50
 10
6
 20
54
 10
2
 20
46
 10
0
 20
50
 10
-10
 20
50
 10
0
 20
50
 10
-10
 20
50
 10
-10
 20
140
 10
0
 20
140
 10
2
 20
136
 10
6
 20
144
 10
8
 20
140
 10
22
 20
140
 10
24
 20
136
 10
28
 20
144
 10
30
 20
140
 10
40
 20
140
 10
40
 20
120
  0
LINE
  5
11D
100
AcDbEntity
  8
rozmir
  6
DASHDOT2
 62
  256
370
   -1
100
AcDbLine
 10
205
 20
102
 11
205
 21
88
  0
LINE
  5
11E
100
AcDbEntity
  8
rozmir
  6
DASHDOT2
 62
  256
370
   -1
100
AcDbLine
 10
198
 20
95
 11
212
 21
95
  0
DIMENSION
  5
11F
100
AcDbEntity
  8
rozmir
  6
ByLayer
 62
  256
370
   -1
100
AcDbDimension
  2
*D2
 10
175
 20
100
 30
0
 11
165
 21
107.5
 31
0
 70
   32
 71
    5
 72
    0
  3
Standard
 53
0
210
0
220
0
230
1
100
AcDbAlignedDimension
 13
205
 23
120
 33
0
 14
212
 24
95
 34
0
 50
90
100
AcDbRotatedDimension
  0
CIRCLE
  5
120
100
AcDbEntity
  8
kronshtein
  6
ByLayer
 62
  256
370
   -1
100
AcDbCircle
 10
205
 20
95
 40
4.500000000000028
  0
DIMENSION
  5
121
100
AcDbEntity
  8
rozmir
  6
ByLayer
 62
  256
370
   -1
100
AcDbDimension
  2
*D3
 10
202.1888722860051
 20
91.48609035750633
 30
0
 11
175
 21
69
 31
0
 70
   35
  1
%%C<>
 71
    5
  3
Standard
 53
0
210
0
220
0
230
1
100
AcDbDiametricDimension
 15
207.8111277139949
 25
98.51390964249367
 35
0
 40
0
  0
LWPOLYLINE
  5
122
100
AcDbEntity
  8
kronshtein
  6
ByLayer
 62
  256
370
   -1
100
AcDbPolyline
 90
    4
 70
    1
 43
0
 10
0
 20
70
 10
230
 20
70
 10
230
 20
120
 10
0
 20
120
  0
DIMENSION
  5
123
100
AcDbEntity
  8
rozmir
  6
ByLayer
 62
  256
370
   -1
100
AcDbDimension
  2
*D4
 10
260
 20
70
 30
0
 11
250
 21
95
 31
0
 70
   32
 71
    5
 72
    0
  3
Standard
 53
0
210
0
220
0
230
1
100
AcDbAlignedDimension
 13
230
 23
120
 33
0
 14
230
 24
70
 34
0
 50
90
100
AcDbRotatedDimension
  0
DIMENSION
  5
124
100
AcDbEntity
  8
rozmir
  6
ByLayer
 62
  256
370
   -1
100
AcDbDimension
  2
*D5
 10
230
 20
200
 30
0
 11
115
 21
210
 31
0
 70
   32
 71
    5
 72
    0
  3
Standard
 53
0
210
0
220
0
230
1
100
AcDbAlignedDimension
 13
0
 23
120
 33
0
 14
230
 24
120
 34
0
100
AcDbRotatedDimension
  0
MTEXT
  5
125
100
AcDbEntity
  8
tekst
  6
ByLayer
 62
  256
370
   -1
100
AcDbMText
 10
110
 20
240
 30
0
 40
15
 41
224.583333333334
 71
    8
 72
    1
  1
Кронштейн верхнього \Pкріплення 4 шт
  7
cyrillic_ii
210
0
220
0
230
1
 50
0
 73
    2
 44
1
  0
DIMENSION
  5
126
100
AcDbEntity
  8
rozmir
  6
ByLayer
 62
  256
370
   -1
100
AcDbDimension
  2
*D6
 10
40
 20
-100
 30
0
 11
10
 21
-90
 31
0
 70
   32
 71
    5
 72
    0
  3
Standard
 53
0
210
0
220
0
230
1
100
AcDbAlignedDimension
 13
50
 23
-150
 33
0
 14
40
 24
-130
 34
0
100
AcDbRotatedDimension
  0
LINE
  5
127
100
AcDbEntity
  8
ramka
  6
DASHED2
 62
  256
370
   -1
100
AcDbLine
 10
90
 20
-150
 11
90
 21
-200
  0
LWPOLYLINE
  5
128
100
AcDbEntity
  8
ramka
  6
ByLayer
 62
  256
370
   -1
100
AcDbPolyline
 90
   24
 70
    0
 43
0
 10
90
 20
-200
 10
90
 20
-220
 10
80
 20
-220
 10
78
 20
-216
 10
74
 20
-224
 10
72
 20
-220
 10
58
 20
-220
 10
56
 20
-216
 10
52
 20
-224
 10
50
 20
-220
 10
40
 20
-220
 10
50
 20
-220
 10
40
 20
-220
 10
40
 20
-130
 10
50
 20
-130
 10
52
 20
-134
 10
56
 20
-126
 10
58
 20
-130
 10
72
 20
-130
 10
74
 20
-134
 10
78
 20
-126
 10
80
 20
-130
 10
90
 20
-130
 10
90
 20
-150
  0
LINE
  5
129
100
AcDbEntity
  8
rozmir
  6
DASHDOT2
 62
  256
370
   -1
100
AcDbLine
 10
135
 20
-168
 11
135
 21
-182
  0
LINE
  5
12A
100
AcDbEntity
  8
rozmir
  6
DASHDOT2
 62
  256
370
   -1
100
AcDbLine
 10
128
 20
-175
 11
142
 21
-175
  0
DIMENSION
  5
12B
100
AcDbEntity
  8
rozmir
  6
ByLayer
 62
  256
370
   -1
100
AcDbDimension
  2
*D7
 10
105
 20
-170
 30
0
 11
95
 21
-162.5
 31
0
 70
   32
 71
    5
 72
    0
  3
Standard
 53
0
210
0
220
0
230
1
100
AcDbAlignedDimension
 13
135
 23
-150
 33
0
 14
142
 24
-175
 34
0
 50
90
100
AcDbRotatedDimension
  0
CIRCLE
  5
12C
100
AcDbEntity
  8
kronshtein
  6
ByLayer
 62
  256
370
   -1
100
AcDbCircle
 10
135
 20
-175
 40
4.500000000000028
  0
DIMENSION
  5
12D
100
AcDbEntity
  8
rozmir
  6
ByLayer
 62
  256
370
   -1
100
AcDbDimension
  2
*D8
 10
132.1888722860051
 20
-178.5139096424937
 30
0
 11
105
 21
-201
 31
0
 70
   35
  1
%%C<>
 71
    5
  3
Standard
 53
0
210
0
220
0
230
1
100
AcDbDiametricDimension
 15
137.8111277139949
 25
-171.4860903575063
 35
0
 40
0
  0
LWPOLYLINE
  5
12E
100
AcDbEntity
  8
kronshtein
  6
ByLayer
 62
  256
370
   -1
100
AcDbPolyline
 90
    4
 70
    1
 43
0
 10
50
 20
-200
 10
160
 20
-200
 10
160
 20
-150
 10
50
 20
-150
  0
DIMENSION
  5
12F
100
AcDbEntity
  8
rozmir
  6
ByLayer
 62
  256
370
   -1
100
AcDbDimension
  2
*D9
 10
190
 20
-200
 30
0
 11
180
 21
-175
 31
0
 70
   32
 71
    5
 72
    0
  3
Standard
 53
0
210
0
220
0
230
1
100
AcDbAlignedDimension
 13
160
 23
-150
 33
0
 14
160
 24
-200
 34
0
 50
90
100
AcDbRotatedDimension
  0
MTEXT
  5
130
100
AcDbEntity
  8
rozmir
  6
ByLayer
 62
  256
370
   -1
100
AcDbMText
 10
110
 20
-30
 30
0
 40
15
 41
216.2500000000007
 71
    8
 72
    1
  1
Кронштейн нижнього \Pкріплення 4 шт
  7
cyrillic_ii
210
0
220
0
230
1
 50
0
 73
    2
 44
1
  0
DIMENSION
  5
131
100
AcDbEntity
  8
rozmir
  6
ByLayer
 62
  256
370
   -1
100
AcDbDimension
  2
*D10
 10
130
 20
-100
 30
0
 11
92.5
 21
-90
 31
0
 70
   32
 71
    5
 72
    0
  3
Standard
 53
0
210
0
220
0
230
1
100
AcDbAlignedDimension
 13
50
 23
-150
 33
0
 14
135
 24
-168
 34
0
100
AcDbRotatedDimension
  0
DIMENSION
  5
132
100
AcDbEntity
  8
rozmir
  6
ByLayer
 62
  256
370
   -1
100
AcDbDimension
  2
*D11
 10
160
 20
-70
 30
0
 11
105
 21
-60
 31
0
 70
   32
 71
    5
 72
    0
  3
Standard
 53
0
210
0
220
0
230
1
100
AcDbAlignedDimension
 13
50
 23
-150
 33
0
 14
160
 24
-150
 34
0
100
AcDbRotatedDimension
  0
LINE
  5
133
100
AcDbEntity
  8
rozmir
  6
DASHDOT2
 62
  256
370
   -1
100
AcDbLine
 10
545
 20
132
 11
545
 21
118
  0
LINE
  5
134
100
AcDbEntity
  8
rozmir
  6
DASHDOT2
 62
  256
370
   -1
100
AcDbLine
 10
538
 20
125
 11
552
 21
125
  0
LINE
  5
135
100
AcDbEntity
  8
rozmir
  6
DASHDOT2
 62
  256
370
   -1
100
AcDbLine
 10
545
 20
-68
 11
545
 21
-82
  0
LINE
  5
136
100
AcDbEntity
  8
rozmir
  6
DASHDOT2
 62
  256
370
   -1
100
AcDbLine
 10
538
 20
-75
 11
552
 21
-75
  0
DIMENSION
  5
137
100
AcDbEntity
  8
rozmir
  6
ByLayer
 62
  256
370
   -1
100
AcDbDimension
  2
*D12
 10
570
 20
170
 30
0
 11
545
 21
180
 31
0
 70
   32
 71
    5
 72
    0
  3
Standard
 53
0
210
0
220
0
230
1
100
AcDbAlignedDimension
 13
520
 23
150
 33
0
 14
570
 24
150
 34
0
100
AcDbRotatedDimension
  0
DIMENSION
  5
138
100
AcDbEntity
  8
rozmir
  6
ByLayer
 62
  256
370
   -1
100
AcDbDimension
  2
*D13
 10
520
 20
170
 30
0
 11
435
 21
180
 31
0
 70
   32
 71
    5
 72
    0
  3
Standard
 53
0
210
0
220
0
230
1
100
AcDbAlignedDimension
 13
350
 23
50
 33
0
 14
520
 24
150
 34
0
100
AcDbRotatedDimension
  0
DIMENSION
  5
139
100
AcDbEntity
  8
rozmir
  6
ByLayer
 62
  256
370
   -1
100
AcDbDimension
  2
*D14
 10
340
 20
100
 30
0
 11
345
 21
110
 31
0
 70
   32
 71
    5
 72
    0
  3
Standard
 53
0
210
0
220
0
230
1
100
AcDbAlignedDimension
 13
350
 23
50
 33
0
 14
340
 24
70
 34
0
100
AcDbRotatedDimension
  0
DIMENSION
  5
13A
100
AcDbEntity
  8
rozmir
  6
ByLayer
 62
  256
370
   -1
100
AcDbDimension
  2
*D15
 10
500
 20
125
 30
0
 11
490
 21
137.5
 31
0
 70
   32
 71
    5
 72
    0
  3
Standard
 53
0
210
0
220
0
230
1
100
AcDbAlignedDimension
 13
520
 23
150
 33
0
 14
545
 24
125
 34
0
 50
90
100
AcDbRotatedDimension
  0
DIMENSION
  5
13B
100
AcDbEntity
  8
rozmir
  6
ByLayer
 62
  256
370
   -1
100
AcDbDimension
  2
*D16
 10
480
 20
50
 30
0
 11
470
 21
100
 31
0
 70
   32
 71
    5
 72
    0
  3
Standard
 53
0
210
0
220
0
230
1
100
AcDbAlignedDimension
 13
520
 23
150
 33
0
 14
520
 24
50
 34
0
 50
90
100
AcDbRotatedDimension
  0
DIMENSION
  5
13C
100
AcDbEntity
  8
rozmir
  6
ByLayer
 62
  256
370
   -1
100
AcDbDimension
  2
*D17
 10
480
 20
-100
 30
0
 11
470
 21
-50
 31
0
 70
   32
 71
    5
 72
    0
  3
Standard
 53
0
210
0
220
0
230
1
100
AcDbAlignedDimension
 13
520
 23
0
 33
0
 14
520
 24
-100
 34
0
 50
90
100
AcDbRotatedDimension
  0
DIMENSION
  5
13D
100
AcDbEntity
  8
rozmir
  6
ByLayer
 62
  256
370
   -1
100
AcDbDimension
  2
*D18
 10
545
 20
90
 30
0
 11
532.5
 21
100
 31
0
 70
   32
 71
    5
 72
    0
  3
Standard
 53
0
210
0
220
0
230
1
100
AcDbAlignedDimension
 13
520
 23
150
 33
0
 14
545
 24
118
 34
0
100
AcDbRotatedDimension
  0
LWPOLYLINE
  5
13E
100
AcDbEntity
  8
kronshtein
  6
ByLayer
 62
  256
370
   -1
100
AcDbPolyline
 90
    4
 70
    1
 43
0
 10
350
 20
0
 10
520
 20
0
 10
520
 20
50
 10
350
 20
50
  0
LWPOLYLINE
  5
13F
100
AcDbEntity
  8
kronshtein
  6
ByLayer
 62
  256
370
   -1
100
AcDbPolyline
 90
    4
 70
    1
 43
0
 10
570
 20
-100
 10
520
 20
-100
 10
520
 20
150
 10
570
 20
150
  0
DIMENSION
  5
140
100
AcDbEntity
  8
rozmir
  6
ByLayer
 62
  256
370
   -1
100
AcDbDimension
  2
*D19
 10
480
 20
0
 30
0
 11
470
 21
25
 31
0
 70
   32
 71
    5
 72
    0
  3
Standard
 53
0
210
0
220
0
230
1
100
AcDbAlignedDimension
 13
520
 23
50
 33
0
 14
520
 24
0
 34
0
 50
90
100
AcDbRotatedDimension
  0
DIMENSION
  5
141
100
AcDbEntity
  8
rozmir
  6
ByLayer
 62
  256
370
   -1
100
AcDbDimension
  2
*D20
 10
600
 20
-100
 30
0
 11
590
 21
25
 31
0
 70
   32
 71
    5
 72
    0
  3
Standard
 53
0
210
0
220
0
230
1
100
AcDbAlignedDimension
 13
570
 23
150
 33
0
 14
570
 24
-100
 34
0
 50
90
100
AcDbRotatedDimension
  0
MTEXT
  5
142
100
AcDbEntity
  8
rozmir
  6
ByLayer
 62
  256
370
   -1
100
AcDbMText
 10
558
 20
78
 30
0
 40
10
 41
66.11111111111158
 71
    9
 72
    1
  1
2 отв. %%C8
  7
cyrillic_ii
210
0
220
0
230
1
 50
90
 73
    2
 44
1
  0
LINE
  5
143
100
AcDbEntity
  8
ramka
  6
DASHED2
 62
  256
370
   -1
100
AcDbLine
 10
390
 20
50
 11
390
 21
0
  0
LWPOLYLINE
  5
144
100
AcDbEntity
  8
ramka
  6
ByLayer
 62
  256
370
   -1
100
AcDbPolyline
 90
   24
 70
    0
 43
0
 10
390
 20
0
 10
390
 20
-20
 10
380
 20
-20
 10
378
 20
-16
 10
374
 20
-24
 10
372
 20
-20
 10
358
 20
-20
 10
356
 20
-16
 10
352
 20
-24
 10
350
 20
-20
 10
340
 20
-20
 10
350
 20
-20
 10
340
 20
-20
 10
340
 20
70
 10
350
 20
70
 10
352
 20
66
 10
356
 20
74
 10
358
 20
70
 10
372
 20
70
 10
374
 20
66
 10
378
 20
74
 10
380
 20
70
 10
390
 20
70
 10
390
 20
50
  0
CIRCLE
  5
145
100
AcDbEntity
  8
kronshtein
  6
ByLayer
 62
  256
370
   -1
100
AcDbCircle
 10
545
 20
-75
 40
4.500000000000028
  0
CIRCLE
  5
146
100
AcDbEntity
  8
kronshtein
  6
ByLayer
 62
  256
370
   -1
100
AcDbCircle
 10
545
 20
125
 40
4.500000000000028
  0
LEADER
  5
147
100
AcDbEntity
  8
rozmir
  6
ByLayer
 62
  256
370
   -1
100
AcDbLeader
  3
Standard
 71
    1
 72
    0
 73
    3
 74
    0
 75
    0
 40
1
 41
10
 76
3
 76
3
 10
547.9
 20
121.5
 30
0
 10
560
 20
80
 30
0
 10
560
 20
10
 30
0
  0
MTEXT
  5
148
100
AcDbEntity
  8
tekst
  6
ByLayer
 62
  256
370
   -1
100
AcDbMText
 10
460
 20
240
 30
0
 40
15
 41
194.583333333334
 71
    8
 72
    1
  1
Кронштейн бічного\Pкріплення 6 шт
  7
cyrillic_ii
210
0
220
0
230
1
 50
0
 73
    2
 44
1
  0
DIMENSION
  5
149
100
AcDbEntity
  8
rozmir
  6
ByLayer
 62
  256
370
   -1
100
AcDbDimension
  2
*D22
 10
570
 20
200
 30
0
 11
460
 21
210
 31
0
 70
   32
 71
    5
 72
    0
  3
Standard
 53
0
210
0
220
0
230
1
100
AcDbAlignedDimension
 13
350
 23
50
 33
0
 14
570
 24
150
 34
0
100
AcDbRotatedDimension
  0
MTEXT
  5
14A
100
AcDbEntity
  8
tekst
  6
ByLayer
 62
  256
370
   -1
100
AcDbMText
 10
300
 20
300
 30
0
 40
20
 41
394.4444444444473
 71
    8
 72
    1
  1
Кронштейни кріплення воріт
  7
cyrillic_ii
210
0
220
0
230
1
 50
0
 73
    2
 44
1
  0
LINE
  5
14B
100
AcDbEntity
  8
tekst
  6
ByLayer
 62
  256
370
   -1
100
AcDbLine
 10
101
 20
303
 11
500
 21
303
  0
MTEXT
  5
14C
100
AcDbEntity
  8
tekst
  6
ByLayer
 62
  256
370
   -1
100
AcDbMText
 10
300
 20
-200
 30
0
 40
15
 41
272.0833333333357
 71
    7
 72
    1
  1
Матеріал штаба 50×4 мм
  7
cyrillic_ii
210
0
220
0
230
1
 50
0
 73
    2
 44
1
  0
DIMENSION
  5
14D
100
AcDbEntity
  8
rozmir
  6
ByLayer
 62
  256
370
   -1
100
AcDbDimension
  2
*D23
 10
210
 20
170
 30
0
 11
217.5
 21
180
 31
0
 70
   32
 71
    5
 72
    0
  3
Standard
 53
0
210
0
220
0
230
1
100
AcDbAlignedDimension
 13
230
 23
120
 33
0
 14
205
 24
102
 34
0
100
AcDbRotatedDimension
  0
ENDSEC
  0
SECTION
  2
OBJECTS
  0
DICTIONARY
  5
C
330
0
100
AcDbDictionary
281
    1
  3
ACAD_GROUP
350
D
  0
DICTIONARY
  5
D
330
C
100
AcDbDictionary
281
    1
  0
ENDSEC
  0
EOF
