999
dxfrw 0.6.3
  0
SECTION
  2
HEADER
  9
$ACADVER
  1
AC1021
  9
$DWGCODEPAGE
  3
ANSI_1252
  9
$INSBASE
 10
0
 20
0
 30
0
  9
$EXTMIN
 10
-106.25
 20
-20
 30
0
  9
$EXTMAX
 10
480.2777777777783
 20
400.0039601027073
 30
0
  9
$LIMMIN
 10
0
 20
0
  9
$LIMMAX
 10
420
 20
297
  9
$ORTHOMODE
 70
    0
  9
$REGENMODE
 70
    1
  9
$FILLMODE
 70
    1
  9
$QTEXTMODE
 70
    0
  9
$MIRRTEXT
 70
    0
  9
$LTSCALE
 40
1
  9
$ATTMODE
 70
    0
  9
$TEXTSIZE
 40
2.5
  9
$TRACEWID
 40
15.68
  9
$TEXTSTYLE
  7
STANDARD
  9
$CLAYER
  8
Dim
  9
$CELTYPE
  6
BYLAYER
  9
$CECOLOR
 62
  256
  9
$CELTSCALE
 40
1
  9
$DISPSILH
 70
    0
  9
$DIMSCALE
 40
2
  9
$DIMASZ
 40
2.5
  9
$DIMEXO
 40
0.625
  9
$DIMDLI
 40
3.75
  9
$DIMRND
 40
0
  9
$DIMDLE
 40
0
  9
$DIMEXE
 40
1.25
  9
$DIMTP
 40
0
  9
$DIMTM
 40
0
  9
$DIMTXT
 40
2.5
  9
$DIMCEN
 40
2.5
  9
$DIMTSZ
 40
0
  9
$DIMTOL
 70
    0
  9
$DIMLIM
 70
    0
  9
$DIMTIH
 70
    0
  9
$DIMTOH
 70
    0
  9
$DIMSE1
 70
    0
  9
$DIMSE2
 70
    0
  9
$DIMTAD
 70
    1
  9
$DIMZIN
 70
    8
  9
$DIMBLK
  1

  9
$DIMASO
 70
    1
  9
$DIMSHO
 70
    1
  9
$DIMPOST
  1

  9
$DIMAPOST
  1

  9
$DIMALT
 70
    0
  9
$DIMALTD
 70
    3
  9
$DIMALTF
 40
0.03937
  9
$DIMLFAC
 40
1
  9
$DIMTOFL
 70
    1
  9
$DIMTVP
 40
0
  9
$DIMTIX
 70
    0
  9
$DIMSOXD
 70
    0
  9
$DIMSAH
 70
    0
  9
$DIMBLK1
  1

  9
$DIMBLK2
  1

  9
$DIMSTYLE
  2
STANDARD
  9
$DIMCLRD
 70
    0
  9
$DIMCLRE
 70
    0
  9
$DIMCLRT
 70
    0
  9
$DIMTFAC
 40
1
  9
$DIMGAP
 40
0.625
  9
$DIMJUST
 70
    0
  9
$DIMSD1
 70
    0
  9
$DIMSD2
 70
    0
  9
$DIMTOLJ
 70
    0
  9
$DIMTZIN
 70
    8
  9
$DIMALTZ
 70
    0
  9
$DIMALTTZ
 70
    0
  9
$DIMUPT
 70
    0
  9
$DIMDEC
 70
    1
  9
$DIMTDEC
 70
    2
  9
$DIMALTU
 70
    2
  9
$DIMALTTD
 70
    3
  9
$DIMTXSTY
  7
standard
  9
$DIMAUNIT
 70
    0
  9
$DIMADEC
 70
    1
  9
$DIMALTRND
 40
0
  9
$DIMAZIN
 70
    2
  9
$DIMDSEP
 70
   44
  9
$DIMATFIT
 70
    3
  9
$DIMFRAC
 70
    0
  9
$DIMLDRBLK
  1
STANDARD
  9
$DIMLUNIT
 70
    2
  9
$DIMLWD
 70
   -2
  9
$DIMLWE
 70
   -2
  9
$DIMTMOVE
 70
    0
  9
$DIMFXL
 40
1
  9
$DIMFXLON
 70
    0
  9
$DIMJOGANG
 40
0.7854
  9
$DIMTFILL
 70
    0
  9
$DIMTFILLCLR
 70
    0
  9
$DIMARCSYM
 70
    0
  9
$DIMLTYPE
  6

  9
$DIMLTEX1
  6

  9
$DIMLTEX2
  6

  9
$LUNITS
 70
    2
  9
$LUPREC
 70
    1
  9
$SKETCHINC
 40
1
  9
$FILLETRAD
 40
0
  9
$AUNITS
 70
    0
  9
$AUPREC
 70
    1
  9
$MENU
  1
.
  9
$ELEVATION
 40
0
  9
$PELEVATION
 40
0
  9
$THICKNESS
 40
0
  9
$LIMCHECK
 70
    0
  9
$CHAMFERA
 40
0
  9
$CHAMFERB
 40
0
  9
$CHAMFERC
 40
0
  9
$CHAMFERD
 40
0
  9
$SKPOLY
 70
    0
  9
$USRTIMER
 70
    1
  9
$ANGBASE
 50
0
  9
$ANGDIR
 70
    0
  9
$PDMODE
 70
   34
  9
$PDSIZE
 40
0
  9
$PLINEWID
 40
0
  9
$SPLFRAME
 70
    0
  9
$SPLINETYPE
 70
    2
  9
$SPLINESEGS
 70
    8
  9
$HANDSEED
  5
20000
  9
$SURFTAB1
 70
    6
  9
$SURFTAB2
 70
    6
  9
$SURFTYPE
 70
    6
  9
$SURFU
 70
    6
  9
$SURFV
 70
    6
  9
$UCSBASE
  2

  9
$UCSNAME
  2

  9
$UCSORG
 10
0
 20
0
 30
0
  9
$UCSXDIR
 10
1
 20
0
 30
0
  9
$UCSYDIR
 10
0
 20
1
 30
0
  9
$UCSORTHOREF
  2

  9
$UCSORTHOVIEW
 70
    0
  9
$UCSORGTOP
 10
0
 20
0
 30
0
  9
$UCSORGBOTTOM
 10
0
 20
0
 30
0
  9
$UCSORGLEFT
 10
0
 20
0
 30
0
  9
$UCSORGRIGHT
 10
0
 20
0
 30
0
  9
$UCSORGFRONT
 10
0
 20
0
 30
0
  9
$UCSORGBACK
 10
0
 20
0
 30
0
  9
$PUCSBASE
  2

  9
$PUCSNAME
  2

  9
$PUCSORG
 10
0
 20
0
 30
0
  9
$PUCSXDIR
 10
1
 20
0
 30
0
  9
$PUCSYDIR
 10
0
 20
1
 30
0
  9
$PUCSORTHOREF
  2

  9
$PUCSORTHOVIEW
 70
    0
  9
$PUCSORGTOP
 10
0
 20
0
 30
0
  9
$PUCSORGBOTTOM
 10
0
 20
0
 30
0
  9
$PUCSORGLEFT
 10
0
 20
0
 30
0
  9
$PUCSORGRIGHT
 10
0
 20
0
 30
0
  9
$PUCSORGFRONT
 10
0
 20
0
 30
0
  9
$PUCSORGBACK
 10
0
 20
0
 30
0
  9
$USERI1
 70
    0
  9
$USERI2
 70
    0
  9
$USERI3
 70
    0
  9
$USERI4
 70
    0
  9
$USERI5
 70
    0
  9
$USERR1
 40
0
  9
$USERR2
 40
0
  9
$USERR3
 40
0
  9
$USERR4
 40
0
  9
$USERR5
 40
0
  9
$WORLDVIEW
 70
    1
  9
$SHADEDGE
 70
    3
  9
$SHADEDIF
 70
   70
  9
$TILEMODE
 70
    1
  9
$MAXACTVP
 70
   64
  9
$PINSBASE
 10
66.12561134903578
 20
21.30944074692821
 30
0
  9
$PLIMCHECK
 70
    0
  9
$PEXTMIN
 10
0
 20
0
 30
0
  9
$PEXTMAX
 10
0
 20
0
 30
0
  9
$GRIDMODE
 70
    1
  9
$SNAPSTYLE
 70
    0
  9
$GRIDUNIT
 10
0
 20
0
  9
$PLIMMIN
 10
0
 20
0
  9
$PLIMMAX
 10
297
 20
210
  9
$UNITMODE
 70
    0
  9
$VISRETAIN
 70
    1
  9
$PLINEGEN
 70
    0
  9
$PSLTSCALE
 70
    1
  9
$TREEDEPTH
 70
 3020
  9
$CMLSTYLE
  2
Standard
  9
$CMLJUST
 70
    0
  9
$CMLSCALE
 40
20
  9
$PROXYGRAPHICS
 70
    1
  9
$MEASUREMENT
 70
    1
  9
$CELWEIGHT
370
   -1
  9
$ENDCAPS
280
    0
  9
$JOINSTYLE
280
    0
  9
$LWDISPLAY
290
    0
  9
$INSUNITS
 70
    4
  9
$HYPERLINKBASE
  1

  9
$STYLESHEET
  1

  9
$XEDIT
290
    1
  9
$CEPSNTYPE
380
    0
  9
$PSTYLEMODE
290
    1
  9
$EXTNAMES
290
    1
  9
$PSVPSCALE
 40
0.440472362561611
  9
$OLESTARTUP
290
    0
  9
$SORTENTS
280
  127
  9
$INDEXCTL
280
    0
  9
$HIDETEXT
280
    1
  9
$XCLIPFRAME
290
    0
  9
$HALOGAP
280
    0
  9
$OBSCOLOR
 70
  257
  9
$OBSLTYPE
280
    0
  9
$INTERSECTIONDISPLAY
280
    0
  9
$INTERSECTIONCOLOR
 70
  257
  9
$DIMASSOC
280
    1
  9
$PROJECTNAME
  1

  9
$CAMERADISPLAY
290
    0
  9
$LENSLENGTH
 40
50
  9
$CAMERAHEIGHT
 40
0
  9
$STEPSPERSEC
 40
2
  9
$STEPSIZE
 40
50
  9
$3DDWFPREC
 40
2
  9
$PSOLWIDTH
 40
5
  9
$PSOLHEIGHT
 40
80
  9
$LOFTANG1
 40
1.570796326794897
  9
$LOFTANG2
 40
1.570796326794897
  9
$LOFTMAG1
 40
0
  9
$LOFTMAG2
 40
0
  9
$LOFTPARAM
 70
    7
  9
$LOFTNORMALS
280
    1
  9
$LATITUDE
 40
1
  9
$LONGITUDE
 40
1
  9
$NORTHDIRECTION
 40
0
  9
$TIMEZONE
 70
-8000
  9
$LIGHTGLYPHDISPLAY
280
    1
  9
$TILEMODELIGHTSYNCH
280
    1
  9
$SOLIDHIST
280
    1
  9
$SHOWHIST
280
    1
  9
$DWFFRAME
280
    2
  9
$DGNFRAME
280
    0
  9
$REALWORLDSCALE
290
    1
  9
$INTERFERECOLOR
 62
    1
  9
$CSHADOW
280
    0
  9
$SHADOWPLANELOCATION
 40
0
  0
ENDSEC
  0
SECTION
  2
CLASSES
  0
ENDSEC
  0
SECTION
  2
TABLES
  0
TABLE
  2
VPORT
  5
8
330
0
100
AcDbSymbolTable
 70
    1
  0
VPORT
  5
31
330
2
100
AcDbSymbolTableRecord
100
AcDbViewportTableRecord
  2
*ACTIVE
 70
    0
 10
0
 20
0
 11
1
 21
1
 12
291.7340526198174
 22
240.251572745732
 13
0
 23
0
 14
10
 24
10
 15
10
 25
10
 16
0
 26
0
 36
1
 17
0
 27
0
 37
0
 40
431.6384188313151
 41
1.987870619946092
 42
50
 43
0
 44
0
 50
0
 51
0
 71
    0
 72
  100
 73
    1
 74
    3
 75
    0
 76
    1
 77
    0
 78
    0
281
    0
 65
    1
110
0
120
0
130
0
111
1
121
0
131
0
112
0
122
1
132
0
 79
    0
146
0
348
10020
 60
    7
 61
    5
292
1
282
    1
141
0
142
0
 63
  250
421
3358443
  0
ENDTAB
  0
TABLE
  2
LTYPE
  5
5
330
0
100
AcDbSymbolTable
 70
    4
  0
LTYPE
  5
14
330
5
100
AcDbSymbolTableRecord
100
AcDbLinetypeTableRecord
  2
ByBlock
 70
    0
  3

 72
   65
 73
    0
 40
0
  0
LTYPE
  5
15
330
5
100
AcDbSymbolTableRecord
100
AcDbLinetypeTableRecord
  2
ByLayer
 70
    0
  3

 72
   65
 73
    0
 40
0
  0
LTYPE
  5
16
330
5
100
AcDbSymbolTableRecord
100
AcDbLinetypeTableRecord
  2
Continuous
 70
    0
  3
Solid line
 72
   65
 73
    0
 40
0
  0
LTYPE
  5
32
330
5
100
AcDbSymbolTableRecord
100
AcDbLinetypeTableRecord
  2
DOT
 70
    0
  3
Dot . . . . . . . . . . . . . . . . . . . . . .
 72
   65
 73
    2
 40
6.35
 49
0
 74
    0
 49
-6.35
 74
    0
  0
LTYPE
  5
33
330
5
100
AcDbSymbolTableRecord
100
AcDbLinetypeTableRecord
  2
DOTTINY
 70
    0
  3
Dot (.15x) .....................................
 72
   65
 73
    2
 40
0.9525
 49
0
 74
    0
 49
-0.9525
 74
    0
  0
LTYPE
  5
34
330
5
100
AcDbSymbolTableRecord
100
AcDbLinetypeTableRecord
  2
DOT2
 70
    0
  3
Dot (.5x) .....................................
 72
   65
 73
    2
 40
3.175
 49
0
 74
    0
 49
-3.175
 74
    0
  0
LTYPE
  5
35
330
5
100
AcDbSymbolTableRecord
100
AcDbLinetypeTableRecord
  2
DOTX2
 70
    0
  3
Dot (2x) .  .  .  .  .  .  .  .  .  .  .  .  .
 72
   65
 73
    2
 40
12.7
 49
0
 74
    0
 49
-12.7
 74
    0
  0
LTYPE
  5
36
330
5
100
AcDbSymbolTableRecord
100
AcDbLinetypeTableRecord
  2
DASHED
 70
    0
  3
Dashed _ _ _ _ _ _ _ _ _ _ _ _ _ _ _ _ _
 72
   65
 73
    2
 40
19.05
 49
12.7
 74
    0
 49
-6.35
 74
    0
  0
LTYPE
  5
37
330
5
100
AcDbSymbolTableRecord
100
AcDbLinetypeTableRecord
  2
DASHEDTINY
 70
    0
  3
Dashed (.15x) _ _ _ _ _ _ _ _ _ _ _ _ _ _ _ _ _
 72
   65
 73
    2
 40
2.8575
 49
1.905
 74
    0
 49
-0.9525
 74
    0
  0
LTYPE
  5
38
330
5
100
AcDbSymbolTableRecord
100
AcDbLinetypeTableRecord
  2
DASHED2
 70
    0
  3
Dashed (.5x) _ _ _ _ _ _ _ _ _ _ _ _ _ _ _ _ _
 72
   65
 73
    2
 40
9.524999999999999
 49
6.35
 74
    0
 49
-3.175
 74
    0
  0
LTYPE
  5
39
330
5
100
AcDbSymbolTableRecord
100
AcDbLinetypeTableRecord
  2
DASHEDX2
 70
    0
  3
Dashed (2x) ____  ____  ____  ____  ____  ___
 72
   65
 73
    2
 40
38.09999999999999
 49
25.4
 74
    0
 49
-12.7
 74
    0
  0
LTYPE
  5
3A
330
5
100
AcDbSymbolTableRecord
100
AcDbLinetypeTableRecord
  2
DASHDOT
 70
    0
  3
Dash dot __ . __ . __ . __ . __ . __ . __ . __
 72
   65
 73
    4
 40
25.4
 49
12.7
 74
    0
 49
-6.35
 74
    0
 49
0
 74
    0
 49
-6.35
 74
    0
  0
LTYPE
  5
3B
330
5
100
AcDbSymbolTableRecord
100
AcDbLinetypeTableRecord
  2
DASHDOTTINY
 70
    0
  3
Dash dot (.15x) _._._._._._._._._._._._._._._.
 72
   65
 73
    4
 40
3.81
 49
1.905
 74
    0
 49
-0.9525
 74
    0
 49
0
 74
    0
 49
-0.9525
 74
    0
  0
LTYPE
  5
3C
330
5
100
AcDbSymbolTableRecord
100
AcDbLinetypeTableRecord
  2
DASHDOT2
 70
    0
  3
Dash dot (.5x) _._._._._._._._._._._._._._._.
 72
   65
 73
    4
 40
12.7
 49
6.35
 74
    0
 49
-3.175
 74
    0
 49
0
 74
    0
 49
-3.175
 74
    0
  0
LTYPE
  5
3D
330
5
100
AcDbSymbolTableRecord
100
AcDbLinetypeTableRecord
  2
DASHDOTX2
 70
    0
  3
Dash dot (2x) ____  .  ____  .  ____  .  ___
 72
   65
 73
    4
 40
50.8
 49
25.4
 74
    0
 49
-12.7
 74
    0
 49
0
 74
    0
 49
-12.7
 74
    0
  0
LTYPE
  5
3E
330
5
100
AcDbSymbolTableRecord
100
AcDbLinetypeTableRecord
  2
DIVIDE
 70
    0
  3
Divide ____ . . ____ . . ____ . . ____ . . ____
 72
   65
 73
    6
 40
31.75
 49
12.7
 74
    0
 49
-6.35
 74
    0
 49
0
 74
    0
 49
-6.35
 74
    0
 49
0
 74
    0
 49
-6.35
 74
    0
  0
LTYPE
  5
3F
330
5
100
AcDbSymbolTableRecord
100
AcDbLinetypeTableRecord
  2
DIVIDETINY
 70
    0
  3
Divide (.15x) __..__..__..__..__..__..__..__.._
 72
   65
 73
    6
 40
4.7625
 49
1.905
 74
    0
 49
-0.9525
 74
    0
 49
0
 74
    0
 49
-0.9525
 74
    0
 49
0
 74
    0
 49
-0.9525
 74
    0
  0
LTYPE
  5
40
330
5
100
AcDbSymbolTableRecord
100
AcDbLinetypeTableRecord
  2
DIVIDE2
 70
    0
  3
Divide (.5x) __..__..__..__..__..__..__..__.._
 72
   65
 73
    6
 40
15.875
 49
6.35
 74
    0
 49
-3.175
 74
    0
 49
0
 74
    0
 49
-3.175
 74
    0
 49
0
 74
    0
 49
-3.175
 74
    0
  0
LTYPE
  5
41
330
5
100
AcDbSymbolTableRecord
100
AcDbLinetypeTableRecord
  2
DIVIDEX2
 70
    0
  3
Divide (2x) ________  .  .  ________  .  .  _
 72
   65
 73
    6
 40
63.5
 49
25.4
 74
    0
 49
-12.7
 74
    0
 49
0
 74
    0
 49
-12.7
 74
    0
 49
0
 74
    0
 49
-12.7
 74
    0
  0
LTYPE
  5
42
330
5
100
AcDbSymbolTableRecord
100
AcDbLinetypeTableRecord
  2
BORDER
 70
    0
  3
Border __ __ . __ __ . __ __ . __ __ . __ __ .
 72
   65
 73
    6
 40
44.45
 49
12.7
 74
    0
 49
-6.35
 74
    0
 49
12.7
 74
    0
 49
-6.35
 74
    0
 49
0
 74
    0
 49
-6.35
 74
    0
  0
LTYPE
  5
43
330
5
100
AcDbSymbolTableRecord
100
AcDbLinetypeTableRecord
  2
BORDERTINY
 70
    0
  3
Border (.15x) __.__.__.__.__.__.__.__.__.__.__.
 72
   65
 73
    6
 40
6.6675
 49
1.905
 74
    0
 49
-0.9525
 74
    0
 49
1.905
 74
    0
 49
-0.9525
 74
    0
 49
0
 74
    0
 49
-0.9525
 74
    0
  0
LTYPE
  5
44
330
5
100
AcDbSymbolTableRecord
100
AcDbLinetypeTableRecord
  2
BORDER2
 70
    0
  3
Border (.5x) __.__.__.__.__.__.__.__.__.__.__.
 72
   65
 73
    6
 40
22.225
 49
6.35
 74
    0
 49
-3.175
 74
    0
 49
6.35
 74
    0
 49
-3.175
 74
    0
 49
0
 74
    0
 49
-3.175
 74
    0
  0
LTYPE
  5
45
330
5
100
AcDbSymbolTableRecord
100
AcDbLinetypeTableRecord
  2
BORDERX2
 70
    0
  3
Border (2x) ____  ____  .  ____  ____  .  ___
 72
   65
 73
    6
 40
88.89999999999999
 49
25.4
 74
    0
 49
-12.7
 74
    0
 49
25.4
 74
    0
 49
-12.7
 74
    0
 49
0
 74
    0
 49
-12.7
 74
    0
  0
LTYPE
  5
46
330
5
100
AcDbSymbolTableRecord
100
AcDbLinetypeTableRecord
  2
CENTER
 70
    0
  3
Center ____ _ ____ _ ____ _ ____ _ ____ _ ____
 72
   65
 73
    4
 40
50.8
 49
31.75
 74
    0
 49
-6.35
 74
    0
 49
6.35
 74
    0
 49
-6.35
 74
    0
  0
LTYPE
  5
47
330
5
100
AcDbSymbolTableRecord
100
AcDbLinetypeTableRecord
  2
CENTERTINY
 70
    0
  3
Center (.15x) ___ _ ___ _ ___ _ ___ _ ___ _ ___
 72
   65
 73
    4
 40
7.619999999999999
 49
4.7625
 74
    0
 49
-0.9525
 74
    0
 49
0.9525
 74
    0
 49
-0.9525
 74
    0
  0
LTYPE
  5
48
330
5
100
AcDbSymbolTableRecord
100
AcDbLinetypeTableRecord
  2
CENTER2
 70
    0
  3
Center (.5x) ___ _ ___ _ ___ _ ___ _ ___ _ ___
 72
   65
 73
    4
 40
28.575
 49
19.05
 74
    0
 49
-3.175
 74
    0
 49
3.175
 74
    0
 49
-3.175
 74
    0
  0
LTYPE
  5
49
330
5
100
AcDbSymbolTableRecord
100
AcDbLinetypeTableRecord
  2
CENTERX2
 70
    0
  3
Center (2x) ________  __  ________  __  _____
 72
   65
 73
    4
 40
101.6
 49
63.5
 74
    0
 49
-12.7
 74
    0
 49
12.7
 74
    0
 49
-12.7
 74
    0
  0
ENDTAB
  0
TABLE
  2
LAYER
  5
2
330
0
100
AcDbSymbolTable
 70
    1
  0
LAYER
  5
10
330
2
100
AcDbSymbolTableRecord
100
AcDbLayerTableRecord
  2
0
 70
    0
 62
    4
  6
CONTINUOUS
370
   18
390
F
  0
LAYER
  5
4A
330
2
100
AcDbSymbolTableRecord
100
AcDbLayerTableRecord
  2
Axe
 70
    0
 62
  136
420
32896
  6
CONTINUOUS
370
   18
390
F
  0
LAYER
  5
4B
330
2
100
AcDbSymbolTableRecord
100
AcDbLayerTableRecord
  2
Body
 70
    0
 62
    7
  6
CONTINUOUS
370
   35
390
F
  0
LAYER
  5
4C
330
2
100
AcDbSymbolTableRecord
100
AcDbLayerTableRecord
  2
Dim
 70
    0
 62
    4
  6
CONTINUOUS
370
   18
390
F
  0
LAYER
  5
4D
330
2
100
AcDbSymbolTableRecord
100
AcDbLayerTableRecord
  2
Num
 70
    0
 62
   96
420
32768
  6
CONTINUOUS
370
   18
390
F
  0
LAYER
  5
4E
330
2
100
AcDbSymbolTableRecord
100
AcDbLayerTableRecord
  2
ramka
 70
    0
 62
  176
420
  128
  6
CONTINUOUS
370
   35
390
F
  0
LAYER
  5
4F
330
2
100
AcDbSymbolTableRecord
100
AcDbLayerTableRecord
  2
vorota
 70
    0
 62
   16
420
8388608
  6
CONTINUOUS
370
   35
390
F
  0
ENDTAB
  0
TABLE
  2
STYLE
  5
3
330
0
100
AcDbSymbolTable
 70
    3
  0
STYLE
  5
50
330
2
100
AcDbSymbolTableRecord
100
AcDbTextStyleTableRecord
  2
cyrillic_ii
 70
    0
 40
0
 41
1
 50
0
 71
    0
 42
1
  3
cyrillic_ii
  4

  0
STYLE
  5
51
330
2
100
AcDbSymbolTableRecord
100
AcDbTextStyleTableRecord
  2
Standard
 70
    0
 40
0
 41
1
 50
0
 71
    0
 42
1
  3
txt
  4

  0
ENDTAB
  0
TABLE
  2
VIEW
  5
6
330
0
100
AcDbSymbolTable
 70
    0
  0
ENDTAB
  0
TABLE
  2
UCS
  5
7
330
0
100
AcDbSymbolTable
 70
    0
  0
ENDTAB
  0
TABLE
  2
APPID
  5
9
330
0
100
AcDbSymbolTable
 70
    1
  0
APPID
  5
12
330
9
100
AcDbSymbolTableRecord
100
AcDbRegAppTableRecord
  2
ACAD
 70
    0
  0
APPID
  5
52
330
9
100
AcDbSymbolTableRecord
100
AcDbRegAppTableRecord
  2
LibreCad
 70
    0
  0
ENDTAB
  0
TABLE
  2
DIMSTYLE
  5
A
330
0
100
AcDbSymbolTable
 70
    1
100
AcDbDimStyleTable
 71
    1
  0
DIMSTYLE
105
53
330
A
100
AcDbSymbolTableRecord
100
AcDbDimStyleTableRecord
  2
Standard
 70
    0
 40
2
 41
2.5
 42
0.625
 43
0.38
 44
1.25
 45
0
 46
0
 47
0
 48
0
 49
1
140
2.5
141
0.09
142
0
143
25.4
144
1
145
0
146
1
147
0.625
148
0
 71
    0
 72
    0
 73
    0
 74
    1
 75
    0
 76
    0
 77
    0
 78
    8
 79
    2
170
    0
171
    2
172
    0
173
    0
174
    0
175
    0
176
    0
177
    0
178
    0
179
    1
271
    1
272
    4
273
    2
274
    2
275
    0
276
    0
277
    2
278
   44
279
    0
280
    0
281
    0
282
    0
283
    1
284
    0
285
    0
286
    0
288
    0
289
    3
340
standard
341

371
   -2
372
   -2
  0
ENDTAB
  0
TABLE
  2
BLOCK_RECORD
  5
1
330
0
100
AcDbSymbolTable
 70
    2
  0
BLOCK_RECORD
  5
1F
330
1
100
AcDbSymbolTableRecord
100
AcDbBlockTableRecord
  2
*Model_Space
 70
    0
280
    1
281
    0
  0
BLOCK_RECORD
  5
1E
330
1
100
AcDbSymbolTableRecord
100
AcDbBlockTableRecord
  2
*Paper_Space
 70
    0
280
    1
281
    0
  0
BLOCK_RECORD
  5
54
330
1
100
AcDbSymbolTableRecord
100
AcDbBlockTableRecord
  2
*D17
 70
    0
280
    1
281
    0
  0
BLOCK_RECORD
  5
57
330
1
100
AcDbSymbolTableRecord
100
AcDbBlockTableRecord
  2
*D10
 70
    0
280
    1
281
    0
  0
BLOCK_RECORD
  5
5A
330
1
100
AcDbSymbolTableRecord
100
AcDbBlockTableRecord
  2
*D8
 70
    0
280
    1
281
    0
  0
BLOCK_RECORD
  5
5D
330
1
100
AcDbSymbolTableRecord
100
AcDbBlockTableRecord
  2
*D19
 70
    0
280
    1
281
    0
  0
BLOCK_RECORD
  5
60
330
1
100
AcDbSymbolTableRecord
100
AcDbBlockTableRecord
  2
*D28
 70
    0
280
    1
281
    0
  0
BLOCK_RECORD
  5
63
330
1
100
AcDbSymbolTableRecord
100
AcDbBlockTableRecord
  2
*D29
 70
    0
280
    1
281
    0
  0
BLOCK_RECORD
  5
66
330
1
100
AcDbSymbolTableRecord
100
AcDbBlockTableRecord
  2
*D25
 70
    0
280
    1
281
    0
  0
BLOCK_RECORD
  5
69
330
1
100
AcDbSymbolTableRecord
100
AcDbBlockTableRecord
  2
*D26
 70
    0
280
    1
281
    0
  0
BLOCK_RECORD
  5
6C
330
1
100
AcDbSymbolTableRecord
100
AcDbBlockTableRecord
  2
*D2
 70
    0
280
    1
281
    0
  0
BLOCK_RECORD
  5
6F
330
1
100
AcDbSymbolTableRecord
100
AcDbBlockTableRecord
  2
*D3
 70
    0
280
    1
281
    0
  0
BLOCK_RECORD
  5
72
330
1
100
AcDbSymbolTableRecord
100
AcDbBlockTableRecord
  2
*D20
 70
    0
280
    1
281
    0
  0
BLOCK_RECORD
  5
75
330
1
100
AcDbSymbolTableRecord
100
AcDbBlockTableRecord
  2
*D9
 70
    0
280
    1
281
    0
  0
BLOCK_RECORD
  5
78
330
1
100
AcDbSymbolTableRecord
100
AcDbBlockTableRecord
  2
*D27
 70
    0
280
    1
281
    0
  0
BLOCK_RECORD
  5
7B
330
1
100
AcDbSymbolTableRecord
100
AcDbBlockTableRecord
  2
*D13
 70
    0
280
    1
281
    0
  0
BLOCK_RECORD
  5
7E
330
1
100
AcDbSymbolTableRecord
100
AcDbBlockTableRecord
  2
*D12
 70
    0
280
    1
281
    0
  0
BLOCK_RECORD
  5
81
330
1
100
AcDbSymbolTableRecord
100
AcDbBlockTableRecord
  2
*D14
 70
    0
280
    1
281
    0
  0
BLOCK_RECORD
  5
84
330
1
100
AcDbSymbolTableRecord
100
AcDbBlockTableRecord
  2
*D11
 70
    0
280
    1
281
    0
  0
BLOCK_RECORD
  5
87
330
1
100
AcDbSymbolTableRecord
100
AcDbBlockTableRecord
  2
*D21
 70
    0
280
    1
281
    0
  0
BLOCK_RECORD
  5
8A
330
1
100
AcDbSymbolTableRecord
100
AcDbBlockTableRecord
  2
*D23
 70
    0
280
    1
281
    0
  0
BLOCK_RECORD
  5
8D
330
1
100
AcDbSymbolTableRecord
100
AcDbBlockTableRecord
  2
*D30
 70
    0
280
    1
281
    0
  0
BLOCK_RECORD
  5
90
330
1
100
AcDbSymbolTableRecord
100
AcDbBlockTableRecord
  2
*D1
 70
    0
280
    1
281
    0
  0
BLOCK_RECORD
  5
93
330
1
100
AcDbSymbolTableRecord
100
AcDbBlockTableRecord
  2
*D15
 70
    0
280
    1
281
    0
  0
BLOCK_RECORD
  5
96
330
1
100
AcDbSymbolTableRecord
100
AcDbBlockTableRecord
  2
*D16
 70
    0
280
    1
281
    0
  0
BLOCK_RECORD
  5
99
330
1
100
AcDbSymbolTableRecord
100
AcDbBlockTableRecord
  2
*D32
 70
    0
280
    1
281
    0
  0
BLOCK_RECORD
  5
9C
330
1
100
AcDbSymbolTableRecord
100
AcDbBlockTableRecord
  2
*D5
 70
    0
280
    1
281
    0
  0
BLOCK_RECORD
  5
9F
330
1
100
AcDbSymbolTableRecord
100
AcDbBlockTableRecord
  2
*D18
 70
    0
280
    1
281
    0
  0
BLOCK_RECORD
  5
A2
330
1
100
AcDbSymbolTableRecord
100
AcDbBlockTableRecord
  2
*D33
 70
    0
280
    1
281
    0
  0
BLOCK_RECORD
  5
A5
330
1
100
AcDbSymbolTableRecord
100
AcDbBlockTableRecord
  2
*D24
 70
    0
280
    1
281
    0
  0
BLOCK_RECORD
  5
A8
330
1
100
AcDbSymbolTableRecord
100
AcDbBlockTableRecord
  2
*D7
 70
    0
280
    1
281
    0
  0
BLOCK_RECORD
  5
AB
330
1
100
AcDbSymbolTableRecord
100
AcDbBlockTableRecord
  2
*D6
 70
    0
280
    1
281
    0
  0
BLOCK_RECORD
  5
AE
330
1
100
AcDbSymbolTableRecord
100
AcDbBlockTableRecord
  2
*D22
 70
    0
280
    1
281
    0
  0
BLOCK_RECORD
  5
B1
330
1
100
AcDbSymbolTableRecord
100
AcDbBlockTableRecord
  2
*D4
 70
    0
280
    1
281
    0
  0
BLOCK_RECORD
  5
B4
330
1
100
AcDbSymbolTableRecord
100
AcDbBlockTableRecord
  2
*D31
 70
    0
280
    1
281
    0
  0
ENDTAB
  0
ENDSEC
  0
SECTION
  2
BLOCKS
  0
BLOCK
  5
20
330
1F
100
AcDbEntity
  8
0
100
AcDbBlockBegin
  2
*Model_Space
 70
    0
 10
0
 20
0
 30
0
  3
*Model_Space
  1

  0
ENDBLK
  5
21
330
1F
100
AcDbEntity
  8
0
100
AcDbBlockEnd
  0
BLOCK
  5
1C
330
1B
100
AcDbEntity
  8
0
100
AcDbBlockBegin
  2
*Paper_Space
 70
    0
 10
0
 20
0
 30
0
  3
*Paper_Space
  1

  0
ENDBLK
  5
1D
330
1F
100
AcDbEntity
  8
0
100
AcDbBlockEnd
  0
BLOCK
  5
55
330
54
100
AcDbEntity
  8
0
100
AcDbBlockBegin
  2
*D17
 70
    1
 10
0
 20
0
  3
*D17
  1

  0
LINE
  5
B7
100
AcDbEntity
  8
Num
  6
CONTINUOUS
 62
    7
370
    0
100
AcDbLine
 10
342
 20
285.8187906238374
 11
320
 21
310
  0
LINE
  5
B8
100
AcDbEntity
  8
Num
  6
CONTINUOUS
 62
    7
370
    0
100
AcDbLine
 10
320
 20
310
 11
310
 21
310
  0
SOLID
  5
B9
100
AcDbEntity
  8
Num
  6
CONTINUOUS
 62
    7
370
    0
100
AcDbTrace
 10
342
 20
285.8187906238374
 30
0
 11
338.0193709998733
 21
288.9569054127733
 31
0
 12
339.2510406316606
 22
290.0774751691409
 32
0
 13
339.2510406316606
 23
290.0774751691409
 33
0
  0
ENDBLK
  5
56
330
54
100
AcDbEntity
  8
0
100
AcDbBlockEnd
  0
BLOCK
  5
58
330
57
100
AcDbEntity
  8
0
100
AcDbBlockBegin
  2
*D10
 70
    1
 10
0
 20
0
  3
*D10
  1

  0
LINE
  5
BA
100
AcDbEntity
  8
Dim
  6
ByBlock
 62
    0
370
   -2
100
AcDbLine
 10
198
 20
99
 11
248
 21
99
  0
SOLID
  5
BB
100
AcDbEntity
  8
Dim
  6
ByBlock
 62
    0
370
   -2
100
AcDbTrace
 10
198
 20
99
 30
0
 11
203
 21
99.83256931554568
 31
0
 12
203
 22
98.16743068445432
 32
0
 13
203
 23
98.16743068445432
 33
0
  0
SOLID
  5
BC
100
AcDbEntity
  8
Dim
  6
ByBlock
 62
    0
370
   -2
100
AcDbTrace
 10
248
 20
99
 30
0
 11
243
 21
98.16743068445432
 31
0
 12
243
 22
99.83256931554568
 32
0
 13
243
 23
99.83256931554568
 33
0
  0
MTEXT
  5
BD
100
AcDbEntity
  8
Dim
  6
CONTINUOUS
 62
    0
370
   -2
100
AcDbMText
 10
223
 20
102.75
 30
0
 40
5
 41
6.111111111111422
 71
    5
 72
    1
  1
50
  7
standard
210
0
220
0
230
1
 50
0
 73
    2
 44
1
  0
LINE
  5
BE
100
AcDbEntity
  8
Dim
  6
ByBlock
 62
    0
370
   -2
100
AcDbLine
 10
198
 20
112.7500003868126
 11
198
 21
96.5
  0
LINE
  5
BF
100
AcDbEntity
  8
Dim
  6
ByBlock
 62
    0
370
   -2
100
AcDbLine
 10
248
 20
112.7499993022894
 11
248
 21
96.5
  0
ENDBLK
  5
59
330
57
100
AcDbEntity
  8
0
100
AcDbBlockEnd
  0
BLOCK
  5
5B
330
5A
100
AcDbEntity
  8
0
100
AcDbBlockBegin
  2
*D8
 70
    1
 10
0
 20
0
  3
*D8
  1

  0
LINE
  5
C0
100
AcDbEntity
  8
Dim
  6
ByBlock
 62
    0
370
   -2
100
AcDbLine
 10
-100
 20
211.9999999999999
 11
-100
 21
198
  0
SOLID
  5
C1
100
AcDbEntity
  8
Dim
  6
ByBlock
 62
    0
370
   -2
100
AcDbTrace
 10
-100
 20
211.9999999999999
 30
0
 11
-99.16743068445432
 21
206.9999999999999
 31
0
 12
-100.8325693155457
 22
206.9999999999999
 32
0
 13
-100.8325693155457
 23
206.9999999999999
 33
0
  0
SOLID
  5
C2
100
AcDbEntity
  8
Dim
  6
ByBlock
 62
    0
370
   -2
100
AcDbTrace
 10
-100
 20
198
 30
0
 11
-100.8325693155457
 21
203
 31
0
 12
-99.16743068445432
 22
203
 32
0
 13
-99.16743068445432
 23
203
 33
0
  0
MTEXT
  5
C3
100
AcDbEntity
  8
Dim
  6
CONTINUOUS
 62
    0
370
   -2
100
AcDbMText
 10
-103.75
 20
204.9999999999999
 30
0
 40
5
 41
10.55555555555556
 71
    5
 72
    1
  1
%%C14
  7
standard
210
0
220
0
230
1
 50
90
 73
    2
 44
1
  0
LINE
  5
C4
100
AcDbEntity
  8
Dim
  6
ByBlock
 62
    0
370
   -2
100
AcDbLine
 10
-83.2500013085434
 20
211.9999999999999
 11
-102.5
 21
211.9999999999999
  0
LINE
  5
C5
100
AcDbEntity
  8
Dim
  6
ByBlock
 62
    0
370
   -2
100
AcDbLine
 10
-83.2500037113646
 20
198
 11
-102.5
 21
198
  0
ENDBLK
  5
5C
330
5A
100
AcDbEntity
  8
0
100
AcDbBlockEnd
  0
BLOCK
  5
5E
330
5D
100
AcDbEntity
  8
0
100
AcDbBlockBegin
  2
*D19
 70
    1
 10
0
 20
0
  3
*D19
  1

  0
LINE
  5
C6
100
AcDbEntity
  8
Num
  6
CONTINUOUS
 62
    7
370
    0
100
AcDbLine
 10
342
 20
243
 11
320
 21
230
  0
LINE
  5
C7
100
AcDbEntity
  8
Num
  6
CONTINUOUS
 62
    7
370
    0
100
AcDbLine
 10
320
 20
230
 11
310
 21
230
  0
SOLID
  5
C8
100
AcDbEntity
  8
Num
  6
CONTINUOUS
 62
    7
370
    0
100
AcDbTrace
 10
342
 20
243
 30
0
 11
338.1189197741237
 21
239.7395724290363
 31
0
 12
337.2718149437331
 22
241.1731344496973
 32
0
 13
337.2718149437331
 23
241.1731344496973
 33
0
  0
ENDBLK
  5
5F
330
5D
100
AcDbEntity
  8
0
100
AcDbBlockEnd
  0
BLOCK
  5
61
330
60
100
AcDbEntity
  8
0
100
AcDbBlockBegin
  2
*D28
 70
    1
 10
0
 20
0
  3
*D28
  1

  0
LINE
  5
C9
100
AcDbEntity
  8
Dim
  6
ByBlock
 62
    0
370
   -2
100
AcDbLine
 10
-37
 20
320
 11
-7
 21
320
  0
SOLID
  5
CA
100
AcDbEntity
  8
Dim
  6
ByBlock
 62
    0
370
   -2
100
AcDbTrace
 10
-37
 20
320
 30
0
 11
-32
 21
320.8325693155457
 31
0
 12
-32
 22
319.1674306844543
 32
0
 13
-32
 23
319.1674306844543
 33
0
  0
SOLID
  5
CB
100
AcDbEntity
  8
Dim
  6
ByBlock
 62
    0
370
   -2
100
AcDbTrace
 10
-7
 20
320
 30
0
 11
-12
 21
319.1674306844543
 31
0
 12
-12
 22
320.8325693155457
 32
0
 13
-12
 23
320.8325693155457
 33
0
  0
MTEXT
  5
CC
100
AcDbEntity
  8
Dim
  6
CONTINUOUS
 62
    0
370
   -2
100
AcDbMText
 10
-22
 20
323.75
 30
0
 40
5
 41
6.111111111111422
 71
    5
 72
    1
  1
30
  7
standard
210
0
220
0
230
1
 50
0
 73
    2
 44
1
  0
LINE
  5
CD
100
AcDbEntity
  8
Dim
  6
ByBlock
 62
    0
370
   -2
100
AcDbLine
 10
-37
 20
309.25
 11
-37
 21
322.5
  0
LINE
  5
CE
100
AcDbEntity
  8
Dim
  6
ByBlock
 62
    0
370
   -2
100
AcDbLine
 10
-7
 20
309.25
 11
-7
 21
322.5
  0
ENDBLK
  5
62
330
60
100
AcDbEntity
  8
0
100
AcDbBlockEnd
  0
BLOCK
  5
64
330
63
100
AcDbEntity
  8
0
100
AcDbBlockBegin
  2
*D29
 70
    1
 10
0
 20
0
  3
*D29
  1

  0
LINE
  5
CF
100
AcDbEntity
  8
Dim
  6
ByBlock
 62
    0
370
   -2
100
AcDbLine
 10
-70
 20
308
 11
-70
 21
167.9999999999999
  0
SOLID
  5
D0
100
AcDbEntity
  8
Dim
  6
ByBlock
 62
    0
370
   -2
100
AcDbTrace
 10
-70
 20
308
 30
0
 11
-69.16743068445432
 21
303
 31
0
 12
-70.83256931554568
 22
303
 32
0
 13
-70.83256931554568
 23
303
 33
0
  0
SOLID
  5
D1
100
AcDbEntity
  8
Dim
  6
ByBlock
 62
    0
370
   -2
100
AcDbTrace
 10
-70
 20
167.9999999999999
 30
0
 11
-70.83256931554568
 21
172.9999999999999
 31
0
 12
-69.16743068445432
 22
172.9999999999999
 32
0
 13
-69.16743068445432
 23
172.9999999999999
 33
0
  0
MTEXT
  5
D2
100
AcDbEntity
  8
Dim
  6
CONTINUOUS
 62
    0
370
   -2
100
AcDbMText
 10
-73.75
 20
237.9999999999999
 30
0
 40
5
 41
9.444444444444445
 71
    5
 72
    1
  1
140
  7
standard
210
0
220
0
230
1
 50
90
 73
    2
 44
1
  0
LINE
  5
D3
100
AcDbEntity
  8
Dim
  6
ByBlock
 62
    0
370
   -2
100
AcDbLine
 10
-38.25
 20
308
 11
-72.5
 21
308
  0
LINE
  5
D4
100
AcDbEntity
  8
Dim
  6
ByBlock
 62
    0
370
   -2
100
AcDbLine
 10
-38.24999999999999
 20
167.9999999999999
 11
-72.5
 21
167.9999999999999
  0
ENDBLK
  5
65
330
63
100
AcDbEntity
  8
0
100
AcDbBlockEnd
  0
BLOCK
  5
67
330
66
100
AcDbEntity
  8
0
100
AcDbBlockBegin
  2
*D25
 70
    1
 10
0
 20
0
  3
*D25
  1

  0
LINE
  5
D5
100
AcDbEntity
  8
Dim
  6
ByBlock
 62
    0
370
   -2
100
AcDbLine
 10
270
 20
173
 11
270
 21
149
  0
SOLID
  5
D6
100
AcDbEntity
  8
Dim
  6
ByBlock
 62
    0
370
   -2
100
AcDbTrace
 10
270
 20
163
 30
0
 11
269.1674306844543
 21
168
 31
0
 12
270.8325693155457
 22
168
 32
0
 13
270.8325693155457
 23
168
 33
0
  0
SOLID
  5
D7
100
AcDbEntity
  8
Dim
  6
ByBlock
 62
    0
370
   -2
100
AcDbTrace
 10
270
 20
159
 30
0
 11
270.8325693155457
 21
154
 31
0
 12
269.1674306844543
 22
154
 32
0
 13
269.1674306844543
 23
154
 33
0
  0
MTEXT
  5
D8
100
AcDbEntity
  8
Dim
  6
CONTINUOUS
 62
    0
370
   -2
100
AcDbMText
 10
266.25
 20
161
 30
0
 40
5
 41
2.777777777777778
 71
    5
 72
    1
  1
4
  7
standard
210
0
220
0
230
1
 50
90
 73
    2
 44
1
  0
LINE
  5
D9
100
AcDbEntity
  8
Dim
  6
ByBlock
 62
    0
370
   -2
100
AcDbLine
 10
249.25
 20
163
 11
272.5
 21
163
  0
LINE
  5
DA
100
AcDbEntity
  8
Dim
  6
ByBlock
 62
    0
370
   -2
100
AcDbLine
 10
244.25
 20
159
 11
272.5
 21
159
  0
ENDBLK
  5
68
330
66
100
AcDbEntity
  8
0
100
AcDbBlockEnd
  0
BLOCK
  5
6A
330
69
100
AcDbEntity
  8
0
100
AcDbBlockBegin
  2
*D26
 70
    1
 10
0
 20
0
  3
*D26
  1

  0
LINE
  5
DB
100
AcDbEntity
  8
Dim
  6
ByBlock
 62
    0
370
   -2
100
AcDbLine
 10
258
 20
163
 11
258
 21
213
  0
SOLID
  5
DC
100
AcDbEntity
  8
Dim
  6
ByBlock
 62
    0
370
   -2
100
AcDbTrace
 10
258
 20
163
 30
0
 11
257.1674306844543
 21
168
 31
0
 12
258.8325693155457
 22
168
 32
0
 13
258.8325693155457
 23
168
 33
0
  0
SOLID
  5
DD
100
AcDbEntity
  8
Dim
  6
ByBlock
 62
    0
370
   -2
100
AcDbTrace
 10
258
 20
213
 30
0
 11
258.8325693155457
 21
208
 31
0
 12
257.1674306844543
 22
208
 32
0
 13
257.1674306844543
 23
208
 33
0
  0
MTEXT
  5
DE
100
AcDbEntity
  8
Dim
  6
CONTINUOUS
 62
    0
370
   -2
100
AcDbMText
 10
254.25
 20
188
 30
0
 40
5
 41
6.111111111111422
 71
    5
 72
    1
  1
50
  7
standard
210
0
220
0
230
1
 50
90
 73
    2
 44
1
  0
LINE
  5
DF
100
AcDbEntity
  8
Dim
  6
ByBlock
 62
    0
370
   -2
100
AcDbLine
 10
249.25
 20
163
 11
260.5
 21
163
  0
LINE
  5
E0
100
AcDbEntity
  8
Dim
  6
ByBlock
 62
    0
370
   -2
100
AcDbLine
 10
249.25
 20
213
 11
260.5
 21
213
  0
ENDBLK
  5
6B
330
69
100
AcDbEntity
  8
0
100
AcDbBlockEnd
  0
BLOCK
  5
6D
330
6C
100
AcDbEntity
  8
0
100
AcDbBlockBegin
  2
*D2
 70
    1
 10
0
 20
0
  3
*D2
  1

  0
LINE
  5
E1
100
AcDbEntity
  8
Dim
  6
ByBlock
 62
    0
370
   -2
100
AcDbLine
 10
8.000000000000002
 20
20
 11
8
 21
4.263254567016958e-16
  0
SOLID
  5
E2
100
AcDbEntity
  8
Dim
  6
ByBlock
 62
    0
370
   -2
100
AcDbTrace
 10
8.000000000000002
 20
20
 30
0
 11
8.832569315545683
 21
15
 31
0
 12
7.16743068445432
 22
15
 32
0
 13
7.16743068445432
 23
15
 33
0
  0
SOLID
  5
E3
100
AcDbEntity
  8
Dim
  6
ByBlock
 62
    0
370
   -2
100
AcDbTrace
 10
8
 20
4.263254567016958e-16
 30
0
 11
7.16743068445432
 21
5
 31
0
 12
8.832569315545681
 22
5
 32
0
 13
8.832569315545681
 23
5
 33
0
  0
MTEXT
  5
E4
100
AcDbEntity
  8
Dim
  6
CONTINUOUS
 62
    0
370
   -2
100
AcDbMText
 10
4.25
 20
10
 30
0
 40
5
 41
6.111111111111112
 71
    5
 72
    1
  1
20
  7
standard
210
0
220
0
230
1
 50
90
 73
    2
 44
1
  0
LINE
  5
E5
100
AcDbEntity
  8
Dim
  6
ByBlock
 62
    0
370
   -2
100
AcDbLine
 10
14.75000408065202
 20
20
 11
5.500000000000002
 21
20
  0
LINE
  5
E6
100
AcDbEntity
  8
Dim
  6
ByBlock
 62
    0
370
   -2
100
AcDbLine
 10
14.74999653308464
 20
1.530808498934192e-16
 11
5.5
 21
7.324871564885341e-16
  0
ENDBLK
  5
6E
330
6C
100
AcDbEntity
  8
0
100
AcDbBlockEnd
  0
BLOCK
  5
70
330
6F
100
AcDbEntity
  8
0
100
AcDbBlockBegin
  2
*D3
 70
    1
 10
0
 20
0
  3
*D3
  1

  0
LINE
  5
E7
100
AcDbEntity
  8
Dim
  6
ByBlock
 62
    0
370
   -2
100
AcDbLine
 10
168
 20
97.9999994827056
 11
168
 21
125
  0
SOLID
  5
E8
100
AcDbEntity
  8
Dim
  6
ByBlock
 62
    0
370
   -2
100
AcDbTrace
 10
168
 20
107.9999994827056
 30
0
 11
168.8325693155457
 21
102.9999994827056
 31
0
 12
167.1674306844543
 22
102.9999994827056
 32
0
 13
167.1674306844543
 23
102.9999994827056
 33
0
  0
SOLID
  5
E9
100
AcDbEntity
  8
Dim
  6
ByBlock
 62
    0
370
   -2
100
AcDbTrace
 10
168
 20
115
 30
0
 11
167.1674306844543
 21
120
 31
0
 12
168.8325693155457
 22
120
 32
0
 13
168.8325693155457
 23
120
 33
0
  0
MTEXT
  5
EA
100
AcDbEntity
  8
Dim
  6
CONTINUOUS
 62
    0
370
   -2
100
AcDbMText
 10
164.25
 20
111.4999997413528
 30
0
 40
5
 41
2.222222222222222
 71
    5
 72
    1
  1
7
  7
standard
210
0
220
0
230
1
 50
90
 73
    2
 44
1
  0
LINE
  5
EB
100
AcDbEntity
  8
Dim
  6
ByBlock
 62
    0
370
   -2
100
AcDbLine
 10
186.75
 20
107.9999994827056
 11
165.5
 21
107.9999994827056
  0
LINE
  5
EC
100
AcDbEntity
  8
Dim
  6
ByBlock
 62
    0
370
   -2
100
AcDbLine
 10
186.75
 20
115
 11
165.5
 21
115
  0
ENDBLK
  5
71
330
6F
100
AcDbEntity
  8
0
100
AcDbBlockEnd
  0
BLOCK
  5
73
330
72
100
AcDbEntity
  8
0
100
AcDbBlockBegin
  2
*D20
 70
    1
 10
0
 20
0
  3
*D20
  1

  0
LINE
  5
ED
100
AcDbEntity
  8
Num
  6
CONTINUOUS
 62
    7
370
    0
100
AcDbLine
 10
342
 20
213
 11
320
 21
200
  0
LINE
  5
EE
100
AcDbEntity
  8
Num
  6
CONTINUOUS
 62
    7
370
    0
100
AcDbLine
 10
320
 20
200
 11
310
 21
200
  0
SOLID
  5
EF
100
AcDbEntity
  8
Num
  6
CONTINUOUS
 62
    7
370
    0
100
AcDbTrace
 10
342
 20
213
 30
0
 11
338.1189197741237
 21
209.7395724290363
 31
0
 12
337.2718149437331
 22
211.1731344496973
 32
0
 13
337.2718149437331
 23
211.1731344496973
 33
0
  0
ENDBLK
  5
74
330
72
100
AcDbEntity
  8
0
100
AcDbBlockEnd
  0
BLOCK
  5
76
330
75
100
AcDbEntity
  8
0
100
AcDbBlockBegin
  2
*D9
 70
    1
 10
0
 20
0
  3
*D9
  1

  0
LINE
  5
F0
100
AcDbEntity
  8
Dim
  6
ByBlock
 62
    0
370
   -2
100
AcDbLine
 10
50
 20
108.9999994827055
 11
50
 21
153.9999994827056
  0
SOLID
  5
F1
100
AcDbEntity
  8
Dim
  6
ByBlock
 62
    0
370
   -2
100
AcDbTrace
 10
50
 20
108.9999994827055
 30
0
 11
49.16743068445432
 21
113.9999994827055
 31
0
 12
50.83256931554568
 22
113.9999994827055
 32
0
 13
50.83256931554568
 23
113.9999994827055
 33
0
  0
SOLID
  5
F2
100
AcDbEntity
  8
Dim
  6
ByBlock
 62
    0
370
   -2
100
AcDbTrace
 10
50
 20
153.9999994827056
 30
0
 11
50.83256931554568
 21
148.9999994827056
 31
0
 12
49.16743068445432
 22
148.9999994827056
 32
0
 13
49.16743068445432
 23
148.9999994827056
 33
0
  0
MTEXT
  5
F3
100
AcDbEntity
  8
Dim
  6
CONTINUOUS
 62
    0
370
   -2
100
AcDbMText
 10
46.25
 20
131.4999994827056
 30
0
 40
5
 41
6.666666666666977
 71
    5
 72
    1
  1
45
  7
standard
210
0
220
0
230
1
 50
90
 73
    2
 44
1
  0
LINE
  5
F4
100
AcDbEntity
  8
Dim
  6
ByBlock
 62
    0
370
   -2
100
AcDbLine
 10
33.24999999999999
 20
108.9999994827055
 11
52.5
 21
108.9999994827055
  0
LINE
  5
F5
100
AcDbEntity
  8
Dim
  6
ByBlock
 62
    0
370
   -2
100
AcDbLine
 10
33.24999999999999
 20
153.9999994827056
 11
52.5
 21
153.9999994827056
  0
ENDBLK
  5
77
330
75
100
AcDbEntity
  8
0
100
AcDbBlockEnd
  0
BLOCK
  5
79
330
78
100
AcDbEntity
  8
0
100
AcDbBlockBegin
  2
*D27
 70
    1
 10
0
 20
0
  3
*D27
  1

  0
LINE
  5
F6
100
AcDbEntity
  8
Dim
  6
ByBlock
 62
    0
370
   -2
100
AcDbLine
 10
258
 20
109
 11
258
 21
159
  0
SOLID
  5
F7
100
AcDbEntity
  8
Dim
  6
ByBlock
 62
    0
370
   -2
100
AcDbTrace
 10
258
 20
109
 30
0
 11
257.1674306844543
 21
114
 31
0
 12
258.8325693155457
 22
114
 32
0
 13
258.8325693155457
 23
114
 33
0
  0
SOLID
  5
F8
100
AcDbEntity
  8
Dim
  6
ByBlock
 62
    0
370
   -2
100
AcDbTrace
 10
258
 20
159
 30
0
 11
258.8325693155457
 21
154
 31
0
 12
257.1674306844543
 22
154
 32
0
 13
257.1674306844543
 23
154
 33
0
  0
MTEXT
  5
F9
100
AcDbEntity
  8
Dim
  6
CONTINUOUS
 62
    0
370
   -2
100
AcDbMText
 10
254.25
 20
134
 30
0
 40
5
 41
6.111111111111422
 71
    5
 72
    1
  1
50
  7
standard
210
0
220
0
230
1
 50
90
 73
    2
 44
1
  0
LINE
  5
FA
100
AcDbEntity
  8
Dim
  6
ByBlock
 62
    0
370
   -2
100
AcDbLine
 10
244.25
 20
109
 11
260.5
 21
109
  0
LINE
  5
FB
100
AcDbEntity
  8
Dim
  6
ByBlock
 62
    0
370
   -2
100
AcDbLine
 10
244.25
 20
159
 11
260.5
 21
159
  0
ENDBLK
  5
7A
330
78
100
AcDbEntity
  8
0
100
AcDbBlockEnd
  0
BLOCK
  5
7C
330
7B
100
AcDbEntity
  8
0
100
AcDbBlockBegin
  2
*D13
 70
    1
 10
0
 20
0
  3
*D13
  1

  0
LINE
  5
FC
100
AcDbEntity
  8
Dim
  6
ByBlock
 62
    0
370
   -2
100
AcDbLine
 10
170
 20
198
 11
170
 21
213
  0
SOLID
  5
FD
100
AcDbEntity
  8
Dim
  6
ByBlock
 62
    0
370
   -2
100
AcDbTrace
 10
170
 20
198
 30
0
 11
169.1674306844543
 21
203
 31
0
 12
170.8325693155457
 22
203
 32
0
 13
170.8325693155457
 23
203
 33
0
  0
SOLID
  5
FE
100
AcDbEntity
  8
Dim
  6
ByBlock
 62
    0
370
   -2
100
AcDbTrace
 10
170
 20
213
 30
0
 11
170.8325693155457
 21
208
 31
0
 12
169.1674306844543
 22
208
 32
0
 13
169.1674306844543
 23
208
 33
0
  0
MTEXT
  5
FF
100
AcDbEntity
  8
Dim
  6
CONTINUOUS
 62
    0
370
   -2
100
AcDbMText
 10
166.25
 20
205.5
 30
0
 40
5
 41
5.000000000000311
 71
    5
 72
    1
  1
15
  7
standard
210
0
220
0
230
1
 50
90
 73
    2
 44
1
  0
LINE
  5
100
100
AcDbEntity
  8
Dim
  6
ByBlock
 62
    0
370
   -2
100
AcDbLine
 10
176.75
 20
198
 11
167.5
 21
198
  0
LINE
  5
101
100
AcDbEntity
  8
Dim
  6
ByBlock
 62
    0
370
   -2
100
AcDbLine
 10
176.75
 20
213
 11
167.5
 21
213
  0
ENDBLK
  5
7D
330
7B
100
AcDbEntity
  8
0
100
AcDbBlockEnd
  0
BLOCK
  5
7F
330
7E
100
AcDbEntity
  8
0
100
AcDbBlockBegin
  2
*D12
 70
    1
 10
0
 20
0
  3
*D12
  1

  0
LINE
  5
102
100
AcDbEntity
  8
Dim
  6
ByBlock
 62
    0
370
   -2
100
AcDbLine
 10
170
 20
203
 11
170
 21
233
  0
SOLID
  5
103
100
AcDbEntity
  8
Dim
  6
ByBlock
 62
    0
370
   -2
100
AcDbTrace
 10
170
 20
213
 30
0
 11
170.8325693155457
 21
208
 31
0
 12
169.1674306844543
 22
208
 32
0
 13
169.1674306844543
 23
208
 33
0
  0
SOLID
  5
104
100
AcDbEntity
  8
Dim
  6
ByBlock
 62
    0
370
   -2
100
AcDbTrace
 10
170
 20
223
 30
0
 11
169.1674306844543
 21
228
 31
0
 12
170.8325693155457
 22
228
 32
0
 13
170.8325693155457
 23
228
 33
0
  0
MTEXT
  5
105
100
AcDbEntity
  8
Dim
  6
CONTINUOUS
 62
    0
370
   -2
100
AcDbMText
 10
166.25
 20
218
 30
0
 40
5
 41
5
 71
    5
 72
    1
  1
10
  7
standard
210
0
220
0
230
1
 50
90
 73
    2
 44
1
  0
LINE
  5
106
100
AcDbEntity
  8
Dim
  6
ByBlock
 62
    0
370
   -2
100
AcDbLine
 10
176.75
 20
213
 11
167.5
 21
213
  0
LINE
  5
107
100
AcDbEntity
  8
Dim
  6
ByBlock
 62
    0
370
   -2
100
AcDbLine
 10
176.75
 20
223
 11
167.5
 21
223
  0
ENDBLK
  5
80
330
7E
100
AcDbEntity
  8
0
100
AcDbBlockEnd
  0
BLOCK
  5
82
330
81
100
AcDbEntity
  8
0
100
AcDbBlockBegin
  2
*D14
 70
    1
 10
0
 20
0
  3
*D14
  1

  0
LINE
  5
108
100
AcDbEntity
  8
Dim
  6
ByBlock
 62
    0
370
   -2
100
AcDbLine
 10
150
 20
107.9999994827056
 11
150
 21
303
  0
SOLID
  5
109
100
AcDbEntity
  8
Dim
  6
ByBlock
 62
    0
370
   -2
100
AcDbTrace
 10
150
 20
107.9999994827056
 30
0
 11
149.1674306844543
 21
112.9999994827056
 31
0
 12
150.8325693155457
 22
112.9999994827056
 32
0
 13
150.8325693155457
 23
112.9999994827056
 33
0
  0
SOLID
  5
10A
100
AcDbEntity
  8
Dim
  6
ByBlock
 62
    0
370
   -2
100
AcDbTrace
 10
150
 20
303
 30
0
 11
150.8325693155457
 21
298
 31
0
 12
149.1674306844543
 22
298
 32
0
 13
149.1674306844543
 23
298
 33
0
  0
MTEXT
  5
10B
100
AcDbEntity
  8
Dim
  6
CONTINUOUS
 62
    0
370
   -2
100
AcDbMText
 10
146.25
 20
205.4999997413528
 30
0
 40
5
 41
8.888888888889198
 71
    5
 72
    1
  1
195
  7
standard
210
0
220
0
230
1
 50
90
 73
    2
 44
1
  0
LINE
  5
10C
100
AcDbEntity
  8
Dim
  6
ByBlock
 62
    0
370
   -2
100
AcDbLine
 10
186.75
 20
107.9999994827056
 11
147.5
 21
107.9999994827056
  0
LINE
  5
10D
100
AcDbEntity
  8
Dim
  6
ByBlock
 62
    0
370
   -2
100
AcDbLine
 10
186.75
 20
303
 11
147.5
 21
303
  0
ENDBLK
  5
83
330
81
100
AcDbEntity
  8
0
100
AcDbBlockEnd
  0
BLOCK
  5
85
330
84
100
AcDbEntity
  8
0
100
AcDbBlockBegin
  2
*D11
 70
    1
 10
0
 20
0
  3
*D11
  1

  0
LINE
  5
10E
100
AcDbEntity
  8
Dim
  6
ByBlock
 62
    0
370
   -2
100
AcDbLine
 10
-15
 20
250
 11
-29
 21
250
  0
SOLID
  5
10F
100
AcDbEntity
  8
Dim
  6
ByBlock
 62
    0
370
   -2
100
AcDbTrace
 10
-15
 20
250
 30
0
 11
-20
 21
249.1674306844543
 31
0
 12
-20
 22
250.8325693155457
 32
0
 13
-20
 23
250.8325693155457
 33
0
  0
SOLID
  5
110
100
AcDbEntity
  8
Dim
  6
ByBlock
 62
    0
370
   -2
100
AcDbTrace
 10
-29
 20
250
 30
0
 11
-24
 21
250.8325693155457
 31
0
 12
-24
 22
249.1674306844543
 32
0
 13
-24
 23
249.1674306844543
 33
0
  0
MTEXT
  5
111
100
AcDbEntity
  8
Dim
  6
CONTINUOUS
 62
    0
370
   -2
100
AcDbMText
 10
-22
 20
253.75
 30
0
 40
5
 41
10.55555555555556
 71
    5
 72
    1
  1
%%C14
  7
standard
210
0
220
0
230
1
 50
360
 73
    2
 44
1
  0
LINE
  5
112
100
AcDbEntity
  8
Dim
  6
ByBlock
 62
    0
370
   -2
100
AcDbLine
 10
-15
 20
248.75
 11
-15
 21
247.5
  0
LINE
  5
113
100
AcDbEntity
  8
Dim
  6
ByBlock
 62
    0
370
   -2
100
AcDbLine
 10
-29
 20
248.75
 11
-29
 21
247.5
  0
ENDBLK
  5
86
330
84
100
AcDbEntity
  8
0
100
AcDbBlockEnd
  0
BLOCK
  5
88
330
87
100
AcDbEntity
  8
0
100
AcDbBlockBegin
  2
*D21
 70
    1
 10
0
 20
0
  3
*D21
  1

  0
LINE
  5
114
100
AcDbEntity
  8
Num
  6
CONTINUOUS
 62
    7
370
    0
100
AcDbLine
 10
342
 20
185.6307198468598
 11
320
 21
170
  0
LINE
  5
115
100
AcDbEntity
  8
Num
  6
CONTINUOUS
 62
    7
370
    0
100
AcDbLine
 10
320
 20
170
 11
310
 21
170
  0
SOLID
  5
116
100
AcDbEntity
  8
Num
  6
CONTINUOUS
 62
    7
370
    0
100
AcDbTrace
 10
342
 20
185.6307198468598
 30
0
 11
338.4062352813714
 21
182.0560832482209
 31
0
 12
337.4418103346649
 22
183.4134966645842
 32
0
 13
337.4418103346649
 23
183.4134966645842
 33
0
  0
ENDBLK
  5
89
330
87
100
AcDbEntity
  8
0
100
AcDbBlockEnd
  0
BLOCK
  5
8B
330
8A
100
AcDbEntity
  8
0
100
AcDbBlockBegin
  2
*D23
 70
    1
 10
0
 20
0
  3
*D23
  1

  0
LINE
  5
117
100
AcDbEntity
  8
Dim
  6
ByBlock
 62
    0
370
   -2
100
AcDbLine
 10
243
 20
230
 11
178
 21
230
  0
SOLID
  5
118
100
AcDbEntity
  8
Dim
  6
ByBlock
 62
    0
370
   -2
100
AcDbTrace
 10
243
 20
230
 30
0
 11
238
 21
229.1674306844543
 31
0
 12
238
 22
230.8325693155457
 32
0
 13
238
 23
230.8325693155457
 33
0
  0
SOLID
  5
119
100
AcDbEntity
  8
Dim
  6
ByBlock
 62
    0
370
   -2
100
AcDbTrace
 10
178
 20
230
 30
0
 11
183
 21
230.8325693155457
 31
0
 12
183
 22
229.1674306844543
 32
0
 13
183
 23
229.1674306844543
 33
0
  0
MTEXT
  5
11A
100
AcDbEntity
  8
Dim
  6
CONTINUOUS
 62
    0
370
   -2
100
AcDbMText
 10
210.5
 20
233.75
 30
0
 40
5
 41
6.111111111111732
 71
    5
 72
    1
  1
65
  7
standard
210
0
220
0
230
1
 50
360
 73
    2
 44
1
  0
LINE
  5
11B
100
AcDbEntity
  8
Dim
  6
ByBlock
 62
    0
370
   -2
100
AcDbLine
 10
243
 20
224.25
 11
243
 21
232.5
  0
LINE
  5
11C
100
AcDbEntity
  8
Dim
  6
ByBlock
 62
    0
370
   -2
100
AcDbLine
 10
178
 20
224.25
 11
178
 21
232.5
  0
ENDBLK
  5
8C
330
8A
100
AcDbEntity
  8
0
100
AcDbBlockEnd
  0
BLOCK
  5
8E
330
8D
100
AcDbEntity
  8
0
100
AcDbBlockBegin
  2
*D30
 70
    1
 10
0
 20
0
  3
*D30
  1

  0
LINE
  5
11D
100
AcDbEntity
  8
Dim
  6
ByBlock
 62
    0
370
   -2
100
AcDbLine
 10
-12
 20
80
 11
12
 21
80
  0
SOLID
  5
11E
100
AcDbEntity
  8
Dim
  6
ByBlock
 62
    0
370
   -2
100
AcDbTrace
 10
-2
 20
80
 30
0
 11
-7
 21
79.16743068445432
 31
0
 12
-7
 22
80.83256931554568
 32
0
 13
-7
 23
80.83256931554568
 33
0
  0
SOLID
  5
11F
100
AcDbEntity
  8
Dim
  6
ByBlock
 62
    0
370
   -2
100
AcDbTrace
 10
2
 20
80
 30
0
 11
7
 21
80.83256931554568
 31
0
 12
7
 22
79.16743068445432
 32
0
 13
7
 23
79.16743068445432
 33
0
  0
MTEXT
  5
120
100
AcDbEntity
  8
Dim
  6
CONTINUOUS
 62
    0
370
   -2
100
AcDbMText
 10
2.296212748401287e-16
 20
83.75
 30
0
 40
5
 41
2.777777777777778
 71
    5
 72
    1
  1
4
  7
standard
210
0
220
0
230
1
 50
0
 73
    2
 44
1
  0
LINE
  5
121
100
AcDbEntity
  8
Dim
  6
ByBlock
 62
    0
370
   -2
100
AcDbLine
 10
-2
 20
71.25
 11
-2
 21
82.5
  0
LINE
  5
122
100
AcDbEntity
  8
Dim
  6
ByBlock
 62
    0
370
   -2
100
AcDbLine
 10
2
 20
71.25
 11
2
 21
82.5
  0
ENDBLK
  5
8F
330
8D
100
AcDbEntity
  8
0
100
AcDbBlockEnd
  0
BLOCK
  5
91
330
90
100
AcDbEntity
  8
0
100
AcDbBlockBegin
  2
*D1
 70
    1
 10
0
 20
0
  3
*D1
  1

  0
LINE
  5
123
100
AcDbEntity
  8
Dim
  6
ByBlock
 62
    0
370
   -2
100
AcDbLine
 10
12.00000000000011
 20
-10
 11
32.0000000000001
 21
-10
  0
SOLID
  5
124
100
AcDbEntity
  8
Dim
  6
ByBlock
 62
    0
370
   -2
100
AcDbTrace
 10
12.00000000000011
 20
-10
 30
0
 11
17.00000000000011
 21
-9.16743068445432
 31
0
 12
17.00000000000011
 22
-10.83256931554568
 32
0
 13
17.00000000000011
 23
-10.83256931554568
 33
0
  0
SOLID
  5
125
100
AcDbEntity
  8
Dim
  6
ByBlock
 62
    0
370
   -2
100
AcDbTrace
 10
32.0000000000001
 20
-10
 30
0
 11
27.0000000000001
 21
-10.83256931554568
 31
0
 12
27.0000000000001
 22
-9.167430684454319
 32
0
 13
27.0000000000001
 23
-9.167430684454319
 33
0
  0
MTEXT
  5
126
100
AcDbEntity
  8
Dim
  6
CONTINUOUS
 62
    0
370
   -2
100
AcDbMText
 10
22.00000000000011
 20
-6.25
 30
0
 40
5
 41
6.111111111111112
 71
    5
 72
    1
  1
20
  7
standard
210
0
220
0
230
1
 50
0
 73
    2
 44
1
  0
LINE
  5
127
100
AcDbEntity
  8
Dim
  6
ByBlock
 62
    0
370
   -2
100
AcDbLine
 10
12.00000000000011
 20
2.749995704681453
 11
12.00000000000011
 21
-12.5
  0
LINE
  5
128
100
AcDbEntity
  8
Dim
  6
ByBlock
 62
    0
370
   -2
100
AcDbLine
 10
32.0000000000001
 20
2.75
 11
32.0000000000001
 21
-12.5
  0
ENDBLK
  5
92
330
90
100
AcDbEntity
  8
0
100
AcDbBlockEnd
  0
BLOCK
  5
94
330
93
100
AcDbEntity
  8
0
100
AcDbBlockBegin
  2
*D15
 70
    1
 10
0
 20
0
  3
*D15
  1

  0
LINE
  5
129
100
AcDbEntity
  8
Dim
  6
ByBlock
 62
    0
370
   -2
100
AcDbLine
 10
-40
 20
177.9999999999999
 11
-40
 21
153
  0
SOLID
  5
12A
100
AcDbEntity
  8
Dim
  6
ByBlock
 62
    0
370
   -2
100
AcDbTrace
 10
-40
 20
167.9999999999999
 30
0
 11
-40.83256931554568
 21
172.9999999999999
 31
0
 12
-39.16743068445432
 22
172.9999999999999
 32
0
 13
-39.16743068445432
 23
172.9999999999999
 33
0
  0
SOLID
  5
12B
100
AcDbEntity
  8
Dim
  6
ByBlock
 62
    0
370
   -2
100
AcDbTrace
 10
-40
 20
163
 30
0
 11
-39.16743068445432
 21
158
 31
0
 12
-40.83256931554568
 22
158
 32
0
 13
-40.83256931554568
 23
158
 33
0
  0
MTEXT
  5
12C
100
AcDbEntity
  8
Dim
  6
CONTINUOUS
 62
    0
370
   -2
100
AcDbMText
 10
-43.75
 20
165.4999999999999
 30
0
 40
5
 41
2.222222222222532
 71
    5
 72
    1
  1
5
  7
standard
210
0
220
0
230
1
 50
90
 73
    2
 44
1
  0
LINE
  5
12D
100
AcDbEntity
  8
Dim
  6
ByBlock
 62
    0
370
   -2
100
AcDbLine
 10
-30.25000000000001
 20
167.9999999999999
 11
-42.5
 21
167.9999999999999
  0
LINE
  5
12E
100
AcDbEntity
  8
Dim
  6
ByBlock
 62
    0
370
   -2
100
AcDbLine
 10
-30.25000000000001
 20
163
 11
-42.5
 21
163
  0
ENDBLK
  5
95
330
93
100
AcDbEntity
  8
0
100
AcDbBlockEnd
  0
BLOCK
  5
97
330
96
100
AcDbEntity
  8
0
100
AcDbBlockBegin
  2
*D16
 70
    1
 10
0
 20
0
  3
*D16
  1

  0
LINE
  5
12F
100
AcDbEntity
  8
Dim
  6
ByBlock
 62
    0
370
   -2
100
AcDbLine
 10
-50
 20
169
 11
-50
 21
144
  0
SOLID
  5
130
100
AcDbEntity
  8
Dim
  6
ByBlock
 62
    0
370
   -2
100
AcDbTrace
 10
-50
 20
159
 30
0
 11
-50.83256931554568
 21
164
 31
0
 12
-49.16743068445432
 22
164
 32
0
 13
-49.16743068445432
 23
164
 33
0
  0
SOLID
  5
131
100
AcDbEntity
  8
Dim
  6
ByBlock
 62
    0
370
   -2
100
AcDbTrace
 10
-50
 20
154
 30
0
 11
-49.16743068445432
 21
149
 31
0
 12
-50.83256931554568
 22
149
 32
0
 13
-50.83256931554568
 23
149
 33
0
  0
MTEXT
  5
132
100
AcDbEntity
  8
Dim
  6
CONTINUOUS
 62
    0
370
   -2
100
AcDbMText
 10
-53.75
 20
156.5
 30
0
 40
5
 41
2.222222222222532
 71
    5
 72
    1
  1
5
  7
standard
210
0
220
0
230
1
 50
90
 73
    2
 44
1
  0
LINE
  5
133
100
AcDbEntity
  8
Dim
  6
ByBlock
 62
    0
370
   -2
100
AcDbLine
 10
-30.25000000000001
 20
159
 11
-52.5
 21
159
  0
LINE
  5
134
100
AcDbEntity
  8
Dim
  6
ByBlock
 62
    0
370
   -2
100
AcDbLine
 10
-30.25
 20
154
 11
-52.5
 21
154
  0
ENDBLK
  5
98
330
96
100
AcDbEntity
  8
0
100
AcDbBlockEnd
  0
BLOCK
  5
9A
330
99
100
AcDbEntity
  8
0
100
AcDbBlockBegin
  2
*D32
 70
    1
 10
0
 20
0
  3
*D32
  1

  0
LINE
  5
135
100
AcDbEntity
  8
Num
  6
CONTINUOUS
 62
    7
370
    0
100
AcDbLine
 10
364
 20
307.8187906238374
 11
320
 21
330
  0
LINE
  5
136
100
AcDbEntity
  8
Num
  6
CONTINUOUS
 62
    7
370
    0
100
AcDbLine
 10
320
 20
330
 11
310
 21
330
  0
SOLID
  5
137
100
AcDbEntity
  8
Num
  6
CONTINUOUS
 62
    7
370
    0
100
AcDbTrace
 10
364
 20
307.8187906238374
 30
0
 11
359.1604595511151
 21
309.3261127223934
 31
0
 12
359.9100270297191
 22
310.8130004975035
 32
0
 13
359.9100270297191
 23
310.8130004975035
 33
0
  0
ENDBLK
  5
9B
330
99
100
AcDbEntity
  8
0
100
AcDbBlockEnd
  0
BLOCK
  5
9D
330
9C
100
AcDbEntity
  8
0
100
AcDbBlockBegin
  2
*D5
 70
    1
 10
0
 20
0
  3
*D5
  1

  0
LINE
  5
138
100
AcDbEntity
  8
Dim
  6
ByBlock
 62
    0
370
   -2
100
AcDbLine
 10
51
 20
268
 11
51
 21
298
  0
SOLID
  5
139
100
AcDbEntity
  8
Dim
  6
ByBlock
 62
    0
370
   -2
100
AcDbTrace
 10
51
 20
268
 30
0
 11
50.16743068445432
 21
273
 31
0
 12
51.83256931554568
 22
273
 32
0
 13
51.83256931554568
 23
273
 33
0
  0
SOLID
  5
13A
100
AcDbEntity
  8
Dim
  6
ByBlock
 62
    0
370
   -2
100
AcDbTrace
 10
51
 20
298
 30
0
 11
51.83256931554568
 21
293
 31
0
 12
50.16743068445432
 22
293
 32
0
 13
50.16743068445432
 23
293
 33
0
  0
MTEXT
  5
13B
100
AcDbEntity
  8
Dim
  6
CONTINUOUS
 62
    0
370
   -2
100
AcDbMText
 10
47.25
 20
283
 30
0
 40
5
 41
6.111111111111422
 71
    5
 72
    1
  1
30
  7
standard
210
0
220
0
230
1
 50
90
 73
    2
 44
1
  0
LINE
  5
13C
100
AcDbEntity
  8
Dim
  6
ByBlock
 62
    0
370
   -2
100
AcDbLine
 10
33.25
 20
268
 11
53.5
 21
268
  0
LINE
  5
13D
100
AcDbEntity
  8
Dim
  6
ByBlock
 62
    0
370
   -2
100
AcDbLine
 10
33.25000000000001
 20
298
 11
53.5
 21
298
  0
ENDBLK
  5
9E
330
9C
100
AcDbEntity
  8
0
100
AcDbBlockEnd
  0
BLOCK
  5
A0
330
9F
100
AcDbEntity
  8
0
100
AcDbBlockBegin
  2
*D18
 70
    1
 10
0
 20
0
  3
*D18
  1

  0
LINE
  5
13E
100
AcDbEntity
  8
Num
  6
CONTINUOUS
 62
    7
370
    0
100
AcDbLine
 10
329.8530636669445
 20
268
 11
320
 21
290
  0
LINE
  5
13F
100
AcDbEntity
  8
Num
  6
CONTINUOUS
 62
    7
370
    0
100
AcDbLine
 10
320
 20
290
 11
310
 21
290
  0
SOLID
  5
140
100
AcDbEntity
  8
Num
  6
CONTINUOUS
 62
    7
370
    0
100
AcDbTrace
 10
329.8530636669445
 20
268
 30
0
 11
327.0494962832852
 21
272.2229351866291
 31
0
 12
328.5691829156582
 22
272.9035519658371
 32
0
 13
328.5691829156582
 23
272.9035519658371
 33
0
  0
ENDBLK
  5
A1
330
9F
100
AcDbEntity
  8
0
100
AcDbBlockEnd
  0
BLOCK
  5
A3
330
A2
100
AcDbEntity
  8
0
100
AcDbBlockBegin
  2
*D33
 70
    1
 10
0
 20
0
  3
*D33
  1

  0
LINE
  5
141
100
AcDbEntity
  8
Dim
  6
ByBlock
 62
    0
370
   -2
100
AcDbLine
 10
160
 20
303
 11
160
 21
205
  0
SOLID
  5
142
100
AcDbEntity
  8
Dim
  6
ByBlock
 62
    0
370
   -2
100
AcDbTrace
 10
160
 20
303
 30
0
 11
160.8325693155457
 21
298
 31
0
 12
159.1674306844543
 22
298
 32
0
 13
159.1674306844543
 23
298
 33
0
  0
SOLID
  5
143
100
AcDbEntity
  8
Dim
  6
ByBlock
 62
    0
370
   -2
100
AcDbTrace
 10
160
 20
205
 30
0
 11
159.1674306844543
 21
210
 31
0
 12
160.8325693155457
 22
210
 32
0
 13
160.8325693155457
 23
210
 33
0
  0
MTEXT
  5
144
100
AcDbEntity
  8
Dim
  6
CONTINUOUS
 62
    0
370
   -2
100
AcDbMText
 10
156.25
 20
254
 30
0
 40
5
 41
6.111111111111422
 71
    5
 72
    1
  1
98
  7
standard
210
0
220
0
230
1
 50
90
 73
    2
 44
1
  0
LINE
  5
145
100
AcDbEntity
  8
Dim
  6
ByBlock
 62
    0
370
   -2
100
AcDbLine
 10
186.75
 20
303
 11
157.5
 21
303
  0
LINE
  5
146
100
AcDbEntity
  8
Dim
  6
ByBlock
 62
    0
370
   -2
100
AcDbLine
 10
186.75
 20
205
 11
157.5
 21
205
  0
ENDBLK
  5
A4
330
A2
100
AcDbEntity
  8
0
100
AcDbBlockEnd
  0
BLOCK
  5
A6
330
A5
100
AcDbEntity
  8
0
100
AcDbBlockBegin
  2
*D24
 70
    1
 10
0
 20
0
  3
*D24
  1

  0
LINE
  5
147
100
AcDbEntity
  8
Dim
  6
ByBlock
 62
    0
370
   -2
100
AcDbLine
 10
198
 20
258
 11
178
 21
258
  0
SOLID
  5
148
100
AcDbEntity
  8
Dim
  6
ByBlock
 62
    0
370
   -2
100
AcDbTrace
 10
198
 20
258
 30
0
 11
193
 21
257.1674306844543
 31
0
 12
193
 22
258.8325693155457
 32
0
 13
193
 23
258.8325693155457
 33
0
  0
SOLID
  5
149
100
AcDbEntity
  8
Dim
  6
ByBlock
 62
    0
370
   -2
100
AcDbTrace
 10
178
 20
258
 30
0
 11
183
 21
258.8325693155457
 31
0
 12
183
 22
257.1674306844543
 32
0
 13
183
 23
257.1674306844543
 33
0
  0
MTEXT
  5
14A
100
AcDbEntity
  8
Dim
  6
CONTINUOUS
 62
    0
370
   -2
100
AcDbMText
 10
188
 20
261.75
 30
0
 40
5
 41
6.111111111111112
 71
    5
 72
    1
  1
20
  7
standard
210
0
220
0
230
1
 50
360
 73
    2
 44
1
  0
LINE
  5
14B
100
AcDbEntity
  8
Dim
  6
ByBlock
 62
    0
370
   -2
100
AcDbLine
 10
198
 20
254.25
 11
198
 21
260.5
  0
LINE
  5
14C
100
AcDbEntity
  8
Dim
  6
ByBlock
 62
    0
370
   -2
100
AcDbLine
 10
178
 20
252.5
 11
178
 21
260.5
  0
ENDBLK
  5
A7
330
A5
100
AcDbEntity
  8
0
100
AcDbBlockEnd
  0
BLOCK
  5
A9
330
A8
100
AcDbEntity
  8
0
100
AcDbBlockBegin
  2
*D7
 70
    1
 10
0
 20
0
  3
*D7
  1

  0
LINE
  5
14D
100
AcDbEntity
  8
Dim
  6
ByBlock
 62
    0
370
   -2
100
AcDbLine
 10
50
 20
168
 11
50
 21
198
  0
SOLID
  5
14E
100
AcDbEntity
  8
Dim
  6
ByBlock
 62
    0
370
   -2
100
AcDbTrace
 10
50
 20
168
 30
0
 11
49.16743068445432
 21
173
 31
0
 12
50.83256931554568
 22
173
 32
0
 13
50.83256931554568
 23
173
 33
0
  0
SOLID
  5
14F
100
AcDbEntity
  8
Dim
  6
ByBlock
 62
    0
370
   -2
100
AcDbTrace
 10
50
 20
198
 30
0
 11
50.83256931554568
 21
193
 31
0
 12
49.16743068445432
 22
193
 32
0
 13
49.16743068445432
 23
193
 33
0
  0
MTEXT
  5
150
100
AcDbEntity
  8
Dim
  6
CONTINUOUS
 62
    0
370
   -2
100
AcDbMText
 10
46.25
 20
183
 30
0
 40
5
 41
6.111111111111422
 71
    5
 72
    1
  1
30
  7
standard
210
0
220
0
230
1
 50
90
 73
    2
 44
1
  0
LINE
  5
151
100
AcDbEntity
  8
Dim
  6
ByBlock
 62
    0
370
   -2
100
AcDbLine
 10
33.24999999999999
 20
168
 11
52.5
 21
168
  0
LINE
  5
152
100
AcDbEntity
  8
Dim
  6
ByBlock
 62
    0
370
   -2
100
AcDbLine
 10
33.25
 20
198
 11
52.5
 21
198
  0
ENDBLK
  5
AA
330
A8
100
AcDbEntity
  8
0
100
AcDbBlockEnd
  0
BLOCK
  5
AC
330
AB
100
AcDbEntity
  8
0
100
AcDbBlockBegin
  2
*D6
 70
    1
 10
0
 20
0
  3
*D6
  1

  0
LINE
  5
153
100
AcDbEntity
  8
Dim
  6
ByBlock
 62
    0
370
   -2
100
AcDbLine
 10
89.00000000000091
 20
240
 11
28.9999999999992
 21
240
  0
SOLID
  5
154
100
AcDbEntity
  8
Dim
  6
ByBlock
 62
    0
370
   -2
100
AcDbTrace
 10
89.00000000000091
 20
240
 30
0
 11
84.00000000000091
 21
239.1674306844543
 31
0
 12
84.00000000000091
 22
240.8325693155457
 32
0
 13
84.00000000000091
 23
240.8325693155457
 33
0
  0
SOLID
  5
155
100
AcDbEntity
  8
Dim
  6
ByBlock
 62
    0
370
   -2
100
AcDbTrace
 10
28.9999999999992
 20
240
 30
0
 11
33.9999999999992
 21
240.8325693155457
 31
0
 12
33.9999999999992
 22
239.1674306844543
 32
0
 13
33.9999999999992
 23
239.1674306844543
 33
0
  0
MTEXT
  5
156
100
AcDbEntity
  8
Dim
  6
CONTINUOUS
 62
    0
370
   -2
100
AcDbMText
 10
59.00000000000006
 20
243.75
 30
0
 40
5
 41
6.111111111111422
 71
    5
 72
    1
  1
60
  7
standard
210
0
220
0
230
1
 50
360
 73
    2
 44
1
  0
LINE
  5
157
100
AcDbEntity
  8
Dim
  6
ByBlock
 62
    0
370
   -2
100
AcDbLine
 10
89.00000000000091
 20
206.2499999999999
 11
89.00000000000091
 21
242.5
  0
LINE
  5
158
100
AcDbEntity
  8
Dim
  6
ByBlock
 62
    0
370
   -2
100
AcDbLine
 10
28.9999999999992
 20
206.25
 11
28.9999999999992
 21
242.5
  0
ENDBLK
  5
AD
330
AB
100
AcDbEntity
  8
0
100
AcDbBlockEnd
  0
BLOCK
  5
AF
330
AE
100
AcDbEntity
  8
0
100
AcDbBlockBegin
  2
*D22
 70
    1
 10
0
 20
0
  3
*D22
  1

  0
LINE
  5
159
100
AcDbEntity
  8
Num
  6
CONTINUOUS
 62
    7
370
    0
100
AcDbLine
 10
342
 20
142.4044151164702
 11
320
 21
120
  0
LINE
  5
15A
100
AcDbEntity
  8
Num
  6
CONTINUOUS
 62
    7
370
    0
100
AcDbLine
 10
320
 20
120
 11
310
 21
120
  0
SOLID
  5
15B
100
AcDbEntity
  8
Num
  6
CONTINUOUS
 62
    7
370
    0
100
AcDbTrace
 10
342
 20
142.4044151164702
 30
0
 11
339.0908639305853
 21
138.2534996758935
 31
0
 12
337.9027588852724
 22
139.4201586072247
 32
0
 13
337.9027588852724
 23
139.4201586072247
 33
0
  0
ENDBLK
  5
B0
330
AE
100
AcDbEntity
  8
0
100
AcDbBlockEnd
  0
BLOCK
  5
B2
330
B1
100
AcDbEntity
  8
0
100
AcDbBlockBegin
  2
*D4
 70
    1
 10
0
 20
0
  3
*D4
  1

  0
LINE
  5
15C
100
AcDbEntity
  8
Dim
  6
ByBlock
 62
    0
370
   -2
100
AcDbLine
 10
-60.00000000000001
 20
198.0000003990831
 11
-60
 21
268
  0
SOLID
  5
15D
100
AcDbEntity
  8
Dim
  6
ByBlock
 62
    0
370
   -2
100
AcDbTrace
 10
-60.00000000000001
 20
198.0000003990831
 30
0
 11
-60.83256931554569
 21
203.0000003990831
 31
0
 12
-59.16743068445432
 22
203.0000003990831
 32
0
 13
-59.16743068445432
 23
203.0000003990831
 33
0
  0
SOLID
  5
15E
100
AcDbEntity
  8
Dim
  6
ByBlock
 62
    0
370
   -2
100
AcDbTrace
 10
-60
 20
268
 30
0
 11
-59.16743068445432
 21
263
 31
0
 12
-60.83256931554568
 22
263
 32
0
 13
-60.83256931554568
 23
263
 33
0
  0
MTEXT
  5
15F
100
AcDbEntity
  8
Dim
  6
CONTINUOUS
 62
    0
370
   -2
100
AcDbMText
 10
-63.75
 20
233.0000001995415
 30
0
 40
5
 41
6.111111111111112
 71
    5
 72
    1
  1
70
  7
standard
210
0
220
0
230
1
 50
90
 73
    2
 44
1
  0
LINE
  5
160
100
AcDbEntity
  8
Dim
  6
ByBlock
 62
    0
370
   -2
100
AcDbLine
 10
-33.25000000000001
 20
198.0000003990831
 11
-62.50000000000001
 21
198.0000003990831
  0
LINE
  5
161
100
AcDbEntity
  8
Dim
  6
ByBlock
 62
    0
370
   -2
100
AcDbLine
 10
-33.25
 20
268
 11
-62.5
 21
268
  0
ENDBLK
  5
B3
330
B1
100
AcDbEntity
  8
0
100
AcDbBlockEnd
  0
BLOCK
  5
B5
330
B4
100
AcDbEntity
  8
0
100
AcDbBlockBegin
  2
*D31
 70
    1
 10
0
 20
0
  3
*D31
  1

  0
LINE
  5
162
100
AcDbEntity
  8
Dim
  6
ByBlock
 62
    0
370
   -2
100
AcDbLine
 10
188
 20
320
 11
212
 21
320
  0
SOLID
  5
163
100
AcDbEntity
  8
Dim
  6
ByBlock
 62
    0
370
   -2
100
AcDbTrace
 10
198
 20
320
 30
0
 11
193
 21
319.1674306844543
 31
0
 12
193
 22
320.8325693155457
 32
0
 13
193
 23
320.8325693155457
 33
0
  0
SOLID
  5
164
100
AcDbEntity
  8
Dim
  6
ByBlock
 62
    0
370
   -2
100
AcDbTrace
 10
202
 20
320
 30
0
 11
207
 21
320.8325693155457
 31
0
 12
207
 22
319.1674306844543
 32
0
 13
207
 23
319.1674306844543
 33
0
  0
MTEXT
  5
165
100
AcDbEntity
  8
Dim
  6
CONTINUOUS
 62
    0
370
   -2
100
AcDbMText
 10
200
 20
323.75
 30
0
 40
5
 41
2.777777777777778
 71
    5
 72
    1
  1
4
  7
standard
210
0
220
0
230
1
 50
0
 73
    2
 44
1
  0
LINE
  5
166
100
AcDbEntity
  8
Dim
  6
ByBlock
 62
    0
370
   -2
100
AcDbLine
 10
198
 20
309.25
 11
198
 21
322.5
  0
LINE
  5
167
100
AcDbEntity
  8
Dim
  6
ByBlock
 62
    0
370
   -2
100
AcDbLine
 10
202
 20
309.25
 11
202
 21
322.5
  0
ENDBLK
  5
B6
330
B4
100
AcDbEntity
  8
0
100
AcDbBlockEnd
  0
ENDSEC
  0
SECTION
  2
ENTITIES
  0
HATCH
  5
168
100
AcDbEntity
  8
ramka
  6
ByLayer
 62
  256
370
   -1
100
AcDbHatch
 10
0
 20
0
 30
0
210
0
220
0
230
1
  2
gost_metal
 70
    0
 71
    0
 91
    1
 92
    0
 93
   16
 72
    1
 10
407
 20
159
 11
367
 21
159
 72
    2
 10
367
 20
154
 40
5.000000000000001
 50
90
 51
180
 73
    1
 72
    1
 10
362
 20
154
 11
362
 21
114
 72
    2
 10
367
 20
114
 40
5.000000000000001
 50
180
 51
270
 73
    1
 72
    1
 10
367
 20
109
 11
407
 21
109
 72
    2
 10
407
 20
114
 40
5.000000000000001
 50
270
 51
0
 73
    1
 72
    1
 10
412
 20
114
 11
412
 21
154
 72
    2
 10
407
 20
154
 40
5.000000000000001
 50
0
 51
90
 73
    1
 72
    1
 10
365
 20
114
 11
365
 21
154
 72
    2
 10
367
 20
154
 40
2
 50
180
 51
270
 73
    0
 72
    1
 10
367
 20
156
 11
407
 21
156
 72
    2
 10
407
 20
154
 40
2
 50
270
 51
360
 73
    0
 72
    1
 10
409
 20
154
 11
409
 21
114
 72
    2
 10
407
 20
114
 40
2
 50
360
 51
90
 73
    0
 72
    1
 10
407
 20
112
 11
367
 21
112
 72
    2
 10
367
 20
114
 40
2
 50
90
 51
180
 73
    0
 97
    0
 75
    0
 76
    1
 52
0
 41
1
 77
    0
 78
    0
 98
    0
  0
HATCH
  5
169
100
AcDbEntity
  8
vorota
  6
ByLayer
 62
  256
370
   -1
100
AcDbHatch
 10
0
 20
0
 30
0
210
0
220
0
230
1
  2
gost_metal
 70
    0
 71
    0
 91
    1
 92
    0
 93
    9
 72
    2
 10
365
 20
165
 40
3
 50
90
 51
180
 73
    1
 72
    1
 10
362
 20
165
 11
362
 21
163
 72
    1
 10
362
 20
163
 11
412
 21
163
 72
    1
 10
412
 20
163
 11
412
 21
213
 72
    1
 10
412
 20
213
 11
410
 21
213
 72
    2
 10
410
 20
210
 40
3
 50
90
 51
180
 73
    1
 72
    1
 10
407
 20
210
 11
407
 21
172
 72
    2
 10
403
 20
172
 40
4.000000000000001
 50
0
 51
90
 73
    0
 72
    1
 10
403
 20
168
 11
365
 21
168
 97
    0
 75
    0
 76
    1
 52
3.141592653589793
 41
1
 77
    0
 78
    0
 98
    0
  0
HATCH
  5
16A
100
AcDbEntity
  8
vorota
  6
ByLayer
 62
  256
370
   -1
100
AcDbHatch
 10
0
 20
0
 30
0
210
0
220
0
230
1
  2
gost_metal
 70
    0
 71
    0
 91
    1
 92
    0
 93
    9
 72
    2
 10
239
 20
172
 40
4.000000000000001
 50
0
 51
90
 73
    0
 72
    1
 10
239
 20
168
 11
201
 21
168
 72
    2
 10
201
 20
165
 40
3
 50
90
 51
180
 73
    1
 72
    1
 10
198
 20
165
 11
198
 21
163
 72
    1
 10
198
 20
163
 11
248
 21
163
 72
    1
 10
248
 20
163
 11
248
 21
213
 72
    1
 10
248
 20
213
 11
246
 21
213
 72
    2
 10
246
 20
210
 40
3
 50
90
 51
180
 73
    1
 72
    1
 10
243
 20
210
 11
243
 21
172
 97
    0
 75
    0
 76
    1
 52
3.141592653589793
 41
1
 77
    0
 78
    0
 98
    0
  0
HATCH
  5
16B
100
AcDbEntity
  8
ramka
  6
ByLayer
 62
  256
370
   -1
100
AcDbHatch
 10
0
 20
0
 30
0
210
0
220
0
230
1
  2
gost_metal
 70
    0
 71
    0
 91
    1
 92
    0
 93
   16
 72
    1
 10
248
 20
114
 11
248
 21
154
 72
    2
 10
243
 20
154
 40
5.000000000000001
 50
0
 51
90
 73
    1
 72
    1
 10
243
 20
159
 11
203
 21
159
 72
    2
 10
203
 20
154
 40
5.000000000000001
 50
90
 51
180
 73
    1
 72
    1
 10
198
 20
154
 11
198
 21
114
 72
    2
 10
203
 20
114
 40
5.000000000000001
 50
180
 51
270
 73
    1
 72
    1
 10
203
 20
109
 11
243
 21
109
 72
    2
 10
243
 20
114
 40
5.000000000000001
 50
270
 51
0
 73
    1
 72
    1
 10
201
 20
114
 11
201
 21
154
 72
    2
 10
203
 20
154
 40
2
 50
180
 51
270
 73
    0
 72
    1
 10
203
 20
156
 11
243
 21
156
 72
    2
 10
243
 20
154
 40
2
 50
270
 51
360
 73
    0
 72
    1
 10
245
 20
154
 11
245
 21
114
 72
    2
 10
243
 20
114
 40
2
 50
360
 51
90
 73
    0
 72
    1
 10
243
 20
112
 11
203
 21
112
 72
    2
 10
203
 20
114
 40
2
 50
90
 51
180
 73
    0
 97
    0
 75
    0
 76
    1
 52
0
 41
1
 77
    0
 78
    0
 98
    0
  0
HATCH
  5
16C
100
AcDbEntity
  8
vorota
  6
ByLayer
 62
  256
370
   -1
100
AcDbHatch
 10
0
 20
0
 30
0
210
0
220
0
230
1
  2
gost_metal
 70
    0
 71
    0
 91
    1
 92
    0
 93
    4
 72
    1
 10
7.000000000000099
 20
24
 11
7.000000000000099
 21
20
 72
    1
 10
7.000000000000099
 20
20
 11
37
 21
20
 72
    1
 10
37
 20
20
 11
37
 21
24
 72
    1
 10
37
 20
24
 11
7.000000000000099
 21
24
 97
    0
 75
    0
 76
    1
 52
1.570796326794897
 41
1
 77
    0
 78
    0
 98
    0
  0
HATCH
  5
16D
100
AcDbEntity
  8
vorota
  6
ByLayer
 62
  256
370
   -1
100
AcDbHatch
 10
0
 20
0
 30
0
210
0
220
0
230
1
  2
gost_metal
 70
    0
 71
    0
 91
    1
 92
    0
 93
    9
 72
    2
 10
11
 20
61
 40
4.000000000000001
 50
180
 51
270
 73
    0
 72
    1
 10
11
 20
65
 11
49
 21
65
 72
    2
 10
49
 20
68
 40
3
 50
270
 51
360
 73
    1
 72
    1
 10
52
 20
68
 11
52
 21
70
 72
    1
 10
52
 20
70
 11
2
 21
70
 72
    1
 10
2
 20
70
 11
2
 21
20
 72
    1
 10
2
 20
20
 11
4.000000000000001
 21
20
 72
    2
 10
4
 20
23
 40
3
 50
270
 51
360
 73
    1
 72
    1
 10
7
 20
23
 11
7
 21
61
 97
    0
 75
    0
 76
    1
 52
0
 41
1
 77
    0
 78
    0
 98
    0
  0
HATCH
  5
16E
100
AcDbEntity
  8
vorota
  6
ByLayer
 62
  256
370
   -1
100
AcDbHatch
 10
0
 20
0
 30
0
210
0
220
0
230
1
  2
gost_metal
 70
    0
 71
    0
 91
    1
 92
    0
 93
    4
 72
    1
 10
-7.000000000000099
 20
24
 11
-7.000000000000099
 21
20
 72
    1
 10
-7.000000000000099
 20
20
 11
-37
 21
20
 72
    1
 10
-37
 20
20
 11
-37
 21
24
 72
    1
 10
-37
 20
24
 11
-7.000000000000099
 21
24
 97
    0
 75
    0
 76
    1
 52
0
 41
1
 77
    0
 78
    0
 98
    0
  0
HATCH
  5
16F
100
AcDbEntity
  8
vorota
  6
ByLayer
 62
  256
370
   -1
100
AcDbHatch
 10
0
 20
0
 30
0
210
0
220
0
230
1
  2
gost_metal
 70
    0
 71
    0
 91
    1
 92
    0
 93
    9
 72
    1
 10
-2
 20
70
 11
-2
 21
20
 72
    1
 10
-2
 20
20
 11
-4.000000000000001
 21
20
 72
    2
 10
-4
 20
23
 40
3
 50
90
 51
180
 73
    0
 72
    1
 10
-7
 20
23
 11
-7
 21
61
 72
    2
 10
-11
 20
61
 40
4.000000000000001
 50
0
 51
89.99999999999997
 73
    1
 72
    1
 10
-11
 20
65
 11
-49
 21
65
 72
    2
 10
-49
 20
68
 40
3
 50
90
 51
180
 73
    0
 72
    1
 10
-52
 20
68
 11
-52
 21
70
 72
    1
 10
-52
 20
70
 11
-2
 21
70
 97
    0
 75
    0
 76
    1
 52
1.570796326794897
 41
1
 77
    0
 78
    0
 98
    0
  0
HATCH
  5
170
100
AcDbEntity
  8
Body
  6
ByLayer
 62
  256
370
   -1
100
AcDbHatch
 10
0
 20
0
 30
0
210
0
220
0
230
1
  2
gost_metal
 70
    0
 71
    0
 91
    1
 92
    0
 93
    4
 72
    1
 10
342
 20
153.9999994827056
 11
344
 21
153.9999994827056
 72
    1
 10
344
 20
153.9999994827056
 11
344
 21
108.9999994827055
 72
    1
 10
344
 20
108.9999994827055
 11
342
 21
108.9999994827055
 72
    1
 10
342
 20
108.9999994827055
 11
342
 21
153.9999994827056
 97
    0
 75
    0
 76
    1
 52
1.570796326794897
 41
0.5
 77
    0
 78
    0
 98
    0
  0
HATCH
  5
171
100
AcDbEntity
  8
Body
  6
ByLayer
 62
  256
370
   -1
100
AcDbHatch
 10
0
 20
0
 30
0
210
0
220
0
230
1
  2
gost_metal
 70
    0
 71
    0
 91
    1
 92
    0
 93
    4
 72
    1
 10
360
 20
153.9999994827056
 11
362
 21
153.9999994827056
 72
    1
 10
362
 20
153.9999994827056
 11
362
 21
108.9999994827055
 72
    1
 10
362
 20
108.9999994827055
 11
360
 21
108.9999994827055
 72
    1
 10
360
 20
108.9999994827055
 11
360
 21
153.9999994827056
 97
    0
 75
    0
 76
    1
 52
1.570796326794897
 41
0.5
 77
    0
 78
    0
 98
    0
  0
HATCH
  5
172
100
AcDbEntity
  8
Body
  6
ByLayer
 62
  256
370
   -1
100
AcDbHatch
 10
0
 20
0
 30
0
210
0
220
0
230
1
  2
gost_metal
 70
    0
 71
    0
 91
    1
 92
    0
 93
    4
 72
    1
 10
178
 20
153.9999994827056
 11
180
 21
153.9999994827056
 72
    1
 10
180
 20
153.9999994827056
 11
180
 21
108.9999994827055
 72
    1
 10
180
 20
108.9999994827055
 11
178
 21
108.9999994827055
 72
    1
 10
178
 20
108.9999994827055
 11
178
 21
153.9999994827056
 97
    0
 75
    0
 76
    1
 52
1.570796326794897
 41
0.5
 77
    0
 78
    0
 98
    0
  0
HATCH
  5
173
100
AcDbEntity
  8
Body
  6
ByLayer
 62
  256
370
   -1
100
AcDbHatch
 10
0
 20
0
 30
0
210
0
220
0
230
1
  2
gost_metal
 70
    0
 71
    0
 91
    1
 92
    0
 93
    4
 72
    1
 10
196
 20
153.9999994827056
 11
198
 21
153.9999994827056
 72
    1
 10
198
 20
153.9999994827056
 11
198
 21
108.9999994827055
 72
    1
 10
198
 20
108.9999994827055
 11
196
 21
108.9999994827055
 72
    1
 10
196
 20
108.9999994827055
 11
196
 21
153.9999994827056
 97
    0
 75
    0
 76
    1
 52
1.570796326794897
 41
0.5
 77
    0
 78
    0
 98
    0
  0
HATCH
  5
174
100
AcDbEntity
  8
Body
  6
ByLayer
 62
  256
370
   -1
100
AcDbHatch
 10
0
 20
0
 30
0
210
0
220
0
230
1
  2
gost_metal
 70
    0
 71
    0
 91
    1
 92
    0
 93
    4
 72
    1
 10
31.99999999999999
 20
108.9999994827055
 11
29.99999999999999
 21
108.9999994827055
 72
    1
 10
29.99999999999999
 20
108.9999994827055
 11
29.99999999999999
 21
153.9999994827056
 72
    1
 10
29.99999999999999
 20
153.9999994827056
 11
31.99999999999999
 21
153.9999994827056
 72
    1
 10
31.99999999999999
 20
153.9999994827056
 11
31.99999999999999
 21
108.9999994827055
 97
    0
 75
    0
 76
    1
 52
1.570796326794897
 41
0.5
 77
    0
 78
    0
 98
    0
  0
HATCH
  5
175
100
AcDbEntity
  8
Body
  6
ByLayer
 62
  256
370
   -1
100
AcDbHatch
 10
0
 20
0
 30
0
210
0
220
0
230
1
  2
gost_metal
 70
    0
 71
    0
 91
    1
 92
    0
 93
    4
 72
    1
 10
13.99999999999998
 20
108.9999994827055
 11
11.99999999999998
 21
108.9999994827055
 72
    1
 10
11.99999999999998
 20
108.9999994827055
 11
11.99999999999999
 21
153.9999994827056
 72
    1
 10
11.99999999999999
 20
153.9999994827056
 11
13.99999999999999
 21
153.9999994827056
 72
    1
 10
13.99999999999999
 20
153.9999994827056
 11
13.99999999999998
 21
108.9999994827055
 97
    0
 75
    0
 76
    1
 52
1.570796326794897
 41
0.5
 77
    0
 78
    0
 98
    0
  0
HATCH
  5
176
100
AcDbEntity
  8
Body
  6
ByLayer
 62
  256
370
   -1
100
AcDbHatch
 10
0
 20
0
 30
0
210
0
220
0
230
1
  2
gost_metal
 70
    0
 71
    0
 91
    1
 92
    0
 93
    4
 72
    1
 10
-12.00000000000001
 20
153.9999994827055
 11
-14.00000000000001
 21
153.9999994827055
 72
    1
 10
-14.00000000000001
 20
153.9999994827055
 11
-14
 21
109
 72
    1
 10
-14
 20
109
 11
-12
 21
109
 72
    1
 10
-12
 20
109
 11
-12.00000000000001
 21
153.9999994827055
 97
    0
 75
    0
 76
    1
 52
4.71238898038469
 41
0.5
 77
    0
 78
    0
 98
    0
  0
HATCH
  5
177
100
AcDbEntity
  8
Body
  6
ByLayer
 62
  256
370
   -1
100
AcDbHatch
 10
0
 20
0
 30
0
210
0
220
0
230
1
  2
gost_metal
 70
    0
 71
    0
 91
    1
 92
    0
 93
    4
 72
    1
 10
-30.00000000000001
 20
153.9999994827055
 11
-32.00000000000001
 21
153.9999994827055
 72
    1
 10
-32.00000000000001
 20
153.9999994827055
 11
-32
 21
109
 72
    1
 10
-32
 20
109
 11
-30
 21
109
 72
    1
 10
-30
 20
109
 11
-30.00000000000001
 21
153.9999994827055
 97
    0
 75
    0
 76
    1
 52
4.71238898038469
 41
0.5
 77
    0
 78
    0
 98
    0
  0
HATCH
  5
178
100
AcDbEntity
  8
Body
  6
ByLayer
 62
  256
370
   -1
100
AcDbHatch
 10
0
 20
0
 30
0
210
0
220
0
230
1
  2
gost_metal
 70
    0
 71
    0
 91
    1
 92
    0
 93
    4
 72
    1
 10
360
 20
268
 11
360
 21
298
 72
    1
 10
360
 20
298
 11
362
 21
298
 72
    1
 10
362
 20
298
 11
362
 21
268
 72
    1
 10
362
 20
268
 11
360
 21
268
 97
    0
 75
    0
 76
    1
 52
1.570796326794897
 41
0.5
 77
    0
 78
    0
 98
    0
  0
HATCH
  5
179
100
AcDbEntity
  8
Body
  6
ByLayer
 62
  256
370
   -1
100
AcDbHatch
 10
0
 20
0
 30
0
210
0
220
0
230
1
  2
gost_metal
 70
    0
 71
    0
 91
    1
 92
    0
 93
    4
 72
    1
 10
342
 20
268
 11
342
 21
298
 72
    1
 10
342
 20
298
 11
344
 21
298
 72
    1
 10
344
 20
298
 11
344
 21
268
 72
    1
 10
344
 20
268
 11
342
 21
268
 97
    0
 75
    0
 76
    1
 52
1.570796326794897
 41
0.5
 77
    0
 78
    0
 98
    0
  0
HATCH
  5
17A
100
AcDbEntity
  8
Body
  6
ByLayer
 62
  256
370
   -1
100
AcDbHatch
 10
0
 20
0
 30
0
210
0
220
0
230
1
  2
gost_metal
 70
    0
 71
    0
 91
    1
 92
    0
 93
    4
 72
    1
 10
360
 20
198
 11
362
 21
198
 72
    1
 10
362
 20
198
 11
362
 21
168
 72
    1
 10
362
 20
168
 11
360
 21
168
 72
    1
 10
360
 20
168
 11
360
 21
198
 97
    0
 75
    0
 76
    1
 52
1.570796326794897
 41
0.5
 77
    0
 78
    0
 98
    0
  0
HATCH
  5
17B
100
AcDbEntity
  8
Body
  6
ByLayer
 62
  256
370
   -1
100
AcDbHatch
 10
0
 20
0
 30
0
210
0
220
0
230
1
  2
gost_metal
 70
    0
 71
    0
 91
    1
 92
    0
 93
    4
 72
    1
 10
342
 20
198
 11
344
 21
198
 72
    1
 10
344
 20
198
 11
344
 21
168
 72
    1
 10
344
 20
168
 11
342
 21
168
 72
    1
 10
342
 20
168
 11
342
 21
198
 97
    0
 75
    0
 76
    1
 52
1.570796326794897
 41
0.5
 77
    0
 78
    0
 98
    0
  0
HATCH
  5
17C
100
AcDbEntity
  8
Body
  6
ByLayer
 62
  256
370
   -1
100
AcDbHatch
 10
0
 20
0
 30
0
210
0
220
0
230
1
  2
gost_metal
 70
    0
 71
    0
 91
    1
 92
    0
 93
    4
 72
    1
 10
196
 20
268
 11
196
 21
298
 72
    1
 10
196
 20
298
 11
198
 21
298
 72
    1
 10
198
 20
298
 11
198
 21
268
 72
    1
 10
198
 20
268
 11
196
 21
268
 97
    0
 75
    0
 76
    1
 52
1.570796326794897
 41
0.5
 77
    0
 78
    0
 98
    0
  0
HATCH
  5
17D
100
AcDbEntity
  8
Body
  6
ByLayer
 62
  256
370
   -1
100
AcDbHatch
 10
0
 20
0
 30
0
210
0
220
0
230
1
  2
gost_metal
 70
    0
 71
    0
 91
    1
 92
    0
 93
    4
 72
    1
 10
178
 20
268
 11
178
 21
298
 72
    1
 10
178
 20
298
 11
180
 21
298
 72
    1
 10
180
 20
298
 11
180
 21
268
 72
    1
 10
180
 20
268
 11
178
 21
268
 97
    0
 75
    0
 76
    1
 52
1.570796326794897
 41
0.5
 77
    0
 78
    0
 98
    0
  0
HATCH
  5
17E
100
AcDbEntity
  8
Body
  6
ByLayer
 62
  256
370
   -1
100
AcDbHatch
 10
0
 20
0
 30
0
210
0
220
0
230
1
  2
gost_metal
 70
    0
 71
    0
 91
    1
 92
    0
 93
    4
 72
    1
 10
196
 20
198
 11
198
 21
198
 72
    1
 10
198
 20
198
 11
198
 21
168
 72
    1
 10
198
 20
168
 11
196
 21
168
 72
    1
 10
196
 20
168
 11
196
 21
198
 97
    0
 75
    0
 76
    1
 52
1.570796326794897
 41
0.5
 77
    0
 78
    0
 98
    0
  0
HATCH
  5
17F
100
AcDbEntity
  8
Body
  6
ByLayer
 62
  256
370
   -1
100
AcDbHatch
 10
0
 20
0
 30
0
210
0
220
0
230
1
  2
gost_metal
 70
    0
 71
    0
 91
    1
 92
    0
 93
    4
 72
    1
 10
178
 20
198
 11
180
 21
198
 72
    1
 10
180
 20
198
 11
180
 21
168
 72
    1
 10
180
 20
168
 11
178
 21
168
 72
    1
 10
178
 20
168
 11
178
 21
198
 97
    0
 75
    0
 76
    1
 52
1.570796326794897
 41
0.5
 77
    0
 78
    0
 98
    0
  0
HATCH
  5
180
100
AcDbEntity
  8
Body
  6
ByLayer
 62
  256
370
   -1
100
AcDbHatch
 10
0
 20
0
 30
0
210
0
220
0
230
1
  2
gost_metal
 70
    0
 71
    0
 91
    1
 92
    0
 93
    4
 72
    1
 10
-14.00000000000002
 20
168
 11
-12.00000000000002
 21
168
 72
    1
 10
-12.00000000000002
 20
168
 11
-12.00000000000002
 21
198
 72
    1
 10
-12.00000000000002
 20
198
 11
-14.00000000000001
 21
198
 72
    1
 10
-14.00000000000001
 20
198
 11
-14.00000000000002
 21
168
 97
    0
 75
    0
 76
    1
 52
4.71238898038469
 41
0.5
 77
    0
 78
    0
 98
    0
  0
HATCH
  5
181
100
AcDbEntity
  8
Body
  6
ByLayer
 62
  256
370
   -1
100
AcDbHatch
 10
0
 20
0
 30
0
210
0
220
0
230
1
  2
gost_metal
 70
    0
 71
    0
 91
    1
 92
    0
 93
    4
 72
    1
 10
-32.00000000000001
 20
167.9999999999999
 11
-30.00000000000001
 21
167.9999999999999
 72
    1
 10
-30.00000000000001
 20
167.9999999999999
 11
-30
 21
198
 72
    1
 10
-30
 20
198
 11
-32.00000000000001
 21
198
 72
    1
 10
-32.00000000000001
 20
198
 11
-32.00000000000001
 21
167.9999999999999
 97
    0
 75
    0
 76
    1
 52
4.71238898038469
 41
0.5
 77
    0
 78
    0
 98
    0
  0
HATCH
  5
182
100
AcDbEntity
  8
Body
  6
ByLayer
 62
  256
370
   -1
100
AcDbHatch
 10
0
 20
0
 30
0
210
0
220
0
230
1
  2
gost_metal
 70
    0
 71
    0
 91
    1
 92
    0
 93
    4
 72
    1
 10
-14.00000000000002
 20
298
 11
-14.00000000000002
 21
268
 72
    1
 10
-14.00000000000002
 20
268
 11
-12.00000000000002
 21
268
 72
    1
 10
-12.00000000000002
 20
268
 11
-12.00000000000002
 21
298
 72
    1
 10
-12.00000000000002
 20
298
 11
-14.00000000000002
 21
298
 97
    0
 75
    0
 76
    1
 52
4.71238898038469
 41
0.5
 77
    0
 78
    0
 98
    0
  0
HATCH
  5
183
100
AcDbEntity
  8
Body
  6
ByLayer
 62
  256
370
   -1
100
AcDbHatch
 10
0
 20
0
 30
0
210
0
220
0
230
1
  2
gost_metal
 70
    0
 71
    0
 91
    1
 92
    0
 93
    4
 72
    1
 10
-31.99999999999999
 20
298
 11
-32
 21
268
 72
    1
 10
-32
 20
268
 11
-30
 21
268
 72
    1
 10
-30
 20
268
 11
-29.99999999999999
 21
298
 72
    1
 10
-29.99999999999999
 20
298
 11
-31.99999999999999
 21
298
 97
    0
 75
    0
 76
    1
 52
4.71238898038469
 41
0.5
 77
    0
 78
    0
 98
    0
  0
HATCH
  5
184
100
AcDbEntity
  8
Body
  6
ByLayer
 62
  256
370
   -1
100
AcDbHatch
 10
0
 20
0
 30
0
210
0
220
0
230
1
  2
gost_metal
 70
    0
 71
    0
 91
    1
 92
    0
 93
    4
 72
    1
 10
30
 20
268
 11
30.00000000000001
 21
298
 72
    1
 10
30.00000000000001
 20
298
 11
32.00000000000001
 21
298
 72
    1
 10
32.00000000000001
 20
298
 11
32
 21
268
 72
    1
 10
32
 20
268
 11
30
 21
268
 97
    0
 75
    0
 76
    1
 52
1.570796326794897
 41
0.5
 77
    0
 78
    0
 98
    0
  0
HATCH
  5
185
100
AcDbEntity
  8
Body
  6
ByLayer
 62
  256
370
   -1
100
AcDbHatch
 10
0
 20
0
 30
0
210
0
220
0
230
1
  2
gost_metal
 70
    0
 71
    0
 91
    1
 92
    0
 93
    4
 72
    1
 10
12.00000000000003
 20
268
 11
12.00000000000004
 21
298
 72
    1
 10
12.00000000000004
 20
298
 11
14.00000000000004
 21
298
 72
    1
 10
14.00000000000004
 20
298
 11
14.00000000000003
 21
268
 72
    1
 10
14.00000000000003
 20
268
 11
12.00000000000003
 21
268
 97
    0
 75
    0
 76
    1
 52
1.570796326794897
 41
0.5
 77
    0
 78
    0
 98
    0
  0
HATCH
  5
186
100
AcDbEntity
  8
Body
  6
ByLayer
 62
  256
370
   -1
100
AcDbHatch
 10
0
 20
0
 30
0
210
0
220
0
230
1
  2
gost_metal
 70
    0
 71
    0
 91
    1
 92
    0
 93
    4
 72
    1
 10
30
 20
198
 11
32
 21
198
 72
    1
 10
32
 20
198
 11
31.99999999999999
 21
168
 72
    1
 10
31.99999999999999
 20
168
 11
29.99999999999999
 21
168
 72
    1
 10
29.99999999999999
 20
168
 11
30
 21
198
 97
    0
 75
    0
 76
    1
 52
1.570796326794897
 41
0.5
 77
    0
 78
    0
 98
    0
  0
HATCH
  5
187
100
AcDbEntity
  8
Body
  6
ByLayer
 62
  256
370
   -1
100
AcDbHatch
 10
0
 20
0
 30
0
210
0
220
0
230
1
  2
gost_metal
 70
    0
 71
    0
 91
    1
 92
    0
 93
    4
 72
    1
 10
12.00000000000001
 20
198
 11
14.00000000000001
 21
198
 72
    1
 10
14.00000000000001
 20
198
 11
14.00000000000001
 21
168
 72
    1
 10
14.00000000000001
 20
168
 11
12.00000000000001
 21
168
 72
    1
 10
12.00000000000001
 20
168
 11
12.00000000000001
 21
198
 97
    0
 75
    0
 76
    1
 52
1.570796326794897
 41
0.5
 77
    0
 78
    0
 98
    0
  0
LINE
  5
188
100
AcDbEntity
  8
Axe
  6
DASHDOT2
 62
  256
370
   -1
100
AcDbLine
 10
-7.000000000000099
 20
20
 11
-37.0000000000001
 21
20
  0
LINE
  5
189
100
AcDbEntity
  8
Axe
  6
DASHDOT2
 62
  256
370
   -1
100
AcDbLine
 10
-22.0000000000001
 20
5
 11
-22.0000000000001
 21
74.99999999999989
  0
LWPOLYLINE
  5
18A
100
AcDbEntity
  8
ramka
  6
CONTINUOUS
 62
  176
420
  128
370
   35
100
AcDbPolyline
 90
   12
 70
    1
 43
0
 10
62
 20
60
 10
72
 20
50
 10
62
 20
40
 10
72
 20
30
 10
62
 20
20
 10
-72
 20
20
 10
-62
 20
30
 10
-72
 20
40
 10
-62
 20
50
 10
-72
 20
60
 10
-62
 20
70
 10
72
 20
70
  0
LINE
  5
18B
100
AcDbEntity
  8
Axe
  6
DASHDOT2
 62
  256
370
   -1
100
AcDbLine
 10
0
 20
355
 11
0
 21
0
  0
CIRCLE
  5
18C
100
AcDbEntity
  8
Body
  6
ByLayer
 62
  256
370
   -1
100
AcDbCircle
 10
-22.0000000000001
 20
10
 40
7
  0
LWPOLYLINE
  5
18D
100
AcDbEntity
  8
Body
  6
ByLayer
 62
  256
370
   -1
100
AcDbPolyline
 90
    8
 70
    1
 43
0
 10
-16.0000000000001
 20
0
 10
-28.0000000000001
 20
7.105427357601002e-15
 42
-0.4142135623730961
 10
-32.00000000000011
 20
4.000000000000001
 10
-32.00000000000011
 20
16
 42
-0.4142135623730961
 10
-28.0000000000001
 20
20
 10
-16.0000000000001
 20
20
 42
-0.414213562373095
 10
-12.0000000000001
 20
16
 10
-12.0000000000001
 20
4.000000000000002
 42
-0.414213562373095
  0
LWPOLYLINE
  5
18E
100
AcDbEntity
  8
Body
  6
ByLayer
 62
  256
370
   -1
100
AcDbPolyline
 90
    8
 70
    1
 43
0
 10
-16.0000000000001
 20
2
 10
-28.0000000000001
 20
2
 42
-0.414213562373095
 10
-30.0000000000001
 20
4
 10
-30.0000000000001
 20
16
 42
-0.414213562373095
 10
-28.0000000000001
 20
18
 10
-16.0000000000001
 20
18
 42
-0.414213562373095
 10
-14.0000000000001
 20
16
 10
-14.0000000000001
 20
4
 42
-0.414213562373095
  0
LINE
  5
18F
100
AcDbEntity
  8
Body
  6
ByLayer
 62
  256
370
   -1
100
AcDbLine
 10
-29.7320508075654
 20
3.000000000000227
 11
-22
 21
3.000000000002387
  0
LINE
  5
190
100
AcDbEntity
  8
Body
  6
ByLayer
 62
  256
370
   -1
100
AcDbLine
 10
-29.7320508075683
 20
17.00000000000023
 11
-22.0000000000001
 21
16.99999999999773
  0
LINE
  5
191
100
AcDbEntity
  8
Body
  6
DASHED2
 62
  256
370
   -1
100
AcDbLine
 10
-32
 20
3.000000000000114
 11
-30
 21
3.000000000000114
  0
LINE
  5
192
100
AcDbEntity
  8
Body
  6
DASHED2
 62
  256
370
   -1
100
AcDbLine
 10
-31.87298334620721
 20
17.00000000000421
 11
-29.7320508075683
 21
17.00000000000023
  0
LINE
  5
193
100
AcDbEntity
  8
Body
  6
CONTINUOUS
 62
    7
370
    0
100
AcDbLine
 10
-31.872983346206
 20
3.000000000000227
 11
-31.87298334620721
 21
17.00000000000023
  0
LINE
  5
194
100
AcDbEntity
  8
Axe
  6
DASHDOT2
 62
  256
370
   -1
100
AcDbLine
 10
7.000000000000099
 20
20
 11
37.0000000000001
 21
20
  0
LINE
  5
195
100
AcDbEntity
  8
Axe
  6
DASHDOT2
 62
  256
370
   -1
100
AcDbLine
 10
22.0000000000001
 20
5
 11
22.0000000000001
 21
74.99999999999989
  0
CIRCLE
  5
196
100
AcDbEntity
  8
Body
  6
ByLayer
 62
  256
370
   -1
100
AcDbCircle
 10
22.0000000000001
 20
10
 40
7
  0
LWPOLYLINE
  5
197
100
AcDbEntity
  8
Body
  6
ByLayer
 62
  256
370
   -1
100
AcDbPolyline
 90
    8
 70
    1
 43
0
 10
16.0000000000001
 20
0
 10
28.0000000000001
 20
6.217248937900877e-15
 42
0.4142135623730955
 10
32.0000000000001
 20
4.000000000000004
 10
32.0000000000001
 20
16
 42
0.4142135623730955
 10
28.0000000000001
 20
20
 10
16.0000000000001
 20
20
 42
0.4142135623730949
 10
12.0000000000001
 20
16
 10
12.0000000000001
 20
4.000000000000002
 42
0.414213562373095
  0
LWPOLYLINE
  5
198
100
AcDbEntity
  8
Body
  6
ByLayer
 62
  256
370
   -1
100
AcDbPolyline
 90
    8
 70
    1
 43
0
 10
16.0000000000001
 20
2
 10
28.0000000000001
 20
2
 42
0.414213562373095
 10
30.0000000000001
 20
4
 10
30.0000000000001
 20
16
 42
0.414213562373095
 10
28.0000000000001
 20
18
 10
16.0000000000001
 20
18
 42
0.414213562373095
 10
14.0000000000001
 20
16
 10
14.0000000000001
 20
4
 42
0.414213562373095
  0
LINE
  5
199
100
AcDbEntity
  8
Body
  6
ByLayer
 62
  256
370
   -1
100
AcDbLine
 10
29.7320508075654
 20
3.000000000000227
 11
22
 21
3.000000000002387
  0
LINE
  5
19A
100
AcDbEntity
  8
Body
  6
ByLayer
 62
  256
370
   -1
100
AcDbLine
 10
29.7320508075683
 20
17.00000000000023
 11
22.0000000000001
 21
16.99999999999773
  0
LINE
  5
19B
100
AcDbEntity
  8
Body
  6
DASHED2
 62
  256
370
   -1
100
AcDbLine
 10
32
 20
3.000000000000114
 11
30
 21
3.000000000000114
  0
LINE
  5
19C
100
AcDbEntity
  8
Body
  6
DASHED2
 62
  256
370
   -1
100
AcDbLine
 10
31.87298334620721
 20
17.00000000000421
 11
29.7320508075683
 21
17.00000000000023
  0
LINE
  5
19D
100
AcDbEntity
  8
Body
  6
CONTINUOUS
 62
    7
370
    0
100
AcDbLine
 10
31.872983346206
 20
3.000000000000227
 11
31.87298334620721
 21
17.00000000000023
  0
LINE
  5
19E
100
AcDbEntity
  8
Axe
  6
DASHDOT2
 62
  256
370
   -1
100
AcDbLine
 10
-94
 20
10
 11
94
 21
10
  0
DIMENSION
  5
19F
100
AcDbEntity
  8
Dim
  6
ByLayer
 62
  256
370
   -1
100
AcDbDimension
  2
*D1
 10
32.0000000000001
 20
-10
 30
0
 11
22.00000000000011
 21
-6.25
 31
0
 70
   32
 71
    5
  3
Standard
 53
0
210
0
220
0
230
1
100
AcDbAlignedDimension
 13
12.00000000000011
 23
3.999995704681453
 33
0
 14
32.0000000000001
 24
4
 34
0
100
AcDbRotatedDimension
  0
DIMENSION
  5
1A0
100
AcDbEntity
  8
Dim
  6
ByLayer
 62
  256
370
   -1
100
AcDbDimension
  2
*D2
 10
8
 20
0
 30
0
 11
4.25
 21
10
 31
0
 70
   32
 71
    5
  3
Standard
 53
0
210
0
220
0
230
1
100
AcDbAlignedDimension
 13
16.00000408065202
 23
20
 33
0
 14
15.99999653308464
 24
0
 34
0
 50
90
100
AcDbRotatedDimension
  0
LINE
  5
1A1
100
AcDbEntity
  8
Body
  6
ByLayer
 62
  256
370
   -1
100
AcDbLine
 10
28.99999999999999
 20
168
 11
29.99999999999999
 21
168
  0
LINE
  5
1A2
100
AcDbEntity
  8
Body
  6
ByLayer
 62
  256
370
   -1
100
AcDbLine
 10
14.00000000000001
 20
168
 11
15.00000000000001
 21
168
  0
LINE
  5
1A3
100
AcDbEntity
  8
Body
  6
DASHED2
 62
  256
370
   -1
100
AcDbLine
 10
15.00000000000001
 20
168
 11
28.99999999999999
 21
168
  0
LWPOLYLINE
  5
1A4
100
AcDbEntity
  8
Body
  6
ByLayer
 62
  256
370
   -1
100
AcDbPolyline
 90
    4
 70
    1
 43
0
 10
12.00000000000001
 20
168
 10
12.00000000000001
 20
198
 10
14.00000000000001
 20
198
 10
14.00000000000001
 20
168
  0
LWPOLYLINE
  5
1A5
100
AcDbEntity
  8
Body
  6
ByLayer
 62
  256
370
   -1
100
AcDbPolyline
 90
    4
 70
    1
 43
0
 10
29.99999999999999
 20
168
 10
30
 20
198
 10
32
 20
198
 10
31.99999999999999
 20
168
  0
LINE
  5
1A6
100
AcDbEntity
  8
Body
  6
ByLayer
 62
  256
370
   -1
100
AcDbLine
 10
14.00000000000001
 20
198
 11
15.00000000000001
 21
198
  0
LINE
  5
1A7
100
AcDbEntity
  8
Body
  6
DASHED2
 62
  256
370
   -1
100
AcDbLine
 10
15.00000000000001
 20
198
 11
29
 21
198
  0
LINE
  5
1A8
100
AcDbEntity
  8
Body
  6
ByLayer
 62
  256
370
   -1
100
AcDbLine
 10
29
 20
268
 11
30
 21
268
  0
LINE
  5
1A9
100
AcDbEntity
  8
Body
  6
ByLayer
 62
  256
370
   -1
100
AcDbLine
 10
14.00000000000003
 20
268
 11
15.00000000000003
 21
268
  0
LINE
  5
1AA
100
AcDbEntity
  8
Body
  6
DASHED2
 62
  256
370
   -1
100
AcDbLine
 10
15.00000000000003
 20
268
 11
29
 21
268
  0
LWPOLYLINE
  5
1AB
100
AcDbEntity
  8
Body
  6
ByLayer
 62
  256
370
   -1
100
AcDbPolyline
 90
    4
 70
    1
 43
0
 10
12.00000000000003
 20
268
 10
12.00000000000004
 20
298
 10
14.00000000000004
 20
298
 10
14.00000000000003
 20
268
  0
LWPOLYLINE
  5
1AC
100
AcDbEntity
  8
Body
  6
ByLayer
 62
  256
370
   -1
100
AcDbPolyline
 90
    4
 70
    1
 43
0
 10
30
 20
268
 10
30.00000000000001
 20
298
 10
32.00000000000001
 20
298
 10
32
 20
268
  0
LINE
  5
1AD
100
AcDbEntity
  8
Body
  6
ByLayer
 62
  256
370
   -1
100
AcDbLine
 10
29.00000000000001
 20
298
 11
30.00000000000001
 21
298
  0
LINE
  5
1AE
100
AcDbEntity
  8
Body
  6
ByLayer
 62
  256
370
   -1
100
AcDbLine
 10
14.00000000000004
 20
298
 11
15.00000000000004
 21
298
  0
LINE
  5
1AF
100
AcDbEntity
  8
Body
  6
DASHED2
 62
  256
370
   -1
100
AcDbLine
 10
15.00000000000004
 20
298
 11
29.00000000000001
 21
298
  0
LWPOLYLINE
  5
1B0
100
AcDbEntity
  8
Body
  6
ByLayer
 62
  256
370
   -1
100
AcDbPolyline
 90
    4
 70
    1
 43
0
 10
82
 20
212
 10
29
 20
212
 10
29
 20
198
 10
82
 20
198
 42
0.9999999999999999
  0
LINE
  5
1B1
100
AcDbEntity
  8
Axe
  6
DASHDOT2
 62
  256
370
   -1
100
AcDbLine
 10
94
 20
204.9999999999999
 11
10.00000000000001
 21
205
  0
CIRCLE
  5
1B2
100
AcDbEntity
  8
Body
  6
DASHED2
 62
  256
370
   -1
100
AcDbCircle
 10
22
 20
205
 40
7
  0
LWPOLYLINE
  5
1B3
100
AcDbEntity
  8
Body
  6
ByLayer
 62
  256
370
   -1
100
AcDbPolyline
 90
    5
 70
    1
 43
0
 10
14.99999999999998
 20
115
 10
21.99999999999998
 20
108
 10
28.99999999999999
 20
115
 10
29.00000000000001
 20
303
 10
15.00000000000004
 20
303
  0
LINE
  5
1B4
100
AcDbEntity
  8
Body
  6
ByLayer
 62
  256
370
   -1
100
AcDbLine
 10
-29.00000000000001
 20
167.9999999999999
 11
-30.00000000000001
 21
167.9999999999999
  0
LINE
  5
1B5
100
AcDbEntity
  8
Body
  6
ByLayer
 62
  256
370
   -1
100
AcDbLine
 10
-14.00000000000002
 20
168
 11
-15.00000000000002
 21
168
  0
LINE
  5
1B6
100
AcDbEntity
  8
Body
  6
DASHED2
 62
  256
370
   -1
100
AcDbLine
 10
-15.00000000000002
 20
168
 11
-29.00000000000001
 21
167.9999999999999
  0
LWPOLYLINE
  5
1B7
100
AcDbEntity
  8
Body
  6
ByLayer
 62
  256
370
   -1
100
AcDbPolyline
 90
    4
 70
    1
 43
0
 10
-12.00000000000002
 20
168
 10
-12.00000000000002
 20
198
 10
-14.00000000000001
 20
198
 10
-14.00000000000002
 20
168
  0
LWPOLYLINE
  5
1B8
100
AcDbEntity
  8
Body
  6
ByLayer
 62
  256
370
   -1
100
AcDbPolyline
 90
    4
 70
    1
 43
0
 10
-30.00000000000001
 20
167.9999999999999
 10
-30
 20
198
 10
-32.00000000000001
 20
198
 10
-32.00000000000001
 20
167.9999999999999
  0
LINE
  5
1B9
100
AcDbEntity
  8
Body
  6
ByLayer
 62
  256
370
   -1
100
AcDbLine
 10
-14.00000000000001
 20
198
 11
-15.00000000000001
 21
198
  0
LINE
  5
1BA
100
AcDbEntity
  8
Body
  6
DASHED2
 62
  256
370
   -1
100
AcDbLine
 10
-15.00000000000001
 20
198
 11
-29
 21
198
  0
LINE
  5
1BB
100
AcDbEntity
  8
Body
  6
ByLayer
 62
  256
370
   -1
100
AcDbLine
 10
-29
 20
268
 11
-30
 21
268
  0
LINE
  5
1BC
100
AcDbEntity
  8
Body
  6
ByLayer
 62
  256
370
   -1
100
AcDbLine
 10
-14.00000000000002
 20
268
 11
-15.00000000000002
 21
268
  0
LINE
  5
1BD
100
AcDbEntity
  8
Body
  6
DASHED2
 62
  256
370
   -1
100
AcDbLine
 10
-15.00000000000002
 20
268
 11
-29
 21
268
  0
LWPOLYLINE
  5
1BE
100
AcDbEntity
  8
Body
  6
ByLayer
 62
  256
370
   -1
100
AcDbPolyline
 90
    4
 70
    1
 43
0
 10
-12.00000000000002
 20
268
 10
-12.00000000000002
 20
298
 10
-14.00000000000002
 20
298
 10
-14.00000000000002
 20
268
  0
LWPOLYLINE
  5
1BF
100
AcDbEntity
  8
Body
  6
ByLayer
 62
  256
370
   -1
100
AcDbPolyline
 90
    4
 70
    1
 43
0
 10
-30
 20
268
 10
-29.99999999999999
 20
298
 10
-31.99999999999999
 20
298
 10
-32
 20
268
  0
LINE
  5
1C0
100
AcDbEntity
  8
Body
  6
ByLayer
 62
  256
370
   -1
100
AcDbLine
 10
-28.99999999999999
 20
298
 11
-29.99999999999999
 21
298
  0
LINE
  5
1C1
100
AcDbEntity
  8
Body
  6
ByLayer
 62
  256
370
   -1
100
AcDbLine
 10
-14.00000000000002
 20
298
 11
-15.00000000000002
 21
298
  0
LINE
  5
1C2
100
AcDbEntity
  8
Body
  6
DASHED2
 62
  256
370
   -1
100
AcDbLine
 10
-15.00000000000002
 20
298
 11
-28.99999999999999
 21
298
  0
LWPOLYLINE
  5
1C3
100
AcDbEntity
  8
Body
  6
ByLayer
 62
  256
370
   -1
100
AcDbPolyline
 90
    4
 70
    1
 43
0
 10
-82
 20
212
 10
-29
 20
212
 10
-29
 20
198
 10
-82
 20
198
 42
-0.9999999999999999
  0
LINE
  5
1C4
100
AcDbEntity
  8
Axe
  6
DASHDOT2
 62
  256
370
   -1
100
AcDbLine
 10
-94
 20
204.9999999999999
 11
-10.00000000000002
 21
205
  0
CIRCLE
  5
1C5
100
AcDbEntity
  8
Body
  6
DASHED2
 62
  256
370
   -1
100
AcDbCircle
 10
-22
 20
205
 40
7
  0
LWPOLYLINE
  5
1C6
100
AcDbEntity
  8
Body
  6
ByLayer
 62
  256
370
   -1
100
AcDbPolyline
 90
    5
 70
    1
 43
0
 10
-15.00000000000002
 20
115
 10
-22.00000000000002
 20
108
 10
-29.00000000000001
 20
115
 10
-28.99999999999999
 20
303
 10
-15.00000000000002
 20
303
  0
LINE
  5
1C7
100
AcDbEntity
  8
Body
  6
ByLayer
 62
  256
370
   -1
100
AcDbLine
 10
195
 20
168
 11
196
 21
168
  0
LINE
  5
1C8
100
AcDbEntity
  8
Body
  6
ByLayer
 62
  256
370
   -1
100
AcDbLine
 10
180
 20
168
 11
181
 21
168
  0
LINE
  5
1C9
100
AcDbEntity
  8
Body
  6
DASHED2
 62
  256
370
   -1
100
AcDbLine
 10
181
 20
168
 11
195
 21
168
  0
LWPOLYLINE
  5
1CA
100
AcDbEntity
  8
Body
  6
ByLayer
 62
  256
370
   -1
100
AcDbPolyline
 90
    4
 70
    1
 43
0
 10
178
 20
168
 10
178
 20
198
 10
180
 20
198
 10
180
 20
168
  0
LINE
  5
1CB
100
AcDbEntity
  8
Body
  6
ByLayer
 62
  256
370
   -1
100
AcDbLine
 10
195
 20
198
 11
196
 21
198
  0
LINE
  5
1CC
100
AcDbEntity
  8
Body
  6
ByLayer
 62
  256
370
   -1
100
AcDbLine
 10
180
 20
198
 11
181
 21
198
  0
LINE
  5
1CD
100
AcDbEntity
  8
Body
  6
DASHED2
 62
  256
370
   -1
100
AcDbLine
 10
181
 20
198
 11
195
 21
198
  0
LWPOLYLINE
  5
1CE
100
AcDbEntity
  8
Body
  6
ByLayer
 62
  256
370
   -1
100
AcDbPolyline
 90
    4
 70
    1
 43
0
 10
128
 20
198
 10
181
 20
198
 10
181
 20
212
 10
128
 20
212
 42
0.9999999999999999
  0
CIRCLE
  5
1CF
100
AcDbEntity
  8
Body
  6
DASHED2
 62
  256
370
   -1
100
AcDbCircle
 10
188
 20
205
 40
7
  0
LINE
  5
1D0
100
AcDbEntity
  8
Axe
  6
DASHDOT2
 62
  256
370
   -1
100
AcDbLine
 10
116
 20
205
 11
200
 21
205
  0
LINE
  5
1D1
100
AcDbEntity
  8
Body
  6
ByLayer
 62
  256
370
   -1
100
AcDbLine
 10
195
 20
268
 11
196
 21
268
  0
LINE
  5
1D2
100
AcDbEntity
  8
Body
  6
ByLayer
 62
  256
370
   -1
100
AcDbLine
 10
180
 20
268
 11
181
 21
268
  0
LINE
  5
1D3
100
AcDbEntity
  8
Body
  6
DASHED2
 62
  256
370
   -1
100
AcDbLine
 10
181
 20
268
 11
195
 21
268
  0
LWPOLYLINE
  5
1D4
100
AcDbEntity
  8
Body
  6
ByLayer
 62
  256
370
   -1
100
AcDbPolyline
 90
    4
 70
    1
 43
0
 10
178
 20
268
 10
178
 20
298
 10
180
 20
298
 10
180
 20
268
  0
LINE
  5
1D5
100
AcDbEntity
  8
Body
  6
ByLayer
 62
  256
370
   -1
100
AcDbLine
 10
195
 20
298
 11
196
 21
298
  0
LINE
  5
1D6
100
AcDbEntity
  8
Body
  6
ByLayer
 62
  256
370
   -1
100
AcDbLine
 10
180
 20
298
 11
181
 21
298
  0
LINE
  5
1D7
100
AcDbEntity
  8
Body
  6
DASHED2
 62
  256
370
   -1
100
AcDbLine
 10
181
 20
298
 11
195
 21
298
  0
LINE
  5
1D8
100
AcDbEntity
  8
Body
  6
DASHED2
 62
  256
370
   -1
100
AcDbLine
 10
195
 20
213
 11
195
 21
223
  0
LINE
  5
1D9
100
AcDbEntity
  8
Body
  6
DASHED2
 62
  256
370
   -1
100
AcDbLine
 10
181
 20
223
 11
181
 21
213
  0
LWPOLYLINE
  5
1DA
100
AcDbEntity
  8
Body
  6
ByLayer
 62
  256
370
   -1
100
AcDbPolyline
 90
    5
 70
    0
 43
0
 10
181
 20
213
 10
181
 20
114.9999994827056
 10
188
 20
107.9999994827056
 10
195
 20
114.9999994827056
 10
195
 20
213
  0
DIMENSION
  5
1DB
100
AcDbEntity
  8
Dim
  6
ByLayer
 62
  256
370
   -1
100
AcDbDimension
  2
*D3
 10
168
 20
120
 30
0
 11
164.25
 21
111.4999997413528
 31
0
 70
   32
 71
    5
  3
Standard
 53
0
210
0
220
0
230
1
100
AcDbAlignedDimension
 13
188
 23
107.9999994827056
 33
0
 14
188
 24
115
 34
0
 50
90
100
AcDbRotatedDimension
  0
LWPOLYLINE
  5
1DC
100
AcDbEntity
  8
Body
  6
ByLayer
 62
  256
370
   -1
100
AcDbPolyline
 90
    4
 70
    1
 43
0
 10
342
 20
168
 10
342
 20
198
 10
344
 20
198
 10
344
 20
168
  0
LWPOLYLINE
  5
1DD
100
AcDbEntity
  8
Body
  6
ByLayer
 62
  256
370
   -1
100
AcDbPolyline
 90
    4
 70
    1
 43
0
 10
360
 20
168
 10
360
 20
198
 10
362
 20
198
 10
362
 20
168
  0
LINE
  5
1DE
100
AcDbEntity
  8
Body
  6
ByLayer
 62
  256
370
   -1
100
AcDbLine
 10
359
 20
198
 11
360
 21
198
  0
LINE
  5
1DF
100
AcDbEntity
  8
Body
  6
ByLayer
 62
  256
370
   -1
100
AcDbLine
 10
344
 20
198
 11
345
 21
198
  0
LINE
  5
1E0
100
AcDbEntity
  8
Body
  6
DASHED2
 62
  256
370
   -1
100
AcDbLine
 10
345
 20
198
 11
359
 21
198
  0
LINE
  5
1E1
100
AcDbEntity
  8
Body
  6
ByLayer
 62
  256
370
   -1
100
AcDbLine
 10
359
 20
268
 11
360
 21
268
  0
LINE
  5
1E2
100
AcDbEntity
  8
Body
  6
ByLayer
 62
  256
370
   -1
100
AcDbLine
 10
344
 20
268
 11
345
 21
268
  0
LINE
  5
1E3
100
AcDbEntity
  8
Body
  6
DASHED2
 62
  256
370
   -1
100
AcDbLine
 10
345
 20
268
 11
359
 21
268
  0
LWPOLYLINE
  5
1E4
100
AcDbEntity
  8
Body
  6
ByLayer
 62
  256
370
   -1
100
AcDbPolyline
 90
    4
 70
    1
 43
0
 10
342
 20
268
 10
342
 20
298
 10
344
 20
298
 10
344
 20
268
  0
LWPOLYLINE
  5
1E5
100
AcDbEntity
  8
Body
  6
ByLayer
 62
  256
370
   -1
100
AcDbPolyline
 90
    4
 70
    1
 43
0
 10
360
 20
268
 10
360
 20
298
 10
362
 20
298
 10
362
 20
268
  0
LINE
  5
1E6
100
AcDbEntity
  8
Body
  6
ByLayer
 62
  256
370
   -1
100
AcDbLine
 10
359
 20
298
 11
360
 21
298
  0
LINE
  5
1E7
100
AcDbEntity
  8
Body
  6
ByLayer
 62
  256
370
   -1
100
AcDbLine
 10
344
 20
298
 11
345
 21
298
  0
LINE
  5
1E8
100
AcDbEntity
  8
Body
  6
DASHED2
 62
  256
370
   -1
100
AcDbLine
 10
345
 20
298
 11
359
 21
298
  0
LINE
  5
1E9
100
AcDbEntity
  8
Axe
  6
DASHDOT2
 62
  256
370
   -1
100
AcDbLine
 10
352
 20
107.9999994827056
 11
352
 21
308
  0
LWPOLYLINE
  5
1EA
100
AcDbEntity
  8
Body
  6
ByLayer
 62
  256
370
   -1
100
AcDbPolyline
 90
    4
 70
    1
 43
0
 10
292
 20
254
 10
345
 20
254
 10
345
 20
268
 10
292
 20
268
 42
0.9999999999999999
  0
CIRCLE
  5
1EB
100
AcDbEntity
  8
Body
  6
DASHED2
 62
  256
370
   -1
100
AcDbCircle
 10
352
 20
261
 40
7
  0
LINE
  5
1EC
100
AcDbEntity
  8
Axe
  6
DASHDOT2
 62
  256
370
   -1
100
AcDbLine
 10
280
 20
261
 11
364
 21
261
  0
LINE
  5
1ED
100
AcDbEntity
  8
Body
  6
DASHED2
 62
  256
370
   -1
100
AcDbLine
 10
359
 20
213
 11
359
 21
223
  0
LINE
  5
1EE
100
AcDbEntity
  8
Body
  6
DASHED2
 62
  256
370
   -1
100
AcDbLine
 10
345
 20
223
 11
345
 21
213
  0
LWPOLYLINE
  5
1EF
100
AcDbEntity
  8
Body
  6
ByLayer
 62
  256
370
   -1
100
AcDbPolyline
 90
    5
 70
    0
 43
0
 10
345
 20
213
 10
345
 20
170.9999994827056
 10
352
 20
163.9999994827056
 10
359
 20
170.9999994827056
 10
359
 20
213
  0
LINE
  5
1F0
100
AcDbEntity
  8
Body
  6
ByLayer
 62
  256
370
   -1
100
AcDbLine
 10
359
 20
170.9999994827056
 11
345
 21
170.9999994827056
  0
LINE
  5
1F1
100
AcDbEntity
  8
Body
  6
DASHED2
 62
  256
370
   -1
100
AcDbLine
 10
348
 20
168
 11
356.0000005172944
 21
168
  0
LINE
  5
1F2
100
AcDbEntity
  8
Body
  6
ByLayer
 62
  256
370
   -1
100
AcDbLine
 10
356.0000005172944
 20
168
 11
360
 21
168
  0
LINE
  5
1F3
100
AcDbEntity
  8
Body
  6
ByLayer
 62
  256
370
   -1
100
AcDbLine
 10
344
 20
168
 11
347.9999994827056
 21
168
  0
LWPOLYLINE
  5
1F4
100
AcDbEntity
  8
Body
  6
ByLayer
 62
  256
370
   -1
100
AcDbPolyline
 90
    4
 70
    0
 43
0
 10
359
 20
253
 10
359
 20
359
 10
345
 20
359
 10
345
 20
253
  0
LINE
  5
1F5
100
AcDbEntity
  8
Body
  6
ByLayer
 62
  256
370
   -1
100
AcDbLine
 10
345
 20
243
 11
345
 21
223
  0
LINE
  5
1F6
100
AcDbEntity
  8
Body
  6
ByLayer
 62
  256
370
   -1
100
AcDbLine
 10
359
 20
243
 11
359
 21
223
  0
LINE
  5
1F7
100
AcDbEntity
  8
Body
  6
DASHED2
 62
  256
370
   -1
100
AcDbLine
 10
359
 20
243
 11
359
 21
253
  0
LINE
  5
1F8
100
AcDbEntity
  8
Body
  6
DASHED2
 62
  256
370
   -1
100
AcDbLine
 10
345
 20
253
 11
345
 21
243
  0
DIMENSION
  5
1F9
100
AcDbEntity
  8
Dim
  6
ByLayer
 62
  256
370
   -1
100
AcDbDimension
  2
*D4
 10
-60
 20
268
 30
0
 11
-63.75
 21
233.0000001995415
 31
0
 70
   32
 71
    5
  3
Standard
 53
0
210
0
220
0
230
1
100
AcDbAlignedDimension
 13
-32.00000000000001
 23
198.0000003990831
 33
0
 14
-32
 24
268
 34
0
 50
90
100
AcDbRotatedDimension
  0
DIMENSION
  5
1FA
100
AcDbEntity
  8
Dim
  6
ByLayer
 62
  256
370
   -1
100
AcDbDimension
  2
*D5
 10
51
 20
298
 30
0
 11
47.25
 21
283
 31
0
 70
   32
 71
    5
  3
Standard
 53
0
210
0
220
0
230
1
100
AcDbAlignedDimension
 13
32
 23
268
 33
0
 14
32.00000000000001
 24
298
 34
0
 50
90
100
AcDbRotatedDimension
  0
DIMENSION
  5
1FB
100
AcDbEntity
  8
Dim
  6
ByLayer
 62
  256
370
   -1
100
AcDbDimension
  2
*D6
 10
28.9999999999992
 20
240
 30
0
 11
59.00000000000006
 21
243.75
 31
0
 70
   32
 71
    5
  3
Standard
 53
0
210
0
220
0
230
1
100
AcDbAlignedDimension
 13
89.00000000000091
 23
204.9999999999999
 33
0
 14
28.9999999999992
 24
205
 34
0
 50
180
100
AcDbRotatedDimension
  0
DIMENSION
  5
1FC
100
AcDbEntity
  8
Dim
  6
ByLayer
 62
  256
370
   -1
100
AcDbDimension
  2
*D7
 10
50
 20
198
 30
0
 11
46.25
 21
183
 31
0
 70
   32
 71
    5
  3
Standard
 53
0
210
0
220
0
230
1
100
AcDbAlignedDimension
 13
31.99999999999999
 23
168
 33
0
 14
32
 24
198
 34
0
 50
90
100
AcDbRotatedDimension
  0
DIMENSION
  5
1FD
100
AcDbEntity
  8
Dim
  6
ByLayer
 62
  256
370
   -1
100
AcDbDimension
  2
*D8
 10
-100
 20
198
 30
0
 11
-103.75
 21
204.9999999999999
 31
0
 70
   32
  1
%%C<>
 71
    5
  3
Standard
 53
0
210
0
220
0
230
1
100
AcDbAlignedDimension
 13
-82.0000013085434
 23
211.9999999999999
 33
0
 14
-82.0000037113646
 24
198
 34
0
 50
90
100
AcDbRotatedDimension
  0
LWPOLYLINE
  5
1FE
100
AcDbEntity
  8
Body
  6
ByLayer
 62
  256
370
   -1
100
AcDbPolyline
 90
    4
 70
    0
 43
0
 10
195
 20
253
 10
195
 20
303
 10
181
 20
303
 10
181
 20
253
  0
LINE
  5
1FF
100
AcDbEntity
  8
Body
  6
DASHED2
 62
  256
370
   -1
100
AcDbLine
 10
195
 20
213
 11
195
 21
223
  0
LINE
  5
200
100
AcDbEntity
  8
Body
  6
DASHED2
 62
  256
370
   -1
100
AcDbLine
 10
181
 20
223
 11
181
 21
213
  0
LINE
  5
201
100
AcDbEntity
  8
Body
  6
ByLayer
 62
  256
370
   -1
100
AcDbLine
 10
181
 20
243
 11
181
 21
223
  0
LINE
  5
202
100
AcDbEntity
  8
Body
  6
ByLayer
 62
  256
370
   -1
100
AcDbLine
 10
195
 20
243
 11
195
 21
223
  0
LINE
  5
203
100
AcDbEntity
  8
Body
  6
DASHED2
 62
  256
370
   -1
100
AcDbLine
 10
195
 20
243
 11
195
 21
253
  0
LINE
  5
204
100
AcDbEntity
  8
Body
  6
DASHED2
 62
  256
370
   -1
100
AcDbLine
 10
181
 20
253
 11
181
 21
243
  0
LINE
  5
205
100
AcDbEntity
  8
Body
  6
ByLayer
 62
  256
370
   -1
100
AcDbLine
 10
28.99999999999999
 20
153.9999994827056
 11
29.99999999999999
 21
153.9999994827056
  0
LINE
  5
206
100
AcDbEntity
  8
Body
  6
ByLayer
 62
  256
370
   -1
100
AcDbLine
 10
13.99999999999999
 20
153.9999994827056
 11
14.99999999999999
 21
153.9999994827056
  0
LINE
  5
207
100
AcDbEntity
  8
Body
  6
DASHED2
 62
  256
370
   -1
100
AcDbLine
 10
14.99999999999999
 20
153.9999994827056
 11
28.99999999999999
 21
153.9999994827056
  0
LINE
  5
208
100
AcDbEntity
  8
Body
  6
ByLayer
 62
  256
370
   -1
100
AcDbLine
 10
-29.00000000000001
 20
153.9999994827055
 11
-30.00000000000001
 21
153.9999994827055
  0
LINE
  5
209
100
AcDbEntity
  8
Body
  6
ByLayer
 62
  256
370
   -1
100
AcDbLine
 10
-14.00000000000001
 20
153.9999994827055
 11
-15.00000000000001
 21
153.9999994827055
  0
LINE
  5
20A
100
AcDbEntity
  8
Body
  6
DASHED2
 62
  256
370
   -1
100
AcDbLine
 10
-15.00000000000001
 20
153.9999994827055
 11
-29.00000000000001
 21
153.9999994827055
  0
LWPOLYLINE
  5
20B
100
AcDbEntity
  8
ramka
  6
CONTINUOUS
 62
  176
420
  128
370
   35
100
AcDbPolyline
 90
   12
 70
    1
 43
0
 10
-62.00000000000001
 20
119
 10
-72.00000000000001
 20
129
 10
-62.00000000000001
 20
139
 10
-72.00000000000001
 20
149
 10
-62.00000000000001
 20
159
 10
71.99999999999999
 20
159
 10
61.99999999999999
 20
149
 10
71.99999999999999
 20
139
 10
61.99999999999999
 20
129
 10
71.99999999999999
 20
119
 10
61.99999999999999
 20
109
 10
-72.00000000000001
 20
109
  0
LWPOLYLINE
  5
20C
100
AcDbEntity
  8
ramka
  6
ByLayer
 62
  256
370
   -1
100
AcDbPolyline
 90
    8
 70
    1
 43
0
 10
248
 20
114
 10
248
 20
154
 42
0.414213562373095
 10
243
 20
159
 10
203
 20
159
 42
0.414213562373095
 10
198
 20
154
 10
198
 20
114
 42
0.414213562373095
 10
203
 20
109
 10
243
 20
109
 42
0.414213562373095
  0
LINE
  5
20D
100
AcDbEntity
  8
Body
  6
ByLayer
 62
  256
370
   -1
100
AcDbLine
 10
181
 20
114.9999994827056
 11
195
 21
114.9999994827056
  0
LINE
  5
20E
100
AcDbEntity
  8
Body
  6
ByLayer
 62
  256
370
   -1
100
AcDbLine
 10
14.99999999999998
 20
114.9999989654111
 11
28.99999999999999
 21
114.9999989654111
  0
LINE
  5
20F
100
AcDbEntity
  8
Body
  6
ByLayer
 62
  256
370
   -1
100
AcDbLine
 10
-29.00000000000001
 20
114.9999989654111
 11
-15.00000000000001
 21
114.9999989654111
  0
LWPOLYLINE
  5
210
100
AcDbEntity
  8
Body
  6
ByLayer
 62
  256
370
   -1
100
AcDbPolyline
 90
    4
 70
    1
 43
0
 10
-12
 20
109
 10
-12.00000000000001
 20
153.9999994827055
 10
-14.00000000000001
 20
153.9999994827055
 10
-14
 20
109
  0
LWPOLYLINE
  5
211
100
AcDbEntity
  8
Body
  6
ByLayer
 62
  256
370
   -1
100
AcDbPolyline
 90
    4
 70
    1
 43
0
 10
-30
 20
109
 10
-30.00000000000001
 20
153.9999994827055
 10
-32.00000000000001
 20
153.9999994827055
 10
-32
 20
109
  0
LINE
  5
212
100
AcDbEntity
  8
Body
  6
ByLayer
 62
  256
370
   -1
100
AcDbLine
 10
-30
 20
109
 11
-13.99999999999999
 21
108.9999994827056
  0
LWPOLYLINE
  5
213
100
AcDbEntity
  8
Body
  6
ByLayer
 62
  256
370
   -1
100
AcDbPolyline
 90
    4
 70
    1
 43
0
 10
11.99999999999998
 20
108.9999994827055
 10
11.99999999999999
 20
153.9999994827056
 10
13.99999999999999
 20
153.9999994827056
 10
13.99999999999998
 20
108.9999994827055
  0
LWPOLYLINE
  5
214
100
AcDbEntity
  8
Body
  6
ByLayer
 62
  256
370
   -1
100
AcDbPolyline
 90
    4
 70
    1
 43
0
 10
29.99999999999999
 20
108.9999994827055
 10
29.99999999999999
 20
153.9999994827056
 10
31.99999999999999
 20
153.9999994827056
 10
31.99999999999999
 20
108.9999994827055
  0
DIMENSION
  5
215
100
AcDbEntity
  8
Dim
  6
ByLayer
 62
  256
370
   -1
100
AcDbDimension
  2
*D9
 10
50
 20
154
 30
0
 11
46.25
 21
131.4999994827056
 31
0
 70
   32
 71
    5
  3
Standard
 53
0
210
0
220
0
230
1
100
AcDbAlignedDimension
 13
31.99999999999999
 23
108.9999994827055
 33
0
 14
31.99999999999999
 24
153.9999994827056
 34
0
 50
90
100
AcDbRotatedDimension
  0
LINE
  5
216
100
AcDbEntity
  8
Body
  6
ByLayer
 62
  256
370
   -1
100
AcDbLine
 10
13.99999999999998
 20
108.9999994827055
 11
30
 21
109
  0
LINE
  5
217
100
AcDbEntity
  8
Body
  6
ByLayer
 62
  256
370
   -1
100
AcDbLine
 10
195
 20
153.9999994827056
 11
196
 21
153.9999994827056
  0
LINE
  5
218
100
AcDbEntity
  8
Body
  6
ByLayer
 62
  256
370
   -1
100
AcDbLine
 10
180
 20
153.9999994827056
 11
181
 21
153.9999994827056
  0
LINE
  5
219
100
AcDbEntity
  8
Body
  6
DASHED2
 62
  256
370
   -1
100
AcDbLine
 10
181
 20
153.9999994827056
 11
195
 21
153.9999994827056
  0
LINE
  5
21A
100
AcDbEntity
  8
Body
  6
ByLayer
 62
  256
370
   -1
100
AcDbLine
 10
181
 20
114.9999989654111
 11
195
 21
114.9999989654111
  0
LWPOLYLINE
  5
21B
100
AcDbEntity
  8
Body
  6
ByLayer
 62
  256
370
   -1
100
AcDbPolyline
 90
    4
 70
    1
 43
0
 10
178
 20
108.9999994827055
 10
178
 20
153.9999994827056
 10
180
 20
153.9999994827056
 10
180
 20
108.9999994827055
  0
LWPOLYLINE
  5
21C
100
AcDbEntity
  8
Body
  6
ByLayer
 62
  256
370
   -1
100
AcDbPolyline
 90
    4
 70
    1
 43
0
 10
196
 20
108.9999994827055
 10
196
 20
153.9999994827056
 10
198
 20
153.9999994827056
 10
198
 20
108.9999994827055
  0
LINE
  5
21D
100
AcDbEntity
  8
Body
  6
ByLayer
 62
  256
370
   -1
100
AcDbLine
 10
180
 20
108.9999994827055
 11
196
 21
109
  0
LWPOLYLINE
  5
21E
100
AcDbEntity
  8
Body
  6
ByLayer
 62
  256
370
   -1
100
AcDbPolyline
 90
    4
 70
    1
 43
0
 10
342
 20
108.9999994827055
 10
342
 20
153.9999994827056
 10
344
 20
153.9999994827056
 10
344
 20
108.9999994827055
  0
LWPOLYLINE
  5
21F
100
AcDbEntity
  8
Body
  6
ByLayer
 62
  256
370
   -1
100
AcDbPolyline
 90
    4
 70
    1
 43
0
 10
360
 20
108.9999994827055
 10
360
 20
153.9999994827056
 10
362
 20
153.9999994827056
 10
362
 20
108.9999994827055
  0
LINE
  5
220
100
AcDbEntity
  8
Body
  6
ByLayer
 62
  256
370
   -1
100
AcDbLine
 10
344
 20
108.9999994827055
 11
360
 21
109
  0
LINE
  5
221
100
AcDbEntity
  8
Body
  6
ByLayer
 62
  256
370
   -1
100
AcDbLine
 10
344
 20
153.9999989654111
 11
360
 21
153.9999994827056
  0
DIMENSION
  5
222
100
AcDbEntity
  8
Dim
  6
ByLayer
 62
  256
370
   -1
100
AcDbDimension
  2
*D10
 10
248
 20
99
 30
0
 11
223
 21
102.75
 31
0
 70
   32
 71
    5
  3
Standard
 53
0
210
0
220
0
230
1
100
AcDbAlignedDimension
 13
198
 23
114.0000003868126
 33
0
 14
248
 24
113.9999993022894
 34
0
 50
180
100
AcDbRotatedDimension
  0
DIMENSION
  5
223
100
AcDbEntity
  8
Dim
  6
ByLayer
 62
  256
370
   -1
100
AcDbDimension
  2
*D11
 10
-29
 20
250
 30
0
 11
-22
 21
253.75
 31
0
 70
   32
  1
%%C<>
 71
    5
  3
Standard
 53
0
210
0
220
0
230
1
100
AcDbAlignedDimension
 13
-15
 23
250
 33
0
 14
-29
 24
250
 34
0
 50
180
100
AcDbRotatedDimension
  0
DIMENSION
  5
224
100
AcDbEntity
  8
Dim
  6
ByLayer
 62
  256
370
   -1
100
AcDbDimension
  2
*D12
 10
170
 20
223
 30
0
 11
166.25
 21
218
 31
0
 70
   32
 71
    5
  3
Standard
 53
0
210
0
220
0
230
1
100
AcDbAlignedDimension
 13
178
 23
213
 33
0
 14
178
 24
223
 34
0
 50
270
100
AcDbRotatedDimension
  0
DIMENSION
  5
225
100
AcDbEntity
  8
Dim
  6
ByLayer
 62
  256
370
   -1
100
AcDbDimension
  2
*D13
 10
170
 20
213
 30
0
 11
166.25
 21
205.5
 31
0
 70
   32
 71
    5
  3
Standard
 53
0
210
0
220
0
230
1
100
AcDbAlignedDimension
 13
178
 23
198
 33
0
 14
178
 24
213
 34
0
 50
90
100
AcDbRotatedDimension
  0
DIMENSION
  5
226
100
AcDbEntity
  8
Dim
  6
ByLayer
 62
  256
370
   -1
100
AcDbDimension
  2
*D14
 10
150
 20
303
 30
0
 11
146.25
 21
205.4999997413528
 31
0
 70
   32
 71
    5
  3
Standard
 53
0
210
0
220
0
230
1
100
AcDbAlignedDimension
 13
188
 23
107.9999994827056
 33
0
 14
188
 24
303
 34
0
 50
90
100
AcDbRotatedDimension
  0
DIMENSION
  5
227
100
AcDbEntity
  8
Dim
  6
ByLayer
 62
  256
370
   -1
100
AcDbDimension
  2
*D15
 10
-40
 20
163
 30
0
 11
-43.75
 21
165.4999999999999
 31
0
 70
   32
 71
    5
 72
    0
  3
Standard
 53
0
210
0
220
0
230
1
100
AcDbAlignedDimension
 13
-29.00000000000001
 23
167.9999999999999
 33
0
 14
-29.00000000000001
 24
163
 34
0
 50
90
100
AcDbRotatedDimension
  0
DIMENSION
  5
228
100
AcDbEntity
  8
Dim
  6
ByLayer
 62
  256
370
   -1
100
AcDbDimension
  2
*D16
 10
-50
 20
154
 30
0
 11
-53.75
 21
156.5
 31
0
 70
   32
 71
    5
 72
    0
  3
Standard
 53
0
210
0
220
0
230
1
100
AcDbAlignedDimension
 13
-29.00000000000001
 23
159
 33
0
 14
-29
 24
154
 34
0
 50
90
100
AcDbRotatedDimension
  0
LEADER
  5
229
100
AcDbEntity
  8
Num
  6
ByLayer
 62
  256
370
   -1
100
AcDbLeader
  3
Standard
 71
    1
 72
    0
 73
    3
 74
    0
 75
    0
 40
1
 41
10
 76
3
 76
3
 10
342
 20
285.8187906238374
 30
0
 10
320
 20
310
 30
0
 10
310
 20
310
 30
0
  0
LEADER
  5
22A
100
AcDbEntity
  8
Num
  6
ByLayer
 62
  256
370
   -1
100
AcDbLeader
  3
Standard
 71
    1
 72
    0
 73
    3
 74
    0
 75
    0
 40
1
 41
10
 76
3
 76
3
 10
329.8530636669445
 20
268
 30
0
 10
320
 20
290
 30
0
 10
310
 20
290
 30
0
  0
LEADER
  5
22B
100
AcDbEntity
  8
Num
  6
ByLayer
 62
  256
370
   -1
100
AcDbLeader
  3
Standard
 71
    1
 72
    0
 73
    3
 74
    0
 75
    0
 40
1
 41
10
 76
3
 76
3
 10
342
 20
243
 30
0
 10
320
 20
230
 30
0
 10
310
 20
230
 30
0
  0
LEADER
  5
22C
100
AcDbEntity
  8
Num
  6
ByLayer
 62
  256
370
   -1
100
AcDbLeader
  3
Standard
 71
    1
 72
    0
 73
    3
 74
    0
 75
    0
 40
1
 41
10
 76
3
 76
3
 10
342
 20
213
 30
0
 10
320
 20
200
 30
0
 10
310
 20
200
 30
0
  0
LEADER
  5
22D
100
AcDbEntity
  8
Num
  6
ByLayer
 62
  256
370
   -1
100
AcDbLeader
  3
Standard
 71
    1
 72
    0
 73
    3
 74
    0
 75
    0
 40
1
 41
10
 76
3
 76
3
 10
342
 20
185.6307198468598
 30
0
 10
320
 20
170
 30
0
 10
310
 20
170
 30
0
  0
LEADER
  5
22E
100
AcDbEntity
  8
Num
  6
ByLayer
 62
  256
370
   -1
100
AcDbLeader
  3
Standard
 71
    1
 72
    0
 73
    3
 74
    0
 75
    0
 40
1
 41
10
 76
3
 76
3
 10
342
 20
142.4044151164702
 30
0
 10
320
 20
120
 30
0
 10
310
 20
120
 30
0
  0
LWPOLYLINE
  5
22F
100
AcDbEntity
  8
vorota
  6
ByLayer
 62
  256
370
   -1
100
AcDbPolyline
 90
    9
 70
    1
 43
0
 10
-7
 20
23
 10
-7.000000000000001
 20
61
 42
0.4142135623730949
 10
-11
 20
65
 10
-49
 20
65
 42
-0.414213562373095
 10
-52
 20
68
 10
-52
 20
70
 10
-2
 20
70
 10
-2
 20
20
 10
-4.000000000000001
 20
20
 42
-0.414213562373095
  0
LWPOLYLINE
  5
230
100
AcDbEntity
  8
vorota
  6
ByLayer
 62
  256
370
   -1
100
AcDbPolyline
 90
    4
 70
    1
 43
0
 10
-7.000000000000099
 20
20
 10
-37
 20
20
 10
-37
 20
24
 10
-7.000000000000099
 20
24
  0
LINE
  5
231
100
AcDbEntity
  8
Body
  6
DASHED2
 62
    7
370
   -1
100
AcDbLine
 10
-47.00000000000021
 20
3.000000000000114
 11
-37.0000000000001
 21
3
  0
LINE
  5
232
100
AcDbEntity
  8
Body
  6
ByLayer
 62
    7
370
   -1
100
AcDbLine
 10
-37.0000000000001
 20
3
 11
-31.872983346206
 21
3.000000000000227
  0
LINE
  5
233
100
AcDbEntity
  8
Body
  6
ByLayer
 62
    7
370
   -1
100
AcDbLine
 10
-31.87298334620721
 20
17.00000000000023
 11
-37.0000000000002
 21
17.00000000000023
  0
LINE
  5
234
100
AcDbEntity
  8
Body
  6
DASHED2
 62
    7
370
   -1
100
AcDbLine
 10
-37.0000000000002
 20
17.00000000000023
 11
-47.00000000000021
 21
17.00000000000023
  0
LWPOLYLINE
  5
235
100
AcDbEntity
  8
Body
  6
ByLayer
 62
  256
370
   -1
100
AcDbPolyline
 90
    4
 70
    0
 43
0
 10
-47.00000000000021
 20
17.00000000000023
 10
-82.0000000000006
 20
17.00000000000023
 42
0.9999999999999999
 10
-82.0000000000006
 20
3.000000000000227
 10
-47.00000000000021
 20
3.000000000000114
  0
LWPOLYLINE
  5
236
100
AcDbEntity
  8
Body
  6
ByLayer
 62
  256
370
   -1
100
AcDbPolyline
 90
    4
 70
    1
 43
0
 10
-37
 20
65
 10
-47
 20
65
 10
-47.0000000000001
 20
0
 10
-37.0000000000001
 20
0
  0
LWPOLYLINE
  5
237
100
AcDbEntity
  8
vorota
  6
ByLayer
 62
  256
370
   -1
100
AcDbPolyline
 90
    9
 70
    1
 43
0
 10
7
 20
23
 10
6.999999999999999
 20
61
 42
-0.414213562373095
 10
11
 20
65
 10
49
 20
65
 42
0.414213562373095
 10
52
 20
68
 10
52
 20
70
 10
2
 20
70
 10
2
 20
20
 10
4
 20
20
 42
0.414213562373095
  0
LWPOLYLINE
  5
238
100
AcDbEntity
  8
vorota
  6
ByLayer
 62
  256
370
   -1
100
AcDbPolyline
 90
    4
 70
    1
 43
0
 10
7.000000000000099
 20
20
 10
37
 20
20
 10
37
 20
24
 10
7.000000000000099
 20
24
  0
LINE
  5
239
100
AcDbEntity
  8
Body
  6
DASHED2
 62
    7
370
   -1
100
AcDbLine
 10
47.00000000000021
 20
3.000000000000114
 11
37.0000000000001
 21
3
  0
LINE
  5
23A
100
AcDbEntity
  8
Body
  6
ByLayer
 62
    7
370
   -1
100
AcDbLine
 10
37.0000000000001
 20
3
 11
31.872983346206
 21
3.000000000000227
  0
LINE
  5
23B
100
AcDbEntity
  8
Body
  6
ByLayer
 62
    7
370
   -1
100
AcDbLine
 10
31.87298334620721
 20
17.00000000000023
 11
37.0000000000002
 21
17.00000000000023
  0
LINE
  5
23C
100
AcDbEntity
  8
Body
  6
DASHED2
 62
    7
370
   -1
100
AcDbLine
 10
37.0000000000002
 20
17.00000000000023
 11
47.00000000000021
 21
17.00000000000023
  0
LWPOLYLINE
  5
23D
100
AcDbEntity
  8
Body
  6
ByLayer
 62
  256
370
   -1
100
AcDbPolyline
 90
    4
 70
    0
 43
0
 10
47.00000000000021
 20
17.00000000000023
 10
82.0000000000006
 20
17.00000000000023
 42
-0.9999999999999999
 10
82.0000000000006
 20
3.000000000000227
 10
47.00000000000021
 20
3.000000000000114
  0
LWPOLYLINE
  5
23E
100
AcDbEntity
  8
Body
  6
ByLayer
 62
  256
370
   -1
100
AcDbPolyline
 90
    4
 70
    1
 43
0
 10
47
 20
65
 10
37
 20
65
 10
37.0000000000001
 20
0
 10
47.0000000000001
 20
0
  0
LWPOLYLINE
  5
23F
100
AcDbEntity
  8
vorota
  6
ByLayer
 62
  256
370
   -1
100
AcDbPolyline
 90
    3
 70
    0
 43
0
 10
-7
 20
348
 10
-7
 20
168
 10
-67
 20
168
  0
LWPOLYLINE
  5
240
100
AcDbEntity
  8
vorota
  6
CONTINUOUS
 62
   16
420
8388608
370
   35
100
AcDbPolyline
 90
   15
 70
    0
 43
0
 10
-2.000000000000024
 20
163
 10
-2.00000000000003
 20
343
 10
-12.00000000000003
 20
353
 10
-21.99999999999999
 20
343
 10
-31.99999999999999
 20
353
 10
-42
 20
343
 10
-52
 20
353
 10
-52
 20
213
 10
-72
 20
213
 10
-62
 20
203
 10
-72
 20
193
 10
-62.00000000000001
 20
183
 10
-72.00000000000001
 20
173
 10
-62.00000000000001
 20
163
 10
-2.000000000000024
 20
163
  0
LWPOLYLINE
  5
241
100
AcDbEntity
  8
vorota
  6
DASHED2
 62
  256
370
   -1
100
AcDbPolyline
 90
    2
 70
    0
 43
0
 10
-37
 20
212
 10
-37
 20
198
  0
LWPOLYLINE
  5
242
100
AcDbEntity
  8
Body
  6
ByLayer
 62
  256
370
   -1
100
AcDbPolyline
 90
    8
 70
    1
 43
0
 10
-37
 20
214
 10
-37
 20
222
 42
0.414213562373095
 10
-38
 20
223
 10
-46
 20
223
 42
0.414213562373095
 10
-47
 20
222
 10
-47
 20
214
 42
0.414213562373095
 10
-46
 20
213
 10
-38
 20
213
 42
0.414213562373095
  0
LWPOLYLINE
  5
243
100
AcDbEntity
  8
Body
  6
ByLayer
 62
  256
370
   -1
100
AcDbPolyline
 90
    8
 70
    1
 43
0
 10
-37
 20
244
 10
-37
 20
252
 42
0.414213562373095
 10
-38
 20
253
 10
-46
 20
253
 42
0.414213562373095
 10
-47
 20
252
 10
-47
 20
244
 42
0.414213562373095
 10
-46
 20
243
 10
-38
 20
243
 42
0.414213562373095
  0
LWPOLYLINE
  5
244
100
AcDbEntity
  8
vorota
  6
CONTINUOUS
 62
   16
420
8388608
370
   35
100
AcDbPolyline
 90
   14
 70
    1
 43
0
 10
2.000000000000005
 20
163
 10
2.000000000000055
 20
343
 10
12.00000000000006
 20
353
 10
22.00000000000001
 20
343
 10
32.00000000000001
 20
353
 10
42
 20
343
 10
52
 20
353
 10
52
 20
213
 10
62
 20
213
 10
72
 20
203
 10
61.99999999999999
 20
193
 10
72
 20
183
 10
61.99999999999999
 20
173
 10
71.99999999999999
 20
163
  0
LWPOLYLINE
  5
245
100
AcDbEntity
  8
vorota
  6
ByLayer
 62
  256
370
   -1
100
AcDbPolyline
 90
    7
 70
    0
 43
0
 10
-37
 20
198
 10
-37
 20
167.9999999999999
 10
-11
 20
168
 10
-7
 20
172
 10
-7
 20
308
 10
-37
 20
308
 10
-37
 20
212
  0
LWPOLYLINE
  5
246
100
AcDbEntity
  8
vorota
  6
DASHED2
 62
  256
370
   -1
100
AcDbPolyline
 90
    2
 70
    0
 43
0
 10
37
 20
212
 10
37
 20
198
  0
LWPOLYLINE
  5
247
100
AcDbEntity
  8
vorota
  6
ByLayer
 62
  256
370
   -1
100
AcDbPolyline
 90
    7
 70
    0
 43
0
 10
37
 20
198
 10
37
 20
167.9999999999999
 10
11
 20
168
 10
7
 20
172
 10
7
 20
308
 10
37
 20
308
 10
37
 20
212
  0
LWPOLYLINE
  5
248
100
AcDbEntity
  8
vorota
  6
ByLayer
 62
  256
370
   -1
100
AcDbPolyline
 90
    3
 70
    0
 43
0
 10
7
 20
348
 10
7
 20
168
 10
67
 20
168
  0
LWPOLYLINE
  5
249
100
AcDbEntity
  8
Body
  6
ByLayer
 62
  256
370
   -1
100
AcDbPolyline
 90
    8
 70
    1
 43
0
 10
37
 20
214
 10
37
 20
222
 42
-0.414213562373095
 10
38
 20
223
 10
46
 20
223
 42
-0.414213562373095
 10
47
 20
222
 10
47
 20
214
 42
-0.414213562373095
 10
46
 20
213
 10
38
 20
213
 42
-0.414213562373095
  0
LWPOLYLINE
  5
24A
100
AcDbEntity
  8
Body
  6
ByLayer
 62
  256
370
   -1
100
AcDbPolyline
 90
    8
 70
    1
 43
0
 10
37
 20
244
 10
37
 20
252
 42
-0.414213562373095
 10
38
 20
253
 10
46
 20
253
 42
-0.414213562373095
 10
47
 20
252
 10
47
 20
244
 42
-0.414213562373095
 10
46
 20
243
 10
38
 20
243
 42
-0.414213562373095
  0
LWPOLYLINE
  5
24B
100
AcDbEntity
  8
ramka
  6
CONTINUOUS
 62
  176
420
  128
370
   35
100
AcDbPolyline
 90
    8
 70
    1
 43
0
 10
201
 20
114
 10
201
 20
154
 42
-0.414213562373095
 10
203
 20
156
 10
243
 20
156
 42
-0.414213562373095
 10
245
 20
154
 10
245
 20
114
 42
-0.414213562373095
 10
243
 20
112
 10
203
 20
112
 42
-0.414213562373095
  0
LWPOLYLINE
  5
24C
100
AcDbEntity
  8
vorota
  6
ByLayer
 62
  256
370
   -1
100
AcDbPolyline
 90
    9
 70
    1
 43
0
 10
243
 20
210
 10
243
 20
172
 42
-0.414213562373095
 10
239
 20
168
 10
201
 20
168
 42
0.414213562373095
 10
198
 20
165
 10
198
 20
163
 10
248
 20
163
 10
248
 20
213
 10
246
 20
213
 42
0.414213562373095
  0
LINE
  5
24D
100
AcDbEntity
  8
vorota
  6
ByLayer
 62
  256
370
   -1
100
AcDbLine
 10
243
 20
210
 11
243
 21
355
  0
LWPOLYLINE
  5
24E
100
AcDbEntity
  8
Body
  6
ByLayer
 62
  256
370
   -1
100
AcDbPolyline
 90
    4
 70
    1
 43
0
 10
196
 20
168
 10
196
 20
198
 10
198
 20
198
 10
198
 20
168
  0
LWPOLYLINE
  5
24F
100
AcDbEntity
  8
Body
  6
ByLayer
 62
  256
370
   -1
100
AcDbPolyline
 90
    4
 70
    1
 43
0
 10
196
 20
268
 10
196
 20
298
 10
198
 20
298
 10
198
 20
268
  0
LWPOLYLINE
  5
250
100
AcDbEntity
  8
vorota
  6
CONTINUOUS
 62
   16
420
8388608
370
   35
100
AcDbPolyline
 90
    8
 70
    0
 43
0
 10
198
 20
253
 10
198
 20
360
 10
208
 20
350
 10
218.0000000000001
 20
360
 10
228
 20
350
 10
238
 20
360
 10
248
 20
350
 10
248
 20
198
  0
LWPOLYLINE
  5
251
100
AcDbEntity
  8
vorota
  6
DASHED2
 62
  256
370
   -1
100
AcDbPolyline
 90
    2
 70
    0
 43
0
 10
198
 20
253
 10
198
 20
243
  0
LWPOLYLINE
  5
252
100
AcDbEntity
  8
vorota
  6
DASHED2
 62
  256
370
   -1
100
AcDbPolyline
 90
    2
 70
    0
 43
0
 10
198
 20
223
 10
198
 20
213
  0
LINE
  5
253
100
AcDbEntity
  8
vorota
  6
ByLayer
 62
  256
370
   -1
100
AcDbLine
 10
198
 20
243
 11
198
 21
223
  0
LINE
  5
254
100
AcDbEntity
  8
vorota
  6
ByLayer
 62
  256
370
   -1
100
AcDbLine
 10
198
 20
213
 11
198
 21
163
  0
LINE
  5
255
100
AcDbEntity
  8
Axe
  6
DASHDOT2
 62
  256
370
   -1
100
AcDbLine
 10
21.99999999999998
 20
105
 11
22
 21
313
  0
LWPOLYLINE
  5
256
100
AcDbEntity
  8
vorota
  6
ByLayer
 62
  256
370
   -1
100
AcDbPolyline
 90
    3
 70
    0
 43
0
 10
198
 20
308
 10
202
 20
308
 10
202
 20
253
  0
LWPOLYLINE
  5
257
100
AcDbEntity
  8
vorota
  6
DASHED2
 62
  256
370
   -1
100
AcDbPolyline
 90
    2
 70
    0
 43
0
 10
202
 20
253
 10
202
 20
243
  0
LWPOLYLINE
  5
258
100
AcDbEntity
  8
vorota
  6
DASHED2
 62
  256
370
   -1
100
AcDbPolyline
 90
    2
 70
    0
 43
0
 10
202
 20
223
 10
202
 20
213
  0
LINE
  5
259
100
AcDbEntity
  8
vorota
  6
ByLayer
 62
  256
370
   -1
100
AcDbLine
 10
202
 20
243
 11
202
 21
223
  0
LWPOLYLINE
  5
25A
100
AcDbEntity
  8
vorota
  6
ByLayer
 62
  256
370
   -1
100
AcDbPolyline
 90
    3
 70
    0
 43
0
 10
202
 20
213
 10
202
 20
168
 10
198
 20
168
  0
LWPOLYLINE
  5
25B
100
AcDbEntity
  8
Body
  6
CONTINUOUS
 62
    7
370
   35
100
AcDbPolyline
 90
    4
 70
    1
 43
0
 10
178
 20
213
 10
178
 20
223
 10
243
 20
223
 10
243
 20
213
  0
LWPOLYLINE
  5
25C
100
AcDbEntity
  8
Body
  6
CONTINUOUS
 62
    7
370
   35
100
AcDbPolyline
 90
    4
 70
    1
 43
0
 10
178
 20
243
 10
178
 20
253
 10
243
 20
253
 10
243
 20
243
  0
DIMENSION
  5
25D
100
AcDbEntity
  8
Dim
  6
ByLayer
 62
  256
370
   -1
100
AcDbDimension
  2
*D23
 10
208
 20
230
 30
0
 11
210.5
 21
233.75
 31
0
 70
   32
 71
    5
  3
Standard
 53
0
210
0
220
0
230
1
100
AcDbAlignedDimension
 13
243
 23
223
 33
0
 14
178
 24
223
 34
0
 50
180
100
AcDbRotatedDimension
  0
DIMENSION
  5
25E
100
AcDbEntity
  8
Dim
  6
ByLayer
 62
  256
370
   -1
100
AcDbDimension
  2
*D24
 10
178
 20
258
 30
0
 11
188
 21
261.75
 31
0
 70
   32
 71
    5
  3
Standard
 53
0
210
0
220
0
230
1
100
AcDbAlignedDimension
 13
198
 23
253
 33
0
 14
178
 24
251.25
 34
0
 50
180
100
AcDbRotatedDimension
  0
LINE
  5
25F
100
AcDbEntity
  8
Axe
  6
DASHDOT2
 62
  256
370
   -1
100
AcDbLine
 10
188
 20
105
 11
188
 21
313
  0
LWPOLYLINE
  5
260
100
AcDbEntity
  8
ramka
  6
ByLayer
 62
  256
370
   -1
100
AcDbPolyline
 90
    8
 70
    1
 43
0
 10
412
 20
114
 10
412
 20
154
 42
0.414213562373095
 10
407
 20
159
 10
367
 20
159
 42
0.414213562373095
 10
362
 20
154
 10
362
 20
114
 42
0.414213562373095
 10
367
 20
109
 10
407
 20
109
 42
0.414213562373095
  0
LWPOLYLINE
  5
261
100
AcDbEntity
  8
ramka
  6
CONTINUOUS
 62
  176
420
  128
370
   35
100
AcDbPolyline
 90
    8
 70
    1
 43
0
 10
365
 20
114
 10
365
 20
154
 42
-0.414213562373095
 10
367
 20
156
 10
407
 20
156
 42
-0.414213562373095
 10
409
 20
154
 10
409
 20
114
 42
-0.414213562373095
 10
407
 20
112
 10
367
 20
112
 42
-0.414213562373095
  0
LWPOLYLINE
  5
262
100
AcDbEntity
  8
vorota
  6
ByLayer
 62
  256
370
   -1
100
AcDbPolyline
 90
    9
 70
    1
 43
0
 10
407
 20
210
 10
407
 20
172
 42
-0.414213562373095
 10
403
 20
168
 10
365
 20
168
 42
0.414213562373095
 10
362
 20
165
 10
362
 20
163
 10
412
 20
163
 10
412
 20
213
 10
410
 20
213
 42
0.414213562373095
  0
LINE
  5
263
100
AcDbEntity
  8
vorota
  6
ByLayer
 62
  256
370
   -1
100
AcDbLine
 10
407
 20
210
 11
407
 21
355
  0
LWPOLYLINE
  5
264
100
AcDbEntity
  8
vorota
  6
CONTINUOUS
 62
   16
420
8388608
370
   35
100
AcDbPolyline
 90
    8
 70
    0
 43
0
 10
362
 20
253
 10
362
 20
360
 10
372
 20
350
 10
382.0000000000001
 20
360
 10
392
 20
350
 10
402
 20
360
 10
412
 20
350
 10
412
 20
198
  0
LWPOLYLINE
  5
265
100
AcDbEntity
  8
vorota
  6
DASHED2
 62
  256
370
   -1
100
AcDbPolyline
 90
    2
 70
    0
 43
0
 10
362
 20
253
 10
362
 20
243
  0
LWPOLYLINE
  5
266
100
AcDbEntity
  8
vorota
  6
DASHED2
 62
  256
370
   -1
100
AcDbPolyline
 90
    2
 70
    0
 43
0
 10
362
 20
223
 10
362
 20
213
  0
LINE
  5
267
100
AcDbEntity
  8
vorota
  6
ByLayer
 62
  256
370
   -1
100
AcDbLine
 10
362
 20
243
 11
362
 21
223
  0
LINE
  5
268
100
AcDbEntity
  8
vorota
  6
ByLayer
 62
  256
370
   -1
100
AcDbLine
 10
362
 20
213
 11
362
 21
163
  0
LWPOLYLINE
  5
269
100
AcDbEntity
  8
vorota
  6
ByLayer
 62
  256
370
   -1
100
AcDbPolyline
 90
    3
 70
    0
 43
0
 10
362
 20
308
 10
366
 20
308
 10
366
 20
253
  0
LWPOLYLINE
  5
26A
100
AcDbEntity
  8
vorota
  6
DASHED2
 62
  256
370
   -1
100
AcDbPolyline
 90
    2
 70
    0
 43
0
 10
366
 20
253
 10
366
 20
243
  0
LWPOLYLINE
  5
26B
100
AcDbEntity
  8
vorota
  6
DASHED2
 62
  256
370
   -1
100
AcDbPolyline
 90
    2
 70
    0
 43
0
 10
366
 20
223
 10
366
 20
213
  0
LINE
  5
26C
100
AcDbEntity
  8
vorota
  6
ByLayer
 62
  256
370
   -1
100
AcDbLine
 10
366
 20
243
 11
366
 21
223
  0
LWPOLYLINE
  5
26D
100
AcDbEntity
  8
vorota
  6
ByLayer
 62
  256
370
   -1
100
AcDbPolyline
 90
    3
 70
    0
 43
0
 10
366
 20
213
 10
366
 20
168
 10
362
 20
168
  0
LWPOLYLINE
  5
26E
100
AcDbEntity
  8
Body
  6
CONTINUOUS
 62
    7
370
   35
100
AcDbPolyline
 90
    4
 70
    1
 43
0
 10
342
 20
213
 10
342
 20
223
 10
407
 20
223
 10
407
 20
213
  0
LWPOLYLINE
  5
26F
100
AcDbEntity
  8
Body
  6
CONTINUOUS
 62
    7
370
   35
100
AcDbPolyline
 90
    4
 70
    1
 43
0
 10
342
 20
243
 10
342
 20
253
 10
407
 20
253
 10
407
 20
243
  0
MTEXT
  5
270
100
AcDbEntity
  8
Dim
  6
ByLayer
 62
  256
370
   -1
100
AcDbMText
 10
190
 20
380
 30
0
 40
15
 41
220.4816666666674
 71
    8
 72
    1
  1
 i 
  7
cyrillic_ii
210
0
220
0
230
1
 50
0
 73
    2
 44
1
  0
LINE
  5
271
100
AcDbEntity
  8
Dim
  6
ByLayer
 62
  256
370
   -1
100
AcDbLine
 10
79
 20
382
 11
302
 21
382
  0
DIMENSION
  5
272
100
AcDbEntity
  8
Dim
  6
ByLayer
 62
  256
370
   -1
100
AcDbDimension
  2
*D25
 10
270
 20
159
 30
0
 11
266.25
 21
161
 31
0
 70
   32
 71
    5
  3
Standard
 53
0
210
0
220
0
230
1
100
AcDbAlignedDimension
 13
248
 23
163
 33
0
 14
243
 24
159
 34
0
 50
90
100
AcDbRotatedDimension
  0
DIMENSION
  5
273
100
AcDbEntity
  8
Dim
  6
ByLayer
 62
  256
370
   -1
100
AcDbDimension
  2
*D26
 10
258
 20
203
 30
0
 11
254.25
 21
188
 31
0
 70
   32
 71
    5
  3
Standard
 53
0
210
0
220
0
230
1
100
AcDbAlignedDimension
 13
248
 23
163
 33
0
 14
248
 24
213
 34
0
 50
90
100
AcDbRotatedDimension
  0
DIMENSION
  5
274
100
AcDbEntity
  8
Dim
  6
ByLayer
 62
  256
370
   -1
100
AcDbDimension
  2
*D27
 10
258
 20
159
 30
0
 11
254.25
 21
134
 31
0
 70
   32
 71
    5
  3
Standard
 53
0
210
0
220
0
230
1
100
AcDbAlignedDimension
 13
243
 23
109
 33
0
 14
243
 24
159
 34
0
 50
90
100
AcDbRotatedDimension
  0
LINE
  5
275
100
AcDbEntity
  8
Axe
  6
DASHDOT2
 62
  256
370
   -1
100
AcDbLine
 10
-22.00000000000002
 20
105
 11
-22
 21
313
  0
DIMENSION
  5
276
100
AcDbEntity
  8
Dim
  6
ByLayer
 62
  256
370
   -1
100
AcDbDimension
  2
*D28
 10
-6.999999999999999
 20
320
 30
0
 11
-22
 21
323.75
 31
0
 70
   32
 71
    5
 72
    0
  3
Standard
 53
0
210
0
220
0
230
1
100
AcDbAlignedDimension
 13
-37
 23
308
 33
0
 14
-7
 24
308
 34
0
100
AcDbRotatedDimension
  0
DIMENSION
  5
277
100
AcDbEntity
  8
Dim
  6
ByLayer
 62
  256
370
   -1
100
AcDbDimension
  2
*D29
 10
-70
 20
167.9999999999999
 30
0
 11
-73.75
 21
237.9999999999999
 31
0
 70
   32
 71
    5
 72
    0
  3
Standard
 53
0
210
0
220
0
230
1
100
AcDbAlignedDimension
 13
-37
 23
308
 33
0
 14
-36.99999999999999
 24
167.9999999999999
 34
0
 50
90
100
AcDbRotatedDimension
  0
DIMENSION
  5
278
100
AcDbEntity
  8
Dim
  6
ByLayer
 62
  256
370
   -1
100
AcDbDimension
  2
*D30
 10
2
 20
80
 30
0
 11
2.296212748401287e-16
 21
83.75
 31
0
 70
   32
 71
    5
 72
    0
  3
Standard
 53
0
210
0
220
0
230
1
100
AcDbAlignedDimension
 13
-2
 23
70
 33
0
 14
2
 24
70
 34
0
100
AcDbRotatedDimension
  0
DIMENSION
  5
279
100
AcDbEntity
  8
Dim
  6
ByLayer
 62
  256
370
   -1
100
AcDbDimension
  2
*D31
 10
202
 20
320
 30
0
 11
200
 21
323.75
 31
0
 70
   32
 71
    5
 72
    0
  3
Standard
 53
0
210
0
220
0
230
1
100
AcDbAlignedDimension
 13
198
 23
308
 33
0
 14
202
 24
308
 34
0
100
AcDbRotatedDimension
  0
MTEXT
  5
27A
100
AcDbEntity
  8
Num
  6
ByLayer
 62
  256
370
   -1
100
AcDbMText
 10
313
 20
332
 30
0
 40
10
 41
2.222222222222222
 71
    7
 72
    1
  1
1
  7
cyrillic_ii
210
0
220
0
230
1
 50
0
 73
    2
 44
1
  0
LEADER
  5
27B
100
AcDbEntity
  8
Num
  6
ByLayer
 62
  256
370
   -1
100
AcDbLeader
  3
Standard
 71
    1
 72
    0
 73
    3
 74
    0
 75
    0
 40
1
 41
10
 76
3
 76
3
 10
364
 20
307.8187906238374
 30
0
 10
320
 20
330
 30
0
 10
310
 20
330
 30
0
  0
MTEXT
  5
27C
100
AcDbEntity
  8
Num
  6
ByLayer
 62
  256
370
   -1
100
AcDbMText
 10
313
 20
312
 30
0
 40
10
 41
4.444444444444445
 71
    7
 72
    1
  1
2
  7
cyrillic_ii
210
0
220
0
230
1
 50
0
 73
    2
 44
1
  0
MTEXT
  5
27D
100
AcDbEntity
  8
Num
  6
ByLayer
 62
  256
370
   -1
100
AcDbMText
 10
313
 20
292
 30
0
 40
10
 41
4.444444444445065
 71
    7
 72
    1
  1
3
  7
cyrillic_ii
210
0
220
0
230
1
 50
0
 73
    2
 44
1
  0
MTEXT
  5
27E
100
AcDbEntity
  8
Num
  6
ByLayer
 62
  256
370
   -1
100
AcDbMText
 10
313
 20
232
 30
0
 40
10
 41
5.555555555555555
 71
    7
 72
    1
  1
4
  7
cyrillic_ii
210
0
220
0
230
1
 50
0
 73
    2
 44
1
  0
MTEXT
  5
27F
100
AcDbEntity
  8
Num
  6
ByLayer
 62
  256
370
   -1
100
AcDbMText
 10
314
 20
202
 30
0
 40
10
 41
4.444444444445065
 71
    7
 72
    1
  1
5
  7
cyrillic_ii
210
0
220
0
230
1
 50
0
 73
    2
 44
1
  0
MTEXT
  5
280
100
AcDbEntity
  8
Num
  6
ByLayer
 62
  256
370
   -1
100
AcDbMText
 10
313
 20
172
 30
0
 40
10
 41
4.444444444445065
 71
    7
 72
    1
  1
6
  7
cyrillic_ii
210
0
220
0
230
1
 50
0
 73
    2
 44
1
  0
MTEXT
  5
281
100
AcDbEntity
  8
Num
  6
ByLayer
 62
  256
370
   -1
100
AcDbMText
 10
314
 20
122
 30
0
 40
10
 41
4.444444444444445
 71
    7
 72
    1
  1
7
  7
cyrillic_ii
210
0
220
0
230
1
 50
0
 73
    2
 44
1
  0
MTEXT
  5
282
100
AcDbEntity
  8
Dim
  6
ByLayer
 62
  256
370
   -1
100
AcDbMText
 10
130
 20
-20
 30
0
 40
10
 41
350.2777777777783
 71
    7
 72
    1
  3
1. i   ii.\P2.  i i  i i ii\P .\P3.  1  i  304.\P4. 
  1
i 2, 6, 7  i  20202.\P5.  3  i  %%C14.\P6. i 4  5  i  1010.
  7
cyrillic_ii
210
0
220
0
230
1
 50
0
 73
    2
 44
1
  0
DIMENSION
  5
283
100
AcDbEntity
  8
Dim
  6
ByLayer
 62
  256
370
   -1
100
AcDbDimension
  2
*D33
 10
160
 20
205
 30
0
 11
156.25
 21
254
 31
0
 70
   32
 71
    5
  3
Standard
 53
0
210
0
220
0
230
1
100
AcDbAlignedDimension
 13
188
 23
303
 33
0
 14
188
 24
205
 34
0
 50
90
100
AcDbRotatedDimension
  0
ENDSEC
  0
SECTION
  2
OBJECTS
  0
DICTIONARY
  5
C
330
0
100
AcDbDictionary
281
    1
  3
ACAD_GROUP
350
D
  0
DICTIONARY
  5
D
330
C
100
AcDbDictionary
281
    1
  0
ENDSEC
  0
EOF
