999
dxfrw 0.6.3
  0
SECTION
  2
HEADER
  9
$ACADVER
  1
AC1021
  9
$DWGCODEPAGE
  3
ANSI_1252
  9
$INSBASE
 10
0
 20
0
 30
0
  9
$EXTMIN
 10
-11
 20
-120
 30
0
  9
$EXTMAX
 10
119.4444444444446
 20
96.66666666666667
 30
0
  9
$LIMMIN
 10
0
 20
0
  9
$LIMMAX
 10
420
 20
297
  9
$ORTHOMODE
 70
    0
  9
$REGENMODE
 70
    1
  9
$FILLMODE
 70
    1
  9
$QTEXTMODE
 70
    0
  9
$MIRRTEXT
 70
    0
  9
$LTSCALE
 40
1
  9
$ATTMODE
 70
    0
  9
$TEXTSIZE
 40
2.5
  9
$TRACEWID
 40
15.68
  9
$TEXTSTYLE
  7
STANDARD
  9
$CLAYER
  8
rozmir
  9
$CELTYPE
  6
BYLAYER
  9
$CECOLOR
 62
  256
  9
$CELTSCALE
 40
1
  9
$DISPSILH
 70
    0
  9
$DIMSCALE
 40
1
  9
$DIMASZ
 40
3
  9
$DIMEXO
 40
1
  9
$DIMDLI
 40
3.75
  9
$DIMRND
 40
0
  9
$DIMDLE
 40
0
  9
$DIMEXE
 40
2
  9
$DIMTP
 40
0
  9
$DIMTM
 40
0
  9
$DIMTXT
 40
4
  9
$DIMCEN
 40
2.5
  9
$DIMTSZ
 40
0
  9
$DIMTOL
 70
    0
  9
$DIMLIM
 70
    0
  9
$DIMTIH
 70
    0
  9
$DIMTOH
 70
    0
  9
$DIMSE1
 70
    0
  9
$DIMSE2
 70
    0
  9
$DIMTAD
 70
    1
  9
$DIMZIN
 70
    8
  9
$DIMBLK
  1

  9
$DIMASO
 70
    1
  9
$DIMSHO
 70
    1
  9
$DIMPOST
  1

  9
$DIMAPOST
  1

  9
$DIMALT
 70
    0
  9
$DIMALTD
 70
    3
  9
$DIMALTF
 40
0.03937
  9
$DIMLFAC
 40
1
  9
$DIMTOFL
 70
    1
  9
$DIMTVP
 40
0
  9
$DIMTIX
 70
    0
  9
$DIMSOXD
 70
    0
  9
$DIMSAH
 70
    0
  9
$DIMBLK1
  1

  9
$DIMBLK2
  1

  9
$DIMSTYLE
  2
STANDARD
  9
$DIMCLRD
 70
    0
  9
$DIMCLRE
 70
    0
  9
$DIMCLRT
 70
    0
  9
$DIMTFAC
 40
1
  9
$DIMGAP
 40
1
  9
$DIMJUST
 70
    0
  9
$DIMSD1
 70
    0
  9
$DIMSD2
 70
    0
  9
$DIMTOLJ
 70
    0
  9
$DIMTZIN
 70
    8
  9
$DIMALTZ
 70
    0
  9
$DIMALTTZ
 70
    0
  9
$DIMUPT
 70
    0
  9
$DIMDEC
 70
    1
  9
$DIMTDEC
 70
    2
  9
$DIMALTU
 70
    2
  9
$DIMALTTD
 70
    3
  9
$DIMTXSTY
  7
standard
  9
$DIMAUNIT
 70
    0
  9
$DIMADEC
 70
    0
  9
$DIMALTRND
 40
0
  9
$DIMAZIN
 70
    0
  9
$DIMDSEP
 70
   44
  9
$DIMATFIT
 70
    3
  9
$DIMFRAC
 70
    0
  9
$DIMLDRBLK
  1
STANDARD
  9
$DIMLUNIT
 70
    2
  9
$DIMLWD
 70
   -2
  9
$DIMLWE
 70
   -2
  9
$DIMTMOVE
 70
    0
  9
$DIMFXL
 40
1
  9
$DIMFXLON
 70
    0
  9
$DIMJOGANG
 40
0.7854
  9
$DIMTFILL
 70
    0
  9
$DIMTFILLCLR
 70
    0
  9
$DIMARCSYM
 70
    0
  9
$DIMLTYPE
  6

  9
$DIMLTEX1
  6

  9
$DIMLTEX2
  6

  9
$LUNITS
 70
    2
  9
$LUPREC
 70
    2
  9
$SKETCHINC
 40
1
  9
$FILLETRAD
 40
0
  9
$AUNITS
 70
    0
  9
$AUPREC
 70
    2
  9
$MENU
  1
.
  9
$ELEVATION
 40
0
  9
$PELEVATION
 40
0
  9
$THICKNESS
 40
0
  9
$LIMCHECK
 70
    0
  9
$CHAMFERA
 40
0
  9
$CHAMFERB
 40
0
  9
$CHAMFERC
 40
0
  9
$CHAMFERD
 40
0
  9
$SKPOLY
 70
    0
  9
$USRTIMER
 70
    1
  9
$ANGBASE
 50
0
  9
$ANGDIR
 70
    0
  9
$PDMODE
 70
   34
  9
$PDSIZE
 40
0
  9
$PLINEWID
 40
0
  9
$SPLFRAME
 70
    0
  9
$SPLINETYPE
 70
    2
  9
$SPLINESEGS
 70
    8
  9
$HANDSEED
  5
20000
  9
$SURFTAB1
 70
    6
  9
$SURFTAB2
 70
    6
  9
$SURFTYPE
 70
    6
  9
$SURFU
 70
    6
  9
$SURFV
 70
    6
  9
$UCSBASE
  2

  9
$UCSNAME
  2

  9
$UCSORG
 10
0
 20
0
 30
0
  9
$UCSXDIR
 10
1
 20
0
 30
0
  9
$UCSYDIR
 10
0
 20
1
 30
0
  9
$UCSORTHOREF
  2

  9
$UCSORTHOVIEW
 70
    0
  9
$UCSORGTOP
 10
0
 20
0
 30
0
  9
$UCSORGBOTTOM
 10
0
 20
0
 30
0
  9
$UCSORGLEFT
 10
0
 20
0
 30
0
  9
$UCSORGRIGHT
 10
0
 20
0
 30
0
  9
$UCSORGFRONT
 10
0
 20
0
 30
0
  9
$UCSORGBACK
 10
0
 20
0
 30
0
  9
$PUCSBASE
  2

  9
$PUCSNAME
  2

  9
$PUCSORG
 10
0
 20
0
 30
0
  9
$PUCSXDIR
 10
1
 20
0
 30
0
  9
$PUCSYDIR
 10
0
 20
1
 30
0
  9
$PUCSORTHOREF
  2

  9
$PUCSORTHOVIEW
 70
    0
  9
$PUCSORGTOP
 10
0
 20
0
 30
0
  9
$PUCSORGBOTTOM
 10
0
 20
0
 30
0
  9
$PUCSORGLEFT
 10
0
 20
0
 30
0
  9
$PUCSORGRIGHT
 10
0
 20
0
 30
0
  9
$PUCSORGFRONT
 10
0
 20
0
 30
0
  9
$PUCSORGBACK
 10
0
 20
0
 30
0
  9
$USERI1
 70
    0
  9
$USERI2
 70
    0
  9
$USERI3
 70
    0
  9
$USERI4
 70
    0
  9
$USERI5
 70
    0
  9
$USERR1
 40
0
  9
$USERR2
 40
0
  9
$USERR3
 40
0
  9
$USERR4
 40
0
  9
$USERR5
 40
0
  9
$WORLDVIEW
 70
    1
  9
$SHADEDGE
 70
    3
  9
$SHADEDIF
 70
   70
  9
$TILEMODE
 70
    1
  9
$MAXACTVP
 70
   64
  9
$PINSBASE
 10
10.59564102564103
 20
8.181025641025641
 30
0
  9
$PLIMCHECK
 70
    0
  9
$PEXTMIN
 10
0
 20
0
 30
0
  9
$PEXTMAX
 10
0
 20
0
 30
0
  9
$GRIDMODE
 70
    1
  9
$SNAPSTYLE
 70
    0
  9
$GRIDUNIT
 10
0
 20
0
  9
$PLIMMIN
 10
0
 20
0
  9
$PLIMMAX
 10
29.7
 20
21
  9
$UNITMODE
 70
    0
  9
$VISRETAIN
 70
    1
  9
$PLINEGEN
 70
    0
  9
$PSLTSCALE
 70
    1
  9
$TREEDEPTH
 70
 3020
  9
$CMLSTYLE
  2
Standard
  9
$CMLJUST
 70
    0
  9
$CMLSCALE
 40
20
  9
$PROXYGRAPHICS
 70
    1
  9
$MEASUREMENT
 70
    1
  9
$CELWEIGHT
370
   -1
  9
$ENDCAPS
280
    0
  9
$JOINSTYLE
280
    0
  9
$LWDISPLAY
290
    0
  9
$INSUNITS
 70
    5
  9
$HYPERLINKBASE
  1

  9
$STYLESHEET
  1

  9
$XEDIT
290
    1
  9
$CEPSNTYPE
380
    0
  9
$PSTYLEMODE
290
    1
  9
$EXTNAMES
290
    1
  9
$PSVPSCALE
 40
0.1394871337067869
  9
$OLESTARTUP
290
    0
  9
$SORTENTS
280
  127
  9
$INDEXCTL
280
    0
  9
$HIDETEXT
280
    1
  9
$XCLIPFRAME
290
    0
  9
$HALOGAP
280
    0
  9
$OBSCOLOR
 70
  257
  9
$OBSLTYPE
280
    0
  9
$INTERSECTIONDISPLAY
280
    0
  9
$INTERSECTIONCOLOR
 70
  257
  9
$DIMASSOC
280
    1
  9
$PROJECTNAME
  1

  9
$CAMERADISPLAY
290
    0
  9
$LENSLENGTH
 40
50
  9
$CAMERAHEIGHT
 40
0
  9
$STEPSPERSEC
 40
2
  9
$STEPSIZE
 40
50
  9
$3DDWFPREC
 40
2
  9
$PSOLWIDTH
 40
5
  9
$PSOLHEIGHT
 40
80
  9
$LOFTANG1
 40
1.570796326794897
  9
$LOFTANG2
 40
1.570796326794897
  9
$LOFTMAG1
 40
0
  9
$LOFTMAG2
 40
0
  9
$LOFTPARAM
 70
    7
  9
$LOFTNORMALS
280
    1
  9
$LATITUDE
 40
1
  9
$LONGITUDE
 40
1
  9
$NORTHDIRECTION
 40
0
  9
$TIMEZONE
 70
-8000
  9
$LIGHTGLYPHDISPLAY
280
    1
  9
$TILEMODELIGHTSYNCH
280
    1
  9
$SOLIDHIST
280
    1
  9
$SHOWHIST
280
    1
  9
$DWFFRAME
280
    2
  9
$DGNFRAME
280
    0
  9
$REALWORLDSCALE
290
    1
  9
$INTERFERECOLOR
 62
    1
  9
$CSHADOW
280
    0
  9
$SHADOWPLANELOCATION
 40
0
  0
ENDSEC
  0
SECTION
  2
CLASSES
  0
ENDSEC
  0
SECTION
  2
TABLES
  0
TABLE
  2
VPORT
  5
8
330
0
100
AcDbSymbolTable
 70
    1
  0
VPORT
  5
31
330
2
100
AcDbSymbolTableRecord
100
AcDbViewportTableRecord
  2
*ACTIVE
 70
    0
 10
0
 20
0
 11
1
 21
1
 12
123.3968253968254
 22
50.55555555555556
 13
0
 23
0
 14
10
 24
10
 15
10
 25
10
 16
0
 26
0
 36
1
 17
0
 27
0
 37
0
 40
224.9206349206349
 41
1.711926605504587
 42
50
 43
0
 44
0
 50
0
 51
0
 71
    0
 72
  100
 73
    1
 74
    3
 75
    0
 76
    1
 77
    0
 78
    0
281
    0
 65
    1
110
0
120
0
130
0
111
1
121
0
131
0
112
0
122
1
132
0
 79
    0
146
0
348
10020
 60
    7
 61
    5
292
1
282
    1
141
0
142
0
 63
  250
421
3358443
  0
ENDTAB
  0
TABLE
  2
LTYPE
  5
5
330
0
100
AcDbSymbolTable
 70
    4
  0
LTYPE
  5
14
330
5
100
AcDbSymbolTableRecord
100
AcDbLinetypeTableRecord
  2
ByBlock
 70
    0
  3

 72
   65
 73
    0
 40
0
  0
LTYPE
  5
15
330
5
100
AcDbSymbolTableRecord
100
AcDbLinetypeTableRecord
  2
ByLayer
 70
    0
  3

 72
   65
 73
    0
 40
0
  0
LTYPE
  5
16
330
5
100
AcDbSymbolTableRecord
100
AcDbLinetypeTableRecord
  2
Continuous
 70
    0
  3
Solid line
 72
   65
 73
    0
 40
0
  0
LTYPE
  5
32
330
5
100
AcDbSymbolTableRecord
100
AcDbLinetypeTableRecord
  2
DOT
 70
    0
  3
Dot . . . . . . . . . . . . . . . . . . . . . .
 72
   65
 73
    2
 40
6.35
 49
0
 74
    0
 49
-6.35
 74
    0
  0
LTYPE
  5
33
330
5
100
AcDbSymbolTableRecord
100
AcDbLinetypeTableRecord
  2
DOTTINY
 70
    0
  3
Dot (.15x) .....................................
 72
   65
 73
    2
 40
0.9525
 49
0
 74
    0
 49
-0.9525
 74
    0
  0
LTYPE
  5
34
330
5
100
AcDbSymbolTableRecord
100
AcDbLinetypeTableRecord
  2
DOT2
 70
    0
  3
Dot (.5x) .....................................
 72
   65
 73
    2
 40
3.175
 49
0
 74
    0
 49
-3.175
 74
    0
  0
LTYPE
  5
35
330
5
100
AcDbSymbolTableRecord
100
AcDbLinetypeTableRecord
  2
DOTX2
 70
    0
  3
Dot (2x) .  .  .  .  .  .  .  .  .  .  .  .  .
 72
   65
 73
    2
 40
12.7
 49
0
 74
    0
 49
-12.7
 74
    0
  0
LTYPE
  5
36
330
5
100
AcDbSymbolTableRecord
100
AcDbLinetypeTableRecord
  2
DASHED
 70
    0
  3
Dashed _ _ _ _ _ _ _ _ _ _ _ _ _ _ _ _ _
 72
   65
 73
    2
 40
19.05
 49
12.7
 74
    0
 49
-6.35
 74
    0
  0
LTYPE
  5
37
330
5
100
AcDbSymbolTableRecord
100
AcDbLinetypeTableRecord
  2
DASHEDTINY
 70
    0
  3
Dashed (.15x) _ _ _ _ _ _ _ _ _ _ _ _ _ _ _ _ _
 72
   65
 73
    2
 40
2.8575
 49
1.905
 74
    0
 49
-0.9525
 74
    0
  0
LTYPE
  5
38
330
5
100
AcDbSymbolTableRecord
100
AcDbLinetypeTableRecord
  2
DASHED2
 70
    0
  3
Dashed (.5x) _ _ _ _ _ _ _ _ _ _ _ _ _ _ _ _ _
 72
   65
 73
    2
 40
9.524999999999999
 49
6.35
 74
    0
 49
-3.175
 74
    0
  0
LTYPE
  5
39
330
5
100
AcDbSymbolTableRecord
100
AcDbLinetypeTableRecord
  2
DASHEDX2
 70
    0
  3
Dashed (2x) ____  ____  ____  ____  ____  ___
 72
   65
 73
    2
 40
38.09999999999999
 49
25.4
 74
    0
 49
-12.7
 74
    0
  0
LTYPE
  5
3A
330
5
100
AcDbSymbolTableRecord
100
AcDbLinetypeTableRecord
  2
DASHDOT
 70
    0
  3
Dash dot __ . __ . __ . __ . __ . __ . __ . __
 72
   65
 73
    4
 40
25.4
 49
12.7
 74
    0
 49
-6.35
 74
    0
 49
0
 74
    0
 49
-6.35
 74
    0
  0
LTYPE
  5
3B
330
5
100
AcDbSymbolTableRecord
100
AcDbLinetypeTableRecord
  2
DASHDOTTINY
 70
    0
  3
Dash dot (.15x) _._._._._._._._._._._._._._._.
 72
   65
 73
    4
 40
3.81
 49
1.905
 74
    0
 49
-0.9525
 74
    0
 49
0
 74
    0
 49
-0.9525
 74
    0
  0
LTYPE
  5
3C
330
5
100
AcDbSymbolTableRecord
100
AcDbLinetypeTableRecord
  2
DASHDOT2
 70
    0
  3
Dash dot (.5x) _._._._._._._._._._._._._._._.
 72
   65
 73
    4
 40
12.7
 49
6.35
 74
    0
 49
-3.175
 74
    0
 49
0
 74
    0
 49
-3.175
 74
    0
  0
LTYPE
  5
3D
330
5
100
AcDbSymbolTableRecord
100
AcDbLinetypeTableRecord
  2
DASHDOTX2
 70
    0
  3
Dash dot (2x) ____  .  ____  .  ____  .  ___
 72
   65
 73
    4
 40
50.8
 49
25.4
 74
    0
 49
-12.7
 74
    0
 49
0
 74
    0
 49
-12.7
 74
    0
  0
LTYPE
  5
3E
330
5
100
AcDbSymbolTableRecord
100
AcDbLinetypeTableRecord
  2
DIVIDE
 70
    0
  3
Divide ____ . . ____ . . ____ . . ____ . . ____
 72
   65
 73
    6
 40
31.75
 49
12.7
 74
    0
 49
-6.35
 74
    0
 49
0
 74
    0
 49
-6.35
 74
    0
 49
0
 74
    0
 49
-6.35
 74
    0
  0
LTYPE
  5
3F
330
5
100
AcDbSymbolTableRecord
100
AcDbLinetypeTableRecord
  2
DIVIDETINY
 70
    0
  3
Divide (.15x) __..__..__..__..__..__..__..__.._
 72
   65
 73
    6
 40
4.7625
 49
1.905
 74
    0
 49
-0.9525
 74
    0
 49
0
 74
    0
 49
-0.9525
 74
    0
 49
0
 74
    0
 49
-0.9525
 74
    0
  0
LTYPE
  5
40
330
5
100
AcDbSymbolTableRecord
100
AcDbLinetypeTableRecord
  2
DIVIDE2
 70
    0
  3
Divide (.5x) __..__..__..__..__..__..__..__.._
 72
   65
 73
    6
 40
15.875
 49
6.35
 74
    0
 49
-3.175
 74
    0
 49
0
 74
    0
 49
-3.175
 74
    0
 49
0
 74
    0
 49
-3.175
 74
    0
  0
LTYPE
  5
41
330
5
100
AcDbSymbolTableRecord
100
AcDbLinetypeTableRecord
  2
DIVIDEX2
 70
    0
  3
Divide (2x) ________  .  .  ________  .  .  _
 72
   65
 73
    6
 40
63.5
 49
25.4
 74
    0
 49
-12.7
 74
    0
 49
0
 74
    0
 49
-12.7
 74
    0
 49
0
 74
    0
 49
-12.7
 74
    0
  0
LTYPE
  5
42
330
5
100
AcDbSymbolTableRecord
100
AcDbLinetypeTableRecord
  2
BORDER
 70
    0
  3
Border __ __ . __ __ . __ __ . __ __ . __ __ .
 72
   65
 73
    6
 40
44.45
 49
12.7
 74
    0
 49
-6.35
 74
    0
 49
12.7
 74
    0
 49
-6.35
 74
    0
 49
0
 74
    0
 49
-6.35
 74
    0
  0
LTYPE
  5
43
330
5
100
AcDbSymbolTableRecord
100
AcDbLinetypeTableRecord
  2
BORDERTINY
 70
    0
  3
Border (.15x) __.__.__.__.__.__.__.__.__.__.__.
 72
   65
 73
    6
 40
6.6675
 49
1.905
 74
    0
 49
-0.9525
 74
    0
 49
1.905
 74
    0
 49
-0.9525
 74
    0
 49
0
 74
    0
 49
-0.9525
 74
    0
  0
LTYPE
  5
44
330
5
100
AcDbSymbolTableRecord
100
AcDbLinetypeTableRecord
  2
BORDER2
 70
    0
  3
Border (.5x) __.__.__.__.__.__.__.__.__.__.__.
 72
   65
 73
    6
 40
22.225
 49
6.35
 74
    0
 49
-3.175
 74
    0
 49
6.35
 74
    0
 49
-3.175
 74
    0
 49
0
 74
    0
 49
-3.175
 74
    0
  0
LTYPE
  5
45
330
5
100
AcDbSymbolTableRecord
100
AcDbLinetypeTableRecord
  2
BORDERX2
 70
    0
  3
Border (2x) ____  ____  .  ____  ____  .  ___
 72
   65
 73
    6
 40
88.89999999999999
 49
25.4
 74
    0
 49
-12.7
 74
    0
 49
25.4
 74
    0
 49
-12.7
 74
    0
 49
0
 74
    0
 49
-12.7
 74
    0
  0
LTYPE
  5
46
330
5
100
AcDbSymbolTableRecord
100
AcDbLinetypeTableRecord
  2
CENTER
 70
    0
  3
Center ____ _ ____ _ ____ _ ____ _ ____ _ ____
 72
   65
 73
    4
 40
50.8
 49
31.75
 74
    0
 49
-6.35
 74
    0
 49
6.35
 74
    0
 49
-6.35
 74
    0
  0
LTYPE
  5
47
330
5
100
AcDbSymbolTableRecord
100
AcDbLinetypeTableRecord
  2
CENTERTINY
 70
    0
  3
Center (.15x) ___ _ ___ _ ___ _ ___ _ ___ _ ___
 72
   65
 73
    4
 40
7.619999999999999
 49
4.7625
 74
    0
 49
-0.9525
 74
    0
 49
0.9525
 74
    0
 49
-0.9525
 74
    0
  0
LTYPE
  5
48
330
5
100
AcDbSymbolTableRecord
100
AcDbLinetypeTableRecord
  2
CENTER2
 70
    0
  3
Center (.5x) ___ _ ___ _ ___ _ ___ _ ___ _ ___
 72
   65
 73
    4
 40
28.575
 49
19.05
 74
    0
 49
-3.175
 74
    0
 49
3.175
 74
    0
 49
-3.175
 74
    0
  0
LTYPE
  5
49
330
5
100
AcDbSymbolTableRecord
100
AcDbLinetypeTableRecord
  2
CENTERX2
 70
    0
  3
Center (2x) ________  __  ________  __  _____
 72
   65
 73
    4
 40
101.6
 49
63.5
 74
    0
 49
-12.7
 74
    0
 49
12.7
 74
    0
 49
-12.7
 74
    0
  0
ENDTAB
  0
TABLE
  2
LAYER
  5
2
330
0
100
AcDbSymbolTable
 70
    1
  0
LAYER
  5
10
330
2
100
AcDbSymbolTableRecord
100
AcDbLayerTableRecord
  2
0
 70
    0
 62
    7
  6
CONTINUOUS
370
   -3
390
F
1001
LibreCad
1070
    1
  0
LAYER
  5
4A
330
2
100
AcDbSymbolTableRecord
100
AcDbLayerTableRecord
  2
brick
 70
    0
 62
   16
420
8388608
  6
CONTINUOUS
370
   50
390
F
  0
LAYER
  5
4B
330
2
100
AcDbSymbolTableRecord
100
AcDbLayerTableRecord
  2
concrete
 70
    0
 62
  216
420
8388736
  6
CONTINUOUS
370
   50
390
F
  0
LAYER
  5
4C
330
2
100
AcDbSymbolTableRecord
100
AcDbLayerTableRecord
  2
epps
 70
    0
 62
   56
420
8421376
  6
CONTINUOUS
370
   50
390
F
  0
LAYER
  5
4D
330
2
100
AcDbSymbolTableRecord
100
AcDbLayerTableRecord
  2
face
 70
    0
 62
   96
420
32768
  6
CONTINUOUS
370
   50
390
F
  0
LAYER
  5
4E
330
2
100
AcDbSymbolTableRecord
100
AcDbLayerTableRecord
  2
kontur
 70
    0
 62
  216
420
8388736
  6
CONTINUOUS
370
   50
390
F
  0
LAYER
  5
4F
330
2
100
AcDbSymbolTableRecord
100
AcDbLayerTableRecord
  2
metal
 70
    0
 62
    5
  6
CONTINUOUS
370
   50
390
F
  0
LAYER
  5
50
330
2
100
AcDbSymbolTableRecord
100
AcDbLayerTableRecord
  2
muerlat
 70
    0
 62
    3
  6
CONTINUOUS
370
   50
390
F
  0
LAYER
  5
51
330
2
100
AcDbSymbolTableRecord
100
AcDbLayerTableRecord
  2
plate
 70
    0
 62
    8
  6
CONTINUOUS
370
   50
390
F
  0
LAYER
  5
52
330
2
100
AcDbSymbolTableRecord
100
AcDbLayerTableRecord
  2
rozmir
 70
    0
 62
    4
  6
CONTINUOUS
370
   13
390
F
  0
LAYER
  5
53
330
2
100
AcDbSymbolTableRecord
100
AcDbLayerTableRecord
  2
u-block
 70
    0
 62
    6
  6
CONTINUOUS
370
   50
390
F
  0
LAYER
  5
54
330
2
100
AcDbSymbolTableRecord
100
AcDbLayerTableRecord
  2
wall
 70
    0
 62
   56
420
8421376
  6
CONTINUOUS
370
   50
390
F
  0
ENDTAB
  0
TABLE
  2
STYLE
  5
3
330
0
100
AcDbSymbolTable
 70
    3
  0
STYLE
  5
55
330
2
100
AcDbSymbolTableRecord
100
AcDbTextStyleTableRecord
  2
cyrillic_ii
 70
    0
 40
0
 41
1
 50
0
 71
    0
 42
1
  3
cyrillic_ii
  4

  0
STYLE
  5
56
330
2
100
AcDbSymbolTableRecord
100
AcDbTextStyleTableRecord
  2
Standard
 70
    0
 40
0
 41
1
 50
0
 71
    0
 42
1
  3
txt
  4

  0
ENDTAB
  0
TABLE
  2
VIEW
  5
6
330
0
100
AcDbSymbolTable
 70
    0
  0
ENDTAB
  0
TABLE
  2
UCS
  5
7
330
0
100
AcDbSymbolTable
 70
    0
  0
ENDTAB
  0
TABLE
  2
APPID
  5
9
330
0
100
AcDbSymbolTable
 70
    1
  0
APPID
  5
12
330
9
100
AcDbSymbolTableRecord
100
AcDbRegAppTableRecord
  2
ACAD
 70
    0
  0
APPID
  5
57
330
9
100
AcDbSymbolTableRecord
100
AcDbRegAppTableRecord
  2
LibreCad
 70
    0
  0
ENDTAB
  0
TABLE
  2
DIMSTYLE
  5
A
330
0
100
AcDbSymbolTable
 70
    1
100
AcDbDimStyleTable
 71
    1
  0
DIMSTYLE
105
58
330
A
100
AcDbSymbolTableRecord
100
AcDbDimStyleTableRecord
  2
Standard
 70
    0
 40
1
 41
3
 42
1
 43
0.38
 44
2
 45
0
 46
0
 47
0
 48
0
 49
1
140
4
141
0.09
142
0
143
25.4
144
1
145
0
146
1
147
1
148
0
 71
    0
 72
    0
 73
    0
 74
    1
 75
    0
 76
    0
 77
    0
 78
    8
 79
    0
170
    0
171
    2
172
    0
173
    0
174
    0
175
    0
176
    0
177
    0
178
    0
179
    0
271
    1
272
    4
273
    2
274
    2
275
    0
276
    0
277
    2
278
   44
279
    0
280
    0
281
    0
282
    0
283
    1
284
    0
285
    0
286
    0
288
    0
289
    3
340
standard
341

371
   -2
372
   -2
  0
ENDTAB
  0
TABLE
  2
BLOCK_RECORD
  5
1
330
0
100
AcDbSymbolTable
 70
    2
  0
BLOCK_RECORD
  5
1F
330
1
100
AcDbSymbolTableRecord
100
AcDbBlockTableRecord
  2
*Model_Space
 70
    0
280
    1
281
    0
  0
BLOCK_RECORD
  5
1E
330
1
100
AcDbSymbolTableRecord
100
AcDbBlockTableRecord
  2
*Paper_Space
 70
    0
280
    1
281
    0
  0
BLOCK_RECORD
  5
59
330
1
100
AcDbSymbolTableRecord
100
AcDbBlockTableRecord
  2
*D2
 70
    0
280
    1
281
    0
  0
BLOCK_RECORD
  5
5C
330
1
100
AcDbSymbolTableRecord
100
AcDbBlockTableRecord
  2
*D3
 70
    0
280
    1
281
    0
  0
BLOCK_RECORD
  5
5F
330
1
100
AcDbSymbolTableRecord
100
AcDbBlockTableRecord
  2
*D4
 70
    0
280
    1
281
    0
  0
BLOCK_RECORD
  5
62
330
1
100
AcDbSymbolTableRecord
100
AcDbBlockTableRecord
  2
*D1
 70
    0
280
    1
281
    0
  0
ENDTAB
  0
ENDSEC
  0
SECTION
  2
BLOCKS
  0
BLOCK
  5
20
330
1F
100
AcDbEntity
  8
0
100
AcDbBlockBegin
  2
*Model_Space
 70
    0
 10
0
 20
0
 30
0
  3
*Model_Space
  1

  0
ENDBLK
  5
21
330
1F
100
AcDbEntity
  8
0
100
AcDbBlockEnd
  0
BLOCK
  5
1C
330
1B
100
AcDbEntity
  8
0
100
AcDbBlockBegin
  2
*Paper_Space
 70
    0
 10
0
 20
0
 30
0
  3
*Paper_Space
  1

  0
ENDBLK
  5
1D
330
1F
100
AcDbEntity
  8
0
100
AcDbBlockEnd
  0
BLOCK
  5
5A
330
59
100
AcDbEntity
  8
0
100
AcDbBlockBegin
  2
*D2
 70
    1
 10
0
 20
0
  3
*D2
  1

  0
LINE
  5
65
100
AcDbEntity
  8
rozmir
  6
ByBlock
 62
    0
370
   -2
100
AcDbLine
 10
75
 20
-69.09999999999999
 11
75
 21
-86.89999999999992
  0
SOLID
  5
66
100
AcDbEntity
  8
rozmir
  6
ByBlock
 62
    0
370
   -2
100
AcDbTrace
 10
75
 20
-69.09999999999999
 30
0
 11
75.49954158932741
 21
-72.09999999999999
 31
0
 12
74.50045841067259
 22
-72.09999999999999
 32
0
 13
74.50045841067259
 23
-72.09999999999999
 33
0
  0
SOLID
  5
67
100
AcDbEntity
  8
rozmir
  6
ByBlock
 62
    0
370
   -2
100
AcDbTrace
 10
75
 20
-86.89999999999992
 30
0
 11
74.50045841067259
 21
-83.89999999999992
 31
0
 12
75.49954158932741
 22
-83.89999999999992
 32
0
 13
75.49954158932741
 23
-83.89999999999992
 33
0
  0
MTEXT
  5
68
100
AcDbEntity
  8
rozmir
  6
CONTINUOUS
 62
    0
370
   -2
100
AcDbMText
 10
72
 20
-77.99999999999996
 30
0
 40
4
 41
8.666666666666666
 71
    5
 72
    1
  1
17,8
  7
standard
210
0
220
0
230
1
 50
90
 73
    2
 44
1
  0
LINE
  5
69
100
AcDbEntity
  8
rozmir
  6
ByBlock
 62
    0
370
   -2
100
AcDbLine
 10
80.79999999999994
 20
-69.09999999999999
 11
73
 21
-69.09999999999999
  0
LINE
  5
6A
100
AcDbEntity
  8
rozmir
  6
ByBlock
 62
    0
370
   -2
100
AcDbLine
 10
80.79999999999994
 20
-86.89999999999992
 11
73
 21
-86.89999999999992
  0
ENDBLK
  5
5B
330
59
100
AcDbEntity
  8
0
100
AcDbBlockEnd
  0
BLOCK
  5
5D
330
5C
100
AcDbEntity
  8
0
100
AcDbBlockBegin
  2
*D3
 70
    1
 10
0
 20
0
  3
*D3
  1

  0
LINE
  5
6B
100
AcDbEntity
  8
rozmir
  6
ByBlock
 62
    0
370
   -2
100
AcDbLine
 10
80.00000000000016
 20
-95
 11
101.5
 21
-95
  0
SOLID
  5
6C
100
AcDbEntity
  8
rozmir
  6
ByBlock
 62
    0
370
   -2
100
AcDbTrace
 10
80.00000000000016
 20
-95
 30
0
 11
83.00000000000016
 21
-94.50045841067259
 31
0
 12
83.00000000000016
 22
-95.49954158932741
 32
0
 13
83.00000000000016
 23
-95.49954158932741
 33
0
  0
SOLID
  5
6D
100
AcDbEntity
  8
rozmir
  6
ByBlock
 62
    0
370
   -2
100
AcDbTrace
 10
101.5
 20
-95
 30
0
 11
98.5
 21
-95.49954158932741
 31
0
 12
98.5
 22
-94.50045841067259
 32
0
 13
98.5
 23
-94.50045841067259
 33
0
  0
MTEXT
  5
6E
100
AcDbEntity
  8
rozmir
  6
CONTINUOUS
 62
    0
370
   -2
100
AcDbMText
 10
90.75000000000009
 20
-92
 30
0
 40
4
 41
8.666666666666915
 71
    5
 72
    1
  1
21,5
  7
standard
210
0
220
0
230
1
 50
0
 73
    2
 44
1
  0
LINE
  5
6F
100
AcDbEntity
  8
rozmir
  6
ByBlock
 62
    0
370
   -2
100
AcDbLine
 10
80.00000000000016
 20
-86.09999999999999
 11
80.00000000000016
 21
-97
  0
LINE
  5
70
100
AcDbEntity
  8
rozmir
  6
ByBlock
 62
    0
370
   -2
100
AcDbLine
 10
101.5
 20
-86.10000000000001
 11
101.5
 21
-97
  0
ENDBLK
  5
5E
330
5C
100
AcDbEntity
  8
0
100
AcDbBlockEnd
  0
BLOCK
  5
60
330
5F
100
AcDbEntity
  8
0
100
AcDbBlockBegin
  2
*D4
 70
    1
 10
0
 20
0
  3
*D4
  1

  0
LINE
  5
71
100
AcDbEntity
  8
rozmir
  6
ByBlock
 62
    0
370
   -2
100
AcDbLine
 10
80.89999999999992
 20
-65
 11
100.5999999999999
 21
-65
  0
SOLID
  5
72
100
AcDbEntity
  8
rozmir
  6
ByBlock
 62
    0
370
   -2
100
AcDbTrace
 10
80.89999999999992
 20
-65
 30
0
 11
83.89999999999992
 21
-64.50045841067259
 31
0
 12
83.89999999999992
 22
-65.49954158932741
 32
0
 13
83.89999999999992
 23
-65.49954158932741
 33
0
  0
SOLID
  5
73
100
AcDbEntity
  8
rozmir
  6
ByBlock
 62
    0
370
   -2
100
AcDbTrace
 10
100.5999999999999
 20
-65
 30
0
 11
97.59999999999989
 21
-65.49954158932741
 31
0
 12
97.59999999999989
 22
-64.50045841067259
 32
0
 13
97.59999999999989
 23
-64.50045841067259
 33
0
  0
MTEXT
  5
74
100
AcDbEntity
  8
rozmir
  6
CONTINUOUS
 62
    0
370
   -2
100
AcDbMText
 10
90.74999999999993
 20
-62
 30
0
 40
4
 41
8.666666666666666
 71
    5
 72
    1
  1
19,7
  7
standard
210
0
220
0
230
1
 50
0
 73
    2
 44
1
  0
LINE
  5
75
100
AcDbEntity
  8
rozmir
  6
ByBlock
 62
    0
370
   -2
100
AcDbLine
 10
80.89999999999992
 20
-69.40000000000002
 11
80.89999999999992
 21
-63
  0
LINE
  5
76
100
AcDbEntity
  8
rozmir
  6
ByBlock
 62
    0
370
   -2
100
AcDbLine
 10
100.5999999999999
 20
-69.40000000000001
 11
100.5999999999999
 21
-63
  0
ENDBLK
  5
61
330
5F
100
AcDbEntity
  8
0
100
AcDbBlockEnd
  0
BLOCK
  5
63
330
62
100
AcDbEntity
  8
0
100
AcDbBlockBegin
  2
*D1
 70
    1
 10
0
 20
0
  3
*D1
  1

  0
LINE
  5
77
100
AcDbEntity
  8
rozmir
  6
ByBlock
 62
    0
370
   -2
100
AcDbLine
 10
110
 20
-70
 11
110
 21
-86.00000000000003
  0
SOLID
  5
78
100
AcDbEntity
  8
rozmir
  6
ByBlock
 62
    0
370
   -2
100
AcDbTrace
 10
110
 20
-70
 30
0
 11
110.4995415893274
 21
-73
 31
0
 12
109.5004584106726
 22
-73
 32
0
 13
109.5004584106726
 23
-73
 33
0
  0
SOLID
  5
79
100
AcDbEntity
  8
rozmir
  6
ByBlock
 62
    0
370
   -2
100
AcDbTrace
 10
110
 20
-86.00000000000003
 30
0
 11
109.5004584106726
 21
-83.00000000000003
 31
0
 12
110.4995415893274
 22
-83.00000000000003
 32
0
 13
110.4995415893274
 23
-83.00000000000003
 33
0
  0
MTEXT
  5
7A
100
AcDbEntity
  8
rozmir
  6
CONTINUOUS
 62
    0
370
   -2
100
AcDbMText
 10
107
 20
-78.00000000000001
 30
0
 40
4
 41
4.000000000000248
 71
    5
 72
    1
  1
16
  7
standard
210
0
220
0
230
1
 50
90
 73
    2
 44
1
  0
LINE
  5
7B
100
AcDbEntity
  8
rozmir
  6
ByBlock
 62
    0
370
   -2
100
AcDbLine
 10
101.1999999999999
 20
-70
 11
112
 21
-70
  0
LINE
  5
7C
100
AcDbEntity
  8
rozmir
  6
ByBlock
 62
    0
370
   -2
100
AcDbLine
 10
101.1999999999999
 20
-86.00000000000003
 11
112
 21
-86.00000000000003
  0
ENDBLK
  5
64
330
62
100
AcDbEntity
  8
0
100
AcDbBlockEnd
  0
ENDSEC
  0
SECTION
  2
ENTITIES
  0
HATCH
  5
7D
100
AcDbEntity
  8
metal
  6
ByLayer
 62
  256
370
   -1
100
AcDbHatch
 10
0
 20
0
 30
0
210
0
220
0
230
1
  2
SOLID
 70
    1
 71
    0
 91
    1
 92
    0
 93
    1
 72
    2
 10
100.1999999999999
 20
-85.60000000000002
 40
0.4000000000000021
 50
0
 51
360
 73
    1
 97
    0
 75
    0
 76
    1
 98
    0
  0
HATCH
  5
7E
100
AcDbEntity
  8
metal
  6
ByLayer
 62
  256
370
   -1
100
AcDbHatch
 10
0
 20
0
 30
0
210
0
220
0
230
1
  2
SOLID
 70
    1
 71
    0
 91
    1
 92
    0
 93
    1
 72
    2
 10
100.1999999999999
 20
-70.40000000000001
 40
0.4000000000000021
 50
0
 51
360
 73
    1
 97
    0
 75
    0
 76
    1
 98
    0
  0
HATCH
  5
7F
100
AcDbEntity
  8
metal
  6
ByLayer
 62
  256
370
   -1
100
AcDbHatch
 10
0
 20
0
 30
0
210
0
220
0
230
1
  2
SOLID
 70
    1
 71
    0
 91
    1
 92
    0
 93
    1
 72
    2
 10
81.29999999999993
 20
-70.40000000000002
 40
0.4000000000000021
 50
0
 51
360
 73
    1
 97
    0
 75
    0
 76
    1
 98
    0
  0
HATCH
  5
80
100
AcDbEntity
  8
metal
  6
ByLayer
 62
  256
370
   -1
100
AcDbHatch
 10
0
 20
0
 30
0
210
0
220
0
230
1
  2
SOLID
 70
    1
 71
    0
 91
    1
 92
    0
 93
    1
 72
    2
 10
81.29999999999993
 20
-85.60000000000002
 40
0.4000000000000021
 50
0
 51
360
 73
    1
 97
    0
 75
    0
 76
    1
 98
    0
  0
HATCH
  5
81
100
AcDbEntity
  8
metal
  6
ByLayer
 62
  256
370
   -1
100
AcDbHatch
 10
0
 20
0
 30
0
210
0
220
0
230
1
  2
SOLID
 70
    1
 71
    0
 91
    1
 92
    0
 93
    1
 72
    2
 10
14.29999999999993
 20
-85.60000000000002
 40
0.4000000000000021
 50
0
 51
360
 73
    1
 97
    0
 75
    0
 76
    1
 98
    0
  0
HATCH
  5
82
100
AcDbEntity
  8
metal
  6
ByLayer
 62
  256
370
   -1
100
AcDbHatch
 10
0
 20
0
 30
0
210
0
220
0
230
1
  2
SOLID
 70
    1
 71
    0
 91
    1
 92
    0
 93
    1
 72
    2
 10
14.29999999999993
 20
-70.40000000000002
 40
0.4000000000000021
 50
0
 51
360
 73
    1
 97
    0
 75
    0
 76
    1
 98
    0
  0
HATCH
  5
83
100
AcDbEntity
  8
kontur
  6
ByLayer
 62
  256
370
   -1
100
AcDbHatch
 10
0
 20
0
 30
0
210
0
220
0
230
1
  2
gost_concrete
 70
    0
 71
    0
 91
    1
 92
    0
 93
    4
 72
    1
 10
39.49999999999989
 20
-66.00000000000003
 11
39.49999999999989
 21
-90
 72
    1
 10
39.49999999999989
 20
-90
 11
11.00000000000023
 21
-90
 72
    1
 10
11.00000000000023
 20
-90
 11
10
 21
-66.00000000000003
 72
    1
 10
10
 20
-66.00000000000003
 11
39.49999999999989
 21
-66.00000000000003
 97
    0
 75
    0
 76
    1
 52
1.570796326794897
 41
0.5
 77
    0
 78
    0
 98
    0
  0
HATCH
  5
84
100
AcDbEntity
  8
metal
  6
ByLayer
 62
  256
370
   -1
100
AcDbHatch
 10
0
 20
0
 30
0
210
0
220
0
230
1
  2
SOLID
 70
    1
 71
    0
 91
    1
 92
    0
 93
    1
 72
    2
 10
33.19999999999992
 20
39.59999999999999
 40
0.4000000000000021
 50
0
 51
360
 73
    1
 97
    0
 75
    0
 76
    1
 98
    0
  0
HATCH
  5
85
100
AcDbEntity
  8
metal
  6
ByLayer
 62
  256
370
   -1
100
AcDbHatch
 10
0
 20
0
 30
0
210
0
220
0
230
1
  2
SOLID
 70
    1
 71
    0
 91
    1
 92
    0
 93
    1
 72
    2
 10
33.19999999999992
 20
-70.40000000000001
 40
0.4000000000000021
 50
0
 51
360
 73
    1
 97
    0
 75
    0
 76
    1
 98
    0
  0
HATCH
  5
86
100
AcDbEntity
  8
plate
  6
ByLayer
 62
  256
370
   -1
100
AcDbHatch
 10
0
 20
0
 30
0
210
0
220
0
230
1
  2
gost_concrete
 70
    0
 71
    0
 91
    1
 92
    0
 93
    8
 72
    1
 10
2.273736754432321e-13
 20
-74.99999999999997
 11
2.273736754432321e-13
 21
-65.99999999999929
 72
    1
 10
2.273736754432321e-13
 20
-65.99999999999929
 11
10.00000000000023
 21
-66.00000000000006
 72
    1
 10
10.00000000000023
 20
-66.00000000000006
 11
10.00000000000023
 21
-88.00000000000001
 72
    1
 10
10.00000000000023
 20
-88.00000000000001
 11
2.273736754432321e-13
 21
-87.99999999999925
 72
    1
 10
2.273736754432321e-13
 20
-87.99999999999925
 11
2.273736754432321e-13
 21
-78.99999999999997
 72
    1
 10
2.273736754432321e-13
 20
-78.99999999999997
 11
-1.999999999999773
 21
-77.99999999999997
 72
    1
 10
-1.999999999999773
 20
-77.99999999999997
 11
2.000000000000227
 21
-75.99999999999997
 72
    1
 10
2.000000000000227
 20
-75.99999999999997
 11
2.273736754432321e-13
 21
-74.99999999999997
 97
    0
 75
    0
 76
    1
 52
0
 41
0.5
 77
    0
 78
    0
 98
    0
  0
HATCH
  5
87
100
AcDbEntity
  8
metal
  6
ByLayer
 62
  256
370
   -1
100
AcDbHatch
 10
0
 20
0
 30
0
210
0
220
0
230
1
  2
SOLID
 70
    1
 71
    0
 91
    1
 92
    0
 93
    1
 72
    2
 10
33.19999999999992
 20
24.39999999999998
 40
0.4000000000000021
 50
0
 51
360
 73
    1
 97
    0
 75
    0
 76
    1
 98
    0
  0
HATCH
  5
88
100
AcDbEntity
  8
metal
  6
ByLayer
 62
  256
370
   -1
100
AcDbHatch
 10
0
 20
0
 30
0
210
0
220
0
230
1
  2
SOLID
 70
    1
 71
    0
 91
    1
 92
    0
 93
    1
 72
    2
 10
33.19999999999992
 20
-85.60000000000002
 40
0.4000000000000021
 50
0
 51
360
 73
    1
 97
    0
 75
    0
 76
    1
 98
    0
  0
HATCH
  5
89
100
AcDbEntity
  8
metal
  6
ByLayer
 62
  256
370
   -1
100
AcDbHatch
 10
0
 20
0
 30
0
210
0
220
0
230
1
  2
SOLID
 70
    1
 71
    0
 91
    1
 92
    0
 93
    1
 72
    2
 10
30
 20
-101.6
 40
0.4000000000000004
 50
0
 51
360
 73
    1
 97
    0
 75
    0
 76
    1
 98
    0
  0
HATCH
  5
8A
100
AcDbEntity
  8
metal
  6
ByLayer
 62
  256
370
   -1
100
AcDbHatch
 10
0
 20
0
 30
0
210
0
220
0
230
1
  2
SOLID
 70
    1
 71
    0
 91
    1
 92
    0
 93
    1
 72
    2
 10
30
 20
-92.39999999999995
 40
0.4000000000000021
 50
0
 51
360
 73
    1
 97
    0
 75
    0
 76
    1
 98
    0
  0
HATCH
  5
8B
100
AcDbEntity
  8
metal
  6
ByLayer
 62
  256
370
   -1
100
AcDbHatch
 10
0
 20
0
 30
0
210
0
220
0
230
1
  2
SOLID
 70
    1
 71
    0
 91
    1
 92
    0
 93
    1
 72
    2
 10
18.00000000000011
 20
-101.6
 40
0.4000000000000004
 50
0
 51
360
 73
    1
 97
    0
 75
    0
 76
    1
 98
    0
  0
HATCH
  5
8C
100
AcDbEntity
  8
metal
  6
ByLayer
 62
  256
370
   -1
100
AcDbHatch
 10
0
 20
0
 30
0
210
0
220
0
230
1
  2
SOLID
 70
    1
 71
    0
 91
    1
 92
    0
 93
    1
 72
    2
 10
18.00000000000011
 20
-92.39999999999995
 40
0.4000000000000021
 50
0
 51
360
 73
    1
 97
    0
 75
    0
 76
    1
 98
    0
  0
HATCH
  5
8D
100
AcDbEntity
  8
face
  6
ByLayer
 62
  256
370
   -1
100
AcDbHatch
 10
0
 20
0
 30
0
210
0
220
0
230
1
  2
gost_stone
 70
    0
 71
    0
 91
    1
 92
    0
 93
    8
 72
    1
 10
44.50000000000017
 20
-70.99999999999994
 11
57.00000000000017
 21
-70.99999999995582
 72
    1
 10
57.00000000000017
 20
-70.99999999995582
 11
57.00000000000017
 21
-115
 72
    1
 10
57.00000000000017
 20
-115
 11
53
 21
-115
 72
    1
 10
53
 20
-115
 11
52
 21
-117
 72
    1
 10
52
 20
-117
 11
50
 21
-113
 72
    1
 10
50
 20
-113
 11
49
 21
-115
 72
    1
 10
49
 20
-115
 11
44.50000000000017
 21
-115
 72
    1
 10
44.50000000000017
 20
-115
 11
44.50000000000017
 21
-70.99999999999994
 97
    0
 75
    0
 76
    1
 52
1.570796326794897
 41
0.5
 77
    0
 78
    0
 98
    0
  0
HATCH
  5
8E
100
AcDbEntity
  8
brick
  6
ByLayer
 62
  256
370
   -1
100
AcDbHatch
 10
0
 20
0
 30
0
210
0
220
0
230
1
  2
gost_ferroconcrete
 70
    0
 71
    0
 91
    1
 92
    0
 93
    4
 72
    1
 10
44.49999999999903
 20
-47.99999999999997
 11
44.50000000000017
 21
-70.99999999999994
 72
    1
 10
44.50000000000017
 20
-70.99999999999994
 11
56.99999999999989
 21
-70.99999999999994
 72
    1
 10
56.99999999999989
 20
-70.99999999999994
 11
56.99999999999875
 21
-47.99999999999997
 72
    1
 10
56.99999999999875
 20
-47.99999999999997
 11
44.49999999999903
 21
-47.99999999999997
 97
    0
 75
    0
 76
    1
 52
0
 41
1
 77
    0
 78
    0
 98
    0
  0
HATCH
  5
8F
100
AcDbEntity
  8
concrete
  6
ByLayer
 62
  256
370
   -1
100
AcDbHatch
 10
0
 20
0
 30
0
210
0
220
0
230
1
  2
gost_concrete
 70
    0
 71
    0
 91
    1
 92
    0
 93
    4
 72
    1
 10
31.99999999999989
 20
-104
 11
15.99999999999994
 21
-104
 72
    1
 10
15.99999999999994
 20
-104
 11
15
 21
-90
 72
    1
 10
15
 20
-90
 11
33.00000000000011
 21
-90
 72
    1
 10
33.00000000000011
 20
-90
 11
31.99999999999989
 21
-104
 97
    0
 75
    0
 76
    1
 52
1.570796326794897
 41
0.5
 77
    0
 78
    0
 98
    0
  0
HATCH
  5
90
100
AcDbEntity
  8
u-block
  6
ByLayer
 62
  256
370
   -1
100
AcDbHatch
 10
0
 20
0
 30
0
210
0
220
0
230
1
  2
gost_ceramics
 70
    0
 71
    0
 91
    1
 92
    0
 93
    8
 72
    1
 10
40
 20
-90
 11
33.00000000000011
 21
-90
 72
    1
 10
33.00000000000011
 20
-90
 11
31.99999999999989
 21
-104
 72
    1
 10
31.99999999999989
 20
-104
 11
15.99999999999994
 21
-104
 72
    1
 10
15.99999999999994
 20
-104
 11
15
 21
-90
 72
    1
 10
15
 20
-90
 11
10
 21
-90
 72
    1
 10
10
 20
-90
 11
10
 21
-110
 72
    1
 10
10
 20
-110
 11
40
 21
-110
 72
    1
 10
40
 20
-110
 11
40
 21
-90
 97
    0
 75
    0
 76
    1
 52
0
 41
1
 77
    0
 78
    0
 98
    0
  0
HATCH
  5
91
100
AcDbEntity
  8
muerlat
  6
ByLayer
 62
  256
370
   -1
100
AcDbHatch
 10
0
 20
0
 30
0
210
0
220
0
230
1
  2
gost_wood
 70
    0
 71
    0
 91
    1
 92
    0
 93
    4
 72
    1
 10
39
 20
-43.04035087711887
 11
24
 21
-43.04035087711887
 72
    1
 10
24
 20
-43.04035087711887
 11
24
 21
-58.04035087711888
 72
    1
 10
24
 20
-58.04035087711888
 11
39
 21
-58.04035087711888
 72
    1
 10
39
 20
-58.04035087711888
 11
39
 21
-43.04035087711887
 97
    0
 75
    0
 76
    1
 52
0
 41
0.5
 77
    0
 78
    0
 98
    0
  0
HATCH
  5
92
100
AcDbEntity
  8
brick
  6
ByLayer
 62
  256
370
   -1
100
AcDbHatch
 10
0
 20
0
 30
0
210
0
220
0
230
1
  2
gost_ferroconcrete
 70
    0
 71
    0
 91
    1
 92
    0
 93
    4
 72
    1
 10
44
 20
-66.00000000000014
 11
44
 21
-58.00000000000018
 72
    1
 10
44
 20
-58.00000000000018
 11
19
 21
-58.00000000000018
 72
    1
 10
19
 20
-58.00000000000018
 11
19
 21
-66.00000000000014
 72
    1
 10
19
 20
-66.00000000000014
 11
44
 21
-66.00000000000014
 97
    0
 75
    0
 76
    1
 52
0
 41
1
 77
    0
 78
    0
 98
    0
  0
HATCH
  5
93
100
AcDbEntity
  8
epps
  6
ByLayer
 62
  256
370
   -1
100
AcDbHatch
 10
0
 20
0
 30
0
210
0
220
0
230
1
  2
gost_non-metal
 70
    0
 71
    0
 91
    1
 92
    0
 93
    4
 72
    1
 10
44.49999999999989
 20
-66.00000000000003
 11
39.49999999999989
 21
-66.00000000000003
 72
    1
 10
39.49999999999989
 20
-66.00000000000003
 11
39.49999999999989
 21
-90
 72
    1
 10
39.49999999999989
 20
-90
 11
44.49999999999989
 21
-90
 72
    1
 10
44.49999999999989
 20
-90
 11
44.49999999999989
 21
-66.00000000000003
 97
    0
 75
    0
 76
    1
 52
1.570796326794897
 41
1
 77
    0
 78
    0
 98
    0
  0
HATCH
  5
94
100
AcDbEntity
  8
epps
  6
ByLayer
 62
  256
370
   -1
100
AcDbHatch
 10
0
 20
0
 30
0
210
0
220
0
230
1
  2
gost_non-metal
 70
    0
 71
    0
 91
    1
 92
    0
 93
    4
 72
    1
 10
39.49999999999989
 20
20
 11
44.49999999999989
 21
20
 72
    1
 10
44.49999999999989
 20
20
 11
44.49999999999989
 21
43.99999999999997
 72
    1
 10
44.49999999999989
 20
43.99999999999997
 11
39.49999999999989
 21
43.99999999999997
 72
    1
 10
39.49999999999989
 20
43.99999999999997
 11
39.49999999999989
 21
20
 97
    0
 75
    0
 76
    1
 52
1.570796326794897
 41
1
 77
    0
 78
    0
 98
    0
  0
HATCH
  5
95
100
AcDbEntity
  8
kontur
  6
ByLayer
 62
  256
370
   -1
100
AcDbHatch
 10
0
 20
0
 30
0
210
0
220
0
230
1
  2
gost_concrete
 70
    0
 71
    0
 91
    1
 92
    0
 93
    4
 72
    1
 10
39.49999999999989
 20
43.99999999999997
 11
39.49999999999989
 21
20
 72
    1
 10
39.49999999999989
 20
20
 11
25
 21
20
 72
    1
 10
25
 20
20
 11
23.99999999999977
 21
43.99999999999997
 72
    1
 10
23.99999999999977
 20
43.99999999999997
 11
39.49999999999989
 21
43.99999999999997
 97
    0
 75
    0
 76
    1
 52
1.570796326794897
 41
0.5
 77
    0
 78
    0
 98
    0
  0
HATCH
  5
96
100
AcDbEntity
  8
plate
  6
ByLayer
 62
  256
370
   -1
100
AcDbHatch
 10
0
 20
0
 30
0
210
0
220
0
230
1
  2
gost_concrete
 70
    0
 71
    0
 91
    1
 92
    0
 93
    8
 72
    1
 10
24
 20
22.00000000000004
 11
2.273736754432321e-13
 21
22.00000000000075
 72
    1
 10
2.273736754432321e-13
 20
22.00000000000075
 11
2.273736754432321e-13
 21
31.00000000000003
 72
    1
 10
2.273736754432321e-13
 20
31.00000000000003
 11
-1.999999999999773
 21
32.00000000000003
 72
    1
 10
-1.999999999999773
 20
32.00000000000003
 11
2.000000000000227
 21
34.00000000000003
 72
    1
 10
2.000000000000227
 20
34.00000000000003
 11
2.273736754432321e-13
 21
35.00000000000003
 72
    1
 10
2.273736754432321e-13
 20
35.00000000000003
 11
2.273736754432321e-13
 21
44.00000000000071
 72
    1
 10
2.273736754432321e-13
 20
44.00000000000071
 11
24
 21
44
 72
    1
 10
24
 20
44
 11
24
 21
22.00000000000004
 97
    0
 75
    0
 76
    1
 52
0
 41
0.5
 77
    0
 78
    0
 98
    0
  0
HATCH
  5
97
100
AcDbEntity
  8
brick
  6
ByLayer
 62
  256
370
   -1
100
AcDbHatch
 10
0
 20
0
 30
0
210
0
220
0
230
1
  2
gost_ferroconcrete
 70
    0
 71
    0
 91
    1
 92
    0
 93
    4
 72
    1
 10
19
 20
51.99999999999982
 11
19
 21
43.99999999999985
 72
    1
 10
19
 20
43.99999999999985
 11
44
 21
43.99999999999985
 72
    1
 10
44
 20
43.99999999999985
 11
44
 21
51.99999999999982
 72
    1
 10
44
 20
51.99999999999982
 11
19
 21
51.99999999999982
 97
    0
 75
    0
 76
    1
 52
0
 41
1
 77
    0
 78
    0
 98
    0
  0
HATCH
  5
98
100
AcDbEntity
  8
muerlat
  6
ByLayer
 62
  256
370
   -1
100
AcDbHatch
 10
0
 20
0
 30
0
210
0
220
0
230
1
  2
gost_wood
 70
    0
 71
    0
 91
    1
 92
    0
 93
    4
 72
    1
 10
24
 20
51.95964912288112
 11
39
 21
51.95964912288112
 72
    1
 10
39
 20
51.95964912288112
 11
39
 21
66.95964912288113
 72
    1
 10
39
 20
66.95964912288113
 11
24
 21
66.95964912288113
 72
    1
 10
24
 20
66.95964912288113
 11
24
 21
51.95964912288112
 97
    0
 75
    0
 76
    1
 52
0
 41
0.5
 77
    0
 78
    0
 98
    0
  0
HATCH
  5
99
100
AcDbEntity
  8
u-block
  6
ByLayer
 62
  256
370
   -1
100
AcDbHatch
 10
0
 20
0
 30
0
210
0
220
0
230
1
  2
gost_ceramics
 70
    0
 71
    0
 91
    1
 92
    0
 93
    8
 72
    1
 10
10
 20
0
 11
40
 21
0
 72
    1
 10
40
 20
0
 11
40
 21
20
 72
    1
 10
40
 20
20
 11
33.00000000000011
 21
20
 72
    1
 10
33.00000000000011
 20
20
 11
31.99999999999989
 21
6.000000000000014
 72
    1
 10
31.99999999999989
 20
6.000000000000014
 11
15.99999999999994
 21
6.000000000000014
 72
    1
 10
15.99999999999994
 20
6.000000000000014
 11
15
 21
20
 72
    1
 10
15
 20
20
 11
10
 21
20
 72
    1
 10
10
 20
20
 11
10
 21
0
 97
    0
 75
    0
 76
    1
 52
0
 41
1
 77
    0
 78
    0
 98
    0
  0
HATCH
  5
9A
100
AcDbEntity
  8
concrete
  6
ByLayer
 62
  256
370
   -1
100
AcDbHatch
 10
0
 20
0
 30
0
210
0
220
0
230
1
  2
gost_concrete
 70
    0
 71
    0
 91
    1
 92
    0
 93
    4
 72
    1
 10
15
 20
20
 11
33.00000000000011
 21
20
 72
    1
 10
33.00000000000011
 20
20
 11
31.99999999999989
 21
6.000000000000014
 72
    1
 10
31.99999999999989
 20
6.000000000000014
 11
15.99999999999994
 21
6.000000000000014
 72
    1
 10
15.99999999999994
 20
6.000000000000014
 11
15
 21
20
 97
    0
 75
    0
 76
    1
 52
1.570796326794897
 41
0.5
 77
    0
 78
    0
 98
    0
  0
HATCH
  5
9B
100
AcDbEntity
  8
brick
  6
ByLayer
 62
  256
370
   -1
100
AcDbHatch
 10
0
 20
0
 30
0
210
0
220
0
230
1
  2
gost_ferroconcrete
 70
    0
 71
    0
 91
    1
 92
    0
 93
    4
 72
    1
 10
56.99999999999989
 20
39.00000000000006
 11
56.99999999999875
 21
62.00000000000003
 72
    1
 10
56.99999999999875
 20
62.00000000000003
 11
44.49999999999903
 21
62.00000000000003
 72
    1
 10
44.49999999999903
 20
62.00000000000003
 11
44.50000000000017
 21
39.00000000000006
 72
    1
 10
44.50000000000017
 20
39.00000000000006
 11
56.99999999999989
 21
39.00000000000006
 97
    0
 75
    0
 76
    1
 52
0
 41
1
 77
    0
 78
    0
 98
    0
  0
HATCH
  5
9C
100
AcDbEntity
  8
face
  6
ByLayer
 62
  256
370
   -1
100
AcDbHatch
 10
0
 20
0
 30
0
210
0
220
0
230
1
  2
gost_stone
 70
    0
 71
    0
 91
    1
 92
    0
 93
    8
 72
    1
 10
49
 20
-5
 11
44.50000000000017
 21
-5
 72
    1
 10
44.50000000000017
 20
-5
 11
44.50000000000017
 21
39.00000000000006
 72
    1
 10
44.50000000000017
 20
39.00000000000006
 11
57.00000000000017
 21
39.00000000004418
 72
    1
 10
57.00000000000017
 20
39.00000000004418
 11
57.00000000000017
 21
-5
 72
    1
 10
57.00000000000017
 20
-5
 11
53
 21
-5
 72
    1
 10
53
 20
-5
 11
52
 21
-7
 72
    1
 10
52
 20
-7
 11
50
 21
-3
 72
    1
 10
50
 20
-3
 11
49
 21
-5
 97
    0
 75
    0
 76
    1
 52
1.570796326794897
 41
0.5
 77
    0
 78
    0
 98
    0
  0
HATCH
  5
9D
100
AcDbEntity
  8
wall
  6
ByLayer
 62
  256
370
   -1
100
AcDbHatch
 10
0
 20
0
 30
0
210
0
220
0
230
1
  2
gost_stone
 70
    0
 71
    0
 91
    1
 92
    0
 93
    8
 72
    1
 10
24
 20
-5
 11
10.00000000000028
 21
-5
 72
    1
 10
10.00000000000028
 20
-5
 11
10
 21
0
 72
    1
 10
10
 20
0
 11
40
 21
0
 72
    1
 10
40
 20
0
 11
40.00000000000028
 21
-5
 72
    1
 10
40.00000000000028
 20
-5
 11
28
 21
-5
 72
    1
 10
28
 20
-5
 11
27
 21
-7
 72
    1
 10
27
 20
-7
 11
25
 21
-3
 72
    1
 10
25
 20
-3
 11
24
 21
-5
 97
    0
 75
    0
 76
    1
 52
3.141592653589793
 41
0.5
 77
    0
 78
    0
 98
    0
  0
HATCH
  5
9E
100
AcDbEntity
  8
metal
  6
ByLayer
 62
  256
370
   -1
100
AcDbHatch
 10
0
 20
0
 30
0
210
0
220
0
230
1
  2
SOLID
 70
    1
 71
    0
 91
    1
 92
    0
 93
    1
 72
    2
 10
18.00000000000011
 20
17.60000000000005
 40
0.4000000000000021
 50
0
 51
360
 73
    1
 97
    0
 75
    0
 76
    1
 98
    0
  0
HATCH
  5
9F
100
AcDbEntity
  8
metal
  6
ByLayer
 62
  256
370
   -1
100
AcDbHatch
 10
0
 20
0
 30
0
210
0
220
0
230
1
  2
SOLID
 70
    1
 71
    0
 91
    1
 92
    0
 93
    1
 72
    2
 10
18.00000000000011
 20
8.400000000000034
 40
0.4000000000000004
 50
0
 51
360
 73
    1
 97
    0
 75
    0
 76
    1
 98
    0
  0
HATCH
  5
A0
100
AcDbEntity
  8
metal
  6
ByLayer
 62
  256
370
   -1
100
AcDbHatch
 10
0
 20
0
 30
0
210
0
220
0
230
1
  2
SOLID
 70
    1
 71
    0
 91
    1
 92
    0
 93
    1
 72
    2
 10
30
 20
17.60000000000005
 40
0.4000000000000021
 50
0
 51
360
 73
    1
 97
    0
 75
    0
 76
    1
 98
    0
  0
HATCH
  5
A1
100
AcDbEntity
  8
metal
  6
ByLayer
 62
  256
370
   -1
100
AcDbHatch
 10
0
 20
0
 30
0
210
0
220
0
230
1
  2
SOLID
 70
    1
 71
    0
 91
    1
 92
    0
 93
    1
 72
    2
 10
30
 20
8.400000000000034
 40
0.4000000000000004
 50
0
 51
360
 73
    1
 97
    0
 75
    0
 76
    1
 98
    0
  0
MTEXT
  5
A2
100
AcDbEntity
  8
rozmir
  6
ByLayer
 62
  256
370
   -1
100
AcDbMText
 10
50
 20
90
 30
0
 40
5
 41
120.9722222222235
 71
    8
 72
    1
  1
Розрізи армопоясу ЗБ перекриття
  7
cyrillic_ii
210
0
220
0
230
1
 50
0
 73
    2
 44
1
  0
LINE
  5
A3
100
AcDbEntity
  8
rozmir
  6
ByLayer
 62
  256
370
   -1
100
AcDbLine
 10
-11
 20
90
 11
111
 21
90
  0
LINE
  5
A4
100
AcDbEntity
  8
rozmir
  6
ByLayer
 62
  256
370
   -1
100
AcDbLine
 10
40
 20
80
 11
50
 21
80
  0
MTEXT
  5
A5
100
AcDbEntity
  8
rozmir
  6
ByLayer
 62
  256
370
   -1
100
AcDbMText
 10
40
 20
81
 30
0
 40
4
 41
9.777777777777777
 71
    7
 72
    1
  1
А-А
  7
cyrillic_ii
210
0
220
0
230
1
 50
360
 73
    2
 44
1
  0
LWPOLYLINE
  5
A6
100
AcDbEntity
  8
u-block
  6
CONTINUOUS
 62
    6
370
   50
100
AcDbPolyline
 90
    8
 70
    1
 43
0
 10
10
 20
0
 10
40
 20
0
 10
40
 20
20
 10
33.00000000000011
 20
20
 10
31.99999999999989
 20
6.000000000000014
 10
15.99999999999994
 20
6.000000000000014
 10
15
 20
20
 10
10
 20
20
  0
LWPOLYLINE
  5
A7
100
AcDbEntity
  8
concrete
  6
ByLayer
 62
  256
370
   -1
100
AcDbPolyline
 90
    5
 70
    0
 43
0
 10
15
 20
20
 10
33.00000000000011
 20
20
 10
31.99999999999989
 20
6.000000000000014
 10
15.99999999999994
 20
6.000000000000014
 10
15
 20
20
  0
CIRCLE
  5
A8
100
AcDbEntity
  8
metal
  6
ByLayer
 62
  256
370
   -1
100
AcDbCircle
 10
30
 20
8.400000000000034
 40
0.4000000000000004
  0
CIRCLE
  5
A9
100
AcDbEntity
  8
metal
  6
ByLayer
 62
  256
370
   -1
100
AcDbCircle
 10
30
 20
17.60000000000005
 40
0.4000000000000021
  0
CIRCLE
  5
AA
100
AcDbEntity
  8
metal
  6
ByLayer
 62
  256
370
   -1
100
AcDbCircle
 10
18.00000000000011
 20
8.400000000000034
 40
0.4000000000000004
  0
CIRCLE
  5
AB
100
AcDbEntity
  8
metal
  6
ByLayer
 62
  256
370
   -1
100
AcDbCircle
 10
18.00000000000011
 20
17.60000000000005
 40
0.4000000000000021
  0
LWPOLYLINE
  5
AC
100
AcDbEntity
  8
metal
  6
DASHED2
 62
  256
370
   -1
100
AcDbPolyline
 90
    8
 70
    1
 43
0
 10
29.49999999999989
 20
7.69999999999996
 42
0.414213562373095
 10
30.69999999999993
 20
8.900000000000006
 10
30.69999999999993
 20
17.09999999999997
 42
0.4142135623730864
 10
29.49999999999989
 20
18.29999999999998
 10
18.49999999999994
 20
18.29999999999998
 42
0.414213562373082
 10
17.2999999999999
 20
17.10000000000001
 10
17.2999999999999
 20
8.900000000000015
 42
0.4142135623730802
 10
18.49999999999994
 20
7.700000000000029
  0
LWPOLYLINE
  5
AD
100
AcDbEntity
  8
metal
  6
DASHED2
 62
  256
370
   -1
100
AcDbPolyline
 90
    8
 70
    1
 43
0
 10
29.49999999999989
 20
7.100000000000009
 42
0.4142135623730836
 10
31.29999999999995
 20
8.900000000000006
 10
31.29999999999981
 20
17.10000000000001
 42
0.414213562373106
 10
29.49999999999989
 20
18.90000000000001
 10
18.49999999999994
 20
18.90000000000001
 42
0.414213562373103
 10
16.70000000000016
 20
17.10000000000001
 10
16.70000000000002
 20
8.900000000000041
 42
0.4142135623731009
 10
18.49999999999994
 20
7.10000000000008
  0
LWPOLYLINE
  5
AE
100
AcDbEntity
  8
brick
  6
ByLayer
 62
  256
370
   -1
100
AcDbPolyline
 90
    4
 70
    1
 43
0
 10
44.50000000000017
 20
39.00000000000006
 10
56.99999999999989
 20
39.00000000000006
 10
56.99999999999875
 20
62.00000000000003
 10
44.49999999999903
 20
62.00000000000003
  0
LWPOLYLINE
  5
AF
100
AcDbEntity
  8
wall
  6
CONTINUOUS
 62
   56
420
8421376
370
   50
100
AcDbPolyline
 90
    8
 70
    1
 43
0
 10
40.00000000000028
 20
-5
 10
28
 20
-5
 10
27
 20
-7
 10
25
 20
-3
 10
24
 20
-5
 10
10.00000000000028
 20
-5
 10
10
 20
0
 10
40
 20
0
  0
LWPOLYLINE
  5
B0
100
AcDbEntity
  8
face
  6
CONTINUOUS
 62
   96
420
32768
370
   50
100
AcDbPolyline
 90
    8
 70
    1
 43
0
 10
57.00000000000017
 20
-5
 10
53
 20
-5
 10
52
 20
-7
 10
50
 20
-3
 10
49
 20
-5
 10
44.50000000000017
 20
-5
 10
44.50000000000017
 20
39.00000000000006
 10
57.00000000000017
 20
39.00000000004418
  0
LWPOLYLINE
  5
B1
100
AcDbEntity
  8
brick
  6
ByLayer
 62
  256
370
   -1
100
AcDbPolyline
 90
    4
 70
    1
 43
0
 10
19
 20
43.99999999999985
 10
44
 20
43.99999999999985
 10
44
 20
51.99999999999982
 10
19
 20
51.99999999999982
  0
LWPOLYLINE
  5
B2
100
AcDbEntity
  8
muerlat
  6
ByLayer
 62
  256
370
   -1
100
AcDbPolyline
 90
    4
 70
    1
 43
0
 10
24
 20
51.99999999999982
 10
39
 20
51.99999999999982
 10
39
 20
66.99999999999983
 10
24
 20
66.99999999999983
  0
LWPOLYLINE
  5
B3
100
AcDbEntity
  8
plate
  6
CONTINUOUS
 62
    8
370
   50
100
AcDbPolyline
 90
    8
 70
    1
 43
0
 10
2.273736754432321e-13
 20
44.00000000000071
 10
24
 20
44
 10
24
 20
22.00000000000004
 10
2.273736754432321e-13
 20
22.00000000000075
 10
2.273736754432321e-13
 20
31.00000000000003
 10
-1.999999999999773
 20
32.00000000000003
 10
2.000000000000227
 20
34.00000000000003
 10
2.273736754432321e-13
 20
35.00000000000003
  0
LWPOLYLINE
  5
B4
100
AcDbEntity
  8
epps
  6
ByLayer
 62
  256
370
   -1
100
AcDbPolyline
 90
    4
 70
    1
 43
0
 10
44.49999999999989
 20
43.99999999999997
 10
39.49999999999989
 20
43.99999999999997
 10
39.49999999999989
 20
20
 10
44.49999999999989
 20
20
  0
LWPOLYLINE
  5
B5
100
AcDbEntity
  8
kontur
  6
ByLayer
 62
  256
370
   -1
100
AcDbPolyline
 90
    4
 70
    1
 43
0
 10
23.99999999999977
 20
43.99999999999997
 10
39.49999999999989
 20
43.99999999999997
 10
39.49999999999989
 20
20
 10
23.99999999999977
 20
20
  0
LINE
  5
B6
100
AcDbEntity
  8
rozmir
  6
ByLayer
 62
  256
370
   -1
100
AcDbLine
 10
40
 20
-30
 11
50
 21
-30
  0
LWPOLYLINE
  5
B7
100
AcDbEntity
  8
u-block
  6
CONTINUOUS
 62
    6
370
   50
100
AcDbPolyline
 90
    8
 70
    1
 43
0
 10
10
 20
-110
 10
40
 20
-110
 10
40
 20
-90
 10
33.00000000000011
 20
-90
 10
31.99999999999989
 20
-104
 10
15.99999999999994
 20
-104
 10
15
 20
-90
 10
10
 20
-90
  0
LWPOLYLINE
  5
B8
100
AcDbEntity
  8
concrete
  6
ByLayer
 62
  256
370
   -1
100
AcDbPolyline
 90
    5
 70
    0
 43
0
 10
15
 20
-90
 10
33.00000000000011
 20
-90
 10
31.99999999999989
 20
-104
 10
15.99999999999994
 20
-104
 10
15
 20
-90
  0
CIRCLE
  5
B9
100
AcDbEntity
  8
metal
  6
ByLayer
 62
  256
370
   -1
100
AcDbCircle
 10
30
 20
-101.6
 40
0.4000000000000004
  0
CIRCLE
  5
BA
100
AcDbEntity
  8
metal
  6
ByLayer
 62
  256
370
   -1
100
AcDbCircle
 10
30
 20
-92.39999999999995
 40
0.4000000000000021
  0
CIRCLE
  5
BB
100
AcDbEntity
  8
metal
  6
ByLayer
 62
  256
370
   -1
100
AcDbCircle
 10
18.00000000000011
 20
-101.6
 40
0.4000000000000004
  0
CIRCLE
  5
BC
100
AcDbEntity
  8
metal
  6
ByLayer
 62
  256
370
   -1
100
AcDbCircle
 10
18.00000000000011
 20
-92.39999999999995
 40
0.4000000000000021
  0
LWPOLYLINE
  5
BD
100
AcDbEntity
  8
metal
  6
DASHED2
 62
  256
370
   -1
100
AcDbPolyline
 90
    8
 70
    1
 43
0
 10
29.49999999999989
 20
-102.3
 42
0.4142135623730927
 10
30.69999999999993
 20
-101.1
 10
30.69999999999993
 20
-92.90000000000002
 42
0.4142135623730882
 10
29.49999999999989
 20
-91.70000000000002
 10
18.49999999999994
 20
-91.70000000000003
 42
0.4142135623730786
 10
17.2999999999999
 20
-92.89999999999999
 10
17.2999999999999
 20
-101.1
 42
0.4142135623730776
 10
18.49999999999994
 20
-102.3
  0
LWPOLYLINE
  5
BE
100
AcDbEntity
  8
metal
  6
DASHED2
 62
  256
370
   -1
100
AcDbPolyline
 90
    8
 70
    1
 43
0
 10
29.49999999999989
 20
-102.9
 42
0.4142135623730841
 10
31.29999999999995
 20
-101.1
 10
31.29999999999981
 20
-92.89999999999999
 42
0.414213562373106
 10
29.49999999999989
 20
-91.09999999999999
 10
18.49999999999994
 20
-91.09999999999999
 42
0.4142135623731025
 10
16.70000000000016
 20
-92.89999999999999
 10
16.70000000000002
 20
-101.1
 42
0.4142135623731008
 10
18.49999999999994
 20
-102.8999999999999
  0
LWPOLYLINE
  5
BF
100
AcDbEntity
  8
brick
  6
ByLayer
 62
  256
370
   -1
100
AcDbPolyline
 90
    4
 70
    1
 43
0
 10
44.50000000000017
 20
-70.99999999999994
 10
56.99999999999989
 20
-70.99999999999994
 10
56.99999999999875
 20
-47.99999999999997
 10
44.49999999999903
 20
-47.99999999999997
  0
LWPOLYLINE
  5
C0
100
AcDbEntity
  8
face
  6
CONTINUOUS
 62
   96
420
32768
370
   50
100
AcDbPolyline
 90
    8
 70
    1
 43
0
 10
57.00000000000017
 20
-115
 10
53
 20
-115
 10
52
 20
-117
 10
50
 20
-113
 10
49
 20
-115
 10
44.50000000000017
 20
-115
 10
44.50000000000017
 20
-70.99999999999994
 10
57.00000000000017
 20
-70.99999999995582
  0
LWPOLYLINE
  5
C1
100
AcDbEntity
  8
brick
  6
ByLayer
 62
  256
370
   -1
100
AcDbPolyline
 90
    4
 70
    1
 43
0
 10
19
 20
-66.00000000000014
 10
44
 20
-66.00000000000014
 10
44
 20
-58.00000000000018
 10
19
 20
-58.00000000000018
  0
LWPOLYLINE
  5
C2
100
AcDbEntity
  8
muerlat
  6
ByLayer
 62
  256
370
   -1
100
AcDbPolyline
 90
    4
 70
    1
 43
0
 10
24
 20
-58.00000000000018
 10
39
 20
-58.00000000000018
 10
39
 20
-43.00000000000017
 10
24
 20
-43.00000000000017
  0
LWPOLYLINE
  5
C3
100
AcDbEntity
  8
epps
  6
ByLayer
 62
  256
370
   -1
100
AcDbPolyline
 90
    4
 70
    1
 43
0
 10
44.49999999999989
 20
-66.00000000000003
 10
39.49999999999989
 20
-66.00000000000003
 10
39.49999999999989
 20
-90
 10
44.49999999999989
 20
-90
  0
MTEXT
  5
C4
100
AcDbEntity
  8
rozmir
  6
ByLayer
 62
  256
370
   -1
100
AcDbMText
 10
40
 20
-29
 30
0
 40
4
 41
8.888888888889484
 71
    7
 72
    1
  1
Б-Б
  7
cyrillic_ii
210
0
220
0
230
1
 50
360
 73
    2
 44
1
  0
LWPOLYLINE
  5
C5
100
AcDbEntity
  8
metal
  6
ByLayer
 62
  256
370
   -1
100
AcDbPolyline
 90
    4
 70
    1
 43
0
 10
31.19999999999993
 20
-36.00000000000006
 10
32.7999999999999
 20
-36.00000000000006
 10
32.79999999999961
 20
-85.99999999999999
 10
31.19999999999993
 20
-85.99999999999999
  0
CIRCLE
  5
C6
100
AcDbEntity
  8
metal
  6
ByLayer
 62
  256
370
   -1
100
AcDbCircle
 10
33.19999999999992
 20
24.39999999999998
 40
0.4000000000000021
  0
CIRCLE
  5
C7
100
AcDbEntity
  8
metal
  6
ByLayer
 62
  256
370
   -1
100
AcDbCircle
 10
33.19999999999992
 20
-85.60000000000002
 40
0.4000000000000021
  0
LWPOLYLINE
  5
C8
100
AcDbEntity
  8
metal
  6
ByLayer
 62
  256
370
   -1
100
AcDbPolyline
 90
    4
 70
    1
 43
0
 10
31.19999999999993
 20
73.99999999999994
 10
32.7999999999999
 20
73.99999999999994
 10
32.79999999999961
 20
24.00000000000001
 10
31.19999999999993
 20
24.00000000000001
  0
MTEXT
  5
C9
100
AcDbEntity
  8
rozmir
  6
ByLayer
 62
  256
370
   -1
100
AcDbMText
 10
100
 20
-120
 30
0
 40
4
 41
19.44444444444463
 71
    7
 72
    1
  1
Стр. 22
  7
cyrillic_ii
210
0
220
0
230
1
 50
360
 73
    2
 44
1
  0
LWPOLYLINE
  5
CA
100
AcDbEntity
  8
plate
  6
CONTINUOUS
 62
    8
370
   50
100
AcDbPolyline
 90
    8
 70
    1
 43
0
 10
2.273736754432321e-13
 20
-65.99999999999929
 10
10.00000000000023
 20
-66.00000000000006
 10
10.00000000000023
 20
-88.00000000000001
 10
2.273736754432321e-13
 20
-87.99999999999925
 10
2.273736754432321e-13
 20
-78.99999999999997
 10
-1.999999999999773
 20
-77.99999999999997
 10
2.000000000000227
 20
-75.99999999999997
 10
2.273736754432321e-13
 20
-74.99999999999997
  0
LWPOLYLINE
  5
CB
100
AcDbEntity
  8
kontur
  6
ByLayer
 62
  256
370
   -1
100
AcDbPolyline
 90
    4
 70
    1
 43
0
 10
10
 20
-66.00000000000003
 10
39.49999999999989
 20
-66.00000000000003
 10
39.49999999999989
 20
-90
 10
10
 20
-90
  0
CIRCLE
  5
CC
100
AcDbEntity
  8
metal
  6
ByLayer
 62
  256
370
   -1
100
AcDbCircle
 10
33.19999999999992
 20
-70.40000000000001
 40
0.4000000000000021
  0
CIRCLE
  5
CD
100
AcDbEntity
  8
metal
  6
ByLayer
 62
  256
370
   -1
100
AcDbCircle
 10
33.19999999999992
 20
39.59999999999999
 40
0.4000000000000021
  0
LWPOLYLINE
  5
CE
100
AcDbEntity
  8
metal
  6
DASHED2
 62
  256
370
   -1
100
AcDbPolyline
 90
    8
 70
    1
 43
0
 10
32.69999999999989
 20
-86.30000000000004
 42
0.414213562373095
 10
33.89999999999993
 20
-85.09999999999999
 10
33.89999999999993
 20
-70.90000000000002
 42
0.4142135623730899
 10
32.69999999999989
 20
-69.70000000000002
 10
14.79999999999995
 20
-69.70000000000002
 42
0.4142135623730803
 10
13.5999999999999
 20
-70.89999999999999
 10
13.59999999999991
 20
-85.09999999999998
 42
0.4142135623730794
 10
14.79999999999995
 20
-86.29999999999997
  0
LWPOLYLINE
  5
CF
100
AcDbEntity
  8
metal
  6
DASHED2
 62
  256
370
   -1
100
AcDbPolyline
 90
    8
 70
    1
 43
0
 10
32.69999999999989
 20
-86.90000000000001
 42
0.4142135623730857
 10
34.49999999999996
 20
-85.09999999999999
 10
34.49999999999982
 20
-70.89999999999999
 42
0.4142135623731044
 10
32.69999999999989
 20
-69.10000000000001
 10
14.79999999999995
 20
-69.09999999999999
 42
0.4142135623731031
 10
13.00000000000016
 20
-70.89999999999999
 10
13.00000000000002
 20
-85.09999999999997
 42
0.4142135623731004
 10
14.79999999999995
 20
-86.89999999999992
  0
CIRCLE
  5
D0
100
AcDbEntity
  8
metal
  6
ByLayer
 62
  256
370
   -1
100
AcDbCircle
 10
14.29999999999993
 20
-70.40000000000002
 40
0.4000000000000021
  0
CIRCLE
  5
D1
100
AcDbEntity
  8
metal
  6
ByLayer
 62
  256
370
   -1
100
AcDbCircle
 10
14.29999999999993
 20
-85.60000000000002
 40
0.4000000000000021
  0
CIRCLE
  5
D2
100
AcDbEntity
  8
metal
  6
ByLayer
 62
  256
370
   -1
100
AcDbCircle
 10
100.1999999999999
 20
-85.60000000000002
 40
0.4000000000000021
  0
CIRCLE
  5
D3
100
AcDbEntity
  8
metal
  6
ByLayer
 62
  256
370
   -1
100
AcDbCircle
 10
100.1999999999999
 20
-70.40000000000001
 40
0.4000000000000021
  0
LWPOLYLINE
  5
D4
100
AcDbEntity
  8
metal
  6
ByLayer
 62
  256
370
   -1
100
AcDbPolyline
 90
    8
 70
    1
 43
0
 10
99.69999999999989
 20
-86.30000000000004
 42
0.414213562373095
 10
100.8999999999999
 20
-85.09999999999999
 10
100.8999999999999
 20
-70.90000000000002
 42
0.4142135623730881
 10
99.69999999999989
 20
-69.7
 10
81.79999999999994
 20
-69.70000000000003
 42
0.4142135623730812
 10
80.59999999999989
 20
-70.89999999999999
 10
80.59999999999989
 20
-85.09999999999998
 42
0.4142135623730813
 10
81.79999999999994
 20
-86.29999999999997
  0
LWPOLYLINE
  5
D5
100
AcDbEntity
  8
metal
  6
ByLayer
 62
  256
370
   -1
100
AcDbPolyline
 90
    8
 70
    1
 43
0
 10
99.69999999999989
 20
-86.89999999999999
 42
0.4142135623730833
 10
101.5
 20
-85.09999999999999
 10
101.4999999999998
 20
-70.89999999999999
 42
0.4142135623731065
 10
99.69999999999989
 20
-69.09999999999999
 10
81.79999999999994
 20
-69.09999999999999
 42
0.4142135623731019
 10
80.00000000000016
 20
-70.89999999999999
 10
80.00000000000001
 20
-85.09999999999997
 42
0.4142135623730996
 10
81.79999999999994
 20
-86.89999999999992
  0
CIRCLE
  5
D6
100
AcDbEntity
  8
metal
  6
ByLayer
 62
  256
370
   -1
100
AcDbCircle
 10
81.29999999999993
 20
-70.40000000000002
 40
0.4000000000000021
  0
CIRCLE
  5
D7
100
AcDbEntity
  8
metal
  6
ByLayer
 62
  256
370
   -1
100
AcDbCircle
 10
81.29999999999993
 20
-85.60000000000002
 40
0.4000000000000021
  0
DIMENSION
  5
D8
100
AcDbEntity
  8
rozmir
  6
ByLayer
 62
  256
370
   -1
100
AcDbDimension
  2
*D1
 10
110
 20
-86.00000000000003
 30
0
 11
107
 21
-78.00000000000001
 31
0
 70
   32
 71
    5
 72
    0
  3
Standard
 53
0
210
0
220
0
230
1
100
AcDbAlignedDimension
 13
100.1999999999999
 23
-70
 33
0
 14
100.1999999999999
 24
-86.00000000000003
 34
0
 50
90
100
AcDbRotatedDimension
  0
DIMENSION
  5
D9
100
AcDbEntity
  8
rozmir
  6
ByLayer
 62
  256
370
   -1
100
AcDbDimension
  2
*D2
 10
75
 20
-86.89999999999992
 30
0
 11
72
 21
-77.99999999999996
 31
0
 70
   32
 71
    5
 72
    0
  3
Standard
 53
0
210
0
220
0
230
1
100
AcDbAlignedDimension
 13
81.79999999999994
 23
-69.09999999999999
 33
0
 14
81.79999999999994
 24
-86.89999999999992
 34
0
 50
90
100
AcDbRotatedDimension
  0
DIMENSION
  5
DA
100
AcDbEntity
  8
rozmir
  6
ByLayer
 62
  256
370
   -1
100
AcDbDimension
  2
*D3
 10
101
 20
-95
 30
0
 11
90.75000000000009
 21
-92
 31
0
 70
   32
 71
    5
 72
    0
  3
Standard
 53
0
210
0
220
0
230
1
100
AcDbAlignedDimension
 13
80.00000000000016
 23
-85.09999999999999
 33
0
 14
101.5
 24
-85.10000000000001
 34
0
100
AcDbRotatedDimension
  0
DIMENSION
  5
DB
100
AcDbEntity
  8
rozmir
  6
ByLayer
 62
  256
370
   -1
100
AcDbDimension
  2
*D4
 10
100.5999999999999
 20
-65
 30
0
 11
90.74999999999993
 21
-62
 31
0
 70
   32
 71
    5
 72
    0
  3
Standard
 53
0
210
0
220
0
230
1
100
AcDbAlignedDimension
 13
80.89999999999992
 23
-70.40000000000002
 33
0
 14
100.5999999999999
 24
-70.40000000000001
 34
0
100
AcDbRotatedDimension
  0
ENDSEC
  0
SECTION
  2
OBJECTS
  0
DICTIONARY
  5
C
330
0
100
AcDbDictionary
281
    1
  3
ACAD_GROUP
350
D
  0
DICTIONARY
  5
D
330
C
100
AcDbDictionary
281
    1
  0
ENDSEC
  0
EOF
