999
dxfrw 0.6.3
  0
SECTION
  2
HEADER
  9
$ACADVER
  1
AC1021
  9
$DWGCODEPAGE
  3
ANSI_1252
  9
$INSBASE
 10
0
 20
0
 30
0
  9
$EXTMIN
 10
-80
 20
-15
 30
0
  9
$EXTMAX
 10
612
 20
266
 30
0
  9
$LIMMIN
 10
0
 20
0
  9
$LIMMAX
 10
420
 20
297
  9
$ORTHOMODE
 70
    0
  9
$REGENMODE
 70
    1
  9
$FILLMODE
 70
    1
  9
$QTEXTMODE
 70
    0
  9
$MIRRTEXT
 70
    0
  9
$LTSCALE
 40
1
  9
$ATTMODE
 70
    0
  9
$TEXTSIZE
 40
2.5
  9
$TRACEWID
 40
15.68
  9
$TEXTSTYLE
  7
STANDARD
  9
$CLAYER
  8
rozmir_lyst
  9
$CELTYPE
  6
BYLAYER
  9
$CECOLOR
 62
  256
  9
$CELTSCALE
 40
1
  9
$DISPSILH
 70
    0
  9
$DIMSCALE
 40
1
  9
$DIMASZ
 40
5
  9
$DIMEXO
 40
1
  9
$DIMDLI
 40
3.75
  9
$DIMRND
 40
0
  9
$DIMDLE
 40
0
  9
$DIMEXE
 40
2
  9
$DIMTP
 40
0
  9
$DIMTM
 40
0
  9
$DIMTXT
 40
4
  9
$DIMCEN
 40
2.5
  9
$DIMTSZ
 40
0
  9
$DIMTOL
 70
    0
  9
$DIMLIM
 70
    0
  9
$DIMTIH
 70
    0
  9
$DIMTOH
 70
    0
  9
$DIMSE1
 70
    0
  9
$DIMSE2
 70
    0
  9
$DIMTAD
 70
    1
  9
$DIMZIN
 70
    8
  9
$DIMBLK
  1

  9
$DIMASO
 70
    1
  9
$DIMSHO
 70
    1
  9
$DIMPOST
  1

  9
$DIMAPOST
  1

  9
$DIMALT
 70
    0
  9
$DIMALTD
 70
    3
  9
$DIMALTF
 40
0.03937
  9
$DIMLFAC
 40
1
  9
$DIMTOFL
 70
    1
  9
$DIMTVP
 40
0
  9
$DIMTIX
 70
    0
  9
$DIMSOXD
 70
    0
  9
$DIMSAH
 70
    0
  9
$DIMBLK1
  1

  9
$DIMBLK2
  1

  9
$DIMSTYLE
  2
STANDARD
  9
$DIMCLRD
 70
    0
  9
$DIMCLRE
 70
    0
  9
$DIMCLRT
 70
  256
  9
$DIMTFAC
 40
1
  9
$DIMGAP
 40
1
  9
$DIMJUST
 70
    0
  9
$DIMSD1
 70
    0
  9
$DIMSD2
 70
    0
  9
$DIMTOLJ
 70
    0
  9
$DIMTZIN
 70
    8
  9
$DIMALTZ
 70
    0
  9
$DIMALTTZ
 70
    0
  9
$DIMUPT
 70
    0
  9
$DIMDEC
 70
    1
  9
$DIMTDEC
 70
    2
  9
$DIMALTU
 70
    2
  9
$DIMALTTD
 70
    3
  9
$DIMTXSTY
  7
standard
  9
$DIMAUNIT
 70
    0
  9
$DIMADEC
 70
    0
  9
$DIMALTRND
 40
0
  9
$DIMAZIN
 70
    0
  9
$DIMDSEP
 70
   44
  9
$DIMATFIT
 70
    3
  9
$DIMFRAC
 70
    0
  9
$DIMLDRBLK
  1
STANDARD
  9
$DIMLUNIT
 70
    2
  9
$DIMLWD
 70
   -2
  9
$DIMLWE
 70
   -2
  9
$DIMTMOVE
 70
    0
  9
$DIMFXL
 40
1
  9
$DIMFXLON
 70
    0
  9
$DIMJOGANG
 40
0.7854
  9
$DIMTFILL
 70
    0
  9
$DIMTFILLCLR
 70
    0
  9
$DIMARCSYM
 70
    0
  9
$DIMLTYPE
  6

  9
$DIMLTEX1
  6

  9
$DIMLTEX2
  6

  9
$LUNITS
 70
    2
  9
$LUPREC
 70
    2
  9
$SKETCHINC
 40
1
  9
$FILLETRAD
 40
0
  9
$AUNITS
 70
    0
  9
$AUPREC
 70
    2
  9
$MENU
  1
.
  9
$ELEVATION
 40
0
  9
$PELEVATION
 40
0
  9
$THICKNESS
 40
0
  9
$LIMCHECK
 70
    0
  9
$CHAMFERA
 40
0
  9
$CHAMFERB
 40
0
  9
$CHAMFERC
 40
0
  9
$CHAMFERD
 40
0
  9
$SKPOLY
 70
    0
  9
$USRTIMER
 70
    1
  9
$ANGBASE
 50
0
  9
$ANGDIR
 70
    0
  9
$PDMODE
 70
   34
  9
$PDSIZE
 40
0
  9
$PLINEWID
 40
0
  9
$SPLFRAME
 70
    0
  9
$SPLINETYPE
 70
    2
  9
$SPLINESEGS
 70
    8
  9
$HANDSEED
  5
20000
  9
$SURFTAB1
 70
    6
  9
$SURFTAB2
 70
    6
  9
$SURFTYPE
 70
    6
  9
$SURFU
 70
    6
  9
$SURFV
 70
    6
  9
$UCSBASE
  2

  9
$UCSNAME
  2

  9
$UCSORG
 10
0
 20
0
 30
0
  9
$UCSXDIR
 10
1
 20
0
 30
0
  9
$UCSYDIR
 10
0
 20
1
 30
0
  9
$UCSORTHOREF
  2

  9
$UCSORTHOVIEW
 70
    0
  9
$UCSORGTOP
 10
0
 20
0
 30
0
  9
$UCSORGBOTTOM
 10
0
 20
0
 30
0
  9
$UCSORGLEFT
 10
0
 20
0
 30
0
  9
$UCSORGRIGHT
 10
0
 20
0
 30
0
  9
$UCSORGFRONT
 10
0
 20
0
 30
0
  9
$UCSORGBACK
 10
0
 20
0
 30
0
  9
$PUCSBASE
  2

  9
$PUCSNAME
  2

  9
$PUCSORG
 10
0
 20
0
 30
0
  9
$PUCSXDIR
 10
1
 20
0
 30
0
  9
$PUCSYDIR
 10
0
 20
1
 30
0
  9
$PUCSORTHOREF
  2

  9
$PUCSORTHOVIEW
 70
    0
  9
$PUCSORGTOP
 10
0
 20
0
 30
0
  9
$PUCSORGBOTTOM
 10
0
 20
0
 30
0
  9
$PUCSORGLEFT
 10
0
 20
0
 30
0
  9
$PUCSORGRIGHT
 10
0
 20
0
 30
0
  9
$PUCSORGFRONT
 10
0
 20
0
 30
0
  9
$PUCSORGBACK
 10
0
 20
0
 30
0
  9
$USERI1
 70
    0
  9
$USERI2
 70
    0
  9
$USERI3
 70
    0
  9
$USERI4
 70
    0
  9
$USERI5
 70
    0
  9
$USERR1
 40
0
  9
$USERR2
 40
0
  9
$USERR3
 40
0
  9
$USERR4
 40
0
  9
$USERR5
 40
0
  9
$WORLDVIEW
 70
    1
  9
$SHADEDGE
 70
    3
  9
$SHADEDIF
 70
   70
  9
$TILEMODE
 70
    1
  9
$MAXACTVP
 70
   64
  9
$PINSBASE
 10
7.1
 20
13
 30
0
  9
$PLIMCHECK
 70
    0
  9
$PEXTMIN
 10
0
 20
0
 30
0
  9
$PEXTMAX
 10
0
 20
0
 30
0
  9
$GRIDMODE
 70
    1
  9
$SNAPSTYLE
 70
    0
  9
$GRIDUNIT
 10
0
 20
0
  9
$PLIMMIN
 10
0
 20
0
  9
$PLIMMAX
 10
29.7
 20
21
  9
$UNITMODE
 70
    0
  9
$VISRETAIN
 70
    1
  9
$PLINEGEN
 70
    0
  9
$PSLTSCALE
 70
    1
  9
$TREEDEPTH
 70
 3020
  9
$CMLSTYLE
  2
Standard
  9
$CMLJUST
 70
    0
  9
$CMLSCALE
 40
20
  9
$PROXYGRAPHICS
 70
    1
  9
$MEASUREMENT
 70
    1
  9
$CELWEIGHT
370
   -1
  9
$ENDCAPS
280
    0
  9
$JOINSTYLE
280
    0
  9
$LWDISPLAY
290
    0
  9
$INSUNITS
 70
    5
  9
$HYPERLINKBASE
  1

  9
$STYLESHEET
  1

  9
$XEDIT
290
    1
  9
$CEPSNTYPE
380
    0
  9
$PSTYLEMODE
290
    1
  9
$EXTNAMES
290
    1
  9
$PSVPSCALE
 40
0.125
  9
$OLESTARTUP
290
    0
  9
$SORTENTS
280
  127
  9
$INDEXCTL
280
    0
  9
$HIDETEXT
280
    1
  9
$XCLIPFRAME
290
    0
  9
$HALOGAP
280
    0
  9
$OBSCOLOR
 70
  257
  9
$OBSLTYPE
280
    0
  9
$INTERSECTIONDISPLAY
280
    0
  9
$INTERSECTIONCOLOR
 70
  257
  9
$DIMASSOC
280
    1
  9
$PROJECTNAME
  1

  9
$CAMERADISPLAY
290
    0
  9
$LENSLENGTH
 40
50
  9
$CAMERAHEIGHT
 40
0
  9
$STEPSPERSEC
 40
2
  9
$STEPSIZE
 40
50
  9
$3DDWFPREC
 40
2
  9
$PSOLWIDTH
 40
5
  9
$PSOLHEIGHT
 40
80
  9
$LOFTANG1
 40
1.570796326794897
  9
$LOFTANG2
 40
1.570796326794897
  9
$LOFTMAG1
 40
0
  9
$LOFTMAG2
 40
0
  9
$LOFTPARAM
 70
    7
  9
$LOFTNORMALS
280
    1
  9
$LATITUDE
 40
1
  9
$LONGITUDE
 40
1
  9
$NORTHDIRECTION
 40
0
  9
$TIMEZONE
 70
-8000
  9
$LIGHTGLYPHDISPLAY
280
    1
  9
$TILEMODELIGHTSYNCH
280
    1
  9
$SOLIDHIST
280
    1
  9
$SHOWHIST
280
    1
  9
$DWFFRAME
280
    2
  9
$DGNFRAME
280
    0
  9
$REALWORLDSCALE
290
    1
  9
$INTERFERECOLOR
 62
    1
  9
$CSHADOW
280
    0
  9
$SHADOWPLANELOCATION
 40
0
  0
ENDSEC
  0
SECTION
  2
CLASSES
  0
ENDSEC
  0
SECTION
  2
TABLES
  0
TABLE
  2
VPORT
  5
8
330
0
100
AcDbSymbolTable
 70
    1
  0
VPORT
  5
31
330
2
100
AcDbSymbolTableRecord
100
AcDbViewportTableRecord
  2
*ACTIVE
 70
    0
 10
0
 20
0
 11
1
 21
1
 12
308.4274914089347
 22
151.0034364261168
 13
0
 23
0
 14
10
 24
10
 15
10
 25
10
 16
0
 26
0
 36
1
 17
0
 27
0
 37
0
 40
352.8962199312715
 41
1.987870619946092
 42
50
 43
0
 44
0
 50
0
 51
0
 71
    0
 72
  100
 73
    1
 74
    3
 75
    0
 76
    1
 77
    0
 78
    0
281
    0
 65
    1
110
0
120
0
130
0
111
1
121
0
131
0
112
0
122
1
132
0
 79
    0
146
0
348
10020
 60
    7
 61
    5
292
1
282
    1
141
0
142
0
 63
  250
421
3358443
  0
ENDTAB
  0
TABLE
  2
LTYPE
  5
5
330
0
100
AcDbSymbolTable
 70
    4
  0
LTYPE
  5
14
330
5
100
AcDbSymbolTableRecord
100
AcDbLinetypeTableRecord
  2
ByBlock
 70
    0
  3

 72
   65
 73
    0
 40
0
  0
LTYPE
  5
15
330
5
100
AcDbSymbolTableRecord
100
AcDbLinetypeTableRecord
  2
ByLayer
 70
    0
  3

 72
   65
 73
    0
 40
0
  0
LTYPE
  5
16
330
5
100
AcDbSymbolTableRecord
100
AcDbLinetypeTableRecord
  2
Continuous
 70
    0
  3
Solid line
 72
   65
 73
    0
 40
0
  0
LTYPE
  5
32
330
5
100
AcDbSymbolTableRecord
100
AcDbLinetypeTableRecord
  2
DOT
 70
    0
  3
Dot . . . . . . . . . . . . . . . . . . . . . .
 72
   65
 73
    2
 40
6.35
 49
0
 74
    0
 49
-6.35
 74
    0
  0
LTYPE
  5
33
330
5
100
AcDbSymbolTableRecord
100
AcDbLinetypeTableRecord
  2
DOTTINY
 70
    0
  3
Dot (.15x) .....................................
 72
   65
 73
    2
 40
0.9525
 49
0
 74
    0
 49
-0.9525
 74
    0
  0
LTYPE
  5
34
330
5
100
AcDbSymbolTableRecord
100
AcDbLinetypeTableRecord
  2
DOT2
 70
    0
  3
Dot (.5x) .....................................
 72
   65
 73
    2
 40
3.175
 49
0
 74
    0
 49
-3.175
 74
    0
  0
LTYPE
  5
35
330
5
100
AcDbSymbolTableRecord
100
AcDbLinetypeTableRecord
  2
DOTX2
 70
    0
  3
Dot (2x) .  .  .  .  .  .  .  .  .  .  .  .  .
 72
   65
 73
    2
 40
12.7
 49
0
 74
    0
 49
-12.7
 74
    0
  0
LTYPE
  5
36
330
5
100
AcDbSymbolTableRecord
100
AcDbLinetypeTableRecord
  2
DASHED
 70
    0
  3
Dashed _ _ _ _ _ _ _ _ _ _ _ _ _ _ _ _ _
 72
   65
 73
    2
 40
19.05
 49
12.7
 74
    0
 49
-6.35
 74
    0
  0
LTYPE
  5
37
330
5
100
AcDbSymbolTableRecord
100
AcDbLinetypeTableRecord
  2
DASHEDTINY
 70
    0
  3
Dashed (.15x) _ _ _ _ _ _ _ _ _ _ _ _ _ _ _ _ _
 72
   65
 73
    2
 40
2.8575
 49
1.905
 74
    0
 49
-0.9525
 74
    0
  0
LTYPE
  5
38
330
5
100
AcDbSymbolTableRecord
100
AcDbLinetypeTableRecord
  2
DASHED2
 70
    0
  3
Dashed (.5x) _ _ _ _ _ _ _ _ _ _ _ _ _ _ _ _ _
 72
   65
 73
    2
 40
9.524999999999999
 49
6.35
 74
    0
 49
-3.175
 74
    0
  0
LTYPE
  5
39
330
5
100
AcDbSymbolTableRecord
100
AcDbLinetypeTableRecord
  2
DASHEDX2
 70
    0
  3
Dashed (2x) ____  ____  ____  ____  ____  ___
 72
   65
 73
    2
 40
38.09999999999999
 49
25.4
 74
    0
 49
-12.7
 74
    0
  0
LTYPE
  5
3A
330
5
100
AcDbSymbolTableRecord
100
AcDbLinetypeTableRecord
  2
DASHDOT
 70
    0
  3
Dash dot __ . __ . __ . __ . __ . __ . __ . __
 72
   65
 73
    4
 40
25.4
 49
12.7
 74
    0
 49
-6.35
 74
    0
 49
0
 74
    0
 49
-6.35
 74
    0
  0
LTYPE
  5
3B
330
5
100
AcDbSymbolTableRecord
100
AcDbLinetypeTableRecord
  2
DASHDOTTINY
 70
    0
  3
Dash dot (.15x) _._._._._._._._._._._._._._._.
 72
   65
 73
    4
 40
3.81
 49
1.905
 74
    0
 49
-0.9525
 74
    0
 49
0
 74
    0
 49
-0.9525
 74
    0
  0
LTYPE
  5
3C
330
5
100
AcDbSymbolTableRecord
100
AcDbLinetypeTableRecord
  2
DASHDOT2
 70
    0
  3
Dash dot (.5x) _._._._._._._._._._._._._._._.
 72
   65
 73
    4
 40
12.7
 49
6.35
 74
    0
 49
-3.175
 74
    0
 49
0
 74
    0
 49
-3.175
 74
    0
  0
LTYPE
  5
3D
330
5
100
AcDbSymbolTableRecord
100
AcDbLinetypeTableRecord
  2
DASHDOTX2
 70
    0
  3
Dash dot (2x) ____  .  ____  .  ____  .  ___
 72
   65
 73
    4
 40
50.8
 49
25.4
 74
    0
 49
-12.7
 74
    0
 49
0
 74
    0
 49
-12.7
 74
    0
  0
LTYPE
  5
3E
330
5
100
AcDbSymbolTableRecord
100
AcDbLinetypeTableRecord
  2
DIVIDE
 70
    0
  3
Divide ____ . . ____ . . ____ . . ____ . . ____
 72
   65
 73
    6
 40
31.75
 49
12.7
 74
    0
 49
-6.35
 74
    0
 49
0
 74
    0
 49
-6.35
 74
    0
 49
0
 74
    0
 49
-6.35
 74
    0
  0
LTYPE
  5
3F
330
5
100
AcDbSymbolTableRecord
100
AcDbLinetypeTableRecord
  2
DIVIDETINY
 70
    0
  3
Divide (.15x) __..__..__..__..__..__..__..__.._
 72
   65
 73
    6
 40
4.7625
 49
1.905
 74
    0
 49
-0.9525
 74
    0
 49
0
 74
    0
 49
-0.9525
 74
    0
 49
0
 74
    0
 49
-0.9525
 74
    0
  0
LTYPE
  5
40
330
5
100
AcDbSymbolTableRecord
100
AcDbLinetypeTableRecord
  2
DIVIDE2
 70
    0
  3
Divide (.5x) __..__..__..__..__..__..__..__.._
 72
   65
 73
    6
 40
15.875
 49
6.35
 74
    0
 49
-3.175
 74
    0
 49
0
 74
    0
 49
-3.175
 74
    0
 49
0
 74
    0
 49
-3.175
 74
    0
  0
LTYPE
  5
41
330
5
100
AcDbSymbolTableRecord
100
AcDbLinetypeTableRecord
  2
DIVIDEX2
 70
    0
  3
Divide (2x) ________  .  .  ________  .  .  _
 72
   65
 73
    6
 40
63.5
 49
25.4
 74
    0
 49
-12.7
 74
    0
 49
0
 74
    0
 49
-12.7
 74
    0
 49
0
 74
    0
 49
-12.7
 74
    0
  0
LTYPE
  5
42
330
5
100
AcDbSymbolTableRecord
100
AcDbLinetypeTableRecord
  2
BORDER
 70
    0
  3
Border __ __ . __ __ . __ __ . __ __ . __ __ .
 72
   65
 73
    6
 40
44.45
 49
12.7
 74
    0
 49
-6.35
 74
    0
 49
12.7
 74
    0
 49
-6.35
 74
    0
 49
0
 74
    0
 49
-6.35
 74
    0
  0
LTYPE
  5
43
330
5
100
AcDbSymbolTableRecord
100
AcDbLinetypeTableRecord
  2
BORDERTINY
 70
    0
  3
Border (.15x) __.__.__.__.__.__.__.__.__.__.__.
 72
   65
 73
    6
 40
6.6675
 49
1.905
 74
    0
 49
-0.9525
 74
    0
 49
1.905
 74
    0
 49
-0.9525
 74
    0
 49
0
 74
    0
 49
-0.9525
 74
    0
  0
LTYPE
  5
44
330
5
100
AcDbSymbolTableRecord
100
AcDbLinetypeTableRecord
  2
BORDER2
 70
    0
  3
Border (.5x) __.__.__.__.__.__.__.__.__.__.__.
 72
   65
 73
    6
 40
22.225
 49
6.35
 74
    0
 49
-3.175
 74
    0
 49
6.35
 74
    0
 49
-3.175
 74
    0
 49
0
 74
    0
 49
-3.175
 74
    0
  0
LTYPE
  5
45
330
5
100
AcDbSymbolTableRecord
100
AcDbLinetypeTableRecord
  2
BORDERX2
 70
    0
  3
Border (2x) ____  ____  .  ____  ____  .  ___
 72
   65
 73
    6
 40
88.89999999999999
 49
25.4
 74
    0
 49
-12.7
 74
    0
 49
25.4
 74
    0
 49
-12.7
 74
    0
 49
0
 74
    0
 49
-12.7
 74
    0
  0
LTYPE
  5
46
330
5
100
AcDbSymbolTableRecord
100
AcDbLinetypeTableRecord
  2
CENTER
 70
    0
  3
Center ____ _ ____ _ ____ _ ____ _ ____ _ ____
 72
   65
 73
    4
 40
50.8
 49
31.75
 74
    0
 49
-6.35
 74
    0
 49
6.35
 74
    0
 49
-6.35
 74
    0
  0
LTYPE
  5
47
330
5
100
AcDbSymbolTableRecord
100
AcDbLinetypeTableRecord
  2
CENTERTINY
 70
    0
  3
Center (.15x) ___ _ ___ _ ___ _ ___ _ ___ _ ___
 72
   65
 73
    4
 40
7.619999999999999
 49
4.7625
 74
    0
 49
-0.9525
 74
    0
 49
0.9525
 74
    0
 49
-0.9525
 74
    0
  0
LTYPE
  5
48
330
5
100
AcDbSymbolTableRecord
100
AcDbLinetypeTableRecord
  2
CENTER2
 70
    0
  3
Center (.5x) ___ _ ___ _ ___ _ ___ _ ___ _ ___
 72
   65
 73
    4
 40
28.575
 49
19.05
 74
    0
 49
-3.175
 74
    0
 49
3.175
 74
    0
 49
-3.175
 74
    0
  0
LTYPE
  5
49
330
5
100
AcDbSymbolTableRecord
100
AcDbLinetypeTableRecord
  2
CENTERX2
 70
    0
  3
Center (2x) ________  __  ________  __  _____
 72
   65
 73
    4
 40
101.6
 49
63.5
 74
    0
 49
-12.7
 74
    0
 49
12.7
 74
    0
 49
-12.7
 74
    0
  0
ENDTAB
  0
TABLE
  2
LAYER
  5
2
330
0
100
AcDbSymbolTable
 70
    1
  0
LAYER
  5
10
330
2
100
AcDbSymbolTableRecord
100
AcDbLayerTableRecord
  2
0
 70
    0
 62
    7
  6
CONTINUOUS
370
   -3
390
F
1001
LibreCad
1070
    1
  0
LAYER
  5
4A
330
2
100
AcDbSymbolTableRecord
100
AcDbLayerTableRecord
  2
lyst
 70
    0
 62
    2
  6
CONTINUOUS
370
   50
390
F
  0
LAYER
  5
4B
330
2
100
AcDbSymbolTableRecord
100
AcDbLayerTableRecord
  2
rozmir_lyst
 70
    0
 62
   56
420
8421376
  6
CONTINUOUS
370
   13
390
F
  0
ENDTAB
  0
TABLE
  2
STYLE
  5
3
330
0
100
AcDbSymbolTable
 70
    3
  0
STYLE
  5
4C
330
2
100
AcDbSymbolTableRecord
100
AcDbTextStyleTableRecord
  2
Standard
 70
    0
 40
0
 41
1
 50
0
 71
    0
 42
1
  3
txt
  4

  0
ENDTAB
  0
TABLE
  2
VIEW
  5
6
330
0
100
AcDbSymbolTable
 70
    0
  0
ENDTAB
  0
TABLE
  2
UCS
  5
7
330
0
100
AcDbSymbolTable
 70
    0
  0
ENDTAB
  0
TABLE
  2
APPID
  5
9
330
0
100
AcDbSymbolTable
 70
    1
  0
APPID
  5
12
330
9
100
AcDbSymbolTableRecord
100
AcDbRegAppTableRecord
  2
ACAD
 70
    0
  0
APPID
  5
4D
330
9
100
AcDbSymbolTableRecord
100
AcDbRegAppTableRecord
  2
LibreCad
 70
    0
  0
ENDTAB
  0
TABLE
  2
DIMSTYLE
  5
A
330
0
100
AcDbSymbolTable
 70
    1
100
AcDbDimStyleTable
 71
    1
  0
DIMSTYLE
105
4E
330
A
100
AcDbSymbolTableRecord
100
AcDbDimStyleTableRecord
  2
Standard
 70
    0
 40
1
 41
5
 42
1
 43
0.38
 44
2
 45
0
 46
0
 47
0
 48
0
 49
1
140
4
141
0.09
142
0
143
25.4
144
1
145
0
146
1
147
1
148
0
 71
    0
 72
    0
 73
    0
 74
    1
 75
    0
 76
    0
 77
    0
 78
    8
 79
    0
170
    0
171
    2
172
    0
173
    0
174
    0
175
    0
176
    0
177
    0
178
  256
179
    0
271
    1
272
    4
273
    2
274
    2
275
    0
276
    0
277
    2
278
   44
279
    0
280
    0
281
    0
282
    0
283
    1
284
    0
285
    0
286
    0
288
    0
289
    3
340
standard
341

371
   -2
372
   -2
  0
ENDTAB
  0
TABLE
  2
BLOCK_RECORD
  5
1
330
0
100
AcDbSymbolTable
 70
    2
  0
BLOCK_RECORD
  5
1F
330
1
100
AcDbSymbolTableRecord
100
AcDbBlockTableRecord
  2
*Model_Space
 70
    0
280
    1
281
    0
  0
BLOCK_RECORD
  5
1E
330
1
100
AcDbSymbolTableRecord
100
AcDbBlockTableRecord
  2
*Paper_Space
 70
    0
280
    1
281
    0
  0
BLOCK_RECORD
  5
4F
330
1
100
AcDbSymbolTableRecord
100
AcDbBlockTableRecord
  2
*D2
 70
    0
280
    1
281
    0
  0
BLOCK_RECORD
  5
52
330
1
100
AcDbSymbolTableRecord
100
AcDbBlockTableRecord
  2
*D15
 70
    0
280
    1
281
    0
  0
BLOCK_RECORD
  5
55
330
1
100
AcDbSymbolTableRecord
100
AcDbBlockTableRecord
  2
*D21
 70
    0
280
    1
281
    0
  0
BLOCK_RECORD
  5
58
330
1
100
AcDbSymbolTableRecord
100
AcDbBlockTableRecord
  2
*D28
 70
    0
280
    1
281
    0
  0
BLOCK_RECORD
  5
5B
330
1
100
AcDbSymbolTableRecord
100
AcDbBlockTableRecord
  2
*D24
 70
    0
280
    1
281
    0
  0
BLOCK_RECORD
  5
5E
330
1
100
AcDbSymbolTableRecord
100
AcDbBlockTableRecord
  2
*D27
 70
    0
280
    1
281
    0
  0
BLOCK_RECORD
  5
61
330
1
100
AcDbSymbolTableRecord
100
AcDbBlockTableRecord
  2
*D25
 70
    0
280
    1
281
    0
  0
BLOCK_RECORD
  5
64
330
1
100
AcDbSymbolTableRecord
100
AcDbBlockTableRecord
  2
*D3
 70
    0
280
    1
281
    0
  0
BLOCK_RECORD
  5
67
330
1
100
AcDbSymbolTableRecord
100
AcDbBlockTableRecord
  2
*D9
 70
    0
280
    1
281
    0
  0
BLOCK_RECORD
  5
6A
330
1
100
AcDbSymbolTableRecord
100
AcDbBlockTableRecord
  2
*D6
 70
    0
280
    1
281
    0
  0
BLOCK_RECORD
  5
6D
330
1
100
AcDbSymbolTableRecord
100
AcDbBlockTableRecord
  2
*D16
 70
    0
280
    1
281
    0
  0
BLOCK_RECORD
  5
70
330
1
100
AcDbSymbolTableRecord
100
AcDbBlockTableRecord
  2
*D12
 70
    0
280
    1
281
    0
  0
BLOCK_RECORD
  5
73
330
1
100
AcDbSymbolTableRecord
100
AcDbBlockTableRecord
  2
*D19
 70
    0
280
    1
281
    0
  0
BLOCK_RECORD
  5
76
330
1
100
AcDbSymbolTableRecord
100
AcDbBlockTableRecord
  2
*D5
 70
    0
280
    1
281
    0
  0
BLOCK_RECORD
  5
79
330
1
100
AcDbSymbolTableRecord
100
AcDbBlockTableRecord
  2
*D17
 70
    0
280
    1
281
    0
  0
BLOCK_RECORD
  5
7C
330
1
100
AcDbSymbolTableRecord
100
AcDbBlockTableRecord
  2
*D4
 70
    0
280
    1
281
    0
  0
BLOCK_RECORD
  5
7F
330
1
100
AcDbSymbolTableRecord
100
AcDbBlockTableRecord
  2
*D20
 70
    0
280
    1
281
    0
  0
BLOCK_RECORD
  5
82
330
1
100
AcDbSymbolTableRecord
100
AcDbBlockTableRecord
  2
*D22
 70
    0
280
    1
281
    0
  0
BLOCK_RECORD
  5
85
330
1
100
AcDbSymbolTableRecord
100
AcDbBlockTableRecord
  2
*D11
 70
    0
280
    1
281
    0
  0
BLOCK_RECORD
  5
88
330
1
100
AcDbSymbolTableRecord
100
AcDbBlockTableRecord
  2
*D7
 70
    0
280
    1
281
    0
  0
BLOCK_RECORD
  5
8B
330
1
100
AcDbSymbolTableRecord
100
AcDbBlockTableRecord
  2
*D1
 70
    0
280
    1
281
    0
  0
BLOCK_RECORD
  5
8E
330
1
100
AcDbSymbolTableRecord
100
AcDbBlockTableRecord
  2
*D14
 70
    0
280
    1
281
    0
  0
BLOCK_RECORD
  5
91
330
1
100
AcDbSymbolTableRecord
100
AcDbBlockTableRecord
  2
*D8
 70
    0
280
    1
281
    0
  0
BLOCK_RECORD
  5
94
330
1
100
AcDbSymbolTableRecord
100
AcDbBlockTableRecord
  2
*D13
 70
    0
280
    1
281
    0
  0
BLOCK_RECORD
  5
97
330
1
100
AcDbSymbolTableRecord
100
AcDbBlockTableRecord
  2
*D26
 70
    0
280
    1
281
    0
  0
BLOCK_RECORD
  5
9A
330
1
100
AcDbSymbolTableRecord
100
AcDbBlockTableRecord
  2
*D23
 70
    0
280
    1
281
    0
  0
BLOCK_RECORD
  5
9D
330
1
100
AcDbSymbolTableRecord
100
AcDbBlockTableRecord
  2
*D10
 70
    0
280
    1
281
    0
  0
BLOCK_RECORD
  5
A0
330
1
100
AcDbSymbolTableRecord
100
AcDbBlockTableRecord
  2
*D18
 70
    0
280
    1
281
    0
  0
ENDTAB
  0
ENDSEC
  0
SECTION
  2
BLOCKS
  0
BLOCK
  5
20
330
1F
100
AcDbEntity
  8
0
100
AcDbBlockBegin
  2
*Model_Space
 70
    0
 10
0
 20
0
 30
0
  3
*Model_Space
  1

  0
ENDBLK
  5
21
330
1F
100
AcDbEntity
  8
0
100
AcDbBlockEnd
  0
BLOCK
  5
1C
330
1B
100
AcDbEntity
  8
0
100
AcDbBlockBegin
  2
*Paper_Space
 70
    0
 10
0
 20
0
 30
0
  3
*Paper_Space
  1

  0
ENDBLK
  5
1D
330
1F
100
AcDbEntity
  8
0
100
AcDbBlockEnd
  0
BLOCK
  5
50
330
4F
100
AcDbEntity
  8
0
100
AcDbBlockBegin
  2
*D2
 70
    1
 10
0
 20
0
  3
*D2
  1

  0
LINE
  5
A3
100
AcDbEntity
  8
rozmir_lyst
  6
ByBlock
 62
    0
370
   -2
100
AcDbLine
 10
125.4
 20
261
 11
250.4
 21
261
  0
SOLID
  5
A4
100
AcDbEntity
  8
rozmir_lyst
  6
ByBlock
 62
    0
370
   -2
100
AcDbTrace
 10
125.4
 20
261
 30
0
 11
130.4
 21
261.8325693155457
 31
0
 12
130.4
 22
260.1674306844543
 32
0
 13
130.4
 23
260.1674306844543
 33
0
  0
SOLID
  5
A5
100
AcDbEntity
  8
rozmir_lyst
  6
ByBlock
 62
    0
370
   -2
100
AcDbTrace
 10
250.4
 20
261
 30
0
 11
245.4
 21
260.1674306844543
 31
0
 12
245.4
 22
261.8325693155457
 32
0
 13
245.4
 23
261.8325693155457
 33
0
  0
MTEXT
  5
A6
100
AcDbEntity
  8
rozmir_lyst
  6
CONTINUOUS
 62
  256
370
   -2
100
AcDbMText
 10
187.9
 20
264
 30
0
 40
4
 41
7.111111111111359
 71
    5
 72
    1
  1
125
  7
standard
210
0
220
0
230
1
 50
0
 73
    2
 44
1
  0
LINE
  5
A7
100
AcDbEntity
  8
rozmir_lyst
  6
ByBlock
 62
    0
370
   -2
100
AcDbLine
 10
125.4
 20
248
 11
125.4
 21
263
  0
LINE
  5
A8
100
AcDbEntity
  8
rozmir_lyst
  6
ByBlock
 62
    0
370
   -2
100
AcDbLine
 10
250.4
 20
248
 11
250.4
 21
263
  0
ENDBLK
  5
51
330
4F
100
AcDbEntity
  8
0
100
AcDbBlockEnd
  0
BLOCK
  5
53
330
52
100
AcDbEntity
  8
0
100
AcDbBlockBegin
  2
*D15
 70
    1
 10
0
 20
0
  3
*D15
  1

  0
LINE
  5
A9
100
AcDbEntity
  8
rozmir_lyst
  6
ByBlock
 62
    0
370
   -2
100
AcDbLine
 10
435
 20
237.5
 11
435
 21
260
  0
SOLID
  5
AA
100
AcDbEntity
  8
rozmir_lyst
  6
ByBlock
 62
    0
370
   -2
100
AcDbTrace
 10
435
 20
247.5
 30
0
 11
435.8325693155457
 21
242.5
 31
0
 12
434.1674306844543
 22
242.5
 32
0
 13
434.1674306844543
 23
242.5
 33
0
  0
SOLID
  5
AB
100
AcDbEntity
  8
rozmir_lyst
  6
ByBlock
 62
    0
370
   -2
100
AcDbTrace
 10
435
 20
250
 30
0
 11
434.1674306844543
 21
255
 31
0
 12
435.8325693155457
 22
255
 32
0
 13
435.8325693155457
 23
255
 33
0
  0
MTEXT
  5
AC
100
AcDbEntity
  8
rozmir_lyst
  6
CONTINUOUS
 62
  256
370
   -2
100
AcDbMText
 10
432
 20
254.2222222222223
 30
0
 40
4
 41
6.444444444444692
 71
    5
 72
    1
  1
2,5
  7
standard
210
0
220
0
230
1
 50
90
 73
    2
 44
1
  0
LINE
  5
AD
100
AcDbEntity
  8
rozmir_lyst
  6
ByBlock
 62
    0
370
   -2
100
AcDbLine
 10
427.8
 20
247.5
 11
437
 21
247.5
  0
LINE
  5
AE
100
AcDbEntity
  8
rozmir_lyst
  6
ByBlock
 62
    0
370
   -2
100
AcDbLine
 10
427.8
 20
250
 11
437
 21
250
  0
ENDBLK
  5
54
330
52
100
AcDbEntity
  8
0
100
AcDbBlockEnd
  0
BLOCK
  5
56
330
55
100
AcDbEntity
  8
0
100
AcDbBlockBegin
  2
*D21
 70
    1
 10
0
 20
0
  3
*D21
  1

  0
LINE
  5
AF
100
AcDbEntity
  8
rozmir_lyst
  6
ByBlock
 62
    0
370
   -2
100
AcDbLine
 10
610
 20
250.9
 11
610
 21
-0.3000000000000002
  0
SOLID
  5
B0
100
AcDbEntity
  8
rozmir_lyst
  6
ByBlock
 62
    0
370
   -2
100
AcDbTrace
 10
610
 20
250.9
 30
0
 11
610.8325693155457
 21
245.9
 31
0
 12
609.1674306844543
 22
245.9
 32
0
 13
609.1674306844543
 23
245.9
 33
0
  0
SOLID
  5
B1
100
AcDbEntity
  8
rozmir_lyst
  6
ByBlock
 62
    0
370
   -2
100
AcDbTrace
 10
610
 20
-0.3000000000000002
 30
0
 11
609.1674306844543
 21
4.7
 31
0
 12
610.8325693155457
 22
4.7
 32
0
 13
610.8325693155457
 23
4.7
 33
0
  0
MTEXT
  5
B2
100
AcDbEntity
  8
rozmir_lyst
  6
CONTINUOUS
 62
  256
370
   -2
100
AcDbMText
 10
607
 20
125.3
 30
0
 40
4
 41
11.77777777777803
 71
    5
 72
    1
  1
251,2
  7
standard
210
0
220
0
230
1
 50
90
 73
    2
 44
1
  0
LINE
  5
B3
100
AcDbEntity
  8
rozmir_lyst
  6
ByBlock
 62
    0
370
   -2
100
AcDbLine
 10
597.9
 20
250.9
 11
612
 21
250.9
  0
LINE
  5
B4
100
AcDbEntity
  8
rozmir_lyst
  6
ByBlock
 62
    0
370
   -2
100
AcDbLine
 10
597.9
 20
-0.3000000000000002
 11
612
 21
-0.3000000000000002
  0
ENDBLK
  5
57
330
55
100
AcDbEntity
  8
0
100
AcDbBlockEnd
  0
BLOCK
  5
59
330
58
100
AcDbEntity
  8
0
100
AcDbBlockBegin
  2
*D28
 70
    1
 10
0
 20
0
  3
*D28
  1

  0
LINE
  5
B5
100
AcDbEntity
  8
rozmir_lyst
  6
ByBlock
 62
    0
370
   -2
100
AcDbLine
 10
605
 20
-10.3
 11
605
 21
12.89999999999998
  0
SOLID
  5
B6
100
AcDbEntity
  8
rozmir_lyst
  6
ByBlock
 62
    0
370
   -2
100
AcDbTrace
 10
605
 20
-0.3000000000000003
 30
0
 11
605.8325693155457
 21
-5.300000000000001
 31
0
 12
604.1674306844543
 22
-5.300000000000001
 32
0
 13
604.1674306844543
 23
-5.300000000000001
 33
0
  0
SOLID
  5
B7
100
AcDbEntity
  8
rozmir_lyst
  6
ByBlock
 62
    0
370
   -2
100
AcDbTrace
 10
605
 20
2.899999999999983
 30
0
 11
604.1674306844543
 21
7.899999999999983
 31
0
 12
605.8325693155457
 22
7.899999999999983
 32
0
 13
605.8325693155457
 23
7.899999999999983
 33
0
  0
MTEXT
  5
B8
100
AcDbEntity
  8
rozmir_lyst
  6
CONTINUOUS
 62
  256
370
   -2
100
AcDbMText
 10
602
 20
7.122222222222328
 30
0
 40
4
 41
6.444444444444692
 71
    5
 72
    1
  1
3,2
  7
standard
210
0
220
0
230
1
 50
90
 73
    2
 44
1
  0
LINE
  5
B9
100
AcDbEntity
  8
rozmir_lyst
  6
ByBlock
 62
    0
370
   -2
100
AcDbLine
 10
597.9
 20
-0.3000000000000002
 11
607
 21
-0.3000000000000003
  0
LINE
  5
BA
100
AcDbEntity
  8
rozmir_lyst
  6
ByBlock
 62
    0
370
   -2
100
AcDbLine
 10
597.9
 20
2.899999999999983
 11
607
 21
2.899999999999983
  0
ENDBLK
  5
5A
330
58
100
AcDbEntity
  8
0
100
AcDbBlockEnd
  0
BLOCK
  5
5C
330
5B
100
AcDbEntity
  8
0
100
AcDbBlockBegin
  2
*D24
 70
    1
 10
0
 20
0
  3
*D24
  1

  0
LINE
  5
BB
100
AcDbEntity
  8
rozmir_lyst
  6
ByBlock
 62
    0
370
   -2
100
AcDbLine
 10
604
 20
239.9
 11
604
 21
260.9
  0
SOLID
  5
BC
100
AcDbEntity
  8
rozmir_lyst
  6
ByBlock
 62
    0
370
   -2
100
AcDbTrace
 10
604
 20
249.9
 30
0
 11
604.8325693155457
 21
244.9
 31
0
 12
603.1674306844543
 22
244.9
 32
0
 13
603.1674306844543
 23
244.9
 33
0
  0
SOLID
  5
BD
100
AcDbEntity
  8
rozmir_lyst
  6
ByBlock
 62
    0
370
   -2
100
AcDbTrace
 10
604
 20
250.9
 30
0
 11
603.1674306844543
 21
255.9
 31
0
 12
604.8325693155457
 22
255.9
 32
0
 13
604.8325693155457
 23
255.9
 33
0
  0
MTEXT
  5
BE
100
AcDbEntity
  8
rozmir_lyst
  6
CONTINUOUS
 62
  256
370
   -2
100
AcDbMText
 10
601
 20
250.4
 30
0
 40
4
 41
0.8888888888888888
 71
    5
 72
    1
  1
1
  7
standard
210
0
220
0
230
1
 50
90
 73
    2
 44
1
  0
LINE
  5
BF
100
AcDbEntity
  8
rozmir_lyst
  6
ByBlock
 62
    0
370
   -2
100
AcDbLine
 10
597.9
 20
249.9
 11
606
 21
249.9
  0
LINE
  5
C0
100
AcDbEntity
  8
rozmir_lyst
  6
ByBlock
 62
    0
370
   -2
100
AcDbLine
 10
597.9
 20
250.9
 11
606
 21
250.9
  0
ENDBLK
  5
5D
330
5B
100
AcDbEntity
  8
0
100
AcDbBlockEnd
  0
BLOCK
  5
5F
330
5E
100
AcDbEntity
  8
0
100
AcDbBlockBegin
  2
*D27
 70
    1
 10
0
 20
0
  3
*D27
  1

  0
LINE
  5
C1
100
AcDbEntity
  8
rozmir_lyst
  6
ByBlock
 62
    0
370
   -2
100
AcDbLine
 10
466
 20
12.89999999999998
 11
466
 21
-10
  0
SOLID
  5
C2
100
AcDbEntity
  8
rozmir_lyst
  6
ByBlock
 62
    0
370
   -2
100
AcDbTrace
 10
466
 20
2.899999999999983
 30
0
 11
465.1674306844543
 21
7.899999999999983
 31
0
 12
466.8325693155457
 22
7.899999999999983
 32
0
 13
466.8325693155457
 23
7.899999999999983
 33
0
  0
SOLID
  5
C3
100
AcDbEntity
  8
rozmir_lyst
  6
ByBlock
 62
    0
370
   -2
100
AcDbTrace
 10
466
 20
0
 30
0
 11
466.8325693155457
 21
-5
 31
0
 12
465.1674306844543
 22
-5
 32
0
 13
465.1674306844543
 23
-5
 33
0
  0
MTEXT
  5
C4
100
AcDbEntity
  8
rozmir_lyst
  6
CONTINUOUS
 62
  256
370
   -2
100
AcDbMText
 10
463
 20
7.122222222222206
 30
0
 40
4
 41
6.444444444444445
 71
    5
 72
    1
  1
2,9
  7
standard
210
0
220
0
230
1
 50
90
 73
    2
 44
1
  0
LINE
  5
C5
100
AcDbEntity
  8
rozmir_lyst
  6
ByBlock
 62
    0
370
   -2
100
AcDbLine
 10
469
 20
2.899999999999983
 11
464
 21
2.899999999999983
  0
LINE
  5
C6
100
AcDbEntity
  8
rozmir_lyst
  6
ByBlock
 62
    0
370
   -2
100
AcDbLine
 10
469
 20
1.224646799147353e-16
 11
464
 21
2.449293598294706e-16
  0
ENDBLK
  5
60
330
5E
100
AcDbEntity
  8
0
100
AcDbBlockEnd
  0
BLOCK
  5
62
330
61
100
AcDbEntity
  8
0
100
AcDbBlockBegin
  2
*D25
 70
    1
 10
0
 20
0
  3
*D25
  1

  0
LINE
  5
C7
100
AcDbEntity
  8
rozmir_lyst
  6
ByBlock
 62
    0
370
   -2
100
AcDbLine
 10
466
 20
261.3
 11
466
 21
239.9
  0
SOLID
  5
C8
100
AcDbEntity
  8
rozmir_lyst
  6
ByBlock
 62
    0
370
   -2
100
AcDbTrace
 10
466
 20
251.3
 30
0
 11
465.1674306844543
 21
256.3
 31
0
 12
466.8325693155457
 22
256.3
 32
0
 13
466.8325693155457
 23
256.3
 33
0
  0
SOLID
  5
C9
100
AcDbEntity
  8
rozmir_lyst
  6
ByBlock
 62
    0
370
   -2
100
AcDbTrace
 10
466
 20
249.9
 30
0
 11
466.8325693155457
 21
244.9
 31
0
 12
465.1674306844543
 22
244.9
 32
0
 13
465.1674306844543
 23
244.9
 33
0
  0
MTEXT
  5
CA
100
AcDbEntity
  8
rozmir_lyst
  6
CONTINUOUS
 62
  256
370
   -2
100
AcDbMText
 10
463
 20
255.3
 30
0
 40
4
 41
6
 71
    5
 72
    1
  1
1,4
  7
standard
210
0
220
0
230
1
 50
90
 73
    2
 44
1
  0
LINE
  5
CB
100
AcDbEntity
  8
rozmir_lyst
  6
ByBlock
 62
    0
370
   -2
100
AcDbLine
 10
469
 20
251.3
 11
464
 21
251.3
  0
LINE
  5
CC
100
AcDbEntity
  8
rozmir_lyst
  6
ByBlock
 62
    0
370
   -2
100
AcDbLine
 10
469
 20
249.9
 11
464
 21
249.9
  0
ENDBLK
  5
63
330
61
100
AcDbEntity
  8
0
100
AcDbBlockEnd
  0
BLOCK
  5
65
330
64
100
AcDbEntity
  8
0
100
AcDbBlockBegin
  2
*D3
 70
    1
 10
0
 20
0
  3
*D3
  1

  0
LINE
  5
CD
100
AcDbEntity
  8
rozmir_lyst
  6
ByBlock
 62
    0
370
   -2
100
AcDbLine
 10
0
 20
199
 11
62.5
 21
199
  0
SOLID
  5
CE
100
AcDbEntity
  8
rozmir_lyst
  6
ByBlock
 62
    0
370
   -2
100
AcDbTrace
 10
0
 20
199
 30
0
 11
5
 21
199.8325693155457
 31
0
 12
5
 22
198.1674306844543
 32
0
 13
5
 23
198.1674306844543
 33
0
  0
SOLID
  5
CF
100
AcDbEntity
  8
rozmir_lyst
  6
ByBlock
 62
    0
370
   -2
100
AcDbTrace
 10
62.5
 20
199
 30
0
 11
57.5
 21
198.1674306844543
 31
0
 12
57.5
 22
199.8325693155457
 32
0
 13
57.5
 23
199.8325693155457
 33
0
  0
MTEXT
  5
D0
100
AcDbEntity
  8
rozmir_lyst
  6
CONTINUOUS
 62
  256
370
   -2
100
AcDbMText
 10
31.25
 20
202
 30
0
 40
4
 41
9.555555555556051
 71
    5
 72
    1
  1
62,5
  7
standard
210
0
220
0
230
1
 50
0
 73
    2
 44
1
  0
LINE
  5
D1
100
AcDbEntity
  8
rozmir_lyst
  6
ByBlock
 62
    0
370
   -2
100
AcDbLine
 10
6.123233995736766e-17
 20
189
 11
1.224646799147353e-16
 21
201
  0
LINE
  5
D2
100
AcDbEntity
  8
rozmir_lyst
  6
ByBlock
 62
    0
370
   -2
100
AcDbLine
 10
62.5
 20
188.9
 11
62.5
 21
201
  0
ENDBLK
  5
66
330
64
100
AcDbEntity
  8
0
100
AcDbBlockEnd
  0
BLOCK
  5
68
330
67
100
AcDbEntity
  8
0
100
AcDbBlockBegin
  2
*D9
 70
    1
 10
0
 20
0
  3
*D9
  1

  0
LINE
  5
D3
100
AcDbEntity
  8
rozmir_lyst
  6
ByBlock
 62
    0
370
   -2
100
AcDbLine
 10
-13.69999999999992
 20
167.3
 11
-13.69999999999993
 21
-4.956035581926677e-16
  0
SOLID
  5
D4
100
AcDbEntity
  8
rozmir_lyst
  6
ByBlock
 62
    0
370
   -2
100
AcDbTrace
 10
-13.69999999999992
 20
167.3
 30
0
 11
-12.86743068445424
 21
162.3
 31
0
 12
-14.5325693155456
 22
162.3
 32
0
 13
-14.5325693155456
 23
162.3
 33
0
  0
SOLID
  5
D5
100
AcDbEntity
  8
rozmir_lyst
  6
ByBlock
 62
    0
370
   -2
100
AcDbTrace
 10
-13.69999999999993
 20
-4.956035581926677e-16
 30
0
 11
-14.53256931554561
 21
4.999999999999999
 31
0
 12
-12.86743068445425
 22
4.999999999999999
 32
0
 13
-12.86743068445425
 23
4.999999999999999
 33
0
  0
MTEXT
  5
D6
100
AcDbEntity
  8
rozmir_lyst
  6
CONTINUOUS
 62
  256
370
   -2
100
AcDbMText
 10
-16.69999999999993
 20
83.65000000000001
 30
0
 40
4
 41
11.77777777777827
 71
    5
 72
    1
  1
167,3
  7
standard
210
0
220
0
230
1
 50
90
 73
    2
 44
1
  0
LINE
  5
D7
100
AcDbEntity
  8
rozmir_lyst
  6
ByBlock
 62
    0
370
   -2
100
AcDbLine
 10
-21.99999999999989
 20
167.3
 11
-11.69999999999992
 21
167.3
  0
LINE
  5
D8
100
AcDbEntity
  8
rozmir_lyst
  6
ByBlock
 62
    0
370
   -2
100
AcDbLine
 10
-21.99999999999989
 20
0
 11
-11.69999999999993
 21
-4.956035581926677e-16
  0
ENDBLK
  5
69
330
67
100
AcDbEntity
  8
0
100
AcDbBlockEnd
  0
BLOCK
  5
6B
330
6A
100
AcDbEntity
  8
0
100
AcDbBlockBegin
  2
*D6
 70
    1
 10
0
 20
0
  3
*D6
  1

  0
LINE
  5
D9
100
AcDbEntity
  8
rozmir_lyst
  6
ByBlock
 62
    0
370
   -2
100
AcDbLine
 10
80.99999999999999
 20
187.9
 11
80.99999999999999
 21
20.2
  0
SOLID
  5
DA
100
AcDbEntity
  8
rozmir_lyst
  6
ByBlock
 62
    0
370
   -2
100
AcDbTrace
 10
80.99999999999999
 20
187.9
 30
0
 11
81.83256931554567
 21
182.9
 31
0
 12
80.1674306844543
 22
182.9
 32
0
 13
80.1674306844543
 23
182.9
 33
0
  0
SOLID
  5
DB
100
AcDbEntity
  8
rozmir_lyst
  6
ByBlock
 62
    0
370
   -2
100
AcDbTrace
 10
80.99999999999999
 20
20.2
 30
0
 11
80.1674306844543
 21
25.2
 31
0
 12
81.83256931554567
 22
25.2
 32
0
 13
81.83256931554567
 23
25.2
 33
0
  0
MTEXT
  5
DC
100
AcDbEntity
  8
rozmir_lyst
  6
CONTINUOUS
 62
  256
370
   -2
100
AcDbMText
 10
77.99999999999999
 20
104.05
 30
0
 40
4
 41
11.77777777777803
 71
    5
 72
    1
  1
167,7
  7
standard
210
0
220
0
230
1
 50
90
 73
    2
 44
1
  0
LINE
  5
DD
100
AcDbEntity
  8
rozmir_lyst
  6
ByBlock
 62
    0
370
   -2
100
AcDbLine
 10
63.5
 20
187.9
 11
82.99999999999999
 21
187.9
  0
LINE
  5
DE
100
AcDbEntity
  8
rozmir_lyst
  6
ByBlock
 62
    0
370
   -2
100
AcDbLine
 10
63.50000000000001
 20
20.2
 11
82.99999999999999
 21
20.2
  0
ENDBLK
  5
6C
330
6A
100
AcDbEntity
  8
0
100
AcDbBlockEnd
  0
BLOCK
  5
6E
330
6D
100
AcDbEntity
  8
0
100
AcDbBlockBegin
  2
*D16
 70
    1
 10
0
 20
0
  3
*D16
  1

  0
LINE
  5
DF
100
AcDbEntity
  8
rozmir_lyst
  6
ByBlock
 62
    0
370
   -2
100
AcDbLine
 10
435
 20
0.5
 11
435
 21
247.5
  0
SOLID
  5
E0
100
AcDbEntity
  8
rozmir_lyst
  6
ByBlock
 62
    0
370
   -2
100
AcDbTrace
 10
435
 20
0.5
 30
0
 11
434.1674306844543
 21
5.5
 31
0
 12
435.8325693155457
 22
5.5
 32
0
 13
435.8325693155457
 23
5.5
 33
0
  0
SOLID
  5
E1
100
AcDbEntity
  8
rozmir_lyst
  6
ByBlock
 62
    0
370
   -2
100
AcDbTrace
 10
435
 20
247.5
 30
0
 11
435.8325693155457
 21
242.5
 31
0
 12
434.1674306844543
 22
242.5
 32
0
 13
434.1674306844543
 23
242.5
 33
0
  0
MTEXT
  5
E2
100
AcDbEntity
  8
rozmir_lyst
  6
CONTINUOUS
 62
  256
370
   -2
100
AcDbMText
 10
432
 20
124
 30
0
 40
4
 41
8.444444444444443
 71
    5
 72
    1
  1
247
  7
standard
210
0
220
0
230
1
 50
90
 73
    2
 44
1
  0
LINE
  5
E3
100
AcDbEntity
  8
rozmir_lyst
  6
ByBlock
 62
    0
370
   -2
100
AcDbLine
 10
427.8
 20
0.5
 11
437
 21
0.5
  0
LINE
  5
E4
100
AcDbEntity
  8
rozmir_lyst
  6
ByBlock
 62
    0
370
   -2
100
AcDbLine
 10
427.8
 20
247.5
 11
437
 21
247.5
  0
ENDBLK
  5
6F
330
6D
100
AcDbEntity
  8
0
100
AcDbBlockEnd
  0
BLOCK
  5
71
330
70
100
AcDbEntity
  8
0
100
AcDbBlockBegin
  2
*D12
 70
    1
 10
0
 20
0
  3
*D12
  1

  0
LINE
  5
E5
100
AcDbEntity
  8
rozmir_lyst
  6
ByBlock
 62
    0
370
   -2
100
AcDbLine
 10
299.2928932188134
 20
249.9928932188134
 11
298.5857864376268
 21
249.2857864376267
  0
LINE
  5
E6
100
AcDbEntity
  8
rozmir_lyst
  6
ByBlock
 62
    0
370
   -2
100
AcDbLine
 10
426.0928932188135
 20
-1.207106781186547
 11
425.3857864376268
 21
-1.914213562373152
  0
LINE
  5
E7
100
AcDbEntity
  8
rozmir_lyst
  6
ByBlock
 62
    0
370
   -2
100
AcDbLine
 10
299.9999999999999
 20
250.6999999999998
 11
426.8
 21
-0.5000000000000568
  0
SOLID
  5
E8
100
AcDbEntity
  8
rozmir_lyst
  6
ByBlock
 62
    0
370
   -2
100
AcDbTrace
 10
299.9999999999999
 20
250.6999999999998
 30
0
 11
302.996356956492
 21
246.611599743852
 31
0
 12
301.5098629568748
 22
245.861251658058
 32
0
 13
301.5098629568748
 23
245.861251658058
 33
0
  0
SOLID
  5
E9
100
AcDbEntity
  8
rozmir_lyst
  6
ByBlock
 62
    0
370
   -2
100
AcDbTrace
 10
426.8
 20
-0.5000000000000568
 30
0
 11
423.8036430435079
 21
3.58840025614778
 31
0
 12
425.2901370431251
 22
4.338748341941827
 32
0
 13
425.2901370431251
 23
4.338748341941827
 33
0
  0
MTEXT
  5
EA
100
AcDbEntity
  8
rozmir_lyst
  6
CONTINUOUS
 62
  256
370
   -2
100
AcDbMText
 10
370
 20
120
 30
0
 40
4
 41
12.22222222222222
 71
    5
 72
    1
  1
281,4
  7
standard
210
0
220
0
230
1
 50
296.7835972736163
 73
    2
 44
1
  0
ENDBLK
  5
72
330
70
100
AcDbEntity
  8
0
100
AcDbBlockEnd
  0
BLOCK
  5
74
330
73
100
AcDbEntity
  8
0
100
AcDbBlockBegin
  2
*D19
 70
    1
 10
0
 20
0
  3
*D19
  1

  0
LINE
  5
EB
100
AcDbEntity
  8
rozmir_lyst
  6
ByBlock
 62
    0
370
   -2
100
AcDbLine
 10
460
 20
0
 11
460
 21
251.3
  0
SOLID
  5
EC
100
AcDbEntity
  8
rozmir_lyst
  6
ByBlock
 62
    0
370
   -2
100
AcDbTrace
 10
460
 20
0
 30
0
 11
459.1674306844543
 21
5
 31
0
 12
460.8325693155457
 22
5
 32
0
 13
460.8325693155457
 23
5
 33
0
  0
SOLID
  5
ED
100
AcDbEntity
  8
rozmir_lyst
  6
ByBlock
 62
    0
370
   -2
100
AcDbTrace
 10
460
 20
251.3
 30
0
 11
460.8325693155457
 21
246.3
 31
0
 12
459.1674306844543
 22
246.3
 32
0
 13
459.1674306844543
 23
246.3
 33
0
  0
MTEXT
  5
EE
100
AcDbEntity
  8
rozmir_lyst
  6
CONTINUOUS
 62
  256
370
   -2
100
AcDbMText
 10
457
 20
125.65
 30
0
 40
4
 41
11.77777777777827
 71
    5
 72
    1
  1
251,3
  7
standard
210
0
220
0
230
1
 50
90
 73
    2
 44
1
  0
LINE
  5
EF
100
AcDbEntity
  8
rozmir_lyst
  6
ByBlock
 62
    0
370
   -2
100
AcDbLine
 10
469
 20
1.224646799147353e-16
 11
458
 21
2.449293598294706e-16
  0
LINE
  5
F0
100
AcDbEntity
  8
rozmir_lyst
  6
ByBlock
 62
    0
370
   -2
100
AcDbLine
 10
469
 20
251.3
 11
458
 21
251.3
  0
ENDBLK
  5
75
330
73
100
AcDbEntity
  8
0
100
AcDbBlockEnd
  0
BLOCK
  5
77
330
76
100
AcDbEntity
  8
0
100
AcDbBlockBegin
  2
*D5
 70
    1
 10
0
 20
0
  3
*D5
  1

  0
LINE
  5
F1
100
AcDbEntity
  8
rozmir_lyst
  6
ByBlock
 62
    0
370
   -2
100
AcDbLine
 10
-9.999999999999998
 20
171
 11
15.29999999999995
 21
171
  0
SOLID
  5
F2
100
AcDbEntity
  8
rozmir_lyst
  6
ByBlock
 62
    0
370
   -2
100
AcDbTrace
 10
1.77635683940025e-15
 20
171
 30
0
 11
-4.999999999999998
 21
170.1674306844543
 31
0
 12
-4.999999999999998
 22
171.8325693155457
 32
0
 13
-4.999999999999998
 23
171.8325693155457
 33
0
  0
SOLID
  5
F3
100
AcDbEntity
  8
rozmir_lyst
  6
ByBlock
 62
    0
370
   -2
100
AcDbTrace
 10
5.299999999999949
 20
171
 30
0
 11
10.29999999999995
 21
171.8325693155457
 31
0
 12
10.29999999999995
 22
170.1674306844543
 32
0
 13
10.29999999999995
 23
170.1674306844543
 33
0
  0
MTEXT
  5
F4
100
AcDbEntity
  8
rozmir_lyst
  6
CONTINUOUS
 62
  256
370
   -2
100
AcDbMText
 10
-5.127777777777556
 20
175
 30
0
 40
4
 41
6.44444444444494
 71
    5
 72
    1
  1
5,3
  7
standard
210
0
220
0
230
1
 50
0
 73
    2
 44
1
  0
LINE
  5
F5
100
AcDbEntity
  8
rozmir_lyst
  6
ByBlock
 62
    0
370
   -2
100
AcDbLine
 10
1.592659819528147e-15
 20
186.9
 11
1.408962799656045e-15
 21
169
  0
LINE
  5
F6
100
AcDbEntity
  8
rozmir_lyst
  6
ByBlock
 62
    0
370
   -2
100
AcDbLine
 10
5.299999999999949
 20
186.7
 11
5.299999999999949
 21
169
  0
ENDBLK
  5
78
330
76
100
AcDbEntity
  8
0
100
AcDbBlockEnd
  0
BLOCK
  5
7A
330
79
100
AcDbEntity
  8
0
100
AcDbBlockBegin
  2
*D17
 70
    1
 10
0
 20
0
  3
*D17
  1

  0
LINE
  5
F7
100
AcDbEntity
  8
rozmir_lyst
  6
ByBlock
 62
    0
370
   -2
100
AcDbLine
 10
290
 20
10.5
 11
290
 21
-10
  0
SOLID
  5
F8
100
AcDbEntity
  8
rozmir_lyst
  6
ByBlock
 62
    0
370
   -2
100
AcDbTrace
 10
290
 20
0.5
 30
0
 11
289.1674306844543
 21
5.5
 31
0
 12
290.8325693155457
 22
5.5
 32
0
 13
290.8325693155457
 23
5.5
 33
0
  0
SOLID
  5
F9
100
AcDbEntity
  8
rozmir_lyst
  6
ByBlock
 62
    0
370
   -2
100
AcDbTrace
 10
290
 20
0
 30
0
 11
290.8325693155457
 21
-5
 31
0
 12
289.1674306844543
 22
-5
 32
0
 13
289.1674306844543
 23
-5
 33
0
  0
MTEXT
  5
FA
100
AcDbEntity
  8
rozmir_lyst
  6
CONTINUOUS
 62
  256
370
   -2
100
AcDbMText
 10
287
 20
4.722222222222346
 30
0
 40
4
 41
6.444444444444692
 71
    5
 72
    1
  1
0,5
  7
standard
210
0
220
0
230
1
 50
90
 73
    2
 44
1
  0
LINE
  5
FB
100
AcDbEntity
  8
rozmir_lyst
  6
ByBlock
 62
    0
370
   -2
100
AcDbLine
 10
299
 20
0.5000000000000001
 11
288
 21
0.5000000000000002
  0
LINE
  5
FC
100
AcDbEntity
  8
rozmir_lyst
  6
ByBlock
 62
    0
370
   -2
100
AcDbLine
 10
299
 20
1.224646799147353e-16
 11
288
 21
2.449293598294706e-16
  0
ENDBLK
  5
7B
330
79
100
AcDbEntity
  8
0
100
AcDbBlockEnd
  0
BLOCK
  5
7D
330
7C
100
AcDbEntity
  8
0
100
AcDbBlockBegin
  2
*D4
 70
    1
 10
0
 20
0
  3
*D4
  1

  0
LINE
  5
FD
100
AcDbEntity
  8
rozmir_lyst
  6
ByBlock
 62
    0
370
   -2
100
AcDbLine
 10
5.299999999999955
 20
171
 11
62.30000000000007
 21
171
  0
SOLID
  5
FE
100
AcDbEntity
  8
rozmir_lyst
  6
ByBlock
 62
    0
370
   -2
100
AcDbTrace
 10
5.299999999999955
 20
171
 30
0
 11
10.29999999999995
 21
171.8325693155457
 31
0
 12
10.29999999999995
 22
170.1674306844543
 32
0
 13
10.29999999999995
 23
170.1674306844543
 33
0
  0
SOLID
  5
FF
100
AcDbEntity
  8
rozmir_lyst
  6
ByBlock
 62
    0
370
   -2
100
AcDbTrace
 10
62.30000000000007
 20
171
 30
0
 11
57.30000000000007
 21
170.1674306844543
 31
0
 12
57.30000000000007
 22
171.8325693155457
 32
0
 13
57.30000000000007
 23
171.8325693155457
 33
0
  0
MTEXT
  5
100
100
AcDbEntity
  8
rozmir_lyst
  6
CONTINUOUS
 62
  256
370
   -2
100
AcDbMText
 10
33.80000000000001
 20
174
 30
0
 40
4
 41
4.888888888889136
 71
    5
 72
    1
  1
57
  7
standard
210
0
220
0
230
1
 50
0
 73
    2
 44
1
  0
LINE
  5
101
100
AcDbEntity
  8
rozmir_lyst
  6
ByBlock
 62
    0
370
   -2
100
AcDbLine
 10
5.299999999999949
 20
186.7
 11
5.299999999999955
 21
169
  0
LINE
  5
102
100
AcDbEntity
  8
rozmir_lyst
  6
ByBlock
 62
    0
370
   -2
100
AcDbLine
 10
62.30000000000007
 20
186.7
 11
62.30000000000007
 21
169
  0
ENDBLK
  5
7E
330
7C
100
AcDbEntity
  8
0
100
AcDbBlockEnd
  0
BLOCK
  5
80
330
7F
100
AcDbEntity
  8
0
100
AcDbBlockBegin
  2
*D20
 70
    1
 10
0
 20
0
  3
*D20
  1

  0
LINE
  5
103
100
AcDbEntity
  8
rozmir_lyst
  6
ByBlock
 62
    0
370
   -2
100
AcDbLine
 10
470
 20
-13
 11
596.9
 21
-13
  0
SOLID
  5
104
100
AcDbEntity
  8
rozmir_lyst
  6
ByBlock
 62
    0
370
   -2
100
AcDbTrace
 10
470
 20
-13
 30
0
 11
475
 21
-12.16743068445432
 31
0
 12
475
 22
-13.83256931554568
 32
0
 13
475
 23
-13.83256931554568
 33
0
  0
SOLID
  5
105
100
AcDbEntity
  8
rozmir_lyst
  6
ByBlock
 62
    0
370
   -2
100
AcDbTrace
 10
596.9
 20
-13
 30
0
 11
591.9
 21
-13.83256931554568
 31
0
 12
591.9
 22
-12.16743068445432
 32
0
 13
591.9
 23
-12.16743068445432
 33
0
  0
MTEXT
  5
106
100
AcDbEntity
  8
rozmir_lyst
  6
CONTINUOUS
 62
  256
370
   -2
100
AcDbMText
 10
533.45
 20
-10
 30
0
 40
4
 41
11.77777777777803
 71
    5
 72
    1
  1
126,9
  7
standard
210
0
220
0
230
1
 50
0
 73
    2
 44
1
  0
LINE
  5
107
100
AcDbEntity
  8
rozmir_lyst
  6
ByBlock
 62
    0
370
   -2
100
AcDbLine
 10
470
 20
-1
 11
470
 21
-15
  0
LINE
  5
108
100
AcDbEntity
  8
rozmir_lyst
  6
ByBlock
 62
    0
370
   -2
100
AcDbLine
 10
596.9
 20
-1.3
 11
596.9
 21
-15
  0
ENDBLK
  5
81
330
7F
100
AcDbEntity
  8
0
100
AcDbBlockEnd
  0
BLOCK
  5
83
330
82
100
AcDbEntity
  8
0
100
AcDbBlockBegin
  2
*D22
 70
    1
 10
0
 20
0
  3
*D22
  1

  0
LINE
  5
109
100
AcDbEntity
  8
rozmir_lyst
  6
ByBlock
 62
    0
370
   -2
100
AcDbLine
 10
471
 20
0
 11
472
 21
0
  0
LINE
  5
10A
100
AcDbEntity
  8
rozmir_lyst
  6
ByBlock
 62
    0
370
   -2
100
AcDbLine
 10
597.9
 20
250.9
 11
598.9
 21
250.9
  0
LINE
  5
10B
100
AcDbEntity
  8
rozmir_lyst
  6
ByBlock
 62
    0
370
   -2
100
AcDbLine
 10
470
 20
0
 11
596.9
 21
250.9
  0
SOLID
  5
10C
100
AcDbEntity
  8
rozmir_lyst
  6
ByBlock
 62
    0
370
   -2
100
AcDbTrace
 10
470
 20
0
 30
0
 11
471.5137253023032
 21
4.837541459704036
 31
0
 12
472.9996198170373
 22
4.086006928337891
 32
0
 13
472.9996198170373
 23
4.086006928337891
 33
0
  0
SOLID
  5
10D
100
AcDbEntity
  8
rozmir_lyst
  6
ByBlock
 62
    0
370
   -2
100
AcDbTrace
 10
596.9
 20
250.9
 30
0
 11
595.3862746976969
 21
246.062458540296
 31
0
 12
593.9003801829626
 22
246.8139930716621
 32
0
 13
593.9003801829626
 23
246.8139930716621
 33
0
  0
MTEXT
  5
10E
100
AcDbEntity
  8
rozmir_lyst
  6
CONTINUOUS
 62
  256
370
   -2
100
AcDbMText
 10
525
 20
117
 30
0
 40
4
 41
11.77777777777778
 71
    5
 72
    1
  1
281,2
  7
standard
210
0
220
0
230
1
 50
63.17066286434028
 73
    2
 44
1
  0
ENDBLK
  5
84
330
82
100
AcDbEntity
  8
0
100
AcDbBlockEnd
  0
BLOCK
  5
86
330
85
100
AcDbEntity
  8
0
100
AcDbBlockBegin
  2
*D11
 70
    1
 10
0
 20
0
  3
*D11
  1

  0
LINE
  5
10F
100
AcDbEntity
  8
rozmir_lyst
  6
ByBlock
 62
    0
370
   -2
100
AcDbLine
 10
299.1081560715262
 20
0.4523432405203164
 11
298.1994231074007
 21
0.9132525999231599
  0
LINE
  5
110
100
AcDbEntity
  8
rozmir_lyst
  6
ByBlock
 62
    0
370
   -2
100
AcDbLine
 10
425.9081560715262
 20
250.4523432405203
 11
424.9994231074007
 21
250.9132525999232
  0
LINE
  5
111
100
AcDbEntity
  8
rozmir_lyst
  6
ByBlock
 62
    0
370
   -2
100
AcDbLine
 10
299.9831109643483
 20
0.008566118882527006
 11
426.7831109643483
 21
250.0085661188825
  0
SOLID
  5
112
100
AcDbEntity
  8
rozmir_lyst
  6
ByBlock
 62
    0
370
   -2
100
AcDbTrace
 10
299.9831109643483
 20
0.008566118882527006
 30
0
 11
301.5023052778537
 21
4.844392863401078
 31
0
 12
302.9873490560586
 22
4.091178659095536
 32
0
 13
302.9873490560586
 23
4.091178659095536
 33
0
  0
SOLID
  5
113
100
AcDbEntity
  8
rozmir_lyst
  6
ByBlock
 62
    0
370
   -2
100
AcDbTrace
 10
426.7831109643483
 20
250.0085661188825
 30
0
 11
425.2639166508428
 21
245.172739374364
 31
0
 12
423.7788728726379
 22
245.9259535786695
 32
0
 13
423.7788728726379
 23
245.9259535786695
 33
0
  0
MTEXT
  5
114
100
AcDbEntity
  8
rozmir_lyst
  6
CONTINUOUS
 62
  256
370
   -2
100
AcDbMText
 10
350
 20
110
 30
0
 40
4
 41
12.66666666666691
 71
    5
 72
    1
  1
280,3
  7
standard
210
0
220
0
230
1
 50
63.10587649003917
 73
    2
 44
1
  0
ENDBLK
  5
87
330
85
100
AcDbEntity
  8
0
100
AcDbBlockEnd
  0
BLOCK
  5
89
330
88
100
AcDbEntity
  8
0
100
AcDbBlockBegin
  2
*D7
 70
    1
 10
0
 20
0
  3
*D7
  1

  0
LINE
  5
115
100
AcDbEntity
  8
rozmir_lyst
  6
ByBlock
 62
    0
370
   -2
100
AcDbLine
 10
268
 20
247
 11
268
 21
0
  0
SOLID
  5
116
100
AcDbEntity
  8
rozmir_lyst
  6
ByBlock
 62
    0
370
   -2
100
AcDbTrace
 10
268
 20
247
 30
0
 11
268.8325693155457
 21
242
 31
0
 12
267.1674306844543
 22
242
 32
0
 13
267.1674306844543
 23
242
 33
0
  0
SOLID
  5
117
100
AcDbEntity
  8
rozmir_lyst
  6
ByBlock
 62
    0
370
   -2
100
AcDbTrace
 10
268
 20
0
 30
0
 11
267.1674306844543
 21
5
 31
0
 12
268.8325693155457
 22
5
 32
0
 13
268.8325693155457
 23
5
 33
0
  0
MTEXT
  5
118
100
AcDbEntity
  8
rozmir_lyst
  6
CONTINUOUS
 62
  256
370
   -2
100
AcDbMText
 10
265
 20
123.5
 30
0
 40
4
 41
8.444444444444443
 71
    5
 72
    1
  1
247
  7
standard
210
0
220
0
230
1
 50
90
 73
    2
 44
1
  0
LINE
  5
119
100
AcDbEntity
  8
rozmir_lyst
  6
ByBlock
 62
    0
370
   -2
100
AcDbLine
 10
251.4
 20
247
 11
270
 21
247
  0
LINE
  5
11A
100
AcDbEntity
  8
rozmir_lyst
  6
ByBlock
 62
    0
370
   -2
100
AcDbLine
 10
251.4
 20
0
 11
270
 21
0
  0
ENDBLK
  5
8A
330
88
100
AcDbEntity
  8
0
100
AcDbBlockEnd
  0
BLOCK
  5
8C
330
8B
100
AcDbEntity
  8
0
100
AcDbBlockBegin
  2
*D1
 70
    1
 10
0
 20
0
  3
*D1
  1

  0
LINE
  5
11B
100
AcDbEntity
  8
rozmir_lyst
  6
ByBlock
 62
    0
370
   -2
100
AcDbLine
 10
0
 20
261
 11
125
 21
261
  0
SOLID
  5
11C
100
AcDbEntity
  8
rozmir_lyst
  6
ByBlock
 62
    0
370
   -2
100
AcDbTrace
 10
0
 20
261
 30
0
 11
5
 21
261.8325693155457
 31
0
 12
5
 22
260.1674306844543
 32
0
 13
5
 23
260.1674306844543
 33
0
  0
SOLID
  5
11D
100
AcDbEntity
  8
rozmir_lyst
  6
ByBlock
 62
    0
370
   -2
100
AcDbTrace
 10
125
 20
261
 30
0
 11
120
 21
260.1674306844543
 31
0
 12
120
 22
261.8325693155457
 32
0
 13
120
 23
261.8325693155457
 33
0
  0
MTEXT
  5
11E
100
AcDbEntity
  8
rozmir_lyst
  6
CONTINUOUS
 62
  256
370
   -2
100
AcDbMText
 10
62.5
 20
264
 30
0
 40
4
 41
7.111111111111359
 71
    5
 72
    1
  1
125
  7
standard
210
0
220
0
230
1
 50
0
 73
    2
 44
1
  0
LINE
  5
11F
100
AcDbEntity
  8
rozmir_lyst
  6
ByBlock
 62
    0
370
   -2
100
AcDbLine
 10
6.123233995736766e-17
 20
248
 11
1.224646799147353e-16
 21
263
  0
LINE
  5
120
100
AcDbEntity
  8
rozmir_lyst
  6
ByBlock
 62
    0
370
   -2
100
AcDbLine
 10
125
 20
248
 11
125
 21
263
  0
ENDBLK
  5
8D
330
8B
100
AcDbEntity
  8
0
100
AcDbBlockEnd
  0
BLOCK
  5
8F
330
8E
100
AcDbEntity
  8
0
100
AcDbBlockBegin
  2
*D14
 70
    1
 10
0
 20
0
  3
*D14
  1

  0
LINE
  5
121
100
AcDbEntity
  8
rozmir_lyst
  6
ByBlock
 62
    0
370
   -2
100
AcDbLine
 10
290
 20
260.6999999999999
 11
290
 21
237.5
  0
SOLID
  5
122
100
AcDbEntity
  8
rozmir_lyst
  6
ByBlock
 62
    0
370
   -2
100
AcDbTrace
 10
290
 20
250.6999999999999
 30
0
 11
289.1674306844543
 21
255.6999999999999
 31
0
 12
290.8325693155457
 22
255.6999999999999
 32
0
 13
290.8325693155457
 23
255.6999999999999
 33
0
  0
SOLID
  5
123
100
AcDbEntity
  8
rozmir_lyst
  6
ByBlock
 62
    0
370
   -2
100
AcDbTrace
 10
290
 20
247.5
 30
0
 11
290.8325693155457
 21
242.5
 31
0
 12
289.1674306844543
 22
242.5
 32
0
 13
289.1674306844543
 23
242.5
 33
0
  0
MTEXT
  5
124
100
AcDbEntity
  8
rozmir_lyst
  6
CONTINUOUS
 62
  256
370
   -2
100
AcDbMText
 10
287
 20
254.9222222222222
 30
0
 40
4
 41
6.444444444444692
 71
    5
 72
    1
  1
3,2
  7
standard
210
0
220
0
230
1
 50
90
 73
    2
 44
1
  0
LINE
  5
125
100
AcDbEntity
  8
rozmir_lyst
  6
ByBlock
 62
    0
370
   -2
100
AcDbLine
 10
299
 20
250.6999999999999
 11
288
 21
250.6999999999999
  0
LINE
  5
126
100
AcDbEntity
  8
rozmir_lyst
  6
ByBlock
 62
    0
370
   -2
100
AcDbLine
 10
299
 20
247.5
 11
288
 21
247.5
  0
ENDBLK
  5
90
330
8E
100
AcDbEntity
  8
0
100
AcDbBlockEnd
  0
BLOCK
  5
92
330
91
100
AcDbEntity
  8
0
100
AcDbBlockBegin
  2
*D8
 70
    1
 10
0
 20
0
  3
*D8
  1

  0
LINE
  5
127
100
AcDbEntity
  8
rozmir_lyst
  6
ByBlock
 62
    0
370
   -2
100
AcDbLine
 10
-80
 20
182.4
 11
-22.99999999999989
 21
182.4
  0
SOLID
  5
128
100
AcDbEntity
  8
rozmir_lyst
  6
ByBlock
 62
    0
370
   -2
100
AcDbTrace
 10
-80
 20
182.4
 30
0
 11
-75
 21
183.2325693155457
 31
0
 12
-75
 22
181.5674306844543
 32
0
 13
-75
 23
181.5674306844543
 33
0
  0
SOLID
  5
129
100
AcDbEntity
  8
rozmir_lyst
  6
ByBlock
 62
    0
370
   -2
100
AcDbTrace
 10
-22.99999999999989
 20
182.4
 30
0
 11
-27.99999999999989
 21
181.5674306844543
 31
0
 12
-27.99999999999989
 22
183.2325693155457
 32
0
 13
-27.99999999999989
 23
183.2325693155457
 33
0
  0
MTEXT
  5
12A
100
AcDbEntity
  8
rozmir_lyst
  6
CONTINUOUS
 62
  256
370
   -2
100
AcDbMText
 10
-51.49999999999989
 20
185.4
 30
0
 40
4
 41
4.888888888889136
 71
    5
 72
    1
  1
57
  7
standard
210
0
220
0
230
1
 50
0
 73
    2
 44
1
  0
LINE
  5
12B
100
AcDbEntity
  8
rozmir_lyst
  6
ByBlock
 62
    0
370
   -2
100
AcDbLine
 10
-80
 20
168.3
 11
-80
 21
184.4
  0
LINE
  5
12C
100
AcDbEntity
  8
rozmir_lyst
  6
ByBlock
 62
    0
370
   -2
100
AcDbLine
 10
-22.99999999999989
 20
168.3
 11
-22.99999999999989
 21
184.4
  0
ENDBLK
  5
93
330
91
100
AcDbEntity
  8
0
100
AcDbBlockEnd
  0
BLOCK
  5
95
330
94
100
AcDbEntity
  8
0
100
AcDbBlockBegin
  2
*D13
 70
    1
 10
0
 20
0
  3
*D13
  1

  0
LINE
  5
12D
100
AcDbEntity
  8
rozmir_lyst
  6
ByBlock
 62
    0
370
   -2
100
AcDbLine
 10
280
 20
250.6999999999999
 11
280
 21
0
  0
SOLID
  5
12E
100
AcDbEntity
  8
rozmir_lyst
  6
ByBlock
 62
    0
370
   -2
100
AcDbTrace
 10
280
 20
250.6999999999999
 30
0
 11
280.8325693155457
 21
245.6999999999999
 31
0
 12
279.1674306844543
 22
245.6999999999999
 32
0
 13
279.1674306844543
 23
245.6999999999999
 33
0
  0
SOLID
  5
12F
100
AcDbEntity
  8
rozmir_lyst
  6
ByBlock
 62
    0
370
   -2
100
AcDbTrace
 10
280
 20
0
 30
0
 11
279.1674306844543
 21
5
 31
0
 12
280.8325693155457
 22
5
 32
0
 13
280.8325693155457
 23
5
 33
0
  0
MTEXT
  5
130
100
AcDbEntity
  8
rozmir_lyst
  6
CONTINUOUS
 62
  256
370
   -2
100
AcDbMText
 10
277
 20
125.35
 30
0
 40
4
 41
12.66666666666691
 71
    5
 72
    1
  1
250,7
  7
standard
210
0
220
0
230
1
 50
90
 73
    2
 44
1
  0
LINE
  5
131
100
AcDbEntity
  8
rozmir_lyst
  6
ByBlock
 62
    0
370
   -2
100
AcDbLine
 10
299
 20
250.6999999999999
 11
278
 21
250.6999999999999
  0
LINE
  5
132
100
AcDbEntity
  8
rozmir_lyst
  6
ByBlock
 62
    0
370
   -2
100
AcDbLine
 10
299
 20
1.224646799147353e-16
 11
278
 21
2.449293598294706e-16
  0
ENDBLK
  5
96
330
94
100
AcDbEntity
  8
0
100
AcDbBlockEnd
  0
BLOCK
  5
98
330
97
100
AcDbEntity
  8
0
100
AcDbBlockBegin
  2
*D26
 70
    1
 10
0
 20
0
  3
*D26
  1

  0
LINE
  5
133
100
AcDbEntity
  8
rozmir_lyst
  6
ByBlock
 62
    0
370
   -2
100
AcDbLine
 10
466
 20
249.9
 11
466
 21
2.899999999999983
  0
SOLID
  5
134
100
AcDbEntity
  8
rozmir_lyst
  6
ByBlock
 62
    0
370
   -2
100
AcDbTrace
 10
466
 20
249.9
 30
0
 11
466.8325693155457
 21
244.9
 31
0
 12
465.1674306844543
 22
244.9
 32
0
 13
465.1674306844543
 23
244.9
 33
0
  0
SOLID
  5
135
100
AcDbEntity
  8
rozmir_lyst
  6
ByBlock
 62
    0
370
   -2
100
AcDbTrace
 10
466
 20
2.899999999999983
 30
0
 11
465.1674306844543
 21
7.899999999999983
 31
0
 12
466.8325693155457
 22
7.899999999999983
 32
0
 13
466.8325693155457
 23
7.899999999999983
 33
0
  0
MTEXT
  5
136
100
AcDbEntity
  8
rozmir_lyst
  6
CONTINUOUS
 62
  256
370
   -2
100
AcDbMText
 10
463
 20
126.4
 30
0
 40
4
 41
8.444444444444443
 71
    5
 72
    1
  1
247
  7
standard
210
0
220
0
230
1
 50
90
 73
    2
 44
1
  0
LINE
  5
137
100
AcDbEntity
  8
rozmir_lyst
  6
ByBlock
 62
    0
370
   -2
100
AcDbLine
 10
469
 20
249.9
 11
464
 21
249.9
  0
LINE
  5
138
100
AcDbEntity
  8
rozmir_lyst
  6
ByBlock
 62
    0
370
   -2
100
AcDbLine
 10
469
 20
2.899999999999983
 11
464
 21
2.899999999999983
  0
ENDBLK
  5
99
330
97
100
AcDbEntity
  8
0
100
AcDbBlockEnd
  0
BLOCK
  5
9B
330
9A
100
AcDbEntity
  8
0
100
AcDbBlockBegin
  2
*D23
 70
    1
 10
0
 20
0
  3
*D23
  1

  0
LINE
  5
139
100
AcDbEntity
  8
rozmir_lyst
  6
ByBlock
 62
    0
370
   -2
100
AcDbLine
 10
470.8930274818869
 20
251.7500021295446
 11
471.786054963774
 21
252.2000042590892
  0
LINE
  5
13A
100
AcDbEntity
  8
rozmir_lyst
  6
ByBlock
 62
    0
370
   -2
100
AcDbLine
 10
597.793027481887
 20
0.1500021295445915
 11
598.6860549637739
 21
0.6000042590892404
  0
LINE
  5
13B
100
AcDbEntity
  8
rozmir_lyst
  6
ByBlock
 62
    0
370
   -2
100
AcDbLine
 10
470.0000000000001
 20
251.3000000000001
 11
596.9000000000001
 21
-0.2999999999999429
  0
SOLID
  5
13C
100
AcDbEntity
  8
rozmir_lyst
  6
ByBlock
 62
    0
370
   -2
100
AcDbTrace
 10
470.0000000000001
 20
251.3000000000001
 30
0
 11
472.9950368445674
 21
247.2106325715495
 31
0
 12
471.5083006696539
 22
246.4607644451722
 32
0
 13
471.5083006696539
 23
246.4607644451722
 33
0
  0
SOLID
  5
13D
100
AcDbEntity
  8
rozmir_lyst
  6
ByBlock
 62
    0
370
   -2
100
AcDbTrace
 10
596.9000000000001
 20
-0.2999999999999429
 30
0
 11
593.9049631554328
 21
3.789367428450655
 31
0
 12
595.3916993303462
 22
4.539235554827907
 32
0
 13
595.3916993303462
 23
4.539235554827907
 33
0
  0
MTEXT
  5
13E
100
AcDbEntity
  8
rozmir_lyst
  6
CONTINUOUS
 62
  256
370
   -2
100
AcDbMText
 10
541
 20
119
 30
0
 40
4
 41
11.77777777777778
 71
    5
 72
    1
  1
281,8
  7
standard
210
0
220
0
230
1
 50
296.7650991102944
 73
    2
 44
1
  0
ENDBLK
  5
9C
330
9A
100
AcDbEntity
  8
0
100
AcDbBlockEnd
  0
BLOCK
  5
9E
330
9D
100
AcDbEntity
  8
0
100
AcDbBlockBegin
  2
*D10
 70
    1
 10
0
 20
0
  3
*D10
  1

  0
LINE
  5
13F
100
AcDbEntity
  8
rozmir_lyst
  6
ByBlock
 62
    0
370
   -2
100
AcDbLine
 10
300
 20
-13
 11
426.8
 21
-13
  0
SOLID
  5
140
100
AcDbEntity
  8
rozmir_lyst
  6
ByBlock
 62
    0
370
   -2
100
AcDbTrace
 10
300
 20
-13
 30
0
 11
305
 21
-12.16743068445432
 31
0
 12
305
 22
-13.83256931554568
 32
0
 13
305
 23
-13.83256931554568
 33
0
  0
SOLID
  5
141
100
AcDbEntity
  8
rozmir_lyst
  6
ByBlock
 62
    0
370
   -2
100
AcDbTrace
 10
426.8
 20
-13
 30
0
 11
421.8
 21
-13.83256931554568
 31
0
 12
421.8
 22
-12.16743068445432
 32
0
 13
421.8
 23
-12.16743068445432
 33
0
  0
MTEXT
  5
142
100
AcDbEntity
  8
rozmir_lyst
  6
CONTINUOUS
 62
  256
370
   -2
100
AcDbMText
 10
363.4
 20
-10
 30
0
 40
4
 41
11.77777777777803
 71
    5
 72
    1
  1
126,8
  7
standard
210
0
220
0
230
1
 50
0
 73
    2
 44
1
  0
LINE
  5
143
100
AcDbEntity
  8
rozmir_lyst
  6
ByBlock
 62
    0
370
   -2
100
AcDbLine
 10
300
 20
-1
 11
300
 21
-15
  0
LINE
  5
144
100
AcDbEntity
  8
rozmir_lyst
  6
ByBlock
 62
    0
370
   -2
100
AcDbLine
 10
426.8
 20
-1.5
 11
426.8
 21
-15
  0
ENDBLK
  5
9F
330
9D
100
AcDbEntity
  8
0
100
AcDbBlockEnd
  0
BLOCK
  5
A1
330
A0
100
AcDbEntity
  8
0
100
AcDbBlockBegin
  2
*D18
 70
    1
 10
0
 20
0
  3
*D18
  1

  0
LINE
  5
145
100
AcDbEntity
  8
rozmir_lyst
  6
ByBlock
 62
    0
370
   -2
100
AcDbLine
 10
435
 20
-10.5
 11
435
 21
10.5
  0
SOLID
  5
146
100
AcDbEntity
  8
rozmir_lyst
  6
ByBlock
 62
    0
370
   -2
100
AcDbTrace
 10
435
 20
-0.5
 30
0
 11
435.8325693155457
 21
-5.5
 31
0
 12
434.1674306844543
 22
-5.5
 32
0
 13
434.1674306844543
 23
-5.5
 33
0
  0
SOLID
  5
147
100
AcDbEntity
  8
rozmir_lyst
  6
ByBlock
 62
    0
370
   -2
100
AcDbTrace
 10
435
 20
0.5
 30
0
 11
434.1674306844543
 21
5.5
 31
0
 12
435.8325693155457
 22
5.5
 32
0
 13
435.8325693155457
 23
5.5
 33
0
  0
MTEXT
  5
148
100
AcDbEntity
  8
rozmir_lyst
  6
CONTINUOUS
 62
  256
370
   -2
100
AcDbMText
 10
432
 20
3
 30
0
 40
4
 41
0.8888888888888888
 71
    5
 72
    1
  1
1
  7
standard
210
0
220
0
230
1
 50
90
 73
    2
 44
1
  0
LINE
  5
149
100
AcDbEntity
  8
rozmir_lyst
  6
ByBlock
 62
    0
370
   -2
100
AcDbLine
 10
427.8
 20
-0.5
 11
437
 21
-0.5
  0
LINE
  5
14A
100
AcDbEntity
  8
rozmir_lyst
  6
ByBlock
 62
    0
370
   -2
100
AcDbLine
 10
427.8
 20
0.5
 11
437
 21
0.5
  0
ENDBLK
  5
A2
330
A0
100
AcDbEntity
  8
0
100
AcDbBlockEnd
  0
ENDSEC
  0
SECTION
  2
ENTITIES
  0
LWPOLYLINE
  5
14B
100
AcDbEntity
  8
lyst
  6
CONTINUOUS
 62
  256
370
   -1
100
AcDbPolyline
 90
    5
 70
    1
 43
0
 10
125.4
 20
0
 10
250.4
 20
0
 10
250.4
 20
247
 10
125.4
 20
247
 10
125.4
 20
247
  0
LWPOLYLINE
  5
14C
100
AcDbEntity
  8
lyst
  6
CONTINUOUS
 62
    2
370
   50
100
AcDbPolyline
 90
    9
 70
    1
 43
0
 10
0
 20
0
 10
125
 20
0
 10
125
 20
247
 10
0
 20
247
 10
0
 20
247
 10
1.77635683940025e-15
 20
187.9
 10
62.5
 20
187.9
 10
62.50000000000001
 20
20.2
 10
0
 20
20.2
  0
DIMENSION
  5
14D
100
AcDbEntity
  8
rozmir_lyst
  6
ByLayer
 62
  256
370
   -1
100
AcDbDimension
  2
*D1
 10
125
 20
261
 30
0
 11
62.5
 21
264
 31
0
 70
   32
 71
    5
  3
Standard
 53
0
210
0
220
0
230
1
100
AcDbAlignedDimension
 13
0
 23
247
 33
0
 14
125
 24
247
 34
0
100
AcDbRotatedDimension
  0
DIMENSION
  5
14E
100
AcDbEntity
  8
rozmir_lyst
  6
ByLayer
 62
  256
370
   -1
100
AcDbDimension
  2
*D2
 10
250.4
 20
261
 30
0
 11
187.9
 21
264
 31
0
 70
   32
 71
    5
  3
Standard
 53
0
210
0
220
0
230
1
100
AcDbAlignedDimension
 13
125.4
 23
247
 33
0
 14
250.4
 24
247
 34
0
100
AcDbRotatedDimension
  0
DIMENSION
  5
14F
100
AcDbEntity
  8
rozmir_lyst
  6
ByLayer
 62
  256
370
   -1
100
AcDbDimension
  2
*D3
 10
62.5
 20
199
 30
0
 11
31.25
 21
202
 31
0
 70
   32
 71
    5
  3
Standard
 53
0
210
0
220
0
230
1
100
AcDbAlignedDimension
 13
0
 23
188
 33
0
 14
62.5
 24
187.9
 34
0
100
AcDbRotatedDimension
  0
DIMENSION
  5
150
100
AcDbEntity
  8
rozmir_lyst
  6
ByLayer
 62
  256
370
   -1
100
AcDbDimension
  2
*D4
 10
62.30000000000007
 20
171
 30
0
 11
33.80000000000001
 21
174
 31
0
 70
   32
 71
    5
  3
Standard
 53
0
210
0
220
0
230
1
100
AcDbAlignedDimension
 13
5.299999999999949
 23
187.7
 33
0
 14
62.30000000000007
 24
187.7
 34
0
100
AcDbRotatedDimension
  0
DIMENSION
  5
151
100
AcDbEntity
  8
rozmir_lyst
  6
ByLayer
 62
  256
370
   -1
100
AcDbDimension
  2
*D5
 10
5.299999999999949
 20
171
 30
0
 11
-12
 21
175
 31
0
 70
   32
 71
    5
  3
Standard
 53
0
210
0
220
0
230
1
100
AcDbAlignedDimension
 13
1.77635683940025e-15
 23
187.9
 33
0
 14
5.299999999999949
 24
187.7
 34
0
100
AcDbRotatedDimension
  0
DIMENSION
  5
152
100
AcDbEntity
  8
rozmir_lyst
  6
ByLayer
 62
  256
370
   -1
100
AcDbDimension
  2
*D6
 10
80.99999999999999
 20
20.2
 30
0
 11
77.99999999999999
 21
104.05
 31
0
 70
   32
 71
    5
  3
Standard
 53
0
210
0
220
0
230
1
100
AcDbAlignedDimension
 13
62.5
 23
187.9
 33
0
 14
62.50000000000001
 24
20.2
 34
0
 50
90
100
AcDbRotatedDimension
  0
DIMENSION
  5
153
100
AcDbEntity
  8
rozmir_lyst
  6
ByLayer
 62
  256
370
   -1
100
AcDbDimension
  2
*D7
 10
268
 20
-2.220446049250313e-15
 30
0
 11
265
 21
123.5
 31
0
 70
   32
 71
    5
  3
Standard
 53
0
210
0
220
0
230
1
100
AcDbAlignedDimension
 13
250.4
 23
247
 33
0
 14
250.4
 24
0
 34
0
 50
90
100
AcDbRotatedDimension
  0
LWPOLYLINE
  5
154
100
AcDbEntity
  8
lyst
  6
ByLayer
 62
  256
370
   -1
100
AcDbPolyline
 90
    4
 70
    1
 43
0
 10
-80
 20
167.3
 10
-22.99999999999989
 20
167.3
 10
-22.99999999999989
 20
0
 10
-80
 20
0
  0
DIMENSION
  5
155
100
AcDbEntity
  8
rozmir_lyst
  6
ByLayer
 62
  256
370
   -1
100
AcDbDimension
  2
*D8
 10
-22.99999999999989
 20
182.4
 30
0
 11
-51.49999999999989
 21
185.4
 31
0
 70
   32
 71
    5
  3
Standard
 53
0
210
0
220
0
230
1
100
AcDbAlignedDimension
 13
-80
 23
167.3
 33
0
 14
-22.99999999999989
 24
167.3
 34
0
100
AcDbRotatedDimension
  0
DIMENSION
  5
156
100
AcDbEntity
  8
rozmir_lyst
  6
ByLayer
 62
  256
370
   -1
100
AcDbDimension
  2
*D9
 10
-13.69999999999993
 20
-1.110223024625157e-15
 30
0
 11
-16.69999999999993
 21
83.65000000000001
 31
0
 70
   32
 71
    5
  3
Standard
 53
0
210
0
220
0
230
1
100
AcDbAlignedDimension
 13
-22.99999999999989
 23
167.3
 33
0
 14
-22.99999999999989
 24
0
 34
0
 50
90
100
AcDbRotatedDimension
  0
LWPOLYLINE
  5
157
100
AcDbEntity
  8
lyst
  6
DASHED2
 62
  256
370
   -1
100
AcDbPolyline
 90
    5
 70
    1
 43
0
 10
5.299999999999949
 20
187.7
 10
62.30000000000007
 20
187.7
 10
62.30000000000007
 20
20.40000000000001
 10
5.299999999999949
 20
20.40000000000001
 10
5.299999999999949
 20
20.40000000000001
  0
DIMENSION
  5
158
100
AcDbEntity
  8
rozmir_lyst
  6
ByLayer
 62
  256
370
   -1
100
AcDbDimension
  2
*D10
 10
426.8
 20
-13
 30
0
 11
363.4
 21
-10
 31
0
 70
   32
 71
    5
 72
    0
  3
Standard
 53
0
210
0
220
0
230
1
100
AcDbAlignedDimension
 13
300
 23
0
 33
0
 14
426.8
 24
-0.5
 34
0
100
AcDbRotatedDimension
  0
DIMENSION
  5
159
100
AcDbEntity
  8
rozmir_lyst
  6
ByLayer
 62
  256
370
   -1
100
AcDbDimension
  2
*D11
 10
426.7831109643483
 20
250.0085661188825
 30
0
 11
350
 21
110
 31
0
 70
   33
 71
    5
 72
    0
  3
Standard
 53
0
210
0
220
0
230
1
100
AcDbAlignedDimension
 13
300
 23
0
 33
0
 14
426.8
 24
250
 34
0
  0
DIMENSION
  5
15A
100
AcDbEntity
  8
rozmir_lyst
  6
ByLayer
 62
  256
370
   -1
100
AcDbDimension
  2
*D12
 10
426.8
 20
-0.5000000000000568
 30
0
 11
370
 21
120
 31
0
 70
   33
 71
    5
 72
    0
  3
Standard
 53
0
210
0
220
0
230
1
100
AcDbAlignedDimension
 13
300
 23
250.6999999999999
 33
0
 14
426.8
 24
-0.5
 34
0
  0
DIMENSION
  5
15B
100
AcDbEntity
  8
rozmir_lyst
  6
ByLayer
 62
  256
370
   -1
100
AcDbDimension
  2
*D13
 10
280
 20
0
 30
0
 11
277
 21
125.35
 31
0
 70
   32
 71
    5
 72
    0
  3
Standard
 53
0
210
0
220
0
230
1
100
AcDbAlignedDimension
 13
300
 23
250.6999999999999
 33
0
 14
300
 24
0
 34
0
 50
90
100
AcDbRotatedDimension
  0
DIMENSION
  5
15C
100
AcDbEntity
  8
rozmir_lyst
  6
ByLayer
 62
  256
370
   -1
100
AcDbDimension
  2
*D14
 10
290
 20
248
 30
0
 11
287
 21
249.0999999999999
 31
0
 70
   32
 71
    5
 72
    0
  3
Standard
 53
0
210
0
220
0
230
1
100
AcDbAlignedDimension
 13
300
 23
250.6999999999999
 33
0
 14
300
 24
247.5
 34
0
 50
90
100
AcDbRotatedDimension
  0
DIMENSION
  5
15D
100
AcDbEntity
  8
rozmir_lyst
  6
ByLayer
 62
  256
370
   -1
100
AcDbDimension
  2
*D15
 10
435
 20
250
 30
0
 11
432
 21
248.75
 31
0
 70
   32
 71
    5
 72
    0
  3
Standard
 53
0
210
0
220
0
230
1
100
AcDbAlignedDimension
 13
426.8
 23
247.5
 33
0
 14
426.8
 24
250
 34
0
 50
90
100
AcDbRotatedDimension
  0
DIMENSION
  5
15E
100
AcDbEntity
  8
rozmir_lyst
  6
ByLayer
 62
  256
370
   -1
100
AcDbDimension
  2
*D16
 10
435
 20
125
 30
0
 11
432
 21
124
 31
0
 70
   32
 71
    5
 72
    0
  3
Standard
 53
0
210
0
220
0
230
1
100
AcDbAlignedDimension
 13
426.8
 23
0.5
 33
0
 14
426.8
 24
247.5
 34
0
 50
90
100
AcDbRotatedDimension
  0
DIMENSION
  5
15F
100
AcDbEntity
  8
rozmir_lyst
  6
ByLayer
 62
  256
370
   -1
100
AcDbDimension
  2
*D17
 10
290
 20
0
 30
0
 11
287
 21
0.25
 31
0
 70
   32
 71
    5
 72
    0
  3
Standard
 53
0
210
0
220
0
230
1
100
AcDbAlignedDimension
 13
300
 23
0.5
 33
0
 14
300
 24
0
 34
0
 50
90
100
AcDbRotatedDimension
  0
LWPOLYLINE
  5
160
100
AcDbEntity
  8
lyst
  6
DASHED2
 62
  256
370
   -1
100
AcDbPolyline
 90
    5
 70
    0
 43
0
 10
300
 20
247.5
 10
300
 20
250.6999999999999
 10
426.8
 20
250
 10
426.8
 20
247.5
 10
300
 20
247.5
  0
LWPOLYLINE
  5
161
100
AcDbEntity
  8
lyst
  6
CONTINUOUS
 62
  256
370
   -1
100
AcDbPolyline
 90
    5
 70
    1
 43
0
 10
299.9999999999999
 20
0.5
 10
426.8
 20
0.5
 10
426.8
 20
247.5
 10
300
 20
247.5
 10
300
 20
247.5
  0
DIMENSION
  5
162
100
AcDbEntity
  8
rozmir_lyst
  6
ByLayer
 62
  256
370
   -1
100
AcDbDimension
  2
*D18
 10
435
 20
1
 30
0
 11
432
 21
3
 31
0
 70
   32
 71
    5
 72
    0
  3
Standard
 53
0
210
0
220
0
230
1
100
AcDbAlignedDimension
 13
426.8
 23
-0.5
 33
0
 14
426.8
 24
0.5
 34
0
 50
90
100
AcDbRotatedDimension
  0
DIMENSION
  5
163
100
AcDbEntity
  8
rozmir_lyst
  6
ByLayer
 62
  256
370
   -1
100
AcDbDimension
  2
*D19
 10
460
 20
251
 30
0
 11
457
 21
125.65
 31
0
 70
   32
 71
    5
  3
Standard
 53
0
210
0
220
0
230
1
100
AcDbAlignedDimension
 13
470
 23
0
 33
0
 14
470
 24
251.3
 34
0
 50
90
100
AcDbRotatedDimension
  0
DIMENSION
  5
164
100
AcDbEntity
  8
rozmir_lyst
  6
ByLayer
 62
  256
370
   -1
100
AcDbDimension
  2
*D20
 10
596.9
 20
-13
 30
0
 11
533.45
 21
-10
 31
0
 70
   32
 71
    5
  3
Standard
 53
0
210
0
220
0
230
1
100
AcDbAlignedDimension
 13
470
 23
0
 33
0
 14
596.9
 24
-0.3000000000000002
 34
0
100
AcDbRotatedDimension
  0
DIMENSION
  5
165
100
AcDbEntity
  8
rozmir_lyst
  6
ByLayer
 62
  256
370
   -1
100
AcDbDimension
  2
*D21
 10
610
 20
0
 30
0
 11
607
 21
125.3
 31
0
 70
   32
 71
    5
  3
Standard
 53
0
210
0
220
0
230
1
100
AcDbAlignedDimension
 13
596.9
 23
250.9
 33
0
 14
596.9
 24
-0.3000000000000002
 34
0
 50
90
100
AcDbRotatedDimension
  0
LWPOLYLINE
  5
166
100
AcDbEntity
  8
lyst
  6
ByLayer
 62
  256
370
   -1
100
AcDbPolyline
 90
    5
 70
    1
 43
0
 10
470
 20
0
 10
470
 20
251.3
 10
596.9
 20
250.9
 10
596.9
 20
-0.3000000000000002
 10
470
 20
0
  0
DIMENSION
  5
167
100
AcDbEntity
  8
rozmir_lyst
  6
ByLayer
 62
  256
370
   -1
100
AcDbDimension
  2
*D22
 10
596.9
 20
250.9
 30
0
 11
525
 21
117
 31
0
 70
   33
 71
    5
  3
Standard
 53
0
210
0
220
0
230
1
100
AcDbAlignedDimension
 13
470
 23
0
 33
0
 14
596.9
 24
250.9
 34
0
  0
DIMENSION
  5
168
100
AcDbEntity
  8
rozmir_lyst
  6
ByLayer
 62
  256
370
   -1
100
AcDbDimension
  2
*D23
 10
596.9000000000001
 20
-0.2999999999999429
 30
0
 11
541
 21
119
 31
0
 70
   33
 71
    5
  3
Standard
 53
0
210
0
220
0
230
1
100
AcDbAlignedDimension
 13
470
 23
251.3
 33
0
 14
596.9
 24
-0.3000000000000002
 34
0
  0
LINE
  5
169
100
AcDbEntity
  8
lyst
  6
DASHED2
 62
  256
370
   -1
100
AcDbLine
 10
596.9
 20
249.9
 11
470
 21
249.9
  0
LINE
  5
16A
100
AcDbEntity
  8
rozmir_lyst
  6
DASHED2
 62
  256
370
   -1
100
AcDbLine
 10
470
 20
2.899999999999983
 11
596.9000000000001
 21
2.899999999999983
  0
DIMENSION
  5
16B
100
AcDbEntity
  8
rozmir_lyst
  6
ByLayer
 62
  256
370
   -1
100
AcDbDimension
  2
*D24
 10
604
 20
250
 30
0
 11
601
 21
250.4
 31
0
 70
   32
 71
    5
  3
Standard
 53
0
210
0
220
0
230
1
100
AcDbAlignedDimension
 13
596.9
 23
249.9
 33
0
 14
596.9
 24
250.9
 34
0
 50
90
100
AcDbRotatedDimension
  0
DIMENSION
  5
16C
100
AcDbEntity
  8
rozmir_lyst
  6
ByLayer
 62
  256
370
   -1
100
AcDbDimension
  2
*D25
 10
466
 20
249.5
 30
0
 11
463
 21
250.6
 31
0
 70
   32
 71
    5
  3
Standard
 53
0
210
0
220
0
230
1
100
AcDbAlignedDimension
 13
470
 23
251.3
 33
0
 14
470
 24
249.9
 34
0
 50
90
100
AcDbRotatedDimension
  0
DIMENSION
  5
16D
100
AcDbEntity
  8
rozmir_lyst
  6
ByLayer
 62
  256
370
   -1
100
AcDbDimension
  2
*D26
 10
466
 20
2.5
 30
0
 11
463
 21
126.4
 31
0
 70
   32
 71
    5
  3
Standard
 53
0
210
0
220
0
230
1
100
AcDbAlignedDimension
 13
470
 23
249.9
 33
0
 14
470
 24
2.899999999999983
 34
0
 50
90
100
AcDbRotatedDimension
  0
DIMENSION
  5
16E
100
AcDbEntity
  8
rozmir_lyst
  6
ByLayer
 62
  256
370
   -1
100
AcDbDimension
  2
*D27
 10
466
 20
4.898587196589413e-16
 30
0
 11
463
 21
1.449999999999992
 31
0
 70
   32
 71
    5
  3
Standard
 53
0
210
0
220
0
230
1
100
AcDbAlignedDimension
 13
470
 23
2.899999999999983
 33
0
 14
470
 24
0
 34
0
 50
90
100
AcDbRotatedDimension
  0
DIMENSION
  5
16F
100
AcDbEntity
  8
rozmir_lyst
  6
ByLayer
 62
  256
370
   -1
100
AcDbDimension
  2
*D28
 10
605
 20
2.499999999999999
 30
0
 11
602
 21
1.299999999999991
 31
0
 70
   32
 71
    5
  3
Standard
 53
0
210
0
220
0
230
1
100
AcDbAlignedDimension
 13
596.9
 23
-0.3000000000000002
 33
0
 14
596.9
 24
2.899999999999983
 34
0
 50
90
100
AcDbRotatedDimension
  0
ENDSEC
  0
SECTION
  2
OBJECTS
  0
DICTIONARY
  5
C
330
0
100
AcDbDictionary
281
    1
  3
ACAD_GROUP
350
D
  0
DICTIONARY
  5
D
330
C
100
AcDbDictionary
281
    1
  0
ENDSEC
  0
EOF
