999
dxfrw 0.6.3
  0
SECTION
  2
HEADER
  9
$ACADVER
  1
AC1021
  9
$DWGCODEPAGE
  3
ANSI_1252
  9
$INSBASE
 10
0
 20
0
 30
0
  9
$EXTMIN
 10
-92.95
 20
-137
 30
0
  9
$EXTMAX
 10
109.0000000000002
 20
80.00132003423577
 30
0
  9
$LIMMIN
 10
0
 20
0
  9
$LIMMAX
 10
420
 20
297
  9
$ORTHOMODE
 70
    0
  9
$REGENMODE
 70
    1
  9
$FILLMODE
 70
    1
  9
$QTEXTMODE
 70
    0
  9
$MIRRTEXT
 70
    0
  9
$LTSCALE
 40
1
  9
$ATTMODE
 70
    0
  9
$TEXTSIZE
 40
2.5
  9
$TRACEWID
 40
15.68
  9
$TEXTSTYLE
  7
STANDARD
  9
$CLAYER
  8
rozmir
  9
$CELTYPE
  6
BYLAYER
  9
$CECOLOR
 62
  256
  9
$CELTSCALE
 40
1
  9
$DISPSILH
 70
    0
  9
$DIMSCALE
 40
1
  9
$DIMASZ
 40
3
  9
$DIMEXO
 40
1
  9
$DIMDLI
 40
3.75
  9
$DIMRND
 40
0
  9
$DIMDLE
 40
0
  9
$DIMEXE
 40
2
  9
$DIMTP
 40
0
  9
$DIMTM
 40
0
  9
$DIMTXT
 40
4
  9
$DIMCEN
 40
2.5
  9
$DIMTSZ
 40
0
  9
$DIMTOL
 70
    0
  9
$DIMLIM
 70
    0
  9
$DIMTIH
 70
    0
  9
$DIMTOH
 70
    0
  9
$DIMSE1
 70
    0
  9
$DIMSE2
 70
    0
  9
$DIMTAD
 70
    1
  9
$DIMZIN
 70
    8
  9
$DIMBLK
  1

  9
$DIMASO
 70
    1
  9
$DIMSHO
 70
    1
  9
$DIMPOST
  1

  9
$DIMAPOST
  1

  9
$DIMALT
 70
    0
  9
$DIMALTD
 70
    3
  9
$DIMALTF
 40
0.03937
  9
$DIMLFAC
 40
1
  9
$DIMTOFL
 70
    1
  9
$DIMTVP
 40
0
  9
$DIMTIX
 70
    0
  9
$DIMSOXD
 70
    0
  9
$DIMSAH
 70
    0
  9
$DIMBLK1
  1

  9
$DIMBLK2
  1

  9
$DIMSTYLE
  2
STANDARD
  9
$DIMCLRD
 70
    0
  9
$DIMCLRE
 70
    0
  9
$DIMCLRT
 70
    0
  9
$DIMTFAC
 40
1
  9
$DIMGAP
 40
1
  9
$DIMJUST
 70
    0
  9
$DIMSD1
 70
    0
  9
$DIMSD2
 70
    0
  9
$DIMTOLJ
 70
    0
  9
$DIMTZIN
 70
    8
  9
$DIMALTZ
 70
    0
  9
$DIMALTTZ
 70
    0
  9
$DIMUPT
 70
    0
  9
$DIMDEC
 70
    1
  9
$DIMTDEC
 70
    2
  9
$DIMALTU
 70
    2
  9
$DIMALTTD
 70
    3
  9
$DIMTXSTY
  7
standard
  9
$DIMAUNIT
 70
    0
  9
$DIMADEC
 70
    0
  9
$DIMALTRND
 40
0
  9
$DIMAZIN
 70
    0
  9
$DIMDSEP
 70
   44
  9
$DIMATFIT
 70
    3
  9
$DIMFRAC
 70
    0
  9
$DIMLDRBLK
  1
STANDARD
  9
$DIMLUNIT
 70
    2
  9
$DIMLWD
 70
   -2
  9
$DIMLWE
 70
   -2
  9
$DIMTMOVE
 70
    0
  9
$DIMFXL
 40
1
  9
$DIMFXLON
 70
    0
  9
$DIMJOGANG
 40
0.7854
  9
$DIMTFILL
 70
    0
  9
$DIMTFILLCLR
 70
    0
  9
$DIMARCSYM
 70
    0
  9
$DIMLTYPE
  6

  9
$DIMLTEX1
  6

  9
$DIMLTEX2
  6

  9
$LUNITS
 70
    2
  9
$LUPREC
 70
    2
  9
$SKETCHINC
 40
1
  9
$FILLETRAD
 40
0
  9
$AUNITS
 70
    0
  9
$AUPREC
 70
    2
  9
$MENU
  1
.
  9
$ELEVATION
 40
0
  9
$PELEVATION
 40
0
  9
$THICKNESS
 40
0
  9
$LIMCHECK
 70
    0
  9
$CHAMFERA
 40
0
  9
$CHAMFERB
 40
0
  9
$CHAMFERC
 40
0
  9
$CHAMFERD
 40
0
  9
$SKPOLY
 70
    0
  9
$USRTIMER
 70
    1
  9
$ANGBASE
 50
0
  9
$ANGDIR
 70
    0
  9
$PDMODE
 70
   34
  9
$PDSIZE
 40
0
  9
$PLINEWID
 40
0
  9
$SPLFRAME
 70
    0
  9
$SPLINETYPE
 70
    2
  9
$SPLINESEGS
 70
    8
  9
$HANDSEED
  5
20000
  9
$SURFTAB1
 70
    6
  9
$SURFTAB2
 70
    6
  9
$SURFTYPE
 70
    6
  9
$SURFU
 70
    6
  9
$SURFV
 70
    6
  9
$UCSBASE
  2

  9
$UCSNAME
  2

  9
$UCSORG
 10
0
 20
0
 30
0
  9
$UCSXDIR
 10
1
 20
0
 30
0
  9
$UCSYDIR
 10
0
 20
1
 30
0
  9
$UCSORTHOREF
  2

  9
$UCSORTHOVIEW
 70
    0
  9
$UCSORGTOP
 10
0
 20
0
 30
0
  9
$UCSORGBOTTOM
 10
0
 20
0
 30
0
  9
$UCSORGLEFT
 10
0
 20
0
 30
0
  9
$UCSORGRIGHT
 10
0
 20
0
 30
0
  9
$UCSORGFRONT
 10
0
 20
0
 30
0
  9
$UCSORGBACK
 10
0
 20
0
 30
0
  9
$PUCSBASE
  2

  9
$PUCSNAME
  2

  9
$PUCSORG
 10
0
 20
0
 30
0
  9
$PUCSXDIR
 10
1
 20
0
 30
0
  9
$PUCSYDIR
 10
0
 20
1
 30
0
  9
$PUCSORTHOREF
  2

  9
$PUCSORTHOVIEW
 70
    0
  9
$PUCSORGTOP
 10
0
 20
0
 30
0
  9
$PUCSORGBOTTOM
 10
0
 20
0
 30
0
  9
$PUCSORGLEFT
 10
0
 20
0
 30
0
  9
$PUCSORGRIGHT
 10
0
 20
0
 30
0
  9
$PUCSORGFRONT
 10
0
 20
0
 30
0
  9
$PUCSORGBACK
 10
0
 20
0
 30
0
  9
$USERI1
 70
    0
  9
$USERI2
 70
    0
  9
$USERI3
 70
    0
  9
$USERI4
 70
    0
  9
$USERI5
 70
    0
  9
$USERR1
 40
0
  9
$USERR2
 40
0
  9
$USERR3
 40
0
  9
$USERR4
 40
0
  9
$USERR5
 40
0
  9
$WORLDVIEW
 70
    1
  9
$SHADEDGE
 70
    3
  9
$SHADEDIF
 70
   70
  9
$TILEMODE
 70
    1
  9
$MAXACTVP
 70
   64
  9
$PINSBASE
 10
10.59564102564103
 20
8.181025641025641
 30
0
  9
$PLIMCHECK
 70
    0
  9
$PEXTMIN
 10
0
 20
0
 30
0
  9
$PEXTMAX
 10
0
 20
0
 30
0
  9
$GRIDMODE
 70
    1
  9
$SNAPSTYLE
 70
    0
  9
$GRIDUNIT
 10
0
 20
0
  9
$PLIMMIN
 10
0
 20
0
  9
$PLIMMAX
 10
29.7
 20
21
  9
$UNITMODE
 70
    0
  9
$VISRETAIN
 70
    1
  9
$PLINEGEN
 70
    0
  9
$PSLTSCALE
 70
    1
  9
$TREEDEPTH
 70
 3020
  9
$CMLSTYLE
  2
Standard
  9
$CMLJUST
 70
    0
  9
$CMLSCALE
 40
20
  9
$PROXYGRAPHICS
 70
    1
  9
$MEASUREMENT
 70
    1
  9
$CELWEIGHT
370
   -1
  9
$ENDCAPS
280
    0
  9
$JOINSTYLE
280
    0
  9
$LWDISPLAY
290
    0
  9
$INSUNITS
 70
    5
  9
$HYPERLINKBASE
  1

  9
$STYLESHEET
  1

  9
$XEDIT
290
    1
  9
$CEPSNTYPE
380
    0
  9
$PSTYLEMODE
290
    1
  9
$EXTNAMES
290
    1
  9
$PSVPSCALE
 40
0.1394871337067869
  9
$OLESTARTUP
290
    0
  9
$SORTENTS
280
  127
  9
$INDEXCTL
280
    0
  9
$HIDETEXT
280
    1
  9
$XCLIPFRAME
290
    0
  9
$HALOGAP
280
    0
  9
$OBSCOLOR
 70
  257
  9
$OBSLTYPE
280
    0
  9
$INTERSECTIONDISPLAY
280
    0
  9
$INTERSECTIONCOLOR
 70
  257
  9
$DIMASSOC
280
    1
  9
$PROJECTNAME
  1

  9
$CAMERADISPLAY
290
    0
  9
$LENSLENGTH
 40
50
  9
$CAMERAHEIGHT
 40
0
  9
$STEPSPERSEC
 40
2
  9
$STEPSIZE
 40
50
  9
$3DDWFPREC
 40
2
  9
$PSOLWIDTH
 40
5
  9
$PSOLHEIGHT
 40
80
  9
$LOFTANG1
 40
1.570796326794897
  9
$LOFTANG2
 40
1.570796326794897
  9
$LOFTMAG1
 40
0
  9
$LOFTMAG2
 40
0
  9
$LOFTPARAM
 70
    7
  9
$LOFTNORMALS
280
    1
  9
$LATITUDE
 40
1
  9
$LONGITUDE
 40
1
  9
$NORTHDIRECTION
 40
0
  9
$TIMEZONE
 70
-8000
  9
$LIGHTGLYPHDISPLAY
280
    1
  9
$TILEMODELIGHTSYNCH
280
    1
  9
$SOLIDHIST
280
    1
  9
$SHOWHIST
280
    1
  9
$DWFFRAME
280
    2
  9
$DGNFRAME
280
    0
  9
$REALWORLDSCALE
290
    1
  9
$INTERFERECOLOR
 62
    1
  9
$CSHADOW
280
    0
  9
$SHADOWPLANELOCATION
 40
0
  0
ENDSEC
  0
SECTION
  2
CLASSES
  0
ENDSEC
  0
SECTION
  2
TABLES
  0
TABLE
  2
VPORT
  5
8
330
0
100
AcDbSymbolTable
 70
    1
  0
VPORT
  5
31
330
2
100
AcDbSymbolTableRecord
100
AcDbViewportTableRecord
  2
*ACTIVE
 70
    0
 10
0
 20
0
 11
1
 21
1
 12
100.647278911117
 22
42.16025646379438
 13
0
 23
0
 14
10
 24
10
 15
10
 25
10
 16
0
 26
0
 36
1
 17
0
 27
0
 37
0
 40
225.268036987921
 41
1.715596330275229
 42
50
 43
0
 44
0
 50
0
 51
0
 71
    0
 72
  100
 73
    1
 74
    3
 75
    0
 76
    1
 77
    0
 78
    0
281
    0
 65
    1
110
0
120
0
130
0
111
1
121
0
131
0
112
0
122
1
132
0
 79
    0
146
0
348
10020
 60
    7
 61
    5
292
1
282
    1
141
0
142
0
 63
  250
421
3358443
  0
ENDTAB
  0
TABLE
  2
LTYPE
  5
5
330
0
100
AcDbSymbolTable
 70
    4
  0
LTYPE
  5
14
330
5
100
AcDbSymbolTableRecord
100
AcDbLinetypeTableRecord
  2
ByBlock
 70
    0
  3

 72
   65
 73
    0
 40
0
  0
LTYPE
  5
15
330
5
100
AcDbSymbolTableRecord
100
AcDbLinetypeTableRecord
  2
ByLayer
 70
    0
  3

 72
   65
 73
    0
 40
0
  0
LTYPE
  5
16
330
5
100
AcDbSymbolTableRecord
100
AcDbLinetypeTableRecord
  2
Continuous
 70
    0
  3
Solid line
 72
   65
 73
    0
 40
0
  0
LTYPE
  5
32
330
5
100
AcDbSymbolTableRecord
100
AcDbLinetypeTableRecord
  2
DOT
 70
    0
  3
Dot . . . . . . . . . . . . . . . . . . . . . .
 72
   65
 73
    2
 40
6.35
 49
0
 74
    0
 49
-6.35
 74
    0
  0
LTYPE
  5
33
330
5
100
AcDbSymbolTableRecord
100
AcDbLinetypeTableRecord
  2
DOTTINY
 70
    0
  3
Dot (.15x) .....................................
 72
   65
 73
    2
 40
0.9525
 49
0
 74
    0
 49
-0.9525
 74
    0
  0
LTYPE
  5
34
330
5
100
AcDbSymbolTableRecord
100
AcDbLinetypeTableRecord
  2
DOT2
 70
    0
  3
Dot (.5x) .....................................
 72
   65
 73
    2
 40
3.175
 49
0
 74
    0
 49
-3.175
 74
    0
  0
LTYPE
  5
35
330
5
100
AcDbSymbolTableRecord
100
AcDbLinetypeTableRecord
  2
DOTX2
 70
    0
  3
Dot (2x) .  .  .  .  .  .  .  .  .  .  .  .  .
 72
   65
 73
    2
 40
12.7
 49
0
 74
    0
 49
-12.7
 74
    0
  0
LTYPE
  5
36
330
5
100
AcDbSymbolTableRecord
100
AcDbLinetypeTableRecord
  2
DASHED
 70
    0
  3
Dashed _ _ _ _ _ _ _ _ _ _ _ _ _ _ _ _ _
 72
   65
 73
    2
 40
19.05
 49
12.7
 74
    0
 49
-6.35
 74
    0
  0
LTYPE
  5
37
330
5
100
AcDbSymbolTableRecord
100
AcDbLinetypeTableRecord
  2
DASHEDTINY
 70
    0
  3
Dashed (.15x) _ _ _ _ _ _ _ _ _ _ _ _ _ _ _ _ _
 72
   65
 73
    2
 40
2.8575
 49
1.905
 74
    0
 49
-0.9525
 74
    0
  0
LTYPE
  5
38
330
5
100
AcDbSymbolTableRecord
100
AcDbLinetypeTableRecord
  2
DASHED2
 70
    0
  3
Dashed (.5x) _ _ _ _ _ _ _ _ _ _ _ _ _ _ _ _ _
 72
   65
 73
    2
 40
9.524999999999999
 49
6.35
 74
    0
 49
-3.175
 74
    0
  0
LTYPE
  5
39
330
5
100
AcDbSymbolTableRecord
100
AcDbLinetypeTableRecord
  2
DASHEDX2
 70
    0
  3
Dashed (2x) ____  ____  ____  ____  ____  ___
 72
   65
 73
    2
 40
38.09999999999999
 49
25.4
 74
    0
 49
-12.7
 74
    0
  0
LTYPE
  5
3A
330
5
100
AcDbSymbolTableRecord
100
AcDbLinetypeTableRecord
  2
DASHDOT
 70
    0
  3
Dash dot __ . __ . __ . __ . __ . __ . __ . __
 72
   65
 73
    4
 40
25.4
 49
12.7
 74
    0
 49
-6.35
 74
    0
 49
0
 74
    0
 49
-6.35
 74
    0
  0
LTYPE
  5
3B
330
5
100
AcDbSymbolTableRecord
100
AcDbLinetypeTableRecord
  2
DASHDOTTINY
 70
    0
  3
Dash dot (.15x) _._._._._._._._._._._._._._._.
 72
   65
 73
    4
 40
3.81
 49
1.905
 74
    0
 49
-0.9525
 74
    0
 49
0
 74
    0
 49
-0.9525
 74
    0
  0
LTYPE
  5
3C
330
5
100
AcDbSymbolTableRecord
100
AcDbLinetypeTableRecord
  2
DASHDOT2
 70
    0
  3
Dash dot (.5x) _._._._._._._._._._._._._._._.
 72
   65
 73
    4
 40
12.7
 49
6.35
 74
    0
 49
-3.175
 74
    0
 49
0
 74
    0
 49
-3.175
 74
    0
  0
LTYPE
  5
3D
330
5
100
AcDbSymbolTableRecord
100
AcDbLinetypeTableRecord
  2
DASHDOTX2
 70
    0
  3
Dash dot (2x) ____  .  ____  .  ____  .  ___
 72
   65
 73
    4
 40
50.8
 49
25.4
 74
    0
 49
-12.7
 74
    0
 49
0
 74
    0
 49
-12.7
 74
    0
  0
LTYPE
  5
3E
330
5
100
AcDbSymbolTableRecord
100
AcDbLinetypeTableRecord
  2
DIVIDE
 70
    0
  3
Divide ____ . . ____ . . ____ . . ____ . . ____
 72
   65
 73
    6
 40
31.75
 49
12.7
 74
    0
 49
-6.35
 74
    0
 49
0
 74
    0
 49
-6.35
 74
    0
 49
0
 74
    0
 49
-6.35
 74
    0
  0
LTYPE
  5
3F
330
5
100
AcDbSymbolTableRecord
100
AcDbLinetypeTableRecord
  2
DIVIDETINY
 70
    0
  3
Divide (.15x) __..__..__..__..__..__..__..__.._
 72
   65
 73
    6
 40
4.7625
 49
1.905
 74
    0
 49
-0.9525
 74
    0
 49
0
 74
    0
 49
-0.9525
 74
    0
 49
0
 74
    0
 49
-0.9525
 74
    0
  0
LTYPE
  5
40
330
5
100
AcDbSymbolTableRecord
100
AcDbLinetypeTableRecord
  2
DIVIDE2
 70
    0
  3
Divide (.5x) __..__..__..__..__..__..__..__.._
 72
   65
 73
    6
 40
15.875
 49
6.35
 74
    0
 49
-3.175
 74
    0
 49
0
 74
    0
 49
-3.175
 74
    0
 49
0
 74
    0
 49
-3.175
 74
    0
  0
LTYPE
  5
41
330
5
100
AcDbSymbolTableRecord
100
AcDbLinetypeTableRecord
  2
DIVIDEX2
 70
    0
  3
Divide (2x) ________  .  .  ________  .  .  _
 72
   65
 73
    6
 40
63.5
 49
25.4
 74
    0
 49
-12.7
 74
    0
 49
0
 74
    0
 49
-12.7
 74
    0
 49
0
 74
    0
 49
-12.7
 74
    0
  0
LTYPE
  5
42
330
5
100
AcDbSymbolTableRecord
100
AcDbLinetypeTableRecord
  2
BORDER
 70
    0
  3
Border __ __ . __ __ . __ __ . __ __ . __ __ .
 72
   65
 73
    6
 40
44.45
 49
12.7
 74
    0
 49
-6.35
 74
    0
 49
12.7
 74
    0
 49
-6.35
 74
    0
 49
0
 74
    0
 49
-6.35
 74
    0
  0
LTYPE
  5
43
330
5
100
AcDbSymbolTableRecord
100
AcDbLinetypeTableRecord
  2
BORDERTINY
 70
    0
  3
Border (.15x) __.__.__.__.__.__.__.__.__.__.__.
 72
   65
 73
    6
 40
6.6675
 49
1.905
 74
    0
 49
-0.9525
 74
    0
 49
1.905
 74
    0
 49
-0.9525
 74
    0
 49
0
 74
    0
 49
-0.9525
 74
    0
  0
LTYPE
  5
44
330
5
100
AcDbSymbolTableRecord
100
AcDbLinetypeTableRecord
  2
BORDER2
 70
    0
  3
Border (.5x) __.__.__.__.__.__.__.__.__.__.__.
 72
   65
 73
    6
 40
22.225
 49
6.35
 74
    0
 49
-3.175
 74
    0
 49
6.35
 74
    0
 49
-3.175
 74
    0
 49
0
 74
    0
 49
-3.175
 74
    0
  0
LTYPE
  5
45
330
5
100
AcDbSymbolTableRecord
100
AcDbLinetypeTableRecord
  2
BORDERX2
 70
    0
  3
Border (2x) ____  ____  .  ____  ____  .  ___
 72
   65
 73
    6
 40
88.89999999999999
 49
25.4
 74
    0
 49
-12.7
 74
    0
 49
25.4
 74
    0
 49
-12.7
 74
    0
 49
0
 74
    0
 49
-12.7
 74
    0
  0
LTYPE
  5
46
330
5
100
AcDbSymbolTableRecord
100
AcDbLinetypeTableRecord
  2
CENTER
 70
    0
  3
Center ____ _ ____ _ ____ _ ____ _ ____ _ ____
 72
   65
 73
    4
 40
50.8
 49
31.75
 74
    0
 49
-6.35
 74
    0
 49
6.35
 74
    0
 49
-6.35
 74
    0
  0
LTYPE
  5
47
330
5
100
AcDbSymbolTableRecord
100
AcDbLinetypeTableRecord
  2
CENTERTINY
 70
    0
  3
Center (.15x) ___ _ ___ _ ___ _ ___ _ ___ _ ___
 72
   65
 73
    4
 40
7.619999999999999
 49
4.7625
 74
    0
 49
-0.9525
 74
    0
 49
0.9525
 74
    0
 49
-0.9525
 74
    0
  0
LTYPE
  5
48
330
5
100
AcDbSymbolTableRecord
100
AcDbLinetypeTableRecord
  2
CENTER2
 70
    0
  3
Center (.5x) ___ _ ___ _ ___ _ ___ _ ___ _ ___
 72
   65
 73
    4
 40
28.575
 49
19.05
 74
    0
 49
-3.175
 74
    0
 49
3.175
 74
    0
 49
-3.175
 74
    0
  0
LTYPE
  5
49
330
5
100
AcDbSymbolTableRecord
100
AcDbLinetypeTableRecord
  2
CENTERX2
 70
    0
  3
Center (2x) ________  __  ________  __  _____
 72
   65
 73
    4
 40
101.6
 49
63.5
 74
    0
 49
-12.7
 74
    0
 49
12.7
 74
    0
 49
-12.7
 74
    0
  0
ENDTAB
  0
TABLE
  2
LAYER
  5
2
330
0
100
AcDbSymbolTable
 70
    1
  0
LAYER
  5
10
330
2
100
AcDbSymbolTableRecord
100
AcDbLayerTableRecord
  2
0
 70
    0
 62
    7
  6
CONTINUOUS
370
   -3
390
F
1001
LibreCad
1070
    1
  0
LAYER
  5
4A
330
2
100
AcDbSymbolTableRecord
100
AcDbLayerTableRecord
  2
concreet
 70
    0
 62
    6
  6
CONTINUOUS
370
   50
390
F
  0
LAYER
  5
4B
330
2
100
AcDbSymbolTableRecord
100
AcDbLayerTableRecord
  2
fasad
 70
    0
 62
    3
  6
CONTINUOUS
370
   50
390
F
  0
LAYER
  5
4C
330
2
100
AcDbSymbolTableRecord
100
AcDbLayerTableRecord
  2
metal
 70
    0
 62
    5
  6
CONTINUOUS
370
   50
390
F
  0
LAYER
  5
4D
330
2
100
AcDbSymbolTableRecord
100
AcDbLayerTableRecord
  2
rozmir
 70
    0
 62
    4
  6
CONTINUOUS
370
   13
390
F
  0
LAYER
  5
4E
330
2
100
AcDbSymbolTableRecord
100
AcDbLayerTableRecord
  2
wall
 70
    0
 62
   56
420
8421376
  6
CONTINUOUS
370
   50
390
F
  0
ENDTAB
  0
TABLE
  2
STYLE
  5
3
330
0
100
AcDbSymbolTable
 70
    3
  0
STYLE
  5
4F
330
2
100
AcDbSymbolTableRecord
100
AcDbTextStyleTableRecord
  2
cyrillic_ii
 70
    0
 40
0
 41
1
 50
0
 71
    0
 42
1
  3
cyrillic_ii
  4

  0
STYLE
  5
50
330
2
100
AcDbSymbolTableRecord
100
AcDbTextStyleTableRecord
  2
Standard
 70
    0
 40
0
 41
1
 50
0
 71
    0
 42
1
  3
txt
  4

  0
ENDTAB
  0
TABLE
  2
VIEW
  5
6
330
0
100
AcDbSymbolTable
 70
    0
  0
ENDTAB
  0
TABLE
  2
UCS
  5
7
330
0
100
AcDbSymbolTable
 70
    0
  0
ENDTAB
  0
TABLE
  2
APPID
  5
9
330
0
100
AcDbSymbolTable
 70
    1
  0
APPID
  5
12
330
9
100
AcDbSymbolTableRecord
100
AcDbRegAppTableRecord
  2
ACAD
 70
    0
  0
APPID
  5
51
330
9
100
AcDbSymbolTableRecord
100
AcDbRegAppTableRecord
  2
LibreCad
 70
    0
  0
ENDTAB
  0
TABLE
  2
DIMSTYLE
  5
A
330
0
100
AcDbSymbolTable
 70
    1
100
AcDbDimStyleTable
 71
    1
  0
DIMSTYLE
105
52
330
A
100
AcDbSymbolTableRecord
100
AcDbDimStyleTableRecord
  2
Standard
 70
    0
 40
1
 41
3
 42
1
 43
0.38
 44
2
 45
0
 46
0
 47
0
 48
0
 49
1
140
4
141
0.09
142
0
143
25.4
144
1
145
0
146
1
147
1
148
0
 71
    0
 72
    0
 73
    0
 74
    1
 75
    0
 76
    0
 77
    0
 78
    8
 79
    0
170
    0
171
    2
172
    0
173
    0
174
    0
175
    0
176
    0
177
    0
178
    0
179
    0
271
    1
272
    4
273
    2
274
    2
275
    0
276
    0
277
    2
278
   44
279
    0
280
    0
281
    0
282
    0
283
    1
284
    0
285
    0
286
    0
288
    0
289
    3
340
standard
341

371
   -2
372
   -2
  0
ENDTAB
  0
TABLE
  2
BLOCK_RECORD
  5
1
330
0
100
AcDbSymbolTable
 70
    2
  0
BLOCK_RECORD
  5
1F
330
1
100
AcDbSymbolTableRecord
100
AcDbBlockTableRecord
  2
*Model_Space
 70
    0
280
    1
281
    0
  0
BLOCK_RECORD
  5
1E
330
1
100
AcDbSymbolTableRecord
100
AcDbBlockTableRecord
  2
*Paper_Space
 70
    0
280
    1
281
    0
  0
BLOCK_RECORD
  5
53
330
1
100
AcDbSymbolTableRecord
100
AcDbBlockTableRecord
  2
*D34
 70
    0
280
    1
281
    0
  0
BLOCK_RECORD
  5
56
330
1
100
AcDbSymbolTableRecord
100
AcDbBlockTableRecord
  2
*D37
 70
    0
280
    1
281
    0
  0
BLOCK_RECORD
  5
59
330
1
100
AcDbSymbolTableRecord
100
AcDbBlockTableRecord
  2
*D36
 70
    0
280
    1
281
    0
  0
BLOCK_RECORD
  5
5C
330
1
100
AcDbSymbolTableRecord
100
AcDbBlockTableRecord
  2
*D15
 70
    0
280
    1
281
    0
  0
BLOCK_RECORD
  5
5F
330
1
100
AcDbSymbolTableRecord
100
AcDbBlockTableRecord
  2
*D3
 70
    0
280
    1
281
    0
  0
BLOCK_RECORD
  5
62
330
1
100
AcDbSymbolTableRecord
100
AcDbBlockTableRecord
  2
*D18
 70
    0
280
    1
281
    0
  0
BLOCK_RECORD
  5
65
330
1
100
AcDbSymbolTableRecord
100
AcDbBlockTableRecord
  2
*D14
 70
    0
280
    1
281
    0
  0
BLOCK_RECORD
  5
68
330
1
100
AcDbSymbolTableRecord
100
AcDbBlockTableRecord
  2
*D7
 70
    0
280
    1
281
    0
  0
BLOCK_RECORD
  5
6B
330
1
100
AcDbSymbolTableRecord
100
AcDbBlockTableRecord
  2
*D21
 70
    0
280
    1
281
    0
  0
BLOCK_RECORD
  5
6E
330
1
100
AcDbSymbolTableRecord
100
AcDbBlockTableRecord
  2
*D17
 70
    0
280
    1
281
    0
  0
BLOCK_RECORD
  5
71
330
1
100
AcDbSymbolTableRecord
100
AcDbBlockTableRecord
  2
*D13
 70
    0
280
    1
281
    0
  0
BLOCK_RECORD
  5
74
330
1
100
AcDbSymbolTableRecord
100
AcDbBlockTableRecord
  2
*D20
 70
    0
280
    1
281
    0
  0
BLOCK_RECORD
  5
77
330
1
100
AcDbSymbolTableRecord
100
AcDbBlockTableRecord
  2
*D40
 70
    0
280
    1
281
    0
  0
BLOCK_RECORD
  5
7A
330
1
100
AcDbSymbolTableRecord
100
AcDbBlockTableRecord
  2
*D31
 70
    0
280
    1
281
    0
  0
BLOCK_RECORD
  5
7D
330
1
100
AcDbSymbolTableRecord
100
AcDbBlockTableRecord
  2
*D33
 70
    0
280
    1
281
    0
  0
BLOCK_RECORD
  5
80
330
1
100
AcDbSymbolTableRecord
100
AcDbBlockTableRecord
  2
*D38
 70
    0
280
    1
281
    0
  0
BLOCK_RECORD
  5
83
330
1
100
AcDbSymbolTableRecord
100
AcDbBlockTableRecord
  2
*D23
 70
    0
280
    1
281
    0
  0
BLOCK_RECORD
  5
86
330
1
100
AcDbSymbolTableRecord
100
AcDbBlockTableRecord
  2
*D32
 70
    0
280
    1
281
    0
  0
BLOCK_RECORD
  5
89
330
1
100
AcDbSymbolTableRecord
100
AcDbBlockTableRecord
  2
*D24
 70
    0
280
    1
281
    0
  0
BLOCK_RECORD
  5
8C
330
1
100
AcDbSymbolTableRecord
100
AcDbBlockTableRecord
  2
*D12
 70
    0
280
    1
281
    0
  0
BLOCK_RECORD
  5
8F
330
1
100
AcDbSymbolTableRecord
100
AcDbBlockTableRecord
  2
*D10
 70
    0
280
    1
281
    0
  0
BLOCK_RECORD
  5
92
330
1
100
AcDbSymbolTableRecord
100
AcDbBlockTableRecord
  2
*D25
 70
    0
280
    1
281
    0
  0
BLOCK_RECORD
  5
95
330
1
100
AcDbSymbolTableRecord
100
AcDbBlockTableRecord
  2
*D2
 70
    0
280
    1
281
    0
  0
BLOCK_RECORD
  5
98
330
1
100
AcDbSymbolTableRecord
100
AcDbBlockTableRecord
  2
*D27
 70
    0
280
    1
281
    0
  0
BLOCK_RECORD
  5
9B
330
1
100
AcDbSymbolTableRecord
100
AcDbBlockTableRecord
  2
*D19
 70
    0
280
    1
281
    0
  0
BLOCK_RECORD
  5
9E
330
1
100
AcDbSymbolTableRecord
100
AcDbBlockTableRecord
  2
*D9
 70
    0
280
    1
281
    0
  0
BLOCK_RECORD
  5
A1
330
1
100
AcDbSymbolTableRecord
100
AcDbBlockTableRecord
  2
*D8
 70
    0
280
    1
281
    0
  0
BLOCK_RECORD
  5
A4
330
1
100
AcDbSymbolTableRecord
100
AcDbBlockTableRecord
  2
*D16
 70
    0
280
    1
281
    0
  0
BLOCK_RECORD
  5
A7
330
1
100
AcDbSymbolTableRecord
100
AcDbBlockTableRecord
  2
*D35
 70
    0
280
    1
281
    0
  0
BLOCK_RECORD
  5
AA
330
1
100
AcDbSymbolTableRecord
100
AcDbBlockTableRecord
  2
*D22
 70
    0
280
    1
281
    0
  0
BLOCK_RECORD
  5
AD
330
1
100
AcDbSymbolTableRecord
100
AcDbBlockTableRecord
  2
*D4
 70
    0
280
    1
281
    0
  0
BLOCK_RECORD
  5
B0
330
1
100
AcDbSymbolTableRecord
100
AcDbBlockTableRecord
  2
*D5
 70
    0
280
    1
281
    0
  0
BLOCK_RECORD
  5
B3
330
1
100
AcDbSymbolTableRecord
100
AcDbBlockTableRecord
  2
*D1
 70
    0
280
    1
281
    0
  0
BLOCK_RECORD
  5
B6
330
1
100
AcDbSymbolTableRecord
100
AcDbBlockTableRecord
  2
*D29
 70
    0
280
    1
281
    0
  0
BLOCK_RECORD
  5
B9
330
1
100
AcDbSymbolTableRecord
100
AcDbBlockTableRecord
  2
*D41
 70
    0
280
    1
281
    0
  0
BLOCK_RECORD
  5
BC
330
1
100
AcDbSymbolTableRecord
100
AcDbBlockTableRecord
  2
*D26
 70
    0
280
    1
281
    0
  0
BLOCK_RECORD
  5
BF
330
1
100
AcDbSymbolTableRecord
100
AcDbBlockTableRecord
  2
*D6
 70
    0
280
    1
281
    0
  0
BLOCK_RECORD
  5
C2
330
1
100
AcDbSymbolTableRecord
100
AcDbBlockTableRecord
  2
*D28
 70
    0
280
    1
281
    0
  0
BLOCK_RECORD
  5
C5
330
1
100
AcDbSymbolTableRecord
100
AcDbBlockTableRecord
  2
*D30
 70
    0
280
    1
281
    0
  0
BLOCK_RECORD
  5
C8
330
1
100
AcDbSymbolTableRecord
100
AcDbBlockTableRecord
  2
*D11
 70
    0
280
    1
281
    0
  0
BLOCK_RECORD
  5
CB
330
1
100
AcDbSymbolTableRecord
100
AcDbBlockTableRecord
  2
*D39
 70
    0
280
    1
281
    0
  0
ENDTAB
  0
ENDSEC
  0
SECTION
  2
BLOCKS
  0
BLOCK
  5
20
330
1F
100
AcDbEntity
  8
0
100
AcDbBlockBegin
  2
*Model_Space
 70
    0
 10
0
 20
0
 30
0
  3
*Model_Space
  1

  0
ENDBLK
  5
21
330
1F
100
AcDbEntity
  8
0
100
AcDbBlockEnd
  0
BLOCK
  5
1C
330
1B
100
AcDbEntity
  8
0
100
AcDbBlockBegin
  2
*Paper_Space
 70
    0
 10
0
 20
0
 30
0
  3
*Paper_Space
  1

  0
ENDBLK
  5
1D
330
1F
100
AcDbEntity
  8
0
100
AcDbBlockEnd
  0
BLOCK
  5
54
330
53
100
AcDbEntity
  8
0
100
AcDbBlockBegin
  2
*D34
 70
    1
 10
0
 20
0
  3
*D34
  1

  0
LINE
  5
CE
100
AcDbEntity
  8
rozmir
  6
CONTINUOUS
 62
    7
370
    0
100
AcDbLine
 10
-61.89999999999999
 20
-65
 11
-71
 21
-57
  0
SOLID
  5
CF
100
AcDbEntity
  8
rozmir
  6
CONTINUOUS
 62
    7
370
    0
100
AcDbTrace
 10
-61.89999999999999
 20
-65
 30
0
 11
-64.4829478084943
 21
-63.39440901283602
 31
0
 12
-63.82329743211534
 22
-62.64405670970495
 32
0
 13
-63.82329743211534
 23
-62.64405670970495
 33
0
  0
ENDBLK
  5
55
330
53
100
AcDbEntity
  8
0
100
AcDbBlockEnd
  0
BLOCK
  5
57
330
56
100
AcDbEntity
  8
0
100
AcDbBlockBegin
  2
*D37
 70
    1
 10
0
 20
0
  3
*D37
  1

  0
LINE
  5
D0
100
AcDbEntity
  8
rozmir
  6
CONTINUOUS
 62
    7
370
    0
100
AcDbLine
 10
-20
 20
-60.8
 11
-12
 21
-57
  0
LINE
  5
D1
100
AcDbEntity
  8
rozmir
  6
CONTINUOUS
 62
    7
370
    0
100
AcDbLine
 10
-12
 20
-57
 11
38
 21
-57
  0
SOLID
  5
D2
100
AcDbEntity
  8
rozmir
  6
CONTINUOUS
 62
    7
370
    0
100
AcDbTrace
 10
-20
 20
-60.8
 30
0
 11
-17.50449920999833
 21
-59.06160487616631
 31
0
 12
-17.07583576387593
 22
-59.96405423642398
 32
0
 13
-17.07583576387593
 23
-59.96405423642398
 33
0
  0
ENDBLK
  5
58
330
56
100
AcDbEntity
  8
0
100
AcDbBlockEnd
  0
BLOCK
  5
5A
330
59
100
AcDbEntity
  8
0
100
AcDbBlockBegin
  2
*D36
 70
    1
 10
0
 20
0
  3
*D36
  1

  0
LINE
  5
D3
100
AcDbEntity
  8
rozmir
  6
CONTINUOUS
 62
    7
370
    0
100
AcDbLine
 10
-81.3
 20
-65
 11
-71
 21
-57
  0
LINE
  5
D4
100
AcDbEntity
  8
rozmir
  6
CONTINUOUS
 62
    7
370
    0
100
AcDbLine
 10
-71
 20
-57
 11
-21
 21
-57
  0
SOLID
  5
D5
100
AcDbEntity
  8
rozmir
  6
CONTINUOUS
 62
    7
370
    0
100
AcDbTrace
 10
-81.3
 20
-65
 30
0
 11
-79.23712889391503
 21
-62.76525066301664
 31
0
 12
-78.62428164154286
 22
-63.55429150044581
 32
0
 13
-78.62428164154286
 23
-63.55429150044581
 33
0
  0
ENDBLK
  5
5B
330
59
100
AcDbEntity
  8
0
100
AcDbBlockEnd
  0
BLOCK
  5
5D
330
5C
100
AcDbEntity
  8
0
100
AcDbBlockBegin
  2
*D15
 70
    1
 10
0
 20
0
  3
*D15
  1

  0
LINE
  5
D6
100
AcDbEntity
  8
rozmir
  6
ByBlock
 62
    0
370
   -2
100
AcDbLine
 10
70
 20
-2.999999999999993
 11
70
 21
22
  0
SOLID
  5
D7
100
AcDbEntity
  8
rozmir
  6
ByBlock
 62
    0
370
   -2
100
AcDbTrace
 10
70
 20
-2.999999999999993
 30
0
 11
69.50045841067259
 21
7.105427357601002e-15
 31
0
 12
70.49954158932741
 22
7.105427357601002e-15
 32
0
 13
70.49954158932741
 23
7.105427357601002e-15
 33
0
  0
SOLID
  5
D8
100
AcDbEntity
  8
rozmir
  6
ByBlock
 62
    0
370
   -2
100
AcDbTrace
 10
70
 20
22
 30
0
 11
70.49954158932741
 21
19
 31
0
 12
69.50045841067259
 22
19
 32
0
 13
69.50045841067259
 23
19
 33
0
  0
MTEXT
  5
D9
100
AcDbEntity
  8
rozmir
  6
CONTINUOUS
 62
    0
370
   -2
100
AcDbMText
 10
67
 20
9.500000000000005
 30
0
 40
4
 41
4.888888888889136
 71
    5
 72
    1
  1
25
  7
standard
210
0
220
0
230
1
 50
90
 73
    2
 44
1
  0
LINE
  5
DA
100
AcDbEntity
  8
rozmir
  6
ByBlock
 62
    0
370
   -2
100
AcDbLine
 10
41
 20
-3
 11
72
 21
-2.999999999999992
  0
LINE
  5
DB
100
AcDbEntity
  8
rozmir
  6
ByBlock
 62
    0
370
   -2
100
AcDbLine
 10
41
 20
22
 11
72
 21
22
  0
ENDBLK
  5
5E
330
5C
100
AcDbEntity
  8
0
100
AcDbBlockEnd
  0
BLOCK
  5
60
330
5F
100
AcDbEntity
  8
0
100
AcDbBlockBegin
  2
*D3
 70
    1
 10
0
 20
0
  3
*D3
  1

  0
LINE
  5
DC
100
AcDbEntity
  8
rozmir
  6
ByBlock
 62
    0
370
   -2
100
AcDbLine
 10
23
 20
-20
 11
-7.000000000000001
 21
-20
  0
SOLID
  5
DD
100
AcDbEntity
  8
rozmir
  6
ByBlock
 62
    0
370
   -2
100
AcDbTrace
 10
23
 20
-20
 30
0
 11
20
 21
-20.49954158932741
 31
0
 12
20
 22
-19.5004584106726
 32
0
 13
20
 23
-19.5004584106726
 33
0
  0
SOLID
  5
DE
100
AcDbEntity
  8
rozmir
  6
ByBlock
 62
    0
370
   -2
100
AcDbTrace
 10
-7.000000000000001
 20
-20
 30
0
 11
-4.000000000000001
 21
-19.50045841067259
 31
0
 12
-4.000000000000001
 22
-20.49954158932741
 32
0
 13
-4.000000000000001
 23
-20.49954158932741
 33
0
  0
MTEXT
  5
DF
100
AcDbEntity
  8
rozmir
  6
CONTINUOUS
 62
    0
370
   -2
100
AcDbMText
 10
8
 20
-17
 30
0
 40
4
 41
4.888888888889136
 71
    5
 72
    1
  1
30
  7
standard
210
0
220
0
230
1
 50
360
 73
    2
 44
1
  0
LINE
  5
E0
100
AcDbEntity
  8
rozmir
  6
ByBlock
 62
    0
370
   -2
100
AcDbLine
 10
23
 20
-11
 11
23
 21
-22
  0
LINE
  5
E1
100
AcDbEntity
  8
rozmir
  6
ByBlock
 62
    0
370
   -2
100
AcDbLine
 10
-7
 20
-11
 11
-7.000000000000001
 21
-22
  0
ENDBLK
  5
61
330
5F
100
AcDbEntity
  8
0
100
AcDbBlockEnd
  0
BLOCK
  5
63
330
62
100
AcDbEntity
  8
0
100
AcDbBlockBegin
  2
*D18
 70
    1
 10
0
 20
0
  3
*D18
  1

  0
LINE
  5
E2
100
AcDbEntity
  8
rozmir
  6
ByBlock
 62
    0
370
   -2
100
AcDbLine
 10
-20
 20
13.5
 11
-20
 21
-6.000000000000003
  0
SOLID
  5
E3
100
AcDbEntity
  8
rozmir
  6
ByBlock
 62
    0
370
   -2
100
AcDbTrace
 10
-20
 20
7.499999999999996
 30
0
 11
-20.49954158932741
 21
10.5
 31
0
 12
-19.50045841067259
 22
10.5
 32
0
 13
-19.50045841067259
 23
10.5
 33
0
  0
SOLID
  5
E4
100
AcDbEntity
  8
rozmir
  6
ByBlock
 62
    0
370
   -2
100
AcDbTrace
 10
-20
 20
-2.309263891220325e-15
 30
0
 11
-19.50045841067259
 21
-3.000000000000002
 31
0
 12
-20.49954158932741
 22
-3.000000000000002
 32
0
 13
-20.49954158932741
 23
-3.000000000000002
 33
0
  0
MTEXT
  5
E5
100
AcDbEntity
  8
rozmir
  6
CONTINUOUS
 62
    0
370
   -2
100
AcDbMText
 10
-23
 20
3.749999999999997
 30
0
 40
4
 41
6.444444444444692
 71
    5
 72
    1
  1
7,5
  7
standard
210
0
220
0
230
1
 50
90
 73
    2
 44
1
  0
LINE
  5
E6
100
AcDbEntity
  8
rozmir
  6
ByBlock
 62
    0
370
   -2
100
AcDbLine
 10
-2
 20
7.5
 11
-22
 21
7.499999999999996
  0
LINE
  5
E7
100
AcDbEntity
  8
rozmir
  6
ByBlock
 62
    0
370
   -2
100
AcDbLine
 10
-8
 20
1.224646799147353e-16
 11
-22
 21
-2.064334531390855e-15
  0
ENDBLK
  5
64
330
62
100
AcDbEntity
  8
0
100
AcDbBlockEnd
  0
BLOCK
  5
66
330
65
100
AcDbEntity
  8
0
100
AcDbBlockBegin
  2
*D14
 70
    1
 10
0
 20
0
  3
*D14
  1

  0
LINE
  5
E8
100
AcDbEntity
  8
rozmir
  6
CONTINUOUS
 62
    7
370
    0
100
AcDbLine
 10
31
 20
18
 11
60
 21
50
  0
LINE
  5
E9
100
AcDbEntity
  8
rozmir
  6
CONTINUOUS
 62
    7
370
    0
100
AcDbLine
 10
60
 20
50
 11
76
 21
50
  0
SOLID
  5
EA
100
AcDbEntity
  8
rozmir
  6
CONTINUOUS
 62
    7
370
    0
100
AcDbTrace
 10
31
 20
18
 30
0
 11
32.64440447482538
 21
20.55841273500623
 31
0
 12
33.38471207360778
 22
19.88750897360967
 32
0
 13
33.38471207360778
 23
19.88750897360967
 33
0
  0
ENDBLK
  5
67
330
65
100
AcDbEntity
  8
0
100
AcDbBlockEnd
  0
BLOCK
  5
69
330
68
100
AcDbEntity
  8
0
100
AcDbBlockBegin
  2
*D7
 70
    1
 10
0
 20
0
  3
*D7
  1

  0
LINE
  5
EB
100
AcDbEntity
  8
rozmir
  6
CONTINUOUS
 62
    7
370
    0
100
AcDbLine
 10
-4
 20
3
 11
-20
 21
-20
  0
LINE
  5
EC
100
AcDbEntity
  8
rozmir
  6
CONTINUOUS
 62
    7
370
    0
100
AcDbLine
 10
-20
 20
-20
 11
-88
 21
-20
  0
SOLID
  5
ED
100
AcDbEntity
  8
rozmir
  6
CONTINUOUS
 62
    7
370
    0
100
AcDbTrace
 10
-4
 20
3
 30
0
 11
-5.30311717540874
 21
0.252013932600367
 31
0
 12
-6.123269753782859
 22
0.8225548566867102
 32
0
 13
-6.123269753782859
 23
0.8225548566867102
 33
0
  0
ENDBLK
  5
6A
330
68
100
AcDbEntity
  8
0
100
AcDbBlockEnd
  0
BLOCK
  5
6C
330
6B
100
AcDbEntity
  8
0
100
AcDbBlockBegin
  2
*D21
 70
    1
 10
0
 20
0
  3
*D21
  1

  0
LINE
  5
EE
100
AcDbEntity
  8
rozmir
  6
ByBlock
 62
    0
370
   -2
100
AcDbLine
 10
-81.90000000000002
 20
-80.00000000000001
 11
-61.90000000000001
 21
-80.00000000000001
  0
SOLID
  5
EF
100
AcDbEntity
  8
rozmir
  6
ByBlock
 62
    0
370
   -2
100
AcDbTrace
 10
-81.90000000000002
 20
-80.00000000000001
 30
0
 11
-78.90000000000002
 21
-79.50045841067261
 31
0
 12
-78.90000000000002
 22
-80.49954158932742
 32
0
 13
-78.90000000000002
 23
-80.49954158932742
 33
0
  0
SOLID
  5
F0
100
AcDbEntity
  8
rozmir
  6
ByBlock
 62
    0
370
   -2
100
AcDbTrace
 10
-61.90000000000001
 20
-80.00000000000001
 30
0
 11
-64.90000000000001
 21
-80.49954158932742
 31
0
 12
-64.90000000000001
 22
-79.50045841067261
 32
0
 13
-64.90000000000001
 23
-79.50045841067261
 33
0
  0
MTEXT
  5
F1
100
AcDbEntity
  8
rozmir
  6
CONTINUOUS
 62
    0
370
   -2
100
AcDbMText
 10
-71.90000000000001
 20
-77.00000000000001
 30
0
 40
4
 41
4.888888888888888
 71
    5
 72
    1
  1
20
  7
standard
210
0
220
0
230
1
 50
0
 73
    2
 44
1
  0
LINE
  5
F2
100
AcDbEntity
  8
rozmir
  6
ByBlock
 62
    0
370
   -2
100
AcDbLine
 10
-81.90000000000002
 20
-72.80000000000001
 11
-81.90000000000002
 21
-82.00000000000001
  0
LINE
  5
F3
100
AcDbEntity
  8
rozmir
  6
ByBlock
 62
    0
370
   -2
100
AcDbLine
 10
-61.90000000000001
 20
-72.80000000000001
 11
-61.90000000000001
 21
-82.00000000000001
  0
ENDBLK
  5
6D
330
6B
100
AcDbEntity
  8
0
100
AcDbBlockEnd
  0
BLOCK
  5
6F
330
6E
100
AcDbEntity
  8
0
100
AcDbBlockBegin
  2
*D17
 70
    1
 10
0
 20
0
  3
*D17
  1

  0
LINE
  5
F4
100
AcDbEntity
  8
rozmir
  6
ByBlock
 62
    0
370
   -2
100
AcDbLine
 10
50
 20
6.000000000000004
 11
50
 21
-8.999999999999998
  0
SOLID
  5
F5
100
AcDbEntity
  8
rozmir
  6
ByBlock
 62
    0
370
   -2
100
AcDbTrace
 10
50
 20
3.552713678800501e-15
 30
0
 11
49.50045841067259
 21
3.000000000000004
 31
0
 12
50.49954158932741
 22
3.000000000000004
 32
0
 13
50.49954158932741
 23
3.000000000000004
 33
0
  0
SOLID
  5
F6
100
AcDbEntity
  8
rozmir
  6
ByBlock
 62
    0
370
   -2
100
AcDbTrace
 10
50
 20
-2.999999999999999
 30
0
 11
50.49954158932741
 21
-5.999999999999998
 31
0
 12
49.50045841067259
 22
-5.999999999999998
 32
0
 13
49.50045841067259
 23
-5.999999999999998
 33
0
  0
MTEXT
  5
F7
100
AcDbEntity
  8
rozmir
  6
CONTINUOUS
 62
    0
370
   -2
100
AcDbMText
 10
47
 20
-1.499999999999997
 30
0
 40
4
 41
1.777777777778026
 71
    5
 72
    1
  1
3
  7
standard
210
0
220
0
230
1
 50
90
 73
    2
 44
1
  0
LINE
  5
F8
100
AcDbEntity
  8
rozmir
  6
ByBlock
 62
    0
370
   -2
100
AcDbLine
 10
28.5
 20
0
 11
52
 21
3.552713678800501e-15
  0
LINE
  5
F9
100
AcDbEntity
  8
rozmir
  6
ByBlock
 62
    0
370
   -2
100
AcDbLine
 10
41
 20
-3
 11
52
 21
-2.999999999999999
  0
ENDBLK
  5
70
330
6E
100
AcDbEntity
  8
0
100
AcDbBlockEnd
  0
BLOCK
  5
72
330
71
100
AcDbEntity
  8
0
100
AcDbBlockBegin
  2
*D13
 70
    1
 10
0
 20
0
  3
*D13
  1

  0
LINE
  5
FA
100
AcDbEntity
  8
rozmir
  6
CONTINUOUS
 62
    7
370
    0
100
AcDbLine
 10
19
 20
16
 11
5
 21
60
  0
LINE
  5
FB
100
AcDbEntity
  8
rozmir
  6
CONTINUOUS
 62
    7
370
    0
100
AcDbLine
 10
5
 20
60
 11
-46
 21
60
  0
SOLID
  5
FC
100
AcDbEntity
  8
rozmir
  6
CONTINUOUS
 62
    7
370
    0
100
AcDbTrace
 10
19
 20
16
 30
0
 11
17.61436296951027
 21
18.70731450319378
 31
0
 12
18.56641508682804
 22
19.01024017688579
 32
0
 13
18.56641508682804
 23
19.01024017688579
 33
0
  0
ENDBLK
  5
73
330
71
100
AcDbEntity
  8
0
100
AcDbBlockEnd
  0
BLOCK
  5
75
330
74
100
AcDbEntity
  8
0
100
AcDbBlockBegin
  2
*D20
 70
    1
 10
0
 20
0
  3
*D20
  1

  0
LINE
  5
FD
100
AcDbEntity
  8
rozmir
  6
ByBlock
 62
    0
370
   -2
100
AcDbLine
 10
-27
 20
20
 11
-27
 21
1.4210854715202e-15
  0
SOLID
  5
FE
100
AcDbEntity
  8
rozmir
  6
ByBlock
 62
    0
370
   -2
100
AcDbTrace
 10
-27
 20
20
 30
0
 11
-26.50045841067259
 21
17
 31
0
 12
-27.49954158932741
 22
17
 32
0
 13
-27.49954158932741
 23
17
 33
0
  0
SOLID
  5
FF
100
AcDbEntity
  8
rozmir
  6
ByBlock
 62
    0
370
   -2
100
AcDbTrace
 10
-27
 20
1.4210854715202e-15
 30
0
 11
-27.49954158932741
 21
3.000000000000001
 31
0
 12
-26.50045841067259
 22
3.000000000000001
 32
0
 13
-26.50045841067259
 23
3.000000000000001
 33
0
  0
MTEXT
  5
100
100
AcDbEntity
  8
rozmir
  6
CONTINUOUS
 62
    0
370
   -2
100
AcDbMText
 10
-30
 20
10
 30
0
 40
4
 41
4.888888888888888
 71
    5
 72
    1
  1
20
  7
standard
210
0
220
0
230
1
 50
90
 73
    2
 44
1
  0
LINE
  5
101
100
AcDbEntity
  8
rozmir
  6
ByBlock
 62
    0
370
   -2
100
AcDbLine
 10
-8
 20
20
 11
-29
 21
20
  0
LINE
  5
102
100
AcDbEntity
  8
rozmir
  6
ByBlock
 62
    0
370
   -2
100
AcDbLine
 10
-8
 20
1.224646799147353e-16
 11
-29
 21
1.666014831349671e-15
  0
ENDBLK
  5
76
330
74
100
AcDbEntity
  8
0
100
AcDbBlockEnd
  0
BLOCK
  5
78
330
77
100
AcDbEntity
  8
0
100
AcDbBlockBegin
  2
*D40
 70
    1
 10
0
 20
0
  3
*D40
  1

  0
LINE
  5
103
100
AcDbEntity
  8
rozmir
  6
CONTINUOUS
 62
    7
370
    0
100
AcDbLine
 10
-18.8
 20
-109
 11
-10.8
 21
-105.2
  0
LINE
  5
104
100
AcDbEntity
  8
rozmir
  6
CONTINUOUS
 62
    7
370
    0
100
AcDbLine
 10
-10.8
 20
-105.2
 11
39.2
 21
-105.2
  0
SOLID
  5
105
100
AcDbEntity
  8
rozmir
  6
CONTINUOUS
 62
    7
370
    0
100
AcDbTrace
 10
-18.8
 20
-109
 30
0
 11
-16.30449920999833
 21
-107.2616048761663
 31
0
 12
-15.87583576387593
 22
-108.164054236424
 32
0
 13
-15.87583576387593
 23
-108.164054236424
 33
0
  0
ENDBLK
  5
79
330
77
100
AcDbEntity
  8
0
100
AcDbBlockEnd
  0
BLOCK
  5
7B
330
7A
100
AcDbEntity
  8
0
100
AcDbBlockBegin
  2
*D31
 70
    1
 10
0
 20
0
  3
*D31
  1

  0
LINE
  5
106
100
AcDbEntity
  8
rozmir
  6
ByBlock
 62
    0
370
   -2
100
AcDbLine
 10
76.00000000000001
 20
-71.7
 11
76.00000000000001
 21
-59.90000000000003
  0
SOLID
  5
107
100
AcDbEntity
  8
rozmir
  6
ByBlock
 62
    0
370
   -2
100
AcDbTrace
 10
76.00000000000001
 20
-71.7
 30
0
 11
75.50045841067261
 21
-68.7
 31
0
 12
76.49954158932742
 22
-68.7
 32
0
 13
76.49954158932742
 23
-68.7
 33
0
  0
SOLID
  5
108
100
AcDbEntity
  8
rozmir
  6
ByBlock
 62
    0
370
   -2
100
AcDbTrace
 10
76.00000000000001
 20
-59.90000000000003
 30
0
 11
76.49954158932742
 21
-62.90000000000003
 31
0
 12
75.50045841067261
 22
-62.90000000000003
 32
0
 13
75.50045841067261
 23
-62.90000000000003
 33
0
  0
MTEXT
  5
109
100
AcDbEntity
  8
rozmir
  6
CONTINUOUS
 62
    0
370
   -2
100
AcDbMText
 10
73.00000000000001
 20
-65.80000000000003
 30
0
 40
4
 41
7.777777777777778
 71
    5
 72
    1
  1
11,8
  7
standard
210
0
220
0
230
1
 50
90
 73
    2
 44
1
  0
LINE
  5
10A
100
AcDbEntity
  8
rozmir
  6
ByBlock
 62
    0
370
   -2
100
AcDbLine
 10
80.90000000000002
 20
-71.7
 11
74.00000000000001
 21
-71.7
  0
LINE
  5
10B
100
AcDbEntity
  8
rozmir
  6
ByBlock
 62
    0
370
   -2
100
AcDbLine
 10
80.8999981059382
 20
-59.90000000000003
 11
74.00000000000001
 21
-59.90000000000003
  0
ENDBLK
  5
7C
330
7A
100
AcDbEntity
  8
0
100
AcDbBlockEnd
  0
BLOCK
  5
7E
330
7D
100
AcDbEntity
  8
0
100
AcDbBlockBegin
  2
*D33
 70
    1
 10
0
 20
0
  3
*D33
  1

  0
LINE
  5
10C
100
AcDbEntity
  8
rozmir
  6
ByBlock
 62
    0
370
   -2
100
AcDbLine
 10
81.00000000000001
 20
-55
 11
93.80000000000003
 21
-55
  0
SOLID
  5
10D
100
AcDbEntity
  8
rozmir
  6
ByBlock
 62
    0
370
   -2
100
AcDbTrace
 10
81.00000000000001
 20
-55
 30
0
 11
84.00000000000001
 21
-54.50045841067259
 31
0
 12
84.00000000000001
 22
-55.49954158932741
 32
0
 13
84.00000000000001
 23
-55.49954158932741
 33
0
  0
SOLID
  5
10E
100
AcDbEntity
  8
rozmir
  6
ByBlock
 62
    0
370
   -2
100
AcDbTrace
 10
93.80000000000003
 20
-55
 30
0
 11
90.80000000000003
 21
-55.49954158932741
 31
0
 12
90.80000000000003
 22
-54.50045841067259
 32
0
 13
90.80000000000003
 23
-54.50045841067259
 33
0
  0
MTEXT
  5
10F
100
AcDbEntity
  8
rozmir
  6
CONTINUOUS
 62
    0
370
   -2
100
AcDbMText
 10
87.40000000000002
 20
-52
 30
0
 40
4
 41
8.666666666666666
 71
    5
 72
    1
  1
12,8
  7
standard
210
0
220
0
230
1
 50
0
 73
    2
 44
1
  0
LINE
  5
110
100
AcDbEntity
  8
rozmir
  6
ByBlock
 62
    0
370
   -2
100
AcDbLine
 10
81.00000000000001
 20
-60.20000000000003
 11
81.00000000000001
 21
-53
  0
LINE
  5
111
100
AcDbEntity
  8
rozmir
  6
ByBlock
 62
    0
370
   -2
100
AcDbLine
 10
93.80000000000003
 20
-60.20000000000003
 11
93.80000000000003
 21
-53
  0
ENDBLK
  5
7F
330
7D
100
AcDbEntity
  8
0
100
AcDbBlockEnd
  0
BLOCK
  5
81
330
80
100
AcDbEntity
  8
0
100
AcDbBlockBegin
  2
*D38
 70
    1
 10
0
 20
0
  3
*D38
  1

  0
LINE
  5
112
100
AcDbEntity
  8
rozmir
  6
CONTINUOUS
 62
    7
370
    0
100
AcDbLine
 10
-60.69999999999999
 20
-113.2
 11
-69.8
 21
-105.2
  0
SOLID
  5
113
100
AcDbEntity
  8
rozmir
  6
CONTINUOUS
 62
    7
370
    0
100
AcDbTrace
 10
-60.69999999999999
 20
-113.2
 30
0
 11
-63.2829478084943
 21
-111.594409012836
 31
0
 12
-62.62329743211534
 22
-110.844056709705
 32
0
 13
-62.62329743211534
 23
-110.844056709705
 33
0
  0
ENDBLK
  5
82
330
80
100
AcDbEntity
  8
0
100
AcDbBlockEnd
  0
BLOCK
  5
84
330
83
100
AcDbEntity
  8
0
100
AcDbBlockBegin
  2
*D23
 70
    1
 10
0
 20
0
  3
*D23
  1

  0
LINE
  5
114
100
AcDbEntity
  8
rozmir
  6
ByBlock
 62
    0
370
   -2
100
AcDbLine
 10
-91
 20
-80.00000000000001
 11
-75.90000000000001
 21
-80.00000000000001
  0
SOLID
  5
115
100
AcDbEntity
  8
rozmir
  6
ByBlock
 62
    0
370
   -2
100
AcDbTrace
 10
-85
 20
-80.00000000000001
 30
0
 11
-88
 21
-80.49954158932742
 31
0
 12
-88
 22
-79.50045841067261
 32
0
 13
-88
 23
-79.50045841067261
 33
0
  0
SOLID
  5
116
100
AcDbEntity
  8
rozmir
  6
ByBlock
 62
    0
370
   -2
100
AcDbTrace
 10
-81.90000000000001
 20
-80.00000000000001
 30
0
 11
-78.90000000000001
 21
-79.50045841067261
 31
0
 12
-78.90000000000001
 22
-80.49954158932742
 32
0
 13
-78.90000000000001
 23
-80.49954158932742
 33
0
  0
MTEXT
  5
117
100
AcDbEntity
  8
rozmir
  6
CONTINUOUS
 62
    0
370
   -2
100
AcDbMText
 10
-89.6722222222221
 20
-76.00000000000001
 30
0
 40
4
 41
5.555555555555803
 71
    5
 72
    1
  1
3,1
  7
standard
210
0
220
0
230
1
 50
0
 73
    2
 44
1
  0
LINE
  5
118
100
AcDbEntity
  8
rozmir
  6
ByBlock
 62
    0
370
   -2
100
AcDbLine
 10
-85
 20
-72.00000000000001
 11
-85
 21
-82.00000000000001
  0
LINE
  5
119
100
AcDbEntity
  8
rozmir
  6
ByBlock
 62
    0
370
   -2
100
AcDbLine
 10
-81.90000000000001
 20
-72.80000000000001
 11
-81.90000000000001
 21
-82.00000000000001
  0
ENDBLK
  5
85
330
83
100
AcDbEntity
  8
0
100
AcDbBlockEnd
  0
BLOCK
  5
87
330
86
100
AcDbEntity
  8
0
100
AcDbBlockBegin
  2
*D32
 70
    1
 10
0
 20
0
  3
*D32
  1

  0
LINE
  5
11A
100
AcDbEntity
  8
rozmir
  6
ByBlock
 62
    0
370
   -2
100
AcDbLine
 10
80.10000000000004
 20
-80
 11
94.70000000000002
 21
-80
  0
SOLID
  5
11B
100
AcDbEntity
  8
rozmir
  6
ByBlock
 62
    0
370
   -2
100
AcDbTrace
 10
80.10000000000004
 20
-80
 30
0
 11
83.10000000000004
 21
-79.50045841067259
 31
0
 12
83.10000000000004
 22
-80.49954158932741
 32
0
 13
83.10000000000004
 23
-80.49954158932741
 33
0
  0
SOLID
  5
11C
100
AcDbEntity
  8
rozmir
  6
ByBlock
 62
    0
370
   -2
100
AcDbTrace
 10
94.70000000000002
 20
-80
 30
0
 11
91.70000000000002
 21
-80.49954158932741
 31
0
 12
91.70000000000002
 22
-79.50045841067259
 32
0
 13
91.70000000000002
 23
-79.50045841067259
 33
0
  0
MTEXT
  5
11D
100
AcDbEntity
  8
rozmir
  6
CONTINUOUS
 62
    0
370
   -2
100
AcDbMText
 10
87.40000000000003
 20
-77
 30
0
 40
4
 41
9.111111111111359
 71
    5
 72
    1
  1
14,6
  7
standard
210
0
220
0
230
1
 50
0
 73
    2
 44
1
  0
LINE
  5
11E
100
AcDbEntity
  8
rozmir
  6
ByBlock
 62
    0
370
   -2
100
AcDbLine
 10
80.10000000000004
 20
-70.90000031389673
 11
80.10000000000004
 21
-82
  0
LINE
  5
11F
100
AcDbEntity
  8
rozmir
  6
ByBlock
 62
    0
370
   -2
100
AcDbLine
 10
94.70000000000002
 20
-70.90000000000002
 11
94.70000000000002
 21
-82
  0
ENDBLK
  5
88
330
86
100
AcDbEntity
  8
0
100
AcDbBlockEnd
  0
BLOCK
  5
8A
330
89
100
AcDbEntity
  8
0
100
AcDbBlockBegin
  2
*D24
 70
    1
 10
0
 20
0
  3
*D24
  1

  0
LINE
  5
120
100
AcDbEntity
  8
rozmir
  6
ByBlock
 62
    0
370
   -2
100
AcDbLine
 10
-85
 20
-135
 11
43.99999999999999
 21
-135
  0
SOLID
  5
121
100
AcDbEntity
  8
rozmir
  6
ByBlock
 62
    0
370
   -2
100
AcDbTrace
 10
-85
 20
-135
 30
0
 11
-82
 21
-134.5004584106726
 31
0
 12
-82
 22
-135.4995415893274
 32
0
 13
-82
 23
-135.4995415893274
 33
0
  0
SOLID
  5
122
100
AcDbEntity
  8
rozmir
  6
ByBlock
 62
    0
370
   -2
100
AcDbTrace
 10
43.99999999999999
 20
-135
 30
0
 11
40.99999999999999
 21
-135.4995415893274
 31
0
 12
40.99999999999999
 22
-134.5004584106726
 32
0
 13
40.99999999999999
 23
-134.5004584106726
 33
0
  0
MTEXT
  5
123
100
AcDbEntity
  8
rozmir
  6
CONTINUOUS
 62
    0
370
   -2
100
AcDbMText
 10
-20.5
 20
-132
 30
0
 40
4
 41
7.111111111111111
 71
    5
 72
    1
  1
129
  7
standard
210
0
220
0
230
1
 50
0
 73
    2
 44
1
  0
LINE
  5
124
100
AcDbEntity
  8
rozmir
  6
ByBlock
 62
    0
370
   -2
100
AcDbLine
 10
-85
 20
-121.8
 11
-85
 21
-137
  0
LINE
  5
125
100
AcDbEntity
  8
rozmir
  6
ByBlock
 62
    0
370
   -2
100
AcDbLine
 10
43.99999999999999
 20
-122
 11
43.99999999999999
 21
-137
  0
ENDBLK
  5
8B
330
89
100
AcDbEntity
  8
0
100
AcDbBlockEnd
  0
BLOCK
  5
8D
330
8C
100
AcDbEntity
  8
0
100
AcDbBlockBegin
  2
*D12
 70
    1
 10
0
 20
0
  3
*D12
  1

  0
LINE
  5
126
100
AcDbEntity
  8
rozmir
  6
CONTINUOUS
 62
    7
370
    0
100
AcDbLine
 10
9
 20
18
 11
0
 21
50
  0
LINE
  5
127
100
AcDbEntity
  8
rozmir
  6
CONTINUOUS
 62
    7
370
    0
100
AcDbLine
 10
0
 20
50
 11
-18
 21
50
  0
SOLID
  5
128
100
AcDbEntity
  8
rozmir
  6
CONTINUOUS
 62
    7
370
    0
100
AcDbTrace
 10
9
 20
18
 30
0
 11
7.706879088633144
 21
20.75270414466457
 31
0
 12
8.668647449857151
 22
21.02320149625882
 32
0
 13
8.668647449857151
 23
21.02320149625882
 33
0
  0
ENDBLK
  5
8E
330
8C
100
AcDbEntity
  8
0
100
AcDbBlockEnd
  0
BLOCK
  5
90
330
8F
100
AcDbEntity
  8
0
100
AcDbBlockBegin
  2
*D10
 70
    1
 10
0
 20
0
  3
*D10
  1

  0
LINE
  5
129
100
AcDbEntity
  8
rozmir
  6
CONTINUOUS
 62
    7
370
    0
100
AcDbLine
 10
38
 20
-7
 11
60
 21
-20
  0
LINE
  5
12A
100
AcDbEntity
  8
rozmir
  6
CONTINUOUS
 62
    7
370
    0
100
AcDbLine
 10
60
 20
-20
 11
107
 21
-20
  0
SOLID
  5
12B
100
AcDbEntity
  8
rozmir
  6
CONTINUOUS
 62
    7
370
    0
100
AcDbTrace
 10
38
 20
-7
 30
0
 11
40.83691103376013
 21
-8.096119330181617
 31
0
 12
40.32864813552577
 22
-8.956256542578231
 32
0
 13
40.32864813552577
 23
-8.956256542578231
 33
0
  0
ENDBLK
  5
91
330
8F
100
AcDbEntity
  8
0
100
AcDbBlockEnd
  0
BLOCK
  5
93
330
92
100
AcDbEntity
  8
0
100
AcDbBlockBegin
  2
*D25
 70
    1
 10
0
 20
0
  3
*D25
  1

  0
LINE
  5
12C
100
AcDbEntity
  8
rozmir
  6
ByBlock
 62
    0
370
   -2
100
AcDbLine
 10
-80.90000000000002
 20
-130
 11
-60.90000000000001
 21
-130
  0
SOLID
  5
12D
100
AcDbEntity
  8
rozmir
  6
ByBlock
 62
    0
370
   -2
100
AcDbTrace
 10
-80.90000000000002
 20
-130
 30
0
 11
-77.90000000000002
 21
-129.5004584106726
 31
0
 12
-77.90000000000002
 22
-130.4995415893274
 32
0
 13
-77.90000000000002
 23
-130.4995415893274
 33
0
  0
SOLID
  5
12E
100
AcDbEntity
  8
rozmir
  6
ByBlock
 62
    0
370
   -2
100
AcDbTrace
 10
-60.90000000000001
 20
-130
 30
0
 11
-63.90000000000001
 21
-130.4995415893274
 31
0
 12
-63.90000000000001
 22
-129.5004584106726
 32
0
 13
-63.90000000000001
 23
-129.5004584106726
 33
0
  0
MTEXT
  5
12F
100
AcDbEntity
  8
rozmir
  6
CONTINUOUS
 62
    0
370
   -2
100
AcDbMText
 10
-70.90000000000001
 20
-127
 30
0
 40
4
 41
4.888888888888888
 71
    5
 72
    1
  1
20
  7
standard
210
0
220
0
230
1
 50
0
 73
    2
 44
1
  0
LINE
  5
130
100
AcDbEntity
  8
rozmir
  6
ByBlock
 62
    0
370
   -2
100
AcDbLine
 10
-80.90000000000002
 20
-122.8
 11
-80.90000000000002
 21
-132
  0
LINE
  5
131
100
AcDbEntity
  8
rozmir
  6
ByBlock
 62
    0
370
   -2
100
AcDbLine
 10
-60.90000000000001
 20
-122.8
 11
-60.90000000000001
 21
-132
  0
ENDBLK
  5
94
330
92
100
AcDbEntity
  8
0
100
AcDbBlockEnd
  0
BLOCK
  5
96
330
95
100
AcDbEntity
  8
0
100
AcDbBlockBegin
  2
*D2
 70
    1
 10
0
 20
0
  3
*D2
  1

  0
LINE
  5
132
100
AcDbEntity
  8
rozmir
  6
ByBlock
 62
    0
370
   -2
100
AcDbLine
 10
40
 20
-30
 11
27.5
 21
-30
  0
SOLID
  5
133
100
AcDbEntity
  8
rozmir
  6
ByBlock
 62
    0
370
   -2
100
AcDbTrace
 10
40
 20
-30
 30
0
 11
37
 21
-30.49954158932741
 31
0
 12
37
 22
-29.50045841067259
 32
0
 13
37
 23
-29.50045841067259
 33
0
  0
SOLID
  5
134
100
AcDbEntity
  8
rozmir
  6
ByBlock
 62
    0
370
   -2
100
AcDbTrace
 10
27.5
 20
-30
 30
0
 11
30.5
 21
-29.50045841067259
 31
0
 12
30.5
 22
-30.49954158932741
 32
0
 13
30.5
 23
-30.49954158932741
 33
0
  0
MTEXT
  5
135
100
AcDbEntity
  8
rozmir
  6
CONTINUOUS
 62
    0
370
   -2
100
AcDbMText
 10
33.75
 20
-27
 30
0
 40
4
 41
8.666666666666915
 71
    5
 72
    1
  1
12,5
  7
standard
210
0
220
0
230
1
 50
360
 73
    2
 44
1
  0
LINE
  5
136
100
AcDbEntity
  8
rozmir
  6
ByBlock
 62
    0
370
   -2
100
AcDbLine
 10
40
 20
-1
 11
40
 21
-32
  0
LINE
  5
137
100
AcDbEntity
  8
rozmir
  6
ByBlock
 62
    0
370
   -2
100
AcDbLine
 10
27.5
 20
-1
 11
27.5
 21
-32
  0
ENDBLK
  5
97
330
95
100
AcDbEntity
  8
0
100
AcDbBlockEnd
  0
BLOCK
  5
99
330
98
100
AcDbEntity
  8
0
100
AcDbBlockBegin
  2
*D27
 70
    1
 10
0
 20
0
  3
*D27
  1

  0
LINE
  5
138
100
AcDbEntity
  8
rozmir
  6
ByBlock
 62
    0
370
   -2
100
AcDbLine
 10
55
 20
-108
 11
55
 21
-121.8
  0
SOLID
  5
139
100
AcDbEntity
  8
rozmir
  6
ByBlock
 62
    0
370
   -2
100
AcDbTrace
 10
55
 20
-108
 30
0
 11
55.49954158932741
 21
-111
 31
0
 12
54.50045841067259
 22
-111
 32
0
 13
54.50045841067259
 23
-111
 33
0
  0
SOLID
  5
13A
100
AcDbEntity
  8
rozmir
  6
ByBlock
 62
    0
370
   -2
100
AcDbTrace
 10
55
 20
-121.8
 30
0
 11
54.50045841067259
 21
-118.8
 31
0
 12
55.49954158932741
 22
-118.8
 32
0
 13
55.49954158932741
 23
-118.8
 33
0
  0
MTEXT
  5
13B
100
AcDbEntity
  8
rozmir
  6
CONTINUOUS
 62
    0
370
   -2
100
AcDbMText
 10
52
 20
-114.9
 30
0
 40
4
 41
8.666666666666913
 71
    5
 72
    1
  1
13,8
  7
standard
210
0
220
0
230
1
 50
90
 73
    2
 44
1
  0
LINE
  5
13C
100
AcDbEntity
  8
rozmir
  6
ByBlock
 62
    0
370
   -2
100
AcDbLine
 10
57.8
 20
-108
 11
53
 21
-108
  0
LINE
  5
13D
100
AcDbEntity
  8
rozmir
  6
ByBlock
 62
    0
370
   -2
100
AcDbLine
 10
57.8
 20
-121.8
 11
53
 21
-121.8
  0
ENDBLK
  5
9A
330
98
100
AcDbEntity
  8
0
100
AcDbBlockEnd
  0
BLOCK
  5
9C
330
9B
100
AcDbEntity
  8
0
100
AcDbBlockBegin
  2
*D19
 70
    1
 10
0
 20
0
  3
*D19
  1

  0
LINE
  5
13E
100
AcDbEntity
  8
rozmir
  6
ByBlock
 62
    0
370
   -2
100
AcDbLine
 10
-20
 20
10.5
 11
-20
 21
26
  0
SOLID
  5
13F
100
AcDbEntity
  8
rozmir
  6
ByBlock
 62
    0
370
   -2
100
AcDbTrace
 10
-20
 20
16.5
 30
0
 11
-19.50045841067259
 21
13.5
 31
0
 12
-20.49954158932741
 22
13.5
 32
0
 13
-20.49954158932741
 23
13.5
 33
0
  0
SOLID
  5
140
100
AcDbEntity
  8
rozmir
  6
ByBlock
 62
    0
370
   -2
100
AcDbTrace
 10
-20
 20
20
 30
0
 11
-20.49954158932741
 21
23
 31
0
 12
-19.50045841067259
 22
23
 32
0
 13
-19.50045841067259
 23
23
 33
0
  0
MTEXT
  5
141
100
AcDbEntity
  8
rozmir
  6
CONTINUOUS
 62
    0
370
   -2
100
AcDbMText
 10
-23
 20
24.22222222222247
 30
0
 40
4
 41
6.44444444444494
 71
    5
 72
    1
  1
3,5
  7
standard
210
0
220
0
230
1
 50
90
 73
    2
 44
1
  0
LINE
  5
142
100
AcDbEntity
  8
rozmir
  6
ByBlock
 62
    0
370
   -2
100
AcDbLine
 10
-2
 20
16.5
 11
-22
 21
16.5
  0
LINE
  5
143
100
AcDbEntity
  8
rozmir
  6
ByBlock
 62
    0
370
   -2
100
AcDbLine
 10
-3
 20
20
 11
-22
 21
20
  0
ENDBLK
  5
9D
330
9B
100
AcDbEntity
  8
0
100
AcDbBlockEnd
  0
BLOCK
  5
9F
330
9E
100
AcDbEntity
  8
0
100
AcDbBlockBegin
  2
*D9
 70
    1
 10
0
 20
0
  3
*D9
  1

  0
LINE
  5
144
100
AcDbEntity
  8
rozmir
  6
CONTINUOUS
 62
    7
370
    0
100
AcDbLine
 10
37
 20
29
 11
60
 21
60
  0
LINE
  5
145
100
AcDbEntity
  8
rozmir
  6
CONTINUOUS
 62
    7
370
    0
100
AcDbLine
 10
60
 20
60
 11
107
 21
60
  0
SOLID
  5
146
100
AcDbEntity
  8
rozmir
  6
CONTINUOUS
 62
    7
370
    0
100
AcDbTrace
 10
37
 20
29
 30
0
 11
38.38635990711077
 21
31.70694440419886
 31
0
 12
39.18872163793002
 22
31.11164376520394
 32
0
 13
39.18872163793002
 23
31.11164376520394
 33
0
  0
ENDBLK
  5
A0
330
9E
100
AcDbEntity
  8
0
100
AcDbBlockEnd
  0
BLOCK
  5
A2
330
A1
100
AcDbEntity
  8
0
100
AcDbBlockBegin
  2
*D8
 70
    1
 10
0
 20
0
  3
*D8
  1

  0
LINE
  5
147
100
AcDbEntity
  8
rozmir
  6
CONTINUOUS
 62
    7
370
    0
100
AcDbLine
 10
-5
 20
-8
 11
-20
 21
-30
  0
LINE
  5
148
100
AcDbEntity
  8
rozmir
  6
CONTINUOUS
 62
    7
370
    0
100
AcDbLine
 10
-20
 20
-30
 11
-82
 21
-30
  0
SOLID
  5
149
100
AcDbEntity
  8
rozmir
  6
CONTINUOUS
 62
    7
370
    0
100
AcDbTrace
 10
-5
 20
-8
 30
0
 11
-6.277275553952685
 21
-10.76009220113072
 31
0
 12
-7.102745393896373
 22
-10.19727185571457
 32
0
 13
-7.102745393896373
 23
-10.19727185571457
 33
0
  0
ENDBLK
  5
A3
330
A1
100
AcDbEntity
  8
0
100
AcDbBlockEnd
  0
BLOCK
  5
A5
330
A4
100
AcDbEntity
  8
0
100
AcDbBlockBegin
  2
*D16
 70
    1
 10
0
 20
0
  3
*D16
  1

  0
LINE
  5
14A
100
AcDbEntity
  8
rozmir
  6
ByBlock
 62
    0
370
   -2
100
AcDbLine
 10
60
 20
-8.999999999999996
 11
60
 21
9.000000000000004
  0
SOLID
  5
14B
100
AcDbEntity
  8
rozmir
  6
ByBlock
 62
    0
370
   -2
100
AcDbTrace
 10
60
 20
-2.999999999999997
 30
0
 11
60.49954158932741
 21
-5.999999999999996
 31
0
 12
59.50045841067259
 22
-5.999999999999996
 32
0
 13
59.50045841067259
 23
-5.999999999999996
 33
0
  0
SOLID
  5
14C
100
AcDbEntity
  8
rozmir
  6
ByBlock
 62
    0
370
   -2
100
AcDbTrace
 10
60
 20
3.000000000000003
 30
0
 11
59.50045841067259
 21
6.000000000000004
 31
0
 12
60.49954158932741
 22
6.000000000000004
 32
0
 13
60.49954158932741
 23
6.000000000000004
 33
0
  0
MTEXT
  5
14D
100
AcDbEntity
  8
rozmir
  6
CONTINUOUS
 62
    0
370
   -2
100
AcDbMText
 10
57
 20
3.920107718544707e-15
 30
0
 40
4
 41
1.777777777778026
 71
    5
 72
    1
  1
6
  7
standard
210
0
220
0
230
1
 50
90
 73
    2
 44
1
  0
LINE
  5
14E
100
AcDbEntity
  8
rozmir
  6
ByBlock
 62
    0
370
   -2
100
AcDbLine
 10
41
 20
-3
 11
62
 21
-2.999999999999997
  0
LINE
  5
14F
100
AcDbEntity
  8
rozmir
  6
ByBlock
 62
    0
370
   -2
100
AcDbLine
 10
37
 20
3
 11
62
 21
3.000000000000003
  0
ENDBLK
  5
A6
330
A4
100
AcDbEntity
  8
0
100
AcDbBlockEnd
  0
BLOCK
  5
A8
330
A7
100
AcDbEntity
  8
0
100
AcDbBlockBegin
  2
*D35
 70
    1
 10
0
 20
0
  3
*D35
  1

  0
LINE
  5
150
100
AcDbEntity
  8
rozmir
  6
CONTINUOUS
 62
    7
370
    0
100
AcDbLine
 10
-20
 20
-70
 11
-12
 21
-57
  0
SOLID
  5
151
100
AcDbEntity
  8
rozmir
  6
CONTINUOUS
 62
    7
370
    0
100
AcDbTrace
 10
-20
 20
-70
 30
0
 11
-18.85314647209749
 21
-67.1832165889076
 31
0
 12
-18.0022689739165
 22
-67.70683351086514
 32
0
 13
-18.0022689739165
 23
-67.70683351086514
 33
0
  0
ENDBLK
  5
A9
330
A7
100
AcDbEntity
  8
0
100
AcDbBlockEnd
  0
BLOCK
  5
AB
330
AA
100
AcDbEntity
  8
0
100
AcDbBlockBegin
  2
*D22
 70
    1
 10
0
 20
0
  3
*D22
  1

  0
LINE
  5
152
100
AcDbEntity
  8
rozmir
  6
ByBlock
 62
    0
370
   -2
100
AcDbLine
 10
-85
 20
-85.00000000000001
 11
62
 21
-85.00000000000001
  0
SOLID
  5
153
100
AcDbEntity
  8
rozmir
  6
ByBlock
 62
    0
370
   -2
100
AcDbTrace
 10
-85
 20
-85.00000000000001
 30
0
 11
-82
 21
-84.50045841067261
 31
0
 12
-82
 22
-85.49954158932742
 32
0
 13
-82
 23
-85.49954158932742
 33
0
  0
SOLID
  5
154
100
AcDbEntity
  8
rozmir
  6
ByBlock
 62
    0
370
   -2
100
AcDbTrace
 10
62
 20
-85.00000000000001
 30
0
 11
59
 21
-85.49954158932742
 31
0
 12
59
 22
-84.50045841067261
 32
0
 13
59
 23
-84.50045841067261
 33
0
  0
MTEXT
  5
155
100
AcDbEntity
  8
rozmir
  6
CONTINUOUS
 62
    0
370
   -2
100
AcDbMText
 10
-11.5
 20
-82.00000000000001
 30
0
 40
4
 41
7.555555555555555
 71
    5
 72
    1
  1
147
  7
standard
210
0
220
0
230
1
 50
0
 73
    2
 44
1
  0
LINE
  5
156
100
AcDbEntity
  8
rozmir
  6
ByBlock
 62
    0
370
   -2
100
AcDbLine
 10
-85
 20
-71.80000000000001
 11
-85
 21
-87.00000000000001
  0
LINE
  5
157
100
AcDbEntity
  8
rozmir
  6
ByBlock
 62
    0
370
   -2
100
AcDbLine
 10
62
 20
-72.00000000000001
 11
62
 21
-87.00000000000001
  0
ENDBLK
  5
AC
330
AA
100
AcDbEntity
  8
0
100
AcDbBlockEnd
  0
BLOCK
  5
AE
330
AD
100
AcDbEntity
  8
0
100
AcDbBlockBegin
  2
*D4
 70
    1
 10
0
 20
0
  3
*D4
  1

  0
LINE
  5
158
100
AcDbEntity
  8
rozmir
  6
ByBlock
 62
    0
370
   -2
100
AcDbLine
 10
33.49999999999999
 20
40
 11
17
 21
40
  0
SOLID
  5
159
100
AcDbEntity
  8
rozmir
  6
ByBlock
 62
    0
370
   -2
100
AcDbTrace
 10
27.49999999999999
 20
40
 30
0
 11
30.49999999999999
 21
40.49954158932741
 31
0
 12
30.49999999999999
 22
39.50045841067259
 32
0
 13
30.49999999999999
 23
39.50045841067259
 33
0
  0
SOLID
  5
15A
100
AcDbEntity
  8
rozmir
  6
ByBlock
 62
    0
370
   -2
100
AcDbTrace
 10
23
 20
40
 30
0
 11
20
 21
39.50045841067259
 31
0
 12
20
 22
40.49954158932741
 32
0
 13
20
 23
40.49954158932741
 33
0
  0
MTEXT
  5
15B
100
AcDbEntity
  8
rozmir
  6
CONTINUOUS
 62
    0
370
   -2
100
AcDbMText
 10
31.94444444444456
 20
43
 30
0
 40
4
 41
6.888888888889136
 71
    5
 72
    1
  1
4,5
  7
standard
210
0
220
0
230
1
 50
360
 73
    2
 44
1
  0
LINE
  5
15C
100
AcDbEntity
  8
rozmir
  6
ByBlock
 62
    0
370
   -2
100
AcDbLine
 10
27.49999999999999
 20
26
 11
27.49999999999999
 21
42
  0
LINE
  5
15D
100
AcDbEntity
  8
rozmir
  6
ByBlock
 62
    0
370
   -2
100
AcDbLine
 10
23
 20
26
 11
23
 21
42
  0
ENDBLK
  5
AF
330
AD
100
AcDbEntity
  8
0
100
AcDbBlockEnd
  0
BLOCK
  5
B1
330
B0
100
AcDbEntity
  8
0
100
AcDbBlockBegin
  2
*D5
 70
    1
 10
0
 20
0
  3
*D5
  1

  0
LINE
  5
15E
100
AcDbEntity
  8
rozmir
  6
ByBlock
 62
    0
370
   -2
100
AcDbLine
 10
36
 20
50
 11
23
 21
50
  0
SOLID
  5
15F
100
AcDbEntity
  8
rozmir
  6
ByBlock
 62
    0
370
   -2
100
AcDbTrace
 10
36
 20
50
 30
0
 11
33
 21
49.50045841067259
 31
0
 12
33
 22
50.49954158932741
 32
0
 13
33
 23
50.49954158932741
 33
0
  0
SOLID
  5
160
100
AcDbEntity
  8
rozmir
  6
ByBlock
 62
    0
370
   -2
100
AcDbTrace
 10
23
 20
50
 30
0
 11
26
 21
50.49954158932741
 31
0
 12
26
 22
49.50045841067259
 32
0
 13
26
 23
49.50045841067259
 33
0
  0
MTEXT
  5
161
100
AcDbEntity
  8
rozmir
  6
CONTINUOUS
 62
    0
370
   -2
100
AcDbMText
 10
29.5
 20
53
 30
0
 40
4
 41
4.000000000000248
 71
    5
 72
    1
  1
13
  7
standard
210
0
220
0
230
1
 50
360
 73
    2
 44
1
  0
LINE
  5
162
100
AcDbEntity
  8
rozmir
  6
ByBlock
 62
    0
370
   -2
100
AcDbLine
 10
36
 20
26
 11
36
 21
52
  0
LINE
  5
163
100
AcDbEntity
  8
rozmir
  6
ByBlock
 62
    0
370
   -2
100
AcDbLine
 10
23
 20
26
 11
23
 21
52
  0
ENDBLK
  5
B2
330
B0
100
AcDbEntity
  8
0
100
AcDbBlockEnd
  0
BLOCK
  5
B4
330
B3
100
AcDbEntity
  8
0
100
AcDbBlockBegin
  2
*D1
 70
    1
 10
0
 20
0
  3
*D1
  1

  0
LINE
  5
164
100
AcDbEntity
  8
rozmir
  6
ByBlock
 62
    0
370
   -2
100
AcDbLine
 10
46
 20
-20
 11
30
 21
-20
  0
SOLID
  5
165
100
AcDbEntity
  8
rozmir
  6
ByBlock
 62
    0
370
   -2
100
AcDbTrace
 10
40
 20
-20
 30
0
 11
43
 21
-19.50045841067259
 31
0
 12
43
 22
-20.49954158932741
 32
0
 13
43
 23
-20.49954158932741
 33
0
  0
SOLID
  5
166
100
AcDbEntity
  8
rozmir
  6
ByBlock
 62
    0
370
   -2
100
AcDbTrace
 10
36
 20
-20
 30
0
 11
33
 21
-20.49954158932741
 31
0
 12
33
 22
-19.50045841067259
 32
0
 13
33
 23
-19.50045841067259
 33
0
  0
MTEXT
  5
167
100
AcDbEntity
  8
rozmir
  6
CONTINUOUS
 62
    0
370
   -2
100
AcDbMText
 10
38
 20
-17
 30
0
 40
4
 41
2.222222222222222
 71
    5
 72
    1
  1
4
  7
standard
210
0
220
0
230
1
 50
360
 73
    2
 44
1
  0
LINE
  5
168
100
AcDbEntity
  8
rozmir
  6
ByBlock
 62
    0
370
   -2
100
AcDbLine
 10
40
 20
-1
 11
40
 21
-22
  0
LINE
  5
169
100
AcDbEntity
  8
rozmir
  6
ByBlock
 62
    0
370
   -2
100
AcDbLine
 10
36
 20
3
 11
36
 21
-22
  0
ENDBLK
  5
B5
330
B3
100
AcDbEntity
  8
0
100
AcDbBlockEnd
  0
BLOCK
  5
B7
330
B6
100
AcDbEntity
  8
0
100
AcDbBlockBegin
  2
*D29
 70
    1
 10
0
 20
0
  3
*D29
  1

  0
LINE
  5
16A
100
AcDbEntity
  8
rozmir
  6
ByBlock
 62
    0
370
   -2
100
AcDbLine
 10
65
 20
-127.8
 11
65
 21
-114.8
  0
SOLID
  5
16B
100
AcDbEntity
  8
rozmir
  6
ByBlock
 62
    0
370
   -2
100
AcDbTrace
 10
65
 20
-121.8
 30
0
 11
65.49954158932741
 21
-124.8
 31
0
 12
64.50045841067259
 22
-124.8
 32
0
 13
64.50045841067259
 23
-124.8
 33
0
  0
SOLID
  5
16C
100
AcDbEntity
  8
rozmir
  6
ByBlock
 62
    0
370
   -2
100
AcDbTrace
 10
65
 20
-120.8
 30
0
 11
64.50045841067259
 21
-117.8
 31
0
 12
65.49954158932741
 22
-117.8
 32
0
 13
65.49954158932741
 23
-117.8
 33
0
  0
MTEXT
  5
16D
100
AcDbEntity
  8
rozmir
  6
CONTINUOUS
 62
    0
370
   -2
100
AcDbMText
 10
62
 20
-127
 30
0
 40
4
 41
0.8888888888888888
 71
    5
 72
    1
  1
1
  7
standard
210
0
220
0
230
1
 50
90
 73
    2
 44
1
  0
LINE
  5
16E
100
AcDbEntity
  8
rozmir
  6
ByBlock
 62
    0
370
   -2
100
AcDbLine
 10
60.6
 20
-121.8
 11
67
 21
-121.8
  0
LINE
  5
16F
100
AcDbEntity
  8
rozmir
  6
ByBlock
 62
    0
370
   -2
100
AcDbLine
 10
61
 20
-120.8
 11
67
 21
-120.8
  0
ENDBLK
  5
B8
330
B6
100
AcDbEntity
  8
0
100
AcDbBlockEnd
  0
BLOCK
  5
BA
330
B9
100
AcDbEntity
  8
0
100
AcDbBlockBegin
  2
*D41
 70
    1
 10
0
 20
0
  3
*D41
  1

  0
LINE
  5
170
100
AcDbEntity
  8
rozmir
  6
CONTINUOUS
 62
    7
370
    0
100
AcDbLine
 10
-18.8
 20
-120
 11
-10.8
 21
-105.2
  0
SOLID
  5
171
100
AcDbEntity
  8
rozmir
  6
CONTINUOUS
 62
    7
370
    0
100
AcDbTrace
 10
-18.8
 20
-120
 30
0
 11
-17.81289888683706
 21
-117.1233399241724
 31
0
 12
-16.93399890697008
 22
-117.5984209943708
 32
0
 13
-16.93399890697008
 23
-117.5984209943708
 33
0
  0
ENDBLK
  5
BB
330
B9
100
AcDbEntity
  8
0
100
AcDbBlockEnd
  0
BLOCK
  5
BD
330
BC
100
AcDbEntity
  8
0
100
AcDbBlockBegin
  2
*D26
 70
    1
 10
0
 20
0
  3
*D26
  1

  0
LINE
  5
172
100
AcDbEntity
  8
rozmir
  6
ByBlock
 62
    0
370
   -2
100
AcDbLine
 10
-91
 20
-130
 11
-74.90000000000001
 21
-130
  0
SOLID
  5
173
100
AcDbEntity
  8
rozmir
  6
ByBlock
 62
    0
370
   -2
100
AcDbTrace
 10
-85
 20
-130
 30
0
 11
-88
 21
-130.4995415893274
 31
0
 12
-88
 22
-129.5004584106726
 32
0
 13
-88
 23
-129.5004584106726
 33
0
  0
SOLID
  5
174
100
AcDbEntity
  8
rozmir
  6
ByBlock
 62
    0
370
   -2
100
AcDbTrace
 10
-80.90000000000001
 20
-130
 30
0
 11
-77.90000000000001
 21
-129.5004584106726
 31
0
 12
-77.90000000000001
 22
-130.4995415893274
 32
0
 13
-77.90000000000001
 23
-130.4995415893274
 33
0
  0
MTEXT
  5
175
100
AcDbEntity
  8
rozmir
  6
CONTINUOUS
 62
    0
370
   -2
100
AcDbMText
 10
-89.95
 20
-126
 30
0
 40
4
 41
6
 71
    5
 72
    1
  1
4,1
  7
standard
210
0
220
0
230
1
 50
0
 73
    2
 44
1
  0
LINE
  5
176
100
AcDbEntity
  8
rozmir
  6
ByBlock
 62
    0
370
   -2
100
AcDbLine
 10
-85
 20
-122
 11
-85
 21
-132
  0
LINE
  5
177
100
AcDbEntity
  8
rozmir
  6
ByBlock
 62
    0
370
   -2
100
AcDbLine
 10
-80.90000000000001
 20
-122.8
 11
-80.90000000000001
 21
-132
  0
ENDBLK
  5
BE
330
BC
100
AcDbEntity
  8
0
100
AcDbBlockEnd
  0
BLOCK
  5
C0
330
BF
100
AcDbEntity
  8
0
100
AcDbBlockBegin
  2
*D6
 70
    1
 10
0
 20
0
  3
*D6
  1

  0
LINE
  5
178
100
AcDbEntity
  8
rozmir
  6
CONTINUOUS
 62
    7
370
    0
100
AcDbLine
 10
0
 20
28
 11
-10
 21
40
  0
LINE
  5
179
100
AcDbEntity
  8
rozmir
  6
CONTINUOUS
 62
    7
370
    0
100
AcDbLine
 10
-10
 20
40
 11
-72
 21
40
  0
SOLID
  5
17A
100
AcDbEntity
  8
rozmir
  6
CONTINUOUS
 62
    7
370
    0
100
AcDbTrace
 10
0
 20
28
 30
0
 11
-2.304311677958648
 21
29.98486510632112
 31
0
 12
-1.53679472002823
 22
30.62446257126313
 32
0
 13
-1.53679472002823
 23
30.62446257126313
 33
0
  0
ENDBLK
  5
C1
330
BF
100
AcDbEntity
  8
0
100
AcDbBlockEnd
  0
BLOCK
  5
C3
330
C2
100
AcDbEntity
  8
0
100
AcDbBlockBegin
  2
*D28
 70
    1
 10
0
 20
0
  3
*D28
  1

  0
LINE
  5
17B
100
AcDbEntity
  8
rozmir
  6
ByBlock
 62
    0
370
   -2
100
AcDbLine
 10
65
 20
-115
 11
65
 21
-102
  0
SOLID
  5
17C
100
AcDbEntity
  8
rozmir
  6
ByBlock
 62
    0
370
   -2
100
AcDbTrace
 10
65
 20
-109
 30
0
 11
65.49954158932741
 21
-112
 31
0
 12
64.50045841067259
 22
-112
 32
0
 13
64.50045841067259
 23
-112
 33
0
  0
SOLID
  5
17D
100
AcDbEntity
  8
rozmir
  6
ByBlock
 62
    0
370
   -2
100
AcDbTrace
 10
65
 20
-108
 30
0
 11
64.50045841067259
 21
-105
 31
0
 12
65.49954158932741
 22
-105
 32
0
 13
65.49954158932741
 23
-105
 33
0
  0
MTEXT
  5
17E
100
AcDbEntity
  8
rozmir
  6
CONTINUOUS
 62
    0
370
   -2
100
AcDbMText
 10
62
 20
-103
 30
0
 40
4
 41
0.8888888888888888
 71
    5
 72
    1
  1
1
  7
standard
210
0
220
0
230
1
 50
90
 73
    2
 44
1
  0
LINE
  5
17F
100
AcDbEntity
  8
rozmir
  6
ByBlock
 62
    0
370
   -2
100
AcDbLine
 10
61
 20
-109
 11
67
 21
-109
  0
LINE
  5
180
100
AcDbEntity
  8
rozmir
  6
ByBlock
 62
    0
370
   -2
100
AcDbLine
 10
60.6
 20
-108
 11
67
 21
-108
  0
ENDBLK
  5
C4
330
C2
100
AcDbEntity
  8
0
100
AcDbBlockEnd
  0
BLOCK
  5
C6
330
C5
100
AcDbEntity
  8
0
100
AcDbBlockBegin
  2
*D30
 70
    1
 10
0
 20
0
  3
*D30
  1

  0
LINE
  5
181
100
AcDbEntity
  8
rozmir
  6
ByBlock
 62
    0
370
   -2
100
AcDbLine
 10
102
 20
-60.80000000000003
 11
102
 21
-70.80000000000003
  0
SOLID
  5
182
100
AcDbEntity
  8
rozmir
  6
ByBlock
 62
    0
370
   -2
100
AcDbTrace
 10
102
 20
-60.80000000000003
 30
0
 11
102.4995415893274
 21
-63.80000000000003
 31
0
 12
101.5004584106726
 22
-63.80000000000003
 32
0
 13
101.5004584106726
 23
-63.80000000000003
 33
0
  0
SOLID
  5
183
100
AcDbEntity
  8
rozmir
  6
ByBlock
 62
    0
370
   -2
100
AcDbTrace
 10
102
 20
-70.80000000000003
 30
0
 11
101.5004584106726
 21
-67.80000000000003
 31
0
 12
102.4995415893274
 22
-67.80000000000003
 32
0
 13
102.4995415893274
 23
-67.80000000000003
 33
0
  0
MTEXT
  5
184
100
AcDbEntity
  8
rozmir
  6
CONTINUOUS
 62
    0
370
   -2
100
AcDbMText
 10
99.00000000000001
 20
-65.80000000000003
 30
0
 40
4
 41
4
 71
    5
 72
    1
  1
10
  7
standard
210
0
220
0
230
1
 50
90
 73
    2
 44
1
  0
LINE
  5
185
100
AcDbEntity
  8
rozmir
  6
ByBlock
 62
    0
370
   -2
100
AcDbLine
 10
94.40000000000002
 20
-60.80000000000003
 11
104
 21
-60.80000000000003
  0
LINE
  5
186
100
AcDbEntity
  8
rozmir
  6
ByBlock
 62
    0
370
   -2
100
AcDbLine
 10
94.40000000000002
 20
-70.80000000000003
 11
104
 21
-70.80000000000003
  0
ENDBLK
  5
C7
330
C5
100
AcDbEntity
  8
0
100
AcDbBlockEnd
  0
BLOCK
  5
C9
330
C8
100
AcDbEntity
  8
0
100
AcDbBlockBegin
  2
*D11
 70
    1
 10
0
 20
0
  3
*D11
  1

  0
LINE
  5
187
100
AcDbEntity
  8
rozmir
  6
CONTINUOUS
 62
    7
370
    0
100
AcDbLine
 10
38
 20
16
 11
60
 21
30
  0
LINE
  5
188
100
AcDbEntity
  8
rozmir
  6
CONTINUOUS
 62
    7
370
    0
100
AcDbLine
 10
60
 20
30
 11
104
 21
30
  0
SOLID
  5
189
100
AcDbEntity
  8
rozmir
  6
CONTINUOUS
 62
    7
370
    0
100
AcDbTrace
 10
38
 20
16
 30
0
 11
40.26279282655522
 21
18.0320704770155
 31
0
 12
40.79917609983742
 22
17.18918247614345
 32
0
 13
40.79917609983742
 23
17.18918247614345
 33
0
  0
ENDBLK
  5
CA
330
C8
100
AcDbEntity
  8
0
100
AcDbBlockEnd
  0
BLOCK
  5
CC
330
CB
100
AcDbEntity
  8
0
100
AcDbBlockBegin
  2
*D39
 70
    1
 10
0
 20
0
  3
*D39
  1

  0
LINE
  5
18A
100
AcDbEntity
  8
rozmir
  6
CONTINUOUS
 62
    7
370
    0
100
AcDbLine
 10
-80.09999999999999
 20
-113.2
 11
-69.8
 21
-105.2
  0
LINE
  5
18B
100
AcDbEntity
  8
rozmir
  6
CONTINUOUS
 62
    7
370
    0
100
AcDbLine
 10
-69.8
 20
-105.2
 11
-19.8
 21
-105.2
  0
SOLID
  5
18C
100
AcDbEntity
  8
rozmir
  6
CONTINUOUS
 62
    7
370
    0
100
AcDbTrace
 10
-80.09999999999999
 20
-113.2
 30
0
 11
-78.03712889391502
 21
-110.9652506630166
 31
0
 12
-77.42428164154286
 22
-111.7542915004458
 32
0
 13
-77.42428164154286
 23
-111.7542915004458
 33
0
  0
ENDBLK
  5
CD
330
CB
100
AcDbEntity
  8
0
100
AcDbBlockEnd
  0
ENDSEC
  0
SECTION
  2
ENTITIES
  0
HATCH
  5
18D
100
AcDbEntity
  8
metal
  6
ByLayer
 62
  256
370
   -1
100
AcDbHatch
 10
0
 20
0
 30
0
210
0
220
0
230
1
  2
SOLID
 70
    1
 71
    0
 91
    1
 92
    0
 93
    1
 72
    2
 10
93.40000000000002
 20
-70.40000000000002
 40
0.4000000000000004
 50
0
 51
360
 73
    1
 97
    0
 75
    0
 76
    1
 98
    0
  0
HATCH
  5
18E
100
AcDbEntity
  8
metal
  6
ByLayer
 62
  256
370
   -1
100
AcDbHatch
 10
0
 20
0
 30
0
210
0
220
0
230
1
  2
SOLID
 70
    1
 71
    0
 91
    1
 92
    0
 93
    1
 72
    2
 10
93.40000000000002
 20
-61.20000000000003
 40
0.4000000000000021
 50
0
 51
360
 73
    1
 97
    0
 75
    0
 76
    1
 98
    0
  0
HATCH
  5
18F
100
AcDbEntity
  8
metal
  6
ByLayer
 62
  256
370
   -1
100
AcDbHatch
 10
0
 20
0
 30
0
210
0
220
0
230
1
  2
SOLID
 70
    1
 71
    0
 91
    1
 92
    0
 93
    1
 72
    2
 10
81.40000000000002
 20
-70.40000000000002
 40
0.4000000000000004
 50
0
 51
360
 73
    1
 97
    0
 75
    0
 76
    1
 98
    0
  0
HATCH
  5
190
100
AcDbEntity
  8
metal
  6
ByLayer
 62
  256
370
   -1
100
AcDbHatch
 10
0
 20
0
 30
0
210
0
220
0
230
1
  2
SOLID
 70
    1
 71
    0
 91
    1
 92
    0
 93
    1
 72
    2
 10
81.40000000000002
 20
-61.20000000000003
 40
0.4000000000000021
 50
0
 51
360
 73
    1
 97
    0
 75
    0
 76
    1
 98
    0
  0
HATCH
  5
191
100
AcDbEntity
  8
metal
  6
ByLayer
 62
  256
370
   -1
100
AcDbHatch
 10
0
 20
0
 30
0
210
0
220
0
230
1
  2
SOLID
 70
    1
 71
    0
 91
    1
 92
    0
 93
    1
 72
    2
 10
13
 20
8.400000000000006
 40
0.4000000000000004
 50
0
 51
360
 73
    1
 97
    0
 75
    0
 76
    1
 98
    0
  0
HATCH
  5
192
100
AcDbEntity
  8
metal
  6
ByLayer
 62
  256
370
   -1
100
AcDbHatch
 10
0
 20
0
 30
0
210
0
220
0
230
1
  2
SOLID
 70
    1
 71
    0
 91
    1
 92
    0
 93
    1
 72
    2
 10
13
 20
17.59999999999999
 40
0.4000000000000021
 50
0
 51
360
 73
    1
 97
    0
 75
    0
 76
    1
 98
    0
  0
HATCH
  5
193
100
AcDbEntity
  8
metal
  6
ByLayer
 62
  256
370
   -1
100
AcDbHatch
 10
0
 20
0
 30
0
210
0
220
0
230
1
  2
SOLID
 70
    1
 71
    0
 91
    1
 92
    0
 93
    1
 72
    2
 10
1
 20
8.400000000000006
 40
0.4000000000000004
 50
0
 51
360
 73
    1
 97
    0
 75
    0
 76
    1
 98
    0
  0
HATCH
  5
194
100
AcDbEntity
  8
metal
  6
ByLayer
 62
  256
370
   -1
100
AcDbHatch
 10
0
 20
0
 30
0
210
0
220
0
230
1
  2
SOLID
 70
    1
 71
    0
 91
    1
 92
    0
 93
    1
 72
    2
 10
1
 20
17.59999999999999
 40
0.4000000000000021
 50
0
 51
360
 73
    1
 97
    0
 75
    0
 76
    1
 98
    0
  0
HATCH
  5
195
100
AcDbEntity
  8
metal
  6
ByLayer
 62
  256
370
   -1
100
AcDbHatch
 10
0
 20
0
 30
0
210
0
220
0
230
1
  2
SOLID
 70
    1
 71
    0
 91
    1
 92
    0
 93
    1
 72
    2
 10
60
 20
-120.4
 40
0.4000000000000021
 50
0
 51
360
 73
    1
 97
    0
 75
    0
 76
    1
 98
    0
  0
HATCH
  5
196
100
AcDbEntity
  8
metal
  6
ByLayer
 62
  256
370
   -1
100
AcDbHatch
 10
0
 20
0
 30
0
210
0
220
0
230
1
  2
SOLID
 70
    1
 71
    0
 91
    1
 92
    0
 93
    1
 72
    2
 10
60
 20
-109.4
 40
0.4000000000000021
 50
0
 51
360
 73
    1
 97
    0
 75
    0
 76
    1
 98
    0
  0
HATCH
  5
197
100
AcDbEntity
  8
metal
  6
ByLayer
 62
  256
370
   -1
100
AcDbHatch
 10
0
 20
0
 30
0
210
0
220
0
230
1
  2
SOLID
 70
    1
 71
    0
 91
    1
 92
    0
 93
    1
 72
    2
 10
30
 20
5.999999999999998
 40
0.4000000000000021
 50
0
 51
360
 73
    1
 97
    0
 75
    0
 76
    1
 98
    0
  0
HATCH
  5
198
100
AcDbEntity
  8
metal
  6
ByLayer
 62
  256
370
   -1
100
AcDbHatch
 10
0
 20
0
 30
0
210
0
220
0
230
1
  2
SOLID
 70
    1
 71
    0
 91
    1
 92
    0
 93
    1
 72
    2
 10
30
 20
17
 40
0.4000000000000021
 50
0
 51
360
 73
    1
 97
    0
 75
    0
 76
    1
 98
    0
  0
HATCH
  5
199
100
AcDbEntity
  8
fasad
  6
ByLayer
 62
  256
370
   -1
100
AcDbHatch
 10
0
 20
0
 30
0
210
0
220
0
230
1
  2
gost_stone
 70
    0
 71
    0
 91
    1
 92
    0
 93
    6
 72
    1
 10
40
 20
-3
 11
27.5
 21
-3
 72
    1
 10
27.5
 20
-3
 11
27.5
 21
3
 72
    1
 10
27.5
 20
3
 11
36
 21
3
 72
    1
 10
36
 20
3
 11
36
 21
22
 72
    1
 10
36
 20
22
 11
40
 21
22
 72
    1
 10
40
 20
22
 11
40
 21
-3
 97
    0
 75
    0
 76
    1
 52
3.141592653589793
 41
0.5
 77
    0
 78
    0
 98
    0
  0
HATCH
  5
19A
100
AcDbEntity
  8
concreet
  6
ByLayer
 62
  256
370
   -1
100
AcDbHatch
 10
0
 20
0
 30
0
210
0
220
0
230
1
  2
gost_concrete
 70
    0
 71
    0
 91
    1
 92
    0
 93
    4
 72
    1
 10
15
 20
6
 11
-1
 21
6
 72
    1
 10
-1
 20
6
 11
-2
 21
20
 72
    1
 10
-2
 20
20
 11
16
 21
20
 72
    1
 10
16
 20
20
 11
15
 21
6
 97
    0
 75
    0
 76
    1
 52
4.71238898038469
 41
0.5
 77
    0
 78
    0
 98
    0
  0
HATCH
  5
19B
100
AcDbEntity
  8
wall
  6
ByLayer
 62
  256
370
   -1
100
AcDbHatch
 10
0
 20
0
 30
0
210
0
220
0
230
1
  2
gost_stone
 70
    0
 71
    0
 91
    1
 92
    0
 93
    8
 72
    1
 10
-1
 20
6
 11
15
 21
6
 72
    1
 10
15
 20
6
 11
16
 21
20
 72
    1
 10
16
 20
20
 11
23
 21
20
 72
    1
 10
23
 20
20
 11
23
 21
0
 72
    1
 10
23
 20
0
 11
-7
 21
0
 72
    1
 10
-7
 20
0
 11
-7
 21
20
 72
    1
 10
-7
 20
20
 11
-2
 21
20
 72
    1
 10
-2
 20
20
 11
-1
 21
6
 97
    0
 75
    0
 76
    1
 52
3.141592653589793
 41
0.5
 77
    0
 78
    0
 98
    0
  0
HATCH
  5
19C
100
AcDbEntity
  8
wall
  6
ByLayer
 62
  256
370
   50
100
AcDbHatch
 10
0
 20
0
 30
0
210
0
220
0
230
1
  2
gost_stone
 70
    0
 71
    0
 91
    1
 92
    0
 93
    8
 72
    1
 10
8.500000000000011
 20
31
 11
7.500000000000007
 21
29
 72
    1
 10
7.500000000000007
 20
29
 11
7.000000000000007
 21
30
 72
    1
 10
7.000000000000007
 20
30
 11
-7
 21
30
 72
    1
 10
-7
 20
30
 11
-7
 21
20
 72
    1
 10
-7
 20
20
 11
23
 21
20
 72
    1
 10
23
 20
20
 11
23
 21
30
 72
    1
 10
23
 20
30
 11
9.000000000000011
 21
30
 72
    1
 10
9.000000000000011
 20
30
 11
8.500000000000011
 21
31
 97
    0
 75
    0
 76
    1
 52
3.141592653589793
 41
0.5
 77
    0
 78
    0
 98
    0
  0
HATCH
  5
19D
100
AcDbEntity
  8
fasad
  6
ByLayer
 62
  256
370
   50
100
AcDbHatch
 10
0
 20
0
 30
0
210
0
220
0
230
1
  2
gost_stone
 70
    0
 71
    0
 91
    1
 92
    0
 93
    8
 72
    1
 10
34.5
 20
30
 11
34
 21
31
 72
    1
 10
34
 20
31
 11
33
 21
29
 72
    1
 10
33
 20
29
 11
32.5
 21
30
 72
    1
 10
32.5
 20
30
 11
27.49999999999999
 21
30
 72
    1
 10
27.49999999999999
 20
30
 11
27.49999999999999
 21
22
 72
    1
 10
27.49999999999999
 20
22
 11
40
 21
22
 72
    1
 10
40
 20
22
 11
40
 21
30
 72
    1
 10
40
 20
30
 11
34.5
 21
30
 97
    0
 75
    0
 76
    1
 52
3.141592653589793
 41
0.5
 77
    0
 78
    0
 98
    0
  0
HATCH
  5
19E
100
AcDbEntity
  8
concreet
  6
ByLayer
 62
  256
370
   -1
100
AcDbHatch
 10
0
 20
0
 30
0
210
0
220
0
230
1
  2
gost_concrete
 70
    0
 71
    0
 91
    1
 92
    0
 93
    6
 72
    1
 10
27.5
 20
3
 11
27.5
 21
0
 72
    1
 10
27.5
 20
0
 11
23
 21
0
 72
    1
 10
23
 20
0
 11
23
 21
20
 72
    1
 10
23
 20
20
 11
36
 21
20
 72
    1
 10
36
 20
20
 11
36
 21
3
 72
    1
 10
36
 20
3
 11
27.5
 21
3
 97
    0
 75
    0
 76
    1
 52
4.71238898038469
 41
0.5
 77
    0
 78
    0
 98
    0
  0
MTEXT
  5
19F
100
AcDbEntity
  8
rozmir
  6
ByLayer
 62
  256
370
   -1
100
AcDbMText
 10
29.86111111111123
 20
73.33333333333333
 30
0
 40
5
 41
63.19444444444444
 71
    8
 72
    1
  1
 
  7
cyrillic_ii
210
0
220
0
230
1
 50
0
 73
    2
 44
1
  0
LWPOLYLINE
  5
1A0
100
AcDbEntity
  8
fasad
  6
ByLayer
 62
  256
370
   13
100
AcDbPolyline
 90
    6
 70
    0
 43
0
 10
40
 20
-10
 10
34.5
 20
-10
 10
34
 20
-11
 10
33
 20
-9
 10
32.5
 20
-10
 10
27.49999999999999
 20
-10
  0
LINE
  5
1A1
100
AcDbEntity
  8
wall
  6
ByLayer
 62
  256
370
   -1
100
AcDbLine
 10
23
 20
0
 11
23
 21
-10
  0
LINE
  5
1A2
100
AcDbEntity
  8
wall
  6
ByLayer
 62
  256
370
   -1
100
AcDbLine
 10
-7
 20
0
 11
-7
 21
-10
  0
LWPOLYLINE
  5
1A3
100
AcDbEntity
  8
wall
  6
ByLayer
 62
  256
370
   13
100
AcDbPolyline
 90
    6
 70
    0
 43
0
 10
23
 20
-10
 10
9.5
 20
-10
 10
9
 20
-11
 10
8
 20
-9
 10
7.5
 20
-10
 10
-7
 20
-10
  0
DIMENSION
  5
1A4
100
AcDbEntity
  8
rozmir
  6
ByLayer
 62
  256
370
   -1
100
AcDbDimension
  2
*D1
 10
36
 20
-20
 30
0
 11
38
 21
-17
 31
0
 70
   32
 71
    5
  3
Standard
 53
0
210
0
220
0
230
1
100
AcDbAlignedDimension
 13
40
 23
0
 33
0
 14
36
 24
4
 34
0
 50
180
100
AcDbRotatedDimension
  0
DIMENSION
  5
1A5
100
AcDbEntity
  8
rozmir
  6
ByLayer
 62
  256
370
   -1
100
AcDbDimension
  2
*D2
 10
27.5
 20
-30
 30
0
 11
33.75
 21
-27
 31
0
 70
   32
 71
    5
  3
Standard
 53
0
210
0
220
0
230
1
100
AcDbAlignedDimension
 13
40
 23
0
 33
0
 14
27.5
 24
0
 34
0
 50
180
100
AcDbRotatedDimension
  0
DIMENSION
  5
1A6
100
AcDbEntity
  8
rozmir
  6
ByLayer
 62
  256
370
   -1
100
AcDbDimension
  2
*D3
 10
-7
 20
-20
 30
0
 11
8
 21
-17
 31
0
 70
   32
 71
    5
  3
Standard
 53
0
210
0
220
0
230
1
100
AcDbAlignedDimension
 13
23
 23
-10
 33
0
 14
-7
 24
-10
 34
0
 50
180
100
AcDbRotatedDimension
  0
DIMENSION
  5
1A7
100
AcDbEntity
  8
rozmir
  6
ByLayer
 62
  256
370
   -1
100
AcDbDimension
  2
*D4
 10
23
 20
40
 30
0
 11
25.25
 21
43
 31
0
 70
   32
 71
    5
  3
Standard
 53
0
210
0
220
0
230
1
100
AcDbAlignedDimension
 13
27.49999999999999
 23
25
 33
0
 14
23
 24
25
 34
0
 50
180
100
AcDbRotatedDimension
  0
DIMENSION
  5
1A8
100
AcDbEntity
  8
rozmir
  6
ByLayer
 62
  256
370
   -1
100
AcDbDimension
  2
*D5
 10
23
 20
50
 30
0
 11
29.5
 21
53
 31
0
 70
   32
 71
    5
  3
Standard
 53
0
210
0
220
0
230
1
100
AcDbAlignedDimension
 13
36
 23
25
 33
0
 14
23
 24
25
 34
0
 50
180
100
AcDbRotatedDimension
  0
LEADER
  5
1A9
100
AcDbEntity
  8
rozmir
  6
ByLayer
 62
  256
370
   -1
100
AcDbLeader
  3
Standard
 71
    1
 72
    0
 73
    3
 74
    0
 75
    0
 40
1
 41
10
 76
3
 76
3
 10
0
 20
28
 30
0
 10
-10
 20
40
 30
0
 10
-72
 20
40
 30
0
  0
MTEXT
  5
1AA
100
AcDbEntity
  8
rozmir
  6
ByLayer
 62
  256
370
   -1
100
AcDbMText
 10
-11
 20
43.25
 30
0
 40
4
 41
59.6666666666672
 71
    6
 72
    1
  1
 AEROC 3020 
  7
cyrillic_ii
210
0
220
0
230
1
 50
360
 73
    2
 44
1
  0
MTEXT
  5
1AB
100
AcDbEntity
  8
rozmir
  6
ByLayer
 62
  256
370
   -1
100
AcDbMText
 10
-21
 20
-26.75
 30
0
 40
4
 41
59.6666666666672
 71
    6
 72
    1
  1
 AEROC 3020 
  7
cyrillic_ii
210
0
220
0
230
1
 50
360
 73
    2
 44
1
  0
LEADER
  5
1AC
100
AcDbEntity
  8
rozmir
  6
ByLayer
 62
  256
370
   -1
100
AcDbLeader
  3
Standard
 71
    1
 72
    0
 73
    3
 74
    0
 75
    0
 40
1
 41
10
 76
3
 76
3
 10
-4
 20
3
 30
0
 10
-20
 20
-20
 30
0
 10
-88
 20
-20
 30
0
  0
LEADER
  5
1AD
100
AcDbEntity
  8
rozmir
  6
ByLayer
 62
  256
370
   -1
100
AcDbLeader
  3
Standard
 71
    1
 72
    0
 73
    3
 74
    0
 75
    0
 40
1
 41
10
 76
3
 76
3
 10
-5
 20
-8
 30
0
 10
-20
 20
-30
 30
0
 10
-82
 20
-30
 30
0
  0
MTEXT
  5
1AE
100
AcDbEntity
  8
rozmir
  6
ByLayer
 62
  256
370
   -1
100
AcDbMText
 10
3.833333333333478
 20
63.25
 30
0
 40
4
 41
49.55555555555573
 71
    6
 72
    1
  1
 %%C10 
  7
cyrillic_ii
210
0
220
0
230
1
 50
360
 73
    2
 44
1
  0
MTEXT
  5
1AF
100
AcDbEntity
  8
rozmir
  6
ByLayer
 62
  256
370
   -1
100
AcDbMText
 10
-1.166666666666522
 20
53.25
 30
0
 40
4
 41
15.55555555555604
 71
    6
 72
    1
  1

  7
cyrillic_ii
210
0
220
0
230
1
 50
360
 73
    2
 44
1
  0
MTEXT
  5
1B0
100
AcDbEntity
  8
rozmir
  6
ByLayer
 62
  256
370
   -1
100
AcDbMText
 10
105.8333333333335
 20
-16.75
 30
0
 40
4
 41
45.88888888888889
 71
    6
 72
    1
  1
 
  7
cyrillic_ii
210
0
220
0
230
1
 50
360
 73
    2
 44
1
  0
MTEXT
  5
1B1
100
AcDbEntity
  8
rozmir
  6
ByLayer
 62
  256
370
   -1
100
AcDbMText
 10
105.8333333333335
 20
63.25
 30
0
 40
4
 41
45.88888888888889
 71
    6
 72
    1
  1
 
  7
cyrillic_ii
210
0
220
0
230
1
 50
360
 73
    2
 44
1
  0
LEADER
  5
1B2
100
AcDbEntity
  8
rozmir
  6
ByLayer
 62
  256
370
   -1
100
AcDbLeader
  3
Standard
 71
    1
 72
    0
 73
    3
 74
    0
 75
    0
 40
1
 41
10
 76
3
 76
3
 10
37
 20
29
 30
0
 10
60
 20
60
 30
0
 10
107
 20
60
 30
0
  0
LEADER
  5
1B3
100
AcDbEntity
  8
rozmir
  6
ByLayer
 62
  256
370
   -1
100
AcDbLeader
  3
Standard
 71
    1
 72
    0
 73
    3
 74
    0
 75
    0
 40
1
 41
10
 76
3
 76
3
 10
38
 20
-7
 30
0
 10
60
 20
-20
 30
0
 10
107
 20
-20
 30
0
  0
MTEXT
  5
1B4
100
AcDbEntity
  8
rozmir
  6
ByLayer
 62
  256
370
   -1
100
AcDbMText
 10
102.8333333333335
 20
37.25
 30
0
 40
4
 41
42.55555555555555
 71
    6
 72
    1
  1
 \P i
  7
cyrillic_ii
210
0
220
0
230
1
 50
360
 73
    2
 44
1
  0
LEADER
  5
1B5
100
AcDbEntity
  8
rozmir
  6
ByLayer
 62
  256
370
   -1
100
AcDbLeader
  3
Standard
 71
    1
 72
    0
 73
    3
 74
    0
 75
    0
 40
1
 41
10
 76
3
 76
3
 10
38
 20
16
 30
0
 10
60
 20
30
 30
0
 10
104
 20
30
 30
0
  0
LWPOLYLINE
  5
1B6
100
AcDbEntity
  8
concreet
  6
ByLayer
 62
  256
370
   -1
100
AcDbPolyline
 90
    5
 70
    0
 43
0
 10
16
 20
20
 10
15
 20
6
 10
-1
 20
6
 10
-2
 20
20
 10
16
 20
20
  0
LINE
  5
1B7
100
AcDbEntity
  8
wall
  6
ByLayer
 62
  256
370
   -1
100
AcDbLine
 10
23
 20
20
 11
23
 21
30
  0
LINE
  5
1B8
100
AcDbEntity
  8
wall
  6
ByLayer
 62
  256
370
   -1
100
AcDbLine
 10
-7
 20
20
 11
-7
 21
30
  0
LWPOLYLINE
  5
1B9
100
AcDbEntity
  8
wall
  6
ByLayer
 62
  256
370
   13
100
AcDbPolyline
 90
   10
 70
    1
 43
0
 10
23
 20
30
 10
9.000000000000011
 20
30
 10
8.500000000000011
 20
31
 10
7.500000000000007
 20
29
 10
7.000000000000007
 20
30
 10
-7
 20
30
 10
-7
 20
20
 10
23
 20
20
 10
23
 20
20
 10
23
 20
20
  0
LWPOLYLINE
  5
1BA
100
AcDbEntity
  8
wall
  6
ByLayer
 62
  256
370
   -1
100
AcDbPolyline
 90
    9
 70
    0
 43
0
 10
23
 20
20
 10
23
 20
0
 10
-7
 20
0
 10
-7
 20
20
 10
-2
 20
20
 10
-1
 20
6
 10
15
 20
6
 10
16
 20
20
 10
23
 20
20
  0
LEADER
  5
1BB
100
AcDbEntity
  8
rozmir
  6
ByLayer
 62
  256
370
   -1
100
AcDbLeader
  3
Standard
 71
    1
 72
    0
 73
    3
 74
    0
 75
    0
 40
1
 41
10
 76
3
 76
3
 10
9
 20
18
 30
0
 10
0
 20
50
 30
0
 10
-18
 20
50
 30
0
  0
LEADER
  5
1BC
100
AcDbEntity
  8
rozmir
  6
ByLayer
 62
  256
370
   -1
100
AcDbLeader
  3
Standard
 71
    1
 72
    0
 73
    3
 74
    0
 75
    0
 40
1
 41
10
 76
3
 76
3
 10
19
 20
16
 30
0
 10
5
 20
60
 30
0
 10
-46
 20
60
 30
0
  0
MTEXT
  5
1BD
100
AcDbEntity
  8
rozmir
  6
ByLayer
 62
  256
370
   -1
100
AcDbMText
 10
-21
 20
-16.75
 30
0
 40
4
 41
66.33333333333387
 71
    6
 72
    1
  1
U- AEROC 3020 
  7
cyrillic_ii
210
0
220
0
230
1
 50
360
 73
    2
 44
1
  0
LINE
  5
1BE
100
AcDbEntity
  8
fasad
  6
ByLayer
 62
  256
370
   -1
100
AcDbLine
 10
40
 20
-3
 11
40
 21
-10
  0
LINE
  5
1BF
100
AcDbEntity
  8
fasad
  6
ByLayer
 62
  256
370
   -1
100
AcDbLine
 10
27.49999999999999
 20
-3
 11
27.49999999999999
 21
-10
  0
LINE
  5
1C0
100
AcDbEntity
  8
fasad
  6
ByLayer
 62
  256
370
   -1
100
AcDbLine
 10
40
 20
22
 11
40
 21
30
  0
LINE
  5
1C1
100
AcDbEntity
  8
fasad
  6
ByLayer
 62
  256
370
   -1
100
AcDbLine
 10
27.49999999999999
 20
22
 11
27.49999999999999
 21
30
  0
LWPOLYLINE
  5
1C2
100
AcDbEntity
  8
fasad
  6
CONTINUOUS
 62
    3
370
   13
100
AcDbPolyline
 90
    8
 70
    1
 43
0
 10
40
 20
30
 10
34.5
 20
30
 10
34
 20
31
 10
33
 20
29
 10
32.5
 20
30
 10
27.49999999999999
 20
30
 10
27.49999999999999
 20
22
 10
40
 20
22
  0
LWPOLYLINE
  5
1C3
100
AcDbEntity
  8
fasad
  6
ByLayer
 62
  256
370
   -1
100
AcDbPolyline
 90
    7
 70
    0
 43
0
 10
36
 20
22
 10
40
 20
22
 10
40
 20
-3
 10
27.5
 20
-3
 10
27.5
 20
3
 10
36
 20
3
 10
36
 20
22
  0
LWPOLYLINE
  5
1C4
100
AcDbEntity
  8
concreet
  6
CONTINUOUS
 62
    6
370
   50
100
AcDbPolyline
 90
    6
 70
    1
 43
0
 10
27.5
 20
0
 10
23
 20
0
 10
23
 20
20
 10
36
 20
20
 10
36
 20
3
 10
27.5
 20
3
  0
MTEXT
  5
1C5
100
AcDbEntity
  8
rozmir
  6
ByLayer
 62
  256
370
   -1
100
AcDbMText
 10
75.83333333333348
 20
53.25
 30
0
 40
4
 41
15.55555555555604
 71
    6
 72
    1
  1

  7
cyrillic_ii
210
0
220
0
230
1
 50
360
 73
    2
 44
1
  0
LEADER
  5
1C6
100
AcDbEntity
  8
rozmir
  6
ByLayer
 62
  256
370
   -1
100
AcDbLeader
  3
Standard
 71
    1
 72
    0
 73
    3
 74
    0
 75
    0
 40
1
 41
10
 76
3
 76
3
 10
31
 20
18
 30
0
 10
60
 20
50
 30
0
 10
76
 20
50
 30
0
  0
DIMENSION
  5
1C7
100
AcDbEntity
  8
rozmir
  6
ByLayer
 62
  256
370
   -1
100
AcDbDimension
  2
*D15
 10
70
 20
20
 30
0
 11
67
 21
9.500000000000005
 31
0
 70
   32
 71
    5
  3
Standard
 53
0
210
0
220
0
230
1
100
AcDbAlignedDimension
 13
40
 23
-3
 33
0
 14
40
 24
22
 34
0
 50
90.00000000000001
100
AcDbRotatedDimension
  0
DIMENSION
  5
1C8
100
AcDbEntity
  8
rozmir
  6
ByLayer
 62
  256
370
   -1
100
AcDbDimension
  2
*D16
 10
60
 20
0
 30
0
 11
57
 21
3.920107718544707e-15
 31
0
 70
   32
 71
    5
  3
Standard
 53
0
210
0
220
0
230
1
100
AcDbAlignedDimension
 13
40
 23
-3
 33
0
 14
36
 24
3
 34
0
 50
90.00000000000001
100
AcDbRotatedDimension
  0
DIMENSION
  5
1C9
100
AcDbEntity
  8
rozmir
  6
ByLayer
 62
  256
370
   -1
100
AcDbDimension
  2
*D17
 10
50
 20
-3.000000000000001
 30
0
 11
47
 21
-1.499999999999997
 31
0
 70
   32
 71
    5
  3
Standard
 53
0
210
0
220
0
230
1
100
AcDbAlignedDimension
 13
27.5
 23
0
 33
0
 14
40
 24
-3
 34
0
 50
90.00000000000001
100
AcDbRotatedDimension
  0
DIMENSION
  5
1CA
100
AcDbEntity
  8
rozmir
  6
ByLayer
 62
  256
370
   -1
100
AcDbDimension
  2
*D18
 10
-20
 20
1.592040838891559e-15
 30
0
 11
-23
 21
3.749999999999997
 31
0
 70
   32
 71
    5
  3
Standard
 53
0
210
0
220
0
230
1
100
AcDbAlignedDimension
 13
-1
 23
7.5
 33
0
 14
-7
 24
0
 34
0
 50
90.00000000000001
100
AcDbRotatedDimension
  0
DIMENSION
  5
1CB
100
AcDbEntity
  8
rozmir
  6
ByLayer
 62
  256
370
   -1
100
AcDbDimension
  2
*D19
 10
-20
 20
25
 30
0
 11
-23
 21
18.25
 31
0
 70
   32
 71
    5
  3
Standard
 53
0
210
0
220
0
230
1
100
AcDbAlignedDimension
 13
-1
 23
16.5
 33
0
 14
-2
 24
20
 34
0
 50
90.00000000000001
100
AcDbRotatedDimension
  0
DIMENSION
  5
1CC
100
AcDbEntity
  8
rozmir
  6
ByLayer
 62
  256
370
   -1
100
AcDbDimension
  2
*D20
 10
-27
 20
2.449293598294707e-15
 30
0
 11
-30
 21
10
 31
0
 70
   32
 71
    5
  3
Standard
 53
0
210
0
220
0
230
1
100
AcDbAlignedDimension
 13
-7
 23
20
 33
0
 14
-7
 24
0
 34
0
 50
90
100
AcDbRotatedDimension
  0
LINE
  5
1CD
100
AcDbEntity
  8
rozmir
  6
ByLayer
 62
  256
370
   -1
100
AcDbLine
 10
-3
 20
73
 11
62
 21
73
  0
CIRCLE
  5
1CE
100
AcDbEntity
  8
metal
  6
ByLayer
 62
  256
370
   -1
100
AcDbCircle
 10
30
 20
17
 40
0.4000000000000021
  0
CIRCLE
  5
1CF
100
AcDbEntity
  8
metal
  6
ByLayer
 62
  256
370
   -1
100
AcDbCircle
 10
30
 20
5.999999999999998
 40
0.4000000000000021
  0
LWPOLYLINE
  5
1D0
100
AcDbEntity
  8
metal
  6
DASHED2
 62
  256
370
   -1
100
AcDbPolyline
 90
    4
 70
    1
 43
0
 10
29.6
 20
4.600000000000001
 10
29.6
 20
18.4
 10
28.8
 20
18.4
 10
28.8
 20
4.600000000000001
  0
LWPOLYLINE
  5
1D1
100
AcDbEntity
  8
metal
  6
ByLayer
 62
  256
370
   -1
100
AcDbPolyline
 90
    4
 70
    1
 43
0
 10
62
 20
-70
 10
-85
 20
-70
 10
-85
 20
-70.80000000000001
 10
62
 20
-70.80000000000001
  0
LWPOLYLINE
  5
1D2
100
AcDbEntity
  8
metal
  6
ByLayer
 62
  256
370
   -1
100
AcDbPolyline
 90
    4
 70
    1
 43
0
 10
62
 20
-60.80000000000001
 10
-85
 20
-60.80000000000001
 10
-85
 20
-61.60000000000002
 10
62
 20
-61.60000000000002
  0
DIMENSION
  5
1D3
100
AcDbEntity
  8
rozmir
  6
ByLayer
 62
  256
370
   -1
100
AcDbDimension
  2
*D21
 10
-61.90000000000001
 20
-80.00000000000001
 30
0
 11
-71.90000000000001
 21
-77.00000000000001
 31
0
 70
   32
 71
    5
  3
Standard
 53
0
210
0
220
0
230
1
100
AcDbAlignedDimension
 13
-81.90000000000002
 23
-71.80000000000001
 33
0
 14
-61.90000000000001
 24
-71.80000000000001
 34
0
100
AcDbRotatedDimension
  0
DIMENSION
  5
1D4
100
AcDbEntity
  8
rozmir
  6
ByLayer
 62
  256
370
   -1
100
AcDbDimension
  2
*D22
 10
62
 20
-85.00000000000001
 30
0
 11
-11.5
 21
-82.00000000000001
 31
0
 70
   32
 71
    5
  3
Standard
 53
0
210
0
220
0
230
1
100
AcDbAlignedDimension
 13
-85
 23
-70.80000000000001
 33
0
 14
62
 24
-71.00000000000001
 34
0
100
AcDbRotatedDimension
  0
DIMENSION
  5
1D5
100
AcDbEntity
  8
rozmir
  6
ByLayer
 62
  256
370
   -1
100
AcDbDimension
  2
*D23
 10
-81.90000000000001
 20
-80.00000000000001
 30
0
 11
-95
 21
-76.00000000000001
 31
0
 70
   32
 71
    5
  3
Standard
 53
0
210
0
220
0
230
1
100
AcDbAlignedDimension
 13
-85
 23
-71.00000000000001
 33
0
 14
-81.90000000000001
 24
-71.80000000000001
 34
0
100
AcDbRotatedDimension
  0
MTEXT
  5
1D6
100
AcDbEntity
  8
rozmir
  6
ByLayer
 62
  256
370
   -1
100
AcDbMText
 10
90
 20
-130
 30
0
 40
4
 41
19.00000000000018
 71
    7
 72
    1
  1
. 14
  7
cyrillic_ii
210
0
220
0
230
1
 50
360
 73
    2
 44
1
  0
LWPOLYLINE
  5
1D7
100
AcDbEntity
  8
metal
  6
ByLayer
 62
  256
370
   -1
100
AcDbPolyline
 90
    4
 70
    1
 43
0
 10
43.99999999999999
 20
-120
 10
-85
 20
-120
 10
-85
 20
-120.8
 10
43.99999999999999
 20
-120.8
  0
DIMENSION
  5
1D8
100
AcDbEntity
  8
rozmir
  6
ByLayer
 62
  256
370
   -1
100
AcDbDimension
  2
*D24
 10
62
 20
-135
 30
0
 11
-20.5
 21
-132
 31
0
 70
   32
 71
    5
  3
Standard
 53
0
210
0
220
0
230
1
100
AcDbAlignedDimension
 13
-85
 23
-120.8
 33
0
 14
43.99999999999999
 24
-121
 34
0
100
AcDbRotatedDimension
  0
LWPOLYLINE
  5
1D9
100
AcDbEntity
  8
metal
  6
ByLayer
 62
  256
370
   -1
100
AcDbPolyline
 90
    4
 70
    1
 43
0
 10
44
 20
-109
 10
-85
 20
-109
 10
-85
 20
-109.8
 10
44
 20
-109.8
  0
DIMENSION
  5
1DA
100
AcDbEntity
  8
rozmir
  6
ByLayer
 62
  256
370
   -1
100
AcDbDimension
  2
*D25
 10
-61.90000000000001
 20
-130
 30
0
 11
-70.90000000000001
 21
-127
 31
0
 70
   32
 71
    5
  3
Standard
 53
0
210
0
220
0
230
1
100
AcDbAlignedDimension
 13
-80.90000000000002
 23
-121.8
 33
0
 14
-60.90000000000001
 24
-121.8
 34
0
100
AcDbRotatedDimension
  0
LWPOLYLINE
  5
1DB
100
AcDbEntity
  8
metal
  6
ByLayer
 62
  256
370
   -1
100
AcDbPolyline
 90
    4
 70
    1
 43
0
 10
-80.10000000000001
 20
-121.8
 10
-80.09999999999999
 20
-108
 10
-80.90000000000001
 20
-108
 10
-80.90000000000001
 20
-121.8
  0
LWPOLYLINE
  5
1DC
100
AcDbEntity
  8
metal
  6
ByLayer
 62
  256
370
   -1
100
AcDbPolyline
 90
    4
 70
    1
 43
0
 10
-60.10000000000001
 20
-121.8
 10
-60.09999999999999
 20
-108
 10
-60.90000000000001
 20
-108
 10
-60.90000000000001
 20
-121.8
  0
LWPOLYLINE
  5
1DD
100
AcDbEntity
  8
metal
  6
ByLayer
 62
  256
370
   -1
100
AcDbPolyline
 90
    4
 70
    1
 43
0
 10
-40.10000000000001
 20
-121.8
 10
-40.1
 20
-108
 10
-40.90000000000001
 20
-108
 10
-40.90000000000001
 20
-121.8
  0
LWPOLYLINE
  5
1DE
100
AcDbEntity
  8
metal
  6
ByLayer
 62
  256
370
   -1
100
AcDbPolyline
 90
    4
 70
    1
 43
0
 10
-20.10000000000001
 20
-121.8
 10
-20.1
 20
-108
 10
-20.90000000000001
 20
-108
 10
-20.90000000000001
 20
-121.8
  0
LWPOLYLINE
  5
1DF
100
AcDbEntity
  8
metal
  6
ByLayer
 62
  256
370
   -1
100
AcDbPolyline
 90
    4
 70
    1
 43
0
 10
-0.1000000000000085
 20
-121.8
 10
-0.1000000000000014
 20
-108
 10
-0.9000000000000021
 20
-108
 10
-0.9000000000000092
 20
-121.8
  0
LWPOLYLINE
  5
1E0
100
AcDbEntity
  8
metal
  6
ByLayer
 62
  256
370
   -1
100
AcDbPolyline
 90
    4
 70
    1
 43
0
 10
19.89999999999999
 20
-121.8
 10
19.9
 20
-108
 10
19.1
 20
-108
 10
19.09999999999999
 20
-121.8
  0
LWPOLYLINE
  5
1E1
100
AcDbEntity
  8
metal
  6
ByLayer
 62
  256
370
   -1
100
AcDbPolyline
 90
    4
 70
    1
 43
0
 10
39.89999999999999
 20
-121.8
 10
39.9
 20
-108
 10
39.09999999999999
 20
-108
 10
39.09999999999999
 20
-121.8
  0
DIMENSION
  5
1E2
100
AcDbEntity
  8
rozmir
  6
ByLayer
 62
  256
370
   -1
100
AcDbDimension
  2
*D26
 10
-81.90000000000001
 20
-130
 30
0
 11
-96
 21
-126
 31
0
 70
   32
 71
    5
  3
Standard
 53
0
210
0
220
0
230
1
100
AcDbAlignedDimension
 13
-85
 23
-121
 33
0
 14
-80.90000000000001
 24
-121.8
 34
0
100
AcDbRotatedDimension
  0
CIRCLE
  5
1E3
100
AcDbEntity
  8
metal
  6
ByLayer
 62
  256
370
   -1
100
AcDbCircle
 10
60
 20
-109.4
 40
0.4000000000000021
  0
CIRCLE
  5
1E4
100
AcDbEntity
  8
metal
  6
ByLayer
 62
  256
370
   -1
100
AcDbCircle
 10
60
 20
-120.4
 40
0.4000000000000021
  0
LWPOLYLINE
  5
1E5
100
AcDbEntity
  8
metal
  6
ByLayer
 62
  256
370
   -1
100
AcDbPolyline
 90
    5
 70
    1
 43
0
 10
59.6
 20
-121.8
 10
59.6
 20
-108
 10
58.8
 20
-108
 10
58.8
 20
-121.8
 10
58.8
 20
-121.8
  0
DIMENSION
  5
1E6
100
AcDbEntity
  8
rozmir
  6
ByLayer
 62
  256
370
   -1
100
AcDbDimension
  2
*D27
 10
55
 20
-121.8
 30
0
 11
52
 21
-114.9
 31
0
 70
   32
 71
    5
 72
    0
  3
Standard
 53
0
210
0
220
0
230
1
100
AcDbAlignedDimension
 13
58.8
 23
-108
 33
0
 14
58.8
 24
-121.8
 34
0
 50
90
100
AcDbRotatedDimension
  0
DIMENSION
  5
1E7
100
AcDbEntity
  8
rozmir
  6
ByLayer
 62
  256
370
   -1
100
AcDbDimension
  2
*D28
 10
65
 20
-108
 30
0
 11
62
 21
-103
 31
0
 70
   32
 71
    5
 72
    0
  3
Standard
 53
0
210
0
220
0
230
1
100
AcDbAlignedDimension
 13
60
 23
-109
 33
0
 14
59.6
 24
-108
 34
0
 50
90
100
AcDbRotatedDimension
  0
DIMENSION
  5
1E8
100
AcDbEntity
  8
rozmir
  6
ByLayer
 62
  256
370
   -1
100
AcDbDimension
  2
*D29
 10
65
 20
-120.8
 30
0
 11
62
 21
-127
 31
0
 70
   32
 71
    5
 72
    0
  3
Standard
 53
0
210
0
220
0
230
1
100
AcDbAlignedDimension
 13
59.6
 23
-121.8
 33
0
 14
60
 24
-120.8
 34
0
 50
90
100
AcDbRotatedDimension
  0
CIRCLE
  5
1E9
100
AcDbEntity
  8
metal
  6
ByLayer
 62
  256
370
   -1
100
AcDbCircle
 10
13
 20
8.400000000000006
 40
0.4000000000000004
  0
CIRCLE
  5
1EA
100
AcDbEntity
  8
metal
  6
ByLayer
 62
  256
370
   -1
100
AcDbCircle
 10
13
 20
17.59999999999999
 40
0.4000000000000021
  0
CIRCLE
  5
1EB
100
AcDbEntity
  8
metal
  6
ByLayer
 62
  256
370
   -1
100
AcDbCircle
 10
1
 20
8.400000000000006
 40
0.4000000000000004
  0
CIRCLE
  5
1EC
100
AcDbEntity
  8
metal
  6
ByLayer
 62
  256
370
   -1
100
AcDbCircle
 10
1
 20
17.59999999999999
 40
0.4000000000000021
  0
LWPOLYLINE
  5
1ED
100
AcDbEntity
  8
metal
  6
DASHED2
 62
  256
370
   -1
100
AcDbPolyline
 90
    8
 70
    1
 43
0
 10
12.50000000000001
 20
7.70000000000001
 42
0.414213562373095
 10
13.7
 20
8.90000000000002
 10
13.7
 20
17.10000000000001
 42
0.414213562373095
 10
12.50000000000001
 20
18.3
 10
1.500000000000014
 20
18.3
 42
0.414213562373095
 10
0.3000000000000256
 20
17.10000000000001
 10
0.3000000000000114
 20
8.900000000000006
 42
0.414213562373095
 10
1.5
 20
7.700000000000017
  0
LWPOLYLINE
  5
1EE
100
AcDbEntity
  8
metal
  6
DASHED2
 62
  256
370
   -1
100
AcDbPolyline
 90
    8
 70
    1
 43
0
 10
12.50000000000001
 20
7.100000000000023
 42
0.414213562373095
 10
14.3
 20
8.900000000000006
 10
14.3
 20
17.10000000000001
 42
0.414213562373095
 10
12.50000000000001
 20
18.89999999999999
 10
1.500000000000014
 20
18.89999999999999
 42
0.414213562373095
 10
-0.2999999999999687
 20
17.10000000000001
 10
-0.2999999999999832
 20
8.900000000000006
 42
0.414213562373095
 10
1.5
 20
7.100000000000023
  0
CIRCLE
  5
1EF
100
AcDbEntity
  8
metal
  6
ByLayer
 62
  256
370
   -1
100
AcDbCircle
 10
93.40000000000002
 20
-70.40000000000002
 40
0.4000000000000004
  0
CIRCLE
  5
1F0
100
AcDbEntity
  8
metal
  6
ByLayer
 62
  256
370
   -1
100
AcDbCircle
 10
93.40000000000002
 20
-61.20000000000003
 40
0.4000000000000021
  0
CIRCLE
  5
1F1
100
AcDbEntity
  8
metal
  6
ByLayer
 62
  256
370
   -1
100
AcDbCircle
 10
81.40000000000002
 20
-70.40000000000002
 40
0.4000000000000004
  0
CIRCLE
  5
1F2
100
AcDbEntity
  8
metal
  6
ByLayer
 62
  256
370
   -1
100
AcDbCircle
 10
81.40000000000002
 20
-61.20000000000003
 40
0.4000000000000021
  0
LWPOLYLINE
  5
1F3
100
AcDbEntity
  8
metal
  6
ByLayer
 62
  256
370
   -1
100
AcDbPolyline
 90
    8
 70
    1
 43
0
 10
92.90000000000003
 20
-71.10000000000002
 42
0.414213562373095
 10
94.10000000000002
 20
-69.90000000000001
 10
94.10000000000002
 20
-61.70000000000002
 42
0.414213562373095
 10
92.90000000000003
 20
-60.50000000000003
 10
81.90000000000003
 20
-60.50000000000003
 42
0.414213562373095
 10
80.70000000000005
 20
-61.70000000000002
 10
80.70000000000003
 20
-69.90000000000002
 42
0.414213562373095
 10
81.90000000000002
 20
-71.10000000000001
  0
LWPOLYLINE
  5
1F4
100
AcDbEntity
  8
metal
  6
ByLayer
 62
  256
370
   -1
100
AcDbPolyline
 90
    8
 70
    1
 43
0
 10
92.90000000000003
 20
-71.7
 42
0.414213562373095
 10
94.70000000000002
 20
-69.90000000000002
 10
94.70000000000002
 20
-61.70000000000002
 42
0.414213562373095
 10
92.90000000000003
 20
-59.90000000000003
 10
81.90000000000003
 20
-59.90000000000003
 42
0.414213562373095
 10
80.10000000000005
 20
-61.70000000000002
 10
80.10000000000004
 20
-69.90000000000002
 42
0.414213562373095
 10
81.90000000000002
 20
-71.7
  0
DIMENSION
  5
1F5
100
AcDbEntity
  8
rozmir
  6
ByLayer
 62
  256
370
   -1
100
AcDbDimension
  2
*D30
 10
102
 20
-70.80000000000003
 30
0
 11
99.00000000000001
 21
-65.80000000000003
 31
0
 70
   32
 71
    5
  3
Standard
 53
0
210
0
220
0
230
1
100
AcDbAlignedDimension
 13
93.40000000000002
 23
-60.80000000000003
 33
0
 14
93.40000000000002
 24
-70.80000000000003
 34
0
 50
90
100
AcDbRotatedDimension
  0
DIMENSION
  5
1F6
100
AcDbEntity
  8
rozmir
  6
ByLayer
 62
  256
370
   -1
100
AcDbDimension
  2
*D31
 10
76.00000000000001
 20
-59.90000000000003
 30
0
 11
73.00000000000001
 21
-65.80000000000003
 31
0
 70
   32
 71
    5
  3
Standard
 53
0
210
0
220
0
230
1
100
AcDbAlignedDimension
 13
81.90000000000002
 23
-71.7
 33
0
 14
81.8999981059382
 24
-59.90000000000003
 34
0
 50
90
100
AcDbRotatedDimension
  0
DIMENSION
  5
1F7
100
AcDbEntity
  8
rozmir
  6
ByLayer
 62
  256
370
   -1
100
AcDbDimension
  2
*D32
 10
94.70000000000002
 20
-80
 30
0
 11
87.40000000000003
 21
-77
 31
0
 70
   32
 71
    5
  3
Standard
 53
0
210
0
220
0
230
1
100
AcDbAlignedDimension
 13
80.10000000000004
 23
-69.90000031389673
 33
0
 14
94.70000000000002
 24
-69.90000000000002
 34
0
100
AcDbRotatedDimension
  0
DIMENSION
  5
1F8
100
AcDbEntity
  8
rozmir
  6
ByLayer
 62
  256
370
   -1
100
AcDbDimension
  2
*D33
 10
93.80000000000003
 20
-55
 30
0
 11
87.40000000000002
 21
-52
 31
0
 70
   32
 71
    5
  3
Standard
 53
0
210
0
220
0
230
1
100
AcDbAlignedDimension
 13
81.00000000000001
 23
-61.20000000000003
 33
0
 14
93.80000000000003
 24
-61.20000000000003
 34
0
100
AcDbRotatedDimension
  0
LWPOLYLINE
  5
1F9
100
AcDbEntity
  8
metal
  6
ByLayer
 62
  256
370
   -1
100
AcDbPolyline
 90
    4
 70
    1
 43
0
 10
-81.3
 20
-71.7
 10
-81.3
 20
-59.9
 10
-81.89999999999999
 20
-59.9
 10
-81.90000000000001
 20
-71.70000000000002
  0
LWPOLYLINE
  5
1FA
100
AcDbEntity
  8
metal
  6
ByLayer
 62
  256
370
   -1
100
AcDbPolyline
 90
    4
 70
    1
 43
0
 10
-61.29999999999998
 20
-71.7
 10
-61.29999999999998
 20
-59.9
 10
-61.89999999999998
 20
-59.9
 10
-61.89999999999999
 20
-71.70000000000002
  0
LWPOLYLINE
  5
1FB
100
AcDbEntity
  8
metal
  6
ByLayer
 62
  256
370
   -1
100
AcDbPolyline
 90
    4
 70
    1
 43
0
 10
-41.29999999999997
 20
-71.7
 10
-41.29999999999997
 20
-59.9
 10
-41.89999999999996
 20
-59.9
 10
-41.89999999999998
 20
-71.70000000000002
  0
LWPOLYLINE
  5
1FC
100
AcDbEntity
  8
metal
  6
ByLayer
 62
  256
370
   -1
100
AcDbPolyline
 90
    4
 70
    1
 43
0
 10
-21.29999999999995
 20
-71.7
 10
-21.29999999999995
 20
-59.9
 10
-21.89999999999995
 20
-59.9
 10
-21.89999999999996
 20
-71.70000000000002
  0
LWPOLYLINE
  5
1FD
100
AcDbEntity
  8
metal
  6
ByLayer
 62
  256
370
   -1
100
AcDbPolyline
 90
    4
 70
    1
 43
0
 10
-1.29999999999994
 20
-71.7
 10
-1.29999999999994
 20
-59.9
 10
-1.899999999999935
 20
-59.9
 10
-1.899999999999949
 20
-71.70000000000002
  0
LWPOLYLINE
  5
1FE
100
AcDbEntity
  8
metal
  6
ByLayer
 62
  256
370
   -1
100
AcDbPolyline
 90
    4
 70
    1
 43
0
 10
18.70000000000007
 20
-71.7
 10
18.70000000000007
 20
-59.9
 10
18.10000000000008
 20
-59.9
 10
18.10000000000007
 20
-71.70000000000002
  0
LWPOLYLINE
  5
1FF
100
AcDbEntity
  8
metal
  6
ByLayer
 62
  256
370
   -1
100
AcDbPolyline
 90
    4
 70
    1
 43
0
 10
38.70000000000009
 20
-71.7
 10
38.70000000000009
 20
-59.9
 10
38.10000000000009
 20
-59.9
 10
38.10000000000008
 20
-71.70000000000002
  0
LWPOLYLINE
  5
200
100
AcDbEntity
  8
metal
  6
ByLayer
 62
  256
370
   -1
100
AcDbPolyline
 90
    4
 70
    1
 43
0
 10
58.70000000000012
 20
-71.7
 10
58.70000000000012
 20
-59.9
 10
58.10000000000012
 20
-59.9
 10
58.10000000000011
 20
-71.70000000000002
  0
LEADER
  5
201
100
AcDbEntity
  8
rozmir
  6
ByBlock
 62
  256
370
   -1
100
AcDbLeader
  3
Standard
 71
    1
 72
    0
 73
    3
 74
    0
 75
    0
 40
1
 41
10
 76
2
 76
2
 10
-61.89999999999999
 20
-65
 30
0
 10
-71
 20
-57
 30
0
  0
LEADER
  5
202
100
AcDbEntity
  8
rozmir
  6
ByBlock
 62
  256
370
   -1
100
AcDbLeader
  3
Standard
 71
    1
 72
    0
 73
    3
 74
    0
 75
    0
 40
1
 41
10
 76
2
 76
2
 10
-20
 20
-70
 30
0
 10
-12
 20
-57
 30
0
  0
MTEXT
  5
203
100
AcDbEntity
  8
rozmir
  6
ByLayer
 62
  256
370
   -1
100
AcDbMText
 10
-70
 20
-56
 30
0
 40
4
 41
47.33333333333376
 71
    7
 72
    1
  1
 %%C6 
  7
cyrillic_ii
210
0
220
0
230
1
 50
360
 73
    2
 44
1
  0
LEADER
  5
204
100
AcDbEntity
  8
rozmir
  6
ByBlock
 62
  256
370
   -1
100
AcDbLeader
  3
Standard
 71
    1
 72
    0
 73
    3
 74
    0
 75
    0
 40
1
 41
10
 76
3
 76
3
 10
-81.3
 20
-65
 30
0
 10
-71
 20
-57
 30
0
 10
-21
 20
-57
 30
0
  0
LEADER
  5
205
100
AcDbEntity
  8
rozmir
  6
ByBlock
 62
  256
370
   -1
100
AcDbLeader
  3
Standard
 71
    1
 72
    0
 73
    3
 74
    0
 75
    0
 40
1
 41
10
 76
3
 76
3
 10
-20
 20
-60.8
 30
0
 10
-12
 20
-57
 30
0
 10
38
 20
-57
 30
0
  0
MTEXT
  5
206
100
AcDbEntity
  8
rozmir
  6
ByLayer
 62
  256
370
   -1
100
AcDbMText
 10
-11
 20
-56
 30
0
 40
4
 41
47.33333333333351
 71
    7
 72
    1
  1
 %%C8 
  7
cyrillic_ii
210
0
220
0
230
1
 50
360
 73
    2
 44
1
  0
MTEXT
  5
207
100
AcDbEntity
  8
rozmir
  6
ByLayer
 62
  256
370
   -1
100
AcDbMText
 10
-11
 20
-43
 30
0
 40
4
 41
77.55555555555556
 71
    5
 72
    1
  1
  u-.
  7
cyrillic_ii
210
0
220
0
230
1
 50
360
 73
    2
 44
1
  0
MTEXT
  5
208
100
AcDbEntity
  8
rozmir
  6
ByLayer
 62
  256
370
   -1
100
AcDbMText
 10
-20
 20
-93
 30
0
 40
4
 41
75.1111111111111
 71
    5
 72
    1
  1
  .
  7
cyrillic_ii
210
0
220
0
230
1
 50
360
 73
    2
 44
1
  0
LEADER
  5
209
100
AcDbEntity
  8
rozmir
  6
ByBlock
 62
  256
370
   -1
100
AcDbLeader
  3
Standard
 71
    1
 72
    0
 73
    3
 74
    0
 75
    0
 40
1
 41
10
 76
2
 76
2
 10
-60.69999999999999
 20
-113.2
 30
0
 10
-69.8
 20
-105.2
 30
0
  0
MTEXT
  5
20A
100
AcDbEntity
  8
rozmir
  6
ByLayer
 62
  256
370
   -1
100
AcDbMText
 10
-68.8
 20
-104.2
 30
0
 40
4
 41
47.33333333333376
 71
    7
 72
    1
  1
 %%C6 
  7
cyrillic_ii
210
0
220
0
230
1
 50
360
 73
    2
 44
1
  0
LEADER
  5
20B
100
AcDbEntity
  8
rozmir
  6
ByBlock
 62
  256
370
   -1
100
AcDbLeader
  3
Standard
 71
    1
 72
    0
 73
    3
 74
    0
 75
    0
 40
1
 41
10
 76
3
 76
3
 10
-80.09999999999999
 20
-113.2
 30
0
 10
-69.8
 20
-105.2
 30
0
 10
-19.8
 20
-105.2
 30
0
  0
LEADER
  5
20C
100
AcDbEntity
  8
rozmir
  6
ByBlock
 62
  256
370
   -1
100
AcDbLeader
  3
Standard
 71
    1
 72
    0
 73
    3
 74
    0
 75
    0
 40
1
 41
10
 76
3
 76
3
 10
-18.8
 20
-109
 30
0
 10
-10.8
 20
-105.2
 30
0
 10
39.2
 20
-105.2
 30
0
  0
MTEXT
  5
20D
100
AcDbEntity
  8
rozmir
  6
ByLayer
 62
  256
370
   -1
100
AcDbMText
 10
-9.799999999999997
 20
-104.2
 30
0
 40
4
 41
47.33333333333351
 71
    7
 72
    1
  1
 %%C8 
  7
cyrillic_ii
210
0
220
0
230
1
 50
360
 73
    2
 44
1
  0
LEADER
  5
20E
100
AcDbEntity
  8
rozmir
  6
ByBlock
 62
  256
370
   -1
100
AcDbLeader
  3
Standard
 71
    1
 72
    0
 73
    3
 74
    0
 75
    0
 40
1
 41
10
 76
2
 76
2
 10
-18.8
 20
-120
 30
0
 10
-10.8
 20
-105.2
 30
0
  0
ENDSEC
  0
SECTION
  2
OBJECTS
  0
DICTIONARY
  5
C
330
0
100
AcDbDictionary
281
    1
  3
ACAD_GROUP
350
D
  0
DICTIONARY
  5
D
330
C
100
AcDbDictionary
281
    1
  0
ENDSEC
  0
EOF
