999
dxfrw 0.6.3
  0
SECTION
  2
HEADER
  9
$ACADVER
  1
AC1021
  9
$DWGCODEPAGE
  3
ANSI_1252
  9
$INSBASE
 10
0
 20
0
 30
0
  9
$EXTMIN
 10
-7.5
 20
-24
 30
0
  9
$EXTMAX
 10
73
 20
36.5
 30
0
  9
$LIMMIN
 10
0
 20
0
  9
$LIMMAX
 10
420
 20
297
  9
$ORTHOMODE
 70
    0
  9
$REGENMODE
 70
    1
  9
$FILLMODE
 70
    1
  9
$QTEXTMODE
 70
    0
  9
$MIRRTEXT
 70
    0
  9
$LTSCALE
 40
1
  9
$ATTMODE
 70
    0
  9
$TEXTSIZE
 40
2.5
  9
$TRACEWID
 40
15.68
  9
$TEXTSTYLE
  7
STANDARD
  9
$CLAYER
  8
metal
  9
$CELTYPE
  6
BYLAYER
  9
$CECOLOR
 62
  256
  9
$CELTSCALE
 40
1
  9
$DISPSILH
 70
    0
  9
$DIMSCALE
 40
1
  9
$DIMASZ
 40
1
  9
$DIMEXO
 40
0.5
  9
$DIMDLI
 40
3.75
  9
$DIMRND
 40
0
  9
$DIMDLE
 40
0
  9
$DIMEXE
 40
1
  9
$DIMTP
 40
0
  9
$DIMTM
 40
0
  9
$DIMTXT
 40
2
  9
$DIMCEN
 40
2.5
  9
$DIMTSZ
 40
0.5
  9
$DIMTOL
 70
    0
  9
$DIMLIM
 70
    0
  9
$DIMTIH
 70
    0
  9
$DIMTOH
 70
    0
  9
$DIMSE1
 70
    0
  9
$DIMSE2
 70
    0
  9
$DIMTAD
 70
    1
  9
$DIMZIN
 70
    8
  9
$DIMBLK
  1

  9
$DIMASO
 70
    1
  9
$DIMSHO
 70
    1
  9
$DIMPOST
  1

  9
$DIMAPOST
  1

  9
$DIMALT
 70
    0
  9
$DIMALTD
 70
    3
  9
$DIMALTF
 40
0.03937
  9
$DIMLFAC
 40
10
  9
$DIMTOFL
 70
    1
  9
$DIMTVP
 40
0
  9
$DIMTIX
 70
    0
  9
$DIMSOXD
 70
    0
  9
$DIMSAH
 70
    0
  9
$DIMBLK1
  1

  9
$DIMBLK2
  1

  9
$DIMSTYLE
  2
STANDARD
  9
$DIMCLRD
 70
    0
  9
$DIMCLRE
 70
    0
  9
$DIMCLRT
 70
    0
  9
$DIMTFAC
 40
1
  9
$DIMGAP
 40
0.5
  9
$DIMJUST
 70
    0
  9
$DIMSD1
 70
    0
  9
$DIMSD2
 70
    0
  9
$DIMTOLJ
 70
    0
  9
$DIMTZIN
 70
    8
  9
$DIMALTZ
 70
    0
  9
$DIMALTTZ
 70
    0
  9
$DIMUPT
 70
    0
  9
$DIMDEC
 70
    1
  9
$DIMTDEC
 70
    2
  9
$DIMALTU
 70
    2
  9
$DIMALTTD
 70
    3
  9
$DIMTXSTY
  7
standard
  9
$DIMAUNIT
 70
    0
  9
$DIMADEC
 70
    0
  9
$DIMALTRND
 40
0
  9
$DIMAZIN
 70
    0
  9
$DIMDSEP
 70
   44
  9
$DIMATFIT
 70
    3
  9
$DIMFRAC
 70
    0
  9
$DIMLDRBLK
  1
STANDARD
  9
$DIMLUNIT
 70
    2
  9
$DIMLWD
 70
   -2
  9
$DIMLWE
 70
   -2
  9
$DIMTMOVE
 70
    0
  9
$DIMFXL
 40
1
  9
$DIMFXLON
 70
    0
  9
$DIMJOGANG
 40
0.7854
  9
$DIMTFILL
 70
    0
  9
$DIMTFILLCLR
 70
    0
  9
$DIMARCSYM
 70
    0
  9
$DIMLTYPE
  6

  9
$DIMLTEX1
  6

  9
$DIMLTEX2
  6

  9
$LUNITS
 70
    2
  9
$LUPREC
 70
    2
  9
$SKETCHINC
 40
1
  9
$FILLETRAD
 40
0
  9
$AUNITS
 70
    0
  9
$AUPREC
 70
    2
  9
$MENU
  1
.
  9
$ELEVATION
 40
0
  9
$PELEVATION
 40
0
  9
$THICKNESS
 40
0
  9
$LIMCHECK
 70
    0
  9
$CHAMFERA
 40
0
  9
$CHAMFERB
 40
0
  9
$CHAMFERC
 40
0
  9
$CHAMFERD
 40
0
  9
$SKPOLY
 70
    0
  9
$USRTIMER
 70
    1
  9
$ANGBASE
 50
0
  9
$ANGDIR
 70
    0
  9
$PDMODE
 70
   34
  9
$PDSIZE
 40
0
  9
$PLINEWID
 40
0
  9
$SPLFRAME
 70
    0
  9
$SPLINETYPE
 70
    2
  9
$SPLINESEGS
 70
    8
  9
$HANDSEED
  5
20000
  9
$SURFTAB1
 70
    6
  9
$SURFTAB2
 70
    6
  9
$SURFTYPE
 70
    6
  9
$SURFU
 70
    6
  9
$SURFV
 70
    6
  9
$UCSBASE
  2

  9
$UCSNAME
  2

  9
$UCSORG
 10
0
 20
0
 30
0
  9
$UCSXDIR
 10
1
 20
0
 30
0
  9
$UCSYDIR
 10
0
 20
1
 30
0
  9
$UCSORTHOREF
  2

  9
$UCSORTHOVIEW
 70
    0
  9
$UCSORGTOP
 10
0
 20
0
 30
0
  9
$UCSORGBOTTOM
 10
0
 20
0
 30
0
  9
$UCSORGLEFT
 10
0
 20
0
 30
0
  9
$UCSORGRIGHT
 10
0
 20
0
 30
0
  9
$UCSORGFRONT
 10
0
 20
0
 30
0
  9
$UCSORGBACK
 10
0
 20
0
 30
0
  9
$PUCSBASE
  2

  9
$PUCSNAME
  2

  9
$PUCSORG
 10
0
 20
0
 30
0
  9
$PUCSXDIR
 10
1
 20
0
 30
0
  9
$PUCSYDIR
 10
0
 20
1
 30
0
  9
$PUCSORTHOREF
  2

  9
$PUCSORTHOVIEW
 70
    0
  9
$PUCSORGTOP
 10
0
 20
0
 30
0
  9
$PUCSORGBOTTOM
 10
0
 20
0
 30
0
  9
$PUCSORGLEFT
 10
0
 20
0
 30
0
  9
$PUCSORGRIGHT
 10
0
 20
0
 30
0
  9
$PUCSORGFRONT
 10
0
 20
0
 30
0
  9
$PUCSORGBACK
 10
0
 20
0
 30
0
  9
$USERI1
 70
    0
  9
$USERI2
 70
    0
  9
$USERI3
 70
    0
  9
$USERI4
 70
    0
  9
$USERI5
 70
    0
  9
$USERR1
 40
0
  9
$USERR2
 40
0
  9
$USERR3
 40
0
  9
$USERR4
 40
0
  9
$USERR5
 40
0
  9
$WORLDVIEW
 70
    1
  9
$SHADEDGE
 70
    3
  9
$SHADEDIF
 70
   70
  9
$TILEMODE
 70
    1
  9
$MAXACTVP
 70
   64
  9
$PINSBASE
 10
4.609859154929578
 20
8.337323943661971
 30
0
  9
$PLIMCHECK
 70
    0
  9
$PEXTMIN
 10
0
 20
0
 30
0
  9
$PEXTMAX
 10
0
 20
0
 30
0
  9
$GRIDMODE
 70
    1
  9
$SNAPSTYLE
 70
    0
  9
$GRIDUNIT
 10
0
 20
0
  9
$PLIMMIN
 10
0
 20
0
  9
$PLIMMAX
 10
29.7
 20
21
  9
$UNITMODE
 70
    0
  9
$VISRETAIN
 70
    1
  9
$PLINEGEN
 70
    0
  9
$PSLTSCALE
 70
    1
  9
$TREEDEPTH
 70
 3020
  9
$CMLSTYLE
  2
Standard
  9
$CMLJUST
 70
    0
  9
$CMLSCALE
 40
20
  9
$PROXYGRAPHICS
 70
    1
  9
$MEASUREMENT
 70
    1
  9
$CELWEIGHT
370
   -1
  9
$ENDCAPS
280
    0
  9
$JOINSTYLE
280
    0
  9
$LWDISPLAY
290
    0
  9
$INSUNITS
 70
    5
  9
$HYPERLINKBASE
  1

  9
$STYLESHEET
  1

  9
$XEDIT
290
    1
  9
$CEPSNTYPE
380
    0
  9
$PSTYLEMODE
290
    1
  9
$EXTNAMES
290
    1
  9
$PSVPSCALE
 40
0.3126758801826027
  9
$OLESTARTUP
290
    0
  9
$SORTENTS
280
  127
  9
$INDEXCTL
280
    0
  9
$HIDETEXT
280
    1
  9
$XCLIPFRAME
290
    0
  9
$HALOGAP
280
    0
  9
$OBSCOLOR
 70
  257
  9
$OBSLTYPE
280
    0
  9
$INTERSECTIONDISPLAY
280
    0
  9
$INTERSECTIONCOLOR
 70
  257
  9
$DIMASSOC
280
    1
  9
$PROJECTNAME
  1

  9
$CAMERADISPLAY
290
    0
  9
$LENSLENGTH
 40
50
  9
$CAMERAHEIGHT
 40
0
  9
$STEPSPERSEC
 40
2
  9
$STEPSIZE
 40
50
  9
$3DDWFPREC
 40
2
  9
$PSOLWIDTH
 40
5
  9
$PSOLHEIGHT
 40
80
  9
$LOFTANG1
 40
1.570796326794897
  9
$LOFTANG2
 40
1.570796326794897
  9
$LOFTMAG1
 40
0
  9
$LOFTMAG2
 40
0
  9
$LOFTPARAM
 70
    7
  9
$LOFTNORMALS
280
    1
  9
$LATITUDE
 40
1
  9
$LONGITUDE
 40
1
  9
$NORTHDIRECTION
 40
0
  9
$TIMEZONE
 70
-8000
  9
$LIGHTGLYPHDISPLAY
280
    1
  9
$TILEMODELIGHTSYNCH
280
    1
  9
$SOLIDHIST
280
    1
  9
$SHOWHIST
280
    1
  9
$DWFFRAME
280
    2
  9
$DGNFRAME
280
    0
  9
$REALWORLDSCALE
290
    1
  9
$INTERFERECOLOR
 62
    1
  9
$CSHADOW
280
    0
  9
$SHADOWPLANELOCATION
 40
0
  0
ENDSEC
  0
SECTION
  2
CLASSES
  0
ENDSEC
  0
SECTION
  2
TABLES
  0
TABLE
  2
VPORT
  5
8
330
0
100
AcDbSymbolTable
 70
    1
  0
VPORT
  5
31
330
2
100
AcDbSymbolTableRecord
100
AcDbViewportTableRecord
  2
*ACTIVE
 70
    0
 10
0
 20
0
 11
1
 21
1
 12
43.32952380952381
 22
18.84142857142857
 13
0
 23
0
 14
10
 24
10
 15
10
 25
10
 16
0
 26
0
 36
1
 17
0
 27
0
 37
0
 40
62.8047619047619
 41
1.715596330275229
 42
50
 43
0
 44
0
 50
0
 51
0
 71
    0
 72
  100
 73
    1
 74
    3
 75
    0
 76
    1
 77
    0
 78
    0
281
    0
 65
    1
110
0
120
0
130
0
111
1
121
0
131
0
112
0
122
1
132
0
 79
    0
146
0
348
10020
 60
    7
 61
    5
292
1
282
    1
141
0
142
0
 63
  250
421
3358443
  0
ENDTAB
  0
TABLE
  2
LTYPE
  5
5
330
0
100
AcDbSymbolTable
 70
    4
  0
LTYPE
  5
14
330
5
100
AcDbSymbolTableRecord
100
AcDbLinetypeTableRecord
  2
ByBlock
 70
    0
  3

 72
   65
 73
    0
 40
0
  0
LTYPE
  5
15
330
5
100
AcDbSymbolTableRecord
100
AcDbLinetypeTableRecord
  2
ByLayer
 70
    0
  3

 72
   65
 73
    0
 40
0
  0
LTYPE
  5
16
330
5
100
AcDbSymbolTableRecord
100
AcDbLinetypeTableRecord
  2
Continuous
 70
    0
  3
Solid line
 72
   65
 73
    0
 40
0
  0
LTYPE
  5
32
330
5
100
AcDbSymbolTableRecord
100
AcDbLinetypeTableRecord
  2
DOT
 70
    0
  3
Dot . . . . . . . . . . . . . . . . . . . . . .
 72
   65
 73
    2
 40
6.35
 49
0
 74
    0
 49
-6.35
 74
    0
  0
LTYPE
  5
33
330
5
100
AcDbSymbolTableRecord
100
AcDbLinetypeTableRecord
  2
DOTTINY
 70
    0
  3
Dot (.15x) .....................................
 72
   65
 73
    2
 40
0.9525
 49
0
 74
    0
 49
-0.9525
 74
    0
  0
LTYPE
  5
34
330
5
100
AcDbSymbolTableRecord
100
AcDbLinetypeTableRecord
  2
DOT2
 70
    0
  3
Dot (.5x) .....................................
 72
   65
 73
    2
 40
3.175
 49
0
 74
    0
 49
-3.175
 74
    0
  0
LTYPE
  5
35
330
5
100
AcDbSymbolTableRecord
100
AcDbLinetypeTableRecord
  2
DOTX2
 70
    0
  3
Dot (2x) .  .  .  .  .  .  .  .  .  .  .  .  .
 72
   65
 73
    2
 40
12.7
 49
0
 74
    0
 49
-12.7
 74
    0
  0
LTYPE
  5
36
330
5
100
AcDbSymbolTableRecord
100
AcDbLinetypeTableRecord
  2
DASHED
 70
    0
  3
Dashed _ _ _ _ _ _ _ _ _ _ _ _ _ _ _ _ _
 72
   65
 73
    2
 40
19.05
 49
12.7
 74
    0
 49
-6.35
 74
    0
  0
LTYPE
  5
37
330
5
100
AcDbSymbolTableRecord
100
AcDbLinetypeTableRecord
  2
DASHEDTINY
 70
    0
  3
Dashed (.15x) _ _ _ _ _ _ _ _ _ _ _ _ _ _ _ _ _
 72
   65
 73
    2
 40
2.8575
 49
1.905
 74
    0
 49
-0.9525
 74
    0
  0
LTYPE
  5
38
330
5
100
AcDbSymbolTableRecord
100
AcDbLinetypeTableRecord
  2
DASHED2
 70
    0
  3
Dashed (.5x) _ _ _ _ _ _ _ _ _ _ _ _ _ _ _ _ _
 72
   65
 73
    2
 40
9.524999999999999
 49
6.35
 74
    0
 49
-3.175
 74
    0
  0
LTYPE
  5
39
330
5
100
AcDbSymbolTableRecord
100
AcDbLinetypeTableRecord
  2
DASHEDX2
 70
    0
  3
Dashed (2x) ____  ____  ____  ____  ____  ___
 72
   65
 73
    2
 40
38.09999999999999
 49
25.4
 74
    0
 49
-12.7
 74
    0
  0
LTYPE
  5
3A
330
5
100
AcDbSymbolTableRecord
100
AcDbLinetypeTableRecord
  2
DASHDOT
 70
    0
  3
Dash dot __ . __ . __ . __ . __ . __ . __ . __
 72
   65
 73
    4
 40
25.4
 49
12.7
 74
    0
 49
-6.35
 74
    0
 49
0
 74
    0
 49
-6.35
 74
    0
  0
LTYPE
  5
3B
330
5
100
AcDbSymbolTableRecord
100
AcDbLinetypeTableRecord
  2
DASHDOTTINY
 70
    0
  3
Dash dot (.15x) _._._._._._._._._._._._._._._.
 72
   65
 73
    4
 40
3.81
 49
1.905
 74
    0
 49
-0.9525
 74
    0
 49
0
 74
    0
 49
-0.9525
 74
    0
  0
LTYPE
  5
3C
330
5
100
AcDbSymbolTableRecord
100
AcDbLinetypeTableRecord
  2
DASHDOT2
 70
    0
  3
Dash dot (.5x) _._._._._._._._._._._._._._._.
 72
   65
 73
    4
 40
12.7
 49
6.35
 74
    0
 49
-3.175
 74
    0
 49
0
 74
    0
 49
-3.175
 74
    0
  0
LTYPE
  5
3D
330
5
100
AcDbSymbolTableRecord
100
AcDbLinetypeTableRecord
  2
DASHDOTX2
 70
    0
  3
Dash dot (2x) ____  .  ____  .  ____  .  ___
 72
   65
 73
    4
 40
50.8
 49
25.4
 74
    0
 49
-12.7
 74
    0
 49
0
 74
    0
 49
-12.7
 74
    0
  0
LTYPE
  5
3E
330
5
100
AcDbSymbolTableRecord
100
AcDbLinetypeTableRecord
  2
DIVIDE
 70
    0
  3
Divide ____ . . ____ . . ____ . . ____ . . ____
 72
   65
 73
    6
 40
31.75
 49
12.7
 74
    0
 49
-6.35
 74
    0
 49
0
 74
    0
 49
-6.35
 74
    0
 49
0
 74
    0
 49
-6.35
 74
    0
  0
LTYPE
  5
3F
330
5
100
AcDbSymbolTableRecord
100
AcDbLinetypeTableRecord
  2
DIVIDETINY
 70
    0
  3
Divide (.15x) __..__..__..__..__..__..__..__.._
 72
   65
 73
    6
 40
4.7625
 49
1.905
 74
    0
 49
-0.9525
 74
    0
 49
0
 74
    0
 49
-0.9525
 74
    0
 49
0
 74
    0
 49
-0.9525
 74
    0
  0
LTYPE
  5
40
330
5
100
AcDbSymbolTableRecord
100
AcDbLinetypeTableRecord
  2
DIVIDE2
 70
    0
  3
Divide (.5x) __..__..__..__..__..__..__..__.._
 72
   65
 73
    6
 40
15.875
 49
6.35
 74
    0
 49
-3.175
 74
    0
 49
0
 74
    0
 49
-3.175
 74
    0
 49
0
 74
    0
 49
-3.175
 74
    0
  0
LTYPE
  5
41
330
5
100
AcDbSymbolTableRecord
100
AcDbLinetypeTableRecord
  2
DIVIDEX2
 70
    0
  3
Divide (2x) ________  .  .  ________  .  .  _
 72
   65
 73
    6
 40
63.5
 49
25.4
 74
    0
 49
-12.7
 74
    0
 49
0
 74
    0
 49
-12.7
 74
    0
 49
0
 74
    0
 49
-12.7
 74
    0
  0
LTYPE
  5
42
330
5
100
AcDbSymbolTableRecord
100
AcDbLinetypeTableRecord
  2
BORDER
 70
    0
  3
Border __ __ . __ __ . __ __ . __ __ . __ __ .
 72
   65
 73
    6
 40
44.45
 49
12.7
 74
    0
 49
-6.35
 74
    0
 49
12.7
 74
    0
 49
-6.35
 74
    0
 49
0
 74
    0
 49
-6.35
 74
    0
  0
LTYPE
  5
43
330
5
100
AcDbSymbolTableRecord
100
AcDbLinetypeTableRecord
  2
BORDERTINY
 70
    0
  3
Border (.15x) __.__.__.__.__.__.__.__.__.__.__.
 72
   65
 73
    6
 40
6.6675
 49
1.905
 74
    0
 49
-0.9525
 74
    0
 49
1.905
 74
    0
 49
-0.9525
 74
    0
 49
0
 74
    0
 49
-0.9525
 74
    0
  0
LTYPE
  5
44
330
5
100
AcDbSymbolTableRecord
100
AcDbLinetypeTableRecord
  2
BORDER2
 70
    0
  3
Border (.5x) __.__.__.__.__.__.__.__.__.__.__.
 72
   65
 73
    6
 40
22.225
 49
6.35
 74
    0
 49
-3.175
 74
    0
 49
6.35
 74
    0
 49
-3.175
 74
    0
 49
0
 74
    0
 49
-3.175
 74
    0
  0
LTYPE
  5
45
330
5
100
AcDbSymbolTableRecord
100
AcDbLinetypeTableRecord
  2
BORDERX2
 70
    0
  3
Border (2x) ____  ____  .  ____  ____  .  ___
 72
   65
 73
    6
 40
88.89999999999999
 49
25.4
 74
    0
 49
-12.7
 74
    0
 49
25.4
 74
    0
 49
-12.7
 74
    0
 49
0
 74
    0
 49
-12.7
 74
    0
  0
LTYPE
  5
46
330
5
100
AcDbSymbolTableRecord
100
AcDbLinetypeTableRecord
  2
CENTER
 70
    0
  3
Center ____ _ ____ _ ____ _ ____ _ ____ _ ____
 72
   65
 73
    4
 40
50.8
 49
31.75
 74
    0
 49
-6.35
 74
    0
 49
6.35
 74
    0
 49
-6.35
 74
    0
  0
LTYPE
  5
47
330
5
100
AcDbSymbolTableRecord
100
AcDbLinetypeTableRecord
  2
CENTERTINY
 70
    0
  3
Center (.15x) ___ _ ___ _ ___ _ ___ _ ___ _ ___
 72
   65
 73
    4
 40
7.619999999999999
 49
4.7625
 74
    0
 49
-0.9525
 74
    0
 49
0.9525
 74
    0
 49
-0.9525
 74
    0
  0
LTYPE
  5
48
330
5
100
AcDbSymbolTableRecord
100
AcDbLinetypeTableRecord
  2
CENTER2
 70
    0
  3
Center (.5x) ___ _ ___ _ ___ _ ___ _ ___ _ ___
 72
   65
 73
    4
 40
28.575
 49
19.05
 74
    0
 49
-3.175
 74
    0
 49
3.175
 74
    0
 49
-3.175
 74
    0
  0
LTYPE
  5
49
330
5
100
AcDbSymbolTableRecord
100
AcDbLinetypeTableRecord
  2
CENTERX2
 70
    0
  3
Center (2x) ________  __  ________  __  _____
 72
   65
 73
    4
 40
101.6
 49
63.5
 74
    0
 49
-12.7
 74
    0
 49
12.7
 74
    0
 49
-12.7
 74
    0
  0
ENDTAB
  0
TABLE
  2
LAYER
  5
2
330
0
100
AcDbSymbolTable
 70
    1
  0
LAYER
  5
10
330
2
100
AcDbSymbolTableRecord
100
AcDbLayerTableRecord
  2
0
 70
    1
 62
    7
  6
CONTINUOUS
370
   -3
390
F
1001
LibreCad
1070
    1
  0
LAYER
  5
4A
330
2
100
AcDbSymbolTableRecord
100
AcDbLayerTableRecord
  2
boxwall
 70
    0
 62
   56
420
8421376
  6
CONTINUOUS
370
   50
390
F
  0
LAYER
  5
4B
330
2
100
AcDbSymbolTableRecord
100
AcDbLayerTableRecord
  2
dimensions
 70
    0
 62
    4
  6
CONTINUOUS
370
   13
390
F
  0
LAYER
  5
4C
330
2
100
AcDbSymbolTableRecord
100
AcDbLayerTableRecord
  2
face
 70
    0
 62
    3
  6
CONTINUOUS
370
   50
390
F
  0
LAYER
  5
4D
330
2
100
AcDbSymbolTableRecord
100
AcDbLayerTableRecord
  2
glass
 70
    0
 62
    5
  6
CONTINUOUS
370
   50
390
F
  0
LAYER
  5
4E
330
2
100
AcDbSymbolTableRecord
100
AcDbLayerTableRecord
  2
metal
 70
    0
 62
  176
420
  128
  6
CONTINUOUS
370
   50
390
F
  0
LAYER
  5
4F
330
2
100
AcDbSymbolTableRecord
100
AcDbLayerTableRecord
  2
support
 70
    1
 62
   96
420
32768
  6
CONTINUOUS
370
   50
390
F
  0
ENDTAB
  0
TABLE
  2
STYLE
  5
3
330
0
100
AcDbSymbolTable
 70
    3
  0
STYLE
  5
50
330
2
100
AcDbSymbolTableRecord
100
AcDbTextStyleTableRecord
  2
cyrillic_ii
 70
    0
 40
0
 41
1
 50
0
 71
    0
 42
1
  3
cyrillic_ii
  4

  0
STYLE
  5
51
330
2
100
AcDbSymbolTableRecord
100
AcDbTextStyleTableRecord
  2
unicode
 70
    0
 40
0
 41
1
 50
0
 71
    0
 42
1
  3
unicode
  4

  0
STYLE
  5
52
330
2
100
AcDbSymbolTableRecord
100
AcDbTextStyleTableRecord
  2
Standard
 70
    0
 40
0
 41
1
 50
0
 71
    0
 42
1
  3
txt
  4

  0
ENDTAB
  0
TABLE
  2
VIEW
  5
6
330
0
100
AcDbSymbolTable
 70
    0
  0
ENDTAB
  0
TABLE
  2
UCS
  5
7
330
0
100
AcDbSymbolTable
 70
    0
  0
ENDTAB
  0
TABLE
  2
APPID
  5
9
330
0
100
AcDbSymbolTable
 70
    1
  0
APPID
  5
12
330
9
100
AcDbSymbolTableRecord
100
AcDbRegAppTableRecord
  2
ACAD
 70
    0
  0
APPID
  5
53
330
9
100
AcDbSymbolTableRecord
100
AcDbRegAppTableRecord
  2
LibreCad
 70
    0
  0
ENDTAB
  0
TABLE
  2
DIMSTYLE
  5
A
330
0
100
AcDbSymbolTable
 70
    1
100
AcDbDimStyleTable
 71
    1
  0
DIMSTYLE
105
54
330
A
100
AcDbSymbolTableRecord
100
AcDbDimStyleTableRecord
  2
Standard
 70
    0
 40
1
 41
1
 42
0.5
 43
0.38
 44
1
 45
0
 46
0
 47
0
 48
0
 49
1
140
2
141
0.09
142
0.5
143
25.4
144
10
145
0
146
1
147
0.5
148
0
 71
    0
 72
    0
 73
    0
 74
    1
 75
    0
 76
    0
 77
    0
 78
    8
 79
    0
170
    0
171
    2
172
    0
173
    0
174
    0
175
    0
176
    0
177
    0
178
    0
179
    0
271
    1
272
    4
273
    2
274
    2
275
    0
276
    0
277
    2
278
   44
279
    0
280
    0
281
    0
282
    0
283
    1
284
    0
285
    0
286
    0
288
    0
289
    3
340
standard
341

371
   -2
372
   -2
  0
ENDTAB
  0
TABLE
  2
BLOCK_RECORD
  5
1
330
0
100
AcDbSymbolTable
 70
    2
  0
BLOCK_RECORD
  5
1F
330
1
100
AcDbSymbolTableRecord
100
AcDbBlockTableRecord
  2
*Model_Space
 70
    0
280
    1
281
    0
  0
BLOCK_RECORD
  5
1E
330
1
100
AcDbSymbolTableRecord
100
AcDbBlockTableRecord
  2
*Paper_Space
 70
    0
280
    1
281
    0
  0
BLOCK_RECORD
  5
55
330
1
100
AcDbSymbolTableRecord
100
AcDbBlockTableRecord
  2
*D1
 70
    0
280
    1
281
    0
  0
BLOCK_RECORD
  5
58
330
1
100
AcDbSymbolTableRecord
100
AcDbBlockTableRecord
  2
*D2
 70
    0
280
    1
281
    0
  0
BLOCK_RECORD
  5
5B
330
1
100
AcDbSymbolTableRecord
100
AcDbBlockTableRecord
  2
*D12
 70
    0
280
    1
281
    0
  0
BLOCK_RECORD
  5
5E
330
1
100
AcDbSymbolTableRecord
100
AcDbBlockTableRecord
  2
*D18
 70
    0
280
    1
281
    0
  0
BLOCK_RECORD
  5
61
330
1
100
AcDbSymbolTableRecord
100
AcDbBlockTableRecord
  2
*D16
 70
    0
280
    1
281
    0
  0
BLOCK_RECORD
  5
64
330
1
100
AcDbSymbolTableRecord
100
AcDbBlockTableRecord
  2
*D8
 70
    0
280
    1
281
    0
  0
BLOCK_RECORD
  5
67
330
1
100
AcDbSymbolTableRecord
100
AcDbBlockTableRecord
  2
*D15
 70
    0
280
    1
281
    0
  0
BLOCK_RECORD
  5
6A
330
1
100
AcDbSymbolTableRecord
100
AcDbBlockTableRecord
  2
*D6
 70
    0
280
    1
281
    0
  0
BLOCK_RECORD
  5
6D
330
1
100
AcDbSymbolTableRecord
100
AcDbBlockTableRecord
  2
*D14
 70
    0
280
    1
281
    0
  0
BLOCK_RECORD
  5
70
330
1
100
AcDbSymbolTableRecord
100
AcDbBlockTableRecord
  2
*D3
 70
    0
280
    1
281
    0
  0
BLOCK_RECORD
  5
73
330
1
100
AcDbSymbolTableRecord
100
AcDbBlockTableRecord
  2
*D17
 70
    0
280
    1
281
    0
  0
BLOCK_RECORD
  5
76
330
1
100
AcDbSymbolTableRecord
100
AcDbBlockTableRecord
  2
*D22
 70
    0
280
    1
281
    0
  0
BLOCK_RECORD
  5
79
330
1
100
AcDbSymbolTableRecord
100
AcDbBlockTableRecord
  2
*D24
 70
    0
280
    1
281
    0
  0
BLOCK_RECORD
  5
7C
330
1
100
AcDbSymbolTableRecord
100
AcDbBlockTableRecord
  2
*D13
 70
    0
280
    1
281
    0
  0
BLOCK_RECORD
  5
7F
330
1
100
AcDbSymbolTableRecord
100
AcDbBlockTableRecord
  2
*D5
 70
    0
280
    1
281
    0
  0
BLOCK_RECORD
  5
82
330
1
100
AcDbSymbolTableRecord
100
AcDbBlockTableRecord
  2
*D23
 70
    0
280
    1
281
    0
  0
BLOCK_RECORD
  5
85
330
1
100
AcDbSymbolTableRecord
100
AcDbBlockTableRecord
  2
*D4
 70
    0
280
    1
281
    0
  0
BLOCK_RECORD
  5
88
330
1
100
AcDbSymbolTableRecord
100
AcDbBlockTableRecord
  2
*D9
 70
    0
280
    1
281
    0
  0
BLOCK_RECORD
  5
8B
330
1
100
AcDbSymbolTableRecord
100
AcDbBlockTableRecord
  2
*D10
 70
    0
280
    1
281
    0
  0
BLOCK_RECORD
  5
8E
330
1
100
AcDbSymbolTableRecord
100
AcDbBlockTableRecord
  2
*D7
 70
    0
280
    1
281
    0
  0
BLOCK_RECORD
  5
91
330
1
100
AcDbSymbolTableRecord
100
AcDbBlockTableRecord
  2
*D20
 70
    0
280
    1
281
    0
  0
BLOCK_RECORD
  5
94
330
1
100
AcDbSymbolTableRecord
100
AcDbBlockTableRecord
  2
*D11
 70
    0
280
    1
281
    0
  0
BLOCK_RECORD
  5
97
330
1
100
AcDbSymbolTableRecord
100
AcDbBlockTableRecord
  2
*D19
 70
    0
280
    1
281
    0
  0
BLOCK_RECORD
  5
9A
330
1
100
AcDbSymbolTableRecord
100
AcDbBlockTableRecord
  2
*D21
 70
    0
280
    1
281
    0
  0
ENDTAB
  0
ENDSEC
  0
SECTION
  2
BLOCKS
  0
BLOCK
  5
20
330
1F
100
AcDbEntity
  8
0
100
AcDbBlockBegin
  2
*Model_Space
 70
    0
 10
0
 20
0
 30
0
  3
*Model_Space
  1

  0
ENDBLK
  5
21
330
1F
100
AcDbEntity
  8
0
100
AcDbBlockEnd
  0
BLOCK
  5
1C
330
1B
100
AcDbEntity
  8
0
100
AcDbBlockBegin
  2
*Paper_Space
 70
    0
 10
0
 20
0
 30
0
  3
*Paper_Space
  1

  0
ENDBLK
  5
1D
330
1F
100
AcDbEntity
  8
0
100
AcDbBlockEnd
  0
BLOCK
  5
56
330
55
100
AcDbEntity
  8
0
100
AcDbBlockBegin
  2
*D1
 70
    1
 10
0
 20
0
  3
*D1
  1

  0
LINE
  5
9D
100
AcDbEntity
  8
dimensions
  6
ByBlock
 62
    0
370
   -2
100
AcDbLine
 10
33
 20
1.400000000000038
 11
33
 21
18.70000000000004
  0
LINE
  5
9E
100
AcDbEntity
  8
dimensions
  6
ByBlock
 62
    0
370
   -2
100
AcDbLine
 10
32.64644660940672
 20
1.753553390593312
 11
33.35355339059328
 21
1.046446609406764
  0
LINE
  5
9F
100
AcDbEntity
  8
dimensions
  6
ByBlock
 62
    0
370
   -2
100
AcDbLine
 10
32.64644660940672
 20
19.05355339059331
 11
33.35355339059328
 21
18.34644660940677
  0
MTEXT
  5
A0
100
AcDbEntity
  8
dimensions
  6
CONTINUOUS
 62
    0
370
   -2
100
AcDbMText
 10
31.5
 20
10.05000000000004
 30
0
 40
2
 41
3.55555555555568
 71
    5
 72
    1
  1
173
  7
standard
210
0
220
0
230
1
 50
90
 73
    2
 44
1
  0
LINE
  5
A1
100
AcDbEntity
  8
dimensions
  6
ByBlock
 62
    0
370
   -2
100
AcDbLine
 10
30.1
 20
1.400000000000038
 11
34
 21
1.400000000000038
  0
LINE
  5
A2
100
AcDbEntity
  8
dimensions
  6
ByBlock
 62
    0
370
   -2
100
AcDbLine
 10
30.1
 20
18.70000000000004
 11
34
 21
18.70000000000004
  0
ENDBLK
  5
57
330
55
100
AcDbEntity
  8
0
100
AcDbBlockEnd
  0
BLOCK
  5
59
330
58
100
AcDbEntity
  8
0
100
AcDbBlockBegin
  2
*D2
 70
    1
 10
0
 20
0
  3
*D2
  1

  0
LINE
  5
A3
100
AcDbEntity
  8
dimensions
  6
ByBlock
 62
    0
370
   -2
100
AcDbLine
 10
33
 20
3.400000000000038
 11
33
 21
-2
  0
LINE
  5
A4
100
AcDbEntity
  8
dimensions
  6
ByBlock
 62
    0
370
   -2
100
AcDbLine
 10
32.64644660940672
 20
1.753553390593312
 11
33.35355339059328
 21
1.046446609406764
  0
LINE
  5
A5
100
AcDbEntity
  8
dimensions
  6
ByBlock
 62
    0
370
   -2
100
AcDbLine
 10
32.64644660940672
 20
0.3535533905932734
 11
33.35355339059328
 21
-0.3535533905932743
  0
MTEXT
  5
A6
100
AcDbEntity
  8
dimensions
  6
CONTINUOUS
 62
    0
370
   -2
100
AcDbMText
 10
31.5
 20
3.011111111111149
 30
0
 40
2
 41
2.222222222222222
 71
    5
 72
    1
  1
14
  7
standard
210
0
220
0
230
1
 50
90
 73
    2
 44
1
  0
LINE
  5
A7
100
AcDbEntity
  8
dimensions
  6
ByBlock
 62
    0
370
   -2
100
AcDbLine
 10
30.1
 20
1.400000000000038
 11
34
 21
1.400000000000038
  0
LINE
  5
A8
100
AcDbEntity
  8
dimensions
  6
ByBlock
 62
    0
370
   -2
100
AcDbLine
 10
30.1
 20
-1.942890293094024e-16
 11
34
 21
-4.358735594678364e-16
  0
ENDBLK
  5
5A
330
58
100
AcDbEntity
  8
0
100
AcDbBlockEnd
  0
BLOCK
  5
5C
330
5B
100
AcDbEntity
  8
0
100
AcDbBlockBegin
  2
*D12
 70
    1
 10
0
 20
0
  3
*D12
  1

  0
LINE
  5
A9
100
AcDbEntity
  8
dimensions
  6
ByBlock
 62
    0
370
   -2
100
AcDbLine
 10
38.8
 20
-5.999999999999998
 11
45.2
 21
-5.999999999999998
  0
LINE
  5
AA
100
AcDbEntity
  8
dimensions
  6
ByBlock
 62
    0
370
   -2
100
AcDbLine
 10
39.15355339059327
 20
-5.646446609406724
 11
38.44644660940672
 21
-6.353553390593272
  0
LINE
  5
AB
100
AcDbEntity
  8
dimensions
  6
ByBlock
 62
    0
370
   -2
100
AcDbLine
 10
45.55355339059328
 20
-5.646446609406724
 11
44.84644660940673
 21
-6.353553390593272
  0
MTEXT
  5
AC
100
AcDbEntity
  8
dimensions
  6
CONTINUOUS
 62
    0
370
   -2
100
AcDbMText
 10
42
 20
-4.499999999999998
 30
0
 40
2
 41
2.66666666666679
 71
    5
 72
    1
  1
64
  7
standard
210
0
220
0
230
1
 50
0
 73
    2
 44
1
  0
LINE
  5
AD
100
AcDbEntity
  8
dimensions
  6
ByBlock
 62
    0
370
   -2
100
AcDbLine
 10
38.8
 20
0.9000000000000381
 11
38.8
 21
-6.999999999999998
  0
LINE
  5
AE
100
AcDbEntity
  8
dimensions
  6
ByBlock
 62
    0
370
   -2
100
AcDbLine
 10
45.2
 20
5.500000000000039
 11
45.2
 21
-6.999999999999998
  0
ENDBLK
  5
5D
330
5B
100
AcDbEntity
  8
0
100
AcDbBlockEnd
  0
BLOCK
  5
5F
330
5E
100
AcDbEntity
  8
0
100
AcDbBlockBegin
  2
*D18
 70
    1
 10
0
 20
0
  3
*D18
  1

  0
LINE
  5
AF
100
AcDbEntity
  8
dimensions
  6
ByBlock
 62
    0
370
   -2
100
AcDbLine
 10
-1
 20
-17.75
 11
-0.9999999999999997
 21
-13.6
  0
LINE
  5
B0
100
AcDbEntity
  8
dimensions
  6
ByBlock
 62
    0
370
   -2
100
AcDbLine
 10
-0.6464466094067263
 20
-16.10355339059327
 11
-1.353553390593274
 21
-15.39644660940673
  0
LINE
  5
B1
100
AcDbEntity
  8
dimensions
  6
ByBlock
 62
    0
370
   -2
100
AcDbLine
 10
-0.6464466094067263
 20
-15.95355339059327
 11
-1.353553390593274
 21
-15.24644660940673
  0
MTEXT
  5
B2
100
AcDbEntity
  8
dimensions
  6
CONTINUOUS
 62
    0
370
   -2
100
AcDbMText
 10
-2.5
 20
-13.71111111111105
 30
0
 40
2
 41
2.777777777777902
 71
    5
 72
    1
  1
1,5
  7
standard
210
0
220
0
230
1
 50
89.99999999999999
 73
    2
 44
1
  0
LINE
  5
B3
100
AcDbEntity
  8
dimensions
  6
ByBlock
 62
    0
370
   -2
100
AcDbLine
 10
-0.5
 20
-15.75
 11
-2
 21
-15.75
  0
LINE
  5
B4
100
AcDbEntity
  8
dimensions
  6
ByBlock
 62
    0
370
   -2
100
AcDbLine
 10
-0.5
 20
-15.6
 11
-2
 21
-15.6
  0
ENDBLK
  5
60
330
5E
100
AcDbEntity
  8
0
100
AcDbBlockEnd
  0
BLOCK
  5
62
330
61
100
AcDbEntity
  8
0
100
AcDbBlockBegin
  2
*D16
 70
    1
 10
0
 20
0
  3
*D16
  1

  0
LINE
  5
B5
100
AcDbEntity
  8
dimensions
  6
ByBlock
 62
    0
370
   -2
100
AcDbLine
 10
28
 20
21.00000000000004
 11
28
 21
25.25000000000012
  0
LINE
  5
B6
100
AcDbEntity
  8
dimensions
  6
ByBlock
 62
    0
370
   -2
100
AcDbLine
 10
27.64644660940673
 20
21.35355339059331
 11
28.35355339059327
 21
20.64644660940677
  0
LINE
  5
B7
100
AcDbEntity
  8
dimensions
  6
ByBlock
 62
    0
370
   -2
100
AcDbLine
 10
27.64644660940673
 20
25.60355339059339
 11
28.35355339059327
 21
24.89644660940685
  0
MTEXT
  5
B8
100
AcDbEntity
  8
dimensions
  6
CONTINUOUS
 62
    0
370
   -2
100
AcDbMText
 10
26.5
 20
28.25000000000018
 30
0
 40
2
 41
5.000000000000123
 71
    5
 72
    1
  1
42,5
  7
standard
210
0
220
0
230
1
 50
90
 73
    2
 44
1
  0
LINE
  5
B9
100
AcDbEntity
  8
dimensions
  6
ByBlock
 62
    0
370
   -2
100
AcDbLine
 10
30.7
 20
21.00000000000004
 11
27
 21
21.00000000000004
  0
LINE
  5
BA
100
AcDbEntity
  8
dimensions
  6
ByBlock
 62
    0
370
   -2
100
AcDbLine
 10
33.70000000000001
 20
25.25000000000012
 11
27
 21
25.25000000000012
  0
ENDBLK
  5
63
330
61
100
AcDbEntity
  8
0
100
AcDbBlockEnd
  0
BLOCK
  5
65
330
64
100
AcDbEntity
  8
0
100
AcDbBlockBegin
  2
*D8
 70
    1
 10
0
 20
0
  3
*D8
  1

  0
LINE
  5
BB
100
AcDbEntity
  8
dimensions
  6
ByBlock
 62
    0
370
   -2
100
AcDbLine
 10
17
 20
6.000000000000038
 11
17
 21
1.492139745096211e-16
  0
LINE
  5
BC
100
AcDbEntity
  8
dimensions
  6
ByBlock
 62
    0
370
   -2
100
AcDbLine
 10
17.35355339059327
 20
5.646446609406764
 11
16.64644660940673
 21
6.353553390593312
  0
LINE
  5
BD
100
AcDbEntity
  8
dimensions
  6
ByBlock
 62
    0
370
   -2
100
AcDbLine
 10
17.35355339059327
 20
-0.3535533905932736
 11
16.64644660940673
 21
0.353553390593274
  0
MTEXT
  5
BE
100
AcDbEntity
  8
dimensions
  6
CONTINUOUS
 62
    0
370
   -2
100
AcDbMText
 10
15.5
 20
3.000000000000019
 30
0
 40
2
 41
2.444444444444568
 71
    5
 72
    1
  1
60
  7
standard
210
0
220
0
230
1
 50
90
 73
    2
 44
1
  0
LINE
  5
BF
100
AcDbEntity
  8
dimensions
  6
ByBlock
 62
    0
370
   -2
100
AcDbLine
 10
18.6
 20
6.000000000000037
 11
16
 21
6.000000000000039
  0
LINE
  5
C0
100
AcDbEntity
  8
dimensions
  6
ByBlock
 62
    0
370
   -2
100
AcDbLine
 10
18.6
 20
6.123233995736766e-17
 11
16
 21
2.716786544243564e-16
  0
ENDBLK
  5
66
330
64
100
AcDbEntity
  8
0
100
AcDbBlockEnd
  0
BLOCK
  5
68
330
67
100
AcDbEntity
  8
0
100
AcDbBlockBegin
  2
*D15
 70
    1
 10
0
 20
0
  3
*D15
  1

  0
LINE
  5
C1
100
AcDbEntity
  8
dimensions
  6
ByBlock
 62
    0
370
   -2
100
AcDbLine
 10
17
 20
6.000000000000037
 11
17
 21
12.10000000000004
  0
LINE
  5
C2
100
AcDbEntity
  8
dimensions
  6
ByBlock
 62
    0
370
   -2
100
AcDbLine
 10
16.64644660940673
 20
6.353553390593311
 11
17.35355339059327
 21
5.646446609406763
  0
LINE
  5
C3
100
AcDbEntity
  8
dimensions
  6
ByBlock
 62
    0
370
   -2
100
AcDbLine
 10
16.64644660940673
 20
12.45355339059331
 11
17.35355339059327
 21
11.74644660940677
  0
MTEXT
  5
C4
100
AcDbEntity
  8
dimensions
  6
CONTINUOUS
 62
    0
370
   -2
100
AcDbMText
 10
15.5
 20
9.05000000000004
 30
0
 40
2
 41
2.000000000000124
 71
    5
 72
    1
  1
61
  7
standard
210
0
220
0
230
1
 50
90
 73
    2
 44
1
  0
LINE
  5
C5
100
AcDbEntity
  8
dimensions
  6
ByBlock
 62
    0
370
   -2
100
AcDbLine
 10
18.6
 20
6.000000000000037
 11
16
 21
6.000000000000037
  0
LINE
  5
C6
100
AcDbEntity
  8
dimensions
  6
ByBlock
 62
    0
370
   -2
100
AcDbLine
 10
18.6
 20
12.10000000000004
 11
16
 21
12.10000000000004
  0
ENDBLK
  5
69
330
67
100
AcDbEntity
  8
0
100
AcDbBlockEnd
  0
BLOCK
  5
6B
330
6A
100
AcDbEntity
  8
0
100
AcDbBlockBegin
  2
*D6
 70
    1
 10
0
 20
0
  3
*D6
  1

  0
LINE
  5
C7
100
AcDbEntity
  8
dimensions
  6
CONTINUOUS
 62
    7
370
    0
100
AcDbLine
 10
61.90000000000001
 20
9.400000000000038
 11
61.90000000000001
 21
13.00000000000004
  0
SOLID
  5
C8
100
AcDbEntity
  8
dimensions
  6
CONTINUOUS
 62
    7
370
    0
100
AcDbTrace
 10
61.90000000000001
 20
9.400000000000038
 30
0
 11
61.73348613689087
 21
10.40000000000004
 31
0
 12
62.06651386310915
 22
10.40000000000004
 32
0
 13
62.06651386310915
 23
10.40000000000004
 33
0
  0
ENDBLK
  5
6C
330
6A
100
AcDbEntity
  8
0
100
AcDbBlockEnd
  0
BLOCK
  5
6E
330
6D
100
AcDbEntity
  8
0
100
AcDbBlockBegin
  2
*D14
 70
    1
 10
0
 20
0
  3
*D14
  1

  0
LINE
  5
C9
100
AcDbEntity
  8
dimensions
  6
ByBlock
 62
    0
370
   -2
100
AcDbLine
 10
49.3
 20
-6
 11
68.40000000000002
 21
-6
  0
LINE
  5
CA
100
AcDbEntity
  8
dimensions
  6
ByBlock
 62
    0
370
   -2
100
AcDbLine
 10
49.65355339059327
 20
-5.646446609406726
 11
48.94644660940672
 21
-6.353553390593274
  0
LINE
  5
CB
100
AcDbEntity
  8
dimensions
  6
ByBlock
 62
    0
370
   -2
100
AcDbLine
 10
68.7535533905933
 20
-5.646446609406726
 11
68.04644660940674
 21
-6.353553390593274
  0
MTEXT
  5
CC
100
AcDbEntity
  8
dimensions
  6
CONTINUOUS
 62
    0
370
   -2
100
AcDbMText
 10
58.85000000000001
 20
-4.5
 30
0
 40
2
 41
3.111111111111111
 71
    5
 72
    1
  1
191
  7
standard
210
0
220
0
230
1
 50
0
 73
    2
 44
1
  0
LINE
  5
CD
100
AcDbEntity
  8
dimensions
  6
ByBlock
 62
    0
370
   -2
100
AcDbLine
 10
49.3
 20
5.500000000000039
 11
49.3
 21
-7
  0
LINE
  5
CE
100
AcDbEntity
  8
dimensions
  6
ByBlock
 62
    0
370
   -2
100
AcDbLine
 10
68.40000000000002
 20
-0.5000000000044222
 11
68.40000000000002
 21
-7
  0
ENDBLK
  5
6F
330
6D
100
AcDbEntity
  8
0
100
AcDbBlockEnd
  0
BLOCK
  5
71
330
70
100
AcDbEntity
  8
0
100
AcDbBlockBegin
  2
*D3
 70
    1
 10
0
 20
0
  3
*D3
  1

  0
LINE
  5
CF
100
AcDbEntity
  8
dimensions
  6
ByBlock
 62
    0
370
   -2
100
AcDbLine
 10
28
 20
21.00000000000004
 11
28
 21
-5.284661597215739e-17
  0
LINE
  5
D0
100
AcDbEntity
  8
dimensions
  6
ByBlock
 62
    0
370
   -2
100
AcDbLine
 10
28.35355339059327
 20
20.64644660940677
 11
27.64644660940673
 21
21.35355339059331
  0
LINE
  5
D1
100
AcDbEntity
  8
dimensions
  6
ByBlock
 62
    0
370
   -2
100
AcDbLine
 10
28.35355339059327
 20
-0.3535533905932738
 11
27.64644660940673
 21
0.3535533905932737
  0
MTEXT
  5
D2
100
AcDbEntity
  8
dimensions
  6
CONTINUOUS
 62
    0
370
   -2
100
AcDbMText
 10
26.5
 20
10.50000000000002
 30
0
 40
2
 41
3.555555555555555
 71
    5
 72
    1
  1
210
  7
standard
210
0
220
0
230
1
 50
90
 73
    2
 44
1
  0
LINE
  5
D3
100
AcDbEntity
  8
dimensions
  6
ByBlock
 62
    0
370
   -2
100
AcDbLine
 10
30.70000000000004
 20
21.00000000000004
 11
27
 21
21.00000000000004
  0
LINE
  5
D4
100
AcDbEntity
  8
dimensions
  6
ByBlock
 62
    0
370
   -2
100
AcDbLine
 10
29.1
 20
-1.053011137364058e-16
 11
27
 21
6.961806394257793e-17
  0
ENDBLK
  5
72
330
70
100
AcDbEntity
  8
0
100
AcDbBlockEnd
  0
BLOCK
  5
74
330
73
100
AcDbEntity
  8
0
100
AcDbBlockBegin
  2
*D17
 70
    1
 10
0
 20
0
  3
*D17
  1

  0
LINE
  5
D5
100
AcDbEntity
  8
dimensions
  6
ByBlock
 62
    0
370
   -2
100
AcDbLine
 10
16.10000000000001
 20
-12
 11
21.10000000000001
 21
-12
  0
LINE
  5
D6
100
AcDbEntity
  8
dimensions
  6
ByBlock
 62
    0
370
   -2
100
AcDbLine
 10
17.74644660940674
 20
-12.35355339059327
 11
18.45355339059328
 21
-11.64644660940673
  0
LINE
  5
D7
100
AcDbEntity
  8
dimensions
  6
ByBlock
 62
    0
370
   -2
100
AcDbLine
 10
18.74644660940674
 20
-12.35355339059327
 11
19.45355339059328
 21
-11.64644660940673
  0
MTEXT
  5
D8
100
AcDbEntity
  8
dimensions
  6
CONTINUOUS
 62
    0
370
   -2
100
AcDbMText
 10
20.60000000000001
 20
-10.5
 30
0
 40
2
 41
2
 71
    5
 72
    1
  1
10
  7
standard
210
0
220
0
230
1
 50
0
 73
    2
 44
1
  0
LINE
  5
D9
100
AcDbEntity
  8
dimensions
  6
ByBlock
 62
    0
370
   -2
100
AcDbLine
 10
18.10000000000001
 20
-13.1
 11
18.10000000000001
 21
-11
  0
LINE
  5
DA
100
AcDbEntity
  8
dimensions
  6
ByBlock
 62
    0
370
   -2
100
AcDbLine
 10
19.10000000000001
 20
-15.1
 11
19.10000000000001
 21
-11
  0
ENDBLK
  5
75
330
73
100
AcDbEntity
  8
0
100
AcDbBlockEnd
  0
BLOCK
  5
77
330
76
100
AcDbEntity
  8
0
100
AcDbBlockBegin
  2
*D22
 70
    1
 10
0
 20
0
  3
*D22
  1

  0
LINE
  5
DB
100
AcDbEntity
  8
dimensions
  6
ByBlock
 62
    0
370
   -2
100
AcDbLine
 10
72
 20
-17.6
 11
72
 21
-11.6
  0
LINE
  5
DC
100
AcDbEntity
  8
dimensions
  6
ByBlock
 62
    0
370
   -2
100
AcDbLine
 10
72.35355339059328
 20
-15.95355339059327
 11
71.64644660940672
 21
-15.24644660940673
  0
LINE
  5
DD
100
AcDbEntity
  8
dimensions
  6
ByBlock
 62
    0
370
   -2
100
AcDbLine
 10
72.35355339059328
 20
-13.95355339059327
 11
71.64644660940672
 21
-13.24644660940673
  0
MTEXT
  5
DE
100
AcDbEntity
  8
dimensions
  6
CONTINUOUS
 62
    0
370
   -2
100
AcDbMText
 10
70.5
 20
-11.87777777777778
 30
0
 40
2
 41
2.444444444444444
 71
    5
 72
    1
  1
20
  7
standard
210
0
220
0
230
1
 50
90
 73
    2
 44
1
  0
LINE
  5
DF
100
AcDbEntity
  8
dimensions
  6
ByBlock
 62
    0
370
   -2
100
AcDbLine
 10
68.90000000000001
 20
-15.6
 11
73
 21
-15.6
  0
LINE
  5
E0
100
AcDbEntity
  8
dimensions
  6
ByBlock
 62
    0
370
   -2
100
AcDbLine
 10
68.90000000000001
 20
-13.6
 11
73
 21
-13.6
  0
ENDBLK
  5
78
330
76
100
AcDbEntity
  8
0
100
AcDbBlockEnd
  0
BLOCK
  5
7A
330
79
100
AcDbEntity
  8
0
100
AcDbBlockBegin
  2
*D24
 70
    1
 10
0
 20
0
  3
*D24
  1

  0
LINE
  5
E1
100
AcDbEntity
  8
dimensions
  6
ByBlock
 62
    0
370
   -2
100
AcDbLine
 10
31.20000000000004
 20
19.5
 11
37.2
 21
19.5
  0
LINE
  5
E2
100
AcDbEntity
  8
dimensions
  6
ByBlock
 62
    0
370
   -2
100
AcDbLine
 10
31.55355339059331
 20
19.85355339059327
 11
30.84644660940677
 21
19.14644660940673
  0
LINE
  5
E3
100
AcDbEntity
  8
dimensions
  6
ByBlock
 62
    0
370
   -2
100
AcDbLine
 10
37.55355339059328
 20
19.85355339059327
 11
36.84644660940673
 21
19.14644660940673
  0
MTEXT
  5
E4
100
AcDbEntity
  8
dimensions
  6
CONTINUOUS
 62
    0
370
   -2
100
AcDbMText
 10
39
 20
21
 30
0
 40
2
 41
2.444444444444568
 71
    5
 72
    1
  1
60
  7
standard
210
0
220
0
230
1
 50
0
 73
    2
 44
1
  0
LINE
  5
E5
100
AcDbEntity
  8
dimensions
  6
ByBlock
 62
    0
370
   -2
100
AcDbLine
 10
31.20000000000004
 20
20.50000000000004
 11
31.20000000000004
 21
18.5
  0
LINE
  5
E6
100
AcDbEntity
  8
dimensions
  6
ByBlock
 62
    0
370
   -2
100
AcDbLine
 10
37.2
 20
20.50000000000004
 11
37.2
 21
18.5
  0
ENDBLK
  5
7B
330
79
100
AcDbEntity
  8
0
100
AcDbBlockEnd
  0
BLOCK
  5
7D
330
7C
100
AcDbEntity
  8
0
100
AcDbBlockBegin
  2
*D13
 70
    1
 10
0
 20
0
  3
*D13
  1

  0
LINE
  5
E7
100
AcDbEntity
  8
dimensions
  6
ByBlock
 62
    0
370
   -2
100
AcDbLine
 10
45.2
 20
-6
 11
49.3
 21
-6
  0
LINE
  5
E8
100
AcDbEntity
  8
dimensions
  6
ByBlock
 62
    0
370
   -2
100
AcDbLine
 10
45.55355339059328
 20
-5.646446609406726
 11
44.84644660940673
 21
-6.353553390593274
  0
LINE
  5
E9
100
AcDbEntity
  8
dimensions
  6
ByBlock
 62
    0
370
   -2
100
AcDbLine
 10
49.65355339059327
 20
-5.646446609406726
 11
48.94644660940672
 21
-6.353553390593274
  0
MTEXT
  5
EA
100
AcDbEntity
  8
dimensions
  6
CONTINUOUS
 62
    0
370
   -2
100
AcDbMText
 10
47.25
 20
-4.5
 30
0
 40
2
 41
2.222222222222222
 71
    5
 72
    1
  1
41
  7
standard
210
0
220
0
230
1
 50
0
 73
    2
 44
1
  0
LINE
  5
EB
100
AcDbEntity
  8
dimensions
  6
ByBlock
 62
    0
370
   -2
100
AcDbLine
 10
45.2
 20
5.500000000000039
 11
45.2
 21
-7
  0
LINE
  5
EC
100
AcDbEntity
  8
dimensions
  6
ByBlock
 62
    0
370
   -2
100
AcDbLine
 10
49.3
 20
5.500000000000002
 11
49.3
 21
-7
  0
ENDBLK
  5
7E
330
7C
100
AcDbEntity
  8
0
100
AcDbBlockEnd
  0
BLOCK
  5
80
330
7F
100
AcDbEntity
  8
0
100
AcDbBlockBegin
  2
*D5
 70
    1
 10
0
 20
0
  3
*D5
  1

  0
LINE
  5
ED
100
AcDbEntity
  8
dimensions
  6
CONTINUOUS
 62
    7
370
    0
100
AcDbLine
 10
6.5
 20
9.400000000000038
 11
6.500000000000001
 21
13.00000000000004
  0
SOLID
  5
EE
100
AcDbEntity
  8
dimensions
  6
CONTINUOUS
 62
    7
370
    0
100
AcDbTrace
 10
6.5
 20
9.400000000000038
 30
0
 11
6.333486136890864
 21
10.40000000000004
 31
0
 12
6.666513863109136
 22
10.40000000000004
 32
0
 13
6.666513863109136
 23
10.40000000000004
 33
0
  0
ENDBLK
  5
81
330
7F
100
AcDbEntity
  8
0
100
AcDbBlockEnd
  0
BLOCK
  5
83
330
82
100
AcDbEntity
  8
0
100
AcDbBlockBegin
  2
*D23
 70
    1
 10
0
 20
0
  3
*D23
  1

  0
LINE
  5
EF
100
AcDbEntity
  8
dimensions
  6
ByBlock
 62
    0
370
   -2
100
AcDbLine
 10
67
 20
-19
 11
67
 21
-13.75
  0
LINE
  5
F0
100
AcDbEntity
  8
dimensions
  6
ByBlock
 62
    0
370
   -2
100
AcDbLine
 10
67.35355339059328
 20
-17.35355339059327
 11
66.64644660940672
 21
-16.64644660940673
  0
LINE
  5
F1
100
AcDbEntity
  8
dimensions
  6
ByBlock
 62
    0
370
   -2
100
AcDbLine
 10
67.35355339059328
 20
-16.10355339059327
 11
66.64644660940672
 21
-15.39644660940673
  0
MTEXT
  5
F2
100
AcDbEntity
  8
dimensions
  6
CONTINUOUS
 62
    0
370
   -2
100
AcDbMText
 10
66
 20
-10.70833333333327
 30
0
 40
2
 41
4.333333333333457
 71
    5
 72
    1
  1
12,5
  7
standard
210
0
220
0
230
1
 50
90
 73
    2
 44
1
  0
LINE
  5
F3
100
AcDbEntity
  8
dimensions
  6
ByBlock
 62
    0
370
   -2
100
AcDbLine
 10
67.90000000000001
 20
-17
 11
66
 21
-17
  0
LINE
  5
F4
100
AcDbEntity
  8
dimensions
  6
ByBlock
 62
    0
370
   -2
100
AcDbLine
 10
67.90000000000001
 20
-15.75
 11
66
 21
-15.75
  0
ENDBLK
  5
84
330
82
100
AcDbEntity
  8
0
100
AcDbBlockEnd
  0
BLOCK
  5
86
330
85
100
AcDbEntity
  8
0
100
AcDbBlockBegin
  2
*D4
 70
    1
 10
0
 20
0
  3
*D4
  1

  0
LINE
  5
F5
100
AcDbEntity
  8
dimensions
  6
ByBlock
 62
    0
370
   -2
100
AcDbLine
 10
29.6
 20
-6
 11
38.8
 21
-6
  0
LINE
  5
F6
100
AcDbEntity
  8
dimensions
  6
ByBlock
 62
    0
370
   -2
100
AcDbLine
 10
29.95355339059327
 20
-5.646446609406726
 11
29.24644660940673
 21
-6.353553390593274
  0
LINE
  5
F7
100
AcDbEntity
  8
dimensions
  6
ByBlock
 62
    0
370
   -2
100
AcDbLine
 10
39.15355339059327
 20
-5.646446609406726
 11
38.44644660940672
 21
-6.353553390593274
  0
MTEXT
  5
F8
100
AcDbEntity
  8
dimensions
  6
CONTINUOUS
 62
    0
370
   -2
100
AcDbMText
 10
34.2
 20
-4.5
 30
0
 40
2
 41
2.444444444444568
 71
    5
 72
    1
  1
92
  7
standard
210
0
220
0
230
1
 50
0
 73
    2
 44
1
  0
LINE
  5
F9
100
AcDbEntity
  8
dimensions
  6
ByBlock
 62
    0
370
   -2
100
AcDbLine
 10
29.6
 20
0.9000000000000381
 11
29.6
 21
-7
  0
LINE
  5
FA
100
AcDbEntity
  8
dimensions
  6
ByBlock
 62
    0
370
   -2
100
AcDbLine
 10
38.8
 20
0.9000000000000381
 11
38.8
 21
-7
  0
ENDBLK
  5
87
330
85
100
AcDbEntity
  8
0
100
AcDbBlockEnd
  0
BLOCK
  5
89
330
88
100
AcDbEntity
  8
0
100
AcDbBlockBegin
  2
*D9
 70
    1
 10
0
 20
0
  3
*D9
  1

  0
LINE
  5
FB
100
AcDbEntity
  8
dimensions
  6
ByBlock
 62
    0
370
   -2
100
AcDbLine
 10
0
 20
-5.999999999999998
 11
19.1
 21
-5.999999999999998
  0
LINE
  5
FC
100
AcDbEntity
  8
dimensions
  6
ByBlock
 62
    0
370
   -2
100
AcDbLine
 10
0.3535533905932738
 20
-5.646446609406724
 11
-0.3535533905932738
 21
-6.353553390593272
  0
LINE
  5
FD
100
AcDbEntity
  8
dimensions
  6
ByBlock
 62
    0
370
   -2
100
AcDbLine
 10
19.45355339059327
 20
-5.646446609406724
 11
18.74644660940673
 21
-6.353553390593272
  0
MTEXT
  5
FE
100
AcDbEntity
  8
dimensions
  6
CONTINUOUS
 62
    0
370
   -2
100
AcDbMText
 10
9.550000000000001
 20
-4.499999999999998
 30
0
 40
2
 41
3.111111111111111
 71
    5
 72
    1
  1
191
  7
standard
210
0
220
0
230
1
 50
0
 73
    2
 44
1
  0
LINE
  5
FF
100
AcDbEntity
  8
dimensions
  6
ByBlock
 62
    0
370
   -2
100
AcDbLine
 10
-9.184850993605148e-17
 20
-0.5
 11
-1.83697019872103e-16
 21
-6.999999999999998
  0
LINE
  5
100
100
AcDbEntity
  8
dimensions
  6
ByBlock
 62
    0
370
   -2
100
AcDbLine
 10
19.1
 20
5.500000000000037
 11
19.1
 21
-6.999999999999998
  0
ENDBLK
  5
8A
330
88
100
AcDbEntity
  8
0
100
AcDbBlockEnd
  0
BLOCK
  5
8C
330
8B
100
AcDbEntity
  8
0
100
AcDbBlockBegin
  2
*D10
 70
    1
 10
0
 20
0
  3
*D10
  1

  0
LINE
  5
101
100
AcDbEntity
  8
dimensions
  6
ByBlock
 62
    0
370
   -2
100
AcDbLine
 10
19.1
 20
-5.999999999999998
 11
23.2
 21
-5.999999999999998
  0
LINE
  5
102
100
AcDbEntity
  8
dimensions
  6
ByBlock
 62
    0
370
   -2
100
AcDbLine
 10
19.45355339059327
 20
-5.646446609406724
 11
18.74644660940673
 21
-6.353553390593272
  0
LINE
  5
103
100
AcDbEntity
  8
dimensions
  6
ByBlock
 62
    0
370
   -2
100
AcDbLine
 10
23.55355339059327
 20
-5.646446609406724
 11
22.84644660940673
 21
-6.353553390593272
  0
MTEXT
  5
104
100
AcDbEntity
  8
dimensions
  6
CONTINUOUS
 62
    0
370
   -2
100
AcDbMText
 10
21.15
 20
-4.499999999999998
 30
0
 40
2
 41
2.222222222222222
 71
    5
 72
    1
  1
41
  7
standard
210
0
220
0
230
1
 50
0
 73
    2
 44
1
  0
LINE
  5
105
100
AcDbEntity
  8
dimensions
  6
ByBlock
 62
    0
370
   -2
100
AcDbLine
 10
19.1
 20
5.500000000000037
 11
19.1
 21
-6.999999999999998
  0
LINE
  5
106
100
AcDbEntity
  8
dimensions
  6
ByBlock
 62
    0
370
   -2
100
AcDbLine
 10
23.2
 20
5.500000000000037
 11
23.2
 21
-6.999999999999998
  0
ENDBLK
  5
8D
330
8B
100
AcDbEntity
  8
0
100
AcDbBlockEnd
  0
BLOCK
  5
8F
330
8E
100
AcDbEntity
  8
0
100
AcDbBlockBegin
  2
*D7
 70
    1
 10
0
 20
0
  3
*D7
  1

  0
LINE
  5
107
100
AcDbEntity
  8
dimensions
  6
ByBlock
 62
    0
370
   -2
100
AcDbLine
 10
-0.9999999999999982
 20
29.395164082497
 11
-1
 21
6.106226635438361e-17
  0
LINE
  5
108
100
AcDbEntity
  8
dimensions
  6
ByBlock
 62
    0
370
   -2
100
AcDbLine
 10
-0.6464466094067245
 20
29.04161069190372
 11
-1.353553390593272
 21
29.74871747309027
  0
LINE
  5
109
100
AcDbEntity
  8
dimensions
  6
ByBlock
 62
    0
370
   -2
100
AcDbLine
 10
-0.6464466094067263
 20
-0.3535533905932737
 11
-1.353553390593274
 21
0.3535533905932738
  0
MTEXT
  5
10A
100
AcDbEntity
  8
dimensions
  6
CONTINUOUS
 62
    0
370
   -2
100
AcDbMText
 10
-2.499999999999999
 20
14.6975820412485
 30
0
 40
2
 41
6.155555555555555
 71
    5
 72
    1
  1
294*
  7
standard
210
0
220
0
230
1
 50
90
 73
    2
 44
1
  0
LINE
  5
10B
100
AcDbEntity
  8
dimensions
  6
ByBlock
 62
    0
370
   -2
100
AcDbLine
 10
33.7
 20
29.395164082497
 11
-1.999999999999998
 21
29.395164082497
  0
LINE
  5
10C
100
AcDbEntity
  8
dimensions
  6
ByBlock
 62
    0
370
   -2
100
AcDbLine
 10
-0.5
 20
6.123233995736766e-17
 11
-2
 21
1.835269462691189e-16
  0
ENDBLK
  5
90
330
8E
100
AcDbEntity
  8
0
100
AcDbBlockEnd
  0
BLOCK
  5
92
330
91
100
AcDbEntity
  8
0
100
AcDbBlockBegin
  2
*D20
 70
    1
 10
0
 20
0
  3
*D20
  1

  0
LINE
  5
10D
100
AcDbEntity
  8
dimensions
  6
CONTINUOUS
 62
    7
370
    0
100
AcDbLine
 10
41
 20
-14
 11
43
 21
-11.2
  0
LINE
  5
10E
100
AcDbEntity
  8
dimensions
  6
CONTINUOUS
 62
    7
370
    0
100
AcDbLine
 10
43
 20
-11.2
 11
56.5
 21
-11.2
  0
SOLID
  5
10F
100
AcDbEntity
  8
dimensions
  6
CONTINUOUS
 62
    7
370
    0
100
AcDbTrace
 10
41
 20
-14
 30
0
 11
41.44574028988725
 21
-13.08948231177052
 31
0
 12
41.71673609755094
 22
-13.28305074581601
 32
0
 13
41.71673609755094
 23
-13.28305074581601
 33
0
  0
ENDBLK
  5
93
330
91
100
AcDbEntity
  8
0
100
AcDbBlockEnd
  0
BLOCK
  5
95
330
94
100
AcDbEntity
  8
0
100
AcDbBlockBegin
  2
*D11
 70
    1
 10
0
 20
0
  3
*D11
  1

  0
LINE
  5
110
100
AcDbEntity
  8
dimensions
  6
ByBlock
 62
    0
370
   -2
100
AcDbLine
 10
23.2
 20
-6
 11
29.6
 21
-6
  0
LINE
  5
111
100
AcDbEntity
  8
dimensions
  6
ByBlock
 62
    0
370
   -2
100
AcDbLine
 10
23.55355339059327
 20
-5.646446609406726
 11
22.84644660940673
 21
-6.353553390593274
  0
LINE
  5
112
100
AcDbEntity
  8
dimensions
  6
ByBlock
 62
    0
370
   -2
100
AcDbLine
 10
29.95355339059327
 20
-5.646446609406726
 11
29.24644660940673
 21
-6.353553390593274
  0
MTEXT
  5
113
100
AcDbEntity
  8
dimensions
  6
CONTINUOUS
 62
    0
370
   -2
100
AcDbMText
 10
26.4
 20
-4.5
 30
0
 40
2
 41
2.66666666666679
 71
    5
 72
    1
  1
64
  7
standard
210
0
220
0
230
1
 50
0
 73
    2
 44
1
  0
LINE
  5
114
100
AcDbEntity
  8
dimensions
  6
ByBlock
 62
    0
370
   -2
100
AcDbLine
 10
23.2
 20
5.500000000000037
 11
23.2
 21
-7
  0
LINE
  5
115
100
AcDbEntity
  8
dimensions
  6
ByBlock
 62
    0
370
   -2
100
AcDbLine
 10
29.6
 20
0.9000000000000381
 11
29.6
 21
-7
  0
ENDBLK
  5
96
330
94
100
AcDbEntity
  8
0
100
AcDbBlockEnd
  0
BLOCK
  5
98
330
97
100
AcDbEntity
  8
0
100
AcDbBlockBegin
  2
*D19
 70
    1
 10
0
 20
0
  3
*D19
  1

  0
LINE
  5
116
100
AcDbEntity
  8
dimensions
  6
ByBlock
 62
    0
370
   -2
100
AcDbLine
 10
-5
 20
-17
 11
-5
 21
-13.6
  0
LINE
  5
117
100
AcDbEntity
  8
dimensions
  6
ByBlock
 62
    0
370
   -2
100
AcDbLine
 10
-5.353553390593274
 20
-16.64644660940673
 11
-4.646446609406726
 21
-17.35355339059327
  0
LINE
  5
118
100
AcDbEntity
  8
dimensions
  6
ByBlock
 62
    0
370
   -2
100
AcDbLine
 10
-5.353553390593274
 20
-13.24644660940673
 11
-4.646446609406726
 21
-13.95355339059327
  0
MTEXT
  5
119
100
AcDbEntity
  8
dimensions
  6
CONTINUOUS
 62
    0
370
   -2
100
AcDbMText
 10
-6.5
 20
-15.3
 30
0
 40
2
 41
2.66666666666679
 71
    5
 72
    1
  1
34
  7
standard
210
0
220
0
230
1
 50
90
 73
    2
 44
1
  0
LINE
  5
11A
100
AcDbEntity
  8
dimensions
  6
ByBlock
 62
    0
370
   -2
100
AcDbLine
 10
-0.5
 20
-17
 11
-6
 21
-17
  0
LINE
  5
11B
100
AcDbEntity
  8
dimensions
  6
ByBlock
 62
    0
370
   -2
100
AcDbLine
 10
-0.5
 20
-13.6
 11
-6
 21
-13.6
  0
ENDBLK
  5
99
330
97
100
AcDbEntity
  8
0
100
AcDbBlockEnd
  0
BLOCK
  5
9B
330
9A
100
AcDbEntity
  8
0
100
AcDbBlockBegin
  2
*D21
 70
    1
 10
0
 20
0
  3
*D21
  1

  0
LINE
  5
11C
100
AcDbEntity
  8
dimensions
  6
CONTINUOUS
 62
    7
370
    0
100
AcDbLine
 10
41
 20
-17
 11
43
 21
-20
  0
LINE
  5
11D
100
AcDbEntity
  8
dimensions
  6
CONTINUOUS
 62
    7
370
    0
100
AcDbLine
 10
43
 20
-20
 11
52.1
 21
-20
  0
SOLID
  5
11E
100
AcDbEntity
  8
dimensions
  6
CONTINUOUS
 62
    7
370
    0
100
AcDbTrace
 10
41
 20
-17
 30
0
 11
41.69324810503652
 21
-17.73968502179698
 31
0
 12
41.41615228741394
 22
-17.9244155668787
 32
0
 13
41.41615228741394
 23
-17.9244155668787
 33
0
  0
ENDBLK
  5
9C
330
9A
100
AcDbEntity
  8
0
100
AcDbBlockEnd
  0
ENDSEC
  0
SECTION
  2
ENTITIES
  0
HATCH
  5
11F
100
AcDbEntity
  8
glass
  6
ByLayer
 62
  256
370
   -1
100
AcDbHatch
 10
0
 20
0
 30
0
210
0
220
0
230
1
  2
gost_glass1
 70
    0
 71
    0
 91
    1
 92
    0
 93
    4
 72
    1
 10
21.10000000000001
 20
-15.75
 11
21.10000000000001
 21
-16.55000000000002
 72
    1
 10
21.10000000000001
 20
-16.55000000000002
 11
19.2
 21
-16.55000000000002
 72
    1
 10
19.2
 20
-16.55000000000002
 11
19.2
 21
-15.75
 72
    1
 10
19.2
 20
-15.75
 11
21.10000000000001
 21
-15.75
 97
    0
 75
    0
 76
    1
 52
3.141592653589794
 41
0.1
 77
    0
 78
    0
 98
    0
  0
HATCH
  5
120
100
AcDbEntity
  8
glass
  6
ByLayer
 62
  256
370
   -1
100
AcDbHatch
 10
0
 20
0
 30
0
210
0
220
0
230
1
  2
gost_glass1
 70
    0
 71
    0
 91
    1
 92
    0
 93
    4
 72
    1
 10
23.10000000000001
 20
-15.75
 11
23.10000000000001
 21
-16.55000000000002
 72
    1
 10
23.10000000000001
 20
-16.55000000000002
 11
21.2
 21
-16.55000000000002
 72
    1
 10
21.2
 20
-16.55000000000002
 11
21.2
 21
-15.75
 72
    1
 10
21.2
 20
-15.75
 11
23.10000000000001
 21
-15.75
 97
    0
 75
    0
 76
    1
 52
3.141592653589794
 41
0.1
 77
    0
 78
    0
 98
    0
  0
HATCH
  5
121
100
AcDbEntity
  8
glass
  6
ByLayer
 62
  256
370
   -1
100
AcDbHatch
 10
0
 20
0
 30
0
210
0
220
0
230
1
  2
gost_glass1
 70
    0
 71
    0
 91
    1
 92
    0
 93
    4
 72
    1
 10
47.19999999999999
 20
-16.55000000000002
 11
47.19999999999999
 21
-15.75
 72
    1
 10
47.19999999999999
 20
-15.75
 11
45.29999999999998
 21
-15.75
 72
    1
 10
45.29999999999998
 20
-15.75
 11
45.29999999999998
 21
-16.55000000000002
 72
    1
 10
45.29999999999998
 20
-16.55000000000002
 11
47.19999999999999
 21
-16.55000000000002
 97
    0
 75
    0
 76
    1
 52
0
 41
0.1
 77
    0
 78
    0
 98
    0
  0
HATCH
  5
122
100
AcDbEntity
  8
glass
  6
ByLayer
 62
  256
370
   -1
100
AcDbHatch
 10
0
 20
0
 30
0
210
0
220
0
230
1
  2
gost_glass1
 70
    0
 71
    0
 91
    1
 92
    0
 93
    4
 72
    1
 10
49.19999999999999
 20
-16.55000000000002
 11
49.19999999999999
 21
-15.75
 72
    1
 10
49.19999999999999
 20
-15.75
 11
47.29999999999998
 21
-15.75
 72
    1
 10
47.29999999999998
 20
-15.75
 11
47.29999999999998
 21
-16.55000000000002
 72
    1
 10
47.29999999999998
 20
-16.55000000000002
 11
49.19999999999999
 21
-16.55000000000002
 97
    0
 75
    0
 76
    1
 52
0
 41
0.1
 77
    0
 78
    0
 98
    0
  0
HATCH
  5
123
100
AcDbEntity
  8
glass
  6
ByLayer
 62
  256
370
   -1
100
AcDbHatch
 10
0
 20
0
 30
0
210
0
220
0
230
1
  2
gost_glass1
 70
    0
 71
    0
 91
    1
 92
    0
 93
    4
 72
    1
 10
47.2
 20
6.100000000000041
 11
45.3
 21
6.100000000000041
 72
    1
 10
45.3
 20
6.100000000000041
 11
45.3
 21
8.000000000000039
 72
    1
 10
45.3
 20
8.000000000000039
 11
47.2
 21
8.000000000000039
 72
    1
 10
47.2
 20
8.000000000000039
 11
47.2
 21
6.100000000000041
 97
    0
 75
    0
 76
    1
 52
3.141592653589794
 41
0.1
 77
    0
 78
    0
 98
    0
  0
HATCH
  5
124
100
AcDbEntity
  8
glass
  6
ByLayer
 62
  256
370
   -1
100
AcDbHatch
 10
0
 20
0
 30
0
210
0
220
0
230
1
  2
gost_glass1
 70
    0
 71
    0
 91
    1
 92
    0
 93
    4
 72
    1
 10
45.3
 20
10.00000000000004
 11
47.2
 21
10.00000000000004
 72
    1
 10
47.2
 20
10.00000000000004
 11
47.2
 21
8.100000000000039
 72
    1
 10
47.2
 20
8.100000000000039
 11
45.3
 21
8.100000000000039
 72
    1
 10
45.3
 20
8.100000000000039
 11
45.3
 21
10.00000000000004
 97
    0
 75
    0
 76
    1
 52
3.141592653589794
 41
0.1
 77
    0
 78
    0
 98
    0
  0
HATCH
  5
125
100
AcDbEntity
  8
glass
  6
ByLayer
 62
  256
370
   -1
100
AcDbHatch
 10
0
 20
0
 30
0
210
0
220
0
230
1
  2
gost_glass1
 70
    0
 71
    0
 91
    1
 92
    0
 93
    4
 72
    1
 10
45.3
 20
12.00000000000004
 11
47.2
 21
12.00000000000004
 72
    1
 10
47.2
 20
12.00000000000004
 11
47.2
 21
10.10000000000004
 72
    1
 10
47.2
 20
10.10000000000004
 11
45.3
 21
10.10000000000004
 72
    1
 10
45.3
 20
10.10000000000004
 11
45.3
 21
12.00000000000004
 97
    0
 75
    0
 76
    1
 52
3.141592653589794
 41
0.1
 77
    0
 78
    0
 98
    0
  0
HATCH
  5
126
100
AcDbEntity
  8
glass
  6
ByLayer
 62
  256
370
   -1
100
AcDbHatch
 10
0
 20
0
 30
0
210
0
220
0
230
1
  2
gost_glass1
 70
    0
 71
    0
 91
    1
 92
    0
 93
    4
 72
    1
 10
49.20000000000002
 20
10.10000000000004
 11
47.3
 21
10.10000000000004
 72
    1
 10
47.3
 20
10.10000000000004
 11
47.3
 21
12.00000000000004
 72
    1
 10
47.3
 20
12.00000000000004
 11
49.2
 21
12.00000000000004
 72
    1
 10
49.2
 20
12.00000000000004
 11
49.20000000000002
 21
10.10000000000004
 97
    0
 75
    0
 76
    1
 52
3.141592653589794
 41
0.1
 77
    0
 78
    0
 98
    0
  0
HATCH
  5
127
100
AcDbEntity
  8
glass
  6
ByLayer
 62
  256
370
   -1
100
AcDbHatch
 10
0
 20
0
 30
0
210
0
220
0
230
1
  2
gost_glass1
 70
    0
 71
    0
 91
    1
 92
    0
 93
    4
 72
    1
 10
49.20000000000002
 20
8.100000000000039
 11
47.3
 21
8.100000000000039
 72
    1
 10
47.3
 20
8.100000000000039
 11
47.3
 21
10.00000000000004
 72
    1
 10
47.3
 20
10.00000000000004
 11
49.20000000000002
 21
10.00000000000004
 72
    1
 10
49.20000000000002
 20
10.00000000000004
 11
49.20000000000002
 21
8.100000000000039
 97
    0
 75
    0
 76
    1
 52
3.141592653589794
 41
0.1
 77
    0
 78
    0
 98
    0
  0
HATCH
  5
128
100
AcDbEntity
  8
glass
  6
ByLayer
 62
  256
370
   -1
100
AcDbHatch
 10
0
 20
0
 30
0
210
0
220
0
230
1
  2
gost_glass1
 70
    0
 71
    0
 91
    1
 92
    0
 93
    4
 72
    1
 10
47.3
 20
8.000000000000039
 11
49.20000000000002
 21
8.000000000000039
 72
    1
 10
49.20000000000002
 20
8.000000000000039
 11
49.20000000000002
 21
6.100000000000041
 72
    1
 10
49.20000000000002
 20
6.100000000000041
 11
47.3
 21
6.100000000000041
 72
    1
 10
47.3
 20
6.100000000000041
 11
47.3
 21
8.000000000000039
 97
    0
 75
    0
 76
    1
 52
3.141592653589794
 41
0.1
 77
    0
 78
    0
 98
    0
  0
HATCH
  5
129
100
AcDbEntity
  8
boxwall
  6
ByLayer
 62
  256
370
   -1
100
AcDbHatch
 10
0
 20
0
 30
0
210
0
220
0
230
1
  2
gost_stone
 70
    0
 71
    0
 91
    1
 92
    0
 93
    4
 72
    1
 10
38.80000000000001
 20
-13.6
 11
44.2
 21
-13.6
 72
    1
 10
44.2
 20
-13.6
 11
45.2
 21
-15.6
 72
    1
 10
45.2
 20
-15.6
 11
38.80000000000001
 21
-15.6
 72
    1
 10
38.80000000000001
 20
-15.6
 11
38.80000000000001
 21
-13.6
 97
    0
 75
    0
 76
    1
 52
3.141592653589793
 41
0.1
 77
    0
 78
    0
 98
    0
  0
HATCH
  5
12A
100
AcDbEntity
  8
face
  6
ByLayer
 62
  256
370
   -1
100
AcDbHatch
 10
0
 20
0
 30
0
210
0
220
0
230
1
  2
gost_stone
 70
    0
 71
    0
 91
    1
 92
    0
 93
    4
 72
    1
 10
38.80000000000001
 20
-15.75
 11
45.2
 21
-15.75
 72
    1
 10
45.2
 20
-15.75
 11
45.2
 21
-17
 72
    1
 10
45.2
 20
-17
 11
38.80000000000001
 21
-17
 72
    1
 10
38.80000000000001
 20
-17
 11
38.80000000000001
 21
-15.75
 97
    0
 75
    0
 76
    1
 52
1.570796326794897
 41
0.1
 77
    0
 78
    0
 98
    0
  0
HATCH
  5
12B
100
AcDbEntity
  8
boxwall
  6
ByLayer
 62
  256
370
   -1
100
AcDbHatch
 10
0
 20
0
 30
0
210
0
220
0
230
1
  2
gost_stone
 70
    0
 71
    0
 91
    1
 92
    0
 93
    4
 72
    1
 10
49.3
 20
-15.6
 11
59.72000000000001
 21
-15.6
 72
    1
 10
59.72000000000001
 20
-15.6
 11
59.72000000000001
 21
-13.6
 72
    1
 10
59.72000000000001
 20
-13.6
 11
50.3
 21
-13.6
 72
    1
 10
50.3
 20
-13.6
 11
49.3
 21
-15.6
 97
    0
 75
    0
 76
    1
 52
3.141592653589793
 41
0.1
 77
    0
 78
    0
 98
    0
  0
HATCH
  5
12C
100
AcDbEntity
  8
face
  6
ByLayer
 62
  256
370
   -1
100
AcDbHatch
 10
0
 20
0
 30
0
210
0
220
0
230
1
  2
gost_stone
 70
    0
 71
    0
 91
    1
 92
    0
 93
    4
 72
    1
 10
59.72000000000001
 20
-15.75
 11
49.3
 21
-15.75
 72
    1
 10
49.3
 20
-15.75
 11
49.3
 21
-17
 72
    1
 10
49.3
 20
-17
 11
59.72000000000001
 21
-17
 72
    1
 10
59.72000000000001
 20
-17
 11
59.72000000000001
 21
-15.75
 97
    0
 75
    0
 76
    1
 52
4.71238898038469
 41
0.1
 77
    0
 78
    0
 98
    0
  0
HATCH
  5
12D
100
AcDbEntity
  8
glass
  6
ByLayer
 62
  256
370
   -1
100
AcDbHatch
 10
0
 20
0
 30
0
210
0
220
0
230
1
  2
gost_glass1
 70
    0
 71
    0
 91
    1
 92
    0
 93
    4
 72
    1
 10
23.10000000000001
 20
6.100000000000039
 11
21.2
 21
6.100000000000039
 72
    1
 10
21.2
 20
6.100000000000039
 11
21.2
 21
8.000000000000037
 72
    1
 10
21.2
 20
8.000000000000037
 11
23.10000000000001
 21
8.000000000000037
 72
    1
 10
23.10000000000001
 20
8.000000000000037
 11
23.10000000000001
 21
6.100000000000039
 97
    0
 75
    0
 76
    1
 52
3.141592653589794
 41
0.1
 77
    0
 78
    0
 98
    0
  0
HATCH
  5
12E
100
AcDbEntity
  8
glass
  6
ByLayer
 62
  256
370
   -1
100
AcDbHatch
 10
0
 20
0
 30
0
210
0
220
0
230
1
  2
gost_glass1
 70
    0
 71
    0
 91
    1
 92
    0
 93
    4
 72
    1
 10
21.2
 20
10.00000000000004
 11
23.10000000000001
 21
10.00000000000004
 72
    1
 10
23.10000000000001
 20
10.00000000000004
 11
23.10000000000001
 21
8.100000000000037
 72
    1
 10
23.10000000000001
 20
8.100000000000037
 11
21.2
 21
8.100000000000037
 72
    1
 10
21.2
 20
8.100000000000037
 11
21.2
 21
10.00000000000004
 97
    0
 75
    0
 76
    1
 52
3.141592653589794
 41
0.1
 77
    0
 78
    0
 98
    0
  0
HATCH
  5
12F
100
AcDbEntity
  8
glass
  6
ByLayer
 62
  256
370
   -1
100
AcDbHatch
 10
0
 20
0
 30
0
210
0
220
0
230
1
  2
gost_glass1
 70
    0
 71
    0
 91
    1
 92
    0
 93
    4
 72
    1
 10
21.2
 20
12.00000000000004
 11
23.1
 21
12.00000000000004
 72
    1
 10
23.1
 20
12.00000000000004
 11
23.10000000000001
 21
10.10000000000004
 72
    1
 10
23.10000000000001
 20
10.10000000000004
 11
21.2
 21
10.10000000000004
 72
    1
 10
21.2
 20
10.10000000000004
 11
21.2
 21
12.00000000000004
 97
    0
 75
    0
 76
    1
 52
3.141592653589794
 41
0.1
 77
    0
 78
    0
 98
    0
  0
HATCH
  5
130
100
AcDbEntity
  8
glass
  6
ByLayer
 62
  256
370
   -1
100
AcDbHatch
 10
0
 20
0
 30
0
210
0
220
0
230
1
  2
gost_glass1
 70
    0
 71
    0
 91
    1
 92
    0
 93
    4
 72
    1
 10
21.1
 20
10.10000000000004
 11
19.19999999999998
 21
10.10000000000004
 72
    1
 10
19.19999999999998
 20
10.10000000000004
 11
19.19999999999998
 21
12.00000000000004
 72
    1
 10
19.19999999999998
 20
12.00000000000004
 11
21.09999999999999
 21
12.00000000000004
 72
    1
 10
21.09999999999999
 20
12.00000000000004
 11
21.1
 21
10.10000000000004
 97
    0
 75
    0
 76
    1
 52
3.141592653589794
 41
0.1
 77
    0
 78
    0
 98
    0
  0
HATCH
  5
131
100
AcDbEntity
  8
glass
  6
ByLayer
 62
  256
370
   -1
100
AcDbHatch
 10
0
 20
0
 30
0
210
0
220
0
230
1
  2
gost_glass1
 70
    0
 71
    0
 91
    1
 92
    0
 93
    4
 72
    1
 10
21.1
 20
8.100000000000037
 11
19.19999999999998
 21
8.100000000000037
 72
    1
 10
19.19999999999998
 20
8.100000000000037
 11
19.19999999999998
 21
10.00000000000004
 72
    1
 10
19.19999999999998
 20
10.00000000000004
 11
21.1
 21
10.00000000000004
 72
    1
 10
21.1
 20
10.00000000000004
 11
21.1
 21
8.100000000000037
 97
    0
 75
    0
 76
    1
 52
3.141592653589794
 41
0.1
 77
    0
 78
    0
 98
    0
  0
HATCH
  5
132
100
AcDbEntity
  8
glass
  6
ByLayer
 62
  256
370
   -1
100
AcDbHatch
 10
0
 20
0
 30
0
210
0
220
0
230
1
  2
gost_glass1
 70
    0
 71
    0
 91
    1
 92
    0
 93
    4
 72
    1
 10
19.19999999999998
 20
8.000000000000037
 11
21.1
 21
8.000000000000037
 72
    1
 10
21.1
 20
8.000000000000037
 11
21.1
 21
6.100000000000039
 72
    1
 10
21.1
 20
6.100000000000039
 11
19.19999999999998
 21
6.100000000000039
 72
    1
 10
19.19999999999998
 20
6.100000000000039
 11
19.19999999999998
 21
8.000000000000037
 97
    0
 75
    0
 76
    1
 52
3.141592653589794
 41
0.1
 77
    0
 78
    0
 98
    0
  0
HATCH
  5
133
100
AcDbEntity
  8
face
  6
ByLayer
 62
  256
370
   -1
100
AcDbHatch
 10
0
 20
0
 30
0
210
0
220
0
230
1
  2
gost_stone
 70
    0
 71
    0
 91
    1
 92
    0
 93
    4
 72
    1
 10
19.1
 20
-17
 11
8.68
 21
-17
 72
    1
 10
8.68
 20
-17
 11
8.68
 21
-15.75
 72
    1
 10
8.68
 20
-15.75
 11
19.1
 21
-15.75
 72
    1
 10
19.1
 20
-15.75
 11
19.1
 21
-17
 97
    0
 75
    0
 76
    1
 52
1.570796326794897
 41
0.1
 77
    0
 78
    0
 98
    0
  0
HATCH
  5
134
100
AcDbEntity
  8
boxwall
  6
ByLayer
 62
  256
370
   -1
100
AcDbHatch
 10
0
 20
0
 30
0
210
0
220
0
230
1
  2
gost_stone
 70
    0
 71
    0
 91
    1
 92
    0
 93
    4
 72
    1
 10
8.68
 20
-13.6
 11
18.10000000000001
 21
-13.6
 72
    1
 10
18.10000000000001
 20
-13.6
 11
19.10000000000001
 21
-15.6
 72
    1
 10
19.10000000000001
 20
-15.6
 11
8.68
 21
-15.6
 72
    1
 10
8.68
 20
-15.6
 11
8.68
 21
-13.6
 97
    0
 75
    0
 76
    1
 52
0
 41
0.1
 77
    0
 78
    0
 98
    0
  0
HATCH
  5
135
100
AcDbEntity
  8
face
  6
ByLayer
 62
  256
370
   -1
100
AcDbHatch
 10
0
 20
0
 30
0
210
0
220
0
230
1
  2
gost_stone
 70
    0
 71
    0
 91
    1
 92
    0
 93
    4
 72
    1
 10
23.20000000000001
 20
-17
 11
29.6
 21
-17
 72
    1
 10
29.6
 20
-17
 11
29.59999999999999
 21
-15.75
 72
    1
 10
29.59999999999999
 20
-15.75
 11
23.20000000000001
 21
-15.75
 72
    1
 10
23.20000000000001
 20
-15.75
 11
23.20000000000001
 21
-17
 97
    0
 75
    0
 76
    1
 52
4.71238898038469
 41
0.1
 77
    0
 78
    0
 98
    0
  0
HATCH
  5
136
100
AcDbEntity
  8
boxwall
  6
ByLayer
 62
  256
370
   -1
100
AcDbHatch
 10
0
 20
0
 30
0
210
0
220
0
230
1
  2
gost_stone
 70
    0
 71
    0
 91
    1
 92
    0
 93
    4
 72
    1
 10
23.20000000000001
 20
-15.6
 11
29.59999999999999
 21
-15.6
 72
    1
 10
29.59999999999999
 20
-15.6
 11
29.59999999999999
 21
-13.6
 72
    1
 10
29.59999999999999
 20
-13.6
 11
24.20000000000001
 21
-13.6
 72
    1
 10
24.20000000000001
 20
-13.6
 11
23.20000000000001
 21
-15.6
 97
    0
 75
    0
 76
    1
 52
0
 41
0.1
 77
    0
 78
    0
 98
    0
  0
LWPOLYLINE
  5
137
100
AcDbEntity
  8
boxwall
  6
ByLayer
 62
  256
370
   -1
100
AcDbPolyline
 90
    4
 70
    1
 43
0
 10
0
 20
-1.899999999999962
 10
68.40000000000002
 20
-1.899999999999962
 10
68.40000000000002
 20
-4.422240351686924e-12
 10
0
 20
0
  0
LWPOLYLINE
  5
138
100
AcDbEntity
  8
support
  6
DASHED2
 62
  256
370
   -1
100
AcDbPolyline
 90
    5
 70
    1
 43
0
 10
48.29999999999999
 20
0.9000000000000328
 10
49.3
 20
0.9000000000000319
 10
49.3
 20
16.30000000000004
 10
48.3
 20
16.30000000000004
 10
48.3
 20
16.30000000000004
  0
LWPOLYLINE
  5
139
100
AcDbEntity
  8
support
  6
DASHED2
 62
  256
370
   -1
100
AcDbPolyline
 90
    5
 70
    1
 43
0
 10
19.19999999999999
 20
0.9000000000000017
 10
18.19999999999999
 20
0.9000000000000017
 10
18.2
 20
15.60000000000004
 10
19.2
 20
15.60000000000004
 10
19.2
 20
15.60000000000004
  0
LWPOLYLINE
  5
13A
100
AcDbEntity
  8
face
  6
ByLayer
 62
  256
370
   -1
100
AcDbPolyline
 90
    6
 70
    0
 43
0
 10
68.40000000000003
 20
-4.421352173267223e-12
 10
0
 20
0
 10
5.551115123125783e-17
 20
2.600000000000038
 10
34.19999999999991
 20
29.39516408249707
 10
68.40000000000003
 20
2.595164082497032
 10
68.40000000000003
 20
-4.421352173267223e-12
  0
LINE
  5
13B
100
AcDbEntity
  8
0
  6
ByLayer
 62
  256
370
   -1
100
AcDbLine
 10
44
 20
19.60000000000004
 11
24
 21
19.60000000000004
  0
LWPOLYLINE
  5
13C
100
AcDbEntity
  8
face
  6
ByLayer
 62
  256
370
   -1
100
AcDbPolyline
 90
    4
 70
    0
 43
0
 10
31.20000000000004
 20
22.25000000000005
 10
31.2
 20
21.00000000000004
 10
37.2
 20
21.00000000000004
 10
37.2
 20
22.25000000000004
  0
ARC
  5
13D
100
AcDbEntity
  8
face
  6
ByLayer
 62
  256
370
   -1
100
AcDbCircle
 10
34.2
 20
22.25000000000004
 40
3
100
AcDbArc
 50
7.63333123551244e-14
 51
179.9999999999999
  0
ARC
  5
13E
100
AcDbEntity
  8
face
  6
ByLayer
 62
  256
370
   -1
100
AcDbCircle
 10
34.2
 20
22.25000000000004
 40
1.750000000003582
100
AcDbArc
 50
359.9999999999997
 51
179.9999999999998
  0
LWPOLYLINE
  5
13F
100
AcDbEntity
  8
face
  6
ByLayer
 62
  256
370
   -1
100
AcDbPolyline
 90
    4
 70
    1
 43
0
 10
31.20000000000004
 20
22.25000000000005
 10
37.2
 20
22.25000000000005
 10
37.2
 20
21.00000000000004
 10
31.20000000000004
 20
21.00000000000004
  0
LWPOLYLINE
  5
140
100
AcDbEntity
  8
face
  6
ByLayer
 62
  256
370
   -1
100
AcDbPolyline
 90
    4
 70
    1
 43
0
 10
29.6
 20
1.400000000000038
 10
38.8
 20
1.400000000000038
 10
38.79999999999998
 20
18.70000000000004
 10
29.6
 20
18.70000000000004
  0
LINE
  5
141
100
AcDbEntity
  8
boxwall
  6
DOT2
 62
  256
370
   -1
100
AcDbLine
 10
1.021079770803561
 20
3.400000000000038
 11
29.6
 21
3.400000000000039
  0
LINE
  5
142
100
AcDbEntity
  8
boxwall
  6
DOT2
 62
  256
370
   -1
100
AcDbLine
 10
12.50822719234364
 20
12.40000000000003
 11
29.60000000000001
 21
12.40000000000003
  0
LINE
  5
143
100
AcDbEntity
  8
boxwall
  6
DOT2
 62
  256
370
   -1
100
AcDbLine
 10
16.33727633285701
 20
15.40000000000004
 11
29.60000000000002
 21
15.40000000000004
  0
LINE
  5
144
100
AcDbEntity
  8
boxwall
  6
DOT2
 62
  256
370
   -1
100
AcDbLine
 10
20.16632547337037
 20
18.40000000000004
 11
29.60000000000002
 21
18.40000000000004
  0
LINE
  5
145
100
AcDbEntity
  8
boxwall
  6
DOT2
 62
  256
370
   -1
100
AcDbLine
 10
31.65347289491046
 20
27.40000000000004
 11
36.75177835113463
 21
27.40000000000004
  0
LINE
  5
146
100
AcDbEntity
  8
boxwall
  6
DOT2
 62
  256
370
   -1
100
AcDbLine
 10
27.8244237543971
 20
24.40000000000004
 11
40.57944587783656
 21
24.40000000000004
  0
LINE
  5
147
100
AcDbEntity
  8
boxwall
  6
DOT2
 62
  256
370
   -1
100
AcDbLine
 10
23.99537461388373
 20
21.40000000000004
 11
44.40711340453851
 21
21.40000000000004
  0
LINE
  5
148
100
AcDbEntity
  8
boxwall
  6
DOT2
 62
  256
370
   -1
100
AcDbLine
 10
38.80000000000001
 20
18.40000000000004
 11
48.23478093124045
 21
18.40000000000004
  0
LINE
  5
149
100
AcDbEntity
  8
boxwall
  6
DOT2
 62
  256
370
   -1
100
AcDbLine
 10
38.80000000000002
 20
15.40000000000004
 11
52.06244845794239
 21
15.40000000000004
  0
LINE
  5
14A
100
AcDbEntity
  8
boxwall
  6
DOT2
 62
  256
370
   -1
100
AcDbLine
 10
38.80000000000002
 20
12.40000000000003
 11
55.89011598464433
 21
12.40000000000003
  0
LINE
  5
14B
100
AcDbEntity
  8
boxwall
  6
DOT2
 62
  256
370
   -1
100
AcDbLine
 10
38.8
 20
3.400000000000039
 11
67.37311856475014
 21
3.400000000000038
  0
LINE
  5
14C
100
AcDbEntity
  8
boxwall
  6
DOT2
 62
  256
370
   -1
100
AcDbLine
 10
0
 20
0.4000000000000377
 11
68.40000000000001
 21
0.4000000000000377
  0
LINE
  5
14D
100
AcDbEntity
  8
boxwall
  6
DASHED2
 62
  256
370
   -1
100
AcDbLine
 10
31.20000000000004
 20
21.40000000000004
 11
31.2
 21
24.40000000000004
  0
LINE
  5
14E
100
AcDbEntity
  8
boxwall
  6
DASHED2
 62
  256
370
   -1
100
AcDbLine
 10
37.2
 20
21.40000000000004
 11
37.2
 21
24.40000000000004
  0
LINE
  5
14F
100
AcDbEntity
  8
dimensions
  6
ByLayer
 62
  256
370
   70
100
AcDbLine
 10
7
 20
9.400000000000038
 11
5
 21
9.400000000000038
  0
LINE
  5
150
100
AcDbEntity
  8
dimensions
  6
ByLayer
 62
  256
370
   70
100
AcDbLine
 10
61.40000000000001
 20
9.400000000000038
 11
63.40000000000001
 21
9.400000000000038
  0
DIMENSION
  5
151
100
AcDbEntity
  8
dimensions
  6
ByLayer
 62
  256
370
   -1
100
AcDbDimension
  2
*D1
 10
33
 20
18.70000000000004
 30
0
 11
31.5
 21
10.05000000000004
 31
0
 70
   32
 71
    5
 72
    0
  3
Standard
 53
0
210
0
220
0
230
1
100
AcDbAlignedDimension
 13
29.6
 23
1.400000000000038
 33
0
 14
29.6
 24
18.70000000000004
 34
0
 50
90
100
AcDbRotatedDimension
  0
DIMENSION
  5
152
100
AcDbEntity
  8
dimensions
  6
ByLayer
 62
  256
370
   -1
100
AcDbDimension
  2
*D2
 10
33
 20
-6.106689410195024e-16
 30
0
 11
31.5
 21
0.7000000000000188
 31
0
 70
   32
 71
    5
 72
    0
  3
Standard
 53
0
210
0
220
0
230
1
100
AcDbAlignedDimension
 13
29.6
 23
1.400000000000038
 33
0
 14
29.6
 24
-1.942890293094024e-16
 34
0
 50
90
100
AcDbRotatedDimension
  0
DIMENSION
  5
153
100
AcDbEntity
  8
dimensions
  6
ByLayer
 62
  256
370
   -1
100
AcDbDimension
  2
*D3
 10
28
 20
2.941003416980319e-17
 30
0
 11
26.5
 21
10.50000000000002
 31
0
 70
   32
 71
    5
 72
    0
  3
Standard
 53
0
210
0
220
0
230
1
100
AcDbAlignedDimension
 13
31.20000000000004
 23
21.00000000000004
 33
0
 14
29.6
 24
-1.665334536937735e-16
 34
0
 50
90
100
AcDbRotatedDimension
  0
DIMENSION
  5
154
100
AcDbEntity
  8
dimensions
  6
ByLayer
 62
  256
370
   -1
100
AcDbDimension
  2
*D4
 10
38.8
 20
-6
 30
0
 11
34.2
 21
-4.5
 31
0
 70
   32
 71
    5
 72
    0
  3
Standard
 53
0
210
0
220
0
230
1
100
AcDbAlignedDimension
 13
29.6
 23
1.400000000000038
 33
0
 14
38.8
 24
1.400000000000038
 34
0
100
AcDbRotatedDimension
  0
LEADER
  5
155
100
AcDbEntity
  8
dimensions
  6
ByLayer
 62
  256
370
   -1
100
AcDbLeader
  3
Standard
 71
    1
 72
    0
 73
    3
 74
    0
 75
    0
 40
1
 41
10
 76
2
 76
2
 10
6.5
 20
9.400000000000038
 30
0
 10
6.500000000000001
 20
13.00000000000004
 30
0
  0
MTEXT
  5
156
100
AcDbEntity
  8
dimensions
  6
ByLayer
 62
  256
370
   -1
100
AcDbMText
 10
5.166666666666667
 20
12.4
 30
0
 40
2
 41
1.333333333333333
 71
    5
 72
    1
  1
A
  7
unicode
210
0
220
0
230
1
 50
0
 73
    2
 44
1
  0
LEADER
  5
157
100
AcDbEntity
  8
dimensions
  6
ByLayer
 62
  256
370
   -1
100
AcDbLeader
  3
Standard
 71
    1
 72
    0
 73
    3
 74
    0
 75
    0
 40
1
 41
10
 76
2
 76
2
 10
61.90000000000001
 20
9.400000000000038
 30
0
 10
61.90000000000001
 20
13.00000000000004
 30
0
  0
MTEXT
  5
158
100
AcDbEntity
  8
dimensions
  6
ByLayer
 62
  256
370
   -1
100
AcDbMText
 10
63.26666666666667
 20
12.4
 30
0
 40
2
 41
1.333333333333333
 71
    5
 72
    1
  1
A
  7
unicode
210
0
220
0
230
1
 50
360
 73
    2
 44
1
  0
DIMENSION
  5
159
100
AcDbEntity
  8
dimensions
  6
ByLayer
 62
  256
370
   -1
100
AcDbDimension
  2
*D7
 10
-1
 20
1.224646799147353e-16
 30
0
 11
-2.499999999999999
 21
14.6975820412485
 31
0
 70
   32
  1
<>*
 71
    5
 72
    0
  3
Standard
 53
0
210
0
220
0
230
1
100
AcDbAlignedDimension
 13
34.2
 23
29.395164082497
 33
0
 14
0
 24
0
 34
0
 50
90
100
AcDbRotatedDimension
  0
LWPOLYLINE
  5
15A
100
AcDbEntity
  8
boxwall
  6
ByLayer
 62
  256
370
   -1
100
AcDbPolyline
 90
    4
 70
    0
 43
0
 10
8.68
 20
-13.6
 10
-2.775557561562891e-17
 20
-13.6
 10
2.775557561562891e-17
 20
-15.6
 10
8.700000000000001
 20
-15.6
  0
LWPOLYLINE
  5
15B
100
AcDbEntity
  8
face
  6
ByLayer
 62
  256
370
   -1
100
AcDbPolyline
 90
    4
 70
    0
 43
0
 10
8.68
 20
-15.75
 10
-1.942890293094024e-16
 20
-15.75
 10
0
 20
-17
 10
8.68
 20
-17
  0
LINE
  5
15C
100
AcDbEntity
  8
face
  6
ByLayer
 62
  256
370
   -1
100
AcDbLine
 10
0
 20
-15.75
 11
2.775557561562891e-17
 21
-15.6
  0
LINE
  5
15D
100
AcDbEntity
  8
face
  6
ByLayer
 62
  256
370
   -1
100
AcDbLine
 10
29.59999999999999
 20
-15.75
 11
29.59999999999999
 21
-15.6
  0
LWPOLYLINE
  5
15E
100
AcDbEntity
  8
boxwall
  6
ByLayer
 62
  256
370
   -1
100
AcDbPolyline
 90
    4
 70
    0
 43
0
 10
59.72000000000001
 20
-13.6
 10
68.40000000000001
 20
-13.6
 10
68.40000000000001
 20
-15.6
 10
59.7
 20
-15.6
  0
LWPOLYLINE
  5
15F
100
AcDbEntity
  8
face
  6
ByLayer
 62
  256
370
   -1
100
AcDbPolyline
 90
    4
 70
    0
 43
0
 10
59.72000000000001
 20
-15.75
 10
68.40000000000001
 20
-15.75
 10
68.40000000000001
 20
-17
 10
59.72000000000001
 20
-17
  0
LINE
  5
160
100
AcDbEntity
  8
face
  6
ByLayer
 62
  256
370
   -1
100
AcDbLine
 10
68.40000000000001
 20
-15.75
 11
68.40000000000001
 21
-15.6
  0
LINE
  5
161
100
AcDbEntity
  8
face
  6
ByLayer
 62
  256
370
   -1
100
AcDbLine
 10
38.80000000000001
 20
-15.75
 11
38.80000000000001
 21
-15.6
  0
LINE
  5
162
100
AcDbEntity
  8
face
  6
ByLayer
 62
  256
370
   -1
100
AcDbLine
 10
29.59999999999999
 20
-17
 11
38.80000000000001
 21
-17
  0
LINE
  5
163
100
AcDbEntity
  8
face
  6
ByLayer
 62
  256
370
   -1
100
AcDbLine
 10
29.59999999999999
 20
-15.75
 11
38.80000000000001
 21
-15.75
  0
LINE
  5
164
100
AcDbEntity
  8
boxwall
  6
ByLayer
 62
  256
370
   -1
100
AcDbLine
 10
29.59999999999999
 20
-15.6
 11
38.80000000000001
 21
-15.6
  0
LINE
  5
165
100
AcDbEntity
  8
boxwall
  6
ByLayer
 62
  256
370
   -1
100
AcDbLine
 10
29.59999999999999
 20
-13.6
 11
38.80000000000001
 21
-13.6
  0
MTEXT
  5
166
100
AcDbEntity
  8
dimensions
  6
ByLayer
 62
  256
370
   -1
100
AcDbMText
 10
34.2
 20
-9.999999999999998
 30
0
 40
2
 41
4.888888888888889
 71
    5
 72
    1
  1
A-
  7
unicode
210
0
220
0
230
1
 50
0
 73
    2
 44
1
  0
LINE
  5
167
100
AcDbEntity
  8
dimensions
  6
ByLayer
 62
  256
370
   -1
100
AcDbLine
 10
31.6
 20
-11.2
 11
36.8
 21
-11.2
  0
LINE
  5
168
100
AcDbEntity
  8
dimensions
  6
DASHDOT2
 62
  256
370
   -1
100
AcDbLine
 10
34.2
 20
31
 11
34.2
 21
-19
  0
MTEXT
  5
169
100
AcDbEntity
  8
dimensions
  6
ByLayer
 62
  256
370
   -1
100
AcDbMText
 10
34
 20
35
 30
0
 40
3
 41
16.6666666666668
 71
    5
 72
    1
  1

  7
cyrillic_ii
210
0
220
0
230
1
 50
0
 73
    2
 44
1
  0
LINE
  5
16A
100
AcDbEntity
  8
dimensions
  6
ByLayer
 62
  256
370
   -1
100
AcDbLine
 10
25.6527777777782
 20
32.5
 11
42.6527777777782
 21
32.5
  0
MTEXT
  5
16B
100
AcDbEntity
  8
dimensions
  6
ByLayer
 62
  256
370
   -1
100
AcDbMText
 10
0
 20
-20
 30
0
 40
2
 41
34.59999999999999
 71
    1
 72
    1
  1
1. * - i i.
  7
cyrillic_ii
210
0
220
0
230
1
 50
0
 73
    2
 44
1
  0
LWPOLYLINE
  5
16C
100
AcDbEntity
  8
glass
  6
ByLayer
 62
  256
370
   -1
100
AcDbPolyline
 90
    4
 70
    1
 43
0
 10
21.1
 20
6.100000000000039
 10
19.19999999999998
 20
6.100000000000039
 10
19.19999999999998
 20
8.000000000000037
 10
21.1
 20
8.000000000000037
  0
LWPOLYLINE
  5
16D
100
AcDbEntity
  8
glass
  6
ByLayer
 62
  256
370
   -1
100
AcDbPolyline
 90
    4
 70
    1
 43
0
 10
21.1
 20
8.100000000000037
 10
19.19999999999998
 20
8.100000000000037
 10
19.19999999999998
 20
10.00000000000004
 10
21.1
 20
10.00000000000004
  0
LWPOLYLINE
  5
16E
100
AcDbEntity
  8
glass
  6
ByLayer
 62
  256
370
   -1
100
AcDbPolyline
 90
    4
 70
    1
 43
0
 10
21.1
 20
10.10000000000004
 10
19.19999999999998
 20
10.10000000000004
 10
19.19999999999998
 20
12.00000000000004
 10
21.09999999999999
 20
12.00000000000004
  0
LWPOLYLINE
  5
16F
100
AcDbEntity
  8
glass
  6
ByLayer
 62
  256
370
   -1
100
AcDbPolyline
 90
    4
 70
    1
 43
0
 10
23.10000000000001
 20
6.100000000000039
 10
21.2
 20
6.100000000000039
 10
21.2
 20
8.000000000000037
 10
23.10000000000001
 20
8.000000000000037
  0
LWPOLYLINE
  5
170
100
AcDbEntity
  8
glass
  6
ByLayer
 62
  256
370
   -1
100
AcDbPolyline
 90
    4
 70
    1
 43
0
 10
23.10000000000001
 20
8.100000000000037
 10
21.2
 20
8.100000000000037
 10
21.2
 20
10.00000000000004
 10
23.10000000000001
 20
10.00000000000004
  0
LWPOLYLINE
  5
171
100
AcDbEntity
  8
glass
  6
ByLayer
 62
  256
370
   -1
100
AcDbPolyline
 90
    4
 70
    1
 43
0
 10
23.10000000000001
 20
10.10000000000004
 10
21.2
 20
10.10000000000004
 10
21.2
 20
12.00000000000004
 10
23.1
 20
12.00000000000004
  0
ARC
  5
172
100
AcDbEntity
  8
face
  6
ByLayer
 62
  256
370
   -1
100
AcDbCircle
 10
21.15
 20
1.693750000000039
 40
10.60625
100
AcDbArc
 50
78.85560439207241
 51
101.1443956079276
  0
LWPOLYLINE
  5
173
100
AcDbEntity
  8
face
  6
ByLayer
 62
  256
370
   -1
100
AcDbPolyline
 90
    4
 70
    0
 43
0
 10
19.1
 20
12.10000000000004
 10
19.1
 20
6.000000000000037
 10
23.2
 20
6.000000000000037
 10
23.2
 20
12.10000000000004
  0
ARC
  5
174
100
AcDbEntity
  8
face
  6
ByLayer
 62
  256
370
   -1
100
AcDbCircle
 10
21.15
 20
1.693750000000039
 40
11.85625
100
AcDbArc
 50
78.85560439207241
 51
101.1443956079276
  0
LINE
  5
175
100
AcDbEntity
  8
face
  6
ByLayer
 62
  256
370
   -1
100
AcDbLine
 10
19.1
 20
12.10000000000004
 11
18.85839717147908
 21
13.32642899233946
  0
LINE
  5
176
100
AcDbEntity
  8
face
  6
ByLayer
 62
  256
370
   -1
100
AcDbLine
 10
23.2
 20
12.10000000000004
 11
23.44160282852091
 21
13.32642899233946
  0
LINE
  5
177
100
AcDbEntity
  8
boxwall
  6
DOT2
 62
  256
370
   -1
100
AcDbLine
 10
8.679178051830283
 20
9.400000000000038
 11
19.1
 21
9.400000000000038
  0
LINE
  5
178
100
AcDbEntity
  8
boxwall
  6
DOT2
 62
  256
370
   -1
100
AcDbLine
 10
4.850128911316922
 20
6.400000000000038
 11
19.1
 21
6.400000000000038
  0
LINE
  5
179
100
AcDbEntity
  8
boxwall
  6
DOT2
 62
  256
370
   -1
100
AcDbLine
 10
23.2
 20
9.400000000000038
 11
29.6
 21
9.400000000000038
  0
LINE
  5
17A
100
AcDbEntity
  8
boxwall
  6
DOT2
 62
  256
370
   -1
100
AcDbLine
 10
23.2
 20
6.400000000000038
 11
29.6
 21
6.400000000000038
  0
DIMENSION
  5
17B
100
AcDbEntity
  8
dimensions
  6
ByLayer
 62
  256
370
   -1
100
AcDbDimension
  2
*D8
 10
17
 20
2.939152317953646e-16
 30
0
 11
15.5
 21
3.000000000000019
 31
0
 70
   32
 71
    5
 72
    0
  3
Standard
 53
0
210
0
220
0
230
1
100
AcDbAlignedDimension
 13
19.1
 23
6.000000000000037
 33
0
 14
19.1
 24
0
 34
0
 50
90
100
AcDbRotatedDimension
  0
DIMENSION
  5
17C
100
AcDbEntity
  8
dimensions
  6
ByLayer
 62
  256
370
   -1
100
AcDbDimension
  2
*D9
 10
19.4
 20
-5.999999999999998
 30
0
 11
9.550000000000001
 21
-4.499999999999998
 31
0
 70
   32
 71
    5
 72
    0
  3
Standard
 53
0
210
0
220
0
230
1
100
AcDbAlignedDimension
 13
0
 23
0
 33
0
 14
19.1
 24
6.000000000000037
 34
0
100
AcDbRotatedDimension
  0
DIMENSION
  5
17D
100
AcDbEntity
  8
dimensions
  6
ByLayer
 62
  256
370
   -1
100
AcDbDimension
  2
*D10
 10
23.5
 20
-5.999999999999998
 30
0
 11
21.15
 21
-4.499999999999998
 31
0
 70
   32
 71
    5
 72
    0
  3
Standard
 53
0
210
0
220
0
230
1
100
AcDbAlignedDimension
 13
19.1
 23
6.000000000000037
 33
0
 14
23.2
 24
6.000000000000037
 34
0
100
AcDbRotatedDimension
  0
DIMENSION
  5
17E
100
AcDbEntity
  8
dimensions
  6
ByLayer
 62
  256
370
   -1
100
AcDbDimension
  2
*D11
 10
29.6
 20
-6
 30
0
 11
26.4
 21
-4.5
 31
0
 70
   32
 71
    5
 72
    0
  3
Standard
 53
0
210
0
220
0
230
1
100
AcDbAlignedDimension
 13
23.2
 23
6.000000000000037
 33
0
 14
29.6
 24
1.400000000000038
 34
0
100
AcDbRotatedDimension
  0
LINE
  5
17F
100
AcDbEntity
  8
face
  6
ByLayer
 62
  256
370
   -1
100
AcDbLine
 10
19.1
 20
-15.75
 11
23.20000000000001
 21
-15.75
  0
LINE
  5
180
100
AcDbEntity
  8
face
  6
ByLayer
 62
  256
370
   -1
100
AcDbLine
 10
23.20000000000001
 20
-17
 11
19.1
 21
-17
  0
LINE
  5
181
100
AcDbEntity
  8
boxwall
  6
ByLayer
 62
  256
370
   -1
100
AcDbLine
 10
23.20000000000001
 20
-15.6
 11
19.10000000000001
 21
-15.6
  0
LINE
  5
182
100
AcDbEntity
  8
boxwall
  6
ByLayer
 62
  256
370
   -1
100
AcDbLine
 10
18.10000000000001
 20
-13.6
 11
24.20000000000001
 21
-13.6
  0
LWPOLYLINE
  5
183
100
AcDbEntity
  8
face
  6
ByLayer
 62
  256
370
   -1
100
AcDbPolyline
 90
    4
 70
    1
 43
0
 10
19.1
 20
-15.75
 10
19.1
 20
-17
 10
8.68
 20
-17
 10
8.68
 20
-15.75
  0
LWPOLYLINE
  5
184
100
AcDbEntity
  8
boxwall
  6
CONTINUOUS
 62
   56
420
8421376
370
   50
100
AcDbPolyline
 90
    5
 70
    0
 43
0
 10
18.10000000000001
 20
-13.6
 10
19.10000000000001
 20
-15.6
 10
8.68
 20
-15.6
 10
8.68
 20
-13.6
 10
18.10000000000001
 20
-13.6
  0
LWPOLYLINE
  5
185
100
AcDbEntity
  8
face
  6
ByLayer
 62
  256
370
   -1
100
AcDbPolyline
 90
    4
 70
    1
 43
0
 10
23.20000000000001
 20
-15.75
 10
23.20000000000001
 20
-17
 10
29.6
 20
-17
 10
29.59999999999999
 20
-15.75
  0
LWPOLYLINE
  5
186
100
AcDbEntity
  8
boxwall
  6
CONTINUOUS
 62
   56
420
8421376
370
   50
100
AcDbPolyline
 90
    5
 70
    0
 43
0
 10
24.20000000000001
 20
-13.6
 10
23.20000000000001
 20
-15.6
 10
29.59999999999999
 20
-15.6
 10
29.59999999999999
 20
-13.6
 10
24.20000000000001
 20
-13.6
  0
LWPOLYLINE
  5
187
100
AcDbEntity
  8
glass
  6
ByLayer
 62
  256
370
   -1
100
AcDbPolyline
 90
    4
 70
    1
 43
0
 10
47.2
 20
6.100000000000041
 10
45.3
 20
6.100000000000041
 10
45.3
 20
8.000000000000039
 10
47.2
 20
8.000000000000039
  0
LWPOLYLINE
  5
188
100
AcDbEntity
  8
glass
  6
ByLayer
 62
  256
370
   -1
100
AcDbPolyline
 90
    4
 70
    1
 43
0
 10
47.2
 20
8.100000000000039
 10
45.3
 20
8.100000000000039
 10
45.3
 20
10.00000000000004
 10
47.2
 20
10.00000000000004
  0
LWPOLYLINE
  5
189
100
AcDbEntity
  8
glass
  6
ByLayer
 62
  256
370
   -1
100
AcDbPolyline
 90
    4
 70
    1
 43
0
 10
47.2
 20
10.10000000000004
 10
45.3
 20
10.10000000000004
 10
45.3
 20
12.00000000000004
 10
47.2
 20
12.00000000000004
  0
LWPOLYLINE
  5
18A
100
AcDbEntity
  8
glass
  6
ByLayer
 62
  256
370
   -1
100
AcDbPolyline
 90
    4
 70
    1
 43
0
 10
49.20000000000002
 20
6.100000000000041
 10
47.3
 20
6.100000000000041
 10
47.3
 20
8.000000000000039
 10
49.20000000000002
 20
8.000000000000039
  0
LWPOLYLINE
  5
18B
100
AcDbEntity
  8
glass
  6
ByLayer
 62
  256
370
   -1
100
AcDbPolyline
 90
    4
 70
    1
 43
0
 10
49.20000000000002
 20
8.100000000000039
 10
47.3
 20
8.100000000000039
 10
47.3
 20
10.00000000000004
 10
49.20000000000002
 20
10.00000000000004
  0
LWPOLYLINE
  5
18C
100
AcDbEntity
  8
glass
  6
ByLayer
 62
  256
370
   -1
100
AcDbPolyline
 90
    4
 70
    1
 43
0
 10
49.20000000000002
 20
10.10000000000004
 10
47.3
 20
10.10000000000004
 10
47.3
 20
12.00000000000004
 10
49.2
 20
12.00000000000004
  0
ARC
  5
18D
100
AcDbEntity
  8
face
  6
ByLayer
 62
  256
370
   -1
100
AcDbCircle
 10
47.25000000000001
 20
1.693750000000041
 40
10.60625
100
AcDbArc
 50
78.85560439207241
 51
101.1443956079276
  0
LWPOLYLINE
  5
18E
100
AcDbEntity
  8
face
  6
ByLayer
 62
  256
370
   -1
100
AcDbPolyline
 90
    4
 70
    0
 43
0
 10
45.2
 20
12.10000000000004
 10
45.2
 20
6.000000000000039
 10
49.3
 20
6.000000000000039
 10
49.3
 20
12.10000000000004
  0
ARC
  5
18F
100
AcDbEntity
  8
face
  6
ByLayer
 62
  256
370
   -1
100
AcDbCircle
 10
47.25000000000001
 20
1.693750000000041
 40
11.85625
100
AcDbArc
 50
78.85560439207241
 51
101.1443956079276
  0
LINE
  5
190
100
AcDbEntity
  8
face
  6
ByLayer
 62
  256
370
   -1
100
AcDbLine
 10
45.2
 20
12.10000000000004
 11
44.95839717147908
 21
13.32642899233946
  0
LINE
  5
191
100
AcDbEntity
  8
face
  6
ByLayer
 62
  256
370
   -1
100
AcDbLine
 10
49.3
 20
12.10000000000004
 11
49.54160282852092
 21
13.32642899233946
  0
LINE
  5
192
100
AcDbEntity
  8
boxwall
  6
DOT2
 62
  256
370
   -1
100
AcDbLine
 10
49.3
 20
9.400000000000039
 11
59.71778351134627
 21
9.400000000000038
  0
LINE
  5
193
100
AcDbEntity
  8
boxwall
  6
DOT2
 62
  256
370
   -1
100
AcDbLine
 10
49.3
 20
6.400000000000039
 11
63.54545103804821
 21
6.400000000000038
  0
LINE
  5
194
100
AcDbEntity
  8
boxwall
  6
DOT2
 62
  256
370
   -1
100
AcDbLine
 10
45.2
 20
9.400000000000039
 11
38.8
 21
9.400000000000038
  0
LINE
  5
195
100
AcDbEntity
  8
boxwall
  6
DOT2
 62
  256
370
   -1
100
AcDbLine
 10
45.2
 20
6.400000000000039
 11
38.8
 21
6.400000000000038
  0
DIMENSION
  5
196
100
AcDbEntity
  8
dimensions
  6
ByLayer
 62
  256
370
   -1
100
AcDbDimension
  2
*D12
 10
44.9
 20
-5.999999999999998
 30
0
 11
42
 21
-4.499999999999998
 31
0
 70
   32
 71
    5
 72
    0
  3
Standard
 53
0
210
0
220
0
230
1
100
AcDbAlignedDimension
 13
38.8
 23
1.400000000000038
 33
0
 14
45.2
 24
6.000000000000039
 34
0
100
AcDbRotatedDimension
  0
DIMENSION
  5
197
100
AcDbEntity
  8
dimensions
  6
ByLayer
 62
  256
370
   -1
100
AcDbDimension
  2
*D13
 10
49
 20
-6
 30
0
 11
47.25
 21
-4.5
 31
0
 70
   32
 71
    5
 72
    0
  3
Standard
 53
0
210
0
220
0
230
1
100
AcDbAlignedDimension
 13
45.2
 23
6.000000000000039
 33
0
 14
49.3
 24
6.000000000000002
 34
0
100
AcDbRotatedDimension
  0
DIMENSION
  5
198
100
AcDbEntity
  8
dimensions
  6
ByLayer
 62
  256
370
   -1
100
AcDbDimension
  2
*D14
 10
68.40000000000002
 20
-6
 30
0
 11
58.85000000000001
 21
-4.5
 31
0
 70
   32
 71
    5
 72
    0
  3
Standard
 53
0
210
0
220
0
230
1
100
AcDbAlignedDimension
 13
49.3
 23
6.000000000000039
 33
0
 14
68.40000000000002
 24
-4.422240351686924e-12
 34
0
100
AcDbRotatedDimension
  0
LINE
  5
199
100
AcDbEntity
  8
face
  6
ByLayer
 62
  256
370
   -1
100
AcDbLine
 10
49.3
 20
-15.75
 11
45.2
 21
-15.75
  0
LINE
  5
19A
100
AcDbEntity
  8
face
  6
ByLayer
 62
  256
370
   -1
100
AcDbLine
 10
45.2
 20
-17
 11
49.3
 21
-17
  0
LINE
  5
19B
100
AcDbEntity
  8
boxwall
  6
ByLayer
 62
  256
370
   -1
100
AcDbLine
 10
45.2
 20
-15.6
 11
49.3
 21
-15.6
  0
LINE
  5
19C
100
AcDbEntity
  8
boxwall
  6
ByLayer
 62
  256
370
   -1
100
AcDbLine
 10
50.3
 20
-13.6
 11
44.2
 21
-13.6
  0
LWPOLYLINE
  5
19D
100
AcDbEntity
  8
face
  6
ByLayer
 62
  256
370
   -1
100
AcDbPolyline
 90
    4
 70
    1
 43
0
 10
49.3
 20
-15.75
 10
49.3
 20
-17
 10
59.72000000000001
 20
-17
 10
59.72000000000001
 20
-15.75
  0
LWPOLYLINE
  5
19E
100
AcDbEntity
  8
boxwall
  6
CONTINUOUS
 62
   56
420
8421376
370
   50
100
AcDbPolyline
 90
    5
 70
    0
 43
0
 10
50.3
 20
-13.6
 10
49.3
 20
-15.6
 10
59.72000000000001
 20
-15.6
 10
59.72000000000001
 20
-13.6
 10
50.3
 20
-13.6
  0
LWPOLYLINE
  5
19F
100
AcDbEntity
  8
face
  6
ByLayer
 62
  256
370
   -1
100
AcDbPolyline
 90
    4
 70
    1
 43
0
 10
45.2
 20
-15.75
 10
45.2
 20
-17
 10
38.80000000000001
 20
-17
 10
38.80000000000001
 20
-15.75
  0
LWPOLYLINE
  5
1A0
100
AcDbEntity
  8
boxwall
  6
CONTINUOUS
 62
   56
420
8421376
370
   50
100
AcDbPolyline
 90
    5
 70
    0
 43
0
 10
44.2
 20
-13.6
 10
45.2
 20
-15.6
 10
38.80000000000001
 20
-15.6
 10
38.80000000000001
 20
-13.6
 10
44.2
 20
-13.6
  0
DIMENSION
  5
1A1
100
AcDbEntity
  8
dimensions
  6
ByLayer
 62
  256
370
   -1
100
AcDbDimension
  2
*D15
 10
17
 20
12.10000000000004
 30
0
 11
15.5
 21
9.05000000000004
 31
0
 70
   32
 71
    5
  3
Standard
 53
0
210
0
220
0
230
1
100
AcDbAlignedDimension
 13
19.1
 23
6.000000000000037
 33
0
 14
19.1
 24
12.10000000000004
 34
0
 50
90
100
AcDbRotatedDimension
  0
DIMENSION
  5
1A2
100
AcDbEntity
  8
dimensions
  6
ByLayer
 62
  256
370
   -1
100
AcDbDimension
  2
*D16
 10
28
 20
25.25000000000012
 30
0
 11
26.5
 21
23.12500000000008
 31
0
 70
   32
 71
    5
  3
Standard
 53
0
210
0
220
0
230
1
100
AcDbAlignedDimension
 13
31.2
 23
21.00000000000004
 33
0
 14
34.20000000000001
 24
25.25000000000012
 34
0
 50
90
100
AcDbRotatedDimension
  0
LWPOLYLINE
  5
1A3
100
AcDbEntity
  8
glass
  6
ByLayer
 62
  256
370
   -1
100
AcDbPolyline
 90
    4
 70
    1
 43
0
 10
23.10000000000001
 20
-16.55000000000002
 10
21.2
 20
-16.55000000000002
 10
21.2
 20
-15.75
 10
23.10000000000001
 20
-15.75
  0
LWPOLYLINE
  5
1A4
100
AcDbEntity
  8
glass
  6
ByLayer
 62
  256
370
   -1
100
AcDbPolyline
 90
    4
 70
    1
 43
0
 10
21.10000000000001
 20
-16.55000000000002
 10
19.2
 20
-16.55000000000002
 10
19.2
 20
-15.75
 10
21.10000000000001
 20
-15.75
  0
LWPOLYLINE
  5
1A5
100
AcDbEntity
  8
glass
  6
ByLayer
 62
  256
370
   -1
100
AcDbPolyline
 90
    4
 70
    1
 43
0
 10
45.29999999999998
 20
-16.55000000000002
 10
47.19999999999999
 20
-16.55000000000002
 10
47.19999999999999
 20
-15.75
 10
45.29999999999998
 20
-15.75
  0
LWPOLYLINE
  5
1A6
100
AcDbEntity
  8
glass
  6
ByLayer
 62
  256
370
   -1
100
AcDbPolyline
 90
    4
 70
    1
 43
0
 10
47.29999999999998
 20
-16.55000000000002
 10
49.19999999999999
 20
-16.55000000000002
 10
49.19999999999999
 20
-15.75
 10
47.29999999999998
 20
-15.75
  0
DIMENSION
  5
1A7
100
AcDbEntity
  8
dimensions
  6
ByLayer
 62
  256
370
   -1
100
AcDbDimension
  2
*D17
 10
19.10000000000001
 20
-12
 30
0
 11
18.60000000000001
 21
-10.5
 31
0
 70
   32
 71
    5
 72
    0
  3
Standard
 53
0
210
0
220
0
230
1
100
AcDbAlignedDimension
 13
18.10000000000001
 23
-13.6
 33
0
 14
19.10000000000001
 24
-15.6
 34
0
100
AcDbRotatedDimension
  0
DIMENSION
  5
1A8
100
AcDbEntity
  8
dimensions
  6
ByLayer
 62
  256
370
   -1
100
AcDbDimension
  2
*D18
 10
-1
 20
-15.6
 30
0
 11
-2.5
 21
-15.675
 31
0
 70
   32
 71
    5
 72
    0
  3
Standard
 53
0
210
0
220
0
230
1
100
AcDbAlignedDimension
 13
0
 23
-15.75
 33
0
 14
2.775557561562891e-17
 24
-15.6
 34
0
 50
90
100
AcDbRotatedDimension
  0
DIMENSION
  5
1A9
100
AcDbEntity
  8
dimensions
  6
ByLayer
 62
  256
370
   -1
100
AcDbDimension
  2
*D19
 10
-5
 20
-14
 30
0
 11
-6.5
 21
-15.3
 31
0
 70
   32
 71
    5
 72
    0
  3
Standard
 53
0
210
0
220
0
230
1
100
AcDbAlignedDimension
 13
0
 23
-17
 33
0
 14
-2.775557561562891e-17
 24
-13.6
 34
0
 50
90
100
AcDbRotatedDimension
  0
MTEXT
  5
1AA
100
AcDbEntity
  8
dimensions
  6
ByLayer
 62
  256
370
   -1
100
AcDbMText
 10
70
 20
-24
 30
0
 40
2
 41
9.72222222222244
 71
    9
 72
    1
  1
. 26
  7
cyrillic_ii
210
0
220
0
230
1
 50
0
 73
    2
 44
1
  0
MTEXT
  5
1AB
100
AcDbEntity
  8
dimensions
  6
ByLayer
 62
  256
370
   -1
100
AcDbMText
 10
44
 20
-11
 30
0
 40
2
 41
12.33333333333333
 71
    7
 72
    1
  1

  7
cyrillic_ii
210
0
220
0
230
1
 50
0
 73
    2
 44
1
  0
MTEXT
  5
1AC
100
AcDbEntity
  8
dimensions
  6
ByLayer
 62
  256
370
   -1
100
AcDbMText
 10
44
 20
-20
 30
0
 40
2
 41
7.888888888888888
 71
    7
 72
    1
  1

  7
cyrillic_ii
210
0
220
0
230
1
 50
0
 73
    2
 44
1
  0
LEADER
  5
1AD
100
AcDbEntity
  8
dimensions
  6
ByLayer
 62
  256
370
   -1
100
AcDbLeader
  3
Standard
 71
    1
 72
    0
 73
    3
 74
    0
 75
    0
 40
1
 41
10
 76
3
 76
3
 10
41
 20
-14
 30
0
 10
43
 20
-11.2
 30
0
 10
56.5
 20
-11.2
 30
0
  0
LEADER
  5
1AE
100
AcDbEntity
  8
dimensions
  6
ByLayer
 62
  256
370
   -1
100
AcDbLeader
  3
Standard
 71
    1
 72
    0
 73
    3
 74
    0
 75
    0
 40
1
 41
10
 76
3
 76
3
 10
41
 20
-17
 30
0
 10
43
 20
-20
 30
0
 10
52.1
 20
-20
 30
0
  0
DIMENSION
  5
1AF
100
AcDbEntity
  8
dimensions
  6
ByLayer
 62
  256
370
   -1
100
AcDbDimension
  2
*D22
 10
72
 20
-13.6
 30
0
 11
70.5
 21
-14.6
 31
0
 70
   32
 71
    5
 72
    0
  3
Standard
 53
0
210
0
220
0
230
1
100
AcDbAlignedDimension
 13
68.40000000000001
 23
-15.6
 33
0
 14
68.40000000000001
 24
-13.6
 34
0
 50
90
100
AcDbRotatedDimension
  0
DIMENSION
  5
1B0
100
AcDbEntity
  8
dimensions
  6
ByLayer
 62
  256
370
   -1
100
AcDbDimension
  2
*D23
 10
67
 20
-15.75
 30
0
 11
66
 21
-14
 31
0
 70
   32
 71
    5
 72
    0
  3
Standard
 53
0
210
0
220
0
230
1
100
AcDbAlignedDimension
 13
68.40000000000001
 23
-17
 33
0
 14
68.40000000000001
 24
-15.75
 34
0
 50
90
100
AcDbRotatedDimension
  0
LINE
  5
1B1
100
AcDbEntity
  8
metal
  6
DASHED2
 62
  256
370
   -1
100
AcDbLine
 10
38.80000000000002
 20
12.40000000000003
 11
55.89011598464433
 21
12.40000000000003
  0
LINE
  5
1B2
100
AcDbEntity
  8
metal
  6
DASHED2
 62
  256
370
   -1
100
AcDbLine
 10
38.80000000000001
 20
18.40000000000004
 11
48.23478093124045
 21
18.40000000000004
  0
LINE
  5
1B3
100
AcDbEntity
  8
metal
  6
DASHED2
 62
  256
370
   -1
100
AcDbLine
 10
29.60000000000002
 20
18.40000000000004
 11
20.16632547337037
 21
18.40000000000004
  0
LINE
  5
1B4
100
AcDbEntity
  8
metal
  6
DASHED2
 62
  256
370
   -1
100
AcDbLine
 10
27.8244237543971
 20
24.40000000000004
 11
40.57944587783656
 21
24.40000000000004
  0
LINE
  5
1B5
100
AcDbEntity
  8
metal
  6
DASHED2
 62
  256
370
   -1
100
AcDbLine
 10
27.6
 20
18.7
 11
40.8
 21
18.7
  0
LINE
  5
1B6
100
AcDbEntity
  8
metal
  6
DASHED2
 62
  256
370
   -1
100
AcDbLine
 10
12.50822719234363
 20
12.40000000000003
 11
29.6
 21
12.40000000000003
  0
DIMENSION
  5
1B7
100
AcDbEntity
  8
dimensions
  6
ByLayer
 62
  256
370
   -1
100
AcDbDimension
  2
*D24
 10
37.2
 20
19.5
 30
0
 11
39
 21
21
 31
0
 70
   32
 71
    5
  3
Standard
 53
0
210
0
220
0
230
1
100
AcDbAlignedDimension
 13
31.20000000000004
 23
21.00000000000004
 33
0
 14
37.2
 24
21.00000000000004
 34
0
100
AcDbRotatedDimension
  0
LINE
  5
1B8
100
AcDbEntity
  8
metal
  6
DASHED2
 62
  256
370
   -1
100
AcDbLine
 10
49.3
 20
6.400000000000039
 11
63.54545103804821
 21
6.400000000000038
  0
LINE
  5
1B9
100
AcDbEntity
  8
metal
  6
DASHED2
 62
  256
370
   -1
100
AcDbLine
 10
19.1
 20
6.400000000000038
 11
4.850128911316922
 21
6.400000000000038
  0
ENDSEC
  0
SECTION
  2
OBJECTS
  0
DICTIONARY
  5
C
330
0
100
AcDbDictionary
281
    1
  3
ACAD_GROUP
350
D
  0
DICTIONARY
  5
D
330
C
100
AcDbDictionary
281
    1
  0
ENDSEC
  0
EOF
