999
dxfrw 0.6.3
  0
SECTION
  2
HEADER
  9
$ACADVER
  1
AC1021
  9
$DWGCODEPAGE
  3
ANSI_1252
  9
$INSBASE
 10
0
 20
0
 30
0
  9
$EXTMIN
 10
10000000000
 20
10000000000
 30
0
  9
$EXTMAX
 10
-10000000000
 20
-10000000000
 30
0
  9
$LIMMIN
 10
0
 20
0
  9
$LIMMAX
 10
420
 20
297
  9
$ORTHOMODE
 70
    0
  9
$REGENMODE
 70
    1
  9
$FILLMODE
 70
    1
  9
$QTEXTMODE
 70
    0
  9
$MIRRTEXT
 70
    0
  9
$LTSCALE
 40
1
  9
$ATTMODE
 70
    0
  9
$TEXTSIZE
 40
2.5
  9
$TRACEWID
 40
15.68
  9
$TEXTSTYLE
  7
STANDARD
  9
$CLAYER
  8
plate
  9
$CELTYPE
  6
BYLAYER
  9
$CECOLOR
 62
  256
  9
$CELTSCALE
 40
1
  9
$DISPSILH
 70
    0
  9
$DIMSCALE
 40
1
  9
$DIMASZ
 40
5
  9
$DIMEXO
 40
1
  9
$DIMDLI
 40
3.75
  9
$DIMRND
 40
0
  9
$DIMDLE
 40
0
  9
$DIMEXE
 40
2
  9
$DIMTP
 40
0
  9
$DIMTM
 40
0
  9
$DIMTXT
 40
3
  9
$DIMCEN
 40
2.5
  9
$DIMTSZ
 40
1
  9
$DIMTOL
 70
    0
  9
$DIMLIM
 70
    0
  9
$DIMTIH
 70
    0
  9
$DIMTOH
 70
    0
  9
$DIMSE1
 70
    0
  9
$DIMSE2
 70
    0
  9
$DIMTAD
 70
    1
  9
$DIMZIN
 70
    8
  9
$DIMBLK
  1

  9
$DIMASO
 70
    1
  9
$DIMSHO
 70
    1
  9
$DIMPOST
  1

  9
$DIMAPOST
  1

  9
$DIMALT
 70
    0
  9
$DIMALTD
 70
    3
  9
$DIMALTF
 40
0.03937
  9
$DIMLFAC
 40
10
  9
$DIMTOFL
 70
    1
  9
$DIMTVP
 40
0
  9
$DIMTIX
 70
    0
  9
$DIMSOXD
 70
    0
  9
$DIMSAH
 70
    0
  9
$DIMBLK1
  1

  9
$DIMBLK2
  1

  9
$DIMSTYLE
  2
STANDARD
  9
$DIMCLRD
 70
    0
  9
$DIMCLRE
 70
    0
  9
$DIMCLRT
 70
    0
  9
$DIMTFAC
 40
1
  9
$DIMGAP
 40
1
  9
$DIMJUST
 70
    0
  9
$DIMSD1
 70
    0
  9
$DIMSD2
 70
    0
  9
$DIMTOLJ
 70
    0
  9
$DIMTZIN
 70
    8
  9
$DIMALTZ
 70
    0
  9
$DIMALTTZ
 70
    0
  9
$DIMUPT
 70
    0
  9
$DIMDEC
 70
    1
  9
$DIMTDEC
 70
    2
  9
$DIMALTU
 70
    2
  9
$DIMALTTD
 70
    3
  9
$DIMTXSTY
  7
standard
  9
$DIMAUNIT
 70
    0
  9
$DIMADEC
 70
    0
  9
$DIMALTRND
 40
0
  9
$DIMAZIN
 70
    0
  9
$DIMDSEP
 70
   44
  9
$DIMATFIT
 70
    3
  9
$DIMFRAC
 70
    0
  9
$DIMLDRBLK
  1
STANDARD
  9
$DIMLUNIT
 70
    2
  9
$DIMLWD
 70
   -2
  9
$DIMLWE
 70
   -2
  9
$DIMTMOVE
 70
    0
  9
$DIMFXL
 40
1
  9
$DIMFXLON
 70
    0
  9
$DIMJOGANG
 40
0.7854
  9
$DIMTFILL
 70
    0
  9
$DIMTFILLCLR
 70
    0
  9
$DIMARCSYM
 70
    0
  9
$DIMLTYPE
  6

  9
$DIMLTEX1
  6

  9
$DIMLTEX2
  6

  9
$LUNITS
 70
    2
  9
$LUPREC
 70
    2
  9
$SKETCHINC
 40
1
  9
$FILLETRAD
 40
0
  9
$AUNITS
 70
    0
  9
$AUPREC
 70
    2
  9
$MENU
  1
.
  9
$ELEVATION
 40
0
  9
$PELEVATION
 40
0
  9
$THICKNESS
 40
0
  9
$LIMCHECK
 70
    0
  9
$CHAMFERA
 40
0
  9
$CHAMFERB
 40
0
  9
$CHAMFERC
 40
0
  9
$CHAMFERD
 40
0
  9
$SKPOLY
 70
    0
  9
$USRTIMER
 70
    1
  9
$ANGBASE
 50
0
  9
$ANGDIR
 70
    0
  9
$PDMODE
 70
   34
  9
$PDSIZE
 40
0
  9
$PLINEWID
 40
0
  9
$SPLFRAME
 70
    0
  9
$SPLINETYPE
 70
    2
  9
$SPLINESEGS
 70
    8
  9
$HANDSEED
  5
20000
  9
$SURFTAB1
 70
    6
  9
$SURFTAB2
 70
    6
  9
$SURFTYPE
 70
    6
  9
$SURFU
 70
    6
  9
$SURFV
 70
    6
  9
$UCSBASE
  2

  9
$UCSNAME
  2

  9
$UCSORG
 10
0
 20
0
 30
0
  9
$UCSXDIR
 10
1
 20
0
 30
0
  9
$UCSYDIR
 10
0
 20
1
 30
0
  9
$UCSORTHOREF
  2

  9
$UCSORTHOVIEW
 70
    0
  9
$UCSORGTOP
 10
0
 20
0
 30
0
  9
$UCSORGBOTTOM
 10
0
 20
0
 30
0
  9
$UCSORGLEFT
 10
0
 20
0
 30
0
  9
$UCSORGRIGHT
 10
0
 20
0
 30
0
  9
$UCSORGFRONT
 10
0
 20
0
 30
0
  9
$UCSORGBACK
 10
0
 20
0
 30
0
  9
$PUCSBASE
  2

  9
$PUCSNAME
  2

  9
$PUCSORG
 10
0
 20
0
 30
0
  9
$PUCSXDIR
 10
1
 20
0
 30
0
  9
$PUCSYDIR
 10
0
 20
1
 30
0
  9
$PUCSORTHOREF
  2

  9
$PUCSORTHOVIEW
 70
    0
  9
$PUCSORGTOP
 10
0
 20
0
 30
0
  9
$PUCSORGBOTTOM
 10
0
 20
0
 30
0
  9
$PUCSORGLEFT
 10
0
 20
0
 30
0
  9
$PUCSORGRIGHT
 10
0
 20
0
 30
0
  9
$PUCSORGFRONT
 10
0
 20
0
 30
0
  9
$PUCSORGBACK
 10
0
 20
0
 30
0
  9
$USERI1
 70
    0
  9
$USERI2
 70
    0
  9
$USERI3
 70
    0
  9
$USERI4
 70
    0
  9
$USERI5
 70
    0
  9
$USERR1
 40
0
  9
$USERR2
 40
0
  9
$USERR3
 40
0
  9
$USERR4
 40
0
  9
$USERR5
 40
0
  9
$WORLDVIEW
 70
    1
  9
$SHADEDGE
 70
    3
  9
$SHADEDIF
 70
   70
  9
$TILEMODE
 70
    1
  9
$MAXACTVP
 70
   64
  9
$PINSBASE
 10
7.1
 20
13
 30
0
  9
$PLIMCHECK
 70
    0
  9
$PEXTMIN
 10
0
 20
0
 30
0
  9
$PEXTMAX
 10
0
 20
0
 30
0
  9
$GRIDMODE
 70
    1
  9
$SNAPSTYLE
 70
    0
  9
$GRIDUNIT
 10
0
 20
0
  9
$PLIMMIN
 10
0
 20
0
  9
$PLIMMAX
 10
29.7
 20
21
  9
$UNITMODE
 70
    0
  9
$VISRETAIN
 70
    1
  9
$PLINEGEN
 70
    0
  9
$PSLTSCALE
 70
    1
  9
$TREEDEPTH
 70
 3020
  9
$CMLSTYLE
  2
Standard
  9
$CMLJUST
 70
    0
  9
$CMLSCALE
 40
20
  9
$PROXYGRAPHICS
 70
    1
  9
$MEASUREMENT
 70
    1
  9
$CELWEIGHT
370
   -1
  9
$ENDCAPS
280
    0
  9
$JOINSTYLE
280
    0
  9
$LWDISPLAY
290
    0
  9
$INSUNITS
 70
    5
  9
$HYPERLINKBASE
  1

  9
$STYLESHEET
  1

  9
$XEDIT
290
    1
  9
$CEPSNTYPE
380
    0
  9
$PSTYLEMODE
290
    1
  9
$EXTNAMES
290
    1
  9
$PSVPSCALE
 40
0.125
  9
$OLESTARTUP
290
    0
  9
$SORTENTS
280
  127
  9
$INDEXCTL
280
    0
  9
$HIDETEXT
280
    1
  9
$XCLIPFRAME
290
    0
  9
$HALOGAP
280
    0
  9
$OBSCOLOR
 70
  257
  9
$OBSLTYPE
280
    0
  9
$INTERSECTIONDISPLAY
280
    0
  9
$INTERSECTIONCOLOR
 70
  257
  9
$DIMASSOC
280
    1
  9
$PROJECTNAME
  1

  9
$CAMERADISPLAY
290
    0
  9
$LENSLENGTH
 40
50
  9
$CAMERAHEIGHT
 40
0
  9
$STEPSPERSEC
 40
2
  9
$STEPSIZE
 40
50
  9
$3DDWFPREC
 40
2
  9
$PSOLWIDTH
 40
5
  9
$PSOLHEIGHT
 40
80
  9
$LOFTANG1
 40
1.570796326794897
  9
$LOFTANG2
 40
1.570796326794897
  9
$LOFTMAG1
 40
0
  9
$LOFTMAG2
 40
0
  9
$LOFTPARAM
 70
    7
  9
$LOFTNORMALS
280
    1
  9
$LATITUDE
 40
1
  9
$LONGITUDE
 40
1
  9
$NORTHDIRECTION
 40
0
  9
$TIMEZONE
 70
-8000
  9
$LIGHTGLYPHDISPLAY
280
    1
  9
$TILEMODELIGHTSYNCH
280
    1
  9
$SOLIDHIST
280
    1
  9
$SHOWHIST
280
    1
  9
$DWFFRAME
280
    2
  9
$DGNFRAME
280
    0
  9
$REALWORLDSCALE
290
    1
  9
$INTERFERECOLOR
 62
    1
  9
$CSHADOW
280
    0
  9
$SHADOWPLANELOCATION
 40
0
  0
ENDSEC
  0
SECTION
  2
CLASSES
  0
ENDSEC
  0
SECTION
  2
TABLES
  0
TABLE
  2
VPORT
  5
8
330
0
100
AcDbSymbolTable
 70
    1
  0
VPORT
  5
31
330
2
100
AcDbSymbolTableRecord
100
AcDbViewportTableRecord
  2
*ACTIVE
 70
    0
 10
0
 20
0
 11
1
 21
1
 12
96.97523809523807
 22
28.47238095238095
 13
0
 23
0
 14
10
 24
10
 15
10
 25
10
 16
0
 26
0
 36
1
 17
0
 27
0
 37
0
 40
153.6380952380952
 41
1.768807339449541
 42
50
 43
0
 44
0
 50
0
 51
0
 71
    0
 72
  100
 73
    1
 74
    3
 75
    0
 76
    1
 77
    0
 78
    0
281
    0
 65
    1
110
0
120
0
130
0
111
1
121
0
131
0
112
0
122
1
132
0
 79
    0
146
0
348
10020
 60
    7
 61
    5
292
1
282
    1
141
0
142
0
 63
  250
421
3358443
  0
ENDTAB
  0
TABLE
  2
LTYPE
  5
5
330
0
100
AcDbSymbolTable
 70
    4
  0
LTYPE
  5
14
330
5
100
AcDbSymbolTableRecord
100
AcDbLinetypeTableRecord
  2
ByBlock
 70
    0
  3

 72
   65
 73
    0
 40
0
  0
LTYPE
  5
15
330
5
100
AcDbSymbolTableRecord
100
AcDbLinetypeTableRecord
  2
ByLayer
 70
    0
  3

 72
   65
 73
    0
 40
0
  0
LTYPE
  5
16
330
5
100
AcDbSymbolTableRecord
100
AcDbLinetypeTableRecord
  2
Continuous
 70
    0
  3
Solid line
 72
   65
 73
    0
 40
0
  0
LTYPE
  5
32
330
5
100
AcDbSymbolTableRecord
100
AcDbLinetypeTableRecord
  2
DOT
 70
    0
  3
Dot . . . . . . . . . . . . . . . . . . . . . .
 72
   65
 73
    2
 40
6.35
 49
0
 74
    0
 49
-6.35
 74
    0
  0
LTYPE
  5
33
330
5
100
AcDbSymbolTableRecord
100
AcDbLinetypeTableRecord
  2
DOTTINY
 70
    0
  3
Dot (.15x) .....................................
 72
   65
 73
    2
 40
0.9525
 49
0
 74
    0
 49
-0.9525
 74
    0
  0
LTYPE
  5
34
330
5
100
AcDbSymbolTableRecord
100
AcDbLinetypeTableRecord
  2
DOT2
 70
    0
  3
Dot (.5x) .....................................
 72
   65
 73
    2
 40
3.175
 49
0
 74
    0
 49
-3.175
 74
    0
  0
LTYPE
  5
35
330
5
100
AcDbSymbolTableRecord
100
AcDbLinetypeTableRecord
  2
DOTX2
 70
    0
  3
Dot (2x) .  .  .  .  .  .  .  .  .  .  .  .  .
 72
   65
 73
    2
 40
12.7
 49
0
 74
    0
 49
-12.7
 74
    0
  0
LTYPE
  5
36
330
5
100
AcDbSymbolTableRecord
100
AcDbLinetypeTableRecord
  2
DASHED
 70
    0
  3
Dashed _ _ _ _ _ _ _ _ _ _ _ _ _ _ _ _ _
 72
   65
 73
    2
 40
19.05
 49
12.7
 74
    0
 49
-6.35
 74
    0
  0
LTYPE
  5
37
330
5
100
AcDbSymbolTableRecord
100
AcDbLinetypeTableRecord
  2
DASHEDTINY
 70
    0
  3
Dashed (.15x) _ _ _ _ _ _ _ _ _ _ _ _ _ _ _ _ _
 72
   65
 73
    2
 40
2.8575
 49
1.905
 74
    0
 49
-0.9525
 74
    0
  0
LTYPE
  5
38
330
5
100
AcDbSymbolTableRecord
100
AcDbLinetypeTableRecord
  2
DASHED2
 70
    0
  3
Dashed (.5x) _ _ _ _ _ _ _ _ _ _ _ _ _ _ _ _ _
 72
   65
 73
    2
 40
9.524999999999999
 49
6.35
 74
    0
 49
-3.175
 74
    0
  0
LTYPE
  5
39
330
5
100
AcDbSymbolTableRecord
100
AcDbLinetypeTableRecord
  2
DASHEDX2
 70
    0
  3
Dashed (2x) ____  ____  ____  ____  ____  ___
 72
   65
 73
    2
 40
38.09999999999999
 49
25.4
 74
    0
 49
-12.7
 74
    0
  0
LTYPE
  5
3A
330
5
100
AcDbSymbolTableRecord
100
AcDbLinetypeTableRecord
  2
DASHDOT
 70
    0
  3
Dash dot __ . __ . __ . __ . __ . __ . __ . __
 72
   65
 73
    4
 40
25.4
 49
12.7
 74
    0
 49
-6.35
 74
    0
 49
0
 74
    0
 49
-6.35
 74
    0
  0
LTYPE
  5
3B
330
5
100
AcDbSymbolTableRecord
100
AcDbLinetypeTableRecord
  2
DASHDOTTINY
 70
    0
  3
Dash dot (.15x) _._._._._._._._._._._._._._._.
 72
   65
 73
    4
 40
3.81
 49
1.905
 74
    0
 49
-0.9525
 74
    0
 49
0
 74
    0
 49
-0.9525
 74
    0
  0
LTYPE
  5
3C
330
5
100
AcDbSymbolTableRecord
100
AcDbLinetypeTableRecord
  2
DASHDOT2
 70
    0
  3
Dash dot (.5x) _._._._._._._._._._._._._._._.
 72
   65
 73
    4
 40
12.7
 49
6.35
 74
    0
 49
-3.175
 74
    0
 49
0
 74
    0
 49
-3.175
 74
    0
  0
LTYPE
  5
3D
330
5
100
AcDbSymbolTableRecord
100
AcDbLinetypeTableRecord
  2
DASHDOTX2
 70
    0
  3
Dash dot (2x) ____  .  ____  .  ____  .  ___
 72
   65
 73
    4
 40
50.8
 49
25.4
 74
    0
 49
-12.7
 74
    0
 49
0
 74
    0
 49
-12.7
 74
    0
  0
LTYPE
  5
3E
330
5
100
AcDbSymbolTableRecord
100
AcDbLinetypeTableRecord
  2
DIVIDE
 70
    0
  3
Divide ____ . . ____ . . ____ . . ____ . . ____
 72
   65
 73
    6
 40
31.75
 49
12.7
 74
    0
 49
-6.35
 74
    0
 49
0
 74
    0
 49
-6.35
 74
    0
 49
0
 74
    0
 49
-6.35
 74
    0
  0
LTYPE
  5
3F
330
5
100
AcDbSymbolTableRecord
100
AcDbLinetypeTableRecord
  2
DIVIDETINY
 70
    0
  3
Divide (.15x) __..__..__..__..__..__..__..__.._
 72
   65
 73
    6
 40
4.7625
 49
1.905
 74
    0
 49
-0.9525
 74
    0
 49
0
 74
    0
 49
-0.9525
 74
    0
 49
0
 74
    0
 49
-0.9525
 74
    0
  0
LTYPE
  5
40
330
5
100
AcDbSymbolTableRecord
100
AcDbLinetypeTableRecord
  2
DIVIDE2
 70
    0
  3
Divide (.5x) __..__..__..__..__..__..__..__.._
 72
   65
 73
    6
 40
15.875
 49
6.35
 74
    0
 49
-3.175
 74
    0
 49
0
 74
    0
 49
-3.175
 74
    0
 49
0
 74
    0
 49
-3.175
 74
    0
  0
LTYPE
  5
41
330
5
100
AcDbSymbolTableRecord
100
AcDbLinetypeTableRecord
  2
DIVIDEX2
 70
    0
  3
Divide (2x) ________  .  .  ________  .  .  _
 72
   65
 73
    6
 40
63.5
 49
25.4
 74
    0
 49
-12.7
 74
    0
 49
0
 74
    0
 49
-12.7
 74
    0
 49
0
 74
    0
 49
-12.7
 74
    0
  0
LTYPE
  5
42
330
5
100
AcDbSymbolTableRecord
100
AcDbLinetypeTableRecord
  2
BORDER
 70
    0
  3
Border __ __ . __ __ . __ __ . __ __ . __ __ .
 72
   65
 73
    6
 40
44.45
 49
12.7
 74
    0
 49
-6.35
 74
    0
 49
12.7
 74
    0
 49
-6.35
 74
    0
 49
0
 74
    0
 49
-6.35
 74
    0
  0
LTYPE
  5
43
330
5
100
AcDbSymbolTableRecord
100
AcDbLinetypeTableRecord
  2
BORDERTINY
 70
    0
  3
Border (.15x) __.__.__.__.__.__.__.__.__.__.__.
 72
   65
 73
    6
 40
6.6675
 49
1.905
 74
    0
 49
-0.9525
 74
    0
 49
1.905
 74
    0
 49
-0.9525
 74
    0
 49
0
 74
    0
 49
-0.9525
 74
    0
  0
LTYPE
  5
44
330
5
100
AcDbSymbolTableRecord
100
AcDbLinetypeTableRecord
  2
BORDER2
 70
    0
  3
Border (.5x) __.__.__.__.__.__.__.__.__.__.__.
 72
   65
 73
    6
 40
22.225
 49
6.35
 74
    0
 49
-3.175
 74
    0
 49
6.35
 74
    0
 49
-3.175
 74
    0
 49
0
 74
    0
 49
-3.175
 74
    0
  0
LTYPE
  5
45
330
5
100
AcDbSymbolTableRecord
100
AcDbLinetypeTableRecord
  2
BORDERX2
 70
    0
  3
Border (2x) ____  ____  .  ____  ____  .  ___
 72
   65
 73
    6
 40
88.89999999999999
 49
25.4
 74
    0
 49
-12.7
 74
    0
 49
25.4
 74
    0
 49
-12.7
 74
    0
 49
0
 74
    0
 49
-12.7
 74
    0
  0
LTYPE
  5
46
330
5
100
AcDbSymbolTableRecord
100
AcDbLinetypeTableRecord
  2
CENTER
 70
    0
  3
Center ____ _ ____ _ ____ _ ____ _ ____ _ ____
 72
   65
 73
    4
 40
50.8
 49
31.75
 74
    0
 49
-6.35
 74
    0
 49
6.35
 74
    0
 49
-6.35
 74
    0
  0
LTYPE
  5
47
330
5
100
AcDbSymbolTableRecord
100
AcDbLinetypeTableRecord
  2
CENTERTINY
 70
    0
  3
Center (.15x) ___ _ ___ _ ___ _ ___ _ ___ _ ___
 72
   65
 73
    4
 40
7.619999999999999
 49
4.7625
 74
    0
 49
-0.9525
 74
    0
 49
0.9525
 74
    0
 49
-0.9525
 74
    0
  0
LTYPE
  5
48
330
5
100
AcDbSymbolTableRecord
100
AcDbLinetypeTableRecord
  2
CENTER2
 70
    0
  3
Center (.5x) ___ _ ___ _ ___ _ ___ _ ___ _ ___
 72
   65
 73
    4
 40
28.575
 49
19.05
 74
    0
 49
-3.175
 74
    0
 49
3.175
 74
    0
 49
-3.175
 74
    0
  0
LTYPE
  5
49
330
5
100
AcDbSymbolTableRecord
100
AcDbLinetypeTableRecord
  2
CENTERX2
 70
    0
  3
Center (2x) ________  __  ________  __  _____
 72
   65
 73
    4
 40
101.6
 49
63.5
 74
    0
 49
-12.7
 74
    0
 49
12.7
 74
    0
 49
-12.7
 74
    0
  0
ENDTAB
  0
TABLE
  2
LAYER
  5
2
330
0
100
AcDbSymbolTable
 70
    1
  0
LAYER
  5
10
330
2
100
AcDbSymbolTableRecord
100
AcDbLayerTableRecord
  2
0
 70
    0
 62
    7
  6
CONTINUOUS
370
   -3
390
F
  0
LAYER
  5
4A
330
2
100
AcDbSymbolTableRecord
100
AcDbLayerTableRecord
  2
base
 70
    0
 62
  136
420
32896
  6
CONTINUOUS
370
   50
390
F
  0
LAYER
  5
4B
330
2
100
AcDbSymbolTableRecord
100
AcDbLayerTableRecord
  2
dimensions
 70
    0
 62
    4
  6
CONTINUOUS
370
   13
390
F
  0
LAYER
  5
4C
330
2
100
AcDbSymbolTableRecord
100
AcDbLayerTableRecord
  2
ground
 70
    0
 62
   35
420
9857866
  6
CONTINUOUS
370
   50
390
F
  0
LAYER
  5
4D
330
2
100
AcDbSymbolTableRecord
100
AcDbLayerTableRecord
  2
metal
 70
    0
 62
    6
  6
CONTINUOUS
370
   50
390
F
  0
LAYER
  5
4E
330
2
100
AcDbSymbolTableRecord
100
AcDbLayerTableRecord
  2
plastic
 70
    0
 62
    3
  6
CONTINUOUS
370
   50
390
F
  0
LAYER
  5
4F
330
2
100
AcDbSymbolTableRecord
100
AcDbLayerTableRecord
  2
plate
 70
    0
 62
  176
420
  128
  6
CONTINUOUS
370
   50
390
F
  0
LAYER
  5
50
330
2
100
AcDbSymbolTableRecord
100
AcDbLayerTableRecord
  2
sand
 70
    0
 62
    8
  6
CONTINUOUS
370
   50
390
F
  0
LAYER
  5
51
330
2
100
AcDbSymbolTableRecord
100
AcDbLayerTableRecord
  2
screed
 70
    0
 62
   96
420
32768
  6
CONTINUOUS
370
   50
390
F
  0
LAYER
  5
52
330
2
100
AcDbSymbolTableRecord
100
AcDbLayerTableRecord
  2
wall
 70
    0
 62
   56
420
8421376
  6
CONTINUOUS
370
   50
390
F
  0
ENDTAB
  0
TABLE
  2
STYLE
  5
3
330
0
100
AcDbSymbolTable
 70
    3
  0
STYLE
  5
53
330
2
100
AcDbSymbolTableRecord
100
AcDbTextStyleTableRecord
  2
unicode
 70
    0
 40
0
 41
1
 50
0
 71
    0
 42
1
  3
unicode
  4

  0
STYLE
  5
54
330
2
100
AcDbSymbolTableRecord
100
AcDbTextStyleTableRecord
  2
Standard
 70
    0
 40
0
 41
1
 50
0
 71
    0
 42
1
  3
txt
  4

  0
ENDTAB
  0
TABLE
  2
VIEW
  5
6
330
0
100
AcDbSymbolTable
 70
    0
  0
ENDTAB
  0
TABLE
  2
UCS
  5
7
330
0
100
AcDbSymbolTable
 70
    0
  0
ENDTAB
  0
TABLE
  2
APPID
  5
9
330
0
100
AcDbSymbolTable
 70
    1
  0
APPID
  5
12
330
9
100
AcDbSymbolTableRecord
100
AcDbRegAppTableRecord
  2
ACAD
 70
    0
  0
APPID
  5
55
330
9
100
AcDbSymbolTableRecord
100
AcDbRegAppTableRecord
  2
LibreCad
 70
    0
  0
ENDTAB
  0
TABLE
  2
DIMSTYLE
  5
A
330
0
100
AcDbSymbolTable
 70
    1
100
AcDbDimStyleTable
 71
    1
  0
DIMSTYLE
105
56
330
A
100
AcDbSymbolTableRecord
100
AcDbDimStyleTableRecord
  2
Standard
 70
    0
 40
1
 41
5
 42
1
 43
0.38
 44
2
 45
0
 46
0
 47
0
 48
0
 49
1
140
3
141
0.09
142
1
143
25.4
144
10
145
0
146
1
147
1
148
0
 71
    0
 72
    0
 73
    0
 74
    1
 75
    0
 76
    0
 77
    0
 78
    8
 79
    0
170
    0
171
    2
172
    0
173
    0
174
    0
175
    0
176
    0
177
    0
178
    0
179
    0
271
    1
272
    4
273
    2
274
    2
275
    0
276
    0
277
    2
278
   44
279
    0
280
    0
281
    0
282
    0
283
    1
284
    0
285
    0
286
    0
288
    0
289
    3
340
standard
341

371
   -2
372
   -2
  0
ENDTAB
  0
TABLE
  2
BLOCK_RECORD
  5
1
330
0
100
AcDbSymbolTable
 70
    2
  0
BLOCK_RECORD
  5
1F
330
1
100
AcDbSymbolTableRecord
100
AcDbBlockTableRecord
  2
*Model_Space
 70
    0
280
    1
281
    0
  0
BLOCK_RECORD
  5
1E
330
1
100
AcDbSymbolTableRecord
100
AcDbBlockTableRecord
  2
*Paper_Space
 70
    0
280
    1
281
    0
  0
BLOCK_RECORD
  5
57
330
1
100
AcDbSymbolTableRecord
100
AcDbBlockTableRecord
  2
*D25
 70
    0
280
    1
281
    0
  0
BLOCK_RECORD
  5
5A
330
1
100
AcDbSymbolTableRecord
100
AcDbBlockTableRecord
  2
*D6
 70
    0
280
    1
281
    0
  0
BLOCK_RECORD
  5
5D
330
1
100
AcDbSymbolTableRecord
100
AcDbBlockTableRecord
  2
*D10
 70
    0
280
    1
281
    0
  0
BLOCK_RECORD
  5
60
330
1
100
AcDbSymbolTableRecord
100
AcDbBlockTableRecord
  2
*D3
 70
    0
280
    1
281
    0
  0
BLOCK_RECORD
  5
63
330
1
100
AcDbSymbolTableRecord
100
AcDbBlockTableRecord
  2
*D31
 70
    0
280
    1
281
    0
  0
BLOCK_RECORD
  5
66
330
1
100
AcDbSymbolTableRecord
100
AcDbBlockTableRecord
  2
*D24
 70
    0
280
    1
281
    0
  0
BLOCK_RECORD
  5
69
330
1
100
AcDbSymbolTableRecord
100
AcDbBlockTableRecord
  2
*D7
 70
    0
280
    1
281
    0
  0
BLOCK_RECORD
  5
6C
330
1
100
AcDbSymbolTableRecord
100
AcDbBlockTableRecord
  2
*D8
 70
    0
280
    1
281
    0
  0
BLOCK_RECORD
  5
6F
330
1
100
AcDbSymbolTableRecord
100
AcDbBlockTableRecord
  2
*D15
 70
    0
280
    1
281
    0
  0
BLOCK_RECORD
  5
72
330
1
100
AcDbSymbolTableRecord
100
AcDbBlockTableRecord
  2
*D34
 70
    0
280
    1
281
    0
  0
BLOCK_RECORD
  5
75
330
1
100
AcDbSymbolTableRecord
100
AcDbBlockTableRecord
  2
*D28
 70
    0
280
    1
281
    0
  0
BLOCK_RECORD
  5
78
330
1
100
AcDbSymbolTableRecord
100
AcDbBlockTableRecord
  2
*D13
 70
    0
280
    1
281
    0
  0
BLOCK_RECORD
  5
7B
330
1
100
AcDbSymbolTableRecord
100
AcDbBlockTableRecord
  2
*D35
 70
    0
280
    1
281
    0
  0
BLOCK_RECORD
  5
7E
330
1
100
AcDbSymbolTableRecord
100
AcDbBlockTableRecord
  2
*D9
 70
    0
280
    1
281
    0
  0
BLOCK_RECORD
  5
81
330
1
100
AcDbSymbolTableRecord
100
AcDbBlockTableRecord
  2
*D32
 70
    0
280
    1
281
    0
  0
BLOCK_RECORD
  5
84
330
1
100
AcDbSymbolTableRecord
100
AcDbBlockTableRecord
  2
*D22
 70
    0
280
    1
281
    0
  0
BLOCK_RECORD
  5
87
330
1
100
AcDbSymbolTableRecord
100
AcDbBlockTableRecord
  2
*D29
 70
    0
280
    1
281
    0
  0
BLOCK_RECORD
  5
8A
330
1
100
AcDbSymbolTableRecord
100
AcDbBlockTableRecord
  2
*D1
 70
    0
280
    1
281
    0
  0
BLOCK_RECORD
  5
8D
330
1
100
AcDbSymbolTableRecord
100
AcDbBlockTableRecord
  2
*D18
 70
    0
280
    1
281
    0
  0
BLOCK_RECORD
  5
90
330
1
100
AcDbSymbolTableRecord
100
AcDbBlockTableRecord
  2
*D14
 70
    0
280
    1
281
    0
  0
BLOCK_RECORD
  5
93
330
1
100
AcDbSymbolTableRecord
100
AcDbBlockTableRecord
  2
*D20
 70
    0
280
    1
281
    0
  0
BLOCK_RECORD
  5
96
330
1
100
AcDbSymbolTableRecord
100
AcDbBlockTableRecord
  2
*D5
 70
    0
280
    1
281
    0
  0
BLOCK_RECORD
  5
99
330
1
100
AcDbSymbolTableRecord
100
AcDbBlockTableRecord
  2
*D30
 70
    0
280
    1
281
    0
  0
BLOCK_RECORD
  5
9C
330
1
100
AcDbSymbolTableRecord
100
AcDbBlockTableRecord
  2
*D16
 70
    0
280
    1
281
    0
  0
BLOCK_RECORD
  5
9F
330
1
100
AcDbSymbolTableRecord
100
AcDbBlockTableRecord
  2
*D19
 70
    0
280
    1
281
    0
  0
BLOCK_RECORD
  5
A2
330
1
100
AcDbSymbolTableRecord
100
AcDbBlockTableRecord
  2
*D21
 70
    0
280
    1
281
    0
  0
BLOCK_RECORD
  5
A5
330
1
100
AcDbSymbolTableRecord
100
AcDbBlockTableRecord
  2
*D4
 70
    0
280
    1
281
    0
  0
BLOCK_RECORD
  5
A8
330
1
100
AcDbSymbolTableRecord
100
AcDbBlockTableRecord
  2
*D2
 70
    0
280
    1
281
    0
  0
BLOCK_RECORD
  5
AB
330
1
100
AcDbSymbolTableRecord
100
AcDbBlockTableRecord
  2
*D33
 70
    0
280
    1
281
    0
  0
BLOCK_RECORD
  5
AE
330
1
100
AcDbSymbolTableRecord
100
AcDbBlockTableRecord
  2
*D17
 70
    0
280
    1
281
    0
  0
BLOCK_RECORD
  5
B1
330
1
100
AcDbSymbolTableRecord
100
AcDbBlockTableRecord
  2
*D26
 70
    0
280
    1
281
    0
  0
BLOCK_RECORD
  5
B4
330
1
100
AcDbSymbolTableRecord
100
AcDbBlockTableRecord
  2
*D23
 70
    0
280
    1
281
    0
  0
BLOCK_RECORD
  5
B7
330
1
100
AcDbSymbolTableRecord
100
AcDbBlockTableRecord
  2
*D11
 70
    0
280
    1
281
    0
  0
BLOCK_RECORD
  5
BA
330
1
100
AcDbSymbolTableRecord
100
AcDbBlockTableRecord
  2
*D12
 70
    0
280
    1
281
    0
  0
BLOCK_RECORD
  5
BD
330
1
100
AcDbSymbolTableRecord
100
AcDbBlockTableRecord
  2
*D27
 70
    0
280
    1
281
    0
  0
ENDTAB
  0
ENDSEC
  0
SECTION
  2
BLOCKS
  0
BLOCK
  5
20
330
1F
100
AcDbEntity
  8
0
100
AcDbBlockBegin
  2
*Model_Space
 70
    0
 10
0
 20
0
 30
0
  3
*Model_Space
  1

  0
ENDBLK
  5
21
330
1F
100
AcDbEntity
  8
0
100
AcDbBlockEnd
  0
BLOCK
  5
1C
330
1B
100
AcDbEntity
  8
0
100
AcDbBlockBegin
  2
*Paper_Space
 70
    0
 10
0
 20
0
 30
0
  3
*Paper_Space
  1

  0
ENDBLK
  5
1D
330
1F
100
AcDbEntity
  8
0
100
AcDbBlockEnd
  0
BLOCK
  5
58
330
57
100
AcDbEntity
  8
0
100
AcDbBlockBegin
  2
*D25
 70
    1
 10
0
 20
0
  3
*D25
  1

  0
LINE
  5
C0
100
AcDbEntity
  8
dimensions
  6
ByBlock
 62
    0
370
   -2
100
AcDbLine
 10
122.8694195
 20
19.99999999999984
 11
122.8694195
 21
41.49999999999971
  0
LINE
  5
C1
100
AcDbEntity
  8
dimensions
  6
ByBlock
 62
    0
370
   -2
100
AcDbLine
 10
123.5765262811866
 20
29.29289321881329
 11
122.1623127188135
 21
30.70710678118639
  0
LINE
  5
C2
100
AcDbEntity
  8
dimensions
  6
ByBlock
 62
    0
370
   -2
100
AcDbLine
 10
123.5765262811866
 20
30.79289321881316
 11
122.1623127188135
 21
32.20710678118625
  0
MTEXT
  5
C3
100
AcDbEntity
  8
dimensions
  6
CONTINUOUS
 62
    0
370
   -2
100
AcDbMText
 10
120.3694195
 20
30.74999999999978
 30
0
 40
3
 41
1.333333333333519
 71
    5
 72
    1
  1
3
  7
standard
210
0
220
0
230
1
 50
90
 73
    2
 44
1
  0
LINE
  5
C4
100
AcDbEntity
  8
dimensions
  6
ByBlock
 62
    0
370
   -2
100
AcDbLine
 10
129.3694195
 20
29.99999999999984
 11
120.8694195
 21
29.99999999999984
  0
LINE
  5
C5
100
AcDbEntity
  8
dimensions
  6
ByBlock
 62
    0
370
   -2
100
AcDbLine
 10
129.3694195
 20
31.49999999999971
 11
120.8694195
 21
31.49999999999971
  0
ENDBLK
  5
59
330
57
100
AcDbEntity
  8
0
100
AcDbBlockEnd
  0
BLOCK
  5
5B
330
5A
100
AcDbEntity
  8
0
100
AcDbBlockBegin
  2
*D6
 70
    1
 10
0
 20
0
  3
*D6
  1

  0
LINE
  5
C6
100
AcDbEntity
  8
dimensions
  6
ByBlock
 62
    0
370
   -2
100
AcDbLine
 10
-5.000000000000282
 20
50
 11
20.49999999999904
 21
50
  0
LINE
  5
C7
100
AcDbEntity
  8
dimensions
  6
ByBlock
 62
    0
370
   -2
100
AcDbLine
 10
4.29289321881317
 20
49.29289321881345
 11
5.707106781186265
 21
50.70710678118655
  0
LINE
  5
C8
100
AcDbEntity
  8
dimensions
  6
ByBlock
 62
    0
370
   -2
100
AcDbLine
 10
9.792893218812493
 20
49.29289321881345
 11
11.20710678118559
 21
50.70710678118655
  0
MTEXT
  5
C9
100
AcDbEntity
  8
dimensions
  6
CONTINUOUS
 62
    0
370
   -2
100
AcDbMText
 10
7.749999999999379
 20
52.5
 30
0
 40
3
 41
3.666666666667038
 71
    5
 72
    1
  1
55
  7
standard
210
0
220
0
230
1
 50
0
 73
    2
 44
1
  0
LINE
  5
CA
100
AcDbEntity
  8
dimensions
  6
ByBlock
 62
    0
370
   -2
100
AcDbLine
 10
4.999999999999718
 20
34
 11
4.999999999999718
 21
52
  0
LINE
  5
CB
100
AcDbEntity
  8
dimensions
  6
ByBlock
 62
    0
370
   -2
100
AcDbLine
 10
10.49999999999904
 20
31.31578947368421
 11
10.49999999999904
 21
52
  0
ENDBLK
  5
5C
330
5A
100
AcDbEntity
  8
0
100
AcDbBlockEnd
  0
BLOCK
  5
5E
330
5D
100
AcDbEntity
  8
0
100
AcDbBlockBegin
  2
*D10
 70
    1
 10
0
 20
0
  3
*D10
  1

  0
LINE
  5
CC
100
AcDbEntity
  8
dimensions
  6
ByBlock
 62
    0
370
   -2
100
AcDbLine
 10
75
 20
9
 11
75
 21
28.00000000000002
  0
LINE
  5
CD
100
AcDbEntity
  8
dimensions
  6
ByBlock
 62
    0
370
   -2
100
AcDbLine
 10
74.29289321881345
 20
9.707106781186548
 11
75.70710678118655
 21
8.292893218813452
  0
LINE
  5
CE
100
AcDbEntity
  8
dimensions
  6
ByBlock
 62
    0
370
   -2
100
AcDbLine
 10
74.29289321881345
 20
28.70710678118657
 11
75.70710678118655
 21
27.29289321881348
  0
MTEXT
  5
CF
100
AcDbEntity
  8
dimensions
  6
CONTINUOUS
 62
    0
370
   -2
100
AcDbMText
 10
72.5
 20
18.50000000000001
 30
0
 40
3
 41
5.333333333333332
 71
    5
 72
    1
  1
190
  7
standard
210
0
220
0
230
1
 50
90
 73
    2
 44
1
  0
LINE
  5
D0
100
AcDbEntity
  8
dimensions
  6
ByBlock
 62
    0
370
   -2
100
AcDbLine
 10
56
 20
9
 11
77
 21
9
  0
LINE
  5
D1
100
AcDbEntity
  8
dimensions
  6
ByBlock
 62
    0
370
   -2
100
AcDbLine
 10
55.99999999999903
 20
28.00000000000002
 11
77
 21
28.00000000000002
  0
ENDBLK
  5
5F
330
5D
100
AcDbEntity
  8
0
100
AcDbBlockEnd
  0
BLOCK
  5
61
330
60
100
AcDbEntity
  8
0
100
AcDbBlockBegin
  2
*D3
 70
    1
 10
0
 20
0
  3
*D3
  1

  0
LINE
  5
D2
100
AcDbEntity
  8
dimensions
  6
ByBlock
 62
    0
370
   -2
100
AcDbLine
 10
22.99999999999904
 20
40
 11
0.4999999999990408
 21
40
  0
LINE
  5
D3
100
AcDbEntity
  8
dimensions
  6
ByBlock
 62
    0
370
   -2
100
AcDbLine
 10
13.70710678118559
 20
40.70710678118655
 11
12.29289321881249
 21
39.29289321881345
  0
LINE
  5
D4
100
AcDbEntity
  8
dimensions
  6
ByBlock
 62
    0
370
   -2
100
AcDbLine
 10
11.20710678118559
 20
40.70710678118655
 11
9.792893218812493
 21
39.29289321881345
  0
MTEXT
  5
D5
100
AcDbEntity
  8
dimensions
  6
CONTINUOUS
 62
    0
370
   -2
100
AcDbMText
 10
15.83333333333247
 20
42.5
 30
0
 40
3
 41
3.666666666666853
 71
    5
 72
    1
  1
25
  7
standard
210
0
220
0
230
1
 50
360
 73
    2
 44
1
  0
LINE
  5
D6
100
AcDbEntity
  8
dimensions
  6
ByBlock
 62
    0
370
   -2
100
AcDbLine
 10
12.99999999999904
 20
29.00000000000004
 11
12.99999999999904
 21
42
  0
LINE
  5
D7
100
AcDbEntity
  8
dimensions
  6
ByBlock
 62
    0
370
   -2
100
AcDbLine
 10
10.49999999999904
 20
31.50000000000004
 11
10.49999999999904
 21
42
  0
ENDBLK
  5
62
330
60
100
AcDbEntity
  8
0
100
AcDbBlockEnd
  0
BLOCK
  5
64
330
63
100
AcDbEntity
  8
0
100
AcDbBlockBegin
  2
*D31
 70
    1
 10
0
 20
0
  3
*D31
  1

  0
LINE
  5
D8
100
AcDbEntity
  8
dimensions
  6
ByBlock
 62
    0
370
   -2
100
AcDbLine
 10
-10
 20
-86.5
 11
-9.999999999999998
 21
-64.5
  0
LINE
  5
D9
100
AcDbEntity
  8
dimensions
  6
ByBlock
 62
    0
370
   -2
100
AcDbLine
 10
-9.292893218813452
 20
-77.20710678118655
 11
-10.70710678118655
 21
-75.79289321881345
  0
LINE
  5
DA
100
AcDbEntity
  8
dimensions
  6
ByBlock
 62
    0
370
   -2
100
AcDbLine
 10
-9.292893218813452
 20
-75.20710678118655
 11
-10.70710678118655
 21
-73.79289321881345
  0
MTEXT
  5
DB
100
AcDbEntity
  8
dimensions
  6
CONTINUOUS
 62
    0
370
   -2
100
AcDbMText
 10
-12.5
 20
-71.66666666666667
 30
0
 40
3
 41
3.666666666666666
 71
    5
 72
    1
  1
20
  7
standard
210
0
220
0
230
1
 50
90
 73
    2
 44
1
  0
LINE
  5
DC
100
AcDbEntity
  8
dimensions
  6
ByBlock
 62
    0
370
   -2
100
AcDbLine
 10
9.5
 20
-76.5
 11
-12
 21
-76.5
  0
LINE
  5
DD
100
AcDbEntity
  8
dimensions
  6
ByBlock
 62
    0
370
   -2
100
AcDbLine
 10
9.5
 20
-74.5
 11
-12
 21
-74.5
  0
ENDBLK
  5
65
330
63
100
AcDbEntity
  8
0
100
AcDbBlockEnd
  0
BLOCK
  5
67
330
66
100
AcDbEntity
  8
0
100
AcDbBlockBegin
  2
*D24
 70
    1
 10
0
 20
0
  3
*D24
  1

  0
LINE
  5
DE
100
AcDbEntity
  8
dimensions
  6
CONTINUOUS
 62
    7
370
    0
100
AcDbLine
 10
117
 20
-44
 11
112
 21
-37
  0
LINE
  5
DF
100
AcDbEntity
  8
dimensions
  6
CONTINUOUS
 62
    7
370
    0
100
AcDbLine
 10
112
 20
-37
 11
100
 21
-37
  0
SOLID
  5
E0
100
AcDbEntity
  8
dimensions
  6
CONTINUOUS
 62
    7
370
    0
100
AcDbTrace
 10
117
 20
-44
 30
0
 11
113.4163195122453
 21
-40.41525372908004
 31
0
 12
114.7712985505637
 22
-39.44741155885261
 32
0
 13
114.7712985505637
 23
-39.44741155885261
 33
0
  0
ENDBLK
  5
68
330
66
100
AcDbEntity
  8
0
100
AcDbBlockEnd
  0
BLOCK
  5
6A
330
69
100
AcDbEntity
  8
0
100
AcDbBlockBegin
  2
*D7
 70
    1
 10
0
 20
0
  3
*D7
  1

  0
LINE
  5
E1
100
AcDbEntity
  8
dimensions
  6
ByBlock
 62
    0
370
   -2
100
AcDbLine
 10
10.49999999999904
 20
50
 11
57.49999999999903
 21
50
  0
LINE
  5
E2
100
AcDbEntity
  8
dimensions
  6
ByBlock
 62
    0
370
   -2
100
AcDbLine
 10
11.20710678118559
 20
50.70710678118655
 11
9.792893218812493
 21
49.29289321881345
  0
LINE
  5
E3
100
AcDbEntity
  8
dimensions
  6
ByBlock
 62
    0
370
   -2
100
AcDbLine
 10
58.20710678118557
 20
50.70710678118655
 11
56.79289321881248
 21
49.29289321881345
  0
MTEXT
  5
E4
100
AcDbEntity
  8
dimensions
  6
CONTINUOUS
 62
    0
370
   -2
100
AcDbMText
 10
33.99999999999903
 20
52.5
 30
0
 40
3
 41
6.333333333333332
 71
    5
 72
    1
  1
470
  7
standard
210
0
220
0
230
1
 50
0
 73
    2
 44
1
  0
LINE
  5
E5
100
AcDbEntity
  8
dimensions
  6
ByBlock
 62
    0
370
   -2
100
AcDbLine
 10
10.49999999999904
 20
31.31578947368421
 11
10.49999999999904
 21
52
  0
LINE
  5
E6
100
AcDbEntity
  8
dimensions
  6
ByBlock
 62
    0
370
   -2
100
AcDbLine
 10
57.49999999999903
 20
31.50000000000001
 11
57.49999999999903
 21
52
  0
ENDBLK
  5
6B
330
69
100
AcDbEntity
  8
0
100
AcDbBlockEnd
  0
BLOCK
  5
6D
330
6C
100
AcDbEntity
  8
0
100
AcDbBlockBegin
  2
*D8
 70
    1
 10
0
 20
0
  3
*D8
  1

  0
LINE
  5
E7
100
AcDbEntity
  8
dimensions
  6
ByBlock
 62
    0
370
   -2
100
AcDbLine
 10
47.49999999999903
 20
50
 11
72.99999999999923
 21
50
  0
LINE
  5
E8
100
AcDbEntity
  8
dimensions
  6
ByBlock
 62
    0
370
   -2
100
AcDbLine
 10
56.79289321881248
 20
49.29289321881345
 11
58.20710678118557
 21
50.70710678118655
  0
LINE
  5
E9
100
AcDbEntity
  8
dimensions
  6
ByBlock
 62
    0
370
   -2
100
AcDbLine
 10
62.29289321881269
 20
49.29289321881345
 11
63.70710678118578
 21
50.70710678118655
  0
MTEXT
  5
EA
100
AcDbEntity
  8
dimensions
  6
CONTINUOUS
 62
    0
370
   -2
100
AcDbMText
 10
60.24999999999913
 20
52.5
 30
0
 40
3
 41
3.666666666667038
 71
    5
 72
    1
  1
55
  7
standard
210
0
220
0
230
1
 50
0
 73
    2
 44
1
  0
LINE
  5
EB
100
AcDbEntity
  8
dimensions
  6
ByBlock
 62
    0
370
   -2
100
AcDbLine
 10
57.49999999999903
 20
31.50000000000001
 11
57.49999999999903
 21
52
  0
LINE
  5
EC
100
AcDbEntity
  8
dimensions
  6
ByBlock
 62
    0
370
   -2
100
AcDbLine
 10
62.99999999999923
 20
34.00000000000002
 11
62.99999999999923
 21
52
  0
ENDBLK
  5
6E
330
6C
100
AcDbEntity
  8
0
100
AcDbBlockEnd
  0
BLOCK
  5
70
330
6F
100
AcDbEntity
  8
0
100
AcDbBlockBegin
  2
*D15
 70
    1
 10
0
 20
0
  3
*D15
  1

  0
LINE
  5
ED
100
AcDbEntity
  8
dimensions
  6
ByBlock
 62
    0
370
   -2
100
AcDbLine
 10
-10
 20
-37
 11
-10
 21
-58
  0
LINE
  5
EE
100
AcDbEntity
  8
dimensions
  6
ByBlock
 62
    0
370
   -2
100
AcDbLine
 10
-10.70710678118655
 20
-46.29289321881345
 11
-9.292893218813452
 21
-47.70710678118655
  0
LINE
  5
EF
100
AcDbEntity
  8
dimensions
  6
ByBlock
 62
    0
370
   -2
100
AcDbLine
 10
-10.70710678118655
 20
-47.29289321881345
 11
-9.292893218813452
 21
-48.70710678118655
  0
MTEXT
  5
F0
100
AcDbEntity
  8
dimensions
  6
CONTINUOUS
 62
    0
370
   -2
100
AcDbMText
 10
-12.5
 20
-44.5
 30
0
 40
3
 41
3
 71
    5
 72
    1
  1
10
  7
standard
210
0
220
0
230
1
 50
90
 73
    2
 44
1
  0
LINE
  5
F1
100
AcDbEntity
  8
dimensions
  6
ByBlock
 62
    0
370
   -2
100
AcDbLine
 10
4
 20
-47
 11
-12
 21
-47
  0
LINE
  5
F2
100
AcDbEntity
  8
dimensions
  6
ByBlock
 62
    0
370
   -2
100
AcDbLine
 10
4
 20
-48
 11
-12
 21
-48
  0
ENDBLK
  5
71
330
6F
100
AcDbEntity
  8
0
100
AcDbBlockEnd
  0
BLOCK
  5
73
330
72
100
AcDbEntity
  8
0
100
AcDbBlockBegin
  2
*D34
 70
    1
 10
0
 20
0
  3
*D34
  1

  0
LINE
  5
F3
100
AcDbEntity
  8
dimensions
  6
ByBlock
 62
    0
370
   -2
100
AcDbLine
 10
109
 20
-70.5
 11
136
 21
-70.5
  0
LINE
  5
F4
100
AcDbEntity
  8
dimensions
  6
ByBlock
 62
    0
370
   -2
100
AcDbLine
 10
118.2928932188134
 20
-71.20710678118655
 11
119.7071067811866
 21
-69.79289321881345
  0
LINE
  5
F5
100
AcDbEntity
  8
dimensions
  6
ByBlock
 62
    0
370
   -2
100
AcDbLine
 10
125.2928932188134
 20
-71.20710678118655
 11
126.7071067811866
 21
-69.79289321881345
  0
MTEXT
  5
F6
100
AcDbEntity
  8
dimensions
  6
CONTINUOUS
 62
    0
370
   -2
100
AcDbMText
 10
122.5
 20
-68
 30
0
 40
3
 41
3.666666666666666
 71
    5
 72
    1
  1
70
  7
standard
210
0
220
0
230
1
 50
0
 73
    2
 44
1
  0
LINE
  5
F7
100
AcDbEntity
  8
dimensions
  6
ByBlock
 62
    0
370
   -2
100
AcDbLine
 10
119
 20
-73.5
 11
119
 21
-68.5
  0
LINE
  5
F8
100
AcDbEntity
  8
dimensions
  6
ByBlock
 62
    0
370
   -2
100
AcDbLine
 10
126
 20
-73.5
 11
126
 21
-68.5
  0
ENDBLK
  5
74
330
72
100
AcDbEntity
  8
0
100
AcDbBlockEnd
  0
BLOCK
  5
76
330
75
100
AcDbEntity
  8
0
100
AcDbBlockBegin
  2
*D28
 70
    1
 10
0
 20
0
  3
*D28
  1

  0
LINE
  5
F9
100
AcDbEntity
  8
dimensions
  6
ByBlock
 62
    0
370
   -2
100
AcDbLine
 10
-10
 20
-64.5
 11
-9.999999999999996
 21
-38
  0
LINE
  5
FA
100
AcDbEntity
  8
dimensions
  6
ByBlock
 62
    0
370
   -2
100
AcDbLine
 10
-9.29289321881345
 20
-55.20710678118654
 11
-10.70710678118655
 21
-53.79289321881345
  0
LINE
  5
FB
100
AcDbEntity
  8
dimensions
  6
ByBlock
 62
    0
370
   -2
100
AcDbLine
 10
-9.29289321881345
 20
-48.70710678118655
 11
-10.70710678118655
 21
-47.29289321881345
  0
MTEXT
  5
FC
100
AcDbEntity
  8
dimensions
  6
CONTINUOUS
 62
    0
370
   -2
100
AcDbMText
 10
-12.5
 20
-51.25
 30
0
 40
3
 41
3.666666666667038
 71
    5
 72
    1
  1
65
  7
standard
210
0
220
0
230
1
 50
90
 73
    2
 44
1
  0
LINE
  5
FD
100
AcDbEntity
  8
dimensions
  6
ByBlock
 62
    0
370
   -2
100
AcDbLine
 10
10.7
 20
-54.49999999999999
 11
-12
 21
-54.49999999999999
  0
LINE
  5
FE
100
AcDbEntity
  8
dimensions
  6
ByBlock
 62
    0
370
   -2
100
AcDbLine
 10
10.7
 20
-48
 11
-12
 21
-48
  0
ENDBLK
  5
77
330
75
100
AcDbEntity
  8
0
100
AcDbBlockEnd
  0
BLOCK
  5
79
330
78
100
AcDbEntity
  8
0
100
AcDbBlockBegin
  2
*D13
 70
    1
 10
0
 20
0
  3
*D13
  1

  0
LINE
  5
FF
100
AcDbEntity
  8
dimensions
  6
ByBlock
 62
    0
370
   -2
100
AcDbLine
 10
84
 20
20.50000000000001
 11
84
 21
43
  0
LINE
  5
100
100
AcDbEntity
  8
dimensions
  6
ByBlock
 62
    0
370
   -2
100
AcDbLine
 10
84.70710678118655
 20
29.79289321881346
 11
83.29289321881345
 21
31.20710678118656
  0
LINE
  5
101
100
AcDbEntity
  8
dimensions
  6
ByBlock
 62
    0
370
   -2
100
AcDbLine
 10
84.70710678118655
 20
32.29289321881345
 11
83.29289321881345
 21
33.70710678118655
  0
MTEXT
  5
102
100
AcDbEntity
  8
dimensions
  6
CONTINUOUS
 62
    0
370
   -2
100
AcDbMText
 10
81.5
 20
35.83333333333343
 30
0
 40
3
 41
3.666666666666853
 71
    5
 72
    1
  1
25
  7
standard
210
0
220
0
230
1
 50
90
 73
    2
 44
1
  0
LINE
  5
103
100
AcDbEntity
  8
dimensions
  6
ByBlock
 62
    0
370
   -2
100
AcDbLine
 10
58.49999999999903
 20
30.50000000000001
 11
86
 21
30.50000000000001
  0
LINE
  5
104
100
AcDbEntity
  8
dimensions
  6
ByBlock
 62
    0
370
   -2
100
AcDbLine
 10
64
 20
33
 11
86
 21
33
  0
ENDBLK
  5
7A
330
78
100
AcDbEntity
  8
0
100
AcDbBlockEnd
  0
BLOCK
  5
7C
330
7B
100
AcDbEntity
  8
0
100
AcDbBlockBegin
  2
*D35
 70
    1
 10
0
 20
0
  3
*D35
  1

  0
LINE
  5
105
100
AcDbEntity
  8
dimensions
  6
ByBlock
 62
    0
370
   -2
100
AcDbLine
 10
131
 20
-74.5
 11
131
 21
-56.5
  0
LINE
  5
106
100
AcDbEntity
  8
dimensions
  6
ByBlock
 62
    0
370
   -2
100
AcDbLine
 10
130.2928932188134
 20
-73.79289321881345
 11
131.7071067811866
 21
-75.20710678118655
  0
LINE
  5
107
100
AcDbEntity
  8
dimensions
  6
ByBlock
 62
    0
370
   -2
100
AcDbLine
 10
130.2928932188134
 20
-55.79289321881345
 11
131.7071067811866
 21
-57.20710678118655
  0
MTEXT
  5
108
100
AcDbEntity
  8
dimensions
  6
CONTINUOUS
 62
    0
370
   -2
100
AcDbMText
 10
128.5
 20
-65.5
 30
0
 40
3
 41
5.333333333333332
 71
    5
 72
    1
  1
180
  7
standard
210
0
220
0
230
1
 50
90
 73
    2
 44
1
  0
LINE
  5
109
100
AcDbEntity
  8
dimensions
  6
ByBlock
 62
    0
370
   -2
100
AcDbLine
 10
127
 20
-74.5
 11
133
 21
-74.5
  0
LINE
  5
10A
100
AcDbEntity
  8
dimensions
  6
ByBlock
 62
    0
370
   -2
100
AcDbLine
 10
127
 20
-56.5
 11
133
 21
-56.5
  0
ENDBLK
  5
7D
330
7B
100
AcDbEntity
  8
0
100
AcDbBlockEnd
  0
BLOCK
  5
7F
330
7E
100
AcDbEntity
  8
0
100
AcDbBlockBegin
  2
*D9
 70
    1
 10
0
 20
0
  3
*D9
  1

  0
LINE
  5
10B
100
AcDbEntity
  8
dimensions
  6
ByBlock
 62
    0
370
   -2
100
AcDbLine
 10
75
 20
-3.499999999999988
 11
75
 21
19.00000000000002
  0
LINE
  5
10C
100
AcDbEntity
  8
dimensions
  6
ByBlock
 62
    0
370
   -2
100
AcDbLine
 10
75.70710678118655
 20
5.792893218813465
 11
74.29289321881345
 21
7.20710678118656
  0
LINE
  5
10D
100
AcDbEntity
  8
dimensions
  6
ByBlock
 62
    0
370
   -2
100
AcDbLine
 10
75.70710678118655
 20
8.292893218813477
 11
74.29289321881345
 21
9.707106781186573
  0
MTEXT
  5
10E
100
AcDbEntity
  8
dimensions
  6
CONTINUOUS
 62
    0
370
   -2
100
AcDbMText
 10
72.5
 20
11.83333333333345
 30
0
 40
3
 41
3.666666666666853
 71
    5
 72
    1
  1
25
  7
standard
210
0
220
0
230
1
 50
90
 73
    2
 44
1
  0
LINE
  5
10F
100
AcDbEntity
  8
dimensions
  6
ByBlock
 62
    0
370
   -2
100
AcDbLine
 10
58.49999999999903
 20
6.500000000000012
 11
77
 21
6.500000000000012
  0
LINE
  5
110
100
AcDbEntity
  8
dimensions
  6
ByBlock
 62
    0
370
   -2
100
AcDbLine
 10
55.99999999999903
 20
9.000000000000025
 11
77
 21
9.000000000000025
  0
ENDBLK
  5
80
330
7E
100
AcDbEntity
  8
0
100
AcDbBlockEnd
  0
BLOCK
  5
82
330
81
100
AcDbEntity
  8
0
100
AcDbBlockBegin
  2
*D32
 70
    1
 10
0
 20
0
  3
*D32
  1

  0
LINE
  5
111
100
AcDbEntity
  8
dimensions
  6
ByBlock
 62
    0
370
   -2
100
AcDbLine
 10
-10
 20
-74.5
 11
-10
 21
-54.5
  0
LINE
  5
112
100
AcDbEntity
  8
dimensions
  6
ByBlock
 62
    0
370
   -2
100
AcDbLine
 10
-10.70710678118655
 20
-73.79289321881345
 11
-9.292893218813454
 21
-75.20710678118655
  0
LINE
  5
113
100
AcDbEntity
  8
dimensions
  6
ByBlock
 62
    0
370
   -2
100
AcDbLine
 10
-10.70710678118655
 20
-53.79289321881345
 11
-9.292893218813452
 21
-55.20710678118655
  0
MTEXT
  5
114
100
AcDbEntity
  8
dimensions
  6
CONTINUOUS
 62
    0
370
   -2
100
AcDbMText
 10
-12.5
 20
-64.5
 30
0
 40
3
 41
6
 71
    5
 72
    1
  1
200
  7
standard
210
0
220
0
230
1
 50
90
 73
    2
 44
1
  0
LINE
  5
115
100
AcDbEntity
  8
dimensions
  6
ByBlock
 62
    0
370
   -2
100
AcDbLine
 10
9.5
 20
-74.5
 11
-12
 21
-74.5
  0
LINE
  5
116
100
AcDbEntity
  8
dimensions
  6
ByBlock
 62
    0
370
   -2
100
AcDbLine
 10
10.7
 20
-54.5
 11
-12
 21
-54.5
  0
ENDBLK
  5
83
330
81
100
AcDbEntity
  8
0
100
AcDbBlockEnd
  0
BLOCK
  5
85
330
84
100
AcDbEntity
  8
0
100
AcDbBlockBegin
  2
*D22
 70
    1
 10
0
 20
0
  3
*D22
  1

  0
LINE
  5
117
100
AcDbEntity
  8
dimensions
  6
ByBlock
 62
    0
370
   -2
100
AcDbLine
 10
118.7
 20
-35
 11
133.3
 21
-35
  0
LINE
  5
118
100
AcDbEntity
  8
dimensions
  6
ByBlock
 62
    0
370
   -2
100
AcDbLine
 10
119.4071067811866
 20
-34.29289321881345
 11
117.9928932188134
 21
-35.70710678118655
  0
LINE
  5
119
100
AcDbEntity
  8
dimensions
  6
ByBlock
 62
    0
370
   -2
100
AcDbLine
 10
134.0071067811866
 20
-34.29289321881345
 11
132.5928932188135
 21
-35.70710678118655
  0
MTEXT
  5
11A
100
AcDbEntity
  8
dimensions
  6
CONTINUOUS
 62
    0
370
   -2
100
AcDbMText
 10
126
 20
-32.5
 30
0
 40
3
 41
5.666666666666853
 71
    5
 72
    1
  1
146
  7
standard
210
0
220
0
230
1
 50
0
 73
    2
 44
1
  0
LINE
  5
11B
100
AcDbEntity
  8
dimensions
  6
ByBlock
 62
    0
370
   -2
100
AcDbLine
 10
118.7
 20
-47.00000000000003
 11
118.7
 21
-33
  0
LINE
  5
11C
100
AcDbEntity
  8
dimensions
  6
ByBlock
 62
    0
370
   -2
100
AcDbLine
 10
133.3
 20
-47.00000000000003
 11
133.3
 21
-33
  0
ENDBLK
  5
86
330
84
100
AcDbEntity
  8
0
100
AcDbBlockEnd
  0
BLOCK
  5
88
330
87
100
AcDbEntity
  8
0
100
AcDbBlockBegin
  2
*D29
 70
    1
 10
0
 20
0
  3
*D29
  1

  0
LINE
  5
11D
100
AcDbEntity
  8
dimensions
  6
ByBlock
 62
    0
370
   -2
100
AcDbLine
 10
3
 20
-60
 11
31
 21
-60
  0
LINE
  5
11E
100
AcDbEntity
  8
dimensions
  6
ByBlock
 62
    0
370
   -2
100
AcDbLine
 10
12.29289321881345
 20
-60.70710678118655
 11
13.70710678118655
 21
-59.29289321881345
  0
LINE
  5
11F
100
AcDbEntity
  8
dimensions
  6
ByBlock
 62
    0
370
   -2
100
AcDbLine
 10
20.29289321881345
 20
-60.70710678118655
 11
21.70710678118655
 21
-59.29289321881345
  0
MTEXT
  5
120
100
AcDbEntity
  8
dimensions
  6
CONTINUOUS
 62
    0
370
   -2
100
AcDbMText
 10
17
 20
-57.5
 30
0
 40
3
 41
3.666666666666666
 71
    5
 72
    1
  1
80
  7
standard
210
0
220
0
230
1
 50
0
 73
    2
 44
1
  0
LINE
  5
121
100
AcDbEntity
  8
dimensions
  6
ByBlock
 62
    0
370
   -2
100
AcDbLine
 10
13
 20
-55.50000539999999
 11
13
 21
-62
  0
LINE
  5
122
100
AcDbEntity
  8
dimensions
  6
ByBlock
 62
    0
370
   -2
100
AcDbLine
 10
21
 20
-55
 11
21
 21
-62
  0
ENDBLK
  5
89
330
87
100
AcDbEntity
  8
0
100
AcDbBlockEnd
  0
BLOCK
  5
8B
330
8A
100
AcDbEntity
  8
0
100
AcDbBlockBegin
  2
*D1
 70
    1
 10
0
 20
0
  3
*D1
  1

  0
LINE
  5
123
100
AcDbEntity
  8
dimensions
  6
CONTINUOUS
 62
    7
370
    0
100
AcDbLine
 10
-8
 20
19
 11
-8
 21
10
  0
SOLID
  5
124
100
AcDbEntity
  8
dimensions
  6
CONTINUOUS
 62
    7
370
    0
100
AcDbTrace
 10
-8
 20
19
 30
0
 11
-7.167430684454319
 21
14
 31
0
 12
-8.832569315545681
 22
14
 32
0
 13
-8.832569315545681
 23
14
 33
0
  0
ENDBLK
  5
8C
330
8A
100
AcDbEntity
  8
0
100
AcDbBlockEnd
  0
BLOCK
  5
8E
330
8D
100
AcDbEntity
  8
0
100
AcDbBlockBegin
  2
*D18
 70
    1
 10
0
 20
0
  3
*D18
  1

  0
LINE
  5
125
100
AcDbEntity
  8
dimensions
  6
ByBlock
 62
    0
370
   -2
100
AcDbLine
 10
1.699999999999998
 20
-42
 11
32.3
 21
-42
  0
LINE
  5
126
100
AcDbEntity
  8
dimensions
  6
ByBlock
 62
    0
370
   -2
100
AcDbLine
 10
10.99289321881345
 20
-42.70710678118655
 11
12.40710678118655
 21
-41.29289321881345
  0
LINE
  5
127
100
AcDbEntity
  8
dimensions
  6
ByBlock
 62
    0
370
   -2
100
AcDbLine
 10
21.59289321881345
 20
-42.70710678118655
 11
23.00710678118655
 21
-41.29289321881345
  0
MTEXT
  5
128
100
AcDbEntity
  8
dimensions
  6
CONTINUOUS
 62
    0
370
   -2
100
AcDbMText
 10
17
 20
-39.5
 30
0
 40
3
 41
5.333333333333519
 71
    5
 72
    1
  1
106
  7
standard
210
0
220
0
230
1
 50
0
 73
    2
 44
1
  0
LINE
  5
129
100
AcDbEntity
  8
dimensions
  6
ByBlock
 62
    0
370
   -2
100
AcDbLine
 10
11.7
 20
-47
 11
11.7
 21
-40
  0
LINE
  5
12A
100
AcDbEntity
  8
dimensions
  6
ByBlock
 62
    0
370
   -2
100
AcDbLine
 10
22.3
 20
-47
 11
22.3
 21
-40
  0
ENDBLK
  5
8F
330
8D
100
AcDbEntity
  8
0
100
AcDbBlockEnd
  0
BLOCK
  5
91
330
90
100
AcDbEntity
  8
0
100
AcDbBlockBegin
  2
*D14
 70
    1
 10
0
 20
0
  3
*D14
  1

  0
LINE
  5
12B
100
AcDbEntity
  8
dimensions
  6
ByBlock
 62
    0
370
   -2
100
AcDbLine
 10
75
 20
18
 11
75
 21
40.50000000000001
  0
LINE
  5
12C
100
AcDbEntity
  8
dimensions
  6
ByBlock
 62
    0
370
   -2
100
AcDbLine
 10
75.70710678118655
 20
27.29289321881345
 11
74.29289321881345
 21
28.70710678118655
  0
LINE
  5
12D
100
AcDbEntity
  8
dimensions
  6
ByBlock
 62
    0
370
   -2
100
AcDbLine
 10
75.70710678118655
 20
29.79289321881346
 11
74.29289321881345
 21
31.20710678118656
  0
MTEXT
  5
12E
100
AcDbEntity
  8
dimensions
  6
CONTINUOUS
 62
    0
370
   -2
100
AcDbMText
 10
72
 20
36.08333333333343
 30
0
 40
3
 41
3.666666666666853
 71
    5
 72
    1
  1
25
  7
standard
210
0
220
0
230
1
 50
90
 73
    2
 44
1
  0
LINE
  5
12F
100
AcDbEntity
  8
dimensions
  6
ByBlock
 62
    0
370
   -2
100
AcDbLine
 10
56
 20
28
 11
77
 21
28
  0
LINE
  5
130
100
AcDbEntity
  8
dimensions
  6
ByBlock
 62
    0
370
   -2
100
AcDbLine
 10
58.49999999999903
 20
30.50000000000001
 11
77
 21
30.50000000000001
  0
ENDBLK
  5
92
330
90
100
AcDbEntity
  8
0
100
AcDbBlockEnd
  0
BLOCK
  5
94
330
93
100
AcDbEntity
  8
0
100
AcDbBlockBegin
  2
*D20
 70
    1
 10
0
 20
0
  3
*D20
  1

  0
LINE
  5
131
100
AcDbEntity
  8
dimensions
  6
ByBlock
 62
    0
370
   -2
100
AcDbLine
 10
34.59999999999903
 20
40
 11
55
 21
40
  0
LINE
  5
132
100
AcDbEntity
  8
dimensions
  6
ByBlock
 62
    0
370
   -2
100
AcDbLine
 10
35.30710678118557
 20
40.70710678118655
 11
33.89289321881248
 21
39.29289321881345
  0
LINE
  5
133
100
AcDbEntity
  8
dimensions
  6
ByBlock
 62
    0
370
   -2
100
AcDbLine
 10
55.70710678118655
 20
40.70710678118655
 11
54.29289321881345
 21
39.29289321881345
  0
MTEXT
  5
134
100
AcDbEntity
  8
dimensions
  6
CONTINUOUS
 62
    0
370
   -2
100
AcDbMText
 10
47
 20
42.5
 30
0
 40
3
 41
6.333333333333333
 71
    5
 72
    1
  1
204
  7
standard
210
0
220
0
230
1
 50
0
 73
    2
 44
1
  0
LINE
  5
135
100
AcDbEntity
  8
dimensions
  6
ByBlock
 62
    0
370
   -2
100
AcDbLine
 10
34.59999999999903
 20
29.00000000000002
 11
34.59999999999903
 21
42
  0
LINE
  5
136
100
AcDbEntity
  8
dimensions
  6
ByBlock
 62
    0
370
   -2
100
AcDbLine
 10
55
 20
29
 11
55
 21
42
  0
ENDBLK
  5
95
330
93
100
AcDbEntity
  8
0
100
AcDbBlockEnd
  0
BLOCK
  5
97
330
96
100
AcDbEntity
  8
0
100
AcDbBlockBegin
  2
*D5
 70
    1
 10
0
 20
0
  3
*D5
  1

  0
LINE
  5
137
100
AcDbEntity
  8
dimensions
  6
ByBlock
 62
    0
370
   -2
100
AcDbLine
 10
23.29999999999905
 20
40
 11
44.59999999999903
 21
40
  0
LINE
  5
138
100
AcDbEntity
  8
dimensions
  6
ByBlock
 62
    0
370
   -2
100
AcDbLine
 10
32.59289321881251
 20
39.29289321881345
 11
34.0071067811856
 21
40.70710678118655
  0
LINE
  5
139
100
AcDbEntity
  8
dimensions
  6
ByBlock
 62
    0
370
   -2
100
AcDbLine
 10
33.89289321881248
 20
39.29289321881345
 11
35.30710678118557
 21
40.70710678118655
  0
MTEXT
  5
13A
100
AcDbEntity
  8
dimensions
  6
CONTINUOUS
 62
    0
370
   -2
100
AcDbMText
 10
37.09999999999912
 20
42.5
 30
0
 40
3
 41
3.000000000000186
 71
    5
 72
    1
  1
13
  7
standard
210
0
220
0
230
1
 50
0
 73
    2
 44
1
  0
LINE
  5
13B
100
AcDbEntity
  8
dimensions
  6
ByBlock
 62
    0
370
   -2
100
AcDbLine
 10
33.29999999999905
 20
29.00000000000002
 11
33.29999999999905
 21
42
  0
LINE
  5
13C
100
AcDbEntity
  8
dimensions
  6
ByBlock
 62
    0
370
   -2
100
AcDbLine
 10
34.59999999999903
 20
29.00000000000002
 11
34.59999999999903
 21
42
  0
ENDBLK
  5
98
330
96
100
AcDbEntity
  8
0
100
AcDbBlockEnd
  0
BLOCK
  5
9A
330
99
100
AcDbEntity
  8
0
100
AcDbBlockBegin
  2
*D30
 70
    1
 10
0
 20
0
  3
*D30
  1

  0
LINE
  5
13D
100
AcDbEntity
  8
dimensions
  6
ByBlock
 62
    0
370
   -2
100
AcDbLine
 10
-18
 20
-47
 11
-18
 21
-76.5
  0
LINE
  5
13E
100
AcDbEntity
  8
dimensions
  6
ByBlock
 62
    0
370
   -2
100
AcDbLine
 10
-17.29289321881345
 20
-47.70710678118655
 11
-18.70710678118654
 21
-46.29289321881345
  0
LINE
  5
13F
100
AcDbEntity
  8
dimensions
  6
ByBlock
 62
    0
370
   -2
100
AcDbLine
 10
-17.29289321881345
 20
-77.20710678118655
 11
-18.70710678118655
 21
-75.79289321881345
  0
MTEXT
  5
140
100
AcDbEntity
  8
dimensions
  6
CONTINUOUS
 62
    0
370
   -2
100
AcDbMText
 10
-20.5
 20
-61.75
 30
0
 40
3
 41
6.000000000000187
 71
    5
 72
    1
  1
295
  7
standard
210
0
220
0
230
1
 50
90
 73
    2
 44
1
  0
LINE
  5
141
100
AcDbEntity
  8
dimensions
  6
ByBlock
 62
    0
370
   -2
100
AcDbLine
 10
-1
 20
-47
 11
-20
 21
-47
  0
LINE
  5
142
100
AcDbEntity
  8
dimensions
  6
ByBlock
 62
    0
370
   -2
100
AcDbLine
 10
9.5
 20
-76.5
 11
-20
 21
-76.5
  0
ENDBLK
  5
9B
330
99
100
AcDbEntity
  8
0
100
AcDbBlockEnd
  0
BLOCK
  5
9D
330
9C
100
AcDbEntity
  8
0
100
AcDbBlockBegin
  2
*D16
 70
    1
 10
0
 20
0
  3
*D16
  1

  0
LINE
  5
143
100
AcDbEntity
  8
dimensions
  6
ByBlock
 62
    0
370
   -2
100
AcDbLine
 10
80
 20
-63.00000000000001
 11
80
 21
-38
  0
LINE
  5
144
100
AcDbEntity
  8
dimensions
  6
ByBlock
 62
    0
370
   -2
100
AcDbLine
 10
80.70710678118655
 20
-53.70710678118655
 11
79.29289321881345
 21
-52.29289321881346
  0
LINE
  5
145
100
AcDbEntity
  8
dimensions
  6
ByBlock
 62
    0
370
   -2
100
AcDbLine
 10
80.70710678118655
 20
-48.70710678118655
 11
79.29289321881345
 21
-47.29289321881345
  0
MTEXT
  5
146
100
AcDbEntity
  8
dimensions
  6
CONTINUOUS
 62
    0
370
   -2
100
AcDbMText
 10
77.5
 20
-50.5
 30
0
 40
3
 41
3.666666666666852
 71
    5
 72
    1
  1
50
  7
standard
210
0
220
0
230
1
 50
90
 73
    2
 44
1
  0
LINE
  5
147
100
AcDbEntity
  8
dimensions
  6
ByBlock
 62
    0
370
   -2
100
AcDbLine
 10
58.5
 20
-53.00000000000001
 11
82
 21
-53.00000000000001
  0
LINE
  5
148
100
AcDbEntity
  8
dimensions
  6
ByBlock
 62
    0
370
   -2
100
AcDbLine
 10
64
 20
-48
 11
82
 21
-48
  0
ENDBLK
  5
9E
330
9C
100
AcDbEntity
  8
0
100
AcDbBlockEnd
  0
BLOCK
  5
A0
330
9F
100
AcDbEntity
  8
0
100
AcDbBlockBegin
  2
*D19
 70
    1
 10
0
 20
0
  3
*D19
  1

  0
LINE
  5
149
100
AcDbEntity
  8
dimensions
  6
ByBlock
 62
    0
370
   -2
100
AcDbLine
 10
13
 20
40
 11
33.29999999999905
 21
40
  0
LINE
  5
14A
100
AcDbEntity
  8
dimensions
  6
ByBlock
 62
    0
370
   -2
100
AcDbLine
 10
13.70710678118655
 20
40.70710678118655
 11
12.29289321881345
 21
39.29289321881345
  0
LINE
  5
14B
100
AcDbEntity
  8
dimensions
  6
ByBlock
 62
    0
370
   -2
100
AcDbLine
 10
34.0071067811856
 20
40.70710678118655
 11
32.59289321881251
 21
39.29289321881345
  0
MTEXT
  5
14C
100
AcDbEntity
  8
dimensions
  6
CONTINUOUS
 62
    0
370
   -2
100
AcDbMText
 10
25
 20
42.5
 30
0
 40
3
 41
6.000000000000187
 71
    5
 72
    1
  1
203
  7
standard
210
0
220
0
230
1
 50
0
 73
    2
 44
1
  0
LINE
  5
14D
100
AcDbEntity
  8
dimensions
  6
ByBlock
 62
    0
370
   -2
100
AcDbLine
 10
13
 20
29
 11
13
 21
42
  0
LINE
  5
14E
100
AcDbEntity
  8
dimensions
  6
ByBlock
 62
    0
370
   -2
100
AcDbLine
 10
33.29999999999905
 20
29.00000000000002
 11
33.29999999999905
 21
42
  0
ENDBLK
  5
A1
330
9F
100
AcDbEntity
  8
0
100
AcDbBlockEnd
  0
BLOCK
  5
A3
330
A2
100
AcDbEntity
  8
0
100
AcDbBlockBegin
  2
*D21
 70
    1
 10
0
 20
0
  3
*D21
  1

  0
LINE
  5
14F
100
AcDbEntity
  8
dimensions
  6
ByBlock
 62
    0
370
   -2
100
AcDbLine
 10
110
 20
-42
 11
141.999999999999
 21
-42
  0
LINE
  5
150
100
AcDbEntity
  8
dimensions
  6
ByBlock
 62
    0
370
   -2
100
AcDbLine
 10
119.2928932188134
 20
-42.70710678118655
 11
120.7071067811866
 21
-41.29289321881345
  0
LINE
  5
151
100
AcDbEntity
  8
dimensions
  6
ByBlock
 62
    0
370
   -2
100
AcDbLine
 10
131.2928932188125
 20
-42.70710678118655
 11
132.7071067811856
 21
-41.29289321881345
  0
MTEXT
  5
152
100
AcDbEntity
  8
dimensions
  6
CONTINUOUS
 62
    0
370
   -2
100
AcDbMText
 10
125.9999999999995
 20
-39.5
 30
0
 40
3
 41
5.333333333333332
 71
    5
 72
    1
  1
120
  7
standard
210
0
220
0
230
1
 50
0
 73
    2
 44
1
  0
LINE
  5
153
100
AcDbEntity
  8
dimensions
  6
ByBlock
 62
    0
370
   -2
100
AcDbLine
 10
120
 20
-46.20000000000006
 11
120
 21
-40
  0
LINE
  5
154
100
AcDbEntity
  8
dimensions
  6
ByBlock
 62
    0
370
   -2
100
AcDbLine
 10
131.999999999999
 20
-46.15000000000006
 11
131.999999999999
 21
-40
  0
ENDBLK
  5
A4
330
A2
100
AcDbEntity
  8
0
100
AcDbBlockEnd
  0
BLOCK
  5
A6
330
A5
100
AcDbEntity
  8
0
100
AcDbBlockBegin
  2
*D4
 70
    1
 10
0
 20
0
  3
*D4
  1

  0
LINE
  5
155
100
AcDbEntity
  8
dimensions
  6
ByBlock
 62
    0
370
   -2
100
AcDbLine
 10
44.99999999999903
 20
40
 11
67.49999999999903
 21
40
  0
LINE
  5
156
100
AcDbEntity
  8
dimensions
  6
ByBlock
 62
    0
370
   -2
100
AcDbLine
 10
54.29289321881248
 20
39.29289321881345
 11
55.70710678118557
 21
40.70710678118655
  0
LINE
  5
157
100
AcDbEntity
  8
dimensions
  6
ByBlock
 62
    0
370
   -2
100
AcDbLine
 10
56.79289321881248
 20
39.29289321881345
 11
58.20710678118557
 21
40.70710678118655
  0
MTEXT
  5
158
100
AcDbEntity
  8
dimensions
  6
CONTINUOUS
 62
    0
370
   -2
100
AcDbMText
 10
60.33333333333245
 20
42.5
 30
0
 40
3
 41
3.666666666666853
 71
    5
 72
    1
  1
25
  7
standard
210
0
220
0
230
1
 50
0
 73
    2
 44
1
  0
LINE
  5
159
100
AcDbEntity
  8
dimensions
  6
ByBlock
 62
    0
370
   -2
100
AcDbLine
 10
54.99999999999903
 20
29.00000000000002
 11
54.99999999999903
 21
42
  0
LINE
  5
15A
100
AcDbEntity
  8
dimensions
  6
ByBlock
 62
    0
370
   -2
100
AcDbLine
 10
57.49999999999903
 20
31.50000000000001
 11
57.49999999999903
 21
42
  0
ENDBLK
  5
A7
330
A5
100
AcDbEntity
  8
0
100
AcDbBlockEnd
  0
BLOCK
  5
A9
330
A8
100
AcDbEntity
  8
0
100
AcDbBlockBegin
  2
*D2
 70
    1
 10
0
 20
0
  3
*D2
  1

  0
LINE
  5
15B
100
AcDbEntity
  8
dimensions
  6
CONTINUOUS
 62
    7
370
    0
100
AcDbLine
 10
16.99999999999999
 20
-88
 11
7.999999999999986
 21
-88
  0
SOLID
  5
15C
100
AcDbEntity
  8
dimensions
  6
CONTINUOUS
 62
    7
370
    0
100
AcDbTrace
 10
16.99999999999999
 20
-88
 30
0
 11
11.99999999999999
 21
-88.83256931554568
 31
0
 12
11.99999999999999
 22
-87.16743068445432
 32
0
 13
11.99999999999999
 23
-87.16743068445432
 33
0
  0
ENDBLK
  5
AA
330
A8
100
AcDbEntity
  8
0
100
AcDbBlockEnd
  0
BLOCK
  5
AC
330
AB
100
AcDbEntity
  8
0
100
AcDbBlockBegin
  2
*D33
 70
    1
 10
0
 20
0
  3
*D33
  1

  0
LINE
  5
15D
100
AcDbEntity
  8
dimensions
  6
ByBlock
 62
    0
370
   -2
100
AcDbLine
 10
80
 20
-64.5
 11
80
 21
-43.00000000000001
  0
LINE
  5
15E
100
AcDbEntity
  8
dimensions
  6
ByBlock
 62
    0
370
   -2
100
AcDbLine
 10
80.70710678118655
 20
-55.20710678118655
 11
79.29289321881345
 21
-53.79289321881345
  0
LINE
  5
15F
100
AcDbEntity
  8
dimensions
  6
ByBlock
 62
    0
370
   -2
100
AcDbLine
 10
80.70710678118655
 20
-53.70710678118655
 11
79.29289321881345
 21
-52.29289321881346
  0
MTEXT
  5
160
100
AcDbEntity
  8
dimensions
  6
CONTINUOUS
 62
    0
370
   -2
100
AcDbMText
 10
77.5
 20
-57.74999999999991
 30
0
 40
3
 41
3.000000000000186
 71
    5
 72
    1
  1
15
  7
standard
210
0
220
0
230
1
 50
90
 73
    2
 44
1
  0
LINE
  5
161
100
AcDbEntity
  8
dimensions
  6
ByBlock
 62
    0
370
   -2
100
AcDbLine
 10
58.5
 20
-54.5
 11
82
 21
-54.5
  0
LINE
  5
162
100
AcDbEntity
  8
dimensions
  6
ByBlock
 62
    0
370
   -2
100
AcDbLine
 10
58.5
 20
-53.00000000000001
 11
82
 21
-53.00000000000001
  0
ENDBLK
  5
AD
330
AB
100
AcDbEntity
  8
0
100
AcDbBlockEnd
  0
BLOCK
  5
AF
330
AE
100
AcDbEntity
  8
0
100
AcDbBlockBegin
  2
*D17
 70
    1
 10
0
 20
0
  3
*D17
  1

  0
LINE
  5
163
100
AcDbEntity
  8
dimensions
  6
CONTINUOUS
 62
    7
370
    0
100
AcDbLine
 10
17
 20
-30
 11
8
 21
-30
  0
SOLID
  5
164
100
AcDbEntity
  8
dimensions
  6
CONTINUOUS
 62
    7
370
    0
100
AcDbTrace
 10
17
 20
-30
 30
0
 11
12
 21
-30.83256931554568
 31
0
 12
12
 22
-29.16743068445432
 32
0
 13
12
 23
-29.16743068445432
 33
0
  0
ENDBLK
  5
B0
330
AE
100
AcDbEntity
  8
0
100
AcDbBlockEnd
  0
BLOCK
  5
B2
330
B1
100
AcDbEntity
  8
0
100
AcDbBlockBegin
  2
*D26
 70
    1
 10
0
 20
0
  3
*D26
  1

  0
LINE
  5
165
100
AcDbEntity
  8
dimensions
  6
ByBlock
 62
    0
370
   -2
100
AcDbLine
 10
120.3694195
 20
37.99999999999994
 11
142.8694195
 21
37.99999999999994
  0
LINE
  5
166
100
AcDbEntity
  8
dimensions
  6
ByBlock
 62
    0
370
   -2
100
AcDbLine
 10
129.6623127188134
 20
37.2928932188134
 11
131.0765262811865
 21
38.70710678118649
  0
LINE
  5
167
100
AcDbEntity
  8
dimensions
  6
ByBlock
 62
    0
370
   -2
100
AcDbLine
 10
132.1623127188134
 20
37.2928932188134
 11
133.5765262811865
 21
38.70710678118649
  0
MTEXT
  5
168
100
AcDbEntity
  8
dimensions
  6
CONTINUOUS
 62
    0
370
   -2
100
AcDbMText
 10
131.6194195
 20
40.49999999999994
 30
0
 40
3
 41
1.333333333333519
 71
    5
 72
    1
  1
5
  7
standard
210
0
220
0
230
1
 50
0
 73
    2
 44
1
  0
LINE
  5
169
100
AcDbEntity
  8
dimensions
  6
ByBlock
 62
    0
370
   -2
100
AcDbLine
 10
130.3694195
 20
32.49999999999971
 11
130.3694195
 21
39.99999999999994
  0
LINE
  5
16A
100
AcDbEntity
  8
dimensions
  6
ByBlock
 62
    0
370
   -2
100
AcDbLine
 10
132.8694195
 20
30.24999999999971
 11
132.8694195
 21
39.99999999999994
  0
ENDBLK
  5
B3
330
B1
100
AcDbEntity
  8
0
100
AcDbBlockEnd
  0
BLOCK
  5
B5
330
B4
100
AcDbEntity
  8
0
100
AcDbBlockBegin
  2
*D23
 70
    1
 10
0
 20
0
  3
*D23
  1

  0
LINE
  5
16B
100
AcDbEntity
  8
dimensions
  6
CONTINUOUS
 62
    7
370
    0
100
AcDbLine
 10
93
 20
19
 11
93
 21
10
  0
SOLID
  5
16C
100
AcDbEntity
  8
dimensions
  6
CONTINUOUS
 62
    7
370
    0
100
AcDbTrace
 10
93
 20
19
 30
0
 11
93.83256931554568
 21
14
 31
0
 12
92.16743068445432
 22
14
 32
0
 13
92.16743068445432
 23
14
 33
0
  0
ENDBLK
  5
B6
330
B4
100
AcDbEntity
  8
0
100
AcDbBlockEnd
  0
BLOCK
  5
B8
330
B7
100
AcDbEntity
  8
0
100
AcDbBlockBegin
  2
*D11
 70
    1
 10
0
 20
0
  3
*D11
  1

  0
LINE
  5
16D
100
AcDbEntity
  8
dimensions
  6
ByBlock
 62
    0
370
   -2
100
AcDbLine
 10
84
 20
-5.999999999999975
 11
84
 21
16.50000000000001
  0
LINE
  5
16E
100
AcDbEntity
  8
dimensions
  6
ByBlock
 62
    0
370
   -2
100
AcDbLine
 10
84.70710678118655
 20
3.292893218813477
 11
83.29289321881345
 21
4.707106781186573
  0
LINE
  5
16F
100
AcDbEntity
  8
dimensions
  6
ByBlock
 62
    0
370
   -2
100
AcDbLine
 10
84.70710678118655
 20
5.792893218813463
 11
83.29289321881345
 21
7.207106781186559
  0
MTEXT
  5
170
100
AcDbEntity
  8
dimensions
  6
CONTINUOUS
 62
    0
370
   -2
100
AcDbMText
 10
81.5
 20
9.333333333333437
 30
0
 40
3
 41
3.666666666666853
 71
    5
 72
    1
  1
25
  7
standard
210
0
220
0
230
1
 50
90
 73
    2
 44
1
  0
LINE
  5
171
100
AcDbEntity
  8
dimensions
  6
ByBlock
 62
    0
370
   -2
100
AcDbLine
 10
63.99999999999923
 20
4.000000000000025
 11
86
 21
4.000000000000025
  0
LINE
  5
172
100
AcDbEntity
  8
dimensions
  6
ByBlock
 62
    0
370
   -2
100
AcDbLine
 10
58.49999999999903
 20
6.500000000000011
 11
86
 21
6.500000000000011
  0
ENDBLK
  5
B9
330
B7
100
AcDbEntity
  8
0
100
AcDbBlockEnd
  0
BLOCK
  5
BB
330
BA
100
AcDbEntity
  8
0
100
AcDbBlockBegin
  2
*D12
 70
    1
 10
0
 20
0
  3
*D12
  1

  0
LINE
  5
173
100
AcDbEntity
  8
dimensions
  6
ByBlock
 62
    0
370
   -2
100
AcDbLine
 10
84
 20
6.500000000000011
 11
84
 21
30.50000000000001
  0
LINE
  5
174
100
AcDbEntity
  8
dimensions
  6
ByBlock
 62
    0
370
   -2
100
AcDbLine
 10
83.29289321881345
 20
7.207106781186559
 11
84.70710678118655
 21
5.792893218813463
  0
LINE
  5
175
100
AcDbEntity
  8
dimensions
  6
ByBlock
 62
    0
370
   -2
100
AcDbLine
 10
83.29289321881345
 20
31.20710678118656
 11
84.70710678118655
 21
29.79289321881346
  0
MTEXT
  5
176
100
AcDbEntity
  8
dimensions
  6
CONTINUOUS
 62
    0
370
   -2
100
AcDbMText
 10
81.5
 20
18.50000000000001
 30
0
 40
3
 41
6.333333333333332
 71
    5
 72
    1
  1
240
  7
standard
210
0
220
0
230
1
 50
90
 73
    2
 44
1
  0
LINE
  5
177
100
AcDbEntity
  8
dimensions
  6
ByBlock
 62
    0
370
   -2
100
AcDbLine
 10
58.49999999999903
 20
6.500000000000012
 11
86
 21
6.500000000000011
  0
LINE
  5
178
100
AcDbEntity
  8
dimensions
  6
ByBlock
 62
    0
370
   -2
100
AcDbLine
 10
58.49999999999903
 20
30.50000000000001
 11
86
 21
30.50000000000001
  0
ENDBLK
  5
BC
330
BA
100
AcDbEntity
  8
0
100
AcDbBlockEnd
  0
BLOCK
  5
BE
330
BD
100
AcDbEntity
  8
0
100
AcDbBlockBegin
  2
*D27
 70
    1
 10
0
 20
0
  3
*D27
  1

  0
LINE
  5
179
100
AcDbEntity
  8
dimensions
  6
ByBlock
 62
    0
370
   -2
100
AcDbLine
 10
138.8694195
 20
18.99999999999995
 11
138.8694195
 21
41.49999999999995
  0
LINE
  5
17A
100
AcDbEntity
  8
dimensions
  6
ByBlock
 62
    0
370
   -2
100
AcDbLine
 10
139.5765262811865
 20
28.2928932188134
 11
138.1623127188134
 21
29.7071067811865
  0
LINE
  5
17B
100
AcDbEntity
  8
dimensions
  6
ByBlock
 62
    0
370
   -2
100
AcDbLine
 10
139.5765262811865
 20
30.7928932188134
 11
138.1623127188134
 21
32.2071067811865
  0
MTEXT
  5
17C
100
AcDbEntity
  8
dimensions
  6
CONTINUOUS
 62
    0
370
   -2
100
AcDbMText
 10
136.3694195
 20
30.24999999999995
 30
0
 40
3
 41
1.333333333333519
 71
    5
 72
    1
  1
5
  7
standard
210
0
220
0
230
1
 50
90
 73
    2
 44
1
  0
LINE
  5
17D
100
AcDbEntity
  8
dimensions
  6
ByBlock
 62
    0
370
   -2
100
AcDbLine
 10
141.8694195
 20
28.99999999999995
 11
136.8694195
 21
28.99999999999995
  0
LINE
  5
17E
100
AcDbEntity
  8
dimensions
  6
ByBlock
 62
    0
370
   -2
100
AcDbLine
 10
141.8694195
 20
31.49999999999995
 11
136.8694195
 21
31.49999999999995
  0
ENDBLK
  5
BF
330
BD
100
AcDbEntity
  8
0
100
AcDbBlockEnd
  0
ENDSEC
  0
SECTION
  2
ENTITIES
  0
HATCH
  5
17F
100
AcDbEntity
  8
wall
  6
ByLayer
 62
  256
370
   -1
100
AcDbHatch
 10
0
 20
0
 30
0
210
0
220
0
230
1
  2
brick
 70
    0
 71
    0
 91
    1
 92
    0
 93
    4
 72
    1
 10
132
 20
-54.50000000000001
 11
132
 21
-48.00000000000001
 72
    1
 10
132
 20
-48.00000000000001
 11
133.3
 21
-48.00000000000003
 72
    1
 10
133.3
 20
-48.00000000000003
 11
133.3
 21
-54.50000000000001
 72
    1
 10
133.3
 20
-54.50000000000001
 11
132
 21
-54.50000000000001
 97
    0
 75
    0
 76
    1
 52
0
 41
0.02
 77
    0
 78
    0
 98
    0
  0
HATCH
  5
180
100
AcDbEntity
  8
plate
  6
ByLayer
 62
  256
370
   -1
100
AcDbHatch
 10
0
 20
0
 30
0
210
0
220
0
230
1
  2
concrete
 70
    0
 71
    0
 91
    1
 92
    0
 93
    4
 72
    1
 10
110.5
 20
-54.5
 11
110.5
 21
-53
 72
    1
 10
110.5
 20
-53
 11
120
 21
-53
 72
    1
 10
120
 20
-53
 11
120
 21
-54.49999999999997
 72
    1
 10
120
 20
-54.49999999999997
 11
110.5
 21
-54.5
 97
    0
 75
    0
 76
    1
 52
1.570796326794897
 41
1
 77
    0
 78
    0
 98
    0
  0
HATCH
  5
181
100
AcDbEntity
  8
wall
  6
ByLayer
 62
  256
370
   -1
100
AcDbHatch
 10
0
 20
0
 30
0
210
0
220
0
230
1
  2
brick
 70
    0
 71
    0
 91
    1
 92
    0
 93
    4
 72
    1
 10
110.5
 20
-54.49999999999994
 11
113
 21
-54.49999999999994
 72
    1
 10
113
 20
-54.49999999999994
 11
113
 21
-74.5
 72
    1
 10
113
 20
-74.5
 11
110.5
 21
-74.5
 72
    1
 10
110.5
 20
-74.5
 11
110.5
 21
-54.49999999999994
 97
    0
 75
    0
 76
    1
 52
6.283185307179586
 41
0.02
 77
    0
 78
    0
 98
    0
  0
HATCH
  5
182
100
AcDbEntity
  8
wall
  6
ByLayer
 62
  256
370
   -1
100
AcDbHatch
 10
0
 20
0
 30
0
210
0
220
0
230
1
  2
brick
 70
    0
 71
    0
 91
    1
 92
    0
 93
    4
 72
    1
 10
132
 20
-54.49999999999997
 11
134.5
 21
-54.49999999999997
 72
    1
 10
134.5
 20
-54.49999999999997
 11
134.5
 21
-74.5
 72
    1
 10
134.5
 20
-74.5
 11
132
 21
-74.5
 72
    1
 10
132
 20
-74.5
 11
132
 21
-54.49999999999997
 97
    0
 75
    0
 76
    1
 52
0
 41
0.02
 77
    0
 78
    0
 98
    0
  0
HATCH
  5
183
100
AcDbEntity
  8
plate
  6
ByLayer
 62
  256
370
   -1
100
AcDbHatch
 10
0
 20
0
 30
0
210
0
220
0
230
1
  2
concrete
 70
    0
 71
    0
 91
    1
 92
    0
 93
    4
 72
    1
 10
110.5
 20
-76.5
 11
110.5
 21
-74.5
 72
    1
 10
110.5
 20
-74.5
 11
134.5
 21
-74.5
 72
    1
 10
134.5
 20
-74.5
 11
134.5
 21
-76.5
 72
    1
 10
134.5
 20
-76.5
 11
110.5
 21
-76.5
 97
    0
 75
    0
 76
    1
 52
1.570796326794897
 41
1
 77
    0
 78
    0
 98
    0
  0
HATCH
  5
184
100
AcDbEntity
  8
ground
  6
ByLayer
 62
  256
370
   -1
100
AcDbHatch
 10
0
 20
0
 30
0
210
0
220
0
230
1
  2
sacncr
 70
    0
 71
    0
 91
    1
 92
    0
 93
   16
 72
    1
 10
104
 20
-60
 11
108
 21
-60
 72
    1
 10
108
 20
-60
 11
108
 21
-53
 72
    1
 10
108
 20
-53
 11
110.5
 21
-53
 72
    1
 10
110.5
 20
-53
 11
110.5
 21
-76.5
 72
    1
 10
110.5
 20
-76.5
 11
134.5
 21
-76.5
 72
    1
 10
134.5
 20
-76.5
 11
134.5
 21
-53
 72
    1
 10
134.5
 20
-53
 11
137
 21
-53
 72
    1
 10
137
 20
-53
 11
137
 21
-60
 72
    1
 10
137
 20
-60
 11
141
 21
-60
 72
    1
 10
141
 20
-60
 11
141
 21
-51
 72
    1
 10
141
 20
-51
 11
146
 21
-51
 72
    1
 10
146
 20
-51
 11
146
 21
-80
 72
    1
 10
146
 20
-80
 11
100
 21
-80
 72
    1
 10
100
 20
-80
 11
100
 21
-51
 72
    1
 10
100
 20
-51
 11
104
 21
-51
 72
    1
 10
104
 20
-51
 11
104
 21
-60
 97
    0
 75
    0
 76
    1
 52
1.570796326794897
 41
0.1
 77
    0
 78
    0
 98
    0
  0
HATCH
  5
185
100
AcDbEntity
  8
ground
  6
ByLayer
 62
  256
370
   -1
100
AcDbHatch
 10
0
 20
0
 30
0
210
0
220
0
230
1
  2
sacncr
 70
    0
 71
    0
 91
    1
 92
    0
 93
   16
 72
    1
 10
57.5
 20
-53
 11
63
 21
-53
 72
    1
 10
63
 20
-53
 11
63
 21
-59.85786437626906
 72
    1
 10
63
 20
-59.85786437626906
 11
68
 21
-60
 72
    1
 10
68
 20
-60
 11
68
 21
-51
 72
    1
 10
68
 20
-51
 11
73
 21
-51
 72
    1
 10
73
 20
-51
 11
73
 21
-80
 72
    1
 10
73
 20
-80
 11
-5
 21
-80
 72
    1
 10
-5
 20
-80
 11
-5
 21
-51
 72
    1
 10
-5
 20
-51
 11
0
 21
-51
 72
    1
 10
0
 20
-51
 11
0
 21
-60
 72
    1
 10
0
 20
-60
 11
5
 21
-60
 72
    1
 10
5
 20
-60
 11
5
 21
-53
 72
    1
 10
5
 20
-53
 11
10.5
 21
-53
 72
    1
 10
10.5
 20
-53
 11
10.5
 21
-76.5
 72
    1
 10
10.5
 20
-76.5
 11
57.5
 21
-76.5
 72
    1
 10
57.5
 20
-76.5
 11
57.5
 21
-53
 97
    0
 75
    0
 76
    1
 52
0
 41
0.1
 77
    0
 78
    0
 98
    0
  0
HATCH
  5
186
100
AcDbEntity
  8
wall
  6
ByLayer
 62
  256
370
   -1
100
AcDbHatch
 10
0
 20
0
 30
0
210
0
220
0
230
1
  2
brick
 70
    0
 71
    0
 91
    1
 92
    0
 93
    4
 72
    1
 10
11.7
 20
-54.49999999999999
 11
11.7
 21
-48
 72
    1
 10
11.7
 20
-48
 11
13
 21
-48
 72
    1
 10
13
 20
-48
 11
13
 21
-54.49999999999999
 72
    1
 10
13
 20
-54.49999999999999
 11
11.7
 21
-54.49999999999999
 97
    0
 75
    0
 76
    1
 52
0
 41
0.02
 77
    0
 78
    0
 98
    0
  0
HATCH
  5
187
100
AcDbEntity
  8
plate
  6
ByLayer
 62
  256
370
   -1
100
AcDbHatch
 10
0
 20
0
 30
0
210
0
220
0
230
1
  2
concrete
 70
    0
 71
    0
 91
    1
 92
    0
 93
    4
 72
    1
 10
21
 20
-54.5
 11
21
 21
-53.00000000000001
 72
    1
 10
21
 20
-53.00000000000001
 11
57.5
 21
-53.00000000000001
 72
    1
 10
57.5
 20
-53.00000000000001
 11
57.5
 21
-54.5
 72
    1
 10
57.5
 20
-54.5
 11
21
 21
-54.5
 97
    0
 75
    0
 76
    1
 52
0
 41
1
 77
    0
 78
    0
 98
    0
  0
HATCH
  5
188
100
AcDbEntity
  8
wall
  6
ByLayer
 62
  256
370
   -1
100
AcDbHatch
 10
0
 20
0
 30
0
210
0
220
0
230
1
  2
brick
 70
    0
 71
    0
 91
    1
 92
    0
 93
    4
 72
    1
 10
13
 20
-54.5
 11
10.5
 21
-54.5
 72
    1
 10
10.5
 20
-54.5
 11
10.5
 21
-74.5
 72
    1
 10
10.5
 20
-74.5
 11
13
 21
-74.5
 72
    1
 10
13
 20
-74.5
 11
13
 21
-54.5
 97
    0
 75
    0
 76
    1
 52
0
 41
0.02
 77
    0
 78
    0
 98
    0
  0
HATCH
  5
189
100
AcDbEntity
  8
wall
  6
ByLayer
 62
  256
370
   -1
100
AcDbHatch
 10
0
 20
0
 30
0
210
0
220
0
230
1
  2
brick
 70
    0
 71
    0
 91
    1
 92
    0
 93
    4
 72
    1
 10
55
 20
-74.5
 11
57.5
 21
-74.5
 72
    1
 10
57.5
 20
-74.5
 11
57.5
 21
-54.5
 72
    1
 10
57.5
 20
-54.5
 11
55
 21
-54.5
 72
    1
 10
55
 20
-54.5
 11
55
 21
-74.5
 97
    0
 75
    0
 76
    1
 52
0
 41
0.02
 77
    0
 78
    0
 98
    0
  0
HATCH
  5
18A
100
AcDbEntity
  8
wall
  6
ByLayer
 62
  256
370
   -1
100
AcDbHatch
 10
0
 20
0
 30
0
210
0
220
0
230
1
  2
brick
 70
    0
 71
    0
 91
    1
 92
    0
 93
    4
 72
    1
 10
34.6
 20
-56.5
 11
33.29999999999905
 21
-56.5
 72
    1
 10
33.29999999999905
 20
-56.5
 11
33.29999999999905
 21
-54.5
 72
    1
 10
33.29999999999905
 20
-54.5
 11
34.6
 21
-54.5
 72
    1
 10
34.6
 20
-54.5
 11
34.6
 21
-56.5
 97
    0
 75
    0
 76
    1
 52
0
 41
0.02
 77
    0
 78
    0
 98
    0
  0
HATCH
  5
18B
100
AcDbEntity
  8
plate
  6
ByLayer
 62
  256
370
   -1
100
AcDbHatch
 10
0
 20
0
 30
0
210
0
220
0
230
1
  2
concrete
 70
    0
 71
    0
 91
    1
 92
    0
 93
    4
 72
    1
 10
57.5
 20
-76.5
 11
10.5
 21
-76.5
 72
    1
 10
10.5
 20
-76.5
 11
10.5
 21
-74.5
 72
    1
 10
10.5
 20
-74.5
 11
57.5
 21
-74.5
 72
    1
 10
57.5
 20
-74.5
 11
57.5
 21
-76.5
 97
    0
 75
    0
 76
    1
 52
0
 41
1
 77
    0
 78
    0
 98
    0
  0
HATCH
  5
18C
100
AcDbEntity
  8
wall
  6
ByLayer
 62
  256
370
   -1
100
AcDbHatch
 10
0
 20
0
 30
0
210
0
220
0
230
1
  2
brick
 70
    0
 71
    0
 91
    1
 92
    0
 93
    4
 72
    1
 10
126.3694195
 20
24.99999999999984
 11
132.8694195
 21
24.99999999999995
 72
    1
 10
132.8694195
 20
24.99999999999995
 11
132.8694195
 21
0
 72
    1
 10
132.8694195
 20
0
 11
126.3694195
 21
0
 72
    1
 10
126.3694195
 20
0
 11
126.3694195
 21
24.99999999999984
 97
    0
 75
    0
 76
    1
 52
0
 41
0.02
 77
    0
 78
    0
 98
    0
  0
HATCH
  5
18D
100
AcDbEntity
  8
screed
  6
ByLayer
 62
  256
370
   -1
100
AcDbHatch
 10
0
 20
0
 30
0
210
0
220
0
230
1
  2
concrete
 70
    0
 71
    0
 91
    1
 92
    0
 93
    6
 72
    1
 10
107.8694195
 20
24.9999999999998
 11
107.8694195
 21
29.9999999999998
 72
    1
 10
107.8694195
 20
29.9999999999998
 11
130.3694195
 21
29.99999999999984
 72
    1
 10
130.3694195
 20
29.99999999999984
 11
130.3694195
 21
28.99999999999971
 72
    1
 10
130.3694195
 20
28.99999999999971
 11
132.8694195
 21
28.99999999999971
 72
    1
 10
132.8694195
 20
28.99999999999971
 11
132.8694195
 21
24.99999999999995
 72
    1
 10
132.8694195
 20
24.99999999999995
 11
107.8694195
 21
24.9999999999998
 97
    0
 75
    0
 76
    1
 52
0
 41
1
 77
    0
 78
    0
 98
    0
  0
HATCH
  5
18E
100
AcDbEntity
  8
sand
  6
ByLayer
 62
  256
370
   -1
100
AcDbHatch
 10
0
 20
0
 30
0
210
0
220
0
230
1
  2
sand
 70
    0
 71
    0
 91
    1
 92
    0
 93
    4
 72
    1
 10
126.3694195
 20
24.99999999999984
 11
126.3694195
 21
0
 72
    1
 10
126.3694195
 20
0
 11
112.8694195
 21
9.999999999999947
 72
    1
 10
112.8694195
 20
9.999999999999947
 11
107.8694195
 21
24.9999999999998
 72
    1
 10
107.8694195
 20
24.9999999999998
 11
126.3694195
 21
24.99999999999984
 97
    0
 75
    0
 76
    1
 52
0
 41
0.5
 77
    0
 78
    0
 98
    0
  0
HATCH
  5
18F
100
AcDbEntity
  8
wall
  6
ByLayer
 62
  256
370
   -1
100
AcDbHatch
 10
0
 20
0
 30
0
210
0
220
0
230
1
  2
brick
 70
    0
 71
    0
 91
    1
 92
    0
 93
    4
 72
    1
 10
118.7
 20
-48.00000000000003
 11
120
 21
-48.00000000000001
 72
    1
 10
120
 20
-48.00000000000001
 11
120
 21
-53
 72
    1
 10
120
 20
-53
 11
118.7
 21
-53
 72
    1
 10
118.7
 20
-53
 11
118.7
 21
-48.00000000000003
 97
    0
 75
    0
 76
    1
 52
0
 41
0.02
 77
    0
 78
    0
 98
    0
  0
HATCH
  5
190
100
AcDbEntity
  8
screed
  6
ByLayer
 62
  256
370
   -1
100
AcDbHatch
 10
0
 20
0
 30
0
210
0
220
0
230
1
  2
concrete
 70
    0
 71
    0
 91
    1
 92
    0
 93
    6
 72
    1
 10
137
 20
-48.00000000000003
 11
137
 21
-47.00000000000003
 72
    1
 10
137
 20
-47.00000000000003
 11
132.5
 21
-47.00000000000003
 72
    1
 10
132.5
 20
-47.00000000000003
 11
132.5
 21
-47.20000000000006
 72
    1
 10
132.5
 20
-47.20000000000006
 11
132
 21
-47.20000000000006
 72
    1
 10
132
 20
-47.20000000000006
 11
132
 21
-48.00000000000001
 72
    1
 10
132
 20
-48.00000000000001
 11
137
 21
-48.00000000000003
 97
    0
 75
    0
 76
    1
 52
0
 41
1
 77
    0
 78
    0
 98
    0
  0
HATCH
  5
191
100
AcDbEntity
  8
screed
  6
ByLayer
 62
  256
370
   -1
100
AcDbHatch
 10
0
 20
0
 30
0
210
0
220
0
230
1
  2
concrete
 70
    0
 71
    0
 91
    1
 92
    0
 93
    6
 72
    1
 10
120
 20
-48.00000000000001
 11
108
 21
-48.00000000000003
 72
    1
 10
108
 20
-48.00000000000003
 11
108
 21
-47.00000000000003
 72
    1
 10
108
 20
-47.00000000000003
 11
119.5
 21
-47.00000000000003
 72
    1
 10
119.5
 20
-47.00000000000003
 11
119.5
 21
-47.20000000000006
 72
    1
 10
119.5
 20
-47.20000000000006
 11
120
 21
-47.20000000000006
 72
    1
 10
120
 20
-47.20000000000006
 11
120
 21
-48.00000000000001
 97
    0
 75
    0
 76
    1
 52
0
 41
1
 77
    0
 78
    0
 98
    0
  0
HATCH
  5
192
100
AcDbEntity
  8
base
  6
ByLayer
 62
  256
370
   -1
100
AcDbHatch
 10
0
 20
0
 30
0
210
0
220
0
230
1
  2
gost_concrete
 70
    0
 71
    0
 91
    1
 92
    0
 93
    4
 72
    1
 10
137
 20
-60
 11
141
 21
-60
 72
    1
 10
141
 20
-60
 11
141
 21
-47
 72
    1
 10
141
 20
-47
 11
137
 21
-47
 72
    1
 10
137
 20
-47
 11
137
 21
-60
 97
    0
 75
    0
 76
    1
 52
1.570796326794897
 41
0.5
 77
    0
 78
    0
 98
    0
  0
HATCH
  5
193
100
AcDbEntity
  8
sand
  6
ByLayer
 62
  256
370
   -1
100
AcDbHatch
 10
0
 20
0
 30
0
210
0
220
0
230
1
  2
sand
 70
    0
 71
    0
 91
    1
 92
    0
 93
    4
 72
    1
 10
137
 20
-48.00000000000003
 11
137
 21
-53
 72
    1
 10
137
 20
-53
 11
133.3
 21
-53
 72
    1
 10
133.3
 20
-53
 11
133.3
 21
-48.00000000000003
 72
    1
 10
133.3
 20
-48.00000000000003
 11
137
 21
-48.00000000000003
 97
    0
 75
    0
 76
    1
 52
1.570796326794897
 41
0.1
 77
    0
 78
    0
 98
    0
  0
HATCH
  5
194
100
AcDbEntity
  8
sand
  6
ByLayer
 62
  256
370
   -1
100
AcDbHatch
 10
0
 20
0
 30
0
210
0
220
0
230
1
  2
sand
 70
    0
 71
    0
 91
    1
 92
    0
 93
    4
 72
    1
 10
118.7
 20
-48.00000000000003
 11
118.7
 21
-53
 72
    1
 10
118.7
 20
-53
 11
108
 21
-53
 72
    1
 10
108
 20
-53
 11
108
 21
-48.00000000000003
 72
    1
 10
108
 20
-48.00000000000003
 11
118.7
 21
-48.00000000000003
 97
    0
 75
    0
 76
    1
 52
1.570796326794897
 41
0.1
 77
    0
 78
    0
 98
    0
  0
HATCH
  5
195
100
AcDbEntity
  8
base
  6
ByLayer
 62
  256
370
   -1
100
AcDbHatch
 10
0
 20
0
 30
0
210
0
220
0
230
1
  2
gost_concrete
 70
    0
 71
    0
 91
    1
 92
    0
 93
    4
 72
    1
 10
108
 20
-47
 11
108
 21
-60
 72
    1
 10
108
 20
-60
 11
104
 21
-60
 72
    1
 10
104
 20
-60
 11
104
 21
-47
 72
    1
 10
104
 20
-47
 11
108
 21
-47
 97
    0
 75
    0
 76
    1
 52
1.570796326794897
 41
0.5
 77
    0
 78
    0
 98
    0
  0
HATCH
  5
196
100
AcDbEntity
  8
wall
  6
ByLayer
 62
  256
370
   -1
100
AcDbHatch
 10
0
 20
0
 30
0
210
0
220
0
230
1
  2
brick
 70
    0
 71
    0
 91
    1
 92
    0
 93
    4
 72
    1
 10
21
 20
-48.00000000000001
 11
22.3
 21
-48.00000000000001
 72
    1
 10
22.3
 20
-48.00000000000001
 11
22.3
 21
-53
 72
    1
 10
22.3
 20
-53
 11
21
 21
-53
 72
    1
 10
21
 20
-53
 11
21
 21
-48.00000000000001
 97
    0
 75
    0
 76
    1
 52
0
 41
0.02
 77
    0
 78
    0
 98
    0
  0
HATCH
  5
197
100
AcDbEntity
  8
screed
  6
ByLayer
 62
  256
370
   -1
100
AcDbHatch
 10
0
 20
0
 30
0
210
0
220
0
230
1
  2
concrete
 70
    0
 71
    0
 91
    1
 92
    0
 93
    6
 72
    1
 10
21.5
 20
-47
 11
21.5
 21
-47.2
 72
    1
 10
21.5
 20
-47.2
 11
21
 21
-47.2
 72
    1
 10
21
 20
-47.2
 11
21
 21
-48.00000000000001
 72
    1
 10
21
 20
-48.00000000000001
 11
63
 21
-48
 72
    1
 10
63
 20
-48
 11
63
 21
-47
 72
    1
 10
63
 20
-47
 11
21.5
 21
-47
 97
    0
 75
    0
 76
    1
 52
0
 41
1
 77
    0
 78
    0
 98
    0
  0
HATCH
  5
198
100
AcDbEntity
  8
screed
  6
ByLayer
 62
  256
370
   -1
100
AcDbHatch
 10
0
 20
0
 30
0
210
0
220
0
230
1
  2
concrete
 70
    0
 71
    0
 91
    1
 92
    0
 93
    6
 72
    1
 10
5
 20
-47
 11
12.5
 21
-47
 72
    1
 10
12.5
 20
-47
 11
12.5
 21
-47.2
 72
    1
 10
12.5
 20
-47.2
 11
13
 21
-47.2
 72
    1
 10
13
 20
-47.2
 11
13
 21
-48
 72
    1
 10
13
 20
-48
 11
5
 21
-48
 72
    1
 10
5
 20
-48
 11
5
 21
-47
 97
    0
 75
    0
 76
    1
 52
0
 41
1
 77
    0
 78
    0
 98
    0
  0
HATCH
  5
199
100
AcDbEntity
  8
base
  6
ByLayer
 62
  256
370
   -1
100
AcDbHatch
 10
0
 20
0
 30
0
210
0
220
0
230
1
  2
gost_concrete
 70
    0
 71
    0
 91
    1
 92
    0
 93
    4
 72
    1
 10
5
 20
-60
 11
0
 21
-60
 72
    1
 10
0
 20
-60
 11
0
 21
-47
 72
    1
 10
0
 20
-47
 11
5
 21
-47
 72
    1
 10
5
 20
-47
 11
5
 21
-60
 97
    0
 75
    0
 76
    1
 52
0
 41
0.5
 77
    0
 78
    0
 98
    0
  0
HATCH
  5
19A
100
AcDbEntity
  8
base
  6
ByLayer
 62
  256
370
   -1
100
AcDbHatch
 10
0
 20
0
 30
0
210
0
220
0
230
1
  2
gost_concrete
 70
    0
 71
    0
 91
    1
 92
    0
 93
    4
 72
    1
 10
63
 20
-47
 11
68
 21
-47
 72
    1
 10
68
 20
-47
 11
68
 21
-60
 72
    1
 10
68
 20
-60
 11
63
 21
-60
 72
    1
 10
63
 20
-60
 11
63
 21
-47
 97
    0
 75
    0
 76
    1
 52
0
 41
0.5
 77
    0
 78
    0
 98
    0
  0
HATCH
  5
19B
100
AcDbEntity
  8
sand
  6
ByLayer
 62
  256
370
   -1
100
AcDbHatch
 10
0
 20
0
 30
0
210
0
220
0
230
1
  2
sand
 70
    0
 71
    0
 91
    1
 92
    0
 93
    4
 72
    1
 10
11.7
 20
-53
 11
5
 21
-53
 72
    1
 10
5
 20
-53
 11
5
 21
-48
 72
    1
 10
5
 20
-48
 11
11.7
 21
-48
 72
    1
 10
11.7
 20
-48
 11
11.7
 21
-53
 97
    0
 75
    0
 76
    1
 52
0
 41
0.1
 77
    0
 78
    0
 98
    0
  0
HATCH
  5
19C
100
AcDbEntity
  8
sand
  6
ByLayer
 62
  256
370
   -1
100
AcDbHatch
 10
0
 20
0
 30
0
210
0
220
0
230
1
  2
sand
 70
    0
 71
    0
 91
    1
 92
    0
 93
    4
 72
    1
 10
63
 20
-53
 11
22.3
 21
-53
 72
    1
 10
22.3
 20
-53
 11
22.3
 21
-48
 72
    1
 10
22.3
 20
-48
 11
63
 21
-48
 72
    1
 10
63
 20
-48
 11
63
 21
-53
 97
    0
 75
    0
 76
    1
 52
0
 41
0.1
 77
    0
 78
    0
 98
    0
  0
LWPOLYLINE
  5
19D
100
AcDbEntity
  8
base
  6
ByLayer
 62
  256
370
   -1
100
AcDbPolyline
 90
    4
 70
    1
 43
0
 10
4.999999999999716
 20
4
 10
4.999999999999718
 20
33
 10
62.99999999999923
 20
33.00000000000002
 10
62.99999999999923
 20
4.000000000000025
  0
CIRCLE
  5
19E
100
AcDbEntity
  8
plastic
  6
ByLayer
 62
  256
370
   -1
100
AcDbCircle
 10
35.69999999999902
 20
5.100000000000035
 40
0.6000000000000014
  0
CIRCLE
  5
19F
100
AcDbEntity
  8
plastic
  6
ByLayer
 62
  256
370
   -1
100
AcDbCircle
 10
32.19999999999902
 20
5.100000000000035
 40
0.6000000000000014
  0
LWPOLYLINE
  5
1A0
100
AcDbEntity
  8
wall
  6
DASHED2
 62
  256
370
   -1
100
AcDbPolyline
 90
    4
 70
    1
 43
0
 10
11.69999999999902
 20
7.70000000000003
 10
11.69999999999902
 20
22.30000000000004
 10
22.29999999999905
 20
22.30000000000004
 10
22.29999999999905
 20
7.700000000000029
  0
LWPOLYLINE
  5
1A1
100
AcDbEntity
  8
wall
  6
DASHED2
 62
   56
420
8421376
370
   50
100
AcDbPolyline
 90
    4
 70
    1
 43
0
 10
12.99999999999903
 20
9.000000000000043
 10
12.99999999999904
 20
28.00000000000004
 10
33.29999999999905
 20
28.00000000000002
 10
33.29999999999905
 20
9.000000000000027
  0
CIRCLE
  5
1A2
100
AcDbEntity
  8
plastic
  6
DASHED2
 62
  256
370
   -1
100
AcDbCircle
 10
14.09999999999903
 20
26.90000000000003
 40
0.6000000000000014
  0
CIRCLE
  5
1A3
100
AcDbEntity
  8
plastic
  6
ByLayer
 62
  256
370
   -1
100
AcDbCircle
 10
14.09999999999903
 20
31.90000000000003
 40
0.6000000000000014
  0
LINE
  5
1A4
100
AcDbEntity
  8
plastic
  6
DASHED2
 62
  256
370
   -1
100
AcDbLine
 10
13.49999999999904
 20
26.90000000000003
 11
13.49999999999904
 21
31.90000000000003
  0
LINE
  5
1A5
100
AcDbEntity
  8
plastic
  6
DASHED2
 62
  256
370
   -1
100
AcDbLine
 10
14.69999999999902
 20
26.90000000000003
 11
14.69999999999902
 21
31.90000000000003
  0
LWPOLYLINE
  5
1A6
100
AcDbEntity
  8
wall
  6
DASHED2
 62
   56
420
8421376
370
   50
100
AcDbPolyline
 90
    4
 70
    1
 43
0
 10
34.59999999999903
 20
9.000000000000012
 10
34.59999999999903
 20
28.00000000000002
 10
54.99999999999903
 20
28.00000000000002
 10
54.99999999999903
 20
9.000000000000025
  0
CIRCLE
  5
1A7
100
AcDbEntity
  8
plastic
  6
DASHED2
 62
  256
370
   -1
100
AcDbCircle
 10
53.89999999999904
 20
26.90000000000002
 40
0.6000000000000014
  0
CIRCLE
  5
1A8
100
AcDbEntity
  8
plastic
  6
ByLayer
 62
  256
370
   -1
100
AcDbCircle
 10
53.89999999999904
 20
31.90000000000002
 40
0.6000000000000014
  0
LINE
  5
1A9
100
AcDbEntity
  8
plastic
  6
DASHED2
 62
  256
370
   -1
100
AcDbLine
 10
53.29999999999905
 20
26.90000000000002
 11
53.29999999999905
 21
31.90000000000002
  0
LINE
  5
1AA
100
AcDbEntity
  8
plastic
  6
DASHED2
 62
  256
370
   -1
100
AcDbLine
 10
54.49999999999903
 20
26.90000000000002
 11
54.49999999999903
 21
31.90000000000002
  0
LWPOLYLINE
  5
1AB
100
AcDbEntity
  8
wall
  6
DASHED2
 62
  256
370
   -1
100
AcDbPolyline
 90
    4
 70
    1
 43
0
 10
10.49999999999903
 20
6.500000000000042
 10
10.49999999999904
 20
30.50000000000004
 10
57.49999999999903
 20
30.50000000000001
 10
57.49999999999903
 20
6.500000000000011
  0
LWPOLYLINE
  5
1AC
100
AcDbEntity
  8
plate
  6
DASHED2
 62
  176
420
  128
370
   50
100
AcDbPolyline
 90
    6
 70
    1
 43
0
 10
20.99999999999903
 20
21.00000000000004
 10
20.99999999999903
 20
6.500000000000028
 10
57.49999999999903
 20
6.500000000000011
 10
57.49999999999903
 20
30.50000000000001
 10
10.49999999999904
 20
30.50000000000004
 10
10.49999999999904
 20
21.00000000000004
  0
LWPOLYLINE
  5
1AD
100
AcDbEntity
  8
metal
  6
ByLayer
 62
  256
370
   -1
100
AcDbPolyline
 90
    4
 70
    1
 43
0
 10
12.99999999999903
 20
9.000000000000043
 10
12.99999999999904
 20
21.00000000000004
 10
20.99999999999903
 20
21.00000000000004
 10
20.99999999999903
 20
9.000000000000041
  0
LWPOLYLINE
  5
1AE
100
AcDbEntity
  8
metal
  6
CONTINUOUS
 62
  256
370
   -1
100
AcDbPolyline
 90
    4
 70
    1
 43
0
 10
12.49999999999903
 20
8.500000000000043
 10
12.49999999999904
 20
21.50000000000004
 10
21.49999999999903
 20
21.50000000000004
 10
21.49999999999903
 20
8.500000000000041
  0
LWPOLYLINE
  5
1AF
100
AcDbEntity
  8
plastic
  6
DASHED2
 62
  256
370
   -1
100
AcDbPolyline
 90
    4
 70
    0
 43
0
 10
35.09999999999903
 20
5.100000000000035
 10
35.09999999999903
 20
9.500000000000027
 10
36.29999999999905
 20
9.500000000000027
 10
36.29999999999905
 20
5.100000000000034
  0
LWPOLYLINE
  5
1B0
100
AcDbEntity
  8
plastic
  6
DASHED2
 62
  256
370
   -1
100
AcDbPolyline
 90
    4
 70
    0
 43
0
 10
31.59999999999903
 20
5.100000000000035
 10
31.59999999999903
 20
9.500000000000027
 10
32.79999999999905
 20
9.500000000000027
 10
32.79999999999905
 20
5.100000000000035
  0
LWPOLYLINE
  5
1B1
100
AcDbEntity
  8
wall
  6
DASHED2
 62
  256
370
   -1
100
AcDbPolyline
 90
    4
 70
    1
 43
0
 10
12.99999999999903
 20
9.000000000000057
 10
12.99999999999904
 20
21.00000000000004
 10
20.99999999999903
 20
21.00000000000004
 10
20.99999999999903
 20
9.000000000000055
  0
LWPOLYLINE
  5
1B2
100
AcDbEntity
  8
base
  6
ByLayer
 62
  256
370
   -1
100
AcDbPolyline
 90
    4
 70
    0
 43
0
 10
4.999999999999034
 20
-6.499999999999964
 10
4.999999999999716
 20
-3.061616997868209e-16
 10
62.99999999999923
 20
2.456407201308989e-14
 10
62.9999999999992
 20
-6.500000000000131
  0
LWPOLYLINE
  5
1B3
100
AcDbEntity
  8
base
  6
ByLayer
 62
  256
370
   -1
100
AcDbPolyline
 90
    4
 70
    0
 43
0
 10
62.9999999999992
 20
43.49999999999986
 10
62.99999999999923
 20
37.00000000000002
 10
4.999999999999718
 20
37.00000000000003
 10
4.999999999999036
 20
43.50000000000003
  0
LINE
  5
1B4
100
AcDbEntity
  8
base
  6
ByLayer
 62
  256
370
   -1
100
AcDbLine
 10
67.99999999999903
 20
43.50000000000002
 11
67.99999999999903
 21
-6.499999999999976
  0
LWPOLYLINE
  5
1B5
100
AcDbEntity
  8
base
  6
ByLayer
 62
  256
370
   -1
100
AcDbPolyline
 90
    2
 70
    0
 43
0
 10
-9.667361308434591e-13
 20
-6.499999999999972
 10
-9.636745138455907e-13
 20
43.50000000000003
  0
LEADER
  5
1B6
100
AcDbEntity
  8
dimensions
  6
ByLayer
 62
  256
370
   -1
100
AcDbLeader
  3
Standard
 71
    1
 72
    0
 73
    3
 74
    0
 75
    0
 40
1
 41
10
 76
2
 76
2
 10
-8
 20
19
 30
0
 10
-8
 20
10
 30
0
  0
LINE
  5
1B7
100
AcDbEntity
  8
dimensions
  6
ByLayer
 62
  256
370
  100
100
AcDbLine
 10
-5
 20
19
 11
-10
 21
19
  0
MTEXT
  5
1B8
100
AcDbEntity
  8
dimensions
  6
ByLayer
 62
  256
370
   -1
100
AcDbMText
 10
-12
 20
13
 30
0
 40
4
 41
2.666666666666667
 71
    5
 72
    1
  1
A
  7
unicode
210
0
220
0
230
1
 50
0
 73
    2
 44
1
  0
LINE
  5
1B9
100
AcDbEntity
  8
wall
  6
DASHED2
 62
  256
370
   -1
100
AcDbLine
 10
34.6
 20
22
 11
33.30000000000002
 21
22
  0
LINE
  5
1BA
100
AcDbEntity
  8
wall
  6
DASHED2
 62
  256
370
   -1
100
AcDbLine
 10
33.30000000000002
 20
15
 11
34.6
 21
15
  0
LWPOLYLINE
  5
1BB
100
AcDbEntity
  8
base
  6
ByLayer
 62
  256
370
   -1
100
AcDbPolyline
 90
    4
 70
    1
 43
0
 10
0
 20
-47
 10
5
 20
-47
 10
5
 20
-60
 10
0
 20
-60
  0
LWPOLYLINE
  5
1BC
100
AcDbEntity
  8
base
  6
ByLayer
 62
  256
370
   -1
100
AcDbPolyline
 90
    4
 70
    1
 43
0
 10
63
 20
-47
 10
68
 20
-47
 10
68
 20
-60
 10
63
 20
-60
  0
LWPOLYLINE
  5
1BD
100
AcDbEntity
  8
sand
  6
ByLayer
 62
  256
370
   -1
100
AcDbPolyline
 90
    4
 70
    1
 43
0
 10
5
 20
-48
 10
11.7
 20
-48
 10
11.7
 20
-53
 10
5
 20
-53
  0
LWPOLYLINE
  5
1BE
100
AcDbEntity
  8
sand
  6
ByLayer
 62
  256
370
   -1
100
AcDbPolyline
 90
    4
 70
    1
 43
0
 10
22.3
 20
-48
 10
63
 20
-48
 10
63
 20
-53
 10
22.3
 20
-53
  0
LINE
  5
1BF
100
AcDbEntity
  8
dimensions
  6
ByLayer
 62
  256
370
  100
100
AcDbLine
 10
16.99999999999999
 20
-90
 11
16.99999999999999
 21
-85
  0
LEADER
  5
1C0
100
AcDbEntity
  8
dimensions
  6
ByLayer
 62
  256
370
   -1
100
AcDbLeader
  3
Standard
 71
    1
 72
    0
 73
    3
 74
    0
 75
    0
 40
1
 41
10
 76
2
 76
2
 10
16.99999999999999
 20
-88
 30
0
 10
7.999999999999986
 20
-88
 30
0
  0
MTEXT
  5
1C1
100
AcDbEntity
  8
dimensions
  6
ByLayer
 62
  256
370
   -1
100
AcDbMText
 10
10.11111111111111
 20
-92
 30
0
 40
4
 41
2.222222222222222
 71
    5
 72
    1
  1
B
  7
unicode
210
0
220
0
230
1
 50
0
 73
    2
 44
1
  0
LWPOLYLINE
  5
1C2
100
AcDbEntity
  8
base
  6
ByLayer
 62
  256
370
   -1
100
AcDbPolyline
 90
    7
 70
    0
 43
0
 10
4.999999999999034
 20
-6.499999999999972
 10
4.499999999999034
 20
-7.499999999999972
 10
3.399999999999034
 20
-5.599999999999971
 10
2.399999999999034
 20
-7.099999999999971
 10
1.399999999999034
 20
-5.999999999999972
 10
0.4999999999990333
 20
-7.799999999999971
 10
-9.667361308434591e-13
 20
-6.499999999999972
  0
LWPOLYLINE
  5
1C3
100
AcDbEntity
  8
base
  6
ByLayer
 62
  256
370
   -1
100
AcDbPolyline
 90
    7
 70
    0
 43
0
 10
67.9999999999992
 20
-6.500000000000131
 10
67.4999999999992
 20
-7.500000000000131
 10
66.3999999999992
 20
-5.600000000000131
 10
65.3999999999992
 20
-7.100000000000131
 10
64.3999999999992
 20
-6.000000000000131
 10
63.4999999999992
 20
-7.80000000000013
 10
62.9999999999992
 20
-6.500000000000131
  0
LWPOLYLINE
  5
1C4
100
AcDbEntity
  8
base
  6
ByLayer
 62
  256
370
   -1
100
AcDbPolyline
 90
    7
 70
    0
 43
0
 10
-9.636745138455907e-13
 20
43.50000000000003
 10
0.4999999999990363
 20
44.50000000000003
 10
1.599999999999036
 20
42.60000000000003
 10
2.599999999999036
 20
44.10000000000003
 10
3.599999999999036
 20
43.00000000000003
 10
4.499999999999036
 20
44.80000000000003
 10
4.999999999999036
 20
43.50000000000003
  0
LWPOLYLINE
  5
1C5
100
AcDbEntity
  8
base
  6
ByLayer
 62
  256
370
   -1
100
AcDbPolyline
 90
    7
 70
    0
 43
0
 10
62.9999999999992
 20
43.49999999999986
 10
63.4999999999992
 20
44.49999999999986
 10
64.5999999999992
 20
42.59999999999986
 10
65.5999999999992
 20
44.09999999999986
 10
66.5999999999992
 20
42.99999999999986
 10
67.4999999999992
 20
44.79999999999986
 10
67.9999999999992
 20
43.49999999999986
  0
DIMENSION
  5
1C6
100
AcDbEntity
  8
dimensions
  6
ByLayer
 62
  256
370
   -1
100
AcDbDimension
  2
*D3
 10
10.49999999999904
 20
40
 30
0
 11
11.74999999999904
 21
42.5
 31
0
 70
   32
 71
    5
 72
    0
  3
Standard
 53
0
210
0
220
0
230
1
100
AcDbAlignedDimension
 13
12.99999999999904
 23
28.00000000000004
 33
0
 14
10.49999999999904
 24
30.50000000000004
 34
0
100
AcDbRotatedDimension
  0
DIMENSION
  5
1C7
100
AcDbEntity
  8
dimensions
  6
ByLayer
 62
  256
370
   -1
100
AcDbDimension
  2
*D4
 10
57.49999999999903
 20
40
 30
0
 11
56.24999999999903
 21
42.5
 31
0
 70
   32
 71
    5
 72
    0
  3
Standard
 53
0
210
0
220
0
230
1
100
AcDbAlignedDimension
 13
54.99999999999903
 23
28.00000000000002
 33
0
 14
57.49999999999903
 24
30.50000000000001
 34
0
100
AcDbRotatedDimension
  0
DIMENSION
  5
1C8
100
AcDbEntity
  8
dimensions
  6
ByLayer
 62
  256
370
   -1
100
AcDbDimension
  2
*D5
 10
34.59999999999903
 20
40
 30
0
 11
33.94999999999904
 21
42.5
 31
0
 70
   32
 71
    5
 72
    0
  3
Standard
 53
0
210
0
220
0
230
1
100
AcDbAlignedDimension
 13
33.29999999999905
 23
28.00000000000002
 33
0
 14
34.59999999999903
 24
28.00000000000002
 34
0
100
AcDbRotatedDimension
  0
DIMENSION
  5
1C9
100
AcDbEntity
  8
dimensions
  6
ByLayer
 62
  256
370
   -1
100
AcDbDimension
  2
*D6
 10
10.49999999999904
 20
50
 30
0
 11
7.749999999999379
 21
52.5
 31
0
 70
   32
 71
    5
 72
    0
  3
Standard
 53
0
210
0
220
0
230
1
100
AcDbAlignedDimension
 13
4.999999999999718
 23
33
 33
0
 14
10.49999999999904
 24
30.31578947368421
 34
0
100
AcDbRotatedDimension
  0
DIMENSION
  5
1CA
100
AcDbEntity
  8
dimensions
  6
ByLayer
 62
  256
370
   -1
100
AcDbDimension
  2
*D7
 10
57.49999999999903
 20
50
 30
0
 11
33.99999999999903
 21
52.5
 31
0
 70
   32
 71
    5
 72
    0
  3
Standard
 53
0
210
0
220
0
230
1
100
AcDbAlignedDimension
 13
10.49999999999904
 23
30.31578947368421
 33
0
 14
57.49999999999903
 24
30.50000000000001
 34
0
100
AcDbRotatedDimension
  0
DIMENSION
  5
1CB
100
AcDbEntity
  8
dimensions
  6
ByLayer
 62
  256
370
   -1
100
AcDbDimension
  2
*D8
 10
62.99999999999923
 20
50
 30
0
 11
60.24999999999913
 21
52.5
 31
0
 70
   32
 71
    5
 72
    0
  3
Standard
 53
0
210
0
220
0
230
1
100
AcDbAlignedDimension
 13
57.49999999999903
 23
30.50000000000001
 33
0
 14
62.99999999999923
 24
33.00000000000002
 34
0
100
AcDbRotatedDimension
  0
DIMENSION
  5
1CC
100
AcDbEntity
  8
dimensions
  6
ByLayer
 62
  256
370
   -1
100
AcDbDimension
  2
*D9
 10
75
 20
9.000000000000023
 30
0
 11
72.5
 21
7.750000000000019
 31
0
 70
   32
 71
    5
 72
    0
  3
Standard
 53
0
210
0
220
0
230
1
100
AcDbAlignedDimension
 13
57.49999999999903
 23
6.500000000000012
 33
0
 14
54.99999999999903
 24
9.000000000000025
 34
0
 50
90
100
AcDbRotatedDimension
  0
DIMENSION
  5
1CD
100
AcDbEntity
  8
dimensions
  6
ByLayer
 62
  256
370
   -1
100
AcDbDimension
  2
*D10
 10
75
 20
28.00000000000002
 30
0
 11
72.5
 21
18.50000000000001
 31
0
 70
   32
 71
    5
 72
    0
  3
Standard
 53
0
210
0
220
0
230
1
100
AcDbAlignedDimension
 13
55
 23
9
 33
0
 14
54.99999999999903
 24
28.00000000000002
 34
0
 50
90
100
AcDbRotatedDimension
  0
DIMENSION
  5
1CE
100
AcDbEntity
  8
dimensions
  6
ByLayer
 62
  256
370
   -1
100
AcDbDimension
  2
*D11
 10
84
 20
6.500000000000007
 30
0
 11
81.5
 21
5.250000000000018
 31
0
 70
   32
 71
    5
 72
    0
  3
Standard
 53
0
210
0
220
0
230
1
100
AcDbAlignedDimension
 13
62.99999999999923
 23
4.000000000000025
 33
0
 14
57.49999999999903
 24
6.500000000000011
 34
0
 50
90
100
AcDbRotatedDimension
  0
DIMENSION
  5
1CF
100
AcDbEntity
  8
dimensions
  6
ByLayer
 62
  256
370
   -1
100
AcDbDimension
  2
*D12
 10
84
 20
30.50000000000001
 30
0
 11
81.5
 21
18.50000000000001
 31
0
 70
   32
 71
    5
 72
    0
  3
Standard
 53
0
210
0
220
0
230
1
100
AcDbAlignedDimension
 13
57.49999999999903
 23
6.500000000000012
 33
0
 14
57.49999999999903
 24
30.50000000000001
 34
0
 50
90
100
AcDbRotatedDimension
  0
DIMENSION
  5
1D0
100
AcDbEntity
  8
dimensions
  6
ByLayer
 62
  256
370
   -1
100
AcDbDimension
  2
*D13
 10
84
 20
33
 30
0
 11
81.5
 21
31.75000000000001
 31
0
 70
   32
 71
    5
 72
    0
  3
Standard
 53
0
210
0
220
0
230
1
100
AcDbAlignedDimension
 13
57.49999999999903
 23
30.50000000000001
 33
0
 14
63
 24
33
 34
0
 50
90
100
AcDbRotatedDimension
  0
DIMENSION
  5
1D1
100
AcDbEntity
  8
dimensions
  6
ByLayer
 62
  256
370
   -1
100
AcDbDimension
  2
*D14
 10
75
 20
30.50000000000001
 30
0
 11
72
 21
32
 31
0
 70
   32
 71
    5
 72
    0
  3
Standard
 53
0
210
0
220
0
230
1
100
AcDbAlignedDimension
 13
55
 23
28
 33
0
 14
57.49999999999903
 24
30.50000000000001
 34
0
 50
90
100
AcDbRotatedDimension
  0
LWPOLYLINE
  5
1D2
100
AcDbEntity
  8
metal
  6
ByLayer
 62
  256
370
   -1
100
AcDbPolyline
 90
    4
 70
    1
 43
0
 10
12.5
 20
-46.7
 10
21.5
 20
-46.7
 10
21.5
 20
-47.2
 10
12.5
 20
-47.2
  0
LWPOLYLINE
  5
1D3
100
AcDbEntity
  8
metal
  6
ByLayer
 62
  256
370
   -1
100
AcDbPolyline
 90
    5
 70
    0
 43
0
 10
21.45
 20
-46.7
 10
21.45
 20
-47.10000000000001
 10
21.4
 20
-47.15000000000001
 10
21
 20
-47.15000000000001
 10
21
 20
-47.2
  0
LWPOLYLINE
  5
1D4
100
AcDbEntity
  8
metal
  6
ByLayer
 62
  256
370
   -1
100
AcDbPolyline
 90
    5
 70
    0
 43
0
 10
12.55
 20
-46.7
 10
12.55
 20
-47.10000000000001
 10
12.6
 20
-47.15000000000001
 10
13
 20
-47.15000000000001
 10
13
 20
-47.2
  0
LINE
  5
1D5
100
AcDbEntity
  8
metal
  6
ByLayer
 62
  256
370
   -1
100
AcDbLine
 10
13
 20
-47.15000000000001
 11
20.99999999999903
 21
-47.15000000000001
  0
LWPOLYLINE
  5
1D6
100
AcDbEntity
  8
screed
  6
ByLayer
 62
  256
370
   -1
100
AcDbPolyline
 90
    7
 70
    0
 43
0
 10
5
 20
-47
 10
12.5
 20
-47
 10
12.5
 20
-47.2
 10
13
 20
-47.2
 10
13
 20
-48
 10
5
 20
-48
 10
5
 20
-47
  0
LWPOLYLINE
  5
1D7
100
AcDbEntity
  8
wall
  6
ByLayer
 62
  256
370
   -1
100
AcDbPolyline
 90
    4
 70
    1
 43
0
 10
21
 20
-48.00000000000001
 10
22.3
 20
-48.00000000000001
 10
22.3
 20
-53
 10
21
 20
-53
  0
LWPOLYLINE
  5
1D8
100
AcDbEntity
  8
screed
  6
ByLayer
 62
  256
370
   -1
100
AcDbPolyline
 90
    7
 70
    0
 43
0
 10
21.5
 20
-47
 10
21.5
 20
-47.2
 10
21
 20
-47.2
 10
21
 20
-48.00000000000001
 10
63
 20
-48
 10
63
 20
-47
 10
21.5
 20
-47
  0
DIMENSION
  5
1D9
100
AcDbEntity
  8
dimensions
  6
ByLayer
 62
  256
370
   -1
100
AcDbDimension
  2
*D15
 10
-10
 20
-48
 30
0
 11
-12.5
 21
-47.5
 31
0
 70
   32
 71
    5
  3
Standard
 53
0
210
0
220
0
230
1
100
AcDbAlignedDimension
 13
5
 23
-47
 33
0
 14
5
 24
-48
 34
0
 50
90
100
AcDbRotatedDimension
  0
DIMENSION
  5
1DA
100
AcDbEntity
  8
dimensions
  6
ByLayer
 62
  256
370
   -1
100
AcDbDimension
  2
*D16
 10
80
 20
-48
 30
0
 11
77.5
 21
-50.5
 31
0
 70
   32
 71
    5
  3
Standard
 53
0
210
0
220
0
230
1
100
AcDbAlignedDimension
 13
57.5
 23
-53.00000000000001
 33
0
 14
63
 24
-48
 34
0
 50
90
100
AcDbRotatedDimension
  0
LEADER
  5
1DB
100
AcDbEntity
  8
dimensions
  6
ByLayer
 62
  256
370
   -1
100
AcDbLeader
  3
Standard
 71
    1
 72
    0
 73
    3
 74
    0
 75
    0
 40
1
 41
10
 76
2
 76
2
 10
17
 20
-30
 30
0
 10
8
 20
-30
 30
0
  0
LINE
  5
1DC
100
AcDbEntity
  8
dimensions
  6
ByLayer
 62
  256
370
  100
100
AcDbLine
 10
17
 20
-33
 11
17
 21
-28
  0
MTEXT
  5
1DD
100
AcDbEntity
  8
dimensions
  6
ByLayer
 62
  256
370
   -1
100
AcDbMText
 10
10
 20
-26
 30
0
 40
4
 41
2.222222222222222
 71
    5
 72
    1
  1
B
  7
unicode
210
0
220
0
230
1
 50
0
 73
    2
 44
1
  0
DIMENSION
  5
1DE
100
AcDbEntity
  8
dimensions
  6
ByLayer
 62
  256
370
   -1
100
AcDbDimension
  2
*D18
 10
22.3
 20
-42
 30
0
 11
17
 21
-39.5
 31
0
 70
   32
 71
    5
  3
Standard
 53
0
210
0
220
0
230
1
100
AcDbAlignedDimension
 13
11.7
 23
-48
 33
0
 14
22.3
 24
-48
 34
0
100
AcDbRotatedDimension
  0
DIMENSION
  5
1DF
100
AcDbEntity
  8
dimensions
  6
ByLayer
 62
  256
370
   -1
100
AcDbDimension
  2
*D19
 10
33.29999999999905
 20
40
 30
0
 11
25
 21
42.5
 31
0
 70
   32
 71
    5
 72
    0
  3
Standard
 53
0
210
0
220
0
230
1
100
AcDbAlignedDimension
 13
13
 23
28
 33
0
 14
33.29999999999905
 24
28.00000000000002
 34
0
100
AcDbRotatedDimension
  0
DIMENSION
  5
1E0
100
AcDbEntity
  8
dimensions
  6
ByLayer
 62
  256
370
   -1
100
AcDbDimension
  2
*D20
 10
55
 20
40
 30
0
 11
47
 21
42.5
 31
0
 70
   32
 71
    5
 72
    0
  3
Standard
 53
0
210
0
220
0
230
1
100
AcDbAlignedDimension
 13
34.59999999999903
 23
28.00000000000002
 33
0
 14
55
 24
28
 34
0
100
AcDbRotatedDimension
  0
LWPOLYLINE
  5
1E1
100
AcDbEntity
  8
base
  6
ByLayer
 62
  256
370
   -1
100
AcDbPolyline
 90
    4
 70
    1
 43
0
 10
141
 20
-60
 10
141
 20
-47
 10
137
 20
-47
 10
137
 20
-60
  0
LWPOLYLINE
  5
1E2
100
AcDbEntity
  8
base
  6
ByLayer
 62
  256
370
   -1
100
AcDbPolyline
 90
    4
 70
    1
 43
0
 10
104
 20
-60
 10
104
 20
-47
 10
108
 20
-47
 10
108
 20
-60
  0
LWPOLYLINE
  5
1E3
100
AcDbEntity
  8
sand
  6
ByLayer
 62
  256
370
   -1
100
AcDbPolyline
 90
    4
 70
    1
 43
0
 10
133.3
 20
-53
 10
133.3
 20
-48.00000000000003
 10
137
 20
-48.00000000000003
 10
137
 20
-53
  0
LWPOLYLINE
  5
1E4
100
AcDbEntity
  8
sand
  6
ByLayer
 62
  256
370
   -1
100
AcDbPolyline
 90
    4
 70
    1
 43
0
 10
108
 20
-53
 10
108
 20
-48.00000000000003
 10
118.7
 20
-48.00000000000003
 10
118.7
 20
-53
  0
LWPOLYLINE
  5
1E5
100
AcDbEntity
  8
base
  6
ByLayer
 62
  256
370
   -1
100
AcDbPolyline
 90
    3
 70
    0
 43
0
 10
100
 20
-51
 10
100
 20
-47
 10
104
 20
-47
  0
LWPOLYLINE
  5
1E6
100
AcDbEntity
  8
base
  6
DASHED2
 62
  256
370
   -1
100
AcDbPolyline
 90
    3
 70
    0
 43
0
 10
104
 20
-60
 10
100
 20
-60
 10
100
 20
-51
  0
LWPOLYLINE
  5
1E7
100
AcDbEntity
  8
base
  6
DASHED2
 62
  256
370
   -1
100
AcDbPolyline
 90
    3
 70
    0
 43
0
 10
141
 20
-60
 10
146
 20
-60
 10
146
 20
-51
  0
LWPOLYLINE
  5
1E8
100
AcDbEntity
  8
base
  6
ByLayer
 62
  256
370
   -1
100
AcDbPolyline
 90
    3
 70
    0
 43
0
 10
141
 20
-47
 10
146
 20
-47
 10
146
 20
-51
  0
LWPOLYLINE
  5
1E9
100
AcDbEntity
  8
metal
  6
ByLayer
 62
  256
370
   -1
100
AcDbPolyline
 90
    5
 70
    0
 43
0
 10
132.45
 20
-46.70000000000006
 10
132.45
 20
-47.10000000000003
 10
132.4
 20
-47.15000000000006
 10
132
 20
-47.15000000000006
 10
132
 20
-47.20000000000006
  0
LWPOLYLINE
  5
1EA
100
AcDbEntity
  8
metal
  6
ByLayer
 62
  256
370
   -1
100
AcDbPolyline
 90
    4
 70
    1
 43
0
 10
119.5
 20
-46.70000000000006
 10
132.5
 20
-46.70000000000006
 10
132.5
 20
-47.20000000000006
 10
119.5
 20
-47.20000000000006
  0
LWPOLYLINE
  5
1EB
100
AcDbEntity
  8
metal
  6
ByLayer
 62
  256
370
   -1
100
AcDbPolyline
 90
    5
 70
    0
 43
0
 10
119.55
 20
-46.70000000000006
 10
119.55
 20
-47.10000000000003
 10
119.6
 20
-47.15000000000006
 10
120
 20
-47.15000000000006
 10
120
 20
-47.20000000000006
  0
LINE
  5
1EC
100
AcDbEntity
  8
metal
  6
ByLayer
 62
  256
370
   -1
100
AcDbLine
 10
120
 20
-47.15000000000006
 11
131.999999999999
 21
-47.15000000000006
  0
LWPOLYLINE
  5
1ED
100
AcDbEntity
  8
screed
  6
ByLayer
 62
  256
370
   -1
100
AcDbPolyline
 90
    7
 70
    0
 43
0
 10
132.5
 20
-47.00000000000003
 10
132.5
 20
-47.20000000000006
 10
132
 20
-47.20000000000006
 10
132
 20
-48.00000000000001
 10
137
 20
-48.00000000000003
 10
137
 20
-47.00000000000003
 10
132.5
 20
-47.00000000000003
  0
LWPOLYLINE
  5
1EE
100
AcDbEntity
  8
wall
  6
ByLayer
 62
  256
370
   -1
100
AcDbPolyline
 90
    4
 70
    1
 43
0
 10
118.7
 20
-48.00000000000003
 10
120
 20
-48.00000000000001
 10
120
 20
-53
 10
118.7
 20
-53
  0
LWPOLYLINE
  5
1EF
100
AcDbEntity
  8
screed
  6
ByLayer
 62
  256
370
   -1
100
AcDbPolyline
 90
    7
 70
    0
 43
0
 10
108
 20
-47.00000000000003
 10
119.5
 20
-47.00000000000003
 10
119.5
 20
-47.20000000000006
 10
120
 20
-47.20000000000006
 10
120
 20
-48.00000000000001
 10
108
 20
-48.00000000000003
 10
108
 20
-47.00000000000003
  0
DIMENSION
  5
1F0
100
AcDbEntity
  8
dimensions
  6
ByLayer
 62
  256
370
   -1
100
AcDbDimension
  2
*D21
 10
131.999999999999
 20
-42
 30
0
 11
125.9999999999995
 21
-39.5
 31
0
 70
   32
 71
    5
  3
Standard
 53
0
210
0
220
0
230
1
100
AcDbAlignedDimension
 13
120
 23
-47.20000000000006
 33
0
 14
131.999999999999
 24
-47.15000000000006
 34
0
100
AcDbRotatedDimension
  0
DIMENSION
  5
1F1
100
AcDbEntity
  8
dimensions
  6
ByLayer
 62
  256
370
   -1
100
AcDbDimension
  2
*D22
 10
133.3
 20
-35
 30
0
 11
126
 21
-32.5
 31
0
 70
   32
 71
    5
  3
Standard
 53
0
210
0
220
0
230
1
100
AcDbAlignedDimension
 13
118.7
 23
-48.00000000000003
 33
0
 14
133.3
 24
-48.00000000000003
 34
0
100
AcDbRotatedDimension
  0
CIRCLE
  5
1F2
100
AcDbEntity
  8
dimensions
  6
ByLayer
 62
  256
370
   -1
100
AcDbCircle
 10
120
 20
-47.20000000000006
 40
4.20000000000006
  0
LINE
  5
1F3
100
AcDbEntity
  8
dimensions
  6
ByLayer
 62
  256
370
  100
100
AcDbLine
 10
95
 20
19
 11
90
 21
19
  0
LEADER
  5
1F4
100
AcDbEntity
  8
dimensions
  6
ByLayer
 62
  256
370
   -1
100
AcDbLeader
  3
Standard
 71
    1
 72
    0
 73
    3
 74
    0
 75
    0
 40
1
 41
10
 76
2
 76
2
 10
93
 20
19
 30
0
 10
93
 20
10
 30
0
  0
MTEXT
  5
1F5
100
AcDbEntity
  8
dimensions
  6
ByLayer
 62
  256
370
   -1
100
AcDbMText
 10
97.3333333333333
 20
13
 30
0
 40
4
 41
2.666666666666667
 71
    5
 72
    1
  1
A
  7
unicode
210
0
220
0
230
1
 50
0
 73
    2
 44
1
  0
MTEXT
  5
1F6
100
AcDbEntity
  8
dimensions
  6
ByLayer
 62
  256
370
   -1
100
AcDbMText
 10
40
 20
-20
 30
0
 40
4
 41
9.777777777777777
 71
    5
 72
    1
  1
A-A
  7
unicode
210
0
220
0
230
1
 50
0
 73
    2
 44
1
  0
LINE
  5
1F7
100
AcDbEntity
  8
dimensions
  6
ByLayer
 62
  256
370
   -1
100
AcDbLine
 10
34
 20
-23
 11
46
 21
-23
  0
LEADER
  5
1F8
100
AcDbEntity
  8
dimensions
  6
ByLayer
 62
  256
370
   -1
100
AcDbLeader
  3
Standard
 71
    1
 72
    0
 73
    3
 74
    0
 75
    0
 40
1
 41
10
 76
3
 76
3
 10
117
 20
-44
 30
0
 10
112
 20
-37
 30
0
 10
100
 20
-37
 30
0
  0
MTEXT
  5
1F9
100
AcDbEntity
  8
dimensions
  6
ByLayer
 62
  256
370
   -1
100
AcDbMText
 10
103
 20
-34
 30
0
 40
4
 41
1.777777777777778
 71
    5
 72
    1
  1
C
  7
unicode
210
0
220
0
230
1
 50
0
 73
    2
 44
1
  0
MTEXT
  5
1FA
100
AcDbEntity
  8
dimensions
  6
ByLayer
 62
  256
370
   -1
100
AcDbMText
 10
120
 20
-20
 30
0
 40
4
 41
8.888888888888889
 71
    5
 72
    1
  1
B-B
  7
unicode
210
0
220
0
230
1
 50
0
 73
    2
 44
1
  0
LINE
  5
1FB
100
AcDbEntity
  8
dimensions
  6
ByLayer
 62
  256
370
   -1
100
AcDbLine
 10
115
 20
-23
 11
125
 21
-23
  0
LWPOLYLINE
  5
1FC
100
AcDbEntity
  8
metal
  6
ByLayer
 62
  256
370
   -1
100
AcDbPolyline
 90
    5
 70
    0
 43
0
 10
130.6194195000001
 20
31.49999999999971
 10
130.6194195000001
 20
29.49999999999985
 10
130.8694195
 20
29.24999999999971
 10
132.8694195
 20
29.24999999999971
 10
132.8694195
 20
28.99999999999971
  0
LWPOLYLINE
  5
1FD
100
AcDbEntity
  8
wall
  6
ByLayer
 62
  256
370
   -1
100
AcDbPolyline
 90
    4
 70
    1
 43
0
 10
126.3694195
 20
24.99999999999984
 10
132.8694195
 20
24.99999999999995
 10
132.8694195
 20
0
 10
126.3694195
 20
0
  0
LWPOLYLINE
  5
1FE
100
AcDbEntity
  8
screed
  6
ByLayer
 62
  256
370
   -1
100
AcDbPolyline
 90
    7
 70
    0
 43
0
 10
107.8694195
 20
29.9999999999998
 10
130.3694195
 20
29.99999999999984
 10
130.3694195
 20
28.99999999999971
 10
132.8694195
 20
28.99999999999971
 10
132.8694195
 20
24.99999999999995
 10
107.8694195
 20
24.9999999999998
 10
107.8694195
 20
29.9999999999998
  0
LWPOLYLINE
  5
1FF
100
AcDbEntity
  8
sand
  6
ByLayer
 62
  256
370
   -1
100
AcDbPolyline
 90
    4
 70
    1
 43
0
 10
112.8694195
 20
9.999999999999947
 10
107.8694195
 20
24.9999999999998
 10
126.3694195
 20
24.99999999999984
 10
126.3694195
 20
0
  0
LWPOLYLINE
  5
200
100
AcDbEntity
  8
metal
  6
ByLayer
 62
  256
370
   -1
100
AcDbPolyline
 90
    4
 70
    1
 43
0
 10
130.3694195
 20
31.49999999999971
 10
142.8694195
 20
31.49999999999995
 10
142.8694195
 20
28.99999999999995
 10
130.3694195
 20
28.99999999999971
  0
LINE
  5
201
100
AcDbEntity
  8
metal
  6
ByLayer
 62
  256
370
   -1
100
AcDbLine
 10
132.8694195
 20
29.24999999999971
 11
142.8694195
 21
29.24999999999995
  0
LWPOLYLINE
  5
202
100
AcDbEntity
  8
metal
  6
ByLayer
 62
  256
370
   -1
100
AcDbPolyline
 90
    8
 70
    1
 43
0
 10
112.8694195000001
 20
25.99999999999995
 10
112.8694195
 20
25.59999999999995
 10
127.0173891304862
 20
25.59999999999995
 10
130.517389130486
 20
28.59999999999971
 10
132.3694195000001
 20
28.59999999999995
 10
132.3694195
 20
28.99999999999995
 10
130.3694195
 20
28.99999999999995
 10
126.8694195
 20
25.99999999999995
  0
DIMENSION
  5
203
100
AcDbEntity
  8
dimensions
  6
ByLayer
 62
  256
370
   -1
100
AcDbDimension
  2
*D25
 10
122.8694195
 20
31.49999999999971
 30
0
 11
120.3694195
 21
30.74999999999978
 31
0
 70
   32
  1
3
 71
    5
 72
    0
  3
Standard
 53
0
210
0
220
0
230
1
100
AcDbAlignedDimension
 13
130.3694195
 23
29.99999999999984
 33
0
 14
130.3694195
 24
31.49999999999971
 34
0
 50
90
100
AcDbRotatedDimension
  0
DIMENSION
  5
204
100
AcDbEntity
  8
dimensions
  6
ByLayer
 62
  256
370
   -1
100
AcDbDimension
  2
*D26
 10
132.8694195
 20
37.99999999999994
 30
0
 11
131.6194195
 21
40.49999999999994
 31
0
 70
   32
  1
5
 71
    5
 72
    0
  3
Standard
 53
0
210
0
220
0
230
1
100
AcDbAlignedDimension
 13
130.3694195
 23
31.49999999999971
 33
0
 14
132.8694195
 24
29.24999999999971
 34
0
100
AcDbRotatedDimension
  0
DIMENSION
  5
205
100
AcDbEntity
  8
dimensions
  6
ByLayer
 62
  256
370
   -1
100
AcDbDimension
  2
*D27
 10
138.8694195
 20
31.49999999999995
 30
0
 11
136.3694195
 21
30.24999999999995
 31
0
 70
   32
  1
5
 71
    5
 72
    0
  3
Standard
 53
0
210
0
220
0
230
1
100
AcDbAlignedDimension
 13
142.8694195
 23
28.99999999999995
 33
0
 14
142.8694195
 24
31.49999999999995
 34
0
 50
90
100
AcDbRotatedDimension
  0
MTEXT
  5
206
100
AcDbEntity
  8
dimensions
  6
ByLayer
 62
  256
370
   -1
100
AcDbMText
 10
125
 20
50.59604499999995
 30
0
 40
4
 41
31.88888888888889
 71
    5
 72
    1
  1
C i
  7
unicode
210
0
220
0
230
1
 50
0
 73
    2
 44
1
  0
LINE
  5
207
100
AcDbEntity
  8
dimensions
  6
ByLayer
 62
  256
370
   -1
100
AcDbLine
 10
108
 20
47.59604499999995
 11
142
 21
47.59604499999995
  0
LINE
  5
208
100
AcDbEntity
  8
screed
  6
ByLayer
 62
  256
370
   -1
100
AcDbLine
 10
13
 20
-48
 11
21
 21
-48
  0
LINE
  5
209
100
AcDbEntity
  8
screed
  6
ByLayer
 62
  256
370
   -1
100
AcDbLine
 10
120
 20
-48.00000000000001
 11
132
 21
-48
  0
LWPOLYLINE
  5
20A
100
AcDbEntity
  8
wall
  6
ByLayer
 62
  256
370
   -1
100
AcDbPolyline
 90
    4
 70
    1
 43
0
 10
10.5
 20
-74.5
 10
13
 20
-74.5
 10
13
 20
-54.5
 10
10.5
 20
-54.5
  0
LWPOLYLINE
  5
20B
100
AcDbEntity
  8
wall
  6
ByLayer
 62
  256
370
   -1
100
AcDbPolyline
 90
    4
 70
    1
 43
0
 10
55
 20
-74.5
 10
57.5
 20
-74.5
 10
57.5
 20
-54.5
 10
55
 20
-54.5
  0
LWPOLYLINE
  5
20C
100
AcDbEntity
  8
wall
  6
ByLayer
 62
  256
370
   -1
100
AcDbPolyline
 90
    4
 70
    1
 43
0
 10
33.29999999999905
 20
-54.5
 10
34.59999999999903
 20
-54.5
 10
34.59999999999903
 20
-74.5
 10
33.29999999999905
 20
-74.5
  0
LWPOLYLINE
  5
20D
100
AcDbEntity
  8
wall
  6
ByLayer
 62
  256
370
   -1
100
AcDbPolyline
 90
    4
 70
    1
 43
0
 10
33.29999999999905
 20
-54.5
 10
34.6
 20
-54.5
 10
34.6
 20
-56.5
 10
33.29999999999905
 20
-56.5
  0
ARC
  5
20E
100
AcDbEntity
  8
plastic
  6
ByLayer
 62
  256
370
   -1
100
AcDbCircle
 10
53.90000000000001
 20
-55.6
 40
0.5999999999999943
100
AcDbArc
 50
360
 51
180
  0
ARC
  5
20F
100
AcDbEntity
  8
plastic
  6
DASHED2
 62
  256
370
   -1
100
AcDbCircle
 10
53.90000000000001
 20
-55.6
 40
0.6
100
AcDbArc
 50
180
 51
0
  0
LWPOLYLINE
  5
210
100
AcDbEntity
  8
plastic
  6
ByLayer
 62
  256
370
   -1
100
AcDbPolyline
 90
    4
 70
    0
 43
0
 10
53.30000000000002
 20
-55.6
 10
53.30000000000002
 20
-74
 10
54.50000000000001
 20
-74
 10
54.50000000000001
 20
-55.6
  0
ARC
  5
211
100
AcDbEntity
  8
plastic
  6
ByLayer
 62
  256
370
   -1
100
AcDbCircle
 10
14.09999999999999
 20
-55.6
 40
0.5999999999999943
100
AcDbArc
 50
360
 51
180
  0
ARC
  5
212
100
AcDbEntity
  8
plastic
  6
DASHED2
 62
  256
370
   -1
100
AcDbCircle
 10
14.09999999999998
 20
-55.6
 40
0.6
100
AcDbArc
 50
180
 51
0
  0
LWPOLYLINE
  5
213
100
AcDbEntity
  8
plastic
  6
ByLayer
 62
  256
370
   -1
100
AcDbPolyline
 90
    4
 70
    0
 43
0
 10
13.49999999999999
 20
-55.6
 10
13.49999999999999
 20
-74
 10
14.69999999999998
 20
-74
 10
14.69999999999998
 20
-55.6
  0
LWPOLYLINE
  5
214
100
AcDbEntity
  8
plate
  6
ByLayer
 62
  256
370
   -1
100
AcDbPolyline
 90
    4
 70
    1
 43
0
 10
10.5
 20
-74.5
 10
57.5
 20
-74.5
 10
57.5
 20
-76.5
 10
10.5
 20
-76.5
  0
LWPOLYLINE
  5
215
100
AcDbEntity
  8
plate
  6
ByLayer
 62
  256
370
   -1
100
AcDbPolyline
 90
    4
 70
    1
 43
0
 10
21
 20
-53.00000000000001
 10
57.5
 20
-53.00000000000001
 10
57.5
 20
-54.5
 10
21
 20
-54.5
  0
LWPOLYLINE
  5
216
100
AcDbEntity
  8
plate
  6
ByLayer
 62
  256
370
   -1
100
AcDbPolyline
 90
    4
 70
    1
 43
0
 10
13
 20
-53.00000000000001
 10
21
 20
-53.00000000000001
 10
21
 20
-54.5
 10
13
 20
-54.5
  0
LWPOLYLINE
  5
217
100
AcDbEntity
  8
plastic
  6
DASHED2
 62
  256
370
   -1
100
AcDbPolyline
 90
    4
 70
    0
 43
0
 10
13.5
 20
-55.6
 10
13.5
 20
-46.7
 10
14.69999999999997
 20
-46.7
 10
14.69999999999998
 20
-55.6
  0
LWPOLYLINE
  5
218
100
AcDbEntity
  8
plate
  6
ByLayer
 62
  256
370
   -1
100
AcDbPolyline
 90
    4
 70
    1
 43
0
 10
10.5
 20
-53.00000000000001
 10
11.7
 20
-53
 10
11.7
 20
-54.5
 10
10.5
 20
-54.5
  0
LWPOLYLINE
  5
219
100
AcDbEntity
  8
wall
  6
ByLayer
 62
  256
370
   -1
100
AcDbPolyline
 90
    4
 70
    1
 43
0
 10
11.7
 20
-48
 10
13
 20
-48
 10
13
 20
-54.49999999999999
 10
11.7
 20
-54.49999999999999
  0
DIMENSION
  5
21A
100
AcDbEntity
  8
dimensions
  6
ByLayer
 62
  256
370
   -1
100
AcDbDimension
  2
*D28
 10
-9.999999999999998
 20
-48
 30
0
 11
-12.5
 21
-51.25
 31
0
 70
   32
 71
    5
  3
Standard
 53
0
210
0
220
0
230
1
100
AcDbAlignedDimension
 13
11.7
 23
-54.49999999999999
 33
0
 14
11.7
 24
-48
 34
0
 50
90
100
AcDbRotatedDimension
  0
DIMENSION
  5
21B
100
AcDbEntity
  8
dimensions
  6
ByLayer
 62
  256
370
   -1
100
AcDbDimension
  2
*D29
 10
21
 20
-60
 30
0
 11
17
 21
-57.5
 31
0
 70
   32
 71
    5
  3
Standard
 53
0
210
0
220
0
230
1
100
AcDbAlignedDimension
 13
13
 23
-54.50000539999999
 33
0
 14
21
 24
-54
 34
0
100
AcDbRotatedDimension
  0
LWPOLYLINE
  5
21C
100
AcDbEntity
  8
plastic
  6
DASHED2
 62
  256
370
   -1
100
AcDbPolyline
 90
    4
 70
    0
 43
0
 10
53.30000000000001
 20
-55.60000058622231
 10
53.30000000000003
 20
-46.7
 10
54.5
 20
-46.7
 10
54.50000000000001
 20
-55.6
  0
LWPOLYLINE
  5
21D
100
AcDbEntity
  8
ground
  6
ByLayer
 62
  256
370
   -1
100
AcDbPolyline
 90
   17
 70
    0
 43
0
 10
-5
 20
-51
 10
0
 20
-51
 10
0
 20
-60
 10
5
 20
-60
 10
5
 20
-53
 10
10.5
 20
-53
 10
10.5
 20
-76.5
 10
57.5
 20
-76.5
 10
57.5
 20
-53
 10
63
 20
-53
 10
63
 20
-60
 10
68
 20
-60
 10
68
 20
-51
 10
73
 20
-51
 10
73
 20
-80
 10
-5
 20
-80
 10
-5
 20
-51
  0
DIMENSION
  5
21E
100
AcDbEntity
  8
dimensions
  6
ByLayer
 62
  256
370
   -1
100
AcDbDimension
  2
*D30
 10
-18
 20
-75
 30
0
 11
-20.5
 21
-61.75
 31
0
 70
   32
 71
    5
  3
Standard
 53
0
210
0
220
0
230
1
100
AcDbAlignedDimension
 13
0
 23
-47
 33
0
 14
10.5
 24
-76.5
 34
0
 50
90
100
AcDbRotatedDimension
  0
DIMENSION
  5
21F
100
AcDbEntity
  8
dimensions
  6
ByLayer
 62
  256
370
   -1
100
AcDbDimension
  2
*D31
 10
-10
 20
-74
 30
0
 11
-12.5
 21
-75.5
 31
0
 70
   32
 71
    5
  3
Standard
 53
0
210
0
220
0
230
1
100
AcDbAlignedDimension
 13
10.5
 23
-76.5
 33
0
 14
10.5
 24
-74.5
 34
0
 50
90
100
AcDbRotatedDimension
  0
DIMENSION
  5
220
100
AcDbEntity
  8
dimensions
  6
ByLayer
 62
  256
370
   -1
100
AcDbDimension
  2
*D32
 10
-10
 20
-54
 30
0
 11
-12.5
 21
-64.5
 31
0
 70
   32
 71
    5
  3
Standard
 53
0
210
0
220
0
230
1
100
AcDbAlignedDimension
 13
10.5
 23
-74.5
 33
0
 14
11.7
 24
-54.5
 34
0
 50
90
100
AcDbRotatedDimension
  0
DIMENSION
  5
221
100
AcDbEntity
  8
dimensions
  6
ByLayer
 62
  256
370
   -1
100
AcDbDimension
  2
*D33
 10
80
 20
-53.00000000000001
 30
0
 11
77.5
 21
-61
 31
0
 70
   32
 71
    5
  3
Standard
 53
0
210
0
220
0
230
1
100
AcDbAlignedDimension
 13
57.5
 23
-54.5
 33
0
 14
57.5
 24
-53.00000000000001
 34
0
 50
90
100
AcDbRotatedDimension
  0
LWPOLYLINE
  5
222
100
AcDbEntity
  8
ground
  6
ByLayer
 62
  256
370
   -1
100
AcDbPolyline
 90
   17
 70
    0
 43
0
 10
100
 20
-51
 10
104
 20
-51
 10
104
 20
-60
 10
108
 20
-60
 10
108
 20
-53
 10
110.5
 20
-53
 10
110.5
 20
-76.5
 10
134.5
 20
-76.5
 10
134.5
 20
-53
 10
137
 20
-53
 10
137
 20
-60
 10
141
 20
-60
 10
141
 20
-51
 10
146
 20
-51
 10
146
 20
-80
 10
100
 20
-80
 10
100
 20
-51
  0
LWPOLYLINE
  5
223
100
AcDbEntity
  8
wall
  6
ByLayer
 62
  256
370
   -1
100
AcDbPolyline
 90
    4
 70
    1
 43
0
 10
110.5
 20
-54.49999999999994
 10
113
 20
-54.49999999999994
 10
113
 20
-74.5
 10
110.5
 20
-74.5
  0
LWPOLYLINE
  5
224
100
AcDbEntity
  8
wall
  6
ByLayer
 62
  256
370
   -1
100
AcDbPolyline
 90
    4
 70
    1
 43
0
 10
132
 20
-54.49999999999997
 10
134.5
 20
-54.49999999999997
 10
134.5
 20
-74.5
 10
132
 20
-74.5
  0
LWPOLYLINE
  5
225
100
AcDbEntity
  8
wall
  6
ByLayer
 62
  256
370
   -1
100
AcDbPolyline
 90
    4
 70
    1
 43
0
 10
119
 20
-74.5
 10
119
 20
-56.5
 10
126
 20
-56.5
 10
126
 20
-74.5
  0
ARC
  5
226
100
AcDbEntity
  8
plastic
  6
DASHED2
 62
  256
370
   -1
100
AcDbCircle
 10
134.8
 20
-54.5
 40
0.5
100
AcDbArc
 50
270
 51
360
  0
ARC
  5
227
100
AcDbEntity
  8
plastic
  6
DASHED2
 62
  256
370
   -1
100
AcDbCircle
 10
134.8
 20
-54.5
 40
1.700000000000003
100
AcDbArc
 50
270.0000000000001
 51
360
  0
LWPOLYLINE
  5
228
100
AcDbEntity
  8
plastic
  6
DASHED2
 62
  256
370
   -1
100
AcDbPolyline
 90
    4
 70
    0
 43
0
 10
134.8
 20
-56.19999999999999
 10
131.5
 20
-56.19999999999999
 10
131.5
 20
-54.99999999999997
 10
134.8
 20
-55
  0
ARC
  5
229
100
AcDbEntity
  8
plastic
  6
DASHED2
 62
  256
370
   -1
100
AcDbCircle
 10
110.2
 20
-54.5
 40
0.5
100
AcDbArc
 50
180
 51
270
  0
ARC
  5
22A
100
AcDbEntity
  8
plastic
  6
DASHED2
 62
  256
370
   -1
100
AcDbCircle
 10
110.2
 20
-54.5
 40
1.700000000000003
100
AcDbArc
 50
180
 51
269.9999999999999
  0
ARC
  5
22B
100
AcDbEntity
  8
plastic
  6
DASHED2
 62
  256
370
   -1
100
AcDbCircle
 10
113
 20
-56.69999999999999
 40
0.5
100
AcDbArc
 50
360
 51
90
  0
ARC
  5
22C
100
AcDbEntity
  8
plastic
  6
DASHED2
 62
  256
370
   -1
100
AcDbCircle
 10
113
 20
-56.69999999999999
 40
1.700000000000003
100
AcDbArc
 50
360
 51
89.99999999999994
  0
LWPOLYLINE
  5
22D
100
AcDbEntity
  8
plastic
  6
DASHED2
 62
  256
370
   -1
100
AcDbPolyline
 90
    4
 70
    0
 43
0
 10
113.5
 20
-56.70000064326956
 10
113.5
 20
-74
 10
114.7
 20
-74
 10
114.7
 20
-56.69999944077989
  0
LINE
  5
22E
100
AcDbEntity
  8
plastic
  6
DASHED2
 62
  256
370
   -1
100
AcDbLine
 10
110.1
 20
-56.19999999999999
 11
113
 21
-56.19999999999999
  0
LINE
  5
22F
100
AcDbEntity
  8
plastic
  6
DASHED2
 62
  256
370
   -1
100
AcDbLine
 10
113
 20
-55
 11
110.2
 21
-55
  0
DIMENSION
  5
230
100
AcDbEntity
  8
dimensions
  6
ByLayer
 62
  256
370
   -1
100
AcDbDimension
  2
*D34
 10
126
 20
-70.5
 30
0
 11
122.5
 21
-68
 31
0
 70
   32
 71
    5
  3
Standard
 53
0
210
0
220
0
230
1
100
AcDbAlignedDimension
 13
119
 23
-74.5
 33
0
 14
126
 24
-74.5
 34
0
100
AcDbRotatedDimension
  0
DIMENSION
  5
231
100
AcDbEntity
  8
dimensions
  6
ByLayer
 62
  256
370
   -1
100
AcDbDimension
  2
*D35
 10
131
 20
-56.5
 30
0
 11
128.5
 21
-65.5
 31
0
 70
   32
 71
    5
  3
Standard
 53
0
210
0
220
0
230
1
100
AcDbAlignedDimension
 13
126
 23
-74.5
 33
0
 14
126
 24
-56.5
 34
0
 50
90
100
AcDbRotatedDimension
  0
LWPOLYLINE
  5
232
100
AcDbEntity
  8
plate
  6
ByLayer
 62
  256
370
   -1
100
AcDbPolyline
 90
    4
 70
    1
 43
0
 10
110.5
 20
-76.5
 10
110.5
 20
-74.5
 10
134.5
 20
-74.5
 10
134.5
 20
-76.5
  0
LWPOLYLINE
  5
233
100
AcDbEntity
  8
plastic
  6
DASHED2
 62
  256
370
   -1
100
AcDbPolyline
 90
    4
 70
    0
 43
0
 10
135.3
 20
-54.5
 10
135.3
 20
-46.5
 10
136.5
 20
-46.5
 10
136.5000000000001
 20
-54.5
  0
LWPOLYLINE
  5
234
100
AcDbEntity
  8
plate
  6
ByLayer
 62
  256
370
   -1
100
AcDbPolyline
 90
    4
 70
    1
 43
0
 10
110.5
 20
-54.5
 10
110.5
 20
-53
 10
120
 20
-53
 10
120
 20
-54.49999999999997
  0
LWPOLYLINE
  5
235
100
AcDbEntity
  8
plate
  6
ByLayer
 62
  256
370
   -1
100
AcDbPolyline
 90
    4
 70
    1
 43
0
 10
120
 20
-54.49999999999997
 10
120
 20
-53
 10
132
 20
-53
 10
132
 20
-54.49999999999997
  0
LWPOLYLINE
  5
236
100
AcDbEntity
  8
plastic
  6
DASHED2
 62
  256
370
   -1
100
AcDbPolyline
 90
    4
 70
    0
 43
0
 10
109.7
 20
-54.50000000000001
 10
109.7
 20
-46.69999999999999
 10
108.5
 20
-46.69999999999999
 10
108.5
 20
-54.5
  0
LWPOLYLINE
  5
237
100
AcDbEntity
  8
wall
  6
ByLayer
 62
  256
370
   -1
100
AcDbPolyline
 90
    4
 70
    1
 43
0
 10
132
 20
-48.00000000000001
 10
133.3
 20
-48.00000000000003
 10
133.3
 20
-54.50000000000001
 10
132
 20
-54.50000000000001
  0
LWPOLYLINE
  5
238
100
AcDbEntity
  8
plate
  6
ByLayer
 62
  256
370
   -1
100
AcDbPolyline
 90
    4
 70
    1
 43
0
 10
133.3
 20
-54.50000000000003
 10
133.3
 20
-53
 10
134.5
 20
-53
 10
134.5
 20
-54.50000000000003
  0
ENDSEC
  0
SECTION
  2
OBJECTS
  0
DICTIONARY
  5
C
330
0
100
AcDbDictionary
281
    1
  3
ACAD_GROUP
350
D
  0
DICTIONARY
  5
D
330
C
100
AcDbDictionary
281
    1
  0
ENDSEC
  0
EOF
