999
dxfrw 0.6.3
  0
SECTION
  2
HEADER
  9
$ACADVER
  1
AC1021
  9
$DWGCODEPAGE
  3
ANSI_1252
  9
$INSBASE
 10
0
 20
0
 30
0
  9
$EXTMIN
 10
-30
 20
-100.15
 30
0
  9
$EXTMAX
 10
705.7
 20
278
 30
0
  9
$LIMMIN
 10
0
 20
0
  9
$LIMMAX
 10
420
 20
297
  9
$ORTHOMODE
 70
    0
  9
$REGENMODE
 70
    1
  9
$FILLMODE
 70
    1
  9
$QTEXTMODE
 70
    0
  9
$MIRRTEXT
 70
    0
  9
$LTSCALE
 40
1
  9
$ATTMODE
 70
    0
  9
$TEXTSIZE
 40
2.5
  9
$TRACEWID
 40
15.68
  9
$TEXTSTYLE
  7
STANDARD
  9
$CLAYER
  8
rozmir
  9
$CELTYPE
  6
BYLAYER
  9
$CECOLOR
 62
  256
  9
$CELTSCALE
 40
1
  9
$DISPSILH
 70
    0
  9
$DIMSCALE
 40
1
  9
$DIMASZ
 40
5
  9
$DIMEXO
 40
1
  9
$DIMDLI
 40
3.75
  9
$DIMRND
 40
0
  9
$DIMDLE
 40
0
  9
$DIMEXE
 40
2
  9
$DIMTP
 40
0
  9
$DIMTM
 40
0
  9
$DIMTXT
 40
4
  9
$DIMCEN
 40
2.5
  9
$DIMTSZ
 40
0
  9
$DIMTOL
 70
    0
  9
$DIMLIM
 70
    0
  9
$DIMTIH
 70
    0
  9
$DIMTOH
 70
    0
  9
$DIMSE1
 70
    0
  9
$DIMSE2
 70
    0
  9
$DIMTAD
 70
    1
  9
$DIMZIN
 70
    8
  9
$DIMBLK
  1

  9
$DIMASO
 70
    1
  9
$DIMSHO
 70
    1
  9
$DIMPOST
  1

  9
$DIMAPOST
  1

  9
$DIMALT
 70
    0
  9
$DIMALTD
 70
    3
  9
$DIMALTF
 40
0.03937
  9
$DIMLFAC
 40
1
  9
$DIMTOFL
 70
    1
  9
$DIMTVP
 40
0
  9
$DIMTIX
 70
    0
  9
$DIMSOXD
 70
    0
  9
$DIMSAH
 70
    0
  9
$DIMBLK1
  1

  9
$DIMBLK2
  1

  9
$DIMSTYLE
  2
STANDARD
  9
$DIMCLRD
 70
    0
  9
$DIMCLRE
 70
    0
  9
$DIMCLRT
 70
  256
  9
$DIMTFAC
 40
1
  9
$DIMGAP
 40
1
  9
$DIMJUST
 70
    0
  9
$DIMSD1
 70
    0
  9
$DIMSD2
 70
    0
  9
$DIMTOLJ
 70
    0
  9
$DIMTZIN
 70
    8
  9
$DIMALTZ
 70
    0
  9
$DIMALTTZ
 70
    0
  9
$DIMUPT
 70
    0
  9
$DIMDEC
 70
    1
  9
$DIMTDEC
 70
    2
  9
$DIMALTU
 70
    2
  9
$DIMALTTD
 70
    3
  9
$DIMTXSTY
  7
standard
  9
$DIMAUNIT
 70
    0
  9
$DIMADEC
 70
    0
  9
$DIMALTRND
 40
0
  9
$DIMAZIN
 70
    0
  9
$DIMDSEP
 70
   44
  9
$DIMATFIT
 70
    3
  9
$DIMFRAC
 70
    0
  9
$DIMLDRBLK
  1
STANDARD
  9
$DIMLUNIT
 70
    2
  9
$DIMLWD
 70
   -2
  9
$DIMLWE
 70
   -2
  9
$DIMTMOVE
 70
    0
  9
$DIMFXL
 40
1
  9
$DIMFXLON
 70
    0
  9
$DIMJOGANG
 40
0.7854
  9
$DIMTFILL
 70
    0
  9
$DIMTFILLCLR
 70
    0
  9
$DIMARCSYM
 70
    0
  9
$DIMLTYPE
  6

  9
$DIMLTEX1
  6

  9
$DIMLTEX2
  6

  9
$LUNITS
 70
    2
  9
$LUPREC
 70
    2
  9
$SKETCHINC
 40
1
  9
$FILLETRAD
 40
0
  9
$AUNITS
 70
    0
  9
$AUPREC
 70
    2
  9
$MENU
  1
.
  9
$ELEVATION
 40
0
  9
$PELEVATION
 40
0
  9
$THICKNESS
 40
0
  9
$LIMCHECK
 70
    0
  9
$CHAMFERA
 40
0
  9
$CHAMFERB
 40
0
  9
$CHAMFERC
 40
0
  9
$CHAMFERD
 40
0
  9
$SKPOLY
 70
    0
  9
$USRTIMER
 70
    1
  9
$ANGBASE
 50
0
  9
$ANGDIR
 70
    0
  9
$PDMODE
 70
   34
  9
$PDSIZE
 40
0
  9
$PLINEWID
 40
0
  9
$SPLFRAME
 70
    0
  9
$SPLINETYPE
 70
    2
  9
$SPLINESEGS
 70
    8
  9
$HANDSEED
  5
20000
  9
$SURFTAB1
 70
    6
  9
$SURFTAB2
 70
    6
  9
$SURFTYPE
 70
    6
  9
$SURFU
 70
    6
  9
$SURFV
 70
    6
  9
$UCSBASE
  2

  9
$UCSNAME
  2

  9
$UCSORG
 10
0
 20
0
 30
0
  9
$UCSXDIR
 10
1
 20
0
 30
0
  9
$UCSYDIR
 10
0
 20
1
 30
0
  9
$UCSORTHOREF
  2

  9
$UCSORTHOVIEW
 70
    0
  9
$UCSORGTOP
 10
0
 20
0
 30
0
  9
$UCSORGBOTTOM
 10
0
 20
0
 30
0
  9
$UCSORGLEFT
 10
0
 20
0
 30
0
  9
$UCSORGRIGHT
 10
0
 20
0
 30
0
  9
$UCSORGFRONT
 10
0
 20
0
 30
0
  9
$UCSORGBACK
 10
0
 20
0
 30
0
  9
$PUCSBASE
  2

  9
$PUCSNAME
  2

  9
$PUCSORG
 10
0
 20
0
 30
0
  9
$PUCSXDIR
 10
1
 20
0
 30
0
  9
$PUCSYDIR
 10
0
 20
1
 30
0
  9
$PUCSORTHOREF
  2

  9
$PUCSORTHOVIEW
 70
    0
  9
$PUCSORGTOP
 10
0
 20
0
 30
0
  9
$PUCSORGBOTTOM
 10
0
 20
0
 30
0
  9
$PUCSORGLEFT
 10
0
 20
0
 30
0
  9
$PUCSORGRIGHT
 10
0
 20
0
 30
0
  9
$PUCSORGFRONT
 10
0
 20
0
 30
0
  9
$PUCSORGBACK
 10
0
 20
0
 30
0
  9
$USERI1
 70
    0
  9
$USERI2
 70
    0
  9
$USERI3
 70
    0
  9
$USERI4
 70
    0
  9
$USERI5
 70
    0
  9
$USERR1
 40
0
  9
$USERR2
 40
0
  9
$USERR3
 40
0
  9
$USERR4
 40
0
  9
$USERR5
 40
0
  9
$WORLDVIEW
 70
    1
  9
$SHADEDGE
 70
    3
  9
$SHADEDIF
 70
   70
  9
$TILEMODE
 70
    1
  9
$MAXACTVP
 70
   64
  9
$PINSBASE
 10
7.1
 20
13
 30
0
  9
$PLIMCHECK
 70
    0
  9
$PEXTMIN
 10
0
 20
0
 30
0
  9
$PEXTMAX
 10
0
 20
0
 30
0
  9
$GRIDMODE
 70
    1
  9
$SNAPSTYLE
 70
    0
  9
$GRIDUNIT
 10
0
 20
0
  9
$PLIMMIN
 10
0
 20
0
  9
$PLIMMAX
 10
29.7
 20
21
  9
$UNITMODE
 70
    0
  9
$VISRETAIN
 70
    1
  9
$PLINEGEN
 70
    0
  9
$PSLTSCALE
 70
    1
  9
$TREEDEPTH
 70
 3020
  9
$CMLSTYLE
  2
Standard
  9
$CMLJUST
 70
    0
  9
$CMLSCALE
 40
20
  9
$PROXYGRAPHICS
 70
    1
  9
$MEASUREMENT
 70
    1
  9
$CELWEIGHT
370
   -1
  9
$ENDCAPS
280
    0
  9
$JOINSTYLE
280
    0
  9
$LWDISPLAY
290
    0
  9
$INSUNITS
 70
    5
  9
$HYPERLINKBASE
  1

  9
$STYLESHEET
  1

  9
$XEDIT
290
    1
  9
$CEPSNTYPE
380
    0
  9
$PSTYLEMODE
290
    1
  9
$EXTNAMES
290
    1
  9
$PSVPSCALE
 40
0.125
  9
$OLESTARTUP
290
    0
  9
$SORTENTS
280
  127
  9
$INDEXCTL
280
    0
  9
$HIDETEXT
280
    1
  9
$XCLIPFRAME
290
    0
  9
$HALOGAP
280
    0
  9
$OBSCOLOR
 70
  257
  9
$OBSLTYPE
280
    0
  9
$INTERSECTIONDISPLAY
280
    0
  9
$INTERSECTIONCOLOR
 70
  257
  9
$DIMASSOC
280
    1
  9
$PROJECTNAME
  1

  9
$CAMERADISPLAY
290
    0
  9
$LENSLENGTH
 40
50
  9
$CAMERAHEIGHT
 40
0
  9
$STEPSPERSEC
 40
2
  9
$STEPSIZE
 40
50
  9
$3DDWFPREC
 40
2
  9
$PSOLWIDTH
 40
5
  9
$PSOLHEIGHT
 40
80
  9
$LOFTANG1
 40
1.570796326794897
  9
$LOFTANG2
 40
1.570796326794897
  9
$LOFTMAG1
 40
0
  9
$LOFTMAG2
 40
0
  9
$LOFTPARAM
 70
    7
  9
$LOFTNORMALS
280
    1
  9
$LATITUDE
 40
1
  9
$LONGITUDE
 40
1
  9
$NORTHDIRECTION
 40
0
  9
$TIMEZONE
 70
-8000
  9
$LIGHTGLYPHDISPLAY
280
    1
  9
$TILEMODELIGHTSYNCH
280
    1
  9
$SOLIDHIST
280
    1
  9
$SHOWHIST
280
    1
  9
$DWFFRAME
280
    2
  9
$DGNFRAME
280
    0
  9
$REALWORLDSCALE
290
    1
  9
$INTERFERECOLOR
 62
    1
  9
$CSHADOW
280
    0
  9
$SHADOWPLANELOCATION
 40
0
  0
ENDSEC
  0
SECTION
  2
CLASSES
  0
ENDSEC
  0
SECTION
  2
TABLES
  0
TABLE
  2
VPORT
  5
8
330
0
100
AcDbSymbolTable
 70
    1
  0
VPORT
  5
31
330
2
100
AcDbSymbolTableRecord
100
AcDbViewportTableRecord
  2
*ACTIVE
 70
    0
 10
0
 20
0
 11
1
 21
1
 12
362.1755193905817
 22
141.675311634349
 13
0
 23
0
 14
10
 24
10
 15
10
 25
10
 16
0
 26
0
 36
1
 17
0
 27
0
 37
0
 40
388.6250692520775
 41
1.987870619946092
 42
50
 43
0
 44
0
 50
0
 51
0
 71
    0
 72
  100
 73
    1
 74
    3
 75
    0
 76
    1
 77
    0
 78
    0
281
    0
 65
    1
110
0
120
0
130
0
111
1
121
0
131
0
112
0
122
1
132
0
 79
    0
146
0
348
10020
 60
    7
 61
    5
292
1
282
    1
141
0
142
0
 63
  250
421
3358443
  0
ENDTAB
  0
TABLE
  2
LTYPE
  5
5
330
0
100
AcDbSymbolTable
 70
    4
  0
LTYPE
  5
14
330
5
100
AcDbSymbolTableRecord
100
AcDbLinetypeTableRecord
  2
ByBlock
 70
    0
  3

 72
   65
 73
    0
 40
0
  0
LTYPE
  5
15
330
5
100
AcDbSymbolTableRecord
100
AcDbLinetypeTableRecord
  2
ByLayer
 70
    0
  3

 72
   65
 73
    0
 40
0
  0
LTYPE
  5
16
330
5
100
AcDbSymbolTableRecord
100
AcDbLinetypeTableRecord
  2
Continuous
 70
    0
  3
Solid line
 72
   65
 73
    0
 40
0
  0
LTYPE
  5
32
330
5
100
AcDbSymbolTableRecord
100
AcDbLinetypeTableRecord
  2
DOT
 70
    0
  3
Dot . . . . . . . . . . . . . . . . . . . . . .
 72
   65
 73
    2
 40
6.35
 49
0
 74
    0
 49
-6.35
 74
    0
  0
LTYPE
  5
33
330
5
100
AcDbSymbolTableRecord
100
AcDbLinetypeTableRecord
  2
DOTTINY
 70
    0
  3
Dot (.15x) .....................................
 72
   65
 73
    2
 40
0.9525
 49
0
 74
    0
 49
-0.9525
 74
    0
  0
LTYPE
  5
34
330
5
100
AcDbSymbolTableRecord
100
AcDbLinetypeTableRecord
  2
DOT2
 70
    0
  3
Dot (.5x) .....................................
 72
   65
 73
    2
 40
3.175
 49
0
 74
    0
 49
-3.175
 74
    0
  0
LTYPE
  5
35
330
5
100
AcDbSymbolTableRecord
100
AcDbLinetypeTableRecord
  2
DOTX2
 70
    0
  3
Dot (2x) .  .  .  .  .  .  .  .  .  .  .  .  .
 72
   65
 73
    2
 40
12.7
 49
0
 74
    0
 49
-12.7
 74
    0
  0
LTYPE
  5
36
330
5
100
AcDbSymbolTableRecord
100
AcDbLinetypeTableRecord
  2
DASHED
 70
    0
  3
Dashed _ _ _ _ _ _ _ _ _ _ _ _ _ _ _ _ _
 72
   65
 73
    2
 40
19.05
 49
12.7
 74
    0
 49
-6.35
 74
    0
  0
LTYPE
  5
37
330
5
100
AcDbSymbolTableRecord
100
AcDbLinetypeTableRecord
  2
DASHEDTINY
 70
    0
  3
Dashed (.15x) _ _ _ _ _ _ _ _ _ _ _ _ _ _ _ _ _
 72
   65
 73
    2
 40
2.8575
 49
1.905
 74
    0
 49
-0.9525
 74
    0
  0
LTYPE
  5
38
330
5
100
AcDbSymbolTableRecord
100
AcDbLinetypeTableRecord
  2
DASHED2
 70
    0
  3
Dashed (.5x) _ _ _ _ _ _ _ _ _ _ _ _ _ _ _ _ _
 72
   65
 73
    2
 40
9.524999999999999
 49
6.35
 74
    0
 49
-3.175
 74
    0
  0
LTYPE
  5
39
330
5
100
AcDbSymbolTableRecord
100
AcDbLinetypeTableRecord
  2
DASHEDX2
 70
    0
  3
Dashed (2x) ____  ____  ____  ____  ____  ___
 72
   65
 73
    2
 40
38.09999999999999
 49
25.4
 74
    0
 49
-12.7
 74
    0
  0
LTYPE
  5
3A
330
5
100
AcDbSymbolTableRecord
100
AcDbLinetypeTableRecord
  2
DASHDOT
 70
    0
  3
Dash dot __ . __ . __ . __ . __ . __ . __ . __
 72
   65
 73
    4
 40
25.4
 49
12.7
 74
    0
 49
-6.35
 74
    0
 49
0
 74
    0
 49
-6.35
 74
    0
  0
LTYPE
  5
3B
330
5
100
AcDbSymbolTableRecord
100
AcDbLinetypeTableRecord
  2
DASHDOTTINY
 70
    0
  3
Dash dot (.15x) _._._._._._._._._._._._._._._.
 72
   65
 73
    4
 40
3.81
 49
1.905
 74
    0
 49
-0.9525
 74
    0
 49
0
 74
    0
 49
-0.9525
 74
    0
  0
LTYPE
  5
3C
330
5
100
AcDbSymbolTableRecord
100
AcDbLinetypeTableRecord
  2
DASHDOT2
 70
    0
  3
Dash dot (.5x) _._._._._._._._._._._._._._._.
 72
   65
 73
    4
 40
12.7
 49
6.35
 74
    0
 49
-3.175
 74
    0
 49
0
 74
    0
 49
-3.175
 74
    0
  0
LTYPE
  5
3D
330
5
100
AcDbSymbolTableRecord
100
AcDbLinetypeTableRecord
  2
DASHDOTX2
 70
    0
  3
Dash dot (2x) ____  .  ____  .  ____  .  ___
 72
   65
 73
    4
 40
50.8
 49
25.4
 74
    0
 49
-12.7
 74
    0
 49
0
 74
    0
 49
-12.7
 74
    0
  0
LTYPE
  5
3E
330
5
100
AcDbSymbolTableRecord
100
AcDbLinetypeTableRecord
  2
DIVIDE
 70
    0
  3
Divide ____ . . ____ . . ____ . . ____ . . ____
 72
   65
 73
    6
 40
31.75
 49
12.7
 74
    0
 49
-6.35
 74
    0
 49
0
 74
    0
 49
-6.35
 74
    0
 49
0
 74
    0
 49
-6.35
 74
    0
  0
LTYPE
  5
3F
330
5
100
AcDbSymbolTableRecord
100
AcDbLinetypeTableRecord
  2
DIVIDETINY
 70
    0
  3
Divide (.15x) __..__..__..__..__..__..__..__.._
 72
   65
 73
    6
 40
4.7625
 49
1.905
 74
    0
 49
-0.9525
 74
    0
 49
0
 74
    0
 49
-0.9525
 74
    0
 49
0
 74
    0
 49
-0.9525
 74
    0
  0
LTYPE
  5
40
330
5
100
AcDbSymbolTableRecord
100
AcDbLinetypeTableRecord
  2
DIVIDE2
 70
    0
  3
Divide (.5x) __..__..__..__..__..__..__..__.._
 72
   65
 73
    6
 40
15.875
 49
6.35
 74
    0
 49
-3.175
 74
    0
 49
0
 74
    0
 49
-3.175
 74
    0
 49
0
 74
    0
 49
-3.175
 74
    0
  0
LTYPE
  5
41
330
5
100
AcDbSymbolTableRecord
100
AcDbLinetypeTableRecord
  2
DIVIDEX2
 70
    0
  3
Divide (2x) ________  .  .  ________  .  .  _
 72
   65
 73
    6
 40
63.5
 49
25.4
 74
    0
 49
-12.7
 74
    0
 49
0
 74
    0
 49
-12.7
 74
    0
 49
0
 74
    0
 49
-12.7
 74
    0
  0
LTYPE
  5
42
330
5
100
AcDbSymbolTableRecord
100
AcDbLinetypeTableRecord
  2
BORDER
 70
    0
  3
Border __ __ . __ __ . __ __ . __ __ . __ __ .
 72
   65
 73
    6
 40
44.45
 49
12.7
 74
    0
 49
-6.35
 74
    0
 49
12.7
 74
    0
 49
-6.35
 74
    0
 49
0
 74
    0
 49
-6.35
 74
    0
  0
LTYPE
  5
43
330
5
100
AcDbSymbolTableRecord
100
AcDbLinetypeTableRecord
  2
BORDERTINY
 70
    0
  3
Border (.15x) __.__.__.__.__.__.__.__.__.__.__.
 72
   65
 73
    6
 40
6.6675
 49
1.905
 74
    0
 49
-0.9525
 74
    0
 49
1.905
 74
    0
 49
-0.9525
 74
    0
 49
0
 74
    0
 49
-0.9525
 74
    0
  0
LTYPE
  5
44
330
5
100
AcDbSymbolTableRecord
100
AcDbLinetypeTableRecord
  2
BORDER2
 70
    0
  3
Border (.5x) __.__.__.__.__.__.__.__.__.__.__.
 72
   65
 73
    6
 40
22.225
 49
6.35
 74
    0
 49
-3.175
 74
    0
 49
6.35
 74
    0
 49
-3.175
 74
    0
 49
0
 74
    0
 49
-3.175
 74
    0
  0
LTYPE
  5
45
330
5
100
AcDbSymbolTableRecord
100
AcDbLinetypeTableRecord
  2
BORDERX2
 70
    0
  3
Border (2x) ____  ____  .  ____  ____  .  ___
 72
   65
 73
    6
 40
88.89999999999999
 49
25.4
 74
    0
 49
-12.7
 74
    0
 49
25.4
 74
    0
 49
-12.7
 74
    0
 49
0
 74
    0
 49
-12.7
 74
    0
  0
LTYPE
  5
46
330
5
100
AcDbSymbolTableRecord
100
AcDbLinetypeTableRecord
  2
CENTER
 70
    0
  3
Center ____ _ ____ _ ____ _ ____ _ ____ _ ____
 72
   65
 73
    4
 40
50.8
 49
31.75
 74
    0
 49
-6.35
 74
    0
 49
6.35
 74
    0
 49
-6.35
 74
    0
  0
LTYPE
  5
47
330
5
100
AcDbSymbolTableRecord
100
AcDbLinetypeTableRecord
  2
CENTERTINY
 70
    0
  3
Center (.15x) ___ _ ___ _ ___ _ ___ _ ___ _ ___
 72
   65
 73
    4
 40
7.619999999999999
 49
4.7625
 74
    0
 49
-0.9525
 74
    0
 49
0.9525
 74
    0
 49
-0.9525
 74
    0
  0
LTYPE
  5
48
330
5
100
AcDbSymbolTableRecord
100
AcDbLinetypeTableRecord
  2
CENTER2
 70
    0
  3
Center (.5x) ___ _ ___ _ ___ _ ___ _ ___ _ ___
 72
   65
 73
    4
 40
28.575
 49
19.05
 74
    0
 49
-3.175
 74
    0
 49
3.175
 74
    0
 49
-3.175
 74
    0
  0
LTYPE
  5
49
330
5
100
AcDbSymbolTableRecord
100
AcDbLinetypeTableRecord
  2
CENTERX2
 70
    0
  3
Center (2x) ________  __  ________  __  _____
 72
   65
 73
    4
 40
101.6
 49
63.5
 74
    0
 49
-12.7
 74
    0
 49
12.7
 74
    0
 49
-12.7
 74
    0
  0
ENDTAB
  0
TABLE
  2
LAYER
  5
2
330
0
100
AcDbSymbolTable
 70
    1
  0
LAYER
  5
10
330
2
100
AcDbSymbolTableRecord
100
AcDbLayerTableRecord
  2
0
 70
    0
 62
    7
  6
CONTINUOUS
370
   -3
390
F
1001
LibreCad
1070
    1
  0
LAYER
  5
4A
330
2
100
AcDbSymbolTableRecord
100
AcDbLayerTableRecord
  2
dveri
 70
    0
 62
   96
420
32768
  6
CONTINUOUS
370
   50
390
F
  0
LAYER
  5
4B
330
2
100
AcDbSymbolTableRecord
100
AcDbLayerTableRecord
  2
fasad
 70
    1
 62
    3
  6
CONTINUOUS
370
   50
390
F
  0
LAYER
  5
4C
330
2
100
AcDbSymbolTableRecord
100
AcDbLayerTableRecord
  2
gazoblok
 70
    1
 62
   56
420
8421376
  6
CONTINUOUS
370
   50
390
F
  0
LAYER
  5
4D
330
2
100
AcDbSymbolTableRecord
100
AcDbLayerTableRecord
  2
kronshtein
 70
    0
 62
    5
  6
CONTINUOUS
370
   50
390
F
  0
LAYER
  5
4E
330
2
100
AcDbSymbolTableRecord
100
AcDbLayerTableRecord
  2
lyst
 70
    0
 62
    2
  6
CONTINUOUS
370
   50
390
F
  0
LAYER
  5
4F
330
2
100
AcDbSymbolTableRecord
100
AcDbLayerTableRecord
  2
petli
 70
    0
 62
    6
  6
CONTINUOUS
370
   50
390
F
  0
LAYER
  5
50
330
2
100
AcDbSymbolTableRecord
100
AcDbLayerTableRecord
  2
ramka
 70
    0
 62
  136
420
32896
  6
CONTINUOUS
370
   50
390
F
  0
LAYER
  5
51
330
2
100
AcDbSymbolTableRecord
100
AcDbLayerTableRecord
  2
rozmir
 70
    0
 62
    4
  6
CONTINUOUS
370
   13
390
F
  0
LAYER
  5
52
330
2
100
AcDbSymbolTableRecord
100
AcDbLayerTableRecord
  2
rozmir_lyst
 70
    1
 62
   56
420
8421376
  6
CONTINUOUS
370
   13
390
F
  0
LAYER
  5
53
330
2
100
AcDbSymbolTableRecord
100
AcDbLayerTableRecord
  2
rozmir_otvir
 70
    1
 62
  216
420
8388736
  6
CONTINUOUS
370
    0
390
F
  0
LAYER
  5
54
330
2
100
AcDbSymbolTableRecord
100
AcDbLayerTableRecord
  2
vorota
 70
    0
 62
   96
420
32768
  6
CONTINUOUS
370
   50
390
F
  0
ENDTAB
  0
TABLE
  2
STYLE
  5
3
330
0
100
AcDbSymbolTable
 70
    3
  0
STYLE
  5
55
330
2
100
AcDbSymbolTableRecord
100
AcDbTextStyleTableRecord
  2
Standard
 70
    0
 40
0
 41
1
 50
0
 71
    0
 42
1
  3
txt
  4

  0
ENDTAB
  0
TABLE
  2
VIEW
  5
6
330
0
100
AcDbSymbolTable
 70
    0
  0
ENDTAB
  0
TABLE
  2
UCS
  5
7
330
0
100
AcDbSymbolTable
 70
    0
  0
ENDTAB
  0
TABLE
  2
APPID
  5
9
330
0
100
AcDbSymbolTable
 70
    1
  0
APPID
  5
12
330
9
100
AcDbSymbolTableRecord
100
AcDbRegAppTableRecord
  2
ACAD
 70
    0
  0
APPID
  5
56
330
9
100
AcDbSymbolTableRecord
100
AcDbRegAppTableRecord
  2
LibreCad
 70
    0
  0
ENDTAB
  0
TABLE
  2
DIMSTYLE
  5
A
330
0
100
AcDbSymbolTable
 70
    1
100
AcDbDimStyleTable
 71
    1
  0
DIMSTYLE
105
57
330
A
100
AcDbSymbolTableRecord
100
AcDbDimStyleTableRecord
  2
Standard
 70
    0
 40
1
 41
5
 42
1
 43
0.38
 44
2
 45
0
 46
0
 47
0
 48
0
 49
1
140
4
141
0.09
142
0
143
25.4
144
1
145
0
146
1
147
1
148
0
 71
    0
 72
    0
 73
    0
 74
    1
 75
    0
 76
    0
 77
    0
 78
    8
 79
    0
170
    0
171
    2
172
    0
173
    0
174
    0
175
    0
176
    0
177
    0
178
  256
179
    0
271
    1
272
    4
273
    2
274
    2
275
    0
276
    0
277
    2
278
   44
279
    0
280
    0
281
    0
282
    0
283
    1
284
    0
285
    0
286
    0
288
    0
289
    3
340
standard
341

371
   -2
372
   -2
  0
ENDTAB
  0
TABLE
  2
BLOCK_RECORD
  5
1
330
0
100
AcDbSymbolTable
 70
    2
  0
BLOCK_RECORD
  5
1F
330
1
100
AcDbSymbolTableRecord
100
AcDbBlockTableRecord
  2
*Model_Space
 70
    0
280
    1
281
    0
  0
BLOCK_RECORD
  5
1E
330
1
100
AcDbSymbolTableRecord
100
AcDbBlockTableRecord
  2
*Paper_Space
 70
    0
280
    1
281
    0
  0
BLOCK_RECORD
  5
58
330
1
100
AcDbSymbolTableRecord
100
AcDbBlockTableRecord
  2
*D43
 70
    0
280
    1
281
    0
  0
BLOCK_RECORD
  5
5B
330
1
100
AcDbSymbolTableRecord
100
AcDbBlockTableRecord
  2
*D49
 70
    0
280
    1
281
    0
  0
BLOCK_RECORD
  5
5E
330
1
100
AcDbSymbolTableRecord
100
AcDbBlockTableRecord
  2
*D2
 70
    0
280
    1
281
    0
  0
BLOCK_RECORD
  5
61
330
1
100
AcDbSymbolTableRecord
100
AcDbBlockTableRecord
  2
*D1
 70
    0
280
    1
281
    0
  0
BLOCK_RECORD
  5
64
330
1
100
AcDbSymbolTableRecord
100
AcDbBlockTableRecord
  2
*D54
 70
    0
280
    1
281
    0
  0
BLOCK_RECORD
  5
67
330
1
100
AcDbSymbolTableRecord
100
AcDbBlockTableRecord
  2
*D17
 70
    0
280
    1
281
    0
  0
BLOCK_RECORD
  5
6A
330
1
100
AcDbSymbolTableRecord
100
AcDbBlockTableRecord
  2
*D40
 70
    0
280
    1
281
    0
  0
BLOCK_RECORD
  5
6D
330
1
100
AcDbSymbolTableRecord
100
AcDbBlockTableRecord
  2
*D21
 70
    0
280
    1
281
    0
  0
BLOCK_RECORD
  5
70
330
1
100
AcDbSymbolTableRecord
100
AcDbBlockTableRecord
  2
*D12
 70
    0
280
    1
281
    0
  0
BLOCK_RECORD
  5
73
330
1
100
AcDbSymbolTableRecord
100
AcDbBlockTableRecord
  2
*D20
 70
    0
280
    1
281
    0
  0
BLOCK_RECORD
  5
76
330
1
100
AcDbSymbolTableRecord
100
AcDbBlockTableRecord
  2
*D13
 70
    0
280
    1
281
    0
  0
BLOCK_RECORD
  5
79
330
1
100
AcDbSymbolTableRecord
100
AcDbBlockTableRecord
  2
*D15
 70
    0
280
    1
281
    0
  0
BLOCK_RECORD
  5
7C
330
1
100
AcDbSymbolTableRecord
100
AcDbBlockTableRecord
  2
*D31
 70
    0
280
    1
281
    0
  0
BLOCK_RECORD
  5
7F
330
1
100
AcDbSymbolTableRecord
100
AcDbBlockTableRecord
  2
*D4
 70
    0
280
    1
281
    0
  0
BLOCK_RECORD
  5
82
330
1
100
AcDbSymbolTableRecord
100
AcDbBlockTableRecord
  2
*D28
 70
    0
280
    1
281
    0
  0
BLOCK_RECORD
  5
85
330
1
100
AcDbSymbolTableRecord
100
AcDbBlockTableRecord
  2
*D34
 70
    0
280
    1
281
    0
  0
BLOCK_RECORD
  5
88
330
1
100
AcDbSymbolTableRecord
100
AcDbBlockTableRecord
  2
*D10
 70
    0
280
    1
281
    0
  0
BLOCK_RECORD
  5
8B
330
1
100
AcDbSymbolTableRecord
100
AcDbBlockTableRecord
  2
*D26
 70
    0
280
    1
281
    0
  0
BLOCK_RECORD
  5
8E
330
1
100
AcDbSymbolTableRecord
100
AcDbBlockTableRecord
  2
*D52
 70
    0
280
    1
281
    0
  0
BLOCK_RECORD
  5
91
330
1
100
AcDbSymbolTableRecord
100
AcDbBlockTableRecord
  2
*D33
 70
    0
280
    1
281
    0
  0
BLOCK_RECORD
  5
94
330
1
100
AcDbSymbolTableRecord
100
AcDbBlockTableRecord
  2
*D42
 70
    0
280
    1
281
    0
  0
BLOCK_RECORD
  5
97
330
1
100
AcDbSymbolTableRecord
100
AcDbBlockTableRecord
  2
*D46
 70
    0
280
    1
281
    0
  0
BLOCK_RECORD
  5
9A
330
1
100
AcDbSymbolTableRecord
100
AcDbBlockTableRecord
  2
*D7
 70
    0
280
    1
281
    0
  0
BLOCK_RECORD
  5
9D
330
1
100
AcDbSymbolTableRecord
100
AcDbBlockTableRecord
  2
*D18
 70
    0
280
    1
281
    0
  0
BLOCK_RECORD
  5
A0
330
1
100
AcDbSymbolTableRecord
100
AcDbBlockTableRecord
  2
*D47
 70
    0
280
    1
281
    0
  0
BLOCK_RECORD
  5
A3
330
1
100
AcDbSymbolTableRecord
100
AcDbBlockTableRecord
  2
*D30
 70
    0
280
    1
281
    0
  0
BLOCK_RECORD
  5
A6
330
1
100
AcDbSymbolTableRecord
100
AcDbBlockTableRecord
  2
*D41
 70
    0
280
    1
281
    0
  0
BLOCK_RECORD
  5
A9
330
1
100
AcDbSymbolTableRecord
100
AcDbBlockTableRecord
  2
*D16
 70
    0
280
    1
281
    0
  0
BLOCK_RECORD
  5
AC
330
1
100
AcDbSymbolTableRecord
100
AcDbBlockTableRecord
  2
*D23
 70
    0
280
    1
281
    0
  0
BLOCK_RECORD
  5
AF
330
1
100
AcDbSymbolTableRecord
100
AcDbBlockTableRecord
  2
*D25
 70
    0
280
    1
281
    0
  0
BLOCK_RECORD
  5
B2
330
1
100
AcDbSymbolTableRecord
100
AcDbBlockTableRecord
  2
*D51
 70
    0
280
    1
281
    0
  0
BLOCK_RECORD
  5
B5
330
1
100
AcDbSymbolTableRecord
100
AcDbBlockTableRecord
  2
*D39
 70
    0
280
    1
281
    0
  0
BLOCK_RECORD
  5
B8
330
1
100
AcDbSymbolTableRecord
100
AcDbBlockTableRecord
  2
*D38
 70
    0
280
    1
281
    0
  0
BLOCK_RECORD
  5
BB
330
1
100
AcDbSymbolTableRecord
100
AcDbBlockTableRecord
  2
*D24
 70
    0
280
    1
281
    0
  0
BLOCK_RECORD
  5
BE
330
1
100
AcDbSymbolTableRecord
100
AcDbBlockTableRecord
  2
*D53
 70
    0
280
    1
281
    0
  0
BLOCK_RECORD
  5
C1
330
1
100
AcDbSymbolTableRecord
100
AcDbBlockTableRecord
  2
*D3
 70
    0
280
    1
281
    0
  0
BLOCK_RECORD
  5
C4
330
1
100
AcDbSymbolTableRecord
100
AcDbBlockTableRecord
  2
*D56
 70
    0
280
    1
281
    0
  0
BLOCK_RECORD
  5
C7
330
1
100
AcDbSymbolTableRecord
100
AcDbBlockTableRecord
  2
*D32
 70
    0
280
    1
281
    0
  0
BLOCK_RECORD
  5
CA
330
1
100
AcDbSymbolTableRecord
100
AcDbBlockTableRecord
  2
*D6
 70
    0
280
    1
281
    0
  0
BLOCK_RECORD
  5
CD
330
1
100
AcDbSymbolTableRecord
100
AcDbBlockTableRecord
  2
*D44
 70
    0
280
    1
281
    0
  0
BLOCK_RECORD
  5
D0
330
1
100
AcDbSymbolTableRecord
100
AcDbBlockTableRecord
  2
*D55
 70
    0
280
    1
281
    0
  0
BLOCK_RECORD
  5
D3
330
1
100
AcDbSymbolTableRecord
100
AcDbBlockTableRecord
  2
*D48
 70
    0
280
    1
281
    0
  0
BLOCK_RECORD
  5
D6
330
1
100
AcDbSymbolTableRecord
100
AcDbBlockTableRecord
  2
*D45
 70
    0
280
    1
281
    0
  0
BLOCK_RECORD
  5
D9
330
1
100
AcDbSymbolTableRecord
100
AcDbBlockTableRecord
  2
*D22
 70
    0
280
    1
281
    0
  0
BLOCK_RECORD
  5
DC
330
1
100
AcDbSymbolTableRecord
100
AcDbBlockTableRecord
  2
*D27
 70
    0
280
    1
281
    0
  0
BLOCK_RECORD
  5
DF
330
1
100
AcDbSymbolTableRecord
100
AcDbBlockTableRecord
  2
*D19
 70
    0
280
    1
281
    0
  0
BLOCK_RECORD
  5
E2
330
1
100
AcDbSymbolTableRecord
100
AcDbBlockTableRecord
  2
*D29
 70
    0
280
    1
281
    0
  0
BLOCK_RECORD
  5
E5
330
1
100
AcDbSymbolTableRecord
100
AcDbBlockTableRecord
  2
*D11
 70
    0
280
    1
281
    0
  0
BLOCK_RECORD
  5
E8
330
1
100
AcDbSymbolTableRecord
100
AcDbBlockTableRecord
  2
*D50
 70
    0
280
    1
281
    0
  0
BLOCK_RECORD
  5
EB
330
1
100
AcDbSymbolTableRecord
100
AcDbBlockTableRecord
  2
*D37
 70
    0
280
    1
281
    0
  0
BLOCK_RECORD
  5
EE
330
1
100
AcDbSymbolTableRecord
100
AcDbBlockTableRecord
  2
*D5
 70
    0
280
    1
281
    0
  0
BLOCK_RECORD
  5
F1
330
1
100
AcDbSymbolTableRecord
100
AcDbBlockTableRecord
  2
*D14
 70
    0
280
    1
281
    0
  0
BLOCK_RECORD
  5
F4
330
1
100
AcDbSymbolTableRecord
100
AcDbBlockTableRecord
  2
*D36
 70
    0
280
    1
281
    0
  0
BLOCK_RECORD
  5
F7
330
1
100
AcDbSymbolTableRecord
100
AcDbBlockTableRecord
  2
*D8
 70
    0
280
    1
281
    0
  0
BLOCK_RECORD
  5
FA
330
1
100
AcDbSymbolTableRecord
100
AcDbBlockTableRecord
  2
*D35
 70
    0
280
    1
281
    0
  0
BLOCK_RECORD
  5
FD
330
1
100
AcDbSymbolTableRecord
100
AcDbBlockTableRecord
  2
*D9
 70
    0
280
    1
281
    0
  0
ENDTAB
  0
ENDSEC
  0
SECTION
  2
BLOCKS
  0
BLOCK
  5
20
330
1F
100
AcDbEntity
  8
0
100
AcDbBlockBegin
  2
*Model_Space
 70
    0
 10
0
 20
0
 30
0
  3
*Model_Space
  1

  0
ENDBLK
  5
21
330
1F
100
AcDbEntity
  8
0
100
AcDbBlockEnd
  0
BLOCK
  5
1C
330
1B
100
AcDbEntity
  8
0
100
AcDbBlockBegin
  2
*Paper_Space
 70
    0
 10
0
 20
0
 30
0
  3
*Paper_Space
  1

  0
ENDBLK
  5
1D
330
1F
100
AcDbEntity
  8
0
100
AcDbBlockEnd
  0
BLOCK
  5
59
330
58
100
AcDbEntity
  8
0
100
AcDbBlockBegin
  2
*D43
 70
    1
 10
0
 20
0
  3
*D43
  1

  0
LINE
  5
100
100
AcDbEntity
  8
rozmir
  6
ByBlock
 62
    0
370
   -2
100
AcDbLine
 10
490
 20
121.8999999999999
 11
490
 21
63.2
  0
SOLID
  5
101
100
AcDbEntity
  8
rozmir
  6
ByBlock
 62
    0
370
   -2
100
AcDbTrace
 10
490
 20
121.8999999999999
 30
0
 11
490.8325693155457
 21
116.8999999999999
 31
0
 12
489.1674306844543
 22
116.8999999999999
 32
0
 13
489.1674306844543
 23
116.8999999999999
 33
0
  0
SOLID
  5
102
100
AcDbEntity
  8
rozmir
  6
ByBlock
 62
    0
370
   -2
100
AcDbTrace
 10
490
 20
63.2
 30
0
 11
489.1674306844543
 21
68.2
 31
0
 12
490.8325693155457
 22
68.2
 32
0
 13
490.8325693155457
 23
68.2
 33
0
  0
MTEXT
  5
103
100
AcDbEntity
  8
rozmir
  6
CONTINUOUS
 62
  256
370
   -2
100
AcDbMText
 10
487
 20
92.54999999999994
 30
0
 40
4
 41
9.555555555555802
 71
    5
 72
    1
  1
58,7
  7
standard
210
0
220
0
230
1
 50
90
 73
    2
 44
1
  0
LINE
  5
104
100
AcDbEntity
  8
rozmir
  6
ByBlock
 62
    0
370
   -2
100
AcDbLine
 10
480.1
 20
121.8999999999999
 11
492
 21
121.8999999999999
  0
LINE
  5
105
100
AcDbEntity
  8
rozmir
  6
ByBlock
 62
    0
370
   -2
100
AcDbLine
 10
480.1
 20
63.2
 11
492
 21
63.2
  0
ENDBLK
  5
5A
330
58
100
AcDbEntity
  8
0
100
AcDbBlockEnd
  0
BLOCK
  5
5C
330
5B
100
AcDbEntity
  8
0
100
AcDbBlockBegin
  2
*D49
 70
    1
 10
0
 20
0
  3
*D49
  1

  0
LINE
  5
106
100
AcDbEntity
  8
rozmir
  6
ByBlock
 62
    0
370
   -2
100
AcDbLine
 10
665
 20
163.4
 11
665
 21
111.7
  0
SOLID
  5
107
100
AcDbEntity
  8
rozmir
  6
ByBlock
 62
    0
370
   -2
100
AcDbTrace
 10
665
 20
163.4
 30
0
 11
665.8325693155457
 21
158.4
 31
0
 12
664.1674306844543
 22
158.4
 32
0
 13
664.1674306844543
 23
158.4
 33
0
  0
SOLID
  5
108
100
AcDbEntity
  8
rozmir
  6
ByBlock
 62
    0
370
   -2
100
AcDbTrace
 10
665
 20
111.7
 30
0
 11
664.1674306844543
 21
116.7
 31
0
 12
665.8325693155457
 22
116.7
 32
0
 13
665.8325693155457
 23
116.7
 33
0
  0
MTEXT
  5
109
100
AcDbEntity
  8
rozmir
  6
CONTINUOUS
 62
  256
370
   -2
100
AcDbMText
 10
662
 20
137.55
 30
0
 40
4
 41
8.666666666666913
 71
    5
 72
    1
  1
51,7
  7
standard
210
0
220
0
230
1
 50
90
 73
    2
 44
1
  0
LINE
  5
10A
100
AcDbEntity
  8
rozmir
  6
ByBlock
 62
    0
370
   -2
100
AcDbLine
 10
651.4
 20
163.4
 11
667
 21
163.4
  0
LINE
  5
10B
100
AcDbEntity
  8
rozmir
  6
ByBlock
 62
    0
370
   -2
100
AcDbLine
 10
655.0000000000002
 20
111.7
 11
667
 21
111.7
  0
ENDBLK
  5
5D
330
5B
100
AcDbEntity
  8
0
100
AcDbBlockEnd
  0
BLOCK
  5
5F
330
5E
100
AcDbEntity
  8
0
100
AcDbBlockBegin
  2
*D2
 70
    1
 10
0
 20
0
  3
*D2
  1

  0
LINE
  5
10C
100
AcDbEntity
  8
rozmir_otvir
  6
ByBlock
 62
    0
370
   -2
100
AcDbLine
 10
-1.300000000000011
 20
283
 11
269.7
 21
283
  0
SOLID
  5
10D
100
AcDbEntity
  8
rozmir_otvir
  6
ByBlock
 62
    0
370
   -2
100
AcDbTrace
 10
-1.300000000000011
 20
283
 30
0
 11
3.699999999999989
 21
283.8325693155457
 31
0
 12
3.699999999999989
 22
282.1674306844543
 32
0
 13
3.699999999999989
 23
282.1674306844543
 33
0
  0
SOLID
  5
10E
100
AcDbEntity
  8
rozmir_otvir
  6
ByBlock
 62
    0
370
   -2
100
AcDbTrace
 10
269.7
 20
283
 30
0
 11
264.7
 21
282.1674306844543
 31
0
 12
264.7
 22
283.8325693155457
 32
0
 13
264.7
 23
283.8325693155457
 33
0
  0
MTEXT
  5
10F
100
AcDbEntity
  8
rozmir_otvir
  6
CONTINUOUS
 62
  256
370
   -2
100
AcDbMText
 10
134.2
 20
286
 30
0
 40
4
 41
7.111111111111111
 71
    5
 72
    1
  1
271
  7
standard
210
0
220
0
230
1
 50
0
 73
    2
 44
1
  0
LINE
  5
110
100
AcDbEntity
  8
rozmir_otvir
  6
ByBlock
 62
    0
370
   -2
100
AcDbLine
 10
-1.300000000000001
 20
260
 11
-1.300000000000012
 21
285
  0
LINE
  5
111
100
AcDbEntity
  8
rozmir_otvir
  6
ByBlock
 62
    0
370
   -2
100
AcDbLine
 10
269.7
 20
262.5
 11
269.7
 21
285
  0
ENDBLK
  5
60
330
5E
100
AcDbEntity
  8
0
100
AcDbBlockEnd
  0
BLOCK
  5
62
330
61
100
AcDbEntity
  8
0
100
AcDbBlockBegin
  2
*D1
 70
    1
 10
0
 20
0
  3
*D1
  1

  0
LINE
  5
112
100
AcDbEntity
  8
rozmir_otvir
  6
ByBlock
 62
    0
370
   -2
100
AcDbLine
 10
-29.79999999999998
 20
261.5
 11
-29.8
 21
-5.10702591327572e-15
  0
SOLID
  5
113
100
AcDbEntity
  8
rozmir_otvir
  6
ByBlock
 62
    0
370
   -2
100
AcDbTrace
 10
-29.79999999999998
 20
261.5
 30
0
 11
-28.9674306844543
 21
256.5
 31
0
 12
-30.63256931554566
 22
256.5
 32
0
 13
-30.63256931554566
 23
256.5
 33
0
  0
SOLID
  5
114
100
AcDbEntity
  8
rozmir_otvir
  6
ByBlock
 62
    0
370
   -2
100
AcDbTrace
 10
-29.8
 20
-5.10702591327572e-15
 30
0
 11
-30.63256931554568
 21
4.999999999999995
 31
0
 12
-28.96743068445432
 22
4.999999999999995
 32
0
 13
-28.96743068445432
 23
4.999999999999995
 33
0
  0
MTEXT
  5
115
100
AcDbEntity
  8
rozmir_otvir
  6
CONTINUOUS
 62
  256
370
   -2
100
AcDbMText
 10
-32.79999999999999
 20
130.75
 30
0
 40
4
 41
11.77777777777827
 71
    5
 72
    1
  1
261,5
  7
standard
210
0
220
0
230
1
 50
90
 73
    2
 44
1
  0
LINE
  5
116
100
AcDbEntity
  8
rozmir_otvir
  6
ByBlock
 62
    0
370
   -2
100
AcDbLine
 10
-2.300000000000001
 20
261.5
 11
-31.79999999999998
 21
261.5
  0
LINE
  5
117
100
AcDbEntity
  8
rozmir_otvir
  6
ByBlock
 62
    0
370
   -2
100
AcDbLine
 10
-2.300000000000001
 20
-6.982962677686267e-15
 11
-31.8
 21
-4.86209655344625e-15
  0
ENDBLK
  5
63
330
61
100
AcDbEntity
  8
0
100
AcDbBlockEnd
  0
BLOCK
  5
65
330
64
100
AcDbEntity
  8
0
100
AcDbBlockBegin
  2
*D54
 70
    1
 10
0
 20
0
  3
*D54
  1

  0
LINE
  5
118
100
AcDbEntity
  8
rozmir
  6
ByBlock
 62
    0
370
   -2
100
AcDbLine
 10
-24.99999999999998
 20
260
 11
-25
 21
1.77635683940025e-15
  0
SOLID
  5
119
100
AcDbEntity
  8
rozmir
  6
ByBlock
 62
    0
370
   -2
100
AcDbTrace
 10
-24.99999999999998
 20
260
 30
0
 11
-24.1674306844543
 21
255
 31
0
 12
-25.83256931554566
 22
255
 32
0
 13
-25.83256931554566
 23
255
 33
0
  0
SOLID
  5
11A
100
AcDbEntity
  8
rozmir
  6
ByBlock
 62
    0
370
   -2
100
AcDbTrace
 10
-25
 20
1.77635683940025e-15
 30
0
 11
-25.83256931554568
 21
5.000000000000002
 31
0
 12
-24.16743068445432
 22
5.000000000000002
 32
0
 13
-24.16743068445432
 23
5.000000000000002
 33
0
  0
MTEXT
  5
11B
100
AcDbEntity
  8
rozmir
  6
CONTINUOUS
 62
  256
370
   -2
100
AcDbMText
 10
-27.99999999999999
 20
130
 30
0
 40
4
 41
8.000000000000249
 71
    5
 72
    1
  1
260
  7
standard
210
0
220
0
230
1
 50
90
 73
    2
 44
1
  0
LINE
  5
11C
100
AcDbEntity
  8
rozmir
  6
ByBlock
 62
    0
370
   -2
100
AcDbLine
 10
-1
 20
260
 11
-26.99999999999998
 21
260
  0
LINE
  5
11D
100
AcDbEntity
  8
rozmir
  6
ByBlock
 62
    0
370
   -2
100
AcDbLine
 10
-1
 20
1.224646799147353e-16
 11
-27
 21
2.021286199229721e-15
  0
ENDBLK
  5
66
330
64
100
AcDbEntity
  8
0
100
AcDbBlockEnd
  0
BLOCK
  5
68
330
67
100
AcDbEntity
  8
0
100
AcDbBlockBegin
  2
*D17
 70
    1
 10
0
 20
0
  3
*D17
  1

  0
LINE
  5
11E
100
AcDbEntity
  8
rozmir_lyst
  6
ByBlock
 62
    0
370
   -2
100
AcDbLine
 10
648.6999999999999
 20
181
 11
705.7
 21
181
  0
SOLID
  5
11F
100
AcDbEntity
  8
rozmir_lyst
  6
ByBlock
 62
    0
370
   -2
100
AcDbTrace
 10
648.6999999999999
 20
181
 30
0
 11
653.6999999999999
 21
181.8325693155457
 31
0
 12
653.6999999999999
 22
180.1674306844543
 32
0
 13
653.6999999999999
 23
180.1674306844543
 33
0
  0
SOLID
  5
120
100
AcDbEntity
  8
rozmir_lyst
  6
ByBlock
 62
    0
370
   -2
100
AcDbTrace
 10
705.7
 20
181
 30
0
 11
700.7
 21
180.1674306844543
 31
0
 12
700.7
 22
181.8325693155457
 32
0
 13
700.7
 23
181.8325693155457
 33
0
  0
MTEXT
  5
121
100
AcDbEntity
  8
rozmir_lyst
  6
CONTINUOUS
 62
  256
370
   -2
100
AcDbMText
 10
677.2
 20
184
 30
0
 40
4
 41
4.888888888889136
 71
    5
 72
    1
  1
57
  7
standard
210
0
220
0
230
1
 50
0
 73
    2
 44
1
  0
LINE
  5
122
100
AcDbEntity
  8
rozmir_lyst
  6
ByBlock
 62
    0
370
   -2
100
AcDbLine
 10
648.6999999999999
 20
166.9
 11
648.6999999999999
 21
183
  0
LINE
  5
123
100
AcDbEntity
  8
rozmir_lyst
  6
ByBlock
 62
    0
370
   -2
100
AcDbLine
 10
705.7
 20
166.9
 11
705.7
 21
183
  0
ENDBLK
  5
69
330
67
100
AcDbEntity
  8
0
100
AcDbBlockEnd
  0
BLOCK
  5
6B
330
6A
100
AcDbEntity
  8
0
100
AcDbBlockBegin
  2
*D40
 70
    1
 10
0
 20
0
  3
*D40
  1

  0
LINE
  5
124
100
AcDbEntity
  8
rozmir
  6
ByBlock
 62
    0
370
   -2
100
AcDbLine
 10
355
 20
20.09999999999999
 11
355
 21
184.6
  0
SOLID
  5
125
100
AcDbEntity
  8
rozmir
  6
ByBlock
 62
    0
370
   -2
100
AcDbTrace
 10
355
 20
20.09999999999999
 30
0
 11
354.1674306844543
 21
25.09999999999999
 31
0
 12
355.8325693155457
 22
25.09999999999999
 32
0
 13
355.8325693155457
 23
25.09999999999999
 33
0
  0
SOLID
  5
126
100
AcDbEntity
  8
rozmir
  6
ByBlock
 62
    0
370
   -2
100
AcDbTrace
 10
355
 20
184.6
 30
0
 11
355.8325693155457
 21
179.6
 31
0
 12
354.1674306844543
 22
179.6
 32
0
 13
354.1674306844543
 23
179.6
 33
0
  0
MTEXT
  5
127
100
AcDbEntity
  8
rozmir
  6
CONTINUOUS
 62
  256
370
   -2
100
AcDbMText
 10
352
 20
102.35
 30
0
 40
4
 41
12.22222222222272
 71
    5
 72
    1
  1
164,5
  7
standard
210
0
220
0
230
1
 50
90
 73
    2
 44
1
  0
LINE
  5
128
100
AcDbEntity
  8
rozmir
  6
ByBlock
 62
    0
370
   -2
100
AcDbLine
 10
346
 20
20.1
 11
357
 21
20.09999999999999
  0
LINE
  5
129
100
AcDbEntity
  8
rozmir
  6
ByBlock
 62
    0
370
   -2
100
AcDbLine
 10
346.0000000000001
 20
184.6
 11
357
 21
184.6
  0
ENDBLK
  5
6C
330
6A
100
AcDbEntity
  8
0
100
AcDbBlockEnd
  0
BLOCK
  5
6E
330
6D
100
AcDbEntity
  8
0
100
AcDbBlockBegin
  2
*D21
 70
    1
 10
0
 20
0
  3
*D21
  1

  0
LINE
  5
12A
100
AcDbEntity
  8
rozmir
  6
ByBlock
 62
    0
370
   -2
100
AcDbLine
 10
-10
 20
-9.999999999999998
 11
21.7
 21
-10
  0
SOLID
  5
12B
100
AcDbEntity
  8
rozmir
  6
ByBlock
 62
    0
370
   -2
100
AcDbTrace
 10
0
 20
-10
 30
0
 11
-5
 21
-10.83256931554568
 31
0
 12
-5
 22
-9.167430684454319
 32
0
 13
-5
 23
-9.167430684454319
 33
0
  0
SOLID
  5
12C
100
AcDbEntity
  8
rozmir
  6
ByBlock
 62
    0
370
   -2
100
AcDbTrace
 10
11.7
 20
-10
 30
0
 11
16.7
 21
-9.16743068445432
 31
0
 12
16.7
 22
-10.83256931554568
 32
0
 13
16.7
 23
-10.83256931554568
 33
0
  0
MTEXT
  5
12D
100
AcDbEntity
  8
rozmir
  6
CONTINUOUS
 62
  256
370
   -2
100
AcDbMText
 10
5.850000000000002
 20
-7
 30
0
 40
4
 41
7.777777777777777
 71
    5
 72
    1
  1
11,7
  7
standard
210
0
220
0
230
1
 50
0
 73
    2
 44
1
  0
LINE
  5
12E
100
AcDbEntity
  8
rozmir
  6
ByBlock
 62
    0
370
   -2
100
AcDbLine
 10
-1.83697019872103e-16
 20
-1
 11
-3.673940397442059e-16
 21
-12
  0
LINE
  5
12F
100
AcDbEntity
  8
rozmir
  6
ByBlock
 62
    0
370
   -2
100
AcDbLine
 10
11.7
 20
-1.500000000000001
 11
11.7
 21
-12
  0
ENDBLK
  5
6F
330
6D
100
AcDbEntity
  8
0
100
AcDbBlockEnd
  0
BLOCK
  5
71
330
70
100
AcDbEntity
  8
0
100
AcDbBlockBegin
  2
*D12
 70
    1
 10
0
 20
0
  3
*D12
  1

  0
LINE
  5
130
100
AcDbEntity
  8
rozmir_lyst
  6
ByBlock
 62
    0
370
   -2
100
AcDbLine
 10
134.4
 20
265
 11
259.4
 21
265
  0
SOLID
  5
131
100
AcDbEntity
  8
rozmir_lyst
  6
ByBlock
 62
    0
370
   -2
100
AcDbTrace
 10
134.4
 20
265
 30
0
 11
139.4
 21
265.8325693155457
 31
0
 12
139.4
 22
264.1674306844543
 32
0
 13
139.4
 23
264.1674306844543
 33
0
  0
SOLID
  5
132
100
AcDbEntity
  8
rozmir_lyst
  6
ByBlock
 62
    0
370
   -2
100
AcDbTrace
 10
259.4
 20
265
 30
0
 11
254.4
 21
264.1674306844543
 31
0
 12
254.4
 22
265.8325693155457
 32
0
 13
254.4
 23
265.8325693155457
 33
0
  0
MTEXT
  5
133
100
AcDbEntity
  8
rozmir_lyst
  6
CONTINUOUS
 62
  256
370
   -2
100
AcDbMText
 10
196.9
 20
268
 30
0
 40
4
 41
7.111111111111359
 71
    5
 72
    1
  1
125
  7
standard
210
0
220
0
230
1
 50
0
 73
    2
 44
1
  0
LINE
  5
134
100
AcDbEntity
  8
rozmir_lyst
  6
ByBlock
 62
    0
370
   -2
100
AcDbLine
 10
134.4
 20
252
 11
134.4
 21
267
  0
LINE
  5
135
100
AcDbEntity
  8
rozmir_lyst
  6
ByBlock
 62
    0
370
   -2
100
AcDbLine
 10
259.4
 20
252
 11
259.4
 21
267
  0
ENDBLK
  5
72
330
70
100
AcDbEntity
  8
0
100
AcDbBlockEnd
  0
BLOCK
  5
74
330
73
100
AcDbEntity
  8
0
100
AcDbBlockBegin
  2
*D20
 70
    1
 10
0
 20
0
  3
*D20
  1

  0
LINE
  5
136
100
AcDbEntity
  8
rozmir_lyst
  6
ByBlock
 62
    0
370
   -2
100
AcDbLine
 10
277
 20
251
 11
277
 21
4
  0
SOLID
  5
137
100
AcDbEntity
  8
rozmir_lyst
  6
ByBlock
 62
    0
370
   -2
100
AcDbTrace
 10
277
 20
251
 30
0
 11
277.8325693155457
 21
246
 31
0
 12
276.1674306844543
 22
246
 32
0
 13
276.1674306844543
 23
246
 33
0
  0
SOLID
  5
138
100
AcDbEntity
  8
rozmir_lyst
  6
ByBlock
 62
    0
370
   -2
100
AcDbTrace
 10
277
 20
4
 30
0
 11
276.1674306844543
 21
9
 31
0
 12
277.8325693155457
 22
9
 32
0
 13
277.8325693155457
 23
9
 33
0
  0
MTEXT
  5
139
100
AcDbEntity
  8
rozmir_lyst
  6
CONTINUOUS
 62
  256
370
   -2
100
AcDbMText
 10
274
 20
127.5
 30
0
 40
4
 41
8.444444444444443
 71
    5
 72
    1
  1
247
  7
standard
210
0
220
0
230
1
 50
90
 73
    2
 44
1
  0
LINE
  5
13A
100
AcDbEntity
  8
rozmir_lyst
  6
ByBlock
 62
    0
370
   -2
100
AcDbLine
 10
260.4
 20
251
 11
279
 21
251
  0
LINE
  5
13B
100
AcDbEntity
  8
rozmir_lyst
  6
ByBlock
 62
    0
370
   -2
100
AcDbLine
 10
260.4
 20
4
 11
279
 21
4
  0
ENDBLK
  5
75
330
73
100
AcDbEntity
  8
0
100
AcDbBlockEnd
  0
BLOCK
  5
77
330
76
100
AcDbEntity
  8
0
100
AcDbBlockBegin
  2
*D13
 70
    1
 10
0
 20
0
  3
*D13
  1

  0
LINE
  5
13C
100
AcDbEntity
  8
rozmir_lyst
  6
ByBlock
 62
    0
370
   -2
100
AcDbLine
 10
9
 20
203
 11
71.5
 21
203
  0
SOLID
  5
13D
100
AcDbEntity
  8
rozmir_lyst
  6
ByBlock
 62
    0
370
   -2
100
AcDbTrace
 10
9
 20
203
 30
0
 11
14
 21
203.8325693155457
 31
0
 12
14
 22
202.1674306844543
 32
0
 13
14
 23
202.1674306844543
 33
0
  0
SOLID
  5
13E
100
AcDbEntity
  8
rozmir_lyst
  6
ByBlock
 62
    0
370
   -2
100
AcDbTrace
 10
71.5
 20
203
 30
0
 11
66.5
 21
202.1674306844543
 31
0
 12
66.5
 22
203.8325693155457
 32
0
 13
66.5
 23
203.8325693155457
 33
0
  0
MTEXT
  5
13F
100
AcDbEntity
  8
rozmir_lyst
  6
CONTINUOUS
 62
  256
370
   -2
100
AcDbMText
 10
40.25
 20
206
 30
0
 40
4
 41
9.555555555556051
 71
    5
 72
    1
  1
62,5
  7
standard
210
0
220
0
230
1
 50
0
 73
    2
 44
1
  0
LINE
  5
140
100
AcDbEntity
  8
rozmir_lyst
  6
ByBlock
 62
    0
370
   -2
100
AcDbLine
 10
9
 20
193
 11
9
 21
205
  0
LINE
  5
141
100
AcDbEntity
  8
rozmir_lyst
  6
ByBlock
 62
    0
370
   -2
100
AcDbLine
 10
71.5
 20
192.9
 11
71.5
 21
205
  0
ENDBLK
  5
78
330
76
100
AcDbEntity
  8
0
100
AcDbBlockEnd
  0
BLOCK
  5
7A
330
79
100
AcDbEntity
  8
0
100
AcDbBlockBegin
  2
*D15
 70
    1
 10
0
 20
0
  3
*D15
  1

  0
LINE
  5
142
100
AcDbEntity
  8
rozmir_lyst
  6
ByBlock
 62
    0
370
   -2
100
AcDbLine
 10
-0.9999999999999982
 20
175
 11
24.29999999999995
 21
175
  0
SOLID
  5
143
100
AcDbEntity
  8
rozmir_lyst
  6
ByBlock
 62
    0
370
   -2
100
AcDbTrace
 10
9.000000000000002
 20
175
 30
0
 11
4.000000000000002
 21
174.1674306844543
 31
0
 12
4.000000000000002
 22
175.8325693155457
 32
0
 13
4.000000000000002
 23
175.8325693155457
 33
0
  0
SOLID
  5
144
100
AcDbEntity
  8
rozmir_lyst
  6
ByBlock
 62
    0
370
   -2
100
AcDbTrace
 10
14.29999999999995
 20
175
 30
0
 11
19.29999999999995
 21
175.8325693155457
 31
0
 12
19.29999999999995
 22
174.1674306844543
 32
0
 13
19.29999999999995
 23
174.1674306844543
 33
0
  0
MTEXT
  5
145
100
AcDbEntity
  8
rozmir_lyst
  6
CONTINUOUS
 62
  256
370
   -2
100
AcDbMText
 10
3.872222222222444
 20
179
 30
0
 40
4
 41
6.44444444444494
 71
    5
 72
    1
  1
5,3
  7
standard
210
0
220
0
230
1
 50
0
 73
    2
 44
1
  0
LINE
  5
146
100
AcDbEntity
  8
rozmir_lyst
  6
ByBlock
 62
    0
370
   -2
100
AcDbLine
 10
9.000000000000002
 20
190.9
 11
9.000000000000002
 21
173
  0
LINE
  5
147
100
AcDbEntity
  8
rozmir_lyst
  6
ByBlock
 62
    0
370
   -2
100
AcDbLine
 10
14.29999999999995
 20
190.7
 11
14.29999999999995
 21
173
  0
ENDBLK
  5
7B
330
79
100
AcDbEntity
  8
0
100
AcDbBlockEnd
  0
BLOCK
  5
7D
330
7C
100
AcDbEntity
  8
0
100
AcDbBlockBegin
  2
*D31
 70
    1
 10
0
 20
0
  3
*D31
  1

  0
LINE
  5
148
100
AcDbEntity
  8
rozmir
  6
ByBlock
 62
    0
370
   -2
100
AcDbLine
 10
340
 20
250.1
 11
463.7
 21
250.1
  0
SOLID
  5
149
100
AcDbEntity
  8
rozmir
  6
ByBlock
 62
    0
370
   -2
100
AcDbTrace
 10
340
 20
250.1
 30
0
 11
345
 21
250.9325693155457
 31
0
 12
345
 22
249.2674306844543
 32
0
 13
345
 23
249.2674306844543
 33
0
  0
SOLID
  5
14A
100
AcDbEntity
  8
rozmir
  6
ByBlock
 62
    0
370
   -2
100
AcDbTrace
 10
463.7
 20
250.1
 30
0
 11
458.7
 21
249.2674306844543
 31
0
 12
458.7
 22
250.9325693155457
 32
0
 13
458.7
 23
250.9325693155457
 33
0
  0
MTEXT
  5
14B
100
AcDbEntity
  8
rozmir
  6
CONTINUOUS
 62
  256
370
   -2
100
AcDbMText
 10
401.85
 20
253.1
 30
0
 40
4
 41
11.77777777777803
 71
    5
 72
    1
  1
123,7
  7
standard
210
0
220
0
230
1
 50
0
 73
    2
 44
1
  0
LINE
  5
14C
100
AcDbEntity
  8
rozmir
  6
ByBlock
 62
    0
370
   -2
100
AcDbLine
 10
340
 20
245.3
 11
340
 21
252.1
  0
LINE
  5
14D
100
AcDbEntity
  8
rozmir
  6
ByBlock
 62
    0
370
   -2
100
AcDbLine
 10
463.7
 20
245.3
 11
463.7
 21
252.1
  0
ENDBLK
  5
7E
330
7C
100
AcDbEntity
  8
0
100
AcDbBlockEnd
  0
BLOCK
  5
80
330
7F
100
AcDbEntity
  8
0
100
AcDbBlockBegin
  2
*D4
 70
    1
 10
0
 20
0
  3
*D4
  1

  0
LINE
  5
14E
100
AcDbEntity
  8
rozmir
  6
ByBlock
 62
    0
370
   -2
100
AcDbLine
 10
0
 20
273
 11
268.4
 21
273
  0
SOLID
  5
14F
100
AcDbEntity
  8
rozmir
  6
ByBlock
 62
    0
370
   -2
100
AcDbTrace
 10
0
 20
273
 30
0
 11
5
 21
273.8325693155457
 31
0
 12
5
 22
272.1674306844543
 32
0
 13
5
 23
272.1674306844543
 33
0
  0
SOLID
  5
150
100
AcDbEntity
  8
rozmir
  6
ByBlock
 62
    0
370
   -2
100
AcDbTrace
 10
268.4
 20
273
 30
0
 11
263.4
 21
272.1674306844543
 31
0
 12
263.4
 22
273.8325693155457
 32
0
 13
263.4
 23
273.8325693155457
 33
0
  0
MTEXT
  5
151
100
AcDbEntity
  8
rozmir
  6
CONTINUOUS
 62
  256
370
   -2
100
AcDbMText
 10
134.2
 20
276
 30
0
 40
4
 41
13.11111111111136
 71
    5
 72
    1
  1
268,4
  7
standard
210
0
220
0
230
1
 50
0
 73
    2
 44
1
  0
LINE
  5
152
100
AcDbEntity
  8
rozmir
  6
ByBlock
 62
    0
370
   -2
100
AcDbLine
 10
6.123233995736766e-17
 20
261
 11
1.224646799147353e-16
 21
275
  0
LINE
  5
153
100
AcDbEntity
  8
rozmir
  6
ByBlock
 62
    0
370
   -2
100
AcDbLine
 10
268.4
 20
261
 11
268.4
 21
275
  0
ENDBLK
  5
81
330
7F
100
AcDbEntity
  8
0
100
AcDbBlockEnd
  0
BLOCK
  5
83
330
82
100
AcDbEntity
  8
0
100
AcDbBlockBegin
  2
*D28
 70
    1
 10
0
 20
0
  3
*D28
  1

  0
LINE
  5
154
100
AcDbEntity
  8
rozmir
  6
ByBlock
 62
    0
370
   -2
100
AcDbLine
 10
274.9999999999999
 20
120.5
 11
274.9999999999999
 21
201.5
  0
SOLID
  5
155
100
AcDbEntity
  8
rozmir
  6
ByBlock
 62
    0
370
   -2
100
AcDbTrace
 10
274.9999999999999
 20
120.5
 30
0
 11
274.1674306844542
 21
125.5
 31
0
 12
275.8325693155456
 22
125.5
 32
0
 13
275.8325693155456
 23
125.5
 33
0
  0
SOLID
  5
156
100
AcDbEntity
  8
rozmir
  6
ByBlock
 62
    0
370
   -2
100
AcDbTrace
 10
274.9999999999999
 20
201.5
 30
0
 11
275.8325693155456
 21
196.5
 31
0
 12
274.1674306844542
 22
196.5
 32
0
 13
274.1674306844542
 23
196.5
 33
0
  0
MTEXT
  5
157
100
AcDbEntity
  8
rozmir
  6
CONTINUOUS
 62
  256
370
   -2
100
AcDbMText
 10
271.9999999999999
 20
161
 30
0
 40
4
 41
4
 71
    5
 72
    1
  1
81
  7
standard
210
0
220
0
230
1
 50
90
 73
    2
 44
1
  0
LINE
  5
158
100
AcDbEntity
  8
rozmir
  6
ByBlock
 62
    0
370
   -2
100
AcDbLine
 10
269.9
 20
120.5
 11
276.9999999999999
 21
120.5
  0
LINE
  5
159
100
AcDbEntity
  8
rozmir
  6
ByBlock
 62
    0
370
   -2
100
AcDbLine
 10
269.8999999999999
 20
201.5
 11
276.9999999999999
 21
201.5
  0
ENDBLK
  5
84
330
82
100
AcDbEntity
  8
0
100
AcDbBlockEnd
  0
BLOCK
  5
86
330
85
100
AcDbEntity
  8
0
100
AcDbBlockBegin
  2
*D34
 70
    1
 10
0
 20
0
  3
*D34
  1

  0
LINE
  5
15A
100
AcDbEntity
  8
rozmir
  6
ByBlock
 62
    0
370
   -2
100
AcDbLine
 10
403.9
 20
220.1
 11
463.2
 21
220.1
  0
SOLID
  5
15B
100
AcDbEntity
  8
rozmir
  6
ByBlock
 62
    0
370
   -2
100
AcDbTrace
 10
403.9
 20
220.1
 30
0
 11
408.9
 21
220.9325693155457
 31
0
 12
408.9
 22
219.2674306844543
 32
0
 13
408.9
 23
219.2674306844543
 33
0
  0
SOLID
  5
15C
100
AcDbEntity
  8
rozmir
  6
ByBlock
 62
    0
370
   -2
100
AcDbTrace
 10
463.2
 20
220.1
 30
0
 11
458.2
 21
219.2674306844543
 31
0
 12
458.2
 22
220.9325693155457
 32
0
 13
458.2
 23
220.9325693155457
 33
0
  0
MTEXT
  5
15D
100
AcDbEntity
  8
rozmir
  6
CONTINUOUS
 62
  256
370
   -2
100
AcDbMText
 10
433.55
 20
223.1
 30
0
 40
4
 41
9.555555555556051
 71
    5
 72
    1
  1
59,3
  7
standard
210
0
220
0
230
1
 50
0
 73
    2
 44
1
  0
LINE
  5
15E
100
AcDbEntity
  8
rozmir
  6
ByBlock
 62
    0
370
   -2
100
AcDbLine
 10
403.9
 20
221.1
 11
403.9
 21
222.1
  0
LINE
  5
15F
100
AcDbEntity
  8
rozmir
  6
ByBlock
 62
    0
370
   -2
100
AcDbLine
 10
463.2
 20
221.1
 11
463.2
 21
222.1
  0
ENDBLK
  5
87
330
85
100
AcDbEntity
  8
0
100
AcDbBlockEnd
  0
BLOCK
  5
89
330
88
100
AcDbEntity
  8
0
100
AcDbBlockBegin
  2
*D10
 70
    1
 10
0
 20
0
  3
*D10
  1

  0
LINE
  5
160
100
AcDbEntity
  8
rozmir
  6
ByBlock
 62
    0
370
   -2
100
AcDbLine
 10
5.300000000000001
 20
105
 11
25.6
 21
105
  0
SOLID
  5
161
100
AcDbEntity
  8
rozmir
  6
ByBlock
 62
    0
370
   -2
100
AcDbTrace
 10
15.3
 20
105
 30
0
 11
10.3
 21
104.1674306844543
 31
0
 12
10.3
 22
105.8325693155457
 32
0
 13
10.3
 23
105.8325693155457
 33
0
  0
SOLID
  5
162
100
AcDbEntity
  8
rozmir
  6
ByBlock
 62
    0
370
   -2
100
AcDbTrace
 10
15.6
 20
105
 30
0
 11
20.6
 21
105.8325693155457
 31
0
 12
20.6
 22
104.1674306844543
 32
0
 13
20.6
 23
104.1674306844543
 33
0
  0
MTEXT
  5
163
100
AcDbEntity
  8
rozmir
  6
CONTINUOUS
 62
  256
370
   -2
100
AcDbMText
 10
19.82222222222234
 20
108
 30
0
 40
4
 41
6.444444444444692
 71
    5
 72
    1
  1
0,3
  7
standard
210
0
220
0
230
1
 50
0
 73
    2
 44
1
  0
LINE
  5
164
100
AcDbEntity
  8
rozmir
  6
ByBlock
 62
    0
370
   -2
100
AcDbLine
 10
15.3
 20
106
 11
15.3
 21
107
  0
LINE
  5
165
100
AcDbEntity
  8
rozmir
  6
ByBlock
 62
    0
370
   -2
100
AcDbLine
 10
15.6
 20
106
 11
15.6
 21
107
  0
ENDBLK
  5
8A
330
88
100
AcDbEntity
  8
0
100
AcDbBlockEnd
  0
BLOCK
  5
8C
330
8B
100
AcDbEntity
  8
0
100
AcDbBlockBegin
  2
*D26
 70
    1
 10
0
 20
0
  3
*D26
  1

  0
LINE
  5
166
100
AcDbEntity
  8
rozmir
  6
ByBlock
 62
    0
370
   -2
100
AcDbLine
 10
275
 20
-7.105427357601002e-15
 11
275
 21
39.50000000000001
  0
SOLID
  5
167
100
AcDbEntity
  8
rozmir
  6
ByBlock
 62
    0
370
   -2
100
AcDbTrace
 10
275
 20
-7.105427357601002e-15
 30
0
 11
274.1674306844543
 21
4.999999999999993
 31
0
 12
275.8325693155457
 22
4.999999999999993
 32
0
 13
275.8325693155457
 23
4.999999999999993
 33
0
  0
SOLID
  5
168
100
AcDbEntity
  8
rozmir
  6
ByBlock
 62
    0
370
   -2
100
AcDbTrace
 10
275
 20
39.50000000000001
 30
0
 11
275.8325693155457
 21
34.50000000000001
 31
0
 12
274.1674306844543
 22
34.50000000000001
 32
0
 13
274.1674306844543
 23
34.50000000000001
 33
0
  0
MTEXT
  5
169
100
AcDbEntity
  8
rozmir
  6
CONTINUOUS
 62
  256
370
   -2
100
AcDbMText
 10
272
 20
19.75
 30
0
 40
4
 41
9.555555555556051
 71
    5
 72
    1
  1
39,5
  7
standard
210
0
220
0
230
1
 50
90
 73
    2
 44
1
  0
LINE
  5
16A
100
AcDbEntity
  8
rozmir
  6
ByBlock
 62
    0
370
   -2
100
AcDbLine
 10
269.4
 20
-1.133107779529596e-15
 11
277
 21
-9.371642916660193e-15
  0
LINE
  5
16B
100
AcDbEntity
  8
rozmir
  6
ByBlock
 62
    0
370
   -2
100
AcDbLine
 10
269.9
 20
39.50000000000001
 11
277
 21
39.50000000000001
  0
ENDBLK
  5
8D
330
8B
100
AcDbEntity
  8
0
100
AcDbBlockEnd
  0
BLOCK
  5
8F
330
8E
100
AcDbEntity
  8
0
100
AcDbBlockBegin
  2
*D52
 70
    1
 10
0
 20
0
  3
*D52
  1

  0
LINE
  5
16C
100
AcDbEntity
  8
rozmir
  6
ByBlock
 62
    0
370
   -2
100
AcDbLine
 10
0
 20
212
 11
20.3
 21
212
  0
SOLID
  5
16D
100
AcDbEntity
  8
rozmir
  6
ByBlock
 62
    0
370
   -2
100
AcDbTrace
 10
10
 20
212
 30
0
 11
5
 21
211.1674306844543
 31
0
 12
5
 22
212.8325693155457
 32
0
 13
5
 23
212.8325693155457
 33
0
  0
SOLID
  5
16E
100
AcDbEntity
  8
rozmir
  6
ByBlock
 62
    0
370
   -2
100
AcDbTrace
 10
10.3
 20
212
 30
0
 11
15.3
 21
212.8325693155457
 31
0
 12
15.3
 22
211.1674306844543
 32
0
 13
15.3
 23
211.1674306844543
 33
0
  0
MTEXT
  5
16F
100
AcDbEntity
  8
rozmir
  6
CONTINUOUS
 62
  256
370
   -2
100
AcDbMText
 10
14.52222222222235
 20
215
 30
0
 40
4
 41
6.444444444444692
 71
    5
 72
    1
  1
0,3
  7
standard
210
0
220
0
230
1
 50
0
 73
    2
 44
1
  0
LINE
  5
170
100
AcDbEntity
  8
rozmir
  6
ByBlock
 62
    0
370
   -2
100
AcDbLine
 10
10
 20
212
 11
10
 21
210
  0
LINE
  5
171
100
AcDbEntity
  8
rozmir
  6
ByBlock
 62
    0
370
   -2
100
AcDbLine
 10
10.3
 20
212
 11
10.3
 21
210
  0
ENDBLK
  5
90
330
8E
100
AcDbEntity
  8
0
100
AcDbBlockEnd
  0
BLOCK
  5
92
330
91
100
AcDbEntity
  8
0
100
AcDbBlockBegin
  2
*D33
 70
    1
 10
0
 20
0
  3
*D33
  1

  0
LINE
  5
172
100
AcDbEntity
  8
rozmir
  6
ByBlock
 62
    0
370
   -2
100
AcDbLine
 10
340.5
 20
220.1
 11
399.9
 21
220.1
  0
SOLID
  5
173
100
AcDbEntity
  8
rozmir
  6
ByBlock
 62
    0
370
   -2
100
AcDbTrace
 10
340.5
 20
220.1
 30
0
 11
345.5
 21
220.9325693155457
 31
0
 12
345.5
 22
219.2674306844543
 32
0
 13
345.5
 23
219.2674306844543
 33
0
  0
SOLID
  5
174
100
AcDbEntity
  8
rozmir
  6
ByBlock
 62
    0
370
   -2
100
AcDbTrace
 10
399.9
 20
220.1
 30
0
 11
394.9
 21
219.2674306844543
 31
0
 12
394.9
 22
220.9325693155457
 32
0
 13
394.9
 23
220.9325693155457
 33
0
  0
MTEXT
  5
175
100
AcDbEntity
  8
rozmir
  6
CONTINUOUS
 62
  256
370
   -2
100
AcDbMText
 10
370.2
 20
223.1
 30
0
 40
4
 41
10.00000000000025
 71
    5
 72
    1
  1
59,4
  7
standard
210
0
220
0
230
1
 50
0
 73
    2
 44
1
  0
LINE
  5
176
100
AcDbEntity
  8
rozmir
  6
ByBlock
 62
    0
370
   -2
100
AcDbLine
 10
340.5
 20
221.1
 11
340.5
 21
222.1
  0
LINE
  5
177
100
AcDbEntity
  8
rozmir
  6
ByBlock
 62
    0
370
   -2
100
AcDbLine
 10
399.9
 20
221.1
 11
399.9
 21
222.1
  0
ENDBLK
  5
93
330
91
100
AcDbEntity
  8
0
100
AcDbBlockEnd
  0
BLOCK
  5
95
330
94
100
AcDbEntity
  8
0
100
AcDbBlockBegin
  2
*D42
 70
    1
 10
0
 20
0
  3
*D42
  1

  0
LINE
  5
178
100
AcDbEntity
  8
rozmir
  6
ByBlock
 62
    0
370
   -2
100
AcDbLine
 10
490
 20
184.6
 11
490
 21
125.8999999999999
  0
SOLID
  5
179
100
AcDbEntity
  8
rozmir
  6
ByBlock
 62
    0
370
   -2
100
AcDbTrace
 10
490
 20
184.6
 30
0
 11
490.8325693155457
 21
179.6
 31
0
 12
489.1674306844543
 22
179.6
 32
0
 13
489.1674306844543
 23
179.6
 33
0
  0
SOLID
  5
17A
100
AcDbEntity
  8
rozmir
  6
ByBlock
 62
    0
370
   -2
100
AcDbTrace
 10
490
 20
125.8999999999999
 30
0
 11
489.1674306844543
 21
130.8999999999999
 31
0
 12
490.8325693155457
 22
130.8999999999999
 32
0
 13
490.8325693155457
 23
130.8999999999999
 33
0
  0
MTEXT
  5
17B
100
AcDbEntity
  8
rozmir
  6
CONTINUOUS
 62
  256
370
   -2
100
AcDbMText
 10
487
 20
155.2499999999999
 30
0
 40
4
 41
9.555555555555802
 71
    5
 72
    1
  1
58,7
  7
standard
210
0
220
0
230
1
 50
90
 73
    2
 44
1
  0
LINE
  5
17C
100
AcDbEntity
  8
rozmir
  6
ByBlock
 62
    0
370
   -2
100
AcDbLine
 10
480.1000000000001
 20
184.6
 11
492
 21
184.6
  0
LINE
  5
17D
100
AcDbEntity
  8
rozmir
  6
ByBlock
 62
    0
370
   -2
100
AcDbLine
 10
480.1
 20
125.8999999999999
 11
492
 21
125.8999999999999
  0
ENDBLK
  5
96
330
94
100
AcDbEntity
  8
0
100
AcDbBlockEnd
  0
BLOCK
  5
98
330
97
100
AcDbEntity
  8
0
100
AcDbBlockBegin
  2
*D46
 70
    1
 10
0
 20
0
  3
*D46
  1

  0
LINE
  5
17E
100
AcDbEntity
  8
rozmir
  6
ByBlock
 62
    0
370
   -2
100
AcDbLine
 10
650
 20
173.2
 11
704.3
 21
173.2
  0
SOLID
  5
17F
100
AcDbEntity
  8
rozmir
  6
ByBlock
 62
    0
370
   -2
100
AcDbTrace
 10
650
 20
173.2
 30
0
 11
655
 21
174.0325693155457
 31
0
 12
655
 22
172.3674306844543
 32
0
 13
655
 23
172.3674306844543
 33
0
  0
SOLID
  5
180
100
AcDbEntity
  8
rozmir
  6
ByBlock
 62
    0
370
   -2
100
AcDbTrace
 10
704.3
 20
173.2
 30
0
 11
699.3
 21
172.3674306844543
 31
0
 12
699.3
 22
174.0325693155457
 32
0
 13
699.3
 23
174.0325693155457
 33
0
  0
MTEXT
  5
181
100
AcDbEntity
  8
rozmir
  6
CONTINUOUS
 62
  256
370
   -2
100
AcDbMText
 10
677.15
 20
176.2
 30
0
 40
4
 41
10.0000000000005
 71
    5
 72
    1
  1
54,3
  7
standard
210
0
220
0
230
1
 50
0
 73
    2
 44
1
  0
LINE
  5
182
100
AcDbEntity
  8
rozmir
  6
ByBlock
 62
    0
370
   -2
100
AcDbLine
 10
650
 20
164.8
 11
650
 21
175.2
  0
LINE
  5
183
100
AcDbEntity
  8
rozmir
  6
ByBlock
 62
    0
370
   -2
100
AcDbLine
 10
704.3
 20
164.8
 11
704.3
 21
175.2
  0
ENDBLK
  5
99
330
97
100
AcDbEntity
  8
0
100
AcDbBlockEnd
  0
BLOCK
  5
9B
330
9A
100
AcDbEntity
  8
0
100
AcDbBlockBegin
  2
*D7
 70
    1
 10
0
 20
0
  3
*D7
  1

  0
LINE
  5
184
100
AcDbEntity
  8
rozmir
  6
ByBlock
 62
    0
370
   -2
100
AcDbLine
 10
134.4
 20
-87
 11
258.1
 21
-87
  0
SOLID
  5
185
100
AcDbEntity
  8
rozmir
  6
ByBlock
 62
    0
370
   -2
100
AcDbTrace
 10
134.4
 20
-87
 30
0
 11
139.4
 21
-86.16743068445432
 31
0
 12
139.4
 22
-87.83256931554568
 32
0
 13
139.4
 23
-87.83256931554568
 33
0
  0
SOLID
  5
186
100
AcDbEntity
  8
rozmir
  6
ByBlock
 62
    0
370
   -2
100
AcDbTrace
 10
258.1
 20
-87
 30
0
 11
253.1
 21
-87.83256931554568
 31
0
 12
253.1
 22
-86.16743068445432
 32
0
 13
253.1
 23
-86.16743068445432
 33
0
  0
MTEXT
  5
187
100
AcDbEntity
  8
rozmir
  6
CONTINUOUS
 62
  256
370
   -2
100
AcDbMText
 10
196.25
 20
-84
 30
0
 40
4
 41
11.77777777777803
 71
    5
 72
    1
  1
123,7
  7
standard
210
0
220
0
230
1
 50
0
 73
    2
 44
1
  0
LINE
  5
188
100
AcDbEntity
  8
rozmir
  6
ByBlock
 62
    0
370
   -2
100
AcDbLine
 10
134.4
 20
-91
 11
134.4
 21
-85
  0
LINE
  5
189
100
AcDbEntity
  8
rozmir
  6
ByBlock
 62
    0
370
   -2
100
AcDbLine
 10
258.1
 20
-91
 11
258.1
 21
-85
  0
ENDBLK
  5
9C
330
9A
100
AcDbEntity
  8
0
100
AcDbBlockEnd
  0
BLOCK
  5
9E
330
9D
100
AcDbEntity
  8
0
100
AcDbBlockBegin
  2
*D18
 70
    1
 10
0
 20
0
  3
*D18
  1

  0
LINE
  5
18A
100
AcDbEntity
  8
rozmir_lyst
  6
ByBlock
 62
    0
370
   -2
100
AcDbLine
 10
715
 20
165.9
 11
715
 21
-1.4
  0
SOLID
  5
18B
100
AcDbEntity
  8
rozmir_lyst
  6
ByBlock
 62
    0
370
   -2
100
AcDbTrace
 10
715
 20
165.9
 30
0
 11
715.8325693155457
 21
160.9
 31
0
 12
714.1674306844543
 22
160.9
 32
0
 13
714.1674306844543
 23
160.9
 33
0
  0
SOLID
  5
18C
100
AcDbEntity
  8
rozmir_lyst
  6
ByBlock
 62
    0
370
   -2
100
AcDbTrace
 10
715
 20
-1.4
 30
0
 11
714.1674306844543
 21
3.6
 31
0
 12
715.8325693155457
 22
3.6
 32
0
 13
715.8325693155457
 23
3.6
 33
0
  0
MTEXT
  5
18D
100
AcDbEntity
  8
rozmir_lyst
  6
CONTINUOUS
 62
  256
370
   -2
100
AcDbMText
 10
712
 20
82.25
 30
0
 40
4
 41
11.77777777777827
 71
    5
 72
    1
  1
167,3
  7
standard
210
0
220
0
230
1
 50
90
 73
    2
 44
1
  0
LINE
  5
18E
100
AcDbEntity
  8
rozmir_lyst
  6
ByBlock
 62
    0
370
   -2
100
AcDbLine
 10
706.7
 20
165.9
 11
717
 21
165.9
  0
LINE
  5
18F
100
AcDbEntity
  8
rozmir_lyst
  6
ByBlock
 62
    0
370
   -2
100
AcDbLine
 10
706.7
 20
-1.4
 11
717
 21
-1.4
  0
ENDBLK
  5
9F
330
9D
100
AcDbEntity
  8
0
100
AcDbBlockEnd
  0
BLOCK
  5
A1
330
A0
100
AcDbEntity
  8
0
100
AcDbBlockBegin
  2
*D47
 70
    1
 10
0
 20
0
  3
*D47
  1

  0
LINE
  5
190
100
AcDbEntity
  8
rozmir
  6
ByBlock
 62
    0
370
   -2
100
AcDbLine
 10
645
 20
163.8
 11
645
 21
-3.552713678800501e-15
  0
SOLID
  5
191
100
AcDbEntity
  8
rozmir
  6
ByBlock
 62
    0
370
   -2
100
AcDbTrace
 10
645
 20
163.8
 30
0
 11
645.8325693155457
 21
158.8
 31
0
 12
644.1674306844543
 22
158.8
 32
0
 13
644.1674306844543
 23
158.8
 33
0
  0
SOLID
  5
192
100
AcDbEntity
  8
rozmir
  6
ByBlock
 62
    0
370
   -2
100
AcDbTrace
 10
645
 20
-3.552713678800501e-15
 30
0
 11
644.1674306844543
 21
4.999999999999996
 31
0
 12
645.8325693155457
 22
4.999999999999996
 32
0
 13
645.8325693155457
 23
4.999999999999996
 33
0
  0
MTEXT
  5
193
100
AcDbEntity
  8
rozmir
  6
CONTINUOUS
 62
  256
370
   -2
100
AcDbMText
 10
642
 20
81.90000000000001
 30
0
 40
4
 41
11.77777777777827
 71
    5
 72
    1
  1
163,8
  7
standard
210
0
220
0
230
1
 50
90
 73
    2
 44
1
  0
LINE
  5
194
100
AcDbEntity
  8
rozmir
  6
ByBlock
 62
    0
370
   -2
100
AcDbLine
 10
649
 20
163.8
 11
643
 21
163.8
  0
LINE
  5
195
100
AcDbEntity
  8
rozmir
  6
ByBlock
 62
    0
370
   -2
100
AcDbLine
 10
649
 20
-3.430248998885766e-15
 11
643
 21
-3.30778431897103e-15
  0
ENDBLK
  5
A2
330
A0
100
AcDbEntity
  8
0
100
AcDbBlockEnd
  0
BLOCK
  5
A4
330
A3
100
AcDbEntity
  8
0
100
AcDbBlockBegin
  2
*D30
 70
    1
 10
0
 20
0
  3
*D30
  1

  0
LINE
  5
196
100
AcDbEntity
  8
rozmir
  6
ByBlock
 62
    0
370
   -2
100
AcDbLine
 10
100
 20
-5
 11
100
 21
15.39999999999997
  0
SOLID
  5
197
100
AcDbEntity
  8
rozmir
  6
ByBlock
 62
    0
370
   -2
100
AcDbTrace
 10
100
 20
5
 30
0
 11
100.8325693155457
 21
0
 31
0
 12
99.16743068445432
 22
0
 32
0
 13
99.16743068445432
 23
0
 33
0
  0
SOLID
  5
198
100
AcDbEntity
  8
rozmir
  6
ByBlock
 62
    0
370
   -2
100
AcDbTrace
 10
100
 20
5.399999999999967
 30
0
 11
99.16743068445432
 21
10.39999999999997
 31
0
 12
100.8325693155457
 22
10.39999999999997
 32
0
 13
100.8325693155457
 23
10.39999999999997
 33
0
  0
MTEXT
  5
199
100
AcDbEntity
  8
rozmir
  6
CONTINUOUS
 62
  256
370
   -2
100
AcDbMText
 10
97
 20
9.844444444444411
 30
0
 40
4
 41
6.888888888888889
 71
    5
 72
    1
  1
0,4
  7
standard
210
0
220
0
230
1
 50
90
 73
    2
 44
1
  0
LINE
  5
19A
100
AcDbEntity
  8
rozmir
  6
ByBlock
 62
    0
370
   -2
100
AcDbLine
 10
99
 20
5
 11
98
 21
5
  0
LINE
  5
19B
100
AcDbEntity
  8
rozmir
  6
ByBlock
 62
    0
370
   -2
100
AcDbLine
 10
99
 20
5.399999999999967
 11
98
 21
5.399999999999967
  0
ENDBLK
  5
A5
330
A3
100
AcDbEntity
  8
0
100
AcDbBlockEnd
  0
BLOCK
  5
A7
330
A6
100
AcDbEntity
  8
0
100
AcDbBlockBegin
  2
*D41
 70
    1
 10
0
 20
0
  3
*D41
  1

  0
LINE
  5
19C
100
AcDbEntity
  8
rozmir
  6
ByBlock
 62
    0
370
   -2
100
AcDbLine
 10
490
 20
59.2
 11
490
 21
0.4999999999999892
  0
SOLID
  5
19D
100
AcDbEntity
  8
rozmir
  6
ByBlock
 62
    0
370
   -2
100
AcDbTrace
 10
490
 20
59.2
 30
0
 11
490.8325693155457
 21
54.2
 31
0
 12
489.1674306844543
 22
54.2
 32
0
 13
489.1674306844543
 23
54.2
 33
0
  0
SOLID
  5
19E
100
AcDbEntity
  8
rozmir
  6
ByBlock
 62
    0
370
   -2
100
AcDbTrace
 10
490
 20
0.4999999999999892
 30
0
 11
489.1674306844543
 21
5.499999999999989
 31
0
 12
490.8325693155457
 22
5.499999999999989
 32
0
 13
490.8325693155457
 23
5.499999999999989
 33
0
  0
MTEXT
  5
19F
100
AcDbEntity
  8
rozmir
  6
CONTINUOUS
 62
  256
370
   -2
100
AcDbMText
 10
487
 20
29.84999999999999
 30
0
 40
4
 41
9.555555555555802
 71
    5
 72
    1
  1
58,7
  7
standard
210
0
220
0
230
1
 50
90
 73
    2
 44
1
  0
LINE
  5
1A0
100
AcDbEntity
  8
rozmir
  6
ByBlock
 62
    0
370
   -2
100
AcDbLine
 10
480.1
 20
59.2
 11
492
 21
59.2
  0
LINE
  5
1A1
100
AcDbEntity
  8
rozmir
  6
ByBlock
 62
    0
370
   -2
100
AcDbLine
 10
475.6000000000001
 20
0.4999999999999892
 11
492
 21
0.4999999999999892
  0
ENDBLK
  5
A8
330
A6
100
AcDbEntity
  8
0
100
AcDbBlockEnd
  0
BLOCK
  5
AA
330
A9
100
AcDbEntity
  8
0
100
AcDbBlockBegin
  2
*D16
 70
    1
 10
0
 20
0
  3
*D16
  1

  0
LINE
  5
1A2
100
AcDbEntity
  8
rozmir
  6
ByBlock
 62
    0
370
   -2
100
AcDbLine
 10
59.89999999999999
 20
105
 11
80.19999999999999
 21
105
  0
SOLID
  5
1A3
100
AcDbEntity
  8
rozmir
  6
ByBlock
 62
    0
370
   -2
100
AcDbTrace
 10
69.89999999999999
 20
105
 30
0
 11
64.89999999999999
 21
104.1674306844543
 31
0
 12
64.89999999999999
 22
105.8325693155457
 32
0
 13
64.89999999999999
 23
105.8325693155457
 33
0
  0
SOLID
  5
1A4
100
AcDbEntity
  8
rozmir
  6
ByBlock
 62
    0
370
   -2
100
AcDbTrace
 10
70.19999999999999
 20
105
 30
0
 11
75.19999999999999
 21
105.8325693155457
 31
0
 12
75.19999999999999
 22
104.1674306844543
 32
0
 13
75.19999999999999
 23
104.1674306844543
 33
0
  0
MTEXT
  5
1A5
100
AcDbEntity
  8
rozmir
  6
CONTINUOUS
 62
  256
370
   -2
100
AcDbMText
 10
78.37222222222235
 20
108
 30
0
 40
4
 41
6.444444444444692
 71
    5
 72
    1
  1
0,3
  7
standard
210
0
220
0
230
1
 50
0
 73
    2
 44
1
  0
LINE
  5
1A6
100
AcDbEntity
  8
rozmir
  6
ByBlock
 62
    0
370
   -2
100
AcDbLine
 10
69.89999999999999
 20
106
 11
69.89999999999999
 21
107
  0
LINE
  5
1A7
100
AcDbEntity
  8
rozmir
  6
ByBlock
 62
    0
370
   -2
100
AcDbLine
 10
70.19999999999999
 20
106
 11
70.19999999999999
 21
107
  0
ENDBLK
  5
AB
330
A9
100
AcDbEntity
  8
0
100
AcDbBlockEnd
  0
BLOCK
  5
AD
330
AC
100
AcDbEntity
  8
0
100
AcDbBlockBegin
  2
*D23
 70
    1
 10
0
 20
0
  3
*D23
  1

  0
LINE
  5
1A8
100
AcDbEntity
  8
rozmir
  6
ByBlock
 62
    0
370
   -2
100
AcDbLine
 10
91.70000000000002
 20
-10
 11
171.7
 21
-10
  0
SOLID
  5
1A9
100
AcDbEntity
  8
rozmir
  6
ByBlock
 62
    0
370
   -2
100
AcDbTrace
 10
91.70000000000002
 20
-10
 30
0
 11
96.70000000000002
 21
-9.16743068445432
 31
0
 12
96.70000000000002
 22
-10.83256931554568
 32
0
 13
96.70000000000002
 23
-10.83256931554568
 33
0
  0
SOLID
  5
1AA
100
AcDbEntity
  8
rozmir
  6
ByBlock
 62
    0
370
   -2
100
AcDbTrace
 10
171.7
 20
-10
 30
0
 11
166.7
 21
-10.83256931554568
 31
0
 12
166.7
 22
-9.167430684454319
 32
0
 13
166.7
 23
-9.167430684454319
 33
0
  0
MTEXT
  5
1AB
100
AcDbEntity
  8
rozmir
  6
CONTINUOUS
 62
  256
370
   -2
100
AcDbMText
 10
131.7
 20
-7
 30
0
 40
4
 41
4.888888888888888
 71
    5
 72
    1
  1
80
  7
standard
210
0
220
0
230
1
 50
0
 73
    2
 44
1
  0
LINE
  5
1AC
100
AcDbEntity
  8
rozmir
  6
ByBlock
 62
    0
370
   -2
100
AcDbLine
 10
91.7
 20
-1.500000000000001
 11
91.70000000000002
 21
-12
  0
LINE
  5
1AD
100
AcDbEntity
  8
rozmir
  6
ByBlock
 62
    0
370
   -2
100
AcDbLine
 10
171.7
 20
-1.500000000000001
 11
171.7
 21
-12
  0
ENDBLK
  5
AE
330
AC
100
AcDbEntity
  8
0
100
AcDbBlockEnd
  0
BLOCK
  5
B0
330
AF
100
AcDbEntity
  8
0
100
AcDbBlockBegin
  2
*D25
 70
    1
 10
0
 20
0
  3
*D25
  1

  0
LINE
  5
1AE
100
AcDbEntity
  8
rozmir
  6
ByBlock
 62
    0
370
   -2
100
AcDbLine
 10
246.7
 20
-9.999999999999998
 11
278.4
 21
-10
  0
SOLID
  5
1AF
100
AcDbEntity
  8
rozmir
  6
ByBlock
 62
    0
370
   -2
100
AcDbTrace
 10
256.7
 20
-10
 30
0
 11
251.7
 21
-10.83256931554568
 31
0
 12
251.7
 22
-9.167430684454319
 32
0
 13
251.7
 23
-9.167430684454319
 33
0
  0
SOLID
  5
1B0
100
AcDbEntity
  8
rozmir
  6
ByBlock
 62
    0
370
   -2
100
AcDbTrace
 10
268.4
 20
-10
 30
0
 11
273.4
 21
-9.16743068445432
 31
0
 12
273.4
 22
-10.83256931554568
 32
0
 13
273.4
 23
-10.83256931554568
 33
0
  0
MTEXT
  5
1B1
100
AcDbEntity
  8
rozmir
  6
CONTINUOUS
 62
  256
370
   -2
100
AcDbMText
 10
262.55
 20
-7
 30
0
 40
4
 41
11.64444444444444
 71
    5
 72
    1
  1
11,7*
  7
standard
210
0
220
0
230
1
 50
0
 73
    2
 44
1
  0
LINE
  5
1B2
100
AcDbEntity
  8
rozmir
  6
ByBlock
 62
    0
370
   -2
100
AcDbLine
 10
256.7
 20
-1.500000000000001
 11
256.7
 21
-12
  0
LINE
  5
1B3
100
AcDbEntity
  8
rozmir
  6
ByBlock
 62
    0
370
   -2
100
AcDbLine
 10
268.4
 20
-1
 11
268.4
 21
-12
  0
ENDBLK
  5
B1
330
AF
100
AcDbEntity
  8
0
100
AcDbBlockEnd
  0
BLOCK
  5
B3
330
B2
100
AcDbEntity
  8
0
100
AcDbBlockBegin
  2
*D51
 70
    1
 10
0
 20
0
  3
*D51
  1

  0
LINE
  5
1B4
100
AcDbEntity
  8
rozmir
  6
ByBlock
 62
    0
370
   -2
100
AcDbLine
 10
268.4
 20
200
 11
248.1
 21
200
  0
SOLID
  5
1B5
100
AcDbEntity
  8
rozmir
  6
ByBlock
 62
    0
370
   -2
100
AcDbTrace
 10
258.4
 20
200
 30
0
 11
263.4
 21
200.8325693155457
 31
0
 12
263.4
 22
199.1674306844543
 32
0
 13
263.4
 23
199.1674306844543
 33
0
  0
SOLID
  5
1B6
100
AcDbEntity
  8
rozmir
  6
ByBlock
 62
    0
370
   -2
100
AcDbTrace
 10
258.1
 20
200
 30
0
 11
253.1
 21
199.1674306844543
 31
0
 12
253.1
 22
200.8325693155457
 32
0
 13
253.1
 23
200.8325693155457
 33
0
  0
MTEXT
  5
1B7
100
AcDbEntity
  8
rozmir
  6
CONTINUOUS
 62
  256
370
   -2
100
AcDbMText
 10
262.6222222222223
 20
203
 30
0
 40
4
 41
6.444444444444692
 71
    5
 72
    1
  1
0,3
  7
standard
210
0
220
0
230
1
 50
360
 73
    2
 44
1
  0
LINE
  5
1B8
100
AcDbEntity
  8
rozmir
  6
ByBlock
 62
    0
370
   -2
100
AcDbLine
 10
258.4
 20
201
 11
258.4
 21
202
  0
LINE
  5
1B9
100
AcDbEntity
  8
rozmir
  6
ByBlock
 62
    0
370
   -2
100
AcDbLine
 10
258.1
 20
201
 11
258.1
 21
202
  0
ENDBLK
  5
B4
330
B2
100
AcDbEntity
  8
0
100
AcDbBlockEnd
  0
BLOCK
  5
B6
330
B5
100
AcDbEntity
  8
0
100
AcDbBlockBegin
  2
*D39
 70
    1
 10
0
 20
0
  3
*D39
  1

  0
LINE
  5
1BA
100
AcDbEntity
  8
rozmir
  6
ByBlock
 62
    0
370
   -2
100
AcDbLine
 10
490
 20
243.8
 11
490
 21
188.6
  0
SOLID
  5
1BB
100
AcDbEntity
  8
rozmir
  6
ByBlock
 62
    0
370
   -2
100
AcDbTrace
 10
490
 20
243.8
 30
0
 11
490.8325693155457
 21
238.8
 31
0
 12
489.1674306844543
 22
238.8
 32
0
 13
489.1674306844543
 23
238.8
 33
0
  0
SOLID
  5
1BC
100
AcDbEntity
  8
rozmir
  6
ByBlock
 62
    0
370
   -2
100
AcDbTrace
 10
490
 20
188.6
 30
0
 11
489.1674306844543
 21
193.6
 31
0
 12
490.8325693155457
 22
193.6
 32
0
 13
490.8325693155457
 23
193.6
 33
0
  0
MTEXT
  5
1BD
100
AcDbEntity
  8
rozmir
  6
CONTINUOUS
 62
  256
370
   -2
100
AcDbMText
 10
487
 20
216.2
 30
0
 40
4
 41
9.555555555556051
 71
    5
 72
    1
  1
55,2
  7
standard
210
0
220
0
230
1
 50
90
 73
    2
 44
1
  0
LINE
  5
1BE
100
AcDbEntity
  8
rozmir
  6
ByBlock
 62
    0
370
   -2
100
AcDbLine
 10
475.6
 20
243.8
 11
492
 21
243.8
  0
LINE
  5
1BF
100
AcDbEntity
  8
rozmir
  6
ByBlock
 62
    0
370
   -2
100
AcDbLine
 10
480.1000000000001
 20
188.6
 11
492
 21
188.6
  0
ENDBLK
  5
B7
330
B5
100
AcDbEntity
  8
0
100
AcDbBlockEnd
  0
BLOCK
  5
B9
330
B8
100
AcDbEntity
  8
0
100
AcDbBlockBegin
  2
*D38
 70
    1
 10
0
 20
0
  3
*D38
  1

  0
LINE
  5
1C0
100
AcDbEntity
  8
rozmir
  6
ByBlock
 62
    0
370
   -2
100
AcDbLine
 10
40
 20
179.7
 11
40
 21
200
  0
SOLID
  5
1C1
100
AcDbEntity
  8
rozmir
  6
ByBlock
 62
    0
370
   -2
100
AcDbTrace
 10
40
 20
189.7
 30
0
 11
40.83256931554568
 21
184.7
 31
0
 12
39.16743068445432
 22
184.7
 32
0
 13
39.16743068445432
 23
184.7
 33
0
  0
SOLID
  5
1C2
100
AcDbEntity
  8
rozmir
  6
ByBlock
 62
    0
370
   -2
100
AcDbTrace
 10
40
 20
190
 30
0
 11
39.16743068445432
 21
195
 31
0
 12
40.83256931554568
 22
195
 32
0
 13
40.83256931554568
 23
195
 33
0
  0
MTEXT
  5
1C3
100
AcDbEntity
  8
rozmir
  6
CONTINUOUS
 62
  256
370
   -2
100
AcDbMText
 10
37
 20
194.2222222222223
 30
0
 40
4
 41
6.444444444444692
 71
    5
 72
    1
  1
0,3
  7
standard
210
0
220
0
230
1
 50
90
 73
    2
 44
1
  0
LINE
  5
1C4
100
AcDbEntity
  8
rozmir
  6
ByBlock
 62
    0
370
   -2
100
AcDbLine
 10
39
 20
189.7
 11
38
 21
189.7
  0
LINE
  5
1C5
100
AcDbEntity
  8
rozmir
  6
ByBlock
 62
    0
370
   -2
100
AcDbLine
 10
39
 20
190
 11
38
 21
190
  0
ENDBLK
  5
BA
330
B8
100
AcDbEntity
  8
0
100
AcDbBlockEnd
  0
BLOCK
  5
BC
330
BB
100
AcDbEntity
  8
0
100
AcDbBlockBegin
  2
*D24
 70
    1
 10
0
 20
0
  3
*D24
  1

  0
LINE
  5
1C6
100
AcDbEntity
  8
rozmir
  6
ByBlock
 62
    0
370
   -2
100
AcDbLine
 10
171.7
 20
-10
 11
251.7
 21
-10
  0
SOLID
  5
1C7
100
AcDbEntity
  8
rozmir
  6
ByBlock
 62
    0
370
   -2
100
AcDbTrace
 10
171.7
 20
-10
 30
0
 11
176.7
 21
-9.16743068445432
 31
0
 12
176.7
 22
-10.83256931554568
 32
0
 13
176.7
 23
-10.83256931554568
 33
0
  0
SOLID
  5
1C8
100
AcDbEntity
  8
rozmir
  6
ByBlock
 62
    0
370
   -2
100
AcDbTrace
 10
251.7
 20
-10
 30
0
 11
246.7
 21
-10.83256931554568
 31
0
 12
246.7
 22
-9.167430684454319
 32
0
 13
246.7
 23
-9.167430684454319
 33
0
  0
MTEXT
  5
1C9
100
AcDbEntity
  8
rozmir
  6
CONTINUOUS
 62
  256
370
   -2
100
AcDbMText
 10
211.7
 20
-7
 30
0
 40
4
 41
4.888888888888888
 71
    5
 72
    1
  1
80
  7
standard
210
0
220
0
230
1
 50
0
 73
    2
 44
1
  0
LINE
  5
1CA
100
AcDbEntity
  8
rozmir
  6
ByBlock
 62
    0
370
   -2
100
AcDbLine
 10
171.7
 20
-1.500000000000001
 11
171.7
 21
-12
  0
LINE
  5
1CB
100
AcDbEntity
  8
rozmir
  6
ByBlock
 62
    0
370
   -2
100
AcDbLine
 10
251.7
 20
-1.500000000000001
 11
251.7
 21
-12
  0
ENDBLK
  5
BD
330
BB
100
AcDbEntity
  8
0
100
AcDbBlockEnd
  0
BLOCK
  5
BF
330
BE
100
AcDbEntity
  8
0
100
AcDbBlockBegin
  2
*D53
 70
    1
 10
0
 20
0
  3
*D53
  1

  0
LINE
  5
1CC
100
AcDbEntity
  8
rozmir
  6
ByBlock
 62
    0
370
   -2
100
AcDbLine
 10
-3.000000000000001
 20
0
 11
-2.999999999999999
 21
32
  0
SOLID
  5
1CD
100
AcDbEntity
  8
rozmir
  6
ByBlock
 62
    0
370
   -2
100
AcDbTrace
 10
-3.000000000000001
 20
0
 30
0
 11
-3.832569315545681
 21
5
 31
0
 12
-2.167430684454319
 22
5
 32
0
 13
-2.167430684454319
 23
5
 33
0
  0
SOLID
  5
1CE
100
AcDbEntity
  8
rozmir
  6
ByBlock
 62
    0
370
   -2
100
AcDbTrace
 10
-2.999999999999999
 20
32
 30
0
 11
-2.167430684454319
 21
27
 31
0
 12
-3.832569315545681
 22
27
 32
0
 13
-3.832569315545681
 23
27
 33
0
  0
MTEXT
  5
1CF
100
AcDbEntity
  8
rozmir
  6
CONTINUOUS
 62
  256
370
   -2
100
AcDbMText
 10
-6
 20
16
 30
0
 40
4
 41
4.888888888889136
 71
    5
 72
    1
  1
32
  7
standard
210
0
220
0
230
1
 50
90
 73
    2
 44
1
  0
LINE
  5
1D0
100
AcDbEntity
  8
rozmir
  6
ByBlock
 62
    0
370
   -2
100
AcDbLine
 10
-1
 20
1.224646799147353e-16
 11
-5.000000000000001
 21
2.449293598294706e-16
  0
LINE
  5
1D1
100
AcDbEntity
  8
rozmir
  6
ByBlock
 62
    0
370
   -2
100
AcDbLine
 10
6.100000000000002
 20
32
 11
-4.999999999999999
 21
32
  0
ENDBLK
  5
C0
330
BE
100
AcDbEntity
  8
0
100
AcDbBlockEnd
  0
BLOCK
  5
C2
330
C1
100
AcDbEntity
  8
0
100
AcDbBlockBegin
  2
*D3
 70
    1
 10
0
 20
0
  3
*D3
  1

  0
LINE
  5
1D2
100
AcDbEntity
  8
rozmir_otvir
  6
ByBlock
 62
    0
370
   -2
100
AcDbLine
 10
266.6999999999999
 20
263
 11
1.699999999999999
 21
263
  0
SOLID
  5
1D3
100
AcDbEntity
  8
rozmir_otvir
  6
ByBlock
 62
    0
370
   -2
100
AcDbTrace
 10
266.6999999999999
 20
263
 30
0
 11
261.6999999999999
 21
262.1674306844543
 31
0
 12
261.6999999999999
 22
263.8325693155457
 32
0
 13
261.6999999999999
 23
263.8325693155457
 33
0
  0
SOLID
  5
1D4
100
AcDbEntity
  8
rozmir_otvir
  6
ByBlock
 62
    0
370
   -2
100
AcDbTrace
 10
1.699999999999999
 20
263
 30
0
 11
6.699999999999999
 21
263.8325693155457
 31
0
 12
6.699999999999999
 22
262.1674306844543
 32
0
 13
6.699999999999999
 23
262.1674306844543
 33
0
  0
MTEXT
  5
1D5
100
AcDbEntity
  8
rozmir_otvir
  6
CONTINUOUS
 62
  256
370
   -2
100
AcDbMText
 10
134.1999999999999
 20
266
 30
0
 40
4
 41
8.000000000000497
 71
    5
 72
    1
  1
265
  7
standard
210
0
220
0
230
1
 50
360
 73
    2
 44
1
  0
LINE
  5
1D6
100
AcDbEntity
  8
rozmir_otvir
  6
ByBlock
 62
    0
370
   -2
100
AcDbLine
 10
266.6999999999999
 20
258
 11
266.6999999999999
 21
265
  0
LINE
  5
1D7
100
AcDbEntity
  8
rozmir_otvir
  6
ByBlock
 62
    0
370
   -2
100
AcDbLine
 10
1.699999999999999
 20
258
 11
1.699999999999999
 21
265
  0
ENDBLK
  5
C3
330
C1
100
AcDbEntity
  8
0
100
AcDbBlockEnd
  0
BLOCK
  5
C5
330
C4
100
AcDbEntity
  8
0
100
AcDbBlockBegin
  2
*D56
 70
    1
 10
0
 20
0
  3
*D56
  1

  0
LINE
  5
1D8
100
AcDbEntity
  8
rozmir
  6
ByBlock
 62
    0
370
   -2
100
AcDbLine
 10
-10.00000000000001
 20
0
 11
-10
 21
138
  0
SOLID
  5
1D9
100
AcDbEntity
  8
rozmir
  6
ByBlock
 62
    0
370
   -2
100
AcDbTrace
 10
-10.00000000000001
 20
0
 30
0
 11
-10.83256931554569
 21
5
 31
0
 12
-9.167430684454326
 22
5
 32
0
 13
-9.167430684454326
 23
5
 33
0
  0
SOLID
  5
1DA
100
AcDbEntity
  8
rozmir
  6
ByBlock
 62
    0
370
   -2
100
AcDbTrace
 10
-10
 20
138
 30
0
 11
-9.167430684454319
 21
133
 31
0
 12
-10.83256931554568
 22
133
 32
0
 13
-10.83256931554568
 23
133
 33
0
  0
MTEXT
  5
1DB
100
AcDbEntity
  8
rozmir
  6
CONTINUOUS
 62
  256
370
   -2
100
AcDbMText
 10
-13
 20
69.00000000000001
 30
0
 40
4
 41
7.111111111111359
 71
    5
 72
    1
  1
138
  7
standard
210
0
220
0
230
1
 50
90
 73
    2
 44
1
  0
LINE
  5
1DC
100
AcDbEntity
  8
rozmir
  6
ByBlock
 62
    0
370
   -2
100
AcDbLine
 10
-1
 20
1.224646799147353e-16
 11
-12.00000000000001
 21
2.449293598294706e-16
  0
LINE
  5
1DD
100
AcDbEntity
  8
rozmir
  6
ByBlock
 62
    0
370
   -2
100
AcDbLine
 10
6.100000000000002
 20
138
 11
-12
 21
138
  0
ENDBLK
  5
C6
330
C4
100
AcDbEntity
  8
0
100
AcDbBlockEnd
  0
BLOCK
  5
C8
330
C7
100
AcDbEntity
  8
0
100
AcDbBlockBegin
  2
*D32
 70
    1
 10
0
 20
0
  3
*D32
  1

  0
LINE
  5
1DE
100
AcDbEntity
  8
rozmir
  6
ByBlock
 62
    0
370
   -2
100
AcDbLine
 10
474.1
 20
250.1
 11
597.8
 21
250.1
  0
SOLID
  5
1DF
100
AcDbEntity
  8
rozmir
  6
ByBlock
 62
    0
370
   -2
100
AcDbTrace
 10
474.1
 20
250.1
 30
0
 11
479.1
 21
250.9325693155457
 31
0
 12
479.1
 22
249.2674306844543
 32
0
 13
479.1
 23
249.2674306844543
 33
0
  0
SOLID
  5
1E0
100
AcDbEntity
  8
rozmir
  6
ByBlock
 62
    0
370
   -2
100
AcDbTrace
 10
597.8
 20
250.1
 30
0
 11
592.8
 21
249.2674306844543
 31
0
 12
592.8
 22
250.9325693155457
 32
0
 13
592.8
 23
250.9325693155457
 33
0
  0
MTEXT
  5
1E1
100
AcDbEntity
  8
rozmir
  6
CONTINUOUS
 62
  256
370
   -2
100
AcDbMText
 10
535.95
 20
253.1
 30
0
 40
4
 41
11.77777777777803
 71
    5
 72
    1
  1
123,7
  7
standard
210
0
220
0
230
1
 50
0
 73
    2
 44
1
  0
LINE
  5
1E2
100
AcDbEntity
  8
rozmir
  6
ByBlock
 62
    0
370
   -2
100
AcDbLine
 10
474.1
 20
245.3
 11
474.1
 21
252.1
  0
LINE
  5
1E3
100
AcDbEntity
  8
rozmir
  6
ByBlock
 62
    0
370
   -2
100
AcDbLine
 10
597.8
 20
245.3
 11
597.8
 21
252.1
  0
ENDBLK
  5
C9
330
C7
100
AcDbEntity
  8
0
100
AcDbBlockEnd
  0
BLOCK
  5
CB
330
CA
100
AcDbEntity
  8
0
100
AcDbBlockBegin
  2
*D6
 70
    1
 10
0
 20
0
  3
*D6
  1

  0
LINE
  5
1E4
100
AcDbEntity
  8
rozmir
  6
ByBlock
 62
    0
370
   -2
100
AcDbLine
 10
10.29999999999998
 20
-87
 11
134
 21
-87
  0
SOLID
  5
1E5
100
AcDbEntity
  8
rozmir
  6
ByBlock
 62
    0
370
   -2
100
AcDbTrace
 10
10.29999999999998
 20
-87
 30
0
 11
15.29999999999998
 21
-86.16743068445432
 31
0
 12
15.29999999999998
 22
-87.83256931554568
 32
0
 13
15.29999999999998
 23
-87.83256931554568
 33
0
  0
SOLID
  5
1E6
100
AcDbEntity
  8
rozmir
  6
ByBlock
 62
    0
370
   -2
100
AcDbTrace
 10
134
 20
-87
 30
0
 11
129
 21
-87.83256931554568
 31
0
 12
129
 22
-86.16743068445432
 32
0
 13
129
 23
-86.16743068445432
 33
0
  0
MTEXT
  5
1E7
100
AcDbEntity
  8
rozmir
  6
CONTINUOUS
 62
  256
370
   -2
100
AcDbMText
 10
72.14999999999999
 20
-84
 30
0
 40
4
 41
11.77777777777803
 71
    5
 72
    1
  1
123,7
  7
standard
210
0
220
0
230
1
 50
0
 73
    2
 44
1
  0
LINE
  5
1E8
100
AcDbEntity
  8
rozmir
  6
ByBlock
 62
    0
370
   -2
100
AcDbLine
 10
10.29999999999999
 20
-91
 11
10.29999999999998
 21
-85
  0
LINE
  5
1E9
100
AcDbEntity
  8
rozmir
  6
ByBlock
 62
    0
370
   -2
100
AcDbLine
 10
134
 20
-91
 11
134
 21
-85
  0
ENDBLK
  5
CC
330
CA
100
AcDbEntity
  8
0
100
AcDbBlockEnd
  0
BLOCK
  5
CE
330
CD
100
AcDbEntity
  8
0
100
AcDbBlockBegin
  2
*D44
 70
    1
 10
0
 20
0
  3
*D44
  1

  0
LINE
  5
1EA
100
AcDbEntity
  8
rozmir
  6
ByBlock
 62
    0
370
   -2
100
AcDbLine
 10
665
 20
52.10000000000001
 11
665
 21
0.4
  0
SOLID
  5
1EB
100
AcDbEntity
  8
rozmir
  6
ByBlock
 62
    0
370
   -2
100
AcDbTrace
 10
665
 20
52.10000000000001
 30
0
 11
665.8325693155457
 21
47.10000000000001
 31
0
 12
664.1674306844543
 22
47.10000000000001
 32
0
 13
664.1674306844543
 23
47.10000000000001
 33
0
  0
SOLID
  5
1EC
100
AcDbEntity
  8
rozmir
  6
ByBlock
 62
    0
370
   -2
100
AcDbTrace
 10
665
 20
0.4
 30
0
 11
664.1674306844543
 21
5.4
 31
0
 12
665.8325693155457
 22
5.4
 32
0
 13
665.8325693155457
 23
5.4
 33
0
  0
MTEXT
  5
1ED
100
AcDbEntity
  8
rozmir
  6
CONTINUOUS
 62
  256
370
   -2
100
AcDbMText
 10
662
 20
26.25
 30
0
 40
4
 41
8.666666666666913
 71
    5
 72
    1
  1
51,7
  7
standard
210
0
220
0
230
1
 50
90
 73
    2
 44
1
  0
LINE
  5
1EE
100
AcDbEntity
  8
rozmir
  6
ByBlock
 62
    0
370
   -2
100
AcDbLine
 10
655.0000000000001
 20
52.10000000000001
 11
667
 21
52.10000000000001
  0
LINE
  5
1EF
100
AcDbEntity
  8
rozmir
  6
ByBlock
 62
    0
370
   -2
100
AcDbLine
 10
651.4
 20
0.4
 11
667
 21
0.4
  0
ENDBLK
  5
CF
330
CD
100
AcDbEntity
  8
0
100
AcDbBlockEnd
  0
BLOCK
  5
D1
330
D0
100
AcDbEntity
  8
0
100
AcDbBlockBegin
  2
*D55
 70
    1
 10
0
 20
0
  3
*D55
  1

  0
LINE
  5
1F0
100
AcDbEntity
  8
rozmir
  6
ByBlock
 62
    0
370
   -2
100
AcDbLine
 10
-17.00000000000001
 20
0
 11
-17
 21
225
  0
SOLID
  5
1F1
100
AcDbEntity
  8
rozmir
  6
ByBlock
 62
    0
370
   -2
100
AcDbTrace
 10
-17.00000000000001
 20
0
 30
0
 11
-17.83256931554569
 21
5
 31
0
 12
-16.16743068445433
 22
5
 32
0
 13
-16.16743068445433
 23
5
 33
0
  0
SOLID
  5
1F2
100
AcDbEntity
  8
rozmir
  6
ByBlock
 62
    0
370
   -2
100
AcDbTrace
 10
-17
 20
225
 30
0
 11
-16.16743068445432
 21
220
 31
0
 12
-17.83256931554568
 22
220
 32
0
 13
-17.83256931554568
 23
220
 33
0
  0
MTEXT
  5
1F3
100
AcDbEntity
  8
rozmir
  6
CONTINUOUS
 62
  256
370
   -2
100
AcDbMText
 10
-20.00000000000001
 20
112.5
 30
0
 40
4
 41
8.000000000000247
 71
    5
 72
    1
  1
225
  7
standard
210
0
220
0
230
1
 50
90
 73
    2
 44
1
  0
LINE
  5
1F4
100
AcDbEntity
  8
rozmir
  6
ByBlock
 62
    0
370
   -2
100
AcDbLine
 10
-1
 20
1.224646799147353e-16
 11
-19.00000000000001
 21
2.449293598294706e-16
  0
LINE
  5
1F5
100
AcDbEntity
  8
rozmir
  6
ByBlock
 62
    0
370
   -2
100
AcDbLine
 10
6.100000000000001
 20
225
 11
-19
 21
225
  0
ENDBLK
  5
D2
330
D0
100
AcDbEntity
  8
0
100
AcDbBlockEnd
  0
BLOCK
  5
D4
330
D3
100
AcDbEntity
  8
0
100
AcDbBlockBegin
  2
*D48
 70
    1
 10
0
 20
0
  3
*D48
  1

  0
LINE
  5
1F6
100
AcDbEntity
  8
rozmir
  6
ByBlock
 62
    0
370
   -2
100
AcDbLine
 10
650.4000000000002
 20
121.9
 11
703.9000000000003
 21
121.9
  0
SOLID
  5
1F7
100
AcDbEntity
  8
rozmir
  6
ByBlock
 62
    0
370
   -2
100
AcDbTrace
 10
650.4000000000002
 20
121.9
 30
0
 11
655.4000000000002
 21
122.7325693155457
 31
0
 12
655.4000000000002
 22
121.0674306844543
 32
0
 13
655.4000000000002
 23
121.0674306844543
 33
0
  0
SOLID
  5
1F8
100
AcDbEntity
  8
rozmir
  6
ByBlock
 62
    0
370
   -2
100
AcDbTrace
 10
703.9000000000003
 20
121.9
 30
0
 11
698.9000000000003
 21
121.0674306844543
 31
0
 12
698.9000000000003
 22
122.7325693155457
 32
0
 13
698.9000000000003
 23
122.7325693155457
 33
0
  0
MTEXT
  5
1F9
100
AcDbEntity
  8
rozmir
  6
CONTINUOUS
 62
  256
370
   -2
100
AcDbMText
 10
677.1500000000003
 20
124.9
 30
0
 40
4
 41
9.5555555555563
 71
    5
 72
    1
  1
53,5
  7
standard
210
0
220
0
230
1
 50
0
 73
    2
 44
1
  0
LINE
  5
1FA
100
AcDbEntity
  8
rozmir
  6
ByBlock
 62
    0
370
   -2
100
AcDbLine
 10
650.4000000000002
 20
112.7
 11
650.4000000000002
 21
123.9
  0
LINE
  5
1FB
100
AcDbEntity
  8
rozmir
  6
ByBlock
 62
    0
370
   -2
100
AcDbLine
 10
703.9000000000003
 20
112.7
 11
703.9000000000003
 21
123.9
  0
ENDBLK
  5
D5
330
D3
100
AcDbEntity
  8
0
100
AcDbBlockEnd
  0
BLOCK
  5
D7
330
D6
100
AcDbEntity
  8
0
100
AcDbBlockBegin
  2
*D45
 70
    1
 10
0
 20
0
  3
*D45
  1

  0
LINE
  5
1FC
100
AcDbEntity
  8
rozmir
  6
ByBlock
 62
    0
370
   -2
100
AcDbLine
 10
40
 20
15.5
 11
40
 21
35.9
  0
SOLID
  5
1FD
100
AcDbEntity
  8
rozmir
  6
ByBlock
 62
    0
370
   -2
100
AcDbTrace
 10
40
 20
25.5
 30
0
 11
40.83256931554568
 21
20.5
 31
0
 12
39.16743068445432
 22
20.5
 32
0
 13
39.16743068445432
 23
20.5
 33
0
  0
SOLID
  5
1FE
100
AcDbEntity
  8
rozmir
  6
ByBlock
 62
    0
370
   -2
100
AcDbTrace
 10
40
 20
25.9
 30
0
 11
39.16743068445432
 21
30.9
 31
0
 12
40.83256931554568
 22
30.9
 32
0
 13
40.83256931554568
 23
30.9
 33
0
  0
MTEXT
  5
1FF
100
AcDbEntity
  8
rozmir
  6
CONTINUOUS
 62
  256
370
   -2
100
AcDbMText
 10
37
 20
30.34444444444444
 30
0
 40
4
 41
6.888888888888889
 71
    5
 72
    1
  1
0,4
  7
standard
210
0
220
0
230
1
 50
90
 73
    2
 44
1
  0
LINE
  5
200
100
AcDbEntity
  8
rozmir
  6
ByBlock
 62
    0
370
   -2
100
AcDbLine
 10
39
 20
25.5
 11
38
 21
25.5
  0
LINE
  5
201
100
AcDbEntity
  8
rozmir
  6
ByBlock
 62
    0
370
   -2
100
AcDbLine
 10
39
 20
25.9
 11
38
 21
25.9
  0
ENDBLK
  5
D8
330
D6
100
AcDbEntity
  8
0
100
AcDbBlockEnd
  0
BLOCK
  5
DA
330
D9
100
AcDbEntity
  8
0
100
AcDbBlockBegin
  2
*D22
 70
    1
 10
0
 20
0
  3
*D22
  1

  0
LINE
  5
202
100
AcDbEntity
  8
rozmir
  6
ByBlock
 62
    0
370
   -2
100
AcDbLine
 10
11.7
 20
-10
 11
91.7
 21
-10
  0
SOLID
  5
203
100
AcDbEntity
  8
rozmir
  6
ByBlock
 62
    0
370
   -2
100
AcDbTrace
 10
11.7
 20
-10
 30
0
 11
16.7
 21
-9.16743068445432
 31
0
 12
16.7
 22
-10.83256931554568
 32
0
 13
16.7
 23
-10.83256931554568
 33
0
  0
SOLID
  5
204
100
AcDbEntity
  8
rozmir
  6
ByBlock
 62
    0
370
   -2
100
AcDbTrace
 10
91.7
 20
-10
 30
0
 11
86.7
 21
-10.83256931554568
 31
0
 12
86.7
 22
-9.167430684454319
 32
0
 13
86.7
 23
-9.167430684454319
 33
0
  0
MTEXT
  5
205
100
AcDbEntity
  8
rozmir
  6
CONTINUOUS
 62
  256
370
   -2
100
AcDbMText
 10
51.7
 20
-7
 30
0
 40
4
 41
4.888888888888888
 71
    5
 72
    1
  1
80
  7
standard
210
0
220
0
230
1
 50
0
 73
    2
 44
1
  0
LINE
  5
206
100
AcDbEntity
  8
rozmir
  6
ByBlock
 62
    0
370
   -2
100
AcDbLine
 10
11.7
 20
-1.500000000000001
 11
11.7
 21
-12
  0
LINE
  5
207
100
AcDbEntity
  8
rozmir
  6
ByBlock
 62
    0
370
   -2
100
AcDbLine
 10
91.7
 20
-1.500000000000001
 11
91.7
 21
-12
  0
ENDBLK
  5
DB
330
D9
100
AcDbEntity
  8
0
100
AcDbBlockEnd
  0
BLOCK
  5
DD
330
DC
100
AcDbEntity
  8
0
100
AcDbBlockBegin
  2
*D27
 70
    1
 10
0
 20
0
  3
*D27
  1

  0
LINE
  5
208
100
AcDbEntity
  8
rozmir
  6
ByBlock
 62
    0
370
   -2
100
AcDbLine
 10
275
 20
39.50000000000001
 11
275
 21
120.5
  0
SOLID
  5
209
100
AcDbEntity
  8
rozmir
  6
ByBlock
 62
    0
370
   -2
100
AcDbTrace
 10
275
 20
39.50000000000001
 30
0
 11
274.1674306844543
 21
44.50000000000001
 31
0
 12
275.8325693155457
 22
44.50000000000001
 32
0
 13
275.8325693155457
 23
44.50000000000001
 33
0
  0
SOLID
  5
20A
100
AcDbEntity
  8
rozmir
  6
ByBlock
 62
    0
370
   -2
100
AcDbTrace
 10
275
 20
120.5
 30
0
 11
275.8325693155457
 21
115.5
 31
0
 12
274.1674306844543
 22
115.5
 32
0
 13
274.1674306844543
 23
115.5
 33
0
  0
MTEXT
  5
20B
100
AcDbEntity
  8
rozmir
  6
CONTINUOUS
 62
  256
370
   -2
100
AcDbMText
 10
272
 20
80
 30
0
 40
4
 41
4
 71
    5
 72
    1
  1
81
  7
standard
210
0
220
0
230
1
 50
90
 73
    2
 44
1
  0
LINE
  5
20C
100
AcDbEntity
  8
rozmir
  6
ByBlock
 62
    0
370
   -2
100
AcDbLine
 10
269.9
 20
39.50000000000001
 11
277
 21
39.50000000000001
  0
LINE
  5
20D
100
AcDbEntity
  8
rozmir
  6
ByBlock
 62
    0
370
   -2
100
AcDbLine
 10
269.9
 20
120.5
 11
277
 21
120.5
  0
ENDBLK
  5
DE
330
DC
100
AcDbEntity
  8
0
100
AcDbBlockEnd
  0
BLOCK
  5
E0
330
DF
100
AcDbEntity
  8
0
100
AcDbBlockBegin
  2
*D19
 70
    1
 10
0
 20
0
  3
*D19
  1

  0
LINE
  5
20E
100
AcDbEntity
  8
rozmir_lyst
  6
ByBlock
 62
    0
370
   -2
100
AcDbLine
 10
89.99999999999999
 20
191.9
 11
89.99999999999999
 21
24.2
  0
SOLID
  5
20F
100
AcDbEntity
  8
rozmir_lyst
  6
ByBlock
 62
    0
370
   -2
100
AcDbTrace
 10
89.99999999999999
 20
191.9
 30
0
 11
90.83256931554567
 21
186.9
 31
0
 12
89.1674306844543
 22
186.9
 32
0
 13
89.1674306844543
 23
186.9
 33
0
  0
SOLID
  5
210
100
AcDbEntity
  8
rozmir_lyst
  6
ByBlock
 62
    0
370
   -2
100
AcDbTrace
 10
89.99999999999999
 20
24.2
 30
0
 11
89.1674306844543
 21
29.2
 31
0
 12
90.83256931554567
 22
29.2
 32
0
 13
90.83256931554567
 23
29.2
 33
0
  0
MTEXT
  5
211
100
AcDbEntity
  8
rozmir_lyst
  6
CONTINUOUS
 62
  256
370
   -2
100
AcDbMText
 10
86.99999999999999
 20
108.05
 30
0
 40
4
 41
11.77777777777803
 71
    5
 72
    1
  1
167,7
  7
standard
210
0
220
0
230
1
 50
90
 73
    2
 44
1
  0
LINE
  5
212
100
AcDbEntity
  8
rozmir_lyst
  6
ByBlock
 62
    0
370
   -2
100
AcDbLine
 10
72.5
 20
191.9
 11
91.99999999999999
 21
191.9
  0
LINE
  5
213
100
AcDbEntity
  8
rozmir_lyst
  6
ByBlock
 62
    0
370
   -2
100
AcDbLine
 10
72.50000000000001
 20
24.2
 11
91.99999999999999
 21
24.2
  0
ENDBLK
  5
E1
330
DF
100
AcDbEntity
  8
0
100
AcDbBlockEnd
  0
BLOCK
  5
E3
330
E2
100
AcDbEntity
  8
0
100
AcDbBlockBegin
  2
*D29
 70
    1
 10
0
 20
0
  3
*D29
  1

  0
LINE
  5
214
100
AcDbEntity
  8
rozmir
  6
ByBlock
 62
    0
370
   -2
100
AcDbLine
 10
274.9999999999999
 20
206.5
 11
274.9999999999999
 21
260.0000000000001
  0
SOLID
  5
215
100
AcDbEntity
  8
rozmir
  6
ByBlock
 62
    0
370
   -2
100
AcDbTrace
 10
274.9999999999999
 20
206.5
 30
0
 11
274.1674306844542
 21
211.5
 31
0
 12
275.8325693155456
 22
211.5
 32
0
 13
275.8325693155456
 23
211.5
 33
0
  0
SOLID
  5
216
100
AcDbEntity
  8
rozmir
  6
ByBlock
 62
    0
370
   -2
100
AcDbTrace
 10
274.9999999999999
 20
260.0000000000001
 30
0
 11
275.8325693155456
 21
255.0000000000001
 31
0
 12
274.1674306844542
 22
255.0000000000001
 32
0
 13
274.1674306844542
 23
255.0000000000001
 33
0
  0
MTEXT
  5
217
100
AcDbEntity
  8
rozmir
  6
CONTINUOUS
 62
  256
370
   -2
100
AcDbMText
 10
271.9999999999999
 20
233.2500000000001
 30
0
 40
4
 41
9.5555555555563
 71
    5
 72
    1
  1
53,5
  7
standard
210
0
220
0
230
1
 50
90
 73
    2
 44
1
  0
LINE
  5
218
100
AcDbEntity
  8
rozmir
  6
ByBlock
 62
    0
370
   -2
100
AcDbLine
 10
269.9
 20
206.5
 11
276.9999999999999
 21
206.5
  0
LINE
  5
219
100
AcDbEntity
  8
rozmir
  6
ByBlock
 62
    0
370
   -2
100
AcDbLine
 10
269.4
 20
260.0000000000001
 11
276.9999999999999
 21
260.0000000000001
  0
ENDBLK
  5
E4
330
E2
100
AcDbEntity
  8
0
100
AcDbBlockEnd
  0
BLOCK
  5
E6
330
E5
100
AcDbEntity
  8
0
100
AcDbBlockBegin
  2
*D11
 70
    1
 10
0
 20
0
  3
*D11
  1

  0
LINE
  5
21A
100
AcDbEntity
  8
rozmir_lyst
  6
ByBlock
 62
    0
370
   -2
100
AcDbLine
 10
9
 20
265
 11
134
 21
265
  0
SOLID
  5
21B
100
AcDbEntity
  8
rozmir_lyst
  6
ByBlock
 62
    0
370
   -2
100
AcDbTrace
 10
9
 20
265
 30
0
 11
14
 21
265.8325693155457
 31
0
 12
14
 22
264.1674306844543
 32
0
 13
14
 23
264.1674306844543
 33
0
  0
SOLID
  5
21C
100
AcDbEntity
  8
rozmir_lyst
  6
ByBlock
 62
    0
370
   -2
100
AcDbTrace
 10
134
 20
265
 30
0
 11
129
 21
264.1674306844543
 31
0
 12
129
 22
265.8325693155457
 32
0
 13
129
 23
265.8325693155457
 33
0
  0
MTEXT
  5
21D
100
AcDbEntity
  8
rozmir_lyst
  6
CONTINUOUS
 62
  256
370
   -2
100
AcDbMText
 10
71.5
 20
268
 30
0
 40
4
 41
7.111111111111359
 71
    5
 72
    1
  1
125
  7
standard
210
0
220
0
230
1
 50
0
 73
    2
 44
1
  0
LINE
  5
21E
100
AcDbEntity
  8
rozmir_lyst
  6
ByBlock
 62
    0
370
   -2
100
AcDbLine
 10
9
 20
252
 11
9
 21
267
  0
LINE
  5
21F
100
AcDbEntity
  8
rozmir_lyst
  6
ByBlock
 62
    0
370
   -2
100
AcDbLine
 10
134
 20
252
 11
134
 21
267
  0
ENDBLK
  5
E7
330
E5
100
AcDbEntity
  8
0
100
AcDbBlockEnd
  0
BLOCK
  5
E9
330
E8
100
AcDbEntity
  8
0
100
AcDbBlockBegin
  2
*D50
 70
    1
 10
0
 20
0
  3
*D50
  1

  0
LINE
  5
220
100
AcDbEntity
  8
rozmir
  6
ByBlock
 62
    0
370
   -2
100
AcDbLine
 10
665
 20
107.7
 11
665
 21
56.10000000000001
  0
SOLID
  5
221
100
AcDbEntity
  8
rozmir
  6
ByBlock
 62
    0
370
   -2
100
AcDbTrace
 10
665
 20
107.7
 30
0
 11
665.8325693155457
 21
102.7
 31
0
 12
664.1674306844543
 22
102.7
 32
0
 13
664.1674306844543
 23
102.7
 33
0
  0
SOLID
  5
222
100
AcDbEntity
  8
rozmir
  6
ByBlock
 62
    0
370
   -2
100
AcDbTrace
 10
665
 20
56.10000000000001
 30
0
 11
664.1674306844543
 21
61.10000000000001
 31
0
 12
665.8325693155457
 22
61.10000000000001
 32
0
 13
665.8325693155457
 23
61.10000000000001
 33
0
  0
MTEXT
  5
223
100
AcDbEntity
  8
rozmir
  6
CONTINUOUS
 62
  256
370
   -2
100
AcDbMText
 10
662
 20
81.90000000000001
 30
0
 40
4
 41
8.666666666667162
 71
    5
 72
    1
  1
51,6
  7
standard
210
0
220
0
230
1
 50
90
 73
    2
 44
1
  0
LINE
  5
224
100
AcDbEntity
  8
rozmir
  6
ByBlock
 62
    0
370
   -2
100
AcDbLine
 10
655.0000000000002
 20
107.7
 11
667
 21
107.7
  0
LINE
  5
225
100
AcDbEntity
  8
rozmir
  6
ByBlock
 62
    0
370
   -2
100
AcDbLine
 10
655.0000000000001
 20
56.10000000000001
 11
667
 21
56.10000000000001
  0
ENDBLK
  5
EA
330
E8
100
AcDbEntity
  8
0
100
AcDbBlockEnd
  0
BLOCK
  5
EC
330
EB
100
AcDbEntity
  8
0
100
AcDbBlockBegin
  2
*D37
 70
    1
 10
0
 20
0
  3
*D37
  1

  0
LINE
  5
226
100
AcDbEntity
  8
rozmir
  6
ByBlock
 62
    0
370
   -2
100
AcDbLine
 10
360
 20
0.4999999999999893
 11
360
 21
16.1
  0
SOLID
  5
227
100
AcDbEntity
  8
rozmir
  6
ByBlock
 62
    0
370
   -2
100
AcDbTrace
 10
360
 20
0.4999999999999893
 30
0
 11
359.1674306844543
 21
5.499999999999989
 31
0
 12
360.8325693155457
 22
5.499999999999989
 32
0
 13
360.8325693155457
 23
5.499999999999989
 33
0
  0
SOLID
  5
228
100
AcDbEntity
  8
rozmir
  6
ByBlock
 62
    0
370
   -2
100
AcDbTrace
 10
360
 20
16.1
 30
0
 11
360.8325693155457
 21
11.1
 31
0
 12
359.1674306844543
 22
11.1
 32
0
 13
359.1674306844543
 23
11.1
 33
0
  0
MTEXT
  5
229
100
AcDbEntity
  8
rozmir
  6
CONTINUOUS
 62
  256
370
   -2
100
AcDbMText
 10
357
 20
8.299999999999994
 30
0
 40
4
 41
8.666666666667162
 71
    5
 72
    1
  1
15,6
  7
standard
210
0
220
0
230
1
 50
90
 73
    2
 44
1
  0
LINE
  5
22A
100
AcDbEntity
  8
rozmir
  6
ByBlock
 62
    0
370
   -2
100
AcDbLine
 10
341.5000000000001
 20
0.4999999999999891
 11
362
 21
0.4999999999999893
  0
LINE
  5
22B
100
AcDbEntity
  8
rozmir
  6
ByBlock
 62
    0
370
   -2
100
AcDbLine
 10
346
 20
16.1
 11
362
 21
16.1
  0
ENDBLK
  5
ED
330
EB
100
AcDbEntity
  8
0
100
AcDbBlockEnd
  0
BLOCK
  5
EF
330
EE
100
AcDbEntity
  8
0
100
AcDbBlockBegin
  2
*D5
 70
    1
 10
0
 20
0
  3
*D5
  1

  0
LINE
  5
22C
100
AcDbEntity
  8
rozmir_otvir
  6
ByBlock
 62
    0
370
   -2
100
AcDbLine
 10
-9.800000000000015
 20
0
 11
-9.800000000000001
 21
258
  0
SOLID
  5
22D
100
AcDbEntity
  8
rozmir_otvir
  6
ByBlock
 62
    0
370
   -2
100
AcDbTrace
 10
-9.800000000000015
 20
0
 30
0
 11
-10.63256931554569
 21
5
 31
0
 12
-8.967430684454333
 22
5
 32
0
 13
-8.967430684454333
 23
5
 33
0
  0
SOLID
  5
22E
100
AcDbEntity
  8
rozmir_otvir
  6
ByBlock
 62
    0
370
   -2
100
AcDbTrace
 10
-9.800000000000001
 20
258
 30
0
 11
-8.967430684454319
 21
253
 31
0
 12
-10.63256931554568
 22
253
 32
0
 13
-10.63256931554568
 23
253
 33
0
  0
MTEXT
  5
22F
100
AcDbEntity
  8
rozmir_otvir
  6
CONTINUOUS
 62
  256
370
   -2
100
AcDbMText
 10
-12.80000000000001
 20
129
 30
0
 40
4
 41
8.000000000000249
 71
    5
 72
    1
  1
258
  7
standard
210
0
220
0
230
1
 50
90
 73
    2
 44
1
  0
LINE
  5
230
100
AcDbEntity
  8
rozmir_otvir
  6
ByBlock
 62
    0
370
   -2
100
AcDbLine
 10
-2.300000000000001
 20
1.224646799147353e-16
 11
-11.80000000000001
 21
2.449293598294706e-16
  0
LINE
  5
231
100
AcDbEntity
  8
rozmir_otvir
  6
ByBlock
 62
    0
370
   -2
100
AcDbLine
 10
0.6999999999999991
 20
258
 11
-11.8
 21
258
  0
ENDBLK
  5
F0
330
EE
100
AcDbEntity
  8
0
100
AcDbBlockEnd
  0
BLOCK
  5
F2
330
F1
100
AcDbEntity
  8
0
100
AcDbBlockBegin
  2
*D14
 70
    1
 10
0
 20
0
  3
*D14
  1

  0
LINE
  5
232
100
AcDbEntity
  8
rozmir_lyst
  6
ByBlock
 62
    0
370
   -2
100
AcDbLine
 10
14.29999999999995
 20
175
 11
71.30000000000007
 21
175
  0
SOLID
  5
233
100
AcDbEntity
  8
rozmir_lyst
  6
ByBlock
 62
    0
370
   -2
100
AcDbTrace
 10
14.29999999999995
 20
175
 30
0
 11
19.29999999999995
 21
175.8325693155457
 31
0
 12
19.29999999999995
 22
174.1674306844543
 32
0
 13
19.29999999999995
 23
174.1674306844543
 33
0
  0
SOLID
  5
234
100
AcDbEntity
  8
rozmir_lyst
  6
ByBlock
 62
    0
370
   -2
100
AcDbTrace
 10
71.30000000000007
 20
175
 30
0
 11
66.30000000000007
 21
174.1674306844543
 31
0
 12
66.30000000000007
 22
175.8325693155457
 32
0
 13
66.30000000000007
 23
175.8325693155457
 33
0
  0
MTEXT
  5
235
100
AcDbEntity
  8
rozmir_lyst
  6
CONTINUOUS
 62
  256
370
   -2
100
AcDbMText
 10
42.80000000000001
 20
178
 30
0
 40
4
 41
4.888888888889136
 71
    5
 72
    1
  1
57
  7
standard
210
0
220
0
230
1
 50
0
 73
    2
 44
1
  0
LINE
  5
236
100
AcDbEntity
  8
rozmir_lyst
  6
ByBlock
 62
    0
370
   -2
100
AcDbLine
 10
14.29999999999995
 20
190.7
 11
14.29999999999995
 21
173
  0
LINE
  5
237
100
AcDbEntity
  8
rozmir_lyst
  6
ByBlock
 62
    0
370
   -2
100
AcDbLine
 10
71.30000000000007
 20
190.7
 11
71.30000000000007
 21
173
  0
ENDBLK
  5
F3
330
F1
100
AcDbEntity
  8
0
100
AcDbBlockEnd
  0
BLOCK
  5
F5
330
F4
100
AcDbEntity
  8
0
100
AcDbBlockBegin
  2
*D36
 70
    1
 10
0
 20
0
  3
*D36
  1

  0
LINE
  5
238
100
AcDbEntity
  8
rozmir
  6
ByBlock
 62
    0
370
   -2
100
AcDbLine
 10
390
 20
243.8
 11
390
 21
0.499999999999989
  0
SOLID
  5
239
100
AcDbEntity
  8
rozmir
  6
ByBlock
 62
    0
370
   -2
100
AcDbTrace
 10
390
 20
243.8
 30
0
 11
390.8325693155457
 21
238.8
 31
0
 12
389.1674306844543
 22
238.8
 32
0
 13
389.1674306844543
 23
238.8
 33
0
  0
SOLID
  5
23A
100
AcDbEntity
  8
rozmir
  6
ByBlock
 62
    0
370
   -2
100
AcDbTrace
 10
390
 20
0.499999999999989
 30
0
 11
389.1674306844543
 21
5.499999999999989
 31
0
 12
390.8325693155457
 22
5.499999999999989
 32
0
 13
390.8325693155457
 23
5.499999999999989
 33
0
  0
MTEXT
  5
23B
100
AcDbEntity
  8
rozmir
  6
CONTINUOUS
 62
  256
370
   -2
100
AcDbMText
 10
387
 20
122.15
 30
0
 40
4
 41
13.11111111111161
 71
    5
 72
    1
  1
243,3
  7
standard
210
0
220
0
230
1
 50
90
 73
    2
 44
1
  0
LINE
  5
23C
100
AcDbEntity
  8
rozmir
  6
ByBlock
 62
    0
370
   -2
100
AcDbLine
 10
398.9
 20
243.8
 11
388
 21
243.8
  0
LINE
  5
23D
100
AcDbEntity
  8
rozmir
  6
ByBlock
 62
    0
370
   -2
100
AcDbLine
 10
398.9000000000001
 20
0.4999999999999891
 11
388
 21
0.4999999999999892
  0
ENDBLK
  5
F6
330
F4
100
AcDbEntity
  8
0
100
AcDbBlockEnd
  0
BLOCK
  5
F8
330
F7
100
AcDbEntity
  8
0
100
AcDbBlockBegin
  2
*D8
 70
    1
 10
0
 20
0
  3
*D8
  1

  0
LINE
  5
23E
100
AcDbEntity
  8
rozmir
  6
ByBlock
 62
    0
370
   -2
100
AcDbLine
 10
124
 20
230.1
 11
144.4
 21
230.1
  0
SOLID
  5
23F
100
AcDbEntity
  8
rozmir
  6
ByBlock
 62
    0
370
   -2
100
AcDbTrace
 10
134
 20
230.1
 30
0
 11
129
 21
229.2674306844543
 31
0
 12
129
 22
230.9325693155457
 32
0
 13
129
 23
230.9325693155457
 33
0
  0
SOLID
  5
240
100
AcDbEntity
  8
rozmir
  6
ByBlock
 62
    0
370
   -2
100
AcDbTrace
 10
134.4
 20
230.1
 30
0
 11
139.4
 21
230.9325693155457
 31
0
 12
139.4
 22
229.2674306844543
 32
0
 13
139.4
 23
229.2674306844543
 33
0
  0
MTEXT
  5
241
100
AcDbEntity
  8
rozmir
  6
CONTINUOUS
 62
  256
370
   -2
100
AcDbMText
 10
138.8444444444444
 20
233.1
 30
0
 40
4
 41
6.888888888888889
 71
    5
 72
    1
  1
0,4
  7
standard
210
0
220
0
230
1
 50
0
 73
    2
 44
1
  0
LINE
  5
242
100
AcDbEntity
  8
rozmir
  6
ByBlock
 62
    0
370
   -2
100
AcDbLine
 10
134
 20
231.1
 11
134
 21
232.1
  0
LINE
  5
243
100
AcDbEntity
  8
rozmir
  6
ByBlock
 62
    0
370
   -2
100
AcDbLine
 10
134.4
 20
231.1
 11
134.4
 21
232.1
  0
ENDBLK
  5
F9
330
F7
100
AcDbEntity
  8
0
100
AcDbBlockEnd
  0
BLOCK
  5
FB
330
FA
100
AcDbEntity
  8
0
100
AcDbBlockBegin
  2
*D35
 70
    1
 10
0
 20
0
  3
*D35
  1

  0
LINE
  5
244
100
AcDbEntity
  8
rozmir
  6
ByBlock
 62
    0
370
   -2
100
AcDbLine
 10
330
 20
0
 11
330
 21
244.3
  0
SOLID
  5
245
100
AcDbEntity
  8
rozmir
  6
ByBlock
 62
    0
370
   -2
100
AcDbTrace
 10
330
 20
0
 30
0
 11
329.1674306844543
 21
5
 31
0
 12
330.8325693155457
 22
5
 32
0
 13
330.8325693155457
 23
5
 33
0
  0
SOLID
  5
246
100
AcDbEntity
  8
rozmir
  6
ByBlock
 62
    0
370
   -2
100
AcDbTrace
 10
330
 20
244.3
 30
0
 11
330.8325693155457
 21
239.3
 31
0
 12
329.1674306844543
 22
239.3
 32
0
 13
329.1674306844543
 23
239.3
 33
0
  0
MTEXT
  5
247
100
AcDbEntity
  8
rozmir
  6
CONTINUOUS
 62
  256
370
   -2
100
AcDbMText
 10
327
 20
122.15
 30
0
 40
4
 41
13.5555555555558
 71
    5
 72
    1
  1
244,3
  7
standard
210
0
220
0
230
1
 50
90
 73
    2
 44
1
  0
LINE
  5
248
100
AcDbEntity
  8
rozmir
  6
ByBlock
 62
    0
370
   -2
100
AcDbLine
 10
339.0000000000001
 20
-9.897298117327299e-15
 11
328
 21
2.021286199229721e-15
  0
LINE
  5
249
100
AcDbEntity
  8
rozmir
  6
ByBlock
 62
    0
370
   -2
100
AcDbLine
 10
339
 20
244.3
 11
328
 21
244.3
  0
ENDBLK
  5
FC
330
FA
100
AcDbEntity
  8
0
100
AcDbBlockEnd
  0
BLOCK
  5
FE
330
FD
100
AcDbEntity
  8
0
100
AcDbBlockBegin
  2
*D9
 70
    1
 10
0
 20
0
  3
*D9
  1

  0
LINE
  5
24A
100
AcDbEntity
  8
rozmir
  6
ByBlock
 62
    0
370
   -2
100
AcDbLine
 10
100
 20
260
 11
100
 21
239.7
  0
SOLID
  5
24B
100
AcDbEntity
  8
rozmir
  6
ByBlock
 62
    0
370
   -2
100
AcDbTrace
 10
100
 20
250
 30
0
 11
99.16743068445432
 21
255
 31
0
 12
100.8325693155457
 22
255
 32
0
 13
100.8325693155457
 23
255
 33
0
  0
SOLID
  5
24C
100
AcDbEntity
  8
rozmir
  6
ByBlock
 62
    0
370
   -2
100
AcDbTrace
 10
100
 20
249.7
 30
0
 11
100.8325693155457
 21
244.7
 31
0
 12
99.16743068445432
 22
244.7
 32
0
 13
99.16743068445432
 23
244.7
 33
0
  0
MTEXT
  5
24D
100
AcDbEntity
  8
rozmir
  6
CONTINUOUS
 62
  256
370
   -2
100
AcDbMText
 10
97
 20
254.2222222222223
 30
0
 40
4
 41
6.444444444444692
 71
    5
 72
    1
  1
0,3
  7
standard
210
0
220
0
230
1
 50
90
 73
    2
 44
1
  0
LINE
  5
24E
100
AcDbEntity
  8
rozmir
  6
ByBlock
 62
    0
370
   -2
100
AcDbLine
 10
99
 20
250
 11
98
 21
250
  0
LINE
  5
24F
100
AcDbEntity
  8
rozmir
  6
ByBlock
 62
    0
370
   -2
100
AcDbLine
 10
99
 20
249.7
 11
98
 21
249.7
  0
ENDBLK
  5
FF
330
FD
100
AcDbEntity
  8
0
100
AcDbBlockEnd
  0
ENDSEC
  0
SECTION
  2
ENTITIES
  0
HATCH
  5
250
100
AcDbEntity
  8
vorota
  6
ByLayer
 62
  256
370
   -1
100
AcDbHatch
 10
0
 20
0
 30
0
210
0
220
0
230
1
  2
gost_metal
 70
    0
 71
    0
 91
    1
 92
    0
 93
    9
 72
    1
 10
134
 20
-92.00000000000001
 11
134
 21
-97
 72
    1
 10
134
 20
-97
 11
129
 21
-97
 72
    1
 10
129
 20
-97
 11
129
 21
-96.7
 72
    1
 10
129
 20
-96.7
 11
129.2
 21
-96.5
 72
    1
 10
129.2
 20
-96.5
 11
133.1999999999999
 21
-96.50000000000001
 72
    1
 10
133.1999999999999
 20
-96.50000000000001
 11
133.5
 21
-96.20000000000002
 72
    1
 10
133.5
 20
-96.20000000000002
 11
133.5
 21
-92.20000000000002
 72
    1
 10
133.5
 20
-92.20000000000002
 11
133.6999999999999
 21
-92.00000000000003
 72
    1
 10
133.6999999999999
 20
-92.00000000000003
 11
134
 21
-92.00000000000001
 97
    0
 75
    0
 76
    1
 52
0
 41
0.1
 77
    0
 78
    0
 98
    0
  0
HATCH
  5
251
100
AcDbEntity
  8
vorota
  6
ByLayer
 62
  256
370
   -1
100
AcDbHatch
 10
0
 20
0
 30
0
210
0
220
0
230
1
  2
gost_metal
 70
    0
 71
    0
 91
    1
 92
    0
 93
    9
 72
    1
 10
139.1999999999999
 20
-96.5
 11
135.2
 21
-96.50000000000001
 72
    1
 10
135.2
 20
-96.50000000000001
 11
134.9
 21
-96.20000000000002
 72
    1
 10
134.9
 20
-96.20000000000002
 11
134.9
 21
-92.20000000000002
 72
    1
 10
134.9
 20
-92.20000000000002
 11
134.7
 21
-92.00000000000003
 72
    1
 10
134.7
 20
-92.00000000000003
 11
134.4
 21
-92.00000000000001
 72
    1
 10
134.4
 20
-92.00000000000001
 11
134.4
 21
-97
 72
    1
 10
134.4
 20
-97
 11
139.4
 21
-97
 72
    1
 10
139.4
 20
-97
 11
139.4
 21
-96.7
 72
    1
 10
139.4
 20
-96.7
 11
139.1999999999999
 21
-96.5
 97
    0
 75
    0
 76
    1
 52
3.141592653589793
 41
0.1
 77
    0
 78
    0
 98
    0
  0
HATCH
  5
252
100
AcDbEntity
  8
vorota
  6
ByLayer
 62
  256
370
   -1
100
AcDbHatch
 10
0
 20
0
 30
0
210
0
220
0
230
1
  2
gost_metal
 70
    0
 71
    0
 91
    1
 92
    0
 93
   13
 72
    1
 10
10.29999999999999
 20
-92
 11
10.59999999999999
 21
-92.00000000000001
 72
    1
 10
10.59999999999999
 20
-92.00000000000001
 11
10.79999999999999
 21
-92.2
 72
    1
 10
10.79999999999999
 20
-92.2
 11
10.79999999999999
 21
-93.90000000000001
 72
    1
 10
10.79999999999999
 20
-93.90000000000001
 11
10.29999999999999
 21
-93.89999999999999
 72
    1
 10
10.29999999999999
 20
-93.89999999999999
 11
10.29999999999999
 21
-92
 72
    1
 10
10.29999999999999
 20
-97
 11
15.29999999999999
 21
-97
 72
    1
 10
15.29999999999999
 20
-97
 11
15.29999999999999
 21
-96.69999999999999
 72
    1
 10
15.29999999999999
 20
-96.69999999999999
 11
15.10000000000001
 21
-96.49999999999999
 72
    1
 10
15.10000000000001
 20
-96.49999999999999
 11
11.1
 21
-96.5
 72
    1
 10
11.1
 20
-96.5
 11
10.8
 21
-96.19999999999999
 72
    1
 10
10.8
 20
-96.19999999999999
 11
10.79999999999999
 21
-95.10000000000001
 72
    1
 10
10.79999999999999
 20
-95.10000000000001
 11
10.29999999999999
 21
-95.09999999999999
 72
    1
 10
10.29999999999999
 20
-95.09999999999999
 11
10.29999999999999
 21
-97
 97
    0
 75
    0
 76
    1
 52
0
 41
0.1
 77
    0
 78
    0
 98
    0
  0
HATCH
  5
253
100
AcDbEntity
  8
vorota
  6
ByLayer
 62
  256
370
   -1
100
AcDbHatch
 10
0
 20
0
 30
0
210
0
220
0
230
1
  2
gost_metal
 70
    0
 71
    0
 91
    1
 92
    0
 93
   13
 72
    1
 10
257.6
 20
-96.19999999999999
 11
257.6
 21
-95.10000000000001
 72
    1
 10
257.6
 20
-95.10000000000001
 11
258.1
 21
-95.09999999999999
 72
    1
 10
258.1
 20
-95.09999999999999
 11
258.1
 21
-97
 72
    1
 10
258.1
 20
-97
 11
253.1
 21
-97
 72
    1
 10
253.1
 20
-97
 11
253.1
 21
-96.69999999999999
 72
    1
 10
253.1
 20
-96.69999999999999
 11
253.3
 21
-96.49999999999999
 72
    1
 10
253.3
 20
-96.49999999999999
 11
257.3
 21
-96.5
 72
    1
 10
257.3
 20
-96.5
 11
257.6
 21
-96.19999999999999
 72
    1
 10
258.1
 20
-93.89999999999999
 11
258.1
 21
-92
 72
    1
 10
258.1
 20
-92
 11
257.8
 21
-92.00000000000001
 72
    1
 10
257.8
 20
-92.00000000000001
 11
257.6
 21
-92.2
 72
    1
 10
257.6
 20
-92.2
 11
257.6
 21
-93.90000000000001
 72
    1
 10
257.6
 20
-93.90000000000001
 11
258.1
 21
-93.89999999999999
 97
    0
 75
    0
 76
    1
 52
3.141592653589793
 41
0.1
 77
    0
 78
    0
 98
    0
  0
HATCH
  5
254
100
AcDbEntity
  8
ramka
  6
ByLayer
 62
  256
370
   -1
100
AcDbHatch
 10
0
 20
0
 30
0
210
0
220
0
230
1
  2
gost_metal
 70
    0
 71
    0
 91
    1
 92
    0
 93
   20
 72
    1
 10
9.699999999999999
 20
-93.8
 11
9.699999999999999
 21
-92.5
 72
    1
 10
9.699999999999999
 20
-92.5
 11
9.5
 21
-92.3
 72
    1
 10
9.5
 20
-92.3
 11
0.5
 21
-92.3
 72
    1
 10
0.5
 20
-92.3
 11
0.3000000000000007
 21
-92.5
 72
    1
 10
0.3000000000000007
 20
-92.5
 11
0.3000000000000007
 21
-96.5
 72
    1
 10
0.3000000000000007
 20
-96.5
 11
0.5
 21
-96.7
 72
    1
 10
0.5
 20
-96.7
 11
9.5
 21
-96.7
 72
    1
 10
9.5
 20
-96.7
 11
9.699999999999999
 21
-96.5
 72
    1
 10
9.699999999999999
 20
-96.5
 11
9.699999999999999
 21
-95.60000000000002
 72
    1
 10
9.699999999999999
 20
-95.60000000000002
 11
10
 21
-95.60000000000001
 72
    1
 10
10
 20
-95.60000000000001
 11
10
 21
-96.60000000000001
 72
    1
 10
10
 20
-96.60000000000001
 11
9.599999999999998
 21
-97
 72
    1
 10
9.599999999999998
 20
-97
 11
0.3999999999999986
 21
-97
 72
    1
 10
0.3999999999999986
 20
-97
 11
0
 21
-96.59999999999999
 72
    1
 10
0
 20
-96.59999999999999
 11
0
 21
-92.39999999999999
 72
    1
 10
0
 20
-92.39999999999999
 11
0.3999999999999986
 21
-92
 72
    1
 10
0.3999999999999986
 20
-92
 11
9.599999999999998
 21
-92
 72
    1
 10
9.599999999999998
 20
-92
 11
10
 21
-92.39999999999999
 72
    1
 10
10
 20
-92.39999999999999
 11
10
 21
-93.8
 72
    1
 10
10
 20
-93.8
 11
9.699999999999999
 21
-93.8
 97
    0
 75
    0
 76
    1
 52
1.570796326794897
 41
0.1
 77
    0
 78
    0
 98
    0
  0
HATCH
  5
255
100
AcDbEntity
  8
ramka
  6
ByLayer
 62
  256
370
   -1
100
AcDbHatch
 10
0
 20
0
 30
0
210
0
220
0
230
1
  2
gost_metal
 70
    0
 71
    0
 91
    1
 92
    0
 93
   20
 72
    1
 10
268.1
 20
-92.5
 11
268.1
 21
-96.5
 72
    1
 10
268.1
 20
-96.5
 11
267.8999999999999
 21
-96.7
 72
    1
 10
267.8999999999999
 20
-96.7
 11
258.8999999999999
 21
-96.7
 72
    1
 10
258.8999999999999
 20
-96.7
 11
258.7
 21
-96.5
 72
    1
 10
258.7
 20
-96.5
 11
258.7
 21
-95.60000000000001
 72
    1
 10
258.7
 20
-95.60000000000001
 11
258.3999999999999
 21
-95.59999999999999
 72
    1
 10
258.3999999999999
 20
-95.59999999999999
 11
258.3999999999999
 21
-96.60000000000001
 72
    1
 10
258.3999999999999
 20
-96.60000000000001
 11
258.8
 21
-97
 72
    1
 10
258.8
 20
-97
 11
268
 21
-97
 72
    1
 10
268
 20
-97
 11
268.3999999999999
 21
-96.59999999999999
 72
    1
 10
268.3999999999999
 20
-96.59999999999999
 11
268.3999999999999
 21
-92.39999999999999
 72
    1
 10
268.3999999999999
 20
-92.39999999999999
 11
268
 21
-92
 72
    1
 10
268
 20
-92
 11
258.8
 21
-92
 72
    1
 10
258.8
 20
-92
 11
258.3999999999999
 21
-92.39999999999999
 72
    1
 10
258.3999999999999
 20
-92.39999999999999
 11
258.3999999999999
 21
-93.8
 72
    1
 10
258.3999999999999
 20
-93.8
 11
258.7
 21
-93.8
 72
    1
 10
258.7
 20
-93.8
 11
258.7
 21
-92.5
 72
    1
 10
258.7
 20
-92.5
 11
258.8999999999999
 21
-92.3
 72
    1
 10
258.8999999999999
 20
-92.3
 11
267.8999999999999
 21
-92.3
 72
    1
 10
267.8999999999999
 20
-92.3
 11
268.1
 21
-92.5
 97
    0
 75
    0
 76
    1
 52
4.71238898038469
 41
0.1
 77
    0
 78
    0
 98
    0
  0
DIMENSION
  5
256
100
AcDbEntity
  8
rozmir_otvir
  6
ByLayer
 62
  256
370
   -1
100
AcDbDimension
  2
*D1
 10
-29.8
 20
0.9999999999999969
 30
0
 11
-32.79999999999999
 21
130.75
 31
0
 70
   32
 71
    5
  3
Standard
 53
0
210
0
220
0
230
1
100
AcDbAlignedDimension
 13
-1.300000000000001
 23
261.5
 33
0
 14
-1.300000000000001
 24
-7.105427357601002e-15
 34
0
 50
90
100
AcDbRotatedDimension
  0
LWPOLYLINE
  5
257
100
AcDbEntity
  8
gazoblok
  6
ByLayer
 62
  256
370
   -1
100
AcDbPolyline
 90
    4
 70
    1
 43
0
 10
-1.300000000000001
 20
261.5
 10
269.7
 20
261.5
 10
269.7
 20
0
 10
-1.300000000000001
 20
0
  0
DIMENSION
  5
258
100
AcDbEntity
  8
rozmir_otvir
  6
ByLayer
 62
  256
370
   -1
100
AcDbDimension
  2
*D2
 10
269.7
 20
283
 30
0
 11
134.2
 21
286
 31
0
 70
   32
 71
    5
  3
Standard
 53
0
210
0
220
0
230
1
100
AcDbAlignedDimension
 13
-1.300000000000001
 23
259
 33
0
 14
269.7
 24
261.5
 34
0
100
AcDbRotatedDimension
  0
LWPOLYLINE
  5
259
100
AcDbEntity
  8
fasad
  6
ByLayer
 62
  256
370
   -1
100
AcDbPolyline
 90
    4
 70
    1
 43
0
 10
1.699999999999999
 20
258
 10
266.6999999999999
 20
258
 10
266.6999999999999
 20
0
 10
1.699999999999999
 20
0
  0
DIMENSION
  5
25A
100
AcDbEntity
  8
rozmir_otvir
  6
ByLayer
 62
  256
370
   -1
100
AcDbDimension
  2
*D3
 10
1.699999999999999
 20
263
 30
0
 11
134.1999999999999
 21
266
 31
0
 70
   32
 71
    5
  3
Standard
 53
0
210
0
220
0
230
1
100
AcDbAlignedDimension
 13
266.6999999999999
 23
257
 33
0
 14
1.699999999999999
 24
257
 34
0
100
AcDbRotatedDimension
  0
DIMENSION
  5
25B
100
AcDbEntity
  8
rozmir
  6
ByLayer
 62
  256
370
   -1
100
AcDbDimension
  2
*D4
 10
267.2
 20
273
 30
0
 11
134.2
 21
276
 31
0
 70
   32
 71
    5
  3
Standard
 53
0
210
0
220
0
230
1
100
AcDbAlignedDimension
 13
0
 23
260
 33
0
 14
268.4
 24
260
 34
0
100
AcDbRotatedDimension
  0
DIMENSION
  5
25C
100
AcDbEntity
  8
rozmir_otvir
  6
ByLayer
 62
  256
370
   -1
100
AcDbDimension
  2
*D5
 10
-9.800000000000001
 20
256
 30
0
 11
-12.80000000000001
 21
129
 31
0
 70
   32
 71
    5
  3
Standard
 53
0
210
0
220
0
230
1
100
AcDbAlignedDimension
 13
-1.300000000000001
 23
0
 33
0
 14
1.699999999999999
 24
258
 34
0
 50
90
100
AcDbRotatedDimension
  0
LWPOLYLINE
  5
25D
100
AcDbEntity
  8
ramka
  6
ByLayer
 62
  256
370
   -1
100
AcDbPolyline
 90
    4
 70
    1
 43
0
 10
268.4
 20
5
 10
0
 20
5
 10
0
 20
0
 10
268.4
 20
0
  0
LWPOLYLINE
  5
25E
100
AcDbEntity
  8
lyst
  6
CONTINUOUS
 62
  256
370
   -1
100
AcDbPolyline
 90
    5
 70
    1
 43
0
 10
134.4
 20
4
 10
259.4
 20
4
 10
259.4
 20
251
 10
134.4
 20
251
 10
134.4
 20
251
  0
LINE
  5
25F
100
AcDbEntity
  8
vorota
  6
ByLayer
 62
  256
370
   -1
100
AcDbLine
 10
8.5
 20
-93.89999999999999
 11
8.5
 21
-95.09999999999999
  0
CIRCLE
  5
260
100
AcDbEntity
  8
petli
  6
ByLayer
 62
  256
370
   -1
100
AcDbCircle
 10
8.449999999999999
 20
-98.45
 40
1.350000000000001
  0
LINE
  5
261
100
AcDbEntity
  8
rozmir
  6
DASHDOT2
 62
  256
370
   -1
100
AcDbLine
 10
6.75
 20
-98.45
 11
10.15
 21
-98.45
  0
LINE
  5
262
100
AcDbEntity
  8
rozmir
  6
DASHDOT2
 62
  256
370
   -1
100
AcDbLine
 10
8.449999999999999
 20
-100.15
 11
8.449999999999999
 21
-96.75
  0
LWPOLYLINE
  5
263
100
AcDbEntity
  8
petli
  6
ByLayer
 62
  256
370
   -1
100
AcDbPolyline
 90
    4
 70
    1
 43
0
 10
3.5
 20
-97.5
 10
7.5
 20
-97.5
 10
7.5
 20
-97
 10
3.5
 20
-97
  0
LWPOLYLINE
  5
264
100
AcDbEntity
  8
lyst
  6
DASHED2
 62
  256
370
   -1
100
AcDbPolyline
 90
    4
 70
    0
 43
0
 10
13.4
 20
-97.2
 10
9.199999999999999
 20
-97.2
 10
9.199999999999999
 20
-97
 10
13.4
 20
-97
  0
LINE
  5
265
100
AcDbEntity
  8
vorota
  6
ByLayer
 62
  256
370
   -1
100
AcDbLine
 10
259.8999999999999
 20
-93.89999999999999
 11
259.8999999999999
 21
-95.09999999999999
  0
CIRCLE
  5
266
100
AcDbEntity
  8
ramka
  6
ByLayer
 62
  256
370
   -1
100
AcDbCircle
 10
259.95
 20
-98.45
 40
1.350000000000001
  0
LINE
  5
267
100
AcDbEntity
  8
rozmir
  6
DASHDOT2
 62
  256
370
   -1
100
AcDbLine
 10
261.6499999999999
 20
-98.45
 11
258.25
 21
-98.45
  0
LINE
  5
268
100
AcDbEntity
  8
rozmir
  6
DASHDOT2
 62
  256
370
   -1
100
AcDbLine
 10
259.95
 20
-100.15
 11
259.95
 21
-96.75
  0
LWPOLYLINE
  5
269
100
AcDbEntity
  8
ramka
  6
ByLayer
 62
  256
370
   -1
100
AcDbPolyline
 90
    4
 70
    1
 43
0
 10
264.8999999999999
 20
-97.5
 10
260.8999999999999
 20
-97.5
 10
260.8999999999999
 20
-97
 10
264.8999999999999
 20
-97
  0
LWPOLYLINE
  5
26A
100
AcDbEntity
  8
lyst
  6
DASHED2
 62
  256
370
   -1
100
AcDbPolyline
 90
    4
 70
    0
 43
0
 10
255
 20
-97.2
 10
259.2
 20
-97.2
 10
259.2
 20
-97
 10
255
 20
-97
  0
LWPOLYLINE
  5
26B
100
AcDbEntity
  8
vorota
  6
ByLayer
 62
  256
370
   -1
100
AcDbPolyline
 90
   10
 70
    0
 43
0
 10
134
 20
-97
 10
129
 20
-97
 10
129
 20
-96.7
 10
129.2
 20
-96.5
 10
133.1999999999999
 20
-96.50000000000001
 10
133.5
 20
-96.20000000000002
 10
133.5
 20
-92.20000000000002
 10
133.6999999999999
 20
-92.00000000000003
 10
134
 20
-92.00000000000001
 10
134
 20
-97
  0
LWPOLYLINE
  5
26C
100
AcDbEntity
  8
lyst
  6
ByLayer
 62
  256
370
   -1
100
AcDbPolyline
 90
    4
 70
    0
 43
0
 10
13.4
 20
-97.2
 10
134
 20
-97.2
 10
134
 20
-97
 10
13.4
 20
-97
  0
LWPOLYLINE
  5
26D
100
AcDbEntity
  8
vorota
  6
ByLayer
 62
  256
370
   -1
100
AcDbPolyline
 90
   10
 70
    0
 43
0
 10
134.4
 20
-97
 10
139.4
 20
-97
 10
139.4
 20
-96.7
 10
139.1999999999999
 20
-96.5
 10
135.2
 20
-96.50000000000001
 10
134.9
 20
-96.20000000000002
 10
134.9
 20
-92.20000000000002
 10
134.7
 20
-92.00000000000003
 10
134.4
 20
-92.00000000000001
 10
134.4
 20
-97
  0
LWPOLYLINE
  5
26E
100
AcDbEntity
  8
lyst
  6
ByLayer
 62
  256
370
   -1
100
AcDbPolyline
 90
    4
 70
    0
 43
0
 10
255
 20
-97.2
 10
134.3999999999999
 20
-97.2
 10
134.3999999999999
 20
-97
 10
255
 20
-97
  0
LINE
  5
26F
100
AcDbEntity
  8
ramka
  6
ByLayer
 62
  256
370
   -1
100
AcDbLine
 10
258.8
 20
-92
 11
9.599999999999991
 21
-92
  0
LINE
  5
270
100
AcDbEntity
  8
ramka
  6
ByLayer
 62
  256
370
   -1
100
AcDbLine
 10
9.600000000000009
 20
-97
 11
258.8
 21
-97
  0
LINE
  5
271
100
AcDbEntity
  8
rozmir
  6
DASHDOT2
 62
  256
370
   -1
100
AcDbLine
 10
7.800000000000001
 20
-94.49999999999999
 11
11.19999999999999
 21
-94.49999999999999
  0
LINE
  5
272
100
AcDbEntity
  8
vorota
  6
DASHED2
 62
  256
370
   -1
100
AcDbLine
 10
10.29999999999999
 20
-93.89999999999999
 11
10.29999999999999
 21
-95.09999999999999
  0
LWPOLYLINE
  5
273
100
AcDbEntity
  8
vorota
  6
ByLayer
 62
  256
370
   -1
100
AcDbPolyline
 90
    6
 70
    0
 43
0
 10
10.29999999999999
 20
-93.89999999999999
 10
10.29999999999999
 20
-92
 10
10.59999999999999
 20
-92.00000000000001
 10
10.79999999999999
 20
-92.2
 10
10.79999999999999
 20
-93.90000000000001
 10
10.29999999999999
 20
-93.89999999999999
  0
LWPOLYLINE
  5
274
100
AcDbEntity
  8
vorota
  6
CONTINUOUS
 62
   96
420
32768
370
   50
100
AcDbPolyline
 90
    9
 70
    0
 43
0
 10
10.29999999999999
 20
-97
 10
15.29999999999999
 20
-97
 10
15.29999999999999
 20
-96.69999999999999
 10
15.10000000000001
 20
-96.49999999999999
 10
11.1
 20
-96.5
 10
10.8
 20
-96.19999999999999
 10
10.79999999999999
 20
-95.10000000000001
 10
10.29999999999999
 20
-95.09999999999999
 10
10.29999999999999
 20
-97
  0
LINE
  5
275
100
AcDbEntity
  8
vorota
  6
ByLayer
 62
  256
370
   -1
100
AcDbLine
 10
10.6
 20
-92.00000000000001
 11
133.7
 21
-92.00000000000001
  0
LINE
  5
276
100
AcDbEntity
  8
vorota
  6
ByLayer
 62
  256
370
   -1
100
AcDbLine
 10
15.29999999999999
 20
-97
 11
129
 21
-96.99999999999999
  0
LINE
  5
277
100
AcDbEntity
  8
vorota
  6
ByLayer
 62
  256
370
   -1
100
AcDbLine
 10
15.10000000000001
 20
-96.49999999999999
 11
129.2
 21
-96.49999999999999
  0
DIMENSION
  5
278
100
AcDbEntity
  8
rozmir
  6
ByLayer
 62
  256
370
   -1
100
AcDbDimension
  2
*D6
 10
108.2
 20
-87
 30
0
 11
72.14999999999999
 21
-84
 31
0
 70
   32
 71
    5
  3
Standard
 53
0
210
0
220
0
230
1
100
AcDbAlignedDimension
 13
10.29999999999999
 23
-92
 33
0
 14
134
 24
-92
 34
0
100
AcDbRotatedDimension
  0
LINE
  5
279
100
AcDbEntity
  8
rozmir
  6
DASHDOT2
 62
  256
370
   -1
100
AcDbLine
 10
260.6
 20
-94.49999999999999
 11
257.2
 21
-94.49999999999999
  0
LINE
  5
27A
100
AcDbEntity
  8
vorota
  6
DASHED2
 62
  256
370
   -1
100
AcDbLine
 10
258.1
 20
-93.89999999999999
 11
258.1
 21
-95.09999999999999
  0
LWPOLYLINE
  5
27B
100
AcDbEntity
  8
vorota
  6
ByLayer
 62
  256
370
   -1
100
AcDbPolyline
 90
    7
 70
    0
 43
0
 10
257.6
 20
-95.10000000000001
 10
259.8999999999999
 20
-95.09999999999999
 10
260.1
 20
-94.89999999999999
 10
260.1
 20
-94.09999999999999
 10
259.8999999999999
 20
-93.89999999999999
 10
257.6
 20
-93.90000000000001
 10
257.6
 20
-95.10000000000001
  0
LWPOLYLINE
  5
27C
100
AcDbEntity
  8
vorota
  6
ByLayer
 62
  256
370
   -1
100
AcDbPolyline
 90
    6
 70
    0
 43
0
 10
258.1
 20
-93.89999999999999
 10
258.1
 20
-92
 10
257.8
 20
-92.00000000000001
 10
257.6
 20
-92.2
 10
257.6
 20
-93.90000000000001
 10
258.1
 20
-93.89999999999999
  0
LWPOLYLINE
  5
27D
100
AcDbEntity
  8
vorota
  6
CONTINUOUS
 62
   96
420
32768
370
   50
100
AcDbPolyline
 90
    9
 70
    0
 43
0
 10
258.1
 20
-97
 10
253.1
 20
-97
 10
253.1
 20
-96.69999999999999
 10
253.3
 20
-96.49999999999999
 10
257.3
 20
-96.5
 10
257.6
 20
-96.19999999999999
 10
257.6
 20
-95.10000000000001
 10
258.1
 20
-95.09999999999999
 10
258.1
 20
-97
  0
LINE
  5
27E
100
AcDbEntity
  8
vorota
  6
ByLayer
 62
  256
370
   -1
100
AcDbLine
 10
257.8
 20
-92.00000000000001
 11
134.6999999999999
 21
-92.00000000000001
  0
LINE
  5
27F
100
AcDbEntity
  8
vorota
  6
ByLayer
 62
  256
370
   -1
100
AcDbLine
 10
253.1
 20
-97
 11
139.3999999999999
 21
-96.99999999999999
  0
LINE
  5
280
100
AcDbEntity
  8
vorota
  6
ByLayer
 62
  256
370
   -1
100
AcDbLine
 10
253.3
 20
-96.49999999999999
 11
139.1999999999999
 21
-96.49999999999999
  0
DIMENSION
  5
281
100
AcDbEntity
  8
rozmir
  6
ByLayer
 62
  256
370
   -1
100
AcDbDimension
  2
*D7
 10
232.2
 20
-87
 30
0
 11
196.25
 21
-84
 31
0
 70
   32
 71
    5
  3
Standard
 53
0
210
0
220
0
230
1
100
AcDbAlignedDimension
 13
134.4
 23
-92
 33
0
 14
258.1
 24
-92
 34
0
100
AcDbRotatedDimension
  0
LWPOLYLINE
  5
282
100
AcDbEntity
  8
vorota
  6
ByLayer
 62
  256
370
   -1
100
AcDbPolyline
 90
    4
 70
    1
 43
0
 10
255
 20
-97.5
 10
259
 20
-97.5
 10
258.9999999999997
 20
-97
 10
255
 20
-97
  0
LWPOLYLINE
  5
283
100
AcDbEntity
  8
ramka
  6
ByLayer
 62
  256
370
   -1
100
AcDbPolyline
 90
   21
 70
    0
 43
0
 10
9.699999999999999
 20
-95.60000000000002
 10
10
 20
-95.60000000000001
 10
10
 20
-96.60000000000001
 10
9.599999999999998
 20
-97
 10
0.3999999999999986
 20
-97
 10
0
 20
-96.59999999999999
 10
0
 20
-92.39999999999999
 10
0.3999999999999986
 20
-92
 10
9.599999999999998
 20
-92
 10
10
 20
-92.39999999999999
 10
10
 20
-93.8
 10
9.699999999999999
 20
-93.8
 10
9.699999999999999
 20
-92.5
 10
9.5
 20
-92.3
 10
0.5
 20
-92.3
 10
0.3000000000000007
 20
-92.5
 10
0.3000000000000007
 20
-96.5
 10
0.5
 20
-96.7
 10
9.5
 20
-96.7
 10
9.699999999999999
 20
-96.5
 10
9.699999999999999
 20
-95.60000000000002
  0
LINE
  5
284
100
AcDbEntity
  8
ramka
  6
DASHED2
 62
  256
370
   -1
100
AcDbLine
 10
10
 20
-93.8
 11
10
 21
-95.60000000000001
  0
LINE
  5
285
100
AcDbEntity
  8
ramka
  6
DASHED2
 62
  256
370
   -1
100
AcDbLine
 10
9.699999999999999
 20
-93.8
 11
9.699999999999999
 21
-95.60000000000002
  0
LWPOLYLINE
  5
286
100
AcDbEntity
  8
ramka
  6
ByLayer
 62
  256
370
   -1
100
AcDbPolyline
 90
   21
 70
    0
 43
0
 10
258.7
 20
-95.60000000000001
 10
258.3999999999999
 20
-95.59999999999999
 10
258.3999999999999
 20
-96.60000000000001
 10
258.8
 20
-97
 10
268
 20
-97
 10
268.3999999999999
 20
-96.59999999999999
 10
268.3999999999999
 20
-92.39999999999999
 10
268
 20
-92
 10
258.8
 20
-92
 10
258.3999999999999
 20
-92.39999999999999
 10
258.3999999999999
 20
-93.8
 10
258.7
 20
-93.8
 10
258.7
 20
-92.5
 10
258.8999999999999
 20
-92.3
 10
267.8999999999999
 20
-92.3
 10
268.1
 20
-92.5
 10
268.1
 20
-96.5
 10
267.8999999999999
 20
-96.7
 10
258.8999999999999
 20
-96.7
 10
258.7
 20
-96.5
 10
258.7
 20
-95.60000000000001
  0
LINE
  5
287
100
AcDbEntity
  8
ramka
  6
DASHED2
 62
  256
370
   -1
100
AcDbLine
 10
258.3999999999999
 20
-93.8
 11
258.3999999999999
 21
-95.59999999999999
  0
LINE
  5
288
100
AcDbEntity
  8
ramka
  6
DASHED2
 62
  256
370
   -1
100
AcDbLine
 10
258.7
 20
-93.8
 11
258.7
 21
-95.60000000000001
  0
LWPOLYLINE
  5
289
100
AcDbEntity
  8
ramka
  6
ByLayer
 62
  256
370
   -1
100
AcDbPolyline
 90
    4
 70
    1
 43
0
 10
10
 20
5
 10
0
 20
5
 10
0
 20
250
 10
10
 20
250
  0
LWPOLYLINE
  5
28A
100
AcDbEntity
  8
ramka
  6
ByLayer
 62
  256
370
   -1
100
AcDbPolyline
 90
    4
 70
    1
 43
0
 10
268.4
 20
5
 10
258.4
 20
5
 10
258.4
 20
250
 10
268.4
 20
250
  0
LWPOLYLINE
  5
28B
100
AcDbEntity
  8
ramka
  6
ByLayer
 62
  256
370
   -1
100
AcDbPolyline
 90
    4
 70
    1
 43
0
 10
268.4
 20
250.0000000000001
 10
0
 20
250
 10
0
 20
260
 10
268.4
 20
260.0000000000001
  0
DIMENSION
  5
28C
100
AcDbEntity
  8
rozmir
  6
ByLayer
 62
  256
370
   -1
100
AcDbDimension
  2
*D8
 10
134.4
 20
230.1
 30
0
 11
134.2
 21
233.1
 31
0
 70
   32
 71
    5
  3
Standard
 53
0
210
0
220
0
230
1
100
AcDbAlignedDimension
 13
134
 23
230.1
 33
0
 14
134.4
 24
230.1
 34
0
100
AcDbRotatedDimension
  0
DIMENSION
  5
28D
100
AcDbEntity
  8
rozmir
  6
ByLayer
 62
  256
370
   -1
100
AcDbDimension
  2
*D9
 10
100
 20
249.7
 30
0
 11
97
 21
249.85
 31
0
 70
   32
 71
    5
  3
Standard
 53
0
210
0
220
0
230
1
100
AcDbAlignedDimension
 13
100
 23
250
 33
0
 14
100
 24
249.7
 34
0
 50
90
100
AcDbRotatedDimension
  0
DIMENSION
  5
28E
100
AcDbEntity
  8
rozmir
  6
ByLayer
 62
  256
370
   -1
100
AcDbDimension
  2
*D10
 10
15.6
 20
105
 30
0
 11
15.45
 21
108
 31
0
 70
   32
 71
    5
 72
    0
  3
Standard
 53
0
210
0
220
0
230
1
100
AcDbAlignedDimension
 13
15.3
 23
105
 33
0
 14
15.6
 24
105
 34
0
100
AcDbRotatedDimension
  0
LWPOLYLINE
  5
28F
100
AcDbEntity
  8
vorota
  6
ByLayer
 62
  256
370
   -1
100
AcDbPolyline
 90
   10
 70
    0
 43
0
 10
133.8
 20
-89
 10
130.8
 20
-89
 10
130.8
 20
-89.10000000000001
 10
131
 20
-89.30000000000001
 10
133.3
 20
-89.30000000000001
 10
133.5
 20
-89.5
 10
133.5000000000001
 20
-91.80000000000001
 10
133.7
 20
-92.00000000000001
 10
133.8
 20
-92
 10
133.8
 20
-89
  0
LWPOLYLINE
  5
290
100
AcDbEntity
  8
vorota
  6
ByLayer
 62
  256
370
   -1
100
AcDbPolyline
 90
    7
 70
    0
 43
0
 10
11
 20
-95.10000000000001
 10
8.5
 20
-95.09999999999999
 10
8.300000000000001
 20
-94.89999999999999
 10
8.300000000000001
 20
-94.09999999999999
 10
8.5
 20
-93.89999999999999
 10
11
 20
-93.90000000000001
 10
11
 20
-95.10000000000001
  0
LINE
  5
291
100
AcDbEntity
  8
vorota
  6
DASHED2
 62
  256
370
   -1
100
AcDbLine
 10
10.79999999999999
 20
-93.89999999999999
 11
10.79999999999999
 21
-95.09999999999999
  0
LWPOLYLINE
  5
292
100
AcDbEntity
  8
lyst
  6
ByLayer
 62
  256
370
   -1
100
AcDbPolyline
 90
    4
 70
    1
 43
0
 10
14.29999999999995
 20
191.7
 10
71.30000000000007
 20
191.7
 10
71.30000000000007
 20
24.40000000000001
 10
14.29999999999995
 20
24.40000000000001
  0
LWPOLYLINE
  5
293
100
AcDbEntity
  8
vorota
  6
DASHED2
 62
  256
370
   -1
100
AcDbPolyline
 90
    4
 70
    1
 43
0
 10
10.29999999999998
 20
25.50000000000002
 10
70.2
 20
25.50000000000005
 10
70.2
 20
21.50000000000004
 10
10.29999999999998
 20
21.50000000000001
  0
LWPOLYLINE
  5
294
100
AcDbEntity
  8
lyst
  6
CONTINUOUS
 62
    2
370
   50
100
AcDbPolyline
 90
    9
 70
    1
 43
0
 10
9
 20
4
 10
134
 20
4
 10
134
 20
251
 10
9
 20
251
 10
9
 20
251
 10
9.000000000000002
 20
191.9
 10
71.5
 20
191.9
 10
71.50000000000001
 20
24.2
 10
9
 20
24.2
  0
DIMENSION
  5
295
100
AcDbEntity
  8
rozmir_lyst
  6
ByLayer
 62
  256
370
   -1
100
AcDbDimension
  2
*D11
 10
134
 20
265
 30
0
 11
71.5
 21
268
 31
0
 70
   32
 71
    5
 72
    0
  3
Standard
 53
0
210
0
220
0
230
1
100
AcDbAlignedDimension
 13
9
 23
251
 33
0
 14
134
 24
251
 34
0
100
AcDbRotatedDimension
  0
DIMENSION
  5
296
100
AcDbEntity
  8
rozmir_lyst
  6
ByLayer
 62
  256
370
   -1
100
AcDbDimension
  2
*D12
 10
259.4
 20
265
 30
0
 11
196.9
 21
268
 31
0
 70
   32
 71
    5
 72
    0
  3
Standard
 53
0
210
0
220
0
230
1
100
AcDbAlignedDimension
 13
134.4
 23
251
 33
0
 14
259.4
 24
251
 34
0
100
AcDbRotatedDimension
  0
DIMENSION
  5
297
100
AcDbEntity
  8
rozmir_lyst
  6
ByLayer
 62
  256
370
   -1
100
AcDbDimension
  2
*D13
 10
71.5
 20
203
 30
0
 11
40.25
 21
206
 31
0
 70
   32
 71
    5
 72
    0
  3
Standard
 53
0
210
0
220
0
230
1
100
AcDbAlignedDimension
 13
9
 23
192
 33
0
 14
71.5
 24
191.9
 34
0
100
AcDbRotatedDimension
  0
DIMENSION
  5
298
100
AcDbEntity
  8
rozmir_lyst
  6
ByLayer
 62
  256
370
   -1
100
AcDbDimension
  2
*D14
 10
71.30000000000007
 20
175
 30
0
 11
42.80000000000001
 21
178
 31
0
 70
   32
 71
    5
 72
    0
  3
Standard
 53
0
210
0
220
0
230
1
100
AcDbAlignedDimension
 13
14.29999999999995
 23
191.7
 33
0
 14
71.30000000000007
 24
191.7
 34
0
100
AcDbRotatedDimension
  0
DIMENSION
  5
299
100
AcDbEntity
  8
rozmir_lyst
  6
ByLayer
 62
  256
370
   -1
100
AcDbDimension
  2
*D15
 10
14.29999999999995
 20
175
 30
0
 11
-3
 21
179
 31
0
 70
   32
 71
    5
 72
    0
  3
Standard
 53
0
210
0
220
0
230
1
100
AcDbAlignedDimension
 13
9.000000000000002
 23
191.9
 33
0
 14
14.29999999999995
 24
191.7
 34
0
100
AcDbRotatedDimension
  0
DIMENSION
  5
29A
100
AcDbEntity
  8
rozmir
  6
ByLayer
 62
  256
370
   -1
100
AcDbDimension
  2
*D16
 10
70.3
 20
105
 30
0
 11
74
 21
108
 31
0
 70
   32
 71
    5
 72
    0
  3
Standard
 53
0
210
0
220
0
230
1
100
AcDbAlignedDimension
 13
69.89999999999999
 23
105
 33
0
 14
70.19999999999999
 24
105
 34
0
100
AcDbRotatedDimension
  0
DIMENSION
  5
29B
100
AcDbEntity
  8
rozmir_lyst
  6
ByLayer
 62
  256
370
   -1
100
AcDbDimension
  2
*D17
 10
705.7
 20
181
 30
0
 11
677.2
 21
184
 31
0
 70
   32
 71
    5
 72
    0
  3
Standard
 53
0
210
0
220
0
230
1
100
AcDbAlignedDimension
 13
648.6999999999999
 23
165.9
 33
0
 14
705.7
 24
165.9
 34
0
100
AcDbRotatedDimension
  0
DIMENSION
  5
29C
100
AcDbEntity
  8
rozmir_lyst
  6
ByLayer
 62
  256
370
   -1
100
AcDbDimension
  2
*D18
 10
715
 20
-1.400000000000001
 30
0
 11
712
 21
82.25
 31
0
 70
   32
 71
    5
 72
    0
  3
Standard
 53
0
210
0
220
0
230
1
100
AcDbAlignedDimension
 13
705.7
 23
165.9
 33
0
 14
705.7
 24
-1.4
 34
0
 50
90
100
AcDbRotatedDimension
  0
DIMENSION
  5
29D
100
AcDbEntity
  8
rozmir_lyst
  6
ByLayer
 62
  256
370
   -1
100
AcDbDimension
  2
*D19
 10
89.99999999999999
 20
24.2
 30
0
 11
86.99999999999999
 21
108.05
 31
0
 70
   32
 71
    5
 72
    0
  3
Standard
 53
0
210
0
220
0
230
1
100
AcDbAlignedDimension
 13
71.5
 23
191.9
 33
0
 14
71.50000000000001
 24
24.2
 34
0
 50
90
100
AcDbRotatedDimension
  0
DIMENSION
  5
29E
100
AcDbEntity
  8
rozmir_lyst
  6
ByLayer
 62
  256
370
   -1
100
AcDbDimension
  2
*D20
 10
277
 20
3.999999999999998
 30
0
 11
274
 21
127.5
 31
0
 70
   32
 71
    5
 72
    0
  3
Standard
 53
0
210
0
220
0
230
1
100
AcDbAlignedDimension
 13
259.4
 23
251
 33
0
 14
259.4
 24
4
 34
0
 50
90
100
AcDbRotatedDimension
  0
LWPOLYLINE
  5
29F
100
AcDbEntity
  8
kronshtein
  6
ByLayer
 62
  256
370
   -1
100
AcDbPolyline
 90
    4
 70
    1
 43
0
 10
11.7
 20
-1.387778780781446e-16
 10
16.7
 20
-1.387778780781446e-16
 10
16.7
 20
-0.5000000000000007
 10
11.7
 20
-0.5000000000000007
  0
LWPOLYLINE
  5
2A0
100
AcDbEntity
  8
kronshtein
  6
ByLayer
 62
  256
370
   -1
100
AcDbPolyline
 90
    4
 70
    1
 43
0
 10
91.7
 20
-3.608224830031759e-16
 10
96.7
 20
-3.608224830031759e-16
 10
96.7
 20
-0.5000000000000009
 10
91.7
 20
-0.5000000000000009
  0
LWPOLYLINE
  5
2A1
100
AcDbEntity
  8
kronshtein
  6
ByLayer
 62
  256
370
   -1
100
AcDbPolyline
 90
    4
 70
    1
 43
0
 10
171.7
 20
-3.608224830031759e-16
 10
176.7
 20
-3.608224830031759e-16
 10
176.7
 20
-0.5000000000000009
 10
171.7
 20
-0.5000000000000009
  0
LWPOLYLINE
  5
2A2
100
AcDbEntity
  8
kronshtein
  6
ByLayer
 62
  256
370
   -1
100
AcDbPolyline
 90
    4
 70
    1
 43
0
 10
251.7
 20
-3.608224830031759e-16
 10
256.7
 20
-3.608224830031759e-16
 10
256.7
 20
-0.5000000000000009
 10
251.7
 20
-0.5000000000000009
  0
LINE
  5
2A3
100
AcDbEntity
  8
kronshtein
  6
ByLayer
 62
  256
370
   -1
100
AcDbLine
 10
0
 20
0
 11
-10
 21
0
  0
DIMENSION
  5
2A4
100
AcDbEntity
  8
rozmir
  6
ByLayer
 62
  256
370
   -1
100
AcDbDimension
  2
*D21
 10
11.7
 20
-10
 30
0
 11
5.850000000000002
 21
-7
 31
0
 70
   32
 71
    5
  3
Standard
 53
0
210
0
220
0
230
1
100
AcDbAlignedDimension
 13
0
 23
0
 33
0
 14
11.7
 24
-0.5000000000000007
 34
0
100
AcDbRotatedDimension
  0
DIMENSION
  5
2A5
100
AcDbEntity
  8
rozmir
  6
ByLayer
 62
  256
370
   -1
100
AcDbDimension
  2
*D22
 10
91.7
 20
-10
 30
0
 11
51.7
 21
-7
 31
0
 70
   32
 71
    5
  3
Standard
 53
0
210
0
220
0
230
1
100
AcDbAlignedDimension
 13
11.7
 23
-0.5000000000000007
 33
0
 14
91.7
 24
-0.5000000000000009
 34
0
100
AcDbRotatedDimension
  0
DIMENSION
  5
2A6
100
AcDbEntity
  8
rozmir
  6
ByLayer
 62
  256
370
   -1
100
AcDbDimension
  2
*D23
 10
171.7
 20
-10
 30
0
 11
131.7
 21
-7
 31
0
 70
   32
 71
    5
  3
Standard
 53
0
210
0
220
0
230
1
100
AcDbAlignedDimension
 13
91.7
 23
-0.5000000000000009
 33
0
 14
171.7
 24
-0.5000000000000009
 34
0
100
AcDbRotatedDimension
  0
DIMENSION
  5
2A7
100
AcDbEntity
  8
rozmir
  6
ByLayer
 62
  256
370
   -1
100
AcDbDimension
  2
*D24
 10
251.7
 20
-10
 30
0
 11
211.7
 21
-7
 31
0
 70
   32
 71
    5
  3
Standard
 53
0
210
0
220
0
230
1
100
AcDbAlignedDimension
 13
171.7
 23
-0.5000000000000009
 33
0
 14
251.7
 24
-0.5000000000000009
 34
0
100
AcDbRotatedDimension
  0
LWPOLYLINE
  5
2A8
100
AcDbEntity
  8
kronshtein
  6
ByLayer
 62
  256
370
   -1
100
AcDbPolyline
 90
    4
 70
    1
 43
0
 10
11.7
 20
260.4999999999999
 10
16.7
 20
260.4999999999999
 10
16.7
 20
259.9999999999999
 10
11.7
 20
259.9999999999999
  0
LWPOLYLINE
  5
2A9
100
AcDbEntity
  8
kronshtein
  6
ByLayer
 62
  256
370
   -1
100
AcDbPolyline
 90
    4
 70
    1
 43
0
 10
91.7
 20
260.4999999999999
 10
96.7
 20
260.4999999999999
 10
96.7
 20
259.9999999999999
 10
91.7
 20
259.9999999999999
  0
LWPOLYLINE
  5
2AA
100
AcDbEntity
  8
kronshtein
  6
ByLayer
 62
  256
370
   -1
100
AcDbPolyline
 90
    4
 70
    1
 43
0
 10
171.7
 20
260.4999999999999
 10
176.7
 20
260.4999999999999
 10
176.7
 20
259.9999999999999
 10
171.7
 20
259.9999999999999
  0
LWPOLYLINE
  5
2AB
100
AcDbEntity
  8
kronshtein
  6
ByLayer
 62
  256
370
   -1
100
AcDbPolyline
 90
    4
 70
    1
 43
0
 10
251.7
 20
260.4999999999999
 10
256.7
 20
260.4999999999999
 10
256.7
 20
259.9999999999999
 10
251.7
 20
259.9999999999999
  0
DIMENSION
  5
2AC
100
AcDbEntity
  8
rozmir
  6
ByLayer
 62
  256
370
   -1
100
AcDbDimension
  2
*D25
 10
268.4
 20
-10
 30
0
 11
262.55
 21
-7
 31
0
 70
   32
  1
<>*
 71
    5
  3
Standard
 53
0
210
0
220
0
230
1
100
AcDbAlignedDimension
 13
256.7
 23
-0.5000000000000009
 33
0
 14
268.4
 24
0
 34
0
100
AcDbRotatedDimension
  0
LWPOLYLINE
  5
2AD
100
AcDbEntity
  8
kronshtein
  6
ByLayer
 62
  256
370
   -1
100
AcDbPolyline
 90
    4
 70
    1
 43
0
 10
268.4
 20
44.5
 10
268.9
 20
44.5
 10
268.9
 20
39.50000000000001
 10
268.4
 20
39.50000000000001
  0
LWPOLYLINE
  5
2AE
100
AcDbEntity
  8
kronshtein
  6
ByLayer
 62
  256
370
   -1
100
AcDbPolyline
 90
    4
 70
    1
 43
0
 10
268.3999999999999
 20
125.5
 10
268.9
 20
125.5
 10
268.9
 20
120.5
 10
268.3999999999999
 20
120.5
  0
LWPOLYLINE
  5
2AF
100
AcDbEntity
  8
kronshtein
  6
ByLayer
 62
  256
370
   -1
100
AcDbPolyline
 90
    4
 70
    1
 43
0
 10
268.3999999999999
 20
206.5
 10
268.9
 20
206.5
 10
268.9
 20
201.5
 10
268.3999999999999
 20
201.5
  0
DIMENSION
  5
2B0
100
AcDbEntity
  8
rozmir
  6
ByLayer
 62
  256
370
   -1
100
AcDbDimension
  2
*D26
 10
275
 20
59.50000000000001
 30
0
 11
272
 21
19.75
 31
0
 70
   32
 71
    5
  3
Standard
 53
0
210
0
220
0
230
1
100
AcDbAlignedDimension
 13
268.4
 23
0
 33
0
 14
268.9
 24
39.50000000000001
 34
0
 50
90
100
AcDbRotatedDimension
  0
DIMENSION
  5
2B1
100
AcDbEntity
  8
rozmir
  6
ByLayer
 62
  256
370
   -1
100
AcDbDimension
  2
*D27
 10
275
 20
39
 30
0
 11
272
 21
80
 31
0
 70
   32
 71
    5
  3
Standard
 53
0
210
0
220
0
230
1
100
AcDbAlignedDimension
 13
268.9
 23
39.50000000000001
 33
0
 14
268.9
 24
120.5
 34
0
 50
90
100
AcDbRotatedDimension
  0
DIMENSION
  5
2B2
100
AcDbEntity
  8
rozmir
  6
ByLayer
 62
  256
370
   -1
100
AcDbDimension
  2
*D28
 10
274.9999999999999
 20
120
 30
0
 11
271.9999999999999
 21
161
 31
0
 70
   32
 71
    5
  3
Standard
 53
0
210
0
220
0
230
1
100
AcDbAlignedDimension
 13
268.9
 23
120.5
 33
0
 14
268.8999999999999
 24
201.5
 34
0
 50
90
100
AcDbRotatedDimension
  0
DIMENSION
  5
2B3
100
AcDbEntity
  8
rozmir
  6
ByLayer
 62
  256
370
   -1
100
AcDbDimension
  2
*D29
 10
274.9999999999999
 20
250
 30
0
 11
271.9999999999999
 21
233.2500000000001
 31
0
 70
   32
 71
    5
 72
    0
  3
Standard
 53
0
210
0
220
0
230
1
100
AcDbAlignedDimension
 13
268.9
 23
206.5
 33
0
 14
268.4
 24
260.0000000000001
 34
0
 50
90
100
AcDbRotatedDimension
  0
LWPOLYLINE
  5
2B4
100
AcDbEntity
  8
vorota
  6
DASHED2
 62
  256
370
   -1
100
AcDbPolyline
 90
    4
 70
    1
 43
0
 10
10.3
 20
249.7
 10
134
 20
249.7
 10
134
 20
5.39999999999999
 10
10.3
 20
5.39999999999999
  0
LWPOLYLINE
  5
2B5
100
AcDbEntity
  8
vorota
  6
DASHED2
 62
  256
370
   -1
100
AcDbPolyline
 90
    4
 70
    1
 43
0
 10
15.3
 20
244.7
 10
129
 20
244.7
 10
129
 20
10.39999999999999
 10
15.3
 20
10.39999999999999
  0
LWPOLYLINE
  5
2B6
100
AcDbEntity
  8
vorota
  6
DASHED2
 62
  256
370
   -1
100
AcDbPolyline
 90
    4
 70
    1
 43
0
 10
258.1
 20
249.7
 10
134.4
 20
249.7
 10
134.4
 20
5.4
 10
258.1
 20
5.4
  0
LWPOLYLINE
  5
2B7
100
AcDbEntity
  8
vorota
  6
DASHED2
 62
  256
370
   -1
100
AcDbPolyline
 90
    4
 70
    1
 43
0
 10
253.1
 20
244.7
 10
139.4
 20
244.7
 10
139.4
 20
10.4
 10
253.1
 20
10.4
  0
LWPOLYLINE
  5
2B8
100
AcDbEntity
  8
vorota
  6
DASHED2
 62
  256
370
   -1
100
AcDbPolyline
 90
    4
 70
    1
 43
0
 10
198.1
 20
249.7
 10
194.1
 20
249.7
 10
194.1
 20
5.4
 10
198.1
 20
5.4
  0
LWPOLYLINE
  5
2B9
100
AcDbEntity
  8
vorota
  6
DASHED2
 62
  256
370
   -1
100
AcDbPolyline
 90
    4
 70
    1
 43
0
 10
70.2
 20
249.7
 10
74.2
 20
249.7
 10
74.2
 20
5.400000000000019
 10
70.2
 20
5.400000000000019
  0
DIMENSION
  5
2BA
100
AcDbEntity
  8
rozmir
  6
ByLayer
 62
  256
370
   -1
100
AcDbDimension
  2
*D30
 10
100
 20
5.600000000000001
 30
0
 11
97
 21
5.199999999999983
 31
0
 70
   32
 71
    5
  3
Standard
 53
0
210
0
220
0
230
1
100
AcDbAlignedDimension
 13
100
 23
5
 33
0
 14
100
 24
5.399999999999967
 34
0
 50
90
100
AcDbRotatedDimension
  0
DIMENSION
  5
2BB
100
AcDbEntity
  8
rozmir
  6
ByLayer
 62
  256
370
   -1
100
AcDbDimension
  2
*D31
 10
463.7
 20
250.1
 30
0
 11
401.85
 21
253.1
 31
0
 70
   32
 71
    5
  3
Standard
 53
0
210
0
220
0
230
1
100
AcDbAlignedDimension
 13
340
 23
244.3
 33
0
 14
463.7
 24
244.3
 34
0
100
AcDbRotatedDimension
  0
DIMENSION
  5
2BC
100
AcDbEntity
  8
rozmir
  6
ByLayer
 62
  256
370
   -1
100
AcDbDimension
  2
*D32
 10
597.8
 20
250.1
 30
0
 11
535.95
 21
253.1
 31
0
 70
   32
 71
    5
  3
Standard
 53
0
210
0
220
0
230
1
100
AcDbAlignedDimension
 13
474.1
 23
244.3
 33
0
 14
597.8
 24
244.3
 34
0
100
AcDbRotatedDimension
  0
LWPOLYLINE
  5
2BD
100
AcDbEntity
  8
vorota
  6
DASHED2
 62
  256
370
   -1
100
AcDbPolyline
 90
    4
 70
    0
 43
0
 10
345
 20
20.1
 10
340.5
 20
20.1
 10
340.5
 20
16.1
 10
345
 20
16.1
  0
LWPOLYLINE
  5
2BE
100
AcDbEntity
  8
vorota
  6
ByLayer
 62
  256
370
   -1
100
AcDbPolyline
 90
    4
 70
    0
 43
0
 10
345
 20
20.1
 10
399.9
 20
20.1
 10
399.9
 20
16.1
 10
345
 20
16.1
  0
DIMENSION
  5
2BF
100
AcDbEntity
  8
rozmir
  6
ByLayer
 62
  256
370
   -1
100
AcDbDimension
  2
*D33
 10
400
 20
220.1
 30
0
 11
370.2
 21
223.1
 31
0
 70
   32
 71
    5
  3
Standard
 53
0
210
0
220
0
230
1
100
AcDbAlignedDimension
 13
340.5
 23
220.1
 33
0
 14
399.9
 24
220.1
 34
0
100
AcDbRotatedDimension
  0
DIMENSION
  5
2C0
100
AcDbEntity
  8
rozmir
  6
ByLayer
 62
  256
370
   -1
100
AcDbDimension
  2
*D34
 10
463.2
 20
220.1
 30
0
 11
433.55
 21
223.1
 31
0
 70
   32
 71
    5
  3
Standard
 53
0
210
0
220
0
230
1
100
AcDbAlignedDimension
 13
403.9
 23
220.1
 33
0
 14
463.2
 24
220.1
 34
0
100
AcDbRotatedDimension
  0
LWPOLYLINE
  5
2C1
100
AcDbEntity
  8
vorota
  6
DASHED2
 62
  256
370
   -1
100
AcDbPolyline
 90
    4
 70
    0
 43
0
 10
399.9
 20
239.3
 10
399.9
 20
243.8
 10
403.9
 20
243.8
 10
403.9
 20
239.3
  0
LWPOLYLINE
  5
2C2
100
AcDbEntity
  8
vorota
  6
DASHED2
 62
  256
370
   -1
100
AcDbPolyline
 90
    4
 70
    0
 43
0
 10
537.9
 20
239.3
 10
537.9
 20
243.8
 10
533.9
 20
243.8
 10
533.9
 20
239.3
  0
LINE
  5
2C3
100
AcDbEntity
  8
vorota
  6
DASHED2
 62
  256
370
   -1
100
AcDbLine
 10
340.5
 20
243.8
 11
340
 21
243.8
  0
LINE
  5
2C4
100
AcDbEntity
  8
rozmir
  6
ByLayer
 62
  256
370
   -1
100
AcDbLine
 10
335
 20
26.1
 11
350
 21
26.1
  0
LINE
  5
2C5
100
AcDbEntity
  8
rozmir
  6
ByLayer
 62
  256
370
   -1
100
AcDbLine
 10
335
 20
130.1
 11
350
 21
130.1
  0
LINE
  5
2C6
100
AcDbEntity
  8
rozmir
  6
ByLayer
 62
  256
370
   -1
100
AcDbLine
 10
335
 20
219.3
 11
350
 21
219.3
  0
LWPOLYLINE
  5
2C7
100
AcDbEntity
  8
vorota
  6
ByLayer
 62
  256
370
   -1
100
AcDbPolyline
 90
    4
 70
    1
 43
0
 10
597.8
 20
244.3
 10
474.1
 20
244.3
 10
474.1000000000001
 20
-2.498001805406602e-16
 10
597.8000000000001
 20
-2.498001805406602e-16
  0
LWPOLYLINE
  5
2C8
100
AcDbEntity
  8
vorota
  6
ByLayer
 62
  256
370
   -1
100
AcDbPolyline
 90
    4
 70
    1
 43
0
 10
592.8
 20
239.3
 10
479.1
 20
239.3
 10
479.1000000000001
 20
4.999999999999999
 10
592.8000000000001
 20
4.999999999999999
  0
LWPOLYLINE
  5
2C9
100
AcDbEntity
  8
vorota
  6
ByLayer
 62
  256
370
   -1
100
AcDbPolyline
 90
    4
 70
    1
 43
0
 10
340
 20
244.3
 10
463.7
 20
244.3
 10
463.7000000000001
 20
-1.090794121694216e-14
 10
340.0000000000001
 20
-1.090794121694216e-14
  0
LWPOLYLINE
  5
2CA
100
AcDbEntity
  8
vorota
  6
ByLayer
 62
  256
370
   -1
100
AcDbPolyline
 90
    4
 70
    1
 43
0
 10
345
 20
239.3
 10
458.7
 20
239.3
 10
458.7000000000001
 20
4.999999999999988
 10
345.0000000000001
 20
4.999999999999988
  0
DIMENSION
  5
2CB
100
AcDbEntity
  8
rozmir
  6
ByLayer
 62
  256
370
   -1
100
AcDbDimension
  2
*D35
 10
330
 20
244.3
 30
0
 11
327
 21
122.15
 31
0
 70
   32
 71
    5
  3
Standard
 53
0
210
0
220
0
230
1
100
AcDbAlignedDimension
 13
340.0000000000001
 23
-1.090794121694216e-14
 33
0
 14
340
 24
244.3
 34
0
 50
90
100
AcDbRotatedDimension
  0
LWPOLYLINE
  5
2CC
100
AcDbEntity
  8
vorota
  6
DASHED2
 62
  256
370
   -1
100
AcDbPolyline
 90
    4
 70
    1
 43
0
 10
340.5
 20
243.8
 10
463.2
 20
243.8
 10
463.2000000000001
 20
0.499999999999989
 10
340.5000000000001
 20
0.4999999999999891
  0
LWPOLYLINE
  5
2CD
100
AcDbEntity
  8
vorota
  6
DASHED2
 62
  256
370
   -1
100
AcDbPolyline
 90
    4
 70
    1
 43
0
 10
597.3
 20
243.8
 10
474.6
 20
243.8
 10
474.6000000000001
 20
0.4999999999999892
 10
597.3000000000001
 20
0.4999999999999891
  0
LWPOLYLINE
  5
2CE
100
AcDbEntity
  8
vorota
  6
DASHED2
 62
  256
370
   -1
100
AcDbPolyline
 90
    4
 70
    0
 43
0
 10
399.9000000000001
 20
4.999999999999988
 10
399.9000000000001
 20
0.4999999999999891
 10
403.9000000000001
 20
0.4999999999999891
 10
403.9000000000001
 20
4.999999999999988
  0
LINE
  5
2CF
100
AcDbEntity
  8
vorota
  6
ByLayer
 62
  256
370
   -1
100
AcDbLine
 10
399.9000000000001
 20
4.999999999999989
 11
399.9
 21
239.3
  0
LINE
  5
2D0
100
AcDbEntity
  8
vorota
  6
ByLayer
 62
  256
370
   -1
100
AcDbLine
 10
403.9
 20
239.3
 11
403.9000000000001
 21
4.999999999999989
  0
LINE
  5
2D1
100
AcDbEntity
  8
vorota
  6
ByLayer
 62
  256
370
   -1
100
AcDbLine
 10
537.9000000000001
 20
4.999999999999988
 11
537.9
 21
239.3
  0
LINE
  5
2D2
100
AcDbEntity
  8
vorota
  6
ByLayer
 62
  256
370
   -1
100
AcDbLine
 10
533.9
 20
239.3
 11
533.9000000000001
 21
4.999999999999988
  0
LWPOLYLINE
  5
2D3
100
AcDbEntity
  8
vorota
  6
DASHED2
 62
  256
370
   -1
100
AcDbPolyline
 90
    4
 70
    0
 43
0
 10
537.9000000000001
 20
4.999999999999988
 10
537.9000000000001
 20
0.4999999999999887
 10
533.9000000000001
 20
0.4999999999999887
 10
533.9000000000001
 20
4.999999999999988
  0
DIMENSION
  5
2D4
100
AcDbEntity
  8
rozmir
  6
ByLayer
 62
  256
370
   -1
100
AcDbDimension
  2
*D36
 10
390
 20
0.6000000000000011
 30
0
 11
387
 21
122.15
 31
0
 70
   32
 71
    5
  3
Standard
 53
0
210
0
220
0
230
1
100
AcDbAlignedDimension
 13
399.9
 23
243.8
 33
0
 14
399.9000000000001
 24
0.499999999999989
 34
0
 50
90
100
AcDbRotatedDimension
  0
DIMENSION
  5
2D5
100
AcDbEntity
  8
rozmir
  6
ByLayer
 62
  256
370
   -1
100
AcDbDimension
  2
*D37
 10
360
 20
16.1
 30
0
 11
357
 21
8.299999999999994
 31
0
 70
   32
 71
    5
  3
Standard
 53
0
210
0
220
0
230
1
100
AcDbAlignedDimension
 13
340.5000000000001
 23
0.4999999999999891
 33
0
 14
345
 24
16.1
 34
0
 50
90
100
AcDbRotatedDimension
  0
LWPOLYLINE
  5
2D6
100
AcDbEntity
  8
vorota
  6
DASHED2
 62
  256
370
   -1
100
AcDbPolyline
 90
    4
 70
    1
 43
0
 10
258.1
 20
194
 10
198.1
 20
194
 10
198.1
 20
190
 10
258.1
 20
190
  0
LWPOLYLINE
  5
2D7
100
AcDbEntity
  8
vorota
  6
DASHED2
 62
  256
370
   -1
100
AcDbPolyline
 90
    4
 70
    1
 43
0
 10
194.1
 20
194
 10
134.4
 20
194
 10
134.4
 20
190
 10
194.1
 20
190
  0
LWPOLYLINE
  5
2D8
100
AcDbEntity
  8
vorota
  6
DASHED2
 62
  256
370
   -1
100
AcDbPolyline
 90
    4
 70
    1
 43
0
 10
10.3
 20
194
 10
70.20000000000002
 20
194
 10
70.20000000000002
 20
190
 10
10.3
 20
190
  0
LWPOLYLINE
  5
2D9
100
AcDbEntity
  8
vorota
  6
DASHED2
 62
  256
370
   -1
100
AcDbPolyline
 90
    4
 70
    1
 43
0
 10
74.20000000000002
 20
194
 10
134
 20
194
 10
134
 20
190
 10
74.20000000000002
 20
190
  0
DIMENSION
  5
2DA
100
AcDbEntity
  8
rozmir
  6
ByLayer
 62
  256
370
   -1
100
AcDbDimension
  2
*D38
 10
40
 20
186.7
 30
0
 11
37
 21
189.85
 31
0
 70
   32
 71
    5
 72
    0
  3
Standard
 53
0
210
0
220
0
230
1
100
AcDbAlignedDimension
 13
40
 23
189.7
 33
0
 14
40
 24
190
 34
0
 50
90
100
AcDbRotatedDimension
  0
LWPOLYLINE
  5
2DB
100
AcDbEntity
  8
vorota
  6
DASHED2
 62
  256
370
   -1
100
AcDbPolyline
 90
    4
 70
    0
 43
0
 10
345.0000000000001
 20
188.6
 10
340.5000000000001
 20
188.6
 10
340.5000000000001
 20
184.6
 10
345.0000000000001
 20
184.6
  0
LWPOLYLINE
  5
2DC
100
AcDbEntity
  8
vorota
  6
DASHED2
 62
  256
370
   -1
100
AcDbPolyline
 90
    4
 70
    0
 43
0
 10
458.7000000000001
 20
188.6
 10
463.2000000000001
 20
188.6
 10
463.2000000000001
 20
184.6
 10
458.7000000000001
 20
184.6
  0
LWPOLYLINE
  5
2DD
100
AcDbEntity
  8
vorota
  6
DASHED2
 62
  256
370
   -1
100
AcDbPolyline
 90
    4
 70
    0
 43
0
 10
592.8000000000001
 20
188.6
 10
597.3000000000001
 20
188.6
 10
597.3000000000001
 20
184.6
 10
592.8000000000001
 20
184.6
  0
LWPOLYLINE
  5
2DE
100
AcDbEntity
  8
vorota
  6
DASHED2
 62
  256
370
   -1
100
AcDbPolyline
 90
    4
 70
    0
 43
0
 10
479.1000000000001
 20
188.6
 10
474.6000000000001
 20
188.6
 10
474.6000000000001
 20
184.6
 10
479.1000000000001
 20
184.6
  0
LWPOLYLINE
  5
2DF
100
AcDbEntity
  8
vorota
  6
ByLayer
 62
  256
370
   -1
100
AcDbPolyline
 90
    4
 70
    0
 43
0
 10
345.0000000000001
 20
188.6
 10
399.9000000000001
 20
188.6
 10
399.9000000000001
 20
184.6
 10
345.0000000000001
 20
184.6
  0
LWPOLYLINE
  5
2E0
100
AcDbEntity
  8
vorota
  6
ByLayer
 62
  256
370
   -1
100
AcDbPolyline
 90
    4
 70
    0
 43
0
 10
458.7000000000001
 20
188.6
 10
403.9000000000001
 20
188.6
 10
403.9000000000001
 20
184.6
 10
458.7000000000001
 20
184.6
  0
LWPOLYLINE
  5
2E1
100
AcDbEntity
  8
vorota
  6
ByLayer
 62
  256
370
   -1
100
AcDbPolyline
 90
    4
 70
    0
 43
0
 10
592.8000000000001
 20
188.6
 10
537.9000000000001
 20
188.6
 10
537.9000000000001
 20
184.6
 10
592.8000000000001
 20
184.6
  0
LWPOLYLINE
  5
2E2
100
AcDbEntity
  8
vorota
  6
ByLayer
 62
  256
370
   -1
100
AcDbPolyline
 90
    4
 70
    0
 43
0
 10
479.1000000000001
 20
188.6
 10
533.9000000000001
 20
188.6
 10
533.9000000000001
 20
184.6
 10
479.1000000000001
 20
184.6
  0
DIMENSION
  5
2E3
100
AcDbEntity
  8
rozmir
  6
ByLayer
 62
  256
370
   -1
100
AcDbDimension
  2
*D39
 10
490
 20
185.3
 30
0
 11
487
 21
216.2
 31
0
 70
   32
 71
    5
  3
Standard
 53
0
210
0
220
0
230
1
100
AcDbAlignedDimension
 13
474.6
 23
243.8
 33
0
 14
479.1000000000001
 24
188.6
 34
0
 50
90
100
AcDbRotatedDimension
  0
DIMENSION
  5
2E4
100
AcDbEntity
  8
rozmir
  6
ByLayer
 62
  256
370
   -1
100
AcDbDimension
  2
*D40
 10
355
 20
181.3
 30
0
 11
352
 21
102.35
 31
0
 70
   32
 71
    5
  3
Standard
 53
0
210
0
220
0
230
1
100
AcDbAlignedDimension
 13
345
 23
20.1
 33
0
 14
345.0000000000001
 24
184.6
 34
0
 50
90
100
AcDbRotatedDimension
  0
LWPOLYLINE
  5
2E5
100
AcDbEntity
  8
vorota
  6
DASHED2
 62
  256
370
   -1
100
AcDbPolyline
 90
    4
 70
    0
 43
0
 10
458.7
 20
63.2
 10
463.2
 20
63.2
 10
463.2
 20
59.2
 10
458.7
 20
59.2
  0
LWPOLYLINE
  5
2E6
100
AcDbEntity
  8
vorota
  6
DASHED2
 62
  256
370
   -1
100
AcDbPolyline
 90
    4
 70
    0
 43
0
 10
479.1
 20
63.2
 10
474.6
 20
63.2
 10
474.6
 20
59.2
 10
479.1
 20
59.2
  0
LWPOLYLINE
  5
2E7
100
AcDbEntity
  8
vorota
  6
ByLayer
 62
  256
370
   -1
100
AcDbPolyline
 90
    4
 70
    0
 43
0
 10
458.7
 20
63.2
 10
403.9
 20
63.2
 10
403.9
 20
59.2
 10
458.7
 20
59.2
  0
LWPOLYLINE
  5
2E8
100
AcDbEntity
  8
vorota
  6
ByLayer
 62
  256
370
   -1
100
AcDbPolyline
 90
    4
 70
    0
 43
0
 10
479.1
 20
63.2
 10
533.9
 20
63.2
 10
533.9
 20
59.2
 10
479.1
 20
59.2
  0
LWPOLYLINE
  5
2E9
100
AcDbEntity
  8
vorota
  6
DASHED2
 62
  256
370
   -1
100
AcDbPolyline
 90
    4
 70
    0
 43
0
 10
592.8
 20
63.20000000000001
 10
597.3
 20
63.20000000000001
 10
597.3
 20
59.2
 10
592.8
 20
59.2
  0
LWPOLYLINE
  5
2EA
100
AcDbEntity
  8
vorota
  6
ByLayer
 62
  256
370
   -1
100
AcDbPolyline
 90
    4
 70
    0
 43
0
 10
592.8
 20
63.20000000000001
 10
537.9
 20
63.20000000000001
 10
537.9
 20
59.20000000000001
 10
592.8
 20
59.2
  0
DIMENSION
  5
2EB
100
AcDbEntity
  8
rozmir
  6
ByLayer
 62
  256
370
   -1
100
AcDbDimension
  2
*D41
 10
490
 20
0.5999999999999982
 30
0
 11
487
 21
29.84999999999999
 31
0
 70
   32
 71
    5
  3
Standard
 53
0
210
0
220
0
230
1
100
AcDbAlignedDimension
 13
479.1
 23
59.2
 33
0
 14
474.6000000000001
 24
0.4999999999999892
 34
0
 50
90
100
AcDbRotatedDimension
  0
LWPOLYLINE
  5
2EC
100
AcDbEntity
  8
vorota
  6
DASHED2
 62
  256
370
   -1
100
AcDbPolyline
 90
    4
 70
    1
 43
0
 10
258.1
 20
68.60000000000001
 10
198.1000000000001
 20
68.60000000000001
 10
198.1000000000001
 20
64.60000000000001
 10
258.1
 20
64.60000000000001
  0
LWPOLYLINE
  5
2ED
100
AcDbEntity
  8
vorota
  6
DASHED2
 62
  256
370
   -1
100
AcDbPolyline
 90
    4
 70
    1
 43
0
 10
194.1000000000001
 20
68.59999999999995
 10
134.3999999999999
 20
68.59999999999995
 10
134.3999999999999
 20
64.60000000000001
 10
194.1000000000001
 20
64.60000000000001
  0
LWPOLYLINE
  5
2EE
100
AcDbEntity
  8
vorota
  6
DASHED2
 62
  256
370
   -1
100
AcDbPolyline
 90
    4
 70
    1
 43
0
 10
74.19999999999993
 20
68.59999999999998
 10
133.9999999999999
 20
68.59999999999995
 10
133.9999999999999
 20
64.60000000000001
 10
74.19999999999993
 20
64.60000000000004
  0
LWPOLYLINE
  5
2EF
100
AcDbEntity
  8
vorota
  6
DASHED2
 62
  256
370
   -1
100
AcDbPolyline
 90
    4
 70
    0
 43
0
 10
458.6999999999999
 20
125.8999999999999
 10
463.1999999999999
 20
125.8999999999999
 10
463.1999999999999
 20
121.8999999999999
 10
458.6999999999999
 20
121.8999999999999
  0
LWPOLYLINE
  5
2F0
100
AcDbEntity
  8
vorota
  6
DASHED2
 62
  256
370
   -1
100
AcDbPolyline
 90
    4
 70
    0
 43
0
 10
479.1
 20
125.8999999999999
 10
474.6
 20
125.8999999999999
 10
474.6
 20
121.8999999999999
 10
479.1
 20
121.8999999999999
  0
LWPOLYLINE
  5
2F1
100
AcDbEntity
  8
vorota
  6
ByLayer
 62
  256
370
   -1
100
AcDbPolyline
 90
    4
 70
    0
 43
0
 10
458.6999999999999
 20
125.8999999999999
 10
403.8999999999999
 20
125.8999999999999
 10
403.8999999999999
 20
121.8999999999999
 10
458.6999999999999
 20
121.8999999999999
  0
LWPOLYLINE
  5
2F2
100
AcDbEntity
  8
vorota
  6
ByLayer
 62
  256
370
   -1
100
AcDbPolyline
 90
    4
 70
    0
 43
0
 10
479.1
 20
125.8999999999999
 10
533.8999999999999
 20
125.8999999999999
 10
533.8999999999999
 20
121.8999999999999
 10
479.1
 20
121.8999999999999
  0
LWPOLYLINE
  5
2F3
100
AcDbEntity
  8
vorota
  6
DASHED2
 62
  256
370
   -1
100
AcDbPolyline
 90
    4
 70
    0
 43
0
 10
592.8
 20
125.9
 10
597.3
 20
125.9
 10
597.3
 20
121.9
 10
592.8
 20
121.9
  0
LWPOLYLINE
  5
2F4
100
AcDbEntity
  8
vorota
  6
ByLayer
 62
  256
370
   -1
100
AcDbPolyline
 90
    4
 70
    0
 43
0
 10
592.8
 20
125.9
 10
537.8999999999999
 20
125.9
 10
537.8999999999999
 20
121.9
 10
592.8
 20
121.9
  0
DIMENSION
  5
2F5
100
AcDbEntity
  8
rozmir
  6
ByLayer
 62
  256
370
   -1
100
AcDbDimension
  2
*D42
 10
490
 20
124.1
 30
0
 11
487
 21
155.2499999999999
 31
0
 70
   32
 71
    5
  3
Standard
 53
0
210
0
220
0
230
1
100
AcDbAlignedDimension
 13
479.1000000000001
 23
184.6
 33
0
 14
479.1
 24
125.8999999999999
 34
0
 50
90
100
AcDbRotatedDimension
  0
DIMENSION
  5
2F6
100
AcDbEntity
  8
rozmir
  6
ByLayer
 62
  256
370
   -1
100
AcDbDimension
  2
*D43
 10
490
 20
63.09999999999999
 30
0
 11
487
 21
92.54999999999994
 31
0
 70
   32
 71
    5
  3
Standard
 53
0
210
0
220
0
230
1
100
AcDbAlignedDimension
 13
479.1
 23
121.8999999999999
 33
0
 14
479.1
 24
63.2
 34
0
 50
90
100
AcDbRotatedDimension
  0
LWPOLYLINE
  5
2F7
100
AcDbEntity
  8
vorota
  6
DASHED2
 62
  256
370
   -1
100
AcDbPolyline
 90
    4
 70
    1
 43
0
 10
258.1000000000001
 20
131.2
 10
198.1
 20
131.2
 10
198.1
 20
127.2
 10
258.1000000000001
 20
127.2
  0
LWPOLYLINE
  5
2F8
100
AcDbEntity
  8
vorota
  6
DASHED2
 62
  256
370
   -1
100
AcDbPolyline
 90
    4
 70
    1
 43
0
 10
194.1
 20
131.1999999999999
 10
134.4
 20
131.1999999999999
 10
134.4
 20
127.2
 10
194.1
 20
127.2
  0
LWPOLYLINE
  5
2F9
100
AcDbEntity
  8
vorota
  6
DASHED2
 62
  256
370
   -1
100
AcDbPolyline
 90
    4
 70
    1
 43
0
 10
74.2
 20
131.1999999999999
 10
134
 20
131.1999999999999
 10
134
 20
127.2
 10
74.2
 20
127.2
  0
LWPOLYLINE
  5
2FA
100
AcDbEntity
  8
vorota
  6
DASHED2
 62
  256
370
   -1
100
AcDbPolyline
 90
    4
 70
    0
 43
0
 10
700.3
 20
56.10000000000001
 10
703.9000000000001
 20
56.10000000000001
 10
703.9000000000001
 20
52.10000000000001
 10
700.3
 20
52.10000000000001
  0
LWPOLYLINE
  5
2FB
100
AcDbEntity
  8
vorota
  6
DASHED2
 62
  256
370
   -1
100
AcDbPolyline
 90
    4
 70
    0
 43
0
 10
654.0000000000001
 20
56.10000000000001
 10
650.4
 20
56.10000000000001
 10
650.4
 20
52.10000000000001
 10
654.0000000000001
 20
52.10000000000001
  0
LINE
  5
2FC
100
AcDbEntity
  8
vorota
  6
ByLayer
 62
  256
370
   -1
100
AcDbLine
 10
654.0000000000001
 20
56.10000000000001
 11
700.3000000000001
 21
56.10000000000002
  0
LINE
  5
2FD
100
AcDbEntity
  8
vorota
  6
ByLayer
 62
  256
370
   -1
100
AcDbLine
 10
654.0000000000001
 20
52.10000000000001
 11
700.3000000000001
 21
52.10000000000002
  0
DIMENSION
  5
2FE
100
AcDbEntity
  8
rozmir
  6
ByLayer
 62
  256
370
   -1
100
AcDbDimension
  2
*D44
 10
665
 20
0.3999999999999982
 30
0
 11
662
 21
26.25
 31
0
 70
   32
 71
    5
 72
    0
  3
Standard
 53
0
210
0
220
0
230
1
100
AcDbAlignedDimension
 13
654.0000000000001
 23
52.10000000000001
 33
0
 14
650.4
 24
0.4
 34
0
 50
90
100
AcDbRotatedDimension
  0
LWPOLYLINE
  5
2FF
100
AcDbEntity
  8
vorota
  6
ByLayer
 62
  256
370
   -1
100
AcDbPolyline
 90
    3
 70
    0
 43
0
 10
458.7
 20
239.3
 10
458.7
 20
243.8
 10
463.7
 20
243.8
  0
LWPOLYLINE
  5
300
100
AcDbEntity
  8
vorota
  6
ByLayer
 62
  256
370
   -1
100
AcDbPolyline
 90
    3
 70
    0
 43
0
 10
345
 20
239.3
 10
345
 20
243.8
 10
340
 20
243.8
  0
LWPOLYLINE
  5
301
100
AcDbEntity
  8
vorota
  6
ByLayer
 62
  256
370
   -1
100
AcDbPolyline
 90
    3
 70
    0
 43
0
 10
458.7
 20
228.7
 10
458.7
 20
224.2
 10
463.7
 20
224.2
  0
LWPOLYLINE
  5
302
100
AcDbEntity
  8
vorota
  6
ByLayer
 62
  256
370
   -1
100
AcDbPolyline
 90
    3
 70
    0
 43
0
 10
345
 20
228.7
 10
345
 20
224.2
 10
340
 20
224.2
  0
LWPOLYLINE
  5
303
100
AcDbEntity
  8
vorota
  6
ByLayer
 62
  256
370
   -1
100
AcDbPolyline
 90
    3
 70
    0
 43
0
 10
458.7000000000001
 20
4.999999999999972
 10
458.7000000000001
 20
0.4999999999999432
 10
463.7000000000002
 20
0.4999999999999716
  0
LWPOLYLINE
  5
304
100
AcDbEntity
  8
vorota
  6
ByLayer
 62
  256
370
   -1
100
AcDbPolyline
 90
    3
 70
    0
 43
0
 10
345.0000000000001
 20
4.999999999999972
 10
345.0000000000001
 20
0.4999999999999432
 10
340.0000000000001
 20
0.4999999999999716
  0
LWPOLYLINE
  5
305
100
AcDbEntity
  8
vorota
  6
ByLayer
 62
  256
370
   -1
100
AcDbPolyline
 90
    3
 70
    0
 43
0
 10
592.8
 20
239.3
 10
592.8
 20
243.8
 10
597.8000000000001
 20
243.8
  0
LWPOLYLINE
  5
306
100
AcDbEntity
  8
vorota
  6
ByLayer
 62
  256
370
   -1
100
AcDbPolyline
 90
    3
 70
    0
 43
0
 10
479.1
 20
239.3
 10
479.1
 20
243.8
 10
474.1
 20
243.8
  0
LWPOLYLINE
  5
307
100
AcDbEntity
  8
vorota
  6
ByLayer
 62
  256
370
   -1
100
AcDbPolyline
 90
    3
 70
    0
 43
0
 10
592.8000000000002
 20
4.999999999999972
 10
592.8000000000002
 20
0.4999999999999432
 10
597.8000000000002
 20
0.4999999999999716
  0
LWPOLYLINE
  5
308
100
AcDbEntity
  8
vorota
  6
ByLayer
 62
  256
370
   -1
100
AcDbPolyline
 90
    3
 70
    0
 43
0
 10
479.1000000000001
 20
4.999999999999972
 10
479.1000000000001
 20
0.4999999999999432
 10
474.1000000000001
 20
0.4999999999999716
  0
LWPOLYLINE
  5
309
100
AcDbEntity
  8
kronshtein
  6
ByLayer
 62
  256
370
   -1
100
AcDbPolyline
 90
    4
 70
    1
 43
0
 10
-0.5000000000000568
 20
44.49999999999999
 10
0
 20
44.49999999999999
 10
0
 20
39.5
 10
-0.5000000000000568
 20
39.5
  0
LWPOLYLINE
  5
30A
100
AcDbEntity
  8
kronshtein
  6
ByLayer
 62
  256
370
   -1
100
AcDbPolyline
 90
    4
 70
    1
 43
0
 10
-0.5000000000001137
 20
125.5
 10
-5.684341886080801e-14
 20
125.5
 10
-5.684341886080801e-14
 20
120.5
 10
-0.5000000000001137
 20
120.5
  0
LWPOLYLINE
  5
30B
100
AcDbEntity
  8
kronshtein
  6
ByLayer
 62
  256
370
   -1
100
AcDbPolyline
 90
    4
 70
    1
 43
0
 10
-0.5000000000001137
 20
206.5
 10
-5.684341886080801e-14
 20
206.5
 10
-5.684341886080801e-14
 20
201.5
 10
-0.5000000000001137
 20
201.5
  0
DIMENSION
  5
30C
100
AcDbEntity
  8
rozmir
  6
ByLayer
 62
  256
370
   -1
100
AcDbDimension
  2
*D45
 10
40
 20
25.8
 30
0
 11
37
 21
25.7
 31
0
 70
   32
 71
    5
 72
    0
  3
Standard
 53
0
210
0
220
0
230
1
100
AcDbAlignedDimension
 13
40
 23
25.5
 33
0
 14
40
 24
25.9
 34
0
 50
90
100
AcDbRotatedDimension
  0
LWPOLYLINE
  5
30D
100
AcDbEntity
  8
vorota
  6
DASHED2
 62
  256
370
   -1
100
AcDbPolyline
 90
    4
 70
    1
 43
0
 10
15.6
 20
189.7
 10
69.90000000000001
 20
189.7
 10
69.90000000000001
 20
25.90000000000005
 10
15.6
 20
25.90000000000002
  0
LWPOLYLINE
  5
30E
100
AcDbEntity
  8
vorota
  6
DASHED2
 62
  256
370
   -1
100
AcDbPolyline
 90
    4
 70
    1
 43
0
 10
65.90000000000001
 20
29.90000000000005
 10
19.6
 20
29.90000000000002
 10
19.6
 20
185.7
 10
65.90000000000001
 20
185.7
  0
LWPOLYLINE
  5
30F
100
AcDbEntity
  8
lyst
  6
ByLayer
 62
  256
370
   -1
100
AcDbPolyline
 90
    4
 70
    1
 43
0
 10
648.6999999999999
 20
165.8
 10
705.7
 20
165.8
 10
705.7
 20
-1.4
 10
648.6999999999999
 20
-1.4
  0
LWPOLYLINE
  5
310
100
AcDbEntity
  8
vorota
  6
ByLayer
 62
  256
370
   -1
100
AcDbPolyline
 90
    4
 70
    1
 43
0
 10
650
 20
163.8
 10
704.3
 20
163.8
 10
704.3
 20
-3.552713678800501e-15
 10
650
 20
-3.552713678800501e-15
  0
LWPOLYLINE
  5
311
100
AcDbEntity
  8
vorota
  6
ByLayer
 62
  256
370
   -1
100
AcDbPolyline
 90
    4
 70
    1
 43
0
 10
700.3
 20
3.999999999999996
 10
654
 20
3.999999999999996
 10
654
 20
159.8
 10
700.3
 20
159.8
  0
LWPOLYLINE
  5
312
100
AcDbEntity
  8
vorota
  6
DASHED2
 62
  256
370
   -1
100
AcDbPolyline
 90
    4
 70
    1
 43
0
 10
650.4
 20
163.4
 10
703.9000000000001
 20
163.4
 10
703.9000000000001
 20
0.4
 10
650.4
 20
0.4
  0
DIMENSION
  5
313
100
AcDbEntity
  8
rozmir
  6
ByLayer
 62
  256
370
   -1
100
AcDbDimension
  2
*D46
 10
704.3
 20
173.2
 30
0
 11
677.15
 21
176.2
 31
0
 70
   32
 71
    5
 72
    0
  3
Standard
 53
0
210
0
220
0
230
1
100
AcDbAlignedDimension
 13
650
 23
163.8
 33
0
 14
704.3
 24
163.8
 34
0
100
AcDbRotatedDimension
  0
DIMENSION
  5
314
100
AcDbEntity
  8
rozmir
  6
ByLayer
 62
  256
370
   -1
100
AcDbDimension
  2
*D47
 10
645
 20
-2.940390279226824e-15
 30
0
 11
642
 21
81.90000000000001
 31
0
 70
   32
 71
    5
 72
    0
  3
Standard
 53
0
210
0
220
0
230
1
100
AcDbAlignedDimension
 13
650
 23
163.8
 33
0
 14
650
 24
-3.552713678800501e-15
 34
0
 50
90
100
AcDbRotatedDimension
  0
LWPOLYLINE
  5
315
100
AcDbEntity
  8
vorota
  6
DASHED2
 62
  256
370
   -1
100
AcDbPolyline
 90
    4
 70
    0
 43
0
 10
700.3000000000001
 20
111.7
 10
703.9000000000002
 20
111.7
 10
703.9000000000002
 20
107.7
 10
700.3000000000001
 20
107.7
  0
LWPOLYLINE
  5
316
100
AcDbEntity
  8
vorota
  6
DASHED2
 62
  256
370
   -1
100
AcDbPolyline
 90
    4
 70
    0
 43
0
 10
654.0000000000002
 20
111.7
 10
650.4000000000001
 20
111.7
 10
650.4000000000001
 20
107.7
 10
654.0000000000002
 20
107.7
  0
LINE
  5
317
100
AcDbEntity
  8
vorota
  6
ByLayer
 62
  256
370
   -1
100
AcDbLine
 10
654.0000000000002
 20
111.7
 11
700.3000000000002
 21
111.7
  0
LINE
  5
318
100
AcDbEntity
  8
vorota
  6
ByLayer
 62
  256
370
   -1
100
AcDbLine
 10
654.0000000000002
 20
107.7
 11
700.3000000000002
 21
107.7
  0
DIMENSION
  5
319
100
AcDbEntity
  8
rozmir
  6
ByLayer
 62
  256
370
   -1
100
AcDbDimension
  2
*D48
 10
704
 20
121.9
 30
0
 11
677.1500000000003
 21
124.9
 31
0
 70
   32
 71
    5
 72
    0
  3
Standard
 53
0
210
0
220
0
230
1
100
AcDbAlignedDimension
 13
650.4000000000002
 23
111.7
 33
0
 14
703.9000000000003
 24
111.7
 34
0
100
AcDbRotatedDimension
  0
DIMENSION
  5
31A
100
AcDbEntity
  8
rozmir
  6
ByLayer
 62
  256
370
   -1
100
AcDbDimension
  2
*D49
 10
665
 20
109.5
 30
0
 11
662
 21
137.55
 31
0
 70
   32
 71
    5
 72
    0
  3
Standard
 53
0
210
0
220
0
230
1
100
AcDbAlignedDimension
 13
650.4
 23
163.4
 33
0
 14
654.0000000000002
 24
111.7
 34
0
 50
90
100
AcDbRotatedDimension
  0
DIMENSION
  5
31B
100
AcDbEntity
  8
rozmir
  6
ByLayer
 62
  256
370
   -1
100
AcDbDimension
  2
*D50
 10
665
 20
54.99999999999986
 30
0
 11
662
 21
81.90000000000001
 31
0
 70
   32
 71
    5
 72
    0
  3
Standard
 53
0
210
0
220
0
230
1
100
AcDbAlignedDimension
 13
654.0000000000002
 23
107.7
 33
0
 14
654.0000000000001
 24
56.10000000000001
 34
0
 50
90
100
AcDbRotatedDimension
  0
LWPOLYLINE
  5
31C
100
AcDbEntity
  8
vorota
  6
DASHED2
 62
  256
370
   -1
100
AcDbPolyline
 90
    4
 70
    1
 43
0
 10
15.6
 20
81.99999999999996
 10
69.90000000000001
 20
81.99999999999999
 10
69.90000000000001
 20
77.99999999999999
 10
15.6
 20
78.00000000000001
  0
LWPOLYLINE
  5
31D
100
AcDbEntity
  8
vorota
  6
DASHED2
 62
  256
370
   -1
100
AcDbPolyline
 90
    4
 70
    1
 43
0
 10
15.6
 20
137.6
 10
69.90000000000001
 20
137.6
 10
69.90000000000001
 20
133.6
 10
15.6
 20
133.6000000000001
  0
LWPOLYLINE
  5
31E
100
AcDbEntity
  8
petli
  6
ByLayer
 62
  256
370
   -1
100
AcDbPolyline
 90
    4
 70
    1
 43
0
 10
14.2
 20
-97.5
 10
9.399999999999999
 20
-97.5
 10
9.400000000000301
 20
-97
 10
14.2
 20
-97
  0
LWPOLYLINE
  5
31F
100
AcDbEntity
  8
petli
  6
ByLayer
 62
  256
370
   -1
100
AcDbPolyline
 90
    7
 70
    0
 43
0
 10
7.100000000000001
 20
32.09999999999999
 10
7.100000000000001
 20
37.19999999999999
 10
7.200000000000001
 20
37.3
 10
9.700000000000003
 20
37.3
 10
9.800000000000001
 20
37.19999999999999
 10
9.800000000000001
 20
32.09999999999999
 10
7.100000000000001
 20
32.09999999999999
  0
LINE
  5
320
100
AcDbEntity
  8
petli
  6
ByLayer
 62
  256
370
   -1
100
AcDbLine
 10
7.100000000000001
 20
37.19999999999999
 11
9.800000000000001
 21
37.19999999999999
  0
LWPOLYLINE
  5
321
100
AcDbEntity
  8
petli
  6
ByLayer
 62
  256
370
   -1
100
AcDbPolyline
 90
    7
 70
    0
 43
0
 10
7.100000000000001
 20
32
 10
7.100000000000001
 20
26.90000000000001
 10
7.200000000000002
 20
26.8
 10
9.700000000000003
 20
26.8
 10
9.800000000000004
 20
26.90000000000001
 10
9.800000000000004
 20
32
 10
7.100000000000002
 20
32
  0
LINE
  5
322
100
AcDbEntity
  8
petli
  6
ByLayer
 62
  256
370
   -1
100
AcDbLine
 10
7.100000000000001
 20
26.90000000000001
 11
9.800000000000004
 21
26.90000000000001
  0
LWPOLYLINE
  5
323
100
AcDbEntity
  8
petli
  6
ByLayer
 62
  256
370
   -1
100
AcDbPolyline
 90
    4
 70
    0
 43
0
 10
7.100000000000001
 20
31.89999999999999
 10
3.5
 20
31.89999999999999
 10
3.5
 20
26.89999999999999
 10
7.100000000000001
 20
26.90000000000002
  0
LWPOLYLINE
  5
324
100
AcDbEntity
  8
petli
  6
ByLayer
 62
  256
370
   -1
100
AcDbPolyline
 90
    4
 70
    0
 43
0
 10
9.800000000000001
 20
37.09999999999998
 10
14.2
 20
37.09999999999998
 10
14.2
 20
32.19999999999999
 10
9.800000000000001
 20
32.19999999999999
  0
LINE
  5
325
100
AcDbEntity
  8
rozmir
  6
DASHDOT2
 62
  256
370
   -1
100
AcDbLine
 10
8.449999999999999
 20
25.79999999999998
 11
8.449999999999999
 21
38.29999999999997
  0
LWPOLYLINE
  5
326
100
AcDbEntity
  8
petli
  6
ByLayer
 62
  256
370
   -1
100
AcDbPolyline
 90
    7
 70
    0
 43
0
 10
261.6
 20
32.09999999999999
 10
261.6
 20
37.19999999999999
 10
261.5
 20
37.3
 10
259
 20
37.3
 10
258.9
 20
37.19999999999999
 10
258.9
 20
32.09999999999999
 10
261.6
 20
32.09999999999999
  0
LINE
  5
327
100
AcDbEntity
  8
petli
  6
ByLayer
 62
  256
370
   -1
100
AcDbLine
 10
261.6
 20
37.19999999999999
 11
258.9
 21
37.19999999999999
  0
LWPOLYLINE
  5
328
100
AcDbEntity
  8
petli
  6
ByLayer
 62
  256
370
   -1
100
AcDbPolyline
 90
    7
 70
    0
 43
0
 10
261.6
 20
32
 10
261.6
 20
26.90000000000001
 10
261.5
 20
26.8
 10
259
 20
26.8
 10
258.9
 20
26.90000000000001
 10
258.9
 20
32
 10
261.6
 20
32
  0
LINE
  5
329
100
AcDbEntity
  8
petli
  6
ByLayer
 62
  256
370
   -1
100
AcDbLine
 10
261.6
 20
26.90000000000001
 11
258.9
 21
26.90000000000001
  0
LWPOLYLINE
  5
32A
100
AcDbEntity
  8
petli
  6
ByLayer
 62
  256
370
   -1
100
AcDbPolyline
 90
    4
 70
    0
 43
0
 10
261.6
 20
31.89999999999999
 10
265.2
 20
31.89999999999999
 10
265.2
 20
26.89999999999999
 10
261.6
 20
26.90000000000002
  0
LWPOLYLINE
  5
32B
100
AcDbEntity
  8
petli
  6
ByLayer
 62
  256
370
   -1
100
AcDbPolyline
 90
    4
 70
    0
 43
0
 10
258.9
 20
37.09999999999998
 10
254.5
 20
37.09999999999998
 10
254.5
 20
32.19999999999999
 10
258.9
 20
32.19999999999999
  0
LINE
  5
32C
100
AcDbEntity
  8
rozmir
  6
DASHDOT2
 62
  256
370
   -1
100
AcDbLine
 10
260.25
 20
25.79999999999998
 11
260.25
 21
38.29999999999997
  0
LINE
  5
32D
100
AcDbEntity
  8
rozmir
  6
DASHDOT2
 62
  256
370
   -1
100
AcDbLine
 10
260.25
 20
129.8
 11
260.25
 21
142.3
  0
LWPOLYLINE
  5
32E
100
AcDbEntity
  8
petli
  6
ByLayer
 62
  256
370
   -1
100
AcDbPolyline
 90
    7
 70
    0
 43
0
 10
261.6
 20
225.1
 10
261.6
 20
230.2
 10
261.5
 20
230.3
 10
259
 20
230.3
 10
258.9
 20
230.2
 10
258.9
 20
225.1
 10
261.6
 20
225.1
  0
LINE
  5
32F
100
AcDbEntity
  8
petli
  6
ByLayer
 62
  256
370
   -1
100
AcDbLine
 10
261.6
 20
230.2
 11
258.9
 21
230.2
  0
LWPOLYLINE
  5
330
100
AcDbEntity
  8
petli
  6
ByLayer
 62
  256
370
   -1
100
AcDbPolyline
 90
    7
 70
    0
 43
0
 10
261.6
 20
225
 10
261.6
 20
219.9
 10
261.5
 20
219.8
 10
259
 20
219.8
 10
258.9
 20
219.9
 10
258.9
 20
225
 10
261.6
 20
225
  0
LINE
  5
331
100
AcDbEntity
  8
petli
  6
ByLayer
 62
  256
370
   -1
100
AcDbLine
 10
261.6
 20
219.9
 11
258.9
 21
219.9
  0
LWPOLYLINE
  5
332
100
AcDbEntity
  8
petli
  6
ByLayer
 62
  256
370
   -1
100
AcDbPolyline
 90
    4
 70
    0
 43
0
 10
261.6
 20
224.9
 10
265.2
 20
224.9
 10
265.2
 20
219.9
 10
261.6
 20
219.9
  0
LWPOLYLINE
  5
333
100
AcDbEntity
  8
petli
  6
ByLayer
 62
  256
370
   -1
100
AcDbPolyline
 90
    4
 70
    0
 43
0
 10
258.9
 20
230.1
 10
254.5
 20
230.1
 10
254.5
 20
225.2
 10
258.9
 20
225.2
  0
LINE
  5
334
100
AcDbEntity
  8
rozmir
  6
DASHDOT2
 62
  256
370
   -1
100
AcDbLine
 10
260.25
 20
218.8
 11
260.25
 21
231.3
  0
DIMENSION
  5
335
100
AcDbEntity
  8
rozmir
  6
ByLayer
 62
  256
370
   -1
100
AcDbDimension
  2
*D51
 10
258.4
 20
200
 30
0
 11
258.25
 21
203
 31
0
 70
   32
 71
    5
  3
Standard
 53
0
210
0
220
0
230
1
100
AcDbAlignedDimension
 13
258.4
 23
200
 33
0
 14
258.1
 24
200
 34
0
100
AcDbRotatedDimension
  0
DIMENSION
  5
336
100
AcDbEntity
  8
rozmir
  6
ByLayer
 62
  256
370
   -1
100
AcDbDimension
  2
*D52
 10
10
 20
212
 30
0
 11
10.15
 21
215
 31
0
 70
   32
 71
    5
  3
Standard
 53
0
210
0
220
0
230
1
100
AcDbAlignedDimension
 13
10
 23
213
 33
0
 14
10.3
 24
213
 34
0
100
AcDbRotatedDimension
  0
LINE
  5
337
100
AcDbEntity
  8
rozmir
  6
DASHDOT2
 62
  256
370
   -1
100
AcDbLine
 10
8.449999999999999
 20
129.8
 11
8.449999999999999
 21
142.3
  0
LWPOLYLINE
  5
338
100
AcDbEntity
  8
petli
  6
ByLayer
 62
  256
370
   -1
100
AcDbPolyline
 90
    7
 70
    0
 43
0
 10
7.100000000000001
 20
225.1
 10
7.100000000000001
 20
230.2
 10
7.200000000000001
 20
230.3
 10
9.700000000000003
 20
230.3
 10
9.800000000000001
 20
230.2
 10
9.800000000000001
 20
225.1
 10
7.100000000000001
 20
225.1
  0
LINE
  5
339
100
AcDbEntity
  8
petli
  6
ByLayer
 62
  256
370
   -1
100
AcDbLine
 10
7.100000000000001
 20
230.2
 11
9.800000000000001
 21
230.2
  0
LWPOLYLINE
  5
33A
100
AcDbEntity
  8
petli
  6
ByLayer
 62
  256
370
   -1
100
AcDbPolyline
 90
    7
 70
    0
 43
0
 10
7.100000000000001
 20
225
 10
7.100000000000001
 20
219.9
 10
7.200000000000002
 20
219.8
 10
9.700000000000003
 20
219.8
 10
9.800000000000004
 20
219.9
 10
9.800000000000004
 20
225
 10
7.100000000000002
 20
225
  0
LINE
  5
33B
100
AcDbEntity
  8
petli
  6
ByLayer
 62
  256
370
   -1
100
AcDbLine
 10
7.100000000000001
 20
219.9
 11
9.800000000000004
 21
219.9
  0
LWPOLYLINE
  5
33C
100
AcDbEntity
  8
petli
  6
ByLayer
 62
  256
370
   -1
100
AcDbPolyline
 90
    4
 70
    0
 43
0
 10
7.100000000000001
 20
224.9
 10
3.5
 20
224.9
 10
3.5
 20
219.9
 10
7.100000000000001
 20
219.9
  0
LWPOLYLINE
  5
33D
100
AcDbEntity
  8
petli
  6
ByLayer
 62
  256
370
   -1
100
AcDbPolyline
 90
    4
 70
    0
 43
0
 10
9.800000000000001
 20
230.1
 10
14.2
 20
230.1
 10
14.2
 20
225.2
 10
9.800000000000001
 20
225.2
  0
LINE
  5
33E
100
AcDbEntity
  8
rozmir
  6
DASHDOT2
 62
  256
370
   -1
100
AcDbLine
 10
8.449999999999999
 20
218.8
 11
8.449999999999999
 21
231.3
  0
DIMENSION
  5
33F
100
AcDbEntity
  8
rozmir
  6
ByLayer
 62
  256
370
   -1
100
AcDbDimension
  2
*D53
 10
-2.999999999999999
 20
32
 30
0
 11
-6
 21
16
 31
0
 70
   32
 71
    5
 72
    0
  3
Standard
 53
0
210
0
220
0
230
1
100
AcDbAlignedDimension
 13
0
 23
0
 33
0
 14
7.100000000000002
 24
32
 34
0
 50
90
100
AcDbRotatedDimension
  0
DIMENSION
  5
340
100
AcDbEntity
  8
rozmir
  6
ByLayer
 62
  256
370
   -1
100
AcDbDimension
  2
*D54
 10
-25
 20
0
 30
0
 11
-27.99999999999999
 21
130
 31
0
 70
   32
 71
    5
  3
Standard
 53
0
210
0
220
0
230
1
100
AcDbAlignedDimension
 13
0
 23
260
 33
0
 14
0
 24
0
 34
0
 50
90
100
AcDbRotatedDimension
  0
DIMENSION
  5
341
100
AcDbEntity
  8
rozmir
  6
ByLayer
 62
  256
370
   -1
100
AcDbDimension
  2
*D55
 10
-17
 20
225
 30
0
 11
-20.00000000000001
 21
112.5
 31
0
 70
   32
 71
    5
 72
    0
  3
Standard
 53
0
210
0
220
0
230
1
100
AcDbAlignedDimension
 13
0
 23
0
 33
0
 14
7.100000000000001
 24
225
 34
0
 50
90
100
AcDbRotatedDimension
  0
LWPOLYLINE
  5
342
100
AcDbEntity
  8
petli
  6
ByLayer
 62
  256
370
   -1
100
AcDbPolyline
 90
    7
 70
    0
 43
0
 10
261.6
 20
138.1
 10
261.6
 20
143.2
 10
261.5
 20
143.3
 10
259
 20
143.3
 10
258.9
 20
143.2
 10
258.9
 20
138.1
 10
261.6
 20
138.1
  0
LINE
  5
343
100
AcDbEntity
  8
petli
  6
ByLayer
 62
  256
370
   -1
100
AcDbLine
 10
261.6
 20
143.2
 11
258.9
 21
143.2
  0
LWPOLYLINE
  5
344
100
AcDbEntity
  8
petli
  6
ByLayer
 62
  256
370
   -1
100
AcDbPolyline
 90
    7
 70
    0
 43
0
 10
261.6
 20
138
 10
261.6
 20
132.9
 10
261.5
 20
132.8
 10
259
 20
132.8
 10
258.9
 20
132.9
 10
258.9
 20
138
 10
261.6
 20
138
  0
LINE
  5
345
100
AcDbEntity
  8
petli
  6
ByLayer
 62
  256
370
   -1
100
AcDbLine
 10
261.6
 20
132.9
 11
258.9
 21
132.9
  0
LWPOLYLINE
  5
346
100
AcDbEntity
  8
petli
  6
ByLayer
 62
  256
370
   -1
100
AcDbPolyline
 90
    4
 70
    0
 43
0
 10
261.6
 20
137.9
 10
265.2
 20
137.9
 10
265.2
 20
132.9
 10
261.6
 20
132.9000000000001
  0
LWPOLYLINE
  5
347
100
AcDbEntity
  8
petli
  6
ByLayer
 62
  256
370
   -1
100
AcDbPolyline
 90
    4
 70
    0
 43
0
 10
258.9
 20
143.1
 10
254.5
 20
143.1
 10
254.5
 20
138.2
 10
258.9
 20
138.2
  0
LWPOLYLINE
  5
348
100
AcDbEntity
  8
petli
  6
ByLayer
 62
  256
370
   -1
100
AcDbPolyline
 90
    7
 70
    0
 43
0
 10
7.100000000000001
 20
138.1
 10
7.100000000000001
 20
143.2
 10
7.200000000000001
 20
143.3
 10
9.700000000000003
 20
143.3
 10
9.800000000000001
 20
143.2
 10
9.800000000000001
 20
138.1
 10
7.100000000000001
 20
138.1
  0
LINE
  5
349
100
AcDbEntity
  8
petli
  6
ByLayer
 62
  256
370
   -1
100
AcDbLine
 10
7.100000000000001
 20
143.2
 11
9.800000000000001
 21
143.2
  0
LWPOLYLINE
  5
34A
100
AcDbEntity
  8
petli
  6
ByLayer
 62
  256
370
   -1
100
AcDbPolyline
 90
    7
 70
    0
 43
0
 10
7.100000000000001
 20
138
 10
7.100000000000001
 20
132.9
 10
7.200000000000002
 20
132.8
 10
9.700000000000003
 20
132.8
 10
9.800000000000004
 20
132.9
 10
9.800000000000004
 20
138
 10
7.100000000000002
 20
138
  0
LINE
  5
34B
100
AcDbEntity
  8
petli
  6
ByLayer
 62
  256
370
   -1
100
AcDbLine
 10
7.100000000000001
 20
132.9
 11
9.800000000000004
 21
132.9
  0
LWPOLYLINE
  5
34C
100
AcDbEntity
  8
petli
  6
ByLayer
 62
  256
370
   -1
100
AcDbPolyline
 90
    4
 70
    0
 43
0
 10
7.100000000000001
 20
137.9
 10
3.5
 20
137.9
 10
3.5
 20
132.9
 10
7.100000000000001
 20
132.9000000000001
  0
LWPOLYLINE
  5
34D
100
AcDbEntity
  8
petli
  6
ByLayer
 62
  256
370
   -1
100
AcDbPolyline
 90
    4
 70
    0
 43
0
 10
9.800000000000001
 20
143.1
 10
14.2
 20
143.1
 10
14.2
 20
138.2
 10
9.800000000000001
 20
138.2
  0
DIMENSION
  5
34E
100
AcDbEntity
  8
rozmir
  6
ByLayer
 62
  256
370
   -1
100
AcDbDimension
  2
*D56
 10
-10
 20
136
 30
0
 11
-13
 21
69.00000000000001
 31
0
 70
   32
 71
    5
 72
    0
  3
Standard
 53
0
210
0
220
0
230
1
100
AcDbAlignedDimension
 13
0
 23
0
 33
0
 14
7.100000000000002
 24
138
 34
0
 50
90
100
AcDbRotatedDimension
  0
ENDSEC
  0
SECTION
  2
OBJECTS
  0
DICTIONARY
  5
C
330
0
100
AcDbDictionary
281
    1
  3
ACAD_GROUP
350
D
  0
DICTIONARY
  5
D
330
C
100
AcDbDictionary
281
    1
  0
ENDSEC
  0
EOF
