999
dxfrw 0.6.3
  0
SECTION
  2
HEADER
  9
$ACADVER
  1
AC1021
  9
$DWGCODEPAGE
  3
ANSI_1252
  9
$INSBASE
 10
0
 20
0
 30
0
  9
$EXTMIN
 10
-13.5
 20
-23.33333333333333
 30
0
  9
$EXTMAX
 10
60.16666666666666
 20
32.5
 30
0
  9
$LIMMIN
 10
0
 20
0
  9
$LIMMAX
 10
420
 20
297
  9
$ORTHOMODE
 70
    0
  9
$REGENMODE
 70
    1
  9
$FILLMODE
 70
    1
  9
$QTEXTMODE
 70
    0
  9
$MIRRTEXT
 70
    0
  9
$LTSCALE
 40
1
  9
$ATTMODE
 70
    0
  9
$TEXTSIZE
 40
2.5
  9
$TRACEWID
 40
15.68
  9
$TEXTSTYLE
  7
STANDARD
  9
$CLAYER
  8
metal
  9
$CELTYPE
  6
BYLAYER
  9
$CECOLOR
 62
  256
  9
$CELTSCALE
 40
1
  9
$DISPSILH
 70
    0
  9
$DIMSCALE
 40
1
  9
$DIMASZ
 40
1
  9
$DIMEXO
 40
1
  9
$DIMDLI
 40
3.75
  9
$DIMRND
 40
0
  9
$DIMDLE
 40
0
  9
$DIMEXE
 40
1
  9
$DIMTP
 40
0
  9
$DIMTM
 40
0
  9
$DIMTXT
 40
1
  9
$DIMCEN
 40
2.5
  9
$DIMTSZ
 40
0
  9
$DIMTOL
 70
    0
  9
$DIMLIM
 70
    0
  9
$DIMTIH
 70
    0
  9
$DIMTOH
 70
    0
  9
$DIMSE1
 70
    0
  9
$DIMSE2
 70
    0
  9
$DIMTAD
 70
    1
  9
$DIMZIN
 70
    8
  9
$DIMBLK
  1

  9
$DIMASO
 70
    1
  9
$DIMSHO
 70
    1
  9
$DIMPOST
  1

  9
$DIMAPOST
  1

  9
$DIMALT
 70
    0
  9
$DIMALTD
 70
    3
  9
$DIMALTF
 40
0.03937
  9
$DIMLFAC
 40
10
  9
$DIMTOFL
 70
    1
  9
$DIMTVP
 40
0
  9
$DIMTIX
 70
    0
  9
$DIMSOXD
 70
    0
  9
$DIMSAH
 70
    0
  9
$DIMBLK1
  1

  9
$DIMBLK2
  1

  9
$DIMSTYLE
  2
STANDARD
  9
$DIMCLRD
 70
    0
  9
$DIMCLRE
 70
    0
  9
$DIMCLRT
 70
    0
  9
$DIMTFAC
 40
1
  9
$DIMGAP
 40
0.5
  9
$DIMJUST
 70
    0
  9
$DIMSD1
 70
    0
  9
$DIMSD2
 70
    0
  9
$DIMTOLJ
 70
    0
  9
$DIMTZIN
 70
    8
  9
$DIMALTZ
 70
    0
  9
$DIMALTTZ
 70
    0
  9
$DIMUPT
 70
    0
  9
$DIMDEC
 70
    1
  9
$DIMTDEC
 70
    2
  9
$DIMALTU
 70
    2
  9
$DIMALTTD
 70
    3
  9
$DIMTXSTY
  7
standard
  9
$DIMAUNIT
 70
    0
  9
$DIMADEC
 70
    0
  9
$DIMALTRND
 40
0
  9
$DIMAZIN
 70
    0
  9
$DIMDSEP
 70
   44
  9
$DIMATFIT
 70
    3
  9
$DIMFRAC
 70
    0
  9
$DIMLDRBLK
  1
STANDARD
  9
$DIMLUNIT
 70
    2
  9
$DIMLWD
 70
   -2
  9
$DIMLWE
 70
   -2
  9
$DIMTMOVE
 70
    0
  9
$DIMFXL
 40
1
  9
$DIMFXLON
 70
    0
  9
$DIMJOGANG
 40
0.7854
  9
$DIMTFILL
 70
    0
  9
$DIMTFILLCLR
 70
    0
  9
$DIMARCSYM
 70
    0
  9
$DIMLTYPE
  6

  9
$DIMLTEX1
  6

  9
$DIMLTEX2
  6

  9
$LUNITS
 70
    2
  9
$LUPREC
 70
    2
  9
$SKETCHINC
 40
1
  9
$FILLETRAD
 40
0
  9
$AUNITS
 70
    0
  9
$AUPREC
 70
    2
  9
$MENU
  1
.
  9
$ELEVATION
 40
0
  9
$PELEVATION
 40
0
  9
$THICKNESS
 40
0
  9
$LIMCHECK
 70
    0
  9
$CHAMFERA
 40
0
  9
$CHAMFERB
 40
0
  9
$CHAMFERC
 40
0
  9
$CHAMFERD
 40
0
  9
$SKPOLY
 70
    0
  9
$USRTIMER
 70
    1
  9
$ANGBASE
 50
0
  9
$ANGDIR
 70
    0
  9
$PDMODE
 70
   34
  9
$PDSIZE
 40
0
  9
$PLINEWID
 40
0
  9
$SPLFRAME
 70
    0
  9
$SPLINETYPE
 70
    2
  9
$SPLINESEGS
 70
    8
  9
$HANDSEED
  5
20000
  9
$SURFTAB1
 70
    6
  9
$SURFTAB2
 70
    6
  9
$SURFTYPE
 70
    6
  9
$SURFU
 70
    6
  9
$SURFV
 70
    6
  9
$UCSBASE
  2

  9
$UCSNAME
  2

  9
$UCSORG
 10
0
 20
0
 30
0
  9
$UCSXDIR
 10
1
 20
0
 30
0
  9
$UCSYDIR
 10
0
 20
1
 30
0
  9
$UCSORTHOREF
  2

  9
$UCSORTHOVIEW
 70
    0
  9
$UCSORGTOP
 10
0
 20
0
 30
0
  9
$UCSORGBOTTOM
 10
0
 20
0
 30
0
  9
$UCSORGLEFT
 10
0
 20
0
 30
0
  9
$UCSORGRIGHT
 10
0
 20
0
 30
0
  9
$UCSORGFRONT
 10
0
 20
0
 30
0
  9
$UCSORGBACK
 10
0
 20
0
 30
0
  9
$PUCSBASE
  2

  9
$PUCSNAME
  2

  9
$PUCSORG
 10
0
 20
0
 30
0
  9
$PUCSXDIR
 10
1
 20
0
 30
0
  9
$PUCSYDIR
 10
0
 20
1
 30
0
  9
$PUCSORTHOREF
  2

  9
$PUCSORTHOVIEW
 70
    0
  9
$PUCSORGTOP
 10
0
 20
0
 30
0
  9
$PUCSORGBOTTOM
 10
0
 20
0
 30
0
  9
$PUCSORGLEFT
 10
0
 20
0
 30
0
  9
$PUCSORGRIGHT
 10
0
 20
0
 30
0
  9
$PUCSORGFRONT
 10
0
 20
0
 30
0
  9
$PUCSORGBACK
 10
0
 20
0
 30
0
  9
$USERI1
 70
    0
  9
$USERI2
 70
    0
  9
$USERI3
 70
    0
  9
$USERI4
 70
    0
  9
$USERI5
 70
    0
  9
$USERR1
 40
0
  9
$USERR2
 40
0
  9
$USERR3
 40
0
  9
$USERR4
 40
0
  9
$USERR5
 40
0
  9
$WORLDVIEW
 70
    1
  9
$SHADEDGE
 70
    3
  9
$SHADEDIF
 70
   70
  9
$TILEMODE
 70
    1
  9
$MAXACTVP
 70
   64
  9
$PINSBASE
 10
6.882448377581122
 20
9.108407079646017
 30
0
  9
$PLIMCHECK
 70
    0
  9
$PEXTMIN
 10
0
 20
0
 30
0
  9
$PEXTMAX
 10
0
 20
0
 30
0
  9
$GRIDMODE
 70
    1
  9
$SNAPSTYLE
 70
    0
  9
$GRIDUNIT
 10
0
 20
0
  9
$PLIMMIN
 10
0
 20
0
  9
$PLIMMAX
 10
29.7
 20
21
  9
$UNITMODE
 70
    0
  9
$VISRETAIN
 70
    1
  9
$PLINEGEN
 70
    0
  9
$PSLTSCALE
 70
    1
  9
$TREEDEPTH
 70
 3020
  9
$CMLSTYLE
  2
Standard
  9
$CMLJUST
 70
    0
  9
$CMLSCALE
 40
20
  9
$PROXYGRAPHICS
 70
    1
  9
$MEASUREMENT
 70
    1
  9
$CELWEIGHT
370
   -1
  9
$ENDCAPS
280
    0
  9
$JOINSTYLE
280
    0
  9
$LWDISPLAY
290
    0
  9
$INSUNITS
 70
    5
  9
$HYPERLINKBASE
  1

  9
$STYLESHEET
  1

  9
$XEDIT
290
    1
  9
$CEPSNTYPE
380
    0
  9
$PSTYLEMODE
290
    1
  9
$EXTNAMES
290
    1
  9
$PSVPSCALE
 40
0.3274340629655703
  9
$OLESTARTUP
290
    0
  9
$SORTENTS
280
  127
  9
$INDEXCTL
280
    0
  9
$HIDETEXT
280
    1
  9
$XCLIPFRAME
290
    0
  9
$HALOGAP
280
    0
  9
$OBSCOLOR
 70
  257
  9
$OBSLTYPE
280
    0
  9
$INTERSECTIONDISPLAY
280
    0
  9
$INTERSECTIONCOLOR
 70
  257
  9
$DIMASSOC
280
    1
  9
$PROJECTNAME
  1

  9
$CAMERADISPLAY
290
    0
  9
$LENSLENGTH
 40
50
  9
$CAMERAHEIGHT
 40
0
  9
$STEPSPERSEC
 40
2
  9
$STEPSIZE
 40
50
  9
$3DDWFPREC
 40
2
  9
$PSOLWIDTH
 40
5
  9
$PSOLHEIGHT
 40
80
  9
$LOFTANG1
 40
1.570796326794897
  9
$LOFTANG2
 40
1.570796326794897
  9
$LOFTMAG1
 40
0
  9
$LOFTMAG2
 40
0
  9
$LOFTPARAM
 70
    7
  9
$LOFTNORMALS
280
    1
  9
$LATITUDE
 40
1
  9
$LONGITUDE
 40
1
  9
$NORTHDIRECTION
 40
0
  9
$TIMEZONE
 70
-8000
  9
$LIGHTGLYPHDISPLAY
280
    1
  9
$TILEMODELIGHTSYNCH
280
    1
  9
$SOLIDHIST
280
    1
  9
$SHOWHIST
280
    1
  9
$DWFFRAME
280
    2
  9
$DGNFRAME
280
    0
  9
$REALWORLDSCALE
290
    1
  9
$INTERFERECOLOR
 62
    1
  9
$CSHADOW
280
    0
  9
$SHADOWPLANELOCATION
 40
0
  0
ENDSEC
  0
SECTION
  2
CLASSES
  0
ENDSEC
  0
SECTION
  2
TABLES
  0
TABLE
  2
VPORT
  5
8
330
0
100
AcDbSymbolTable
 70
    1
  0
VPORT
  5
31
330
2
100
AcDbSymbolTableRecord
100
AcDbViewportTableRecord
  2
*ACTIVE
 70
    0
 10
0
 20
0
 11
1
 21
1
 12
36.53095238095238
 22
16.8031746031746
 13
0
 23
0
 14
10
 24
10
 15
10
 25
10
 16
0
 26
0
 36
1
 17
0
 27
0
 37
0
 40
57.96031746031746
 41
1.715596330275229
 42
50
 43
0
 44
0
 50
0
 51
0
 71
    0
 72
  100
 73
    1
 74
    3
 75
    0
 76
    1
 77
    0
 78
    0
281
    0
 65
    1
110
0
120
0
130
0
111
1
121
0
131
0
112
0
122
1
132
0
 79
    0
146
0
348
10020
 60
    7
 61
    5
292
1
282
    1
141
0
142
0
 63
  250
421
3358443
  0
ENDTAB
  0
TABLE
  2
LTYPE
  5
5
330
0
100
AcDbSymbolTable
 70
    4
  0
LTYPE
  5
14
330
5
100
AcDbSymbolTableRecord
100
AcDbLinetypeTableRecord
  2
ByBlock
 70
    0
  3

 72
   65
 73
    0
 40
0
  0
LTYPE
  5
15
330
5
100
AcDbSymbolTableRecord
100
AcDbLinetypeTableRecord
  2
ByLayer
 70
    0
  3

 72
   65
 73
    0
 40
0
  0
LTYPE
  5
16
330
5
100
AcDbSymbolTableRecord
100
AcDbLinetypeTableRecord
  2
Continuous
 70
    0
  3
Solid line
 72
   65
 73
    0
 40
0
  0
LTYPE
  5
32
330
5
100
AcDbSymbolTableRecord
100
AcDbLinetypeTableRecord
  2
DOT
 70
    0
  3
Dot . . . . . . . . . . . . . . . . . . . . . .
 72
   65
 73
    2
 40
6.35
 49
0
 74
    0
 49
-6.35
 74
    0
  0
LTYPE
  5
33
330
5
100
AcDbSymbolTableRecord
100
AcDbLinetypeTableRecord
  2
DOTTINY
 70
    0
  3
Dot (.15x) .....................................
 72
   65
 73
    2
 40
0.9525
 49
0
 74
    0
 49
-0.9525
 74
    0
  0
LTYPE
  5
34
330
5
100
AcDbSymbolTableRecord
100
AcDbLinetypeTableRecord
  2
DOT2
 70
    0
  3
Dot (.5x) .....................................
 72
   65
 73
    2
 40
3.175
 49
0
 74
    0
 49
-3.175
 74
    0
  0
LTYPE
  5
35
330
5
100
AcDbSymbolTableRecord
100
AcDbLinetypeTableRecord
  2
DOTX2
 70
    0
  3
Dot (2x) .  .  .  .  .  .  .  .  .  .  .  .  .
 72
   65
 73
    2
 40
12.7
 49
0
 74
    0
 49
-12.7
 74
    0
  0
LTYPE
  5
36
330
5
100
AcDbSymbolTableRecord
100
AcDbLinetypeTableRecord
  2
DASHED
 70
    0
  3
Dashed _ _ _ _ _ _ _ _ _ _ _ _ _ _ _ _ _
 72
   65
 73
    2
 40
19.05
 49
12.7
 74
    0
 49
-6.35
 74
    0
  0
LTYPE
  5
37
330
5
100
AcDbSymbolTableRecord
100
AcDbLinetypeTableRecord
  2
DASHEDTINY
 70
    0
  3
Dashed (.15x) _ _ _ _ _ _ _ _ _ _ _ _ _ _ _ _ _
 72
   65
 73
    2
 40
2.8575
 49
1.905
 74
    0
 49
-0.9525
 74
    0
  0
LTYPE
  5
38
330
5
100
AcDbSymbolTableRecord
100
AcDbLinetypeTableRecord
  2
DASHED2
 70
    0
  3
Dashed (.5x) _ _ _ _ _ _ _ _ _ _ _ _ _ _ _ _ _
 72
   65
 73
    2
 40
9.524999999999999
 49
6.35
 74
    0
 49
-3.175
 74
    0
  0
LTYPE
  5
39
330
5
100
AcDbSymbolTableRecord
100
AcDbLinetypeTableRecord
  2
DASHEDX2
 70
    0
  3
Dashed (2x) ____  ____  ____  ____  ____  ___
 72
   65
 73
    2
 40
38.09999999999999
 49
25.4
 74
    0
 49
-12.7
 74
    0
  0
LTYPE
  5
3A
330
5
100
AcDbSymbolTableRecord
100
AcDbLinetypeTableRecord
  2
DASHDOT
 70
    0
  3
Dash dot __ . __ . __ . __ . __ . __ . __ . __
 72
   65
 73
    4
 40
25.4
 49
12.7
 74
    0
 49
-6.35
 74
    0
 49
0
 74
    0
 49
-6.35
 74
    0
  0
LTYPE
  5
3B
330
5
100
AcDbSymbolTableRecord
100
AcDbLinetypeTableRecord
  2
DASHDOTTINY
 70
    0
  3
Dash dot (.15x) _._._._._._._._._._._._._._._.
 72
   65
 73
    4
 40
3.81
 49
1.905
 74
    0
 49
-0.9525
 74
    0
 49
0
 74
    0
 49
-0.9525
 74
    0
  0
LTYPE
  5
3C
330
5
100
AcDbSymbolTableRecord
100
AcDbLinetypeTableRecord
  2
DASHDOT2
 70
    0
  3
Dash dot (.5x) _._._._._._._._._._._._._._._.
 72
   65
 73
    4
 40
12.7
 49
6.35
 74
    0
 49
-3.175
 74
    0
 49
0
 74
    0
 49
-3.175
 74
    0
  0
LTYPE
  5
3D
330
5
100
AcDbSymbolTableRecord
100
AcDbLinetypeTableRecord
  2
DASHDOTX2
 70
    0
  3
Dash dot (2x) ____  .  ____  .  ____  .  ___
 72
   65
 73
    4
 40
50.8
 49
25.4
 74
    0
 49
-12.7
 74
    0
 49
0
 74
    0
 49
-12.7
 74
    0
  0
LTYPE
  5
3E
330
5
100
AcDbSymbolTableRecord
100
AcDbLinetypeTableRecord
  2
DIVIDE
 70
    0
  3
Divide ____ . . ____ . . ____ . . ____ . . ____
 72
   65
 73
    6
 40
31.75
 49
12.7
 74
    0
 49
-6.35
 74
    0
 49
0
 74
    0
 49
-6.35
 74
    0
 49
0
 74
    0
 49
-6.35
 74
    0
  0
LTYPE
  5
3F
330
5
100
AcDbSymbolTableRecord
100
AcDbLinetypeTableRecord
  2
DIVIDETINY
 70
    0
  3
Divide (.15x) __..__..__..__..__..__..__..__.._
 72
   65
 73
    6
 40
4.7625
 49
1.905
 74
    0
 49
-0.9525
 74
    0
 49
0
 74
    0
 49
-0.9525
 74
    0
 49
0
 74
    0
 49
-0.9525
 74
    0
  0
LTYPE
  5
40
330
5
100
AcDbSymbolTableRecord
100
AcDbLinetypeTableRecord
  2
DIVIDE2
 70
    0
  3
Divide (.5x) __..__..__..__..__..__..__..__.._
 72
   65
 73
    6
 40
15.875
 49
6.35
 74
    0
 49
-3.175
 74
    0
 49
0
 74
    0
 49
-3.175
 74
    0
 49
0
 74
    0
 49
-3.175
 74
    0
  0
LTYPE
  5
41
330
5
100
AcDbSymbolTableRecord
100
AcDbLinetypeTableRecord
  2
DIVIDEX2
 70
    0
  3
Divide (2x) ________  .  .  ________  .  .  _
 72
   65
 73
    6
 40
63.5
 49
25.4
 74
    0
 49
-12.7
 74
    0
 49
0
 74
    0
 49
-12.7
 74
    0
 49
0
 74
    0
 49
-12.7
 74
    0
  0
LTYPE
  5
42
330
5
100
AcDbSymbolTableRecord
100
AcDbLinetypeTableRecord
  2
BORDER
 70
    0
  3
Border __ __ . __ __ . __ __ . __ __ . __ __ .
 72
   65
 73
    6
 40
44.45
 49
12.7
 74
    0
 49
-6.35
 74
    0
 49
12.7
 74
    0
 49
-6.35
 74
    0
 49
0
 74
    0
 49
-6.35
 74
    0
  0
LTYPE
  5
43
330
5
100
AcDbSymbolTableRecord
100
AcDbLinetypeTableRecord
  2
BORDERTINY
 70
    0
  3
Border (.15x) __.__.__.__.__.__.__.__.__.__.__.
 72
   65
 73
    6
 40
6.6675
 49
1.905
 74
    0
 49
-0.9525
 74
    0
 49
1.905
 74
    0
 49
-0.9525
 74
    0
 49
0
 74
    0
 49
-0.9525
 74
    0
  0
LTYPE
  5
44
330
5
100
AcDbSymbolTableRecord
100
AcDbLinetypeTableRecord
  2
BORDER2
 70
    0
  3
Border (.5x) __.__.__.__.__.__.__.__.__.__.__.
 72
   65
 73
    6
 40
22.225
 49
6.35
 74
    0
 49
-3.175
 74
    0
 49
6.35
 74
    0
 49
-3.175
 74
    0
 49
0
 74
    0
 49
-3.175
 74
    0
  0
LTYPE
  5
45
330
5
100
AcDbSymbolTableRecord
100
AcDbLinetypeTableRecord
  2
BORDERX2
 70
    0
  3
Border (2x) ____  ____  .  ____  ____  .  ___
 72
   65
 73
    6
 40
88.89999999999999
 49
25.4
 74
    0
 49
-12.7
 74
    0
 49
25.4
 74
    0
 49
-12.7
 74
    0
 49
0
 74
    0
 49
-12.7
 74
    0
  0
LTYPE
  5
46
330
5
100
AcDbSymbolTableRecord
100
AcDbLinetypeTableRecord
  2
CENTER
 70
    0
  3
Center ____ _ ____ _ ____ _ ____ _ ____ _ ____
 72
   65
 73
    4
 40
50.8
 49
31.75
 74
    0
 49
-6.35
 74
    0
 49
6.35
 74
    0
 49
-6.35
 74
    0
  0
LTYPE
  5
47
330
5
100
AcDbSymbolTableRecord
100
AcDbLinetypeTableRecord
  2
CENTERTINY
 70
    0
  3
Center (.15x) ___ _ ___ _ ___ _ ___ _ ___ _ ___
 72
   65
 73
    4
 40
7.619999999999999
 49
4.7625
 74
    0
 49
-0.9525
 74
    0
 49
0.9525
 74
    0
 49
-0.9525
 74
    0
  0
LTYPE
  5
48
330
5
100
AcDbSymbolTableRecord
100
AcDbLinetypeTableRecord
  2
CENTER2
 70
    0
  3
Center (.5x) ___ _ ___ _ ___ _ ___ _ ___ _ ___
 72
   65
 73
    4
 40
28.575
 49
19.05
 74
    0
 49
-3.175
 74
    0
 49
3.175
 74
    0
 49
-3.175
 74
    0
  0
LTYPE
  5
49
330
5
100
AcDbSymbolTableRecord
100
AcDbLinetypeTableRecord
  2
CENTERX2
 70
    0
  3
Center (2x) ________  __  ________  __  _____
 72
   65
 73
    4
 40
101.6
 49
63.5
 74
    0
 49
-12.7
 74
    0
 49
12.7
 74
    0
 49
-12.7
 74
    0
  0
ENDTAB
  0
TABLE
  2
LAYER
  5
2
330
0
100
AcDbSymbolTable
 70
    1
  0
LAYER
  5
10
330
2
100
AcDbSymbolTableRecord
100
AcDbLayerTableRecord
  2
0
 70
    0
 62
    7
  6
CONTINUOUS
370
   -3
390
F
1001
LibreCad
1070
    1
  0
LAYER
  5
4A
330
2
100
AcDbSymbolTableRecord
100
AcDbLayerTableRecord
  2
body
 70
    0
 62
   56
420
8421376
  6
CONTINUOUS
370
   50
390
F
  0
LAYER
  5
4B
330
2
100
AcDbSymbolTableRecord
100
AcDbLayerTableRecord
  2
concrete
 70
    0
 62
  216
420
8388736
  6
CONTINUOUS
370
   50
390
F
  0
LAYER
  5
4C
330
2
100
AcDbSymbolTableRecord
100
AcDbLayerTableRecord
  2
dimensions
 70
    0
 62
    4
  6
CONTINUOUS
370
   13
390
F
  0
LAYER
  5
4D
330
2
100
AcDbSymbolTableRecord
100
AcDbLayerTableRecord
  2
face
 70
    0
 62
    3
  6
CONTINUOUS
370
   50
390
F
  0
LAYER
  5
4E
330
2
100
AcDbSymbolTableRecord
100
AcDbLayerTableRecord
  2
metal
 70
    0
 62
    5
  6
CONTINUOUS
370
   50
390
F
  0
LAYER
  5
4F
330
2
100
AcDbSymbolTableRecord
100
AcDbLayerTableRecord
  2
rozmir
 70
    0
 62
    4
  6
CONTINUOUS
370
   13
390
F
  0
LAYER
  5
50
330
2
100
AcDbSymbolTableRecord
100
AcDbLayerTableRecord
  2
u-block
 70
    0
 62
    6
  6
CONTINUOUS
370
   50
390
F
  0
ENDTAB
  0
TABLE
  2
STYLE
  5
3
330
0
100
AcDbSymbolTable
 70
    3
  0
STYLE
  5
51
330
2
100
AcDbSymbolTableRecord
100
AcDbTextStyleTableRecord
  2
unicode
 70
    0
 40
0
 41
1
 50
0
 71
    0
 42
1
  3
unicode
  4

  0
STYLE
  5
52
330
2
100
AcDbSymbolTableRecord
100
AcDbTextStyleTableRecord
  2
cyrillic_ii
 70
    0
 40
0
 41
1
 50
0
 71
    0
 42
1
  3
cyrillic_ii
  4

  0
STYLE
  5
53
330
2
100
AcDbSymbolTableRecord
100
AcDbTextStyleTableRecord
  2
Standard
 70
    0
 40
0
 41
1
 50
0
 71
    0
 42
1
  3
txt
  4

  0
ENDTAB
  0
TABLE
  2
VIEW
  5
6
330
0
100
AcDbSymbolTable
 70
    0
  0
ENDTAB
  0
TABLE
  2
UCS
  5
7
330
0
100
AcDbSymbolTable
 70
    0
  0
ENDTAB
  0
TABLE
  2
APPID
  5
9
330
0
100
AcDbSymbolTable
 70
    1
  0
APPID
  5
12
330
9
100
AcDbSymbolTableRecord
100
AcDbRegAppTableRecord
  2
ACAD
 70
    0
  0
APPID
  5
54
330
9
100
AcDbSymbolTableRecord
100
AcDbRegAppTableRecord
  2
LibreCad
 70
    0
  0
ENDTAB
  0
TABLE
  2
DIMSTYLE
  5
A
330
0
100
AcDbSymbolTable
 70
    1
100
AcDbDimStyleTable
 71
    1
  0
DIMSTYLE
105
55
330
A
100
AcDbSymbolTableRecord
100
AcDbDimStyleTableRecord
  2
Standard
 70
    0
 40
1
 41
1
 42
1
 43
0.38
 44
1
 45
0
 46
0
 47
0
 48
0
 49
1
140
1
141
0.09
142
0
143
25.4
144
10
145
0
146
1
147
0.5
148
0
 71
    0
 72
    0
 73
    0
 74
    1
 75
    0
 76
    0
 77
    0
 78
    8
 79
    0
170
    0
171
    2
172
    0
173
    0
174
    0
175
    0
176
    0
177
    0
178
    0
179
    0
271
    1
272
    4
273
    2
274
    2
275
    0
276
    0
277
    2
278
   44
279
    0
280
    0
281
    0
282
    0
283
    1
284
    0
285
    0
286
    0
288
    0
289
    3
340
standard
341

371
   -2
372
   -2
  0
ENDTAB
  0
TABLE
  2
BLOCK_RECORD
  5
1
330
0
100
AcDbSymbolTable
 70
    2
  0
BLOCK_RECORD
  5
1F
330
1
100
AcDbSymbolTableRecord
100
AcDbBlockTableRecord
  2
*Model_Space
 70
    0
280
    1
281
    0
  0
BLOCK_RECORD
  5
1E
330
1
100
AcDbSymbolTableRecord
100
AcDbBlockTableRecord
  2
*Paper_Space
 70
    0
280
    1
281
    0
  0
BLOCK_RECORD
  5
56
330
1
100
AcDbSymbolTableRecord
100
AcDbBlockTableRecord
  2
*D18
 70
    0
280
    1
281
    0
  0
BLOCK_RECORD
  5
59
330
1
100
AcDbSymbolTableRecord
100
AcDbBlockTableRecord
  2
*D6
 70
    0
280
    1
281
    0
  0
BLOCK_RECORD
  5
5C
330
1
100
AcDbSymbolTableRecord
100
AcDbBlockTableRecord
  2
*D36
 70
    0
280
    1
281
    0
  0
BLOCK_RECORD
  5
5F
330
1
100
AcDbSymbolTableRecord
100
AcDbBlockTableRecord
  2
*D4
 70
    0
280
    1
281
    0
  0
BLOCK_RECORD
  5
62
330
1
100
AcDbSymbolTableRecord
100
AcDbBlockTableRecord
  2
*D11
 70
    0
280
    1
281
    0
  0
BLOCK_RECORD
  5
65
330
1
100
AcDbSymbolTableRecord
100
AcDbBlockTableRecord
  2
*D31
 70
    0
280
    1
281
    0
  0
BLOCK_RECORD
  5
68
330
1
100
AcDbSymbolTableRecord
100
AcDbBlockTableRecord
  2
*D5
 70
    0
280
    1
281
    0
  0
BLOCK_RECORD
  5
6B
330
1
100
AcDbSymbolTableRecord
100
AcDbBlockTableRecord
  2
*D8
 70
    0
280
    1
281
    0
  0
BLOCK_RECORD
  5
6E
330
1
100
AcDbSymbolTableRecord
100
AcDbBlockTableRecord
  2
*D3
 70
    0
280
    1
281
    0
  0
BLOCK_RECORD
  5
71
330
1
100
AcDbSymbolTableRecord
100
AcDbBlockTableRecord
  2
*D17
 70
    0
280
    1
281
    0
  0
BLOCK_RECORD
  5
74
330
1
100
AcDbSymbolTableRecord
100
AcDbBlockTableRecord
  2
*D20
 70
    0
280
    1
281
    0
  0
BLOCK_RECORD
  5
77
330
1
100
AcDbSymbolTableRecord
100
AcDbBlockTableRecord
  2
*D23
 70
    0
280
    1
281
    0
  0
BLOCK_RECORD
  5
7A
330
1
100
AcDbSymbolTableRecord
100
AcDbBlockTableRecord
  2
*D16
 70
    0
280
    1
281
    0
  0
BLOCK_RECORD
  5
7D
330
1
100
AcDbSymbolTableRecord
100
AcDbBlockTableRecord
  2
*D24
 70
    0
280
    1
281
    0
  0
BLOCK_RECORD
  5
80
330
1
100
AcDbSymbolTableRecord
100
AcDbBlockTableRecord
  2
*D14
 70
    0
280
    1
281
    0
  0
BLOCK_RECORD
  5
83
330
1
100
AcDbSymbolTableRecord
100
AcDbBlockTableRecord
  2
*D15
 70
    0
280
    1
281
    0
  0
BLOCK_RECORD
  5
86
330
1
100
AcDbSymbolTableRecord
100
AcDbBlockTableRecord
  2
*D22
 70
    0
280
    1
281
    0
  0
BLOCK_RECORD
  5
89
330
1
100
AcDbSymbolTableRecord
100
AcDbBlockTableRecord
  2
*D26
 70
    0
280
    1
281
    0
  0
BLOCK_RECORD
  5
8C
330
1
100
AcDbSymbolTableRecord
100
AcDbBlockTableRecord
  2
*D1
 70
    0
280
    1
281
    0
  0
BLOCK_RECORD
  5
8F
330
1
100
AcDbSymbolTableRecord
100
AcDbBlockTableRecord
  2
*D13
 70
    0
280
    1
281
    0
  0
BLOCK_RECORD
  5
92
330
1
100
AcDbSymbolTableRecord
100
AcDbBlockTableRecord
  2
*D2
 70
    0
280
    1
281
    0
  0
BLOCK_RECORD
  5
95
330
1
100
AcDbSymbolTableRecord
100
AcDbBlockTableRecord
  2
*D28
 70
    0
280
    1
281
    0
  0
BLOCK_RECORD
  5
98
330
1
100
AcDbSymbolTableRecord
100
AcDbBlockTableRecord
  2
*D33
 70
    0
280
    1
281
    0
  0
BLOCK_RECORD
  5
9B
330
1
100
AcDbSymbolTableRecord
100
AcDbBlockTableRecord
  2
*D29
 70
    0
280
    1
281
    0
  0
BLOCK_RECORD
  5
9E
330
1
100
AcDbSymbolTableRecord
100
AcDbBlockTableRecord
  2
*D9
 70
    0
280
    1
281
    0
  0
BLOCK_RECORD
  5
A1
330
1
100
AcDbSymbolTableRecord
100
AcDbBlockTableRecord
  2
*D21
 70
    0
280
    1
281
    0
  0
BLOCK_RECORD
  5
A4
330
1
100
AcDbSymbolTableRecord
100
AcDbBlockTableRecord
  2
*D27
 70
    0
280
    1
281
    0
  0
BLOCK_RECORD
  5
A7
330
1
100
AcDbSymbolTableRecord
100
AcDbBlockTableRecord
  2
*D30
 70
    0
280
    1
281
    0
  0
BLOCK_RECORD
  5
AA
330
1
100
AcDbSymbolTableRecord
100
AcDbBlockTableRecord
  2
*D32
 70
    0
280
    1
281
    0
  0
BLOCK_RECORD
  5
AD
330
1
100
AcDbSymbolTableRecord
100
AcDbBlockTableRecord
  2
*D35
 70
    0
280
    1
281
    0
  0
BLOCK_RECORD
  5
B0
330
1
100
AcDbSymbolTableRecord
100
AcDbBlockTableRecord
  2
*D7
 70
    0
280
    1
281
    0
  0
BLOCK_RECORD
  5
B3
330
1
100
AcDbSymbolTableRecord
100
AcDbBlockTableRecord
  2
*D25
 70
    0
280
    1
281
    0
  0
BLOCK_RECORD
  5
B6
330
1
100
AcDbSymbolTableRecord
100
AcDbBlockTableRecord
  2
*D19
 70
    0
280
    1
281
    0
  0
BLOCK_RECORD
  5
B9
330
1
100
AcDbSymbolTableRecord
100
AcDbBlockTableRecord
  2
*D10
 70
    0
280
    1
281
    0
  0
BLOCK_RECORD
  5
BC
330
1
100
AcDbSymbolTableRecord
100
AcDbBlockTableRecord
  2
*D12
 70
    0
280
    1
281
    0
  0
BLOCK_RECORD
  5
BF
330
1
100
AcDbSymbolTableRecord
100
AcDbBlockTableRecord
  2
*D34
 70
    0
280
    1
281
    0
  0
ENDTAB
  0
ENDSEC
  0
SECTION
  2
BLOCKS
  0
BLOCK
  5
20
330
1F
100
AcDbEntity
  8
0
100
AcDbBlockBegin
  2
*Model_Space
 70
    0
 10
0
 20
0
 30
0
  3
*Model_Space
  1

  0
ENDBLK
  5
21
330
1F
100
AcDbEntity
  8
0
100
AcDbBlockEnd
  0
BLOCK
  5
1C
330
1B
100
AcDbEntity
  8
0
100
AcDbBlockBegin
  2
*Paper_Space
 70
    0
 10
0
 20
0
 30
0
  3
*Paper_Space
  1

  0
ENDBLK
  5
1D
330
1F
100
AcDbEntity
  8
0
100
AcDbBlockEnd
  0
BLOCK
  5
57
330
56
100
AcDbEntity
  8
0
100
AcDbBlockBegin
  2
*D18
 70
    1
 10
0
 20
0
  3
*D18
  1

  0
LINE
  5
C2
100
AcDbEntity
  8
dimensions
  6
CONTINUOUS
 62
    7
370
    0
100
AcDbLine
 10
44
 20
15
 11
47
 21
20
  0
LINE
  5
C3
100
AcDbEntity
  8
dimensions
  6
CONTINUOUS
 62
    7
370
    0
100
AcDbLine
 10
47
 20
20
 11
50
 21
20
  0
SOLID
  5
C4
100
AcDbEntity
  8
dimensions
  6
CONTINUOUS
 62
    7
370
    0
100
AcDbTrace
 10
44
 20
15
 30
0
 11
44.37171129577838
 21
15.94316360150203
 31
0
 12
44.65728021507667
 22
15.77182224992305
 32
0
 13
44.65728021507667
 23
15.77182224992305
 33
0
  0
ENDBLK
  5
58
330
56
100
AcDbEntity
  8
0
100
AcDbBlockEnd
  0
BLOCK
  5
5A
330
59
100
AcDbEntity
  8
0
100
AcDbBlockBegin
  2
*D6
 70
    1
 10
0
 20
0
  3
*D6
  1

  0
LINE
  5
C5
100
AcDbEntity
  8
dimensions
  6
CONTINUOUS
 62
    7
370
    0
100
AcDbLine
 10
21
 20
15
 11
18
 21
12
  0
LINE
  5
C6
100
AcDbEntity
  8
dimensions
  6
CONTINUOUS
 62
    7
370
    0
100
AcDbLine
 10
18
 20
12
 11
16
 21
12
  0
SOLID
  5
C7
100
AcDbEntity
  8
dimensions
  6
CONTINUOUS
 62
    7
370
    0
100
AcDbTrace
 10
21
 20
15
 30
0
 11
20.41063630057949
 21
14.17515013704741
 31
0
 12
20.17515013704741
 22
14.41063630057949
 32
0
 13
20.17515013704741
 23
14.41063630057949
 33
0
  0
ENDBLK
  5
5B
330
59
100
AcDbEntity
  8
0
100
AcDbBlockEnd
  0
BLOCK
  5
5D
330
5C
100
AcDbEntity
  8
0
100
AcDbBlockBegin
  2
*D36
 70
    1
 10
0
 20
0
  3
*D36
  1

  0
LINE
  5
C8
100
AcDbEntity
  8
dimensions
  6
ByBlock
 62
    0
370
   -2
100
AcDbLine
 10
27
 20
-7
 11
22.7
 21
-7
  0
SOLID
  5
C9
100
AcDbEntity
  8
dimensions
  6
ByBlock
 62
    0
370
   -2
100
AcDbTrace
 10
25
 20
-7
 30
0
 11
26
 21
-6.833486136890864
 31
0
 12
26
 22
-7.166513863109136
 32
0
 13
26
 23
-7.166513863109136
 33
0
  0
SOLID
  5
CA
100
AcDbEntity
  8
dimensions
  6
ByBlock
 62
    0
370
   -2
100
AcDbTrace
 10
24.7
 20
-7
 30
0
 11
23.7
 21
-7.166513863109136
 31
0
 12
23.7
 22
-6.833486136890864
 32
0
 13
23.7
 23
-6.833486136890864
 33
0
  0
MTEXT
  5
CB
100
AcDbEntity
  8
dimensions
  6
CONTINUOUS
 62
    0
370
   -2
100
AcDbMText
 10
25.72222222222225
 20
-6
 30
0
 40
1
 41
0.4444444444445064
 71
    5
 72
    1
  1
3
  7
standard
210
0
220
0
230
1
 50
360
 73
    2
 44
1
  0
LINE
  5
CC
100
AcDbEntity
  8
dimensions
  6
ByBlock
 62
    0
370
   -2
100
AcDbLine
 10
25
 20
-2.2
 11
25
 21
-8
  0
LINE
  5
CD
100
AcDbEntity
  8
dimensions
  6
ByBlock
 62
    0
370
   -2
100
AcDbLine
 10
24.7
 20
-5
 11
24.7
 21
-8
  0
ENDBLK
  5
5E
330
5C
100
AcDbEntity
  8
0
100
AcDbBlockEnd
  0
BLOCK
  5
60
330
5F
100
AcDbEntity
  8
0
100
AcDbBlockBegin
  2
*D4
 70
    1
 10
0
 20
0
  3
*D4
  1

  0
LINE
  5
CE
100
AcDbEntity
  8
dimensions
  6
CONTINUOUS
 62
    7
370
    0
100
AcDbLine
 10
1
 20
15
 11
-3
 21
19
  0
LINE
  5
CF
100
AcDbEntity
  8
dimensions
  6
CONTINUOUS
 62
    7
370
    0
100
AcDbLine
 10
-3
 20
19
 11
-5
 21
19
  0
SOLID
  5
D0
100
AcDbEntity
  8
dimensions
  6
CONTINUOUS
 62
    7
370
    0
100
AcDbTrace
 10
1
 20
15
 30
0
 11
0.175150137047414
 21
15.58936369942051
 31
0
 12
0.4106363005794914
 22
15.82484986295259
 32
0
 13
0.4106363005794914
 23
15.82484986295259
 33
0
  0
ENDBLK
  5
61
330
5F
100
AcDbEntity
  8
0
100
AcDbBlockEnd
  0
BLOCK
  5
63
330
62
100
AcDbEntity
  8
0
100
AcDbBlockBegin
  2
*D11
 70
    1
 10
0
 20
0
  3
*D11
  1

  0
LINE
  5
D1
100
AcDbEntity
  8
dimensions
  6
CONTINUOUS
 62
    7
370
    0
100
AcDbLine
 10
51
 20
0
 11
51
 21
-9
  0
SOLID
  5
D2
100
AcDbEntity
  8
dimensions
  6
CONTINUOUS
 62
    7
370
    0
100
AcDbTrace
 10
51
 20
0
 30
0
 11
51.16651386310914
 21
-1
 31
0
 12
50.83348613689086
 22
-1
 32
0
 13
50.83348613689086
 23
-1
 33
0
  0
ENDBLK
  5
64
330
62
100
AcDbEntity
  8
0
100
AcDbBlockEnd
  0
BLOCK
  5
66
330
65
100
AcDbEntity
  8
0
100
AcDbBlockBegin
  2
*D31
 70
    1
 10
0
 20
0
  3
*D31
  1

  0
LINE
  5
D3
100
AcDbEntity
  8
dimensions
  6
ByBlock
 62
    0
370
   -2
100
AcDbLine
 10
-0.6000000000000032
 20
-13
 11
8.600000000000003
 21
-13
  0
SOLID
  5
D4
100
AcDbEntity
  8
dimensions
  6
ByBlock
 62
    0
370
   -2
100
AcDbTrace
 10
-0.6000000000000032
 20
-13
 30
0
 11
0.3999999999999968
 21
-12.83348613689086
 31
0
 12
0.3999999999999968
 22
-13.16651386310914
 32
0
 13
0.3999999999999968
 23
-13.16651386310914
 33
0
  0
SOLID
  5
D5
100
AcDbEntity
  8
dimensions
  6
ByBlock
 62
    0
370
   -2
100
AcDbTrace
 10
8.600000000000003
 20
-13
 30
0
 11
7.600000000000003
 21
-13.16651386310914
 31
0
 12
7.600000000000003
 22
-12.83348613689086
 32
0
 13
7.600000000000003
 23
-12.83348613689086
 33
0
  0
MTEXT
  5
D6
100
AcDbEntity
  8
dimensions
  6
CONTINUOUS
 62
    0
370
   -2
100
AcDbMText
 10
4
 20
-12
 30
0
 40
1
 41
1.222222222222284
 71
    5
 72
    1
  1
92
  7
standard
210
0
220
0
230
1
 50
0
 73
    2
 44
1
  0
LINE
  5
D7
100
AcDbEntity
  8
dimensions
  6
ByBlock
 62
    0
370
   -2
100
AcDbLine
 10
-0.600000000000004
 20
-12
 11
-0.6000000000000034
 21
-14
  0
LINE
  5
D8
100
AcDbEntity
  8
dimensions
  6
ByBlock
 62
    0
370
   -2
100
AcDbLine
 10
8.600000000000003
 20
-12
 11
8.600000000000003
 21
-14
  0
ENDBLK
  5
67
330
65
100
AcDbEntity
  8
0
100
AcDbBlockEnd
  0
BLOCK
  5
69
330
68
100
AcDbEntity
  8
0
100
AcDbBlockBegin
  2
*D5
 70
    1
 10
0
 20
0
  3
*D5
  1

  0
LINE
  5
D9
100
AcDbEntity
  8
dimensions
  6
ByBlock
 62
    0
370
   -2
100
AcDbLine
 10
0
 20
22
 11
7.999999999999999
 21
22
  0
SOLID
  5
DA
100
AcDbEntity
  8
dimensions
  6
ByBlock
 62
    0
370
   -2
100
AcDbTrace
 10
0
 20
22
 30
0
 11
1
 21
22.16651386310913
 31
0
 12
1
 22
21.83348613689086
 32
0
 13
1
 23
21.83348613689086
 33
0
  0
SOLID
  5
DB
100
AcDbEntity
  8
dimensions
  6
ByBlock
 62
    0
370
   -2
100
AcDbTrace
 10
7.999999999999999
 20
22
 30
0
 11
6.999999999999999
 21
21.83348613689087
 31
0
 12
6.999999999999999
 22
22.16651386310913
 32
0
 13
6.999999999999999
 23
22.16651386310913
 33
0
  0
MTEXT
  5
DC
100
AcDbEntity
  8
dimensions
  6
CONTINUOUS
 62
    0
370
   -2
100
AcDbMText
 10
4
 20
23
 30
0
 40
1
 41
1.222222222222222
 71
    5
 72
    1
  1
80
  7
standard
210
0
220
0
230
1
 50
0
 73
    2
 44
1
  0
LINE
  5
DD
100
AcDbEntity
  8
dimensions
  6
ByBlock
 62
    0
370
   -2
100
AcDbLine
 10
6.123233995736766e-17
 20
13.66999999999999
 11
6.123233995736766e-17
 21
23
  0
LINE
  5
DE
100
AcDbEntity
  8
dimensions
  6
ByBlock
 62
    0
370
   -2
100
AcDbLine
 10
7.999999999999999
 20
13.77
 11
7.999999999999999
 21
23
  0
ENDBLK
  5
6A
330
68
100
AcDbEntity
  8
0
100
AcDbBlockEnd
  0
BLOCK
  5
6C
330
6B
100
AcDbEntity
  8
0
100
AcDbBlockBegin
  2
*D8
 70
    1
 10
0
 20
0
  3
*D8
  1

  0
LINE
  5
DF
100
AcDbEntity
  8
dimensions
  6
CONTINUOUS
 62
    7
370
    0
100
AcDbLine
 10
23.2
 20
14.5
 11
27
 21
24
  0
LINE
  5
E0
100
AcDbEntity
  8
dimensions
  6
CONTINUOUS
 62
    7
370
    0
100
AcDbLine
 10
27
 20
24
 11
51
 21
24
  0
SOLID
  5
E1
100
AcDbEntity
  8
dimensions
  6
CONTINUOUS
 62
    7
370
    0
100
AcDbTrace
 10
23.2
 20
14.5
 30
0
 11
23.41678643574801
 21
15.4903183871277
 31
0
 12
23.7259949169602
 22
15.36663499464282
 32
0
 13
23.7259949169602
 23
15.36663499464282
 33
0
  0
ENDBLK
  5
6D
330
6B
100
AcDbEntity
  8
0
100
AcDbBlockEnd
  0
BLOCK
  5
6F
330
6E
100
AcDbEntity
  8
0
100
AcDbBlockBegin
  2
*D3
 70
    1
 10
0
 20
0
  3
*D3
  1

  0
LINE
  5
E2
100
AcDbEntity
  8
dimensions
  6
CONTINUOUS
 62
    7
370
    0
100
AcDbLine
 10
4
 20
20.3
 11
2
 21
20.3
  0
SOLID
  5
E3
100
AcDbEntity
  8
dimensions
  6
CONTINUOUS
 62
    7
370
    0
100
AcDbTrace
 10
4
 20
20.3
 30
0
 11
3
 21
20.13348613689087
 31
0
 12
3
 22
20.46651386310914
 32
0
 13
3
 23
20.46651386310914
 33
0
  0
ENDBLK
  5
70
330
6E
100
AcDbEntity
  8
0
100
AcDbBlockEnd
  0
BLOCK
  5
72
330
71
100
AcDbEntity
  8
0
100
AcDbBlockBegin
  2
*D17
 70
    1
 10
0
 20
0
  3
*D17
  1

  0
LINE
  5
E4
100
AcDbEntity
  8
dimensions
  6
CONTINUOUS
 62
    7
370
    0
100
AcDbLine
 10
47.5
 20
15
 11
50
 21
20
  0
LINE
  5
E5
100
AcDbEntity
  8
dimensions
  6
CONTINUOUS
 62
    7
370
    0
100
AcDbLine
 10
50
 20
20
 11
57.4
 21
20
  0
SOLID
  5
E6
100
AcDbEntity
  8
dimensions
  6
CONTINUOUS
 62
    7
370
    0
100
AcDbTrace
 10
47.5
 20
15
 30
0
 11
47.79827906865671
 21
15.96889445442154
 31
0
 12
48.09614812234321
 22
15.81995992757829
 32
0
 13
48.09614812234321
 23
15.81995992757829
 33
0
  0
ENDBLK
  5
73
330
71
100
AcDbEntity
  8
0
100
AcDbBlockEnd
  0
BLOCK
  5
75
330
74
100
AcDbEntity
  8
0
100
AcDbBlockBegin
  2
*D20
 70
    1
 10
0
 20
0
  3
*D20
  1

  0
LINE
  5
E7
100
AcDbEntity
  8
dimensions
  6
ByBlock
 62
    0
370
   -2
100
AcDbLine
 10
41
 20
9
 11
46
 21
9
  0
SOLID
  5
E8
100
AcDbEntity
  8
dimensions
  6
ByBlock
 62
    0
370
   -2
100
AcDbTrace
 10
41
 20
9
 30
0
 11
42
 21
9.166513863109136
 31
0
 12
42
 22
8.833486136890864
 32
0
 13
42
 23
8.833486136890864
 33
0
  0
SOLID
  5
E9
100
AcDbEntity
  8
dimensions
  6
ByBlock
 62
    0
370
   -2
100
AcDbTrace
 10
46
 20
9
 30
0
 11
45
 21
8.833486136890864
 31
0
 12
45
 22
9.166513863109136
 32
0
 13
45
 23
9.166513863109136
 33
0
  0
MTEXT
  5
EA
100
AcDbEntity
  8
dimensions
  6
CONTINUOUS
 62
    0
370
   -2
100
AcDbMText
 10
43.5
 20
10
 30
0
 40
1
 41
2.188888888888951
 71
    5
 72
    1
  1
50*
  7
standard
210
0
220
0
230
1
 50
0
 73
    2
 44
1
  0
LINE
  5
EB
100
AcDbEntity
  8
dimensions
  6
ByBlock
 62
    0
370
   -2
100
AcDbLine
 10
41
 20
13
 11
41
 21
8
  0
LINE
  5
EC
100
AcDbEntity
  8
dimensions
  6
ByBlock
 62
    0
370
   -2
100
AcDbLine
 10
46
 20
13
 11
46
 21
8
  0
ENDBLK
  5
76
330
74
100
AcDbEntity
  8
0
100
AcDbBlockEnd
  0
BLOCK
  5
78
330
77
100
AcDbEntity
  8
0
100
AcDbBlockBegin
  2
*D23
 70
    1
 10
0
 20
0
  3
*D23
  1

  0
LINE
  5
ED
100
AcDbEntity
  8
dimensions
  6
ByBlock
 62
    0
370
   -2
100
AcDbLine
 10
-8
 20
0
 11
-8
 21
13.2
  0
SOLID
  5
EE
100
AcDbEntity
  8
dimensions
  6
ByBlock
 62
    0
370
   -2
100
AcDbTrace
 10
-8
 20
0
 30
0
 11
-8.166513863109136
 21
1
 31
0
 12
-7.833486136890864
 22
1
 32
0
 13
-7.833486136890864
 23
1
 33
0
  0
SOLID
  5
EF
100
AcDbEntity
  8
dimensions
  6
ByBlock
 62
    0
370
   -2
100
AcDbTrace
 10
-8
 20
13.2
 30
0
 11
-7.833486136890864
 21
12.2
 31
0
 12
-8.166513863109136
 22
12.2
 32
0
 13
-8.166513863109136
 23
12.2
 33
0
  0
MTEXT
  5
F0
100
AcDbEntity
  8
dimensions
  6
CONTINUOUS
 62
    0
370
   -2
100
AcDbMText
 10
-9
 20
6.6
 30
0
 40
1
 41
1.77777777777784
 71
    5
 72
    1
  1
132
  7
standard
210
0
220
0
230
1
 50
90
 73
    2
 44
1
  0
LINE
  5
F1
100
AcDbEntity
  8
dimensions
  6
ByBlock
 62
    0
370
   -2
100
AcDbLine
 10
-1
 20
1.224646799147353e-16
 11
-9
 21
1.224646799147353e-16
  0
LINE
  5
F2
100
AcDbEntity
  8
dimensions
  6
ByBlock
 62
    0
370
   -2
100
AcDbLine
 10
-1
 20
13.2
 11
-9
 21
13.2
  0
ENDBLK
  5
79
330
77
100
AcDbEntity
  8
0
100
AcDbBlockEnd
  0
BLOCK
  5
7B
330
7A
100
AcDbEntity
  8
0
100
AcDbBlockBegin
  2
*D16
 70
    1
 10
0
 20
0
  3
*D16
  1

  0
LINE
  5
F3
100
AcDbEntity
  8
dimensions
  6
ByBlock
 62
    0
370
   -2
100
AcDbLine
 10
45.2
 20
12
 11
51.2
 21
12
  0
SOLID
  5
F4
100
AcDbEntity
  8
dimensions
  6
ByBlock
 62
    0
370
   -2
100
AcDbTrace
 10
47.2
 20
12
 30
0
 11
46.2
 21
11.83348613689086
 31
0
 12
46.2
 22
12.16651386310914
 32
0
 13
46.2
 23
12.16651386310914
 33
0
  0
SOLID
  5
F5
100
AcDbEntity
  8
dimensions
  6
ByBlock
 62
    0
370
   -2
100
AcDbTrace
 10
49.2
 20
12
 30
0
 11
50.2
 21
12.16651386310914
 31
0
 12
50.2
 22
11.83348613689086
 32
0
 13
50.2
 23
11.83348613689086
 33
0
  0
MTEXT
  5
F6
100
AcDbEntity
  8
dimensions
  6
CONTINUOUS
 62
    0
370
   -2
100
AcDbMText
 10
48.2
 20
13
 30
0
 40
1
 41
1.222222222222222
 71
    5
 72
    1
  1
20
  7
standard
210
0
220
0
230
1
 50
0
 73
    2
 44
1
  0
LINE
  5
F7
100
AcDbEntity
  8
dimensions
  6
ByBlock
 62
    0
370
   -2
100
AcDbLine
 10
47.2
 20
13
 11
47.2
 21
11
  0
LINE
  5
F8
100
AcDbEntity
  8
dimensions
  6
ByBlock
 62
    0
370
   -2
100
AcDbLine
 10
49.2
 20
13
 11
49.2
 21
11
  0
ENDBLK
  5
7C
330
7A
100
AcDbEntity
  8
0
100
AcDbBlockEnd
  0
BLOCK
  5
7E
330
7D
100
AcDbEntity
  8
0
100
AcDbBlockBegin
  2
*D24
 70
    1
 10
0
 20
0
  3
*D24
  1

  0
LINE
  5
F9
100
AcDbEntity
  8
dimensions
  6
ByBlock
 62
    0
370
   -2
100
AcDbLine
 10
-5
 20
15.7
 11
-5
 21
11.2
  0
SOLID
  5
FA
100
AcDbEntity
  8
dimensions
  6
ByBlock
 62
    0
370
   -2
100
AcDbTrace
 10
-5
 20
13.7
 30
0
 11
-5.166513863109136
 21
14.7
 31
0
 12
-4.833486136890864
 22
14.7
 32
0
 13
-4.833486136890864
 23
14.7
 33
0
  0
SOLID
  5
FB
100
AcDbEntity
  8
dimensions
  6
ByBlock
 62
    0
370
   -2
100
AcDbTrace
 10
-5
 20
13.2
 30
0
 11
-4.833486136890864
 21
12.2
 31
0
 12
-5.166513863109136
 22
12.2
 32
0
 13
-5.166513863109136
 23
12.2
 33
0
  0
MTEXT
  5
FC
100
AcDbEntity
  8
dimensions
  6
CONTINUOUS
 62
    0
370
   -2
100
AcDbMText
 10
-6
 20
13.45
 30
0
 40
1
 41
0.4444444444445064
 71
    5
 72
    1
  1
5
  7
standard
210
0
220
0
230
1
 50
90
 73
    2
 44
1
  0
LINE
  5
FD
100
AcDbEntity
  8
dimensions
  6
ByBlock
 62
    0
370
   -2
100
AcDbLine
 10
3
 20
13.7
 11
-6
 21
13.7
  0
LINE
  5
FE
100
AcDbEntity
  8
dimensions
  6
ByBlock
 62
    0
370
   -2
100
AcDbLine
 10
-1
 20
13.2
 11
-6
 21
13.2
  0
ENDBLK
  5
7F
330
7D
100
AcDbEntity
  8
0
100
AcDbBlockEnd
  0
BLOCK
  5
81
330
80
100
AcDbEntity
  8
0
100
AcDbBlockBegin
  2
*D14
 70
    1
 10
0
 20
0
  3
*D14
  1

  0
LINE
  5
FF
100
AcDbEntity
  8
dimensions
  6
ByBlock
 62
    0
370
   -2
100
AcDbLine
 10
34.00000000000001
 20
12
 11
40
 21
12
  0
SOLID
  5
100
100
AcDbEntity
  8
dimensions
  6
ByBlock
 62
    0
370
   -2
100
AcDbTrace
 10
36.00000000000001
 20
12
 30
0
 11
35.00000000000001
 21
11.83348613689086
 31
0
 12
35.00000000000001
 22
12.16651386310914
 32
0
 13
35.00000000000001
 23
12.16651386310914
 33
0
  0
SOLID
  5
101
100
AcDbEntity
  8
dimensions
  6
ByBlock
 62
    0
370
   -2
100
AcDbTrace
 10
38
 20
12
 30
0
 11
39
 21
12.16651386310914
 31
0
 12
39
 22
11.83348613689086
 32
0
 13
39
 23
11.83348613689086
 33
0
  0
MTEXT
  5
102
100
AcDbEntity
  8
dimensions
  6
CONTINUOUS
 62
    0
370
   -2
100
AcDbMText
 10
37
 20
13
 30
0
 40
1
 41
1.222222222222222
 71
    5
 72
    1
  1
20
  7
standard
210
0
220
0
230
1
 50
0
 73
    2
 44
1
  0
LINE
  5
103
100
AcDbEntity
  8
dimensions
  6
ByBlock
 62
    0
370
   -2
100
AcDbLine
 10
36.00000000000001
 20
13
 11
36.00000000000001
 21
11
  0
LINE
  5
104
100
AcDbEntity
  8
dimensions
  6
ByBlock
 62
    0
370
   -2
100
AcDbLine
 10
38
 20
13
 11
38
 21
11
  0
ENDBLK
  5
82
330
80
100
AcDbEntity
  8
0
100
AcDbBlockEnd
  0
BLOCK
  5
84
330
83
100
AcDbEntity
  8
0
100
AcDbBlockBegin
  2
*D15
 70
    1
 10
0
 20
0
  3
*D15
  1

  0
LINE
  5
105
100
AcDbEntity
  8
dimensions
  6
ByBlock
 62
    0
370
   -2
100
AcDbLine
 10
36.00000000000001
 20
9
 11
41
 21
9
  0
SOLID
  5
106
100
AcDbEntity
  8
dimensions
  6
ByBlock
 62
    0
370
   -2
100
AcDbTrace
 10
36.00000000000001
 20
9
 30
0
 11
37.00000000000001
 21
9.166513863109136
 31
0
 12
37.00000000000001
 22
8.833486136890864
 32
0
 13
37.00000000000001
 23
8.833486136890864
 33
0
  0
SOLID
  5
107
100
AcDbEntity
  8
dimensions
  6
ByBlock
 62
    0
370
   -2
100
AcDbTrace
 10
41
 20
9
 30
0
 11
40
 21
8.833486136890864
 31
0
 12
40
 22
9.166513863109136
 32
0
 13
40
 23
9.166513863109136
 33
0
  0
MTEXT
  5
108
100
AcDbEntity
  8
dimensions
  6
CONTINUOUS
 62
    0
370
   -2
100
AcDbMText
 10
38.5
 20
10
 30
0
 40
1
 41
2.188888888888951
 71
    5
 72
    1
  1
50*
  7
standard
210
0
220
0
230
1
 50
0
 73
    2
 44
1
  0
LINE
  5
109
100
AcDbEntity
  8
dimensions
  6
ByBlock
 62
    0
370
   -2
100
AcDbLine
 10
36.00000000000001
 20
13
 11
36.00000000000001
 21
8
  0
LINE
  5
10A
100
AcDbEntity
  8
dimensions
  6
ByBlock
 62
    0
370
   -2
100
AcDbLine
 10
41
 20
13
 11
41
 21
8
  0
ENDBLK
  5
85
330
83
100
AcDbEntity
  8
0
100
AcDbBlockEnd
  0
BLOCK
  5
87
330
86
100
AcDbEntity
  8
0
100
AcDbBlockBegin
  2
*D22
 70
    1
 10
0
 20
0
  3
*D22
  1

  0
LINE
  5
10B
100
AcDbEntity
  8
dimensions
  6
ByBlock
 62
    0
370
   -2
100
AcDbLine
 10
-10
 20
0
 11
-10
 21
13.7
  0
SOLID
  5
10C
100
AcDbEntity
  8
dimensions
  6
ByBlock
 62
    0
370
   -2
100
AcDbTrace
 10
-10
 20
0
 30
0
 11
-10.16651386310914
 21
1
 31
0
 12
-9.833486136890864
 22
1
 32
0
 13
-9.833486136890864
 23
1
 33
0
  0
SOLID
  5
10D
100
AcDbEntity
  8
dimensions
  6
ByBlock
 62
    0
370
   -2
100
AcDbTrace
 10
-10
 20
13.7
 30
0
 11
-9.833486136890864
 21
12.7
 31
0
 12
-10.16651386310914
 22
12.7
 32
0
 13
-10.16651386310914
 23
12.7
 33
0
  0
MTEXT
  5
10E
100
AcDbEntity
  8
dimensions
  6
CONTINUOUS
 62
    0
370
   -2
100
AcDbMText
 10
-11
 20
6.85
 30
0
 40
1
 41
1.77777777777784
 71
    5
 72
    1
  1
137
  7
standard
210
0
220
0
230
1
 50
90
 73
    2
 44
1
  0
LINE
  5
10F
100
AcDbEntity
  8
dimensions
  6
ByBlock
 62
    0
370
   -2
100
AcDbLine
 10
-1
 20
1.224646799147353e-16
 11
-11
 21
1.224646799147353e-16
  0
LINE
  5
110
100
AcDbEntity
  8
dimensions
  6
ByBlock
 62
    0
370
   -2
100
AcDbLine
 10
3
 20
13.7
 11
-11
 21
13.7
  0
ENDBLK
  5
88
330
86
100
AcDbEntity
  8
0
100
AcDbBlockEnd
  0
BLOCK
  5
8A
330
89
100
AcDbEntity
  8
0
100
AcDbBlockBegin
  2
*D26
 70
    1
 10
0
 20
0
  3
*D26
  1

  0
LINE
  5
111
100
AcDbEntity
  8
dimensions
  6
ByBlock
 62
    0
370
   -2
100
AcDbLine
 10
27
 20
11.7
 11
27
 21
16
  0
SOLID
  5
112
100
AcDbEntity
  8
dimensions
  6
ByBlock
 62
    0
370
   -2
100
AcDbTrace
 10
27
 20
13.7
 30
0
 11
27.16651386310913
 21
12.7
 31
0
 12
26.83348613689087
 22
12.7
 32
0
 13
26.83348613689087
 23
12.7
 33
0
  0
SOLID
  5
113
100
AcDbEntity
  8
dimensions
  6
ByBlock
 62
    0
370
   -2
100
AcDbTrace
 10
27
 20
14
 30
0
 11
26.83348613689087
 21
15
 31
0
 12
27.16651386310914
 22
15
 32
0
 13
27.16651386310914
 23
15
 33
0
  0
MTEXT
  5
114
100
AcDbEntity
  8
dimensions
  6
CONTINUOUS
 62
    0
370
   -2
100
AcDbMText
 10
26
 20
14.72222222222225
 30
0
 40
1
 41
0.4444444444445064
 71
    5
 72
    1
  1
3
  7
standard
210
0
220
0
230
1
 50
90
 73
    2
 44
1
  0
LINE
  5
115
100
AcDbEntity
  8
dimensions
  6
ByBlock
 62
    0
370
   -2
100
AcDbLine
 10
24.45
 20
13.7
 11
28
 21
13.7
  0
LINE
  5
116
100
AcDbEntity
  8
dimensions
  6
ByBlock
 62
    0
370
   -2
100
AcDbLine
 10
24.45
 20
14
 11
28
 21
14
  0
ENDBLK
  5
8B
330
89
100
AcDbEntity
  8
0
100
AcDbBlockEnd
  0
BLOCK
  5
8D
330
8C
100
AcDbEntity
  8
0
100
AcDbBlockBegin
  2
*D1
 70
    1
 10
0
 20
0
  3
*D1
  1

  0
LINE
  5
117
100
AcDbEntity
  8
dimensions
  6
CONTINUOUS
 62
    7
370
    0
100
AcDbLine
 10
-5.3
 20
7.000000000000001
 11
-5.3
 21
9.000000000000002
  0
SOLID
  5
118
100
AcDbEntity
  8
dimensions
  6
CONTINUOUS
 62
    7
370
    0
100
AcDbTrace
 10
-5.3
 20
7.000000000000001
 30
0
 11
-5.466513863109136
 21
8
 31
0
 12
-5.133486136890864
 22
8
 32
0
 13
-5.133486136890864
 23
8
 33
0
  0
ENDBLK
  5
8E
330
8C
100
AcDbEntity
  8
0
100
AcDbBlockEnd
  0
BLOCK
  5
90
330
8F
100
AcDbEntity
  8
0
100
AcDbBlockBegin
  2
*D13
 70
    1
 10
0
 20
0
  3
*D13
  1

  0
LINE
  5
119
100
AcDbEntity
  8
dimensions
  6
ByBlock
 62
    0
370
   -2
100
AcDbLine
 10
33.6
 20
14
 11
33.6
 21
3.12638803734444e-16
  0
SOLID
  5
11A
100
AcDbEntity
  8
dimensions
  6
ByBlock
 62
    0
370
   -2
100
AcDbTrace
 10
33.6
 20
14
 30
0
 11
33.76651386310914
 21
13
 31
0
 12
33.43348613689086
 22
13
 32
0
 13
33.43348613689086
 23
13
 33
0
  0
SOLID
  5
11B
100
AcDbEntity
  8
dimensions
  6
ByBlock
 62
    0
370
   -2
100
AcDbTrace
 10
33.6
 20
3.12638803734444e-16
 30
0
 11
33.43348613689086
 21
1
 31
0
 12
33.76651386310914
 22
1
 32
0
 13
33.76651386310914
 23
1
 33
0
  0
MTEXT
  5
11C
100
AcDbEntity
  8
dimensions
  6
CONTINUOUS
 62
    0
370
   -2
100
AcDbMText
 10
32.6
 20
7
 30
0
 40
1
 41
4.388888888888951
 71
    5
 72
    1
  1
140+1,5
  7
standard
210
0
220
0
230
1
 50
90
 73
    2
 44
1
  0
LINE
  5
11D
100
AcDbEntity
  8
dimensions
  6
ByBlock
 62
    0
370
   -2
100
AcDbLine
 10
37
 20
14
 11
32.6
 21
14
  0
LINE
  5
11E
100
AcDbEntity
  8
dimensions
  6
ByBlock
 62
    0
370
   -2
100
AcDbLine
 10
37
 20
1.224646799147353e-16
 11
32.6
 21
4.351034836491793e-16
  0
ENDBLK
  5
91
330
8F
100
AcDbEntity
  8
0
100
AcDbBlockEnd
  0
BLOCK
  5
93
330
92
100
AcDbEntity
  8
0
100
AcDbBlockBegin
  2
*D2
 70
    1
 10
0
 20
0
  3
*D2
  1

  0
LINE
  5
11F
100
AcDbEntity
  8
dimensions
  6
CONTINUOUS
 62
    7
370
    0
100
AcDbLine
 10
13.3
 20
7.000000000000001
 11
13.3
 21
9.000000000000002
  0
SOLID
  5
120
100
AcDbEntity
  8
dimensions
  6
CONTINUOUS
 62
    7
370
    0
100
AcDbTrace
 10
13.3
 20
7.000000000000001
 30
0
 11
13.13348613689086
 21
8
 31
0
 12
13.46651386310914
 22
8
 32
0
 13
13.46651386310914
 23
8
 33
0
  0
ENDBLK
  5
94
330
92
100
AcDbEntity
  8
0
100
AcDbBlockEnd
  0
BLOCK
  5
96
330
95
100
AcDbEntity
  8
0
100
AcDbBlockBegin
  2
*D28
 70
    1
 10
0
 20
0
  3
*D28
  1

  0
LINE
  5
121
100
AcDbEntity
  8
dimensions
  6
CONTINUOUS
 62
    7
370
    0
100
AcDbLine
 10
4
 20
-6.300000000000001
 11
2
 21
-6.300000000000001
  0
SOLID
  5
122
100
AcDbEntity
  8
dimensions
  6
CONTINUOUS
 62
    7
370
    0
100
AcDbTrace
 10
4
 20
-6.300000000000001
 30
0
 11
3
 21
-6.466513863109137
 31
0
 12
3
 22
-6.133486136890864
 32
0
 13
3
 23
-6.133486136890864
 33
0
  0
ENDBLK
  5
97
330
95
100
AcDbEntity
  8
0
100
AcDbBlockEnd
  0
BLOCK
  5
99
330
98
100
AcDbEntity
  8
0
100
AcDbBlockBegin
  2
*D33
 70
    1
 10
0
 20
0
  3
*D33
  1

  0
LINE
  5
123
100
AcDbEntity
  8
dimensions
  6
ByBlock
 62
    0
370
   -2
100
AcDbLine
 10
1.999999999999996
 20
-18
 11
-2.600000000000001
 21
-18
  0
SOLID
  5
124
100
AcDbEntity
  8
dimensions
  6
ByBlock
 62
    0
370
   -2
100
AcDbTrace
 10
-4.440892098500626e-15
 20
-18
 30
0
 11
0.9999999999999956
 21
-17.83348613689087
 31
0
 12
0.9999999999999956
 22
-18.16651386310914
 32
0
 13
0.9999999999999956
 23
-18.16651386310914
 33
0
  0
SOLID
  5
125
100
AcDbEntity
  8
dimensions
  6
ByBlock
 62
    0
370
   -2
100
AcDbTrace
 10
-0.6000000000000003
 20
-18
 30
0
 11
-1.6
 21
-18.16651386310913
 31
0
 12
-1.6
 22
-17.83348613689087
 32
0
 13
-1.6
 23
-17.83348613689087
 33
0
  0
MTEXT
  5
126
100
AcDbEntity
  8
dimensions
  6
CONTINUOUS
 62
    0
370
   -2
100
AcDbMText
 10
-0.3000000000000024
 20
-17
 30
0
 40
1
 41
0.4444444444445064
 71
    5
 72
    1
  1
6
  7
standard
210
0
220
0
230
1
 50
360
 73
    2
 44
1
  0
LINE
  5
127
100
AcDbEntity
  8
dimensions
  6
ByBlock
 62
    0
370
   -2
100
AcDbLine
 10
-4.602414438335433e-15
 20
-15.45
 11
-4.624589118372729e-15
 21
-19
  0
LINE
  5
128
100
AcDbEntity
  8
dimensions
  6
ByBlock
 62
    0
370
   -2
100
AcDbLine
 10
-0.6000000000000005
 20
-15.45
 11
-0.6000000000000005
 21
-19
  0
ENDBLK
  5
9A
330
98
100
AcDbEntity
  8
0
100
AcDbBlockEnd
  0
BLOCK
  5
9C
330
9B
100
AcDbEntity
  8
0
100
AcDbBlockBegin
  2
*D29
 70
    1
 10
0
 20
0
  3
*D29
  1

  0
LINE
  5
129
100
AcDbEntity
  8
dimensions
  6
CONTINUOUS
 62
    7
370
    0
100
AcDbLine
 10
7.500000000000001
 20
-0.6000000000000001
 11
12
 21
-5
  0
LINE
  5
12A
100
AcDbEntity
  8
dimensions
  6
CONTINUOUS
 62
    7
370
    0
100
AcDbLine
 10
12
 20
-5
 11
14
 21
-5
  0
SOLID
  5
12B
100
AcDbEntity
  8
dimensions
  6
CONTINUOUS
 62
    7
370
    0
100
AcDbTrace
 10
7.500000000000001
 20
-0.6000000000000001
 30
0
 11
8.331419446672415
 21
-1.180059109317719
 31
0
 12
8.098593891353701
 22
-1.418176154530038
 32
0
 13
8.098593891353701
 23
-1.418176154530038
 33
0
  0
ENDBLK
  5
9D
330
9B
100
AcDbEntity
  8
0
100
AcDbBlockEnd
  0
BLOCK
  5
9F
330
9E
100
AcDbEntity
  8
0
100
AcDbBlockBegin
  2
*D9
 70
    1
 10
0
 20
0
  3
*D9
  1

  0
ENDBLK
  5
A0
330
9E
100
AcDbEntity
  8
0
100
AcDbBlockEnd
  0
BLOCK
  5
A2
330
A1
100
AcDbEntity
  8
0
100
AcDbBlockBegin
  2
*D21
 70
    1
 10
0
 20
0
  3
*D21
  1

  0
LINE
  5
12C
100
AcDbEntity
  8
dimensions
  6
ByBlock
 62
    0
370
   -2
100
AcDbLine
 10
46
 20
9
 11
49.2
 21
9
  0
SOLID
  5
12D
100
AcDbEntity
  8
dimensions
  6
ByBlock
 62
    0
370
   -2
100
AcDbTrace
 10
46
 20
9
 30
0
 11
47
 21
9.166513863109136
 31
0
 12
47
 22
8.833486136890864
 32
0
 13
47
 23
8.833486136890864
 33
0
  0
SOLID
  5
12E
100
AcDbEntity
  8
dimensions
  6
ByBlock
 62
    0
370
   -2
100
AcDbTrace
 10
49.2
 20
9
 30
0
 11
48.2
 21
8.833486136890864
 31
0
 12
48.2
 22
9.166513863109136
 32
0
 13
48.2
 23
9.166513863109136
 33
0
  0
MTEXT
  5
12F
100
AcDbEntity
  8
dimensions
  6
CONTINUOUS
 62
    0
370
   -2
100
AcDbMText
 10
47.6
 20
10
 30
0
 40
1
 41
1.222222222222284
 71
    5
 72
    1
  1
32
  7
standard
210
0
220
0
230
1
 50
0
 73
    2
 44
1
  0
LINE
  5
130
100
AcDbEntity
  8
dimensions
  6
ByBlock
 62
    0
370
   -2
100
AcDbLine
 10
46
 20
13
 11
46
 21
8
  0
LINE
  5
131
100
AcDbEntity
  8
dimensions
  6
ByBlock
 62
    0
370
   -2
100
AcDbLine
 10
49.2
 20
13
 11
49.2
 21
8
  0
ENDBLK
  5
A3
330
A1
100
AcDbEntity
  8
0
100
AcDbBlockEnd
  0
BLOCK
  5
A5
330
A4
100
AcDbEntity
  8
0
100
AcDbBlockBegin
  2
*D27
 70
    1
 10
0
 20
0
  3
*D27
  1

  0
LINE
  5
132
100
AcDbEntity
  8
dimensions
  6
ByBlock
 62
    0
370
   -2
100
AcDbLine
 10
27
 20
13.7
 11
27
 21
-1.634248292248231e-16
  0
SOLID
  5
133
100
AcDbEntity
  8
dimensions
  6
ByBlock
 62
    0
370
   -2
100
AcDbTrace
 10
27
 20
13.7
 30
0
 11
27.16651386310913
 21
12.7
 31
0
 12
26.83348613689087
 22
12.7
 32
0
 13
26.83348613689087
 23
12.7
 33
0
  0
SOLID
  5
134
100
AcDbEntity
  8
dimensions
  6
ByBlock
 62
    0
370
   -2
100
AcDbTrace
 10
27
 20
-1.634248292248231e-16
 30
0
 11
26.83348613689087
 21
0.9999999999999999
 31
0
 12
27.16651386310914
 22
0.9999999999999999
 32
0
 13
27.16651386310914
 23
0.9999999999999999
 33
0
  0
MTEXT
  5
135
100
AcDbEntity
  8
dimensions
  6
CONTINUOUS
 62
    0
370
   -2
100
AcDbMText
 10
26
 20
6.85
 30
0
 40
1
 41
1.77777777777784
 71
    5
 72
    1
  1
137
  7
standard
210
0
220
0
230
1
 50
90
 73
    2
 44
1
  0
LINE
  5
136
100
AcDbEntity
  8
dimensions
  6
ByBlock
 62
    0
370
   -2
100
AcDbLine
 10
25.7
 20
13.7
 11
28
 21
13.7
  0
LINE
  5
137
100
AcDbEntity
  8
dimensions
  6
ByBlock
 62
    0
370
   -2
100
AcDbLine
 10
25.7
 20
0
 11
28
 21
-1.634248292248231e-16
  0
ENDBLK
  5
A6
330
A4
100
AcDbEntity
  8
0
100
AcDbBlockEnd
  0
BLOCK
  5
A8
330
A7
100
AcDbEntity
  8
0
100
AcDbBlockBegin
  2
*D30
 70
    1
 10
0
 20
0
  3
*D30
  1

  0
SOLID
  5
138
100
AcDbEntity
  8
dimensions
  6
ByBlock
 62
    0
370
   -2
100
AcDbTrace
 10
0.9217159686886474
 20
13.40577222896384
 30
0
 11
1.274647741245299
 21
12.45542175123073
 31
0
 12
0.9476499230626235
 22
12.39233535543986
 32
0
 13
0.9476499230626235
 23
12.39233535543986
 33
0
  0
LINE
  5
139
100
AcDbEntity
  8
dimensions
  6
ByBlock
 62
    0
370
   -2
100
AcDbLine
 10
4.000000000000001
 20
-2.550000000000002
 11
0.9217159686886469
 21
13.40577222896384
  0
MTEXT
  5
13A
100
AcDbEntity
  8
dimensions
  6
CONTINUOUS
 62
    0
370
   -2
100
AcDbMText
 10
3.442751659972868
 20
5.617318977947233
 30
0
 40
1
 41
2.944444444444568
 71
    5
 72
    1
  1
162,5
  7
standard
210
0
220
0
230
1
 50
280.9196886172176
 73
    2
 44
1
  0
ENDBLK
  5
A9
330
A7
100
AcDbEntity
  8
0
100
AcDbBlockEnd
  0
BLOCK
  5
AB
330
AA
100
AcDbEntity
  8
0
100
AcDbBlockBegin
  2
*D32
 70
    1
 10
0
 20
0
  3
*D32
  1

  0
LINE
  5
13B
100
AcDbEntity
  8
dimensions
  6
ByBlock
 62
    0
370
   -2
100
AcDbLine
 10
0
 20
-18
 11
8.000000000000005
 21
-18
  0
SOLID
  5
13C
100
AcDbEntity
  8
dimensions
  6
ByBlock
 62
    0
370
   -2
100
AcDbTrace
 10
0
 20
-18
 30
0
 11
1
 21
-17.83348613689087
 31
0
 12
1
 22
-18.16651386310914
 32
0
 13
1
 23
-18.16651386310914
 33
0
  0
SOLID
  5
13D
100
AcDbEntity
  8
dimensions
  6
ByBlock
 62
    0
370
   -2
100
AcDbTrace
 10
8.000000000000005
 20
-18
 30
0
 11
7.000000000000005
 21
-18.16651386310913
 31
0
 12
7.000000000000005
 22
-17.83348613689087
 32
0
 13
7.000000000000005
 23
-17.83348613689087
 33
0
  0
MTEXT
  5
13E
100
AcDbEntity
  8
dimensions
  6
CONTINUOUS
 62
    0
370
   -2
100
AcDbMText
 10
4.000000000000003
 20
-17
 30
0
 40
1
 41
1.222222222222222
 71
    5
 72
    1
  1
80
  7
standard
210
0
220
0
230
1
 50
0
 73
    2
 44
1
  0
LINE
  5
13F
100
AcDbEntity
  8
dimensions
  6
ByBlock
 62
    0
370
   -2
100
AcDbLine
 10
-1.83697019872103e-16
 20
-16.7
 11
-1.83697019872103e-16
 21
-19
  0
LINE
  5
140
100
AcDbEntity
  8
dimensions
  6
ByBlock
 62
    0
370
   -2
100
AcDbLine
 10
8.000000000000005
 20
-16.7
 11
8.000000000000005
 21
-19
  0
ENDBLK
  5
AC
330
AA
100
AcDbEntity
  8
0
100
AcDbBlockEnd
  0
BLOCK
  5
AE
330
AD
100
AcDbEntity
  8
0
100
AcDbBlockBegin
  2
*D35
 70
    1
 10
0
 20
0
  3
*D35
  1

  0
LINE
  5
141
100
AcDbEntity
  8
dimensions
  6
ByBlock
 62
    0
370
   -2
100
AcDbLine
 10
38
 20
-7
 11
47.2
 21
-7
  0
SOLID
  5
142
100
AcDbEntity
  8
dimensions
  6
ByBlock
 62
    0
370
   -2
100
AcDbTrace
 10
38
 20
-7
 30
0
 11
39
 21
-6.833486136890864
 31
0
 12
39
 22
-7.166513863109136
 32
0
 13
39
 23
-7.166513863109136
 33
0
  0
SOLID
  5
143
100
AcDbEntity
  8
dimensions
  6
ByBlock
 62
    0
370
   -2
100
AcDbTrace
 10
47.2
 20
-7
 30
0
 11
46.2
 21
-7.166513863109136
 31
0
 12
46.2
 22
-6.833486136890864
 32
0
 13
46.2
 23
-6.833486136890864
 33
0
  0
MTEXT
  5
144
100
AcDbEntity
  8
dimensions
  6
CONTINUOUS
 62
    0
370
   -2
100
AcDbMText
 10
42.6
 20
-6
 30
0
 40
1
 41
1.222222222222284
 71
    5
 72
    1
  1
92
  7
standard
210
0
220
0
230
1
 50
0
 73
    2
 44
1
  0
LINE
  5
145
100
AcDbEntity
  8
dimensions
  6
ByBlock
 62
    0
370
   -2
100
AcDbLine
 10
38
 20
-1
 11
38
 21
-8
  0
LINE
  5
146
100
AcDbEntity
  8
dimensions
  6
ByBlock
 62
    0
370
   -2
100
AcDbLine
 10
47.2
 20
-1
 11
47.2
 21
-8
  0
ENDBLK
  5
AF
330
AD
100
AcDbEntity
  8
0
100
AcDbBlockEnd
  0
BLOCK
  5
B1
330
B0
100
AcDbEntity
  8
0
100
AcDbBlockBegin
  2
*D7
 70
    1
 10
0
 20
0
  3
*D7
  1

  0
LINE
  5
147
100
AcDbEntity
  8
dimensions
  6
CONTINUOUS
 62
    7
370
    0
100
AcDbLine
 10
8.9
 20
14.2
 11
13
 21
24
  0
LINE
  5
148
100
AcDbEntity
  8
dimensions
  6
CONTINUOUS
 62
    7
370
    0
100
AcDbLine
 10
13
 20
24
 11
27
 21
24
  0
SOLID
  5
149
100
AcDbEntity
  8
dimensions
  6
CONTINUOUS
 62
    7
370
    0
100
AcDbTrace
 10
8.9
 20
14.2
 30
0
 11
9.132339610368494
 21
15.18678527150609
 31
0
 12
9.439563997241768
 22
15.05825261985502
 32
0
 13
9.439563997241768
 23
15.05825261985502
 33
0
  0
ENDBLK
  5
B2
330
B0
100
AcDbEntity
  8
0
100
AcDbBlockEnd
  0
BLOCK
  5
B4
330
B3
100
AcDbEntity
  8
0
100
AcDbBlockBegin
  2
*D25
 70
    1
 10
0
 20
0
  3
*D25
  1

  0
LINE
  5
14A
100
AcDbEntity
  8
dimensions
  6
ByBlock
 62
    0
370
   -2
100
AcDbLine
 10
-12
 20
16.2
 11
-12
 21
-1.199999999999999
  0
SOLID
  5
14B
100
AcDbEntity
  8
dimensions
  6
ByBlock
 62
    0
370
   -2
100
AcDbTrace
 10
-12
 20
16.2
 30
0
 11
-11.83348613689086
 21
15.2
 31
0
 12
-12.16651386310913
 22
15.2
 32
0
 13
-12.16651386310913
 23
15.2
 33
0
  0
SOLID
  5
14C
100
AcDbEntity
  8
dimensions
  6
ByBlock
 62
    0
370
   -2
100
AcDbTrace
 10
-12
 20
-1.199999999999999
 30
0
 11
-12.16651386310914
 21
-0.1999999999999993
 31
0
 12
-11.83348613689086
 22
-0.1999999999999993
 32
0
 13
-11.83348613689086
 23
-0.1999999999999993
 33
0
  0
MTEXT
  5
14D
100
AcDbEntity
  8
dimensions
  6
CONTINUOUS
 62
    0
370
   -2
100
AcDbMText
 10
-13
 20
7.5
 30
0
 40
1
 41
1.888888888888889
 71
    5
 72
    1
  1
174
  7
standard
210
0
220
0
230
1
 50
90
 73
    2
 44
1
  0
LINE
  5
14E
100
AcDbEntity
  8
dimensions
  6
ByBlock
 62
    0
370
   -2
100
AcDbLine
 10
3.000000000000001
 20
16.2
 11
-13
 21
16.2
  0
LINE
  5
14F
100
AcDbEntity
  8
dimensions
  6
ByBlock
 62
    0
370
   -2
100
AcDbLine
 10
-1
 20
-1.2
 11
-13
 21
-1.199999999999999
  0
ENDBLK
  5
B5
330
B3
100
AcDbEntity
  8
0
100
AcDbBlockEnd
  0
BLOCK
  5
B7
330
B6
100
AcDbEntity
  8
0
100
AcDbBlockBegin
  2
*D19
 70
    1
 10
0
 20
0
  3
*D19
  1

  0
LINE
  5
150
100
AcDbEntity
  8
dimensions
  6
CONTINUOUS
 62
    7
370
    0
100
AcDbLine
 10
38
 20
15
 11
41
 21
20
  0
LINE
  5
151
100
AcDbEntity
  8
dimensions
  6
CONTINUOUS
 62
    7
370
    0
100
AcDbLine
 10
41
 20
20
 11
47
 21
20
  0
SOLID
  5
152
100
AcDbEntity
  8
dimensions
  6
CONTINUOUS
 62
    7
370
    0
100
AcDbTrace
 10
38
 20
15
 30
0
 11
38.37171129577838
 21
15.94316360150203
 31
0
 12
38.65728021507667
 22
15.77182224992305
 32
0
 13
38.65728021507667
 23
15.77182224992305
 33
0
  0
ENDBLK
  5
B8
330
B6
100
AcDbEntity
  8
0
100
AcDbBlockEnd
  0
BLOCK
  5
BA
330
B9
100
AcDbEntity
  8
0
100
AcDbBlockBegin
  2
*D10
 70
    1
 10
0
 20
0
  3
*D10
  1

  0
ENDBLK
  5
BB
330
B9
100
AcDbEntity
  8
0
100
AcDbBlockEnd
  0
BLOCK
  5
BD
330
BC
100
AcDbEntity
  8
0
100
AcDbBlockBegin
  2
*D12
 70
    1
 10
0
 20
0
  3
*D12
  1

  0
LINE
  5
153
100
AcDbEntity
  8
dimensions
  6
ByBlock
 62
    0
370
   -2
100
AcDbLine
 10
22
 20
0
 11
22
 21
14
  0
SOLID
  5
154
100
AcDbEntity
  8
dimensions
  6
ByBlock
 62
    0
370
   -2
100
AcDbTrace
 10
22
 20
0
 30
0
 11
21.83348613689087
 21
1
 31
0
 12
22.16651386310914
 22
1
 32
0
 13
22.16651386310914
 23
1
 33
0
  0
SOLID
  5
155
100
AcDbEntity
  8
dimensions
  6
ByBlock
 62
    0
370
   -2
100
AcDbTrace
 10
22
 20
14
 30
0
 11
22.16651386310913
 21
13
 31
0
 12
21.83348613689087
 22
13
 32
0
 13
21.83348613689087
 23
13
 33
0
  0
MTEXT
  5
156
100
AcDbEntity
  8
dimensions
  6
CONTINUOUS
 62
    0
370
   -2
100
AcDbMText
 10
21
 20
7
 30
0
 40
1
 41
4.388888888888951
 71
    5
 72
    1
  1
140+1,5
  7
standard
210
0
220
0
230
1
 50
90
 73
    2
 44
1
  0
LINE
  5
157
100
AcDbEntity
  8
dimensions
  6
ByBlock
 62
    0
370
   -2
100
AcDbLine
 10
22
 20
1.224646799147353e-16
 11
21
 21
1.224646799147353e-16
  0
LINE
  5
158
100
AcDbEntity
  8
dimensions
  6
ByBlock
 62
    0
370
   -2
100
AcDbLine
 10
22
 20
14
 11
21
 21
14
  0
ENDBLK
  5
BE
330
BC
100
AcDbEntity
  8
0
100
AcDbBlockEnd
  0
BLOCK
  5
C0
330
BF
100
AcDbEntity
  8
0
100
AcDbBlockBegin
  2
*D34
 70
    1
 10
0
 20
0
  3
*D34
  1

  0
LINE
  5
159
100
AcDbEntity
  8
dimensions
  6
ByBlock
 62
    0
370
   -2
100
AcDbLine
 10
6.000000000000005
 20
-18
 11
10.6
 21
-18
  0
SOLID
  5
15A
100
AcDbEntity
  8
dimensions
  6
ByBlock
 62
    0
370
   -2
100
AcDbTrace
 10
8.000000000000005
 20
-18
 30
0
 11
7.000000000000005
 21
-18.16651386310913
 31
0
 12
7.000000000000005
 22
-17.83348613689087
 32
0
 13
7.000000000000005
 23
-17.83348613689087
 33
0
  0
SOLID
  5
15B
100
AcDbEntity
  8
dimensions
  6
ByBlock
 62
    0
370
   -2
100
AcDbTrace
 10
8.6
 20
-18
 30
0
 11
9.6
 21
-17.83348613689087
 31
0
 12
9.6
 22
-18.16651386310914
 32
0
 13
9.6
 23
-18.16651386310914
 33
0
  0
MTEXT
  5
15C
100
AcDbEntity
  8
dimensions
  6
CONTINUOUS
 62
    0
370
   -2
100
AcDbMText
 10
8.300000000000002
 20
-17
 30
0
 40
1
 41
0.4444444444445064
 71
    5
 72
    1
  1
6
  7
standard
210
0
220
0
230
1
 50
0
 73
    2
 44
1
  0
LINE
  5
15D
100
AcDbEntity
  8
dimensions
  6
ByBlock
 62
    0
370
   -2
100
AcDbLine
 10
8.000000000000005
 20
-16.7
 11
8.000000000000005
 21
-19
  0
LINE
  5
15E
100
AcDbEntity
  8
dimensions
  6
ByBlock
 62
    0
370
   -2
100
AcDbLine
 10
8.6
 20
-15.45
 11
8.6
 21
-19
  0
ENDBLK
  5
C1
330
BF
100
AcDbEntity
  8
0
100
AcDbBlockEnd
  0
ENDSEC
  0
SECTION
  2
ENTITIES
  0
HATCH
  5
15F
100
AcDbEntity
  8
u-block
  6
ByLayer
 62
  256
370
   -1
100
AcDbHatch
 10
0
 20
0
 30
0
210
0
220
0
230
1
  2
gost_ceramics
 70
    0
 71
    0
 91
    1
 92
    0
 93
    8
 72
    1
 10
22.2
 20
14.6
 11
20.59999999999999
 21
14.6
 72
    1
 10
20.59999999999999
 20
14.6
 11
20.5
 21
16
 72
    1
 10
20.5
 20
16
 11
20
 21
16
 72
    1
 10
20
 20
16
 11
20
 21
14
 72
    1
 10
20
 20
14
 11
23
 21
14
 72
    1
 10
23
 20
14
 11
23
 21
16
 72
    1
 10
23
 20
16
 11
22.3
 21
16
 72
    1
 10
22.3
 20
16
 11
22.2
 21
14.6
 97
    0
 75
    0
 76
    1
 52
0
 41
0.2
 77
    0
 78
    0
 98
    0
  0
HATCH
  5
160
100
AcDbEntity
  8
concrete
  6
ByLayer
 62
  256
370
   -1
100
AcDbHatch
 10
0
 20
0
 30
0
210
0
220
0
230
1
  2
gost_concrete
 70
    0
 71
    0
 91
    1
 92
    0
 93
    4
 72
    1
 10
20.5
 20
16
 11
22.3
 21
16
 72
    1
 10
22.3
 20
16
 11
22.2
 21
14.6
 72
    1
 10
22.2
 20
14.6
 11
20.59999999999999
 21
14.6
 72
    1
 10
20.59999999999999
 20
14.6
 11
20.5
 21
16
 97
    0
 75
    0
 76
    1
 52
1.570796326794897
 41
0.1
 77
    0
 78
    0
 98
    0
  0
HATCH
  5
161
100
AcDbEntity
  8
body
  6
ByLayer
 62
  256
370
   -1
100
AcDbHatch
 10
0
 20
0
 30
0
210
0
220
0
230
1
  2
gost_stone
 70
    0
 71
    0
 91
    1
 92
    0
 93
    8
 72
    1
 10
22.2
 20
-3.5
 11
21.6
 21
-4.5
 72
    1
 10
21.6
 20
-4.5
 11
21.3
 21
-4
 72
    1
 10
21.3
 20
-4
 11
20
 21
-4
 72
    1
 10
20
 20
-4
 11
20
 21
0
 72
    1
 10
20
 20
0
 11
23
 21
0
 72
    1
 10
23
 20
0
 11
23
 21
-4
 72
    1
 10
23
 20
-4
 11
22.5
 21
-4
 72
    1
 10
22.5
 20
-4
 11
22.2
 21
-3.5
 97
    0
 75
    0
 76
    1
 52
0
 41
0.1
 77
    0
 78
    0
 98
    0
  0
HATCH
  5
162
100
AcDbEntity
  8
face
  6
ByLayer
 62
  256
370
   -1
100
AcDbHatch
 10
0
 20
0
 30
0
210
0
220
0
230
1
  2
gost_stone
 70
    0
 71
    0
 91
    1
 92
    0
 93
    4
 72
    1
 10
23.45
 20
-1.2
 11
24.7
 21
-1.2
 72
    1
 10
24.7
 20
-1.2
 11
24.7
 21
-4
 72
    1
 10
24.7
 20
-4
 11
23.45
 21
-4
 72
    1
 10
23.45
 20
-4
 11
23.45
 21
-1.2
 97
    0
 75
    0
 76
    1
 52
1.570796326794897
 41
0.1
 77
    0
 78
    0
 98
    0
  0
HATCH
  5
163
100
AcDbEntity
  8
face
  6
ByLayer
 62
  256
370
   -1
100
AcDbHatch
 10
0
 20
0
 30
0
210
0
220
0
230
1
  2
gost_stone
 70
    0
 71
    0
 91
    1
 92
    0
 93
    4
 72
    1
 10
25
 20
-8.326672684688674e-17
 11
25
 21
-1.2
 72
    1
 10
25
 20
-1.2
 11
23
 21
-1.2
 72
    1
 10
23
 20
-1.2
 11
23
 21
0
 72
    1
 10
23
 20
0
 11
25
 21
-8.326672684688674e-17
 97
    0
 75
    0
 76
    1
 52
1.570796326794897
 41
0.1
 77
    0
 78
    0
 98
    0
  0
HATCH
  5
164
100
AcDbEntity
  8
body
  6
ByLayer
 62
  256
370
   -1
100
AcDbHatch
 10
0
 20
0
 30
0
210
0
220
0
230
1
  2
gost_stone
 70
    0
 71
    0
 91
    1
 92
    0
 93
    8
 72
    1
 10
-2.500000000000004
 20
-13.2
 11
-3.500000000000004
 21
-12.6
 72
    1
 10
-3.500000000000004
 20
-12.6
 11
-3.000000000000004
 21
-12.3
 72
    1
 10
-3.000000000000004
 20
-12.3
 11
-3.000000000000004
 21
-11
 72
    1
 10
-3.000000000000004
 20
-11
 11
-0.6000000000000038
 21
-11
 72
    1
 10
-0.6000000000000038
 20
-11
 11
-0.6000000000000043
 21
-14
 72
    1
 10
-0.6000000000000043
 20
-14
 11
-3.000000000000004
 21
-14
 72
    1
 10
-3.000000000000004
 20
-14
 11
-3.000000000000004
 21
-13.5
 72
    1
 10
-3.000000000000004
 20
-13.5
 11
-2.500000000000004
 21
-13.2
 97
    0
 75
    0
 76
    1
 52
4.71238898038469
 41
0.1
 77
    0
 78
    0
 98
    0
  0
HATCH
  5
165
100
AcDbEntity
  8
body
  6
ByLayer
 62
  256
370
   -1
100
AcDbHatch
 10
0
 20
0
 30
0
210
0
220
0
230
1
  2
gost_stone
 70
    0
 71
    0
 91
    1
 92
    0
 93
    8
 72
    1
 10
11
 20
-12.3
 11
11
 21
-11
 72
    1
 10
11
 20
-11
 11
8.600000000000003
 21
-11
 72
    1
 10
8.600000000000003
 20
-11
 11
8.600000000000005
 21
-14
 72
    1
 10
8.600000000000005
 20
-14
 11
11
 21
-14
 72
    1
 10
11
 20
-14
 11
11
 21
-13.5
 72
    1
 10
11
 20
-13.5
 11
10.5
 21
-13.2
 72
    1
 10
10.5
 20
-13.2
 11
11.5
 21
-12.6
 72
    1
 10
11.5
 20
-12.6
 11
11
 21
-12.3
 97
    0
 75
    0
 76
    1
 52
1.570796326794897
 41
0.1
 77
    0
 78
    0
 98
    0
  0
HATCH
  5
166
100
AcDbEntity
  8
face
  6
ByLayer
 62
  256
370
   -1
100
AcDbHatch
 10
0
 20
0
 30
0
210
0
220
0
230
1
  2
gost_stone
 70
    0
 71
    0
 91
    1
 92
    0
 93
    4
 72
    1
 10
8.000000000000004
 20
-14.45
 11
8.000000000000005
 21
-15.7
 72
    1
 10
8.000000000000005
 20
-15.7
 11
11.00000000000001
 21
-15.7
 72
    1
 10
11.00000000000001
 20
-15.7
 11
11
 21
-14.45
 72
    1
 10
11
 20
-14.45
 11
8.000000000000004
 21
-14.45
 97
    0
 75
    0
 76
    1
 52
4.71238898038469
 41
0.1
 77
    0
 78
    0
 98
    0
  0
HATCH
  5
167
100
AcDbEntity
  8
body
  6
ByLayer
 62
  256
370
   -1
100
AcDbHatch
 10
0
 20
0
 30
0
210
0
220
0
230
1
  2
gost_stone
 70
    0
 71
    0
 91
    1
 92
    0
 93
    4
 72
    1
 10
8.6
 20
-14
 11
8.6
 21
-14.45
 72
    1
 10
8.6
 20
-14.45
 11
9.1
 21
-14.45
 72
    1
 10
9.1
 20
-14.45
 11
9.1
 21
-14
 72
    1
 10
9.1
 20
-14
 11
8.6
 21
-14
 97
    0
 75
    0
 76
    1
 52
4.71238898038469
 41
0.1
 77
    0
 78
    0
 98
    0
  0
HATCH
  5
168
100
AcDbEntity
  8
body
  6
ByLayer
 62
  256
370
   -1
100
AcDbHatch
 10
0
 20
0
 30
0
210
0
220
0
230
1
  2
gost_stone
 70
    0
 71
    0
 91
    1
 92
    0
 93
    4
 72
    1
 10
-0.6000000000000003
 20
-14.45
 11
-1.1
 21
-14.45
 72
    1
 10
-1.1
 20
-14.45
 11
-1.1
 21
-14
 72
    1
 10
-1.1
 20
-14
 11
-0.6000000000000002
 21
-14
 72
    1
 10
-0.6000000000000002
 20
-14
 11
-0.6000000000000003
 21
-14.45
 97
    0
 75
    0
 76
    1
 52
1.570796326794897
 41
0.1
 77
    0
 78
    0
 98
    0
  0
HATCH
  5
169
100
AcDbEntity
  8
face
  6
ByLayer
 62
  256
370
   -1
100
AcDbHatch
 10
0
 20
0
 30
0
210
0
220
0
230
1
  2
gost_stone
 70
    0
 71
    0
 91
    1
 92
    0
 93
    4
 72
    1
 10
-4.814872146997232e-15
 20
-15.7
 11
-3.000000000000005
 21
-15.7
 72
    1
 10
-3.000000000000005
 20
-15.7
 11
-3.000000000000004
 21
-14.45
 72
    1
 10
-3.000000000000004
 20
-14.45
 11
-4.41871741846333e-15
 21
-14.45
 72
    1
 10
-4.41871741846333e-15
 20
-14.45
 11
-4.814872146997232e-15
 21
-15.7
 97
    0
 75
    0
 76
    1
 52
1.570796326794897
 41
0.1
 77
    0
 78
    0
 98
    0
  0
HATCH
  5
16A
100
AcDbEntity
  8
face
  6
ByLayer
 62
  256
370
   -1
100
AcDbHatch
 10
0
 20
0
 30
0
210
0
220
0
230
1
  2
gost_stone
 70
    0
 71
    0
 91
    1
 92
    0
 93
    4
 72
    1
 10
24.7
 20
18
 11
24.7
 21
13.7
 72
    1
 10
24.7
 20
13.7
 11
23.45
 21
13.7
 72
    1
 10
23.45
 20
13.7
 11
23.45
 21
18
 72
    1
 10
23.45
 20
18
 11
24.7
 21
18
 97
    0
 75
    0
 76
    1
 52
1.570796326794897
 41
0.1
 77
    0
 78
    0
 98
    0
  0
HATCH
  5
16B
100
AcDbEntity
  8
body
  6
ByLayer
 62
  256
370
   -1
100
AcDbHatch
 10
0
 20
0
 30
0
210
0
220
0
230
1
  2
gost_stone
 70
    0
 71
    0
 91
    1
 92
    0
 93
    4
 72
    1
 10
23
 20
15
 11
23.45
 21
15
 72
    1
 10
23.45
 20
15
 11
23.45
 21
14
 72
    1
 10
23.45
 20
14
 11
23
 21
14
 72
    1
 10
23
 20
14
 11
23
 21
15
 97
    0
 75
    0
 76
    1
 52
0
 41
0.1
 77
    0
 78
    0
 98
    0
  0
HATCH
  5
16C
100
AcDbEntity
  8
body
  6
ByLayer
 62
  256
370
   -1
100
AcDbHatch
 10
0
 20
0
 30
0
210
0
220
0
230
1
  2
gost_stone
 70
    0
 71
    0
 91
    1
 92
    0
 93
    8
 72
    1
 10
23
 20
16
 11
23
 21
18
 72
    1
 10
23
 20
18
 11
22.5
 21
18
 72
    1
 10
22.5
 20
18
 11
22.1
 21
18.6
 72
    1
 10
22.1
 20
18.6
 11
21.6
 21
17.5
 72
    1
 10
21.6
 20
17.5
 11
21.3
 21
18
 72
    1
 10
21.3
 20
18
 11
20
 21
18
 72
    1
 10
20
 20
18
 11
20
 21
16
 72
    1
 10
20
 20
16
 11
23
 21
16
 97
    0
 75
    0
 76
    1
 52
0
 41
0.1
 77
    0
 78
    0
 98
    0
  0
LINE
  5
16D
100
AcDbEntity
  8
dimensions
  6
ByLayer
 62
  256
370
   70
100
AcDbLine
 10
-5
 20
7
 11
-6
 21
7
  0
LEADER
  5
16E
100
AcDbEntity
  8
dimensions
  6
ByLayer
 62
  256
370
   -1
100
AcDbLeader
  3
Standard
 71
    1
 72
    0
 73
    3
 74
    0
 75
    0
 40
1
 41
10
 76
2
 76
2
 10
-5.3
 20
7.000000000000001
 30
0
 10
-5.3
 20
9.000000000000002
 30
0
  0
MTEXT
  5
16F
100
AcDbEntity
  8
dimensions
  6
ByLayer
 62
  256
370
   -1
100
AcDbMText
 10
-6
 20
8.5
 30
0
 40
1
 41
0.6666666666666666
 71
    5
 72
    1
  1
A
  7
unicode
210
0
220
0
230
1
 50
0
 73
    2
 44
1
  0
LINE
  5
170
100
AcDbEntity
  8
dimensions
  6
ByLayer
 62
  256
370
   70
100
AcDbLine
 10
13
 20
7
 11
14
 21
7
  0
LEADER
  5
171
100
AcDbEntity
  8
dimensions
  6
ByLayer
 62
  256
370
   -1
100
AcDbLeader
  3
Standard
 71
    1
 72
    0
 73
    3
 74
    0
 75
    0
 40
1
 41
10
 76
2
 76
2
 10
13.3
 20
7.000000000000001
 30
0
 10
13.3
 20
9.000000000000002
 30
0
  0
MTEXT
  5
172
100
AcDbEntity
  8
dimensions
  6
ByLayer
 62
  256
370
   -1
100
AcDbMText
 10
14
 20
8.5
 30
0
 40
1
 41
0.6666666666666666
 71
    5
 72
    1
  1
A
  7
unicode
210
0
220
0
230
1
 50
360
 73
    2
 44
1
  0
LINE
  5
173
100
AcDbEntity
  8
dimensions
  6
ByLayer
 62
  256
370
   70
100
AcDbLine
 10
4
 20
21
 11
4
 21
20
  0
LEADER
  5
174
100
AcDbEntity
  8
dimensions
  6
ByLayer
 62
  256
370
   -1
100
AcDbLeader
  3
Standard
 71
    1
 72
    0
 73
    3
 74
    0
 75
    0
 40
1
 41
10
 76
2
 76
2
 10
4
 20
20.3
 30
0
 10
2
 20
20.3
 30
0
  0
MTEXT
  5
175
100
AcDbEntity
  8
dimensions
  6
ByLayer
 62
  256
370
   -1
100
AcDbMText
 10
2.477777777777778
 20
21
 30
0
 40
1
 41
0.5555555555555556
 71
    5
 72
    1
  1
B
  7
unicode
210
0
220
0
230
1
 50
0
 73
    2
 44
1
  0
LINE
  5
176
100
AcDbEntity
  8
face
  6
ByLayer
 62
  256
370
   -1
100
AcDbLine
 10
23.45
 20
18
 11
23
 21
18
  0
LWPOLYLINE
  5
177
100
AcDbEntity
  8
body
  6
DASHED2
 62
  256
370
   -1
100
AcDbPolyline
 90
    4
 70
    1
 43
0
 10
-0.6000000000000002
 20
-1.665334536937735e-16
 10
8.600000000000001
 20
-1.665334536937735e-16
 10
8.600000000000001
 20
14
 10
-0.6000000000000002
 20
14
  0
LWPOLYLINE
  5
178
100
AcDbEntity
  8
body
  6
DASHED2
 62
  256
370
   -1
100
AcDbPolyline
 90
    8
 70
    0
 43
0
 10
8
 20
0
 10
8
 20
-0.4999999999999999
 10
9.100000000000001
 20
-0.4999999999999999
 10
9.100000000000001
 20
14.5
 10
-1.1
 20
14.5
 10
-1.1
 20
-0.5000000000000002
 10
-1.110223024625157e-16
 20
-0.5000000000000002
 10
-1.110223024625157e-16
 20
-1.942890293094024e-16
  0
LEADER
  5
179
100
AcDbEntity
  8
dimensions
  6
ByLayer
 62
  256
370
   -1
100
AcDbLeader
  3
Standard
 71
    1
 72
    0
 73
    3
 74
    0
 75
    0
 40
1
 41
10
 76
3
 76
3
 10
1
 20
15
 30
0
 10
-3
 20
19
 30
0
 10
-5
 20
19
 30
0
  0
MTEXT
  5
17A
100
AcDbEntity
  8
dimensions
  6
ByLayer
 62
  256
370
   -1
100
AcDbMText
 10
-4
 20
20
 30
0
 40
1
 41
0
 71
    5
 72
    1
  1
I
  7
unicode
210
0
220
0
230
1
 50
360
 73
    2
 44
1
  0
DIMENSION
  5
17B
100
AcDbEntity
  8
dimensions
  6
ByLayer
 62
  256
370
   -1
100
AcDbDimension
  2
*D5
 10
8
 20
22
 30
0
 11
4
 21
23
 31
0
 70
   32
 71
    5
 72
    0
  3
Standard
 53
0
210
0
220
0
230
1
100
AcDbAlignedDimension
 13
0
 23
12.66999999999999
 33
0
 14
7.999999999999999
 24
12.77
 34
0
100
AcDbRotatedDimension
  0
LEADER
  5
17C
100
AcDbEntity
  8
dimensions
  6
ByLayer
 62
  256
370
   -1
100
AcDbLeader
  3
Standard
 71
    1
 72
    0
 73
    3
 74
    0
 75
    0
 40
1
 41
10
 76
3
 76
3
 10
21
 20
15
 30
0
 10
18
 20
12
 30
0
 10
16
 20
12
 30
0
  0
MTEXT
  5
17D
100
AcDbEntity
  8
dimensions
  6
ByLayer
 62
  256
370
   -1
100
AcDbMText
 10
17
 20
13
 30
0
 40
1
 41
0.6666666666666666
 71
    5
 72
    1
  1
III
  7
unicode
210
0
220
0
230
1
 50
360
 73
    2
 44
1
  0
LEADER
  5
17E
100
AcDbEntity
  8
dimensions
  6
ByLayer
 62
  256
370
   -1
100
AcDbLeader
  3
Standard
 71
    1
 72
    0
 73
    3
 74
    0
 75
    0
 40
1
 41
10
 76
3
 76
3
 10
8.9
 20
14.2
 30
0
 10
13
 20
24
 30
0
 10
27
 20
24
 30
0
  0
LEADER
  5
17F
100
AcDbEntity
  8
dimensions
  6
ByLayer
 62
  256
370
   -1
100
AcDbLeader
  3
Standard
 71
    1
 72
    0
 73
    3
 74
    0
 75
    0
 40
1
 41
10
 76
3
 76
3
 10
23.2
 20
14.5
 30
0
 10
27
 20
24
 30
0
 10
51
 20
24
 30
0
  0
MTEXT
  5
180
100
AcDbEntity
  8
dimensions
  6
ByLayer
 62
  256
370
   -1
100
AcDbMText
 10
28.22222222222218
 20
27.5
 30
0
 40
1
 41
21.19444444444454
 71
    4
 72
    1
  1
   5  \P i i \P. i AEROC.
  7
cyrillic_ii
210
0
220
0
230
1
 50
0
 73
    2
 44
1
  0
LEADER
  5
181
100
AcDbEntity
  8
dimensions
  6
ByLayer
 62
  256
370
   -1
100
AcDbLeader
  3
Standard
 71
    1
 72
    0
 73
    3
 74
    0
 75
    0
 40
1
 41
10
 76
0
 76
0
  0
LEADER
  5
182
100
AcDbEntity
  8
dimensions
  6
ByLayer
 62
  256
370
   -1
100
AcDbLeader
  3
Standard
 71
    1
 72
    0
 73
    3
 74
    0
 75
    0
 40
1
 41
10
 76
0
 76
0
  0
LWPOLYLINE
  5
183
100
AcDbEntity
  8
body
  6
ByLayer
 62
  256
370
   -1
100
AcDbPolyline
 90
    5
 70
    1
 43
0
 10
38
 20
0
 10
47.2
 20
0
 10
47.2
 20
14
 10
38
 20
14
 10
38
 20
14
  0
LINE
  5
184
100
AcDbEntity
  8
body
  6
ByLayer
 62
  256
370
   -1
100
AcDbLine
 10
20
 20
16
 11
20
 21
0
  0
LINE
  5
185
100
AcDbEntity
  8
body
  6
ByLayer
 62
  256
370
   -1
100
AcDbLine
 10
23
 20
0
 11
23
 21
16
  0
LWPOLYLINE
  5
186
100
AcDbEntity
  8
body
  6
ByLayer
 62
  256
370
   -1
100
AcDbPolyline
 90
    9
 70
    0
 43
0
 10
20
 20
16
 10
23
 20
16
 10
23
 20
18
 10
22.5
 20
18
 10
22.1
 20
18.6
 10
21.6
 20
17.5
 10
21.3
 20
18
 10
20
 20
18
 10
20
 20
16
  0
LWPOLYLINE
  5
187
100
AcDbEntity
  8
body
  6
ByLayer
 62
  256
370
   -1
100
AcDbPolyline
 90
    4
 70
    1
 43
0
 10
23
 20
15
 10
23.45
 20
15
 10
23.45
 20
14
 10
23
 20
14
  0
LINE
  5
188
100
AcDbEntity
  8
dimensions
  6
ByLayer
 62
  256
370
   -1
100
AcDbLine
 10
47.2
 20
0
 11
52
 21
0
  0
LEADER
  5
189
100
AcDbEntity
  8
dimensions
  6
ByLayer
 62
  256
370
   -1
100
AcDbLeader
  3
Standard
 71
    1
 72
    0
 73
    3
 74
    0
 75
    0
 40
1
 41
10
 76
2
 76
2
 10
51
 20
0
 30
0
 10
51
 20
-9
 30
0
  0
MTEXT
  5
18A
100
AcDbEntity
  8
dimensions
  6
ByLayer
 62
  256
370
   -1
100
AcDbMText
 10
52
 20
-6.5
 30
0
 40
1
 41
8.166666666666666
 71
    4
 72
    1
  1
i \P\P80 
  7
unicode
210
0
220
0
230
1
 50
360
 73
    2
 44
1
  0
DIMENSION
  5
18B
100
AcDbEntity
  8
dimensions
  6
ByLayer
 62
  256
370
   -1
100
AcDbDimension
  2
*D12
 10
22
 20
14
 30
0
 11
21
 21
7
 31
0
 70
   32
  1
<>+1,5
 71
    5
 72
    0
  3
Standard
 53
0
210
0
220
0
230
1
100
AcDbAlignedDimension
 13
23
 23
0
 33
0
 14
23
 24
14
 34
0
 50
90
100
AcDbRotatedDimension
  0
DIMENSION
  5
18C
100
AcDbEntity
  8
dimensions
  6
ByLayer
 62
  256
370
   -1
100
AcDbDimension
  2
*D13
 10
33.6
 20
5.388445916248353e-16
 30
0
 11
32.6
 21
7
 31
0
 70
   32
  1
<>+1,5
 71
    5
 72
    0
  3
Standard
 53
0
210
0
220
0
230
1
100
AcDbAlignedDimension
 13
38
 23
14
 33
0
 14
38
 24
0
 34
0
 50
90
100
AcDbRotatedDimension
  0
LINE
  5
18D
100
AcDbEntity
  8
dimensions
  6
ByLayer
 62
  256
370
   70
100
AcDbLine
 10
21
 20
21
 11
24
 21
21
  0
MTEXT
  5
18E
100
AcDbEntity
  8
dimensions
  6
ByLayer
 62
  256
370
   -1
100
AcDbMText
 10
22.42222222222222
 20
21.7
 30
0
 40
1
 41
2.222222222222222
 71
    5
 72
    1
  1
B-B
  7
unicode
210
0
220
0
230
1
 50
360
 73
    2
 44
1
  0
MTEXT
  5
18F
100
AcDbEntity
  8
dimensions
  6
ByLayer
 62
  256
370
   -1
100
AcDbMText
 10
42.92166666666667
 20
21.8
 30
0
 40
1
 41
12.33222222222222
 71
    5
 72
    1
  1
 (. III)
  7
unicode
210
0
220
0
230
1
 50
360
 73
    2
 44
1
  0
LINE
  5
190
100
AcDbEntity
  8
dimensions
  6
ByLayer
 62
  256
370
   70
100
AcDbLine
 10
36.6
 20
21
 11
49.6
 21
21
  0
MTEXT
  5
191
100
AcDbEntity
  8
dimensions
  6
ByLayer
 62
  256
370
   -1
100
AcDbMText
 10
51.64444444444444
 20
20.4
 30
0
 40
1
 41
4.333333333333333
 71
    7
 72
    1
  1
u-
  7
unicode
210
0
220
0
230
1
 50
360
 73
    2
 44
1
  0
DIMENSION
  5
192
100
AcDbEntity
  8
dimensions
  6
ByLayer
 62
  256
370
   -1
100
AcDbDimension
  2
*D14
 10
39
 20
12
 30
0
 11
37
 21
13
 31
0
 70
   32
 71
    5
  3
Standard
 53
0
210
0
220
0
230
1
100
AcDbAlignedDimension
 13
36.00000000000001
 23
14
 33
0
 14
38
 24
14
 34
0
100
AcDbRotatedDimension
  0
DIMENSION
  5
193
100
AcDbEntity
  8
dimensions
  6
ByLayer
 62
  256
370
   -1
100
AcDbDimension
  2
*D15
 10
43
 20
9
 30
0
 11
38.5
 21
10
 31
0
 70
   32
  1
<>*
 71
    5
  3
Standard
 53
0
210
0
220
0
230
1
100
AcDbAlignedDimension
 13
36.00000000000001
 23
14
 33
0
 14
41
 24
14
 34
0
100
AcDbRotatedDimension
  0
DIMENSION
  5
194
100
AcDbEntity
  8
dimensions
  6
ByLayer
 62
  256
370
   -1
100
AcDbDimension
  2
*D16
 10
50.00000000000001
 20
12
 30
0
 11
48.2
 21
13
 31
0
 70
   32
 71
    5
  3
Standard
 53
0
210
0
220
0
230
1
100
AcDbAlignedDimension
 13
47.2
 23
14
 33
0
 14
49.2
 24
14
 34
0
100
AcDbRotatedDimension
  0
LWPOLYLINE
  5
195
100
AcDbEntity
  8
u-block
  6
ByLayer
 62
  256
370
   -1
100
AcDbPolyline
 90
    4
 70
    1
 43
0
 10
45.99999999999999
 20
16
 10
49.2
 20
16
 10
49.2
 20
14
 10
45.99999999999999
 20
14
  0
LWPOLYLINE
  5
196
100
AcDbEntity
  8
u-block
  6
ByLayer
 62
  256
370
   -1
100
AcDbPolyline
 90
    4
 70
    1
 43
0
 10
36
 20
16
 10
41
 20
16
 10
41
 20
14
 10
36
 20
14
  0
LWPOLYLINE
  5
197
100
AcDbEntity
  8
u-block
  6
ByLayer
 62
  256
370
   -1
100
AcDbPolyline
 90
    4
 70
    1
 43
0
 10
41
 20
16
 10
46
 20
16
 10
46
 20
14
 10
41
 20
14
  0
LEADER
  5
198
100
AcDbEntity
  8
dimensions
  6
ByLayer
 62
  256
370
   -1
100
AcDbLeader
  3
Standard
 71
    1
 72
    0
 73
    3
 74
    0
 75
    0
 40
1
 41
10
 76
3
 76
3
 10
47.5
 20
15
 30
0
 10
50
 20
20
 30
0
 10
57.4
 20
20
 30
0
  0
LEADER
  5
199
100
AcDbEntity
  8
dimensions
  6
ByLayer
 62
  256
370
   -1
100
AcDbLeader
  3
Standard
 71
    1
 72
    0
 73
    3
 74
    0
 75
    0
 40
1
 41
10
 76
3
 76
3
 10
44
 20
15
 30
0
 10
47
 20
20
 30
0
 10
50
 20
20
 30
0
  0
LEADER
  5
19A
100
AcDbEntity
  8
dimensions
  6
ByLayer
 62
  256
370
   -1
100
AcDbLeader
  3
Standard
 71
    1
 72
    0
 73
    3
 74
    0
 75
    0
 40
1
 41
10
 76
3
 76
3
 10
38
 20
15
 30
0
 10
41
 20
20
 30
0
 10
47
 20
20
 30
0
  0
DIMENSION
  5
19B
100
AcDbEntity
  8
dimensions
  6
ByLayer
 62
  256
370
   -1
100
AcDbDimension
  2
*D20
 10
45
 20
9
 30
0
 11
43.5
 21
10
 31
0
 70
   32
  1
<>*
 71
    5
  3
Standard
 53
0
210
0
220
0
230
1
100
AcDbAlignedDimension
 13
41
 23
14
 33
0
 14
46
 24
14
 34
0
100
AcDbRotatedDimension
  0
DIMENSION
  5
19C
100
AcDbEntity
  8
dimensions
  6
ByLayer
 62
  256
370
   -1
100
AcDbDimension
  2
*D21
 10
50
 20
9
 30
0
 11
47.6
 21
10
 31
0
 70
   32
 71
    5
  3
Standard
 53
0
210
0
220
0
230
1
100
AcDbAlignedDimension
 13
46
 23
14
 33
0
 14
49.2
 24
14
 34
0
100
AcDbRotatedDimension
  0
LINE
  5
19D
100
AcDbEntity
  8
dimensions
  6
ByLayer
 62
  256
370
   -1
100
AcDbLine
 10
11.2
 20
30.7
 11
27
 21
30.7
  0
MTEXT
  5
19E
100
AcDbEntity
  8
dimensions
  6
ByLayer
 62
  256
370
   -1
100
AcDbMText
 10
19.06250000000004
 20
31.75
 30
0
 40
1.5
 41
15.37500000000007
 71
    5
 72
    1
  1
 
  7
cyrillic_ii
210
0
220
0
230
1
 50
0
 73
    2
 44
1
  0
ARC
  5
19F
100
AcDbEntity
  8
face
  6
ByLayer
 62
  256
370
   -1
100
AcDbCircle
 10
4.000000000000001
 20
-2.550000000000002
 40
16.25
100
AcDbArc
 50
75.74996730219641
 51
104.2500326978036
  0
LWPOLYLINE
  5
1A0
100
AcDbEntity
  8
face
  6
ByLayer
 62
  256
370
   -1
100
AcDbPolyline
 90
    4
 70
    0
 43
0
 10
-2.775557561562891e-17
 20
13.2
 10
0
 20
0
 10
8
 20
0
 10
8.000000000000002
 20
13.2
  0
ARC
  5
1A1
100
AcDbEntity
  8
face
  6
ByLayer
 62
  256
370
   -1
100
AcDbCircle
 10
3.999999999999999
 20
-2.549999999999946
 40
18.74999999999995
100
AcDbArc
 50
75.74996730219635
 51
104.2500326978036
  0
LINE
  5
1A2
100
AcDbEntity
  8
face
  6
ByLayer
 62
  256
370
   -1
100
AcDbLine
 10
-0.6153846153846162
 20
15.62307692307692
 11
-0
 21
13.2
  0
LINE
  5
1A3
100
AcDbEntity
  8
face
  6
ByLayer
 62
  256
370
   -1
100
AcDbLine
 10
8.61538461538462
 20
15.62307692307692
 11
8.000000000000004
 21
13.2
  0
DIMENSION
  5
1A4
100
AcDbEntity
  8
dimensions
  6
ByLayer
 62
  256
370
   -1
100
AcDbDimension
  2
*D22
 10
-10
 20
14
 30
0
 11
-11
 21
6.85
 31
0
 70
   32
 71
    5
  3
Standard
 53
0
210
0
220
0
230
1
100
AcDbAlignedDimension
 13
0
 23
0
 33
0
 14
4
 24
13.7
 34
0
 50
90
100
AcDbRotatedDimension
  0
DIMENSION
  5
1A5
100
AcDbEntity
  8
dimensions
  6
ByLayer
 62
  256
370
   -1
100
AcDbDimension
  2
*D23
 10
-8
 20
13
 30
0
 11
-9
 21
6.6
 31
0
 70
   32
 71
    5
  3
Standard
 53
0
210
0
220
0
230
1
100
AcDbAlignedDimension
 13
0
 23
0
 33
0
 14
-2.775557561562891e-17
 24
13.2
 34
0
 50
90
100
AcDbRotatedDimension
  0
DIMENSION
  5
1A6
100
AcDbEntity
  8
dimensions
  6
ByLayer
 62
  256
370
   -1
100
AcDbDimension
  2
*D24
 10
-5
 20
12.77
 30
0
 11
-6
 21
13.45
 31
0
 70
   32
 71
    5
 72
    0
  3
Standard
 53
0
210
0
220
0
230
1
100
AcDbAlignedDimension
 13
4
 23
13.7
 33
0
 14
2.775557561562891e-17
 24
13.2
 34
0
 50
90
100
AcDbRotatedDimension
  0
LWPOLYLINE
  5
1A7
100
AcDbEntity
  8
face
  6
ByLayer
 62
  256
370
   -1
100
AcDbPolyline
 90
    4
 70
    1
 43
0
 10
0
 20
0
 10
8
 20
0
 10
8
 20
-1.2
 10
-3.05311331771918e-16
 20
-1.2
  0
DIMENSION
  5
1A8
100
AcDbEntity
  8
dimensions
  6
ByLayer
 62
  256
370
   -1
100
AcDbDimension
  2
*D25
 10
-12
 20
-1.249999999999998
 30
0
 11
-13
 21
7.5
 31
0
 70
   32
 71
    5
  3
Standard
 53
0
210
0
220
0
230
1
100
AcDbAlignedDimension
 13
4.000000000000001
 23
16.2
 33
0
 14
-5.551115123125783e-17
 24
-1.2
 34
0
 50
90
100
AcDbRotatedDimension
  0
LINE
  5
1A9
100
AcDbEntity
  8
face
  6
ByLayer
 62
  256
370
   -1
100
AcDbLine
 10
23.45
 20
13
 11
24.7
 21
13
  0
DIMENSION
  5
1AA
100
AcDbEntity
  8
dimensions
  6
ByLayer
 62
  256
370
   -1
100
AcDbDimension
  2
*D26
 10
27
 20
14
 30
0
 11
26
 21
13.85
 31
0
 70
   32
 71
    5
 72
    0
  3
Standard
 53
0
210
0
220
0
230
1
100
AcDbAlignedDimension
 13
23.45
 23
13.7
 33
0
 14
23.45
 24
14
 34
0
 50
90
100
AcDbRotatedDimension
  0
LWPOLYLINE
  5
1AB
100
AcDbEntity
  8
face
  6
ByLayer
 62
  256
370
   -1
100
AcDbPolyline
 90
    4
 70
    1
 43
0
 10
23.45
 20
18
 10
24.7
 20
18
 10
24.7
 20
13.7
 10
23.45
 20
13.7
  0
LINE
  5
1AC
100
AcDbEntity
  8
face
  6
ByLayer
 62
  256
370
   -1
100
AcDbLine
 10
23.45
 20
13.7
 11
23.45
 21
0
  0
LINE
  5
1AD
100
AcDbEntity
  8
face
  6
ByLayer
 62
  256
370
   -1
100
AcDbLine
 10
24.7
 20
13.7
 11
24.7
 21
0
  0
DIMENSION
  5
1AE
100
AcDbEntity
  8
dimensions
  6
ByLayer
 62
  256
370
   -1
100
AcDbDimension
  2
*D27
 10
27
 20
-5.592245199601805e-16
 30
0
 11
26
 21
6.85
 31
0
 70
   32
 71
    5
 72
    0
  3
Standard
 53
0
210
0
220
0
230
1
100
AcDbAlignedDimension
 13
24.7
 23
13.7
 33
0
 14
24.7
 24
0
 34
0
 50
90
100
AcDbRotatedDimension
  0
LINE
  5
1AF
100
AcDbEntity
  8
dimensions
  6
ByLayer
 62
  256
370
   70
100
AcDbLine
 10
4
 20
-6
 11
4
 21
-7
  0
LEADER
  5
1B0
100
AcDbEntity
  8
dimensions
  6
ByLayer
 62
  256
370
   -1
100
AcDbLeader
  3
Standard
 71
    1
 72
    0
 73
    3
 74
    0
 75
    0
 40
1
 41
10
 76
2
 76
2
 10
4
 20
-6.300000000000001
 30
0
 10
2
 20
-6.300000000000001
 30
0
  0
MTEXT
  5
1B1
100
AcDbEntity
  8
dimensions
  6
ByLayer
 62
  256
370
   -1
100
AcDbMText
 10
2.477777777777778
 20
-7
 30
0
 40
1
 41
0.5555555555555556
 71
    5
 72
    1
  1
B
  7
unicode
210
0
220
0
230
1
 50
0
 73
    2
 44
1
  0
LWPOLYLINE
  5
1B2
100
AcDbEntity
  8
dimensions
  6
DASHDOT2
 62
  256
370
   -1
100
AcDbPolyline
 90
    2
 70
    0
 43
0
 10
4
 20
18
 10
4
 20
-3
  0
LWPOLYLINE
  5
1B3
100
AcDbEntity
  8
face
  6
CONTINUOUS
 62
    3
370
   13
100
AcDbPolyline
 90
   21
 70
    0
 43
0
 10
-3
 20
18
 10
3
 20
18
 10
3.5
 20
19
 10
4.5
 20
17
 10
5
 20
18
 10
11
 20
18
 10
11
 20
8
 10
10
 20
7.500000000000001
 10
12
 20
6.5
 10
11
 20
6
 10
11
 20
-4
 10
5
 20
-4
 10
4.5
 20
-3
 10
3.5
 20
-5
 10
3
 20
-4
 10
-3
 20
-4
 10
-3
 20
5
 10
-4
 20
5.5
 10
-2
 20
6.500000000000001
 10
-3
 20
7.000000000000001
 10
-3
 20
18
  0
LEADER
  5
1B4
100
AcDbEntity
  8
dimensions
  6
ByLayer
 62
  256
370
   -1
100
AcDbLeader
  3
Standard
 71
    1
 72
    0
 73
    3
 74
    0
 75
    0
 40
1
 41
10
 76
3
 76
3
 10
7.500000000000001
 20
-0.6000000000000001
 30
0
 10
12
 20
-5
 30
0
 10
14
 20
-5
 30
0
  0
MTEXT
  5
1B5
100
AcDbEntity
  8
dimensions
  6
ByLayer
 62
  256
370
   -1
100
AcDbMText
 10
13
 20
-4
 30
0
 40
1
 41
0.3333333333333333
 71
    5
 72
    1
  1
II
  7
unicode
210
0
220
0
230
1
 50
360
 73
    2
 44
1
  0
DIMENSION
  5
1B6
100
AcDbEntity
  8
dimensions
  6
ByLayer
 62
  256
370
   -1
100
AcDbDimension
  2
*D30
 10
4.000000000000001
 20
-2.550000000000002
 30
0
 11
3.442751659972868
 21
5.617318977947233
 31
0
 70
   36
 71
    5
  3
Standard
 53
0
210
0
220
0
230
1
100
AcDbRadialDimension
 15
0.9217159686886474
 25
13.40577222896384
 35
0
 40
0
  0
LINE
  5
1B7
100
AcDbEntity
  8
face
  6
ByLayer
 62
  256
370
   -1
100
AcDbLine
 10
-3.000000000000004
 20
-14.45
 11
-3.000000000000004
 21
-14
  0
LWPOLYLINE
  5
1B8
100
AcDbEntity
  8
face
  6
ByLayer
 62
  256
370
   -1
100
AcDbPolyline
 90
    4
 70
    1
 43
0
 10
-4.41871741846333e-15
 20
-14.45
 10
-4.814872146997232e-15
 20
-15.7
 10
-3.000000000000005
 20
-15.7
 10
-3.000000000000004
 20
-14.45
  0
LWPOLYLINE
  5
1B9
100
AcDbEntity
  8
body
  6
ByLayer
 62
  256
370
   -1
100
AcDbPolyline
 90
    9
 70
    0
 43
0
 10
-0.6000000000000038
 20
-11
 10
-0.6000000000000043
 20
-14
 10
-3.000000000000004
 20
-14
 10
-3.000000000000004
 20
-13.5
 10
-2.500000000000004
 20
-13.2
 10
-3.500000000000004
 20
-12.6
 10
-3.000000000000004
 20
-12.3
 10
-3.000000000000004
 20
-11
 10
-0.6000000000000038
 20
-11
  0
LINE
  5
1BA
100
AcDbEntity
  8
face
  6
ByLayer
 62
  256
370
   -1
100
AcDbLine
 10
11
 20
-14.45
 11
11
 21
-14
  0
LWPOLYLINE
  5
1BB
100
AcDbEntity
  8
face
  6
ByLayer
 62
  256
370
   -1
100
AcDbPolyline
 90
    4
 70
    1
 43
0
 10
8.000000000000004
 20
-14.45
 10
8.000000000000005
 20
-15.7
 10
11.00000000000001
 20
-15.7
 10
11
 20
-14.45
  0
LWPOLYLINE
  5
1BC
100
AcDbEntity
  8
body
  6
ByLayer
 62
  256
370
   -1
100
AcDbPolyline
 90
    9
 70
    0
 43
0
 10
8.600000000000003
 20
-11
 10
8.600000000000005
 20
-14
 10
11
 20
-14
 10
11
 20
-13.5
 10
10.5
 20
-13.2
 10
11.5
 20
-12.6
 10
11
 20
-12.3
 10
11
 20
-11
 10
8.600000000000003
 20
-11
  0
LINE
  5
1BD
100
AcDbEntity
  8
face
  6
ByLayer
 62
  256
370
   -1
100
AcDbLine
 10
-4.41871741846333e-15
 20
-14.45
 11
8.000000000000004
 21
-14.45
  0
LINE
  5
1BE
100
AcDbEntity
  8
face
  6
ByLayer
 62
  256
370
   -1
100
AcDbLine
 10
8.000000000000005
 20
-15.7
 11
-4.814872146997232e-15
 21
-15.7
  0
LINE
  5
1BF
100
AcDbEntity
  8
body
  6
ByLayer
 62
  256
370
   -1
100
AcDbLine
 10
8.600000000000005
 20
-14
 11
-0.6000000000000002
 21
-14
  0
LINE
  5
1C0
100
AcDbEntity
  8
body
  6
ByLayer
 62
  256
370
   -1
100
AcDbLine
 10
-0.6000000000000038
 20
-11
 11
8.600000000000001
 21
-11
  0
LINE
  5
1C1
100
AcDbEntity
  8
dimensions
  6
ByLayer
 62
  256
370
   70
100
AcDbLine
 10
2.5
 20
-10
 11
5.5
 21
-10
  0
MTEXT
  5
1C2
100
AcDbEntity
  8
dimensions
  6
ByLayer
 62
  256
370
   -1
100
AcDbMText
 10
3.922222222222224
 20
-9.300000000000001
 30
0
 40
1
 41
2.444444444444445
 71
    5
 72
    1
  1
A-A
  7
unicode
210
0
220
0
230
1
 50
360
 73
    2
 44
1
  0
DIMENSION
  5
1C3
100
AcDbEntity
  8
dimensions
  6
ByLayer
 62
  256
370
   -1
100
AcDbDimension
  2
*D31
 10
8.600000000000003
 20
-13
 30
0
 11
4
 21
-12
 31
0
 70
   32
 71
    5
 72
    0
  3
Standard
 53
0
210
0
220
0
230
1
100
AcDbAlignedDimension
 13
-0.6000000000000038
 23
-11
 33
0
 14
8.600000000000003
 24
-11
 34
0
100
AcDbRotatedDimension
  0
DIMENSION
  5
1C4
100
AcDbEntity
  8
dimensions
  6
ByLayer
 62
  256
370
   -1
100
AcDbDimension
  2
*D32
 10
8.000000000000005
 20
-18
 30
0
 11
4.000000000000003
 21
-17
 31
0
 70
   32
 71
    5
 72
    0
  3
Standard
 53
0
210
0
220
0
230
1
100
AcDbAlignedDimension
 13
0
 23
-15.7
 33
0
 14
8.000000000000005
 24
-15.7
 34
0
100
AcDbRotatedDimension
  0
DIMENSION
  5
1C5
100
AcDbEntity
  8
dimensions
  6
ByLayer
 62
  256
370
   -1
100
AcDbDimension
  2
*D33
 10
-0.6000000000000005
 20
-18
 30
0
 11
-0.3000000000000024
 21
-17
 31
0
 70
   32
 71
    5
 72
    0
  3
Standard
 53
0
210
0
220
0
230
1
100
AcDbAlignedDimension
 13
-4.41871741846333e-15
 23
-14.45
 33
0
 14
-0.6000000000000003
 24
-14.45
 34
0
100
AcDbRotatedDimension
  0
DIMENSION
  5
1C6
100
AcDbEntity
  8
dimensions
  6
ByLayer
 62
  256
370
   -1
100
AcDbDimension
  2
*D34
 10
8.6
 20
-18
 30
0
 11
8.300000000000002
 21
-17
 31
0
 70
   32
 71
    5
 72
    0
  3
Standard
 53
0
210
0
220
0
230
1
100
AcDbAlignedDimension
 13
8.000000000000005
 23
-15.7
 33
0
 14
8.6
 24
-14.45
 34
0
100
AcDbRotatedDimension
  0
LWPOLYLINE
  5
1C7
100
AcDbEntity
  8
body
  6
ByLayer
 62
  256
370
   -1
100
AcDbPolyline
 90
    4
 70
    1
 43
0
 10
8.6
 20
-14
 10
8.6
 20
-14.45
 10
9.1
 20
-14.45
 10
9.1
 20
-14
  0
LWPOLYLINE
  5
1C8
100
AcDbEntity
  8
body
  6
ByLayer
 62
  256
370
   -1
100
AcDbPolyline
 90
    4
 70
    1
 43
0
 10
-0.6000000000000002
 20
-14
 10
-0.6000000000000003
 20
-14.45
 10
-1.1
 20
-14.45
 10
-1.1
 20
-14
  0
LINE
  5
1C9
100
AcDbEntity
  8
dimensions
  6
DASHDOT2
 62
  256
370
   -1
100
AcDbLine
 10
3
 20
-2.549999999999998
 11
5
 21
-2.549999999999998
  0
LINE
  5
1CA
100
AcDbEntity
  8
face
  6
ByLayer
 62
  256
370
   -1
100
AcDbLine
 10
23.45
 20
-4
 11
23
 21
-4
  0
LWPOLYLINE
  5
1CB
100
AcDbEntity
  8
body
  6
ByLayer
 62
  256
370
   -1
100
AcDbPolyline
 90
    9
 70
    0
 43
0
 10
20
 20
0
 10
23
 20
0
 10
23
 20
-4
 10
22.5
 20
-4
 10
22.2
 20
-3.5
 10
21.6
 20
-4.5
 10
21.3
 20
-4
 10
20
 20
-4
 10
20
 20
0
  0
LWPOLYLINE
  5
1CC
100
AcDbEntity
  8
body
  6
CONTINUOUS
 62
  256
370
   13
100
AcDbPolyline
 90
   21
 70
    0
 43
0
 10
35.6
 20
18
 10
41.6
 20
18
 10
42.1
 20
19
 10
43.1
 20
17
 10
43.6
 20
18
 10
49.6
 20
18
 10
49.6
 20
8
 10
48.6
 20
7.5
 10
50.6
 20
6.5
 10
49.6
 20
6
 10
49.6
 20
-4
 10
43.6
 20
-4
 10
43.1
 20
-3
 10
42.1
 20
-5
 10
41.6
 20
-4
 10
35.6
 20
-4
 10
35.6
 20
5
 10
34.6
 20
5.5
 10
36.6
 20
6.5
 10
35.6
 20
7
 10
35.6
 20
18
  0
DIMENSION
  5
1CD
100
AcDbEntity
  8
dimensions
  6
ByLayer
 62
  256
370
   -1
100
AcDbDimension
  2
*D35
 10
47
 20
-7
 30
0
 11
42.6
 21
-6
 31
0
 70
   32
 71
    5
 72
    0
  3
Standard
 53
0
210
0
220
0
230
1
100
AcDbAlignedDimension
 13
38
 23
0
 33
0
 14
47.2
 24
0
 34
0
100
AcDbRotatedDimension
  0
LWPOLYLINE
  5
1CE
100
AcDbEntity
  8
face
  6
ByLayer
 62
  256
370
   -1
100
AcDbPolyline
 90
    4
 70
    1
 43
0
 10
23
 20
0
 10
25
 20
-8.326672684688674e-17
 10
25
 20
-1.2
 10
23
 20
-1.2
  0
LWPOLYLINE
  5
1CF
100
AcDbEntity
  8
face
  6
ByLayer
 62
  256
370
   -1
100
AcDbPolyline
 90
    4
 70
    1
 43
0
 10
23.45
 20
-1.2
 10
24.7
 20
-1.2
 10
24.7
 20
-4
 10
23.45
 20
-4
  0
DIMENSION
  5
1D0
100
AcDbEntity
  8
dimensions
  6
ByLayer
 62
  256
370
   -1
100
AcDbDimension
  2
*D36
 10
25
 20
-7
 30
0
 11
24.85
 21
-6
 31
0
 70
   32
 71
    5
 72
    0
  3
Standard
 53
0
210
0
220
0
230
1
100
AcDbAlignedDimension
 13
25
 23
-1.2
 33
0
 14
24.7
 24
-4
 34
0
100
AcDbRotatedDimension
  0
LWPOLYLINE
  5
1D1
100
AcDbEntity
  8
u-block
  6
CONTINUOUS
 62
    6
370
   50
100
AcDbPolyline
 90
    8
 70
    1
 43
0
 10
20
 20
14
 10
23
 20
14
 10
23
 20
16
 10
22.3
 20
16
 10
22.2
 20
14.6
 10
20.59999999999999
 20
14.6
 10
20.5
 20
16
 10
20
 20
16
  0
LWPOLYLINE
  5
1D2
100
AcDbEntity
  8
concrete
  6
ByLayer
 62
  256
370
   -1
100
AcDbPolyline
 90
    5
 70
    0
 43
0
 10
20.5
 20
16
 10
22.3
 20
16
 10
22.2
 20
14.6
 10
20.59999999999999
 20
14.6
 10
20.5
 20
16
  0
MTEXT
  5
1D3
100
AcDbEntity
  8
dimensions
  6
ByLayer
 62
  256
370
   -1
100
AcDbMText
 10
16
 20
-10
 30
0
 40
1
 41
29.96666666666677
 71
    1
 72
    1
  3
1.  I    ,\P    .\P2.  II    ,\P    .\P3. 
  3
 III ()  \P  u-i   i ii.\P4. i i i %%P1 .\P5. * - i   
  1
i
  7
cyrillic_ii
210
0
220
0
230
1
 50
0
 73
    2
 44
1
  0
MTEXT
  5
1D4
100
AcDbEntity
  8
dimensions
  6
ByLayer
 62
  256
370
   -1
100
AcDbMText
 10
52.25
 20
-23.33333333333333
 30
0
 40
1
 41
4.416666666666667
 71
    7
 72
    1
  1
. 11
  7
unicode
210
0
220
0
230
1
 50
360
 73
    2
 44
1
  0
ENDSEC
  0
SECTION
  2
OBJECTS
  0
DICTIONARY
  5
C
330
0
100
AcDbDictionary
281
    1
  3
ACAD_GROUP
350
D
  0
DICTIONARY
  5
D
330
C
100
AcDbDictionary
281
    1
  0
ENDSEC
  0
EOF
