999
dxfrw 0.6.3
  0
SECTION
  2
HEADER
  9
$ACADVER
  1
AC1021
  9
$DWGCODEPAGE
  3
ANSI_1252
  9
$INSBASE
 10
0
 20
0
 30
0
  9
$EXTMIN
 10
-9.500000000000004
 20
-22.33333333333333
 30
0
  9
$EXTMAX
 10
63
 20
38.70039601027074
 30
0
  9
$LIMMIN
 10
0
 20
0
  9
$LIMMAX
 10
420
 20
297
  9
$ORTHOMODE
 70
    0
  9
$REGENMODE
 70
    1
  9
$FILLMODE
 70
    1
  9
$QTEXTMODE
 70
    0
  9
$MIRRTEXT
 70
    0
  9
$LTSCALE
 40
1
  9
$ATTMODE
 70
    0
  9
$TEXTSIZE
 40
2.5
  9
$TRACEWID
 40
15.68
  9
$TEXTSTYLE
  7
STANDARD
  9
$CLAYER
  8
concrete
  9
$CELTYPE
  6
BYLAYER
  9
$CECOLOR
 62
  256
  9
$CELTSCALE
 40
1
  9
$DISPSILH
 70
    0
  9
$DIMSCALE
 40
1
  9
$DIMASZ
 40
1
  9
$DIMEXO
 40
1
  9
$DIMDLI
 40
3.75
  9
$DIMRND
 40
0
  9
$DIMDLE
 40
0
  9
$DIMEXE
 40
1
  9
$DIMTP
 40
0
  9
$DIMTM
 40
0
  9
$DIMTXT
 40
1
  9
$DIMCEN
 40
2.5
  9
$DIMTSZ
 40
0
  9
$DIMTOL
 70
    0
  9
$DIMLIM
 70
    0
  9
$DIMTIH
 70
    0
  9
$DIMTOH
 70
    0
  9
$DIMSE1
 70
    0
  9
$DIMSE2
 70
    0
  9
$DIMTAD
 70
    1
  9
$DIMZIN
 70
    8
  9
$DIMBLK
  1

  9
$DIMASO
 70
    1
  9
$DIMSHO
 70
    1
  9
$DIMPOST
  1

  9
$DIMAPOST
  1

  9
$DIMALT
 70
    0
  9
$DIMALTD
 70
    3
  9
$DIMALTF
 40
0.03937
  9
$DIMLFAC
 40
10
  9
$DIMTOFL
 70
    1
  9
$DIMTVP
 40
0
  9
$DIMTIX
 70
    0
  9
$DIMSOXD
 70
    0
  9
$DIMSAH
 70
    0
  9
$DIMBLK1
  1

  9
$DIMBLK2
  1

  9
$DIMSTYLE
  2
STANDARD
  9
$DIMCLRD
 70
    0
  9
$DIMCLRE
 70
    0
  9
$DIMCLRT
 70
    0
  9
$DIMTFAC
 40
1
  9
$DIMGAP
 40
0.5
  9
$DIMJUST
 70
    0
  9
$DIMSD1
 70
    0
  9
$DIMSD2
 70
    0
  9
$DIMTOLJ
 70
    0
  9
$DIMTZIN
 70
    8
  9
$DIMALTZ
 70
    0
  9
$DIMALTTZ
 70
    0
  9
$DIMUPT
 70
    0
  9
$DIMDEC
 70
    1
  9
$DIMTDEC
 70
    2
  9
$DIMALTU
 70
    2
  9
$DIMALTTD
 70
    3
  9
$DIMTXSTY
  7
standard
  9
$DIMAUNIT
 70
    0
  9
$DIMADEC
 70
    0
  9
$DIMALTRND
 40
0
  9
$DIMAZIN
 70
    0
  9
$DIMDSEP
 70
   44
  9
$DIMATFIT
 70
    3
  9
$DIMFRAC
 70
    0
  9
$DIMLDRBLK
  1
STANDARD
  9
$DIMLUNIT
 70
    2
  9
$DIMLWD
 70
   -2
  9
$DIMLWE
 70
   -2
  9
$DIMTMOVE
 70
    0
  9
$DIMFXL
 40
1
  9
$DIMFXLON
 70
    0
  9
$DIMJOGANG
 40
0.7854
  9
$DIMTFILL
 70
    0
  9
$DIMTFILLCLR
 70
    0
  9
$DIMARCSYM
 70
    0
  9
$DIMLTYPE
  6

  9
$DIMLTEX1
  6

  9
$DIMLTEX2
  6

  9
$LUNITS
 70
    2
  9
$LUPREC
 70
    2
  9
$SKETCHINC
 40
1
  9
$FILLETRAD
 40
0
  9
$AUNITS
 70
    0
  9
$AUPREC
 70
    2
  9
$MENU
  1
.
  9
$ELEVATION
 40
0
  9
$PELEVATION
 40
0
  9
$THICKNESS
 40
0
  9
$LIMCHECK
 70
    0
  9
$CHAMFERA
 40
0
  9
$CHAMFERB
 40
0
  9
$CHAMFERC
 40
0
  9
$CHAMFERD
 40
0
  9
$SKPOLY
 70
    0
  9
$USRTIMER
 70
    1
  9
$ANGBASE
 50
0
  9
$ANGDIR
 70
    0
  9
$PDMODE
 70
   34
  9
$PDSIZE
 40
0
  9
$PLINEWID
 40
0
  9
$SPLFRAME
 70
    0
  9
$SPLINETYPE
 70
    2
  9
$SPLINESEGS
 70
    8
  9
$HANDSEED
  5
20000
  9
$SURFTAB1
 70
    6
  9
$SURFTAB2
 70
    6
  9
$SURFTYPE
 70
    6
  9
$SURFU
 70
    6
  9
$SURFV
 70
    6
  9
$UCSBASE
  2

  9
$UCSNAME
  2

  9
$UCSORG
 10
0
 20
0
 30
0
  9
$UCSXDIR
 10
1
 20
0
 30
0
  9
$UCSYDIR
 10
0
 20
1
 30
0
  9
$UCSORTHOREF
  2

  9
$UCSORTHOVIEW
 70
    0
  9
$UCSORGTOP
 10
0
 20
0
 30
0
  9
$UCSORGBOTTOM
 10
0
 20
0
 30
0
  9
$UCSORGLEFT
 10
0
 20
0
 30
0
  9
$UCSORGRIGHT
 10
0
 20
0
 30
0
  9
$UCSORGFRONT
 10
0
 20
0
 30
0
  9
$UCSORGBACK
 10
0
 20
0
 30
0
  9
$PUCSBASE
  2

  9
$PUCSNAME
  2

  9
$PUCSORG
 10
0
 20
0
 30
0
  9
$PUCSXDIR
 10
1
 20
0
 30
0
  9
$PUCSYDIR
 10
0
 20
1
 30
0
  9
$PUCSORTHOREF
  2

  9
$PUCSORTHOVIEW
 70
    0
  9
$PUCSORGTOP
 10
0
 20
0
 30
0
  9
$PUCSORGBOTTOM
 10
0
 20
0
 30
0
  9
$PUCSORGLEFT
 10
0
 20
0
 30
0
  9
$PUCSORGRIGHT
 10
0
 20
0
 30
0
  9
$PUCSORGFRONT
 10
0
 20
0
 30
0
  9
$PUCSORGBACK
 10
0
 20
0
 30
0
  9
$USERI1
 70
    0
  9
$USERI2
 70
    0
  9
$USERI3
 70
    0
  9
$USERI4
 70
    0
  9
$USERI5
 70
    0
  9
$USERR1
 40
0
  9
$USERR2
 40
0
  9
$USERR3
 40
0
  9
$USERR4
 40
0
  9
$USERR5
 40
0
  9
$WORLDVIEW
 70
    1
  9
$SHADEDGE
 70
    3
  9
$SHADEDIF
 70
   70
  9
$TILEMODE
 70
    1
  9
$MAXACTVP
 70
   64
  9
$PINSBASE
 10
5.411935240963865
 20
12.25527108433734
 30
0
  9
$PLIMCHECK
 70
    0
  9
$PEXTMIN
 10
0
 20
0
 30
0
  9
$PEXTMAX
 10
0
 20
0
 30
0
  9
$GRIDMODE
 70
    1
  9
$SNAPSTYLE
 70
    0
  9
$GRIDUNIT
 10
0
 20
0
  9
$PLIMMIN
 10
0
 20
0
  9
$PLIMMAX
 10
29.7
 20
21
  9
$UNITMODE
 70
    0
  9
$VISRETAIN
 70
    1
  9
$PLINEGEN
 70
    0
  9
$PSLTSCALE
 70
    1
  9
$TREEDEPTH
 70
 3020
  9
$CMLSTYLE
  2
Standard
  9
$CMLJUST
 70
    0
  9
$CMLSCALE
 40
20
  9
$PROXYGRAPHICS
 70
    1
  9
$MEASUREMENT
 70
    1
  9
$CELWEIGHT
370
   -1
  9
$ENDCAPS
280
    0
  9
$JOINSTYLE
280
    0
  9
$LWDISPLAY
290
    0
  9
$INSUNITS
 70
    5
  9
$HYPERLINKBASE
  1

  9
$STYLESHEET
  1

  9
$XEDIT
290
    1
  9
$CEPSNTYPE
380
    0
  9
$PSTYLEMODE
290
    1
  9
$EXTNAMES
290
    1
  9
$PSVPSCALE
 40
0.1393071974456632
  9
$OLESTARTUP
290
    0
  9
$SORTENTS
280
  127
  9
$INDEXCTL
280
    0
  9
$HIDETEXT
280
    1
  9
$XCLIPFRAME
290
    0
  9
$HALOGAP
280
    0
  9
$OBSCOLOR
 70
  257
  9
$OBSLTYPE
280
    0
  9
$INTERSECTIONDISPLAY
280
    0
  9
$INTERSECTIONCOLOR
 70
  257
  9
$DIMASSOC
280
    1
  9
$PROJECTNAME
  1

  9
$CAMERADISPLAY
290
    0
  9
$LENSLENGTH
 40
50
  9
$CAMERAHEIGHT
 40
0
  9
$STEPSPERSEC
 40
2
  9
$STEPSIZE
 40
50
  9
$3DDWFPREC
 40
2
  9
$PSOLWIDTH
 40
5
  9
$PSOLHEIGHT
 40
80
  9
$LOFTANG1
 40
1.570796326794897
  9
$LOFTANG2
 40
1.570796326794897
  9
$LOFTMAG1
 40
0
  9
$LOFTMAG2
 40
0
  9
$LOFTPARAM
 70
    7
  9
$LOFTNORMALS
280
    1
  9
$LATITUDE
 40
1
  9
$LONGITUDE
 40
1
  9
$NORTHDIRECTION
 40
0
  9
$TIMEZONE
 70
-8000
  9
$LIGHTGLYPHDISPLAY
280
    1
  9
$TILEMODELIGHTSYNCH
280
    1
  9
$SOLIDHIST
280
    1
  9
$SHOWHIST
280
    1
  9
$DWFFRAME
280
    2
  9
$DGNFRAME
280
    0
  9
$REALWORLDSCALE
290
    1
  9
$INTERFERECOLOR
 62
    1
  9
$CSHADOW
280
    0
  9
$SHADOWPLANELOCATION
 40
0
  0
ENDSEC
  0
SECTION
  2
CLASSES
  0
ENDSEC
  0
SECTION
  2
TABLES
  0
TABLE
  2
VPORT
  5
8
330
0
100
AcDbSymbolTable
 70
    1
  0
VPORT
  5
31
330
2
100
AcDbSymbolTableRecord
100
AcDbViewportTableRecord
  2
*ACTIVE
 70
    0
 10
0
 20
0
 11
1
 21
1
 12
40.5728981731768
 22
19.93768491891066
 13
0
 23
0
 14
10
 24
10
 15
10
 25
10
 16
0
 26
0
 36
1
 17
0
 27
0
 37
0
 40
63.35882379478898
 41
1.715596330275229
 42
50
 43
0
 44
0
 50
0
 51
0
 71
    0
 72
  100
 73
    1
 74
    3
 75
    0
 76
    1
 77
    0
 78
    0
281
    0
 65
    1
110
0
120
0
130
0
111
1
121
0
131
0
112
0
122
1
132
0
 79
    0
146
0
348
10020
 60
    7
 61
    5
292
1
282
    1
141
0
142
0
 63
  250
421
3358443
  0
ENDTAB
  0
TABLE
  2
LTYPE
  5
5
330
0
100
AcDbSymbolTable
 70
    4
  0
LTYPE
  5
14
330
5
100
AcDbSymbolTableRecord
100
AcDbLinetypeTableRecord
  2
ByBlock
 70
    0
  3

 72
   65
 73
    0
 40
0
  0
LTYPE
  5
15
330
5
100
AcDbSymbolTableRecord
100
AcDbLinetypeTableRecord
  2
ByLayer
 70
    0
  3

 72
   65
 73
    0
 40
0
  0
LTYPE
  5
16
330
5
100
AcDbSymbolTableRecord
100
AcDbLinetypeTableRecord
  2
Continuous
 70
    0
  3
Solid line
 72
   65
 73
    0
 40
0
  0
LTYPE
  5
32
330
5
100
AcDbSymbolTableRecord
100
AcDbLinetypeTableRecord
  2
DOT
 70
    0
  3
Dot . . . . . . . . . . . . . . . . . . . . . .
 72
   65
 73
    2
 40
6.35
 49
0
 74
    0
 49
-6.35
 74
    0
  0
LTYPE
  5
33
330
5
100
AcDbSymbolTableRecord
100
AcDbLinetypeTableRecord
  2
DOTTINY
 70
    0
  3
Dot (.15x) .....................................
 72
   65
 73
    2
 40
0.9525
 49
0
 74
    0
 49
-0.9525
 74
    0
  0
LTYPE
  5
34
330
5
100
AcDbSymbolTableRecord
100
AcDbLinetypeTableRecord
  2
DOT2
 70
    0
  3
Dot (.5x) .....................................
 72
   65
 73
    2
 40
3.175
 49
0
 74
    0
 49
-3.175
 74
    0
  0
LTYPE
  5
35
330
5
100
AcDbSymbolTableRecord
100
AcDbLinetypeTableRecord
  2
DOTX2
 70
    0
  3
Dot (2x) .  .  .  .  .  .  .  .  .  .  .  .  .
 72
   65
 73
    2
 40
12.7
 49
0
 74
    0
 49
-12.7
 74
    0
  0
LTYPE
  5
36
330
5
100
AcDbSymbolTableRecord
100
AcDbLinetypeTableRecord
  2
DASHED
 70
    0
  3
Dashed _ _ _ _ _ _ _ _ _ _ _ _ _ _ _ _ _
 72
   65
 73
    2
 40
19.05
 49
12.7
 74
    0
 49
-6.35
 74
    0
  0
LTYPE
  5
37
330
5
100
AcDbSymbolTableRecord
100
AcDbLinetypeTableRecord
  2
DASHEDTINY
 70
    0
  3
Dashed (.15x) _ _ _ _ _ _ _ _ _ _ _ _ _ _ _ _ _
 72
   65
 73
    2
 40
2.8575
 49
1.905
 74
    0
 49
-0.9525
 74
    0
  0
LTYPE
  5
38
330
5
100
AcDbSymbolTableRecord
100
AcDbLinetypeTableRecord
  2
DASHED2
 70
    0
  3
Dashed (.5x) _ _ _ _ _ _ _ _ _ _ _ _ _ _ _ _ _
 72
   65
 73
    2
 40
9.524999999999999
 49
6.35
 74
    0
 49
-3.175
 74
    0
  0
LTYPE
  5
39
330
5
100
AcDbSymbolTableRecord
100
AcDbLinetypeTableRecord
  2
DASHEDX2
 70
    0
  3
Dashed (2x) ____  ____  ____  ____  ____  ___
 72
   65
 73
    2
 40
38.09999999999999
 49
25.4
 74
    0
 49
-12.7
 74
    0
  0
LTYPE
  5
3A
330
5
100
AcDbSymbolTableRecord
100
AcDbLinetypeTableRecord
  2
DASHDOT
 70
    0
  3
Dash dot __ . __ . __ . __ . __ . __ . __ . __
 72
   65
 73
    4
 40
25.4
 49
12.7
 74
    0
 49
-6.35
 74
    0
 49
0
 74
    0
 49
-6.35
 74
    0
  0
LTYPE
  5
3B
330
5
100
AcDbSymbolTableRecord
100
AcDbLinetypeTableRecord
  2
DASHDOTTINY
 70
    0
  3
Dash dot (.15x) _._._._._._._._._._._._._._._.
 72
   65
 73
    4
 40
3.81
 49
1.905
 74
    0
 49
-0.9525
 74
    0
 49
0
 74
    0
 49
-0.9525
 74
    0
  0
LTYPE
  5
3C
330
5
100
AcDbSymbolTableRecord
100
AcDbLinetypeTableRecord
  2
DASHDOT2
 70
    0
  3
Dash dot (.5x) _._._._._._._._._._._._._._._.
 72
   65
 73
    4
 40
12.7
 49
6.35
 74
    0
 49
-3.175
 74
    0
 49
0
 74
    0
 49
-3.175
 74
    0
  0
LTYPE
  5
3D
330
5
100
AcDbSymbolTableRecord
100
AcDbLinetypeTableRecord
  2
DASHDOTX2
 70
    0
  3
Dash dot (2x) ____  .  ____  .  ____  .  ___
 72
   65
 73
    4
 40
50.8
 49
25.4
 74
    0
 49
-12.7
 74
    0
 49
0
 74
    0
 49
-12.7
 74
    0
  0
LTYPE
  5
3E
330
5
100
AcDbSymbolTableRecord
100
AcDbLinetypeTableRecord
  2
DIVIDE
 70
    0
  3
Divide ____ . . ____ . . ____ . . ____ . . ____
 72
   65
 73
    6
 40
31.75
 49
12.7
 74
    0
 49
-6.35
 74
    0
 49
0
 74
    0
 49
-6.35
 74
    0
 49
0
 74
    0
 49
-6.35
 74
    0
  0
LTYPE
  5
3F
330
5
100
AcDbSymbolTableRecord
100
AcDbLinetypeTableRecord
  2
DIVIDETINY
 70
    0
  3
Divide (.15x) __..__..__..__..__..__..__..__.._
 72
   65
 73
    6
 40
4.7625
 49
1.905
 74
    0
 49
-0.9525
 74
    0
 49
0
 74
    0
 49
-0.9525
 74
    0
 49
0
 74
    0
 49
-0.9525
 74
    0
  0
LTYPE
  5
40
330
5
100
AcDbSymbolTableRecord
100
AcDbLinetypeTableRecord
  2
DIVIDE2
 70
    0
  3
Divide (.5x) __..__..__..__..__..__..__..__.._
 72
   65
 73
    6
 40
15.875
 49
6.35
 74
    0
 49
-3.175
 74
    0
 49
0
 74
    0
 49
-3.175
 74
    0
 49
0
 74
    0
 49
-3.175
 74
    0
  0
LTYPE
  5
41
330
5
100
AcDbSymbolTableRecord
100
AcDbLinetypeTableRecord
  2
DIVIDEX2
 70
    0
  3
Divide (2x) ________  .  .  ________  .  .  _
 72
   65
 73
    6
 40
63.5
 49
25.4
 74
    0
 49
-12.7
 74
    0
 49
0
 74
    0
 49
-12.7
 74
    0
 49
0
 74
    0
 49
-12.7
 74
    0
  0
LTYPE
  5
42
330
5
100
AcDbSymbolTableRecord
100
AcDbLinetypeTableRecord
  2
BORDER
 70
    0
  3
Border __ __ . __ __ . __ __ . __ __ . __ __ .
 72
   65
 73
    6
 40
44.45
 49
12.7
 74
    0
 49
-6.35
 74
    0
 49
12.7
 74
    0
 49
-6.35
 74
    0
 49
0
 74
    0
 49
-6.35
 74
    0
  0
LTYPE
  5
43
330
5
100
AcDbSymbolTableRecord
100
AcDbLinetypeTableRecord
  2
BORDERTINY
 70
    0
  3
Border (.15x) __.__.__.__.__.__.__.__.__.__.__.
 72
   65
 73
    6
 40
6.6675
 49
1.905
 74
    0
 49
-0.9525
 74
    0
 49
1.905
 74
    0
 49
-0.9525
 74
    0
 49
0
 74
    0
 49
-0.9525
 74
    0
  0
LTYPE
  5
44
330
5
100
AcDbSymbolTableRecord
100
AcDbLinetypeTableRecord
  2
BORDER2
 70
    0
  3
Border (.5x) __.__.__.__.__.__.__.__.__.__.__.
 72
   65
 73
    6
 40
22.225
 49
6.35
 74
    0
 49
-3.175
 74
    0
 49
6.35
 74
    0
 49
-3.175
 74
    0
 49
0
 74
    0
 49
-3.175
 74
    0
  0
LTYPE
  5
45
330
5
100
AcDbSymbolTableRecord
100
AcDbLinetypeTableRecord
  2
BORDERX2
 70
    0
  3
Border (2x) ____  ____  .  ____  ____  .  ___
 72
   65
 73
    6
 40
88.89999999999999
 49
25.4
 74
    0
 49
-12.7
 74
    0
 49
25.4
 74
    0
 49
-12.7
 74
    0
 49
0
 74
    0
 49
-12.7
 74
    0
  0
LTYPE
  5
46
330
5
100
AcDbSymbolTableRecord
100
AcDbLinetypeTableRecord
  2
CENTER
 70
    0
  3
Center ____ _ ____ _ ____ _ ____ _ ____ _ ____
 72
   65
 73
    4
 40
50.8
 49
31.75
 74
    0
 49
-6.35
 74
    0
 49
6.35
 74
    0
 49
-6.35
 74
    0
  0
LTYPE
  5
47
330
5
100
AcDbSymbolTableRecord
100
AcDbLinetypeTableRecord
  2
CENTERTINY
 70
    0
  3
Center (.15x) ___ _ ___ _ ___ _ ___ _ ___ _ ___
 72
   65
 73
    4
 40
7.619999999999999
 49
4.7625
 74
    0
 49
-0.9525
 74
    0
 49
0.9525
 74
    0
 49
-0.9525
 74
    0
  0
LTYPE
  5
48
330
5
100
AcDbSymbolTableRecord
100
AcDbLinetypeTableRecord
  2
CENTER2
 70
    0
  3
Center (.5x) ___ _ ___ _ ___ _ ___ _ ___ _ ___
 72
   65
 73
    4
 40
28.575
 49
19.05
 74
    0
 49
-3.175
 74
    0
 49
3.175
 74
    0
 49
-3.175
 74
    0
  0
LTYPE
  5
49
330
5
100
AcDbSymbolTableRecord
100
AcDbLinetypeTableRecord
  2
CENTERX2
 70
    0
  3
Center (2x) ________  __  ________  __  _____
 72
   65
 73
    4
 40
101.6
 49
63.5
 74
    0
 49
-12.7
 74
    0
 49
12.7
 74
    0
 49
-12.7
 74
    0
  0
ENDTAB
  0
TABLE
  2
LAYER
  5
2
330
0
100
AcDbSymbolTable
 70
    1
  0
LAYER
  5
10
330
2
100
AcDbSymbolTableRecord
100
AcDbLayerTableRecord
  2
0
 70
    0
 62
    7
  6
CONTINUOUS
370
   -3
390
F
1001
LibreCad
1070
    1
  0
LAYER
  5
4A
330
2
100
AcDbSymbolTableRecord
100
AcDbLayerTableRecord
  2
base
 70
    0
 62
    8
  6
CONTINUOUS
370
   50
390
F
  0
LAYER
  5
4B
330
2
100
AcDbSymbolTableRecord
100
AcDbLayerTableRecord
  2
body
 70
    0
 62
   56
420
8421376
  6
CONTINUOUS
370
   50
390
F
  0
LAYER
  5
4C
330
2
100
AcDbSymbolTableRecord
100
AcDbLayerTableRecord
  2
concrete
 70
    0
 62
  216
420
8388736
  6
CONTINUOUS
370
   50
390
F
  0
LAYER
  5
4D
330
2
100
AcDbSymbolTableRecord
100
AcDbLayerTableRecord
  2
dimensions
 70
    0
 62
    4
  6
CONTINUOUS
370
   13
390
F
  0
LAYER
  5
4E
330
2
100
AcDbSymbolTableRecord
100
AcDbLayerTableRecord
  2
face
 70
    0
 62
    3
  6
CONTINUOUS
370
   50
390
F
  0
LAYER
  5
4F
330
2
100
AcDbSymbolTableRecord
100
AcDbLayerTableRecord
  2
u-block
 70
    0
 62
    6
  6
CONTINUOUS
370
   50
390
F
  0
ENDTAB
  0
TABLE
  2
STYLE
  5
3
330
0
100
AcDbSymbolTable
 70
    3
  0
STYLE
  5
50
330
2
100
AcDbSymbolTableRecord
100
AcDbTextStyleTableRecord
  2
unicode
 70
    0
 40
0
 41
1
 50
0
 71
    0
 42
1
  3
unicode
  4

  0
STYLE
  5
51
330
2
100
AcDbSymbolTableRecord
100
AcDbTextStyleTableRecord
  2
cyrillic_ii
 70
    0
 40
0
 41
1
 50
0
 71
    0
 42
1
  3
cyrillic_ii
  4

  0
STYLE
  5
52
330
2
100
AcDbSymbolTableRecord
100
AcDbTextStyleTableRecord
  2
Standard
 70
    0
 40
0
 41
1
 50
0
 71
    0
 42
1
  3
txt
  4

  0
ENDTAB
  0
TABLE
  2
VIEW
  5
6
330
0
100
AcDbSymbolTable
 70
    0
  0
ENDTAB
  0
TABLE
  2
UCS
  5
7
330
0
100
AcDbSymbolTable
 70
    0
  0
ENDTAB
  0
TABLE
  2
APPID
  5
9
330
0
100
AcDbSymbolTable
 70
    1
  0
APPID
  5
12
330
9
100
AcDbSymbolTableRecord
100
AcDbRegAppTableRecord
  2
ACAD
 70
    0
  0
APPID
  5
53
330
9
100
AcDbSymbolTableRecord
100
AcDbRegAppTableRecord
  2
LibreCad
 70
    0
  0
ENDTAB
  0
TABLE
  2
DIMSTYLE
  5
A
330
0
100
AcDbSymbolTable
 70
    1
100
AcDbDimStyleTable
 71
    1
  0
DIMSTYLE
105
54
330
A
100
AcDbSymbolTableRecord
100
AcDbDimStyleTableRecord
  2
Standard
 70
    0
 40
1
 41
1
 42
1
 43
0.38
 44
1
 45
0
 46
0
 47
0
 48
0
 49
1
140
1
141
0.09
142
0
143
25.4
144
10
145
0
146
1
147
0.5
148
0
 71
    0
 72
    0
 73
    0
 74
    1
 75
    0
 76
    0
 77
    0
 78
    8
 79
    0
170
    0
171
    2
172
    0
173
    0
174
    0
175
    0
176
    0
177
    0
178
    0
179
    0
271
    1
272
    4
273
    2
274
    2
275
    0
276
    0
277
    2
278
   44
279
    0
280
    0
281
    0
282
    0
283
    1
284
    0
285
    0
286
    0
288
    0
289
    3
340
standard
341

371
   -2
372
   -2
  0
ENDTAB
  0
TABLE
  2
BLOCK_RECORD
  5
1
330
0
100
AcDbSymbolTable
 70
    2
  0
BLOCK_RECORD
  5
1F
330
1
100
AcDbSymbolTableRecord
100
AcDbBlockTableRecord
  2
*Model_Space
 70
    0
280
    1
281
    0
  0
BLOCK_RECORD
  5
1E
330
1
100
AcDbSymbolTableRecord
100
AcDbBlockTableRecord
  2
*Paper_Space
 70
    0
280
    1
281
    0
  0
BLOCK_RECORD
  5
55
330
1
100
AcDbSymbolTableRecord
100
AcDbBlockTableRecord
  2
*D15
 70
    0
280
    1
281
    0
  0
BLOCK_RECORD
  5
58
330
1
100
AcDbSymbolTableRecord
100
AcDbBlockTableRecord
  2
*D23
 70
    0
280
    1
281
    0
  0
BLOCK_RECORD
  5
5B
330
1
100
AcDbSymbolTableRecord
100
AcDbBlockTableRecord
  2
*D18
 70
    0
280
    1
281
    0
  0
BLOCK_RECORD
  5
5E
330
1
100
AcDbSymbolTableRecord
100
AcDbBlockTableRecord
  2
*D7
 70
    0
280
    1
281
    0
  0
BLOCK_RECORD
  5
61
330
1
100
AcDbSymbolTableRecord
100
AcDbBlockTableRecord
  2
*D2
 70
    0
280
    1
281
    0
  0
BLOCK_RECORD
  5
64
330
1
100
AcDbSymbolTableRecord
100
AcDbBlockTableRecord
  2
*D11
 70
    0
280
    1
281
    0
  0
BLOCK_RECORD
  5
67
330
1
100
AcDbSymbolTableRecord
100
AcDbBlockTableRecord
  2
*D10
 70
    0
280
    1
281
    0
  0
BLOCK_RECORD
  5
6A
330
1
100
AcDbSymbolTableRecord
100
AcDbBlockTableRecord
  2
*D17
 70
    0
280
    1
281
    0
  0
BLOCK_RECORD
  5
6D
330
1
100
AcDbSymbolTableRecord
100
AcDbBlockTableRecord
  2
*D20
 70
    0
280
    1
281
    0
  0
BLOCK_RECORD
  5
70
330
1
100
AcDbSymbolTableRecord
100
AcDbBlockTableRecord
  2
*D16
 70
    0
280
    1
281
    0
  0
BLOCK_RECORD
  5
73
330
1
100
AcDbSymbolTableRecord
100
AcDbBlockTableRecord
  2
*D8
 70
    0
280
    1
281
    0
  0
BLOCK_RECORD
  5
76
330
1
100
AcDbSymbolTableRecord
100
AcDbBlockTableRecord
  2
*D25
 70
    0
280
    1
281
    0
  0
BLOCK_RECORD
  5
79
330
1
100
AcDbSymbolTableRecord
100
AcDbBlockTableRecord
  2
*D12
 70
    0
280
    1
281
    0
  0
BLOCK_RECORD
  5
7C
330
1
100
AcDbSymbolTableRecord
100
AcDbBlockTableRecord
  2
*D26
 70
    0
280
    1
281
    0
  0
BLOCK_RECORD
  5
7F
330
1
100
AcDbSymbolTableRecord
100
AcDbBlockTableRecord
  2
*D27
 70
    0
280
    1
281
    0
  0
BLOCK_RECORD
  5
82
330
1
100
AcDbSymbolTableRecord
100
AcDbBlockTableRecord
  2
*D19
 70
    0
280
    1
281
    0
  0
BLOCK_RECORD
  5
85
330
1
100
AcDbSymbolTableRecord
100
AcDbBlockTableRecord
  2
*D24
 70
    0
280
    1
281
    0
  0
BLOCK_RECORD
  5
88
330
1
100
AcDbSymbolTableRecord
100
AcDbBlockTableRecord
  2
*D14
 70
    0
280
    1
281
    0
  0
BLOCK_RECORD
  5
8B
330
1
100
AcDbSymbolTableRecord
100
AcDbBlockTableRecord
  2
*D22
 70
    0
280
    1
281
    0
  0
BLOCK_RECORD
  5
8E
330
1
100
AcDbSymbolTableRecord
100
AcDbBlockTableRecord
  2
*D1
 70
    0
280
    1
281
    0
  0
BLOCK_RECORD
  5
91
330
1
100
AcDbSymbolTableRecord
100
AcDbBlockTableRecord
  2
*D13
 70
    0
280
    1
281
    0
  0
BLOCK_RECORD
  5
94
330
1
100
AcDbSymbolTableRecord
100
AcDbBlockTableRecord
  2
*D4
 70
    0
280
    1
281
    0
  0
BLOCK_RECORD
  5
97
330
1
100
AcDbSymbolTableRecord
100
AcDbBlockTableRecord
  2
*D5
 70
    0
280
    1
281
    0
  0
BLOCK_RECORD
  5
9A
330
1
100
AcDbSymbolTableRecord
100
AcDbBlockTableRecord
  2
*D3
 70
    0
280
    1
281
    0
  0
BLOCK_RECORD
  5
9D
330
1
100
AcDbSymbolTableRecord
100
AcDbBlockTableRecord
  2
*D9
 70
    0
280
    1
281
    0
  0
BLOCK_RECORD
  5
A0
330
1
100
AcDbSymbolTableRecord
100
AcDbBlockTableRecord
  2
*D21
 70
    0
280
    1
281
    0
  0
BLOCK_RECORD
  5
A3
330
1
100
AcDbSymbolTableRecord
100
AcDbBlockTableRecord
  2
*D6
 70
    0
280
    1
281
    0
  0
ENDTAB
  0
ENDSEC
  0
SECTION
  2
BLOCKS
  0
BLOCK
  5
20
330
1F
100
AcDbEntity
  8
0
100
AcDbBlockBegin
  2
*Model_Space
 70
    0
 10
0
 20
0
 30
0
  3
*Model_Space
  1

  0
ENDBLK
  5
21
330
1F
100
AcDbEntity
  8
0
100
AcDbBlockEnd
  0
BLOCK
  5
1C
330
1B
100
AcDbEntity
  8
0
100
AcDbBlockBegin
  2
*Paper_Space
 70
    0
 10
0
 20
0
 30
0
  3
*Paper_Space
  1

  0
ENDBLK
  5
1D
330
1F
100
AcDbEntity
  8
0
100
AcDbBlockEnd
  0
BLOCK
  5
56
330
55
100
AcDbEntity
  8
0
100
AcDbBlockBegin
  2
*D15
 70
    1
 10
0
 20
0
  3
*D15
  1

  0
LINE
  5
A6
100
AcDbEntity
  8
dimensions
  6
CONTINUOUS
 62
    7
370
    0
100
AcDbLine
 10
45
 20
21.6
 11
47
 21
26.6
  0
LINE
  5
A7
100
AcDbEntity
  8
dimensions
  6
CONTINUOUS
 62
    7
370
    0
100
AcDbLine
 10
47
 20
26.6
 11
52
 21
26.6
  0
SOLID
  5
A8
100
AcDbEntity
  8
dimensions
  6
CONTINUOUS
 62
    7
370
    0
100
AcDbTrace
 10
45
 20
21.6
 30
0
 11
45.21678643574801
 21
22.5903183871277
 31
0
 12
45.52599491696019
 22
22.46663499464282
 32
0
 13
45.52599491696019
 23
22.46663499464282
 33
0
  0
ENDBLK
  5
57
330
55
100
AcDbEntity
  8
0
100
AcDbBlockEnd
  0
BLOCK
  5
59
330
58
100
AcDbEntity
  8
0
100
AcDbBlockBegin
  2
*D23
 70
    1
 10
0
 20
0
  3
*D23
  1

  0
LINE
  5
A9
100
AcDbEntity
  8
dimensions
  6
ByBlock
 62
    0
370
   -2
100
AcDbLine
 10
24
 20
0
 11
24
 21
20.5
  0
SOLID
  5
AA
100
AcDbEntity
  8
dimensions
  6
ByBlock
 62
    0
370
   -2
100
AcDbTrace
 10
24
 20
0
 30
0
 11
23.83348613689087
 21
1
 31
0
 12
24.16651386310914
 22
1
 32
0
 13
24.16651386310914
 23
1
 33
0
  0
SOLID
  5
AB
100
AcDbEntity
  8
dimensions
  6
ByBlock
 62
    0
370
   -2
100
AcDbTrace
 10
24
 20
20.5
 30
0
 11
24.16651386310913
 21
19.5
 31
0
 12
23.83348613689087
 22
19.5
 32
0
 13
23.83348613689087
 23
19.5
 33
0
  0
MTEXT
  5
AC
100
AcDbEntity
  8
dimensions
  6
CONTINUOUS
 62
    0
370
   -2
100
AcDbMText
 10
23
 20
10.25
 30
0
 40
1
 41
2.000000000000062
 71
    5
 72
    1
  1
205
  7
standard
210
0
220
0
230
1
 50
90
 73
    2
 44
1
  0
LINE
  5
AD
100
AcDbEntity
  8
dimensions
  6
ByBlock
 62
    0
370
   -2
100
AcDbLine
 10
24.8
 20
1.224646799147353e-16
 11
23
 21
1.224646799147353e-16
  0
LINE
  5
AE
100
AcDbEntity
  8
dimensions
  6
ByBlock
 62
    0
370
   -2
100
AcDbLine
 10
24.8
 20
20.5
 11
23
 21
20.5
  0
ENDBLK
  5
5A
330
58
100
AcDbEntity
  8
0
100
AcDbBlockEnd
  0
BLOCK
  5
5C
330
5B
100
AcDbEntity
  8
0
100
AcDbBlockBegin
  2
*D18
 70
    1
 10
0
 20
0
  3
*D18
  1

  0
LINE
  5
AF
100
AcDbEntity
  8
dimensions
  6
ByBlock
 62
    0
370
   -2
100
AcDbLine
 10
34
 20
22.5
 11
34
 21
18.2
  0
SOLID
  5
B0
100
AcDbEntity
  8
dimensions
  6
ByBlock
 62
    0
370
   -2
100
AcDbTrace
 10
34
 20
20.5
 30
0
 11
33.83348613689086
 21
21.5
 31
0
 12
34.16651386310914
 22
21.5
 32
0
 13
34.16651386310914
 23
21.5
 33
0
  0
SOLID
  5
B1
100
AcDbEntity
  8
dimensions
  6
ByBlock
 62
    0
370
   -2
100
AcDbTrace
 10
34
 20
20.2
 30
0
 11
34.16651386310914
 21
19.2
 31
0
 12
33.83348613689086
 22
19.2
 32
0
 13
33.83348613689086
 23
19.2
 33
0
  0
MTEXT
  5
B2
100
AcDbEntity
  8
dimensions
  6
CONTINUOUS
 62
    0
370
   -2
100
AcDbMText
 10
33
 20
22.5833333333334
 30
0
 40
1
 41
3.16666666666679
 71
    5
 72
    1
  1
3%%P0,5
  7
standard
210
0
220
0
230
1
 50
90
 73
    2
 44
1
  0
LINE
  5
B3
100
AcDbEntity
  8
dimensions
  6
ByBlock
 62
    0
370
   -2
100
AcDbLine
 10
30.25
 20
20.5
 11
35
 21
20.5
  0
LINE
  5
B4
100
AcDbEntity
  8
dimensions
  6
ByBlock
 62
    0
370
   -2
100
AcDbLine
 10
31.5
 20
20.2
 11
35
 21
20.2
  0
ENDBLK
  5
5D
330
5B
100
AcDbEntity
  8
0
100
AcDbBlockEnd
  0
BLOCK
  5
5F
330
5E
100
AcDbEntity
  8
0
100
AcDbBlockBegin
  2
*D7
 70
    1
 10
0
 20
0
  3
*D7
  1

  0
LINE
  5
B5
100
AcDbEntity
  8
dimensions
  6
CONTINUOUS
 62
    7
370
    0
100
AcDbLine
 10
5
 20
-5.200000000000001
 11
3
 21
-5.200000000000001
  0
SOLID
  5
B6
100
AcDbEntity
  8
dimensions
  6
CONTINUOUS
 62
    7
370
    0
100
AcDbTrace
 10
5
 20
-5.200000000000001
 30
0
 11
4
 21
-5.366513863109137
 31
0
 12
4
 22
-5.033486136890865
 32
0
 13
4
 23
-5.033486136890865
 33
0
  0
ENDBLK
  5
60
330
5E
100
AcDbEntity
  8
0
100
AcDbBlockEnd
  0
BLOCK
  5
62
330
61
100
AcDbEntity
  8
0
100
AcDbBlockBegin
  2
*D2
 70
    1
 10
0
 20
0
  3
*D2
  1

  0
LINE
  5
B7
100
AcDbEntity
  8
dimensions
  6
ByBlock
 62
    0
370
   -2
100
AcDbLine
 10
1.600000000000001
 20
-17
 11
-2.599999999999999
 21
-17
  0
SOLID
  5
B8
100
AcDbEntity
  8
dimensions
  6
ByBlock
 62
    0
370
   -2
100
AcDbTrace
 10
-0.3999999999999996
 20
-17
 30
0
 11
0.6000000000000004
 21
-16.83348613689087
 31
0
 12
0.6000000000000004
 22
-17.16651386310914
 32
0
 13
0.6000000000000004
 23
-17.16651386310914
 33
0
  0
SOLID
  5
B9
100
AcDbEntity
  8
dimensions
  6
ByBlock
 62
    0
370
   -2
100
AcDbTrace
 10
-0.5999999999999988
 20
-17
 30
0
 11
-1.599999999999999
 21
-17.16651386310913
 31
0
 12
-1.599999999999999
 22
-16.83348613689087
 32
0
 13
-1.599999999999999
 23
-16.83348613689087
 33
0
  0
MTEXT
  5
BA
100
AcDbEntity
  8
dimensions
  6
CONTINUOUS
 62
    0
370
   -2
100
AcDbMText
 10
-2.816666666666636
 20
-16
 30
0
 40
1
 41
3.166666666666728
 71
    5
 72
    1
  1
2%%P0,5
  7
standard
210
0
220
0
230
1
 50
360
 73
    2
 44
1
  0
LINE
  5
BB
100
AcDbEntity
  8
dimensions
  6
ByBlock
 62
    0
370
   -2
100
AcDbLine
 10
-0.3999999999999997
 20
-15.7
 11
-0.3999999999999997
 21
-18
  0
LINE
  5
BC
100
AcDbEntity
  8
dimensions
  6
ByBlock
 62
    0
370
   -2
100
AcDbLine
 10
-0.599999999999999
 20
-14.45
 11
-0.599999999999999
 21
-18
  0
ENDBLK
  5
63
330
61
100
AcDbEntity
  8
0
100
AcDbBlockEnd
  0
BLOCK
  5
65
330
64
100
AcDbEntity
  8
0
100
AcDbBlockBegin
  2
*D11
 70
    1
 10
0
 20
0
  3
*D11
  1

  0
LINE
  5
BD
100
AcDbEntity
  8
dimensions
  6
ByBlock
 62
    0
370
   -2
100
AcDbLine
 10
43.4
 20
-6.899999999999999
 11
54.6
 21
-6.899999999999999
  0
SOLID
  5
BE
100
AcDbEntity
  8
dimensions
  6
ByBlock
 62
    0
370
   -2
100
AcDbTrace
 10
43.4
 20
-6.899999999999999
 30
0
 11
44.4
 21
-6.733486136890862
 31
0
 12
44.4
 22
-7.066513863109135
 32
0
 13
44.4
 23
-7.066513863109135
 33
0
  0
SOLID
  5
BF
100
AcDbEntity
  8
dimensions
  6
ByBlock
 62
    0
370
   -2
100
AcDbTrace
 10
54.6
 20
-6.899999999999999
 30
0
 11
53.6
 21
-7.066513863109135
 31
0
 12
53.6
 22
-6.733486136890862
 32
0
 13
53.6
 23
-6.733486136890862
 33
0
  0
MTEXT
  5
C0
100
AcDbEntity
  8
dimensions
  6
CONTINUOUS
 62
    0
370
   -2
100
AcDbMText
 10
49
 20
-5.899999999999999
 30
0
 40
1
 41
4.277777777777839
 71
    5
 72
    1
  1
112%%P0,5
  7
standard
210
0
220
0
230
1
 50
0
 73
    2
 44
1
  0
LINE
  5
C1
100
AcDbEntity
  8
dimensions
  6
ByBlock
 62
    0
370
   -2
100
AcDbLine
 10
43.4
 20
-1
 11
43.4
 21
-7.899999999999999
  0
LINE
  5
C2
100
AcDbEntity
  8
dimensions
  6
ByBlock
 62
    0
370
   -2
100
AcDbLine
 10
54.6
 20
-1
 11
54.6
 21
-7.899999999999999
  0
ENDBLK
  5
66
330
64
100
AcDbEntity
  8
0
100
AcDbBlockEnd
  0
BLOCK
  5
68
330
67
100
AcDbEntity
  8
0
100
AcDbBlockBegin
  2
*D10
 70
    1
 10
0
 20
0
  3
*D10
  1

  0
LINE
  5
C3
100
AcDbEntity
  8
dimensions
  6
ByBlock
 62
    0
370
   -2
100
AcDbLine
 10
28.2
 20
-4.9
 11
32.5
 21
-4.9
  0
SOLID
  5
C4
100
AcDbEntity
  8
dimensions
  6
ByBlock
 62
    0
370
   -2
100
AcDbTrace
 10
30.2
 20
-4.9
 30
0
 11
29.2
 21
-5.066513863109137
 31
0
 12
29.2
 22
-4.733486136890864
 32
0
 13
29.2
 23
-4.733486136890864
 33
0
  0
SOLID
  5
C5
100
AcDbEntity
  8
dimensions
  6
ByBlock
 62
    0
370
   -2
100
AcDbTrace
 10
30.5
 20
-4.9
 30
0
 11
31.5
 21
-4.733486136890864
 31
0
 12
31.5
 22
-5.066513863109137
 32
0
 13
31.5
 23
-5.066513863109137
 33
0
  0
MTEXT
  5
C6
100
AcDbEntity
  8
dimensions
  6
CONTINUOUS
 62
    0
370
   -2
100
AcDbMText
 10
31.22222222222225
 20
-3.9
 30
0
 40
1
 41
0.4444444444445064
 71
    5
 72
    1
  1
3
  7
standard
210
0
220
0
230
1
 50
0
 73
    2
 44
1
  0
LINE
  5
C7
100
AcDbEntity
  8
dimensions
  6
ByBlock
 62
    0
370
   -2
100
AcDbLine
 10
30.2
 20
-1
 11
30.2
 21
-5.9
  0
LINE
  5
C8
100
AcDbEntity
  8
dimensions
  6
ByBlock
 62
    0
370
   -2
100
AcDbLine
 10
30.5
 20
-1
 11
30.5
 21
-5.9
  0
ENDBLK
  5
69
330
67
100
AcDbEntity
  8
0
100
AcDbBlockEnd
  0
BLOCK
  5
6B
330
6A
100
AcDbEntity
  8
0
100
AcDbBlockBegin
  2
*D17
 70
    1
 10
0
 20
0
  3
*D17
  1

  0
LINE
  5
C9
100
AcDbEntity
  8
dimensions
  6
CONTINUOUS
 62
    7
370
    0
100
AcDbLine
 10
11
 20
19.6
 11
19
 21
31.3
  0
LINE
  5
CA
100
AcDbEntity
  8
dimensions
  6
CONTINUOUS
 62
    7
370
    0
100
AcDbLine
 10
19
 20
31.3
 11
47
 21
31.3
  0
SOLID
  5
CB
100
AcDbEntity
  8
dimensions
  6
CONTINUOUS
 62
    7
370
    0
100
AcDbTrace
 10
11
 20
19.6
 30
0
 11
11.42697704990348
 21
20.51946585878066
 31
0
 12
11.7018848703085
 22
20.33149469952936
 32
0
 13
11.7018848703085
 23
20.33149469952936
 33
0
  0
ENDBLK
  5
6C
330
6A
100
AcDbEntity
  8
0
100
AcDbBlockEnd
  0
BLOCK
  5
6E
330
6D
100
AcDbEntity
  8
0
100
AcDbBlockBegin
  2
*D20
 70
    1
 10
0
 20
0
  3
*D20
  1

  0
LINE
  5
CC
100
AcDbEntity
  8
dimensions
  6
CONTINUOUS
 62
    7
370
    0
100
AcDbLine
 10
-8.326672684688674e-16
 20
21.6
 11
-3.000000000000001
 21
26.6
  0
LINE
  5
CD
100
AcDbEntity
  8
dimensions
  6
CONTINUOUS
 62
    7
370
    0
100
AcDbLine
 10
-3.000000000000001
 20
26.6
 11
-5.000000000000001
 21
26.6
  0
SOLID
  5
CE
100
AcDbEntity
  8
dimensions
  6
CONTINUOUS
 62
    7
370
    0
100
AcDbTrace
 10
-8.326672684688674e-16
 20
21.6
 30
0
 11
-0.6572802150766783
 21
22.37182224992306
 31
0
 12
-0.3717112957783758
 22
22.54316360150204
 32
0
 13
-0.3717112957783758
 23
22.54316360150204
 33
0
  0
ENDBLK
  5
6F
330
6D
100
AcDbEntity
  8
0
100
AcDbBlockEnd
  0
BLOCK
  5
71
330
70
100
AcDbEntity
  8
0
100
AcDbBlockBegin
  2
*D16
 70
    1
 10
0
 20
0
  3
*D16
  1

  0
LINE
  5
CF
100
AcDbEntity
  8
dimensions
  6
CONTINUOUS
 62
    7
370
    0
100
AcDbLine
 10
-1.000000000000001
 20
19.6
 11
19
 21
31.3
  0
SOLID
  5
D0
100
AcDbEntity
  8
dimensions
  6
CONTINUOUS
 62
    7
370
    0
100
AcDbTrace
 10
-1.000000000000001
 20
19.6
 30
0
 11
-0.2209280604995936
 21
20.24867077912497
 31
0
 12
-0.05276771287891424
 22
19.9612171934486
 32
0
 13
-0.05276771287891424
 23
19.9612171934486
 33
0
  0
ENDBLK
  5
72
330
70
100
AcDbEntity
  8
0
100
AcDbBlockEnd
  0
BLOCK
  5
74
330
73
100
AcDbEntity
  8
0
100
AcDbBlockBegin
  2
*D8
 70
    1
 10
0
 20
0
  3
*D8
  1

  0
LINE
  5
D1
100
AcDbEntity
  8
dimensions
  6
CONTINUOUS
 62
    7
370
    0
100
AcDbLine
 10
12
 20
-1.9
 11
15
 21
-4.9
  0
LINE
  5
D2
100
AcDbEntity
  8
dimensions
  6
CONTINUOUS
 62
    7
370
    0
100
AcDbLine
 10
15
 20
-4.9
 11
24
 21
-4.9
  0
SOLID
  5
D3
100
AcDbEntity
  8
dimensions
  6
CONTINUOUS
 62
    7
370
    0
100
AcDbTrace
 10
12
 20
-1.9
 30
0
 11
12.82484986295259
 21
-2.489363699420509
 31
0
 12
12.58936369942051
 22
-2.724849862952586
 32
0
 13
12.58936369942051
 23
-2.724849862952586
 33
0
  0
ENDBLK
  5
75
330
73
100
AcDbEntity
  8
0
100
AcDbBlockEnd
  0
BLOCK
  5
77
330
76
100
AcDbEntity
  8
0
100
AcDbBlockBegin
  2
*D25
 70
    1
 10
0
 20
0
  3
*D25
  1

  0
LINE
  5
D4
100
AcDbEntity
  8
dimensions
  6
ByBlock
 62
    0
370
   -2
100
AcDbLine
 10
-8.000000000000002
 20
20.2
 11
-8.000000000000004
 21
-3.150257832373882e-15
  0
SOLID
  5
D5
100
AcDbEntity
  8
dimensions
  6
ByBlock
 62
    0
370
   -2
100
AcDbTrace
 10
-8.000000000000002
 20
20.2
 30
0
 11
-7.833486136890865
 21
19.2
 31
0
 12
-8.166513863109138
 22
19.2
 32
0
 13
-8.166513863109138
 23
19.2
 33
0
  0
SOLID
  5
D6
100
AcDbEntity
  8
dimensions
  6
ByBlock
 62
    0
370
   -2
100
AcDbTrace
 10
-8.000000000000004
 20
-3.150257832373882e-15
 30
0
 11
-8.16651386310914
 21
0.9999999999999969
 31
0
 12
-7.833486136890867
 22
0.9999999999999969
 32
0
 13
-7.833486136890867
 23
0.9999999999999969
 33
0
  0
MTEXT
  5
D7
100
AcDbEntity
  8
dimensions
  6
CONTINUOUS
 62
    0
370
   -2
100
AcDbMText
 10
-9.000000000000004
 20
10.1
 30
0
 40
1
 41
3.333333333333333
 71
    5
 72
    1
  1
202+1
  7
standard
210
0
220
0
230
1
 50
90
 73
    2
 44
1
  0
LINE
  5
D8
100
AcDbEntity
  8
dimensions
  6
ByBlock
 62
    0
370
   -2
100
AcDbLine
 10
-1.4
 20
20.2
 11
-9.000000000000002
 21
20.2
  0
LINE
  5
D9
100
AcDbEntity
  8
dimensions
  6
ByBlock
 62
    0
370
   -2
100
AcDbLine
 10
-1.399999999999998
 20
-3.513515725732653e-15
 11
-9.000000000000004
 21
-3.027793152459147e-15
  0
ENDBLK
  5
78
330
76
100
AcDbEntity
  8
0
100
AcDbBlockEnd
  0
BLOCK
  5
7A
330
79
100
AcDbEntity
  8
0
100
AcDbBlockBegin
  2
*D12
 70
    1
 10
0
 20
0
  3
*D12
  1

  0
LINE
  5
DA
100
AcDbEntity
  8
dimensions
  6
CONTINUOUS
 62
    7
370
    0
100
AcDbLine
 10
4.999999999999999
 20
26.9
 11
2.999999999999999
 21
26.9
  0
SOLID
  5
DB
100
AcDbEntity
  8
dimensions
  6
CONTINUOUS
 62
    7
370
    0
100
AcDbTrace
 10
4.999999999999999
 20
26.9
 30
0
 11
3.999999999999999
 21
26.73348613689086
 31
0
 12
3.999999999999999
 22
27.06651386310913
 32
0
 13
3.999999999999999
 23
27.06651386310913
 33
0
  0
ENDBLK
  5
7B
330
79
100
AcDbEntity
  8
0
100
AcDbBlockEnd
  0
BLOCK
  5
7D
330
7C
100
AcDbEntity
  8
0
100
AcDbBlockBegin
  2
*D26
 70
    1
 10
0
 20
0
  3
*D26
  1

  0
LINE
  5
DC
100
AcDbEntity
  8
dimensions
  6
ByBlock
 62
    0
370
   -2
100
AcDbLine
 10
-8
 20
20.2
 11
-8
 21
22.7
  0
SOLID
  5
DD
100
AcDbEntity
  8
dimensions
  6
ByBlock
 62
    0
370
   -2
100
AcDbTrace
 10
-8
 20
20.2
 30
0
 11
-8.166513863109136
 21
21.2
 31
0
 12
-7.833486136890864
 22
21.2
 32
0
 13
-7.833486136890864
 23
21.2
 33
0
  0
SOLID
  5
DE
100
AcDbEntity
  8
dimensions
  6
ByBlock
 62
    0
370
   -2
100
AcDbTrace
 10
-8
 20
22.7
 30
0
 11
-7.833486136890864
 21
21.7
 31
0
 12
-8.166513863109136
 22
21.7
 32
0
 13
-8.166513863109136
 23
21.7
 33
0
  0
MTEXT
  5
DF
100
AcDbEntity
  8
dimensions
  6
CONTINUOUS
 62
    0
370
   -2
100
AcDbMText
 10
-9
 20
21.45
 30
0
 40
1
 41
2.188888888888951
 71
    5
 72
    1
  1
25*
  7
standard
210
0
220
0
230
1
 50
90
 73
    2
 44
1
  0
LINE
  5
E0
100
AcDbEntity
  8
dimensions
  6
ByBlock
 62
    0
370
   -2
100
AcDbLine
 10
-2.6
 20
20.2
 11
-9
 21
20.2
  0
LINE
  5
E1
100
AcDbEntity
  8
dimensions
  6
ByBlock
 62
    0
370
   -2
100
AcDbLine
 10
-2.6
 20
22.7
 11
-9
 21
22.7
  0
ENDBLK
  5
7E
330
7C
100
AcDbEntity
  8
0
100
AcDbBlockEnd
  0
BLOCK
  5
80
330
7F
100
AcDbEntity
  8
0
100
AcDbBlockBegin
  2
*D27
 70
    1
 10
0
 20
0
  3
*D27
  1

  0
LINE
  5
E2
100
AcDbEntity
  8
dimensions
  6
ByBlock
 62
    0
370
   -2
100
AcDbLine
 10
-1.6
 20
17.6
 11
11.6
 21
17.6
  0
SOLID
  5
E3
100
AcDbEntity
  8
dimensions
  6
ByBlock
 62
    0
370
   -2
100
AcDbTrace
 10
-1.6
 20
17.6
 30
0
 11
-0.5999999999999996
 21
17.76651386310914
 31
0
 12
-0.5999999999999996
 22
17.43348613689086
 32
0
 13
-0.5999999999999996
 23
17.43348613689086
 33
0
  0
SOLID
  5
E4
100
AcDbEntity
  8
dimensions
  6
ByBlock
 62
    0
370
   -2
100
AcDbTrace
 10
11.6
 20
17.6
 30
0
 11
10.6
 21
17.43348613689087
 31
0
 12
10.6
 22
17.76651386310914
 32
0
 13
10.6
 23
17.76651386310914
 33
0
  0
MTEXT
  5
E5
100
AcDbEntity
  8
dimensions
  6
CONTINUOUS
 62
    0
370
   -2
100
AcDbMText
 10
6.3
 20
18.6
 30
0
 40
1
 41
1.77777777777784
 71
    5
 72
    1
  1
132
  7
standard
210
0
220
0
230
1
 50
0
 73
    2
 44
1
  0
LINE
  5
E6
100
AcDbEntity
  8
dimensions
  6
ByBlock
 62
    0
370
   -2
100
AcDbLine
 10
-1.6
 20
19.2
 11
-1.6
 21
16.6
  0
LINE
  5
E7
100
AcDbEntity
  8
dimensions
  6
ByBlock
 62
    0
370
   -2
100
AcDbLine
 10
11.6
 20
19.2
 11
11.6
 21
16.6
  0
ENDBLK
  5
81
330
7F
100
AcDbEntity
  8
0
100
AcDbBlockEnd
  0
BLOCK
  5
83
330
82
100
AcDbEntity
  8
0
100
AcDbBlockBegin
  2
*D19
 70
    1
 10
0
 20
0
  3
*D19
  1

  0
LINE
  5
E8
100
AcDbEntity
  8
dimensions
  6
CONTINUOUS
 62
    7
370
    0
100
AcDbLine
 10
31
 20
24.6
 11
33
 21
26.6
  0
LINE
  5
E9
100
AcDbEntity
  8
dimensions
  6
CONTINUOUS
 62
    7
370
    0
100
AcDbLine
 10
33
 20
26.6
 11
35
 21
26.6
  0
SOLID
  5
EA
100
AcDbEntity
  8
dimensions
  6
CONTINUOUS
 62
    7
370
    0
100
AcDbTrace
 10
31
 20
24.6
 30
0
 11
31.58936369942051
 21
25.42484986295259
 31
0
 12
31.82484986295259
 22
25.18936369942051
 32
0
 13
31.82484986295259
 23
25.18936369942051
 33
0
  0
ENDBLK
  5
84
330
82
100
AcDbEntity
  8
0
100
AcDbBlockEnd
  0
BLOCK
  5
86
330
85
100
AcDbEntity
  8
0
100
AcDbBlockBegin
  2
*D24
 70
    1
 10
0
 20
0
  3
*D24
  1

  0
LINE
  5
EB
100
AcDbEntity
  8
dimensions
  6
ByBlock
 62
    0
370
   -2
100
AcDbLine
 10
38
 20
20.5
 11
38
 21
1.387778780781446e-16
  0
SOLID
  5
EC
100
AcDbEntity
  8
dimensions
  6
ByBlock
 62
    0
370
   -2
100
AcDbTrace
 10
38
 20
20.5
 30
0
 11
38.16651386310914
 21
19.5
 31
0
 12
37.83348613689086
 22
19.5
 32
0
 13
37.83348613689086
 23
19.5
 33
0
  0
SOLID
  5
ED
100
AcDbEntity
  8
dimensions
  6
ByBlock
 62
    0
370
   -2
100
AcDbTrace
 10
38
 20
1.387778780781446e-16
 30
0
 11
37.83348613689086
 21
1
 31
0
 12
38.16651386310914
 22
1
 32
0
 13
38.16651386310914
 23
1
 33
0
  0
MTEXT
  5
EE
100
AcDbEntity
  8
dimensions
  6
CONTINUOUS
 62
    0
370
   -2
100
AcDbMText
 10
37
 20
10.25
 30
0
 40
1
 41
2.000000000000062
 71
    5
 72
    1
  1
205
  7
standard
210
0
220
0
230
1
 50
90
 73
    2
 44
1
  0
LINE
  5
EF
100
AcDbEntity
  8
dimensions
  6
ByBlock
 62
    0
370
   -2
100
AcDbLine
 10
40.40000000000001
 20
20.5
 11
37
 21
20.5
  0
LINE
  5
F0
100
AcDbEntity
  8
dimensions
  6
ByBlock
 62
    0
370
   -2
100
AcDbLine
 10
42.4
 20
-1.273355006259249e-16
 11
37
 21
2.612425579928799e-16
  0
ENDBLK
  5
87
330
85
100
AcDbEntity
  8
0
100
AcDbBlockEnd
  0
BLOCK
  5
89
330
88
100
AcDbEntity
  8
0
100
AcDbBlockBegin
  2
*D14
 70
    1
 10
0
 20
0
  3
*D14
  1

  0
LINE
  5
F1
100
AcDbEntity
  8
dimensions
  6
CONTINUOUS
 62
    7
370
    0
100
AcDbLine
 10
50
 20
21.6
 11
52
 21
26.6
  0
LINE
  5
F2
100
AcDbEntity
  8
dimensions
  6
CONTINUOUS
 62
    7
370
    0
100
AcDbLine
 10
52
 20
26.6
 11
57
 21
26.6
  0
SOLID
  5
F3
100
AcDbEntity
  8
dimensions
  6
CONTINUOUS
 62
    7
370
    0
100
AcDbTrace
 10
50
 20
21.6
 30
0
 11
50.21678643574801
 21
22.5903183871277
 31
0
 12
50.52599491696019
 22
22.46663499464282
 32
0
 13
50.52599491696019
 23
22.46663499464282
 33
0
  0
ENDBLK
  5
8A
330
88
100
AcDbEntity
  8
0
100
AcDbBlockEnd
  0
BLOCK
  5
8C
330
8B
100
AcDbEntity
  8
0
100
AcDbBlockBegin
  2
*D22
 70
    1
 10
0
 20
0
  3
*D22
  1

  0
LINE
  5
F4
100
AcDbEntity
  8
dimensions
  6
ByBlock
 62
    0
370
   -2
100
AcDbLine
 10
52.59999999999999
 20
17.6
 11
58.49999999999999
 21
17.6
  0
SOLID
  5
F5
100
AcDbEntity
  8
dimensions
  6
ByBlock
 62
    0
370
   -2
100
AcDbTrace
 10
54.59999999999999
 20
17.6
 30
0
 11
53.59999999999999
 21
17.43348613689087
 31
0
 12
53.59999999999999
 22
17.76651386310914
 32
0
 13
53.59999999999999
 23
17.76651386310914
 33
0
  0
SOLID
  5
F6
100
AcDbEntity
  8
dimensions
  6
ByBlock
 62
    0
370
   -2
100
AcDbTrace
 10
56.49999999999999
 20
17.6
 30
0
 11
57.49999999999999
 21
17.76651386310914
 31
0
 12
57.49999999999999
 22
17.43348613689086
 32
0
 13
57.49999999999999
 23
17.43348613689086
 33
0
  0
MTEXT
  5
F7
100
AcDbEntity
  8
dimensions
  6
CONTINUOUS
 62
    0
370
   -2
100
AcDbMText
 10
58.27777777777777
 20
18.6
 30
0
 40
1
 41
2.555555555555555
 71
    5
 72
    1
  1
19%%P2
  7
standard
210
0
220
0
230
1
 50
0
 73
    2
 44
1
  0
LINE
  5
F8
100
AcDbEntity
  8
dimensions
  6
ByBlock
 62
    0
370
   -2
100
AcDbLine
 10
54.59999999999999
 20
19.5
 11
54.59999999999999
 21
16.6
  0
LINE
  5
F9
100
AcDbEntity
  8
dimensions
  6
ByBlock
 62
    0
370
   -2
100
AcDbLine
 10
56.49999999999999
 20
19.5
 11
56.49999999999999
 21
16.6
  0
ENDBLK
  5
8D
330
8B
100
AcDbEntity
  8
0
100
AcDbBlockEnd
  0
BLOCK
  5
8F
330
8E
100
AcDbEntity
  8
0
100
AcDbBlockBegin
  2
*D1
 70
    1
 10
0
 20
0
  3
*D1
  1

  0
LINE
  5
FA
100
AcDbEntity
  8
dimensions
  6
ByBlock
 62
    0
370
   -2
100
AcDbLine
 10
8.4
 20
-17
 11
12.59999999999999
 21
-17
  0
SOLID
  5
FB
100
AcDbEntity
  8
dimensions
  6
ByBlock
 62
    0
370
   -2
100
AcDbTrace
 10
10.4
 20
-17
 30
0
 11
9.4
 21
-17.16651386310913
 31
0
 12
9.4
 22
-16.83348613689087
 32
0
 13
9.4
 23
-16.83348613689087
 33
0
  0
SOLID
  5
FC
100
AcDbEntity
  8
dimensions
  6
ByBlock
 62
    0
370
   -2
100
AcDbTrace
 10
10.59999999999999
 20
-17
 30
0
 11
11.59999999999999
 21
-16.83348613689087
 31
0
 12
11.59999999999999
 22
-17.16651386310914
 32
0
 13
11.59999999999999
 23
-17.16651386310914
 33
0
  0
MTEXT
  5
FD
100
AcDbEntity
  8
dimensions
  6
CONTINUOUS
 62
    0
370
   -2
100
AcDbMText
 10
12.68333333333336
 20
-16
 30
0
 40
1
 41
3.166666666666728
 71
    5
 72
    1
  1
2%%P0,5
  7
standard
210
0
220
0
230
1
 50
0
 73
    2
 44
1
  0
LINE
  5
FE
100
AcDbEntity
  8
dimensions
  6
ByBlock
 62
    0
370
   -2
100
AcDbLine
 10
10.4
 20
-15.7
 11
10.4
 21
-18
  0
LINE
  5
FF
100
AcDbEntity
  8
dimensions
  6
ByBlock
 62
    0
370
   -2
100
AcDbLine
 10
10.59999999999999
 20
-14.45
 11
10.59999999999999
 21
-18
  0
ENDBLK
  5
90
330
8E
100
AcDbEntity
  8
0
100
AcDbBlockEnd
  0
BLOCK
  5
92
330
91
100
AcDbEntity
  8
0
100
AcDbBlockBegin
  2
*D13
 70
    1
 10
0
 20
0
  3
*D13
  1

  0
LINE
  5
100
100
AcDbEntity
  8
dimensions
  6
CONTINUOUS
 62
    7
370
    0
100
AcDbLine
 10
55
 20
21.6
 11
57
 21
26.6
  0
LINE
  5
101
100
AcDbEntity
  8
dimensions
  6
CONTINUOUS
 62
    7
370
    0
100
AcDbLine
 10
57
 20
26.6
 11
63
 21
26.6
  0
SOLID
  5
102
100
AcDbEntity
  8
dimensions
  6
CONTINUOUS
 62
    7
370
    0
100
AcDbTrace
 10
55
 20
21.6
 30
0
 11
55.21678643574801
 21
22.5903183871277
 31
0
 12
55.52599491696019
 22
22.46663499464282
 32
0
 13
55.52599491696019
 23
22.46663499464282
 33
0
  0
ENDBLK
  5
93
330
91
100
AcDbEntity
  8
0
100
AcDbBlockEnd
  0
BLOCK
  5
95
330
94
100
AcDbEntity
  8
0
100
AcDbBlockBegin
  2
*D4
 70
    1
 10
0
 20
0
  3
*D4
  1

  0
LINE
  5
103
100
AcDbEntity
  8
dimensions
  6
ByBlock
 62
    0
370
   -2
100
AcDbLine
 10
-0.6000000000000032
 20
-12
 11
10.6
 21
-12
  0
SOLID
  5
104
100
AcDbEntity
  8
dimensions
  6
ByBlock
 62
    0
370
   -2
100
AcDbTrace
 10
-0.6000000000000032
 20
-12
 30
0
 11
0.3999999999999968
 21
-11.83348613689086
 31
0
 12
0.3999999999999968
 22
-12.16651386310914
 32
0
 13
0.3999999999999968
 23
-12.16651386310914
 33
0
  0
SOLID
  5
105
100
AcDbEntity
  8
dimensions
  6
ByBlock
 62
    0
370
   -2
100
AcDbTrace
 10
10.6
 20
-12
 30
0
 11
9.6
 21
-12.16651386310914
 31
0
 12
9.6
 22
-11.83348613689086
 32
0
 13
9.6
 23
-11.83348613689086
 33
0
  0
MTEXT
  5
106
100
AcDbEntity
  8
dimensions
  6
CONTINUOUS
 62
    0
370
   -2
100
AcDbMText
 10
4.999999999999998
 20
-11
 30
0
 40
1
 41
4.277777777777839
 71
    5
 72
    1
  1
112%%P0,5
  7
standard
210
0
220
0
230
1
 50
0
 73
    2
 44
1
  0
LINE
  5
107
100
AcDbEntity
  8
dimensions
  6
ByBlock
 62
    0
370
   -2
100
AcDbLine
 10
-0.6000000000000025
 20
-11
 11
-0.6000000000000034
 21
-13
  0
LINE
  5
108
100
AcDbEntity
  8
dimensions
  6
ByBlock
 62
    0
370
   -2
100
AcDbLine
 10
10.6
 20
-11
 11
10.6
 21
-13
  0
ENDBLK
  5
96
330
94
100
AcDbEntity
  8
0
100
AcDbBlockEnd
  0
BLOCK
  5
98
330
97
100
AcDbEntity
  8
0
100
AcDbBlockBegin
  2
*D5
 70
    1
 10
0
 20
0
  3
*D5
  1

  0
LINE
  5
109
100
AcDbEntity
  8
dimensions
  6
CONTINUOUS
 62
    7
370
    0
100
AcDbLine
 10
-6.3
 20
10.1
 11
-6.3
 21
12.1
  0
SOLID
  5
10A
100
AcDbEntity
  8
dimensions
  6
CONTINUOUS
 62
    7
370
    0
100
AcDbTrace
 10
-6.3
 20
10.1
 30
0
 11
-6.466513863109136
 21
11.1
 31
0
 12
-6.133486136890864
 22
11.1
 32
0
 13
-6.133486136890864
 23
11.1
 33
0
  0
ENDBLK
  5
99
330
97
100
AcDbEntity
  8
0
100
AcDbBlockEnd
  0
BLOCK
  5
9B
330
9A
100
AcDbEntity
  8
0
100
AcDbBlockBegin
  2
*D3
 70
    1
 10
0
 20
0
  3
*D3
  1

  0
LINE
  5
10B
100
AcDbEntity
  8
dimensions
  6
ByBlock
 62
    0
370
   -2
100
AcDbLine
 10
-0.399999999999995
 20
-17
 11
10.4
 21
-17
  0
SOLID
  5
10C
100
AcDbEntity
  8
dimensions
  6
ByBlock
 62
    0
370
   -2
100
AcDbTrace
 10
-0.399999999999995
 20
-17
 30
0
 11
0.600000000000005
 21
-16.83348613689087
 31
0
 12
0.600000000000005
 22
-17.16651386310914
 32
0
 13
0.600000000000005
 23
-17.16651386310914
 33
0
  0
SOLID
  5
10D
100
AcDbEntity
  8
dimensions
  6
ByBlock
 62
    0
370
   -2
100
AcDbTrace
 10
10.4
 20
-17
 30
0
 11
9.4
 21
-17.16651386310913
 31
0
 12
9.4
 22
-16.83348613689087
 32
0
 13
9.4
 23
-16.83348613689087
 33
0
  0
MTEXT
  5
10E
100
AcDbEntity
  8
dimensions
  6
CONTINUOUS
 62
    0
370
   -2
100
AcDbMText
 10
5.000000000000003
 20
-16
 30
0
 40
1
 41
4.500000000000062
 71
    5
 72
    1
  1
108%%P0,5
  7
standard
210
0
220
0
230
1
 50
0
 73
    2
 44
1
  0
LINE
  5
10F
100
AcDbEntity
  8
dimensions
  6
ByBlock
 62
    0
370
   -2
100
AcDbLine
 10
-0.3999999999999954
 20
-15.7
 11
-0.3999999999999952
 21
-18
  0
LINE
  5
110
100
AcDbEntity
  8
dimensions
  6
ByBlock
 62
    0
370
   -2
100
AcDbLine
 10
10.4
 20
-15.7
 11
10.4
 21
-18
  0
ENDBLK
  5
9C
330
9A
100
AcDbEntity
  8
0
100
AcDbBlockEnd
  0
BLOCK
  5
9E
330
9D
100
AcDbEntity
  8
0
100
AcDbBlockBegin
  2
*D9
 70
    1
 10
0
 20
0
  3
*D9
  1

  0
LINE
  5
111
100
AcDbEntity
  8
dimensions
  6
CONTINUOUS
 62
    7
370
    0
100
AcDbLine
 10
26
 20
-1.9
 11
24
 21
-4.9
  0
SOLID
  5
112
100
AcDbEntity
  8
dimensions
  6
CONTINUOUS
 62
    7
370
    0
100
AcDbTrace
 10
26
 20
-1.9
 30
0
 11
25.58384771258606
 21
-2.824415566878702
 31
0
 12
25.30675189496348
 22
-2.639685021796985
 32
0
 13
25.30675189496348
 23
-2.639685021796985
 33
0
  0
ENDBLK
  5
9F
330
9D
100
AcDbEntity
  8
0
100
AcDbBlockEnd
  0
BLOCK
  5
A1
330
A0
100
AcDbEntity
  8
0
100
AcDbBlockBegin
  2
*D21
 70
    1
 10
0
 20
0
  3
*D21
  1

  0
LINE
  5
113
100
AcDbEntity
  8
dimensions
  6
ByBlock
 62
    0
370
   -2
100
AcDbLine
 10
39.5
 20
17.6
 11
45.4
 21
17.6
  0
SOLID
  5
114
100
AcDbEntity
  8
dimensions
  6
ByBlock
 62
    0
370
   -2
100
AcDbTrace
 10
41.5
 20
17.6
 30
0
 11
40.5
 21
17.43348613689087
 31
0
 12
40.5
 22
17.76651386310914
 32
0
 13
40.5
 23
17.76651386310914
 33
0
  0
SOLID
  5
115
100
AcDbEntity
  8
dimensions
  6
ByBlock
 62
    0
370
   -2
100
AcDbTrace
 10
43.4
 20
17.6
 30
0
 11
44.4
 21
17.76651386310914
 31
0
 12
44.4
 22
17.43348613689086
 32
0
 13
44.4
 23
17.43348613689086
 33
0
  0
MTEXT
  5
116
100
AcDbEntity
  8
dimensions
  6
CONTINUOUS
 62
    0
370
   -2
100
AcDbMText
 10
45.17777777777778
 20
18.6
 30
0
 40
1
 41
2.555555555555555
 71
    5
 72
    1
  1
19%%P2
  7
standard
210
0
220
0
230
1
 50
0
 73
    2
 44
1
  0
LINE
  5
117
100
AcDbEntity
  8
dimensions
  6
ByBlock
 62
    0
370
   -2
100
AcDbLine
 10
41.5
 20
19.5
 11
41.5
 21
16.6
  0
LINE
  5
118
100
AcDbEntity
  8
dimensions
  6
ByBlock
 62
    0
370
   -2
100
AcDbLine
 10
43.4
 20
19.5
 11
43.4
 21
16.6
  0
ENDBLK
  5
A2
330
A0
100
AcDbEntity
  8
0
100
AcDbBlockEnd
  0
BLOCK
  5
A4
330
A3
100
AcDbEntity
  8
0
100
AcDbBlockBegin
  2
*D6
 70
    1
 10
0
 20
0
  3
*D6
  1

  0
LINE
  5
119
100
AcDbEntity
  8
dimensions
  6
CONTINUOUS
 62
    7
370
    0
100
AcDbLine
 10
16.3
 20
10.1
 11
16.3
 21
12.1
  0
SOLID
  5
11A
100
AcDbEntity
  8
dimensions
  6
CONTINUOUS
 62
    7
370
    0
100
AcDbTrace
 10
16.3
 20
10.1
 30
0
 11
16.13348613689087
 21
11.1
 31
0
 12
16.46651386310914
 22
11.1
 32
0
 13
16.46651386310914
 23
11.1
 33
0
  0
ENDBLK
  5
A5
330
A3
100
AcDbEntity
  8
0
100
AcDbBlockEnd
  0
ENDSEC
  0
SECTION
  2
ENTITIES
  0
HATCH
  5
11B
100
AcDbEntity
  8
u-block
  6
ByLayer
 62
  256
370
   -1
100
AcDbHatch
 10
0
 20
0
 30
0
210
0
220
0
230
1
  2
gost_ceramics
 70
    0
 71
    0
 91
    1
 92
    0
 93
    8
 72
    1
 10
28.8
 20
22.5
 11
28.1
 21
22.5
 72
    1
 10
28.1
 20
22.5
 11
28
 21
21.1
 72
    1
 10
28
 20
21.1
 11
26.4
 21
21.1
 72
    1
 10
26.4
 20
21.1
 11
26.3
 21
22.5
 72
    1
 10
26.3
 20
22.5
 11
25.8
 21
22.5
 72
    1
 10
25.8
 20
22.5
 11
25.8
 21
20.5
 72
    1
 10
25.8
 20
20.5
 11
28.8
 21
20.5
 72
    1
 10
28.8
 20
20.5
 11
28.8
 21
22.5
 97
    0
 75
    0
 76
    1
 52
0
 41
0.2
 77
    0
 78
    0
 98
    0
  0
HATCH
  5
11C
100
AcDbEntity
  8
concrete
  6
ByLayer
 62
  256
370
   -1
100
AcDbHatch
 10
0
 20
0
 30
0
210
0
220
0
230
1
  2
gost_concrete
 70
    0
 71
    0
 91
    1
 92
    0
 93
    4
 72
    1
 10
28
 20
21.1
 11
26.4
 21
21.1
 72
    1
 10
26.4
 20
21.1
 11
26.3
 21
22.5
 72
    1
 10
26.3
 20
22.5
 11
28.1
 21
22.5
 72
    1
 10
28.1
 20
22.5
 11
28
 21
21.1
 97
    0
 75
    0
 76
    1
 52
1.570796326794897
 41
0.1
 77
    0
 78
    0
 98
    0
  0
HATCH
  5
11D
100
AcDbEntity
  8
concrete
  6
ByLayer
 62
  256
370
   -1
100
AcDbHatch
 10
0
 20
0
 30
0
210
0
220
0
230
1
  2
gost_concrete
 70
    0
 71
    0
 91
    1
 92
    0
 93
    6
 72
    1
 10
29.25
 20
20.5
 11
28.8
 21
20.5
 72
    1
 10
28.8
 20
20.5
 11
28.8
 21
22.5
 72
    1
 10
28.8
 20
22.5
 11
30.1
 21
22.5
 72
    1
 10
30.1
 20
22.5
 11
30.1
 21
20.80000000000001
 72
    1
 10
30.1
 20
20.80000000000001
 11
29.25
 21
20.8
 72
    1
 10
29.25
 20
20.8
 11
29.25
 21
20.5
 97
    0
 75
    0
 76
    1
 52
0
 41
0.1
 77
    0
 78
    0
 98
    0
  0
HATCH
  5
11E
100
AcDbEntity
  8
face
  6
ByLayer
 62
  256
370
   -1
100
AcDbHatch
 10
0
 20
0
 30
0
210
0
220
0
230
1
  2
gost_stone
 70
    0
 71
    0
 91
    1
 92
    0
 93
    6
 72
    1
 10
30.1
 20
20.8
 11
29.25
 21
20.8
 72
    1
 10
29.25
 20
20.8
 11
29.25
 21
20.2
 72
    1
 10
29.25
 20
20.2
 11
30.5
 21
20.2
 72
    1
 10
30.5
 20
20.2
 11
30.5
 21
22.7
 72
    1
 10
30.5
 20
22.7
 11
30.1
 21
22.7
 72
    1
 10
30.1
 20
22.7
 11
30.1
 21
20.8
 97
    0
 75
    0
 76
    1
 52
1.570796326794897
 41
0.1
 77
    0
 78
    0
 98
    0
  0
HATCH
  5
11F
100
AcDbEntity
  8
face
  6
ByLayer
 62
  256
370
   -1
100
AcDbHatch
 10
0
 20
0
 30
0
210
0
220
0
230
1
  2
gost_stone
 70
    0
 71
    0
 91
    1
 92
    0
 93
    4
 72
    1
 10
30.5
 20
22.7
 11
29.25
 21
22.7
 72
    1
 10
29.25
 20
22.7
 11
29.25
 21
24.6
 72
    1
 10
29.25
 20
24.6
 11
30.5
 21
24.6
 72
    1
 10
30.5
 20
24.6
 11
30.5
 21
22.7
 97
    0
 75
    0
 76
    1
 52
1.570796326794897
 41
0.1
 77
    0
 78
    0
 98
    0
  0
HATCH
  5
120
100
AcDbEntity
  8
body
  6
ByLayer
 62
  256
370
   -1
100
AcDbHatch
 10
0
 20
0
 30
0
210
0
220
0
230
1
  2
gost_stone
 70
    0
 71
    0
 91
    1
 92
    0
 93
    8
 72
    1
 10
28.8
 20
24.6
 11
28.3
 21
24.6
 72
    1
 10
28.3
 20
24.6
 11
27.9
 21
25.2
 72
    1
 10
27.9
 20
25.2
 11
27.4
 21
24.1
 72
    1
 10
27.4
 20
24.1
 11
27.1
 21
24.6
 72
    1
 10
27.1
 20
24.6
 11
25.8
 21
24.6
 72
    1
 10
25.8
 20
24.6
 11
25.8
 21
22.5
 72
    1
 10
25.8
 20
22.5
 11
28.8
 21
22.5
 72
    1
 10
28.8
 20
22.5
 11
28.8
 21
24.6
 97
    0
 75
    0
 76
    1
 52
0
 41
0.1
 77
    0
 78
    0
 98
    0
  0
HATCH
  5
121
100
AcDbEntity
  8
base
  6
ByLayer
 62
  256
370
   -1
100
AcDbHatch
 10
0
 20
0
 30
0
210
0
220
0
230
1
  2
gost_concrete
 70
    0
 71
    0
 91
    1
 92
    0
 93
    8
 72
    1
 10
30.2
 20
0
 11
25.2
 21
0
 72
    1
 10
25.2
 20
0
 11
25.2
 21
-2.9
 72
    1
 10
25.2
 20
-2.9
 11
26.7
 21
-2.9
 72
    1
 10
26.7
 20
-2.9
 11
27.2
 21
-3.9
 72
    1
 10
27.2
 20
-3.9
 11
28.2
 21
-1.9
 72
    1
 10
28.2
 20
-1.9
 11
28.7
 21
-2.9
 72
    1
 10
28.7
 20
-2.9
 11
30.2
 21
-2.9
 72
    1
 10
30.2
 20
-2.9
 11
30.2
 21
0
 97
    0
 75
    0
 76
    1
 52
0
 41
0.1
 77
    0
 78
    0
 98
    0
  0
HATCH
  5
122
100
AcDbEntity
  8
body
  6
ByLayer
 62
  256
370
   -1
100
AcDbHatch
 10
0
 20
0
 30
0
210
0
220
0
230
1
  2
gost_stone
 70
    0
 71
    0
 91
    1
 92
    0
 93
    8
 72
    1
 10
-4.000000000000004
 20
-10
 11
-0.6000000000000023
 21
-10
 72
    1
 10
-0.6000000000000023
 20
-10
 11
-0.6000000000000023
 21
-13
 72
    1
 10
-0.6000000000000023
 20
-13
 11
-4.000000000000004
 21
-13
 72
    1
 10
-4.000000000000004
 20
-13
 11
-4.000000000000004
 21
-12.5
 72
    1
 10
-4.000000000000004
 20
-12.5
 11
-3.500000000000004
 21
-12.2
 72
    1
 10
-3.500000000000004
 20
-12.2
 11
-4.500000000000004
 21
-11.6
 72
    1
 10
-4.500000000000004
 20
-11.6
 11
-4.000000000000004
 21
-11.3
 72
    1
 10
-4.000000000000004
 20
-11.3
 11
-4.000000000000004
 21
-10
 97
    0
 75
    0
 76
    1
 52
4.71238898038469
 41
0.1
 77
    0
 78
    0
 98
    0
  0
HATCH
  5
123
100
AcDbEntity
  8
body
  6
ByLayer
 62
  256
370
   -1
100
AcDbHatch
 10
0
 20
0
 30
0
210
0
220
0
230
1
  2
gost_stone
 70
    0
 71
    0
 91
    1
 92
    0
 93
    4
 72
    1
 10
-0.5999999999999988
 20
-13.45
 11
-1.099999999999998
 21
-13.45
 72
    1
 10
-1.099999999999998
 20
-13.45
 11
-1.099999999999998
 21
-13
 72
    1
 10
-1.099999999999998
 20
-13
 11
-0.5999999999999988
 21
-13
 72
    1
 10
-0.5999999999999988
 20
-13
 11
-0.5999999999999988
 21
-13.45
 97
    0
 75
    0
 76
    1
 52
1.570796326794897
 41
0.1
 77
    0
 78
    0
 98
    0
  0
HATCH
  5
124
100
AcDbEntity
  8
face
  6
ByLayer
 62
  256
370
   -1
100
AcDbHatch
 10
0
 20
0
 30
0
210
0
220
0
230
1
  2
gost_stone
 70
    0
 71
    0
 91
    1
 92
    0
 93
    4
 72
    1
 10
-0.3999999999999997
 20
-13.45
 11
-0.3999999999999997
 21
-14.7
 72
    1
 10
-0.3999999999999997
 20
-14.7
 11
-4.000000000000005
 21
-14.7
 72
    1
 10
-4.000000000000005
 20
-14.7
 11
-4.000000000000004
 21
-13.45
 72
    1
 10
-4.000000000000004
 20
-13.45
 11
-0.3999999999999997
 21
-13.45
 97
    0
 75
    0
 76
    1
 52
1.570796326794897
 41
0.1
 77
    0
 78
    0
 98
    0
  0
HATCH
  5
125
100
AcDbEntity
  8
body
  6
ByLayer
 62
  256
370
   -1
100
AcDbHatch
 10
0
 20
0
 30
0
210
0
220
0
230
1
  2
gost_stone
 70
    0
 71
    0
 91
    1
 92
    0
 93
    4
 72
    1
 10
10.59999999999999
 20
-13
 11
10.59999999999999
 21
-13.45
 72
    1
 10
10.59999999999999
 20
-13.45
 11
11.1
 21
-13.45
 72
    1
 10
11.1
 20
-13.45
 11
11.1
 21
-13
 72
    1
 10
11.1
 20
-13
 11
10.59999999999999
 21
-13
 97
    0
 75
    0
 76
    1
 52
4.71238898038469
 41
0.1
 77
    0
 78
    0
 98
    0
  0
HATCH
  5
126
100
AcDbEntity
  8
body
  6
ByLayer
 62
  256
370
   -1
100
AcDbHatch
 10
0
 20
0
 30
0
210
0
220
0
230
1
  2
gost_stone
 70
    0
 71
    0
 91
    1
 92
    0
 93
    8
 72
    1
 10
10.6
 20
-13
 11
14
 21
-13
 72
    1
 10
14
 20
-13
 11
14
 21
-12.5
 72
    1
 10
14
 20
-12.5
 11
13.5
 21
-12.2
 72
    1
 10
13.5
 20
-12.2
 11
14.5
 21
-11.6
 72
    1
 10
14.5
 20
-11.6
 11
14
 21
-11.3
 72
    1
 10
14
 20
-11.3
 11
14
 21
-10
 72
    1
 10
14
 20
-10
 11
10.6
 21
-10
 72
    1
 10
10.6
 20
-10
 11
10.6
 21
-13
 97
    0
 75
    0
 76
    1
 52
1.570796326794897
 41
0.1
 77
    0
 78
    0
 98
    0
  0
HATCH
  5
127
100
AcDbEntity
  8
face
  6
ByLayer
 62
  256
370
   -1
100
AcDbHatch
 10
0
 20
0
 30
0
210
0
220
0
230
1
  2
gost_stone
 70
    0
 71
    0
 91
    1
 92
    0
 93
    4
 72
    1
 10
14.00000000000001
 20
-14.7
 11
14
 21
-13.45
 72
    1
 10
14
 20
-13.45
 11
10.4
 21
-13.45
 72
    1
 10
10.4
 20
-13.45
 11
10.4
 21
-14.7
 72
    1
 10
10.4
 20
-14.7
 11
14.00000000000001
 21
-14.7
 97
    0
 75
    0
 76
    1
 52
4.71238898038469
 41
0.1
 77
    0
 78
    0
 98
    0
  0
LINE
  5
128
100
AcDbEntity
  8
dimensions
  6
ByLayer
 62
  256
370
   70
100
AcDbLine
 10
3.5
 20
-9
 11
6.5
 21
-9
  0
MTEXT
  5
129
100
AcDbEntity
  8
dimensions
  6
ByLayer
 62
  256
370
   -1
100
AcDbMText
 10
4.922222222222224
 20
-8.300000000000001
 30
0
 40
1
 41
2.444444444444445
 71
    5
 72
    1
  1
A-A
  7
unicode
210
0
220
0
230
1
 50
360
 73
    2
 44
1
  0
LINE
  5
12A
100
AcDbEntity
  8
face
  6
ByLayer
 62
  256
370
   -1
100
AcDbLine
 10
14
 20
-13.45
 11
14
 21
-13
  0
LWPOLYLINE
  5
12B
100
AcDbEntity
  8
face
  6
ByLayer
 62
  256
370
   -1
100
AcDbPolyline
 90
    4
 70
    1
 43
0
 10
10.4
 20
-13.45
 10
10.4
 20
-14.7
 10
14.00000000000001
 20
-14.7
 10
14
 20
-13.45
  0
LWPOLYLINE
  5
12C
100
AcDbEntity
  8
body
  6
ByLayer
 62
  256
370
   -1
100
AcDbPolyline
 90
    9
 70
    0
 43
0
 10
10.6
 20
-10
 10
10.6
 20
-13
 10
14
 20
-13
 10
14
 20
-12.5
 10
13.5
 20
-12.2
 10
14.5
 20
-11.6
 10
14
 20
-11.3
 10
14
 20
-10
 10
10.6
 20
-10
  0
LWPOLYLINE
  5
12D
100
AcDbEntity
  8
body
  6
ByLayer
 62
  256
370
   -1
100
AcDbPolyline
 90
    4
 70
    1
 43
0
 10
10.59999999999999
 20
-13
 10
10.59999999999999
 20
-13.45
 10
11.1
 20
-13.45
 10
11.1
 20
-13
  0
LWPOLYLINE
  5
12E
100
AcDbEntity
  8
face
  6
ByLayer
 62
  256
370
   -1
100
AcDbPolyline
 90
    4
 70
    1
 43
0
 10
-0.3999999999999997
 20
-13.45
 10
-0.3999999999999997
 20
-14.7
 10
-4.000000000000005
 20
-14.7
 10
-4.000000000000004
 20
-13.45
  0
LINE
  5
12F
100
AcDbEntity
  8
face
  6
ByLayer
 62
  256
370
   -1
100
AcDbLine
 10
-0.3999999999999997
 20
-13.45
 11
10.4
 21
-13.45
  0
LINE
  5
130
100
AcDbEntity
  8
face
  6
ByLayer
 62
  256
370
   -1
100
AcDbLine
 10
10.4
 20
-14.7
 11
-0.3999999999999997
 21
-14.7
  0
LWPOLYLINE
  5
131
100
AcDbEntity
  8
body
  6
ByLayer
 62
  256
370
   -1
100
AcDbPolyline
 90
    9
 70
    0
 43
0
 10
-0.6000000000000023
 20
-10
 10
-0.6000000000000023
 20
-13
 10
-4.000000000000004
 20
-13
 10
-4.000000000000004
 20
-12.5
 10
-3.500000000000004
 20
-12.2
 10
-4.500000000000004
 20
-11.6
 10
-4.000000000000004
 20
-11.3
 10
-4.000000000000004
 20
-10
 10
-0.6000000000000023
 20
-10
  0
LINE
  5
132
100
AcDbEntity
  8
body
  6
ByLayer
 62
  256
370
   -1
100
AcDbLine
 10
10.6
 20
-13
 11
-0.5999999999999988
 21
-13
  0
LINE
  5
133
100
AcDbEntity
  8
body
  6
ByLayer
 62
  256
370
   -1
100
AcDbLine
 10
-0.6000000000000023
 20
-10
 11
10.6
 21
-10
  0
LWPOLYLINE
  5
134
100
AcDbEntity
  8
body
  6
ByLayer
 62
  256
370
   -1
100
AcDbPolyline
 90
    4
 70
    1
 43
0
 10
-0.5999999999999988
 20
-13
 10
-0.5999999999999988
 20
-13.45
 10
-1.099999999999998
 20
-13.45
 10
-1.099999999999998
 20
-13
  0
DIMENSION
  5
135
100
AcDbEntity
  8
dimensions
  6
ByLayer
 62
  256
370
   -1
100
AcDbDimension
  2
*D1
 10
9.6
 20
-17
 30
0
 11
10.5
 21
-16
 31
0
 70
   32
  1
<>%%P0,5
 71
    5
  3
Standard
 53
0
210
0
220
0
230
1
100
AcDbAlignedDimension
 13
10.4
 23
-14.7
 33
0
 14
10.59999999999999
 24
-13.45
 34
0
100
AcDbRotatedDimension
  0
DIMENSION
  5
136
100
AcDbEntity
  8
dimensions
  6
ByLayer
 62
  256
370
   -1
100
AcDbDimension
  2
*D2
 10
0
 20
-17
 30
0
 11
-5
 21
-16
 31
0
 70
   32
  1
<>%%P0,5
 71
    5
  3
Standard
 53
0
210
0
220
0
230
1
100
AcDbAlignedDimension
 13
-0.3999999999999996
 23
-14.7
 33
0
 14
-0.5999999999999988
 24
-13.45
 34
0
100
AcDbRotatedDimension
  0
DIMENSION
  5
137
100
AcDbEntity
  8
dimensions
  6
ByLayer
 62
  256
370
   -1
100
AcDbDimension
  2
*D3
 10
9.000000000000005
 20
-17
 30
0
 11
5.000000000000003
 21
-16
 31
0
 70
   32
  1
<>%%P0,5
 71
    5
  3
Standard
 53
0
210
0
220
0
230
1
100
AcDbAlignedDimension
 13
-0.3999999999999952
 23
-14.7
 33
0
 14
10.4
 24
-14.7
 34
0
100
AcDbRotatedDimension
  0
DIMENSION
  5
138
100
AcDbEntity
  8
dimensions
  6
ByLayer
 62
  256
370
   -1
100
AcDbDimension
  2
*D4
 10
9.600000000000003
 20
-12
 30
0
 11
4.999999999999998
 21
-11
 31
0
 70
   32
  1
<>%%P0,5
 71
    5
  3
Standard
 53
0
210
0
220
0
230
1
100
AcDbAlignedDimension
 13
-0.6000000000000023
 23
-10
 33
0
 14
10.6
 24
-10
 34
0
100
AcDbRotatedDimension
  0
LINE
  5
139
100
AcDbEntity
  8
dimensions
  6
ByLayer
 62
  256
370
   70
100
AcDbLine
 10
-6
 20
10.1
 11
-7
 21
10.1
  0
LEADER
  5
13A
100
AcDbEntity
  8
dimensions
  6
ByLayer
 62
  256
370
   -1
100
AcDbLeader
  3
Standard
 71
    1
 72
    0
 73
    3
 74
    0
 75
    0
 40
1
 41
10
 76
2
 76
2
 10
-6.3
 20
10.1
 30
0
 10
-6.3
 20
12.1
 30
0
  0
MTEXT
  5
13B
100
AcDbEntity
  8
dimensions
  6
ByLayer
 62
  256
370
   -1
100
AcDbMText
 10
-7
 20
11.6
 30
0
 40
1
 41
0.6666666666666666
 71
    5
 72
    1
  1
A
  7
unicode
210
0
220
0
230
1
 50
0
 73
    2
 44
1
  0
LINE
  5
13C
100
AcDbEntity
  8
dimensions
  6
ByLayer
 62
  256
370
   70
100
AcDbLine
 10
16
 20
10.1
 11
17
 21
10.1
  0
LEADER
  5
13D
100
AcDbEntity
  8
dimensions
  6
ByLayer
 62
  256
370
   -1
100
AcDbLeader
  3
Standard
 71
    1
 72
    0
 73
    3
 74
    0
 75
    0
 40
1
 41
10
 76
2
 76
2
 10
16.3
 20
10.1
 30
0
 10
16.3
 20
12.1
 30
0
  0
MTEXT
  5
13E
100
AcDbEntity
  8
dimensions
  6
ByLayer
 62
  256
370
   -1
100
AcDbMText
 10
17
 20
11.6
 30
0
 40
1
 41
0.6666666666666666
 71
    5
 72
    1
  1
A
  7
unicode
210
0
220
0
230
1
 50
360
 73
    2
 44
1
  0
LINE
  5
13F
100
AcDbEntity
  8
dimensions
  6
ByLayer
 62
  256
370
   70
100
AcDbLine
 10
5
 20
-4.9
 11
5
 21
-5.9
  0
LEADER
  5
140
100
AcDbEntity
  8
dimensions
  6
ByLayer
 62
  256
370
   -1
100
AcDbLeader
  3
Standard
 71
    1
 72
    0
 73
    3
 74
    0
 75
    0
 40
1
 41
10
 76
2
 76
2
 10
5
 20
-5.200000000000001
 30
0
 10
3
 20
-5.200000000000001
 30
0
  0
MTEXT
  5
141
100
AcDbEntity
  8
dimensions
  6
ByLayer
 62
  256
370
   -1
100
AcDbMText
 10
3.477777777777778
 20
-5.9
 30
0
 40
1
 41
0.5555555555555556
 71
    5
 72
    1
  1
B
  7
unicode
210
0
220
0
230
1
 50
0
 73
    2
 44
1
  0
LEADER
  5
142
100
AcDbEntity
  8
dimensions
  6
ByLayer
 62
  256
370
   -1
100
AcDbLeader
  3
Standard
 71
    1
 72
    0
 73
    3
 74
    0
 75
    0
 40
1
 41
10
 76
3
 76
3
 10
12
 20
-1.9
 30
0
 10
15
 20
-4.9
 30
0
 10
24
 20
-4.9
 30
0
  0
LEADER
  5
143
100
AcDbEntity
  8
dimensions
  6
ByLayer
 62
  256
370
   -1
100
AcDbLeader
  3
Standard
 71
    1
 72
    0
 73
    3
 74
    0
 75
    0
 40
1
 41
10
 76
2
 76
2
 10
26
 20
-1.9
 30
0
 10
24
 20
-4.9
 30
0
  0
MTEXT
  5
144
100
AcDbEntity
  8
dimensions
  6
ByLayer
 62
  256
370
   -1
100
AcDbMText
 10
19.56111111111111
 20
-4.2
 30
0
 40
1
 41
7.388888888888889
 71
    5
 72
    1
  1

  7
unicode
210
0
220
0
230
1
 50
0
 73
    2
 44
1
  0
LWPOLYLINE
  5
145
100
AcDbEntity
  8
base
  6
ByLayer
 62
  256
370
   -1
100
AcDbPolyline
 90
    9
 70
    0
 43
0
 10
-3.999999999999998
 20
-3.635980405647388e-15
 10
-4
 20
-2.9
 10
4
 20
-2.9
 10
4.5
 20
-3.9
 10
5.5
 20
-1.9
 10
6
 20
-2.9
 10
14
 20
-2.9
 10
14
 20
0
 10
-3.999999999999998
 20
-3.635980405647388e-15
  0
LWPOLYLINE
  5
146
100
AcDbEntity
  8
base
  6
ByLayer
 62
  256
370
   -1
100
AcDbPolyline
 90
    9
 70
    0
 43
0
 10
25.2
 20
0
 10
25.2
 20
-2.9
 10
26.7
 20
-2.9
 10
27.2
 20
-3.9
 10
28.2
 20
-1.9
 10
28.7
 20
-2.9
 10
30.2
 20
-2.9
 10
30.2
 20
0
 10
25.2
 20
0
  0
DIMENSION
  5
147
100
AcDbEntity
  8
dimensions
  6
ByLayer
 62
  256
370
   -1
100
AcDbDimension
  2
*D10
 10
30.5
 20
-4.9
 30
0
 11
30.35
 21
-3.9
 31
0
 70
   32
 71
    5
  3
Standard
 53
0
210
0
220
0
230
1
100
AcDbAlignedDimension
 13
30.2
 23
-8.326672684688674e-17
 33
0
 14
30.5
 24
-8.326672684688674e-17
 34
0
100
AcDbRotatedDimension
  0
LWPOLYLINE
  5
148
100
AcDbEntity
  8
base
  6
ByLayer
 62
  256
370
   -1
100
AcDbPolyline
 90
    9
 70
    0
 43
0
 10
40
 20
-2.775557561562891e-17
 10
40
 20
-2.9
 10
48
 20
-2.9
 10
48.5
 20
-3.9
 10
49.5
 20
-1.9
 10
50
 20
-2.9
 10
58
 20
-2.9
 10
58
 20
-2.775557561562891e-17
 10
40
 20
-2.775557561562891e-17
  0
DIMENSION
  5
149
100
AcDbEntity
  8
dimensions
  6
ByLayer
 62
  256
370
   -1
100
AcDbDimension
  2
*D11
 10
54.6
 20
-6.899999999999999
 30
0
 11
49
 21
-5.899999999999999
 31
0
 70
   32
  1
<>%%P0,5
 71
    5
 72
    0
  3
Standard
 53
0
210
0
220
0
230
1
100
AcDbAlignedDimension
 13
43.4
 23
-2.775557561562891e-17
 33
0
 14
54.6
 24
-2.498001805406602e-16
 34
0
100
AcDbRotatedDimension
  0
MTEXT
  5
14A
100
AcDbEntity
  8
dimensions
  6
ByLayer
 62
  256
370
   -1
100
AcDbMText
 10
25.06250000000004
 20
37.95
 30
0
 40
1.5
 41
14.87500000000007
 71
    5
 72
    1
  1
i ii
  7
cyrillic_ii
210
0
220
0
230
1
 50
0
 73
    2
 44
1
  0
LINE
  5
14B
100
AcDbEntity
  8
dimensions
  6
ByLayer
 62
  256
370
   -1
100
AcDbLine
 10
17.4
 20
36.90000000000001
 11
32.8
 21
36.90000000000001
  0
MTEXT
  5
14C
100
AcDbEntity
  8
dimensions
  6
ByLayer
 62
  256
370
   -1
100
AcDbMText
 10
19.12222222222218
 20
33.2
 30
0
 40
1
 41
27.3055555555556
 71
    4
 72
    1
  1
   5   \Pi i  . i AEROC.
  7
cyrillic_ii
210
0
220
0
230
1
 50
0
 73
    2
 44
1
  0
MTEXT
  5
14D
100
AcDbEntity
  8
dimensions
  6
ByLayer
 62
  256
370
   -1
100
AcDbMText
 10
49.32166666666667
 20
29.1
 30
0
 40
1
 41
11.99888888888889
 71
    5
 72
    1
  1
 (. II)
  7
unicode
210
0
220
0
230
1
 50
360
 73
    2
 44
1
  0
LINE
  5
14E
100
AcDbEntity
  8
dimensions
  6
DASHDOT2
 62
  256
370
   -1
100
AcDbLine
 10
5
 20
-1.9
 11
4.999999999999999
 21
23.6
  0
LINE
  5
14F
100
AcDbEntity
  8
dimensions
  6
ByLayer
 62
  256
370
   70
100
AcDbLine
 10
4.999999999999999
 20
27.6
 11
4.999999999999999
 21
26.6
  0
LEADER
  5
150
100
AcDbEntity
  8
dimensions
  6
ByLayer
 62
  256
370
   -1
100
AcDbLeader
  3
Standard
 71
    1
 72
    0
 73
    3
 74
    0
 75
    0
 40
1
 41
10
 76
2
 76
2
 10
4.999999999999999
 20
26.9
 30
0
 10
2.999999999999999
 20
26.9
 30
0
  0
MTEXT
  5
151
100
AcDbEntity
  8
dimensions
  6
ByLayer
 62
  256
370
   -1
100
AcDbMText
 10
3.477777777777777
 20
27.6
 30
0
 40
1
 41
0.5555555555555556
 71
    5
 72
    1
  1
B
  7
unicode
210
0
220
0
230
1
 50
0
 73
    2
 44
1
  0
LWPOLYLINE
  5
152
100
AcDbEntity
  8
face
  6
CONTINUOUS
 62
    3
370
   50
100
AcDbPolyline
 90
    6
 70
    1
 43
0
 10
29.25
 20
20.2
 10
30.5
 20
20.2
 10
30.5
 20
22.7
 10
30.1
 20
22.7
 10
30.1
 20
20.8
 10
29.25
 20
20.8
  0
LWPOLYLINE
  5
153
100
AcDbEntity
  8
concrete
  6
ByLayer
 62
  256
370
   -1
100
AcDbPolyline
 90
    7
 70
    0
 43
0
 10
28.8
 20
22.5
 10
30.1
 20
22.5
 10
30.1
 20
20.80000000000001
 10
29.25
 20
20.8
 10
29.25
 20
20.5
 10
28.8
 20
20.5
 10
28.8
 20
22.5
  0
LINE
  5
154
100
AcDbEntity
  8
face
  6
ByLayer
 62
  256
370
   -1
100
AcDbLine
 10
29.25
 20
24.6
 11
28.8
 21
24.6
  0
LWPOLYLINE
  5
155
100
AcDbEntity
  8
body
  6
ByLayer
 62
  256
370
   -1
100
AcDbPolyline
 90
    9
 70
    0
 43
0
 10
25.8
 20
22.5
 10
28.8
 20
22.5
 10
28.8
 20
24.6
 10
28.3
 20
24.6
 10
27.9
 20
25.2
 10
27.4
 20
24.1
 10
27.1
 20
24.6
 10
25.8
 20
24.6
 10
25.8
 20
22.5
  0
LWPOLYLINE
  5
156
100
AcDbEntity
  8
face
  6
ByLayer
 62
  256
370
   -1
100
AcDbPolyline
 90
    4
 70
    1
 43
0
 10
29.25
 20
24.6
 10
30.5
 20
24.6
 10
30.5
 20
22.7
 10
29.25
 20
22.7
  0
LINE
  5
157
100
AcDbEntity
  8
dimensions
  6
ByLayer
 62
  256
370
   70
100
AcDbLine
 10
27
 20
27.6
 11
30
 21
27.6
  0
MTEXT
  5
158
100
AcDbEntity
  8
dimensions
  6
ByLayer
 62
  256
370
   -1
100
AcDbMText
 10
28.42222222222222
 20
28.3
 30
0
 40
1
 41
2.222222222222222
 71
    5
 72
    1
  1
B-B
  7
unicode
210
0
220
0
230
1
 50
360
 73
    2
 44
1
  0
LEADER
  5
159
100
AcDbEntity
  8
dimensions
  6
ByLayer
 62
  256
370
   -1
100
AcDbLeader
  3
Standard
 71
    1
 72
    0
 73
    3
 74
    0
 75
    0
 40
1
 41
10
 76
3
 76
3
 10
55
 20
21.6
 30
0
 10
57
 20
26.6
 30
0
 10
63
 20
26.6
 30
0
  0
LEADER
  5
15A
100
AcDbEntity
  8
dimensions
  6
ByLayer
 62
  256
370
   -1
100
AcDbLeader
  3
Standard
 71
    1
 72
    0
 73
    3
 74
    0
 75
    0
 40
1
 41
10
 76
3
 76
3
 10
50
 20
21.6
 30
0
 10
52
 20
26.6
 30
0
 10
57
 20
26.6
 30
0
  0
LEADER
  5
15B
100
AcDbEntity
  8
dimensions
  6
ByLayer
 62
  256
370
   -1
100
AcDbLeader
  3
Standard
 71
    1
 72
    0
 73
    3
 74
    0
 75
    0
 40
1
 41
10
 76
3
 76
3
 10
45
 20
21.6
 30
0
 10
47
 20
26.6
 30
0
 10
52
 20
26.6
 30
0
  0
LINE
  5
15C
100
AcDbEntity
  8
dimensions
  6
ByLayer
 62
  256
370
   70
100
AcDbLine
 10
43
 20
28.6
 11
56
 21
28.6
  0
LEADER
  5
15D
100
AcDbEntity
  8
dimensions
  6
ByLayer
 62
  256
370
   -1
100
AcDbLeader
  3
Standard
 71
    1
 72
    0
 73
    3
 74
    0
 75
    0
 40
1
 41
10
 76
2
 76
2
 10
-1.000000000000001
 20
19.6
 30
0
 10
19
 20
31.3
 30
0
  0
LEADER
  5
15E
100
AcDbEntity
  8
dimensions
  6
ByLayer
 62
  256
370
   -1
100
AcDbLeader
  3
Standard
 71
    1
 72
    0
 73
    3
 74
    0
 75
    0
 40
1
 41
10
 76
3
 76
3
 10
11
 20
19.6
 30
0
 10
19
 20
31.3
 30
0
 10
47
 20
31.3
 30
0
  0
CIRCLE
  5
15F
100
AcDbEntity
  8
dimensions
  6
ByLayer
 62
  256
370
   -1
100
AcDbCircle
 10
28
 20
22.6
 40
3.605551275463989
  0
DIMENSION
  5
160
100
AcDbEntity
  8
dimensions
  6
ByLayer
 62
  256
370
   -1
100
AcDbDimension
  2
*D18
 10
34
 20
20.6
 30
0
 11
33
 21
20.35
 31
0
 70
   32
  1
<>%%P0,5
 71
    5
 72
    0
  3
Standard
 53
0
210
0
220
0
230
1
100
AcDbAlignedDimension
 13
29.25
 23
20.5
 33
0
 14
30.5
 24
20.2
 34
0
 50
90
100
AcDbRotatedDimension
  0
LEADER
  5
161
100
AcDbEntity
  8
dimensions
  6
ByLayer
 62
  256
370
   -1
100
AcDbLeader
  3
Standard
 71
    1
 72
    0
 73
    3
 74
    0
 75
    0
 40
1
 41
10
 76
3
 76
3
 10
31
 20
24.6
 30
0
 10
33
 20
26.6
 30
0
 10
35
 20
26.6
 30
0
  0
LEADER
  5
162
100
AcDbEntity
  8
dimensions
  6
ByLayer
 62
  256
370
   -1
100
AcDbLeader
  3
Standard
 71
    1
 72
    0
 73
    3
 74
    0
 75
    0
 40
1
 41
10
 76
3
 76
3
 10
-8.326672684688674e-16
 20
21.6
 30
0
 10
-3.000000000000001
 20
26.6
 30
0
 10
-5.000000000000001
 20
26.6
 30
0
  0
MTEXT
  5
163
100
AcDbEntity
  8
dimensions
  6
ByLayer
 62
  256
370
   -1
100
AcDbMText
 10
34.07777777777778
 20
27.4
 30
0
 40
1
 41
0.3333333333333333
 71
    5
 72
    1
  1
II
  7
unicode
210
0
220
0
230
1
 50
0
 73
    2
 44
1
  0
MTEXT
  5
164
100
AcDbEntity
  8
dimensions
  6
ByLayer
 62
  256
370
   -1
100
AcDbMText
 10
-3.922222222222223
 20
27.3
 30
0
 40
1
 41
0
 71
    5
 72
    1
  1
I
  7
unicode
210
0
220
0
230
1
 50
0
 73
    2
 44
1
  0
LWPOLYLINE
  5
165
100
AcDbEntity
  8
u-block
  6
ByLayer
 62
  256
370
   -1
100
AcDbPolyline
 90
    4
 70
    1
 43
0
 10
41.5
 20
22.5
 10
46.49999999999999
 20
22.5
 10
46.49999999999999
 20
20.5
 10
41.5
 20
20.5
  0
LWPOLYLINE
  5
166
100
AcDbEntity
  8
u-block
  6
ByLayer
 62
  256
370
   -1
100
AcDbPolyline
 90
    4
 70
    1
 43
0
 10
46.49999999999999
 20
22.5
 10
51.49999999999999
 20
22.50000000000001
 10
51.49999999999999
 20
20.50000000000001
 10
46.49999999999999
 20
20.5
  0
LWPOLYLINE
  5
167
100
AcDbEntity
  8
u-block
  6
ByLayer
 62
  256
370
   -1
100
AcDbPolyline
 90
    4
 70
    1
 43
0
 10
51.49999999999999
 20
22.50000000000001
 10
56.49999999999999
 20
22.5
 10
56.49999999999999
 20
20.5
 10
51.49999999999999
 20
20.50000000000001
  0
DIMENSION
  5
168
100
AcDbEntity
  8
dimensions
  6
ByLayer
 62
  256
370
   -1
100
AcDbDimension
  2
*D21
 10
43.4
 20
17.6
 30
0
 11
42.45
 21
18.6
 31
0
 70
   32
  1
<>%%P2
 71
    5
 72
    0
  3
Standard
 53
0
210
0
220
0
230
1
100
AcDbAlignedDimension
 13
41.5
 23
20.5
 33
0
 14
43.4
 24
20.5
 34
0
100
AcDbRotatedDimension
  0
DIMENSION
  5
169
100
AcDbEntity
  8
dimensions
  6
ByLayer
 62
  256
370
   -1
100
AcDbDimension
  2
*D22
 10
56.6
 20
17.6
 30
0
 11
55.54999999999999
 21
18.6
 31
0
 70
   32
  1
<>%%P2
 71
    5
 72
    0
  3
Standard
 53
0
210
0
220
0
230
1
100
AcDbAlignedDimension
 13
54.59999999999999
 23
20.5
 33
0
 14
56.49999999999999
 24
20.5
 34
0
100
AcDbRotatedDimension
  0
LWPOLYLINE
  5
16A
100
AcDbEntity
  8
face
  6
ByLayer
 62
  256
370
   -1
100
AcDbPolyline
 90
    4
 70
    1
 43
0
 10
-0.399999999999998
 20
-3.635980405647388e-15
 10
10.4
 20
-3.635980405647388e-15
 10
10.4
 20
20.2
 10
-0.4
 20
20.2
  0
LWPOLYLINE
  5
16B
100
AcDbEntity
  8
body
  6
DASHED2
 62
  256
370
   -1
100
AcDbPolyline
 90
    5
 70
    1
 43
0
 10
-0.5999999999999974
 20
-3.858025010572419e-15
 10
10.6
 20
-3.858025010572419e-15
 10
10.6
 20
20.5
 10
-0.6000000000000001
 20
20.5
 10
-0.6000000000000001
 20
20.5
  0
LWPOLYLINE
  5
16C
100
AcDbEntity
  8
body
  6
DASHED2
 62
  256
370
   -1
100
AcDbPolyline
 90
    5
 70
    1
 43
0
 10
-0.5999999999999978
 20
-3.663735981263017e-15
 10
-1.099999999999998
 20
-3.663735981263017e-15
 10
-1.100000000000001
 20
20.5
 10
-0.6000000000000003
 20
20.5
 10
-0.6000000000000003
 20
20.5
  0
LWPOLYLINE
  5
16D
100
AcDbEntity
  8
body
  6
DASHED2
 62
  256
370
   -1
100
AcDbPolyline
 90
    5
 70
    1
 43
0
 10
11.1
 20
-1.110223024625157e-16
 10
10.6
 20
-1.110223024625157e-16
 10
10.6
 20
20.5
 10
11.1
 20
20.5
 10
11.1
 20
20.5
  0
LWPOLYLINE
  5
16E
100
AcDbEntity
  8
face
  6
CONTINUOUS
 62
    3
370
   13
100
AcDbPolyline
 90
   17
 70
    0
 43
0
 10
-4.000000000000001
 20
24.6
 10
3.999999999999999
 20
24.6
 10
4.499999999999999
 20
25.6
 10
5.499999999999999
 20
23.6
 10
5.999999999999999
 20
24.6
 10
14
 20
24.6
 10
14
 20
11.1
 10
13
 20
10.6
 10
15
 20
9.6
 10
14
 20
9.1
 10
14
 20
0
 10
-3.999999999999998
 20
-3.635980405647388e-15
 10
-4
 20
9.1
 10
-5
 20
9.6
 10
-3
 20
10.6
 10
-4
 20
11.1
 10
-4.000000000000001
 20
24.6
  0
LWPOLYLINE
  5
16F
100
AcDbEntity
  8
face
  6
ByLayer
 62
  256
370
   -1
100
AcDbPolyline
 90
    4
 70
    1
 43
0
 10
30.5
 20
-8.326672684688674e-17
 10
29.25
 20
-8.326672684688674e-17
 10
29.25
 20
20.2
 10
30.5
 20
20.2
  0
LWPOLYLINE
  5
170
100
AcDbEntity
  8
body
  6
ByLayer
 62
  256
370
   -1
100
AcDbPolyline
 90
    4
 70
    1
 43
0
 10
28.8
 20
-2.775557561562891e-17
 10
25.8
 20
-2.775557561562891e-17
 10
25.8
 20
20.5
 10
28.8
 20
20.5
  0
LWPOLYLINE
  5
171
100
AcDbEntity
  8
body
  6
ByLayer
 62
  256
370
   -1
100
AcDbPolyline
 90
   17
 70
    0
 43
0
 10
40
 20
24.6
 10
48
 20
24.6
 10
48.5
 20
25.6
 10
49.5
 20
23.6
 10
50
 20
24.6
 10
58
 20
24.6
 10
58
 20
11.1
 10
57
 20
10.6
 10
59
 20
9.6
 10
58
 20
9.1
 10
58
 20
-2.775557561562891e-17
 10
40
 20
-2.775557561562891e-17
 10
40
 20
9.1
 10
39
 20
9.6
 10
41
 20
10.6
 10
40
 20
11.1
 10
40
 20
24.6
  0
LWPOLYLINE
  5
172
100
AcDbEntity
  8
body
  6
ByLayer
 62
  256
370
   -1
100
AcDbPolyline
 90
    5
 70
    1
 43
0
 10
43.4
 20
-2.498001805406602e-16
 10
54.6
 20
-2.498001805406602e-16
 10
54.6
 20
20.5
 10
43.4
 20
20.5
 10
43.4
 20
20.5
  0
DIMENSION
  5
173
100
AcDbEntity
  8
dimensions
  6
ByLayer
 62
  256
370
   -1
100
AcDbDimension
  2
*D23
 10
24
 20
21
 30
0
 11
23
 21
10.25
 31
0
 70
   32
 71
    5
  3
Standard
 53
0
210
0
220
0
230
1
100
AcDbAlignedDimension
 13
25.8
 23
0
 33
0
 14
25.8
 24
20.5
 34
0
 50
90
100
AcDbRotatedDimension
  0
DIMENSION
  5
174
100
AcDbEntity
  8
dimensions
  6
ByLayer
 62
  256
370
   -1
100
AcDbDimension
  2
*D24
 10
38
 20
0.1000000000000002
 30
0
 11
37
 21
10.25
 31
0
 70
   32
 71
    5
 72
    0
  3
Standard
 53
0
210
0
220
0
230
1
100
AcDbAlignedDimension
 13
41.40000000000001
 23
20.5
 33
0
 14
43.4
 24
-2.498001805406602e-16
 34
0
 50
90
100
AcDbRotatedDimension
  0
DIMENSION
  5
175
100
AcDbEntity
  8
dimensions
  6
ByLayer
 62
  256
370
   -1
100
AcDbDimension
  2
*D25
 10
-8.000000000000004
 20
0.1000000000000009
 30
0
 11
-9.000000000000004
 21
10.1
 31
0
 70
   32
  1
<>+1
 71
    5
  3
Standard
 53
0
210
0
220
0
230
1
100
AcDbAlignedDimension
 13
-0.4
 23
20.2
 33
0
 14
-0.399999999999998
 24
-3.635980405647388e-15
 34
0
 50
90
100
AcDbRotatedDimension
  0
MTEXT
  5
176
100
AcDbEntity
  8
dimensions
  6
ByLayer
 62
  256
370
   -1
100
AcDbMText
 10
62.9
 20
26.9
 30
0
 40
1
 41
13.61111111111111
 71
    9
 72
    1
  1
u- 302050 
  7
unicode
210
0
220
0
230
1
 50
360
 73
    2
 44
1
  0
LWPOLYLINE
  5
177
100
AcDbEntity
  8
u-block
  6
CONTINUOUS
 62
    6
370
   50
100
AcDbPolyline
 90
    8
 70
    1
 43
0
 10
25.8
 20
20.5
 10
28.8
 20
20.5
 10
28.8
 20
22.5
 10
28.1
 20
22.5
 10
28
 20
21.1
 10
26.4
 20
21.1
 10
26.3
 20
22.5
 10
25.8
 20
22.5
  0
LWPOLYLINE
  5
178
100
AcDbEntity
  8
concrete
  6
ByLayer
 62
  256
370
   -1
100
AcDbPolyline
 90
    5
 70
    0
 43
0
 10
26.3
 20
22.5
 10
28.1
 20
22.5
 10
28
 20
21.1
 10
26.4
 20
21.1
 10
26.3
 20
22.5
  0
MTEXT
  5
179
100
AcDbEntity
  8
dimensions
  6
ByLayer
 62
  256
370
   -1
100
AcDbMText
 10
20.75
 20
-11
 30
0
 40
1
 41
40.08333333333343
 71
    1
 72
    1
  3
1.  I      \P  i  II.\P2.  II ()  i . 14.\P3. i 
  1
i i %%P1 .\P4.    u-   .\P5. * - i   i
  7
cyrillic_ii
210
0
220
0
230
1
 50
0
 73
    2
 44
1
  0
MTEXT
  5
17A
100
AcDbEntity
  8
dimensions
  6
ByLayer
 62
  256
370
   -1
100
AcDbMText
 10
57.80555555555556
 20
-22.33333333333333
 30
0
 40
1
 41
4.638888888888889
 71
    7
 72
    1
  1
. 13
  7
unicode
210
0
220
0
230
1
 50
360
 73
    2
 44
1
  0
DIMENSION
  5
17B
100
AcDbEntity
  8
dimensions
  6
ByLayer
 62
  256
370
   -1
100
AcDbDimension
  2
*D26
 10
-8
 20
22.7
 30
0
 11
-9
 21
21.45
 31
0
 70
   32
  1
<>*
 71
    5
  3
Standard
 53
0
210
0
220
0
230
1
100
AcDbAlignedDimension
 13
-1.6
 23
20.2
 33
0
 14
-1.6
 24
22.7
 34
0
 50
90
100
AcDbRotatedDimension
  0
LWPOLYLINE
  5
17C
100
AcDbEntity
  8
face
  6
ByLayer
 62
  256
370
   -1
100
AcDbPolyline
 90
    4
 70
    1
 43
0
 10
-1.6
 20
20.2
 10
11.6
 20
20.2
 10
11.6
 20
22.7
 10
-1.6
 20
22.7
  0
DIMENSION
  5
17D
100
AcDbEntity
  8
dimensions
  6
ByLayer
 62
  256
370
   -1
100
AcDbDimension
  2
*D27
 10
12
 20
17.6
 30
0
 11
6.3
 21
18.6
 31
0
 70
   32
 71
    5
  3
Standard
 53
0
210
0
220
0
230
1
100
AcDbAlignedDimension
 13
-1.6
 23
20.2
 33
0
 14
11.6
 24
20.2
 34
0
100
AcDbRotatedDimension
  0
ENDSEC
  0
SECTION
  2
OBJECTS
  0
DICTIONARY
  5
C
330
0
100
AcDbDictionary
281
    1
  3
ACAD_GROUP
350
D
  0
DICTIONARY
  5
D
330
C
100
AcDbDictionary
281
    1
  0
ENDSEC
  0
EOF
