999
dxfrw 0.6.3
  0
SECTION
  2
HEADER
  9
$ACADVER
  1
AC1021
  9
$DWGCODEPAGE
  3
ANSI_1252
  9
$INSBASE
 10
0
 20
0
 30
0
  9
$EXTMIN
 10
-18.00000000000001
 20
-150.6666666666667
 30
0
  9
$EXTMAX
 10
340
 20
140.2142135623731
 30
0
  9
$LIMMIN
 10
0
 20
0
  9
$LIMMAX
 10
420
 20
297
  9
$ORTHOMODE
 70
    0
  9
$REGENMODE
 70
    1
  9
$FILLMODE
 70
    1
  9
$QTEXTMODE
 70
    0
  9
$MIRRTEXT
 70
    0
  9
$LTSCALE
 40
1
  9
$ATTMODE
 70
    0
  9
$TEXTSIZE
 40
2.5
  9
$TRACEWID
 40
15.68
  9
$TEXTSTYLE
  7
STANDARD
  9
$CLAYER
  8
wall
  9
$CELTYPE
  6
BYLAYER
  9
$CECOLOR
 62
  256
  9
$CELTSCALE
 40
1
  9
$DISPSILH
 70
    0
  9
$DIMSCALE
 40
1
  9
$DIMASZ
 40
5
  9
$DIMEXO
 40
1
  9
$DIMDLI
 40
3.75
  9
$DIMRND
 40
0
  9
$DIMDLE
 40
0
  9
$DIMEXE
 40
2
  9
$DIMTP
 40
0
  9
$DIMTM
 40
0
  9
$DIMTXT
 40
4
  9
$DIMCEN
 40
2.5
  9
$DIMTSZ
 40
2
  9
$DIMTOL
 70
    0
  9
$DIMLIM
 70
    0
  9
$DIMTIH
 70
    0
  9
$DIMTOH
 70
    0
  9
$DIMSE1
 70
    0
  9
$DIMSE2
 70
    0
  9
$DIMTAD
 70
    1
  9
$DIMZIN
 70
    8
  9
$DIMBLK
  1

  9
$DIMASO
 70
    1
  9
$DIMSHO
 70
    1
  9
$DIMPOST
  1

  9
$DIMAPOST
  1

  9
$DIMALT
 70
    0
  9
$DIMALTD
 70
    3
  9
$DIMALTF
 40
0.03937
  9
$DIMLFAC
 40
10
  9
$DIMTOFL
 70
    1
  9
$DIMTVP
 40
0
  9
$DIMTIX
 70
    0
  9
$DIMSOXD
 70
    0
  9
$DIMSAH
 70
    0
  9
$DIMBLK1
  1

  9
$DIMBLK2
  1

  9
$DIMSTYLE
  2
STANDARD
  9
$DIMCLRD
 70
    0
  9
$DIMCLRE
 70
    0
  9
$DIMCLRT
 70
    0
  9
$DIMTFAC
 40
1
  9
$DIMGAP
 40
2
  9
$DIMJUST
 70
    0
  9
$DIMSD1
 70
    0
  9
$DIMSD2
 70
    0
  9
$DIMTOLJ
 70
    0
  9
$DIMTZIN
 70
    8
  9
$DIMALTZ
 70
    0
  9
$DIMALTTZ
 70
    0
  9
$DIMUPT
 70
    0
  9
$DIMDEC
 70
    1
  9
$DIMTDEC
 70
    2
  9
$DIMALTU
 70
    2
  9
$DIMALTTD
 70
    3
  9
$DIMTXSTY
  7
standard
  9
$DIMAUNIT
 70
    0
  9
$DIMADEC
 70
    0
  9
$DIMALTRND
 40
0
  9
$DIMAZIN
 70
    0
  9
$DIMDSEP
 70
   44
  9
$DIMATFIT
 70
    3
  9
$DIMFRAC
 70
    0
  9
$DIMLDRBLK
  1
STANDARD
  9
$DIMLUNIT
 70
    2
  9
$DIMLWD
 70
   -2
  9
$DIMLWE
 70
   -2
  9
$DIMTMOVE
 70
    0
  9
$DIMFXL
 40
1
  9
$DIMFXLON
 70
    0
  9
$DIMJOGANG
 40
0.7854
  9
$DIMTFILL
 70
    0
  9
$DIMTFILLCLR
 70
    0
  9
$DIMARCSYM
 70
    0
  9
$DIMLTYPE
  6

  9
$DIMLTEX1
  6

  9
$DIMLTEX2
  6

  9
$LUNITS
 70
    2
  9
$LUPREC
 70
    2
  9
$SKETCHINC
 40
1
  9
$FILLETRAD
 40
0
  9
$AUNITS
 70
    0
  9
$AUPREC
 70
    2
  9
$MENU
  1
.
  9
$ELEVATION
 40
0
  9
$PELEVATION
 40
0
  9
$THICKNESS
 40
0
  9
$LIMCHECK
 70
    0
  9
$CHAMFERA
 40
0
  9
$CHAMFERB
 40
0
  9
$CHAMFERC
 40
0
  9
$CHAMFERD
 40
0
  9
$SKPOLY
 70
    0
  9
$USRTIMER
 70
    1
  9
$ANGBASE
 50
0
  9
$ANGDIR
 70
    0
  9
$PDMODE
 70
   34
  9
$PDSIZE
 40
0
  9
$PLINEWID
 40
0
  9
$SPLFRAME
 70
    0
  9
$SPLINETYPE
 70
    2
  9
$SPLINESEGS
 70
    8
  9
$HANDSEED
  5
20000
  9
$SURFTAB1
 70
    6
  9
$SURFTAB2
 70
    6
  9
$SURFTYPE
 70
    6
  9
$SURFU
 70
    6
  9
$SURFV
 70
    6
  9
$UCSBASE
  2

  9
$UCSNAME
  2

  9
$UCSORG
 10
0
 20
0
 30
0
  9
$UCSXDIR
 10
1
 20
0
 30
0
  9
$UCSYDIR
 10
0
 20
1
 30
0
  9
$UCSORTHOREF
  2

  9
$UCSORTHOVIEW
 70
    0
  9
$UCSORGTOP
 10
0
 20
0
 30
0
  9
$UCSORGBOTTOM
 10
0
 20
0
 30
0
  9
$UCSORGLEFT
 10
0
 20
0
 30
0
  9
$UCSORGRIGHT
 10
0
 20
0
 30
0
  9
$UCSORGFRONT
 10
0
 20
0
 30
0
  9
$UCSORGBACK
 10
0
 20
0
 30
0
  9
$PUCSBASE
  2

  9
$PUCSNAME
  2

  9
$PUCSORG
 10
0
 20
0
 30
0
  9
$PUCSXDIR
 10
1
 20
0
 30
0
  9
$PUCSYDIR
 10
0
 20
1
 30
0
  9
$PUCSORTHOREF
  2

  9
$PUCSORTHOVIEW
 70
    0
  9
$PUCSORGTOP
 10
0
 20
0
 30
0
  9
$PUCSORGBOTTOM
 10
0
 20
0
 30
0
  9
$PUCSORGLEFT
 10
0
 20
0
 30
0
  9
$PUCSORGRIGHT
 10
0
 20
0
 30
0
  9
$PUCSORGFRONT
 10
0
 20
0
 30
0
  9
$PUCSORGBACK
 10
0
 20
0
 30
0
  9
$USERI1
 70
    0
  9
$USERI2
 70
    0
  9
$USERI3
 70
    0
  9
$USERI4
 70
    0
  9
$USERI5
 70
    0
  9
$USERR1
 40
0
  9
$USERR2
 40
0
  9
$USERR3
 40
0
  9
$USERR4
 40
0
  9
$USERR5
 40
0
  9
$WORLDVIEW
 70
    1
  9
$SHADEDGE
 70
    3
  9
$SHADEDIF
 70
   70
  9
$TILEMODE
 70
    1
  9
$MAXACTVP
 70
   64
  9
$PINSBASE
 10
2.573243243243243
 20
12.94432432432432
 30
0
  9
$PLIMCHECK
 70
    0
  9
$PEXTMIN
 10
0
 20
0
 30
0
  9
$PEXTMAX
 10
0
 20
0
 30
0
  9
$GRIDMODE
 70
    1
  9
$SNAPSTYLE
 70
    0
  9
$GRIDUNIT
 10
0
 20
0
  9
$PLIMMIN
 10
0
 20
0
  9
$PLIMMAX
 10
29.7
 20
21
  9
$UNITMODE
 70
    0
  9
$VISRETAIN
 70
    1
  9
$PLINEGEN
 70
    0
  9
$PSLTSCALE
 70
    1
  9
$TREEDEPTH
 70
 3020
  9
$CMLSTYLE
  2
Standard
  9
$CMLJUST
 70
    0
  9
$CMLSCALE
 40
20
  9
$PROXYGRAPHICS
 70
    1
  9
$MEASUREMENT
 70
    1
  9
$CELWEIGHT
370
   -1
  9
$ENDCAPS
280
    0
  9
$JOINSTYLE
280
    0
  9
$LWDISPLAY
290
    0
  9
$INSUNITS
 70
    5
  9
$HYPERLINKBASE
  1

  9
$STYLESHEET
  1

  9
$XEDIT
290
    1
  9
$CEPSNTYPE
380
    0
  9
$PSTYLEMODE
290
    1
  9
$EXTNAMES
290
    1
  9
$PSVPSCALE
 40
0.07351373604157938
  9
$OLESTARTUP
290
    0
  9
$SORTENTS
280
  127
  9
$INDEXCTL
280
    0
  9
$HIDETEXT
280
    1
  9
$XCLIPFRAME
290
    0
  9
$HALOGAP
280
    0
  9
$OBSCOLOR
 70
  257
  9
$OBSLTYPE
280
    0
  9
$INTERSECTIONDISPLAY
280
    0
  9
$INTERSECTIONCOLOR
 70
  257
  9
$DIMASSOC
280
    1
  9
$PROJECTNAME
  1

  9
$CAMERADISPLAY
290
    0
  9
$LENSLENGTH
 40
50
  9
$CAMERAHEIGHT
 40
0
  9
$STEPSPERSEC
 40
2
  9
$STEPSIZE
 40
50
  9
$3DDWFPREC
 40
2
  9
$PSOLWIDTH
 40
5
  9
$PSOLHEIGHT
 40
80
  9
$LOFTANG1
 40
1.570796326794897
  9
$LOFTANG2
 40
1.570796326794897
  9
$LOFTMAG1
 40
0
  9
$LOFTMAG2
 40
0
  9
$LOFTPARAM
 70
    7
  9
$LOFTNORMALS
280
    1
  9
$LATITUDE
 40
1
  9
$LONGITUDE
 40
1
  9
$NORTHDIRECTION
 40
0
  9
$TIMEZONE
 70
-8000
  9
$LIGHTGLYPHDISPLAY
280
    1
  9
$TILEMODELIGHTSYNCH
280
    1
  9
$SOLIDHIST
280
    1
  9
$SHOWHIST
280
    1
  9
$DWFFRAME
280
    2
  9
$DGNFRAME
280
    0
  9
$REALWORLDSCALE
290
    1
  9
$INTERFERECOLOR
 62
    1
  9
$CSHADOW
280
    0
  9
$SHADOWPLANELOCATION
 40
0
  0
ENDSEC
  0
SECTION
  2
CLASSES
  0
ENDSEC
  0
SECTION
  2
TABLES
  0
TABLE
  2
VPORT
  5
8
330
0
100
AcDbSymbolTable
 70
    1
  0
VPORT
  5
31
330
2
100
AcDbSymbolTableRecord
100
AcDbViewportTableRecord
  2
*ACTIVE
 70
    0
 10
0
 20
0
 11
1
 21
1
 12
208.6031455356828
 22
73.13576417187286
 13
0
 23
0
 14
10
 24
10
 15
10
 25
10
 16
0
 26
0
 36
1
 17
0
 27
0
 37
0
 40
301.9620566187175
 41
1.695412844036697
 42
50
 43
0
 44
0
 50
0
 51
0
 71
    0
 72
  100
 73
    1
 74
    3
 75
    0
 76
    1
 77
    0
 78
    0
281
    0
 65
    1
110
0
120
0
130
0
111
1
121
0
131
0
112
0
122
1
132
0
 79
    0
146
0
348
10020
 60
    7
 61
    5
292
1
282
    1
141
0
142
0
 63
  250
421
3358443
  0
ENDTAB
  0
TABLE
  2
LTYPE
  5
5
330
0
100
AcDbSymbolTable
 70
    4
  0
LTYPE
  5
14
330
5
100
AcDbSymbolTableRecord
100
AcDbLinetypeTableRecord
  2
ByBlock
 70
    0
  3

 72
   65
 73
    0
 40
0
  0
LTYPE
  5
15
330
5
100
AcDbSymbolTableRecord
100
AcDbLinetypeTableRecord
  2
ByLayer
 70
    0
  3

 72
   65
 73
    0
 40
0
  0
LTYPE
  5
16
330
5
100
AcDbSymbolTableRecord
100
AcDbLinetypeTableRecord
  2
Continuous
 70
    0
  3
Solid line
 72
   65
 73
    0
 40
0
  0
LTYPE
  5
32
330
5
100
AcDbSymbolTableRecord
100
AcDbLinetypeTableRecord
  2
DOT
 70
    0
  3
Dot . . . . . . . . . . . . . . . . . . . . . .
 72
   65
 73
    2
 40
6.35
 49
0
 74
    0
 49
-6.35
 74
    0
  0
LTYPE
  5
33
330
5
100
AcDbSymbolTableRecord
100
AcDbLinetypeTableRecord
  2
DOTTINY
 70
    0
  3
Dot (.15x) .....................................
 72
   65
 73
    2
 40
0.9525
 49
0
 74
    0
 49
-0.9525
 74
    0
  0
LTYPE
  5
34
330
5
100
AcDbSymbolTableRecord
100
AcDbLinetypeTableRecord
  2
DOT2
 70
    0
  3
Dot (.5x) .....................................
 72
   65
 73
    2
 40
3.175
 49
0
 74
    0
 49
-3.175
 74
    0
  0
LTYPE
  5
35
330
5
100
AcDbSymbolTableRecord
100
AcDbLinetypeTableRecord
  2
DOTX2
 70
    0
  3
Dot (2x) .  .  .  .  .  .  .  .  .  .  .  .  .
 72
   65
 73
    2
 40
12.7
 49
0
 74
    0
 49
-12.7
 74
    0
  0
LTYPE
  5
36
330
5
100
AcDbSymbolTableRecord
100
AcDbLinetypeTableRecord
  2
DASHED
 70
    0
  3
Dashed _ _ _ _ _ _ _ _ _ _ _ _ _ _ _ _ _
 72
   65
 73
    2
 40
19.05
 49
12.7
 74
    0
 49
-6.35
 74
    0
  0
LTYPE
  5
37
330
5
100
AcDbSymbolTableRecord
100
AcDbLinetypeTableRecord
  2
DASHEDTINY
 70
    0
  3
Dashed (.15x) _ _ _ _ _ _ _ _ _ _ _ _ _ _ _ _ _
 72
   65
 73
    2
 40
2.8575
 49
1.905
 74
    0
 49
-0.9525
 74
    0
  0
LTYPE
  5
38
330
5
100
AcDbSymbolTableRecord
100
AcDbLinetypeTableRecord
  2
DASHED2
 70
    0
  3
Dashed (.5x) _ _ _ _ _ _ _ _ _ _ _ _ _ _ _ _ _
 72
   65
 73
    2
 40
9.524999999999999
 49
6.35
 74
    0
 49
-3.175
 74
    0
  0
LTYPE
  5
39
330
5
100
AcDbSymbolTableRecord
100
AcDbLinetypeTableRecord
  2
DASHEDX2
 70
    0
  3
Dashed (2x) ____  ____  ____  ____  ____  ___
 72
   65
 73
    2
 40
38.09999999999999
 49
25.4
 74
    0
 49
-12.7
 74
    0
  0
LTYPE
  5
3A
330
5
100
AcDbSymbolTableRecord
100
AcDbLinetypeTableRecord
  2
DASHDOT
 70
    0
  3
Dash dot __ . __ . __ . __ . __ . __ . __ . __
 72
   65
 73
    4
 40
25.4
 49
12.7
 74
    0
 49
-6.35
 74
    0
 49
0
 74
    0
 49
-6.35
 74
    0
  0
LTYPE
  5
3B
330
5
100
AcDbSymbolTableRecord
100
AcDbLinetypeTableRecord
  2
DASHDOTTINY
 70
    0
  3
Dash dot (.15x) _._._._._._._._._._._._._._._.
 72
   65
 73
    4
 40
3.81
 49
1.905
 74
    0
 49
-0.9525
 74
    0
 49
0
 74
    0
 49
-0.9525
 74
    0
  0
LTYPE
  5
3C
330
5
100
AcDbSymbolTableRecord
100
AcDbLinetypeTableRecord
  2
DASHDOT2
 70
    0
  3
Dash dot (.5x) _._._._._._._._._._._._._._._.
 72
   65
 73
    4
 40
12.7
 49
6.35
 74
    0
 49
-3.175
 74
    0
 49
0
 74
    0
 49
-3.175
 74
    0
  0
LTYPE
  5
3D
330
5
100
AcDbSymbolTableRecord
100
AcDbLinetypeTableRecord
  2
DASHDOTX2
 70
    0
  3
Dash dot (2x) ____  .  ____  .  ____  .  ___
 72
   65
 73
    4
 40
50.8
 49
25.4
 74
    0
 49
-12.7
 74
    0
 49
0
 74
    0
 49
-12.7
 74
    0
  0
LTYPE
  5
3E
330
5
100
AcDbSymbolTableRecord
100
AcDbLinetypeTableRecord
  2
DIVIDE
 70
    0
  3
Divide ____ . . ____ . . ____ . . ____ . . ____
 72
   65
 73
    6
 40
31.75
 49
12.7
 74
    0
 49
-6.35
 74
    0
 49
0
 74
    0
 49
-6.35
 74
    0
 49
0
 74
    0
 49
-6.35
 74
    0
  0
LTYPE
  5
3F
330
5
100
AcDbSymbolTableRecord
100
AcDbLinetypeTableRecord
  2
DIVIDETINY
 70
    0
  3
Divide (.15x) __..__..__..__..__..__..__..__.._
 72
   65
 73
    6
 40
4.7625
 49
1.905
 74
    0
 49
-0.9525
 74
    0
 49
0
 74
    0
 49
-0.9525
 74
    0
 49
0
 74
    0
 49
-0.9525
 74
    0
  0
LTYPE
  5
40
330
5
100
AcDbSymbolTableRecord
100
AcDbLinetypeTableRecord
  2
DIVIDE2
 70
    0
  3
Divide (.5x) __..__..__..__..__..__..__..__.._
 72
   65
 73
    6
 40
15.875
 49
6.35
 74
    0
 49
-3.175
 74
    0
 49
0
 74
    0
 49
-3.175
 74
    0
 49
0
 74
    0
 49
-3.175
 74
    0
  0
LTYPE
  5
41
330
5
100
AcDbSymbolTableRecord
100
AcDbLinetypeTableRecord
  2
DIVIDEX2
 70
    0
  3
Divide (2x) ________  .  .  ________  .  .  _
 72
   65
 73
    6
 40
63.5
 49
25.4
 74
    0
 49
-12.7
 74
    0
 49
0
 74
    0
 49
-12.7
 74
    0
 49
0
 74
    0
 49
-12.7
 74
    0
  0
LTYPE
  5
42
330
5
100
AcDbSymbolTableRecord
100
AcDbLinetypeTableRecord
  2
BORDER
 70
    0
  3
Border __ __ . __ __ . __ __ . __ __ . __ __ .
 72
   65
 73
    6
 40
44.45
 49
12.7
 74
    0
 49
-6.35
 74
    0
 49
12.7
 74
    0
 49
-6.35
 74
    0
 49
0
 74
    0
 49
-6.35
 74
    0
  0
LTYPE
  5
43
330
5
100
AcDbSymbolTableRecord
100
AcDbLinetypeTableRecord
  2
BORDERTINY
 70
    0
  3
Border (.15x) __.__.__.__.__.__.__.__.__.__.__.
 72
   65
 73
    6
 40
6.6675
 49
1.905
 74
    0
 49
-0.9525
 74
    0
 49
1.905
 74
    0
 49
-0.9525
 74
    0
 49
0
 74
    0
 49
-0.9525
 74
    0
  0
LTYPE
  5
44
330
5
100
AcDbSymbolTableRecord
100
AcDbLinetypeTableRecord
  2
BORDER2
 70
    0
  3
Border (.5x) __.__.__.__.__.__.__.__.__.__.__.
 72
   65
 73
    6
 40
22.225
 49
6.35
 74
    0
 49
-3.175
 74
    0
 49
6.35
 74
    0
 49
-3.175
 74
    0
 49
0
 74
    0
 49
-3.175
 74
    0
  0
LTYPE
  5
45
330
5
100
AcDbSymbolTableRecord
100
AcDbLinetypeTableRecord
  2
BORDERX2
 70
    0
  3
Border (2x) ____  ____  .  ____  ____  .  ___
 72
   65
 73
    6
 40
88.89999999999999
 49
25.4
 74
    0
 49
-12.7
 74
    0
 49
25.4
 74
    0
 49
-12.7
 74
    0
 49
0
 74
    0
 49
-12.7
 74
    0
  0
LTYPE
  5
46
330
5
100
AcDbSymbolTableRecord
100
AcDbLinetypeTableRecord
  2
CENTER
 70
    0
  3
Center ____ _ ____ _ ____ _ ____ _ ____ _ ____
 72
   65
 73
    4
 40
50.8
 49
31.75
 74
    0
 49
-6.35
 74
    0
 49
6.35
 74
    0
 49
-6.35
 74
    0
  0
LTYPE
  5
47
330
5
100
AcDbSymbolTableRecord
100
AcDbLinetypeTableRecord
  2
CENTERTINY
 70
    0
  3
Center (.15x) ___ _ ___ _ ___ _ ___ _ ___ _ ___
 72
   65
 73
    4
 40
7.619999999999999
 49
4.7625
 74
    0
 49
-0.9525
 74
    0
 49
0.9525
 74
    0
 49
-0.9525
 74
    0
  0
LTYPE
  5
48
330
5
100
AcDbSymbolTableRecord
100
AcDbLinetypeTableRecord
  2
CENTER2
 70
    0
  3
Center (.5x) ___ _ ___ _ ___ _ ___ _ ___ _ ___
 72
   65
 73
    4
 40
28.575
 49
19.05
 74
    0
 49
-3.175
 74
    0
 49
3.175
 74
    0
 49
-3.175
 74
    0
  0
LTYPE
  5
49
330
5
100
AcDbSymbolTableRecord
100
AcDbLinetypeTableRecord
  2
CENTERX2
 70
    0
  3
Center (2x) ________  __  ________  __  _____
 72
   65
 73
    4
 40
101.6
 49
63.5
 74
    0
 49
-12.7
 74
    0
 49
12.7
 74
    0
 49
-12.7
 74
    0
  0
ENDTAB
  0
TABLE
  2
LAYER
  5
2
330
0
100
AcDbSymbolTable
 70
    1
  0
LAYER
  5
10
330
2
100
AcDbSymbolTableRecord
100
AcDbLayerTableRecord
  2
0
 70
    0
 62
    7
  6
CONTINUOUS
370
   -3
390
F
1001
LibreCad
1070
    1
  0
LAYER
  5
4A
330
2
100
AcDbSymbolTableRecord
100
AcDbLayerTableRecord
  2
base
 70
    0
 62
  136
420
32896
  6
CONTINUOUS
370
   50
390
F
  0
LAYER
  5
4B
330
2
100
AcDbSymbolTableRecord
100
AcDbLayerTableRecord
  2
dah
 70
    0
 62
   16
420
8388608
  6
CONTINUOUS
370
   50
390
F
  0
LAYER
  5
4C
330
2
100
AcDbSymbolTableRecord
100
AcDbLayerTableRecord
  2
dimensions
 70
    0
 62
    4
  6
CONTINUOUS
370
   13
390
F
  0
LAYER
  5
4D
330
2
100
AcDbSymbolTableRecord
100
AcDbLayerTableRecord
  2
ground
 70
    0
 62
   96
420
32768
  6
CONTINUOUS
370
   50
390
F
  0
LAYER
  5
4E
330
2
100
AcDbSymbolTableRecord
100
AcDbLayerTableRecord
  2
wall
 70
    0
 62
   56
420
8421376
  6
CONTINUOUS
370
   50
390
F
  0
LAYER
  5
4F
330
2
100
AcDbSymbolTableRecord
100
AcDbLayerTableRecord
  2
windoors
 70
    0
 62
    3
  6
CONTINUOUS
370
   50
390
F
  0
LAYER
  5
50
330
2
100
AcDbSymbolTableRecord
100
AcDbLayerTableRecord
  2
wood
 70
    0
 62
    2
  6
CONTINUOUS
370
   13
390
F
  0
ENDTAB
  0
TABLE
  2
STYLE
  5
3
330
0
100
AcDbSymbolTable
 70
    3
  0
STYLE
  5
51
330
2
100
AcDbSymbolTableRecord
100
AcDbTextStyleTableRecord
  2
cyrillic_ii
 70
    0
 40
0
 41
1
 50
0
 71
    0
 42
1
  3
cyrillic_ii
  4

  0
STYLE
  5
52
330
2
100
AcDbSymbolTableRecord
100
AcDbTextStyleTableRecord
  2
Standard
 70
    0
 40
0
 41
1
 50
0
 71
    0
 42
1
  3
txt
  4

  0
ENDTAB
  0
TABLE
  2
VIEW
  5
6
330
0
100
AcDbSymbolTable
 70
    0
  0
ENDTAB
  0
TABLE
  2
UCS
  5
7
330
0
100
AcDbSymbolTable
 70
    0
  0
ENDTAB
  0
TABLE
  2
APPID
  5
9
330
0
100
AcDbSymbolTable
 70
    1
  0
APPID
  5
12
330
9
100
AcDbSymbolTableRecord
100
AcDbRegAppTableRecord
  2
ACAD
 70
    0
  0
APPID
  5
53
330
9
100
AcDbSymbolTableRecord
100
AcDbRegAppTableRecord
  2
LibreCad
 70
    0
  0
ENDTAB
  0
TABLE
  2
DIMSTYLE
  5
A
330
0
100
AcDbSymbolTable
 70
    1
100
AcDbDimStyleTable
 71
    1
  0
DIMSTYLE
105
54
330
A
100
AcDbSymbolTableRecord
100
AcDbDimStyleTableRecord
  2
Standard
 70
    0
 40
1
 41
5
 42
1
 43
0.38
 44
2
 45
0
 46
0
 47
0
 48
0
 49
1
140
4
141
0.09
142
2
143
25.4
144
10
145
0
146
1
147
2
148
0
 71
    0
 72
    0
 73
    0
 74
    1
 75
    0
 76
    0
 77
    0
 78
    8
 79
    0
170
    0
171
    2
172
    0
173
    0
174
    0
175
    0
176
    0
177
    0
178
    0
179
    0
271
    1
272
    4
273
    2
274
    2
275
    0
276
    0
277
    2
278
   44
279
    0
280
    0
281
    0
282
    0
283
    1
284
    0
285
    0
286
    0
288
    0
289
    3
340
standard
341

371
   -2
372
   -2
  0
ENDTAB
  0
TABLE
  2
BLOCK_RECORD
  5
1
330
0
100
AcDbSymbolTable
 70
    2
  0
BLOCK_RECORD
  5
1F
330
1
100
AcDbSymbolTableRecord
100
AcDbBlockTableRecord
  2
*Model_Space
 70
    0
280
    1
281
    0
  0
BLOCK_RECORD
  5
1E
330
1
100
AcDbSymbolTableRecord
100
AcDbBlockTableRecord
  2
*Paper_Space
 70
    0
280
    1
281
    0
  0
BLOCK_RECORD
  5
55
330
1
100
AcDbSymbolTableRecord
100
AcDbBlockTableRecord
  2
*D6
 70
    0
280
    1
281
    0
  0
BLOCK_RECORD
  5
58
330
1
100
AcDbSymbolTableRecord
100
AcDbBlockTableRecord
  2
*D33
 70
    0
280
    1
281
    0
  0
BLOCK_RECORD
  5
5B
330
1
100
AcDbSymbolTableRecord
100
AcDbBlockTableRecord
  2
*D23
 70
    0
280
    1
281
    0
  0
BLOCK_RECORD
  5
5E
330
1
100
AcDbSymbolTableRecord
100
AcDbBlockTableRecord
  2
*D28
 70
    0
280
    1
281
    0
  0
BLOCK_RECORD
  5
61
330
1
100
AcDbSymbolTableRecord
100
AcDbBlockTableRecord
  2
*D3
 70
    0
280
    1
281
    0
  0
BLOCK_RECORD
  5
64
330
1
100
AcDbSymbolTableRecord
100
AcDbBlockTableRecord
  2
*D15
 70
    0
280
    1
281
    0
  0
BLOCK_RECORD
  5
67
330
1
100
AcDbSymbolTableRecord
100
AcDbBlockTableRecord
  2
*D34
 70
    0
280
    1
281
    0
  0
BLOCK_RECORD
  5
6A
330
1
100
AcDbSymbolTableRecord
100
AcDbBlockTableRecord
  2
*D7
 70
    0
280
    1
281
    0
  0
BLOCK_RECORD
  5
6D
330
1
100
AcDbSymbolTableRecord
100
AcDbBlockTableRecord
  2
*D13
 70
    0
280
    1
281
    0
  0
BLOCK_RECORD
  5
70
330
1
100
AcDbSymbolTableRecord
100
AcDbBlockTableRecord
  2
*D26
 70
    0
280
    1
281
    0
  0
BLOCK_RECORD
  5
73
330
1
100
AcDbSymbolTableRecord
100
AcDbBlockTableRecord
  2
*D11
 70
    0
280
    1
281
    0
  0
BLOCK_RECORD
  5
76
330
1
100
AcDbSymbolTableRecord
100
AcDbBlockTableRecord
  2
*D22
 70
    0
280
    1
281
    0
  0
BLOCK_RECORD
  5
79
330
1
100
AcDbSymbolTableRecord
100
AcDbBlockTableRecord
  2
*D31
 70
    0
280
    1
281
    0
  0
BLOCK_RECORD
  5
7C
330
1
100
AcDbSymbolTableRecord
100
AcDbBlockTableRecord
  2
*D9
 70
    0
280
    1
281
    0
  0
BLOCK_RECORD
  5
7F
330
1
100
AcDbSymbolTableRecord
100
AcDbBlockTableRecord
  2
*D1
 70
    0
280
    1
281
    0
  0
BLOCK_RECORD
  5
82
330
1
100
AcDbSymbolTableRecord
100
AcDbBlockTableRecord
  2
*D16
 70
    0
280
    1
281
    0
  0
BLOCK_RECORD
  5
85
330
1
100
AcDbSymbolTableRecord
100
AcDbBlockTableRecord
  2
*D17
 70
    0
280
    1
281
    0
  0
BLOCK_RECORD
  5
88
330
1
100
AcDbSymbolTableRecord
100
AcDbBlockTableRecord
  2
*D25
 70
    0
280
    1
281
    0
  0
BLOCK_RECORD
  5
8B
330
1
100
AcDbSymbolTableRecord
100
AcDbBlockTableRecord
  2
*D35
 70
    0
280
    1
281
    0
  0
BLOCK_RECORD
  5
8E
330
1
100
AcDbSymbolTableRecord
100
AcDbBlockTableRecord
  2
*D18
 70
    0
280
    1
281
    0
  0
BLOCK_RECORD
  5
91
330
1
100
AcDbSymbolTableRecord
100
AcDbBlockTableRecord
  2
*D12
 70
    0
280
    1
281
    0
  0
BLOCK_RECORD
  5
94
330
1
100
AcDbSymbolTableRecord
100
AcDbBlockTableRecord
  2
*D29
 70
    0
280
    1
281
    0
  0
BLOCK_RECORD
  5
97
330
1
100
AcDbSymbolTableRecord
100
AcDbBlockTableRecord
  2
*D4
 70
    0
280
    1
281
    0
  0
BLOCK_RECORD
  5
9A
330
1
100
AcDbSymbolTableRecord
100
AcDbBlockTableRecord
  2
*D2
 70
    0
280
    1
281
    0
  0
BLOCK_RECORD
  5
9D
330
1
100
AcDbSymbolTableRecord
100
AcDbBlockTableRecord
  2
*D19
 70
    0
280
    1
281
    0
  0
BLOCK_RECORD
  5
A0
330
1
100
AcDbSymbolTableRecord
100
AcDbBlockTableRecord
  2
*D5
 70
    0
280
    1
281
    0
  0
BLOCK_RECORD
  5
A3
330
1
100
AcDbSymbolTableRecord
100
AcDbBlockTableRecord
  2
*D14
 70
    0
280
    1
281
    0
  0
BLOCK_RECORD
  5
A6
330
1
100
AcDbSymbolTableRecord
100
AcDbBlockTableRecord
  2
*D24
 70
    0
280
    1
281
    0
  0
BLOCK_RECORD
  5
A9
330
1
100
AcDbSymbolTableRecord
100
AcDbBlockTableRecord
  2
*D32
 70
    0
280
    1
281
    0
  0
BLOCK_RECORD
  5
AC
330
1
100
AcDbSymbolTableRecord
100
AcDbBlockTableRecord
  2
*D10
 70
    0
280
    1
281
    0
  0
BLOCK_RECORD
  5
AF
330
1
100
AcDbSymbolTableRecord
100
AcDbBlockTableRecord
  2
*D8
 70
    0
280
    1
281
    0
  0
BLOCK_RECORD
  5
B2
330
1
100
AcDbSymbolTableRecord
100
AcDbBlockTableRecord
  2
*D27
 70
    0
280
    1
281
    0
  0
BLOCK_RECORD
  5
B5
330
1
100
AcDbSymbolTableRecord
100
AcDbBlockTableRecord
  2
*D20
 70
    0
280
    1
281
    0
  0
BLOCK_RECORD
  5
B8
330
1
100
AcDbSymbolTableRecord
100
AcDbBlockTableRecord
  2
*D21
 70
    0
280
    1
281
    0
  0
BLOCK_RECORD
  5
BB
330
1
100
AcDbSymbolTableRecord
100
AcDbBlockTableRecord
  2
*D30
 70
    0
280
    1
281
    0
  0
ENDTAB
  0
ENDSEC
  0
SECTION
  2
BLOCKS
  0
BLOCK
  5
20
330
1F
100
AcDbEntity
  8
0
100
AcDbBlockBegin
  2
*Model_Space
 70
    0
 10
0
 20
0
 30
0
  3
*Model_Space
  1

  0
ENDBLK
  5
21
330
1F
100
AcDbEntity
  8
0
100
AcDbBlockEnd
  0
BLOCK
  5
1C
330
1B
100
AcDbEntity
  8
0
100
AcDbBlockBegin
  2
*Paper_Space
 70
    0
 10
0
 20
0
 30
0
  3
*Paper_Space
  1

  0
ENDBLK
  5
1D
330
1F
100
AcDbEntity
  8
0
100
AcDbBlockEnd
  0
BLOCK
  5
56
330
55
100
AcDbEntity
  8
0
100
AcDbBlockBegin
  2
*D6
 70
    1
 10
0
 20
0
  3
*D6
  1

  0
LINE
  5
BE
100
AcDbEntity
  8
dimensions
  6
ByBlock
 62
    0
370
   -2
100
AcDbLine
 10
69.8
 20
-9.999999999999998
 11
100.6
 21
-10
  0
LINE
  5
BF
100
AcDbEntity
  8
dimensions
  6
ByBlock
 62
    0
370
   -2
100
AcDbLine
 10
78.3857864376269
 20
-11.4142135623731
 11
81.21421356237309
 21
-8.585786437626904
  0
LINE
  5
C0
100
AcDbEntity
  8
dimensions
  6
ByBlock
 62
    0
370
   -2
100
AcDbLine
 10
89.18578643762692
 20
-11.4142135623731
 11
92.0142135623731
 21
-8.585786437626904
  0
MTEXT
  5
C1
100
AcDbEntity
  8
dimensions
  6
CONTINUOUS
 62
    0
370
   -2
100
AcDbMText
 10
85.2
 20
-6
 30
0
 40
4
 41
7.111111111111111
 71
    5
 72
    1
  1
108
  7
standard
210
0
220
0
230
1
 50
0
 73
    2
 44
1
  0
LINE
  5
C2
100
AcDbEntity
  8
dimensions
  6
ByBlock
 62
    0
370
   -2
100
AcDbLine
 10
79.8
 20
2
 11
79.8
 21
-12
  0
LINE
  5
C3
100
AcDbEntity
  8
dimensions
  6
ByBlock
 62
    0
370
   -2
100
AcDbLine
 10
90.60000000000001
 20
2
 11
90.60000000000001
 21
-12
  0
ENDBLK
  5
57
330
55
100
AcDbEntity
  8
0
100
AcDbBlockEnd
  0
BLOCK
  5
59
330
58
100
AcDbEntity
  8
0
100
AcDbBlockBegin
  2
*D33
 70
    1
 10
0
 20
0
  3
*D33
  1

  0
LINE
  5
C4
100
AcDbEntity
  8
dimensions
  6
ByBlock
 62
    0
370
   -2
100
AcDbLine
 10
264.9071067811865
 20
73.65563491861046
 11
271.1399494936611
 21
79.888477631085
  0
LINE
  5
C5
100
AcDbEntity
  8
dimensions
  6
ByBlock
 62
    0
370
   -2
100
AcDbLine
 10
303.3899494936612
 20
35.17279220613572
 11
309.6227922061357
 21
41.40563491861028
  0
LINE
  5
C6
100
AcDbEntity
  8
dimensions
  6
ByBlock
 62
    0
370
   -2
100
AcDbLine
 10
269.725735931288
 20
78.4742640687119
 11
308.2085786437626
 21
39.99142135623718
  0
LINE
  5
C7
100
AcDbEntity
  8
dimensions
  6
ByBlock
 62
    0
370
   -2
100
AcDbLine
 10
271.725735931288
 20
78.4742640687119
 11
267.725735931288
 21
78.4742640687119
  0
LINE
  5
C8
100
AcDbEntity
  8
dimensions
  6
ByBlock
 62
    0
370
   -2
100
AcDbLine
 10
310.2085786437626
 20
39.99142135623718
 11
306.2085786437626
 21
39.99142135623718
  0
MTEXT
  5
C9
100
AcDbEntity
  8
dimensions
  6
CONTINUOUS
 62
    0
370
   -2
100
AcDbMText
 10
291.7955844122715
 20
62.06126983722073
 30
0
 40
4
 41
13.5555555555558
 71
    5
 72
    1
  1
544,2
  7
standard
210
0
220
0
230
1
 50
314.9999999999999
 73
    2
 44
1
  0
ENDBLK
  5
5A
330
58
100
AcDbEntity
  8
0
100
AcDbBlockEnd
  0
BLOCK
  5
5C
330
5B
100
AcDbEntity
  8
0
100
AcDbBlockBegin
  2
*D23
 70
    1
 10
0
 20
0
  3
*D23
  1

  0
LINE
  5
CA
100
AcDbEntity
  8
dimensions
  6
ByBlock
 62
    0
370
   -2
100
AcDbLine
 10
220
 20
-10
 11
220
 21
13
  0
LINE
  5
CB
100
AcDbEntity
  8
dimensions
  6
ByBlock
 62
    0
370
   -2
100
AcDbLine
 10
221.4142135623731
 20
-1.414213562373096
 11
218.5857864376269
 21
1.414213562373095
  0
LINE
  5
CC
100
AcDbEntity
  8
dimensions
  6
ByBlock
 62
    0
370
   -2
100
AcDbLine
 10
221.4142135623731
 20
1.585786437626905
 11
218.5857864376269
 21
4.414213562373095
  0
MTEXT
  5
CD
100
AcDbEntity
  8
dimensions
  6
CONTINUOUS
 62
    0
370
   -2
100
AcDbMText
 10
216
 20
7.444444444444568
 30
0
 40
4
 41
4.888888888889136
 71
    5
 72
    1
  1
30
  7
standard
210
0
220
0
230
1
 50
90
 73
    2
 44
1
  0
LINE
  5
CE
100
AcDbEntity
  8
dimensions
  6
ByBlock
 62
    0
370
   -2
100
AcDbLine
 10
229
 20
-2.661133787040695e-16
 11
218
 21
-1.436486987893342e-16
  0
LINE
  5
CF
100
AcDbEntity
  8
dimensions
  6
ByBlock
 62
    0
370
   -2
100
AcDbLine
 10
229
 20
3
 11
218
 21
3
  0
ENDBLK
  5
5D
330
5B
100
AcDbEntity
  8
0
100
AcDbBlockEnd
  0
BLOCK
  5
5F
330
5E
100
AcDbEntity
  8
0
100
AcDbBlockBegin
  2
*D28
 70
    1
 10
0
 20
0
  3
*D28
  1

  0
LINE
  5
D0
100
AcDbEntity
  8
dimensions
  6
ByBlock
 62
    0
370
   -2
100
AcDbLine
 10
245.4
 20
-10
 11
230
 21
-10
  0
LINE
  5
D1
100
AcDbEntity
  8
dimensions
  6
ByBlock
 62
    0
370
   -2
100
AcDbLine
 10
243.9857864376269
 20
-11.4142135623731
 11
246.8142135623731
 21
-8.585786437626904
  0
LINE
  5
D2
100
AcDbEntity
  8
dimensions
  6
ByBlock
 62
    0
370
   -2
100
AcDbLine
 10
228.5857864376269
 20
-11.4142135623731
 11
231.4142135623731
 21
-8.585786437626904
  0
MTEXT
  5
D3
100
AcDbEntity
  8
dimensions
  6
CONTINUOUS
 62
    0
370
   -2
100
AcDbMText
 10
237.7
 20
-6
 30
0
 40
4
 41
7.555555555555804
 71
    5
 72
    1
  1
154
  7
standard
210
0
220
0
230
1
 50
360
 73
    2
 44
1
  0
LINE
  5
D4
100
AcDbEntity
  8
dimensions
  6
ByBlock
 62
    0
370
   -2
100
AcDbLine
 10
245.4
 20
10
 11
245.4
 21
-12
  0
LINE
  5
D5
100
AcDbEntity
  8
dimensions
  6
ByBlock
 62
    0
370
   -2
100
AcDbLine
 10
230
 20
2
 11
230
 21
-12
  0
ENDBLK
  5
60
330
5E
100
AcDbEntity
  8
0
100
AcDbBlockEnd
  0
BLOCK
  5
62
330
61
100
AcDbEntity
  8
0
100
AcDbBlockBegin
  2
*D3
 70
    1
 10
0
 20
0
  3
*D3
  1

  0
LINE
  5
D6
100
AcDbEntity
  8
dimensions
  6
ByBlock
 62
    0
370
   -2
100
AcDbLine
 10
239.8
 20
101
 11
239.8
 21
138.8
  0
LINE
  5
D7
100
AcDbEntity
  8
dimensions
  6
ByBlock
 62
    0
370
   -2
100
AcDbLine
 10
238.3857864376269
 20
102.4142135623731
 11
241.2142135623731
 21
99.58578643762691
  0
LINE
  5
D8
100
AcDbEntity
  8
dimensions
  6
ByBlock
 62
    0
370
   -2
100
AcDbLine
 10
238.3857864376269
 20
140.2142135623731
 11
241.2142135623731
 21
137.3857864376269
  0
MTEXT
  5
D9
100
AcDbEntity
  8
dimensions
  6
CONTINUOUS
 62
    0
370
   -2
100
AcDbMText
 10
235.8
 20
119.9
 30
0
 40
4
 41
8.000000000000249
 71
    5
 72
    1
  1
378
  7
standard
210
0
220
0
230
1
 50
90
 73
    2
 44
1
  0
LINE
  5
DA
100
AcDbEntity
  8
dimensions
  6
ByBlock
 62
    0
370
   -2
100
AcDbLine
 10
231
 20
101
 11
241.8
 21
101
  0
LINE
  5
DB
100
AcDbEntity
  8
dimensions
  6
ByBlock
 62
    0
370
   -2
100
AcDbLine
 10
231
 20
138.8
 11
241.8
 21
138.8
  0
ENDBLK
  5
63
330
61
100
AcDbEntity
  8
0
100
AcDbBlockEnd
  0
BLOCK
  5
65
330
64
100
AcDbEntity
  8
0
100
AcDbBlockBegin
  2
*D15
 70
    1
 10
0
 20
0
  3
*D15
  1

  0
LINE
  5
DC
100
AcDbEntity
  8
0
  6
CONTINUOUS
 62
    7
370
    0
100
AcDbLine
 10
185.3999999999997
 20
-2.814415367424772e-14
 11
185.3999999999997
 21
5.999999999999972
  0
SOLID
  5
DD
100
AcDbEntity
  8
dimensions
  6
CONTINUOUS
 62
    7
370
    0
100
AcDbTrace
 10
185.3999999999997
 20
-2.814415367424772e-14
 30
0
 11
184.567430684454
 21
4.999999999999972
 31
0
 12
186.2325693155453
 22
4.999999999999972
 32
0
 13
186.2325693155453
 23
4.999999999999972
 33
0
  0
ENDBLK
  5
66
330
64
100
AcDbEntity
  8
0
100
AcDbBlockEnd
  0
BLOCK
  5
68
330
67
100
AcDbEntity
  8
0
100
AcDbBlockBegin
  2
*D34
 70
    1
 10
0
 20
0
  3
*D34
  1

  0
LINE
  5
DE
100
AcDbEntity
  8
dimensions
  6
ByBlock
 62
    0
370
   -2
100
AcDbLine
 10
-12.00000000000001
 20
-57.87775618484127
 11
-12.00000000000002
 21
-130
  0
LINE
  5
DF
100
AcDbEntity
  8
dimensions
  6
ByBlock
 62
    0
370
   -2
100
AcDbLine
 10
-10.58578643762692
 20
-59.29196974721437
 11
-13.41421356237311
 21
-56.46354262246818
  0
LINE
  5
E0
100
AcDbEntity
  8
dimensions
  6
ByBlock
 62
    0
370
   -2
100
AcDbLine
 10
-10.58578643762692
 20
-131.4142135623731
 11
-13.41421356237311
 21
-128.5857864376269
  0
MTEXT
  5
E1
100
AcDbEntity
  8
dimensions
  6
CONTINUOUS
 62
    0
370
   -2
100
AcDbMText
 10
-16.00000000000001
 20
-93.93887809242064
 30
0
 40
4
 41
11.77777777777778
 71
    5
 72
    1
  1
721,2
  7
standard
210
0
220
0
230
1
 50
90
 73
    2
 44
1
  0
LINE
  5
E2
100
AcDbEntity
  8
dimensions
  6
ByBlock
 62
    0
370
   -2
100
AcDbLine
 10
-5.000000000000016
 20
-57.87775618484127
 11
-14.00000000000001
 21
-57.87775618484127
  0
LINE
  5
E3
100
AcDbEntity
  8
dimensions
  6
ByBlock
 62
    0
370
   -2
100
AcDbLine
 10
-1.000000000000016
 20
-130
 11
-14.00000000000002
 21
-130
  0
ENDBLK
  5
69
330
67
100
AcDbEntity
  8
0
100
AcDbBlockEnd
  0
BLOCK
  5
6B
330
6A
100
AcDbEntity
  8
0
100
AcDbBlockBegin
  2
*D7
 70
    1
 10
0
 20
0
  3
*D7
  1

  0
LINE
  5
E4
100
AcDbEntity
  8
dimensions
  6
ByBlock
 62
    0
370
   -2
100
AcDbLine
 10
90.60000000000001
 20
-10
 11
104.7
 21
-10
  0
LINE
  5
E5
100
AcDbEntity
  8
dimensions
  6
ByBlock
 62
    0
370
   -2
100
AcDbLine
 10
92.0142135623731
 20
-8.585786437626904
 11
89.18578643762692
 21
-11.4142135623731
  0
LINE
  5
E6
100
AcDbEntity
  8
dimensions
  6
ByBlock
 62
    0
370
   -2
100
AcDbLine
 10
106.1142135623731
 20
-8.585786437626904
 11
103.2857864376269
 21
-11.4142135623731
  0
MTEXT
  5
E7
100
AcDbEntity
  8
dimensions
  6
CONTINUOUS
 62
    0
370
   -2
100
AcDbMText
 10
97.65000000000001
 20
-6
 30
0
 40
4
 41
6.666666666666666
 71
    5
 72
    1
  1
141
  7
standard
210
0
220
0
230
1
 50
0
 73
    2
 44
1
  0
LINE
  5
E8
100
AcDbEntity
  8
dimensions
  6
ByBlock
 62
    0
370
   -2
100
AcDbLine
 10
90.60000000000001
 20
2
 11
90.60000000000001
 21
-12
  0
LINE
  5
E9
100
AcDbEntity
  8
dimensions
  6
ByBlock
 62
    0
370
   -2
100
AcDbLine
 10
104.7
 20
2
 11
104.7
 21
-12
  0
ENDBLK
  5
6C
330
6A
100
AcDbEntity
  8
0
100
AcDbBlockEnd
  0
BLOCK
  5
6E
330
6D
100
AcDbEntity
  8
0
100
AcDbBlockBegin
  2
*D13
 70
    1
 10
0
 20
0
  3
*D13
  1

  0
LINE
  5
EA
100
AcDbEntity
  8
dimensions
  6
ByBlock
 62
    0
370
   -2
100
AcDbLine
 10
24.89999999999998
 20
-10
 11
46.79999999999998
 21
-10
  0
LINE
  5
EB
100
AcDbEntity
  8
dimensions
  6
ByBlock
 62
    0
370
   -2
100
AcDbLine
 10
26.31421356237308
 20
-8.585786437626904
 11
23.48578643762689
 21
-11.4142135623731
  0
LINE
  5
EC
100
AcDbEntity
  8
dimensions
  6
ByBlock
 62
    0
370
   -2
100
AcDbLine
 10
48.21421356237308
 20
-8.585786437626904
 11
45.38578643762689
 21
-11.4142135623731
  0
MTEXT
  5
ED
100
AcDbEntity
  8
dimensions
  6
CONTINUOUS
 62
    0
370
   -2
100
AcDbMText
 10
35.84999999999999
 20
-6
 30
0
 40
4
 41
7.111111111111111
 71
    5
 72
    1
  1
219
  7
standard
210
0
220
0
230
1
 50
0
 73
    2
 44
1
  0
LINE
  5
EE
100
AcDbEntity
  8
dimensions
  6
ByBlock
 62
    0
370
   -2
100
AcDbLine
 10
24.89999999999998
 20
2
 11
24.89999999999998
 21
-12
  0
LINE
  5
EF
100
AcDbEntity
  8
dimensions
  6
ByBlock
 62
    0
370
   -2
100
AcDbLine
 10
46.79999999999998
 20
2
 11
46.79999999999998
 21
-12
  0
ENDBLK
  5
6F
330
6D
100
AcDbEntity
  8
0
100
AcDbBlockEnd
  0
BLOCK
  5
71
330
70
100
AcDbEntity
  8
0
100
AcDbBlockBegin
  2
*D26
 70
    1
 10
0
 20
0
  3
*D26
  1

  0
LINE
  5
F0
100
AcDbEntity
  8
dimensions
  6
ByBlock
 62
    0
370
   -2
100
AcDbLine
 10
225.7171572875254
 20
-54.19999999999999
 11
302.6828427124746
 21
-54.19999999999999
  0
LINE
  5
F1
100
AcDbEntity
  8
dimensions
  6
ByBlock
 62
    0
370
   -2
100
AcDbLine
 10
227.1313708498985
 20
-52.7857864376269
 11
224.3029437251523
 21
-55.61421356237308
  0
LINE
  5
F2
100
AcDbEntity
  8
dimensions
  6
ByBlock
 62
    0
370
   -2
100
AcDbLine
 10
304.0970562748477
 20
-52.7857864376269
 11
301.2686291501015
 21
-55.61421356237308
  0
MTEXT
  5
F3
100
AcDbEntity
  8
dimensions
  6
CONTINUOUS
 62
    0
370
   -2
100
AcDbMText
 10
264.2
 20
-50.19999999999999
 30
0
 40
4
 41
12.66666666666691
 71
    5
 72
    1
  1
769,7
  7
standard
210
0
220
0
230
1
 50
0
 73
    2
 44
1
  0
LINE
  5
F4
100
AcDbEntity
  8
dimensions
  6
ByBlock
 62
    0
370
   -2
100
AcDbLine
 10
225.7171572875254
 20
-95.33431457505061
 11
225.7171572875254
 21
-52.19999999999999
  0
LINE
  5
F5
100
AcDbEntity
  8
dimensions
  6
ByBlock
 62
    0
370
   -2
100
AcDbLine
 10
302.6828427124746
 20
-95.33431457505083
 11
302.6828427124746
 21
-52.19999999999999
  0
ENDBLK
  5
72
330
70
100
AcDbEntity
  8
0
100
AcDbBlockEnd
  0
BLOCK
  5
74
330
73
100
AcDbEntity
  8
0
100
AcDbBlockBegin
  2
*D11
 70
    1
 10
0
 20
0
  3
*D11
  1

  0
LINE
  5
F6
100
AcDbEntity
  8
0
  6
CONTINUOUS
 62
    7
370
    0
100
AcDbLine
 10
-4.000000000000016
 20
-117
 11
-4.000000000000016
 21
-111
  0
SOLID
  5
F7
100
AcDbEntity
  8
dimensions
  6
CONTINUOUS
 62
    7
370
    0
100
AcDbTrace
 10
-4.000000000000016
 20
-117
 30
0
 11
-4.832569315545696
 21
-112
 31
0
 12
-3.167430684454334
 22
-112
 32
0
 13
-3.167430684454334
 23
-112
 33
0
  0
ENDBLK
  5
75
330
73
100
AcDbEntity
  8
0
100
AcDbBlockEnd
  0
BLOCK
  5
77
330
76
100
AcDbEntity
  8
0
100
AcDbBlockBegin
  2
*D22
 70
    1
 10
0
 20
0
  3
*D22
  1

  0
LINE
  5
F8
100
AcDbEntity
  8
dimensions
  6
ByBlock
 62
    0
370
   -2
100
AcDbLine
 10
220
 20
3
 11
220
 21
33.6
  0
LINE
  5
F9
100
AcDbEntity
  8
dimensions
  6
ByBlock
 62
    0
370
   -2
100
AcDbLine
 10
218.5857864376269
 20
4.414213562373096
 11
221.4142135623731
 21
1.585786437626905
  0
LINE
  5
FA
100
AcDbEntity
  8
dimensions
  6
ByBlock
 62
    0
370
   -2
100
AcDbLine
 10
218.5857864376269
 20
35.01421356237309
 11
221.4142135623731
 21
32.18578643762691
  0
MTEXT
  5
FB
100
AcDbEntity
  8
dimensions
  6
CONTINUOUS
 62
    0
370
   -2
100
AcDbMText
 10
216
 20
18.3
 30
0
 40
4
 41
8.000000000000496
 71
    5
 72
    1
  1
306
  7
standard
210
0
220
0
230
1
 50
90
 73
    2
 44
1
  0
LINE
  5
FC
100
AcDbEntity
  8
dimensions
  6
ByBlock
 62
    0
370
   -2
100
AcDbLine
 10
229
 20
3
 11
218
 21
3
  0
LINE
  5
FD
100
AcDbEntity
  8
dimensions
  6
ByBlock
 62
    0
370
   -2
100
AcDbLine
 10
229
 20
33.6
 11
218
 21
33.6
  0
ENDBLK
  5
78
330
76
100
AcDbEntity
  8
0
100
AcDbBlockEnd
  0
BLOCK
  5
7A
330
79
100
AcDbEntity
  8
0
100
AcDbBlockBegin
  2
*D31
 70
    1
 10
0
 20
0
  3
*D31
  1

  0
LINE
  5
FE
100
AcDbEntity
  8
dimensions
  6
ByBlock
 62
    0
370
   -2
100
AcDbLine
 10
275
 20
-10
 11
253.4
 21
-10
  0
LINE
  5
FF
100
AcDbEntity
  8
dimensions
  6
ByBlock
 62
    0
370
   -2
100
AcDbLine
 10
273.5857864376269
 20
-11.4142135623731
 11
276.4142135623731
 21
-8.585786437626904
  0
LINE
  5
100
100
AcDbEntity
  8
dimensions
  6
ByBlock
 62
    0
370
   -2
100
AcDbLine
 10
251.9857864376269
 20
-11.4142135623731
 11
254.8142135623731
 21
-8.585786437626904
  0
MTEXT
  5
101
100
AcDbEntity
  8
dimensions
  6
CONTINUOUS
 62
    0
370
   -2
100
AcDbMText
 10
264.2
 20
-6
 30
0
 40
4
 41
10.97777777777802
 71
    5
 72
    1
  1
216*
  7
standard
210
0
220
0
230
1
 50
360
 73
    2
 44
1
  0
LINE
  5
102
100
AcDbEntity
  8
dimensions
  6
ByBlock
 62
    0
370
   -2
100
AcDbLine
 10
275
 20
10
 11
275
 21
-12
  0
LINE
  5
103
100
AcDbEntity
  8
dimensions
  6
ByBlock
 62
    0
370
   -2
100
AcDbLine
 10
253.4
 20
10
 11
253.4
 21
-12
  0
ENDBLK
  5
7B
330
79
100
AcDbEntity
  8
0
100
AcDbBlockEnd
  0
BLOCK
  5
7D
330
7C
100
AcDbEntity
  8
0
100
AcDbBlockBegin
  2
*D9
 70
    1
 10
0
 20
0
  3
*D9
  1

  0
LINE
  5
104
100
AcDbEntity
  8
0
  6
CONTINUOUS
 62
    7
370
    0
100
AcDbLine
 10
-4.000000000000016
 20
-1.665334536937735e-16
 11
-4.000000000000016
 21
6
  0
SOLID
  5
105
100
AcDbEntity
  8
dimensions
  6
CONTINUOUS
 62
    7
370
    0
100
AcDbTrace
 10
-4.000000000000016
 20
-1.665334536937735e-16
 30
0
 11
-4.832569315545696
 21
5
 31
0
 12
-3.167430684454334
 22
5
 32
0
 13
-3.167430684454334
 23
5
 33
0
  0
ENDBLK
  5
7E
330
7C
100
AcDbEntity
  8
0
100
AcDbBlockEnd
  0
BLOCK
  5
80
330
7F
100
AcDbEntity
  8
0
100
AcDbBlockBegin
  2
*D1
 70
    1
 10
0
 20
0
  3
*D1
  1

  0
LINE
  5
106
100
AcDbEntity
  8
dimensions
  6
ByBlock
 62
    0
370
   -2
100
AcDbLine
 10
230
 20
90
 11
267.9999999999998
 21
90
  0
LINE
  5
107
100
AcDbEntity
  8
dimensions
  6
ByBlock
 62
    0
370
   -2
100
AcDbLine
 10
231.4142135623731
 20
91.41421356237309
 11
228.5857864376269
 21
88.58578643762691
  0
LINE
  5
108
100
AcDbEntity
  8
dimensions
  6
ByBlock
 62
    0
370
   -2
100
AcDbLine
 10
269.4142135623729
 20
91.41421356237309
 11
266.5857864376267
 21
88.58578643762691
  0
MTEXT
  5
109
100
AcDbEntity
  8
dimensions
  6
CONTINUOUS
 62
    0
370
   -2
100
AcDbMText
 10
248.9999999999999
 20
94
 30
0
 40
4
 41
8.000000000000249
 71
    5
 72
    1
  1
380
  7
standard
210
0
220
0
230
1
 50
0
 73
    2
 44
1
  0
LINE
  5
10A
100
AcDbEntity
  8
dimensions
  6
ByBlock
 62
    0
370
   -2
100
AcDbLine
 10
230
 20
99
 11
230
 21
88
  0
LINE
  5
10B
100
AcDbEntity
  8
dimensions
  6
ByBlock
 62
    0
370
   -2
100
AcDbLine
 10
267.9999999999998
 20
99
 11
267.9999999999998
 21
88
  0
ENDBLK
  5
81
330
7F
100
AcDbEntity
  8
0
100
AcDbBlockEnd
  0
BLOCK
  5
83
330
82
100
AcDbEntity
  8
0
100
AcDbBlockBegin
  2
*D16
 70
    1
 10
0
 20
0
  3
*D16
  1

  0
LINE
  5
10C
100
AcDbEntity
  8
0
  6
CONTINUOUS
 62
    7
370
    0
100
AcDbLine
 10
185.3999999999997
 20
8.999999999999972
 11
185.3999999999997
 21
14.99999999999997
  0
SOLID
  5
10D
100
AcDbEntity
  8
dimensions
  6
CONTINUOUS
 62
    7
370
    0
100
AcDbTrace
 10
185.3999999999997
 20
8.999999999999972
 30
0
 11
184.567430684454
 21
13.99999999999997
 31
0
 12
186.2325693155453
 22
13.99999999999997
 32
0
 13
186.2325693155453
 23
13.99999999999997
 33
0
  0
ENDBLK
  5
84
330
82
100
AcDbEntity
  8
0
100
AcDbBlockEnd
  0
BLOCK
  5
86
330
85
100
AcDbEntity
  8
0
100
AcDbBlockBegin
  2
*D17
 70
    1
 10
0
 20
0
  3
*D17
  1

  0
LINE
  5
10E
100
AcDbEntity
  8
0
  6
CONTINUOUS
 62
    7
370
    0
100
AcDbLine
 10
185.3999999999997
 20
-106
 11
185.3999999999997
 21
-100
  0
SOLID
  5
10F
100
AcDbEntity
  8
dimensions
  6
CONTINUOUS
 62
    7
370
    0
100
AcDbTrace
 10
185.3999999999997
 20
-106
 30
0
 11
184.567430684454
 21
-101
 31
0
 12
186.2325693155453
 22
-101
 32
0
 13
186.2325693155453
 23
-101
 33
0
  0
ENDBLK
  5
87
330
85
100
AcDbEntity
  8
0
100
AcDbBlockEnd
  0
BLOCK
  5
89
330
88
100
AcDbEntity
  8
0
100
AcDbBlockBegin
  2
*D25
 70
    1
 10
0
 20
0
  3
*D25
  1

  0
LINE
  5
110
100
AcDbEntity
  8
dimensions
  6
ByBlock
 62
    0
370
   -2
100
AcDbLine
 10
230
 20
-20
 11
298.4
 21
-20
  0
LINE
  5
111
100
AcDbEntity
  8
dimensions
  6
ByBlock
 62
    0
370
   -2
100
AcDbLine
 10
231.4142135623731
 20
-18.5857864376269
 11
228.5857864376269
 21
-21.4142135623731
  0
LINE
  5
112
100
AcDbEntity
  8
dimensions
  6
ByBlock
 62
    0
370
   -2
100
AcDbLine
 10
299.8142135623731
 20
-18.5857864376269
 11
296.9857864376269
 21
-21.4142135623731
  0
MTEXT
  5
113
100
AcDbEntity
  8
dimensions
  6
CONTINUOUS
 62
    0
370
   -2
100
AcDbMText
 10
264.2
 20
-16
 30
0
 40
4
 41
8.444444444444692
 71
    5
 72
    1
  1
684
  7
standard
210
0
220
0
230
1
 50
0
 73
    2
 44
1
  0
LINE
  5
114
100
AcDbEntity
  8
dimensions
  6
ByBlock
 62
    0
370
   -2
100
AcDbLine
 10
230
 20
-1
 11
230
 21
-22
  0
LINE
  5
115
100
AcDbEntity
  8
dimensions
  6
ByBlock
 62
    0
370
   -2
100
AcDbLine
 10
298.4
 20
-1.000000000000029
 11
298.4
 21
-22
  0
ENDBLK
  5
8A
330
88
100
AcDbEntity
  8
0
100
AcDbBlockEnd
  0
BLOCK
  5
8C
330
8B
100
AcDbEntity
  8
0
100
AcDbBlockBegin
  2
*D35
 70
    1
 10
0
 20
0
  3
*D35
  1

  0
LINE
  5
116
100
AcDbEntity
  8
dimensions
  6
ByBlock
 62
    0
370
   -2
100
AcDbLine
 10
-4
 20
-50.5
 11
184.3999999999997
 21
-50.5
  0
LINE
  5
117
100
AcDbEntity
  8
dimensions
  6
ByBlock
 62
    0
370
   -2
100
AcDbLine
 10
-2.585786437626905
 20
-49.08578643762691
 11
-5.414213562373096
 21
-51.91421356237309
  0
LINE
  5
118
100
AcDbEntity
  8
dimensions
  6
ByBlock
 62
    0
370
   -2
100
AcDbLine
 10
185.8142135623728
 20
-49.08578643762691
 11
182.9857864376266
 21
-51.91421356237309
  0
MTEXT
  5
119
100
AcDbEntity
  8
dimensions
  6
CONTINUOUS
 62
    0
370
   -2
100
AcDbMText
 10
90.19999999999983
 20
-46.5
 30
0
 40
4
 41
10.66666666666667
 71
    5
 72
    1
  1
1884
  7
standard
210
0
220
0
230
1
 50
0
 73
    2
 44
1
  0
LINE
  5
11A
100
AcDbEntity
  8
dimensions
  6
ByBlock
 62
    0
370
   -2
100
AcDbLine
 10
-4.000000000000015
 20
-63
 11
-3.999999999999998
 21
-48.5
  0
LINE
  5
11B
100
AcDbEntity
  8
dimensions
  6
ByBlock
 62
    0
370
   -2
100
AcDbLine
 10
184.3999999999997
 20
-63.00000000000003
 11
184.3999999999997
 21
-48.5
  0
ENDBLK
  5
8D
330
8B
100
AcDbEntity
  8
0
100
AcDbBlockEnd
  0
BLOCK
  5
8F
330
8E
100
AcDbEntity
  8
0
100
AcDbBlockBegin
  2
*D18
 70
    1
 10
0
 20
0
  3
*D18
  1

  0
LINE
  5
11C
100
AcDbEntity
  8
dimensions
  6
ByBlock
 62
    0
370
   -2
100
AcDbLine
 10
0
 20
-140
 11
180.4
 21
-140
  0
LINE
  5
11D
100
AcDbEntity
  8
dimensions
  6
ByBlock
 62
    0
370
   -2
100
AcDbLine
 10
1.414213562373095
 20
-138.5857864376269
 11
-1.414213562373095
 21
-141.4142135623731
  0
LINE
  5
11E
100
AcDbEntity
  8
dimensions
  6
ByBlock
 62
    0
370
   -2
100
AcDbLine
 10
181.8142135623731
 20
-138.5857864376269
 11
178.9857864376269
 21
-141.4142135623731
  0
MTEXT
  5
11F
100
AcDbEntity
  8
dimensions
  6
CONTINUOUS
 62
    0
370
   -2
100
AcDbMText
 10
90.19999999999999
 20
-136
 30
0
 40
4
 41
10.66666666666667
 71
    5
 72
    1
  1
1804
  7
standard
210
0
220
0
230
1
 50
0
 73
    2
 44
1
  0
LINE
  5
120
100
AcDbEntity
  8
dimensions
  6
ByBlock
 62
    0
370
   -2
100
AcDbLine
 10
-1.433904058384285e-14
 20
-131
 11
3.185319639056295e-15
 21
-142
  0
LINE
  5
121
100
AcDbEntity
  8
dimensions
  6
ByBlock
 62
    0
370
   -2
100
AcDbLine
 10
180.4
 20
-131
 11
180.4
 21
-142
  0
ENDBLK
  5
90
330
8E
100
AcDbEntity
  8
0
100
AcDbBlockEnd
  0
BLOCK
  5
92
330
91
100
AcDbEntity
  8
0
100
AcDbBlockBegin
  2
*D12
 70
    1
 10
0
 20
0
  3
*D12
  1

  0
LINE
  5
122
100
AcDbEntity
  8
dimensions
  6
ByBlock
 62
    0
370
   -2
100
AcDbLine
 10
4.099999999999982
 20
-9.999999999999995
 11
34.89999999999998
 21
-9.999999999999998
  0
LINE
  5
123
100
AcDbEntity
  8
dimensions
  6
ByBlock
 62
    0
370
   -2
100
AcDbLine
 10
12.68578643762689
 20
-11.41421356237309
 11
15.51421356237308
 21
-8.585786437626901
  0
LINE
  5
124
100
AcDbEntity
  8
dimensions
  6
ByBlock
 62
    0
370
   -2
100
AcDbLine
 10
23.48578643762689
 20
-11.41421356237309
 11
26.31421356237308
 21
-8.585786437626901
  0
MTEXT
  5
125
100
AcDbEntity
  8
dimensions
  6
CONTINUOUS
 62
    0
370
   -2
100
AcDbMText
 10
19.49999999999998
 20
-5.999999999999996
 30
0
 40
4
 41
7.111111111111111
 71
    5
 72
    1
  1
108
  7
standard
210
0
220
0
230
1
 50
0
 73
    2
 44
1
  0
LINE
  5
126
100
AcDbEntity
  8
dimensions
  6
ByBlock
 62
    0
370
   -2
100
AcDbLine
 10
14.09999999999998
 20
2
 11
14.09999999999998
 21
-12
  0
LINE
  5
127
100
AcDbEntity
  8
dimensions
  6
ByBlock
 62
    0
370
   -2
100
AcDbLine
 10
24.89999999999998
 20
2
 11
24.89999999999998
 21
-12
  0
ENDBLK
  5
93
330
91
100
AcDbEntity
  8
0
100
AcDbBlockEnd
  0
BLOCK
  5
95
330
94
100
AcDbEntity
  8
0
100
AcDbBlockBegin
  2
*D29
 70
    1
 10
0
 20
0
  3
*D29
  1

  0
LINE
  5
128
100
AcDbEntity
  8
dimensions
  6
ByBlock
 62
    0
370
   -2
100
AcDbLine
 10
293.0000000000001
 20
-10
 11
265
 21
-10
  0
LINE
  5
129
100
AcDbEntity
  8
dimensions
  6
ByBlock
 62
    0
370
   -2
100
AcDbLine
 10
284.4142135623732
 20
-8.585786437626904
 11
281.585786437627
 21
-11.4142135623731
  0
LINE
  5
12A
100
AcDbEntity
  8
dimensions
  6
ByBlock
 62
    0
370
   -2
100
AcDbLine
 10
276.4142135623731
 20
-8.585786437626904
 11
273.5857864376269
 21
-11.4142135623731
  0
MTEXT
  5
12B
100
AcDbEntity
  8
dimensions
  6
CONTINUOUS
 62
    0
370
   -2
100
AcDbMText
 10
279.0000000000001
 20
-6
 30
0
 40
4
 41
4.888888888888888
 71
    5
 72
    1
  1
80
  7
standard
210
0
220
0
230
1
 50
360
 73
    2
 44
1
  0
LINE
  5
12C
100
AcDbEntity
  8
dimensions
  6
ByBlock
 62
    0
370
   -2
100
AcDbLine
 10
283.0000000000001
 20
10
 11
283.0000000000001
 21
-12
  0
LINE
  5
12D
100
AcDbEntity
  8
dimensions
  6
ByBlock
 62
    0
370
   -2
100
AcDbLine
 10
275
 20
10
 11
275
 21
-12
  0
ENDBLK
  5
96
330
94
100
AcDbEntity
  8
0
100
AcDbBlockEnd
  0
BLOCK
  5
98
330
97
100
AcDbEntity
  8
0
100
AcDbBlockBegin
  2
*D4
 70
    1
 10
0
 20
0
  3
*D4
  1

  0
LINE
  5
12E
100
AcDbEntity
  8
dimensions
  6
ByBlock
 62
    0
370
   -2
100
AcDbLine
 10
36.79999999999998
 20
-9.999999999999998
 11
67.59999999999999
 21
-10
  0
LINE
  5
12F
100
AcDbEntity
  8
dimensions
  6
ByBlock
 62
    0
370
   -2
100
AcDbLine
 10
45.38578643762689
 20
-11.4142135623731
 11
48.21421356237308
 21
-8.585786437626904
  0
LINE
  5
130
100
AcDbEntity
  8
dimensions
  6
ByBlock
 62
    0
370
   -2
100
AcDbLine
 10
56.1857864376269
 20
-11.4142135623731
 11
59.01421356237309
 21
-8.585786437626904
  0
MTEXT
  5
131
100
AcDbEntity
  8
dimensions
  6
CONTINUOUS
 62
    0
370
   -2
100
AcDbMText
 10
52.19999999999998
 20
-6
 30
0
 40
4
 41
7.111111111111111
 71
    5
 72
    1
  1
108
  7
standard
210
0
220
0
230
1
 50
0
 73
    2
 44
1
  0
LINE
  5
132
100
AcDbEntity
  8
dimensions
  6
ByBlock
 62
    0
370
   -2
100
AcDbLine
 10
46.79999999999998
 20
2
 11
46.79999999999998
 21
-12
  0
LINE
  5
133
100
AcDbEntity
  8
dimensions
  6
ByBlock
 62
    0
370
   -2
100
AcDbLine
 10
57.59999999999999
 20
2
 11
57.59999999999999
 21
-12
  0
ENDBLK
  5
99
330
97
100
AcDbEntity
  8
0
100
AcDbBlockEnd
  0
BLOCK
  5
9B
330
9A
100
AcDbEntity
  8
0
100
AcDbBlockBegin
  2
*D2
 70
    1
 10
0
 20
0
  3
*D2
  1

  0
LINE
  5
134
100
AcDbEntity
  8
dimensions
  6
ByBlock
 62
    0
370
   -2
100
AcDbLine
 10
191.9999999999999
 20
90
 11
230
 21
90
  0
LINE
  5
135
100
AcDbEntity
  8
dimensions
  6
ByBlock
 62
    0
370
   -2
100
AcDbLine
 10
193.414213562373
 20
91.41421356237309
 11
190.5857864376268
 21
88.58578643762691
  0
LINE
  5
136
100
AcDbEntity
  8
dimensions
  6
ByBlock
 62
    0
370
   -2
100
AcDbLine
 10
231.4142135623731
 20
91.41421356237309
 11
228.5857864376269
 21
88.58578643762691
  0
MTEXT
  5
137
100
AcDbEntity
  8
dimensions
  6
CONTINUOUS
 62
    0
370
   -2
100
AcDbMText
 10
210.9999999999999
 20
94
 30
0
 40
4
 41
8.000000000000249
 71
    5
 72
    1
  1
380
  7
standard
210
0
220
0
230
1
 50
0
 73
    2
 44
1
  0
LINE
  5
138
100
AcDbEntity
  8
dimensions
  6
ByBlock
 62
    0
370
   -2
100
AcDbLine
 10
191.9999999999999
 20
99
 11
191.9999999999999
 21
88
  0
LINE
  5
139
100
AcDbEntity
  8
dimensions
  6
ByBlock
 62
    0
370
   -2
100
AcDbLine
 10
230
 20
99
 11
230
 21
88
  0
ENDBLK
  5
9C
330
9A
100
AcDbEntity
  8
0
100
AcDbBlockEnd
  0
BLOCK
  5
9E
330
9D
100
AcDbEntity
  8
0
100
AcDbBlockBegin
  2
*D19
 70
    1
 10
0
 20
0
  3
*D19
  1

  0
LINE
  5
13A
100
AcDbEntity
  8
dimensions
  6
ByBlock
 62
    0
370
   -2
100
AcDbLine
 10
121.2
 20
-9.999999999999998
 11
152.9
 21
-10
  0
LINE
  5
13B
100
AcDbEntity
  8
dimensions
  6
ByBlock
 62
    0
370
   -2
100
AcDbLine
 10
129.7857864376269
 20
-11.4142135623731
 11
132.6142135623731
 21
-8.585786437626904
  0
LINE
  5
13C
100
AcDbEntity
  8
dimensions
  6
ByBlock
 62
    0
370
   -2
100
AcDbLine
 10
141.4857864376269
 20
-11.4142135623731
 11
144.3142135623731
 21
-8.585786437626904
  0
MTEXT
  5
13D
100
AcDbEntity
  8
dimensions
  6
CONTINUOUS
 62
    0
370
   -2
100
AcDbMText
 10
137.05
 20
-6
 30
0
 40
4
 41
6.222222222222221
 71
    5
 72
    1
  1
117
  7
standard
210
0
220
0
230
1
 50
0
 73
    2
 44
1
  0
LINE
  5
13E
100
AcDbEntity
  8
dimensions
  6
ByBlock
 62
    0
370
   -2
100
AcDbLine
 10
131.2
 20
2
 11
131.2
 21
-12
  0
LINE
  5
13F
100
AcDbEntity
  8
dimensions
  6
ByBlock
 62
    0
370
   -2
100
AcDbLine
 10
142.9
 20
2
 11
142.9
 21
-12
  0
ENDBLK
  5
9F
330
9D
100
AcDbEntity
  8
0
100
AcDbBlockEnd
  0
BLOCK
  5
A1
330
A0
100
AcDbEntity
  8
0
100
AcDbBlockBegin
  2
*D5
 70
    1
 10
0
 20
0
  3
*D5
  1

  0
LINE
  5
140
100
AcDbEntity
  8
dimensions
  6
ByBlock
 62
    0
370
   -2
100
AcDbLine
 10
57.59999999999999
 20
-10
 11
79.8
 21
-10
  0
LINE
  5
141
100
AcDbEntity
  8
dimensions
  6
ByBlock
 62
    0
370
   -2
100
AcDbLine
 10
59.01421356237309
 20
-8.585786437626904
 11
56.1857864376269
 21
-11.4142135623731
  0
LINE
  5
142
100
AcDbEntity
  8
dimensions
  6
ByBlock
 62
    0
370
   -2
100
AcDbLine
 10
81.21421356237309
 20
-8.585786437626904
 11
78.3857864376269
 21
-11.4142135623731
  0
MTEXT
  5
143
100
AcDbEntity
  8
dimensions
  6
CONTINUOUS
 62
    0
370
   -2
100
AcDbMText
 10
68.69999999999999
 20
-6
 30
0
 40
4
 41
8
 71
    5
 72
    1
  1
222
  7
standard
210
0
220
0
230
1
 50
0
 73
    2
 44
1
  0
LINE
  5
144
100
AcDbEntity
  8
dimensions
  6
ByBlock
 62
    0
370
   -2
100
AcDbLine
 10
57.59999999999999
 20
2
 11
57.59999999999999
 21
-12
  0
LINE
  5
145
100
AcDbEntity
  8
dimensions
  6
ByBlock
 62
    0
370
   -2
100
AcDbLine
 10
79.8
 20
2
 11
79.8
 21
-12
  0
ENDBLK
  5
A2
330
A0
100
AcDbEntity
  8
0
100
AcDbBlockEnd
  0
BLOCK
  5
A4
330
A3
100
AcDbEntity
  8
0
100
AcDbBlockBegin
  2
*D14
 70
    1
 10
0
 20
0
  3
*D14
  1

  0
LINE
  5
146
100
AcDbEntity
  8
dimensions
  6
ByBlock
 62
    0
370
   -2
100
AcDbLine
 10
-1.598721155460225e-14
 20
-10
 11
14.09999999999998
 21
-10
  0
LINE
  5
147
100
AcDbEntity
  8
dimensions
  6
ByBlock
 62
    0
370
   -2
100
AcDbLine
 10
1.414213562373079
 20
-8.585786437626904
 11
-1.414213562373111
 21
-11.4142135623731
  0
LINE
  5
148
100
AcDbEntity
  8
dimensions
  6
ByBlock
 62
    0
370
   -2
100
AcDbLine
 10
15.51421356237308
 20
-8.585786437626904
 11
12.68578643762689
 21
-11.4142135623731
  0
MTEXT
  5
149
100
AcDbEntity
  8
dimensions
  6
CONTINUOUS
 62
    0
370
   -2
100
AcDbMText
 10
7.049999999999984
 20
-6
 30
0
 40
4
 41
6.666666666666666
 71
    5
 72
    1
  1
141
  7
standard
210
0
220
0
230
1
 50
0
 73
    2
 44
1
  0
LINE
  5
14A
100
AcDbEntity
  8
dimensions
  6
ByBlock
 62
    0
370
   -2
100
AcDbLine
 10
-1.61153974232431e-14
 20
2
 11
-1.635460559434646e-14
 21
-12
  0
LINE
  5
14B
100
AcDbEntity
  8
dimensions
  6
ByBlock
 62
    0
370
   -2
100
AcDbLine
 10
14.09999999999998
 20
2
 11
14.09999999999998
 21
-12
  0
ENDBLK
  5
A5
330
A3
100
AcDbEntity
  8
0
100
AcDbBlockEnd
  0
BLOCK
  5
A7
330
A6
100
AcDbEntity
  8
0
100
AcDbBlockBegin
  2
*D24
 70
    1
 10
0
 20
0
  3
*D24
  1

  0
LINE
  5
14C
100
AcDbEntity
  8
dimensions
  6
ByBlock
 62
    0
370
   -2
100
AcDbLine
 10
288.4
 20
28
 11
312.4
 21
28
  0
LINE
  5
14D
100
AcDbEntity
  8
dimensions
  6
ByBlock
 62
    0
370
   -2
100
AcDbLine
 10
296.9857864376269
 20
26.5857864376269
 11
299.8142135623731
 21
29.4142135623731
  0
LINE
  5
14E
100
AcDbEntity
  8
dimensions
  6
ByBlock
 62
    0
370
   -2
100
AcDbLine
 10
300.9857864376269
 20
26.5857864376269
 11
303.8142135623731
 21
29.4142135623731
  0
MTEXT
  5
14F
100
AcDbEntity
  8
dimensions
  6
CONTINUOUS
 62
    0
370
   -2
100
AcDbMText
 10
307.0666666666667
 20
32
 30
0
 40
4
 41
5.333333333333333
 71
    5
 72
    1
  1
40
  7
standard
210
0
220
0
230
1
 50
0
 73
    2
 44
1
  0
LINE
  5
150
100
AcDbEntity
  8
dimensions
  6
ByBlock
 62
    0
370
   -2
100
AcDbLine
 10
298.4
 20
32.59999999999997
 11
298.4
 21
26
  0
LINE
  5
151
100
AcDbEntity
  8
dimensions
  6
ByBlock
 62
    0
370
   -2
100
AcDbLine
 10
302.4
 20
33.18284271247455
 11
302.4
 21
26
  0
ENDBLK
  5
A8
330
A6
100
AcDbEntity
  8
0
100
AcDbBlockEnd
  0
BLOCK
  5
AA
330
A9
100
AcDbEntity
  8
0
100
AcDbBlockBegin
  2
*D32
 70
    1
 10
0
 20
0
  3
*D32
  1

  0
LINE
  5
152
100
AcDbEntity
  8
dimensions
  6
ByBlock
 62
    0
370
   -2
100
AcDbLine
 10
225.0100505063388
 20
35.17279220613594
 11
218.7772077938643
 21
41.40563491861052
  0
LINE
  5
153
100
AcDbEntity
  8
dimensions
  6
ByBlock
 62
    0
370
   -2
100
AcDbLine
 10
263.4928932188134
 20
73.65563491861046
 11
257.2600505063389
 21
79.88847763108502
  0
LINE
  5
154
100
AcDbEntity
  8
dimensions
  6
ByBlock
 62
    0
370
   -2
100
AcDbLine
 10
220.1914213562374
 20
39.99142135623742
 11
258.674264068712
 21
78.47426406871193
  0
LINE
  5
155
100
AcDbEntity
  8
dimensions
  6
ByBlock
 62
    0
370
   -2
100
AcDbLine
 10
220.1914213562374
 20
41.99142135623742
 11
220.1914213562374
 21
37.99142135623742
  0
LINE
  5
156
100
AcDbEntity
  8
dimensions
  6
ByBlock
 62
    0
370
   -2
100
AcDbLine
 10
258.674264068712
 20
80.47426406871193
 11
258.674264068712
 21
76.47426406871193
  0
MTEXT
  5
157
100
AcDbEntity
  8
dimensions
  6
CONTINUOUS
 62
    0
370
   -2
100
AcDbMText
 10
236.6044155877285
 20
62.06126983722087
 30
0
 40
4
 41
13.5555555555558
 71
    5
 72
    1
  1
544,2
  7
standard
210
0
220
0
230
1
 50
44.99999999999995
 73
    2
 44
1
  0
ENDBLK
  5
AB
330
A9
100
AcDbEntity
  8
0
100
AcDbBlockEnd
  0
BLOCK
  5
AD
330
AC
100
AcDbEntity
  8
0
100
AcDbBlockBegin
  2
*D10
 70
    1
 10
0
 20
0
  3
*D10
  1

  0
LINE
  5
158
100
AcDbEntity
  8
0
  6
CONTINUOUS
 62
    7
370
    0
100
AcDbLine
 10
-4.000000000000016
 20
9
 11
-4.000000000000016
 21
15
  0
SOLID
  5
159
100
AcDbEntity
  8
dimensions
  6
CONTINUOUS
 62
    7
370
    0
100
AcDbTrace
 10
-4.000000000000016
 20
9
 30
0
 11
-4.832569315545696
 21
14
 31
0
 12
-3.167430684454334
 22
14
 32
0
 13
-3.167430684454334
 23
14
 33
0
  0
ENDBLK
  5
AE
330
AC
100
AcDbEntity
  8
0
100
AcDbBlockEnd
  0
BLOCK
  5
B0
330
AF
100
AcDbEntity
  8
0
100
AcDbBlockBegin
  2
*D8
 70
    1
 10
0
 20
0
  3
*D8
  1

  0
LINE
  5
15A
100
AcDbEntity
  8
dimensions
  6
ByBlock
 62
    0
370
   -2
100
AcDbLine
 10
104.7
 20
-10
 11
131.2
 21
-10
  0
LINE
  5
15B
100
AcDbEntity
  8
dimensions
  6
ByBlock
 62
    0
370
   -2
100
AcDbLine
 10
106.1142135623731
 20
-8.585786437626904
 11
103.2857864376269
 21
-11.4142135623731
  0
LINE
  5
15C
100
AcDbEntity
  8
dimensions
  6
ByBlock
 62
    0
370
   -2
100
AcDbLine
 10
132.6142135623731
 20
-8.585786437626904
 11
129.7857864376269
 21
-11.4142135623731
  0
MTEXT
  5
15D
100
AcDbEntity
  8
dimensions
  6
CONTINUOUS
 62
    0
370
   -2
100
AcDbMText
 10
117.95
 20
-6
 30
0
 40
4
 41
8.000000000000497
 71
    5
 72
    1
  1
265
  7
standard
210
0
220
0
230
1
 50
0
 73
    2
 44
1
  0
LINE
  5
15E
100
AcDbEntity
  8
dimensions
  6
ByBlock
 62
    0
370
   -2
100
AcDbLine
 10
104.7
 20
2
 11
104.7
 21
-12
  0
LINE
  5
15F
100
AcDbEntity
  8
dimensions
  6
ByBlock
 62
    0
370
   -2
100
AcDbLine
 10
131.2
 20
2
 11
131.2
 21
-12
  0
ENDBLK
  5
B1
330
AF
100
AcDbEntity
  8
0
100
AcDbBlockEnd
  0
BLOCK
  5
B3
330
B2
100
AcDbEntity
  8
0
100
AcDbBlockBegin
  2
*D27
 70
    1
 10
0
 20
0
  3
*D27
  1

  0
LINE
  5
160
100
AcDbEntity
  8
dimensions
  6
ByBlock
 62
    0
370
   -2
100
AcDbLine
 10
263.4
 20
-10
 11
235.4
 21
-10
  0
LINE
  5
161
100
AcDbEntity
  8
dimensions
  6
ByBlock
 62
    0
370
   -2
100
AcDbLine
 10
254.8142135623731
 20
-8.585786437626904
 11
251.9857864376269
 21
-11.4142135623731
  0
LINE
  5
162
100
AcDbEntity
  8
dimensions
  6
ByBlock
 62
    0
370
   -2
100
AcDbLine
 10
246.8142135623731
 20
-8.585786437626904
 11
243.9857864376269
 21
-11.4142135623731
  0
MTEXT
  5
163
100
AcDbEntity
  8
dimensions
  6
CONTINUOUS
 62
    0
370
   -2
100
AcDbMText
 10
249.4
 20
-6
 30
0
 40
4
 41
4.888888888888888
 71
    5
 72
    1
  1
80
  7
standard
210
0
220
0
230
1
 50
360
 73
    2
 44
1
  0
LINE
  5
164
100
AcDbEntity
  8
dimensions
  6
ByBlock
 62
    0
370
   -2
100
AcDbLine
 10
253.4
 20
10
 11
253.4
 21
-12
  0
LINE
  5
165
100
AcDbEntity
  8
dimensions
  6
ByBlock
 62
    0
370
   -2
100
AcDbLine
 10
245.4
 20
10
 11
245.4
 21
-12
  0
ENDBLK
  5
B4
330
B2
100
AcDbEntity
  8
0
100
AcDbBlockEnd
  0
BLOCK
  5
B6
330
B5
100
AcDbEntity
  8
0
100
AcDbBlockBegin
  2
*D20
 70
    1
 10
0
 20
0
  3
*D20
  1

  0
LINE
  5
166
100
AcDbEntity
  8
dimensions
  6
ByBlock
 62
    0
370
   -2
100
AcDbLine
 10
142.9
 20
-10
 11
169.4
 21
-10
  0
LINE
  5
167
100
AcDbEntity
  8
dimensions
  6
ByBlock
 62
    0
370
   -2
100
AcDbLine
 10
144.3142135623731
 20
-8.585786437626904
 11
141.4857864376269
 21
-11.4142135623731
  0
LINE
  5
168
100
AcDbEntity
  8
dimensions
  6
ByBlock
 62
    0
370
   -2
100
AcDbLine
 10
170.8142135623731
 20
-8.585786437626904
 11
167.9857864376269
 21
-11.4142135623731
  0
MTEXT
  5
169
100
AcDbEntity
  8
dimensions
  6
CONTINUOUS
 62
    0
370
   -2
100
AcDbMText
 10
156.15
 20
-6
 30
0
 40
4
 41
8.000000000000497
 71
    5
 72
    1
  1
265
  7
standard
210
0
220
0
230
1
 50
0
 73
    2
 44
1
  0
LINE
  5
16A
100
AcDbEntity
  8
dimensions
  6
ByBlock
 62
    0
370
   -2
100
AcDbLine
 10
142.9
 20
2
 11
142.9
 21
-12
  0
LINE
  5
16B
100
AcDbEntity
  8
dimensions
  6
ByBlock
 62
    0
370
   -2
100
AcDbLine
 10
169.4
 20
2
 11
169.4
 21
-12
  0
ENDBLK
  5
B7
330
B5
100
AcDbEntity
  8
0
100
AcDbBlockEnd
  0
BLOCK
  5
B9
330
B8
100
AcDbEntity
  8
0
100
AcDbBlockBegin
  2
*D21
 70
    1
 10
0
 20
0
  3
*D21
  1

  0
LINE
  5
16C
100
AcDbEntity
  8
dimensions
  6
ByBlock
 62
    0
370
   -2
100
AcDbLine
 10
159.4
 20
-9.999999999999998
 11
190.4
 21
-10
  0
LINE
  5
16D
100
AcDbEntity
  8
dimensions
  6
ByBlock
 62
    0
370
   -2
100
AcDbLine
 10
167.9857864376269
 20
-11.4142135623731
 11
170.8142135623731
 21
-8.585786437626904
  0
LINE
  5
16E
100
AcDbEntity
  8
dimensions
  6
ByBlock
 62
    0
370
   -2
100
AcDbLine
 10
178.9857864376269
 20
-11.4142135623731
 11
181.8142135623731
 21
-8.585786437626904
  0
MTEXT
  5
16F
100
AcDbEntity
  8
dimensions
  6
CONTINUOUS
 62
    0
370
   -2
100
AcDbMText
 10
174.9
 20
-6
 30
0
 40
4
 41
6.222222222222221
 71
    5
 72
    1
  1
110
  7
standard
210
0
220
0
230
1
 50
0
 73
    2
 44
1
  0
LINE
  5
170
100
AcDbEntity
  8
dimensions
  6
ByBlock
 62
    0
370
   -2
100
AcDbLine
 10
169.4
 20
2
 11
169.4
 21
-12
  0
LINE
  5
171
100
AcDbEntity
  8
dimensions
  6
ByBlock
 62
    0
370
   -2
100
AcDbLine
 10
180.4
 20
2
 11
180.4
 21
-12
  0
ENDBLK
  5
BA
330
B8
100
AcDbEntity
  8
0
100
AcDbBlockEnd
  0
BLOCK
  5
BC
330
BB
100
AcDbEntity
  8
0
100
AcDbBlockBegin
  2
*D30
 70
    1
 10
0
 20
0
  3
*D30
  1

  0
LINE
  5
172
100
AcDbEntity
  8
dimensions
  6
ByBlock
 62
    0
370
   -2
100
AcDbLine
 10
298.4
 20
-10
 11
283
 21
-10
  0
LINE
  5
173
100
AcDbEntity
  8
dimensions
  6
ByBlock
 62
    0
370
   -2
100
AcDbLine
 10
296.9857864376269
 20
-11.4142135623731
 11
299.8142135623731
 21
-8.585786437626904
  0
LINE
  5
174
100
AcDbEntity
  8
dimensions
  6
ByBlock
 62
    0
370
   -2
100
AcDbLine
 10
281.5857864376269
 20
-11.4142135623731
 11
284.4142135623731
 21
-8.585786437626904
  0
MTEXT
  5
175
100
AcDbEntity
  8
dimensions
  6
CONTINUOUS
 62
    0
370
   -2
100
AcDbMText
 10
290.7
 20
-6
 30
0
 40
4
 41
7.555555555555804
 71
    5
 72
    1
  1
154
  7
standard
210
0
220
0
230
1
 50
360
 73
    2
 44
1
  0
LINE
  5
176
100
AcDbEntity
  8
dimensions
  6
ByBlock
 62
    0
370
   -2
100
AcDbLine
 10
298.4
 20
-1.000000000000029
 11
298.4
 21
-12
  0
LINE
  5
177
100
AcDbEntity
  8
dimensions
  6
ByBlock
 62
    0
370
   -2
100
AcDbLine
 10
283
 20
10
 11
283
 21
-12
  0
ENDBLK
  5
BD
330
BB
100
AcDbEntity
  8
0
100
AcDbBlockEnd
  0
ENDSEC
  0
SECTION
  2
ENTITIES
  0
HATCH
  5
178
100
AcDbEntity
  8
dah
  6
ByLayer
 62
  256
370
   13
100
AcDbHatch
 10
0
 20
0
 30
0
210
0
220
0
230
1
  2
ar-roof
 70
    0
 71
    0
 91
    1
 92
    0
 93
    4
 72
    1
 10
-4.000000000000016
 20
-96.61715728752527
 11
184.3999999999997
 21
-96.6171572875253
 72
    1
 10
184.3999999999997
 20
-96.6171572875253
 11
184.3999999999997
 21
-57.8777561848413
 72
    1
 10
184.3999999999997
 20
-57.8777561848413
 11
-4.000000000000016
 21
-57.87775618484127
 72
    1
 10
-4.000000000000016
 20
-57.87775618484127
 11
-4.000000000000016
 21
-96.61715728752527
 97
    0
 75
    0
 76
    1
 52
0
 41
0.1
 77
    0
 78
    0
 98
    0
  0
HATCH
  5
179
100
AcDbEntity
  8
wall
  6
ByLayer
 62
  256
370
   -1
100
AcDbHatch
 10
0
 20
0
 30
0
210
0
220
0
230
1
  2
ar-brstd
 70
    0
 71
    0
 91
    1
 92
    0
 93
   29
 72
    1
 10
247.1999999999999
 20
-84.23
 11
247.1999999999999
 21
-91.25
 72
    1
 10
247.1999999999999
 20
-91.25
 11
251.1999999999999
 21
-91.25
 72
    1
 10
251.1999999999999
 20
-91.25
 11
251.1999999999999
 21
-84.23
 72
    1
 10
251.1999999999999
 20
-84.23
 11
252.0830850325295
 21
-81.89121264716572
 72
    2
 10
249.1999336000342
 20
-89.52703939961495
 40
8.162010314629562
 50
69.3143616299251
 51
110.6846616299251
 73
    1
 72
    1
 10
246.3169123384282
 20
-81.89116349823686
 11
247.1999999999999
 21
-84.23
 72
    1
 10
260.9499999999991
 20
-68.3
 11
260.9499999999991
 21
-69.55
 72
    1
 10
260.9499999999991
 20
-69.55
 11
267.4500000000019
 21
-69.54999999999997
 72
    1
 10
267.4500000000019
 20
-69.54999999999997
 11
267.4500000000009
 21
-68.3
 72
    2
 10
264.2
 20
-68.3
 40
3.250000000000881
 50
0
 51
180.0000000000001
 73
    1
 72
    1
 10
298.4
 20
-97.20000000000003
 11
230
 21
-97.2
 72
    1
 10
230
 20
-97.2
 11
230
 21
-92.89999999999988
 72
    1
 10
230
 20
-92.89999999999988
 11
264.1999999999999
 21
-58.69999999999999
 72
    1
 10
264.1999999999999
 20
-58.69999999999999
 11
298.4
 21
-92.90000000000008
 72
    1
 10
298.4
 20
-92.90000000000008
 11
298.4
 21
-97.20000000000003
 72
    1
 10
271.2
 20
-75.90000000000001
 11
271.2
 21
-73.40000000000001
 72
    1
 10
271.2
 20
-73.40000000000001
 11
257.2
 21
-73.40000000000001
 72
    1
 10
257.2
 20
-73.40000000000001
 11
257.2
 21
-75.90000000000001
 72
    1
 10
257.2
 20
-75.90000000000001
 11
271.2
 21
-75.90000000000001
 72
    1
 10
258.8
 20
-96.5
 11
269.6
 21
-96.5
 72
    1
 10
269.6
 20
-96.5
 11
269.6
 21
-75.90000000000001
 72
    1
 10
269.6
 20
-75.90000000000001
 11
258.8
 21
-75.90000000000001
 72
    1
 10
258.8
 20
-75.90000000000001
 11
258.8
 21
-96.5
 72
    1
 10
281.2
 20
-84.23
 11
282.0830850325296
 21
-81.89121264716572
 72
    2
 10
279.1999336000343
 20
-89.52703939961495
 40
8.162010314629562
 50
69.3143616299251
 51
110.6846616299251
 73
    1
 72
    1
 10
276.3169123384282
 20
-81.89116349823686
 11
277.2
 21
-84.23
 72
    1
 10
277.2
 20
-84.23
 11
277.2
 21
-91.25
 72
    1
 10
277.2
 20
-91.25
 11
281.2
 21
-91.25
 72
    1
 10
281.2
 20
-91.25
 11
281.2
 21
-84.23
 97
    0
 75
    0
 76
    1
 52
0
 41
0.1
 77
    0
 78
    0
 98
    0
  0
HATCH
  5
17A
100
AcDbEntity
  8
dah
  6
ByLayer
 62
  256
370
   13
100
AcDbHatch
 10
0
 20
0
 30
0
210
0
220
0
230
1
  2
ar-roof
 70
    0
 71
    0
 91
    1
 92
    0
 93
    4
 72
    1
 10
184.3999999999997
 20
72.94852813742385
 11
-4.000000000000048
 21
72.94852813742388
 72
    1
 10
-4.000000000000048
 20
72.94852813742388
 11
-4.00000000000002
 21
34.20000000000002
 72
    1
 10
-4.00000000000002
 20
34.20000000000002
 11
184.3999999999997
 21
34.19999999999999
 72
    1
 10
184.3999999999997
 20
34.19999999999999
 11
184.3999999999997
 21
72.94852813742385
 97
    0
 75
    0
 76
    1
 52
0
 41
0.1
 77
    0
 78
    0
 98
    0
  0
HATCH
  5
17B
100
AcDbEntity
  8
wall
  6
ByLayer
 62
  256
370
   -1
100
AcDbHatch
 10
0
 20
0
 30
0
210
0
220
0
230
1
  2
ar-brstd
 70
    0
 71
    0
 91
    1
 92
    0
 93
   29
 72
    2
 10
264.2
 20
62.50000000000001
 40
3.250000000000881
 50
0
 51
180.0000000000001
 73
    1
 72
    1
 10
260.9499999999991
 20
62.5
 11
260.9499999999991
 21
61.25000000000001
 72
    1
 10
260.9499999999991
 20
61.25000000000001
 11
267.4500000000019
 21
61.25000000000005
 72
    1
 10
267.4500000000019
 20
61.25000000000005
 11
267.4500000000009
 21
62.50000000000001
 72
    1
 10
264.1999999999999
 20
72.10000000000001
 11
298.4
 21
37.89999999999993
 72
    1
 10
298.4
 20
37.89999999999993
 11
298.4
 21
33.59999999999997
 72
    1
 10
298.4
 20
33.59999999999997
 11
230
 21
33.6
 72
    1
 10
230
 20
33.6
 11
230
 21
37.90000000000013
 72
    1
 10
230
 20
37.90000000000013
 11
264.1999999999999
 21
72.10000000000001
 72
    1
 10
271.2
 20
54.90000000000001
 11
271.2
 21
57.40000000000001
 72
    1
 10
271.2
 20
57.40000000000001
 11
257.2
 21
57.40000000000001
 72
    1
 10
257.2
 20
57.40000000000001
 11
257.2
 21
54.90000000000001
 72
    1
 10
257.2
 20
54.90000000000001
 11
271.2
 21
54.90000000000001
 72
    1
 10
258.8
 20
34.3
 11
269.6
 21
34.3
 72
    1
 10
269.6
 20
34.3
 11
269.6
 21
54.90000000000001
 72
    1
 10
269.6
 20
54.90000000000001
 11
258.8
 21
54.90000000000001
 72
    1
 10
258.8
 20
54.90000000000001
 11
258.8
 21
34.3
 72
    1
 10
281
 20
46.57000000000001
 11
281.8830850325296
 21
48.90878735283428
 72
    2
 10
278.9999336000343
 20
41.27296060038505
 40
8.162010314629562
 50
69.3143616299251
 51
110.6846616299251
 73
    1
 72
    1
 10
276.1169123384282
 20
48.90883650176315
 11
277
 21
46.57000000000001
 72
    1
 10
277
 20
46.57000000000001
 11
277
 21
39.55
 72
    1
 10
277
 20
39.55
 11
281
 21
39.55
 72
    1
 10
281
 20
39.55
 11
281
 21
46.57000000000001
 72
    1
 10
251.3999999999999
 20
46.57000000000001
 11
252.2830850325295
 21
48.90878735283428
 72
    2
 10
249.3999336000342
 20
41.27296060038505
 40
8.162010314629562
 50
69.3143616299251
 51
110.6846616299251
 73
    1
 72
    1
 10
246.5169123384282
 20
48.90883650176315
 11
247.3999999999999
 21
46.57000000000001
 72
    1
 10
247.3999999999999
 20
46.57000000000001
 11
247.3999999999999
 21
39.55
 72
    1
 10
247.3999999999999
 20
39.55
 11
251.3999999999999
 21
39.55
 72
    1
 10
251.3999999999999
 20
39.55
 11
251.3999999999999
 21
46.57000000000001
 97
    0
 75
    0
 76
    1
 52
0
 41
0.1
 77
    0
 78
    0
 98
    0
  0
HATCH
  5
17C
100
AcDbEntity
  8
base
  6
ByLayer
 62
  256
370
   13
100
AcDbHatch
 10
0
 20
0
 30
0
210
0
220
0
230
1
  2
ar-rshke
 70
    0
 71
    0
 91
    1
 92
    0
 93
    4
 72
    1
 10
230
 20
3
 11
230
 21
-1.665334536937735e-16
 72
    1
 10
230
 20
-1.665334536937735e-16
 11
298.4
 21
-2.858824288409778e-14
 72
    1
 10
298.4
 20
-2.858824288409778e-14
 11
298.4
 21
2.999999999999972
 72
    1
 10
298.4
 20
2.999999999999972
 11
230
 21
3
 97
    0
 75
    0
 76
    1
 52
0
 41
0.1
 77
    0
 78
    0
 98
    0
  0
HATCH
  5
17D
100
AcDbEntity
  8
wall
  6
ByLayer
 62
  256
370
   -1
100
AcDbHatch
 10
0
 20
0
 30
0
210
0
220
0
230
1
  2
ar-brstd
 70
    0
 71
    0
 91
    1
 92
    0
 93
   16
 72
    1
 10
244.5169123384282
 20
26.10883650176314
 11
245.3999999999999
 21
23.76999999999999
 72
    1
 10
245.3999999999999
 20
23.76999999999999
 11
245.3999999999999
 21
9.75
 72
    1
 10
245.3999999999999
 20
9.75
 11
253.3999999999999
 21
9.75
 72
    1
 10
253.3999999999999
 20
9.75
 11
253.3999999999999
 21
23.77
 72
    1
 10
253.3999999999999
 20
23.77
 11
254.2830876615717
 21
26.10883650176314
 72
    2
 10
249.3999999999999
 20
13.17609589041107
 40
13.82390410958893
 50
69.31468571905059
 51
110.6853142809494
 73
    1
 72
    1
 10
275
 20
23.76999999999999
 11
275
 21
9.75
 72
    1
 10
275
 20
9.75
 11
283
 21
9.75
 72
    1
 10
283
 20
9.75
 11
283
 21
23.77
 72
    1
 10
283
 20
23.77
 11
283.8830876615718
 21
26.10883650176314
 72
    2
 10
279
 20
13.17609589041107
 40
13.82390410958893
 50
69.31468571905059
 51
110.6853142809494
 73
    1
 72
    1
 10
274.1169123384282
 20
26.10883650176314
 11
275
 21
23.76999999999999
 72
    1
 10
298.4
 20
2.999999999999972
 11
298.4
 21
33.59999999999997
 72
    1
 10
298.4
 20
33.59999999999997
 11
230
 21
33.6
 72
    1
 10
230
 20
33.6
 11
230
 21
3
 72
    1
 10
230
 20
3
 11
298.4
 21
2.999999999999972
 97
    0
 75
    0
 76
    1
 52
0
 41
0.1
 77
    0
 78
    0
 98
    0
  0
HATCH
  5
17E
100
AcDbEntity
  8
wood
  6
ByLayer
 62
  256
370
   -1
100
AcDbHatch
 10
0
 20
0
 30
0
210
0
220
0
230
1
  2
gost_wood1
 70
    0
 71
    0
 91
    1
 92
    0
 93
    4
 72
    1
 10
298.4
 20
-92.90000000000008
 11
301.7
 21
-96.20000000000003
 72
    1
 10
301.7
 20
-96.20000000000003
 11
301.7
 21
-97.20000000000003
 72
    1
 10
301.7
 20
-97.20000000000003
 11
298.4
 21
-97.20000000000003
 72
    1
 10
298.4
 20
-97.20000000000003
 11
298.4
 21
-92.90000000000006
 97
    0
 75
    0
 76
    1
 52
0
 41
0.2
 77
    0
 78
    0
 98
    0
  0
HATCH
  5
17F
100
AcDbEntity
  8
wood
  6
ByLayer
 62
  256
370
   -1
100
AcDbHatch
 10
0
 20
0
 30
0
210
0
220
0
230
1
  2
gost_wood1
 70
    0
 71
    0
 91
    1
 92
    0
 93
    4
 72
    1
 10
301.7
 20
33.59999999999997
 11
298.4
 21
33.59999999999997
 72
    1
 10
298.4
 20
33.59999999999997
 11
298.4
 21
37.89999999999995
 72
    1
 10
298.4
 20
37.89999999999993
 11
301.7
 21
34.59999999999997
 72
    1
 10
301.7
 20
34.59999999999997
 11
301.7
 21
33.59999999999997
 97
    0
 75
    0
 76
    1
 52
0
 41
0.2
 77
    0
 78
    0
 98
    0
  0
HATCH
  5
180
100
AcDbEntity
  8
base
  6
ByLayer
 62
  256
370
   13
100
AcDbHatch
 10
0
 20
0
 30
0
210
0
220
0
230
1
  2
ar-rshke
 70
    0
 71
    0
 91
    1
 92
    0
 93
    4
 72
    1
 10
298.4
 20
-130
 11
298.4
 21
-127
 72
    1
 10
298.4
 20
-127
 11
230
 21
-127
 72
    1
 10
230
 20
-127
 11
230
 21
-130
 72
    1
 10
230
 20
-130
 11
298.4
 21
-130
 97
    0
 75
    0
 76
    1
 52
0
 41
0.1
 77
    0
 78
    0
 98
    0
  0
HATCH
  5
181
100
AcDbEntity
  8
wall
  6
ByLayer
 62
  256
370
   -1
100
AcDbHatch
 10
0
 20
0
 30
0
210
0
220
0
230
1
  2
ar-brstd
 70
    0
 71
    0
 91
    1
 92
    0
 93
    4
 72
    1
 10
230
 20
-127
 11
298.4
 21
-127
 72
    1
 10
298.4
 20
-127
 11
298.4
 21
-97.20000000000002
 72
    1
 10
298.4
 20
-97.20000000000002
 11
230
 21
-97.19999999999999
 72
    1
 10
230
 20
-97.19999999999999
 11
230
 21
-127
 97
    0
 75
    0
 76
    1
 52
0
 41
0.1
 77
    0
 78
    0
 98
    0
  0
HATCH
  5
182
100
AcDbEntity
  8
wood
  6
ByLayer
 62
  256
370
   -1
100
AcDbHatch
 10
0
 20
0
 30
0
210
0
220
0
230
1
  2
gost_wood1
 70
    0
 71
    0
 91
    1
 92
    0
 93
    4
 72
    1
 10
226.6999999999999
 20
-96.19999999999999
 11
230
 21
-92.89999999999988
 72
    1
 10
230
 20
-92.89999999999988
 11
230
 21
-97.2
 72
    1
 10
230
 20
-97.2
 11
226.6999999999999
 21
-97.2
 72
    1
 10
226.6999999999999
 20
-97.2
 11
226.7
 21
-96.19999999999999
 97
    0
 75
    0
 76
    1
 52
0
 41
0.2
 77
    0
 78
    0
 98
    0
  0
HATCH
  5
183
100
AcDbEntity
  8
wood
  6
ByLayer
 62
  256
370
   -1
100
AcDbHatch
 10
0
 20
0
 30
0
210
0
220
0
230
1
  2
gost_wood1
 70
    0
 71
    0
 91
    1
 92
    0
 93
    4
 72
    1
 10
230
 20
33.6
 11
226.6999999999999
 21
33.6
 72
    1
 10
226.6999999999999
 20
33.6
 11
226.7
 21
34.60000000000002
 72
    1
 10
226.6999999999999
 20
34.60000000000002
 11
230
 21
37.90000000000013
 72
    1
 10
230
 20
37.90000000000013
 11
230
 21
33.6
 97
    0
 75
    0
 76
    1
 52
0
 41
0.2
 77
    0
 78
    0
 98
    0
  0
HATCH
  5
184
100
AcDbEntity
  8
base
  6
ByLayer
 62
  256
370
   13
100
AcDbHatch
 10
0
 20
0
 30
0
210
0
220
0
230
1
  2
ar-rshke
 70
    0
 71
    0
 91
    1
 92
    0
 93
    4
 72
    1
 10
180.4
 20
3
 11
-1.5931700403371e-14
 21
3
 72
    1
 10
-1.5931700403371e-14
 20
3
 11
-1.5931700403371e-14
 21
-1.665334536937735e-16
 72
    1
 10
-1.5931700403371e-14
 20
-1.665334536937735e-16
 11
180.4
 21
2.775557561562828e-16
 72
    1
 10
180.4
 20
2.775557561562828e-16
 11
180.4
 21
3
 97
    0
 75
    0
 76
    1
 52
0
 41
0.1
 77
    0
 78
    0
 98
    0
  0
HATCH
  5
185
100
AcDbEntity
  8
wall
  6
ByLayer
 62
  256
370
   -1
100
AcDbHatch
 10
0
 20
0
 30
0
210
0
220
0
230
1
  2
ar-brstd
 70
    0
 71
    0
 91
    1
 92
    0
 93
   44
 72
    1
 10
78.2
 20
23.6
 11
92.2
 21
23.6
 72
    1
 10
92.2
 20
23.6
 11
92.2
 21
26.1
 72
    1
 10
92.2
 20
26.1
 11
78.2
 21
26.1
 72
    1
 10
78.2
 20
26.1
 11
78.2
 21
23.6
 72
    1
 10
79.8
 20
3
 11
90.60000000000001
 21
3
 72
    1
 10
90.60000000000001
 20
3
 11
90.60000000000001
 21
23.6
 72
    1
 10
90.60000000000001
 20
23.6
 11
79.8
 21
23.6
 72
    1
 10
79.8
 20
23.6
 11
79.8
 21
3
 72
    1
 10
103.1
 20
28.5
 11
132.8
 21
28.5
 72
    1
 10
132.8
 20
28.5
 11
132.8
 21
31
 72
    1
 10
132.8
 20
31
 11
103.1
 21
31
 72
    1
 10
103.1
 20
31
 11
103.1
 21
28.5
 72
    1
 10
104.7
 20
3
 11
131.2
 21
3
 72
    1
 10
131.2
 20
3
 11
131.2
 21
28.5
 72
    1
 10
131.2
 20
28.5
 11
104.7
 21
28.5
 72
    1
 10
104.7
 20
28.5
 11
104.7
 21
3
 72
    1
 10
141.3
 20
28.5
 11
171
 21
28.5
 72
    1
 10
171
 20
28.5
 11
171
 21
31
 72
    1
 10
171
 20
31
 11
141.3
 21
31
 72
    1
 10
141.3
 20
31
 11
141.3
 21
28.5
 72
    1
 10
142.9
 20
3
 11
169.4
 21
3
 72
    1
 10
169.4
 20
3
 11
169.4
 21
28.5
 72
    1
 10
169.4
 20
28.5
 11
142.9
 21
28.5
 72
    1
 10
142.9
 20
28.5
 11
142.9
 21
3
 72
    1
 10
-1.5931700403371e-14
 20
33.6
 11
-1.5931700403371e-14
 21
3
 72
    1
 10
-1.5931700403371e-14
 20
3
 11
180.4
 21
3
 72
    1
 10
180.4
 20
3
 11
180.3999999999997
 21
33.59999999999997
 72
    1
 10
180.3999999999997
 20
33.59999999999997
 11
-1.5931700403371e-14
 21
33.6
 72
    1
 10
12.49999999999999
 20
23.6
 11
26.49999999999999
 21
23.6
 72
    1
 10
26.49999999999999
 20
23.6
 11
26.49999999999999
 21
26.1
 72
    1
 10
26.49999999999999
 20
26.1
 11
12.49999999999999
 21
26.1
 72
    1
 10
12.49999999999999
 20
26.1
 11
12.49999999999999
 21
23.6
 72
    1
 10
14.09999999999998
 20
3
 11
24.9
 21
3
 72
    1
 10
24.9
 20
3
 11
24.9
 21
23.6
 72
    1
 10
24.9
 20
23.6
 11
14.09999999999998
 21
23.6
 72
    1
 10
14.09999999999998
 20
23.6
 11
14.09999999999998
 21
3
 72
    1
 10
45.19999999999999
 20
23.6
 11
59.19999999999999
 21
23.6
 72
    1
 10
59.19999999999999
 20
23.6
 11
59.19999999999999
 21
26.1
 72
    1
 10
59.19999999999999
 20
26.1
 11
45.19999999999999
 21
26.1
 72
    1
 10
45.19999999999999
 20
26.1
 11
45.19999999999999
 21
23.6
 72
    1
 10
46.79999999999998
 20
3
 11
57.59999999999999
 21
3
 72
    1
 10
57.59999999999999
 20
3
 11
57.59999999999999
 21
23.6
 72
    1
 10
57.59999999999999
 20
23.6
 11
46.79999999999998
 21
23.6
 72
    1
 10
46.79999999999998
 20
23.6
 11
46.79999999999998
 21
3
 97
    0
 75
    0
 76
    1
 52
0
 41
0.1
 77
    0
 78
    0
 98
    0
  0
HATCH
  5
186
100
AcDbEntity
  8
base
  6
ByLayer
 62
  256
370
   13
100
AcDbHatch
 10
0
 20
0
 30
0
210
0
220
0
230
1
  2
ar-rshke
 70
    0
 71
    0
 91
    1
 92
    0
 93
    4
 72
    1
 10
-1.5931700403371e-14
 20
-130
 11
180.4
 21
-130
 72
    1
 10
180.4
 20
-130
 11
180.4
 21
-127
 72
    1
 10
180.4
 20
-127
 11
-1.5931700403371e-14
 21
-127
 72
    1
 10
-1.5931700403371e-14
 20
-127
 11
-1.5931700403371e-14
 21
-130
 97
    0
 75
    0
 76
    1
 52
0
 41
0.1
 77
    0
 78
    0
 98
    0
  0
HATCH
  5
187
100
AcDbEntity
  8
wall
  6
ByLayer
 62
  256
370
   -1
100
AcDbHatch
 10
0
 20
0
 30
0
210
0
220
0
230
1
  2
ar-brstd
 70
    0
 71
    0
 91
    1
 92
    0
 93
   36
 72
    1
 10
126.6
 20
-104.7
 11
120.5
 21
-104.7
 72
    1
 10
120.5
 20
-104.7
 11
120.5
 21
-106.8
 72
    1
 10
120.5
 20
-106.8
 11
126.6
 21
-106.8
 72
    1
 10
126.6
 20
-106.8
 11
126.6
 21
-104.7
 72
    1
 10
109.3
 20
-106.8
 11
115.4
 21
-106.8
 72
    1
 10
115.4
 20
-106.8
 11
115.4
 21
-104.7
 72
    1
 10
115.4
 20
-104.7
 11
109.3
 21
-104.7
 72
    1
 10
109.3
 20
-104.7
 11
109.3
 21
-106.8
 72
    1
 10
87.79999999999997
 20
-106.8
 11
93.89999999999999
 21
-106.8
 72
    1
 10
93.89999999999999
 20
-106.8
 11
93.89999999999999
 21
-104.7
 72
    1
 10
93.89999999999999
 20
-104.7
 11
87.79999999999997
 21
-104.7
 72
    1
 10
87.79999999999997
 20
-104.7
 11
87.79999999999997
 21
-106.8
 72
    1
 10
76.49999999999997
 20
-106.8
 11
82.59999999999999
 21
-106.8
 72
    1
 10
82.59999999999999
 20
-106.8
 11
82.59999999999999
 21
-104.7
 72
    1
 10
82.59999999999999
 20
-104.7
 11
76.49999999999997
 21
-104.7
 72
    1
 10
76.49999999999997
 20
-104.7
 11
76.49999999999997
 21
-106.8
 72
    1
 10
54.79999999999997
 20
-106.8
 11
60.89999999999999
 21
-106.8
 72
    1
 10
60.89999999999999
 20
-106.8
 11
60.89999999999999
 21
-104.7
 72
    1
 10
60.89999999999999
 20
-104.7
 11
54.79999999999997
 21
-104.7
 72
    1
 10
54.79999999999997
 20
-104.7
 11
54.79999999999997
 21
-106.8
 72
    1
 10
43.49999999999996
 20
-106.8
 11
49.59999999999998
 21
-106.8
 72
    1
 10
49.59999999999998
 20
-106.8
 11
49.59999999999998
 21
-104.7
 72
    1
 10
49.59999999999998
 20
-104.7
 11
43.49999999999996
 21
-104.7
 72
    1
 10
43.49999999999996
 20
-104.7
 11
43.49999999999996
 21
-106.8
 72
    1
 10
-1.5931700403371e-14
 20
-127
 11
180.4
 21
-127
 72
    1
 10
180.4
 20
-127
 11
180.3999999999997
 21
-97.20000000000003
 72
    1
 10
180.3999999999997
 20
-97.20000000000003
 11
-1.5931700403371e-14
 21
-97.2
 72
    1
 10
-1.5931700403371e-14
 20
-97.2
 11
-1.5931700403371e-14
 21
-127
 72
    1
 10
160.1
 20
-106.8
 11
166.2
 21
-106.8
 72
    1
 10
166.2
 20
-106.8
 11
166.2
 21
-104.7
 72
    1
 10
166.2
 20
-104.7
 11
160.1
 21
-104.7
 72
    1
 10
160.1
 20
-104.7
 11
160.1
 21
-106.8
 72
    1
 10
146.5
 20
-106.8
 11
152.6
 21
-106.8
 72
    1
 10
152.6
 20
-106.8
 11
152.6
 21
-104.7
 72
    1
 10
152.6
 20
-104.7
 11
146.5
 21
-104.7
 72
    1
 10
146.5
 20
-104.7
 11
146.5
 21
-106.8
 97
    0
 75
    0
 76
    1
 52
0
 41
0.1
 77
    0
 78
    0
 98
    0
  0
LINE
  5
188
100
AcDbEntity
  8
0
  6
ByLayer
 62
  256
370
   -1
100
AcDbLine
 10
329
 20
11
 11
340
 21
11
  0
LWPOLYLINE
  5
189
100
AcDbEntity
  8
wood
  6
ByLayer
 62
  256
370
   -1
100
AcDbPolyline
 90
    4
 70
    1
 43
0
 10
192.1999999999999
 20
100
 10
267.8
 20
100
 10
267.8
 20
101
 10
192.1999999999999
 20
101
  0
LWPOLYLINE
  5
18A
100
AcDbEntity
  8
wood
  6
ByLayer
 62
  256
370
   -1
100
AcDbPolyline
 90
    4
 70
    1
 43
0
 10
191.9999999999999
 20
101
 10
192.1999999999999
 20
101
 10
192.1999999999999
 20
100
 10
191.9999999999999
 20
100
  0
LWPOLYLINE
  5
18B
100
AcDbEntity
  8
wood
  6
ByLayer
 62
  256
370
   -1
100
AcDbPolyline
 90
    4
 70
    1
 43
0
 10
267.8
 20
101
 10
267.9999999999998
 20
101
 10
267.9999999999998
 20
100
 10
267.8
 20
100
  0
DIMENSION
  5
18C
100
AcDbEntity
  8
dimensions
  6
ByLayer
 62
  256
370
   -1
100
AcDbDimension
  2
*D1
 10
267.9999999999998
 20
90
 30
0
 11
248.9999999999999
 21
94
 31
0
 70
   32
 71
    5
 72
    0
  3
Standard
 53
0
210
0
220
0
230
1
100
AcDbAlignedDimension
 13
230
 23
100
 33
0
 14
267.9999999999998
 24
100
 34
0
100
AcDbRotatedDimension
  0
DIMENSION
  5
18D
100
AcDbEntity
  8
dimensions
  6
ByLayer
 62
  256
370
   -1
100
AcDbDimension
  2
*D2
 10
229.5
 20
90
 30
0
 11
210.9999999999999
 21
94
 31
0
 70
   32
 71
    5
 72
    0
  3
Standard
 53
0
210
0
220
0
230
1
100
AcDbAlignedDimension
 13
191.9999999999999
 23
100
 33
0
 14
230
 24
100
 34
0
100
AcDbRotatedDimension
  0
LINE
  5
18E
100
AcDbEntity
  8
dimensions
  6
ByLayer
 62
  256
370
   -1
100
AcDbLine
 10
230
 20
100
 11
230
 21
140
  0
DIMENSION
  5
18F
100
AcDbEntity
  8
dimensions
  6
ByLayer
 62
  256
370
   -1
100
AcDbDimension
  2
*D3
 10
239.8
 20
139
 30
0
 11
235.8
 21
119.9
 31
0
 70
   32
 71
    5
 72
    0
  3
Standard
 53
0
210
0
220
0
230
1
100
AcDbAlignedDimension
 13
230
 23
101
 33
0
 14
230
 24
138.8
 34
0
 50
90
100
AcDbRotatedDimension
  0
LINE
  5
190
100
AcDbEntity
  8
wood
  6
ByLayer
 62
  256
370
   -1
100
AcDbLine
 10
230
 20
138.8
 11
267.8
 21
101
  0
LINE
  5
191
100
AcDbEntity
  8
wood
  6
ByLayer
 62
  256
370
   -1
100
AcDbLine
 10
192.1999999999999
 20
101
 11
230
 21
138.8
  0
LINE
  5
192
100
AcDbEntity
  8
wood
  6
ByLayer
 62
  256
370
   -1
100
AcDbLine
 10
192.614213562373
 20
100
 11
230.7071067811866
 21
138.0928932188135
  0
LINE
  5
193
100
AcDbEntity
  8
dah
  6
ByLayer
 62
  256
370
   -1
100
AcDbLine
 10
191.2171572875254
 20
100.8656854249494
 11
191.5
 21
100.5828427124748
  0
LINE
  5
194
100
AcDbEntity
  8
dah
  6
ByLayer
 62
  256
370
   -1
100
AcDbLine
 10
268.5
 20
100.5828427124746
 11
268.7828427124746
 21
100.8656854249492
  0
LINE
  5
195
100
AcDbEntity
  8
wood
  6
ByLayer
 62
  256
370
   -1
100
AcDbLine
 10
229.2928932188134
 20
138.0928932188135
 11
267.3857864376268
 21
100
  0
LINE
  5
196
100
AcDbEntity
  8
dah
  6
ByLayer
 62
  256
370
   -1
100
AcDbLine
 10
230
 20
139.0828427124746
 11
268.5
 21
100.5828427124746
  0
LINE
  5
197
100
AcDbEntity
  8
dah
  6
ByLayer
 62
  256
370
   -1
100
AcDbLine
 10
191.5
 20
100.5828427124748
 11
230
 21
139.0828427124746
  0
LINE
  5
198
100
AcDbEntity
  8
dah
  6
ByLayer
 62
  256
370
   -1
100
AcDbLine
 10
230
 20
139.6485281374239
 11
268.7828427124746
 21
100.8656854249492
  0
LINE
  5
199
100
AcDbEntity
  8
dah
  6
ByLayer
 62
  256
370
   -1
100
AcDbLine
 10
191.2171572875254
 20
100.8656854249494
 11
230
 21
139.6485281374239
  0
DIMENSION
  5
19A
100
AcDbEntity
  8
dimensions
  6
ByLayer
 62
  256
370
   -1
100
AcDbDimension
  2
*D4
 10
57.69999999999998
 20
-10
 30
0
 11
52.19999999999998
 21
-6
 31
0
 70
   32
 71
    5
 72
    0
  3
Standard
 53
0
210
0
220
0
230
1
100
AcDbAlignedDimension
 13
46.79999999999998
 23
3
 33
0
 14
57.59999999999999
 24
3
 34
0
100
AcDbRotatedDimension
  0
DIMENSION
  5
19B
100
AcDbEntity
  8
dimensions
  6
ByLayer
 62
  256
370
   -1
100
AcDbDimension
  2
*D5
 10
80.20000000000053
 20
-10
 30
0
 11
68.69999999999999
 21
-6
 31
0
 70
   32
 71
    5
  3
Standard
 53
0
210
0
220
0
230
1
100
AcDbAlignedDimension
 13
57.59999999999999
 23
3
 33
0
 14
79.8
 24
3
 34
0
100
AcDbRotatedDimension
  0
DIMENSION
  5
19C
100
AcDbEntity
  8
dimensions
  6
ByLayer
 62
  256
370
   -1
100
AcDbDimension
  2
*D6
 10
91.69999999999999
 20
-10
 30
0
 11
85.2
 21
-6
 31
0
 70
   32
 71
    5
 72
    0
  3
Standard
 53
0
210
0
220
0
230
1
100
AcDbAlignedDimension
 13
79.8
 23
3
 33
0
 14
90.60000000000001
 24
3
 34
0
100
AcDbRotatedDimension
  0
DIMENSION
  5
19D
100
AcDbEntity
  8
dimensions
  6
ByLayer
 62
  256
370
   -1
100
AcDbDimension
  2
*D7
 10
105.7
 20
-10
 30
0
 11
97.65000000000001
 21
-6
 31
0
 70
   32
 71
    5
  3
Standard
 53
0
210
0
220
0
230
1
100
AcDbAlignedDimension
 13
90.60000000000001
 23
3
 33
0
 14
104.7
 24
3
 34
0
100
AcDbRotatedDimension
  0
DIMENSION
  5
19E
100
AcDbEntity
  8
dimensions
  6
ByLayer
 62
  256
370
   -1
100
AcDbDimension
  2
*D8
 10
130.7
 20
-10
 30
0
 11
117.95
 21
-6
 31
0
 70
   32
 71
    5
 72
    0
  3
Standard
 53
0
210
0
220
0
230
1
100
AcDbAlignedDimension
 13
104.7
 23
3
 33
0
 14
131.2
 24
3
 34
0
100
AcDbRotatedDimension
  0
LWPOLYLINE
  5
19F
100
AcDbEntity
  8
wall
  6
ByLayer
 62
  256
370
   -1
100
AcDbPolyline
 90
    4
 70
    1
 43
0
 10
45.19999999999999
 20
23.6
 10
59.19999999999999
 20
23.6
 10
59.19999999999999
 20
26.1
 10
45.19999999999999
 20
26.1
  0
LWPOLYLINE
  5
1A0
100
AcDbEntity
  8
wall
  6
ByLayer
 62
  256
370
   -1
100
AcDbPolyline
 90
    4
 70
    1
 43
0
 10
46.79999999999998
 20
3
 10
57.59999999999999
 20
3
 10
57.59999999999999
 20
23.6
 10
46.79999999999998
 20
23.6
  0
LWPOLYLINE
  5
1A1
100
AcDbEntity
  8
windoors
  6
ByLayer
 62
  256
370
   -1
100
AcDbPolyline
 90
    4
 70
    1
 43
0
 10
47.19999999999999
 20
3.200000000000003
 10
57.19999999999999
 20
3.200000000000003
 10
57.19999999999999
 20
23.2
 10
47.19999999999999
 20
23.2
  0
LWPOLYLINE
  5
1A2
100
AcDbEntity
  8
wall
  6
ByLayer
 62
  256
370
   -1
100
AcDbPolyline
 90
    4
 70
    1
 43
0
 10
78.2
 20
23.6
 10
92.2
 20
23.6
 10
92.2
 20
26.1
 10
78.2
 20
26.1
  0
LWPOLYLINE
  5
1A3
100
AcDbEntity
  8
wall
  6
ByLayer
 62
  256
370
   -1
100
AcDbPolyline
 90
    4
 70
    1
 43
0
 10
79.8
 20
3
 10
90.60000000000001
 20
3
 10
90.60000000000001
 20
23.6
 10
79.8
 20
23.6
  0
LWPOLYLINE
  5
1A4
100
AcDbEntity
  8
windoors
  6
ByLayer
 62
  256
370
   -1
100
AcDbPolyline
 90
    4
 70
    1
 43
0
 10
80.2
 20
3.200000000000003
 10
90.2
 20
3.200000000000003
 10
90.2
 20
23.2
 10
80.2
 20
23.2
  0
LWPOLYLINE
  5
1A5
100
AcDbEntity
  8
wall
  6
ByLayer
 62
  256
370
   -1
100
AcDbPolyline
 90
    4
 70
    1
 43
0
 10
103.1
 20
28.5
 10
132.8
 20
28.5
 10
132.8
 20
31
 10
103.1
 20
31
  0
LWPOLYLINE
  5
1A6
100
AcDbEntity
  8
wall
  6
ByLayer
 62
  256
370
   -1
100
AcDbPolyline
 90
    4
 70
    1
 43
0
 10
104.7
 20
3
 10
131.2
 20
3
 10
131.2
 20
28.5
 10
104.7
 20
28.5
  0
LWPOLYLINE
  5
1A7
100
AcDbEntity
  8
windoors
  6
ByLayer
 62
  256
370
   -1
100
AcDbPolyline
 90
    4
 70
    1
 43
0
 10
105.45
 20
3.199999999999989
 10
130.45
 20
3.199999999999989
 10
130.45
 20
28.19999999999999
 10
105.45
 20
28.19999999999999
  0
LINE
  5
1A8
100
AcDbEntity
  8
windoors
  6
ByLayer
 62
  256
370
   -1
100
AcDbLine
 10
117.95
 20
28.19999999999999
 11
117.95
 21
3.199999999999989
  0
LWPOLYLINE
  5
1A9
100
AcDbEntity
  8
windoors
  6
ByLayer
 62
  256
370
   -1
100
AcDbPolyline
 90
    4
 70
    1
 43
0
 10
107.45
 20
5.199999999999989
 10
114.45
 20
5.199999999999989
 10
114.45
 20
23.19999999999999
 10
107.45
 20
23.19999999999999
  0
LWPOLYLINE
  5
1AA
100
AcDbEntity
  8
wall
  6
ByLayer
 62
  256
370
   -1
100
AcDbPolyline
 90
    4
 70
    1
 43
0
 10
160.1
 20
-106.8
 10
166.2
 20
-106.8
 10
166.2
 20
-104.7
 10
160.1
 20
-104.7
  0
LWPOLYLINE
  5
1AB
100
AcDbEntity
  8
windoors
  6
ByLayer
 62
  256
370
   -1
100
AcDbPolyline
 90
    4
 70
    1
 43
0
 10
160.1
 20
-106.8
 10
166.2
 20
-106.8
 10
166.2
 20
-104.7
 10
160.1
 20
-104.7
  0
LWPOLYLINE
  5
1AC
100
AcDbEntity
  8
windoors
  6
ByLayer
 62
  256
370
   -1
100
AcDbPolyline
 90
    4
 70
    1
 43
0
 10
160.2
 20
-106.7
 10
162.1
 20
-106.7
 10
162.1
 20
-104.8
 10
160.2
 20
-104.8
  0
LWPOLYLINE
  5
1AD
100
AcDbEntity
  8
windoors
  6
ByLayer
 62
  256
370
   -1
100
AcDbPolyline
 90
    4
 70
    1
 43
0
 10
162.2
 20
-106.7
 10
164.1
 20
-106.7
 10
164.1
 20
-104.8
 10
162.2
 20
-104.8
  0
LWPOLYLINE
  5
1AE
100
AcDbEntity
  8
windoors
  6
ByLayer
 62
  256
370
   -1
100
AcDbPolyline
 90
    4
 70
    1
 43
0
 10
164.2
 20
-106.7
 10
166.1
 20
-106.7
 10
166.1
 20
-104.8
 10
164.2
 20
-104.8
  0
LWPOLYLINE
  5
1AF
100
AcDbEntity
  8
wall
  6
ByLayer
 62
  256
370
   -1
100
AcDbPolyline
 90
    4
 70
    1
 43
0
 10
146.5
 20
-106.8
 10
152.6
 20
-106.8
 10
152.6
 20
-104.7
 10
146.5
 20
-104.7
  0
LWPOLYLINE
  5
1B0
100
AcDbEntity
  8
windoors
  6
ByLayer
 62
  256
370
   -1
100
AcDbPolyline
 90
    4
 70
    1
 43
0
 10
146.5
 20
-106.8
 10
152.6
 20
-106.8
 10
152.6
 20
-104.7
 10
146.5
 20
-104.7
  0
LWPOLYLINE
  5
1B1
100
AcDbEntity
  8
windoors
  6
ByLayer
 62
  256
370
   -1
100
AcDbPolyline
 90
    4
 70
    1
 43
0
 10
146.6
 20
-106.7
 10
148.5
 20
-106.7
 10
148.5
 20
-104.8
 10
146.6
 20
-104.8
  0
LWPOLYLINE
  5
1B2
100
AcDbEntity
  8
windoors
  6
ByLayer
 62
  256
370
   -1
100
AcDbPolyline
 90
    4
 70
    1
 43
0
 10
148.6
 20
-106.7
 10
150.5
 20
-106.7
 10
150.5
 20
-104.8
 10
148.6
 20
-104.8
  0
LWPOLYLINE
  5
1B3
100
AcDbEntity
  8
windoors
  6
ByLayer
 62
  256
370
   -1
100
AcDbPolyline
 90
    4
 70
    1
 43
0
 10
150.6
 20
-106.7
 10
152.5
 20
-106.7
 10
152.5
 20
-104.8
 10
150.6
 20
-104.8
  0
LWPOLYLINE
  5
1B4
100
AcDbEntity
  8
wall
  6
ByLayer
 62
  256
370
   -1
100
AcDbPolyline
 90
    4
 70
    1
 43
0
 10
120.5
 20
-106.8
 10
126.6
 20
-106.8
 10
126.6
 20
-104.7
 10
120.5
 20
-104.7
  0
LWPOLYLINE
  5
1B5
100
AcDbEntity
  8
windoors
  6
ByLayer
 62
  256
370
   -1
100
AcDbPolyline
 90
    4
 70
    1
 43
0
 10
120.5
 20
-106.8
 10
126.6
 20
-106.8
 10
126.6
 20
-104.7
 10
120.5
 20
-104.7
  0
LWPOLYLINE
  5
1B6
100
AcDbEntity
  8
windoors
  6
ByLayer
 62
  256
370
   -1
100
AcDbPolyline
 90
    4
 70
    1
 43
0
 10
120.6
 20
-106.7
 10
122.5
 20
-106.7
 10
122.5
 20
-104.8
 10
120.6
 20
-104.8
  0
LWPOLYLINE
  5
1B7
100
AcDbEntity
  8
windoors
  6
ByLayer
 62
  256
370
   -1
100
AcDbPolyline
 90
    4
 70
    1
 43
0
 10
122.6
 20
-106.7
 10
124.5
 20
-106.7
 10
124.5
 20
-104.8
 10
122.6
 20
-104.8
  0
LWPOLYLINE
  5
1B8
100
AcDbEntity
  8
windoors
  6
ByLayer
 62
  256
370
   -1
100
AcDbPolyline
 90
    4
 70
    1
 43
0
 10
124.6
 20
-106.7
 10
126.5
 20
-106.7
 10
126.5
 20
-104.8
 10
124.6
 20
-104.8
  0
LWPOLYLINE
  5
1B9
100
AcDbEntity
  8
wall
  6
ByLayer
 62
  256
370
   -1
100
AcDbPolyline
 90
    4
 70
    1
 43
0
 10
109.3
 20
-106.8
 10
115.4
 20
-106.8
 10
115.4
 20
-104.7
 10
109.3
 20
-104.7
  0
LWPOLYLINE
  5
1BA
100
AcDbEntity
  8
windoors
  6
ByLayer
 62
  256
370
   -1
100
AcDbPolyline
 90
    4
 70
    1
 43
0
 10
109.3
 20
-106.8
 10
115.4
 20
-106.8
 10
115.4
 20
-104.7
 10
109.3
 20
-104.7
  0
LWPOLYLINE
  5
1BB
100
AcDbEntity
  8
windoors
  6
ByLayer
 62
  256
370
   -1
100
AcDbPolyline
 90
    4
 70
    1
 43
0
 10
109.4
 20
-106.7
 10
111.3
 20
-106.7
 10
111.3
 20
-104.8
 10
109.4
 20
-104.8
  0
LWPOLYLINE
  5
1BC
100
AcDbEntity
  8
windoors
  6
ByLayer
 62
  256
370
   -1
100
AcDbPolyline
 90
    4
 70
    1
 43
0
 10
111.4
 20
-106.7
 10
113.3
 20
-106.7
 10
113.3
 20
-104.8
 10
111.4
 20
-104.8
  0
LWPOLYLINE
  5
1BD
100
AcDbEntity
  8
windoors
  6
ByLayer
 62
  256
370
   -1
100
AcDbPolyline
 90
    4
 70
    1
 43
0
 10
113.4
 20
-106.7
 10
115.3
 20
-106.7
 10
115.3
 20
-104.8
 10
113.4
 20
-104.8
  0
LWPOLYLINE
  5
1BE
100
AcDbEntity
  8
wall
  6
ByLayer
 62
  256
370
   -1
100
AcDbPolyline
 90
    4
 70
    1
 43
0
 10
87.79999999999997
 20
-106.8
 10
93.89999999999999
 20
-106.8
 10
93.89999999999999
 20
-104.7
 10
87.79999999999997
 20
-104.7
  0
LWPOLYLINE
  5
1BF
100
AcDbEntity
  8
windoors
  6
ByLayer
 62
  256
370
   -1
100
AcDbPolyline
 90
    4
 70
    1
 43
0
 10
87.79999999999997
 20
-106.8
 10
93.89999999999999
 20
-106.8
 10
93.89999999999999
 20
-104.7
 10
87.79999999999997
 20
-104.7
  0
LWPOLYLINE
  5
1C0
100
AcDbEntity
  8
windoors
  6
ByLayer
 62
  256
370
   -1
100
AcDbPolyline
 90
    4
 70
    1
 43
0
 10
87.89999999999999
 20
-106.7
 10
89.79999999999997
 20
-106.7
 10
89.79999999999997
 20
-104.8
 10
87.89999999999999
 20
-104.8
  0
LWPOLYLINE
  5
1C1
100
AcDbEntity
  8
windoors
  6
ByLayer
 62
  256
370
   -1
100
AcDbPolyline
 90
    4
 70
    1
 43
0
 10
89.89999999999999
 20
-106.7
 10
91.79999999999997
 20
-106.7
 10
91.79999999999997
 20
-104.8
 10
89.89999999999999
 20
-104.8
  0
LWPOLYLINE
  5
1C2
100
AcDbEntity
  8
windoors
  6
ByLayer
 62
  256
370
   -1
100
AcDbPolyline
 90
    4
 70
    1
 43
0
 10
91.89999999999999
 20
-106.7
 10
93.79999999999997
 20
-106.7
 10
93.79999999999997
 20
-104.8
 10
91.89999999999999
 20
-104.8
  0
LWPOLYLINE
  5
1C3
100
AcDbEntity
  8
wall
  6
ByLayer
 62
  256
370
   -1
100
AcDbPolyline
 90
    4
 70
    1
 43
0
 10
76.49999999999997
 20
-106.8
 10
82.59999999999999
 20
-106.8
 10
82.59999999999999
 20
-104.7
 10
76.49999999999997
 20
-104.7
  0
LWPOLYLINE
  5
1C4
100
AcDbEntity
  8
windoors
  6
ByLayer
 62
  256
370
   -1
100
AcDbPolyline
 90
    4
 70
    1
 43
0
 10
76.49999999999997
 20
-106.8
 10
82.59999999999999
 20
-106.8
 10
82.59999999999999
 20
-104.7
 10
76.49999999999997
 20
-104.7
  0
LWPOLYLINE
  5
1C5
100
AcDbEntity
  8
windoors
  6
ByLayer
 62
  256
370
   -1
100
AcDbPolyline
 90
    4
 70
    1
 43
0
 10
76.59999999999999
 20
-106.7
 10
78.49999999999997
 20
-106.7
 10
78.49999999999997
 20
-104.8
 10
76.59999999999999
 20
-104.8
  0
LWPOLYLINE
  5
1C6
100
AcDbEntity
  8
windoors
  6
ByLayer
 62
  256
370
   -1
100
AcDbPolyline
 90
    4
 70
    1
 43
0
 10
78.59999999999999
 20
-106.7
 10
80.49999999999997
 20
-106.7
 10
80.49999999999997
 20
-104.8
 10
78.59999999999999
 20
-104.8
  0
LWPOLYLINE
  5
1C7
100
AcDbEntity
  8
windoors
  6
ByLayer
 62
  256
370
   -1
100
AcDbPolyline
 90
    4
 70
    1
 43
0
 10
80.59999999999999
 20
-106.7
 10
82.49999999999997
 20
-106.7
 10
82.49999999999997
 20
-104.8
 10
80.59999999999999
 20
-104.8
  0
LWPOLYLINE
  5
1C8
100
AcDbEntity
  8
wall
  6
ByLayer
 62
  256
370
   -1
100
AcDbPolyline
 90
    4
 70
    1
 43
0
 10
54.79999999999997
 20
-106.8
 10
60.89999999999999
 20
-106.8
 10
60.89999999999999
 20
-104.7
 10
54.79999999999997
 20
-104.7
  0
LWPOLYLINE
  5
1C9
100
AcDbEntity
  8
windoors
  6
ByLayer
 62
  256
370
   -1
100
AcDbPolyline
 90
    4
 70
    1
 43
0
 10
54.79999999999997
 20
-106.8
 10
60.89999999999999
 20
-106.8
 10
60.89999999999999
 20
-104.7
 10
54.79999999999997
 20
-104.7
  0
LWPOLYLINE
  5
1CA
100
AcDbEntity
  8
windoors
  6
ByLayer
 62
  256
370
   -1
100
AcDbPolyline
 90
    4
 70
    1
 43
0
 10
54.89999999999999
 20
-106.7
 10
56.79999999999997
 20
-106.7
 10
56.79999999999997
 20
-104.8
 10
54.89999999999999
 20
-104.8
  0
LWPOLYLINE
  5
1CB
100
AcDbEntity
  8
windoors
  6
ByLayer
 62
  256
370
   -1
100
AcDbPolyline
 90
    4
 70
    1
 43
0
 10
56.89999999999999
 20
-106.7
 10
58.79999999999997
 20
-106.7
 10
58.79999999999997
 20
-104.8
 10
56.89999999999999
 20
-104.8
  0
LWPOLYLINE
  5
1CC
100
AcDbEntity
  8
windoors
  6
ByLayer
 62
  256
370
   -1
100
AcDbPolyline
 90
    4
 70
    1
 43
0
 10
58.89999999999999
 20
-106.7
 10
60.79999999999997
 20
-106.7
 10
60.79999999999997
 20
-104.8
 10
58.89999999999999
 20
-104.8
  0
LWPOLYLINE
  5
1CD
100
AcDbEntity
  8
wall
  6
ByLayer
 62
  256
370
   -1
100
AcDbPolyline
 90
    4
 70
    1
 43
0
 10
43.49999999999996
 20
-106.8
 10
49.59999999999998
 20
-106.8
 10
49.59999999999998
 20
-104.7
 10
43.49999999999996
 20
-104.7
  0
LWPOLYLINE
  5
1CE
100
AcDbEntity
  8
windoors
  6
ByLayer
 62
  256
370
   -1
100
AcDbPolyline
 90
    4
 70
    1
 43
0
 10
43.49999999999996
 20
-106.8
 10
49.59999999999998
 20
-106.8
 10
49.59999999999998
 20
-104.7
 10
43.49999999999996
 20
-104.7
  0
LWPOLYLINE
  5
1CF
100
AcDbEntity
  8
windoors
  6
ByLayer
 62
  256
370
   -1
100
AcDbPolyline
 90
    4
 70
    1
 43
0
 10
43.59999999999998
 20
-106.7
 10
45.49999999999996
 20
-106.7
 10
45.49999999999996
 20
-104.8
 10
43.59999999999998
 20
-104.8
  0
LWPOLYLINE
  5
1D0
100
AcDbEntity
  8
windoors
  6
ByLayer
 62
  256
370
   -1
100
AcDbPolyline
 90
    4
 70
    1
 43
0
 10
45.59999999999998
 20
-106.7
 10
47.49999999999996
 20
-106.7
 10
47.49999999999996
 20
-104.8
 10
45.59999999999998
 20
-104.8
  0
LWPOLYLINE
  5
1D1
100
AcDbEntity
  8
windoors
  6
ByLayer
 62
  256
370
   -1
100
AcDbPolyline
 90
    4
 70
    1
 43
0
 10
47.59999999999998
 20
-106.7
 10
49.49999999999996
 20
-106.7
 10
49.49999999999996
 20
-104.8
 10
47.59999999999998
 20
-104.8
  0
LWPOLYLINE
  5
1D2
100
AcDbEntity
  8
wall
  6
ByLayer
 62
  256
370
   -1
100
AcDbPolyline
 90
    4
 70
    1
 43
0
 10
257.2
 20
54.90000000000001
 10
271.2
 20
54.90000000000001
 10
271.2
 20
57.40000000000001
 10
257.2
 20
57.40000000000001
  0
LWPOLYLINE
  5
1D3
100
AcDbEntity
  8
wall
  6
ByLayer
 62
  256
370
   -1
100
AcDbPolyline
 90
    4
 70
    1
 43
0
 10
258.8
 20
34.3
 10
269.6
 20
34.3
 10
269.6
 20
54.90000000000001
 10
258.8
 20
54.90000000000001
  0
LWPOLYLINE
  5
1D4
100
AcDbEntity
  8
windoors
  6
ByLayer
 62
  256
370
   -1
100
AcDbPolyline
 90
    4
 70
    1
 43
0
 10
259.2
 20
34.50000000000001
 10
269.2
 20
34.50000000000001
 10
269.2
 20
54.50000000000001
 10
259.2
 20
54.50000000000001
  0
LWPOLYLINE
  5
1D5
100
AcDbEntity
  8
wall
  6
ByLayer
 62
  256
370
   -1
100
AcDbPolyline
 90
    4
 70
    1
 43
0
 10
257.2
 20
-75.90000000000001
 10
271.2
 20
-75.90000000000001
 10
271.2
 20
-73.40000000000001
 10
257.2
 20
-73.40000000000001
  0
LWPOLYLINE
  5
1D6
100
AcDbEntity
  8
wall
  6
ByLayer
 62
  256
370
   -1
100
AcDbPolyline
 90
    4
 70
    1
 43
0
 10
258.8
 20
-96.5
 10
269.6
 20
-96.5
 10
269.6
 20
-75.90000000000001
 10
258.8
 20
-75.90000000000001
  0
LWPOLYLINE
  5
1D7
100
AcDbEntity
  8
windoors
  6
ByLayer
 62
  256
370
   -1
100
AcDbPolyline
 90
    4
 70
    1
 43
0
 10
259.2
 20
-96.30000000000001
 10
269.2
 20
-96.30000000000001
 10
269.2
 20
-76.3
 10
259.2
 20
-76.3
  0
LWPOLYLINE
  5
1D8
100
AcDbEntity
  8
windoors
  6
ByLayer
 62
  256
370
   -1
100
AcDbPolyline
 90
    4
 70
    1
 43
0
 10
277.5
 20
-89.69999999999999
 10
280.9
 20
-89.69999999999999
 10
280.9
 20
-84.5
 10
277.5
 20
-84.5
  0
LWPOLYLINE
  5
1D9
100
AcDbEntity
  8
windoors
  6
ByLayer
 62
  256
370
   -1
100
AcDbPolyline
 90
    4
 70
    1
 43
0
 10
277.2
 20
-84.23
 10
277.2
 20
-90
 10
281.2
 20
-90
 10
281.2
 20
-84.23
 42
0.1825000000000002
  0
LWPOLYLINE
  5
1DA
100
AcDbEntity
  8
wall
  6
ByLayer
 62
  256
370
   -1
100
AcDbPolyline
 90
    6
 70
    1
 43
0
 10
281.2
 20
-84.23
 10
282.0830850325296
 20
-81.8912126471657
 42
0.1824985186300926
 10
276.3169123384282
 20
-81.89116349823686
 10
277.2
 20
-84.23
 10
277.2
 20
-91.25
 10
281.2
 20
-91.25
  0
LWPOLYLINE
  5
1DB
100
AcDbEntity
  8
windoors
  6
ByLayer
 62
  256
370
   -1
100
AcDbPolyline
 90
    4
 70
    1
 43
0
 10
247.5
 20
-89.69999999999999
 10
250.8999999999999
 20
-89.69999999999999
 10
250.8999999999999
 20
-84.5
 10
247.5
 20
-84.5
  0
LWPOLYLINE
  5
1DC
100
AcDbEntity
  8
windoors
  6
ByLayer
 62
  256
370
   -1
100
AcDbPolyline
 90
    4
 70
    1
 43
0
 10
247.1999999999999
 20
-84.23
 10
247.1999999999999
 20
-90
 10
251.1999999999999
 20
-90
 10
251.1999999999999
 20
-84.23
 42
0.1825000000000002
  0
LWPOLYLINE
  5
1DD
100
AcDbEntity
  8
wall
  6
ByLayer
 62
  256
370
   -1
100
AcDbPolyline
 90
    6
 70
    1
 43
0
 10
251.1999999999999
 20
-84.23
 10
252.0830850325295
 20
-81.89121264716569
 42
0.1824985186300926
 10
246.3169123384282
 20
-81.89116349823688
 10
247.1999999999999
 20
-84.23
 10
247.1999999999999
 20
-91.25
 10
251.1999999999999
 20
-91.25
  0
MTEXT
  5
1DE
100
AcDbEntity
  8
dimensions
  6
ByLayer
 62
  256
370
   -1
100
AcDbMText
 10
320.9222222222222
 20
-146.5
 30
0
 40
5
 41
19.30555555555579
 71
    6
 72
    1
  1
. 1
  7
cyrillic_ii
210
0
220
0
230
1
 50
0
 73
    2
 44
1
  0
MTEXT
  5
1DF
100
AcDbEntity
  8
dimensions
  6
ByLayer
 62
  256
370
   -1
100
AcDbMText
 10
170.0472222222218
 20
88.5
 30
0
 40
5
 41
64.18833333333333
 71
    5
 72
    1
  1
 .
  7
cyrillic_ii
210
0
220
0
230
1
 50
0
 73
    2
 44
1
  0
LINE
  5
1E0
100
AcDbEntity
  8
dimensions
  6
ByLayer
 62
  256
370
   -1
100
AcDbLine
 10
136.7
 20
84
 11
202.7
 21
84
  0
LINE
  5
1E1
100
AcDbEntity
  8
ground
  6
ByLayer
 62
  256
370
   -1
100
AcDbLine
 10
-1.5931700403371e-14
 20
-1.665334536937735e-16
 11
-10.00000000000002
 21
-1.665334536937735e-16
  0
LINE
  5
1E2
100
AcDbEntity
  8
ground
  6
ByLayer
 62
  256
370
   -1
100
AcDbLine
 10
-1.5931700403371e-14
 20
-130
 11
-10.00000000000002
 21
-130
  0
LINE
  5
1E3
100
AcDbEntity
  8
dimensions
  6
ByLayer
 62
  256
370
  100
100
AcDbLine
 10
-3.000000000000016
 20
-1.665334536937735e-16
 11
-6.000000000000016
 21
-1.665334536937735e-16
  0
LINE
  5
1E4
100
AcDbEntity
  8
dimensions
  6
ByLayer
 62
  256
370
  100
100
AcDbLine
 10
-3.000000000000016
 20
9
 11
-6.000000000000016
 21
9
  0
MTEXT
  5
1E5
100
AcDbEntity
  8
dimensions
  6
ByLayer
 62
  256
370
   -1
100
AcDbMText
 10
-6.000000000000016
 20
13
 30
0
 40
4
 41
2.222222222222519
 71
    6
 72
    1
  1

  7
cyrillic_ii
210
0
220
0
230
1
 50
0
 73
    2
 44
1
  0
LEADER
  5
1E6
100
AcDbEntity
  8
dimensions
  6
ByLayer
 62
  256
370
   -1
100
AcDbLeader
  3
Standard
 71
    1
 72
    0
 73
    3
 74
    0
 75
    0
 40
1
 41
10
 76
2
 76
2
 10
-4.000000000000016
 20
-1.665334536937735e-16
 30
0
 10
-4.000000000000016
 20
6
 30
0
  0
LEADER
  5
1E7
100
AcDbEntity
  8
dimensions
  6
ByLayer
 62
  256
370
   -1
100
AcDbLeader
  3
Standard
 71
    1
 72
    0
 73
    3
 74
    0
 75
    0
 40
1
 41
10
 76
2
 76
2
 10
-4.000000000000016
 20
9
 30
0
 10
-4.000000000000016
 20
15
 30
0
  0
MTEXT
  5
1E8
100
AcDbEntity
  8
dimensions
  6
ByLayer
 62
  256
370
   -1
100
AcDbMText
 10
-5.33333333333335
 20
4
 30
0
 40
4
 41
2.666666666666667
 71
    6
 72
    1
  1

  7
cyrillic_ii
210
0
220
0
230
1
 50
0
 73
    2
 44
1
  0
LINE
  5
1E9
100
AcDbEntity
  8
dimensions
  6
ByLayer
 62
  256
370
  100
100
AcDbLine
 10
-3.000000000000016
 20
-117
 11
-6.000000000000016
 21
-117
  0
LEADER
  5
1EA
100
AcDbEntity
  8
dimensions
  6
ByLayer
 62
  256
370
   -1
100
AcDbLeader
  3
Standard
 71
    1
 72
    0
 73
    3
 74
    0
 75
    0
 40
1
 41
10
 76
2
 76
2
 10
-4.000000000000016
 20
-117
 30
0
 10
-4.000000000000016
 20
-111
 30
0
  0
MTEXT
  5
1EB
100
AcDbEntity
  8
dimensions
  6
ByLayer
 62
  256
370
   -1
100
AcDbMText
 10
-6.000000000000016
 20
-113
 30
0
 40
4
 41
2.222222222222222
 71
    6
 72
    1
  1

  7
cyrillic_ii
210
0
220
0
230
1
 50
0
 73
    2
 44
1
  0
DIMENSION
  5
1EC
100
AcDbEntity
  8
dimensions
  6
ByLayer
 62
  256
370
   -1
100
AcDbDimension
  2
*D12
 10
23.89999999999998
 20
-9.999999999999996
 30
0
 11
19.49999999999998
 21
-5.999999999999996
 31
0
 70
   32
 71
    5
 72
    0
  3
Standard
 53
0
210
0
220
0
230
1
100
AcDbAlignedDimension
 13
14.09999999999998
 23
3
 33
0
 14
24.89999999999998
 24
3
 34
0
100
AcDbRotatedDimension
  0
DIMENSION
  5
1ED
100
AcDbEntity
  8
dimensions
  6
ByLayer
 62
  256
370
   -1
100
AcDbDimension
  2
*D13
 10
47.20000000000025
 20
-10
 30
0
 11
35.84999999999999
 21
-6
 31
0
 70
   32
 71
    5
  3
Standard
 53
0
210
0
220
0
230
1
100
AcDbAlignedDimension
 13
24.89999999999998
 23
3
 33
0
 14
46.79999999999998
 24
3
 34
0
100
AcDbRotatedDimension
  0
LWPOLYLINE
  5
1EE
100
AcDbEntity
  8
wall
  6
ByLayer
 62
  256
370
   -1
100
AcDbPolyline
 90
    4
 70
    1
 43
0
 10
12.49999999999999
 20
23.6
 10
26.49999999999999
 20
23.6
 10
26.49999999999999
 20
26.1
 10
12.49999999999999
 20
26.1
  0
LWPOLYLINE
  5
1EF
100
AcDbEntity
  8
wall
  6
ByLayer
 62
  256
370
   -1
100
AcDbPolyline
 90
    4
 70
    1
 43
0
 10
14.09999999999998
 20
3
 10
24.9
 20
3
 10
24.9
 20
23.6
 10
14.09999999999998
 20
23.6
  0
LWPOLYLINE
  5
1F0
100
AcDbEntity
  8
windoors
  6
ByLayer
 62
  256
370
   -1
100
AcDbPolyline
 90
    4
 70
    1
 43
0
 10
14.49999999999999
 20
3.200000000000003
 10
24.49999999999999
 20
3.200000000000003
 10
24.49999999999999
 20
23.2
 10
14.49999999999999
 20
23.2
  0
DIMENSION
  5
1F1
100
AcDbEntity
  8
dimensions
  6
ByLayer
 62
  256
370
   -1
100
AcDbDimension
  2
*D14
 10
14.19999999999998
 20
-10
 30
0
 11
7.049999999999984
 21
-6
 31
0
 70
   32
 71
    5
  3
Standard
 53
0
210
0
220
0
230
1
100
AcDbAlignedDimension
 13
-1.5931700403371e-14
 23
3
 33
0
 14
14.09999999999998
 24
3
 34
0
100
AcDbRotatedDimension
  0
LINE
  5
1F2
100
AcDbEntity
  8
ground
  6
ByLayer
 62
  256
370
   -1
100
AcDbLine
 10
180.4
 20
-2.814415367424772e-14
 11
190.3999999999997
 21
-2.80331313717852e-14
  0
LINE
  5
1F3
100
AcDbEntity
  8
ground
  6
ByLayer
 62
  256
370
   -1
100
AcDbLine
 10
180.4
 20
-130
 11
190.3999999999997
 21
-130
  0
MTEXT
  5
1F4
100
AcDbEntity
  8
dimensions
  6
ByLayer
 62
  256
370
   -1
100
AcDbMText
 10
189.6222222222222
 20
14.99999999999997
 30
0
 40
4
 41
2.222222222222519
 71
    6
 72
    1
  1

  7
cyrillic_ii
210
0
220
0
230
1
 50
0
 73
    2
 44
1
  0
MTEXT
  5
1F5
100
AcDbEntity
  8
dimensions
  6
ByLayer
 62
  256
370
   -1
100
AcDbMText
 10
190.0666666666664
 20
5.999999999999972
 30
0
 40
4
 41
2.666666666666667
 71
    6
 72
    1
  1

  7
cyrillic_ii
210
0
220
0
230
1
 50
0
 73
    2
 44
1
  0
LINE
  5
1F6
100
AcDbEntity
  8
dimensions
  6
ByLayer
 62
  256
370
  100
100
AcDbLine
 10
186.3999999999997
 20
-2.814415367424772e-14
 11
183.3999999999997
 21
-2.814415367424772e-14
  0
LINE
  5
1F7
100
AcDbEntity
  8
dimensions
  6
ByLayer
 62
  256
370
  100
100
AcDbLine
 10
186.3999999999997
 20
8.999999999999972
 11
183.3999999999997
 21
8.999999999999972
  0
LEADER
  5
1F8
100
AcDbEntity
  8
dimensions
  6
ByLayer
 62
  256
370
   -1
100
AcDbLeader
  3
Standard
 71
    1
 72
    0
 73
    3
 74
    0
 75
    0
 40
1
 41
10
 76
2
 76
2
 10
185.3999999999997
 20
-2.814415367424772e-14
 30
0
 10
185.3999999999997
 20
5.999999999999972
 30
0
  0
LEADER
  5
1F9
100
AcDbEntity
  8
dimensions
  6
ByLayer
 62
  256
370
   -1
100
AcDbLeader
  3
Standard
 71
    1
 72
    0
 73
    3
 74
    0
 75
    0
 40
1
 41
10
 76
2
 76
2
 10
185.3999999999997
 20
8.999999999999972
 30
0
 10
185.3999999999997
 20
14.99999999999997
 30
0
  0
LINE
  5
1FA
100
AcDbEntity
  8
dimensions
  6
ByLayer
 62
  256
370
  100
100
AcDbLine
 10
186.3999999999997
 20
-106
 11
183.3999999999997
 21
-106
  0
LEADER
  5
1FB
100
AcDbEntity
  8
dimensions
  6
ByLayer
 62
  256
370
   -1
100
AcDbLeader
  3
Standard
 71
    1
 72
    0
 73
    3
 74
    0
 75
    0
 40
1
 41
10
 76
2
 76
2
 10
185.3999999999997
 20
-106
 30
0
 10
185.3999999999997
 20
-100
 30
0
  0
MTEXT
  5
1FC
100
AcDbEntity
  8
dimensions
  6
ByLayer
 62
  256
370
   -1
100
AcDbMText
 10
189.6222222222222
 20
-100
 30
0
 40
4
 41
2.222222222222222
 71
    6
 72
    1
  1

  7
cyrillic_ii
210
0
220
0
230
1
 50
0
 73
    2
 44
1
  0
LWPOLYLINE
  5
1FD
100
AcDbEntity
  8
base
  6
ByLayer
 62
  256
370
   -1
100
AcDbPolyline
 90
    4
 70
    1
 43
0
 10
-1.5931700403371e-14
 20
-1.665334536937735e-16
 10
180.4
 20
2.775557561562828e-16
 10
180.4
 20
3
 10
-1.5931700403371e-14
 20
3
  0
LWPOLYLINE
  5
1FE
100
AcDbEntity
  8
base
  6
ByLayer
 62
  256
370
   -1
100
AcDbPolyline
 90
    4
 70
    1
 43
0
 10
-1.5931700403371e-14
 20
-130
 10
180.4
 20
-130
 10
180.4
 20
-127
 10
-1.5931700403371e-14
 20
-127
  0
LWPOLYLINE
  5
1FF
100
AcDbEntity
  8
wall
  6
ByLayer
 62
  256
370
   -1
100
AcDbPolyline
 90
    4
 70
    1
 43
0
 10
-1.5931700403371e-14
 20
3
 10
180.4
 20
3
 10
180.3999999999997
 20
33.59999999999997
 10
-1.5931700403371e-14
 20
33.6
  0
LWPOLYLINE
  5
200
100
AcDbEntity
  8
wood
  6
ByLayer
 62
  256
370
   -1
100
AcDbPolyline
 90
    4
 70
    1
 43
0
 10
180.3999999999997
 20
33.59999999999997
 10
-1.570965579844597e-14
 20
33.6
 10
-1.570965579844597e-14
 20
34.2
 10
180.3999999999997
 20
34.19999999999997
  0
LWPOLYLINE
  5
201
100
AcDbEntity
  8
wall
  6
ByLayer
 62
  256
370
   -1
100
AcDbPolyline
 90
    4
 70
    1
 43
0
 10
-1.5931700403371e-14
 20
-127
 10
180.4
 20
-127
 10
180.3999999999997
 20
-97.20000000000003
 10
-1.5931700403371e-14
 20
-97.2
  0
LWPOLYLINE
  5
202
100
AcDbEntity
  8
wood
  6
ByLayer
 62
  256
370
   -1
100
AcDbPolyline
 90
    4
 70
    1
 43
0
 10
180.3999999999997
 20
-97.20000000000003
 10
-1.570965579844597e-14
 20
-97.2
 10
-1.570965579844597e-14
 20
-96.60000000000001
 10
180.3999999999997
 20
-96.60000000000004
  0
DIMENSION
  5
203
100
AcDbEntity
  8
dimensions
  6
ByLayer
 62
  256
370
   -1
100
AcDbDimension
  2
*D18
 10
179.7
 20
-140
 30
0
 11
90.19999999999999
 21
-136
 31
0
 70
   32
 71
    5
 72
    0
  3
Standard
 53
0
210
0
220
0
230
1
100
AcDbAlignedDimension
 13
-1.5931700403371e-14
 23
-130
 33
0
 14
180.4
 24
-130
 34
0
100
AcDbRotatedDimension
  0
LWPOLYLINE
  5
204
100
AcDbEntity
  8
dimensions
  6
DIVIDE2
 62
  256
370
   -1
100
AcDbPolyline
 90
    4
 70
    0
 43
0
 10
-3.000000000000016
 20
-117
 10
30.69999999999999
 20
-117
 10
30.69999999999999
 20
-106
 10
183.3999999999997
 20
-106
  0
DIMENSION
  5
205
100
AcDbEntity
  8
dimensions
  6
ByLayer
 62
  256
370
   -1
100
AcDbDimension
  2
*D19
 10
143.7
 20
-10
 30
0
 11
137.05
 21
-6
 31
0
 70
   32
 71
    5
  3
Standard
 53
0
210
0
220
0
230
1
100
AcDbAlignedDimension
 13
131.2
 23
3
 33
0
 14
142.9
 24
3
 34
0
100
AcDbRotatedDimension
  0
DIMENSION
  5
206
100
AcDbEntity
  8
dimensions
  6
ByLayer
 62
  256
370
   -1
100
AcDbDimension
  2
*D20
 10
168.5
 20
-10
 30
0
 11
156.15
 21
-6
 31
0
 70
   32
 71
    5
 72
    0
  3
Standard
 53
0
210
0
220
0
230
1
100
AcDbAlignedDimension
 13
142.9
 23
3
 33
0
 14
169.4
 24
3
 34
0
100
AcDbRotatedDimension
  0
LWPOLYLINE
  5
207
100
AcDbEntity
  8
wall
  6
ByLayer
 62
  256
370
   -1
100
AcDbPolyline
 90
    4
 70
    1
 43
0
 10
141.3
 20
28.5
 10
171
 20
28.5
 10
171
 20
31
 10
141.3
 20
31
  0
LWPOLYLINE
  5
208
100
AcDbEntity
  8
wall
  6
ByLayer
 62
  256
370
   -1
100
AcDbPolyline
 90
    4
 70
    1
 43
0
 10
142.9
 20
3
 10
169.4
 20
3
 10
169.4
 20
28.5
 10
142.9
 20
28.5
  0
LWPOLYLINE
  5
209
100
AcDbEntity
  8
windoors
  6
ByLayer
 62
  256
370
   -1
100
AcDbPolyline
 90
    4
 70
    1
 43
0
 10
143.65
 20
3.199999999999989
 10
168.65
 20
3.199999999999989
 10
168.65
 20
28.19999999999999
 10
143.65
 20
28.19999999999999
  0
LINE
  5
20A
100
AcDbEntity
  8
windoors
  6
ByLayer
 62
  256
370
   -1
100
AcDbLine
 10
156.15
 20
28.19999999999999
 11
156.15
 21
3.199999999999989
  0
LWPOLYLINE
  5
20B
100
AcDbEntity
  8
windoors
  6
ByLayer
 62
  256
370
   -1
100
AcDbPolyline
 90
    4
 70
    1
 43
0
 10
145.65
 20
5.199999999999989
 10
152.65
 20
5.199999999999989
 10
152.65
 20
23.19999999999999
 10
145.65
 20
23.19999999999999
  0
DIMENSION
  5
20C
100
AcDbEntity
  8
dimensions
  6
ByLayer
 62
  256
370
   -1
100
AcDbDimension
  2
*D21
 10
180.7000000000003
 20
-10
 30
0
 11
174.9
 21
-6
 31
0
 70
   32
 71
    5
  3
Standard
 53
0
210
0
220
0
230
1
100
AcDbAlignedDimension
 13
169.4
 23
3
 33
0
 14
180.4
 24
3
 34
0
100
AcDbRotatedDimension
  0
LINE
  5
20D
100
AcDbEntity
  8
ground
  6
ByLayer
 62
  256
370
   -1
100
AcDbLine
 10
230
 20
-1.665334536937735e-16
 11
225
 21
-1.665334536937735e-16
  0
LINE
  5
20E
100
AcDbEntity
  8
ground
  6
ByLayer
 62
  256
370
   -1
100
AcDbLine
 10
230
 20
-130
 11
225
 21
-130
  0
LWPOLYLINE
  5
20F
100
AcDbEntity
  8
wood
  6
ByLayer
 62
  256
370
   -1
100
AcDbPolyline
 90
    4
 70
    1
 43
0
 10
226.4999999999999
 20
34.60000000000002
 10
226.6999999999999
 20
34.60000000000002
 10
226.6999999999999
 20
33.6
 10
226.4999999999999
 20
33.6
  0
LINE
  5
210
100
AcDbEntity
  8
dah
  6
ByLayer
 62
  256
370
   -1
100
AcDbLine
 10
225.7171572875254
 20
34.46568542494938
 11
226
 21
34.18284271247477
  0
LWPOLYLINE
  5
211
100
AcDbEntity
  8
wood
  6
ByLayer
 62
  256
370
   -1
100
AcDbPolyline
 90
    5
 70
    0
 43
0
 10
226.6999999999999
 20
34.60000000000002
 10
230
 20
37.90000000000013
 10
230
 20
33.6
 10
226.6999999999999
 20
33.6
 10
226.7
 20
34.60000000000002
  0
LWPOLYLINE
  5
212
100
AcDbEntity
  8
wood
  6
ByLayer
 62
  256
370
   -1
100
AcDbPolyline
 90
    4
 70
    1
 43
0
 10
226.4999999999999
 20
-96.19999999999999
 10
226.6999999999999
 20
-96.19999999999999
 10
226.6999999999999
 20
-97.2
 10
226.4999999999999
 20
-97.2
  0
LINE
  5
213
100
AcDbEntity
  8
dah
  6
ByLayer
 62
  256
370
   -1
100
AcDbLine
 10
225.7171572875254
 20
-96.33431457505063
 11
226
 21
-96.61715728752523
  0
LWPOLYLINE
  5
214
100
AcDbEntity
  8
wood
  6
ByLayer
 62
  256
370
   -1
100
AcDbPolyline
 90
    5
 70
    0
 43
0
 10
226.6999999999999
 20
-96.19999999999999
 10
230
 20
-92.89999999999988
 10
230
 20
-97.2
 10
226.6999999999999
 20
-97.2
 10
226.7
 20
-96.19999999999999
  0
DIMENSION
  5
215
100
AcDbEntity
  8
dimensions
  6
ByLayer
 62
  256
370
   -1
100
AcDbDimension
  2
*D22
 10
220
 20
33
 30
0
 11
216
 21
18.3
 31
0
 70
   32
 71
    5
 72
    0
  3
Standard
 53
0
210
0
220
0
230
1
100
AcDbAlignedDimension
 13
230
 23
3
 33
0
 14
230
 24
33.6
 34
0
 50
90
100
AcDbRotatedDimension
  0
DIMENSION
  5
216
100
AcDbEntity
  8
dimensions
  6
ByLayer
 62
  256
370
   -1
100
AcDbDimension
  2
*D23
 10
220
 20
-1.665334536937735e-16
 30
0
 11
216
 21
1.5
 31
0
 70
   32
 71
    5
 72
    0
  3
Standard
 53
0
210
0
220
0
230
1
100
AcDbAlignedDimension
 13
230
 23
-3.885780586188049e-16
 33
0
 14
230
 24
3
 34
0
 50
90
100
AcDbRotatedDimension
  0
LINE
  5
217
100
AcDbEntity
  8
ground
  6
ByLayer
 62
  256
370
   -1
100
AcDbLine
 10
298.4
 20
-130
 11
303.4
 21
-130
  0
LINE
  5
218
100
AcDbEntity
  8
ground
  6
ByLayer
 62
  256
370
   -1
100
AcDbLine
 10
298.4
 20
-2.858824288409778e-14
 11
303.4
 21
-2.858824288409778e-14
  0
LWPOLYLINE
  5
219
100
AcDbEntity
  8
wood
  6
ByLayer
 62
  256
370
   -1
100
AcDbPolyline
 90
    4
 70
    1
 43
0
 10
301.7
 20
34.59999999999997
 10
301.8999999999998
 20
34.59999999999997
 10
301.8999999999998
 20
33.59999999999997
 10
301.7
 20
33.59999999999997
  0
LINE
  5
21A
100
AcDbEntity
  8
dah
  6
ByLayer
 62
  256
370
   -1
100
AcDbLine
 10
302.4
 20
34.18284271247455
 11
302.6828427124746
 21
34.46568542494918
  0
LWPOLYLINE
  5
21B
100
AcDbEntity
  8
wood
  6
ByLayer
 62
  256
370
   -1
100
AcDbPolyline
 90
    5
 70
    0
 43
0
 10
298.4
 20
37.89999999999993
 10
301.7
 20
34.59999999999997
 10
301.7
 20
33.59999999999997
 10
298.4
 20
33.59999999999997
 10
298.4
 20
37.89999999999995
  0
DIMENSION
  5
21C
100
AcDbEntity
  8
dimensions
  6
ByLayer
 62
  256
370
   -1
100
AcDbDimension
  2
*D24
 10
301.7
 20
28
 30
0
 11
300.4
 21
32
 31
0
 70
   32
 71
    5
  3
Standard
 53
0
210
0
220
0
230
1
100
AcDbAlignedDimension
 13
298.4
 23
33.59999999999997
 33
0
 14
302.4
 24
34.18284271247455
 34
0
100
AcDbRotatedDimension
  0
LWPOLYLINE
  5
21D
100
AcDbEntity
  8
wood
  6
ByLayer
 62
  256
370
   -1
100
AcDbPolyline
 90
    4
 70
    1
 43
0
 10
301.7
 20
-96.20000000000003
 10
301.8999999999998
 20
-96.20000000000003
 10
301.8999999999998
 20
-97.20000000000003
 10
301.7
 20
-97.20000000000003
  0
LINE
  5
21E
100
AcDbEntity
  8
dah
  6
ByLayer
 62
  256
370
   -1
100
AcDbLine
 10
302.4
 20
-96.61715728752546
 11
302.6828427124746
 21
-96.33431457505083
  0
LWPOLYLINE
  5
21F
100
AcDbEntity
  8
wood
  6
ByLayer
 62
  256
370
   -1
100
AcDbPolyline
 90
    5
 70
    0
 43
0
 10
298.4
 20
-92.90000000000008
 10
301.7
 20
-96.20000000000003
 10
301.7
 20
-97.20000000000003
 10
298.4
 20
-97.20000000000003
 10
298.4
 20
-92.90000000000006
  0
LWPOLYLINE
  5
220
100
AcDbEntity
  8
base
  6
ByLayer
 62
  256
370
   -1
100
AcDbPolyline
 90
    4
 70
    1
 43
0
 10
230
 20
-130
 10
298.4
 20
-130
 10
298.4
 20
-127
 10
230
 20
-127
  0
LWPOLYLINE
  5
221
100
AcDbEntity
  8
base
  6
ByLayer
 62
  256
370
   -1
100
AcDbPolyline
 90
    4
 70
    1
 43
0
 10
230
 20
-1.665334536937735e-16
 10
298.4
 20
-2.858824288409778e-14
 10
298.4
 20
2.999999999999972
 10
230
 20
3
  0
DIMENSION
  5
222
100
AcDbEntity
  8
dimensions
  6
ByLayer
 62
  256
370
   -1
100
AcDbDimension
  2
*D25
 10
298.7
 20
-20
 30
0
 11
264.2
 21
-16
 31
0
 70
   32
 71
    5
 72
    0
  3
Standard
 53
0
210
0
220
0
230
1
100
AcDbAlignedDimension
 13
230
 23
-1.665334536937735e-16
 33
0
 14
298.4
 24
-2.858824288409778e-14
 34
0
100
AcDbRotatedDimension
  0
LWPOLYLINE
  5
223
100
AcDbEntity
  8
wall
  6
ByLayer
 62
  256
370
   -1
100
AcDbPolyline
 90
    4
 70
    1
 43
0
 10
298.4
 20
2.999999999999972
 10
298.4
 20
33.59999999999997
 10
230
 20
33.6
 10
230
 20
3
  0
LWPOLYLINE
  5
224
100
AcDbEntity
  8
wall
  6
ByLayer
 62
  256
370
   -1
100
AcDbPolyline
 90
    4
 70
    1
 43
0
 10
298.4
 20
-127
 10
298.4
 20
-97.20000000000002
 10
230
 20
-97.19999999999999
 10
230
 20
-127
  0
DIMENSION
  5
225
100
AcDbEntity
  8
dimensions
  6
ByLayer
 62
  256
370
   -1
100
AcDbDimension
  2
*D26
 10
260.7
 20
-54.19999999999999
 30
0
 11
264.2
 21
-50.19999999999999
 31
0
 70
   32
 71
    5
  3
Standard
 53
0
210
0
220
0
230
1
100
AcDbAlignedDimension
 13
225.7171572875254
 23
-96.33431457505061
 33
0
 14
302.6828427124746
 24
-96.33431457505083
 34
0
100
AcDbRotatedDimension
  0
DIMENSION
  5
226
100
AcDbEntity
  8
dimensions
  6
ByLayer
 62
  256
370
   -1
100
AcDbDimension
  2
*D27
 10
245.4
 20
-10
 30
0
 11
249.4
 21
-6
 31
0
 70
   32
 71
    5
  3
Standard
 53
0
210
0
220
0
230
1
100
AcDbAlignedDimension
 13
253.4
 23
11
 33
0
 14
245.4
 24
11
 34
0
100
AcDbRotatedDimension
  0
LWPOLYLINE
  5
227
100
AcDbEntity
  8
windoors
  6
ByLayer
 62
  256
370
   -1
100
AcDbPolyline
 90
    4
 70
    1
 43
0
 10
245.7
 20
18.9
 10
249
 20
18.9
 10
249
 20
11.6
 10
245.7
 20
11.6
  0
LWPOLYLINE
  5
228
100
AcDbEntity
  8
windoors
  6
ByLayer
 62
  256
370
   -1
100
AcDbPolyline
 90
    4
 70
    1
 43
0
 10
249.7999999999999
 20
18.9
 10
253.0999999999999
 20
18.9
 10
253.0999999999999
 20
11.6
 10
249.7999999999999
 20
11.6
  0
LWPOLYLINE
  5
229
100
AcDbEntity
  8
windoors
  6
ByLayer
 62
  256
370
   -1
100
AcDbPolyline
 90
    4
 70
    1
 43
0
 10
245.7
 20
23.17000000000204
 10
253.0999999999998
 20
23.17000000000204
 10
253.0999999999999
 20
19.7
 10
245.7
 20
19.7
  0
LWPOLYLINE
  5
22A
100
AcDbEntity
  8
wall
  6
ByLayer
 62
  256
370
   -1
100
AcDbPolyline
 90
    6
 70
    1
 43
0
 10
245.3999999999999
 20
23.76999999999999
 10
245.3999999999999
 20
9.75
 10
253.3999999999999
 20
9.75
 10
253.3999999999999
 20
23.77
 10
254.2830876615717
 20
26.10883650176315
 42
0.1825000000000018
 10
244.5169123384282
 20
26.10883650176313
  0
LWPOLYLINE
  5
22B
100
AcDbEntity
  8
windoors
  6
ByLayer
 62
  256
370
   -1
100
AcDbPolyline
 90
    4
 70
    1
 43
0
 10
245.3999999999999
 20
11
 10
253.3999999999999
 20
11
 10
253.3999999999999
 20
23.76999999999999
 42
0.1824999999999999
 10
245.4
 20
23.76999999999913
  0
LWPOLYLINE
  5
22C
100
AcDbEntity
  8
windoors
  6
ByLayer
 62
  256
370
   -1
100
AcDbPolyline
 90
    4
 70
    1
 43
0
 10
247.7
 20
41.1
 10
251.0999999999999
 20
41.1
 10
251.0999999999999
 20
46.3
 10
247.7
 20
46.3
  0
LWPOLYLINE
  5
22D
100
AcDbEntity
  8
windoors
  6
ByLayer
 62
  256
370
   -1
100
AcDbPolyline
 90
    4
 70
    1
 43
0
 10
247.3999999999999
 20
46.57000000000001
 10
247.3999999999999
 20
40.8
 10
251.3999999999999
 20
40.8
 10
251.3999999999999
 20
46.57000000000001
 42
0.1825000000000002
  0
LWPOLYLINE
  5
22E
100
AcDbEntity
  8
wall
  6
ByLayer
 62
  256
370
   -1
100
AcDbPolyline
 90
    6
 70
    1
 43
0
 10
251.3999999999999
 20
46.57000000000001
 10
252.2830850325295
 20
48.9087873528343
 42
0.1824985186300927
 10
246.5169123384282
 20
48.90883650176315
 10
247.3999999999999
 20
46.57000000000001
 10
247.3999999999999
 20
39.55
 10
251.3999999999999
 20
39.55
  0
DIMENSION
  5
22F
100
AcDbEntity
  8
dimensions
  6
ByLayer
 62
  256
370
   -1
100
AcDbDimension
  2
*D28
 10
229.7
 20
-10
 30
0
 11
237.7
 21
-6
 31
0
 70
   32
 71
    5
  3
Standard
 53
0
210
0
220
0
230
1
100
AcDbAlignedDimension
 13
245.4
 23
11
 33
0
 14
230
 24
3
 34
0
100
AcDbRotatedDimension
  0
DIMENSION
  5
230
100
AcDbEntity
  8
dimensions
  6
ByLayer
 62
  256
370
   -1
100
AcDbDimension
  2
*D29
 10
275
 20
-10
 30
0
 11
279.0000000000001
 21
-6
 31
0
 70
   32
 71
    5
  3
Standard
 53
0
210
0
220
0
230
1
100
AcDbAlignedDimension
 13
283.0000000000001
 23
11
 33
0
 14
275
 24
11
 34
0
100
AcDbRotatedDimension
  0
LWPOLYLINE
  5
231
100
AcDbEntity
  8
windoors
  6
ByLayer
 62
  256
370
   -1
100
AcDbPolyline
 90
    4
 70
    1
 43
0
 10
275.3
 20
18.9
 10
278.6
 20
18.9
 10
278.6
 20
11.6
 10
275.3
 20
11.6
  0
LWPOLYLINE
  5
232
100
AcDbEntity
  8
windoors
  6
ByLayer
 62
  256
370
   -1
100
AcDbPolyline
 90
    4
 70
    1
 43
0
 10
279.4
 20
18.9
 10
282.7
 20
18.9
 10
282.7
 20
11.6
 10
279.4
 20
11.6
  0
LWPOLYLINE
  5
233
100
AcDbEntity
  8
windoors
  6
ByLayer
 62
  256
370
   -1
100
AcDbPolyline
 90
    4
 70
    1
 43
0
 10
275.3
 20
23.17000000000204
 10
282.6999999999999
 20
23.17000000000204
 10
282.7
 20
19.7
 10
275.3
 20
19.7
  0
LWPOLYLINE
  5
234
100
AcDbEntity
  8
wall
  6
ByLayer
 62
  256
370
   -1
100
AcDbPolyline
 90
    6
 70
    1
 43
0
 10
275
 20
23.76999999999999
 10
275
 20
9.75
 10
283
 20
9.75
 10
283
 20
23.77
 10
283.8830876615718
 20
26.10883650176314
 42
0.1825000000000018
 10
274.1169123384282
 20
26.10883650176314
  0
LWPOLYLINE
  5
235
100
AcDbEntity
  8
windoors
  6
ByLayer
 62
  256
370
   -1
100
AcDbPolyline
 90
    4
 70
    1
 43
0
 10
275
 20
11
 10
283
 20
11
 10
282.9999999999999
 20
23.76999999999999
 42
0.1824999999999999
 10
275.0000000000001
 20
23.76999999999913
  0
LWPOLYLINE
  5
236
100
AcDbEntity
  8
windoors
  6
ByLayer
 62
  256
370
   -1
100
AcDbPolyline
 90
    4
 70
    1
 43
0
 10
277.3
 20
41.1
 10
280.7
 20
41.1
 10
280.7
 20
46.3
 10
277.3
 20
46.3
  0
LWPOLYLINE
  5
237
100
AcDbEntity
  8
windoors
  6
ByLayer
 62
  256
370
   -1
100
AcDbPolyline
 90
    4
 70
    1
 43
0
 10
277
 20
46.57000000000001
 10
277
 20
40.8
 10
281
 20
40.8
 10
281
 20
46.57000000000001
 42
0.1825000000000002
  0
LWPOLYLINE
  5
238
100
AcDbEntity
  8
wall
  6
ByLayer
 62
  256
370
   -1
100
AcDbPolyline
 90
    6
 70
    1
 43
0
 10
281
 20
46.57000000000001
 10
281.8830850325296
 20
48.90878735283425
 42
0.1824985186300924
 10
276.1169123384282
 20
48.90883650176318
 10
277
 20
46.57000000000001
 10
277
 20
39.55
 10
281
 20
39.55
  0
DIMENSION
  5
239
100
AcDbEntity
  8
dimensions
  6
ByLayer
 62
  256
370
   -1
100
AcDbDimension
  2
*D30
 10
283.2
 20
-10
 30
0
 11
290.7
 21
-6
 31
0
 70
   32
 71
    5
  3
Standard
 53
0
210
0
220
0
230
1
100
AcDbAlignedDimension
 13
298.4
 23
-2.858824288409778e-14
 33
0
 14
283
 24
11
 34
0
100
AcDbRotatedDimension
  0
DIMENSION
  5
23A
100
AcDbEntity
  8
dimensions
  6
ByLayer
 62
  256
370
   -1
100
AcDbDimension
  2
*D31
 10
253.2
 20
-10
 30
0
 11
264.2
 21
-6
 31
0
 70
   32
  1
<>*
 71
    5
  3
Standard
 53
0
210
0
220
0
230
1
100
AcDbAlignedDimension
 13
275
 23
11
 33
0
 14
253.4
 24
11
 34
0
100
AcDbRotatedDimension
  0
LINE
  5
23B
100
AcDbEntity
  8
wall
  6
ByLayer
 62
  256
370
   -1
100
AcDbLine
 10
267.4500000000009
 20
62.50000000000001
 11
266.2000000000045
 21
62.5
  0
LINE
  5
23C
100
AcDbEntity
  8
wall
  6
ByLayer
 62
  256
370
   -1
100
AcDbLine
 10
260.9499999999991
 20
62.50000000000001
 11
262.1999999999955
 21
62.50000000000001
  0
LWPOLYLINE
  5
23D
100
AcDbEntity
  8
windoors
  6
ByLayer
 62
  256
370
   -1
100
AcDbPolyline
 90
    2
 70
    1
 43
0
 10
262.2
 20
62.50000000000001
 10
266.2
 20
62.50000000000001
 42
0.9999999999999999
  0
LWPOLYLINE
  5
23E
100
AcDbEntity
  8
wall
  6
ByLayer
 62
  256
370
   -1
100
AcDbPolyline
 90
    4
 70
    1
 43
0
 10
260.9499999999991
 20
62.5
 10
260.9499999999991
 20
61.25000000000001
 10
267.4500000000019
 20
61.25000000000005
 10
267.4500000000009
 20
62.50000000000001
 42
0.9999999999999997
  0
LWPOLYLINE
  5
23F
100
AcDbEntity
  8
dah
  6
ByLayer
 62
  256
370
   -1
100
AcDbPolyline
 90
    4
 70
    1
 43
0
 10
-4.00000000000002
 20
34.20000000000002
 10
184.3999999999997
 20
34.19999999999999
 10
184.3999999999997
 20
72.94852813742385
 10
-4.000000000000048
 20
72.94852813742391
  0
LINE
  5
240
100
AcDbEntity
  8
dah
  6
ByLayer
 62
  256
370
   -1
100
AcDbLine
 10
226
 20
34.18284271247475
 11
264.2
 21
72.38284271247464
  0
LINE
  5
241
100
AcDbEntity
  8
dah
  6
ByLayer
 62
  256
370
   -1
100
AcDbLine
 10
225.7171572875254
 20
34.46568542494938
 11
264.2
 21
72.94852813742388
  0
DIMENSION
  5
242
100
AcDbEntity
  8
dimensions
  6
ByLayer
 62
  256
370
   -1
100
AcDbDimension
  2
*D32
 10
258.674264068712
 20
78.47426406871193
 30
0
 11
236.6044155877285
 21
62.06126983722087
 31
0
 70
   33
 71
    5
  3
Standard
 53
0
210
0
220
0
230
1
100
AcDbAlignedDimension
 13
225.7171572875254
 23
34.46568542494939
 33
0
 14
264.2
 24
72.94852813742391
 34
0
  0
LINE
  5
243
100
AcDbEntity
  8
dah
  6
ByLayer
 62
  256
370
   -1
100
AcDbLine
 10
264.2
 20
72.38284271247464
 11
302.4
 21
34.18284271247455
  0
LINE
  5
244
100
AcDbEntity
  8
dah
  6
ByLayer
 62
  256
370
   -1
100
AcDbLine
 10
264.2
 20
72.94852813742388
 11
302.6828427124746
 21
34.46568542494918
  0
DIMENSION
  5
245
100
AcDbEntity
  8
dimensions
  6
ByLayer
 62
  256
370
   -1
100
AcDbDimension
  2
*D33
 10
308.2085786437626
 20
39.99142135623718
 30
0
 11
291.7955844122715
 21
62.06126983722073
 31
0
 70
   33
 71
    5
  3
Standard
 53
0
210
0
220
0
230
1
100
AcDbAlignedDimension
 13
264.2
 23
72.94852813742391
 33
0
 14
302.6828427124746
 24
34.46568542494918
 34
0
  0
LWPOLYLINE
  5
246
100
AcDbEntity
  8
wall
  6
CONTINUOUS
 62
   56
420
8421376
370
   50
100
AcDbPolyline
 90
    6
 70
    0
 43
0
 10
264.1999999999999
 20
72.10000000000001
 10
298.4
 20
37.89999999999993
 10
298.4
 20
33.59999999999997
 10
230
 20
33.6
 10
230
 20
37.90000000000013
 10
264.1999999999999
 20
72.10000000000001
  0
LINE
  5
247
100
AcDbEntity
  8
wall
  6
ByLayer
 62
  256
370
   -1
100
AcDbLine
 10
267.4500000000009
 20
-68.3
 11
266.2000000000045
 21
-68.3
  0
LINE
  5
248
100
AcDbEntity
  8
wall
  6
ByLayer
 62
  256
370
   -1
100
AcDbLine
 10
260.9499999999991
 20
-68.3
 11
262.1999999999955
 21
-68.3
  0
LWPOLYLINE
  5
249
100
AcDbEntity
  8
windoors
  6
ByLayer
 62
  256
370
   -1
100
AcDbPolyline
 90
    2
 70
    1
 43
0
 10
262.2
 20
-68.3
 10
266.2
 20
-68.3
 42
0.9999999999999999
  0
LWPOLYLINE
  5
24A
100
AcDbEntity
  8
wall
  6
ByLayer
 62
  256
370
   -1
100
AcDbPolyline
 90
    4
 70
    1
 43
0
 10
260.9499999999991
 20
-68.3
 10
260.9499999999991
 20
-69.55
 10
267.4500000000019
 20
-69.54999999999997
 10
267.4500000000009
 20
-68.3
 42
0.9999999999999999
  0
DIMENSION
  5
24B
100
AcDbEntity
  8
dimensions
  6
ByLayer
 62
  256
370
   -1
100
AcDbDimension
  2
*D34
 10
-12.00000000000002
 20
-130
 30
0
 11
-16.00000000000001
 21
-93.93887809242064
 31
0
 70
   32
 71
    5
 72
    0
  3
Standard
 53
0
210
0
220
0
230
1
100
AcDbAlignedDimension
 13
-4.000000000000016
 23
-57.87775618484127
 33
0
 14
-1.5931700403371e-14
 24
-130
 34
0
 50
90
100
AcDbRotatedDimension
  0
DIMENSION
  5
24C
100
AcDbEntity
  8
dimensions
  6
ByLayer
 62
  256
370
   -1
100
AcDbDimension
  2
*D35
 10
184.7
 20
-50.5
 30
0
 11
90.19999999999983
 21
-46.5
 31
0
 70
   32
 71
    5
  3
Standard
 53
0
210
0
220
0
230
1
100
AcDbAlignedDimension
 13
-4.000000000000016
 23
-64
 33
0
 14
184.3999999999997
 24
-64.00000000000003
 34
0
100
AcDbRotatedDimension
  0
LWPOLYLINE
  5
24D
100
AcDbEntity
  8
dah
  6
ByLayer
 62
  256
370
   -1
100
AcDbPolyline
 90
    4
 70
    1
 43
0
 10
-4.000000000000016
 20
-96.61715728752527
 10
184.3999999999997
 20
-96.6171572875253
 10
184.3999999999997
 20
-57.8777561848413
 10
-4.000000000000016
 20
-57.87775618484127
  0
LINE
  5
24E
100
AcDbEntity
  8
dah
  6
ByLayer
 62
  256
370
   -1
100
AcDbLine
 10
226
 20
-96.61715728752526
 11
264.2
 21
-58.41715728752536
  0
LINE
  5
24F
100
AcDbEntity
  8
dah
  6
ByLayer
 62
  256
370
   -1
100
AcDbLine
 10
225.7171572875254
 20
-96.33431457505063
 11
264.2
 21
-57.85147186257612
  0
LINE
  5
250
100
AcDbEntity
  8
dah
  6
ByLayer
 62
  256
370
   -1
100
AcDbLine
 10
264.2
 20
-58.41715728752536
 11
302.4
 21
-96.61715728752546
  0
LINE
  5
251
100
AcDbEntity
  8
dah
  6
ByLayer
 62
  256
370
   -1
100
AcDbLine
 10
264.2
 20
-57.85147186257612
 11
302.6828427124746
 21
-96.33431457505083
  0
LWPOLYLINE
  5
252
100
AcDbEntity
  8
wall
  6
CONTINUOUS
 62
   56
420
8421376
370
   50
100
AcDbPolyline
 90
    6
 70
    0
 43
0
 10
264.1999999999999
 20
-58.69999999999999
 10
298.4
 20
-92.90000000000008
 10
298.4
 20
-97.20000000000003
 10
230
 20
-97.2
 10
230
 20
-92.89999999999988
 10
264.1999999999999
 20
-58.69999999999999
  0
ENDSEC
  0
SECTION
  2
OBJECTS
  0
DICTIONARY
  5
C
330
0
100
AcDbDictionary
281
    1
  3
ACAD_GROUP
350
D
  0
DICTIONARY
  5
D
330
C
100
AcDbDictionary
281
    1
  0
ENDSEC
  0
EOF
