999
dxfrw 0.6.3
  0
SECTION
  2
HEADER
  9
$ACADVER
  1
AC1021
  9
$DWGCODEPAGE
  3
ANSI_1252
  9
$INSBASE
 10
0
 20
0
 30
0
  9
$EXTMIN
 10
-3.500000000000001
 20
-22.66666666666667
 30
0
  9
$EXTMAX
 10
69
 20
36.5
 30
0
  9
$LIMMIN
 10
0
 20
0
  9
$LIMMAX
 10
420
 20
297
  9
$ORTHOMODE
 70
    0
  9
$REGENMODE
 70
    1
  9
$FILLMODE
 70
    1
  9
$QTEXTMODE
 70
    0
  9
$MIRRTEXT
 70
    0
  9
$LTSCALE
 40
1
  9
$ATTMODE
 70
    0
  9
$TEXTSIZE
 40
2.5
  9
$TRACEWID
 40
15.68
  9
$TEXTSTYLE
  7
STANDARD
  9
$CLAYER
  8
dimensions
  9
$CELTYPE
  6
BYLAYER
  9
$CECOLOR
 62
  256
  9
$CELTSCALE
 40
1
  9
$DISPSILH
 70
    0
  9
$DIMSCALE
 40
1
  9
$DIMASZ
 40
2
  9
$DIMEXO
 40
0.5
  9
$DIMDLI
 40
3.75
  9
$DIMRND
 40
0
  9
$DIMDLE
 40
0
  9
$DIMEXE
 40
1
  9
$DIMTP
 40
0
  9
$DIMTM
 40
0
  9
$DIMTXT
 40
2
  9
$DIMCEN
 40
2.5
  9
$DIMTSZ
 40
0
  9
$DIMTOL
 70
    0
  9
$DIMLIM
 70
    0
  9
$DIMTIH
 70
    0
  9
$DIMTOH
 70
    0
  9
$DIMSE1
 70
    0
  9
$DIMSE2
 70
    0
  9
$DIMTAD
 70
    1
  9
$DIMZIN
 70
    8
  9
$DIMBLK
  1

  9
$DIMASO
 70
    1
  9
$DIMSHO
 70
    1
  9
$DIMPOST
  1

  9
$DIMAPOST
  1

  9
$DIMALT
 70
    0
  9
$DIMALTD
 70
    3
  9
$DIMALTF
 40
0.03937
  9
$DIMLFAC
 40
10
  9
$DIMTOFL
 70
    1
  9
$DIMTVP
 40
0
  9
$DIMTIX
 70
    0
  9
$DIMSOXD
 70
    0
  9
$DIMSAH
 70
    0
  9
$DIMBLK1
  1

  9
$DIMBLK2
  1

  9
$DIMSTYLE
  2
STANDARD
  9
$DIMCLRD
 70
    0
  9
$DIMCLRE
 70
    0
  9
$DIMCLRT
 70
    0
  9
$DIMTFAC
 40
1
  9
$DIMGAP
 40
0.5
  9
$DIMJUST
 70
    0
  9
$DIMSD1
 70
    0
  9
$DIMSD2
 70
    0
  9
$DIMTOLJ
 70
    0
  9
$DIMTZIN
 70
    8
  9
$DIMALTZ
 70
    0
  9
$DIMALTTZ
 70
    0
  9
$DIMUPT
 70
    0
  9
$DIMDEC
 70
    1
  9
$DIMTDEC
 70
    2
  9
$DIMALTU
 70
    2
  9
$DIMALTTD
 70
    3
  9
$DIMTXSTY
  7
standard
  9
$DIMAUNIT
 70
    0
  9
$DIMADEC
 70
    0
  9
$DIMALTRND
 40
0
  9
$DIMAZIN
 70
    0
  9
$DIMDSEP
 70
   44
  9
$DIMATFIT
 70
    3
  9
$DIMFRAC
 70
    0
  9
$DIMLDRBLK
  1
STANDARD
  9
$DIMLUNIT
 70
    2
  9
$DIMLWD
 70
   -2
  9
$DIMLWE
 70
   -2
  9
$DIMTMOVE
 70
    0
  9
$DIMFXL
 40
1
  9
$DIMFXLON
 70
    0
  9
$DIMJOGANG
 40
0.7854
  9
$DIMTFILL
 70
    0
  9
$DIMTFILLCLR
 70
    0
  9
$DIMARCSYM
 70
    0
  9
$DIMLTYPE
  6

  9
$DIMLTEX1
  6

  9
$DIMLTEX2
  6

  9
$LUNITS
 70
    2
  9
$LUPREC
 70
    2
  9
$SKETCHINC
 40
1
  9
$FILLETRAD
 40
0
  9
$AUNITS
 70
    0
  9
$AUPREC
 70
    2
  9
$MENU
  1
.
  9
$ELEVATION
 40
0
  9
$PELEVATION
 40
0
  9
$THICKNESS
 40
0
  9
$LIMCHECK
 70
    0
  9
$CHAMFERA
 40
0
  9
$CHAMFERB
 40
0
  9
$CHAMFERC
 40
0
  9
$CHAMFERD
 40
0
  9
$SKPOLY
 70
    0
  9
$USRTIMER
 70
    1
  9
$ANGBASE
 50
0
  9
$ANGDIR
 70
    0
  9
$PDMODE
 70
   34
  9
$PDSIZE
 40
0
  9
$PLINEWID
 40
0
  9
$SPLFRAME
 70
    0
  9
$SPLINETYPE
 70
    2
  9
$SPLINESEGS
 70
    8
  9
$HANDSEED
  5
20000
  9
$SURFTAB1
 70
    6
  9
$SURFTAB2
 70
    6
  9
$SURFTYPE
 70
    6
  9
$SURFU
 70
    6
  9
$SURFV
 70
    6
  9
$UCSBASE
  2

  9
$UCSNAME
  2

  9
$UCSORG
 10
0
 20
0
 30
0
  9
$UCSXDIR
 10
1
 20
0
 30
0
  9
$UCSYDIR
 10
0
 20
1
 30
0
  9
$UCSORTHOREF
  2

  9
$UCSORTHOVIEW
 70
    0
  9
$UCSORGTOP
 10
0
 20
0
 30
0
  9
$UCSORGBOTTOM
 10
0
 20
0
 30
0
  9
$UCSORGLEFT
 10
0
 20
0
 30
0
  9
$UCSORGRIGHT
 10
0
 20
0
 30
0
  9
$UCSORGFRONT
 10
0
 20
0
 30
0
  9
$UCSORGBACK
 10
0
 20
0
 30
0
  9
$PUCSBASE
  2

  9
$PUCSNAME
  2

  9
$PUCSORG
 10
0
 20
0
 30
0
  9
$PUCSXDIR
 10
1
 20
0
 30
0
  9
$PUCSYDIR
 10
0
 20
1
 30
0
  9
$PUCSORTHOREF
  2

  9
$PUCSORTHOVIEW
 70
    0
  9
$PUCSORGTOP
 10
0
 20
0
 30
0
  9
$PUCSORGBOTTOM
 10
0
 20
0
 30
0
  9
$PUCSORGLEFT
 10
0
 20
0
 30
0
  9
$PUCSORGRIGHT
 10
0
 20
0
 30
0
  9
$PUCSORGFRONT
 10
0
 20
0
 30
0
  9
$PUCSORGBACK
 10
0
 20
0
 30
0
  9
$USERI1
 70
    0
  9
$USERI2
 70
    0
  9
$USERI3
 70
    0
  9
$USERI4
 70
    0
  9
$USERI5
 70
    0
  9
$USERR1
 40
0
  9
$USERR2
 40
0
  9
$USERR3
 40
0
  9
$USERR4
 40
0
  9
$USERR5
 40
0
  9
$WORLDVIEW
 70
    1
  9
$SHADEDGE
 70
    3
  9
$SHADEDIF
 70
   70
  9
$TILEMODE
 70
    1
  9
$MAXACTVP
 70
   64
  9
$PINSBASE
 10
4.609859154929579
 20
8.337323943661971
 30
0
  9
$PLIMCHECK
 70
    0
  9
$PEXTMIN
 10
0
 20
0
 30
0
  9
$PEXTMAX
 10
0
 20
0
 30
0
  9
$GRIDMODE
 70
    1
  9
$SNAPSTYLE
 70
    0
  9
$GRIDUNIT
 10
0
 20
0
  9
$PLIMMIN
 10
0
 20
0
  9
$PLIMMAX
 10
29.7
 20
21
  9
$UNITMODE
 70
    0
  9
$VISRETAIN
 70
    1
  9
$PLINEGEN
 70
    0
  9
$PSLTSCALE
 70
    1
  9
$TREEDEPTH
 70
 3020
  9
$CMLSTYLE
  2
Standard
  9
$CMLJUST
 70
    0
  9
$CMLSCALE
 40
20
  9
$PROXYGRAPHICS
 70
    1
  9
$MEASUREMENT
 70
    1
  9
$CELWEIGHT
370
   -1
  9
$ENDCAPS
280
    0
  9
$JOINSTYLE
280
    0
  9
$LWDISPLAY
290
    0
  9
$INSUNITS
 70
    5
  9
$HYPERLINKBASE
  1

  9
$STYLESHEET
  1

  9
$XEDIT
290
    1
  9
$CEPSNTYPE
380
    0
  9
$PSTYLEMODE
290
    1
  9
$EXTNAMES
290
    1
  9
$PSVPSCALE
 40
0.3126758801826027
  9
$OLESTARTUP
290
    0
  9
$SORTENTS
280
  127
  9
$INDEXCTL
280
    0
  9
$HIDETEXT
280
    1
  9
$XCLIPFRAME
290
    0
  9
$HALOGAP
280
    0
  9
$OBSCOLOR
 70
  257
  9
$OBSLTYPE
280
    0
  9
$INTERSECTIONDISPLAY
280
    0
  9
$INTERSECTIONCOLOR
 70
  257
  9
$DIMASSOC
280
    1
  9
$PROJECTNAME
  1

  9
$CAMERADISPLAY
290
    0
  9
$LENSLENGTH
 40
50
  9
$CAMERAHEIGHT
 40
0
  9
$STEPSPERSEC
 40
2
  9
$STEPSIZE
 40
50
  9
$3DDWFPREC
 40
2
  9
$PSOLWIDTH
 40
5
  9
$PSOLHEIGHT
 40
80
  9
$LOFTANG1
 40
1.570796326794897
  9
$LOFTANG2
 40
1.570796326794897
  9
$LOFTMAG1
 40
0
  9
$LOFTMAG2
 40
0
  9
$LOFTPARAM
 70
    7
  9
$LOFTNORMALS
280
    1
  9
$LATITUDE
 40
1
  9
$LONGITUDE
 40
1
  9
$NORTHDIRECTION
 40
0
  9
$TIMEZONE
 70
-8000
  9
$LIGHTGLYPHDISPLAY
280
    1
  9
$TILEMODELIGHTSYNCH
280
    1
  9
$SOLIDHIST
280
    1
  9
$SHOWHIST
280
    1
  9
$DWFFRAME
280
    2
  9
$DGNFRAME
280
    0
  9
$REALWORLDSCALE
290
    1
  9
$INTERFERECOLOR
 62
    1
  9
$CSHADOW
280
    0
  9
$SHADOWPLANELOCATION
 40
0
  0
ENDSEC
  0
SECTION
  2
CLASSES
  0
ENDSEC
  0
SECTION
  2
TABLES
  0
TABLE
  2
VPORT
  5
8
330
0
100
AcDbSymbolTable
 70
    1
  0
VPORT
  5
31
330
2
100
AcDbSymbolTableRecord
100
AcDbViewportTableRecord
  2
*ACTIVE
 70
    0
 10
0
 20
0
 11
1
 21
1
 12
42.76904761904762
 22
18.82063492063492
 13
0
 23
0
 14
10
 24
10
 15
10
 25
10
 16
0
 26
0
 36
1
 17
0
 27
0
 37
0
 40
61.42063492063492
 41
1.715596330275229
 42
50
 43
0
 44
0
 50
0
 51
0
 71
    0
 72
  100
 73
    1
 74
    3
 75
    0
 76
    1
 77
    0
 78
    0
281
    0
 65
    1
110
0
120
0
130
0
111
1
121
0
131
0
112
0
122
1
132
0
 79
    0
146
0
348
10020
 60
    7
 61
    5
292
1
282
    1
141
0
142
0
 63
  250
421
3358443
  0
ENDTAB
  0
TABLE
  2
LTYPE
  5
5
330
0
100
AcDbSymbolTable
 70
    4
  0
LTYPE
  5
14
330
5
100
AcDbSymbolTableRecord
100
AcDbLinetypeTableRecord
  2
ByBlock
 70
    0
  3

 72
   65
 73
    0
 40
0
  0
LTYPE
  5
15
330
5
100
AcDbSymbolTableRecord
100
AcDbLinetypeTableRecord
  2
ByLayer
 70
    0
  3

 72
   65
 73
    0
 40
0
  0
LTYPE
  5
16
330
5
100
AcDbSymbolTableRecord
100
AcDbLinetypeTableRecord
  2
Continuous
 70
    0
  3
Solid line
 72
   65
 73
    0
 40
0
  0
LTYPE
  5
32
330
5
100
AcDbSymbolTableRecord
100
AcDbLinetypeTableRecord
  2
DOT
 70
    0
  3
Dot . . . . . . . . . . . . . . . . . . . . . .
 72
   65
 73
    2
 40
6.35
 49
0
 74
    0
 49
-6.35
 74
    0
  0
LTYPE
  5
33
330
5
100
AcDbSymbolTableRecord
100
AcDbLinetypeTableRecord
  2
DOTTINY
 70
    0
  3
Dot (.15x) .....................................
 72
   65
 73
    2
 40
0.9525
 49
0
 74
    0
 49
-0.9525
 74
    0
  0
LTYPE
  5
34
330
5
100
AcDbSymbolTableRecord
100
AcDbLinetypeTableRecord
  2
DOT2
 70
    0
  3
Dot (.5x) .....................................
 72
   65
 73
    2
 40
3.175
 49
0
 74
    0
 49
-3.175
 74
    0
  0
LTYPE
  5
35
330
5
100
AcDbSymbolTableRecord
100
AcDbLinetypeTableRecord
  2
DOTX2
 70
    0
  3
Dot (2x) .  .  .  .  .  .  .  .  .  .  .  .  .
 72
   65
 73
    2
 40
12.7
 49
0
 74
    0
 49
-12.7
 74
    0
  0
LTYPE
  5
36
330
5
100
AcDbSymbolTableRecord
100
AcDbLinetypeTableRecord
  2
DASHED
 70
    0
  3
Dashed _ _ _ _ _ _ _ _ _ _ _ _ _ _ _ _ _
 72
   65
 73
    2
 40
19.05
 49
12.7
 74
    0
 49
-6.35
 74
    0
  0
LTYPE
  5
37
330
5
100
AcDbSymbolTableRecord
100
AcDbLinetypeTableRecord
  2
DASHEDTINY
 70
    0
  3
Dashed (.15x) _ _ _ _ _ _ _ _ _ _ _ _ _ _ _ _ _
 72
   65
 73
    2
 40
2.8575
 49
1.905
 74
    0
 49
-0.9525
 74
    0
  0
LTYPE
  5
38
330
5
100
AcDbSymbolTableRecord
100
AcDbLinetypeTableRecord
  2
DASHED2
 70
    0
  3
Dashed (.5x) _ _ _ _ _ _ _ _ _ _ _ _ _ _ _ _ _
 72
   65
 73
    2
 40
9.524999999999999
 49
6.35
 74
    0
 49
-3.175
 74
    0
  0
LTYPE
  5
39
330
5
100
AcDbSymbolTableRecord
100
AcDbLinetypeTableRecord
  2
DASHEDX2
 70
    0
  3
Dashed (2x) ____  ____  ____  ____  ____  ___
 72
   65
 73
    2
 40
38.09999999999999
 49
25.4
 74
    0
 49
-12.7
 74
    0
  0
LTYPE
  5
3A
330
5
100
AcDbSymbolTableRecord
100
AcDbLinetypeTableRecord
  2
DASHDOT
 70
    0
  3
Dash dot __ . __ . __ . __ . __ . __ . __ . __
 72
   65
 73
    4
 40
25.4
 49
12.7
 74
    0
 49
-6.35
 74
    0
 49
0
 74
    0
 49
-6.35
 74
    0
  0
LTYPE
  5
3B
330
5
100
AcDbSymbolTableRecord
100
AcDbLinetypeTableRecord
  2
DASHDOTTINY
 70
    0
  3
Dash dot (.15x) _._._._._._._._._._._._._._._.
 72
   65
 73
    4
 40
3.81
 49
1.905
 74
    0
 49
-0.9525
 74
    0
 49
0
 74
    0
 49
-0.9525
 74
    0
  0
LTYPE
  5
3C
330
5
100
AcDbSymbolTableRecord
100
AcDbLinetypeTableRecord
  2
DASHDOT2
 70
    0
  3
Dash dot (.5x) _._._._._._._._._._._._._._._.
 72
   65
 73
    4
 40
12.7
 49
6.35
 74
    0
 49
-3.175
 74
    0
 49
0
 74
    0
 49
-3.175
 74
    0
  0
LTYPE
  5
3D
330
5
100
AcDbSymbolTableRecord
100
AcDbLinetypeTableRecord
  2
DASHDOTX2
 70
    0
  3
Dash dot (2x) ____  .  ____  .  ____  .  ___
 72
   65
 73
    4
 40
50.8
 49
25.4
 74
    0
 49
-12.7
 74
    0
 49
0
 74
    0
 49
-12.7
 74
    0
  0
LTYPE
  5
3E
330
5
100
AcDbSymbolTableRecord
100
AcDbLinetypeTableRecord
  2
DIVIDE
 70
    0
  3
Divide ____ . . ____ . . ____ . . ____ . . ____
 72
   65
 73
    6
 40
31.75
 49
12.7
 74
    0
 49
-6.35
 74
    0
 49
0
 74
    0
 49
-6.35
 74
    0
 49
0
 74
    0
 49
-6.35
 74
    0
  0
LTYPE
  5
3F
330
5
100
AcDbSymbolTableRecord
100
AcDbLinetypeTableRecord
  2
DIVIDETINY
 70
    0
  3
Divide (.15x) __..__..__..__..__..__..__..__.._
 72
   65
 73
    6
 40
4.7625
 49
1.905
 74
    0
 49
-0.9525
 74
    0
 49
0
 74
    0
 49
-0.9525
 74
    0
 49
0
 74
    0
 49
-0.9525
 74
    0
  0
LTYPE
  5
40
330
5
100
AcDbSymbolTableRecord
100
AcDbLinetypeTableRecord
  2
DIVIDE2
 70
    0
  3
Divide (.5x) __..__..__..__..__..__..__..__.._
 72
   65
 73
    6
 40
15.875
 49
6.35
 74
    0
 49
-3.175
 74
    0
 49
0
 74
    0
 49
-3.175
 74
    0
 49
0
 74
    0
 49
-3.175
 74
    0
  0
LTYPE
  5
41
330
5
100
AcDbSymbolTableRecord
100
AcDbLinetypeTableRecord
  2
DIVIDEX2
 70
    0
  3
Divide (2x) ________  .  .  ________  .  .  _
 72
   65
 73
    6
 40
63.5
 49
25.4
 74
    0
 49
-12.7
 74
    0
 49
0
 74
    0
 49
-12.7
 74
    0
 49
0
 74
    0
 49
-12.7
 74
    0
  0
LTYPE
  5
42
330
5
100
AcDbSymbolTableRecord
100
AcDbLinetypeTableRecord
  2
BORDER
 70
    0
  3
Border __ __ . __ __ . __ __ . __ __ . __ __ .
 72
   65
 73
    6
 40
44.45
 49
12.7
 74
    0
 49
-6.35
 74
    0
 49
12.7
 74
    0
 49
-6.35
 74
    0
 49
0
 74
    0
 49
-6.35
 74
    0
  0
LTYPE
  5
43
330
5
100
AcDbSymbolTableRecord
100
AcDbLinetypeTableRecord
  2
BORDERTINY
 70
    0
  3
Border (.15x) __.__.__.__.__.__.__.__.__.__.__.
 72
   65
 73
    6
 40
6.6675
 49
1.905
 74
    0
 49
-0.9525
 74
    0
 49
1.905
 74
    0
 49
-0.9525
 74
    0
 49
0
 74
    0
 49
-0.9525
 74
    0
  0
LTYPE
  5
44
330
5
100
AcDbSymbolTableRecord
100
AcDbLinetypeTableRecord
  2
BORDER2
 70
    0
  3
Border (.5x) __.__.__.__.__.__.__.__.__.__.__.
 72
   65
 73
    6
 40
22.225
 49
6.35
 74
    0
 49
-3.175
 74
    0
 49
6.35
 74
    0
 49
-3.175
 74
    0
 49
0
 74
    0
 49
-3.175
 74
    0
  0
LTYPE
  5
45
330
5
100
AcDbSymbolTableRecord
100
AcDbLinetypeTableRecord
  2
BORDERX2
 70
    0
  3
Border (2x) ____  ____  .  ____  ____  .  ___
 72
   65
 73
    6
 40
88.89999999999999
 49
25.4
 74
    0
 49
-12.7
 74
    0
 49
25.4
 74
    0
 49
-12.7
 74
    0
 49
0
 74
    0
 49
-12.7
 74
    0
  0
LTYPE
  5
46
330
5
100
AcDbSymbolTableRecord
100
AcDbLinetypeTableRecord
  2
CENTER
 70
    0
  3
Center ____ _ ____ _ ____ _ ____ _ ____ _ ____
 72
   65
 73
    4
 40
50.8
 49
31.75
 74
    0
 49
-6.35
 74
    0
 49
6.35
 74
    0
 49
-6.35
 74
    0
  0
LTYPE
  5
47
330
5
100
AcDbSymbolTableRecord
100
AcDbLinetypeTableRecord
  2
CENTERTINY
 70
    0
  3
Center (.15x) ___ _ ___ _ ___ _ ___ _ ___ _ ___
 72
   65
 73
    4
 40
7.619999999999999
 49
4.7625
 74
    0
 49
-0.9525
 74
    0
 49
0.9525
 74
    0
 49
-0.9525
 74
    0
  0
LTYPE
  5
48
330
5
100
AcDbSymbolTableRecord
100
AcDbLinetypeTableRecord
  2
CENTER2
 70
    0
  3
Center (.5x) ___ _ ___ _ ___ _ ___ _ ___ _ ___
 72
   65
 73
    4
 40
28.575
 49
19.05
 74
    0
 49
-3.175
 74
    0
 49
3.175
 74
    0
 49
-3.175
 74
    0
  0
LTYPE
  5
49
330
5
100
AcDbSymbolTableRecord
100
AcDbLinetypeTableRecord
  2
CENTERX2
 70
    0
  3
Center (2x) ________  __  ________  __  _____
 72
   65
 73
    4
 40
101.6
 49
63.5
 74
    0
 49
-12.7
 74
    0
 49
12.7
 74
    0
 49
-12.7
 74
    0
  0
ENDTAB
  0
TABLE
  2
LAYER
  5
2
330
0
100
AcDbSymbolTable
 70
    1
  0
LAYER
  5
10
330
2
100
AcDbSymbolTableRecord
100
AcDbLayerTableRecord
  2
0
 70
    1
 62
    7
  6
CONTINUOUS
370
   -3
390
F
1001
LibreCad
1070
    1
  0
LAYER
  5
4A
330
2
100
AcDbSymbolTableRecord
100
AcDbLayerTableRecord
  2
boxwall
 70
    0
 62
   56
420
8421376
  6
CONTINUOUS
370
   50
390
F
  0
LAYER
  5
4B
330
2
100
AcDbSymbolTableRecord
100
AcDbLayerTableRecord
  2
dimensions
 70
    0
 62
    4
  6
CONTINUOUS
370
   13
390
F
  0
LAYER
  5
4C
330
2
100
AcDbSymbolTableRecord
100
AcDbLayerTableRecord
  2
face
 70
    0
 62
    3
  6
CONTINUOUS
370
   50
390
F
  0
LAYER
  5
4D
330
2
100
AcDbSymbolTableRecord
100
AcDbLayerTableRecord
  2
glass
 70
    0
 62
    5
  6
CONTINUOUS
370
   50
390
F
  0
LAYER
  5
4E
330
2
100
AcDbSymbolTableRecord
100
AcDbLayerTableRecord
  2
support
 70
    1
 62
   96
420
32768
  6
CONTINUOUS
370
   50
390
F
  0
ENDTAB
  0
TABLE
  2
STYLE
  5
3
330
0
100
AcDbSymbolTable
 70
    3
  0
STYLE
  5
4F
330
2
100
AcDbSymbolTableRecord
100
AcDbTextStyleTableRecord
  2
unicode
 70
    0
 40
0
 41
1
 50
0
 71
    0
 42
1
  3
unicode
  4

  0
STYLE
  5
50
330
2
100
AcDbSymbolTableRecord
100
AcDbTextStyleTableRecord
  2
cyrillic_ii
 70
    0
 40
0
 41
1
 50
0
 71
    0
 42
1
  3
cyrillic_ii
  4

  0
STYLE
  5
51
330
2
100
AcDbSymbolTableRecord
100
AcDbTextStyleTableRecord
  2
Standard
 70
    0
 40
0
 41
1
 50
0
 71
    0
 42
1
  3
txt
  4

  0
ENDTAB
  0
TABLE
  2
VIEW
  5
6
330
0
100
AcDbSymbolTable
 70
    0
  0
ENDTAB
  0
TABLE
  2
UCS
  5
7
330
0
100
AcDbSymbolTable
 70
    0
  0
ENDTAB
  0
TABLE
  2
APPID
  5
9
330
0
100
AcDbSymbolTable
 70
    1
  0
APPID
  5
12
330
9
100
AcDbSymbolTableRecord
100
AcDbRegAppTableRecord
  2
ACAD
 70
    0
  0
APPID
  5
52
330
9
100
AcDbSymbolTableRecord
100
AcDbRegAppTableRecord
  2
LibreCad
 70
    0
  0
ENDTAB
  0
TABLE
  2
DIMSTYLE
  5
A
330
0
100
AcDbSymbolTable
 70
    1
100
AcDbDimStyleTable
 71
    1
  0
DIMSTYLE
105
53
330
A
100
AcDbSymbolTableRecord
100
AcDbDimStyleTableRecord
  2
Standard
 70
    0
 40
1
 41
2
 42
0.5
 43
0.38
 44
1
 45
0
 46
0
 47
0
 48
0
 49
1
140
2
141
0.09
142
0
143
25.4
144
10
145
0
146
1
147
0.5
148
0
 71
    0
 72
    0
 73
    0
 74
    1
 75
    0
 76
    0
 77
    0
 78
    8
 79
    0
170
    0
171
    2
172
    0
173
    0
174
    0
175
    0
176
    0
177
    0
178
    0
179
    0
271
    1
272
    4
273
    2
274
    2
275
    0
276
    0
277
    2
278
   44
279
    0
280
    0
281
    0
282
    0
283
    1
284
    0
285
    0
286
    0
288
    0
289
    3
340
standard
341

371
   -2
372
   -2
  0
ENDTAB
  0
TABLE
  2
BLOCK_RECORD
  5
1
330
0
100
AcDbSymbolTable
 70
    2
  0
BLOCK_RECORD
  5
1F
330
1
100
AcDbSymbolTableRecord
100
AcDbBlockTableRecord
  2
*Model_Space
 70
    0
280
    1
281
    0
  0
BLOCK_RECORD
  5
1E
330
1
100
AcDbSymbolTableRecord
100
AcDbBlockTableRecord
  2
*Paper_Space
 70
    0
280
    1
281
    0
  0
BLOCK_RECORD
  5
54
330
1
100
AcDbSymbolTableRecord
100
AcDbBlockTableRecord
  2
*D3
 70
    0
280
    1
281
    0
  0
BLOCK_RECORD
  5
57
330
1
100
AcDbSymbolTableRecord
100
AcDbBlockTableRecord
  2
*D4
 70
    0
280
    1
281
    0
  0
BLOCK_RECORD
  5
5A
330
1
100
AcDbSymbolTableRecord
100
AcDbBlockTableRecord
  2
*D7
 70
    0
280
    1
281
    0
  0
BLOCK_RECORD
  5
5D
330
1
100
AcDbSymbolTableRecord
100
AcDbBlockTableRecord
  2
*D10
 70
    0
280
    1
281
    0
  0
BLOCK_RECORD
  5
60
330
1
100
AcDbSymbolTableRecord
100
AcDbBlockTableRecord
  2
*D11
 70
    0
280
    1
281
    0
  0
BLOCK_RECORD
  5
63
330
1
100
AcDbSymbolTableRecord
100
AcDbBlockTableRecord
  2
*D1
 70
    0
280
    1
281
    0
  0
BLOCK_RECORD
  5
66
330
1
100
AcDbSymbolTableRecord
100
AcDbBlockTableRecord
  2
*D12
 70
    0
280
    1
281
    0
  0
BLOCK_RECORD
  5
69
330
1
100
AcDbSymbolTableRecord
100
AcDbBlockTableRecord
  2
*D14
 70
    0
280
    1
281
    0
  0
BLOCK_RECORD
  5
6C
330
1
100
AcDbSymbolTableRecord
100
AcDbBlockTableRecord
  2
*D2
 70
    0
280
    1
281
    0
  0
BLOCK_RECORD
  5
6F
330
1
100
AcDbSymbolTableRecord
100
AcDbBlockTableRecord
  2
*D9
 70
    0
280
    1
281
    0
  0
BLOCK_RECORD
  5
72
330
1
100
AcDbSymbolTableRecord
100
AcDbBlockTableRecord
  2
*D6
 70
    0
280
    1
281
    0
  0
BLOCK_RECORD
  5
75
330
1
100
AcDbSymbolTableRecord
100
AcDbBlockTableRecord
  2
*D8
 70
    0
280
    1
281
    0
  0
BLOCK_RECORD
  5
78
330
1
100
AcDbSymbolTableRecord
100
AcDbBlockTableRecord
  2
*D13
 70
    0
280
    1
281
    0
  0
BLOCK_RECORD
  5
7B
330
1
100
AcDbSymbolTableRecord
100
AcDbBlockTableRecord
  2
*D5
 70
    0
280
    1
281
    0
  0
ENDTAB
  0
ENDSEC
  0
SECTION
  2
BLOCKS
  0
BLOCK
  5
20
330
1F
100
AcDbEntity
  8
0
100
AcDbBlockBegin
  2
*Model_Space
 70
    0
 10
0
 20
0
 30
0
  3
*Model_Space
  1

  0
ENDBLK
  5
21
330
1F
100
AcDbEntity
  8
0
100
AcDbBlockEnd
  0
BLOCK
  5
1C
330
1B
100
AcDbEntity
  8
0
100
AcDbBlockBegin
  2
*Paper_Space
 70
    0
 10
0
 20
0
 30
0
  3
*Paper_Space
  1

  0
ENDBLK
  5
1D
330
1F
100
AcDbEntity
  8
0
100
AcDbBlockEnd
  0
BLOCK
  5
55
330
54
100
AcDbEntity
  8
0
100
AcDbBlockBegin
  2
*D3
 70
    1
 10
0
 20
0
  3
*D3
  1

  0
LINE
  5
7E
100
AcDbEntity
  8
dimensions
  6
ByBlock
 62
    0
370
   -2
100
AcDbLine
 10
28
 20
21.00000000000004
 11
28
 21
-5.284661597215736e-17
  0
SOLID
  5
7F
100
AcDbEntity
  8
dimensions
  6
ByBlock
 62
    0
370
   -2
100
AcDbTrace
 10
28
 20
21.00000000000004
 30
0
 11
28.33302772621827
 21
19.00000000000004
 31
0
 12
27.66697227378173
 22
19.00000000000004
 32
0
 13
27.66697227378173
 23
19.00000000000004
 33
0
  0
SOLID
  5
80
100
AcDbEntity
  8
dimensions
  6
ByBlock
 62
    0
370
   -2
100
AcDbTrace
 10
28
 20
-5.284661597215736e-17
 30
0
 11
27.66697227378173
 21
2
 31
0
 12
28.33302772621827
 22
2
 32
0
 13
28.33302772621827
 23
2
 33
0
  0
MTEXT
  5
81
100
AcDbEntity
  8
dimensions
  6
CONTINUOUS
 62
    0
370
   -2
100
AcDbMText
 10
26.5
 20
10.50000000000002
 30
0
 40
2
 41
3.555555555555555
 71
    5
 72
    1
  1
210
  7
standard
210
0
220
0
230
1
 50
90
 73
    2
 44
1
  0
LINE
  5
82
100
AcDbEntity
  8
dimensions
  6
ByBlock
 62
    0
370
   -2
100
AcDbLine
 10
30.70000000000004
 20
21.00000000000004
 11
27
 21
21.00000000000004
  0
LINE
  5
83
100
AcDbEntity
  8
dimensions
  6
ByBlock
 62
    0
370
   -2
100
AcDbLine
 10
29.1
 20
-1.053011137364058e-16
 11
27
 21
6.961806394257796e-17
  0
ENDBLK
  5
56
330
54
100
AcDbEntity
  8
0
100
AcDbBlockEnd
  0
BLOCK
  5
58
330
57
100
AcDbEntity
  8
0
100
AcDbBlockBegin
  2
*D4
 70
    1
 10
0
 20
0
  3
*D4
  1

  0
LINE
  5
84
100
AcDbEntity
  8
dimensions
  6
ByBlock
 62
    0
370
   -2
100
AcDbLine
 10
17
 20
6.000000000000038
 11
17
 21
1.705302565824239e-16
  0
SOLID
  5
85
100
AcDbEntity
  8
dimensions
  6
ByBlock
 62
    0
370
   -2
100
AcDbTrace
 10
17
 20
6.000000000000038
 30
0
 11
17.33302772621827
 21
4.000000000000038
 31
0
 12
16.66697227378173
 22
4.000000000000038
 32
0
 13
16.66697227378173
 23
4.000000000000038
 33
0
  0
SOLID
  5
86
100
AcDbEntity
  8
dimensions
  6
ByBlock
 62
    0
370
   -2
100
AcDbTrace
 10
17
 20
1.705302565824239e-16
 30
0
 11
16.66697227378173
 21
2
 31
0
 12
17.33302772621827
 22
2
 32
0
 13
17.33302772621827
 23
2
 33
0
  0
MTEXT
  5
87
100
AcDbEntity
  8
dimensions
  6
CONTINUOUS
 62
    0
370
   -2
100
AcDbMText
 10
15.5
 20
3.000000000000019
 30
0
 40
2
 41
2.444444444444568
 71
    5
 72
    1
  1
60
  7
standard
210
0
220
0
230
1
 50
90
 73
    2
 44
1
  0
LINE
  5
88
100
AcDbEntity
  8
dimensions
  6
ByBlock
 62
    0
370
   -2
100
AcDbLine
 10
18.9
 20
6.000000000000037
 11
16
 21
6.000000000000039
  0
LINE
  5
89
100
AcDbEntity
  8
dimensions
  6
ByBlock
 62
    0
370
   -2
100
AcDbLine
 10
18.9
 20
6.123233995736766e-17
 11
16
 21
2.929949364971592e-16
  0
ENDBLK
  5
59
330
57
100
AcDbEntity
  8
0
100
AcDbBlockEnd
  0
BLOCK
  5
5B
330
5A
100
AcDbEntity
  8
0
100
AcDbBlockBegin
  2
*D7
 70
    1
 10
0
 20
0
  3
*D7
  1

  0
LINE
  5
8A
100
AcDbEntity
  8
dimensions
  6
ByBlock
 62
    0
370
   -2
100
AcDbLine
 10
23.5
 20
-6
 11
29.6
 21
-6
  0
SOLID
  5
8B
100
AcDbEntity
  8
dimensions
  6
ByBlock
 62
    0
370
   -2
100
AcDbTrace
 10
23.5
 20
-6
 30
0
 11
25.5
 21
-5.666972273781727
 31
0
 12
25.5
 22
-6.333027726218273
 32
0
 13
25.5
 23
-6.333027726218273
 33
0
  0
SOLID
  5
8C
100
AcDbEntity
  8
dimensions
  6
ByBlock
 62
    0
370
   -2
100
AcDbTrace
 10
29.6
 20
-6
 30
0
 11
27.6
 21
-6.333027726218273
 31
0
 12
27.6
 22
-5.666972273781727
 32
0
 13
27.6
 23
-5.666972273781727
 33
0
  0
MTEXT
  5
8D
100
AcDbEntity
  8
dimensions
  6
CONTINUOUS
 62
    0
370
   -2
100
AcDbMText
 10
26.55
 20
-4.5
 30
0
 40
2
 41
2.000000000000124
 71
    5
 72
    1
  1
61
  7
standard
210
0
220
0
230
1
 50
0
 73
    2
 44
1
  0
LINE
  5
8E
100
AcDbEntity
  8
dimensions
  6
ByBlock
 62
    0
370
   -2
100
AcDbLine
 10
23.5
 20
5.500000000000037
 11
23.5
 21
-7
  0
LINE
  5
8F
100
AcDbEntity
  8
dimensions
  6
ByBlock
 62
    0
370
   -2
100
AcDbLine
 10
29.6
 20
0.9000000000000377
 11
29.6
 21
-7
  0
ENDBLK
  5
5C
330
5A
100
AcDbEntity
  8
0
100
AcDbBlockEnd
  0
BLOCK
  5
5E
330
5D
100
AcDbEntity
  8
0
100
AcDbBlockBegin
  2
*D10
 70
    1
 10
0
 20
0
  3
*D10
  1

  0
LINE
  5
90
100
AcDbEntity
  8
dimensions
  6
ByBlock
 62
    0
370
   -2
100
AcDbLine
 10
40.9
 20
-5.999999999999999
 11
53
 21
-6.000000000000001
  0
SOLID
  5
91
100
AcDbEntity
  8
dimensions
  6
ByBlock
 62
    0
370
   -2
100
AcDbTrace
 10
44.9
 20
-6
 30
0
 11
42.9
 21
-6.333027726218273
 31
0
 12
42.9
 22
-5.666972273781727
 32
0
 13
42.9
 23
-5.666972273781727
 33
0
  0
SOLID
  5
92
100
AcDbEntity
  8
dimensions
  6
ByBlock
 62
    0
370
   -2
100
AcDbTrace
 10
49
 20
-6
 30
0
 11
51
 21
-5.666972273781727
 31
0
 12
51
 22
-6.333027726218273
 32
0
 13
51
 23
-6.333027726218273
 33
0
  0
MTEXT
  5
93
100
AcDbEntity
  8
dimensions
  6
CONTINUOUS
 62
    0
370
   -2
100
AcDbMText
 10
46.95
 20
-4.5
 30
0
 40
2
 41
2.222222222222222
 71
    5
 72
    1
  1
41
  7
standard
210
0
220
0
230
1
 50
0
 73
    2
 44
1
  0
LINE
  5
94
100
AcDbEntity
  8
dimensions
  6
ByBlock
 62
    0
370
   -2
100
AcDbLine
 10
44.9
 20
5.500000000000037
 11
44.9
 21
-7
  0
LINE
  5
95
100
AcDbEntity
  8
dimensions
  6
ByBlock
 62
    0
370
   -2
100
AcDbLine
 10
49
 20
5.5
 11
49
 21
-7
  0
ENDBLK
  5
5F
330
5D
100
AcDbEntity
  8
0
100
AcDbBlockEnd
  0
BLOCK
  5
61
330
60
100
AcDbEntity
  8
0
100
AcDbBlockBegin
  2
*D11
 70
    1
 10
0
 20
0
  3
*D11
  1

  0
LINE
  5
96
100
AcDbEntity
  8
dimensions
  6
ByBlock
 62
    0
370
   -2
100
AcDbLine
 10
49
 20
-6
 11
68.40000000000002
 21
-6
  0
SOLID
  5
97
100
AcDbEntity
  8
dimensions
  6
ByBlock
 62
    0
370
   -2
100
AcDbTrace
 10
49
 20
-6
 30
0
 11
51
 21
-5.666972273781727
 31
0
 12
51
 22
-6.333027726218273
 32
0
 13
51
 23
-6.333027726218273
 33
0
  0
SOLID
  5
98
100
AcDbEntity
  8
dimensions
  6
ByBlock
 62
    0
370
   -2
100
AcDbTrace
 10
68.40000000000002
 20
-6
 30
0
 11
66.40000000000002
 21
-6.333027726218273
 31
0
 12
66.40000000000002
 22
-5.666972273781727
 32
0
 13
66.40000000000002
 23
-5.666972273781727
 33
0
  0
MTEXT
  5
99
100
AcDbEntity
  8
dimensions
  6
CONTINUOUS
 62
    0
370
   -2
100
AcDbMText
 10
58.70000000000001
 20
-4.5
 30
0
 40
2
 41
3.777777777777778
 71
    5
 72
    1
  1
194
  7
standard
210
0
220
0
230
1
 50
0
 73
    2
 44
1
  0
LINE
  5
9A
100
AcDbEntity
  8
dimensions
  6
ByBlock
 62
    0
370
   -2
100
AcDbLine
 10
49
 20
5.500000000000037
 11
49
 21
-7
  0
LINE
  5
9B
100
AcDbEntity
  8
dimensions
  6
ByBlock
 62
    0
370
   -2
100
AcDbLine
 10
68.40000000000002
 20
-0.5000000000044222
 11
68.40000000000002
 21
-7
  0
ENDBLK
  5
62
330
60
100
AcDbEntity
  8
0
100
AcDbBlockEnd
  0
BLOCK
  5
64
330
63
100
AcDbEntity
  8
0
100
AcDbBlockBegin
  2
*D1
 70
    1
 10
0
 20
0
  3
*D1
  1

  0
LINE
  5
9C
100
AcDbEntity
  8
dimensions
  6
ByBlock
 62
    0
370
   -2
100
AcDbLine
 10
33
 20
1.400000000000038
 11
33
 21
18.70000000000004
  0
SOLID
  5
9D
100
AcDbEntity
  8
dimensions
  6
ByBlock
 62
    0
370
   -2
100
AcDbTrace
 10
33
 20
1.400000000000038
 30
0
 11
32.66697227378173
 21
3.400000000000038
 31
0
 12
33.33302772621828
 22
3.400000000000038
 32
0
 13
33.33302772621828
 23
3.400000000000038
 33
0
  0
SOLID
  5
9E
100
AcDbEntity
  8
dimensions
  6
ByBlock
 62
    0
370
   -2
100
AcDbTrace
 10
33
 20
18.70000000000004
 30
0
 11
33.33302772621827
 21
16.70000000000004
 31
0
 12
32.66697227378173
 22
16.70000000000004
 32
0
 13
32.66697227378173
 23
16.70000000000004
 33
0
  0
MTEXT
  5
9F
100
AcDbEntity
  8
dimensions
  6
CONTINUOUS
 62
    0
370
   -2
100
AcDbMText
 10
31.5
 20
10.05000000000004
 30
0
 40
2
 41
3.55555555555568
 71
    5
 72
    1
  1
173
  7
standard
210
0
220
0
230
1
 50
90
 73
    2
 44
1
  0
LINE
  5
A0
100
AcDbEntity
  8
dimensions
  6
ByBlock
 62
    0
370
   -2
100
AcDbLine
 10
30.1
 20
1.400000000000038
 11
34
 21
1.400000000000038
  0
LINE
  5
A1
100
AcDbEntity
  8
dimensions
  6
ByBlock
 62
    0
370
   -2
100
AcDbLine
 10
30.1
 20
18.70000000000004
 11
34
 21
18.70000000000004
  0
ENDBLK
  5
65
330
63
100
AcDbEntity
  8
0
100
AcDbBlockEnd
  0
BLOCK
  5
67
330
66
100
AcDbEntity
  8
0
100
AcDbBlockBegin
  2
*D12
 70
    1
 10
0
 20
0
  3
*D12
  1

  0
LINE
  5
A2
100
AcDbEntity
  8
dimensions
  6
CONTINUOUS
 62
    7
370
    0
100
AcDbLine
 10
6.5
 20
9.400000000000038
 11
6.500000000000001
 21
13.00000000000004
  0
SOLID
  5
A3
100
AcDbEntity
  8
dimensions
  6
CONTINUOUS
 62
    7
370
    0
100
AcDbTrace
 10
6.5
 20
9.400000000000038
 30
0
 11
6.166972273781728
 21
11.40000000000004
 31
0
 12
6.833027726218273
 22
11.40000000000004
 32
0
 13
6.833027726218273
 23
11.40000000000004
 33
0
  0
ENDBLK
  5
68
330
66
100
AcDbEntity
  8
0
100
AcDbBlockEnd
  0
BLOCK
  5
6A
330
69
100
AcDbEntity
  8
0
100
AcDbBlockBegin
  2
*D14
 70
    1
 10
0
 20
0
  3
*D14
  1

  0
LINE
  5
A4
100
AcDbEntity
  8
dimensions
  6
ByBlock
 62
    0
370
   -2
100
AcDbLine
 10
-0.9999999999999984
 20
29.395164082497
 11
-1
 21
6.106226635438361e-17
  0
SOLID
  5
A5
100
AcDbEntity
  8
dimensions
  6
ByBlock
 62
    0
370
   -2
100
AcDbTrace
 10
-0.9999999999999984
 20
29.395164082497
 30
0
 11
-0.6669722737817262
 21
27.395164082497
 31
0
 12
-1.333027726218271
 22
27.395164082497
 32
0
 13
-1.333027726218271
 23
27.395164082497
 33
0
  0
SOLID
  5
A6
100
AcDbEntity
  8
dimensions
  6
ByBlock
 62
    0
370
   -2
100
AcDbTrace
 10
-1
 20
6.106226635438361e-17
 30
0
 11
-1.333027726218272
 21
2
 31
0
 12
-0.6669722737817275
 22
2
 32
0
 13
-0.6669722737817275
 23
2
 33
0
  0
MTEXT
  5
A7
100
AcDbEntity
  8
dimensions
  6
CONTINUOUS
 62
    0
370
   -2
100
AcDbMText
 10
-2.499999999999999
 20
14.6975820412485
 30
0
 40
2
 41
6.155555555555555
 71
    5
 72
    1
  1
294*
  7
standard
210
0
220
0
230
1
 50
90
 73
    2
 44
1
  0
LINE
  5
A8
100
AcDbEntity
  8
dimensions
  6
ByBlock
 62
    0
370
   -2
100
AcDbLine
 10
33.7
 20
29.395164082497
 11
-1.999999999999998
 21
29.395164082497
  0
LINE
  5
A9
100
AcDbEntity
  8
dimensions
  6
ByBlock
 62
    0
370
   -2
100
AcDbLine
 10
-0.5
 20
6.123233995736766e-17
 11
-2
 21
1.835269462691189e-16
  0
ENDBLK
  5
6B
330
69
100
AcDbEntity
  8
0
100
AcDbBlockEnd
  0
BLOCK
  5
6D
330
6C
100
AcDbEntity
  8
0
100
AcDbBlockBegin
  2
*D2
 70
    1
 10
0
 20
0
  3
*D2
  1

  0
LINE
  5
AA
100
AcDbEntity
  8
dimensions
  6
ByBlock
 62
    0
370
   -2
100
AcDbLine
 10
33
 20
5.400000000000038
 11
33
 21
-4
  0
SOLID
  5
AB
100
AcDbEntity
  8
dimensions
  6
ByBlock
 62
    0
370
   -2
100
AcDbTrace
 10
33
 20
1.400000000000037
 30
0
 11
32.66697227378173
 21
3.400000000000038
 31
0
 12
33.33302772621828
 22
3.400000000000038
 32
0
 13
33.33302772621828
 23
3.400000000000038
 33
0
  0
SOLID
  5
AC
100
AcDbEntity
  8
dimensions
  6
ByBlock
 62
    0
370
   -2
100
AcDbTrace
 10
33
 20
-4.358735594678364e-16
 30
0
 11
33.33302772621827
 21
-2
 31
0
 12
32.66697227378173
 22
-2
 32
0
 13
32.66697227378173
 23
-2
 33
0
  0
MTEXT
  5
AD
100
AcDbEntity
  8
dimensions
  6
CONTINUOUS
 62
    0
370
   -2
100
AcDbMText
 10
31
 20
-1.68888888888887
 30
0
 40
2
 41
2.222222222222222
 71
    5
 72
    1
  1
14
  7
standard
210
0
220
0
230
1
 50
90
 73
    2
 44
1
  0
LINE
  5
AE
100
AcDbEntity
  8
dimensions
  6
ByBlock
 62
    0
370
   -2
100
AcDbLine
 10
30.1
 20
1.400000000000038
 11
34
 21
1.400000000000037
  0
LINE
  5
AF
100
AcDbEntity
  8
dimensions
  6
ByBlock
 62
    0
370
   -2
100
AcDbLine
 10
30.1
 20
-1.942890293094024e-16
 11
34
 21
-4.358735594678364e-16
  0
ENDBLK
  5
6E
330
6C
100
AcDbEntity
  8
0
100
AcDbBlockEnd
  0
BLOCK
  5
70
330
6F
100
AcDbEntity
  8
0
100
AcDbBlockBegin
  2
*D9
 70
    1
 10
0
 20
0
  3
*D9
  1

  0
LINE
  5
B0
100
AcDbEntity
  8
dimensions
  6
ByBlock
 62
    0
370
   -2
100
AcDbLine
 10
38.8
 20
-5.999999999999998
 11
44.9
 21
-5.999999999999998
  0
SOLID
  5
B1
100
AcDbEntity
  8
dimensions
  6
ByBlock
 62
    0
370
   -2
100
AcDbTrace
 10
38.8
 20
-5.999999999999998
 30
0
 11
40.8
 21
-5.666972273781726
 31
0
 12
40.8
 22
-6.333027726218271
 32
0
 13
40.8
 23
-6.333027726218271
 33
0
  0
SOLID
  5
B2
100
AcDbEntity
  8
dimensions
  6
ByBlock
 62
    0
370
   -2
100
AcDbTrace
 10
44.9
 20
-5.999999999999998
 30
0
 11
42.9
 21
-6.333027726218271
 31
0
 12
42.9
 22
-5.666972273781726
 32
0
 13
42.9
 23
-5.666972273781726
 33
0
  0
MTEXT
  5
B3
100
AcDbEntity
  8
dimensions
  6
CONTINUOUS
 62
    0
370
   -2
100
AcDbMText
 10
41.84999999999999
 20
-4.499999999999998
 30
0
 40
2
 41
2.000000000000124
 71
    5
 72
    1
  1
61
  7
standard
210
0
220
0
230
1
 50
0
 73
    2
 44
1
  0
LINE
  5
B4
100
AcDbEntity
  8
dimensions
  6
ByBlock
 62
    0
370
   -2
100
AcDbLine
 10
38.8
 20
0.9000000000000381
 11
38.8
 21
-6.999999999999998
  0
LINE
  5
B5
100
AcDbEntity
  8
dimensions
  6
ByBlock
 62
    0
370
   -2
100
AcDbLine
 10
44.9
 20
5.500000000000037
 11
44.9
 21
-6.999999999999998
  0
ENDBLK
  5
71
330
6F
100
AcDbEntity
  8
0
100
AcDbBlockEnd
  0
BLOCK
  5
73
330
72
100
AcDbEntity
  8
0
100
AcDbBlockBegin
  2
*D6
 70
    1
 10
0
 20
0
  3
*D6
  1

  0
LINE
  5
B6
100
AcDbEntity
  8
dimensions
  6
ByBlock
 62
    0
370
   -2
100
AcDbLine
 10
15.4
 20
-5.999999999999997
 11
27.5
 21
-5.999999999999999
  0
SOLID
  5
B7
100
AcDbEntity
  8
dimensions
  6
ByBlock
 62
    0
370
   -2
100
AcDbTrace
 10
19.4
 20
-5.999999999999998
 30
0
 11
17.4
 21
-6.333027726218271
 31
0
 12
17.4
 22
-5.666972273781726
 32
0
 13
17.4
 23
-5.666972273781726
 33
0
  0
SOLID
  5
B8
100
AcDbEntity
  8
dimensions
  6
ByBlock
 62
    0
370
   -2
100
AcDbTrace
 10
23.5
 20
-5.999999999999998
 30
0
 11
25.5
 21
-5.666972273781726
 31
0
 12
25.5
 22
-6.333027726218271
 32
0
 13
25.5
 23
-6.333027726218271
 33
0
  0
MTEXT
  5
B9
100
AcDbEntity
  8
dimensions
  6
CONTINUOUS
 62
    0
370
   -2
100
AcDbMText
 10
21.45
 20
-4.499999999999998
 30
0
 40
2
 41
2.222222222222222
 71
    5
 72
    1
  1
41
  7
standard
210
0
220
0
230
1
 50
0
 73
    2
 44
1
  0
LINE
  5
BA
100
AcDbEntity
  8
dimensions
  6
ByBlock
 62
    0
370
   -2
100
AcDbLine
 10
19.4
 20
5.500000000000037
 11
19.4
 21
-6.999999999999998
  0
LINE
  5
BB
100
AcDbEntity
  8
dimensions
  6
ByBlock
 62
    0
370
   -2
100
AcDbLine
 10
23.5
 20
5.500000000000037
 11
23.5
 21
-6.999999999999998
  0
ENDBLK
  5
74
330
72
100
AcDbEntity
  8
0
100
AcDbBlockEnd
  0
BLOCK
  5
76
330
75
100
AcDbEntity
  8
0
100
AcDbBlockBegin
  2
*D8
 70
    1
 10
0
 20
0
  3
*D8
  1

  0
LINE
  5
BC
100
AcDbEntity
  8
dimensions
  6
ByBlock
 62
    0
370
   -2
100
AcDbLine
 10
29.6
 20
-6
 11
38.8
 21
-6
  0
SOLID
  5
BD
100
AcDbEntity
  8
dimensions
  6
ByBlock
 62
    0
370
   -2
100
AcDbTrace
 10
29.6
 20
-6
 30
0
 11
31.6
 21
-5.666972273781727
 31
0
 12
31.6
 22
-6.333027726218273
 32
0
 13
31.6
 23
-6.333027726218273
 33
0
  0
SOLID
  5
BE
100
AcDbEntity
  8
dimensions
  6
ByBlock
 62
    0
370
   -2
100
AcDbTrace
 10
38.8
 20
-6
 30
0
 11
36.8
 21
-6.333027726218273
 31
0
 12
36.8
 22
-5.666972273781727
 32
0
 13
36.8
 23
-5.666972273781727
 33
0
  0
MTEXT
  5
BF
100
AcDbEntity
  8
dimensions
  6
CONTINUOUS
 62
    0
370
   -2
100
AcDbMText
 10
34.2
 20
-4.5
 30
0
 40
2
 41
2.444444444444568
 71
    5
 72
    1
  1
92
  7
standard
210
0
220
0
230
1
 50
0
 73
    2
 44
1
  0
LINE
  5
C0
100
AcDbEntity
  8
dimensions
  6
ByBlock
 62
    0
370
   -2
100
AcDbLine
 10
29.6
 20
0.9000000000000377
 11
29.6
 21
-7
  0
LINE
  5
C1
100
AcDbEntity
  8
dimensions
  6
ByBlock
 62
    0
370
   -2
100
AcDbLine
 10
38.8
 20
0.9000000000000381
 11
38.8
 21
-7
  0
ENDBLK
  5
77
330
75
100
AcDbEntity
  8
0
100
AcDbBlockEnd
  0
BLOCK
  5
79
330
78
100
AcDbEntity
  8
0
100
AcDbBlockBegin
  2
*D13
 70
    1
 10
0
 20
0
  3
*D13
  1

  0
LINE
  5
C2
100
AcDbEntity
  8
dimensions
  6
CONTINUOUS
 62
    7
370
    0
100
AcDbLine
 10
61.90000000000001
 20
9.400000000000038
 11
61.90000000000001
 21
13.00000000000004
  0
SOLID
  5
C3
100
AcDbEntity
  8
dimensions
  6
CONTINUOUS
 62
    7
370
    0
100
AcDbTrace
 10
61.90000000000001
 20
9.400000000000038
 30
0
 11
61.56697227378174
 21
11.40000000000004
 31
0
 12
62.23302772621828
 22
11.40000000000004
 32
0
 13
62.23302772621828
 23
11.40000000000004
 33
0
  0
ENDBLK
  5
7A
330
78
100
AcDbEntity
  8
0
100
AcDbBlockEnd
  0
BLOCK
  5
7C
330
7B
100
AcDbEntity
  8
0
100
AcDbBlockBegin
  2
*D5
 70
    1
 10
0
 20
0
  3
*D5
  1

  0
LINE
  5
C4
100
AcDbEntity
  8
dimensions
  6
ByBlock
 62
    0
370
   -2
100
AcDbLine
 10
0
 20
-5.999999999999998
 11
19.4
 21
-5.999999999999998
  0
SOLID
  5
C5
100
AcDbEntity
  8
dimensions
  6
ByBlock
 62
    0
370
   -2
100
AcDbTrace
 10
0
 20
-5.999999999999998
 30
0
 11
2
 21
-5.666972273781726
 31
0
 12
2
 22
-6.333027726218271
 32
0
 13
2
 23
-6.333027726218271
 33
0
  0
SOLID
  5
C6
100
AcDbEntity
  8
dimensions
  6
ByBlock
 62
    0
370
   -2
100
AcDbTrace
 10
19.4
 20
-5.999999999999998
 30
0
 11
17.4
 21
-6.333027726218271
 31
0
 12
17.4
 22
-5.666972273781726
 32
0
 13
17.4
 23
-5.666972273781726
 33
0
  0
MTEXT
  5
C7
100
AcDbEntity
  8
dimensions
  6
CONTINUOUS
 62
    0
370
   -2
100
AcDbMText
 10
9.699999999999999
 20
-4.499999999999998
 30
0
 40
2
 41
3.777777777777778
 71
    5
 72
    1
  1
194
  7
standard
210
0
220
0
230
1
 50
0
 73
    2
 44
1
  0
LINE
  5
C8
100
AcDbEntity
  8
dimensions
  6
ByBlock
 62
    0
370
   -2
100
AcDbLine
 10
-9.184850993605148e-17
 20
-0.5
 11
-1.83697019872103e-16
 21
-6.999999999999998
  0
LINE
  5
C9
100
AcDbEntity
  8
dimensions
  6
ByBlock
 62
    0
370
   -2
100
AcDbLine
 10
19.4
 20
5.500000000000037
 11
19.4
 21
-6.999999999999998
  0
ENDBLK
  5
7D
330
7B
100
AcDbEntity
  8
0
100
AcDbBlockEnd
  0
ENDSEC
  0
SECTION
  2
ENTITIES
  0
HATCH
  5
CA
100
AcDbEntity
  8
glass
  6
ByLayer
 62
  256
370
   -1
100
AcDbHatch
 10
0
 20
0
 30
0
210
0
220
0
230
1
  2
gost_glass1
 70
    0
 71
    0
 91
    1
 92
    0
 93
    4
 72
    1
 10
44.99999999999999
 20
-16.09999999999999
 11
44.99999999999999
 21
-16.90000000000001
 72
    1
 10
44.99999999999999
 20
-16.90000000000001
 11
46.9
 21
-16.90000000000001
 72
    1
 10
46.9
 20
-16.90000000000001
 11
46.9
 21
-16.09999999999999
 72
    1
 10
46.9
 20
-16.09999999999999
 11
44.99999999999999
 21
-16.09999999999999
 97
    0
 75
    0
 76
    1
 52
0
 41
0.1
 77
    0
 78
    0
 98
    0
  0
HATCH
  5
CB
100
AcDbEntity
  8
glass
  6
ByLayer
 62
  256
370
   -1
100
AcDbHatch
 10
0
 20
0
 30
0
210
0
220
0
230
1
  2
gost_glass1
 70
    0
 71
    0
 91
    1
 92
    0
 93
    4
 72
    1
 10
46.99999999999999
 20
-16.09999999999999
 11
46.99999999999999
 21
-16.90000000000001
 72
    1
 10
46.99999999999999
 20
-16.90000000000001
 11
48.9
 21
-16.90000000000001
 72
    1
 10
48.9
 20
-16.90000000000001
 11
48.9
 21
-16.09999999999999
 72
    1
 10
48.9
 20
-16.09999999999999
 11
46.99999999999999
 21
-16.09999999999999
 97
    0
 75
    0
 76
    1
 52
0
 41
0.1
 77
    0
 78
    0
 98
    0
  0
HATCH
  5
CC
100
AcDbEntity
  8
face
  6
ByLayer
 62
  256
370
   -1
100
AcDbHatch
 10
0
 20
0
 30
0
210
0
220
0
230
1
  2
gost_stone
 70
    0
 71
    0
 91
    1
 92
    0
 93
    4
 72
    1
 10
49
 20
-15.75
 11
49
 21
-17
 72
    1
 10
49
 20
-17
 11
59.72000000000001
 21
-17
 72
    1
 10
59.72000000000001
 20
-17
 11
59.72000000000001
 21
-15.75
 72
    1
 10
59.72000000000001
 20
-15.75
 11
49
 21
-15.75
 97
    0
 75
    0
 76
    1
 52
4.71238898038469
 41
0.1
 77
    0
 78
    0
 98
    0
  0
HATCH
  5
CD
100
AcDbEntity
  8
boxwall
  6
ByLayer
 62
  256
370
   -1
100
AcDbHatch
 10
0
 20
0
 30
0
210
0
220
0
230
1
  2
gost_stone
 70
    0
 71
    0
 91
    1
 92
    0
 93
    4
 72
    1
 10
59.72000000000001
 20
-15.6
 11
59.72000000000001
 21
-13.6
 72
    1
 10
59.72000000000001
 20
-13.6
 11
50
 21
-13.6
 72
    1
 10
50
 20
-13.6
 11
49
 21
-15.6
 72
    1
 10
49
 20
-15.6
 11
59.72000000000001
 21
-15.6
 97
    0
 75
    0
 76
    1
 52
3.141592653589793
 41
0.1
 77
    0
 78
    0
 98
    0
  0
HATCH
  5
CE
100
AcDbEntity
  8
face
  6
ByLayer
 62
  256
370
   -1
100
AcDbHatch
 10
0
 20
0
 30
0
210
0
220
0
230
1
  2
gost_stone
 70
    0
 71
    0
 91
    1
 92
    0
 93
    4
 72
    1
 10
44.9
 20
-15.75
 11
44.9
 21
-17
 72
    1
 10
44.9
 20
-17
 11
38.80000000000001
 21
-17
 72
    1
 10
38.80000000000001
 20
-17
 11
38.80000000000001
 21
-15.75
 72
    1
 10
38.80000000000001
 20
-15.75
 11
44.9
 21
-15.75
 97
    0
 75
    0
 76
    1
 52
1.570796326794897
 41
0.1
 77
    0
 78
    0
 98
    0
  0
HATCH
  5
CF
100
AcDbEntity
  8
boxwall
  6
ByLayer
 62
  256
370
   -1
100
AcDbHatch
 10
0
 20
0
 30
0
210
0
220
0
230
1
  2
gost_stone
 70
    0
 71
    0
 91
    1
 92
    0
 93
    4
 72
    1
 10
43.89999999999999
 20
-13.6
 11
44.9
 21
-15.6
 72
    1
 10
44.9
 20
-15.6
 11
38.80000000000001
 21
-15.6
 72
    1
 10
38.80000000000001
 20
-15.6
 11
38.80000000000001
 21
-13.6
 72
    1
 10
38.80000000000001
 20
-13.6
 11
43.89999999999999
 21
-13.6
 97
    0
 75
    0
 76
    1
 52
3.141592653589793
 41
0.1
 77
    0
 78
    0
 98
    0
  0
HATCH
  5
D0
100
AcDbEntity
  8
boxwall
  6
ByLayer
 62
  256
370
   -1
100
AcDbHatch
 10
0
 20
0
 30
0
210
0
220
0
230
1
  2
gost_stone
 70
    0
 71
    0
 91
    1
 92
    0
 93
    4
 72
    1
 10
29.59999999999999
 20
-15.6
 11
29.59999999999999
 21
-13.6
 72
    1
 10
29.59999999999999
 20
-13.6
 11
24.50000000000001
 21
-13.6
 72
    1
 10
24.50000000000001
 20
-13.6
 11
23.50000000000001
 21
-15.6
 72
    1
 10
23.50000000000001
 20
-15.6
 11
29.59999999999999
 21
-15.6
 97
    0
 75
    0
 76
    1
 52
0
 41
0.1
 77
    0
 78
    0
 98
    0
  0
HATCH
  5
D1
100
AcDbEntity
  8
face
  6
ByLayer
 62
  256
370
   -1
100
AcDbHatch
 10
0
 20
0
 30
0
210
0
220
0
230
1
  2
gost_stone
 70
    0
 71
    0
 91
    1
 92
    0
 93
    4
 72
    1
 10
29.6
 20
-17
 11
29.59999999999999
 21
-15.75
 72
    1
 10
29.59999999999999
 20
-15.75
 11
23.50000000000001
 21
-15.75
 72
    1
 10
23.50000000000001
 20
-15.75
 11
23.50000000000001
 21
-17
 72
    1
 10
23.50000000000001
 20
-17
 11
29.6
 21
-17
 97
    0
 75
    0
 76
    1
 52
4.71238898038469
 41
0.1
 77
    0
 78
    0
 98
    0
  0
HATCH
  5
D2
100
AcDbEntity
  8
boxwall
  6
ByLayer
 62
  256
370
   -1
100
AcDbHatch
 10
0
 20
0
 30
0
210
0
220
0
230
1
  2
gost_stone
 70
    0
 71
    0
 91
    1
 92
    0
 93
    4
 72
    1
 10
18.40000000000001
 20
-13.6
 11
19.40000000000001
 21
-15.6
 72
    1
 10
19.40000000000001
 20
-15.6
 11
8.68
 21
-15.6
 72
    1
 10
8.68
 20
-15.6
 11
8.68
 21
-13.6
 72
    1
 10
8.68
 20
-13.6
 11
18.40000000000001
 21
-13.6
 97
    0
 75
    0
 76
    1
 52
0
 41
0.1
 77
    0
 78
    0
 98
    0
  0
HATCH
  5
D3
100
AcDbEntity
  8
face
  6
ByLayer
 62
  256
370
   -1
100
AcDbHatch
 10
0
 20
0
 30
0
210
0
220
0
230
1
  2
gost_stone
 70
    0
 71
    0
 91
    1
 92
    0
 93
    4
 72
    1
 10
8.68
 20
-17
 11
8.68
 21
-15.75
 72
    1
 10
8.68
 20
-15.75
 11
19.4
 21
-15.75
 72
    1
 10
19.4
 20
-15.75
 11
19.4
 21
-17
 72
    1
 10
19.4
 20
-17
 11
8.68
 21
-17
 97
    0
 75
    0
 76
    1
 52
1.570796326794897
 41
0.1
 77
    0
 78
    0
 98
    0
  0
HATCH
  5
D4
100
AcDbEntity
  8
glass
  6
ByLayer
 62
  256
370
   -1
100
AcDbHatch
 10
0
 20
0
 30
0
210
0
220
0
230
1
  2
gost_glass1
 70
    0
 71
    0
 91
    1
 92
    0
 93
    4
 72
    1
 10
19.50000000000001
 20
-16.90000000000001
 11
19.50000000000001
 21
-16.09999999999999
 72
    1
 10
19.50000000000001
 20
-16.09999999999999
 11
21.40000000000002
 21
-16.09999999999999
 72
    1
 10
21.40000000000002
 20
-16.09999999999999
 11
21.40000000000002
 21
-16.90000000000001
 72
    1
 10
21.40000000000002
 20
-16.90000000000001
 11
19.50000000000001
 21
-16.90000000000001
 97
    0
 75
    0
 76
    1
 52
3.141592653589794
 41
0.1
 77
    0
 78
    0
 98
    0
  0
HATCH
  5
D5
100
AcDbEntity
  8
glass
  6
ByLayer
 62
  256
370
   -1
100
AcDbHatch
 10
0
 20
0
 30
0
210
0
220
0
230
1
  2
gost_glass1
 70
    0
 71
    0
 91
    1
 92
    0
 93
    4
 72
    1
 10
21.50000000000001
 20
-16.90000000000001
 11
21.50000000000001
 21
-16.09999999999999
 72
    1
 10
21.50000000000001
 20
-16.09999999999999
 11
23.40000000000002
 21
-16.09999999999999
 72
    1
 10
23.40000000000002
 20
-16.09999999999999
 11
23.40000000000002
 21
-16.90000000000001
 72
    1
 10
23.40000000000002
 20
-16.90000000000001
 11
21.50000000000001
 21
-16.90000000000001
 97
    0
 75
    0
 76
    1
 52
3.141592653589794
 41
0.1
 77
    0
 78
    0
 98
    0
  0
HATCH
  5
D6
100
AcDbEntity
  8
glass
  6
ByLayer
 62
  256
370
   -1
100
AcDbHatch
 10
0
 20
0
 30
0
210
0
220
0
230
1
  2
gost_glass1
 70
    0
 71
    0
 91
    1
 92
    0
 93
    4
 72
    1
 10
19.49999999999998
 20
8.000000000000037
 11
21.4
 21
8.000000000000037
 72
    1
 10
21.4
 20
8.000000000000037
 11
21.4
 21
6.100000000000039
 72
    1
 10
21.4
 20
6.100000000000039
 11
19.49999999999998
 21
6.100000000000039
 72
    1
 10
19.49999999999998
 20
6.100000000000039
 11
19.49999999999998
 21
8.000000000000037
 97
    0
 75
    0
 76
    1
 52
3.141592653589794
 41
0.1
 77
    0
 78
    0
 98
    0
  0
HATCH
  5
D7
100
AcDbEntity
  8
glass
  6
ByLayer
 62
  256
370
   -1
100
AcDbHatch
 10
0
 20
0
 30
0
210
0
220
0
230
1
  2
gost_glass1
 70
    0
 71
    0
 91
    1
 92
    0
 93
    4
 72
    1
 10
21.4
 20
8.100000000000037
 11
19.49999999999998
 21
8.100000000000037
 72
    1
 10
19.49999999999998
 20
8.100000000000037
 11
19.49999999999998
 21
10.00000000000004
 72
    1
 10
19.49999999999998
 20
10.00000000000004
 11
21.4
 21
10.00000000000004
 72
    1
 10
21.4
 20
10.00000000000004
 11
21.4
 21
8.100000000000037
 97
    0
 75
    0
 76
    1
 52
3.141592653589794
 41
0.1
 77
    0
 78
    0
 98
    0
  0
HATCH
  5
D8
100
AcDbEntity
  8
glass
  6
ByLayer
 62
  256
370
   -1
100
AcDbHatch
 10
0
 20
0
 30
0
210
0
220
0
230
1
  2
gost_glass1
 70
    0
 71
    0
 91
    1
 92
    0
 93
    4
 72
    1
 10
21.4
 20
10.10000000000004
 11
19.49999999999998
 21
10.10000000000004
 72
    1
 10
19.49999999999998
 20
10.10000000000004
 11
19.49999999999998
 21
12.00000000000004
 72
    1
 10
19.49999999999998
 20
12.00000000000004
 11
21.39999999999999
 21
12.00000000000004
 72
    1
 10
21.39999999999999
 20
12.00000000000004
 11
21.4
 21
10.10000000000004
 97
    0
 75
    0
 76
    1
 52
3.141592653589794
 41
0.1
 77
    0
 78
    0
 98
    0
  0
HATCH
  5
D9
100
AcDbEntity
  8
glass
  6
ByLayer
 62
  256
370
   -1
100
AcDbHatch
 10
0
 20
0
 30
0
210
0
220
0
230
1
  2
gost_glass1
 70
    0
 71
    0
 91
    1
 92
    0
 93
    4
 72
    1
 10
21.5
 20
12.00000000000004
 11
23.4
 21
12.00000000000004
 72
    1
 10
23.4
 20
12.00000000000004
 11
23.40000000000001
 21
10.10000000000004
 72
    1
 10
23.40000000000001
 20
10.10000000000004
 11
21.5
 21
10.10000000000004
 72
    1
 10
21.5
 20
10.10000000000004
 11
21.5
 21
12.00000000000004
 97
    0
 75
    0
 76
    1
 52
3.141592653589794
 41
0.1
 77
    0
 78
    0
 98
    0
  0
HATCH
  5
DA
100
AcDbEntity
  8
glass
  6
ByLayer
 62
  256
370
   -1
100
AcDbHatch
 10
0
 20
0
 30
0
210
0
220
0
230
1
  2
gost_glass1
 70
    0
 71
    0
 91
    1
 92
    0
 93
    4
 72
    1
 10
21.5
 20
10.00000000000004
 11
23.40000000000001
 21
10.00000000000004
 72
    1
 10
23.40000000000001
 20
10.00000000000004
 11
23.40000000000001
 21
8.100000000000037
 72
    1
 10
23.40000000000001
 20
8.100000000000037
 11
21.5
 21
8.100000000000037
 72
    1
 10
21.5
 20
8.100000000000037
 11
21.5
 21
10.00000000000004
 97
    0
 75
    0
 76
    1
 52
3.141592653589794
 41
0.1
 77
    0
 78
    0
 98
    0
  0
HATCH
  5
DB
100
AcDbEntity
  8
glass
  6
ByLayer
 62
  256
370
   -1
100
AcDbHatch
 10
0
 20
0
 30
0
210
0
220
0
230
1
  2
gost_glass1
 70
    0
 71
    0
 91
    1
 92
    0
 93
    4
 72
    1
 10
23.40000000000001
 20
6.100000000000039
 11
21.5
 21
6.100000000000039
 72
    1
 10
21.5
 20
6.100000000000039
 11
21.5
 21
8.000000000000037
 72
    1
 10
21.5
 20
8.000000000000037
 11
23.40000000000001
 21
8.000000000000037
 72
    1
 10
23.40000000000001
 20
8.000000000000037
 11
23.40000000000001
 21
6.100000000000039
 97
    0
 75
    0
 76
    1
 52
3.141592653589794
 41
0.1
 77
    0
 78
    0
 98
    0
  0
HATCH
  5
DC
100
AcDbEntity
  8
glass
  6
ByLayer
 62
  256
370
   -1
100
AcDbHatch
 10
0
 20
0
 30
0
210
0
220
0
230
1
  2
gost_glass1
 70
    0
 71
    0
 91
    1
 92
    0
 93
    4
 72
    1
 10
47
 20
8.000000000000037
 11
48.90000000000001
 21
8.000000000000037
 72
    1
 10
48.90000000000001
 20
8.000000000000037
 11
48.90000000000001
 21
6.100000000000039
 72
    1
 10
48.90000000000001
 20
6.100000000000039
 11
47
 21
6.100000000000039
 72
    1
 10
47
 20
6.100000000000039
 11
47
 21
8.000000000000037
 97
    0
 75
    0
 76
    1
 52
3.141592653589794
 41
0.1
 77
    0
 78
    0
 98
    0
  0
HATCH
  5
DD
100
AcDbEntity
  8
glass
  6
ByLayer
 62
  256
370
   -1
100
AcDbHatch
 10
0
 20
0
 30
0
210
0
220
0
230
1
  2
gost_glass1
 70
    0
 71
    0
 91
    1
 92
    0
 93
    4
 72
    1
 10
48.90000000000001
 20
8.100000000000037
 11
47
 21
8.100000000000037
 72
    1
 10
47
 20
8.100000000000037
 11
47
 21
10.00000000000004
 72
    1
 10
47
 20
10.00000000000004
 11
48.90000000000001
 21
10.00000000000004
 72
    1
 10
48.90000000000001
 20
10.00000000000004
 11
48.90000000000001
 21
8.100000000000037
 97
    0
 75
    0
 76
    1
 52
3.141592653589794
 41
0.1
 77
    0
 78
    0
 98
    0
  0
HATCH
  5
DE
100
AcDbEntity
  8
glass
  6
ByLayer
 62
  256
370
   -1
100
AcDbHatch
 10
0
 20
0
 30
0
210
0
220
0
230
1
  2
gost_glass1
 70
    0
 71
    0
 91
    1
 92
    0
 93
    4
 72
    1
 10
48.90000000000001
 20
10.10000000000004
 11
47
 21
10.10000000000004
 72
    1
 10
47
 20
10.10000000000004
 11
47
 21
12.00000000000004
 72
    1
 10
47
 20
12.00000000000004
 11
48.9
 21
12.00000000000004
 72
    1
 10
48.9
 20
12.00000000000004
 11
48.90000000000001
 21
10.10000000000004
 97
    0
 75
    0
 76
    1
 52
3.141592653589794
 41
0.1
 77
    0
 78
    0
 98
    0
  0
HATCH
  5
DF
100
AcDbEntity
  8
glass
  6
ByLayer
 62
  256
370
   -1
100
AcDbHatch
 10
0
 20
0
 30
0
210
0
220
0
230
1
  2
gost_glass1
 70
    0
 71
    0
 91
    1
 92
    0
 93
    4
 72
    1
 10
44.99999999999999
 20
12.00000000000004
 11
46.89999999999999
 21
12.00000000000004
 72
    1
 10
46.89999999999999
 20
12.00000000000004
 11
46.9
 21
10.10000000000004
 72
    1
 10
46.9
 20
10.10000000000004
 11
44.99999999999999
 21
10.10000000000004
 72
    1
 10
44.99999999999999
 20
10.10000000000004
 11
44.99999999999999
 21
12.00000000000004
 97
    0
 75
    0
 76
    1
 52
3.141592653589794
 41
0.1
 77
    0
 78
    0
 98
    0
  0
HATCH
  5
E0
100
AcDbEntity
  8
glass
  6
ByLayer
 62
  256
370
   -1
100
AcDbHatch
 10
0
 20
0
 30
0
210
0
220
0
230
1
  2
gost_glass1
 70
    0
 71
    0
 91
    1
 92
    0
 93
    4
 72
    1
 10
44.99999999999999
 20
10.00000000000004
 11
46.9
 21
10.00000000000004
 72
    1
 10
46.9
 20
10.00000000000004
 11
46.9
 21
8.100000000000037
 72
    1
 10
46.9
 20
8.100000000000037
 11
44.99999999999999
 21
8.100000000000037
 72
    1
 10
44.99999999999999
 20
8.100000000000037
 11
44.99999999999999
 21
10.00000000000004
 97
    0
 75
    0
 76
    1
 52
3.141592653589794
 41
0.1
 77
    0
 78
    0
 98
    0
  0
HATCH
  5
E1
100
AcDbEntity
  8
glass
  6
ByLayer
 62
  256
370
   -1
100
AcDbHatch
 10
0
 20
0
 30
0
210
0
220
0
230
1
  2
gost_glass1
 70
    0
 71
    0
 91
    1
 92
    0
 93
    4
 72
    1
 10
46.9
 20
6.100000000000039
 11
44.99999999999999
 21
6.100000000000039
 72
    1
 10
44.99999999999999
 20
6.100000000000039
 11
44.99999999999999
 21
8.000000000000037
 72
    1
 10
44.99999999999999
 20
8.000000000000037
 11
46.9
 21
8.000000000000037
 72
    1
 10
46.9
 20
8.000000000000037
 11
46.9
 21
6.100000000000039
 97
    0
 75
    0
 76
    1
 52
3.141592653589794
 41
0.1
 77
    0
 78
    0
 98
    0
  0
LWPOLYLINE
  5
E2
100
AcDbEntity
  8
boxwall
  6
ByLayer
 62
  256
370
   -1
100
AcDbPolyline
 90
    4
 70
    1
 43
0
 10
0
 20
-1.899999999999962
 10
68.40000000000002
 20
-1.899999999999962
 10
68.40000000000002
 20
-4.422240351686924e-12
 10
0
 20
0
  0
LWPOLYLINE
  5
E3
100
AcDbEntity
  8
support
  6
DASHED2
 62
  256
370
   -1
100
AcDbPolyline
 90
    5
 70
    1
 43
0
 10
48.29999999999999
 20
0.9000000000000328
 10
49.3
 20
0.9000000000000319
 10
49.3
 20
16.30000000000004
 10
48.3
 20
16.30000000000004
 10
48.3
 20
16.30000000000004
  0
LWPOLYLINE
  5
E4
100
AcDbEntity
  8
support
  6
DASHED2
 62
  256
370
   -1
100
AcDbPolyline
 90
    5
 70
    1
 43
0
 10
19.19999999999999
 20
0.9000000000000017
 10
18.19999999999999
 20
0.9000000000000017
 10
18.2
 20
15.60000000000004
 10
19.2
 20
15.60000000000004
 10
19.2
 20
15.60000000000004
  0
LWPOLYLINE
  5
E5
100
AcDbEntity
  8
face
  6
ByLayer
 62
  256
370
   -1
100
AcDbPolyline
 90
    6
 70
    0
 43
0
 10
68.40000000000003
 20
-4.421352173267223e-12
 10
0
 20
0
 10
5.551115123125783e-17
 20
2.600000000000038
 10
34.19999999999991
 20
29.39516408249707
 10
68.40000000000003
 20
2.595164082497032
 10
68.40000000000003
 20
-4.421352173267223e-12
  0
LINE
  5
E6
100
AcDbEntity
  8
0
  6
ByLayer
 62
  256
370
   -1
100
AcDbLine
 10
44
 20
19.60000000000004
 11
24
 21
19.60000000000004
  0
LWPOLYLINE
  5
E7
100
AcDbEntity
  8
glass
  6
ByLayer
 62
  256
370
   -1
100
AcDbPolyline
 90
    4
 70
    1
 43
0
 10
46.9
 20
6.100000000000039
 10
44.99999999999999
 20
6.100000000000039
 10
44.99999999999999
 20
8.000000000000037
 10
46.9
 20
8.000000000000037
  0
LWPOLYLINE
  5
E8
100
AcDbEntity
  8
glass
  6
ByLayer
 62
  256
370
   -1
100
AcDbPolyline
 90
    4
 70
    1
 43
0
 10
46.9
 20
8.100000000000037
 10
44.99999999999999
 20
8.100000000000037
 10
44.99999999999999
 20
10.00000000000004
 10
46.9
 20
10.00000000000004
  0
LWPOLYLINE
  5
E9
100
AcDbEntity
  8
glass
  6
ByLayer
 62
  256
370
   -1
100
AcDbPolyline
 90
    4
 70
    1
 43
0
 10
46.9
 20
10.10000000000004
 10
44.99999999999999
 20
10.10000000000004
 10
44.99999999999999
 20
12.00000000000004
 10
46.89999999999999
 20
12.00000000000004
  0
LWPOLYLINE
  5
EA
100
AcDbEntity
  8
glass
  6
ByLayer
 62
  256
370
   -1
100
AcDbPolyline
 90
    4
 70
    1
 43
0
 10
48.90000000000001
 20
6.100000000000039
 10
47
 20
6.100000000000039
 10
47
 20
8.000000000000037
 10
48.90000000000001
 20
8.000000000000037
  0
LWPOLYLINE
  5
EB
100
AcDbEntity
  8
glass
  6
ByLayer
 62
  256
370
   -1
100
AcDbPolyline
 90
    4
 70
    1
 43
0
 10
48.90000000000001
 20
8.100000000000037
 10
47
 20
8.100000000000037
 10
47
 20
10.00000000000004
 10
48.90000000000001
 20
10.00000000000004
  0
LWPOLYLINE
  5
EC
100
AcDbEntity
  8
glass
  6
ByLayer
 62
  256
370
   -1
100
AcDbPolyline
 90
    4
 70
    1
 43
0
 10
48.90000000000001
 20
10.10000000000004
 10
47
 20
10.10000000000004
 10
47
 20
12.00000000000004
 10
48.9
 20
12.00000000000004
  0
ARC
  5
ED
100
AcDbEntity
  8
face
  6
ByLayer
 62
  256
370
   -1
100
AcDbCircle
 10
46.95
 20
1.693750000000039
 40
10.60625
100
AcDbArc
 50
78.85560439207241
 51
101.1443956079276
  0
LWPOLYLINE
  5
EE
100
AcDbEntity
  8
face
  6
ByLayer
 62
  256
370
   -1
100
AcDbPolyline
 90
    4
 70
    0
 43
0
 10
44.9
 20
12.10000000000004
 10
44.9
 20
6.000000000000037
 10
49
 20
6.000000000000037
 10
49
 20
12.10000000000004
  0
ARC
  5
EF
100
AcDbEntity
  8
face
  6
ByLayer
 62
  256
370
   -1
100
AcDbCircle
 10
46.95
 20
1.693750000000039
 40
11.85625
100
AcDbArc
 50
78.85560439207241
 51
101.1443956079276
  0
LINE
  5
F0
100
AcDbEntity
  8
face
  6
ByLayer
 62
  256
370
   -1
100
AcDbLine
 10
44.9
 20
12.10000000000004
 11
44.65839717147908
 21
13.32642899233946
  0
LINE
  5
F1
100
AcDbEntity
  8
face
  6
ByLayer
 62
  256
370
   -1
100
AcDbLine
 10
49
 20
12.10000000000004
 11
49.24160282852092
 21
13.32642899233946
  0
LWPOLYLINE
  5
F2
100
AcDbEntity
  8
glass
  6
ByLayer
 62
  256
370
   -1
100
AcDbPolyline
 90
    4
 70
    1
 43
0
 10
21.4
 20
6.100000000000039
 10
19.49999999999998
 20
6.100000000000039
 10
19.49999999999998
 20
8.000000000000037
 10
21.4
 20
8.000000000000037
  0
LWPOLYLINE
  5
F3
100
AcDbEntity
  8
glass
  6
ByLayer
 62
  256
370
   -1
100
AcDbPolyline
 90
    4
 70
    1
 43
0
 10
21.4
 20
8.100000000000037
 10
19.49999999999998
 20
8.100000000000037
 10
19.49999999999998
 20
10.00000000000004
 10
21.4
 20
10.00000000000004
  0
LWPOLYLINE
  5
F4
100
AcDbEntity
  8
glass
  6
ByLayer
 62
  256
370
   -1
100
AcDbPolyline
 90
    4
 70
    1
 43
0
 10
21.4
 20
10.10000000000004
 10
19.49999999999998
 20
10.10000000000004
 10
19.49999999999998
 20
12.00000000000004
 10
21.39999999999999
 20
12.00000000000004
  0
LWPOLYLINE
  5
F5
100
AcDbEntity
  8
glass
  6
ByLayer
 62
  256
370
   -1
100
AcDbPolyline
 90
    4
 70
    1
 43
0
 10
23.40000000000001
 20
6.100000000000039
 10
21.5
 20
6.100000000000039
 10
21.5
 20
8.000000000000037
 10
23.40000000000001
 20
8.000000000000037
  0
LWPOLYLINE
  5
F6
100
AcDbEntity
  8
glass
  6
ByLayer
 62
  256
370
   -1
100
AcDbPolyline
 90
    4
 70
    1
 43
0
 10
23.40000000000001
 20
8.100000000000037
 10
21.5
 20
8.100000000000037
 10
21.5
 20
10.00000000000004
 10
23.40000000000001
 20
10.00000000000004
  0
LWPOLYLINE
  5
F7
100
AcDbEntity
  8
glass
  6
ByLayer
 62
  256
370
   -1
100
AcDbPolyline
 90
    4
 70
    1
 43
0
 10
23.40000000000001
 20
10.10000000000004
 10
21.5
 20
10.10000000000004
 10
21.5
 20
12.00000000000004
 10
23.4
 20
12.00000000000004
  0
ARC
  5
F8
100
AcDbEntity
  8
face
  6
ByLayer
 62
  256
370
   -1
100
AcDbCircle
 10
21.45
 20
1.693750000000039
 40
10.60625
100
AcDbArc
 50
78.85560439207241
 51
101.1443956079276
  0
LWPOLYLINE
  5
F9
100
AcDbEntity
  8
face
  6
ByLayer
 62
  256
370
   -1
100
AcDbPolyline
 90
    4
 70
    0
 43
0
 10
19.4
 20
12.10000000000004
 10
19.4
 20
6.000000000000037
 10
23.5
 20
6.000000000000037
 10
23.5
 20
12.10000000000004
  0
ARC
  5
FA
100
AcDbEntity
  8
face
  6
ByLayer
 62
  256
370
   -1
100
AcDbCircle
 10
21.45
 20
1.693750000000039
 40
11.85625
100
AcDbArc
 50
78.85560439207241
 51
101.1443956079276
  0
LINE
  5
FB
100
AcDbEntity
  8
face
  6
ByLayer
 62
  256
370
   -1
100
AcDbLine
 10
19.4
 20
12.10000000000004
 11
19.15839717147908
 21
13.32642899233946
  0
LINE
  5
FC
100
AcDbEntity
  8
face
  6
ByLayer
 62
  256
370
   -1
100
AcDbLine
 10
23.5
 20
12.10000000000004
 11
23.74160282852091
 21
13.32642899233946
  0
LWPOLYLINE
  5
FD
100
AcDbEntity
  8
face
  6
ByLayer
 62
  256
370
   -1
100
AcDbPolyline
 90
    4
 70
    0
 43
0
 10
31.20000000000004
 20
22.25000000000005
 10
31.2
 20
21.00000000000004
 10
37.2
 20
21.00000000000004
 10
37.2
 20
22.25000000000004
  0
ARC
  5
FE
100
AcDbEntity
  8
face
  6
ByLayer
 62
  256
370
   -1
100
AcDbCircle
 10
34.2
 20
22.25000000000004
 40
3
100
AcDbArc
 50
7.63333123551244e-14
 51
179.9999999999999
  0
ARC
  5
FF
100
AcDbEntity
  8
face
  6
ByLayer
 62
  256
370
   -1
100
AcDbCircle
 10
34.2
 20
22.25000000000004
 40
1.750000000003582
100
AcDbArc
 50
359.9999999999997
 51
179.9999999999998
  0
LWPOLYLINE
  5
100
100
AcDbEntity
  8
face
  6
ByLayer
 62
  256
370
   -1
100
AcDbPolyline
 90
    4
 70
    1
 43
0
 10
31.20000000000004
 20
22.25000000000005
 10
37.2
 20
22.25000000000005
 10
37.2
 20
21.00000000000004
 10
31.20000000000004
 20
21.00000000000004
  0
LWPOLYLINE
  5
101
100
AcDbEntity
  8
face
  6
ByLayer
 62
  256
370
   -1
100
AcDbPolyline
 90
    4
 70
    1
 43
0
 10
29.6
 20
1.400000000000038
 10
38.8
 20
1.400000000000038
 10
38.79999999999998
 20
18.70000000000004
 10
29.6
 20
18.70000000000004
  0
LINE
  5
102
100
AcDbEntity
  8
boxwall
  6
DOT2
 62
  256
370
   -1
100
AcDbLine
 10
1.021079770803561
 20
3.400000000000038
 11
29.6
 21
3.400000000000039
  0
LINE
  5
103
100
AcDbEntity
  8
boxwall
  6
DOT2
 62
  256
370
   -1
100
AcDbLine
 10
12.50822719234364
 20
12.40000000000003
 11
29.60000000000001
 21
12.40000000000003
  0
LINE
  5
104
100
AcDbEntity
  8
boxwall
  6
DOT2
 62
  256
370
   -1
100
AcDbLine
 10
16.33727633285701
 20
15.40000000000004
 11
29.60000000000002
 21
15.40000000000004
  0
LINE
  5
105
100
AcDbEntity
  8
boxwall
  6
DOT2
 62
  256
370
   -1
100
AcDbLine
 10
20.16632547337037
 20
18.40000000000004
 11
29.60000000000002
 21
18.40000000000004
  0
LINE
  5
106
100
AcDbEntity
  8
boxwall
  6
DOT2
 62
  256
370
   -1
100
AcDbLine
 10
31.65347289491046
 20
27.40000000000004
 11
36.75177835113463
 21
27.40000000000004
  0
LINE
  5
107
100
AcDbEntity
  8
boxwall
  6
DOT2
 62
  256
370
   -1
100
AcDbLine
 10
27.8244237543971
 20
24.40000000000004
 11
40.57944587783656
 21
24.40000000000004
  0
LINE
  5
108
100
AcDbEntity
  8
boxwall
  6
DOT2
 62
  256
370
   -1
100
AcDbLine
 10
23.99537461388373
 20
21.40000000000004
 11
44.40711340453851
 21
21.40000000000004
  0
LINE
  5
109
100
AcDbEntity
  8
boxwall
  6
DOT2
 62
  256
370
   -1
100
AcDbLine
 10
38.80000000000001
 20
18.40000000000004
 11
48.23478093124045
 21
18.40000000000004
  0
LINE
  5
10A
100
AcDbEntity
  8
boxwall
  6
DOT2
 62
  256
370
   -1
100
AcDbLine
 10
38.80000000000002
 20
15.40000000000004
 11
52.06244845794239
 21
15.40000000000004
  0
LINE
  5
10B
100
AcDbEntity
  8
boxwall
  6
DOT2
 62
  256
370
   -1
100
AcDbLine
 10
38.80000000000002
 20
12.40000000000003
 11
55.89011598464433
 21
12.40000000000003
  0
LINE
  5
10C
100
AcDbEntity
  8
boxwall
  6
DOT2
 62
  256
370
   -1
100
AcDbLine
 10
38.8
 20
3.400000000000039
 11
67.37311856475014
 21
3.400000000000038
  0
LINE
  5
10D
100
AcDbEntity
  8
boxwall
  6
DOT2
 62
  256
370
   -1
100
AcDbLine
 10
8.679178051830283
 20
9.400000000000038
 11
19.4
 21
9.400000000000038
  0
LINE
  5
10E
100
AcDbEntity
  8
boxwall
  6
DOT2
 62
  256
370
   -1
100
AcDbLine
 10
4.850128911316922
 20
6.400000000000038
 11
19.4
 21
6.400000000000038
  0
LINE
  5
10F
100
AcDbEntity
  8
boxwall
  6
DOT2
 62
  256
370
   -1
100
AcDbLine
 10
49
 20
9.400000000000038
 11
59.71778351134627
 21
9.400000000000038
  0
LINE
  5
110
100
AcDbEntity
  8
boxwall
  6
DOT2
 62
  256
370
   -1
100
AcDbLine
 10
49
 20
6.400000000000038
 11
63.54545103804821
 21
6.400000000000038
  0
LINE
  5
111
100
AcDbEntity
  8
boxwall
  6
DOT2
 62
  256
370
   -1
100
AcDbLine
 10
23.5
 20
9.400000000000038
 11
29.6
 21
9.400000000000038
  0
LINE
  5
112
100
AcDbEntity
  8
boxwall
  6
DOT2
 62
  256
370
   -1
100
AcDbLine
 10
23.5
 20
6.400000000000038
 11
29.6
 21
6.400000000000038
  0
LINE
  5
113
100
AcDbEntity
  8
boxwall
  6
DOT2
 62
  256
370
   -1
100
AcDbLine
 10
44.9
 20
9.400000000000038
 11
38.8
 21
9.400000000000038
  0
LINE
  5
114
100
AcDbEntity
  8
boxwall
  6
DOT2
 62
  256
370
   -1
100
AcDbLine
 10
44.9
 20
6.400000000000038
 11
38.8
 21
6.400000000000038
  0
LINE
  5
115
100
AcDbEntity
  8
boxwall
  6
DOT2
 62
  256
370
   -1
100
AcDbLine
 10
0
 20
0.4000000000000377
 11
68.40000000000001
 21
0.4000000000000377
  0
LINE
  5
116
100
AcDbEntity
  8
boxwall
  6
DASHED2
 62
  256
370
   -1
100
AcDbLine
 10
31.20000000000004
 20
21.40000000000004
 11
31.2
 21
24.40000000000004
  0
LINE
  5
117
100
AcDbEntity
  8
boxwall
  6
DASHED2
 62
  256
370
   -1
100
AcDbLine
 10
37.2
 20
21.40000000000004
 11
37.2
 21
24.40000000000004
  0
LINE
  5
118
100
AcDbEntity
  8
dimensions
  6
ByLayer
 62
  256
370
   70
100
AcDbLine
 10
7
 20
9.400000000000038
 11
5
 21
9.400000000000038
  0
LINE
  5
119
100
AcDbEntity
  8
dimensions
  6
ByLayer
 62
  256
370
   70
100
AcDbLine
 10
61.40000000000001
 20
9.400000000000038
 11
63.40000000000001
 21
9.400000000000038
  0
DIMENSION
  5
11A
100
AcDbEntity
  8
dimensions
  6
ByLayer
 62
  256
370
   -1
100
AcDbDimension
  2
*D1
 10
33
 20
18.70000000000004
 30
0
 11
31.5
 21
10.05000000000004
 31
0
 70
   32
 71
    5
  3
Standard
 53
0
210
0
220
0
230
1
100
AcDbAlignedDimension
 13
29.6
 23
1.400000000000038
 33
0
 14
29.6
 24
18.70000000000004
 34
0
 50
90
100
AcDbRotatedDimension
  0
DIMENSION
  5
11B
100
AcDbEntity
  8
dimensions
  6
ByLayer
 62
  256
370
   -1
100
AcDbDimension
  2
*D2
 10
33
 20
-6.106689410195024e-16
 30
0
 11
31
 21
-4
 31
0
 70
   32
 71
    5
  3
Standard
 53
0
210
0
220
0
230
1
100
AcDbAlignedDimension
 13
29.6
 23
1.400000000000038
 33
0
 14
29.6
 24
-1.942890293094024e-16
 34
0
 50
90
100
AcDbRotatedDimension
  0
DIMENSION
  5
11C
100
AcDbEntity
  8
dimensions
  6
ByLayer
 62
  256
370
   -1
100
AcDbDimension
  2
*D3
 10
28
 20
2.941003416980319e-17
 30
0
 11
26.5
 21
10.50000000000002
 31
0
 70
   32
 71
    5
  3
Standard
 53
0
210
0
220
0
230
1
100
AcDbAlignedDimension
 13
31.20000000000004
 23
21.00000000000004
 33
0
 14
29.6
 24
-1.665334536937735e-16
 34
0
 50
90
100
AcDbRotatedDimension
  0
DIMENSION
  5
11D
100
AcDbEntity
  8
dimensions
  6
ByLayer
 62
  256
370
   -1
100
AcDbDimension
  2
*D4
 10
17
 20
2.939152317953646e-16
 30
0
 11
15.5
 21
3.000000000000019
 31
0
 70
   32
 71
    5
  3
Standard
 53
0
210
0
220
0
230
1
100
AcDbAlignedDimension
 13
19.4
 23
6.000000000000037
 33
0
 14
19.4
 24
0
 34
0
 50
90
100
AcDbRotatedDimension
  0
DIMENSION
  5
11E
100
AcDbEntity
  8
dimensions
  6
ByLayer
 62
  256
370
   -1
100
AcDbDimension
  2
*D5
 10
19.4
 20
-5.999999999999998
 30
0
 11
9.699999999999999
 21
-4.499999999999998
 31
0
 70
   32
 71
    5
  3
Standard
 53
0
210
0
220
0
230
1
100
AcDbAlignedDimension
 13
0
 23
0
 33
0
 14
19.4
 24
6.000000000000037
 34
0
100
AcDbRotatedDimension
  0
DIMENSION
  5
11F
100
AcDbEntity
  8
dimensions
  6
ByLayer
 62
  256
370
   -1
100
AcDbDimension
  2
*D6
 10
23.5
 20
-5.999999999999998
 30
0
 11
21.45
 21
-4.499999999999998
 31
0
 70
   32
 71
    5
  3
Standard
 53
0
210
0
220
0
230
1
100
AcDbAlignedDimension
 13
19.4
 23
6.000000000000037
 33
0
 14
23.5
 24
6.000000000000037
 34
0
100
AcDbRotatedDimension
  0
DIMENSION
  5
120
100
AcDbEntity
  8
dimensions
  6
ByLayer
 62
  256
370
   -1
100
AcDbDimension
  2
*D7
 10
29.6
 20
-6
 30
0
 11
26.55
 21
-4.5
 31
0
 70
   32
 71
    5
  3
Standard
 53
0
210
0
220
0
230
1
100
AcDbAlignedDimension
 13
23.5
 23
6.000000000000037
 33
0
 14
29.6
 24
1.400000000000038
 34
0
100
AcDbRotatedDimension
  0
DIMENSION
  5
121
100
AcDbEntity
  8
dimensions
  6
ByLayer
 62
  256
370
   -1
100
AcDbDimension
  2
*D8
 10
38.8
 20
-6
 30
0
 11
34.2
 21
-4.5
 31
0
 70
   32
 71
    5
  3
Standard
 53
0
210
0
220
0
230
1
100
AcDbAlignedDimension
 13
29.6
 23
1.400000000000038
 33
0
 14
38.8
 24
1.400000000000038
 34
0
100
AcDbRotatedDimension
  0
DIMENSION
  5
122
100
AcDbEntity
  8
dimensions
  6
ByLayer
 62
  256
370
   -1
100
AcDbDimension
  2
*D9
 10
44.9
 20
-5.999999999999998
 30
0
 11
41.84999999999999
 21
-4.499999999999998
 31
0
 70
   32
 71
    5
  3
Standard
 53
0
210
0
220
0
230
1
100
AcDbAlignedDimension
 13
38.8
 23
1.400000000000038
 33
0
 14
44.9
 24
6.000000000000037
 34
0
100
AcDbRotatedDimension
  0
DIMENSION
  5
123
100
AcDbEntity
  8
dimensions
  6
ByLayer
 62
  256
370
   -1
100
AcDbDimension
  2
*D10
 10
49
 20
-6
 30
0
 11
46.95
 21
-4.5
 31
0
 70
   32
 71
    5
  3
Standard
 53
0
210
0
220
0
230
1
100
AcDbAlignedDimension
 13
44.9
 23
6.000000000000037
 33
0
 14
49
 24
6
 34
0
100
AcDbRotatedDimension
  0
DIMENSION
  5
124
100
AcDbEntity
  8
dimensions
  6
ByLayer
 62
  256
370
   -1
100
AcDbDimension
  2
*D11
 10
68.40000000000002
 20
-6
 30
0
 11
58.70000000000001
 21
-4.5
 31
0
 70
   32
 71
    5
  3
Standard
 53
0
210
0
220
0
230
1
100
AcDbAlignedDimension
 13
49
 23
6.000000000000037
 33
0
 14
68.40000000000002
 24
-4.422240351686924e-12
 34
0
100
AcDbRotatedDimension
  0
LEADER
  5
125
100
AcDbEntity
  8
dimensions
  6
ByLayer
 62
  256
370
   -1
100
AcDbLeader
  3
Standard
 71
    1
 72
    0
 73
    3
 74
    0
 75
    0
 40
1
 41
10
 76
2
 76
2
 10
6.5
 20
9.400000000000038
 30
0
 10
6.500000000000001
 20
13.00000000000004
 30
0
  0
MTEXT
  5
126
100
AcDbEntity
  8
dimensions
  6
ByLayer
 62
  256
370
   -1
100
AcDbMText
 10
5.166666666666667
 20
12.4
 30
0
 40
2
 41
1.333333333333333
 71
    5
 72
    1
  1
A
  7
unicode
210
0
220
0
230
1
 50
0
 73
    2
 44
1
  0
LEADER
  5
127
100
AcDbEntity
  8
dimensions
  6
ByLayer
 62
  256
370
   -1
100
AcDbLeader
  3
Standard
 71
    1
 72
    0
 73
    3
 74
    0
 75
    0
 40
1
 41
10
 76
2
 76
2
 10
61.90000000000001
 20
9.400000000000038
 30
0
 10
61.90000000000001
 20
13.00000000000004
 30
0
  0
MTEXT
  5
128
100
AcDbEntity
  8
dimensions
  6
ByLayer
 62
  256
370
   -1
100
AcDbMText
 10
63.26666666666667
 20
12.4
 30
0
 40
2
 41
1.333333333333333
 71
    5
 72
    1
  1
A
  7
unicode
210
0
220
0
230
1
 50
360
 73
    2
 44
1
  0
DIMENSION
  5
129
100
AcDbEntity
  8
dimensions
  6
ByLayer
 62
  256
370
   -1
100
AcDbDimension
  2
*D14
 10
-1
 20
1.224646799147353e-16
 30
0
 11
-2.499999999999999
 21
14.6975820412485
 31
0
 70
   32
  1
<>*
 71
    5
  3
Standard
 53
0
210
0
220
0
230
1
100
AcDbAlignedDimension
 13
34.2
 23
29.395164082497
 33
0
 14
0
 24
0
 34
0
 50
90
100
AcDbRotatedDimension
  0
LINE
  5
12A
100
AcDbEntity
  8
face
  6
ByLayer
 62
  256
370
   -1
100
AcDbLine
 10
19.4
 20
-15.75
 11
23.50000000000001
 21
-15.75
  0
LINE
  5
12B
100
AcDbEntity
  8
face
  6
ByLayer
 62
  256
370
   -1
100
AcDbLine
 10
23.50000000000001
 20
-17
 11
19.4
 21
-17
  0
LWPOLYLINE
  5
12C
100
AcDbEntity
  8
glass
  6
ByLayer
 62
  256
370
   -1
100
AcDbPolyline
 90
    4
 70
    1
 43
0
 10
23.40000000000002
 20
-16.90000000000001
 10
21.50000000000001
 20
-16.90000000000001
 10
21.50000000000001
 20
-16.09999999999999
 10
23.40000000000002
 20
-16.09999999999999
  0
LWPOLYLINE
  5
12D
100
AcDbEntity
  8
glass
  6
ByLayer
 62
  256
370
   -1
100
AcDbPolyline
 90
    4
 70
    1
 43
0
 10
21.40000000000002
 20
-16.90000000000001
 10
19.50000000000001
 20
-16.90000000000001
 10
19.50000000000001
 20
-16.09999999999999
 10
21.40000000000002
 20
-16.09999999999999
  0
LINE
  5
12E
100
AcDbEntity
  8
boxwall
  6
ByLayer
 62
  256
370
   -1
100
AcDbLine
 10
23.50000000000001
 20
-15.6
 11
19.40000000000001
 21
-15.6
  0
LINE
  5
12F
100
AcDbEntity
  8
boxwall
  6
ByLayer
 62
  256
370
   -1
100
AcDbLine
 10
18.40000000000001
 20
-13.6
 11
24.50000000000001
 21
-13.6
  0
LWPOLYLINE
  5
130
100
AcDbEntity
  8
face
  6
ByLayer
 62
  256
370
   -1
100
AcDbPolyline
 90
    4
 70
    1
 43
0
 10
19.4
 20
-15.75
 10
19.4
 20
-17
 10
8.68
 20
-17
 10
8.68
 20
-15.75
  0
LWPOLYLINE
  5
131
100
AcDbEntity
  8
boxwall
  6
CONTINUOUS
 62
   56
420
8421376
370
   50
100
AcDbPolyline
 90
    5
 70
    0
 43
0
 10
18.40000000000001
 20
-13.6
 10
19.40000000000001
 20
-15.6
 10
8.68
 20
-15.6
 10
8.68
 20
-13.6
 10
18.40000000000001
 20
-13.6
  0
LWPOLYLINE
  5
132
100
AcDbEntity
  8
boxwall
  6
ByLayer
 62
  256
370
   -1
100
AcDbPolyline
 90
    4
 70
    0
 43
0
 10
8.68
 20
-13.6
 10
-2.775557561562891e-17
 20
-13.6
 10
2.775557561562891e-17
 20
-15.6
 10
8.700000000000001
 20
-15.6
  0
LWPOLYLINE
  5
133
100
AcDbEntity
  8
face
  6
ByLayer
 62
  256
370
   -1
100
AcDbPolyline
 90
    4
 70
    0
 43
0
 10
8.68
 20
-15.75
 10
-1.942890293094024e-16
 20
-15.75
 10
0
 20
-17
 10
8.68
 20
-17
  0
LINE
  5
134
100
AcDbEntity
  8
face
  6
ByLayer
 62
  256
370
   -1
100
AcDbLine
 10
0
 20
-15.75
 11
2.775557561562891e-17
 21
-15.6
  0
LINE
  5
135
100
AcDbEntity
  8
face
  6
ByLayer
 62
  256
370
   -1
100
AcDbLine
 10
29.59999999999999
 20
-15.75
 11
29.59999999999999
 21
-15.6
  0
LWPOLYLINE
  5
136
100
AcDbEntity
  8
face
  6
ByLayer
 62
  256
370
   -1
100
AcDbPolyline
 90
    4
 70
    1
 43
0
 10
23.50000000000001
 20
-15.75
 10
23.50000000000001
 20
-17
 10
29.6
 20
-17
 10
29.59999999999999
 20
-15.75
  0
LWPOLYLINE
  5
137
100
AcDbEntity
  8
boxwall
  6
CONTINUOUS
 62
   56
420
8421376
370
   50
100
AcDbPolyline
 90
    5
 70
    0
 43
0
 10
24.50000000000001
 20
-13.6
 10
23.50000000000001
 20
-15.6
 10
29.59999999999999
 20
-15.6
 10
29.59999999999999
 20
-13.6
 10
24.50000000000001
 20
-13.6
  0
LINE
  5
138
100
AcDbEntity
  8
face
  6
ByLayer
 62
  256
370
   -1
100
AcDbLine
 10
49
 20
-15.75
 11
44.9
 21
-15.75
  0
LINE
  5
139
100
AcDbEntity
  8
face
  6
ByLayer
 62
  256
370
   -1
100
AcDbLine
 10
44.9
 20
-17
 11
49
 21
-17
  0
LWPOLYLINE
  5
13A
100
AcDbEntity
  8
glass
  6
ByLayer
 62
  256
370
   -1
100
AcDbPolyline
 90
    4
 70
    1
 43
0
 10
44.99999999999999
 20
-16.90000000000001
 10
46.9
 20
-16.90000000000001
 10
46.9
 20
-16.09999999999999
 10
44.99999999999999
 20
-16.09999999999999
  0
LWPOLYLINE
  5
13B
100
AcDbEntity
  8
glass
  6
ByLayer
 62
  256
370
   -1
100
AcDbPolyline
 90
    4
 70
    1
 43
0
 10
46.99999999999999
 20
-16.90000000000001
 10
48.9
 20
-16.90000000000001
 10
48.9
 20
-16.09999999999999
 10
46.99999999999999
 20
-16.09999999999999
  0
LINE
  5
13C
100
AcDbEntity
  8
boxwall
  6
ByLayer
 62
  256
370
   -1
100
AcDbLine
 10
44.9
 20
-15.6
 11
49
 21
-15.6
  0
LINE
  5
13D
100
AcDbEntity
  8
boxwall
  6
ByLayer
 62
  256
370
   -1
100
AcDbLine
 10
50
 20
-13.6
 11
43.89999999999999
 21
-13.6
  0
LWPOLYLINE
  5
13E
100
AcDbEntity
  8
face
  6
ByLayer
 62
  256
370
   -1
100
AcDbPolyline
 90
    4
 70
    1
 43
0
 10
49
 20
-15.75
 10
49
 20
-17
 10
59.72000000000001
 20
-17
 10
59.72000000000001
 20
-15.75
  0
LWPOLYLINE
  5
13F
100
AcDbEntity
  8
boxwall
  6
CONTINUOUS
 62
   56
420
8421376
370
   50
100
AcDbPolyline
 90
    5
 70
    0
 43
0
 10
50
 20
-13.6
 10
49
 20
-15.6
 10
59.72000000000001
 20
-15.6
 10
59.72000000000001
 20
-13.6
 10
50
 20
-13.6
  0
LWPOLYLINE
  5
140
100
AcDbEntity
  8
boxwall
  6
ByLayer
 62
  256
370
   -1
100
AcDbPolyline
 90
    4
 70
    0
 43
0
 10
59.72000000000001
 20
-13.6
 10
68.40000000000001
 20
-13.6
 10
68.40000000000001
 20
-15.6
 10
59.7
 20
-15.6
  0
LWPOLYLINE
  5
141
100
AcDbEntity
  8
face
  6
ByLayer
 62
  256
370
   -1
100
AcDbPolyline
 90
    4
 70
    0
 43
0
 10
59.72000000000001
 20
-15.75
 10
68.40000000000001
 20
-15.75
 10
68.40000000000001
 20
-17
 10
59.72000000000001
 20
-17
  0
LINE
  5
142
100
AcDbEntity
  8
face
  6
ByLayer
 62
  256
370
   -1
100
AcDbLine
 10
68.40000000000001
 20
-15.75
 11
68.40000000000001
 21
-15.6
  0
LINE
  5
143
100
AcDbEntity
  8
face
  6
ByLayer
 62
  256
370
   -1
100
AcDbLine
 10
38.80000000000001
 20
-15.75
 11
38.80000000000001
 21
-15.6
  0
LWPOLYLINE
  5
144
100
AcDbEntity
  8
face
  6
ByLayer
 62
  256
370
   -1
100
AcDbPolyline
 90
    4
 70
    1
 43
0
 10
44.9
 20
-15.75
 10
44.9
 20
-17
 10
38.80000000000001
 20
-17
 10
38.80000000000001
 20
-15.75
  0
LWPOLYLINE
  5
145
100
AcDbEntity
  8
boxwall
  6
CONTINUOUS
 62
   56
420
8421376
370
   50
100
AcDbPolyline
 90
    5
 70
    0
 43
0
 10
43.89999999999999
 20
-13.6
 10
44.9
 20
-15.6
 10
38.80000000000001
 20
-15.6
 10
38.80000000000001
 20
-13.6
 10
43.89999999999999
 20
-13.6
  0
LINE
  5
146
100
AcDbEntity
  8
face
  6
ByLayer
 62
  256
370
   -1
100
AcDbLine
 10
29.59999999999999
 20
-17
 11
38.80000000000001
 21
-17
  0
LINE
  5
147
100
AcDbEntity
  8
face
  6
ByLayer
 62
  256
370
   -1
100
AcDbLine
 10
29.59999999999999
 20
-15.75
 11
38.80000000000001
 21
-15.75
  0
LINE
  5
148
100
AcDbEntity
  8
boxwall
  6
ByLayer
 62
  256
370
   -1
100
AcDbLine
 10
29.59999999999999
 20
-15.6
 11
38.80000000000001
 21
-15.6
  0
LINE
  5
149
100
AcDbEntity
  8
boxwall
  6
ByLayer
 62
  256
370
   -1
100
AcDbLine
 10
29.59999999999999
 20
-13.6
 11
38.80000000000001
 21
-13.6
  0
MTEXT
  5
14A
100
AcDbEntity
  8
dimensions
  6
ByLayer
 62
  256
370
   -1
100
AcDbMText
 10
34.2
 20
-9.999999999999998
 30
0
 40
2
 41
4.888888888888889
 71
    5
 72
    1
  1
A-
  7
unicode
210
0
220
0
230
1
 50
0
 73
    2
 44
1
  0
LINE
  5
14B
100
AcDbEntity
  8
dimensions
  6
ByLayer
 62
  256
370
   -1
100
AcDbLine
 10
31.6
 20
-11.2
 11
36.8
 21
-11.2
  0
LINE
  5
14C
100
AcDbEntity
  8
dimensions
  6
DASHDOT2
 62
  256
370
   -1
100
AcDbLine
 10
34.2
 20
31
 11
34.2
 21
-19
  0
MTEXT
  5
14D
100
AcDbEntity
  8
dimensions
  6
ByLayer
 62
  256
370
   -1
100
AcDbMText
 10
34
 20
35
 30
0
 40
3
 41
16.6666666666668
 71
    5
 72
    1
  1

  7
cyrillic_ii
210
0
220
0
230
1
 50
0
 73
    2
 44
1
  0
LINE
  5
14E
100
AcDbEntity
  8
dimensions
  6
ByLayer
 62
  256
370
   -1
100
AcDbLine
 10
25.6527777777782
 20
32.5
 11
42.6527777777782
 21
32.5
  0
MTEXT
  5
14F
100
AcDbEntity
  8
dimensions
  6
ByLayer
 62
  256
370
   -1
100
AcDbMText
 10
0
 20
-20
 30
0
 40
2
 41
34.59999999999999
 71
    1
 72
    1
  1
1. * - i i.
  7
cyrillic_ii
210
0
220
0
230
1
 50
0
 73
    2
 44
1
  0
MTEXT
  5
150
100
AcDbEntity
  8
dimensions
  6
ByLayer
 62
  256
370
   -1
100
AcDbMText
 10
69
 20
-22
 30
0
 40
2
 41
9.72222222222244
 71
    9
 72
    1
  1
. 26
  7
cyrillic_ii
210
0
220
0
230
1
 50
0
 73
    2
 44
1
  0
ENDSEC
  0
SECTION
  2
OBJECTS
  0
DICTIONARY
  5
C
330
0
100
AcDbDictionary
281
    1
  3
ACAD_GROUP
350
D
  0
DICTIONARY
  5
D
330
C
100
AcDbDictionary
281
    1
  0
ENDSEC
  0
EOF
