999
dxfrw 0.6.3
  0
SECTION
  2
HEADER
  9
$ACADVER
  1
AC1021
  9
$DWGCODEPAGE
  3
ANSI_1252
  9
$INSBASE
 10
0
 20
0
 30
0
  9
$EXTMIN
 10
-15
 20
-82
 30
0
  9
$EXTMAX
 10
230
 20
129
 30
0
  9
$LIMMIN
 10
0
 20
0
  9
$LIMMAX
 10
420
 20
297
  9
$ORTHOMODE
 70
    0
  9
$REGENMODE
 70
    1
  9
$FILLMODE
 70
    1
  9
$QTEXTMODE
 70
    0
  9
$MIRRTEXT
 70
    0
  9
$LTSCALE
 40
1
  9
$ATTMODE
 70
    0
  9
$TEXTSIZE
 40
2.5
  9
$TRACEWID
 40
15.68
  9
$TEXTSTYLE
  7
STANDARD
  9
$CLAYER
  8
0
  9
$CELTYPE
  6
BYLAYER
  9
$CECOLOR
 62
  256
  9
$CELTSCALE
 40
1
  9
$DISPSILH
 70
    0
  9
$DIMSCALE
 40
1
  9
$DIMASZ
 40
5
  9
$DIMEXO
 40
1
  9
$DIMDLI
 40
3.75
  9
$DIMRND
 40
0
  9
$DIMDLE
 40
0
  9
$DIMEXE
 40
2
  9
$DIMTP
 40
0
  9
$DIMTM
 40
0
  9
$DIMTXT
 40
4
  9
$DIMCEN
 40
2.5
  9
$DIMTSZ
 40
0
  9
$DIMTOL
 70
    0
  9
$DIMLIM
 70
    0
  9
$DIMTIH
 70
    0
  9
$DIMTOH
 70
    0
  9
$DIMSE1
 70
    0
  9
$DIMSE2
 70
    0
  9
$DIMTAD
 70
    1
  9
$DIMZIN
 70
    8
  9
$DIMBLK
  1

  9
$DIMASO
 70
    1
  9
$DIMSHO
 70
    1
  9
$DIMPOST
  1

  9
$DIMAPOST
  1

  9
$DIMALT
 70
    0
  9
$DIMALTD
 70
    3
  9
$DIMALTF
 40
0.03937
  9
$DIMLFAC
 40
1
  9
$DIMTOFL
 70
    1
  9
$DIMTVP
 40
0
  9
$DIMTIX
 70
    0
  9
$DIMSOXD
 70
    0
  9
$DIMSAH
 70
    0
  9
$DIMBLK1
  1

  9
$DIMBLK2
  1

  9
$DIMSTYLE
  2
STANDARD
  9
$DIMCLRD
 70
    0
  9
$DIMCLRE
 70
    0
  9
$DIMCLRT
 70
    0
  9
$DIMTFAC
 40
1
  9
$DIMGAP
 40
1
  9
$DIMJUST
 70
    0
  9
$DIMSD1
 70
    0
  9
$DIMSD2
 70
    0
  9
$DIMTOLJ
 70
    0
  9
$DIMTZIN
 70
    8
  9
$DIMALTZ
 70
    0
  9
$DIMALTTZ
 70
    0
  9
$DIMUPT
 70
    0
  9
$DIMDEC
 70
    1
  9
$DIMTDEC
 70
    2
  9
$DIMALTU
 70
    2
  9
$DIMALTTD
 70
    3
  9
$DIMTXSTY
  7
standard
  9
$DIMAUNIT
 70
    0
  9
$DIMADEC
 70
    0
  9
$DIMALTRND
 40
0
  9
$DIMAZIN
 70
    0
  9
$DIMDSEP
 70
   44
  9
$DIMATFIT
 70
    3
  9
$DIMFRAC
 70
    0
  9
$DIMLDRBLK
  1
STANDARD
  9
$DIMLUNIT
 70
    2
  9
$DIMLWD
 70
   -2
  9
$DIMLWE
 70
   -2
  9
$DIMTMOVE
 70
    0
  9
$DIMFXL
 40
1
  9
$DIMFXLON
 70
    0
  9
$DIMJOGANG
 40
0.7854
  9
$DIMTFILL
 70
    0
  9
$DIMTFILLCLR
 70
    0
  9
$DIMARCSYM
 70
    0
  9
$DIMLTYPE
  6

  9
$DIMLTEX1
  6

  9
$DIMLTEX2
  6

  9
$LUNITS
 70
    2
  9
$LUPREC
 70
    2
  9
$SKETCHINC
 40
1
  9
$FILLETRAD
 40
0
  9
$AUNITS
 70
    0
  9
$AUPREC
 70
    2
  9
$MENU
  1
.
  9
$ELEVATION
 40
0
  9
$PELEVATION
 40
0
  9
$THICKNESS
 40
0
  9
$LIMCHECK
 70
    0
  9
$CHAMFERA
 40
0
  9
$CHAMFERB
 40
0
  9
$CHAMFERC
 40
0
  9
$CHAMFERD
 40
0
  9
$SKPOLY
 70
    0
  9
$USRTIMER
 70
    1
  9
$ANGBASE
 50
0
  9
$ANGDIR
 70
    0
  9
$PDMODE
 70
   34
  9
$PDSIZE
 40
0
  9
$PLINEWID
 40
0
  9
$SPLFRAME
 70
    0
  9
$SPLINETYPE
 70
    2
  9
$SPLINESEGS
 70
    8
  9
$HANDSEED
  5
20000
  9
$SURFTAB1
 70
    6
  9
$SURFTAB2
 70
    6
  9
$SURFTYPE
 70
    6
  9
$SURFU
 70
    6
  9
$SURFV
 70
    6
  9
$UCSBASE
  2

  9
$UCSNAME
  2

  9
$UCSORG
 10
0
 20
0
 30
0
  9
$UCSXDIR
 10
1
 20
0
 30
0
  9
$UCSYDIR
 10
0
 20
1
 30
0
  9
$UCSORTHOREF
  2

  9
$UCSORTHOVIEW
 70
    0
  9
$UCSORGTOP
 10
0
 20
0
 30
0
  9
$UCSORGBOTTOM
 10
0
 20
0
 30
0
  9
$UCSORGLEFT
 10
0
 20
0
 30
0
  9
$UCSORGRIGHT
 10
0
 20
0
 30
0
  9
$UCSORGFRONT
 10
0
 20
0
 30
0
  9
$UCSORGBACK
 10
0
 20
0
 30
0
  9
$PUCSBASE
  2

  9
$PUCSNAME
  2

  9
$PUCSORG
 10
0
 20
0
 30
0
  9
$PUCSXDIR
 10
1
 20
0
 30
0
  9
$PUCSYDIR
 10
0
 20
1
 30
0
  9
$PUCSORTHOREF
  2

  9
$PUCSORTHOVIEW
 70
    0
  9
$PUCSORGTOP
 10
0
 20
0
 30
0
  9
$PUCSORGBOTTOM
 10
0
 20
0
 30
0
  9
$PUCSORGLEFT
 10
0
 20
0
 30
0
  9
$PUCSORGRIGHT
 10
0
 20
0
 30
0
  9
$PUCSORGFRONT
 10
0
 20
0
 30
0
  9
$PUCSORGBACK
 10
0
 20
0
 30
0
  9
$USERI1
 70
    0
  9
$USERI2
 70
    0
  9
$USERI3
 70
    0
  9
$USERI4
 70
    0
  9
$USERI5
 70
    0
  9
$USERR1
 40
0
  9
$USERR2
 40
0
  9
$USERR3
 40
0
  9
$USERR4
 40
0
  9
$USERR5
 40
0
  9
$WORLDVIEW
 70
    1
  9
$SHADEDGE
 70
    3
  9
$SHADEDIF
 70
   70
  9
$TILEMODE
 70
    1
  9
$MAXACTVP
 70
   64
  9
$PINSBASE
 10
5.425471698113208
 20
8.40566037735849
 30
0
  9
$PLIMCHECK
 70
    0
  9
$PEXTMIN
 10
0
 20
0
 30
0
  9
$PEXTMAX
 10
0
 20
0
 30
0
  9
$GRIDMODE
 70
    1
  9
$SNAPSTYLE
 70
    0
  9
$GRIDUNIT
 10
0
 20
0
  9
$PLIMMIN
 10
0
 20
0
  9
$PLIMMAX
 10
29.7
 20
21
  9
$UNITMODE
 70
    0
  9
$VISRETAIN
 70
    1
  9
$PLINEGEN
 70
    0
  9
$PSLTSCALE
 70
    1
  9
$TREEDEPTH
 70
 3020
  9
$CMLSTYLE
  2
Standard
  9
$CMLJUST
 70
    0
  9
$CMLSCALE
 40
20
  9
$PROXYGRAPHICS
 70
    1
  9
$MEASUREMENT
 70
    1
  9
$CELWEIGHT
370
   -1
  9
$ENDCAPS
280
    0
  9
$JOINSTYLE
280
    0
  9
$LWDISPLAY
290
    0
  9
$INSUNITS
 70
    5
  9
$HYPERLINKBASE
  1

  9
$STYLESHEET
  1

  9
$XEDIT
290
    1
  9
$CEPSNTYPE
380
    0
  9
$PSTYLEMODE
290
    1
  9
$EXTNAMES
290
    1
  9
$PSVPSCALE
 40
0.08726384222697325
  9
$OLESTARTUP
290
    0
  9
$SORTENTS
280
  127
  9
$INDEXCTL
280
    0
  9
$HIDETEXT
280
    1
  9
$XCLIPFRAME
290
    0
  9
$HALOGAP
280
    0
  9
$OBSCOLOR
 70
  257
  9
$OBSLTYPE
280
    0
  9
$INTERSECTIONDISPLAY
280
    0
  9
$INTERSECTIONCOLOR
 70
  257
  9
$DIMASSOC
280
    1
  9
$PROJECTNAME
  1

  9
$CAMERADISPLAY
290
    0
  9
$LENSLENGTH
 40
50
  9
$CAMERAHEIGHT
 40
0
  9
$STEPSPERSEC
 40
2
  9
$STEPSIZE
 40
50
  9
$3DDWFPREC
 40
2
  9
$PSOLWIDTH
 40
5
  9
$PSOLHEIGHT
 40
80
  9
$LOFTANG1
 40
1.570796326794897
  9
$LOFTANG2
 40
1.570796326794897
  9
$LOFTMAG1
 40
0
  9
$LOFTMAG2
 40
0
  9
$LOFTPARAM
 70
    7
  9
$LOFTNORMALS
280
    1
  9
$LATITUDE
 40
1
  9
$LONGITUDE
 40
1
  9
$NORTHDIRECTION
 40
0
  9
$TIMEZONE
 70
-8000
  9
$LIGHTGLYPHDISPLAY
280
    1
  9
$TILEMODELIGHTSYNCH
280
    1
  9
$SOLIDHIST
280
    1
  9
$SHOWHIST
280
    1
  9
$DWFFRAME
280
    2
  9
$DGNFRAME
280
    0
  9
$REALWORLDSCALE
290
    1
  9
$INTERFERECOLOR
 62
    1
  9
$CSHADOW
280
    0
  9
$SHADOWPLANELOCATION
 40
0
  0
ENDSEC
  0
SECTION
  2
CLASSES
  0
ENDSEC
  0
SECTION
  2
TABLES
  0
TABLE
  2
VPORT
  5
8
330
0
100
AcDbSymbolTable
 70
    1
  0
VPORT
  5
31
330
2
100
AcDbSymbolTableRecord
100
AcDbViewportTableRecord
  2
*ACTIVE
 70
    0
 10
0
 20
0
 11
1
 21
1
 12
151.7190476190476
 22
66.51523809523809
 13
0
 23
0
 14
10
 24
10
 15
10
 25
10
 16
0
 26
0
 36
1
 17
0
 27
0
 37
0
 40
219.0380952380952
 41
1.788990825688073
 42
50
 43
0
 44
0
 50
0
 51
0
 71
    0
 72
  100
 73
    1
 74
    3
 75
    0
 76
    1
 77
    0
 78
    0
281
    0
 65
    1
110
0
120
0
130
0
111
1
121
0
131
0
112
0
122
1
132
0
 79
    0
146
0
348
10020
 60
    7
 61
    5
292
1
282
    1
141
0
142
0
 63
  250
421
3358443
  0
ENDTAB
  0
TABLE
  2
LTYPE
  5
5
330
0
100
AcDbSymbolTable
 70
    4
  0
LTYPE
  5
14
330
5
100
AcDbSymbolTableRecord
100
AcDbLinetypeTableRecord
  2
ByBlock
 70
    0
  3

 72
   65
 73
    0
 40
0
  0
LTYPE
  5
15
330
5
100
AcDbSymbolTableRecord
100
AcDbLinetypeTableRecord
  2
ByLayer
 70
    0
  3

 72
   65
 73
    0
 40
0
  0
LTYPE
  5
16
330
5
100
AcDbSymbolTableRecord
100
AcDbLinetypeTableRecord
  2
Continuous
 70
    0
  3
Solid line
 72
   65
 73
    0
 40
0
  0
LTYPE
  5
32
330
5
100
AcDbSymbolTableRecord
100
AcDbLinetypeTableRecord
  2
DOT
 70
    0
  3
Dot . . . . . . . . . . . . . . . . . . . . . .
 72
   65
 73
    2
 40
6.35
 49
0
 74
    0
 49
-6.35
 74
    0
  0
LTYPE
  5
33
330
5
100
AcDbSymbolTableRecord
100
AcDbLinetypeTableRecord
  2
DOTTINY
 70
    0
  3
Dot (.15x) .....................................
 72
   65
 73
    2
 40
0.9525
 49
0
 74
    0
 49
-0.9525
 74
    0
  0
LTYPE
  5
34
330
5
100
AcDbSymbolTableRecord
100
AcDbLinetypeTableRecord
  2
DOT2
 70
    0
  3
Dot (.5x) .....................................
 72
   65
 73
    2
 40
3.175
 49
0
 74
    0
 49
-3.175
 74
    0
  0
LTYPE
  5
35
330
5
100
AcDbSymbolTableRecord
100
AcDbLinetypeTableRecord
  2
DOTX2
 70
    0
  3
Dot (2x) .  .  .  .  .  .  .  .  .  .  .  .  .
 72
   65
 73
    2
 40
12.7
 49
0
 74
    0
 49
-12.7
 74
    0
  0
LTYPE
  5
36
330
5
100
AcDbSymbolTableRecord
100
AcDbLinetypeTableRecord
  2
DASHED
 70
    0
  3
Dashed _ _ _ _ _ _ _ _ _ _ _ _ _ _ _ _ _
 72
   65
 73
    2
 40
19.05
 49
12.7
 74
    0
 49
-6.35
 74
    0
  0
LTYPE
  5
37
330
5
100
AcDbSymbolTableRecord
100
AcDbLinetypeTableRecord
  2
DASHEDTINY
 70
    0
  3
Dashed (.15x) _ _ _ _ _ _ _ _ _ _ _ _ _ _ _ _ _
 72
   65
 73
    2
 40
2.8575
 49
1.905
 74
    0
 49
-0.9525
 74
    0
  0
LTYPE
  5
38
330
5
100
AcDbSymbolTableRecord
100
AcDbLinetypeTableRecord
  2
DASHED2
 70
    0
  3
Dashed (.5x) _ _ _ _ _ _ _ _ _ _ _ _ _ _ _ _ _
 72
   65
 73
    2
 40
9.524999999999999
 49
6.35
 74
    0
 49
-3.175
 74
    0
  0
LTYPE
  5
39
330
5
100
AcDbSymbolTableRecord
100
AcDbLinetypeTableRecord
  2
DASHEDX2
 70
    0
  3
Dashed (2x) ____  ____  ____  ____  ____  ___
 72
   65
 73
    2
 40
38.09999999999999
 49
25.4
 74
    0
 49
-12.7
 74
    0
  0
LTYPE
  5
3A
330
5
100
AcDbSymbolTableRecord
100
AcDbLinetypeTableRecord
  2
DASHDOT
 70
    0
  3
Dash dot __ . __ . __ . __ . __ . __ . __ . __
 72
   65
 73
    4
 40
25.4
 49
12.7
 74
    0
 49
-6.35
 74
    0
 49
0
 74
    0
 49
-6.35
 74
    0
  0
LTYPE
  5
3B
330
5
100
AcDbSymbolTableRecord
100
AcDbLinetypeTableRecord
  2
DASHDOTTINY
 70
    0
  3
Dash dot (.15x) _._._._._._._._._._._._._._._.
 72
   65
 73
    4
 40
3.81
 49
1.905
 74
    0
 49
-0.9525
 74
    0
 49
0
 74
    0
 49
-0.9525
 74
    0
  0
LTYPE
  5
3C
330
5
100
AcDbSymbolTableRecord
100
AcDbLinetypeTableRecord
  2
DASHDOT2
 70
    0
  3
Dash dot (.5x) _._._._._._._._._._._._._._._.
 72
   65
 73
    4
 40
12.7
 49
6.35
 74
    0
 49
-3.175
 74
    0
 49
0
 74
    0
 49
-3.175
 74
    0
  0
LTYPE
  5
3D
330
5
100
AcDbSymbolTableRecord
100
AcDbLinetypeTableRecord
  2
DASHDOTX2
 70
    0
  3
Dash dot (2x) ____  .  ____  .  ____  .  ___
 72
   65
 73
    4
 40
50.8
 49
25.4
 74
    0
 49
-12.7
 74
    0
 49
0
 74
    0
 49
-12.7
 74
    0
  0
LTYPE
  5
3E
330
5
100
AcDbSymbolTableRecord
100
AcDbLinetypeTableRecord
  2
DIVIDE
 70
    0
  3
Divide ____ . . ____ . . ____ . . ____ . . ____
 72
   65
 73
    6
 40
31.75
 49
12.7
 74
    0
 49
-6.35
 74
    0
 49
0
 74
    0
 49
-6.35
 74
    0
 49
0
 74
    0
 49
-6.35
 74
    0
  0
LTYPE
  5
3F
330
5
100
AcDbSymbolTableRecord
100
AcDbLinetypeTableRecord
  2
DIVIDETINY
 70
    0
  3
Divide (.15x) __..__..__..__..__..__..__..__.._
 72
   65
 73
    6
 40
4.7625
 49
1.905
 74
    0
 49
-0.9525
 74
    0
 49
0
 74
    0
 49
-0.9525
 74
    0
 49
0
 74
    0
 49
-0.9525
 74
    0
  0
LTYPE
  5
40
330
5
100
AcDbSymbolTableRecord
100
AcDbLinetypeTableRecord
  2
DIVIDE2
 70
    0
  3
Divide (.5x) __..__..__..__..__..__..__..__.._
 72
   65
 73
    6
 40
15.875
 49
6.35
 74
    0
 49
-3.175
 74
    0
 49
0
 74
    0
 49
-3.175
 74
    0
 49
0
 74
    0
 49
-3.175
 74
    0
  0
LTYPE
  5
41
330
5
100
AcDbSymbolTableRecord
100
AcDbLinetypeTableRecord
  2
DIVIDEX2
 70
    0
  3
Divide (2x) ________  .  .  ________  .  .  _
 72
   65
 73
    6
 40
63.5
 49
25.4
 74
    0
 49
-12.7
 74
    0
 49
0
 74
    0
 49
-12.7
 74
    0
 49
0
 74
    0
 49
-12.7
 74
    0
  0
LTYPE
  5
42
330
5
100
AcDbSymbolTableRecord
100
AcDbLinetypeTableRecord
  2
BORDER
 70
    0
  3
Border __ __ . __ __ . __ __ . __ __ . __ __ .
 72
   65
 73
    6
 40
44.45
 49
12.7
 74
    0
 49
-6.35
 74
    0
 49
12.7
 74
    0
 49
-6.35
 74
    0
 49
0
 74
    0
 49
-6.35
 74
    0
  0
LTYPE
  5
43
330
5
100
AcDbSymbolTableRecord
100
AcDbLinetypeTableRecord
  2
BORDERTINY
 70
    0
  3
Border (.15x) __.__.__.__.__.__.__.__.__.__.__.
 72
   65
 73
    6
 40
6.6675
 49
1.905
 74
    0
 49
-0.9525
 74
    0
 49
1.905
 74
    0
 49
-0.9525
 74
    0
 49
0
 74
    0
 49
-0.9525
 74
    0
  0
LTYPE
  5
44
330
5
100
AcDbSymbolTableRecord
100
AcDbLinetypeTableRecord
  2
BORDER2
 70
    0
  3
Border (.5x) __.__.__.__.__.__.__.__.__.__.__.
 72
   65
 73
    6
 40
22.225
 49
6.35
 74
    0
 49
-3.175
 74
    0
 49
6.35
 74
    0
 49
-3.175
 74
    0
 49
0
 74
    0
 49
-3.175
 74
    0
  0
LTYPE
  5
45
330
5
100
AcDbSymbolTableRecord
100
AcDbLinetypeTableRecord
  2
BORDERX2
 70
    0
  3
Border (2x) ____  ____  .  ____  ____  .  ___
 72
   65
 73
    6
 40
88.89999999999999
 49
25.4
 74
    0
 49
-12.7
 74
    0
 49
25.4
 74
    0
 49
-12.7
 74
    0
 49
0
 74
    0
 49
-12.7
 74
    0
  0
LTYPE
  5
46
330
5
100
AcDbSymbolTableRecord
100
AcDbLinetypeTableRecord
  2
CENTER
 70
    0
  3
Center ____ _ ____ _ ____ _ ____ _ ____ _ ____
 72
   65
 73
    4
 40
50.8
 49
31.75
 74
    0
 49
-6.35
 74
    0
 49
6.35
 74
    0
 49
-6.35
 74
    0
  0
LTYPE
  5
47
330
5
100
AcDbSymbolTableRecord
100
AcDbLinetypeTableRecord
  2
CENTERTINY
 70
    0
  3
Center (.15x) ___ _ ___ _ ___ _ ___ _ ___ _ ___
 72
   65
 73
    4
 40
7.619999999999999
 49
4.7625
 74
    0
 49
-0.9525
 74
    0
 49
0.9525
 74
    0
 49
-0.9525
 74
    0
  0
LTYPE
  5
48
330
5
100
AcDbSymbolTableRecord
100
AcDbLinetypeTableRecord
  2
CENTER2
 70
    0
  3
Center (.5x) ___ _ ___ _ ___ _ ___ _ ___ _ ___
 72
   65
 73
    4
 40
28.575
 49
19.05
 74
    0
 49
-3.175
 74
    0
 49
3.175
 74
    0
 49
-3.175
 74
    0
  0
LTYPE
  5
49
330
5
100
AcDbSymbolTableRecord
100
AcDbLinetypeTableRecord
  2
CENTERX2
 70
    0
  3
Center (2x) ________  __  ________  __  _____
 72
   65
 73
    4
 40
101.6
 49
63.5
 74
    0
 49
-12.7
 74
    0
 49
12.7
 74
    0
 49
-12.7
 74
    0
  0
ENDTAB
  0
TABLE
  2
LAYER
  5
2
330
0
100
AcDbSymbolTable
 70
    1
  0
LAYER
  5
10
330
2
100
AcDbSymbolTableRecord
100
AcDbLayerTableRecord
  2
0
 70
    0
 62
    7
  6
CONTINUOUS
370
   -3
390
F
1001
LibreCad
1070
    1
  0
LAYER
  5
4A
330
2
100
AcDbSymbolTableRecord
100
AcDbLayerTableRecord
  2
doshka
 70
    0
 62
    2
  6
CONTINUOUS
370
   50
390
F
  0
LAYER
  5
4B
330
2
100
AcDbSymbolTableRecord
100
AcDbLayerTableRecord
  2
dveri
 70
    0
 62
   96
420
32768
  6
CONTINUOUS
370
   50
390
F
  0
LAYER
  5
4C
330
2
100
AcDbSymbolTableRecord
100
AcDbLayerTableRecord
  2
ramka
 70
    0
 62
  136
420
32896
  6
CONTINUOUS
370
   50
390
F
  0
LAYER
  5
4D
330
2
100
AcDbSymbolTableRecord
100
AcDbLayerTableRecord
  2
rozmir
 70
    0
 62
    4
  6
CONTINUOUS
370
   13
390
F
  0
ENDTAB
  0
TABLE
  2
STYLE
  5
3
330
0
100
AcDbSymbolTable
 70
    3
  0
STYLE
  5
4E
330
2
100
AcDbSymbolTableRecord
100
AcDbTextStyleTableRecord
  2
unicode
 70
    0
 40
0
 41
1
 50
0
 71
    0
 42
1
  3
unicode
  4

  0
STYLE
  5
4F
330
2
100
AcDbSymbolTableRecord
100
AcDbTextStyleTableRecord
  2
Standard
 70
    0
 40
0
 41
1
 50
0
 71
    0
 42
1
  3
txt
  4

  0
ENDTAB
  0
TABLE
  2
VIEW
  5
6
330
0
100
AcDbSymbolTable
 70
    0
  0
ENDTAB
  0
TABLE
  2
UCS
  5
7
330
0
100
AcDbSymbolTable
 70
    0
  0
ENDTAB
  0
TABLE
  2
APPID
  5
9
330
0
100
AcDbSymbolTable
 70
    1
  0
APPID
  5
12
330
9
100
AcDbSymbolTableRecord
100
AcDbRegAppTableRecord
  2
ACAD
 70
    0
  0
APPID
  5
50
330
9
100
AcDbSymbolTableRecord
100
AcDbRegAppTableRecord
  2
LibreCad
 70
    0
  0
ENDTAB
  0
TABLE
  2
DIMSTYLE
  5
A
330
0
100
AcDbSymbolTable
 70
    1
100
AcDbDimStyleTable
 71
    1
  0
DIMSTYLE
105
51
330
A
100
AcDbSymbolTableRecord
100
AcDbDimStyleTableRecord
  2
Standard
 70
    0
 40
1
 41
5
 42
1
 43
0.38
 44
2
 45
0
 46
0
 47
0
 48
0
 49
1
140
4
141
0.09
142
0
143
25.4
144
1
145
0
146
1
147
1
148
0
 71
    0
 72
    0
 73
    0
 74
    1
 75
    0
 76
    0
 77
    0
 78
    8
 79
    0
170
    0
171
    2
172
    0
173
    0
174
    0
175
    0
176
    0
177
    0
178
    0
179
    0
271
    1
272
    4
273
    2
274
    2
275
    0
276
    0
277
    2
278
   44
279
    0
280
    0
281
    0
282
    0
283
    1
284
    0
285
    0
286
    0
288
    0
289
    3
340
standard
341

371
   -2
372
   -2
  0
ENDTAB
  0
TABLE
  2
BLOCK_RECORD
  5
1
330
0
100
AcDbSymbolTable
 70
    2
  0
BLOCK_RECORD
  5
1F
330
1
100
AcDbSymbolTableRecord
100
AcDbBlockTableRecord
  2
*Model_Space
 70
    0
280
    1
281
    0
  0
BLOCK_RECORD
  5
1E
330
1
100
AcDbSymbolTableRecord
100
AcDbBlockTableRecord
  2
*Paper_Space
 70
    0
280
    1
281
    0
  0
BLOCK_RECORD
  5
52
330
1
100
AcDbSymbolTableRecord
100
AcDbBlockTableRecord
  2
*D16
 70
    0
280
    1
281
    0
  0
BLOCK_RECORD
  5
55
330
1
100
AcDbSymbolTableRecord
100
AcDbBlockTableRecord
  2
*D3
 70
    0
280
    1
281
    0
  0
BLOCK_RECORD
  5
58
330
1
100
AcDbSymbolTableRecord
100
AcDbBlockTableRecord
  2
*D12
 70
    0
280
    1
281
    0
  0
BLOCK_RECORD
  5
5B
330
1
100
AcDbSymbolTableRecord
100
AcDbBlockTableRecord
  2
*D8
 70
    0
280
    1
281
    0
  0
BLOCK_RECORD
  5
5E
330
1
100
AcDbSymbolTableRecord
100
AcDbBlockTableRecord
  2
*D1
 70
    0
280
    1
281
    0
  0
BLOCK_RECORD
  5
61
330
1
100
AcDbSymbolTableRecord
100
AcDbBlockTableRecord
  2
*D2
 70
    0
280
    1
281
    0
  0
BLOCK_RECORD
  5
64
330
1
100
AcDbSymbolTableRecord
100
AcDbBlockTableRecord
  2
*D7
 70
    0
280
    1
281
    0
  0
BLOCK_RECORD
  5
67
330
1
100
AcDbSymbolTableRecord
100
AcDbBlockTableRecord
  2
*D4
 70
    0
280
    1
281
    0
  0
BLOCK_RECORD
  5
6A
330
1
100
AcDbSymbolTableRecord
100
AcDbBlockTableRecord
  2
*D5
 70
    0
280
    1
281
    0
  0
BLOCK_RECORD
  5
6D
330
1
100
AcDbSymbolTableRecord
100
AcDbBlockTableRecord
  2
*D6
 70
    0
280
    1
281
    0
  0
BLOCK_RECORD
  5
70
330
1
100
AcDbSymbolTableRecord
100
AcDbBlockTableRecord
  2
*D15
 70
    0
280
    1
281
    0
  0
BLOCK_RECORD
  5
73
330
1
100
AcDbSymbolTableRecord
100
AcDbBlockTableRecord
  2
*D13
 70
    0
280
    1
281
    0
  0
BLOCK_RECORD
  5
76
330
1
100
AcDbSymbolTableRecord
100
AcDbBlockTableRecord
  2
*D9
 70
    0
280
    1
281
    0
  0
BLOCK_RECORD
  5
79
330
1
100
AcDbSymbolTableRecord
100
AcDbBlockTableRecord
  2
*D10
 70
    0
280
    1
281
    0
  0
BLOCK_RECORD
  5
7C
330
1
100
AcDbSymbolTableRecord
100
AcDbBlockTableRecord
  2
*D11
 70
    0
280
    1
281
    0
  0
BLOCK_RECORD
  5
7F
330
1
100
AcDbSymbolTableRecord
100
AcDbBlockTableRecord
  2
*D14
 70
    0
280
    1
281
    0
  0
ENDTAB
  0
ENDSEC
  0
SECTION
  2
BLOCKS
  0
BLOCK
  5
20
330
1F
100
AcDbEntity
  8
0
100
AcDbBlockBegin
  2
*Model_Space
 70
    0
 10
0
 20
0
 30
0
  3
*Model_Space
  1

  0
ENDBLK
  5
21
330
1F
100
AcDbEntity
  8
0
100
AcDbBlockEnd
  0
BLOCK
  5
1C
330
1B
100
AcDbEntity
  8
0
100
AcDbBlockBegin
  2
*Paper_Space
 70
    0
 10
0
 20
0
 30
0
  3
*Paper_Space
  1

  0
ENDBLK
  5
1D
330
1F
100
AcDbEntity
  8
0
100
AcDbBlockEnd
  0
BLOCK
  5
53
330
52
100
AcDbEntity
  8
0
100
AcDbBlockBegin
  2
*D16
 70
    1
 10
0
 20
0
  3
*D16
  1

  0
LINE
  5
82
100
AcDbEntity
  8
rozmir
  6
CONTINUOUS
 62
    7
370
    0
100
AcDbLine
 10
149
 20
-46.00000000000001
 11
140
 21
-52.5
  0
LINE
  5
83
100
AcDbEntity
  8
rozmir
  6
CONTINUOUS
 62
    7
370
    0
100
AcDbLine
 10
140
 20
-52.5
 11
100
 21
-52.5
  0
SOLID
  5
84
100
AcDbEntity
  8
rozmir
  6
CONTINUOUS
 62
    7
370
    0
100
AcDbTrace
 10
149
 20
-46.00000000000001
 30
0
 11
145.4340653276733
 21
-49.60239941953779
 31
0
 12
144.4591423883279
 22
-48.25250611890581
 32
0
 13
144.4591423883279
 23
-48.25250611890581
 33
0
  0
ENDBLK
  5
54
330
52
100
AcDbEntity
  8
0
100
AcDbBlockEnd
  0
BLOCK
  5
56
330
55
100
AcDbEntity
  8
0
100
AcDbBlockBegin
  2
*D3
 70
    1
 10
0
 20
0
  3
*D3
  1

  0
LINE
  5
85
100
AcDbEntity
  8
rozmir
  6
ByBlock
 62
    0
370
   -2
100
AcDbLine
 10
142
 20
-80
 11
163.4999999999999
 21
-80
  0
SOLID
  5
86
100
AcDbEntity
  8
rozmir
  6
ByBlock
 62
    0
370
   -2
100
AcDbTrace
 10
152
 20
-80
 30
0
 11
147
 21
-80.83256931554568
 31
0
 12
147
 22
-79.16743068445432
 32
0
 13
147
 23
-79.16743068445432
 33
0
  0
SOLID
  5
87
100
AcDbEntity
  8
rozmir
  6
ByBlock
 62
    0
370
   -2
100
AcDbTrace
 10
153.4999999999999
 20
-80
 30
0
 11
158.4999999999999
 21
-79.16743068445432
 31
0
 12
158.4999999999999
 22
-80.83256931554568
 32
0
 13
158.4999999999999
 23
-80.83256931554568
 33
0
  0
MTEXT
  5
88
100
AcDbEntity
  8
rozmir
  6
CONTINUOUS
 62
    0
370
   -2
100
AcDbMText
 10
161.9722222222223
 20
-77
 30
0
 40
4
 41
6.444444444444692
 71
    5
 72
    1
  1
0,3
  7
standard
210
0
220
0
230
1
 50
0
 73
    2
 44
1
  0
LINE
  5
89
100
AcDbEntity
  8
rozmir
  6
ByBlock
 62
    0
370
   -2
100
AcDbLine
 10
152
 20
-67.49999999999999
 11
152
 21
-82
  0
LINE
  5
8A
100
AcDbEntity
  8
rozmir
  6
ByBlock
 62
    0
370
   -2
100
AcDbLine
 10
153.4999999999999
 20
-67.00000000000001
 11
153.4999999999999
 21
-82
  0
ENDBLK
  5
57
330
55
100
AcDbEntity
  8
0
100
AcDbBlockEnd
  0
BLOCK
  5
59
330
58
100
AcDbEntity
  8
0
100
AcDbBlockBegin
  2
*D12
 70
    1
 10
0
 20
0
  3
*D12
  1

  0
LINE
  5
8B
100
AcDbEntity
  8
rozmir
  6
ByBlock
 62
    0
370
   -2
100
AcDbLine
 10
228
 20
0
 11
228
 21
127.6
  0
SOLID
  5
8C
100
AcDbEntity
  8
rozmir
  6
ByBlock
 62
    0
370
   -2
100
AcDbTrace
 10
228
 20
0
 30
0
 11
227.1674306844543
 21
5
 31
0
 12
228.8325693155457
 22
5
 32
0
 13
228.8325693155457
 23
5
 33
0
  0
SOLID
  5
8D
100
AcDbEntity
  8
rozmir
  6
ByBlock
 62
    0
370
   -2
100
AcDbTrace
 10
228
 20
127.6
 30
0
 11
228.8325693155457
 21
122.6
 31
0
 12
227.1674306844543
 22
122.6
 32
0
 13
227.1674306844543
 23
122.6
 33
0
  0
MTEXT
  5
8E
100
AcDbEntity
  8
rozmir
  6
CONTINUOUS
 62
    0
370
   -2
100
AcDbMText
 10
225
 20
63.8
 30
0
 40
4
 41
11.77777777777803
 71
    5
 72
    1
  1
127,6
  7
standard
210
0
220
0
230
1
 50
90
 73
    2
 44
1
  0
LINE
  5
8F
100
AcDbEntity
  8
rozmir
  6
ByBlock
 62
    0
370
   -2
100
AcDbLine
 10
218.6
 20
3.33066907387547e-16
 11
230
 21
0
  0
LINE
  5
90
100
AcDbEntity
  8
rozmir
  6
ByBlock
 62
    0
370
   -2
100
AcDbLine
 10
218.6
 20
127.6
 11
230
 21
127.6
  0
ENDBLK
  5
5A
330
58
100
AcDbEntity
  8
0
100
AcDbBlockEnd
  0
BLOCK
  5
5C
330
5B
100
AcDbEntity
  8
0
100
AcDbBlockBegin
  2
*D8
 70
    1
 10
0
 20
0
  3
*D8
  1

  0
LINE
  5
91
100
AcDbEntity
  8
rozmir
  6
ByBlock
 62
    0
370
   -2
100
AcDbLine
 10
-9.999999999999998
 20
129
 11
-10
 21
99
  0
SOLID
  5
92
100
AcDbEntity
  8
rozmir
  6
ByBlock
 62
    0
370
   -2
100
AcDbTrace
 10
-9.999999999999998
 20
129
 30
0
 11
-9.167430684454317
 21
124
 31
0
 12
-10.83256931554568
 22
124
 32
0
 13
-10.83256931554568
 23
124
 33
0
  0
SOLID
  5
93
100
AcDbEntity
  8
rozmir
  6
ByBlock
 62
    0
370
   -2
100
AcDbTrace
 10
-10
 20
99
 30
0
 11
-10.83256931554568
 21
104
 31
0
 12
-9.167430684454319
 22
104
 32
0
 13
-9.167430684454319
 23
104
 33
0
  0
MTEXT
  5
94
100
AcDbEntity
  8
rozmir
  6
CONTINUOUS
 62
    0
370
   -2
100
AcDbMText
 10
-13
 20
114
 30
0
 40
4
 41
4.888888888889136
 71
    5
 72
    1
  1
30
  7
standard
210
0
220
0
230
1
 50
90
 73
    2
 44
1
  0
LINE
  5
95
100
AcDbEntity
  8
rozmir
  6
ByBlock
 62
    0
370
   -2
100
AcDbLine
 10
-1
 20
129
 11
-12
 21
129
  0
LINE
  5
96
100
AcDbEntity
  8
rozmir
  6
ByBlock
 62
    0
370
   -2
100
AcDbLine
 10
-1.34000000000014
 20
99
 11
-12
 21
99
  0
ENDBLK
  5
5D
330
5B
100
AcDbEntity
  8
0
100
AcDbBlockEnd
  0
BLOCK
  5
5F
330
5E
100
AcDbEntity
  8
0
100
AcDbBlockBegin
  2
*D1
 70
    1
 10
0
 20
0
  3
*D1
  1

  0
LINE
  5
97
100
AcDbEntity
  8
rozmir
  6
CONTINUOUS
 62
    7
370
    0
100
AcDbLine
 10
-10
 20
50
 11
-10
 21
40
  0
SOLID
  5
98
100
AcDbEntity
  8
rozmir
  6
CONTINUOUS
 62
    7
370
    0
100
AcDbTrace
 10
-10
 20
50
 30
0
 11
-9.167430684454319
 21
45
 31
0
 12
-10.83256931554568
 22
45
 32
0
 13
-10.83256931554568
 23
45
 33
0
  0
ENDBLK
  5
60
330
5E
100
AcDbEntity
  8
0
100
AcDbBlockEnd
  0
BLOCK
  5
62
330
61
100
AcDbEntity
  8
0
100
AcDbBlockBegin
  2
*D2
 70
    1
 10
0
 20
0
  3
*D2
  1

  0
LINE
  5
99
100
AcDbEntity
  8
rozmir
  6
CONTINUOUS
 62
    7
370
    0
100
AcDbLine
 10
6
 20
-47
 11
11
 21
-40
  0
LINE
  5
9A
100
AcDbEntity
  8
rozmir
  6
CONTINUOUS
 62
    7
370
    0
100
AcDbLine
 10
11
 20
-40
 11
20
 21
-40
  0
SOLID
  5
9B
100
AcDbEntity
  8
rozmir
  6
CONTINUOUS
 62
    7
370
    0
100
AcDbTrace
 10
6
 20
-47
 30
0
 11
8.228701449436279
 21
-42.44741155885261
 31
0
 12
9.583680487754684
 22
-43.41525372908004
 32
0
 13
9.583680487754684
 23
-43.41525372908004
 33
0
  0
ENDBLK
  5
63
330
61
100
AcDbEntity
  8
0
100
AcDbBlockEnd
  0
BLOCK
  5
65
330
64
100
AcDbEntity
  8
0
100
AcDbBlockBegin
  2
*D7
 70
    1
 10
0
 20
0
  3
*D7
  1

  0
LINE
  5
9C
100
AcDbEntity
  8
rozmir
  6
CONTINUOUS
 62
    7
370
    0
100
AcDbLine
 10
104
 20
50
 11
104
 21
40
  0
SOLID
  5
9D
100
AcDbEntity
  8
rozmir
  6
CONTINUOUS
 62
    7
370
    0
100
AcDbTrace
 10
104
 20
50
 30
0
 11
104.8325693155457
 21
45
 31
0
 12
103.1674306844543
 22
45
 32
0
 13
103.1674306844543
 23
45
 33
0
  0
ENDBLK
  5
66
330
64
100
AcDbEntity
  8
0
100
AcDbBlockEnd
  0
BLOCK
  5
68
330
67
100
AcDbEntity
  8
0
100
AcDbBlockBegin
  2
*D4
 70
    1
 10
0
 20
0
  3
*D4
  1

  0
LINE
  5
9E
100
AcDbEntity
  8
rozmir
  6
CONTINUOUS
 62
    7
370
    0
100
AcDbLine
 10
153.4999999999999
 20
-66.00000000000001
 11
140
 21
-80
  0
LINE
  5
9F
100
AcDbEntity
  8
rozmir
  6
CONTINUOUS
 62
    7
370
    0
100
AcDbLine
 10
140
 20
-80
 11
100
 21
-80
  0
SOLID
  5
A0
100
AcDbEntity
  8
rozmir
  6
CONTINUOUS
 62
    7
370
    0
100
AcDbTrace
 10
153.4999999999999
 20
-66.00000000000001
 30
0
 11
150.6286424194166
 21
-70.17713745400067
 31
0
 12
149.4300018747409
 22
-69.02130550020622
 32
0
 13
149.4300018747409
 23
-69.02130550020622
 33
0
  0
ENDBLK
  5
69
330
67
100
AcDbEntity
  8
0
100
AcDbBlockEnd
  0
BLOCK
  5
6B
330
6A
100
AcDbEntity
  8
0
100
AcDbBlockBegin
  2
*D5
 70
    1
 10
0
 20
0
  3
*D5
  1

  0
LINE
  5
A1
100
AcDbEntity
  8
rozmir
  6
ByBlock
 62
    0
370
   -2
100
AcDbLine
 10
-10
 20
0
 11
-10
 21
30
  0
SOLID
  5
A2
100
AcDbEntity
  8
rozmir
  6
ByBlock
 62
    0
370
   -2
100
AcDbTrace
 10
-10
 20
0
 30
0
 11
-10.83256931554568
 21
5
 31
0
 12
-9.16743068445432
 22
5
 32
0
 13
-9.16743068445432
 23
5
 33
0
  0
SOLID
  5
A3
100
AcDbEntity
  8
rozmir
  6
ByBlock
 62
    0
370
   -2
100
AcDbTrace
 10
-10
 20
30
 30
0
 11
-9.167430684454319
 21
25
 31
0
 12
-10.83256931554568
 22
25
 32
0
 13
-10.83256931554568
 23
25
 33
0
  0
MTEXT
  5
A4
100
AcDbEntity
  8
rozmir
  6
CONTINUOUS
 62
    0
370
   -2
100
AcDbMText
 10
-13
 20
15
 30
0
 40
4
 41
4.888888888889136
 71
    5
 72
    1
  1
30
  7
standard
210
0
220
0
230
1
 50
90
 73
    2
 44
1
  0
LINE
  5
A5
100
AcDbEntity
  8
rozmir
  6
ByBlock
 62
    0
370
   -2
100
AcDbLine
 10
-1
 20
1.224646799147353e-16
 11
-12
 21
2.449293598294706e-16
  0
LINE
  5
A6
100
AcDbEntity
  8
rozmir
  6
ByBlock
 62
    0
370
   -2
100
AcDbLine
 10
-1.340000000000062
 20
30
 11
-12
 21
30
  0
ENDBLK
  5
6C
330
6A
100
AcDbEntity
  8
0
100
AcDbBlockEnd
  0
BLOCK
  5
6E
330
6D
100
AcDbEntity
  8
0
100
AcDbBlockBegin
  2
*D6
 70
    1
 10
0
 20
0
  3
*D6
  1

  0
LINE
  5
A7
100
AcDbEntity
  8
rozmir
  6
ByBlock
 62
    0
370
   -2
100
AcDbLine
 10
0
 20
-10
 11
89
 21
-10
  0
SOLID
  5
A8
100
AcDbEntity
  8
rozmir
  6
ByBlock
 62
    0
370
   -2
100
AcDbTrace
 10
0
 20
-10
 30
0
 11
5
 21
-9.16743068445432
 31
0
 12
5
 22
-10.83256931554568
 32
0
 13
5
 23
-10.83256931554568
 33
0
  0
SOLID
  5
A9
100
AcDbEntity
  8
rozmir
  6
ByBlock
 62
    0
370
   -2
100
AcDbTrace
 10
89
 20
-10
 30
0
 11
84
 21
-10.83256931554568
 31
0
 12
84
 22
-9.167430684454319
 32
0
 13
84
 23
-9.167430684454319
 33
0
  0
MTEXT
  5
AA
100
AcDbEntity
  8
rozmir
  6
CONTINUOUS
 62
    0
370
   -2
100
AcDbMText
 10
44.5
 20
-7
 30
0
 40
4
 41
4.888888888888888
 71
    5
 72
    1
  1
89
  7
standard
210
0
220
0
230
1
 50
0
 73
    2
 44
1
  0
LINE
  5
AB
100
AcDbEntity
  8
rozmir
  6
ByBlock
 62
    0
370
   -2
100
AcDbLine
 10
-1.83697019872103e-16
 20
-1
 11
-3.673940397442059e-16
 21
-12
  0
LINE
  5
AC
100
AcDbEntity
  8
rozmir
  6
ByBlock
 62
    0
370
   -2
100
AcDbLine
 10
89
 20
-1
 11
89
 21
-12
  0
ENDBLK
  5
6F
330
6D
100
AcDbEntity
  8
0
100
AcDbBlockEnd
  0
BLOCK
  5
71
330
70
100
AcDbEntity
  8
0
100
AcDbBlockBegin
  2
*D15
 70
    1
 10
0
 20
0
  3
*D15
  1

  0
LINE
  5
AD
100
AcDbEntity
  8
rozmir
  6
CONTINUOUS
 62
    7
370
    0
100
AcDbLine
 10
152
 20
-59.5
 11
160
 21
-52.5
  0
LINE
  5
AE
100
AcDbEntity
  8
rozmir
  6
CONTINUOUS
 62
    7
370
    0
100
AcDbLine
 10
160
 20
-52.5
 11
210
 21
-52.5
  0
SOLID
  5
AF
100
AcDbEntity
  8
rozmir
  6
CONTINUOUS
 62
    7
370
    0
100
AcDbTrace
 10
152
 20
-59.5
 30
0
 11
155.2146327428776
 21
-55.58090469704968
 31
0
 12
156.3111342041911
 22
-56.83404922426515
 32
0
 13
156.3111342041911
 23
-56.83404922426515
 33
0
  0
ENDBLK
  5
72
330
70
100
AcDbEntity
  8
0
100
AcDbBlockEnd
  0
BLOCK
  5
74
330
73
100
AcDbEntity
  8
0
100
AcDbBlockBegin
  2
*D13
 70
    1
 10
0
 20
0
  3
*D13
  1

  0
LINE
  5
B0
100
AcDbEntity
  8
rozmir
  6
ByBlock
 62
    0
370
   -2
100
AcDbLine
 10
187.5
 20
-57.5
 11
187.5
 21
-78
  0
SOLID
  5
B1
100
AcDbEntity
  8
rozmir
  6
ByBlock
 62
    0
370
   -2
100
AcDbTrace
 10
187.5
 20
-67.5
 30
0
 11
186.6674306844544
 21
-62.5
 31
0
 12
188.3325693155457
 22
-62.5
 32
0
 13
188.3325693155457
 23
-62.5
 33
0
  0
SOLID
  5
B2
100
AcDbEntity
  8
rozmir
  6
ByBlock
 62
    0
370
   -2
100
AcDbTrace
 10
187.5
 20
-68
 30
0
 11
188.3325693155457
 21
-73
 31
0
 12
186.6674306844544
 22
-73
 32
0
 13
186.6674306844544
 23
-73
 33
0
  0
MTEXT
  5
B3
100
AcDbEntity
  8
rozmir
  6
CONTINUOUS
 62
    0
370
   -2
100
AcDbMText
 10
184.5
 20
-63.72222222222222
 30
0
 40
4
 41
5.555555555555555
 71
    5
 72
    1
  1
0,1
  7
standard
210
0
220
0
230
1
 50
90
 73
    2
 44
1
  0
LINE
  5
B4
100
AcDbEntity
  8
rozmir
  6
ByBlock
 62
    0
370
   -2
100
AcDbLine
 10
174.4999999999999
 20
-67.5
 11
189.5
 21
-67.5
  0
LINE
  5
B5
100
AcDbEntity
  8
rozmir
  6
ByBlock
 62
    0
370
   -2
100
AcDbLine
 10
172.5
 20
-68
 11
189.5
 21
-68
  0
ENDBLK
  5
75
330
73
100
AcDbEntity
  8
0
100
AcDbBlockEnd
  0
BLOCK
  5
77
330
76
100
AcDbEntity
  8
0
100
AcDbBlockBegin
  2
*D9
 70
    1
 10
0
 20
0
  3
*D9
  1

  0
LINE
  5
B6
100
AcDbEntity
  8
rozmir
  6
ByBlock
 62
    0
370
   -2
100
AcDbLine
 10
99
 20
0
 11
99
 21
129
  0
SOLID
  5
B7
100
AcDbEntity
  8
rozmir
  6
ByBlock
 62
    0
370
   -2
100
AcDbTrace
 10
99
 20
0
 30
0
 11
98.16743068445432
 21
5
 31
0
 12
99.83256931554568
 22
5
 32
0
 13
99.83256931554568
 23
5
 33
0
  0
SOLID
  5
B8
100
AcDbEntity
  8
rozmir
  6
ByBlock
 62
    0
370
   -2
100
AcDbTrace
 10
99
 20
129
 30
0
 11
99.83256931554568
 21
124
 31
0
 12
98.16743068445432
 22
124
 32
0
 13
98.16743068445432
 23
124
 33
0
  0
MTEXT
  5
B9
100
AcDbEntity
  8
rozmir
  6
CONTINUOUS
 62
    0
370
   -2
100
AcDbMText
 10
96
 20
64.5
 30
0
 40
4
 41
7.111111111111111
 71
    5
 72
    1
  1
129
  7
standard
210
0
220
0
230
1
 50
90
 73
    2
 44
1
  0
LINE
  5
BA
100
AcDbEntity
  8
rozmir
  6
ByBlock
 62
    0
370
   -2
100
AcDbLine
 10
90
 20
0
 11
101
 21
0
  0
LINE
  5
BB
100
AcDbEntity
  8
rozmir
  6
ByBlock
 62
    0
370
   -2
100
AcDbLine
 10
90
 20
129
 11
101
 21
129
  0
ENDBLK
  5
78
330
76
100
AcDbEntity
  8
0
100
AcDbBlockEnd
  0
BLOCK
  5
7A
330
79
100
AcDbEntity
  8
0
100
AcDbBlockBegin
  2
*D10
 70
    1
 10
0
 20
0
  3
*D10
  1

  0
LINE
  5
BC
100
AcDbEntity
  8
rozmir
  6
ByBlock
 62
    0
370
   -2
100
AcDbLine
 10
4.5
 20
-70
 11
84.5
 21
-70
  0
SOLID
  5
BD
100
AcDbEntity
  8
rozmir
  6
ByBlock
 62
    0
370
   -2
100
AcDbTrace
 10
4.5
 20
-70
 30
0
 11
9.5
 21
-69.16743068445432
 31
0
 12
9.5
 22
-70.83256931554568
 32
0
 13
9.5
 23
-70.83256931554568
 33
0
  0
SOLID
  5
BE
100
AcDbEntity
  8
rozmir
  6
ByBlock
 62
    0
370
   -2
100
AcDbTrace
 10
84.5
 20
-70
 30
0
 11
79.5
 21
-70.83256931554568
 31
0
 12
79.5
 22
-69.16743068445432
 32
0
 13
79.5
 23
-69.16743068445432
 33
0
  0
MTEXT
  5
BF
100
AcDbEntity
  8
rozmir
  6
CONTINUOUS
 62
    0
370
   -2
100
AcDbMText
 10
44.5
 20
-67
 30
0
 40
4
 41
4.888888888888888
 71
    5
 72
    1
  1
80
  7
standard
210
0
220
0
230
1
 50
0
 73
    2
 44
1
  0
LINE
  5
C0
100
AcDbEntity
  8
rozmir
  6
ByBlock
 62
    0
370
   -2
100
AcDbLine
 10
4.5
 20
-61.00000000000001
 11
4.5
 21
-72
  0
LINE
  5
C1
100
AcDbEntity
  8
rozmir
  6
ByBlock
 62
    0
370
   -2
100
AcDbLine
 10
84.5
 20
-61.00000000000001
 11
84.5
 21
-72
  0
ENDBLK
  5
7B
330
79
100
AcDbEntity
  8
0
100
AcDbBlockEnd
  0
BLOCK
  5
7D
330
7C
100
AcDbEntity
  8
0
100
AcDbBlockBegin
  2
*D11
 70
    1
 10
0
 20
0
  3
*D11
  1

  0
LINE
  5
C2
100
AcDbEntity
  8
rozmir
  6
ByBlock
 62
    0
370
   -2
100
AcDbLine
 10
130
 20
-10
 11
217.6
 21
-10
  0
SOLID
  5
C3
100
AcDbEntity
  8
rozmir
  6
ByBlock
 62
    0
370
   -2
100
AcDbTrace
 10
130
 20
-10
 30
0
 11
135
 21
-9.16743068445432
 31
0
 12
135
 22
-10.83256931554568
 32
0
 13
135
 23
-10.83256931554568
 33
0
  0
SOLID
  5
C4
100
AcDbEntity
  8
rozmir
  6
ByBlock
 62
    0
370
   -2
100
AcDbTrace
 10
217.6
 20
-10
 30
0
 11
212.6
 21
-10.83256931554568
 31
0
 12
212.6
 22
-9.167430684454319
 32
0
 13
212.6
 23
-9.167430684454319
 33
0
  0
MTEXT
  5
C5
100
AcDbEntity
  8
rozmir
  6
CONTINUOUS
 62
    0
370
   -2
100
AcDbMText
 10
173.8
 20
-7
 30
0
 40
4
 41
9.555555555555802
 71
    5
 72
    1
  1
87,6
  7
standard
210
0
220
0
230
1
 50
0
 73
    2
 44
1
  0
LINE
  5
C6
100
AcDbEntity
  8
rozmir
  6
ByBlock
 62
    0
370
   -2
100
AcDbLine
 10
130
 20
-1
 11
130
 21
-12
  0
LINE
  5
C7
100
AcDbEntity
  8
rozmir
  6
ByBlock
 62
    0
370
   -2
100
AcDbLine
 10
217.6
 20
-0.9999999999999997
 11
217.6
 21
-12
  0
ENDBLK
  5
7E
330
7C
100
AcDbEntity
  8
0
100
AcDbBlockEnd
  0
BLOCK
  5
80
330
7F
100
AcDbEntity
  8
0
100
AcDbBlockBegin
  2
*D14
 70
    1
 10
0
 20
0
  3
*D14
  1

  0
LINE
  5
C8
100
AcDbEntity
  8
rozmir
  6
CONTINUOUS
 62
    7
370
    0
100
AcDbLine
 10
155.5
 20
-48.60660171779809
 11
160
 21
-42.5
  0
LINE
  5
C9
100
AcDbEntity
  8
rozmir
  6
CONTINUOUS
 62
    7
370
    0
100
AcDbLine
 10
160
 20
-42.5
 11
210
 21
-42.5
  0
SOLID
  5
CA
100
AcDbEntity
  8
rozmir
  6
CONTINUOUS
 62
    7
370
    0
100
AcDbTrace
 10
155.5
 20
-48.60660171779809
 30
0
 11
157.7959216412644
 21
-44.08754036809702
 31
0
 12
159.1364094153186
 22
-45.07535572957097
 32
0
 13
159.1364094153186
 23
-45.07535572957097
 33
0
  0
ENDBLK
  5
81
330
7F
100
AcDbEntity
  8
0
100
AcDbBlockEnd
  0
ENDSEC
  0
SECTION
  2
ENTITIES
  0
HATCH
  5
CB
100
AcDbEntity
  8
ramka
  6
ByLayer
 62
  256
370
   -1
100
AcDbHatch
 10
0
 20
0
 30
0
210
0
220
0
230
1
  2
gost_metal
 70
    0
 71
    0
 91
    1
 92
    0
 93
    9
 72
    1
 10
172.5
 20
-68.99999999999999
 11
172.5
 21
-70
 72
    1
 10
172.5
 20
-70
 11
150
 21
-70
 72
    1
 10
150
 20
-70
 11
150
 21
-47.5
 72
    1
 10
150
 20
-47.5
 11
150.9999999999999
 21
-47.5
 72
    1
 10
150.9999999999999
 20
-47.5
 11
152
 21
-48.50000000000001
 72
    1
 10
152
 20
-48.50000000000001
 11
152
 21
-66.49999999999999
 72
    1
 10
152
 20
-66.49999999999999
 11
153.4999999999999
 21
-67.99999999999997
 72
    1
 10
153.4999999999999
 20
-67.99999999999997
 11
171.5000000000001
 21
-67.99999999999997
 72
    1
 10
171.5000000000001
 20
-67.99999999999997
 11
172.5
 21
-68.99999999999999
 97
    0
 75
    0
 76
    1
 52
0
 41
0.5
 77
    0
 78
    0
 98
    0
  0
HATCH
  5
CC
100
AcDbEntity
  8
dveri
  6
ByLayer
 62
  256
370
   -1
100
AcDbHatch
 10
0
 20
0
 30
0
210
0
220
0
230
1
  2
gost_metal
 70
    0
 71
    0
 91
    1
 92
    0
 93
   10
 72
    1
 10
157
 20
-65.49999999999997
 11
172.5
 21
-65.49999999999997
 72
    1
 10
172.5
 20
-65.49999999999997
 11
173.4999999999999
 21
-66.49999999999999
 72
    1
 10
173.4999999999999
 20
-66.49999999999999
 11
173.4999999999999
 21
-67.5
 72
    1
 10
173.4999999999999
 20
-67.5
 11
155
 21
-67.5
 72
    1
 10
155
 20
-67.5
 11
153.4999999999999
 21
-66.00000000000001
 72
    1
 10
153.4999999999999
 20
-66.00000000000001
 11
153.4999999999999
 21
-47.5
 72
    1
 10
153.4999999999999
 20
-47.5
 11
154.5
 21
-47.5
 72
    1
 10
154.5
 20
-47.5
 11
155.5
 21
-48.50000000000001
 72
    1
 10
155.5
 20
-48.50000000000001
 11
155.5
 21
-63.99999999999999
 72
    1
 10
155.5
 20
-63.99999999999999
 11
157
 21
-65.49999999999997
 97
    0
 75
    0
 76
    1
 52
1.570796326794897
 41
0.5
 77
    0
 78
    0
 98
    0
  0
HATCH
  5
CD
100
AcDbEntity
  8
dveri
  6
ByLayer
 62
  256
370
   -1
100
AcDbHatch
 10
0
 20
0
 30
0
210
0
220
0
230
1
  2
gost_metal
 70
    0
 71
    0
 91
    1
 92
    0
 93
   10
 72
    1
 10
87.59999999999998
 20
-59.1
 11
84.5
 21
-59.10000000000001
 72
    1
 10
84.5
 20
-59.10000000000001
 11
84.3
 21
-59.3
 72
    1
 10
84.3
 20
-59.3
 11
84.3
 21
-59.50000000000001
 72
    1
 10
84.3
 20
-59.50000000000001
 11
87.99999999999999
 21
-59.5
 72
    1
 10
87.99999999999999
 20
-59.5
 11
88.29999999999998
 21
-59.2
 72
    1
 10
88.29999999999998
 20
-59.2
 11
88.3
 21
-55.50000000000001
 72
    1
 10
88.3
 20
-55.50000000000001
 11
88.09999999999999
 21
-55.50000000000001
 72
    1
 10
88.09999999999999
 20
-55.50000000000001
 11
87.90000000000001
 21
-55.70000000000001
 72
    1
 10
87.90000000000001
 20
-55.70000000000001
 11
87.89999999999999
 21
-58.8
 72
    1
 10
87.89999999999999
 20
-58.8
 11
87.59999999999998
 21
-59.1
 97
    0
 75
    0
 76
    1
 52
1.570796326794897
 41
0.1
 77
    0
 78
    0
 98
    0
  0
HATCH
  5
CE
100
AcDbEntity
  8
ramka
  6
ByLayer
 62
  256
370
   -1
100
AcDbHatch
 10
0
 20
0
 30
0
210
0
220
0
230
1
  2
gost_metal
 70
    0
 71
    0
 91
    1
 92
    0
 93
    9
 72
    1
 10
84.5
 20
-59.8
 11
84.5
 21
-60.00000000000001
 72
    1
 10
84.5
 20
-60.00000000000001
 11
88.99999999999999
 21
-60
 72
    1
 10
88.99999999999999
 20
-60
 11
89
 21
-55.50000000000001
 72
    1
 10
89
 20
-55.50000000000001
 11
88.8
 21
-55.50000000000001
 72
    1
 10
88.8
 20
-55.50000000000001
 11
88.59999999999999
 21
-55.70000000000001
 72
    1
 10
88.59999999999999
 20
-55.70000000000001
 11
88.59999999999998
 21
-59.3
 72
    1
 10
88.59999999999998
 20
-59.3
 11
88.29999999999998
 21
-59.6
 72
    1
 10
88.29999999999998
 20
-59.6
 11
84.7
 21
-59.60000000000001
 72
    1
 10
84.7
 20
-59.60000000000001
 11
84.5
 21
-59.8
 97
    0
 75
    0
 76
    1
 52
0
 41
0.1
 77
    0
 78
    0
 98
    0
  0
HATCH
  5
CF
100
AcDbEntity
  8
ramka
  6
ByLayer
 62
  256
370
   -1
100
AcDbHatch
 10
0
 20
0
 30
0
210
0
220
0
230
1
  2
gost_metal
 70
    0
 71
    0
 91
    1
 92
    0
 93
    9
 72
    1
 10
0.4000000000000139
 20
-55.70000000000001
 11
0.3999999999999997
 21
-59.3
 72
    1
 10
0.3999999999999997
 20
-59.3
 11
0.6999999999999997
 21
-59.6
 72
    1
 10
0.6999999999999997
 20
-59.6
 11
4.3
 21
-59.60000000000001
 72
    1
 10
4.3
 20
-59.60000000000001
 11
4.5
 21
-59.8
 72
    1
 10
4.5
 20
-59.8
 11
4.5
 21
-60.00000000000001
 72
    1
 10
4.5
 20
-60.00000000000001
 11
0
 21
-60
 72
    1
 10
0
 20
-60
 11
1.4210854715202e-14
 21
-55.50000000000001
 72
    1
 10
1.4210854715202e-14
 20
-55.50000000000001
 11
0.200000000000014
 21
-55.50000000000001
 72
    1
 10
0.200000000000014
 20
-55.50000000000001
 11
0.4000000000000139
 21
-55.70000000000001
 97
    0
 75
    0
 76
    1
 52
0
 41
0.1
 77
    0
 78
    0
 98
    0
  0
HATCH
  5
D0
100
AcDbEntity
  8
dveri
  6
ByLayer
 62
  256
370
   -1
100
AcDbHatch
 10
0
 20
0
 30
0
210
0
220
0
230
1
  2
gost_metal
 70
    0
 71
    0
 91
    1
 92
    0
 93
   10
 72
    1
 10
0.7000000000000142
 20
-55.50000000000001
 11
0.9000000000000139
 21
-55.50000000000001
 72
    1
 10
0.9000000000000139
 20
-55.50000000000001
 11
1.100000000000014
 21
-55.70000000000001
 72
    1
 10
1.100000000000014
 20
-55.70000000000001
 11
1.1
 21
-58.8
 72
    1
 10
1.1
 20
-58.8
 11
1.4
 21
-59.1
 72
    1
 10
1.4
 20
-59.1
 11
4.5
 21
-59.10000000000001
 72
    1
 10
4.5
 20
-59.10000000000001
 11
4.7
 21
-59.3
 72
    1
 10
4.7
 20
-59.3
 11
4.7
 21
-59.50000000000001
 72
    1
 10
4.7
 20
-59.50000000000001
 11
1
 21
-59.5
 72
    1
 10
1
 20
-59.5
 11
0.7000000000000001
 21
-59.2
 72
    1
 10
0.7000000000000001
 20
-59.2
 11
0.7000000000000142
 21
-55.50000000000001
 97
    0
 75
    0
 76
    1
 52
1.570796326794897
 41
0.1
 77
    0
 78
    0
 98
    0
  0
LWPOLYLINE
  5
D1
100
AcDbEntity
  8
ramka
  6
ByLayer
 62
  256
370
   -1
100
AcDbPolyline
 90
    4
 70
    1
 43
0
 10
-0.3400000000000619
 20
30
 10
1.259999999999938
 20
30
 10
1.259999999999938
 20
35
 10
-0.3400000000000619
 20
35
  0
LINE
  5
D2
100
AcDbEntity
  8
rozmir
  6
DASHDOT2
 62
  256
370
   -1
100
AcDbLine
 10
0.459999999999938
 20
36
 11
0.4599999999999381
 21
24
  0
LWPOLYLINE
  5
D3
100
AcDbEntity
  8
dveri
  6
CONTINUOUS
 62
   96
420
32768
370
   50
100
AcDbPolyline
 90
    4
 70
    1
 43
0
 10
-0.3400000000000619
 20
25
 10
1.259999999999938
 20
25
 10
1.259999999999938
 20
30
 10
-0.3400000000000619
 20
30
  0
LINE
  5
D4
100
AcDbEntity
  8
dveri
  6
CONTINUOUS
 62
    7
370
    0
100
AcDbLine
 10
0.7
 20
25.1
 11
0.7
 21
25.1
  0
CIRCLE
  5
D5
100
AcDbEntity
  8
rozmir
  6
ByLayer
 62
  256
370
   -1
100
AcDbCircle
 10
0
 20
-55
 40
10
  0
LINE
  5
D6
100
AcDbEntity
  8
rozmir
  6
ByLayer
 62
  256
370
  100
100
AcDbLine
 10
-7
 20
50
 11
-13
 21
50
  0
LEADER
  5
D7
100
AcDbEntity
  8
rozmir
  6
ByLayer
 62
  256
370
   -1
100
AcDbLeader
  3
Standard
 71
    1
 72
    0
 73
    3
 74
    0
 75
    0
 40
1
 41
10
 76
2
 76
2
 10
-10
 20
50
 30
0
 10
-10
 20
40
 30
0
  0
MTEXT
  5
D8
100
AcDbEntity
  8
rozmir
  6
ByLayer
 62
  256
370
   -1
100
AcDbMText
 10
-12.66666666666667
 20
43
 30
0
 40
4
 41
2.666666666666667
 71
    5
 72
    1
  1
A
  7
unicode
210
0
220
0
230
1
 50
0
 73
    2
 44
1
  0
LEADER
  5
D9
100
AcDbEntity
  8
rozmir
  6
ByLayer
 62
  256
370
   -1
100
AcDbLeader
  3
Standard
 71
    1
 72
    0
 73
    3
 74
    0
 75
    0
 40
1
 41
10
 76
3
 76
3
 10
6
 20
-47
 30
0
 10
11
 20
-40
 30
0
 10
20
 20
-40
 30
0
  0
MTEXT
  5
DA
100
AcDbEntity
  8
rozmir
  6
ByLayer
 62
  256
370
   -1
100
AcDbMText
 10
16
 20
-36
 30
0
 40
4
 41
2.222222222222222
 71
    5
 72
    1
  1
B
  7
unicode
210
0
220
0
230
1
 50
0
 73
    2
 44
1
  0
MTEXT
  5
DB
100
AcDbEntity
  8
rozmir
  6
ByLayer
 62
  256
370
   -1
100
AcDbMText
 10
46
 20
-27
 30
0
 40
4
 41
9.777777777777777
 71
    5
 72
    1
  1
A-A
  7
unicode
210
0
220
0
230
1
 50
0
 73
    2
 44
1
  0
LINE
  5
DC
100
AcDbEntity
  8
rozmir
  6
ByLayer
 62
  256
370
   -1
100
AcDbLine
 10
40
 20
-30
 11
52
 21
-30
  0
DIMENSION
  5
DD
100
AcDbEntity
  8
rozmir
  6
ByLayer
 62
  256
370
   -1
100
AcDbDimension
  2
*D3
 10
153.4999999999999
 20
-80
 30
0
 11
157
 21
-77
 31
0
 70
   32
  1
0,3
 71
    5
  3
Standard
 53
0
210
0
220
0
230
1
100
AcDbAlignedDimension
 13
152
 23
-66.49999999999999
 33
0
 14
153.4999999999999
 24
-66.00000000000001
 34
0
100
AcDbRotatedDimension
  0
LEADER
  5
DE
100
AcDbEntity
  8
rozmir
  6
ByLayer
 62
  256
370
   -1
100
AcDbLeader
  3
Standard
 71
    1
 72
    0
 73
    3
 74
    0
 75
    0
 40
1
 41
10
 76
3
 76
3
 10
153.4999999999999
 20
-66.00000000000001
 30
0
 10
140
 20
-80
 30
0
 10
100
 20
-80
 30
0
  0
MTEXT
  5
DF
100
AcDbEntity
  8
rozmir
  6
ByLayer
 62
  256
370
   -1
100
AcDbMText
 10
120
 20
-76
 30
0
 40
4
 41
38
 71
    5
 72
    1
  1
Фаска 2..3 мм
  7
unicode
210
0
220
0
230
1
 50
0
 73
    2
 44
1
  0
DIMENSION
  5
E0
100
AcDbEntity
  8
rozmir
  6
ByLayer
 62
  256
370
   -1
100
AcDbDimension
  2
*D5
 10
-10
 20
30
 30
0
 11
-13
 21
15
 31
0
 70
   32
 71
    5
  3
Standard
 53
0
210
0
220
0
230
1
100
AcDbAlignedDimension
 13
-0
 23
0
 33
0
 14
-0.3400000000000619
 24
30
 34
0
 50
90
100
AcDbRotatedDimension
  0
DIMENSION
  5
E1
100
AcDbEntity
  8
rozmir
  6
ByLayer
 62
  256
370
   -1
100
AcDbDimension
  2
*D6
 10
90
 20
-10
 30
0
 11
44.5
 21
-7
 31
0
 70
   32
 71
    5
  3
Standard
 53
0
210
0
220
0
230
1
100
AcDbAlignedDimension
 13
-0
 23
0
 33
0
 14
89
 24
0
 34
0
100
AcDbRotatedDimension
  0
LINE
  5
E2
100
AcDbEntity
  8
rozmir
  6
ByLayer
 62
  256
370
  100
100
AcDbLine
 10
107
 20
50
 11
101
 21
50
  0
LEADER
  5
E3
100
AcDbEntity
  8
rozmir
  6
ByLayer
 62
  256
370
   -1
100
AcDbLeader
  3
Standard
 71
    1
 72
    0
 73
    3
 74
    0
 75
    0
 40
1
 41
10
 76
2
 76
2
 10
104
 20
50
 30
0
 10
104
 20
40
 30
0
  0
MTEXT
  5
E4
100
AcDbEntity
  8
rozmir
  6
ByLayer
 62
  256
370
   -1
100
AcDbMText
 10
106.3333333333333
 20
43
 30
0
 40
4
 41
2.666666666666667
 71
    5
 72
    1
  1
A
  7
unicode
210
0
220
0
230
1
 50
0
 73
    2
 44
1
  0
LWPOLYLINE
  5
E5
100
AcDbEntity
  8
dveri
  6
ByLayer
 62
  256
370
   -1
100
AcDbPolyline
 90
    4
 70
    1
 43
0
 10
-0.3400000000001396
 20
94
 10
1.25999999999986
 20
94
 10
1.25999999999986
 20
99
 10
-0.3400000000001396
 20
99
  0
LWPOLYLINE
  5
E6
100
AcDbEntity
  8
ramka
  6
ByLayer
 62
  256
370
   -1
100
AcDbPolyline
 90
    4
 70
    1
 43
0
 10
-0.3400000000001396
 20
99
 10
1.25999999999986
 20
99
 10
1.25999999999986
 20
104
 10
-0.3400000000001396
 20
104
  0
LINE
  5
E7
100
AcDbEntity
  8
ramka
  6
ByLayer
 62
  256
370
   -1
100
AcDbLine
 10
0
 20
94
 11
0
 21
35
  0
LINE
  5
E8
100
AcDbEntity
  8
ramka
  6
ByLayer
 62
  256
370
   -1
100
AcDbLine
 10
0.4
 20
94
 11
0.4
 21
35
  0
LINE
  5
E9
100
AcDbEntity
  8
dveri
  6
ByLayer
 62
  256
370
   -1
100
AcDbLine
 10
0.7
 20
94
 11
0.7
 21
35
  0
LINE
  5
EA
100
AcDbEntity
  8
dveri
  6
ByLayer
 62
  256
370
   -1
100
AcDbLine
 10
1.1
 20
94
 11
1.1
 21
35
  0
LINE
  5
EB
100
AcDbEntity
  8
rozmir
  6
DASHDOT2
 62
  256
370
   -1
100
AcDbLine
 10
0.459999999999938
 20
105
 11
0.4599999999999381
 21
93.00000000000001
  0
DIMENSION
  5
EC
100
AcDbEntity
  8
rozmir
  6
ByLayer
 62
  256
370
   -1
100
AcDbDimension
  2
*D8
 10
-10
 20
99
 30
0
 11
-13
 21
114
 31
0
 70
   32
 71
    5
  3
Standard
 53
0
210
0
220
0
230
1
100
AcDbAlignedDimension
 13
-1.97215226305253e-31
 23
129
 33
0
 14
-0.3400000000001396
 24
99
 34
0
 50
90
100
AcDbRotatedDimension
  0
DIMENSION
  5
ED
100
AcDbEntity
  8
rozmir
  6
ByLayer
 62
  256
370
   -1
100
AcDbDimension
  2
*D9
 10
99
 20
130
 30
0
 11
96
 21
64.5
 31
0
 70
   32
 71
    5
  3
Standard
 53
0
210
0
220
0
230
1
100
AcDbAlignedDimension
 13
89
 23
0
 33
0
 14
89
 24
129
 34
0
 50
90
100
AcDbRotatedDimension
  0
LWPOLYLINE
  5
EE
100
AcDbEntity
  8
ramka
  6
ByLayer
 62
  256
370
   -1
100
AcDbPolyline
 90
    6
 70
    0
 43
0
 10
1.942890293094024e-16
 20
104
 10
0
 20
129
 10
89
 20
129
 10
89
 20
0
 10
0
 20
0
 10
-2.764499563309652e-17
 20
25
  0
LWPOLYLINE
  5
EF
100
AcDbEntity
  8
ramka
  6
ByLayer
 62
  256
370
   -1
100
AcDbPolyline
 90
    6
 70
    0
 43
0
 10
0.4000000000000001
 20
104
 10
0.4
 20
128.6
 10
88.60000000000002
 20
128.6
 10
88.60000000000002
 20
0.4
 10
0.4000000000000001
 20
0.3999999999999999
 10
0.4000000000000001
 20
25
  0
LWPOLYLINE
  5
F0
100
AcDbEntity
  8
dveri
  6
ByLayer
 62
  256
370
   -1
100
AcDbPolyline
 90
    6
 70
    0
 43
0
 10
0.7000000000000002
 20
104
 10
0.7000000000000001
 20
128.3
 10
88.30000000000001
 20
128.3
 10
88.30000000000001
 20
0.7000000000000001
 10
0.7000000000000002
 20
0.6999999999999997
 10
0.7000000000000001
 20
25
  0
LWPOLYLINE
  5
F1
100
AcDbEntity
  8
dveri
  6
ByLayer
 62
  256
370
   -1
100
AcDbPolyline
 90
    6
 70
    0
 43
0
 10
1.1
 20
104
 10
1.1
 20
127.9
 10
87.90000000000002
 20
127.9
 10
87.90000000000002
 20
1.1
 10
1.1
 20
1.1
 10
1.1
 20
25
  0
LWPOLYLINE
  5
F2
100
AcDbEntity
  8
ramka
  6
DASHED2
 62
  256
370
   -1
100
AcDbPolyline
 90
    6
 70
    0
 43
0
 10
4.5
 20
108.5
 10
4.500000000000001
 20
124.5
 10
84.5
 20
124.5
 10
84.50000000000001
 20
4.5
 10
4.5
 20
4.5
 10
4.5
 20
29.5
  0
LWPOLYLINE
  5
F3
100
AcDbEntity
  8
dveri
  6
ByLayer
 62
  256
370
   -1
100
AcDbPolyline
 90
    5
 70
    0
 43
0
 10
4.699999999999999
 20
4.7
 10
4.7
 20
124.3
 10
84.30000000000001
 20
124.3
 10
84.30000000000001
 20
4.7
 10
4.699999999999999
 20
4.7
  0
CIRCLE
  5
F4
100
AcDbEntity
  8
dveri
  6
ByLayer
 62
  256
370
   -1
100
AcDbCircle
 10
0.4600000000000142
 20
-54.73999999999999
 40
0.8000000000000007
  0
LINE
  5
F5
100
AcDbEntity
  8
rozmir
  6
DASHDOT2
 62
  256
370
   -1
100
AcDbLine
 10
0.4600000000000143
 20
-53.94
 11
0.4600000000000141
 21
-55.54000000000001
  0
LINE
  5
F6
100
AcDbEntity
  8
rozmir
  6
DASHDOT2
 62
  256
370
   -1
100
AcDbLine
 10
-0.3399999999999865
 20
-54.73999999999999
 11
1.260000000000015
 21
-54.73999999999999
  0
LWPOLYLINE
  5
F7
100
AcDbEntity
  8
ramka
  6
ByLayer
 62
  256
370
   -1
100
AcDbPolyline
 90
   10
 70
    0
 43
0
 10
0
 20
-60
 10
1.4210854715202e-14
 20
-55.50000000000001
 10
0.200000000000014
 20
-55.50000000000001
 10
0.4000000000000139
 20
-55.70000000000001
 10
0.3999999999999997
 20
-59.3
 10
0.6999999999999997
 20
-59.6
 10
4.3
 20
-59.60000000000001
 10
4.5
 20
-59.8
 10
4.5
 20
-60.00000000000001
 10
0
 20
-60
  0
LWPOLYLINE
  5
F8
100
AcDbEntity
  8
dveri
  6
CONTINUOUS
 62
   96
420
32768
370
   50
100
AcDbPolyline
 90
   11
 70
    0
 43
0
 10
1
 20
-59.5
 10
0.7000000000000001
 20
-59.2
 10
0.7000000000000142
 20
-55.50000000000001
 10
0.9000000000000139
 20
-55.50000000000001
 10
1.100000000000014
 20
-55.70000000000001
 10
1.1
 20
-58.8
 10
1.4
 20
-59.1
 10
4.5
 20
-59.10000000000001
 10
4.7
 20
-59.3
 10
4.7
 20
-59.50000000000001
 10
1
 20
-59.5
  0
LINE
  5
F9
100
AcDbEntity
  8
dveri
  6
ByLayer
 62
  256
370
   -1
100
AcDbLine
 10
0.900000000000015
 20
-55.50000000000001
 11
88.09999999999999
 21
-55.50000000000001
  0
LWPOLYLINE
  5
FA
100
AcDbEntity
  8
ramka
  6
ByLayer
 62
  256
370
   -1
100
AcDbPolyline
 90
   10
 70
    0
 43
0
 10
88.99999999999999
 20
-60
 10
89
 20
-55.50000000000001
 10
88.8
 20
-55.50000000000001
 10
88.59999999999999
 20
-55.70000000000001
 10
88.59999999999998
 20
-59.3
 10
88.29999999999998
 20
-59.6
 10
84.7
 20
-59.60000000000001
 10
84.5
 20
-59.8
 10
84.5
 20
-60.00000000000001
 10
88.99999999999999
 20
-60
  0
LWPOLYLINE
  5
FB
100
AcDbEntity
  8
dveri
  6
CONTINUOUS
 62
   96
420
32768
370
   50
100
AcDbPolyline
 90
   11
 70
    0
 43
0
 10
87.99999999999999
 20
-59.5
 10
88.29999999999998
 20
-59.2
 10
88.3
 20
-55.50000000000001
 10
88.09999999999999
 20
-55.50000000000001
 10
87.90000000000001
 20
-55.70000000000001
 10
87.89999999999999
 20
-58.8
 10
87.59999999999998
 20
-59.1
 10
84.5
 20
-59.10000000000001
 10
84.3
 20
-59.3
 10
84.3
 20
-59.50000000000001
 10
87.99999999999999
 20
-59.5
  0
LINE
  5
FC
100
AcDbEntity
  8
dveri
  6
ByLayer
 62
  256
370
   -1
100
AcDbLine
 10
84.29999999999998
 20
-59.50000000000001
 11
4.700000000000001
 21
-59.50000000000001
  0
DIMENSION
  5
FD
100
AcDbEntity
  8
rozmir
  6
ByLayer
 62
  256
370
   -1
100
AcDbDimension
  2
*D10
 10
85
 20
-70
 30
0
 11
44.5
 21
-67
 31
0
 70
   32
 71
    5
  3
Standard
 53
0
210
0
220
0
230
1
100
AcDbAlignedDimension
 13
4.5
 23
-60.00000000000001
 33
0
 14
84.5
 24
-60.00000000000001
 34
0
100
AcDbRotatedDimension
  0
LINE
  5
FE
100
AcDbEntity
  8
ramka
  6
ByLayer
 62
  256
370
   -1
100
AcDbLine
 10
4.5
 20
-60.00000000000001
 11
84.5
 21
-60.00000000000001
  0
LINE
  5
FF
100
AcDbEntity
  8
ramka
  6
ByLayer
 62
  256
370
   -1
100
AcDbLine
 10
84.70000000000002
 20
-59.60000000000001
 11
4.3
 21
-59.60000000000001
  0
LINE
  5
100
100
AcDbEntity
  8
ramka
  6
ByLayer
 62
  256
370
   -1
100
AcDbLine
 10
4.5
 20
-59.10000000000001
 11
84.5
 21
-59.10000000000001
  0
LWPOLYLINE
  5
101
100
AcDbEntity
  8
dveri
  6
CONTINUOUS
 62
   96
420
32768
370
   50
100
AcDbPolyline
 90
    4
 70
    1
 43
0
 10
128.96
 20
24.3
 10
130.5599999999999
 20
24.3
 10
130.5599999999999
 20
29.3
 10
128.96
 20
29.3
  0
LINE
  5
102
100
AcDbEntity
  8
dveri
  6
CONTINUOUS
 62
    7
370
    0
100
AcDbLine
 10
130
 20
24.4
 11
130
 21
24.4
  0
LWPOLYLINE
  5
103
100
AcDbEntity
  8
dveri
  6
ByLayer
 62
  256
370
   -1
100
AcDbPolyline
 90
    4
 70
    1
 43
0
 10
128.9599999999999
 20
93.3
 10
130.5599999999999
 20
93.3
 10
130.5599999999999
 20
98.3
 10
128.9599999999999
 20
98.3
  0
LWPOLYLINE
  5
104
100
AcDbEntity
  8
dveri
  6
ByLayer
 62
  256
370
   -1
100
AcDbPolyline
 90
    5
 70
    0
 43
0
 10
134
 20
4
 10
134
 20
123.6
 10
213.6
 20
123.6
 10
213.6
 20
4
 10
134
 20
4
  0
LINE
  5
105
100
AcDbEntity
  8
dveri
  6
ByLayer
 62
  256
370
   -1
100
AcDbLine
 10
130
 20
93.3
 11
130
 21
29.3
  0
LINE
  5
106
100
AcDbEntity
  8
dveri
  6
ByLayer
 62
  256
370
   -1
100
AcDbLine
 10
130.4
 20
93.3
 11
130.4
 21
29.3
  0
LWPOLYLINE
  5
107
100
AcDbEntity
  8
dveri
  6
ByLayer
 62
  256
370
   -1
100
AcDbPolyline
 90
    6
 70
    0
 43
0
 10
130
 20
98.3
 10
130
 20
127.6
 10
217.6
 20
127.6
 10
217.6
 20
3.33066907387547e-16
 10
130
 20
0
 10
130
 20
24.3
  0
LWPOLYLINE
  5
108
100
AcDbEntity
  8
dveri
  6
ByLayer
 62
  256
370
   -1
100
AcDbPolyline
 90
    6
 70
    0
 43
0
 10
130.4
 20
98.3
 10
130.4
 20
127.2
 10
217.2
 20
127.2
 10
217.2
 20
0.4000000000000004
 10
130.4
 20
0.4000000000000004
 10
130.4
 20
24.3
  0
DIMENSION
  5
109
100
AcDbEntity
  8
rozmir
  6
ByLayer
 62
  256
370
   -1
100
AcDbDimension
  2
*D11
 10
218.6
 20
-10
 30
0
 11
173.8
 21
-7
 31
0
 70
   32
 71
    5
  3
Standard
 53
0
210
0
220
0
230
1
100
AcDbAlignedDimension
 13
130
 23
-0
 33
0
 14
217.6
 24
3.33066907387547e-16
 34
0
100
AcDbRotatedDimension
  0
DIMENSION
  5
10A
100
AcDbEntity
  8
rozmir
  6
ByLayer
 62
  256
370
   -1
100
AcDbDimension
  2
*D12
 10
228
 20
127
 30
0
 11
225
 21
63.8
 31
0
 70
   32
 71
    5
  3
Standard
 53
0
210
0
220
0
230
1
100
AcDbAlignedDimension
 13
217.6
 23
3.33066907387547e-16
 33
0
 14
217.6
 24
127.6
 34
0
 50
90
100
AcDbRotatedDimension
  0
LWPOLYLINE
  5
10B
100
AcDbEntity
  8
rozmir
  6
DASHDOT2
 62
  256
370
   -1
100
AcDbPolyline
 90
    4
 70
    1
 43
0
 10
132.5
 20
2.5
 10
215.1
 20
2.5
 10
215.1
 20
125.1
 10
132.5
 20
125.1
  0
CIRCLE
  5
10C
100
AcDbEntity
  8
dveri
  6
ByLayer
 62
  256
370
   -1
100
AcDbCircle
 10
132.5
 20
16.7
 40
0.2000000000000002
  0
LINE
  5
10D
100
AcDbEntity
  8
rozmir
  6
DASHDOT2
 62
  256
370
   -1
100
AcDbLine
 10
132
 20
16.7
 11
133
 21
16.7
  0
CIRCLE
  5
10E
100
AcDbEntity
  8
dveri
  6
ByLayer
 62
  256
370
   -1
100
AcDbCircle
 10
132.5
 20
36.7
 40
0.2000000000000002
  0
LINE
  5
10F
100
AcDbEntity
  8
rozmir
  6
DASHDOT2
 62
  256
370
   -1
100
AcDbLine
 10
132
 20
36.7
 11
133
 21
36.7
  0
CIRCLE
  5
110
100
AcDbEntity
  8
dveri
  6
ByLayer
 62
  256
370
   -1
100
AcDbCircle
 10
132.5
 20
56.7
 40
0.2000000000000002
  0
LINE
  5
111
100
AcDbEntity
  8
rozmir
  6
DASHDOT2
 62
  256
370
   -1
100
AcDbLine
 10
132
 20
56.7
 11
133
 21
56.7
  0
CIRCLE
  5
112
100
AcDbEntity
  8
dveri
  6
ByLayer
 62
  256
370
   -1
100
AcDbCircle
 10
132.5
 20
76.7
 40
0.2000000000000002
  0
LINE
  5
113
100
AcDbEntity
  8
rozmir
  6
DASHDOT2
 62
  256
370
   -1
100
AcDbLine
 10
132
 20
76.7
 11
133
 21
76.7
  0
CIRCLE
  5
114
100
AcDbEntity
  8
dveri
  6
ByLayer
 62
  256
370
   -1
100
AcDbCircle
 10
132.5
 20
96.7
 40
0.2000000000000002
  0
LINE
  5
115
100
AcDbEntity
  8
rozmir
  6
DASHDOT2
 62
  256
370
   -1
100
AcDbLine
 10
132
 20
96.7
 11
133
 21
96.7
  0
CIRCLE
  5
116
100
AcDbEntity
  8
dveri
  6
ByLayer
 62
  256
370
   -1
100
AcDbCircle
 10
132.5
 20
116.7
 40
0.2000000000000002
  0
LINE
  5
117
100
AcDbEntity
  8
rozmir
  6
DASHDOT2
 62
  256
370
   -1
100
AcDbLine
 10
132
 20
116.7
 11
133
 21
116.7
  0
CIRCLE
  5
118
100
AcDbEntity
  8
dveri
  6
ByLayer
 62
  256
370
   -1
100
AcDbCircle
 10
132.5
 20
123.7
 40
0.2000000000000002
  0
LINE
  5
119
100
AcDbEntity
  8
rozmir
  6
DASHDOT2
 62
  256
370
   -1
100
AcDbLine
 10
132
 20
123.7
 11
133
 21
123.7
  0
CIRCLE
  5
11A
100
AcDbEntity
  8
dveri
  6
ByLayer
 62
  256
370
   -1
100
AcDbCircle
 10
215.1000000000001
 20
16.7
 40
0.2000000000000002
  0
LINE
  5
11B
100
AcDbEntity
  8
rozmir
  6
DASHDOT2
 62
  256
370
   -1
100
AcDbLine
 10
214.6000000000001
 20
16.7
 11
215.6000000000001
 21
16.7
  0
CIRCLE
  5
11C
100
AcDbEntity
  8
dveri
  6
ByLayer
 62
  256
370
   -1
100
AcDbCircle
 10
215.1000000000001
 20
36.7
 40
0.2000000000000002
  0
LINE
  5
11D
100
AcDbEntity
  8
rozmir
  6
DASHDOT2
 62
  256
370
   -1
100
AcDbLine
 10
214.6000000000001
 20
36.7
 11
215.6000000000001
 21
36.7
  0
CIRCLE
  5
11E
100
AcDbEntity
  8
dveri
  6
ByLayer
 62
  256
370
   -1
100
AcDbCircle
 10
215.1000000000001
 20
56.7
 40
0.2000000000000002
  0
LINE
  5
11F
100
AcDbEntity
  8
rozmir
  6
DASHDOT2
 62
  256
370
   -1
100
AcDbLine
 10
214.6000000000001
 20
56.7
 11
215.6000000000001
 21
56.7
  0
CIRCLE
  5
120
100
AcDbEntity
  8
dveri
  6
ByLayer
 62
  256
370
   -1
100
AcDbCircle
 10
215.1000000000001
 20
76.7
 40
0.2000000000000002
  0
LINE
  5
121
100
AcDbEntity
  8
rozmir
  6
DASHDOT2
 62
  256
370
   -1
100
AcDbLine
 10
214.6000000000001
 20
76.7
 11
215.6000000000001
 21
76.7
  0
CIRCLE
  5
122
100
AcDbEntity
  8
dveri
  6
ByLayer
 62
  256
370
   -1
100
AcDbCircle
 10
215.1000000000001
 20
96.7
 40
0.2000000000000002
  0
LINE
  5
123
100
AcDbEntity
  8
rozmir
  6
DASHDOT2
 62
  256
370
   -1
100
AcDbLine
 10
214.6000000000001
 20
96.7
 11
215.6000000000001
 21
96.7
  0
CIRCLE
  5
124
100
AcDbEntity
  8
dveri
  6
ByLayer
 62
  256
370
   -1
100
AcDbCircle
 10
215.1000000000001
 20
116.7
 40
0.2000000000000002
  0
LINE
  5
125
100
AcDbEntity
  8
rozmir
  6
DASHDOT2
 62
  256
370
   -1
100
AcDbLine
 10
214.6000000000001
 20
116.7
 11
215.6000000000001
 21
116.7
  0
CIRCLE
  5
126
100
AcDbEntity
  8
dveri
  6
ByLayer
 62
  256
370
   -1
100
AcDbCircle
 10
215.1
 20
123.7
 40
0.2000000000000002
  0
LINE
  5
127
100
AcDbEntity
  8
rozmir
  6
DASHDOT2
 62
  256
370
   -1
100
AcDbLine
 10
214.6
 20
123.7
 11
215.6
 21
123.7
  0
LWPOLYLINE
  5
128
100
AcDbEntity
  8
doshka
  6
ByLayer
 62
  256
370
   -1
100
AcDbPolyline
 90
    4
 70
    1
 43
0
 10
130.7
 20
0.6999999999999993
 10
216.9
 20
0.6999999999999993
 10
216.9
 20
20.7
 10
130.7
 20
20.7
  0
LWPOLYLINE
  5
129
100
AcDbEntity
  8
doshka
  6
ByLayer
 62
  256
370
   -1
100
AcDbPolyline
 90
    4
 70
    1
 43
0
 10
130.7
 20
20.7
 10
216.9
 20
20.7
 10
216.9
 20
40.7
 10
130.7
 20
40.7
  0
LWPOLYLINE
  5
12A
100
AcDbEntity
  8
doshka
  6
ByLayer
 62
  256
370
   -1
100
AcDbPolyline
 90
    4
 70
    1
 43
0
 10
130.7
 20
40.7
 10
216.9
 20
40.7
 10
216.9
 20
60.7
 10
130.7
 20
60.7
  0
LWPOLYLINE
  5
12B
100
AcDbEntity
  8
doshka
  6
ByLayer
 62
  256
370
   -1
100
AcDbPolyline
 90
    4
 70
    1
 43
0
 10
130.7
 20
60.7
 10
216.9
 20
60.7
 10
216.9
 20
80.7
 10
130.7
 20
80.7
  0
LWPOLYLINE
  5
12C
100
AcDbEntity
  8
doshka
  6
ByLayer
 62
  256
370
   -1
100
AcDbPolyline
 90
    4
 70
    1
 43
0
 10
130.7
 20
80.7
 10
216.9
 20
80.7
 10
216.9
 20
100.7
 10
130.7
 20
100.7
  0
LWPOLYLINE
  5
12D
100
AcDbEntity
  8
doshka
  6
ByLayer
 62
  256
370
   -1
100
AcDbPolyline
 90
    4
 70
    1
 43
0
 10
130.7
 20
100.7
 10
216.9
 20
100.7
 10
216.9
 20
120.7
 10
130.7
 20
120.7
  0
LWPOLYLINE
  5
12E
100
AcDbEntity
  8
doshka
  6
ByLayer
 62
  256
370
   -1
100
AcDbPolyline
 90
    4
 70
    1
 43
0
 10
130.7
 20
120.7
 10
216.9
 20
120.7
 10
216.9
 20
126.9
 10
130.7
 20
126.9
  0
CIRCLE
  5
12F
100
AcDbEntity
  8
dveri
  6
ByLayer
 62
  256
370
   -1
100
AcDbCircle
 10
132.5
 20
4.7
 40
0.2000000000000002
  0
LINE
  5
130
100
AcDbEntity
  8
rozmir
  6
DASHDOT2
 62
  256
370
   -1
100
AcDbLine
 10
132
 20
4.7
 11
133
 21
4.7
  0
CIRCLE
  5
131
100
AcDbEntity
  8
dveri
  6
ByLayer
 62
  256
370
   -1
100
AcDbCircle
 10
132.5
 20
24.7
 40
0.2000000000000002
  0
LINE
  5
132
100
AcDbEntity
  8
rozmir
  6
DASHDOT2
 62
  256
370
   -1
100
AcDbLine
 10
132
 20
24.7
 11
133
 21
24.7
  0
CIRCLE
  5
133
100
AcDbEntity
  8
dveri
  6
ByLayer
 62
  256
370
   -1
100
AcDbCircle
 10
132.5
 20
44.7
 40
0.2000000000000002
  0
LINE
  5
134
100
AcDbEntity
  8
rozmir
  6
DASHDOT2
 62
  256
370
   -1
100
AcDbLine
 10
132
 20
44.7
 11
133
 21
44.7
  0
CIRCLE
  5
135
100
AcDbEntity
  8
dveri
  6
ByLayer
 62
  256
370
   -1
100
AcDbCircle
 10
132.5
 20
64.7
 40
0.2000000000000002
  0
LINE
  5
136
100
AcDbEntity
  8
rozmir
  6
DASHDOT2
 62
  256
370
   -1
100
AcDbLine
 10
132
 20
64.7
 11
133
 21
64.7
  0
CIRCLE
  5
137
100
AcDbEntity
  8
dveri
  6
ByLayer
 62
  256
370
   -1
100
AcDbCircle
 10
132.5
 20
84.7
 40
0.2000000000000002
  0
LINE
  5
138
100
AcDbEntity
  8
rozmir
  6
DASHDOT2
 62
  256
370
   -1
100
AcDbLine
 10
132
 20
84.7
 11
133
 21
84.7
  0
CIRCLE
  5
139
100
AcDbEntity
  8
dveri
  6
ByLayer
 62
  256
370
   -1
100
AcDbCircle
 10
132.5
 20
104.7
 40
0.2000000000000002
  0
LINE
  5
13A
100
AcDbEntity
  8
rozmir
  6
DASHDOT2
 62
  256
370
   -1
100
AcDbLine
 10
132
 20
104.7
 11
133
 21
104.7
  0
CIRCLE
  5
13B
100
AcDbEntity
  8
dveri
  6
ByLayer
 62
  256
370
   -1
100
AcDbCircle
 10
215.1
 20
24.7
 40
0.2000000000000002
  0
LINE
  5
13C
100
AcDbEntity
  8
rozmir
  6
DASHDOT2
 62
  256
370
   -1
100
AcDbLine
 10
214.6
 20
24.7
 11
215.6
 21
24.7
  0
CIRCLE
  5
13D
100
AcDbEntity
  8
dveri
  6
ByLayer
 62
  256
370
   -1
100
AcDbCircle
 10
215.1
 20
44.7
 40
0.2000000000000002
  0
LINE
  5
13E
100
AcDbEntity
  8
rozmir
  6
DASHDOT2
 62
  256
370
   -1
100
AcDbLine
 10
214.6
 20
44.7
 11
215.6
 21
44.7
  0
CIRCLE
  5
13F
100
AcDbEntity
  8
dveri
  6
ByLayer
 62
  256
370
   -1
100
AcDbCircle
 10
215.1
 20
64.7
 40
0.2000000000000002
  0
LINE
  5
140
100
AcDbEntity
  8
rozmir
  6
DASHDOT2
 62
  256
370
   -1
100
AcDbLine
 10
214.6
 20
64.7
 11
215.6
 21
64.7
  0
CIRCLE
  5
141
100
AcDbEntity
  8
dveri
  6
ByLayer
 62
  256
370
   -1
100
AcDbCircle
 10
215.1
 20
84.7
 40
0.2000000000000002
  0
LINE
  5
142
100
AcDbEntity
  8
rozmir
  6
DASHDOT2
 62
  256
370
   -1
100
AcDbLine
 10
214.6
 20
84.7
 11
215.6
 21
84.7
  0
CIRCLE
  5
143
100
AcDbEntity
  8
dveri
  6
ByLayer
 62
  256
370
   -1
100
AcDbCircle
 10
215.1
 20
104.7
 40
0.2000000000000002
  0
LINE
  5
144
100
AcDbEntity
  8
rozmir
  6
DASHDOT2
 62
  256
370
   -1
100
AcDbLine
 10
214.6
 20
104.7
 11
215.6
 21
104.7
  0
CIRCLE
  5
145
100
AcDbEntity
  8
dveri
  6
ByLayer
 62
  256
370
   -1
100
AcDbCircle
 10
215.1
 20
4.7
 40
0.2000000000000002
  0
LINE
  5
146
100
AcDbEntity
  8
rozmir
  6
DASHDOT2
 62
  256
370
   -1
100
AcDbLine
 10
214.6
 20
4.7
 11
215.6
 21
4.7
  0
DIMENSION
  5
147
100
AcDbEntity
  8
rozmir
  6
ByLayer
 62
  256
370
   -1
100
AcDbDimension
  2
*D13
 10
187.5
 20
-68
 30
0
 11
184.5
 21
-67.75
 31
0
 70
   32
  1
0,1
 71
    5
  3
Standard
 53
0
210
0
220
0
230
1
100
AcDbAlignedDimension
 13
173.4999999999999
 23
-67.5
 33
0
 14
171.5
 24
-68
 34
0
 50
90
100
AcDbRotatedDimension
  0
CIRCLE
  5
148
100
AcDbEntity
  8
dveri
  6
ByLayer
 62
  256
370
   -1
100
AcDbCircle
 10
152.3
 20
-43.69999999999997
 40
4.000000000000004
  0
LINE
  5
149
100
AcDbEntity
  8
rozmir
  6
DASHDOT2
 62
  256
370
   -1
100
AcDbLine
 10
152.3
 20
-39.69999999999999
 11
152.3
 21
-47.69999999999996
  0
LINE
  5
14A
100
AcDbEntity
  8
rozmir
  6
DASHDOT2
 62
  256
370
   -1
100
AcDbLine
 10
148.3
 20
-43.69999999999997
 11
156.3
 21
-43.69999999999997
  0
MTEXT
  5
14B
100
AcDbEntity
  8
rozmir
  6
ByLayer
 62
  256
370
   -1
100
AcDbMText
 10
176
 20
-29.5
 30
0
 40
4
 41
32.33333333333333
 71
    5
 72
    1
  1
B збiльшено
  7
unicode
210
0
220
0
230
1
 50
0
 73
    2
 44
1
  0
LINE
  5
14C
100
AcDbEntity
  8
rozmir
  6
ByLayer
 62
  256
370
   -1
100
AcDbLine
 10
159
 20
-32.5
 11
193
 21
-32.5
  0
LEADER
  5
14D
100
AcDbEntity
  8
rozmir
  6
ByLayer
 62
  256
370
   -1
100
AcDbLeader
  3
Standard
 71
    1
 72
    0
 73
    3
 74
    0
 75
    0
 40
1
 41
10
 76
3
 76
3
 10
155.5
 20
-48.60660171779809
 30
0
 10
160
 20
-42.5
 30
0
 10
210
 20
-42.5
 30
0
  0
LEADER
  5
14E
100
AcDbEntity
  8
rozmir
  6
ByLayer
 62
  256
370
   -1
100
AcDbLeader
  3
Standard
 71
    1
 72
    0
 73
    3
 74
    0
 75
    0
 40
1
 41
10
 76
3
 76
3
 10
152
 20
-59.5
 30
0
 10
160
 20
-52.5
 30
0
 10
210
 20
-52.5
 30
0
  0
LEADER
  5
14F
100
AcDbEntity
  8
rozmir
  6
ByLayer
 62
  256
370
   -1
100
AcDbLeader
  3
Standard
 71
    1
 72
    0
 73
    3
 74
    0
 75
    0
 40
1
 41
10
 76
3
 76
3
 10
149
 20
-46.00000000000001
 30
0
 10
140
 20
-52.5
 30
0
 10
100
 20
-52.5
 30
0
  0
MTEXT
  5
150
100
AcDbEntity
  8
rozmir
  6
ByLayer
 62
  256
370
   -1
100
AcDbMText
 10
121.1111111111111
 20
-44.83333333333334
 30
0
 40
4
 41
35.66666666666666
 71
    5
 72
    1
  1
Петля\Pø16 х 100 мм
  7
unicode
210
0
220
0
230
1
 50
0
 73
    2
 44
1
  0
LWPOLYLINE
  5
151
100
AcDbEntity
  8
ramka
  6
ByLayer
 62
  256
370
   -1
100
AcDbPolyline
 90
   10
 70
    0
 43
0
 10
150
 20
-70
 10
150
 20
-47.5
 10
150.9999999999999
 20
-47.5
 10
152
 20
-48.50000000000001
 10
152
 20
-66.49999999999999
 10
153.4999999999999
 20
-67.99999999999997
 10
171.5000000000001
 20
-67.99999999999997
 10
172.5
 20
-68.99999999999999
 10
172.5
 20
-70
 10
150
 20
-70
  0
LWPOLYLINE
  5
152
100
AcDbEntity
  8
dveri
  6
CONTINUOUS
 62
   96
420
32768
370
   50
100
AcDbPolyline
 90
   11
 70
    0
 43
0
 10
155
 20
-67.5
 10
153.4999999999999
 20
-66.00000000000001
 10
153.4999999999999
 20
-47.5
 10
154.5
 20
-47.5
 10
155.5
 20
-48.50000000000001
 10
155.5
 20
-63.99999999999999
 10
157
 20
-65.49999999999997
 10
172.5
 20
-65.49999999999997
 10
173.4999999999999
 20
-66.49999999999999
 10
173.4999999999999
 20
-67.5
 10
155
 20
-67.5
  0
MTEXT
  5
153
100
AcDbEntity
  8
rozmir
  6
ByLayer
 62
  256
370
   -1
100
AcDbMText
 10
188
 20
-38.5
 30
0
 40
4
 41
54.88888888888889
 71
    5
 72
    1
  1
Кутник 40х40х4 мм
  7
unicode
210
0
220
0
230
1
 50
0
 73
    2
 44
1
  0
MTEXT
  5
154
100
AcDbEntity
  8
rozmir
  6
ByLayer
 62
  256
370
   -1
100
AcDbMText
 10
188
 20
-48.5
 30
0
 40
4
 41
54.88888888888889
 71
    5
 72
    1
  1
Кутник 45х45х4 мм
  7
unicode
210
0
220
0
230
1
 50
0
 73
    2
 44
1
  0
ENDSEC
  0
SECTION
  2
OBJECTS
  0
DICTIONARY
  5
C
330
0
100
AcDbDictionary
281
    1
  3
ACAD_GROUP
350
D
  0
DICTIONARY
  5
D
330
C
100
AcDbDictionary
281
    1
  0
ENDSEC
  0
EOF
