999
dxfrw 0.6.3
  0
SECTION
  2
HEADER
  9
$ACADVER
  1
AC1021
  9
$DWGCODEPAGE
  3
ANSI_1252
  9
$INSBASE
 10
0
 20
0
 30
0
  9
$EXTMIN
 10
-9.700000000000003
 20
-40.66666666666666
 30
0
  9
$EXTMAX
 10
203.2222222222222
 20
91
 30
0
  9
$LIMMIN
 10
0
 20
0
  9
$LIMMAX
 10
420
 20
297
  9
$ORTHOMODE
 70
    0
  9
$REGENMODE
 70
    1
  9
$FILLMODE
 70
    1
  9
$QTEXTMODE
 70
    0
  9
$MIRRTEXT
 70
    0
  9
$LTSCALE
 40
1
  9
$ATTMODE
 70
    0
  9
$TEXTSIZE
 40
2.5
  9
$TRACEWID
 40
15.68
  9
$TEXTSTYLE
  7
STANDARD
  9
$CLAYER
  8
dimensions
  9
$CELTYPE
  6
BYLAYER
  9
$CECOLOR
 62
  256
  9
$CELTSCALE
 40
1
  9
$DISPSILH
 70
    0
  9
$DIMSCALE
 40
1
  9
$DIMASZ
 40
2
  9
$DIMEXO
 40
1
  9
$DIMDLI
 40
3.75
  9
$DIMRND
 40
0
  9
$DIMDLE
 40
0
  9
$DIMEXE
 40
2
  9
$DIMTP
 40
0
  9
$DIMTM
 40
0
  9
$DIMTXT
 40
3
  9
$DIMCEN
 40
2.5
  9
$DIMTSZ
 40
2
  9
$DIMTOL
 70
    0
  9
$DIMLIM
 70
    0
  9
$DIMTIH
 70
    0
  9
$DIMTOH
 70
    0
  9
$DIMSE1
 70
    0
  9
$DIMSE2
 70
    0
  9
$DIMTAD
 70
    1
  9
$DIMZIN
 70
    8
  9
$DIMBLK
  1

  9
$DIMASO
 70
    1
  9
$DIMSHO
 70
    1
  9
$DIMPOST
  1

  9
$DIMAPOST
  1

  9
$DIMALT
 70
    0
  9
$DIMALTD
 70
    3
  9
$DIMALTF
 40
0.03937
  9
$DIMLFAC
 40
10
  9
$DIMTOFL
 70
    1
  9
$DIMTVP
 40
0
  9
$DIMTIX
 70
    0
  9
$DIMSOXD
 70
    0
  9
$DIMSAH
 70
    0
  9
$DIMBLK1
  1

  9
$DIMBLK2
  1

  9
$DIMSTYLE
  2
STANDARD
  9
$DIMCLRD
 70
    0
  9
$DIMCLRE
 70
    0
  9
$DIMCLRT
 70
    0
  9
$DIMTFAC
 40
1
  9
$DIMGAP
 40
2
  9
$DIMJUST
 70
    0
  9
$DIMSD1
 70
    0
  9
$DIMSD2
 70
    0
  9
$DIMTOLJ
 70
    0
  9
$DIMTZIN
 70
    8
  9
$DIMALTZ
 70
    0
  9
$DIMALTTZ
 70
    0
  9
$DIMUPT
 70
    0
  9
$DIMDEC
 70
    1
  9
$DIMTDEC
 70
    2
  9
$DIMALTU
 70
    2
  9
$DIMALTTD
 70
    3
  9
$DIMTXSTY
  7
standard
  9
$DIMAUNIT
 70
    0
  9
$DIMADEC
 70
    0
  9
$DIMALTRND
 40
0
  9
$DIMAZIN
 70
    0
  9
$DIMDSEP
 70
   44
  9
$DIMATFIT
 70
    3
  9
$DIMFRAC
 70
    0
  9
$DIMLDRBLK
  1
STANDARD
  9
$DIMLUNIT
 70
    2
  9
$DIMLWD
 70
   -2
  9
$DIMLWE
 70
   -2
  9
$DIMTMOVE
 70
    0
  9
$DIMFXL
 40
1
  9
$DIMFXLON
 70
    0
  9
$DIMJOGANG
 40
0.7854
  9
$DIMTFILL
 70
    0
  9
$DIMTFILLCLR
 70
    0
  9
$DIMARCSYM
 70
    0
  9
$DIMLTYPE
  6

  9
$DIMLTEX1
  6

  9
$DIMLTEX2
  6

  9
$LUNITS
 70
    2
  9
$LUPREC
 70
    2
  9
$SKETCHINC
 40
1
  9
$FILLETRAD
 40
0
  9
$AUNITS
 70
    0
  9
$AUPREC
 70
    2
  9
$MENU
  1
.
  9
$ELEVATION
 40
0
  9
$PELEVATION
 40
0
  9
$THICKNESS
 40
0
  9
$LIMCHECK
 70
    0
  9
$CHAMFERA
 40
0
  9
$CHAMFERB
 40
0
  9
$CHAMFERC
 40
0
  9
$CHAMFERD
 40
0
  9
$SKPOLY
 70
    0
  9
$USRTIMER
 70
    1
  9
$ANGBASE
 50
0
  9
$ANGDIR
 70
    0
  9
$PDMODE
 70
   34
  9
$PDSIZE
 40
0
  9
$PLINEWID
 40
0
  9
$SPLFRAME
 70
    0
  9
$SPLINETYPE
 70
    2
  9
$SPLINESEGS
 70
    8
  9
$HANDSEED
  5
20000
  9
$SURFTAB1
 70
    6
  9
$SURFTAB2
 70
    6
  9
$SURFTYPE
 70
    6
  9
$SURFU
 70
    6
  9
$SURFV
 70
    6
  9
$UCSBASE
  2

  9
$UCSNAME
  2

  9
$UCSORG
 10
0
 20
0
 30
0
  9
$UCSXDIR
 10
1
 20
0
 30
0
  9
$UCSYDIR
 10
0
 20
1
 30
0
  9
$UCSORTHOREF
  2

  9
$UCSORTHOVIEW
 70
    0
  9
$UCSORGTOP
 10
0
 20
0
 30
0
  9
$UCSORGBOTTOM
 10
0
 20
0
 30
0
  9
$UCSORGLEFT
 10
0
 20
0
 30
0
  9
$UCSORGRIGHT
 10
0
 20
0
 30
0
  9
$UCSORGFRONT
 10
0
 20
0
 30
0
  9
$UCSORGBACK
 10
0
 20
0
 30
0
  9
$PUCSBASE
  2

  9
$PUCSNAME
  2

  9
$PUCSORG
 10
0
 20
0
 30
0
  9
$PUCSXDIR
 10
1
 20
0
 30
0
  9
$PUCSYDIR
 10
0
 20
1
 30
0
  9
$PUCSORTHOREF
  2

  9
$PUCSORTHOVIEW
 70
    0
  9
$PUCSORGTOP
 10
0
 20
0
 30
0
  9
$PUCSORGBOTTOM
 10
0
 20
0
 30
0
  9
$PUCSORGLEFT
 10
0
 20
0
 30
0
  9
$PUCSORGRIGHT
 10
0
 20
0
 30
0
  9
$PUCSORGFRONT
 10
0
 20
0
 30
0
  9
$PUCSORGBACK
 10
0
 20
0
 30
0
  9
$USERI1
 70
    0
  9
$USERI2
 70
    0
  9
$USERI3
 70
    0
  9
$USERI4
 70
    0
  9
$USERI5
 70
    0
  9
$USERR1
 40
0
  9
$USERR2
 40
0
  9
$USERR3
 40
0
  9
$USERR4
 40
0
  9
$USERR5
 40
0
  9
$WORLDVIEW
 70
    1
  9
$SHADEDGE
 70
    3
  9
$SHADEDIF
 70
   70
  9
$TILEMODE
 70
    1
  9
$MAXACTVP
 70
   64
  9
$PINSBASE
 10
2.663616982675911
 20
5.016170733875211
 30
0
  9
$PLIMCHECK
 70
    0
  9
$PEXTMIN
 10
0
 20
0
 30
0
  9
$PEXTMAX
 10
0
 20
0
 30
0
  9
$GRIDMODE
 70
    1
  9
$SNAPSTYLE
 70
    0
  9
$GRIDUNIT
 10
0
 20
0
  9
$PLIMMIN
 10
0
 20
0
  9
$PLIMMAX
 10
29.7
 20
21
  9
$UNITMODE
 70
    0
  9
$VISRETAIN
 70
    1
  9
$PLINEGEN
 70
    0
  9
$PSLTSCALE
 70
    1
  9
$TREEDEPTH
 70
 3020
  9
$CMLSTYLE
  2
Standard
  9
$CMLJUST
 70
    0
  9
$CMLSCALE
 40
20
  9
$PROXYGRAPHICS
 70
    1
  9
$MEASUREMENT
 70
    1
  9
$CELWEIGHT
370
   -1
  9
$ENDCAPS
280
    0
  9
$JOINSTYLE
280
    0
  9
$LWDISPLAY
290
    0
  9
$INSUNITS
 70
    5
  9
$HYPERLINKBASE
  1

  9
$STYLESHEET
  1

  9
$XEDIT
290
    1
  9
$CEPSNTYPE
380
    0
  9
$PSTYLEMODE
290
    1
  9
$EXTNAMES
290
    1
  9
$PSVPSCALE
 40
0.1413617376184788
  9
$OLESTARTUP
290
    0
  9
$SORTENTS
280
  127
  9
$INDEXCTL
280
    0
  9
$HIDETEXT
280
    1
  9
$XCLIPFRAME
290
    0
  9
$HALOGAP
280
    0
  9
$OBSCOLOR
 70
  257
  9
$OBSLTYPE
280
    0
  9
$INTERSECTIONDISPLAY
280
    0
  9
$INTERSECTIONCOLOR
 70
  257
  9
$DIMASSOC
280
    1
  9
$PROJECTNAME
  1

  9
$CAMERADISPLAY
290
    0
  9
$LENSLENGTH
 40
50
  9
$CAMERAHEIGHT
 40
0
  9
$STEPSPERSEC
 40
2
  9
$STEPSIZE
 40
50
  9
$3DDWFPREC
 40
2
  9
$PSOLWIDTH
 40
5
  9
$PSOLHEIGHT
 40
80
  9
$LOFTANG1
 40
1.570796326794897
  9
$LOFTANG2
 40
1.570796326794897
  9
$LOFTMAG1
 40
0
  9
$LOFTMAG2
 40
0
  9
$LOFTPARAM
 70
    7
  9
$LOFTNORMALS
280
    1
  9
$LATITUDE
 40
1
  9
$LONGITUDE
 40
1
  9
$NORTHDIRECTION
 40
0
  9
$TIMEZONE
 70
-8000
  9
$LIGHTGLYPHDISPLAY
280
    1
  9
$TILEMODELIGHTSYNCH
280
    1
  9
$SOLIDHIST
280
    1
  9
$SHOWHIST
280
    1
  9
$DWFFRAME
280
    2
  9
$DGNFRAME
280
    0
  9
$REALWORLDSCALE
290
    1
  9
$INTERFERECOLOR
 62
    1
  9
$CSHADOW
280
    0
  9
$SHADOWPLANELOCATION
 40
0
  0
ENDSEC
  0
SECTION
  2
CLASSES
  0
ENDSEC
  0
SECTION
  2
TABLES
  0
TABLE
  2
VPORT
  5
8
330
0
100
AcDbSymbolTable
 70
    1
  0
VPORT
  5
31
330
2
100
AcDbSymbolTableRecord
100
AcDbViewportTableRecord
  2
*ACTIVE
 70
    0
 10
0
 20
0
 11
1
 21
1
 12
106.3365079365079
 22
46.77301587301587
 13
0
 23
0
 14
10
 24
10
 15
10
 25
10
 16
0
 26
0
 36
1
 17
0
 27
0
 37
0
 40
136.6825396825397
 41
1.695412844036697
 42
50
 43
0
 44
0
 50
0
 51
0
 71
    0
 72
  100
 73
    1
 74
    3
 75
    0
 76
    1
 77
    0
 78
    0
281
    0
 65
    1
110
0
120
0
130
0
111
1
121
0
131
0
112
0
122
1
132
0
 79
    0
146
0
348
10020
 60
    7
 61
    5
292
1
282
    1
141
0
142
0
 63
  250
421
3358443
  0
ENDTAB
  0
TABLE
  2
LTYPE
  5
5
330
0
100
AcDbSymbolTable
 70
    4
  0
LTYPE
  5
14
330
5
100
AcDbSymbolTableRecord
100
AcDbLinetypeTableRecord
  2
ByBlock
 70
    0
  3

 72
   65
 73
    0
 40
0
  0
LTYPE
  5
15
330
5
100
AcDbSymbolTableRecord
100
AcDbLinetypeTableRecord
  2
ByLayer
 70
    0
  3

 72
   65
 73
    0
 40
0
  0
LTYPE
  5
16
330
5
100
AcDbSymbolTableRecord
100
AcDbLinetypeTableRecord
  2
Continuous
 70
    0
  3
Solid line
 72
   65
 73
    0
 40
0
  0
LTYPE
  5
32
330
5
100
AcDbSymbolTableRecord
100
AcDbLinetypeTableRecord
  2
DOT
 70
    0
  3
Dot . . . . . . . . . . . . . . . . . . . . . .
 72
   65
 73
    2
 40
6.35
 49
0
 74
    0
 49
-6.35
 74
    0
  0
LTYPE
  5
33
330
5
100
AcDbSymbolTableRecord
100
AcDbLinetypeTableRecord
  2
DOTTINY
 70
    0
  3
Dot (.15x) .....................................
 72
   65
 73
    2
 40
0.9525
 49
0
 74
    0
 49
-0.9525
 74
    0
  0
LTYPE
  5
34
330
5
100
AcDbSymbolTableRecord
100
AcDbLinetypeTableRecord
  2
DOT2
 70
    0
  3
Dot (.5x) .....................................
 72
   65
 73
    2
 40
3.175
 49
0
 74
    0
 49
-3.175
 74
    0
  0
LTYPE
  5
35
330
5
100
AcDbSymbolTableRecord
100
AcDbLinetypeTableRecord
  2
DOTX2
 70
    0
  3
Dot (2x) .  .  .  .  .  .  .  .  .  .  .  .  .
 72
   65
 73
    2
 40
12.7
 49
0
 74
    0
 49
-12.7
 74
    0
  0
LTYPE
  5
36
330
5
100
AcDbSymbolTableRecord
100
AcDbLinetypeTableRecord
  2
DASHED
 70
    0
  3
Dashed _ _ _ _ _ _ _ _ _ _ _ _ _ _ _ _ _
 72
   65
 73
    2
 40
19.05
 49
12.7
 74
    0
 49
-6.35
 74
    0
  0
LTYPE
  5
37
330
5
100
AcDbSymbolTableRecord
100
AcDbLinetypeTableRecord
  2
DASHEDTINY
 70
    0
  3
Dashed (.15x) _ _ _ _ _ _ _ _ _ _ _ _ _ _ _ _ _
 72
   65
 73
    2
 40
2.8575
 49
1.905
 74
    0
 49
-0.9525
 74
    0
  0
LTYPE
  5
38
330
5
100
AcDbSymbolTableRecord
100
AcDbLinetypeTableRecord
  2
DASHED2
 70
    0
  3
Dashed (.5x) _ _ _ _ _ _ _ _ _ _ _ _ _ _ _ _ _
 72
   65
 73
    2
 40
9.524999999999999
 49
6.35
 74
    0
 49
-3.175
 74
    0
  0
LTYPE
  5
39
330
5
100
AcDbSymbolTableRecord
100
AcDbLinetypeTableRecord
  2
DASHEDX2
 70
    0
  3
Dashed (2x) ____  ____  ____  ____  ____  ___
 72
   65
 73
    2
 40
38.09999999999999
 49
25.4
 74
    0
 49
-12.7
 74
    0
  0
LTYPE
  5
3A
330
5
100
AcDbSymbolTableRecord
100
AcDbLinetypeTableRecord
  2
DASHDOT
 70
    0
  3
Dash dot __ . __ . __ . __ . __ . __ . __ . __
 72
   65
 73
    4
 40
25.4
 49
12.7
 74
    0
 49
-6.35
 74
    0
 49
0
 74
    0
 49
-6.35
 74
    0
  0
LTYPE
  5
3B
330
5
100
AcDbSymbolTableRecord
100
AcDbLinetypeTableRecord
  2
DASHDOTTINY
 70
    0
  3
Dash dot (.15x) _._._._._._._._._._._._._._._.
 72
   65
 73
    4
 40
3.81
 49
1.905
 74
    0
 49
-0.9525
 74
    0
 49
0
 74
    0
 49
-0.9525
 74
    0
  0
LTYPE
  5
3C
330
5
100
AcDbSymbolTableRecord
100
AcDbLinetypeTableRecord
  2
DASHDOT2
 70
    0
  3
Dash dot (.5x) _._._._._._._._._._._._._._._.
 72
   65
 73
    4
 40
12.7
 49
6.35
 74
    0
 49
-3.175
 74
    0
 49
0
 74
    0
 49
-3.175
 74
    0
  0
LTYPE
  5
3D
330
5
100
AcDbSymbolTableRecord
100
AcDbLinetypeTableRecord
  2
DASHDOTX2
 70
    0
  3
Dash dot (2x) ____  .  ____  .  ____  .  ___
 72
   65
 73
    4
 40
50.8
 49
25.4
 74
    0
 49
-12.7
 74
    0
 49
0
 74
    0
 49
-12.7
 74
    0
  0
LTYPE
  5
3E
330
5
100
AcDbSymbolTableRecord
100
AcDbLinetypeTableRecord
  2
DIVIDE
 70
    0
  3
Divide ____ . . ____ . . ____ . . ____ . . ____
 72
   65
 73
    6
 40
31.75
 49
12.7
 74
    0
 49
-6.35
 74
    0
 49
0
 74
    0
 49
-6.35
 74
    0
 49
0
 74
    0
 49
-6.35
 74
    0
  0
LTYPE
  5
3F
330
5
100
AcDbSymbolTableRecord
100
AcDbLinetypeTableRecord
  2
DIVIDETINY
 70
    0
  3
Divide (.15x) __..__..__..__..__..__..__..__.._
 72
   65
 73
    6
 40
4.7625
 49
1.905
 74
    0
 49
-0.9525
 74
    0
 49
0
 74
    0
 49
-0.9525
 74
    0
 49
0
 74
    0
 49
-0.9525
 74
    0
  0
LTYPE
  5
40
330
5
100
AcDbSymbolTableRecord
100
AcDbLinetypeTableRecord
  2
DIVIDE2
 70
    0
  3
Divide (.5x) __..__..__..__..__..__..__..__.._
 72
   65
 73
    6
 40
15.875
 49
6.35
 74
    0
 49
-3.175
 74
    0
 49
0
 74
    0
 49
-3.175
 74
    0
 49
0
 74
    0
 49
-3.175
 74
    0
  0
LTYPE
  5
41
330
5
100
AcDbSymbolTableRecord
100
AcDbLinetypeTableRecord
  2
DIVIDEX2
 70
    0
  3
Divide (2x) ________  .  .  ________  .  .  _
 72
   65
 73
    6
 40
63.5
 49
25.4
 74
    0
 49
-12.7
 74
    0
 49
0
 74
    0
 49
-12.7
 74
    0
 49
0
 74
    0
 49
-12.7
 74
    0
  0
LTYPE
  5
42
330
5
100
AcDbSymbolTableRecord
100
AcDbLinetypeTableRecord
  2
BORDER
 70
    0
  3
Border __ __ . __ __ . __ __ . __ __ . __ __ .
 72
   65
 73
    6
 40
44.45
 49
12.7
 74
    0
 49
-6.35
 74
    0
 49
12.7
 74
    0
 49
-6.35
 74
    0
 49
0
 74
    0
 49
-6.35
 74
    0
  0
LTYPE
  5
43
330
5
100
AcDbSymbolTableRecord
100
AcDbLinetypeTableRecord
  2
BORDERTINY
 70
    0
  3
Border (.15x) __.__.__.__.__.__.__.__.__.__.__.
 72
   65
 73
    6
 40
6.6675
 49
1.905
 74
    0
 49
-0.9525
 74
    0
 49
1.905
 74
    0
 49
-0.9525
 74
    0
 49
0
 74
    0
 49
-0.9525
 74
    0
  0
LTYPE
  5
44
330
5
100
AcDbSymbolTableRecord
100
AcDbLinetypeTableRecord
  2
BORDER2
 70
    0
  3
Border (.5x) __.__.__.__.__.__.__.__.__.__.__.
 72
   65
 73
    6
 40
22.225
 49
6.35
 74
    0
 49
-3.175
 74
    0
 49
6.35
 74
    0
 49
-3.175
 74
    0
 49
0
 74
    0
 49
-3.175
 74
    0
  0
LTYPE
  5
45
330
5
100
AcDbSymbolTableRecord
100
AcDbLinetypeTableRecord
  2
BORDERX2
 70
    0
  3
Border (2x) ____  ____  .  ____  ____  .  ___
 72
   65
 73
    6
 40
88.89999999999999
 49
25.4
 74
    0
 49
-12.7
 74
    0
 49
25.4
 74
    0
 49
-12.7
 74
    0
 49
0
 74
    0
 49
-12.7
 74
    0
  0
LTYPE
  5
46
330
5
100
AcDbSymbolTableRecord
100
AcDbLinetypeTableRecord
  2
CENTER
 70
    0
  3
Center ____ _ ____ _ ____ _ ____ _ ____ _ ____
 72
   65
 73
    4
 40
50.8
 49
31.75
 74
    0
 49
-6.35
 74
    0
 49
6.35
 74
    0
 49
-6.35
 74
    0
  0
LTYPE
  5
47
330
5
100
AcDbSymbolTableRecord
100
AcDbLinetypeTableRecord
  2
CENTERTINY
 70
    0
  3
Center (.15x) ___ _ ___ _ ___ _ ___ _ ___ _ ___
 72
   65
 73
    4
 40
7.619999999999999
 49
4.7625
 74
    0
 49
-0.9525
 74
    0
 49
0.9525
 74
    0
 49
-0.9525
 74
    0
  0
LTYPE
  5
48
330
5
100
AcDbSymbolTableRecord
100
AcDbLinetypeTableRecord
  2
CENTER2
 70
    0
  3
Center (.5x) ___ _ ___ _ ___ _ ___ _ ___ _ ___
 72
   65
 73
    4
 40
28.575
 49
19.05
 74
    0
 49
-3.175
 74
    0
 49
3.175
 74
    0
 49
-3.175
 74
    0
  0
LTYPE
  5
49
330
5
100
AcDbSymbolTableRecord
100
AcDbLinetypeTableRecord
  2
CENTERX2
 70
    0
  3
Center (2x) ________  __  ________  __  _____
 72
   65
 73
    4
 40
101.6
 49
63.5
 74
    0
 49
-12.7
 74
    0
 49
12.7
 74
    0
 49
-12.7
 74
    0
  0
ENDTAB
  0
TABLE
  2
LAYER
  5
2
330
0
100
AcDbSymbolTable
 70
    1
  0
LAYER
  5
10
330
2
100
AcDbSymbolTableRecord
100
AcDbLayerTableRecord
  2
0
 70
    1
 62
    7
  6
CONTINUOUS
370
   -3
390
F
  0
LAYER
  5
4A
330
2
100
AcDbSymbolTableRecord
100
AcDbLayerTableRecord
  2
base
 70
    4
 62
  136
420
32896
  6
CONTINUOUS
370
   50
390
F
  0
LAYER
  5
4B
330
2
100
AcDbSymbolTableRecord
100
AcDbLayerTableRecord
  2
body
 70
    0
 62
   56
420
8421376
  6
CONTINUOUS
370
   50
390
F
  0
LAYER
  5
4C
330
2
100
AcDbSymbolTableRecord
100
AcDbLayerTableRecord
  2
dimensions
 70
    0
 62
    4
  6
CONTINUOUS
370
   13
390
F
  0
LAYER
  5
4D
330
2
100
AcDbSymbolTableRecord
100
AcDbLayerTableRecord
  2
face
 70
    0
 62
    3
  6
CONTINUOUS
370
   50
390
F
  0
LAYER
  5
4E
330
2
100
AcDbSymbolTableRecord
100
AcDbLayerTableRecord
  2
glass
 70
    0
 62
    5
  6
CONTINUOUS
370
   50
390
F
  0
LAYER
  5
4F
330
2
100
AcDbSymbolTableRecord
100
AcDbLayerTableRecord
  2
rastvor
 70
    0
 62
  253
420
10526884
  6
CONTINUOUS
370
   50
390
F
  0
ENDTAB
  0
TABLE
  2
STYLE
  5
3
330
0
100
AcDbSymbolTable
 70
    3
  0
STYLE
  5
50
330
2
100
AcDbSymbolTableRecord
100
AcDbTextStyleTableRecord
  2
cyrillic_ii
 70
    0
 40
0
 41
1
 50
0
 71
    0
 42
1
  3
cyrillic_ii
  4

  0
STYLE
  5
51
330
2
100
AcDbSymbolTableRecord
100
AcDbTextStyleTableRecord
  2
Standard
 70
    0
 40
0
 41
1
 50
0
 71
    0
 42
1
  3
txt
  4

  0
ENDTAB
  0
TABLE
  2
VIEW
  5
6
330
0
100
AcDbSymbolTable
 70
    0
  0
ENDTAB
  0
TABLE
  2
UCS
  5
7
330
0
100
AcDbSymbolTable
 70
    0
  0
ENDTAB
  0
TABLE
  2
APPID
  5
9
330
0
100
AcDbSymbolTable
 70
    1
  0
APPID
  5
12
330
9
100
AcDbSymbolTableRecord
100
AcDbRegAppTableRecord
  2
ACAD
 70
    0
  0
APPID
  5
52
330
9
100
AcDbSymbolTableRecord
100
AcDbRegAppTableRecord
  2
LibreCad
 70
    0
  0
ENDTAB
  0
TABLE
  2
DIMSTYLE
  5
A
330
0
100
AcDbSymbolTable
 70
    1
100
AcDbDimStyleTable
 71
    1
  0
DIMSTYLE
105
53
330
A
100
AcDbSymbolTableRecord
100
AcDbDimStyleTableRecord
  2
Standard
 70
    0
 40
1
 41
2
 42
1
 43
0.38
 44
2
 45
0
 46
0
 47
0
 48
0
 49
1
140
3
141
0.09
142
2
143
25.4
144
10
145
0
146
1
147
2
148
0
 71
    0
 72
    0
 73
    0
 74
    1
 75
    0
 76
    0
 77
    0
 78
    8
 79
    0
170
    0
171
    2
172
    0
173
    0
174
    0
175
    0
176
    0
177
    0
178
    0
179
    0
271
    1
272
    4
273
    2
274
    2
275
    0
276
    0
277
    2
278
   44
279
    0
280
    0
281
    0
282
    0
283
    1
284
    0
285
    0
286
    0
288
    0
289
    3
340
standard
341

371
   -2
372
   -2
  0
ENDTAB
  0
TABLE
  2
BLOCK_RECORD
  5
1
330
0
100
AcDbSymbolTable
 70
    2
  0
BLOCK_RECORD
  5
1F
330
1
100
AcDbSymbolTableRecord
100
AcDbBlockTableRecord
  2
*Model_Space
 70
    0
280
    1
281
    0
  0
BLOCK_RECORD
  5
1E
330
1
100
AcDbSymbolTableRecord
100
AcDbBlockTableRecord
  2
*Paper_Space
 70
    0
280
    1
281
    0
  0
BLOCK_RECORD
  5
54
330
1
100
AcDbSymbolTableRecord
100
AcDbBlockTableRecord
  2
*D28
 70
    0
280
    1
281
    0
  0
BLOCK_RECORD
  5
57
330
1
100
AcDbSymbolTableRecord
100
AcDbBlockTableRecord
  2
*D30
 70
    0
280
    1
281
    0
  0
BLOCK_RECORD
  5
5A
330
1
100
AcDbSymbolTableRecord
100
AcDbBlockTableRecord
  2
*D39
 70
    0
280
    1
281
    0
  0
BLOCK_RECORD
  5
5D
330
1
100
AcDbSymbolTableRecord
100
AcDbBlockTableRecord
  2
*D4
 70
    0
280
    1
281
    0
  0
BLOCK_RECORD
  5
60
330
1
100
AcDbSymbolTableRecord
100
AcDbBlockTableRecord
  2
*D18
 70
    0
280
    1
281
    0
  0
BLOCK_RECORD
  5
63
330
1
100
AcDbSymbolTableRecord
100
AcDbBlockTableRecord
  2
*D11
 70
    0
280
    1
281
    0
  0
BLOCK_RECORD
  5
66
330
1
100
AcDbSymbolTableRecord
100
AcDbBlockTableRecord
  2
*D13
 70
    0
280
    1
281
    0
  0
BLOCK_RECORD
  5
69
330
1
100
AcDbSymbolTableRecord
100
AcDbBlockTableRecord
  2
*D46
 70
    0
280
    1
281
    0
  0
BLOCK_RECORD
  5
6C
330
1
100
AcDbSymbolTableRecord
100
AcDbBlockTableRecord
  2
*D1
 70
    0
280
    1
281
    0
  0
BLOCK_RECORD
  5
6F
330
1
100
AcDbSymbolTableRecord
100
AcDbBlockTableRecord
  2
*D5
 70
    0
280
    1
281
    0
  0
BLOCK_RECORD
  5
72
330
1
100
AcDbSymbolTableRecord
100
AcDbBlockTableRecord
  2
*D21
 70
    0
280
    1
281
    0
  0
BLOCK_RECORD
  5
75
330
1
100
AcDbSymbolTableRecord
100
AcDbBlockTableRecord
  2
*D6
 70
    0
280
    1
281
    0
  0
BLOCK_RECORD
  5
78
330
1
100
AcDbSymbolTableRecord
100
AcDbBlockTableRecord
  2
*D41
 70
    0
280
    1
281
    0
  0
BLOCK_RECORD
  5
7B
330
1
100
AcDbSymbolTableRecord
100
AcDbBlockTableRecord
  2
*D20
 70
    0
280
    1
281
    0
  0
BLOCK_RECORD
  5
7E
330
1
100
AcDbSymbolTableRecord
100
AcDbBlockTableRecord
  2
*D24
 70
    0
280
    1
281
    0
  0
BLOCK_RECORD
  5
81
330
1
100
AcDbSymbolTableRecord
100
AcDbBlockTableRecord
  2
*D19
 70
    0
280
    1
281
    0
  0
BLOCK_RECORD
  5
84
330
1
100
AcDbSymbolTableRecord
100
AcDbBlockTableRecord
  2
*D16
 70
    0
280
    1
281
    0
  0
BLOCK_RECORD
  5
87
330
1
100
AcDbSymbolTableRecord
100
AcDbBlockTableRecord
  2
*D31
 70
    0
280
    1
281
    0
  0
BLOCK_RECORD
  5
8A
330
1
100
AcDbSymbolTableRecord
100
AcDbBlockTableRecord
  2
*D3
 70
    0
280
    1
281
    0
  0
BLOCK_RECORD
  5
8D
330
1
100
AcDbSymbolTableRecord
100
AcDbBlockTableRecord
  2
*D26
 70
    0
280
    1
281
    0
  0
BLOCK_RECORD
  5
90
330
1
100
AcDbSymbolTableRecord
100
AcDbBlockTableRecord
  2
*D32
 70
    0
280
    1
281
    0
  0
BLOCK_RECORD
  5
93
330
1
100
AcDbSymbolTableRecord
100
AcDbBlockTableRecord
  2
*D44
 70
    0
280
    1
281
    0
  0
BLOCK_RECORD
  5
96
330
1
100
AcDbSymbolTableRecord
100
AcDbBlockTableRecord
  2
*D14
 70
    0
280
    1
281
    0
  0
BLOCK_RECORD
  5
99
330
1
100
AcDbSymbolTableRecord
100
AcDbBlockTableRecord
  2
*D22
 70
    0
280
    1
281
    0
  0
BLOCK_RECORD
  5
9C
330
1
100
AcDbSymbolTableRecord
100
AcDbBlockTableRecord
  2
*D35
 70
    0
280
    1
281
    0
  0
BLOCK_RECORD
  5
9F
330
1
100
AcDbSymbolTableRecord
100
AcDbBlockTableRecord
  2
*D42
 70
    0
280
    1
281
    0
  0
BLOCK_RECORD
  5
A2
330
1
100
AcDbSymbolTableRecord
100
AcDbBlockTableRecord
  2
*D38
 70
    0
280
    1
281
    0
  0
BLOCK_RECORD
  5
A5
330
1
100
AcDbSymbolTableRecord
100
AcDbBlockTableRecord
  2
*D7
 70
    0
280
    1
281
    0
  0
BLOCK_RECORD
  5
A8
330
1
100
AcDbSymbolTableRecord
100
AcDbBlockTableRecord
  2
*D36
 70
    0
280
    1
281
    0
  0
BLOCK_RECORD
  5
AB
330
1
100
AcDbSymbolTableRecord
100
AcDbBlockTableRecord
  2
*D34
 70
    0
280
    1
281
    0
  0
BLOCK_RECORD
  5
AE
330
1
100
AcDbSymbolTableRecord
100
AcDbBlockTableRecord
  2
*D9
 70
    0
280
    1
281
    0
  0
BLOCK_RECORD
  5
B1
330
1
100
AcDbSymbolTableRecord
100
AcDbBlockTableRecord
  2
*D17
 70
    0
280
    1
281
    0
  0
BLOCK_RECORD
  5
B4
330
1
100
AcDbSymbolTableRecord
100
AcDbBlockTableRecord
  2
*D43
 70
    0
280
    1
281
    0
  0
BLOCK_RECORD
  5
B7
330
1
100
AcDbSymbolTableRecord
100
AcDbBlockTableRecord
  2
*D33
 70
    0
280
    1
281
    0
  0
BLOCK_RECORD
  5
BA
330
1
100
AcDbSymbolTableRecord
100
AcDbBlockTableRecord
  2
*D2
 70
    0
280
    1
281
    0
  0
BLOCK_RECORD
  5
BD
330
1
100
AcDbSymbolTableRecord
100
AcDbBlockTableRecord
  2
*D47
 70
    0
280
    1
281
    0
  0
BLOCK_RECORD
  5
C0
330
1
100
AcDbSymbolTableRecord
100
AcDbBlockTableRecord
  2
*D10
 70
    0
280
    1
281
    0
  0
BLOCK_RECORD
  5
C3
330
1
100
AcDbSymbolTableRecord
100
AcDbBlockTableRecord
  2
*D37
 70
    0
280
    1
281
    0
  0
BLOCK_RECORD
  5
C6
330
1
100
AcDbSymbolTableRecord
100
AcDbBlockTableRecord
  2
*D27
 70
    0
280
    1
281
    0
  0
BLOCK_RECORD
  5
C9
330
1
100
AcDbSymbolTableRecord
100
AcDbBlockTableRecord
  2
*D23
 70
    0
280
    1
281
    0
  0
BLOCK_RECORD
  5
CC
330
1
100
AcDbSymbolTableRecord
100
AcDbBlockTableRecord
  2
*D8
 70
    0
280
    1
281
    0
  0
BLOCK_RECORD
  5
CF
330
1
100
AcDbSymbolTableRecord
100
AcDbBlockTableRecord
  2
*D29
 70
    0
280
    1
281
    0
  0
BLOCK_RECORD
  5
D2
330
1
100
AcDbSymbolTableRecord
100
AcDbBlockTableRecord
  2
*D12
 70
    0
280
    1
281
    0
  0
BLOCK_RECORD
  5
D5
330
1
100
AcDbSymbolTableRecord
100
AcDbBlockTableRecord
  2
*D25
 70
    0
280
    1
281
    0
  0
BLOCK_RECORD
  5
D8
330
1
100
AcDbSymbolTableRecord
100
AcDbBlockTableRecord
  2
*D40
 70
    0
280
    1
281
    0
  0
BLOCK_RECORD
  5
DB
330
1
100
AcDbSymbolTableRecord
100
AcDbBlockTableRecord
  2
*D45
 70
    0
280
    1
281
    0
  0
BLOCK_RECORD
  5
DE
330
1
100
AcDbSymbolTableRecord
100
AcDbBlockTableRecord
  2
*D15
 70
    0
280
    1
281
    0
  0
ENDTAB
  0
ENDSEC
  0
SECTION
  2
BLOCKS
  0
BLOCK
  5
20
330
1F
100
AcDbEntity
  8
0
100
AcDbBlockBegin
  2
*Model_Space
 70
    0
 10
0
 20
0
 30
0
  3
*Model_Space
  1

  0
ENDBLK
  5
21
330
1F
100
AcDbEntity
  8
0
100
AcDbBlockEnd
  0
BLOCK
  5
1C
330
1B
100
AcDbEntity
  8
0
100
AcDbBlockBegin
  2
*Paper_Space
 70
    0
 10
0
 20
0
 30
0
  3
*Paper_Space
  1

  0
ENDBLK
  5
1D
330
1F
100
AcDbEntity
  8
0
100
AcDbBlockEnd
  0
BLOCK
  5
55
330
54
100
AcDbEntity
  8
0
100
AcDbBlockBegin
  2
*D28
 70
    1
 10
0
 20
0
  3
*D28
  1

  0
LINE
  5
E1
100
AcDbEntity
  8
dimensions
  6
ByBlock
 62
    0
370
   -2
100
AcDbLine
 10
-4.700000000000001
 20
23.7
 11
-4.7
 21
45.30000000000003
  0
LINE
  5
E2
100
AcDbEntity
  8
dimensions
  6
ByBlock
 62
    0
370
   -2
100
AcDbLine
 10
-6.114213562373096
 20
25.1142135623731
 11
-3.285786437626906
 21
22.2857864376269
  0
LINE
  5
E3
100
AcDbEntity
  8
dimensions
  6
ByBlock
 62
    0
370
   -2
100
AcDbLine
 10
-6.114213562373095
 20
46.71421356237312
 11
-3.285786437626905
 21
43.88578643762693
  0
MTEXT
  5
E4
100
AcDbEntity
  8
dimensions
  6
CONTINUOUS
 62
    0
370
   -2
100
AcDbMText
 10
-8.200000000000001
 20
34.50000000000001
 30
0
 40
3
 41
5.333333333333519
 71
    5
 72
    1
  1
216
  7
standard
210
0
220
0
230
1
 50
90
 73
    2
 44
1
  0
LINE
  5
E5
100
AcDbEntity
  8
dimensions
  6
ByBlock
 62
    0
370
   -2
100
AcDbLine
 10
-0.6999999999999985
 20
23.7
 11
-6.700000000000001
 21
23.7
  0
LINE
  5
E6
100
AcDbEntity
  8
dimensions
  6
ByBlock
 62
    0
370
   -2
100
AcDbLine
 10
-0.7
 20
45.30000000000003
 11
-6.7
 21
45.30000000000003
  0
ENDBLK
  5
56
330
54
100
AcDbEntity
  8
0
100
AcDbBlockEnd
  0
BLOCK
  5
58
330
57
100
AcDbEntity
  8
0
100
AcDbBlockBegin
  2
*D30
 70
    1
 10
0
 20
0
  3
*D30
  1

  0
LINE
  5
E7
100
AcDbEntity
  8
dimensions
  6
ByBlock
 62
    0
370
   -2
100
AcDbLine
 10
58.89999999999967
 20
55
 11
71.50000000000003
 21
55
  0
LINE
  5
E8
100
AcDbEntity
  8
dimensions
  6
ByBlock
 62
    0
370
   -2
100
AcDbLine
 10
61.48578643762658
 20
53.58578643762691
 11
64.31421356237277
 21
56.41421356237309
  0
LINE
  5
E9
100
AcDbEntity
  8
dimensions
  6
ByBlock
 62
    0
370
   -2
100
AcDbLine
 10
66.08578643762694
 20
53.58578643762691
 11
68.91421356237312
 21
56.41421356237309
  0
MTEXT
  5
EA
100
AcDbEntity
  8
dimensions
  6
CONTINUOUS
 62
    0
370
   -2
100
AcDbMText
 10
64
 20
50
 30
0
 40
3
 41
4.000000000000186
 71
    5
 72
    1
  1
46
  7
standard
210
0
220
0
230
1
 50
0
 73
    2
 44
1
  0
LINE
  5
EB
100
AcDbEntity
  8
dimensions
  6
ByBlock
 62
    0
370
   -2
100
AcDbLine
 10
62.89999999999967
 20
62.99999999999982
 11
62.89999999999967
 21
53
  0
LINE
  5
EC
100
AcDbEntity
  8
dimensions
  6
ByBlock
 62
    0
370
   -2
100
AcDbLine
 10
67.50000000000003
 20
62.99999999999994
 11
67.50000000000003
 21
53
  0
ENDBLK
  5
59
330
57
100
AcDbEntity
  8
0
100
AcDbBlockEnd
  0
BLOCK
  5
5B
330
5A
100
AcDbEntity
  8
0
100
AcDbBlockBegin
  2
*D39
 70
    1
 10
0
 20
0
  3
*D39
  1

  0
LINE
  5
ED
100
AcDbEntity
  8
dimensions
  6
ByBlock
 62
    0
370
   -2
100
AcDbLine
 10
146.6
 20
73.70000000000005
 11
126.9
 21
73.70000000000005
  0
LINE
  5
EE
100
AcDbEntity
  8
dimensions
  6
ByBlock
 62
    0
370
   -2
100
AcDbLine
 10
145.1857864376269
 20
72.28578643762695
 11
148.0142135623731
 21
75.11421356237314
  0
LINE
  5
EF
100
AcDbEntity
  8
dimensions
  6
ByBlock
 62
    0
370
   -2
100
AcDbLine
 10
125.4857864376269
 20
72.28578643762695
 11
128.3142135623731
 21
75.11421356237314
  0
MTEXT
  5
F0
100
AcDbEntity
  8
dimensions
  6
CONTINUOUS
 62
    0
370
   -2
100
AcDbMText
 10
136.75
 20
77.20000000000005
 30
0
 40
3
 41
5.333333333333333
 71
    5
 72
    1
  1
197
  7
standard
210
0
220
0
230
1
 50
360
 73
    2
 44
1
  0
LINE
  5
F1
100
AcDbEntity
  8
dimensions
  6
ByBlock
 62
    0
370
   -2
100
AcDbLine
 10
146.6
 20
69.70000000000006
 11
146.6
 21
75.70000000000005
  0
LINE
  5
F2
100
AcDbEntity
  8
dimensions
  6
ByBlock
 62
    0
370
   -2
100
AcDbLine
 10
126.9
 20
69.70000000000003
 11
126.9
 21
75.70000000000005
  0
ENDBLK
  5
5C
330
5A
100
AcDbEntity
  8
0
100
AcDbBlockEnd
  0
BLOCK
  5
5E
330
5D
100
AcDbEntity
  8
0
100
AcDbBlockBegin
  2
*D4
 70
    1
 10
0
 20
0
  3
*D4
  1

  0
LINE
  5
F3
100
AcDbEntity
  8
dimensions
  6
ByBlock
 62
    0
370
   -2
100
AcDbLine
 10
43.80000000000003
 20
73.70000000000002
 11
49.90000000000003
 21
73.70000000000002
  0
LINE
  5
F4
100
AcDbEntity
  8
dimensions
  6
ByBlock
 62
    0
370
   -2
100
AcDbLine
 10
45.21421356237312
 20
75.11421356237311
 11
42.38578643762693
 21
72.28578643762692
  0
LINE
  5
F5
100
AcDbEntity
  8
dimensions
  6
ByBlock
 62
    0
370
   -2
100
AcDbLine
 10
51.31421356237312
 20
75.11421356237311
 11
48.48578643762693
 21
72.28578643762692
  0
MTEXT
  5
F6
100
AcDbEntity
  8
dimensions
  6
CONTINUOUS
 62
    0
370
   -2
100
AcDbMText
 10
46.85000000000002
 20
77.20000000000002
 30
0
 40
3
 41
3.000000000000186
 71
    5
 72
    1
  1
61
  7
standard
210
0
220
0
230
1
 50
0
 73
    2
 44
1
  0
LINE
  5
F7
100
AcDbEntity
  8
dimensions
  6
ByBlock
 62
    0
370
   -2
100
AcDbLine
 10
43.80000000000003
 20
69.70000000000003
 11
43.80000000000003
 21
75.70000000000002
  0
LINE
  5
F8
100
AcDbEntity
  8
dimensions
  6
ByBlock
 62
    0
370
   -2
100
AcDbLine
 10
49.90000000000003
 20
69.70000000000003
 11
49.90000000000003
 21
75.70000000000002
  0
ENDBLK
  5
5F
330
5D
100
AcDbEntity
  8
0
100
AcDbBlockEnd
  0
BLOCK
  5
61
330
60
100
AcDbEntity
  8
0
100
AcDbBlockBegin
  2
*D18
 70
    1
 10
0
 20
0
  3
*D18
  1

  0
LINE
  5
F9
100
AcDbEntity
  8
dimensions
  6
ByBlock
 62
    0
370
   -2
100
AcDbLine
 10
0.3000000000000327
 20
73.70000000000002
 11
43.80000000000003
 21
73.70000000000002
  0
LINE
  5
FA
100
AcDbEntity
  8
dimensions
  6
ByBlock
 62
    0
370
   -2
100
AcDbLine
 10
1.714213562373128
 20
75.11421356237311
 11
-1.114213562373063
 21
72.28578643762692
  0
LINE
  5
FB
100
AcDbEntity
  8
dimensions
  6
ByBlock
 62
    0
370
   -2
100
AcDbLine
 10
45.21421356237312
 20
75.11421356237311
 11
42.38578643762693
 21
72.28578643762692
  0
MTEXT
  5
FC
100
AcDbEntity
  8
dimensions
  6
CONTINUOUS
 62
    0
370
   -2
100
AcDbMText
 10
22.05000000000003
 20
77.20000000000002
 30
0
 40
3
 41
6.333333333333706
 71
    5
 72
    1
  1
435
  7
standard
210
0
220
0
230
1
 50
0
 73
    2
 44
1
  0
LINE
  5
FD
100
AcDbEntity
  8
dimensions
  6
ByBlock
 62
    0
370
   -2
100
AcDbLine
 10
0.3000000000000294
 20
69.70000000000002
 11
0.3000000000000346
 21
75.70000000000002
  0
LINE
  5
FE
100
AcDbEntity
  8
dimensions
  6
ByBlock
 62
    0
370
   -2
100
AcDbLine
 10
43.80000000000003
 20
69.70000000000003
 11
43.80000000000003
 21
75.70000000000002
  0
ENDBLK
  5
62
330
60
100
AcDbEntity
  8
0
100
AcDbBlockEnd
  0
BLOCK
  5
64
330
63
100
AcDbEntity
  8
0
100
AcDbBlockBegin
  2
*D11
 70
    1
 10
0
 20
0
  3
*D11
  1

  0
LINE
  5
FF
100
AcDbEntity
  8
dimensions
  6
ByBlock
 62
    0
370
   -2
100
AcDbLine
 10
120.8
 20
73.70000000000002
 11
126.9
 21
73.70000000000002
  0
LINE
  5
100
100
AcDbEntity
  8
dimensions
  6
ByBlock
 62
    0
370
   -2
100
AcDbLine
 10
122.2142135623731
 20
75.11421356237311
 11
119.3857864376269
 21
72.28578643762692
  0
LINE
  5
101
100
AcDbEntity
  8
dimensions
  6
ByBlock
 62
    0
370
   -2
100
AcDbLine
 10
128.3142135623731
 20
75.11421356237311
 11
125.4857864376269
 21
72.28578643762692
  0
MTEXT
  5
102
100
AcDbEntity
  8
dimensions
  6
CONTINUOUS
 62
    0
370
   -2
100
AcDbMText
 10
123.85
 20
77.20000000000002
 30
0
 40
3
 41
3.000000000000186
 71
    5
 72
    1
  1
61
  7
standard
210
0
220
0
230
1
 50
0
 73
    2
 44
1
  0
LINE
  5
103
100
AcDbEntity
  8
dimensions
  6
ByBlock
 62
    0
370
   -2
100
AcDbLine
 10
120.8
 20
69.70000000000003
 11
120.8
 21
75.70000000000002
  0
LINE
  5
104
100
AcDbEntity
  8
dimensions
  6
ByBlock
 62
    0
370
   -2
100
AcDbLine
 10
126.9
 20
69.70000000000003
 11
126.9
 21
75.70000000000002
  0
ENDBLK
  5
65
330
63
100
AcDbEntity
  8
0
100
AcDbBlockEnd
  0
BLOCK
  5
67
330
66
100
AcDbEntity
  8
0
100
AcDbBlockBegin
  2
*D13
 70
    1
 10
0
 20
0
  3
*D13
  1

  0
LINE
  5
105
100
AcDbEntity
  8
dimensions
  6
ByBlock
 62
    0
370
   -2
100
AcDbLine
 10
53.40000000000004
 20
55
 11
62.89999999999964
 21
55
  0
LINE
  5
106
100
AcDbEntity
  8
dimensions
  6
ByBlock
 62
    0
370
   -2
100
AcDbLine
 10
54.81421356237313
 20
56.41421356237309
 11
51.98578643762695
 21
53.58578643762691
  0
LINE
  5
107
100
AcDbEntity
  8
dimensions
  6
ByBlock
 62
    0
370
   -2
100
AcDbLine
 10
64.31421356237273
 20
56.41421356237309
 11
61.48578643762654
 21
53.58578643762691
  0
MTEXT
  5
108
100
AcDbEntity
  8
dimensions
  6
CONTINUOUS
 62
    0
370
   -2
100
AcDbMText
 10
58.14999999999984
 20
58.5
 30
0
 40
3
 41
3.666666666667039
 71
    5
 72
    1
  1
95
  7
standard
210
0
220
0
230
1
 50
0
 73
    2
 44
1
  0
LINE
  5
109
100
AcDbEntity
  8
dimensions
  6
ByBlock
 62
    0
370
   -2
100
AcDbLine
 10
53.40000000000004
 20
63.00000000000003
 11
53.40000000000004
 21
53
  0
LINE
  5
10A
100
AcDbEntity
  8
dimensions
  6
ByBlock
 62
    0
370
   -2
100
AcDbLine
 10
62.89999999999964
 20
62.99999999999982
 11
62.89999999999964
 21
53
  0
ENDBLK
  5
68
330
66
100
AcDbEntity
  8
0
100
AcDbBlockEnd
  0
BLOCK
  5
6A
330
69
100
AcDbEntity
  8
0
100
AcDbBlockBegin
  2
*D46
 70
    1
 10
0
 20
0
  3
*D46
  1

  0
LINE
  5
10B
100
AcDbEntity
  8
dimensions
  6
ByBlock
 62
    0
370
   -2
100
AcDbLine
 10
180.7
 20
73.70000000000009
 11
166.3
 21
73.70000000000009
  0
LINE
  5
10C
100
AcDbEntity
  8
dimensions
  6
ByBlock
 62
    0
370
   -2
100
AcDbLine
 10
179.2857864376269
 20
72.285786437627
 11
182.1142135623731
 21
75.11421356237318
  0
LINE
  5
10D
100
AcDbEntity
  8
dimensions
  6
ByBlock
 62
    0
370
   -2
100
AcDbLine
 10
164.8857864376269
 20
72.285786437627
 11
167.7142135623731
 21
75.11421356237318
  0
MTEXT
  5
10E
100
AcDbEntity
  8
dimensions
  6
CONTINUOUS
 62
    0
370
   -2
100
AcDbMText
 10
173.5
 20
77.20000000000009
 30
0
 40
3
 41
6
 71
    5
 72
    1
  1
144
  7
standard
210
0
220
0
230
1
 50
360
 73
    2
 44
1
  0
LINE
  5
10F
100
AcDbEntity
  8
dimensions
  6
ByBlock
 62
    0
370
   -2
100
AcDbLine
 10
180.7
 20
69.70000000000002
 11
180.7
 21
75.70000000000009
  0
LINE
  5
110
100
AcDbEntity
  8
dimensions
  6
ByBlock
 62
    0
370
   -2
100
AcDbLine
 10
166.3
 20
69.70000000000009
 11
166.3
 21
75.70000000000009
  0
ENDBLK
  5
6B
330
69
100
AcDbEntity
  8
0
100
AcDbBlockEnd
  0
BLOCK
  5
6D
330
6C
100
AcDbEntity
  8
0
100
AcDbBlockBegin
  2
*D1
 70
    1
 10
0
 20
0
  3
*D1
  1

  0
LINE
  5
111
100
AcDbEntity
  8
dimensions
  6
ByBlock
 62
    0
370
   -2
100
AcDbLine
 10
49.90000000000003
 20
73.70000000000002
 11
55.10000000000004
 21
73.70000000000002
  0
LINE
  5
112
100
AcDbEntity
  8
dimensions
  6
ByBlock
 62
    0
370
   -2
100
AcDbLine
 10
51.31421356237312
 20
75.11421356237311
 11
48.48578643762693
 21
72.28578643762692
  0
LINE
  5
113
100
AcDbEntity
  8
dimensions
  6
ByBlock
 62
    0
370
   -2
100
AcDbLine
 10
56.51421356237313
 20
75.11421356237311
 11
53.68578643762694
 21
72.28578643762692
  0
MTEXT
  5
114
100
AcDbEntity
  8
dimensions
  6
CONTINUOUS
 62
    0
370
   -2
100
AcDbMText
 10
52.50000000000003
 20
77.20000000000002
 30
0
 40
3
 41
3.666666666666853
 71
    5
 72
    1
  1
52
  7
standard
210
0
220
0
230
1
 50
0
 73
    2
 44
1
  0
LINE
  5
115
100
AcDbEntity
  8
dimensions
  6
ByBlock
 62
    0
370
   -2
100
AcDbLine
 10
49.90000000000003
 20
69.70000000000003
 11
49.90000000000003
 21
75.70000000000002
  0
LINE
  5
116
100
AcDbEntity
  8
dimensions
  6
ByBlock
 62
    0
370
   -2
100
AcDbLine
 10
55.10000000000004
 20
69.70000000000003
 11
55.10000000000004
 21
75.70000000000002
  0
ENDBLK
  5
6E
330
6C
100
AcDbEntity
  8
0
100
AcDbBlockEnd
  0
BLOCK
  5
70
330
6F
100
AcDbEntity
  8
0
100
AcDbBlockBegin
  2
*D5
 70
    1
 10
0
 20
0
  3
*D5
  1

  0
LINE
  5
117
100
AcDbEntity
  8
dimensions
  6
ByBlock
 62
    0
370
   -2
100
AcDbLine
 10
55.10000000000004
 20
73.70000000000002
 11
61.20000000000005
 21
73.70000000000002
  0
LINE
  5
118
100
AcDbEntity
  8
dimensions
  6
ByBlock
 62
    0
370
   -2
100
AcDbLine
 10
56.51421356237313
 20
75.11421356237311
 11
53.68578643762694
 21
72.28578643762692
  0
LINE
  5
119
100
AcDbEntity
  8
dimensions
  6
ByBlock
 62
    0
370
   -2
100
AcDbLine
 10
62.61421356237314
 20
75.11421356237311
 11
59.78578643762695
 21
72.28578643762692
  0
MTEXT
  5
11A
100
AcDbEntity
  8
dimensions
  6
CONTINUOUS
 62
    0
370
   -2
100
AcDbMText
 10
58.15000000000004
 20
77.20000000000002
 30
0
 40
3
 41
3.000000000000186
 71
    5
 72
    1
  1
61
  7
standard
210
0
220
0
230
1
 50
0
 73
    2
 44
1
  0
LINE
  5
11B
100
AcDbEntity
  8
dimensions
  6
ByBlock
 62
    0
370
   -2
100
AcDbLine
 10
55.10000000000004
 20
69.70000000000003
 11
55.10000000000004
 21
75.70000000000002
  0
LINE
  5
11C
100
AcDbEntity
  8
dimensions
  6
ByBlock
 62
    0
370
   -2
100
AcDbLine
 10
61.20000000000005
 20
69.70000000000003
 11
61.20000000000005
 21
75.70000000000002
  0
ENDBLK
  5
71
330
6F
100
AcDbEntity
  8
0
100
AcDbBlockEnd
  0
BLOCK
  5
73
330
72
100
AcDbEntity
  8
0
100
AcDbBlockBegin
  2
*D21
 70
    1
 10
0
 20
0
  3
*D21
  1

  0
LINE
  5
11D
100
AcDbEntity
  8
dimensions
  6
ByBlock
 62
    0
370
   -2
100
AcDbLine
 10
13
 20
53.90000000000002
 11
13
 21
63.99999999999999
  0
LINE
  5
11E
100
AcDbEntity
  8
dimensions
  6
ByBlock
 62
    0
370
   -2
100
AcDbLine
 10
11.58578643762691
 20
55.31421356237311
 11
14.41421356237309
 21
52.48578643762693
  0
LINE
  5
11F
100
AcDbEntity
  8
dimensions
  6
ByBlock
 62
    0
370
   -2
100
AcDbLine
 10
11.58578643762691
 20
65.41421356237308
 11
14.41421356237309
 21
62.58578643762689
  0
MTEXT
  5
120
100
AcDbEntity
  8
dimensions
  6
CONTINUOUS
 62
    0
370
   -2
100
AcDbMText
 10
9.5
 20
58.95
 30
0
 40
3
 41
4.666666666666666
 71
    5
 72
    1
  1
101
  7
standard
210
0
220
0
230
1
 50
90
 73
    2
 44
1
  0
LINE
  5
121
100
AcDbEntity
  8
dimensions
  6
ByBlock
 62
    0
370
   -2
100
AcDbLine
 10
6
 20
53.90000000000002
 11
15
 21
53.90000000000002
  0
LINE
  5
122
100
AcDbEntity
  8
dimensions
  6
ByBlock
 62
    0
370
   -2
100
AcDbLine
 10
6.000000000000028
 20
63.99999999999999
 11
15
 21
63.99999999999999
  0
ENDBLK
  5
74
330
72
100
AcDbEntity
  8
0
100
AcDbBlockEnd
  0
BLOCK
  5
76
330
75
100
AcDbEntity
  8
0
100
AcDbBlockBegin
  2
*D6
 70
    1
 10
0
 20
0
  3
*D6
  1

  0
LINE
  5
123
100
AcDbEntity
  8
dimensions
  6
ByBlock
 62
    0
370
   -2
100
AcDbLine
 10
76.80000000000004
 20
73.70000000000002
 11
61.20000000000005
 21
73.70000000000002
  0
LINE
  5
124
100
AcDbEntity
  8
dimensions
  6
ByBlock
 62
    0
370
   -2
100
AcDbLine
 10
75.38578643762695
 20
72.28578643762692
 11
78.21421356237313
 21
75.11421356237311
  0
LINE
  5
125
100
AcDbEntity
  8
dimensions
  6
ByBlock
 62
    0
370
   -2
100
AcDbLine
 10
59.78578643762695
 20
72.28578643762692
 11
62.61421356237314
 21
75.11421356237311
  0
MTEXT
  5
126
100
AcDbEntity
  8
dimensions
  6
CONTINUOUS
 62
    0
370
   -2
100
AcDbMText
 10
69.00000000000004
 20
77.20000000000002
 30
0
 40
3
 41
5.333333333333705
 71
    5
 72
    1
  1
156
  7
standard
210
0
220
0
230
1
 50
360
 73
    2
 44
1
  0
LINE
  5
127
100
AcDbEntity
  8
dimensions
  6
ByBlock
 62
    0
370
   -2
100
AcDbLine
 10
76.80000000000004
 20
69.70000000000003
 11
76.80000000000004
 21
75.70000000000002
  0
LINE
  5
128
100
AcDbEntity
  8
dimensions
  6
ByBlock
 62
    0
370
   -2
100
AcDbLine
 10
61.20000000000005
 20
69.70000000000003
 11
61.20000000000005
 21
75.70000000000002
  0
ENDBLK
  5
77
330
75
100
AcDbEntity
  8
0
100
AcDbBlockEnd
  0
BLOCK
  5
79
330
78
100
AcDbEntity
  8
0
100
AcDbBlockBegin
  2
*D41
 70
    1
 10
0
 20
0
  3
*D41
  1

  0
LINE
  5
129
100
AcDbEntity
  8
dimensions
  6
ByBlock
 62
    0
370
   -2
100
AcDbLine
 10
160.2
 20
73.70000000000002
 11
166.3
 21
73.70000000000002
  0
LINE
  5
12A
100
AcDbEntity
  8
dimensions
  6
ByBlock
 62
    0
370
   -2
100
AcDbLine
 10
161.6142135623731
 20
75.11421356237311
 11
158.7857864376269
 21
72.28578643762692
  0
LINE
  5
12B
100
AcDbEntity
  8
dimensions
  6
ByBlock
 62
    0
370
   -2
100
AcDbLine
 10
167.7142135623731
 20
75.11421356237311
 11
164.8857864376269
 21
72.28578643762692
  0
MTEXT
  5
12C
100
AcDbEntity
  8
dimensions
  6
CONTINUOUS
 62
    0
370
   -2
100
AcDbMText
 10
163.25
 20
77.20000000000002
 30
0
 40
3
 41
3.000000000000186
 71
    5
 72
    1
  1
61
  7
standard
210
0
220
0
230
1
 50
0
 73
    2
 44
1
  0
LINE
  5
12D
100
AcDbEntity
  8
dimensions
  6
ByBlock
 62
    0
370
   -2
100
AcDbLine
 10
160.2
 20
69.70000000000009
 11
160.2
 21
75.70000000000002
  0
LINE
  5
12E
100
AcDbEntity
  8
dimensions
  6
ByBlock
 62
    0
370
   -2
100
AcDbLine
 10
166.3
 20
69.70000000000009
 11
166.3
 21
75.70000000000002
  0
ENDBLK
  5
7A
330
78
100
AcDbEntity
  8
0
100
AcDbBlockEnd
  0
BLOCK
  5
7C
330
7B
100
AcDbEntity
  8
0
100
AcDbBlockBegin
  2
*D20
 70
    1
 10
0
 20
0
  3
*D20
  1

  0
LINE
  5
12F
100
AcDbEntity
  8
dimensions
  6
ByBlock
 62
    0
370
   -2
100
AcDbLine
 10
13
 20
44.70000000000001
 11
13
 21
53.90000000000002
  0
LINE
  5
130
100
AcDbEntity
  8
dimensions
  6
ByBlock
 62
    0
370
   -2
100
AcDbLine
 10
11.58578643762691
 20
46.1142135623731
 11
14.41421356237309
 21
43.28578643762692
  0
LINE
  5
131
100
AcDbEntity
  8
dimensions
  6
ByBlock
 62
    0
370
   -2
100
AcDbLine
 10
11.58578643762691
 20
55.31421356237311
 11
14.41421356237309
 21
52.48578643762693
  0
MTEXT
  5
132
100
AcDbEntity
  8
dimensions
  6
CONTINUOUS
 62
    0
370
   -2
100
AcDbMText
 10
9.5
 20
49.30000000000001
 30
0
 40
3
 41
7.666666666666853
 71
    5
 72
    1
  1
92%%P1
  7
standard
210
0
220
0
230
1
 50
90
 73
    2
 44
1
  0
LINE
  5
133
100
AcDbEntity
  8
dimensions
  6
ByBlock
 62
    0
370
   -2
100
AcDbLine
 10
6
 20
44.70000000000001
 11
15
 21
44.70000000000001
  0
LINE
  5
134
100
AcDbEntity
  8
dimensions
  6
ByBlock
 62
    0
370
   -2
100
AcDbLine
 10
6
 20
53.90000000000002
 11
15
 21
53.90000000000002
  0
ENDBLK
  5
7D
330
7B
100
AcDbEntity
  8
0
100
AcDbBlockEnd
  0
BLOCK
  5
7F
330
7E
100
AcDbEntity
  8
0
100
AcDbBlockBegin
  2
*D24
 70
    1
 10
0
 20
0
  3
*D24
  1

  0
LINE
  5
135
100
AcDbEntity
  8
dimensions
  6
ByBlock
 62
    0
370
   -2
100
AcDbLine
 10
13
 20
15.1
 11
13
 21
24.3
  0
LINE
  5
136
100
AcDbEntity
  8
dimensions
  6
ByBlock
 62
    0
370
   -2
100
AcDbLine
 10
11.58578643762691
 20
16.51421356237309
 11
14.41421356237309
 21
13.6857864376269
  0
LINE
  5
137
100
AcDbEntity
  8
dimensions
  6
ByBlock
 62
    0
370
   -2
100
AcDbLine
 10
11.58578643762691
 20
25.7142135623731
 11
14.41421356237309
 21
22.8857864376269
  0
MTEXT
  5
138
100
AcDbEntity
  8
dimensions
  6
CONTINUOUS
 62
    0
370
   -2
100
AcDbMText
 10
9.5
 20
19.7
 30
0
 40
3
 41
7.666666666666853
 71
    5
 72
    1
  1
92%%P1
  7
standard
210
0
220
0
230
1
 50
90
 73
    2
 44
1
  0
LINE
  5
139
100
AcDbEntity
  8
dimensions
  6
ByBlock
 62
    0
370
   -2
100
AcDbLine
 10
6.000000000000001
 20
15.1
 11
15
 21
15.1
  0
LINE
  5
13A
100
AcDbEntity
  8
dimensions
  6
ByBlock
 62
    0
370
   -2
100
AcDbLine
 10
6.000000000000001
 20
24.3
 11
15
 21
24.3
  0
ENDBLK
  5
80
330
7E
100
AcDbEntity
  8
0
100
AcDbBlockEnd
  0
BLOCK
  5
82
330
81
100
AcDbEntity
  8
0
100
AcDbBlockBegin
  2
*D19
 70
    1
 10
0
 20
0
  3
*D19
  1

  0
LINE
  5
13B
100
AcDbEntity
  8
dimensions
  6
ByBlock
 62
    0
370
   -2
100
AcDbLine
 10
-4.700000000000001
 20
45.30000000000003
 11
-4.7
 21
53.3
  0
LINE
  5
13C
100
AcDbEntity
  8
dimensions
  6
ByBlock
 62
    0
370
   -2
100
AcDbLine
 10
-6.114213562373096
 20
46.71421356237312
 11
-3.285786437626906
 21
43.88578643762693
  0
LINE
  5
13D
100
AcDbEntity
  8
dimensions
  6
ByBlock
 62
    0
370
   -2
100
AcDbLine
 10
-6.114213562373095
 20
54.7142135623731
 11
-3.285786437626905
 21
51.88578643762691
  0
MTEXT
  5
13E
100
AcDbEntity
  8
dimensions
  6
CONTINUOUS
 62
    0
370
   -2
100
AcDbMText
 10
-8.200000000000001
 20
49.30000000000001
 30
0
 40
3
 41
7.666666666666666
 71
    5
 72
    1
  1
80%%P1
  7
standard
210
0
220
0
230
1
 50
90
 73
    2
 44
1
  0
LINE
  5
13F
100
AcDbEntity
  8
dimensions
  6
ByBlock
 62
    0
370
   -2
100
AcDbLine
 10
-0.7
 20
45.30000000000003
 11
-6.700000000000001
 21
45.30000000000003
  0
LINE
  5
140
100
AcDbEntity
  8
dimensions
  6
ByBlock
 62
    0
370
   -2
100
AcDbLine
 10
-0.6999999999999998
 20
53.3
 11
-6.7
 21
53.3
  0
ENDBLK
  5
83
330
81
100
AcDbEntity
  8
0
100
AcDbBlockEnd
  0
BLOCK
  5
85
330
84
100
AcDbEntity
  8
0
100
AcDbBlockBegin
  2
*D16
 70
    1
 10
0
 20
0
  3
*D16
  1

  0
LINE
  5
141
100
AcDbEntity
  8
dimensions
  6
ByBlock
 62
    0
370
   -2
100
AcDbLine
 10
107.9
 20
55
 11
117.3999999999996
 21
55
  0
LINE
  5
142
100
AcDbEntity
  8
dimensions
  6
ByBlock
 62
    0
370
   -2
100
AcDbLine
 10
109.3142135623731
 20
56.41421356237309
 11
106.4857864376269
 21
53.58578643762691
  0
LINE
  5
143
100
AcDbEntity
  8
dimensions
  6
ByBlock
 62
    0
370
   -2
100
AcDbLine
 10
118.8142135623727
 20
56.41421356237309
 11
115.9857864376265
 21
53.58578643762691
  0
MTEXT
  5
144
100
AcDbEntity
  8
dimensions
  6
CONTINUOUS
 62
    0
370
   -2
100
AcDbMText
 10
112.6499999999998
 20
58.5
 30
0
 40
3
 41
3.666666666667039
 71
    5
 72
    1
  1
95
  7
standard
210
0
220
0
230
1
 50
0
 73
    2
 44
1
  0
LINE
  5
145
100
AcDbEntity
  8
dimensions
  6
ByBlock
 62
    0
370
   -2
100
AcDbLine
 10
107.9
 20
63.00000000000001
 11
107.9
 21
53
  0
LINE
  5
146
100
AcDbEntity
  8
dimensions
  6
ByBlock
 62
    0
370
   -2
100
AcDbLine
 10
117.3999999999996
 20
62.9999999999998
 11
117.3999999999996
 21
53
  0
ENDBLK
  5
86
330
84
100
AcDbEntity
  8
0
100
AcDbBlockEnd
  0
BLOCK
  5
88
330
87
100
AcDbEntity
  8
0
100
AcDbBlockBegin
  2
*D31
 70
    1
 10
0
 20
0
  3
*D31
  1

  0
LINE
  5
147
100
AcDbEntity
  8
dimensions
  6
ByBlock
 62
    0
370
   -2
100
AcDbLine
 10
33.50000000000003
 20
55
 11
46.10000000000003
 21
55
  0
LINE
  5
148
100
AcDbEntity
  8
dimensions
  6
ByBlock
 62
    0
370
   -2
100
AcDbLine
 10
36.08578643762694
 20
53.58578643762691
 11
38.91421356237312
 21
56.41421356237309
  0
LINE
  5
149
100
AcDbEntity
  8
dimensions
  6
ByBlock
 62
    0
370
   -2
100
AcDbLine
 10
40.68578643762694
 20
53.58578643762691
 11
43.51421356237312
 21
56.41421356237309
  0
MTEXT
  5
14A
100
AcDbEntity
  8
dimensions
  6
CONTINUOUS
 62
    0
370
   -2
100
AcDbMText
 10
41
 20
50
 30
0
 40
3
 41
4.000000000000186
 71
    5
 72
    1
  1
46
  7
standard
210
0
220
0
230
1
 50
0
 73
    2
 44
1
  0
LINE
  5
14B
100
AcDbEntity
  8
dimensions
  6
ByBlock
 62
    0
370
   -2
100
AcDbLine
 10
37.50000000000003
 20
62.99999999999994
 11
37.50000000000003
 21
53
  0
LINE
  5
14C
100
AcDbEntity
  8
dimensions
  6
ByBlock
 62
    0
370
   -2
100
AcDbLine
 10
42.10000000000003
 20
63.00000000000003
 11
42.10000000000003
 21
53
  0
ENDBLK
  5
89
330
87
100
AcDbEntity
  8
0
100
AcDbBlockEnd
  0
BLOCK
  5
8B
330
8A
100
AcDbEntity
  8
0
100
AcDbBlockBegin
  2
*D3
 70
    1
 10
0
 20
0
  3
*D3
  1

  0
LINE
  5
14D
100
AcDbEntity
  8
dimensions
  6
ByBlock
 62
    0
370
   -2
100
AcDbLine
 10
115.7
 20
73.70000000000005
 11
120.8
 21
73.70000000000005
  0
LINE
  5
14E
100
AcDbEntity
  8
dimensions
  6
ByBlock
 62
    0
370
   -2
100
AcDbLine
 10
117.1142135623731
 20
75.11421356237314
 11
114.2857864376269
 21
72.28578643762695
  0
LINE
  5
14F
100
AcDbEntity
  8
dimensions
  6
ByBlock
 62
    0
370
   -2
100
AcDbLine
 10
122.2142135623731
 20
75.11421356237314
 11
119.3857864376269
 21
72.28578643762695
  0
MTEXT
  5
150
100
AcDbEntity
  8
dimensions
  6
CONTINUOUS
 62
    0
370
   -2
100
AcDbMText
 10
118.25
 20
77.20000000000005
 30
0
 40
3
 41
3.000000000000186
 71
    5
 72
    1
  1
51
  7
standard
210
0
220
0
230
1
 50
0
 73
    2
 44
1
  0
LINE
  5
151
100
AcDbEntity
  8
dimensions
  6
ByBlock
 62
    0
370
   -2
100
AcDbLine
 10
115.7
 20
69.70000000000002
 11
115.7
 21
75.70000000000005
  0
LINE
  5
152
100
AcDbEntity
  8
dimensions
  6
ByBlock
 62
    0
370
   -2
100
AcDbLine
 10
120.8
 20
69.70000000000003
 11
120.8
 21
75.70000000000005
  0
ENDBLK
  5
8C
330
8A
100
AcDbEntity
  8
0
100
AcDbBlockEnd
  0
BLOCK
  5
8E
330
8D
100
AcDbEntity
  8
0
100
AcDbBlockBegin
  2
*D26
 70
    1
 10
0
 20
0
  3
*D26
  1

  0
LINE
  5
153
100
AcDbEntity
  8
dimensions
  6
ByBlock
 62
    0
370
   -2
100
AcDbLine
 10
-4.700000000000001
 20
0.2999999999995744
 11
-4.7
 21
15.7
  0
LINE
  5
154
100
AcDbEntity
  8
dimensions
  6
ByBlock
 62
    0
370
   -2
100
AcDbLine
 10
-6.114213562373096
 20
1.71421356237267
 11
-3.285786437626906
 21
-1.114213562373521
  0
LINE
  5
155
100
AcDbEntity
  8
dimensions
  6
ByBlock
 62
    0
370
   -2
100
AcDbLine
 10
-6.114213562373095
 20
17.1142135623731
 11
-3.285786437626905
 21
14.2857864376269
  0
MTEXT
  5
156
100
AcDbEntity
  8
dimensions
  6
CONTINUOUS
 62
    0
370
   -2
100
AcDbMText
 10
-8.200000000000001
 20
7.999999999999787
 30
0
 40
3
 41
5.666666666666853
 71
    5
 72
    1
  1
154
  7
standard
210
0
220
0
230
1
 50
90
 73
    2
 44
1
  0
LINE
  5
157
100
AcDbEntity
  8
dimensions
  6
ByBlock
 62
    0
370
   -2
100
AcDbLine
 10
-0.7000000000000852
 20
0.2999999999995738
 11
-6.700000000000001
 21
0.2999999999995746
  0
LINE
  5
158
100
AcDbEntity
  8
dimensions
  6
ByBlock
 62
    0
370
   -2
100
AcDbLine
 10
-0.6999999999999991
 20
15.7
 11
-6.7
 21
15.7
  0
ENDBLK
  5
8F
330
8D
100
AcDbEntity
  8
0
100
AcDbBlockEnd
  0
BLOCK
  5
91
330
90
100
AcDbEntity
  8
0
100
AcDbBlockBegin
  2
*D32
 70
    1
 10
0
 20
0
  3
*D32
  1

  0
LINE
  5
159
100
AcDbEntity
  8
dimensions
  6
ByBlock
 62
    0
370
   -2
100
AcDbLine
 10
80.59999999999965
 20
55
 11
90.40000000000006
 21
55
  0
LINE
  5
15A
100
AcDbEntity
  8
dimensions
  6
ByBlock
 62
    0
370
   -2
100
AcDbLine
 10
83.18578643762656
 20
53.58578643762691
 11
86.01421356237275
 21
56.41421356237309
  0
LINE
  5
15B
100
AcDbEntity
  8
dimensions
  6
ByBlock
 62
    0
370
   -2
100
AcDbLine
 10
84.98578643762697
 20
53.58578643762691
 11
87.81421356237315
 21
56.41421356237309
  0
MTEXT
  5
15C
100
AcDbEntity
  8
dimensions
  6
CONTINUOUS
 62
    0
370
   -2
100
AcDbMText
 10
85.4000000000002
 20
50
 30
0
 40
3
 41
3
 71
    5
 72
    1
  1
18
  7
standard
210
0
220
0
230
1
 50
0
 73
    2
 44
1
  0
LINE
  5
15D
100
AcDbEntity
  8
dimensions
  6
ByBlock
 62
    0
370
   -2
100
AcDbLine
 10
84.59999999999965
 20
62.99999999999982
 11
84.59999999999965
 21
53
  0
LINE
  5
15E
100
AcDbEntity
  8
dimensions
  6
ByBlock
 62
    0
370
   -2
100
AcDbLine
 10
86.40000000000006
 20
63.00000000000003
 11
86.40000000000006
 21
53
  0
ENDBLK
  5
92
330
90
100
AcDbEntity
  8
0
100
AcDbBlockEnd
  0
BLOCK
  5
94
330
93
100
AcDbEntity
  8
0
100
AcDbBlockBegin
  2
*D44
 70
    1
 10
0
 20
0
  3
*D44
  1

  0
LINE
  5
15F
100
AcDbEntity
  8
dimensions
  6
ByBlock
 62
    0
370
   -2
100
AcDbLine
 10
158.5
 20
55
 11
167.9999999999996
 21
55
  0
LINE
  5
160
100
AcDbEntity
  8
dimensions
  6
ByBlock
 62
    0
370
   -2
100
AcDbLine
 10
159.9142135623731
 20
56.41421356237309
 11
157.0857864376269
 21
53.58578643762691
  0
LINE
  5
161
100
AcDbEntity
  8
dimensions
  6
ByBlock
 62
    0
370
   -2
100
AcDbLine
 10
169.4142135623727
 20
56.41421356237309
 11
166.5857864376265
 21
53.58578643762691
  0
MTEXT
  5
162
100
AcDbEntity
  8
dimensions
  6
CONTINUOUS
 62
    0
370
   -2
100
AcDbMText
 10
163.2499999999998
 20
58.5
 30
0
 40
3
 41
3.666666666667039
 71
    5
 72
    1
  1
95
  7
standard
210
0
220
0
230
1
 50
0
 73
    2
 44
1
  0
LINE
  5
163
100
AcDbEntity
  8
dimensions
  6
ByBlock
 62
    0
370
   -2
100
AcDbLine
 10
158.5
 20
63.00000000000009
 11
158.5
 21
53
  0
LINE
  5
164
100
AcDbEntity
  8
dimensions
  6
ByBlock
 62
    0
370
   -2
100
AcDbLine
 10
167.9999999999996
 20
62.99999999999986
 11
167.9999999999996
 21
53
  0
ENDBLK
  5
95
330
93
100
AcDbEntity
  8
0
100
AcDbBlockEnd
  0
BLOCK
  5
97
330
96
100
AcDbEntity
  8
0
100
AcDbBlockBegin
  2
*D14
 70
    1
 10
0
 20
0
  3
*D14
  1

  0
LINE
  5
165
100
AcDbEntity
  8
dimensions
  6
ByBlock
 62
    0
370
   -2
100
AcDbLine
 10
75.10000000000004
 20
55
 11
84.59999999999964
 21
55
  0
LINE
  5
166
100
AcDbEntity
  8
dimensions
  6
ByBlock
 62
    0
370
   -2
100
AcDbLine
 10
76.51421356237313
 20
56.41421356237309
 11
73.68578643762694
 21
53.58578643762691
  0
LINE
  5
167
100
AcDbEntity
  8
dimensions
  6
ByBlock
 62
    0
370
   -2
100
AcDbLine
 10
86.01421356237273
 20
56.41421356237309
 11
83.18578643762655
 21
53.58578643762691
  0
MTEXT
  5
168
100
AcDbEntity
  8
dimensions
  6
CONTINUOUS
 62
    0
370
   -2
100
AcDbMText
 10
79.84999999999984
 20
58.5
 30
0
 40
3
 41
3.666666666667039
 71
    5
 72
    1
  1
95
  7
standard
210
0
220
0
230
1
 50
0
 73
    2
 44
1
  0
LINE
  5
169
100
AcDbEntity
  8
dimensions
  6
ByBlock
 62
    0
370
   -2
100
AcDbLine
 10
75.10000000000004
 20
63.00000000000003
 11
75.10000000000004
 21
53
  0
LINE
  5
16A
100
AcDbEntity
  8
dimensions
  6
ByBlock
 62
    0
370
   -2
100
AcDbLine
 10
84.59999999999964
 20
62.99999999999982
 11
84.59999999999964
 21
53
  0
ENDBLK
  5
98
330
96
100
AcDbEntity
  8
0
100
AcDbBlockEnd
  0
BLOCK
  5
9A
330
99
100
AcDbEntity
  8
0
100
AcDbBlockBegin
  2
*D22
 70
    1
 10
0
 20
0
  3
*D22
  1

  0
LINE
  5
16B
100
AcDbEntity
  8
dimensions
  6
ByBlock
 62
    0
370
   -2
100
AcDbLine
 10
-4.700000000000001
 20
53.3
 11
-4.7
 21
68.70000000000002
  0
LINE
  5
16C
100
AcDbEntity
  8
dimensions
  6
ByBlock
 62
    0
370
   -2
100
AcDbLine
 10
-6.114213562373096
 20
54.7142135623731
 11
-3.285786437626906
 21
51.88578643762691
  0
LINE
  5
16D
100
AcDbEntity
  8
dimensions
  6
ByBlock
 62
    0
370
   -2
100
AcDbLine
 10
-6.114213562373095
 20
70.11421356237311
 11
-3.285786437626905
 21
67.28578643762692
  0
MTEXT
  5
16E
100
AcDbEntity
  8
dimensions
  6
CONTINUOUS
 62
    0
370
   -2
100
AcDbMText
 10
-8.200000000000001
 20
61.00000000000001
 30
0
 40
3
 41
5.666666666666853
 71
    5
 72
    1
  1
154
  7
standard
210
0
220
0
230
1
 50
90
 73
    2
 44
1
  0
LINE
  5
16F
100
AcDbEntity
  8
dimensions
  6
ByBlock
 62
    0
370
   -2
100
AcDbLine
 10
-0.6999999999999998
 20
53.3
 11
-6.700000000000001
 21
53.3
  0
LINE
  5
170
100
AcDbEntity
  8
dimensions
  6
ByBlock
 62
    0
370
   -2
100
AcDbLine
 10
-0.6999999999999715
 20
68.70000000000002
 11
-6.7
 21
68.70000000000002
  0
ENDBLK
  5
9B
330
99
100
AcDbEntity
  8
0
100
AcDbBlockEnd
  0
BLOCK
  5
9D
330
9C
100
AcDbEntity
  8
0
100
AcDbBlockBegin
  2
*D35
 70
    1
 10
0
 20
0
  3
*D35
  1

  0
LINE
  5
171
100
AcDbEntity
  8
dimensions
  6
ByBlock
 62
    0
370
   -2
100
AcDbLine
 10
99.50000000000003
 20
55
 11
111.9
 21
55
  0
LINE
  5
172
100
AcDbEntity
  8
dimensions
  6
ByBlock
 62
    0
370
   -2
100
AcDbLine
 10
102.0857864376269
 20
53.58578643762691
 11
104.9142135623731
 21
56.41421356237309
  0
LINE
  5
173
100
AcDbEntity
  8
dimensions
  6
ByBlock
 62
    0
370
   -2
100
AcDbLine
 10
106.4857864376269
 20
53.58578643762691
 11
109.3142135623731
 21
56.41421356237309
  0
MTEXT
  5
174
100
AcDbEntity
  8
dimensions
  6
CONTINUOUS
 62
    0
370
   -2
100
AcDbMText
 10
107
 20
50
 30
0
 40
3
 41
4.333333333333333
 71
    5
 72
    1
  1
44
  7
standard
210
0
220
0
230
1
 50
0
 73
    2
 44
1
  0
LINE
  5
175
100
AcDbEntity
  8
dimensions
  6
ByBlock
 62
    0
370
   -2
100
AcDbLine
 10
103.5
 20
62.99999999999997
 11
103.5
 21
53
  0
LINE
  5
176
100
AcDbEntity
  8
dimensions
  6
ByBlock
 62
    0
370
   -2
100
AcDbLine
 10
107.9
 20
63.00000000000001
 11
107.9
 21
53
  0
ENDBLK
  5
9E
330
9C
100
AcDbEntity
  8
0
100
AcDbBlockEnd
  0
BLOCK
  5
A0
330
9F
100
AcDbEntity
  8
0
100
AcDbBlockBegin
  2
*D42
 70
    1
 10
0
 20
0
  3
*D42
  1

  0
LINE
  5
177
100
AcDbEntity
  8
dimensions
  6
ByBlock
 62
    0
370
   -2
100
AcDbLine
 10
137
 20
55
 11
144.9
 21
55
  0
LINE
  5
178
100
AcDbEntity
  8
dimensions
  6
ByBlock
 62
    0
370
   -2
100
AcDbLine
 10
138.4142135623731
 20
56.41421356237309
 11
135.5857864376269
 21
53.58578643762691
  0
LINE
  5
179
100
AcDbEntity
  8
dimensions
  6
ByBlock
 62
    0
370
   -2
100
AcDbLine
 10
146.3142135623731
 20
56.41421356237309
 11
143.4857864376269
 21
53.58578643762691
  0
MTEXT
  5
17A
100
AcDbEntity
  8
dimensions
  6
CONTINUOUS
 62
    0
370
   -2
100
AcDbMText
 10
140.95
 20
58.5
 30
0
 40
3
 41
3.666666666666667
 71
    5
 72
    1
  1
79
  7
standard
210
0
220
0
230
1
 50
0
 73
    2
 44
1
  0
LINE
  5
17B
100
AcDbEntity
  8
dimensions
  6
ByBlock
 62
    0
370
   -2
100
AcDbLine
 10
137
 20
63.00000000000001
 11
137
 21
53
  0
LINE
  5
17C
100
AcDbEntity
  8
dimensions
  6
ByBlock
 62
    0
370
   -2
100
AcDbLine
 10
144.9
 20
63.00000000000006
 11
144.9
 21
53
  0
ENDBLK
  5
A1
330
9F
100
AcDbEntity
  8
0
100
AcDbBlockEnd
  0
BLOCK
  5
A3
330
A2
100
AcDbEntity
  8
0
100
AcDbBlockBegin
  2
*D38
 70
    1
 10
0
 20
0
  3
*D38
  1

  0
LINE
  5
17D
100
AcDbEntity
  8
dimensions
  6
ByBlock
 62
    0
370
   -2
100
AcDbLine
 10
152.7
 20
73.70000000000009
 11
160.2
 21
73.70000000000009
  0
LINE
  5
17E
100
AcDbEntity
  8
dimensions
  6
ByBlock
 62
    0
370
   -2
100
AcDbLine
 10
154.1142135623731
 20
75.11421356237318
 11
151.2857864376269
 21
72.285786437627
  0
LINE
  5
17F
100
AcDbEntity
  8
dimensions
  6
ByBlock
 62
    0
370
   -2
100
AcDbLine
 10
161.6142135623731
 20
75.11421356237318
 11
158.7857864376269
 21
72.285786437627
  0
MTEXT
  5
180
100
AcDbEntity
  8
dimensions
  6
CONTINUOUS
 62
    0
370
   -2
100
AcDbMText
 10
156.45
 20
77.20000000000009
 30
0
 40
3
 41
3.666666666666853
 71
    5
 72
    1
  1
75
  7
standard
210
0
220
0
230
1
 50
0
 73
    2
 44
1
  0
LINE
  5
181
100
AcDbEntity
  8
dimensions
  6
ByBlock
 62
    0
370
   -2
100
AcDbLine
 10
152.7
 20
69.70000000000006
 11
152.7
 21
75.70000000000009
  0
LINE
  5
182
100
AcDbEntity
  8
dimensions
  6
ByBlock
 62
    0
370
   -2
100
AcDbLine
 10
160.2
 20
69.70000000000009
 11
160.2
 21
75.70000000000009
  0
ENDBLK
  5
A4
330
A2
100
AcDbEntity
  8
0
100
AcDbBlockEnd
  0
BLOCK
  5
A6
330
A5
100
AcDbEntity
  8
0
100
AcDbBlockBegin
  2
*D7
 70
    1
 10
0
 20
0
  3
*D7
  1

  0
LINE
  5
183
100
AcDbEntity
  8
dimensions
  6
ByBlock
 62
    0
370
   -2
100
AcDbLine
 10
76.80000000000004
 20
73.70000000000002
 11
82.90000000000003
 21
73.70000000000002
  0
LINE
  5
184
100
AcDbEntity
  8
dimensions
  6
ByBlock
 62
    0
370
   -2
100
AcDbLine
 10
78.21421356237313
 20
75.11421356237311
 11
75.38578643762695
 21
72.28578643762692
  0
LINE
  5
185
100
AcDbEntity
  8
dimensions
  6
ByBlock
 62
    0
370
   -2
100
AcDbLine
 10
84.31421356237313
 20
75.11421356237311
 11
81.48578643762694
 21
72.28578643762692
  0
MTEXT
  5
186
100
AcDbEntity
  8
dimensions
  6
CONTINUOUS
 62
    0
370
   -2
100
AcDbMText
 10
79.85000000000004
 20
77.20000000000002
 30
0
 40
3
 41
3.000000000000186
 71
    5
 72
    1
  1
61
  7
standard
210
0
220
0
230
1
 50
0
 73
    2
 44
1
  0
LINE
  5
187
100
AcDbEntity
  8
dimensions
  6
ByBlock
 62
    0
370
   -2
100
AcDbLine
 10
76.80000000000004
 20
69.70000000000003
 11
76.80000000000004
 21
75.70000000000002
  0
LINE
  5
188
100
AcDbEntity
  8
dimensions
  6
ByBlock
 62
    0
370
   -2
100
AcDbLine
 10
82.90000000000003
 20
69.70000000000003
 11
82.90000000000003
 21
75.70000000000002
  0
ENDBLK
  5
A7
330
A5
100
AcDbEntity
  8
0
100
AcDbBlockEnd
  0
BLOCK
  5
A9
330
A8
100
AcDbEntity
  8
0
100
AcDbBlockBegin
  2
*D36
 70
    1
 10
0
 20
0
  3
*D36
  1

  0
LINE
  5
189
100
AcDbEntity
  8
dimensions
  6
ByBlock
 62
    0
370
   -2
100
AcDbLine
 10
113.3999999999996
 20
55
 11
123.1
 21
55
  0
LINE
  5
18A
100
AcDbEntity
  8
dimensions
  6
ByBlock
 62
    0
370
   -2
100
AcDbLine
 10
115.9857864376265
 20
53.58578643762691
 11
118.8142135623727
 21
56.41421356237309
  0
LINE
  5
18B
100
AcDbEntity
  8
dimensions
  6
ByBlock
 62
    0
370
   -2
100
AcDbLine
 10
117.6857864376269
 20
53.58578643762691
 11
120.5142135623731
 21
56.41421356237309
  0
MTEXT
  5
18C
100
AcDbEntity
  8
dimensions
  6
CONTINUOUS
 62
    0
370
   -2
100
AcDbMText
 10
118.3500000000002
 20
50
 30
0
 40
3
 41
3
 71
    5
 72
    1
  1
17
  7
standard
210
0
220
0
230
1
 50
0
 73
    2
 44
1
  0
LINE
  5
18D
100
AcDbEntity
  8
dimensions
  6
ByBlock
 62
    0
370
   -2
100
AcDbLine
 10
117.3999999999996
 20
62.9999999999998
 11
117.3999999999996
 21
53
  0
LINE
  5
18E
100
AcDbEntity
  8
dimensions
  6
ByBlock
 62
    0
370
   -2
100
AcDbLine
 10
119.1
 20
63.00000000000003
 11
119.1
 21
53
  0
ENDBLK
  5
AA
330
A8
100
AcDbEntity
  8
0
100
AcDbBlockEnd
  0
BLOCK
  5
AC
330
AB
100
AcDbEntity
  8
0
100
AcDbBlockBegin
  2
*D34
 70
    1
 10
0
 20
0
  3
*D34
  1

  0
LINE
  5
18F
100
AcDbEntity
  8
dimensions
  6
ByBlock
 62
    0
370
   -2
100
AcDbLine
 10
91.89999999999968
 20
55
 11
104.5
 21
55
  0
LINE
  5
190
100
AcDbEntity
  8
dimensions
  6
ByBlock
 62
    0
370
   -2
100
AcDbLine
 10
94.48578643762659
 20
53.58578643762691
 11
97.31421356237277
 21
56.41421356237309
  0
LINE
  5
191
100
AcDbEntity
  8
dimensions
  6
ByBlock
 62
    0
370
   -2
100
AcDbLine
 10
99.08578643762694
 20
53.58578643762691
 11
101.9142135623731
 21
56.41421356237309
  0
MTEXT
  5
192
100
AcDbEntity
  8
dimensions
  6
CONTINUOUS
 62
    0
370
   -2
100
AcDbMText
 10
97
 20
50
 30
0
 40
3
 41
4.000000000000186
 71
    5
 72
    1
  1
46
  7
standard
210
0
220
0
230
1
 50
0
 73
    2
 44
1
  0
LINE
  5
193
100
AcDbEntity
  8
dimensions
  6
ByBlock
 62
    0
370
   -2
100
AcDbLine
 10
95.89999999999968
 20
62.99999999999982
 11
95.89999999999968
 21
53
  0
LINE
  5
194
100
AcDbEntity
  8
dimensions
  6
ByBlock
 62
    0
370
   -2
100
AcDbLine
 10
100.5
 20
62.99999999999994
 11
100.5
 21
53
  0
ENDBLK
  5
AD
330
AB
100
AcDbEntity
  8
0
100
AcDbBlockEnd
  0
BLOCK
  5
AF
330
AE
100
AcDbEntity
  8
0
100
AcDbBlockBegin
  2
*D9
 70
    1
 10
0
 20
0
  3
*D9
  1

  0
LINE
  5
195
100
AcDbEntity
  8
dimensions
  6
ByBlock
 62
    0
370
   -2
100
AcDbLine
 10
109.6
 20
73.70000000000002
 11
94.20000000000005
 21
73.70000000000002
  0
LINE
  5
196
100
AcDbEntity
  8
dimensions
  6
ByBlock
 62
    0
370
   -2
100
AcDbLine
 10
108.1857864376269
 20
72.28578643762692
 11
111.0142135623731
 21
75.11421356237311
  0
LINE
  5
197
100
AcDbEntity
  8
dimensions
  6
ByBlock
 62
    0
370
   -2
100
AcDbLine
 10
92.78578643762695
 20
72.28578643762692
 11
95.61421356237314
 21
75.11421356237311
  0
MTEXT
  5
198
100
AcDbEntity
  8
dimensions
  6
CONTINUOUS
 62
    0
370
   -2
100
AcDbMText
 10
101.9
 20
77.20000000000002
 30
0
 40
3
 41
5.666666666666853
 71
    5
 72
    1
  1
154
  7
standard
210
0
220
0
230
1
 50
360
 73
    2
 44
1
  0
LINE
  5
199
100
AcDbEntity
  8
dimensions
  6
ByBlock
 62
    0
370
   -2
100
AcDbLine
 10
109.6
 20
69.7
 11
109.6
 21
75.70000000000002
  0
LINE
  5
19A
100
AcDbEntity
  8
dimensions
  6
ByBlock
 62
    0
370
   -2
100
AcDbLine
 10
94.20000000000005
 20
69.70000000000003
 11
94.20000000000005
 21
75.70000000000002
  0
ENDBLK
  5
B0
330
AE
100
AcDbEntity
  8
0
100
AcDbBlockEnd
  0
BLOCK
  5
B2
330
B1
100
AcDbEntity
  8
0
100
AcDbBlockBegin
  2
*D17
 70
    1
 10
0
 20
0
  3
*D17
  1

  0
LINE
  5
19B
100
AcDbEntity
  8
dimensions
  6
ByBlock
 62
    0
370
   -2
100
AcDbLine
 10
119.1
 20
55
 11
128.5999999999996
 21
55
  0
LINE
  5
19C
100
AcDbEntity
  8
dimensions
  6
ByBlock
 62
    0
370
   -2
100
AcDbLine
 10
120.5142135623731
 20
56.41421356237309
 11
117.6857864376269
 21
53.58578643762691
  0
LINE
  5
19D
100
AcDbEntity
  8
dimensions
  6
ByBlock
 62
    0
370
   -2
100
AcDbLine
 10
130.0142135623727
 20
56.41421356237309
 11
127.1857864376265
 21
53.58578643762691
  0
MTEXT
  5
19E
100
AcDbEntity
  8
dimensions
  6
CONTINUOUS
 62
    0
370
   -2
100
AcDbMText
 10
123.8499999999998
 20
58.5
 30
0
 40
3
 41
3.666666666667039
 71
    5
 72
    1
  1
95
  7
standard
210
0
220
0
230
1
 50
0
 73
    2
 44
1
  0
LINE
  5
19F
100
AcDbEntity
  8
dimensions
  6
ByBlock
 62
    0
370
   -2
100
AcDbLine
 10
119.1
 20
63.00000000000003
 11
119.1
 21
53
  0
LINE
  5
1A0
100
AcDbEntity
  8
dimensions
  6
ByBlock
 62
    0
370
   -2
100
AcDbLine
 10
128.5999999999996
 20
62.9999999999998
 11
128.5999999999996
 21
53
  0
ENDBLK
  5
B3
330
B1
100
AcDbEntity
  8
0
100
AcDbBlockEnd
  0
BLOCK
  5
B5
330
B4
100
AcDbEntity
  8
0
100
AcDbBlockBegin
  2
*D43
 70
    1
 10
0
 20
0
  3
*D43
  1

  0
LINE
  5
1A1
100
AcDbEntity
  8
dimensions
  6
ByBlock
 62
    0
370
   -2
100
AcDbLine
 10
144.9
 20
55
 11
154.3999999999996
 21
55
  0
LINE
  5
1A2
100
AcDbEntity
  8
dimensions
  6
ByBlock
 62
    0
370
   -2
100
AcDbLine
 10
146.3142135623731
 20
56.41421356237309
 11
143.4857864376269
 21
53.58578643762691
  0
LINE
  5
1A3
100
AcDbEntity
  8
dimensions
  6
ByBlock
 62
    0
370
   -2
100
AcDbLine
 10
155.8142135623727
 20
56.41421356237309
 11
152.9857864376265
 21
53.58578643762691
  0
MTEXT
  5
1A4
100
AcDbEntity
  8
dimensions
  6
CONTINUOUS
 62
    0
370
   -2
100
AcDbMText
 10
149.6499999999998
 20
58.5
 30
0
 40
3
 41
3.666666666667039
 71
    5
 72
    1
  1
95
  7
standard
210
0
220
0
230
1
 50
0
 73
    2
 44
1
  0
LINE
  5
1A5
100
AcDbEntity
  8
dimensions
  6
ByBlock
 62
    0
370
   -2
100
AcDbLine
 10
144.9
 20
63.00000000000006
 11
144.9
 21
53
  0
LINE
  5
1A6
100
AcDbEntity
  8
dimensions
  6
ByBlock
 62
    0
370
   -2
100
AcDbLine
 10
154.3999999999996
 20
62.99999999999983
 11
154.3999999999996
 21
53
  0
ENDBLK
  5
B6
330
B4
100
AcDbEntity
  8
0
100
AcDbBlockEnd
  0
BLOCK
  5
B8
330
B7
100
AcDbEntity
  8
0
100
AcDbBlockBegin
  2
*D33
 70
    1
 10
0
 20
0
  3
*D33
  1

  0
LINE
  5
1A7
100
AcDbEntity
  8
dimensions
  6
ByBlock
 62
    0
370
   -2
100
AcDbLine
 10
66.50000000000003
 20
55
 11
79.10000000000005
 21
55
  0
LINE
  5
1A8
100
AcDbEntity
  8
dimensions
  6
ByBlock
 62
    0
370
   -2
100
AcDbLine
 10
69.08578643762694
 20
53.58578643762691
 11
71.91421356237312
 21
56.41421356237309
  0
LINE
  5
1A9
100
AcDbEntity
  8
dimensions
  6
ByBlock
 62
    0
370
   -2
100
AcDbLine
 10
73.68578643762696
 20
53.58578643762691
 11
76.51421356237314
 21
56.41421356237309
  0
MTEXT
  5
1AA
100
AcDbEntity
  8
dimensions
  6
CONTINUOUS
 62
    0
370
   -2
100
AcDbMText
 10
74
 20
50
 30
0
 40
3
 41
4.000000000000186
 71
    5
 72
    1
  1
46
  7
standard
210
0
220
0
230
1
 50
0
 73
    2
 44
1
  0
LINE
  5
1AB
100
AcDbEntity
  8
dimensions
  6
ByBlock
 62
    0
370
   -2
100
AcDbLine
 10
70.50000000000003
 20
62.99999999999994
 11
70.50000000000003
 21
53
  0
LINE
  5
1AC
100
AcDbEntity
  8
dimensions
  6
ByBlock
 62
    0
370
   -2
100
AcDbLine
 10
75.10000000000005
 20
63.00000000000004
 11
75.10000000000005
 21
53
  0
ENDBLK
  5
B9
330
B7
100
AcDbEntity
  8
0
100
AcDbBlockEnd
  0
BLOCK
  5
BB
330
BA
100
AcDbEntity
  8
0
100
AcDbBlockBegin
  2
*D2
 70
    1
 10
0
 20
0
  3
*D2
  1

  0
LINE
  5
1AD
100
AcDbEntity
  8
dimensions
  6
ByBlock
 62
    0
370
   -2
100
AcDbLine
 10
82.90000000000003
 20
73.70000000000002
 11
88.10000000000005
 21
73.70000000000002
  0
LINE
  5
1AE
100
AcDbEntity
  8
dimensions
  6
ByBlock
 62
    0
370
   -2
100
AcDbLine
 10
84.31421356237313
 20
75.11421356237311
 11
81.48578643762694
 21
72.28578643762692
  0
LINE
  5
1AF
100
AcDbEntity
  8
dimensions
  6
ByBlock
 62
    0
370
   -2
100
AcDbLine
 10
89.51421356237314
 20
75.11421356237311
 11
86.68578643762696
 21
72.28578643762692
  0
MTEXT
  5
1B0
100
AcDbEntity
  8
dimensions
  6
CONTINUOUS
 62
    0
370
   -2
100
AcDbMText
 10
85.50000000000004
 20
77.20000000000002
 30
0
 40
3
 41
3.666666666666853
 71
    5
 72
    1
  1
52
  7
standard
210
0
220
0
230
1
 50
0
 73
    2
 44
1
  0
LINE
  5
1B1
100
AcDbEntity
  8
dimensions
  6
ByBlock
 62
    0
370
   -2
100
AcDbLine
 10
82.90000000000003
 20
69.70000000000003
 11
82.90000000000003
 21
75.70000000000002
  0
LINE
  5
1B2
100
AcDbEntity
  8
dimensions
  6
ByBlock
 62
    0
370
   -2
100
AcDbLine
 10
88.10000000000005
 20
69.70000000000003
 11
88.10000000000005
 21
75.70000000000002
  0
ENDBLK
  5
BC
330
BA
100
AcDbEntity
  8
0
100
AcDbBlockEnd
  0
BLOCK
  5
BE
330
BD
100
AcDbEntity
  8
0
100
AcDbBlockBegin
  2
*D47
 70
    1
 10
0
 20
0
  3
*D47
  1

  0
LINE
  5
1B3
100
AcDbEntity
  8
dimensions
  6
ByBlock
 62
    0
370
   -2
100
AcDbLine
 10
167.9999999999996
 20
55
 11
176
 21
55
  0
LINE
  5
1B4
100
AcDbEntity
  8
dimensions
  6
ByBlock
 62
    0
370
   -2
100
AcDbLine
 10
169.4142135623727
 20
56.41421356237309
 11
166.5857864376265
 21
53.58578643762691
  0
LINE
  5
1B5
100
AcDbEntity
  8
dimensions
  6
ByBlock
 62
    0
370
   -2
100
AcDbLine
 10
177.4142135623731
 20
56.41421356237309
 11
174.5857864376269
 21
53.58578643762691
  0
MTEXT
  5
1B6
100
AcDbEntity
  8
dimensions
  6
CONTINUOUS
 62
    0
370
   -2
100
AcDbMText
 10
171.9999999999998
 20
58.5
 30
0
 40
3
 41
3.666666666666666
 71
    5
 72
    1
  1
80
  7
standard
210
0
220
0
230
1
 50
0
 73
    2
 44
1
  0
LINE
  5
1B7
100
AcDbEntity
  8
dimensions
  6
ByBlock
 62
    0
370
   -2
100
AcDbLine
 10
167.9999999999996
 20
62.99999999999986
 11
167.9999999999996
 21
53
  0
LINE
  5
1B8
100
AcDbEntity
  8
dimensions
  6
ByBlock
 62
    0
370
   -2
100
AcDbLine
 10
176
 20
63.00000000000001
 11
176
 21
53
  0
ENDBLK
  5
BF
330
BD
100
AcDbEntity
  8
0
100
AcDbBlockEnd
  0
BLOCK
  5
C1
330
C0
100
AcDbEntity
  8
0
100
AcDbBlockBegin
  2
*D10
 70
    1
 10
0
 20
0
  3
*D10
  1

  0
LINE
  5
1B9
100
AcDbEntity
  8
dimensions
  6
ByBlock
 62
    0
370
   -2
100
AcDbLine
 10
109.6
 20
73.70000000000002
 11
115.7
 21
73.70000000000002
  0
LINE
  5
1BA
100
AcDbEntity
  8
dimensions
  6
ByBlock
 62
    0
370
   -2
100
AcDbLine
 10
111.0142135623731
 20
75.11421356237311
 11
108.1857864376269
 21
72.28578643762692
  0
LINE
  5
1BB
100
AcDbEntity
  8
dimensions
  6
ByBlock
 62
    0
370
   -2
100
AcDbLine
 10
117.1142135623731
 20
75.11421356237311
 11
114.2857864376269
 21
72.28578643762692
  0
MTEXT
  5
1BC
100
AcDbEntity
  8
dimensions
  6
CONTINUOUS
 62
    0
370
   -2
100
AcDbMText
 10
112.65
 20
77.20000000000002
 30
0
 40
3
 41
3.000000000000186
 71
    5
 72
    1
  1
61
  7
standard
210
0
220
0
230
1
 50
0
 73
    2
 44
1
  0
LINE
  5
1BD
100
AcDbEntity
  8
dimensions
  6
ByBlock
 62
    0
370
   -2
100
AcDbLine
 10
109.6
 20
69.7
 11
109.6
 21
75.70000000000002
  0
LINE
  5
1BE
100
AcDbEntity
  8
dimensions
  6
ByBlock
 62
    0
370
   -2
100
AcDbLine
 10
115.7
 20
69.70000000000002
 11
115.7
 21
75.70000000000002
  0
ENDBLK
  5
C2
330
C0
100
AcDbEntity
  8
0
100
AcDbBlockEnd
  0
BLOCK
  5
C4
330
C3
100
AcDbEntity
  8
0
100
AcDbBlockBegin
  2
*D37
 70
    1
 10
0
 20
0
  3
*D37
  1

  0
LINE
  5
1BF
100
AcDbEntity
  8
dimensions
  6
ByBlock
 62
    0
370
   -2
100
AcDbLine
 10
124.5999999999996
 20
55
 11
137
 21
55
  0
LINE
  5
1C0
100
AcDbEntity
  8
dimensions
  6
ByBlock
 62
    0
370
   -2
100
AcDbLine
 10
127.1857864376265
 20
53.58578643762691
 11
130.0142135623727
 21
56.41421356237309
  0
LINE
  5
1C1
100
AcDbEntity
  8
dimensions
  6
ByBlock
 62
    0
370
   -2
100
AcDbLine
 10
131.5857864376269
 20
53.58578643762691
 11
134.4142135623731
 21
56.41421356237309
  0
MTEXT
  5
1C2
100
AcDbEntity
  8
dimensions
  6
CONTINUOUS
 62
    0
370
   -2
100
AcDbMText
 10
130
 20
50
 30
0
 40
3
 41
4.333333333333333
 71
    5
 72
    1
  1
44
  7
standard
210
0
220
0
230
1
 50
0
 73
    2
 44
1
  0
LINE
  5
1C3
100
AcDbEntity
  8
dimensions
  6
ByBlock
 62
    0
370
   -2
100
AcDbLine
 10
128.5999999999996
 20
62.9999999999998
 11
128.5999999999996
 21
53
  0
LINE
  5
1C4
100
AcDbEntity
  8
dimensions
  6
ByBlock
 62
    0
370
   -2
100
AcDbLine
 10
133
 20
63.00000000000001
 11
133
 21
53
  0
ENDBLK
  5
C5
330
C3
100
AcDbEntity
  8
0
100
AcDbBlockEnd
  0
BLOCK
  5
C7
330
C6
100
AcDbEntity
  8
0
100
AcDbBlockBegin
  2
*D27
 70
    1
 10
0
 20
0
  3
*D27
  1

  0
LINE
  5
1C5
100
AcDbEntity
  8
dimensions
  6
ByBlock
 62
    0
370
   -2
100
AcDbLine
 10
13
 20
24.3
 11
13
 21
44.70000000000001
  0
LINE
  5
1C6
100
AcDbEntity
  8
dimensions
  6
ByBlock
 62
    0
370
   -2
100
AcDbLine
 10
11.5857864376269
 20
25.71421356237309
 11
14.41421356237309
 21
22.8857864376269
  0
LINE
  5
1C7
100
AcDbEntity
  8
dimensions
  6
ByBlock
 62
    0
370
   -2
100
AcDbLine
 10
11.58578643762691
 20
46.1142135623731
 11
14.41421356237309
 21
43.28578643762692
  0
MTEXT
  5
1C8
100
AcDbEntity
  8
dimensions
  6
CONTINUOUS
 62
    0
370
   -2
100
AcDbMText
 10
9.5
 20
34.5
 30
0
 40
3
 41
6.333333333333333
 71
    5
 72
    1
  1
204
  7
standard
210
0
220
0
230
1
 50
90
 73
    2
 44
1
  0
LINE
  5
1C9
100
AcDbEntity
  8
dimensions
  6
ByBlock
 62
    0
370
   -2
100
AcDbLine
 10
6.000000000000001
 20
24.3
 11
15
 21
24.3
  0
LINE
  5
1CA
100
AcDbEntity
  8
dimensions
  6
ByBlock
 62
    0
370
   -2
100
AcDbLine
 10
6
 20
44.70000000000001
 11
15
 21
44.70000000000001
  0
ENDBLK
  5
C8
330
C6
100
AcDbEntity
  8
0
100
AcDbBlockEnd
  0
BLOCK
  5
CA
330
C9
100
AcDbEntity
  8
0
100
AcDbBlockBegin
  2
*D23
 70
    1
 10
0
 20
0
  3
*D23
  1

  0
LINE
  5
1CB
100
AcDbEntity
  8
dimensions
  6
ByBlock
 62
    0
370
   -2
100
AcDbLine
 10
-4.700000000000001
 20
15.7
 11
-4.7
 21
23.7
  0
LINE
  5
1CC
100
AcDbEntity
  8
dimensions
  6
ByBlock
 62
    0
370
   -2
100
AcDbLine
 10
-6.114213562373096
 20
17.1142135623731
 11
-3.285786437626906
 21
14.2857864376269
  0
LINE
  5
1CD
100
AcDbEntity
  8
dimensions
  6
ByBlock
 62
    0
370
   -2
100
AcDbLine
 10
-6.114213562373095
 20
25.1142135623731
 11
-3.285786437626905
 21
22.2857864376269
  0
MTEXT
  5
1CE
100
AcDbEntity
  8
dimensions
  6
CONTINUOUS
 62
    0
370
   -2
100
AcDbMText
 10
-8.200000000000001
 20
19.7
 30
0
 40
3
 41
7.666666666666666
 71
    5
 72
    1
  1
80%%P1
  7
standard
210
0
220
0
230
1
 50
90
 73
    2
 44
1
  0
LINE
  5
1CF
100
AcDbEntity
  8
dimensions
  6
ByBlock
 62
    0
370
   -2
100
AcDbLine
 10
-0.6999999999999991
 20
15.7
 11
-6.700000000000001
 21
15.7
  0
LINE
  5
1D0
100
AcDbEntity
  8
dimensions
  6
ByBlock
 62
    0
370
   -2
100
AcDbLine
 10
-0.6999999999999985
 20
23.7
 11
-6.7
 21
23.7
  0
ENDBLK
  5
CB
330
C9
100
AcDbEntity
  8
0
100
AcDbBlockEnd
  0
BLOCK
  5
CD
330
CC
100
AcDbEntity
  8
0
100
AcDbBlockBegin
  2
*D8
 70
    1
 10
0
 20
0
  3
*D8
  1

  0
LINE
  5
1D1
100
AcDbEntity
  8
dimensions
  6
ByBlock
 62
    0
370
   -2
100
AcDbLine
 10
88.10000000000005
 20
73.70000000000002
 11
94.20000000000005
 21
73.70000000000002
  0
LINE
  5
1D2
100
AcDbEntity
  8
dimensions
  6
ByBlock
 62
    0
370
   -2
100
AcDbLine
 10
89.51421356237314
 20
75.11421356237311
 11
86.68578643762696
 21
72.28578643762692
  0
LINE
  5
1D3
100
AcDbEntity
  8
dimensions
  6
ByBlock
 62
    0
370
   -2
100
AcDbLine
 10
95.61421356237314
 20
75.11421356237311
 11
92.78578643762695
 21
72.28578643762692
  0
MTEXT
  5
1D4
100
AcDbEntity
  8
dimensions
  6
CONTINUOUS
 62
    0
370
   -2
100
AcDbMText
 10
91.15000000000005
 20
77.20000000000002
 30
0
 40
3
 41
3.000000000000186
 71
    5
 72
    1
  1
61
  7
standard
210
0
220
0
230
1
 50
0
 73
    2
 44
1
  0
LINE
  5
1D5
100
AcDbEntity
  8
dimensions
  6
ByBlock
 62
    0
370
   -2
100
AcDbLine
 10
88.10000000000005
 20
69.70000000000003
 11
88.10000000000005
 21
75.70000000000002
  0
LINE
  5
1D6
100
AcDbEntity
  8
dimensions
  6
ByBlock
 62
    0
370
   -2
100
AcDbLine
 10
94.20000000000005
 20
69.70000000000003
 11
94.20000000000005
 21
75.70000000000002
  0
ENDBLK
  5
CE
330
CC
100
AcDbEntity
  8
0
100
AcDbBlockEnd
  0
BLOCK
  5
D0
330
CF
100
AcDbEntity
  8
0
100
AcDbBlockBegin
  2
*D29
 70
    1
 10
0
 20
0
  3
*D29
  1

  0
LINE
  5
1D7
100
AcDbEntity
  8
dimensions
  6
ByBlock
 62
    0
370
   -2
100
AcDbLine
 10
47.59999999999963
 20
55
 11
57.40000000000005
 21
55
  0
LINE
  5
1D8
100
AcDbEntity
  8
dimensions
  6
ByBlock
 62
    0
370
   -2
100
AcDbLine
 10
50.18578643762654
 20
53.58578643762691
 11
53.01421356237272
 21
56.41421356237309
  0
LINE
  5
1D9
100
AcDbEntity
  8
dimensions
  6
ByBlock
 62
    0
370
   -2
100
AcDbLine
 10
51.98578643762696
 20
53.58578643762691
 11
54.81421356237314
 21
56.41421356237309
  0
MTEXT
  5
1DA
100
AcDbEntity
  8
dimensions
  6
CONTINUOUS
 62
    0
370
   -2
100
AcDbMText
 10
52.4000000000002
 20
50
 30
0
 40
3
 41
3
 71
    5
 72
    1
  1
18
  7
standard
210
0
220
0
230
1
 50
0
 73
    2
 44
1
  0
LINE
  5
1DB
100
AcDbEntity
  8
dimensions
  6
ByBlock
 62
    0
370
   -2
100
AcDbLine
 10
51.59999999999963
 20
62.99999999999982
 11
51.59999999999963
 21
53
  0
LINE
  5
1DC
100
AcDbEntity
  8
dimensions
  6
ByBlock
 62
    0
370
   -2
100
AcDbLine
 10
53.40000000000005
 20
63.00000000000004
 11
53.40000000000005
 21
53
  0
ENDBLK
  5
D1
330
CF
100
AcDbEntity
  8
0
100
AcDbBlockEnd
  0
BLOCK
  5
D3
330
D2
100
AcDbEntity
  8
0
100
AcDbBlockBegin
  2
*D12
 70
    1
 10
0
 20
0
  3
*D12
  1

  0
LINE
  5
1DD
100
AcDbEntity
  8
dimensions
  6
ByBlock
 62
    0
370
   -2
100
AcDbLine
 10
42.10000000000003
 20
55
 11
51.59999999999964
 21
55
  0
LINE
  5
1DE
100
AcDbEntity
  8
dimensions
  6
ByBlock
 62
    0
370
   -2
100
AcDbLine
 10
43.51421356237312
 20
56.41421356237309
 11
40.68578643762694
 21
53.58578643762691
  0
LINE
  5
1DF
100
AcDbEntity
  8
dimensions
  6
ByBlock
 62
    0
370
   -2
100
AcDbLine
 10
53.01421356237273
 20
56.41421356237309
 11
50.18578643762655
 21
53.58578643762691
  0
MTEXT
  5
1E0
100
AcDbEntity
  8
dimensions
  6
CONTINUOUS
 62
    0
370
   -2
100
AcDbMText
 10
46.84999999999984
 20
58.5
 30
0
 40
3
 41
3.666666666667039
 71
    5
 72
    1
  1
95
  7
standard
210
0
220
0
230
1
 50
0
 73
    2
 44
1
  0
LINE
  5
1E1
100
AcDbEntity
  8
dimensions
  6
ByBlock
 62
    0
370
   -2
100
AcDbLine
 10
42.10000000000003
 20
63.00000000000003
 11
42.10000000000003
 21
53
  0
LINE
  5
1E2
100
AcDbEntity
  8
dimensions
  6
ByBlock
 62
    0
370
   -2
100
AcDbLine
 10
51.59999999999964
 20
62.9999999999998
 11
51.59999999999964
 21
53
  0
ENDBLK
  5
D4
330
D2
100
AcDbEntity
  8
0
100
AcDbBlockEnd
  0
BLOCK
  5
D6
330
D5
100
AcDbEntity
  8
0
100
AcDbBlockBegin
  2
*D25
 70
    1
 10
0
 20
0
  3
*D25
  1

  0
LINE
  5
1E3
100
AcDbEntity
  8
dimensions
  6
ByBlock
 62
    0
370
   -2
100
AcDbLine
 10
13
 20
4.999999999999574
 11
13
 21
15.1
  0
LINE
  5
1E4
100
AcDbEntity
  8
dimensions
  6
ByBlock
 62
    0
370
   -2
100
AcDbLine
 10
11.58578643762691
 20
6.414213562372669
 11
14.41421356237309
 21
3.585786437626478
  0
LINE
  5
1E5
100
AcDbEntity
  8
dimensions
  6
ByBlock
 62
    0
370
   -2
100
AcDbLine
 10
11.58578643762691
 20
16.51421356237309
 11
14.41421356237309
 21
13.6857864376269
  0
MTEXT
  5
1E6
100
AcDbEntity
  8
dimensions
  6
CONTINUOUS
 62
    0
370
   -2
100
AcDbMText
 10
9.5
 20
10.04999999999979
 30
0
 40
3
 41
4.666666666666666
 71
    5
 72
    1
  1
101
  7
standard
210
0
220
0
230
1
 50
90
 73
    2
 44
1
  0
LINE
  5
1E7
100
AcDbEntity
  8
dimensions
  6
ByBlock
 62
    0
370
   -2
100
AcDbLine
 10
5.999999999999915
 20
4.999999999999574
 11
15
 21
4.999999999999574
  0
LINE
  5
1E8
100
AcDbEntity
  8
dimensions
  6
ByBlock
 62
    0
370
   -2
100
AcDbLine
 10
6.000000000000001
 20
15.1
 11
15
 21
15.1
  0
ENDBLK
  5
D7
330
D5
100
AcDbEntity
  8
0
100
AcDbBlockEnd
  0
BLOCK
  5
D9
330
D8
100
AcDbEntity
  8
0
100
AcDbBlockBegin
  2
*D40
 70
    1
 10
0
 20
0
  3
*D40
  1

  0
LINE
  5
1E9
100
AcDbEntity
  8
dimensions
  6
ByBlock
 62
    0
370
   -2
100
AcDbLine
 10
146.6
 20
73.70000000000002
 11
152.7
 21
73.70000000000002
  0
LINE
  5
1EA
100
AcDbEntity
  8
dimensions
  6
ByBlock
 62
    0
370
   -2
100
AcDbLine
 10
148.0142135623731
 20
75.11421356237311
 11
145.1857864376269
 21
72.28578643762692
  0
LINE
  5
1EB
100
AcDbEntity
  8
dimensions
  6
ByBlock
 62
    0
370
   -2
100
AcDbLine
 10
154.1142135623731
 20
75.11421356237311
 11
151.2857864376269
 21
72.28578643762692
  0
MTEXT
  5
1EC
100
AcDbEntity
  8
dimensions
  6
CONTINUOUS
 62
    0
370
   -2
100
AcDbMText
 10
149.65
 20
77.20000000000002
 30
0
 40
3
 41
3.000000000000186
 71
    5
 72
    1
  1
61
  7
standard
210
0
220
0
230
1
 50
0
 73
    2
 44
1
  0
LINE
  5
1ED
100
AcDbEntity
  8
dimensions
  6
ByBlock
 62
    0
370
   -2
100
AcDbLine
 10
146.6
 20
69.70000000000006
 11
146.6
 21
75.70000000000002
  0
LINE
  5
1EE
100
AcDbEntity
  8
dimensions
  6
ByBlock
 62
    0
370
   -2
100
AcDbLine
 10
152.7
 20
69.70000000000006
 11
152.7
 21
75.70000000000002
  0
ENDBLK
  5
DA
330
D8
100
AcDbEntity
  8
0
100
AcDbBlockEnd
  0
BLOCK
  5
DC
330
DB
100
AcDbEntity
  8
0
100
AcDbBlockBegin
  2
*D45
 70
    1
 10
0
 20
0
  3
*D45
  1

  0
LINE
  5
1EF
100
AcDbEntity
  8
dimensions
  6
ByBlock
 62
    0
370
   -2
100
AcDbLine
 10
150.3999999999996
 20
55
 11
162.5
 21
55
  0
LINE
  5
1F0
100
AcDbEntity
  8
dimensions
  6
ByBlock
 62
    0
370
   -2
100
AcDbLine
 10
152.9857864376265
 20
53.58578643762691
 11
155.8142135623727
 21
56.41421356237309
  0
LINE
  5
1F1
100
AcDbEntity
  8
dimensions
  6
ByBlock
 62
    0
370
   -2
100
AcDbLine
 10
157.0857864376269
 20
53.58578643762691
 11
159.9142135623731
 21
56.41421356237309
  0
MTEXT
  5
1F2
100
AcDbEntity
  8
dimensions
  6
CONTINUOUS
 62
    0
370
   -2
100
AcDbMText
 10
156.4499999999998
 20
58.5
 30
0
 40
3
 41
3.333333333333333
 71
    5
 72
    1
  1
41
  7
standard
210
0
220
0
230
1
 50
0
 73
    2
 44
1
  0
LINE
  5
1F3
100
AcDbEntity
  8
dimensions
  6
ByBlock
 62
    0
370
   -2
100
AcDbLine
 10
154.3999999999996
 20
62.99999999999984
 11
154.3999999999996
 21
53
  0
LINE
  5
1F4
100
AcDbEntity
  8
dimensions
  6
ByBlock
 62
    0
370
   -2
100
AcDbLine
 10
158.5
 20
63.00000000000006
 11
158.5
 21
53
  0
ENDBLK
  5
DD
330
DB
100
AcDbEntity
  8
0
100
AcDbBlockEnd
  0
BLOCK
  5
DF
330
DE
100
AcDbEntity
  8
0
100
AcDbBlockBegin
  2
*D15
 70
    1
 10
0
 20
0
  3
*D15
  1

  0
LINE
  5
1F5
100
AcDbEntity
  8
dimensions
  6
ByBlock
 62
    0
370
   -2
100
AcDbLine
 10
86.40000000000005
 20
55
 11
95.89999999999965
 21
55
  0
LINE
  5
1F6
100
AcDbEntity
  8
dimensions
  6
ByBlock
 62
    0
370
   -2
100
AcDbLine
 10
87.81421356237314
 20
56.41421356237309
 11
84.98578643762696
 21
53.58578643762691
  0
LINE
  5
1F7
100
AcDbEntity
  8
dimensions
  6
ByBlock
 62
    0
370
   -2
100
AcDbLine
 10
97.31421356237274
 20
56.41421356237309
 11
94.48578643762656
 21
53.58578643762691
  0
MTEXT
  5
1F8
100
AcDbEntity
  8
dimensions
  6
CONTINUOUS
 62
    0
370
   -2
100
AcDbMText
 10
91.14999999999985
 20
58.5
 30
0
 40
3
 41
3.666666666667039
 71
    5
 72
    1
  1
95
  7
standard
210
0
220
0
230
1
 50
0
 73
    2
 44
1
  0
LINE
  5
1F9
100
AcDbEntity
  8
dimensions
  6
ByBlock
 62
    0
370
   -2
100
AcDbLine
 10
86.40000000000005
 20
63.00000000000003
 11
86.40000000000005
 21
53
  0
LINE
  5
1FA
100
AcDbEntity
  8
dimensions
  6
ByBlock
 62
    0
370
   -2
100
AcDbLine
 10
95.89999999999965
 20
62.9999999999998
 11
95.89999999999965
 21
53
  0
ENDBLK
  5
E0
330
DE
100
AcDbEntity
  8
0
100
AcDbBlockEnd
  0
ENDSEC
  0
SECTION
  2
ENTITIES
  0
HATCH
  5
1FB
100
AcDbEntity
  8
body
  6
ByLayer
 62
  256
370
   -1
100
AcDbHatch
 10
0
 20
0
 30
0
210
0
220
0
230
1
  2
gost_stone
 70
    0
 71
    0
 91
    1
 92
    0
 93
   12
 72
    1
 10
126.9
 20
67.00000000000003
 11
146.6
 21
67.00000000000006
 72
    1
 10
146.6
 20
67.00000000000006
 11
144.9
 21
64.00000000000006
 72
    1
 10
144.9
 20
64.00000000000006
 11
137
 21
64.00000000000001
 72
    1
 10
137
 20
64.00000000000001
 11
136.9999999999999
 21
4.999999999999574
 72
    1
 10
136.9999999999999
 20
4.999999999999574
 11
143.0999999999999
 21
4.999999999999144
 72
    1
 10
143.0999999999999
 20
4.999999999999144
 11
143.0999999999999
 21
1.999999999999557
 72
    1
 10
143.0999999999999
 20
1.999999999999557
 11
131.7999999999999
 21
1.999999999999574
 72
    1
 10
131.7999999999999
 20
1.999999999999574
 11
131.7999999999999
 21
4.999999999999162
 72
    1
 10
131.7999999999999
 20
4.999999999999162
 11
132.9999999999999
 21
4.999999999999574
 72
    1
 10
132.9999999999999
 20
4.999999999999574
 11
133
 21
64.00000000000001
 72
    1
 10
133
 20
64.00000000000001
 11
128.5999999999996
 21
63.9999999999998
 72
    1
 10
128.5999999999996
 20
63.9999999999998
 11
126.9
 21
67.00000000000003
 97
    0
 75
    0
 76
    1
 52
0
 41
0.2
 77
    0
 78
    0
 98
    0
  0
HATCH
  5
1FC
100
AcDbEntity
  8
body
  6
ByLayer
 62
  256
370
   -1
100
AcDbHatch
 10
0
 20
0
 30
0
210
0
220
0
230
1
  2
gost_stone
 70
    0
 71
    0
 91
    1
 92
    0
 93
    8
 72
    1
 10
166.3
 20
67.00000000000009
 11
167.9999999999996
 21
63.99999999999986
 72
    1
 10
167.9999999999996
 20
63.99999999999986
 11
176
 21
64.00000000000001
 72
    1
 10
176
 20
64.00000000000001
 11
175.9999999999999
 21
4.999999999999574
 72
    1
 10
175.9999999999999
 20
4.999999999999574
 11
170.1999999999999
 21
4.999999999999189
 72
    1
 10
170.1999999999999
 20
4.999999999999189
 11
170.1999999999999
 21
1.999999999999573
 72
    1
 10
170.1999999999999
 20
1.999999999999573
 11
179
 21
2
 72
    1
 10
179
 20
2
 11
179
 21
67.00000000000047
 72
    1
 10
179
 20
67.00000000000047
 11
166.3
 21
67.00000000000009
 97
    0
 75
    0
 76
    1
 52
0
 41
0.2
 77
    0
 78
    0
 98
    0
  0
HATCH
  5
1FD
100
AcDbEntity
  8
face
  6
ByLayer
 62
  256
370
   -1
100
AcDbHatch
 10
0
 20
0
 30
0
210
0
220
0
230
1
  2
gost_stone
 70
    0
 71
    0
 91
    1
 92
    0
 93
    8
 72
    1
 10
166.3
 20
67.45000000000006
 11
166.3
 21
68.70000000000009
 72
    1
 10
166.3
 20
68.70000000000009
 11
180.7
 21
68.70000000000002
 72
    1
 10
180.7
 20
68.70000000000002
 11
180.7
 21
0.3
 72
    1
 10
180.7
 20
0.3
 11
169.8999999999999
 21
0.2999999999995735
 72
    1
 10
169.8999999999999
 20
0.2999999999995735
 11
169.8999999999999
 21
1.549999999999573
 72
    1
 10
169.8999999999999
 20
1.549999999999573
 11
179.45
 21
1.55
 72
    1
 10
179.45
 20
1.55
 11
179.45
 21
67.45000000000049
 72
    1
 10
179.45
 20
67.45000000000049
 11
166.3
 21
67.45000000000006
 97
    0
 75
    0
 76
    1
 52
1.570796326794897
 41
0.2
 77
    0
 78
    0
 98
    0
  0
HATCH
  5
1FE
100
AcDbEntity
  8
body
  6
ByLayer
 62
  256
370
   -1
100
AcDbHatch
 10
0
 20
0
 30
0
210
0
220
0
230
1
  2
gost_stone
 70
    0
 71
    0
 91
    1
 92
    0
 93
    4
 72
    1
 10
158.5
 20
64.00000000000009
 11
160.2
 21
67.00000000000009
 72
    1
 10
160.2
 20
67.00000000000009
 11
152.7
 21
67.00000000000006
 72
    1
 10
152.7
 20
67.00000000000006
 11
154.3999999999996
 21
63.99999999999983
 72
    1
 10
154.3999999999996
 20
63.99999999999983
 11
158.5
 21
64.00000000000009
 97
    0
 75
    0
 76
    1
 52
0
 41
0.2
 77
    0
 78
    0
 98
    0
  0
HATCH
  5
1FF
100
AcDbEntity
  8
face
  6
ByLayer
 62
  256
370
   -1
100
AcDbHatch
 10
0
 20
0
 30
0
210
0
220
0
230
1
  2
gost_stone
 70
    0
 71
    0
 91
    1
 92
    0
 93
    4
 72
    1
 10
160.2
 20
67.45000000000006
 11
160.2
 21
68.70000000000009
 72
    1
 10
160.2
 20
68.70000000000009
 11
152.7
 21
68.70000000000006
 72
    1
 10
152.7
 20
68.70000000000006
 11
152.7
 21
67.45000000000003
 72
    1
 10
152.7
 20
67.45000000000003
 11
160.2
 21
67.45000000000006
 97
    0
 75
    0
 76
    1
 52
1.570796326794897
 41
0.2
 77
    0
 78
    0
 98
    0
  0
HATCH
  5
200
100
AcDbEntity
  8
face
  6
ByLayer
 62
  256
370
   -1
100
AcDbHatch
 10
0
 20
0
 30
0
210
0
220
0
230
1
  2
gost_stone
 70
    0
 71
    0
 91
    1
 92
    0
 93
    4
 72
    1
 10
126.9
 20
67.45
 11
146.6
 21
67.45000000000003
 72
    1
 10
146.6
 20
67.45000000000003
 11
146.6
 21
68.70000000000006
 72
    1
 10
146.6
 20
68.70000000000006
 11
126.9
 21
68.70000000000003
 72
    1
 10
126.9
 20
68.70000000000003
 11
126.9
 21
67.45
 97
    0
 75
    0
 76
    1
 52
1.570796326794897
 41
0.2
 77
    0
 78
    0
 98
    0
  0
HATCH
  5
201
100
AcDbEntity
  8
glass
  6
ByLayer
 62
  256
370
   -1
100
AcDbHatch
 10
0
 20
0
 30
0
210
0
220
0
230
1
  2
gost_glass1
 70
    0
 71
    0
 91
    1
 92
    0
 93
    4
 72
    1
 10
164.3
 20
68.60000000000008
 11
166.2
 21
68.60000000000008
 72
    1
 10
166.2
 20
68.60000000000008
 11
166.2
 21
67.80000000000008
 72
    1
 10
166.2
 20
67.80000000000008
 11
164.3
 21
67.80000000000008
 72
    1
 10
164.3
 20
67.80000000000008
 11
164.3
 21
68.60000000000008
 97
    0
 75
    0
 76
    1
 52
0
 41
0.1
 77
    0
 78
    0
 98
    0
  0
HATCH
  5
202
100
AcDbEntity
  8
glass
  6
ByLayer
 62
  256
370
   -1
100
AcDbHatch
 10
0
 20
0
 30
0
210
0
220
0
230
1
  2
gost_glass1
 70
    0
 71
    0
 91
    1
 92
    0
 93
    4
 72
    1
 10
162.3
 20
68.60000000000009
 11
164.2
 21
68.60000000000009
 72
    1
 10
164.2
 20
68.60000000000009
 11
164.2
 21
67.8000000000001
 72
    1
 10
164.2
 20
67.8000000000001
 11
162.3
 21
67.8000000000001
 72
    1
 10
162.3
 20
67.8000000000001
 11
162.3
 21
68.60000000000009
 97
    0
 75
    0
 76
    1
 52
0
 41
0.1
 77
    0
 78
    0
 98
    0
  0
HATCH
  5
203
100
AcDbEntity
  8
glass
  6
ByLayer
 62
  256
370
   -1
100
AcDbHatch
 10
0
 20
0
 30
0
210
0
220
0
230
1
  2
gost_glass1
 70
    0
 71
    0
 91
    1
 92
    0
 93
    4
 72
    1
 10
162.2
 20
67.8000000000001
 11
160.3
 21
67.8000000000001
 72
    1
 10
160.3
 20
67.8000000000001
 11
160.3
 21
68.60000000000009
 72
    1
 10
160.3
 20
68.60000000000009
 11
162.2
 21
68.60000000000009
 72
    1
 10
162.2
 20
68.60000000000009
 11
162.2
 21
67.8000000000001
 97
    0
 75
    0
 76
    1
 52
0
 41
0.1
 77
    0
 78
    0
 98
    0
  0
HATCH
  5
204
100
AcDbEntity
  8
glass
  6
ByLayer
 62
  256
370
   -1
100
AcDbHatch
 10
0
 20
0
 30
0
210
0
220
0
230
1
  2
gost_glass1
 70
    0
 71
    0
 91
    1
 92
    0
 93
    4
 72
    1
 10
146.7
 20
68.60000000000007
 11
148.6
 21
68.60000000000007
 72
    1
 10
148.6
 20
68.60000000000007
 11
148.6
 21
67.80000000000007
 72
    1
 10
148.6
 20
67.80000000000007
 11
146.7
 21
67.80000000000007
 72
    1
 10
146.7
 20
67.80000000000007
 11
146.7
 21
68.60000000000007
 97
    0
 75
    0
 76
    1
 52
0
 41
0.1
 77
    0
 78
    0
 98
    0
  0
HATCH
  5
205
100
AcDbEntity
  8
glass
  6
ByLayer
 62
  256
370
   -1
100
AcDbHatch
 10
0
 20
0
 30
0
210
0
220
0
230
1
  2
gost_glass1
 70
    0
 71
    0
 91
    1
 92
    0
 93
    4
 72
    1
 10
150.6
 20
67.80000000000007
 11
148.7
 21
67.80000000000007
 72
    1
 10
148.7
 20
67.80000000000007
 11
148.7
 21
68.60000000000007
 72
    1
 10
148.7
 20
68.60000000000007
 11
150.6
 21
68.60000000000007
 72
    1
 10
150.6
 20
68.60000000000007
 11
150.6
 21
67.80000000000007
 97
    0
 75
    0
 76
    1
 52
0
 41
0.1
 77
    0
 78
    0
 98
    0
  0
HATCH
  5
206
100
AcDbEntity
  8
glass
  6
ByLayer
 62
  256
370
   -1
100
AcDbHatch
 10
0
 20
0
 30
0
210
0
220
0
230
1
  2
gost_glass1
 70
    0
 71
    0
 91
    1
 92
    0
 93
    4
 72
    1
 10
152.6
 20
67.80000000000005
 11
150.7
 21
67.80000000000005
 72
    1
 10
150.7
 20
67.80000000000005
 11
150.7
 21
68.60000000000005
 72
    1
 10
150.7
 20
68.60000000000005
 11
152.6
 21
68.60000000000005
 72
    1
 10
152.6
 20
68.60000000000005
 11
152.6
 21
67.80000000000005
 97
    0
 75
    0
 76
    1
 52
0
 41
0.1
 77
    0
 78
    0
 98
    0
  0
HATCH
  5
207
100
AcDbEntity
  8
body
  6
ByLayer
 62
  256
370
   -1
100
AcDbHatch
 10
0
 20
0
 30
0
210
0
220
0
230
1
  2
gost_stone
 70
    0
 71
    0
 91
    1
 92
    0
 93
    6
 72
    1
 10
5.000000000000001
 20
15.1
 11
2.000000000000001
 21
15.1
 72
    1
 10
2.000000000000001
 20
15.1
 11
1.999999999999915
 21
1.999999999999574
 72
    1
 10
1.999999999999915
 20
1.999999999999574
 11
13.99999999999991
 21
1.999999999999574
 72
    1
 10
13.99999999999991
 20
1.999999999999574
 11
13.99999999999991
 21
4.999999999999574
 72
    1
 10
13.99999999999991
 20
4.999999999999574
 11
4.999999999999915
 21
4.999999999999574
 72
    1
 10
4.999999999999915
 20
4.999999999999574
 11
5.000000000000001
 21
15.1
 97
    0
 75
    0
 76
    1
 52
0
 41
0.2
 77
    0
 78
    0
 98
    0
  0
HATCH
  5
208
100
AcDbEntity
  8
face
  6
ByLayer
 62
  256
370
   -1
100
AcDbHatch
 10
0
 20
0
 30
0
210
0
220
0
230
1
  2
gost_stone
 70
    0
 71
    0
 91
    1
 92
    0
 93
    6
 72
    1
 10
1.550000000000001
 20
15.7
 11
0.3000000000000009
 21
15.7
 72
    1
 10
0.3000000000000009
 20
15.7
 11
0.2999999999999148
 21
0.2999999999995737
 72
    1
 10
0.2999999999999148
 20
0.2999999999995737
 11
14.19999999999991
 21
0.2999999999995736
 72
    1
 10
14.19999999999991
 20
0.2999999999995736
 11
14.19999999999991
 21
1.549999999999574
 72
    1
 10
14.19999999999991
 20
1.549999999999574
 11
1.549999999999915
 21
1.549999999999574
 72
    1
 10
1.549999999999915
 20
1.549999999999574
 11
1.550000000000001
 21
15.7
 97
    0
 75
    0
 76
    1
 52
1.570796326794897
 41
0.2
 77
    0
 78
    0
 98
    0
  0
HATCH
  5
209
100
AcDbEntity
  8
body
  6
ByLayer
 62
  256
370
   -1
100
AcDbHatch
 10
0
 20
0
 30
0
210
0
220
0
230
1
  2
gost_stone
 70
    0
 71
    0
 91
    1
 92
    0
 93
    4
 72
    1
 10
2.000000000000001
 20
24.3
 11
5.000000000000001
 21
24.3
 72
    1
 10
5.000000000000001
 20
24.3
 11
5
 21
44.70000000000001
 72
    1
 10
5
 20
44.70000000000001
 11
2
 21
44.70000000000001
 72
    1
 10
2
 20
44.70000000000001
 11
2.000000000000001
 21
24.3
 97
    0
 75
    0
 76
    1
 52
0
 41
0.2
 77
    0
 78
    0
 98
    0
  0
HATCH
  5
20A
100
AcDbEntity
  8
face
  6
ByLayer
 62
  256
370
   -1
100
AcDbHatch
 10
0
 20
0
 30
0
210
0
220
0
230
1
  2
gost_stone
 70
    0
 71
    0
 91
    1
 92
    0
 93
    4
 72
    1
 10
0.3000000000000015
 20
23.7
 11
1.550000000000001
 21
23.7
 72
    1
 10
1.550000000000001
 20
23.7
 11
1.55
 21
45.30000000000003
 72
    1
 10
1.55
 20
45.30000000000003
 11
0.3
 21
45.30000000000003
 72
    1
 10
0.3
 20
45.30000000000003
 11
0.3000000000000015
 21
23.7
 97
    0
 75
    0
 76
    1
 52
1.570796326794897
 41
0.2
 77
    0
 78
    0
 98
    0
  0
HATCH
  5
20B
100
AcDbEntity
  8
body
  6
ByLayer
 62
  256
370
   -1
100
AcDbHatch
 10
0
 20
0
 30
0
210
0
220
0
230
1
  2
gost_stone
 70
    0
 71
    0
 91
    1
 92
    0
 93
   14
 72
    1
 10
2.000000000000028
 20
67.00000000000034
 11
2
 21
53.90000000000002
 72
    1
 10
2
 20
53.90000000000002
 11
5
 21
53.90000000000002
 72
    1
 10
5
 20
53.90000000000002
 11
5.000000000000028
 21
63.99999999999999
 72
    1
 10
5.000000000000028
 20
63.99999999999999
 11
34.50000000000003
 21
63.99999999999994
 72
    1
 10
34.50000000000003
 20
63.99999999999994
 11
34.49999999999991
 21
4.999999999999532
 72
    1
 10
34.49999999999991
 20
4.999999999999532
 11
25.19999999999991
 21
4.999999999999177
 72
    1
 10
25.19999999999991
 20
4.999999999999177
 11
25.19999999999991
 21
1.999999999999574
 72
    1
 10
25.19999999999991
 20
1.999999999999574
 11
46.89999999999993
 21
1.999999999999574
 72
    1
 10
46.89999999999993
 20
1.999999999999574
 11
46.89999999999993
 21
4.999999999999177
 72
    1
 10
46.89999999999993
 20
4.999999999999177
 11
37.49999999999991
 21
4.999999999999532
 72
    1
 10
37.49999999999991
 20
4.999999999999532
 11
37.50000000000003
 21
63.99999999999994
 72
    1
 10
37.50000000000003
 20
63.99999999999994
 11
42.10000000000003
 21
64.00000000000003
 72
    1
 10
42.10000000000003
 20
64.00000000000003
 11
43.80000000000003
 21
67.00000000000003
 72
    1
 10
43.80000000000003
 20
67.00000000000003
 11
2.000000000000028
 21
67.00000000000034
 97
    0
 75
    0
 76
    1
 52
0
 41
0.2
 77
    0
 78
    0
 98
    0
  0
HATCH
  5
20C
100
AcDbEntity
  8
face
  6
ByLayer
 62
  256
370
   -1
100
AcDbHatch
 10
0
 20
0
 30
0
210
0
220
0
230
1
  2
gost_stone
 70
    0
 71
    0
 91
    1
 92
    0
 93
    6
 72
    1
 10
1.55
 20
53.3
 11
0.3000000000000002
 21
53.3
 72
    1
 10
0.3000000000000002
 20
53.3
 11
0.3000000000000285
 21
68.70000000000002
 72
    1
 10
0.3000000000000285
 20
68.70000000000002
 11
43.80000000000003
 21
68.70000000000003
 72
    1
 10
43.80000000000003
 20
68.70000000000003
 11
43.80000000000004
 21
67.45
 72
    1
 10
43.80000000000004
 20
67.45
 11
1.550000000000028
 21
67.45000000000034
 72
    1
 10
1.550000000000028
 20
67.45000000000034
 11
1.55
 21
53.3
 97
    0
 75
    0
 76
    1
 52
1.570796326794897
 41
0.2
 77
    0
 78
    0
 98
    0
  0
HATCH
  5
20D
100
AcDbEntity
  8
glass
  6
ByLayer
 62
  256
370
   -1
100
AcDbHatch
 10
0
 20
0
 30
0
210
0
220
0
230
1
  2
gost_glass1
 70
    0
 71
    0
 91
    1
 92
    0
 93
    4
 72
    1
 10
45.80000000000003
 20
67.80000000000004
 11
43.90000000000003
 21
67.80000000000004
 72
    1
 10
43.90000000000003
 20
67.80000000000004
 11
43.90000000000003
 21
68.60000000000004
 72
    1
 10
43.90000000000003
 20
68.60000000000004
 11
45.80000000000003
 21
68.60000000000004
 72
    1
 10
45.80000000000003
 20
68.60000000000004
 11
45.80000000000003
 21
67.80000000000004
 97
    0
 75
    0
 76
    1
 52
0
 41
0.1
 77
    0
 78
    0
 98
    0
  0
HATCH
  5
20E
100
AcDbEntity
  8
glass
  6
ByLayer
 62
  256
370
   -1
100
AcDbHatch
 10
0
 20
0
 30
0
210
0
220
0
230
1
  2
gost_glass1
 70
    0
 71
    0
 91
    1
 92
    0
 93
    4
 72
    1
 10
45.90000000000003
 20
68.60000000000004
 11
47.80000000000003
 21
68.60000000000004
 72
    1
 10
47.80000000000003
 20
68.60000000000004
 11
47.80000000000003
 21
67.80000000000004
 72
    1
 10
47.80000000000003
 20
67.80000000000004
 11
45.90000000000003
 21
67.80000000000004
 72
    1
 10
45.90000000000003
 20
67.80000000000004
 11
45.90000000000003
 21
68.60000000000004
 97
    0
 75
    0
 76
    1
 52
0
 41
0.1
 77
    0
 78
    0
 98
    0
  0
HATCH
  5
20F
100
AcDbEntity
  8
glass
  6
ByLayer
 62
  256
370
   -1
100
AcDbHatch
 10
0
 20
0
 30
0
210
0
220
0
230
1
  2
gost_glass1
 70
    0
 71
    0
 91
    1
 92
    0
 93
    4
 72
    1
 10
47.90000000000003
 20
68.60000000000002
 11
49.80000000000003
 21
68.60000000000002
 72
    1
 10
49.80000000000003
 20
68.60000000000002
 11
49.80000000000003
 21
67.80000000000003
 72
    1
 10
49.80000000000003
 20
67.80000000000003
 11
47.90000000000003
 21
67.80000000000003
 72
    1
 10
47.90000000000003
 20
67.80000000000003
 11
47.90000000000003
 21
68.60000000000002
 97
    0
 75
    0
 76
    1
 52
0
 41
0.1
 77
    0
 78
    0
 98
    0
  0
HATCH
  5
210
100
AcDbEntity
  8
glass
  6
ByLayer
 62
  256
370
   -1
100
AcDbHatch
 10
0
 20
0
 30
0
210
0
220
0
230
1
  2
gost_glass1
 70
    0
 71
    0
 91
    1
 92
    0
 93
    4
 72
    1
 10
57.10000000000005
 20
67.80000000000004
 11
55.20000000000004
 21
67.80000000000004
 72
    1
 10
55.20000000000004
 20
67.80000000000004
 11
55.20000000000004
 21
68.60000000000004
 72
    1
 10
55.20000000000004
 20
68.60000000000004
 11
57.10000000000005
 21
68.60000000000004
 72
    1
 10
57.10000000000005
 20
68.60000000000004
 11
57.10000000000005
 21
67.80000000000004
 97
    0
 75
    0
 76
    1
 52
0
 41
0.1
 77
    0
 78
    0
 98
    0
  0
HATCH
  5
211
100
AcDbEntity
  8
glass
  6
ByLayer
 62
  256
370
   -1
100
AcDbHatch
 10
0
 20
0
 30
0
210
0
220
0
230
1
  2
gost_glass1
 70
    0
 71
    0
 91
    1
 92
    0
 93
    4
 72
    1
 10
57.20000000000004
 20
68.60000000000004
 11
59.10000000000005
 21
68.60000000000004
 72
    1
 10
59.10000000000005
 20
68.60000000000004
 11
59.10000000000005
 21
67.80000000000004
 72
    1
 10
59.10000000000005
 20
67.80000000000004
 11
57.20000000000004
 21
67.80000000000004
 72
    1
 10
57.20000000000004
 20
67.80000000000004
 11
57.20000000000004
 21
68.60000000000004
 97
    0
 75
    0
 76
    1
 52
0
 41
0.1
 77
    0
 78
    0
 98
    0
  0
HATCH
  5
212
100
AcDbEntity
  8
glass
  6
ByLayer
 62
  256
370
   -1
100
AcDbHatch
 10
0
 20
0
 30
0
210
0
220
0
230
1
  2
gost_glass1
 70
    0
 71
    0
 91
    1
 92
    0
 93
    4
 72
    1
 10
59.20000000000004
 20
68.60000000000002
 11
61.10000000000005
 21
68.60000000000002
 72
    1
 10
61.10000000000005
 20
68.60000000000002
 11
61.10000000000005
 21
67.80000000000003
 72
    1
 10
61.10000000000005
 20
67.80000000000003
 11
59.20000000000004
 21
67.80000000000003
 72
    1
 10
59.20000000000004
 20
67.80000000000003
 11
59.20000000000004
 21
68.60000000000002
 97
    0
 75
    0
 76
    1
 52
0
 41
0.1
 77
    0
 78
    0
 98
    0
  0
HATCH
  5
213
100
AcDbEntity
  8
glass
  6
ByLayer
 62
  256
370
   -1
100
AcDbHatch
 10
0
 20
0
 30
0
210
0
220
0
230
1
  2
gost_glass1
 70
    0
 71
    0
 91
    1
 92
    0
 93
    4
 72
    1
 10
94.10000000000005
 20
67.80000000000003
 11
92.20000000000005
 21
67.80000000000003
 72
    1
 10
92.20000000000005
 20
67.80000000000003
 11
92.20000000000005
 21
68.60000000000002
 72
    1
 10
92.20000000000005
 20
68.60000000000002
 11
94.10000000000005
 21
68.60000000000002
 72
    1
 10
94.10000000000005
 20
68.60000000000002
 11
94.10000000000005
 21
67.80000000000003
 97
    0
 75
    0
 76
    1
 52
0
 41
0.1
 77
    0
 78
    0
 98
    0
  0
HATCH
  5
214
100
AcDbEntity
  8
glass
  6
ByLayer
 62
  256
370
   -1
100
AcDbHatch
 10
0
 20
0
 30
0
210
0
220
0
230
1
  2
gost_glass1
 70
    0
 71
    0
 91
    1
 92
    0
 93
    4
 72
    1
 10
92.10000000000005
 20
67.80000000000004
 11
90.20000000000005
 21
67.80000000000004
 72
    1
 10
90.20000000000005
 20
67.80000000000004
 11
90.20000000000005
 21
68.60000000000004
 72
    1
 10
90.20000000000005
 20
68.60000000000004
 11
92.10000000000005
 21
68.60000000000004
 72
    1
 10
92.10000000000005
 20
68.60000000000004
 11
92.10000000000005
 21
67.80000000000004
 97
    0
 75
    0
 76
    1
 52
0
 41
0.1
 77
    0
 78
    0
 98
    0
  0
HATCH
  5
215
100
AcDbEntity
  8
glass
  6
ByLayer
 62
  256
370
   -1
100
AcDbHatch
 10
0
 20
0
 30
0
210
0
220
0
230
1
  2
gost_glass1
 70
    0
 71
    0
 91
    1
 92
    0
 93
    4
 72
    1
 10
88.20000000000005
 20
68.60000000000004
 11
90.10000000000005
 21
68.60000000000004
 72
    1
 10
90.10000000000005
 20
68.60000000000004
 11
90.10000000000005
 21
67.80000000000004
 72
    1
 10
90.10000000000005
 20
67.80000000000004
 11
88.20000000000005
 21
67.80000000000004
 72
    1
 10
88.20000000000005
 20
67.80000000000004
 11
88.20000000000005
 21
68.60000000000004
 97
    0
 75
    0
 76
    1
 52
0
 41
0.1
 77
    0
 78
    0
 98
    0
  0
HATCH
  5
216
100
AcDbEntity
  8
glass
  6
ByLayer
 62
  256
370
   -1
100
AcDbHatch
 10
0
 20
0
 30
0
210
0
220
0
230
1
  2
gost_glass1
 70
    0
 71
    0
 91
    1
 92
    0
 93
    4
 72
    1
 10
82.80000000000004
 20
67.80000000000003
 11
80.90000000000003
 21
67.80000000000003
 72
    1
 10
80.90000000000003
 20
67.80000000000003
 11
80.90000000000003
 21
68.60000000000002
 72
    1
 10
80.90000000000003
 20
68.60000000000002
 11
82.80000000000004
 21
68.60000000000002
 72
    1
 10
82.80000000000004
 20
68.60000000000002
 11
82.80000000000004
 21
67.80000000000003
 97
    0
 75
    0
 76
    1
 52
0
 41
0.1
 77
    0
 78
    0
 98
    0
  0
HATCH
  5
217
100
AcDbEntity
  8
glass
  6
ByLayer
 62
  256
370
   -1
100
AcDbHatch
 10
0
 20
0
 30
0
210
0
220
0
230
1
  2
gost_glass1
 70
    0
 71
    0
 91
    1
 92
    0
 93
    4
 72
    1
 10
80.80000000000004
 20
67.80000000000004
 11
78.90000000000003
 21
67.80000000000004
 72
    1
 10
78.90000000000003
 20
67.80000000000004
 11
78.90000000000003
 21
68.60000000000004
 72
    1
 10
78.90000000000003
 20
68.60000000000004
 11
80.80000000000004
 21
68.60000000000004
 72
    1
 10
80.80000000000004
 20
68.60000000000004
 11
80.80000000000004
 21
67.80000000000004
 97
    0
 75
    0
 76
    1
 52
0
 41
0.1
 77
    0
 78
    0
 98
    0
  0
HATCH
  5
218
100
AcDbEntity
  8
glass
  6
ByLayer
 62
  256
370
   -1
100
AcDbHatch
 10
0
 20
0
 30
0
210
0
220
0
230
1
  2
gost_glass1
 70
    0
 71
    0
 91
    1
 92
    0
 93
    4
 72
    1
 10
76.90000000000003
 20
68.60000000000004
 11
78.80000000000004
 21
68.60000000000004
 72
    1
 10
78.80000000000004
 20
68.60000000000004
 11
78.80000000000004
 21
67.80000000000004
 72
    1
 10
78.80000000000004
 20
67.80000000000004
 11
76.90000000000003
 21
67.80000000000004
 72
    1
 10
76.90000000000003
 20
67.80000000000004
 11
76.90000000000003
 21
68.60000000000004
 97
    0
 75
    0
 76
    1
 52
0
 41
0.1
 77
    0
 78
    0
 98
    0
  0
HATCH
  5
219
100
AcDbEntity
  8
glass
  6
ByLayer
 62
  256
370
   -1
100
AcDbHatch
 10
0
 20
0
 30
0
210
0
220
0
230
1
  2
gost_glass1
 70
    0
 71
    0
 91
    1
 92
    0
 93
    4
 72
    1
 10
115.6
 20
67.80000000000001
 11
113.7
 21
67.80000000000001
 72
    1
 10
113.7
 20
67.80000000000001
 11
113.7
 21
68.60000000000001
 72
    1
 10
113.7
 20
68.60000000000001
 11
115.6
 21
68.60000000000001
 72
    1
 10
115.6
 20
68.60000000000001
 11
115.6
 21
67.80000000000001
 97
    0
 75
    0
 76
    1
 52
0
 41
0.1
 77
    0
 78
    0
 98
    0
  0
HATCH
  5
21A
100
AcDbEntity
  8
glass
  6
ByLayer
 62
  256
370
   -1
100
AcDbHatch
 10
0
 20
0
 30
0
210
0
220
0
230
1
  2
gost_glass1
 70
    0
 71
    0
 91
    1
 92
    0
 93
    4
 72
    1
 10
113.6
 20
67.80000000000003
 11
111.7
 21
67.80000000000003
 72
    1
 10
111.7
 20
67.80000000000003
 11
111.7
 21
68.60000000000002
 72
    1
 10
111.7
 20
68.60000000000002
 11
113.6
 21
68.60000000000002
 72
    1
 10
113.6
 20
68.60000000000002
 11
113.6
 21
67.80000000000003
 97
    0
 75
    0
 76
    1
 52
0
 41
0.1
 77
    0
 78
    0
 98
    0
  0
HATCH
  5
21B
100
AcDbEntity
  8
glass
  6
ByLayer
 62
  256
370
   -1
100
AcDbHatch
 10
0
 20
0
 30
0
210
0
220
0
230
1
  2
gost_glass1
 70
    0
 71
    0
 91
    1
 92
    0
 93
    4
 72
    1
 10
109.7
 20
68.60000000000002
 11
111.6
 21
68.60000000000002
 72
    1
 10
111.6
 20
68.60000000000002
 11
111.6
 21
67.80000000000003
 72
    1
 10
111.6
 20
67.80000000000003
 11
109.7
 21
67.80000000000003
 72
    1
 10
109.7
 20
67.80000000000003
 11
109.7
 21
68.60000000000002
 97
    0
 75
    0
 76
    1
 52
0
 41
0.1
 77
    0
 78
    0
 98
    0
  0
HATCH
  5
21C
100
AcDbEntity
  8
glass
  6
ByLayer
 62
  256
370
   -1
100
AcDbHatch
 10
0
 20
0
 30
0
210
0
220
0
230
1
  2
gost_glass1
 70
    0
 71
    0
 91
    1
 92
    0
 93
    4
 72
    1
 10
122.8
 20
67.80000000000004
 11
120.9
 21
67.80000000000004
 72
    1
 10
120.9
 20
67.80000000000004
 11
120.9
 21
68.60000000000004
 72
    1
 10
120.9
 20
68.60000000000004
 11
122.8
 21
68.60000000000004
 72
    1
 10
122.8
 20
68.60000000000004
 11
122.8
 21
67.80000000000004
 97
    0
 75
    0
 76
    1
 52
0
 41
0.1
 77
    0
 78
    0
 98
    0
  0
HATCH
  5
21D
100
AcDbEntity
  8
glass
  6
ByLayer
 62
  256
370
   -1
100
AcDbHatch
 10
0
 20
0
 30
0
210
0
220
0
230
1
  2
gost_glass1
 70
    0
 71
    0
 91
    1
 92
    0
 93
    4
 72
    1
 10
122.9
 20
68.60000000000004
 11
124.8
 21
68.60000000000004
 72
    1
 10
124.8
 20
68.60000000000004
 11
124.8
 21
67.80000000000004
 72
    1
 10
124.8
 20
67.80000000000004
 11
122.9
 21
67.80000000000004
 72
    1
 10
122.9
 20
67.80000000000004
 11
122.9
 21
68.60000000000004
 97
    0
 75
    0
 76
    1
 52
0
 41
0.1
 77
    0
 78
    0
 98
    0
  0
HATCH
  5
21E
100
AcDbEntity
  8
glass
  6
ByLayer
 62
  256
370
   -1
100
AcDbHatch
 10
0
 20
0
 30
0
210
0
220
0
230
1
  2
gost_glass1
 70
    0
 71
    0
 91
    1
 92
    0
 93
    4
 72
    1
 10
124.9
 20
68.60000000000002
 11
126.8
 21
68.60000000000002
 72
    1
 10
126.8
 20
68.60000000000002
 11
126.8
 21
67.80000000000003
 72
    1
 10
126.8
 20
67.80000000000003
 11
124.9
 21
67.80000000000003
 72
    1
 10
124.9
 20
67.80000000000003
 11
124.9
 21
68.60000000000002
 97
    0
 75
    0
 76
    1
 52
0
 41
0.1
 77
    0
 78
    0
 98
    0
  0
HATCH
  5
21F
100
AcDbEntity
  8
face
  6
ByLayer
 62
  256
370
   -1
100
AcDbHatch
 10
0
 20
0
 30
0
210
0
220
0
230
1
  2
gost_stone
 70
    0
 71
    0
 91
    1
 92
    0
 93
    4
 72
    1
 10
55.10000000000005
 20
67.45
 11
55.10000000000004
 21
68.70000000000003
 72
    1
 10
55.10000000000004
 20
68.70000000000003
 11
49.90000000000003
 21
68.70000000000003
 72
    1
 10
49.90000000000003
 20
68.70000000000003
 11
49.90000000000004
 21
67.45
 72
    1
 10
49.90000000000004
 20
67.45
 11
55.10000000000005
 21
67.45
 97
    0
 75
    0
 76
    1
 52
1.570796326794897
 41
0.2
 77
    0
 78
    0
 98
    0
  0
HATCH
  5
220
100
AcDbEntity
  8
face
  6
ByLayer
 62
  256
370
   -1
100
AcDbHatch
 10
0
 20
0
 30
0
210
0
220
0
230
1
  2
gost_stone
 70
    0
 71
    0
 91
    1
 92
    0
 93
    4
 72
    1
 10
76.80000000000004
 20
67.45
 11
76.80000000000004
 21
68.70000000000003
 72
    1
 10
76.80000000000004
 20
68.70000000000003
 11
61.20000000000004
 21
68.70000000000003
 72
    1
 10
61.20000000000004
 20
68.70000000000003
 11
61.20000000000005
 21
67.45
 72
    1
 10
61.20000000000005
 20
67.45
 11
76.80000000000004
 21
67.45
 97
    0
 75
    0
 76
    1
 52
1.570796326794897
 41
0.2
 77
    0
 78
    0
 98
    0
  0
HATCH
  5
221
100
AcDbEntity
  8
face
  6
ByLayer
 62
  256
370
   -1
100
AcDbHatch
 10
0
 20
0
 30
0
210
0
220
0
230
1
  2
gost_stone
 70
    0
 71
    0
 91
    1
 92
    0
 93
    4
 72
    1
 10
88.10000000000005
 20
67.45
 11
88.10000000000005
 21
68.70000000000003
 72
    1
 10
88.10000000000005
 20
68.70000000000003
 11
82.90000000000003
 21
68.70000000000003
 72
    1
 10
82.90000000000003
 20
68.70000000000003
 11
82.90000000000003
 21
67.45
 72
    1
 10
82.90000000000003
 20
67.45
 11
88.10000000000005
 21
67.45
 97
    0
 75
    0
 76
    1
 52
1.570796326794897
 41
0.2
 77
    0
 78
    0
 98
    0
  0
HATCH
  5
222
100
AcDbEntity
  8
face
  6
ByLayer
 62
  256
370
   -1
100
AcDbHatch
 10
0
 20
0
 30
0
210
0
220
0
230
1
  2
gost_stone
 70
    0
 71
    0
 91
    1
 92
    0
 93
    4
 72
    1
 10
109.6
 20
67.44999999999999
 11
109.6
 21
68.70000000000002
 72
    1
 10
109.6
 20
68.70000000000002
 11
94.20000000000005
 21
68.70000000000003
 72
    1
 10
94.20000000000005
 20
68.70000000000003
 11
94.20000000000005
 21
67.45
 72
    1
 10
94.20000000000005
 20
67.45
 11
109.6
 21
67.44999999999999
 97
    0
 75
    0
 76
    1
 52
1.570796326794897
 41
0.2
 77
    0
 78
    0
 98
    0
  0
HATCH
  5
223
100
AcDbEntity
  8
face
  6
ByLayer
 62
  256
370
   -1
100
AcDbHatch
 10
0
 20
0
 30
0
210
0
220
0
230
1
  2
gost_stone
 70
    0
 71
    0
 91
    1
 92
    0
 93
    4
 72
    1
 10
120.8
 20
67.45
 11
120.8
 21
68.70000000000003
 72
    1
 10
120.8
 20
68.70000000000003
 11
115.7
 21
68.70000000000002
 72
    1
 10
115.7
 20
68.70000000000002
 11
115.7
 21
67.44999999999999
 72
    1
 10
115.7
 20
67.44999999999999
 11
120.8
 21
67.45
 97
    0
 75
    0
 76
    1
 52
1.570796326794897
 41
0.2
 77
    0
 78
    0
 98
    0
  0
HATCH
  5
224
100
AcDbEntity
  8
body
  6
ByLayer
 62
  256
370
   -1
100
AcDbHatch
 10
0
 20
0
 30
0
210
0
220
0
230
1
  2
gost_stone
 70
    0
 71
    0
 91
    1
 92
    0
 93
    4
 72
    1
 10
53.40000000000004
 20
64.00000000000003
 11
55.10000000000005
 21
67.00000000000003
 72
    1
 10
55.10000000000005
 20
67.00000000000003
 11
49.90000000000004
 21
67.00000000000003
 72
    1
 10
49.90000000000004
 20
67.00000000000003
 11
51.59999999999964
 21
63.9999999999998
 72
    1
 10
51.59999999999964
 20
63.9999999999998
 11
53.40000000000004
 21
64.00000000000003
 97
    0
 75
    0
 76
    1
 52
0
 41
0.2
 77
    0
 78
    0
 98
    0
  0
HATCH
  5
225
100
AcDbEntity
  8
body
  6
ByLayer
 62
  256
370
   -1
100
AcDbHatch
 10
0
 20
0
 30
0
210
0
220
0
230
1
  2
gost_stone
 70
    0
 71
    0
 91
    1
 92
    0
 93
    4
 72
    1
 10
86.40000000000005
 20
64.00000000000003
 11
88.10000000000005
 21
67.00000000000003
 72
    1
 10
88.10000000000005
 20
67.00000000000003
 11
82.90000000000003
 21
67.00000000000003
 72
    1
 10
82.90000000000003
 20
67.00000000000003
 11
84.59999999999965
 21
63.9999999999998
 72
    1
 10
84.59999999999965
 20
63.9999999999998
 11
86.40000000000005
 21
64.00000000000003
 97
    0
 75
    0
 76
    1
 52
0
 41
0.2
 77
    0
 78
    0
 98
    0
  0
HATCH
  5
226
100
AcDbEntity
  8
body
  6
ByLayer
 62
  256
370
   -1
100
AcDbHatch
 10
0
 20
0
 30
0
210
0
220
0
230
1
  2
gost_stone
 70
    0
 71
    0
 91
    1
 92
    0
 93
    8
 72
    1
 10
94.20000000000005
 20
67.00000000000003
 11
95.89999999999966
 21
63.9999999999998
 72
    1
 10
95.89999999999966
 20
63.9999999999998
 11
100.5
 21
63.99999999999994
 72
    1
 10
100.5
 20
63.99999999999994
 11
100.5
 21
36
 72
    1
 10
100.5
 20
36
 11
103.5
 21
36
 72
    1
 10
103.5
 20
36
 11
103.5
 21
63.99999999999997
 72
    1
 10
103.5
 20
63.99999999999997
 11
107.9
 21
64.00000000000001
 72
    1
 10
107.9
 20
64.00000000000001
 11
109.6
 21
67.00000000000001
 72
    1
 10
109.6
 20
67.00000000000001
 11
94.20000000000005
 21
67.00000000000003
 97
    0
 75
    0
 76
    1
 52
0
 41
0.2
 77
    0
 78
    0
 98
    0
  0
HATCH
  5
227
100
AcDbEntity
  8
body
  6
ByLayer
 62
  256
370
   -1
100
AcDbHatch
 10
0
 20
0
 30
0
210
0
220
0
230
1
  2
gost_stone
 70
    0
 71
    0
 91
    1
 92
    0
 93
    4
 72
    1
 10
119.1
 20
64.00000000000003
 11
120.8
 21
67.00000000000003
 72
    1
 10
120.8
 20
67.00000000000003
 11
115.7
 21
67.00000000000001
 72
    1
 10
115.7
 20
67.00000000000001
 11
117.3999999999996
 21
63.99999999999979
 72
    1
 10
117.3999999999996
 20
63.99999999999979
 11
119.1
 21
64.00000000000003
 97
    0
 75
    0
 76
    1
 52
0
 41
0.2
 77
    0
 78
    0
 98
    0
  0
HATCH
  5
228
100
AcDbEntity
  8
body
  6
ByLayer
 62
  256
370
   -1
100
AcDbHatch
 10
0
 20
0
 30
0
210
0
220
0
230
1
  2
gost_stone
 70
    0
 71
    0
 91
    1
 92
    0
 93
   12
 72
    1
 10
79.89999999999993
 20
1.999999999999574
 11
79.89999999999993
 21
4.999999999999162
 72
    1
 10
79.89999999999993
 20
4.999999999999162
 11
70.49999999999991
 21
4.999999999999532
 72
    1
 10
70.49999999999991
 20
4.999999999999532
 11
70.50000000000003
 21
63.99999999999994
 72
    1
 10
70.50000000000003
 20
63.99999999999994
 11
75.10000000000004
 21
64.00000000000003
 72
    1
 10
75.10000000000004
 20
64.00000000000003
 11
76.80000000000004
 21
67.00000000000003
 72
    1
 10
76.80000000000004
 20
67.00000000000003
 11
61.20000000000005
 21
67.00000000000003
 72
    1
 10
61.20000000000005
 20
67.00000000000003
 11
62.89999999999965
 21
63.9999999999998
 72
    1
 10
62.89999999999965
 20
63.9999999999998
 11
67.50000000000003
 21
63.99999999999994
 72
    1
 10
67.50000000000003
 20
63.99999999999994
 11
67.49999999999991
 21
4.999999999999532
 72
    1
 10
67.49999999999991
 20
4.999999999999532
 11
58.09999999999992
 21
4.999999999999162
 72
    1
 10
58.09999999999992
 20
4.999999999999162
 11
58.09999999999992
 21
1.999999999999574
 72
    1
 10
58.09999999999992
 20
1.999999999999574
 11
79.89999999999993
 21
1.999999999999574
 97
    0
 75
    0
 76
    1
 52
0
 41
0.2
 77
    0
 78
    0
 98
    0
  0
HATCH
  5
229
100
AcDbEntity
  8
face
  6
ByLayer
 62
  256
370
   -1
100
AcDbHatch
 10
0
 20
0
 30
0
210
0
220
0
230
1
  2
gost_stone
 70
    0
 71
    0
 91
    1
 92
    0
 93
    4
 72
    1
 10
47.09999999999992
 20
1.549999999999574
 11
47.09999999999992
 21
0.2999999999995738
 72
    1
 10
47.09999999999992
 20
0.2999999999995738
 11
24.99999999999991
 21
0.2999999999995737
 72
    1
 10
24.99999999999991
 20
0.2999999999995737
 11
24.99999999999991
 21
1.559999999999573
 72
    1
 10
24.99999999999991
 20
1.559999999999573
 11
47.09999999999992
 21
1.549999999999574
 97
    0
 75
    0
 76
    1
 52
1.570796326794897
 41
0.2
 77
    0
 78
    0
 98
    0
  0
HATCH
  5
22A
100
AcDbEntity
  8
face
  6
ByLayer
 62
  256
370
   -1
100
AcDbHatch
 10
0
 20
0
 30
0
210
0
220
0
230
1
  2
gost_stone
 70
    0
 71
    0
 91
    1
 92
    0
 93
    4
 72
    1
 10
80.09999999999994
 20
0.2999999999995737
 11
57.89999999999993
 21
0.2999999999995736
 72
    1
 10
57.89999999999993
 20
0.2999999999995736
 11
57.89999999999993
 21
1.549999999999574
 72
    1
 10
57.89999999999993
 20
1.549999999999574
 11
80.09999999999994
 21
1.549999999999574
 72
    1
 10
80.09999999999994
 20
1.549999999999574
 11
80.09999999999994
 21
0.2999999999995737
 97
    0
 75
    0
 76
    1
 52
1.570796326794897
 41
0.2
 77
    0
 78
    0
 98
    0
  0
HATCH
  5
22B
100
AcDbEntity
  8
face
  6
ByLayer
 62
  256
370
   -1
100
AcDbHatch
 10
0
 20
0
 30
0
210
0
220
0
230
1
  2
gost_stone
 70
    0
 71
    0
 91
    1
 92
    0
 93
    4
 72
    1
 10
90.89999999999992
 20
0.2999999999995734
 11
104.9999999999999
 21
0.2999999999995738
 72
    1
 10
104.9999999999999
 20
0.2999999999995738
 11
104.9999999999999
 21
1.549999999999574
 72
    1
 10
104.9999999999999
 20
1.549999999999574
 11
90.89999999999992
 21
1.549999999999573
 72
    1
 10
90.89999999999992
 20
1.549999999999573
 11
90.89999999999992
 21
0.2999999999995734
 97
    0
 75
    0
 76
    1
 52
1.570796326794897
 41
0.2
 77
    0
 78
    0
 98
    0
  0
HATCH
  5
22C
100
AcDbEntity
  8
body
  6
ByLayer
 62
  256
370
   -1
100
AcDbHatch
 10
0
 20
0
 30
0
210
0
220
0
230
1
  2
gost_stone
 70
    0
 71
    0
 91
    1
 92
    0
 93
    8
 72
    1
 10
100.5
 20
33
 11
100.4999999999999
 21
4.999999999999532
 72
    1
 10
100.4999999999999
 20
4.999999999999532
 11
91.09999999999992
 21
4.999999999999162
 72
    1
 10
91.09999999999992
 20
4.999999999999162
 11
91.09999999999992
 21
1.999999999999573
 72
    1
 10
91.09999999999992
 20
1.999999999999573
 11
104.6999999999999
 21
1.999999999999574
 72
    1
 10
104.6999999999999
 20
1.999999999999574
 11
104.6999999999999
 21
4.999999999999177
 72
    1
 10
104.6999999999999
 20
4.999999999999177
 11
103.4999999999999
 21
4.999999999999575
 72
    1
 10
103.4999999999999
 20
4.999999999999575
 11
103.5
 21
33
 72
    1
 10
103.5
 20
33
 11
100.5
 21
33
 97
    0
 75
    0
 76
    1
 52
0
 41
0.2
 77
    0
 78
    0
 98
    0
  0
HATCH
  5
22D
100
AcDbEntity
  8
face
  6
ByLayer
 62
  256
370
   -1
100
AcDbHatch
 10
0
 20
0
 30
0
210
0
220
0
230
1
  2
gost_stone
 70
    0
 71
    0
 91
    1
 92
    0
 93
    4
 72
    1
 10
143.3999999999999
 20
0.2999999999995737
 11
143.3999999999999
 21
1.549999999999574
 72
    1
 10
143.3999999999999
 20
1.549999999999574
 11
131.4999999999999
 21
1.549999999999574
 72
    1
 10
131.4999999999999
 20
1.549999999999574
 11
131.4999999999999
 21
0.2999999999995737
 72
    1
 10
131.4999999999999
 20
0.2999999999995737
 11
143.3999999999999
 21
0.2999999999995737
 97
    0
 75
    0
 76
    1
 52
1.570796326794897
 41
0.2
 77
    0
 78
    0
 98
    0
  0
LWPOLYLINE
  5
22E
100
AcDbEntity
  8
base
  6
ByLayer
 62
  256
370
   -1
100
AcDbPolyline
 90
    4
 70
    1
 43
0
 10
70.99999999999997
 20
63.49999999999929
 10
99.99999999999997
 20
63.49999999999929
 10
100
 20
5.499999999999801
 10
71
 20
5.499999999999801
  0
LWPOLYLINE
  5
22F
100
AcDbEntity
  8
base
  6
ByLayer
 62
  256
370
   -1
100
AcDbPolyline
 90
    4
 70
    1
 43
0
 10
37.99999999999997
 20
63.49999999999929
 10
66.99999999999997
 20
63.49999999999929
 10
67
 20
5.499999999999801
 10
38
 20
5.499999999999801
  0
LWPOLYLINE
  5
230
100
AcDbEntity
  8
base
  6
ByLayer
 62
  256
370
   -1
100
AcDbPolyline
 90
    4
 70
    1
 43
0
 10
104
 20
63.49999999999929
 10
133
 20
63.49999999999929
 10
133
 20
5.499999999999801
 10
104
 20
5.499999999999801
  0
LWPOLYLINE
  5
231
100
AcDbEntity
  8
base
  6
ByLayer
 62
  256
370
   -1
100
AcDbPolyline
 90
    4
 70
    1
 43
0
 10
137
 20
63.49999999999929
 10
175.5
 20
63.4999999999994
 10
175.5
 20
5.499999999999801
 10
137
 20
5.499999999999801
  0
LWPOLYLINE
  5
232
100
AcDbEntity
  8
base
  6
CONTINUOUS
 62
  136
420
32896
370
   50
100
AcDbPolyline
 90
    8
 70
    1
 43
0
 10
5.499999999999972
 20
63.49999999999909
 10
33.99999999999997
 20
63.49999999999909
 10
33.99999999999999
 20
37.9999999999998
 10
21
 20
37.99999999999949
 10
21
 20
30.99999999999983
 10
34
 20
30.99999999999983
 10
34
 20
5.499999999999602
 10
5.5
 20
5.499999999999602
  0
LINE
  5
233
100
AcDbEntity
  8
base
  6
ByLayer
 62
  256
370
   -1
100
AcDbLine
 10
14.2
 20
0.4999999999999971
 11
25
 21
0.4999999999999998
  0
LINE
  5
234
100
AcDbEntity
  8
base
  6
ByLayer
 62
  256
370
   -1
100
AcDbLine
 10
47.1
 20
0.4999999999996446
 11
57.89999999999998
 21
0.4999999999996306
  0
LINE
  5
235
100
AcDbEntity
  8
base
  6
ByLayer
 62
  256
370
   -1
100
AcDbLine
 10
80.10000000000001
 20
0.4999999999996305
 11
90.90000000000001
 21
0.4999999999996302
  0
LINE
  5
236
100
AcDbEntity
  8
base
  6
ByLayer
 62
  256
370
   -1
100
AcDbLine
 10
105.4
 20
0.4999999999996019
 11
131.2
 21
0.5
  0
LINE
  5
237
100
AcDbEntity
  8
base
  6
ByLayer
 62
  256
370
   -1
100
AcDbLine
 10
143.8
 20
0.4999999999999857
 11
169.6
 21
0.5000000000000142
  0
MTEXT
  5
238
100
AcDbEntity
  8
dimensions
  6
ByLayer
 62
  256
370
   -1
100
AcDbMText
 10
-0.9444444444444446
 20
-10.5
 30
0
 40
3.5
 41
164.1111111111118
 71
    1
 72
    1
  3
1. i i i %%P2 .\P2. i i  i i i  %%P0,5 .\P3.   i  
  1
ii  . 11.\P4.  i i  ii  . 12.\P5. * - i i
  7
cyrillic_ii
210
0
220
0
230
1
 50
0
 73
    2
 44
1
  0
MTEXT
  5
239
100
AcDbEntity
  8
dimensions
  6
ByLayer
 62
  256
370
   -1
100
AcDbMText
 10
203.2222222222222
 20
-36.5
 30
0
 40
5
 41
20.4166666666669
 71
    6
 72
    1
  1
. 8
  7
cyrillic_ii
210
0
220
0
230
1
 50
0
 73
    2
 44
1
  0
MTEXT
  5
23A
100
AcDbEntity
  8
dimensions
  6
ByLayer
 62
  256
370
   -1
100
AcDbMText
 10
85.34722222222184
 20
88.5
 30
0
 40
5
 41
106.5277777777778
 71
    5
 72
    1
  1
i -.  .
  7
cyrillic_ii
210
0
220
0
230
1
 50
0
 73
    2
 44
1
  0
LINE
  5
23B
100
AcDbEntity
  8
dimensions
  6
ByLayer
 62
  256
370
   -1
100
AcDbLine
 10
31
 20
84
 11
139
 21
84
  0
LWPOLYLINE
  5
23C
100
AcDbEntity
  8
body
  6
ByLayer
 62
  256
370
   -1
100
AcDbPolyline
 90
    4
 70
    1
 43
0
 10
13.99999999999991
 20
1.549999999999574
 10
13.49999999999991
 20
1.549999999999574
 10
13.49999999999991
 20
1.999999999999574
 10
13.99999999999991
 20
1.999999999999574
  0
LWPOLYLINE
  5
23D
100
AcDbEntity
  8
body
  6
ByLayer
 62
  256
370
   -1
100
AcDbPolyline
 90
    4
 70
    1
 43
0
 10
25.6999999999999
 20
1.549999999999573
 10
25.19999999999991
 20
1.549999999999573
 10
25.19999999999991
 20
1.999999999999574
 10
25.69999999999991
 20
1.999999999999574
  0
LWPOLYLINE
  5
23E
100
AcDbEntity
  8
body
  6
ByLayer
 62
  256
370
   -1
100
AcDbPolyline
 90
    4
 70
    1
 43
0
 10
46.89999999999993
 20
1.549999999999574
 10
46.39999999999993
 20
1.549999999999574
 10
46.39999999999993
 20
1.999999999999574
 10
46.89999999999993
 20
1.999999999999574
  0
LWPOLYLINE
  5
23F
100
AcDbEntity
  8
face
  6
ByLayer
 62
  256
370
   -1
100
AcDbPolyline
 90
    5
 70
    0
 43
0
 10
24.99999999999991
 20
0.2999999999995737
 10
24.99999999999991
 20
1.559999999999573
 10
47.09999999999992
 20
1.549999999999574
 10
47.09999999999992
 20
0.2999999999995738
 10
24.99999999999991
 20
0.2999999999995737
  0
LWPOLYLINE
  5
240
100
AcDbEntity
  8
body
  6
ByLayer
 62
  256
370
   -1
100
AcDbPolyline
 90
    4
 70
    1
 43
0
 10
58.5999999999999
 20
1.549999999999574
 10
58.0999999999999
 20
1.549999999999574
 10
58.0999999999999
 20
1.999999999999574
 10
58.5999999999999
 20
1.999999999999574
  0
LWPOLYLINE
  5
241
100
AcDbEntity
  8
body
  6
ByLayer
 62
  256
370
   -1
100
AcDbPolyline
 90
    4
 70
    1
 43
0
 10
79.89999999999993
 20
1.549999999999574
 10
79.39999999999993
 20
1.549999999999574
 10
79.39999999999993
 20
1.999999999999574
 10
79.89999999999993
 20
1.999999999999574
  0
LWPOLYLINE
  5
242
100
AcDbEntity
  8
face
  6
ByLayer
 62
  256
370
   -1
100
AcDbPolyline
 90
    5
 70
    0
 43
0
 10
57.89999999999993
 20
1.549999999999574
 10
80.09999999999994
 20
1.549999999999574
 10
80.09999999999994
 20
0.2999999999995737
 10
57.89999999999993
 20
0.2999999999995736
 10
57.89999999999993
 20
1.549999999999574
  0
LWPOLYLINE
  5
243
100
AcDbEntity
  8
body
  6
ByLayer
 62
  256
370
   -1
100
AcDbPolyline
 90
    4
 70
    1
 43
0
 10
91.59999999999997
 20
1.549999999998844
 10
91.09999999999997
 20
1.549999999998844
 10
91.09999999999997
 20
1.999999999998844
 10
91.59999999999997
 20
1.999999999998844
  0
LWPOLYLINE
  5
244
100
AcDbEntity
  8
face
  6
ByLayer
 62
  256
370
   -1
100
AcDbPolyline
 90
    5
 70
    0
 43
0
 10
90.89999999999992
 20
0.2999999999995734
 10
104.9999999999999
 20
0.2999999999995738
 10
104.9999999999999
 20
1.549999999999574
 10
90.89999999999992
 20
1.549999999999573
 10
90.89999999999992
 20
0.2999999999995734
  0
LWPOLYLINE
  5
245
100
AcDbEntity
  8
body
  6
ByLayer
 62
  256
370
   -1
100
AcDbPolyline
 90
    4
 70
    1
 43
0
 10
104.7
 20
1.549999999998446
 10
104.2
 20
1.549999999998446
 10
104.2
 20
1.999999999998446
 10
104.7
 20
1.999999999998446
  0
LWPOLYLINE
  5
246
100
AcDbEntity
  8
body
  6
ByLayer
 62
  256
370
   -1
100
AcDbPolyline
 90
    8
 70
    1
 43
0
 10
100.4999999999999
 20
4.999999999999532
 10
91.09999999999992
 20
4.999999999999162
 10
91.09999999999992
 20
1.999999999999573
 10
104.6999999999999
 20
1.999999999999574
 10
104.6999999999999
 20
4.999999999999177
 10
103.4999999999999
 20
4.999999999999575
 10
103.5
 20
33
 10
100.5
 20
33
  0
LWPOLYLINE
  5
247
100
AcDbEntity
  8
body
  6
ByLayer
 62
  256
370
   -1
100
AcDbPolyline
 90
    4
 70
    1
 43
0
 10
132.2999999999999
 20
1.549999999999574
 10
131.7999999999999
 20
1.549999999999574
 10
131.7999999999999
 20
1.999999999999574
 10
132.2999999999999
 20
1.999999999999574
  0
LWPOLYLINE
  5
248
100
AcDbEntity
  8
face
  6
ByLayer
 62
  256
370
   -1
100
AcDbPolyline
 90
    5
 70
    0
 43
0
 10
131.4999999999999
 20
0.2999999999995737
 10
143.3999999999999
 20
0.2999999999995737
 10
143.3999999999999
 20
1.549999999999574
 10
131.4999999999999
 20
1.549999999999574
 10
131.4999999999999
 20
0.2999999999995737
  0
LWPOLYLINE
  5
249
100
AcDbEntity
  8
body
  6
ByLayer
 62
  256
370
   -1
100
AcDbPolyline
 90
    4
 70
    1
 43
0
 10
143.0999999999999
 20
1.549999999999574
 10
142.5999999999999
 20
1.549999999999574
 10
142.5999999999999
 20
1.999999999999574
 10
143.0999999999999
 20
1.999999999999574
  0
LWPOLYLINE
  5
24A
100
AcDbEntity
  8
body
  6
ByLayer
 62
  256
370
   -1
100
AcDbPolyline
 90
    4
 70
    1
 43
0
 10
170.6999999999999
 20
1.549999999999573
 10
170.1999999999999
 20
1.549999999999573
 10
170.1999999999999
 20
1.999999999999573
 10
170.6999999999999
 20
1.999999999999573
  0
LWPOLYLINE
  5
24B
100
AcDbEntity
  8
glass
  6
ByLayer
 62
  256
370
   -1
100
AcDbPolyline
 90
    4
 70
    1
 43
0
 10
43.90000000000003
 20
68.60000000000004
 10
45.80000000000003
 20
68.60000000000004
 10
45.80000000000003
 20
67.80000000000004
 10
43.90000000000003
 20
67.80000000000004
  0
LWPOLYLINE
  5
24C
100
AcDbEntity
  8
glass
  6
ByLayer
 62
  256
370
   -1
100
AcDbPolyline
 90
    4
 70
    1
 43
0
 10
45.90000000000003
 20
68.60000000000004
 10
47.80000000000003
 20
68.60000000000004
 10
47.80000000000003
 20
67.80000000000004
 10
45.90000000000003
 20
67.80000000000004
  0
LWPOLYLINE
  5
24D
100
AcDbEntity
  8
glass
  6
ByLayer
 62
  256
370
   -1
100
AcDbPolyline
 90
    4
 70
    1
 43
0
 10
47.90000000000003
 20
68.60000000000002
 10
49.80000000000003
 20
68.60000000000002
 10
49.80000000000003
 20
67.80000000000003
 10
47.90000000000003
 20
67.80000000000003
  0
LWPOLYLINE
  5
24E
100
AcDbEntity
  8
glass
  6
ByLayer
 62
  256
370
   -1
100
AcDbPolyline
 90
    4
 70
    1
 43
0
 10
55.20000000000004
 20
68.60000000000004
 10
57.10000000000005
 20
68.60000000000004
 10
57.10000000000005
 20
67.80000000000004
 10
55.20000000000004
 20
67.80000000000004
  0
LWPOLYLINE
  5
24F
100
AcDbEntity
  8
glass
  6
ByLayer
 62
  256
370
   -1
100
AcDbPolyline
 90
    4
 70
    1
 43
0
 10
57.20000000000004
 20
68.60000000000004
 10
59.10000000000005
 20
68.60000000000004
 10
59.10000000000005
 20
67.80000000000004
 10
57.20000000000004
 20
67.80000000000004
  0
LWPOLYLINE
  5
250
100
AcDbEntity
  8
glass
  6
ByLayer
 62
  256
370
   -1
100
AcDbPolyline
 90
    4
 70
    1
 43
0
 10
59.20000000000004
 20
68.60000000000002
 10
61.10000000000005
 20
68.60000000000002
 10
61.10000000000005
 20
67.80000000000003
 10
59.20000000000004
 20
67.80000000000003
  0
LWPOLYLINE
  5
251
100
AcDbEntity
  8
glass
  6
ByLayer
 62
  256
370
   -1
100
AcDbPolyline
 90
    4
 70
    1
 43
0
 10
76.90000000000003
 20
68.60000000000004
 10
78.80000000000004
 20
68.60000000000004
 10
78.80000000000004
 20
67.80000000000004
 10
76.90000000000003
 20
67.80000000000004
  0
LWPOLYLINE
  5
252
100
AcDbEntity
  8
glass
  6
ByLayer
 62
  256
370
   -1
100
AcDbPolyline
 90
    4
 70
    1
 43
0
 10
78.90000000000003
 20
68.60000000000004
 10
80.80000000000004
 20
68.60000000000004
 10
80.80000000000004
 20
67.80000000000004
 10
78.90000000000003
 20
67.80000000000004
  0
LWPOLYLINE
  5
253
100
AcDbEntity
  8
glass
  6
ByLayer
 62
  256
370
   -1
100
AcDbPolyline
 90
    4
 70
    1
 43
0
 10
80.90000000000003
 20
68.60000000000002
 10
82.80000000000004
 20
68.60000000000002
 10
82.80000000000004
 20
67.80000000000003
 10
80.90000000000003
 20
67.80000000000003
  0
LWPOLYLINE
  5
254
100
AcDbEntity
  8
glass
  6
ByLayer
 62
  256
370
   -1
100
AcDbPolyline
 90
    4
 70
    1
 43
0
 10
88.20000000000005
 20
68.60000000000004
 10
90.10000000000005
 20
68.60000000000004
 10
90.10000000000005
 20
67.80000000000004
 10
88.20000000000005
 20
67.80000000000004
  0
LWPOLYLINE
  5
255
100
AcDbEntity
  8
glass
  6
ByLayer
 62
  256
370
   -1
100
AcDbPolyline
 90
    4
 70
    1
 43
0
 10
90.20000000000005
 20
68.60000000000004
 10
92.10000000000005
 20
68.60000000000004
 10
92.10000000000005
 20
67.80000000000004
 10
90.20000000000005
 20
67.80000000000004
  0
LWPOLYLINE
  5
256
100
AcDbEntity
  8
glass
  6
ByLayer
 62
  256
370
   -1
100
AcDbPolyline
 90
    4
 70
    1
 43
0
 10
92.20000000000005
 20
68.60000000000002
 10
94.10000000000005
 20
68.60000000000002
 10
94.10000000000005
 20
67.80000000000003
 10
92.20000000000005
 20
67.80000000000003
  0
LWPOLYLINE
  5
257
100
AcDbEntity
  8
glass
  6
ByLayer
 62
  256
370
   -1
100
AcDbPolyline
 90
    4
 70
    1
 43
0
 10
109.7
 20
68.60000000000002
 10
111.6
 20
68.60000000000002
 10
111.6
 20
67.80000000000003
 10
109.7
 20
67.80000000000003
  0
LWPOLYLINE
  5
258
100
AcDbEntity
  8
glass
  6
ByLayer
 62
  256
370
   -1
100
AcDbPolyline
 90
    4
 70
    1
 43
0
 10
111.7
 20
68.60000000000002
 10
113.6
 20
68.60000000000002
 10
113.6
 20
67.80000000000003
 10
111.7
 20
67.80000000000003
  0
LWPOLYLINE
  5
259
100
AcDbEntity
  8
glass
  6
ByLayer
 62
  256
370
   -1
100
AcDbPolyline
 90
    4
 70
    1
 43
0
 10
113.7
 20
68.60000000000001
 10
115.6
 20
68.60000000000001
 10
115.6
 20
67.80000000000001
 10
113.7
 20
67.80000000000001
  0
LWPOLYLINE
  5
25A
100
AcDbEntity
  8
glass
  6
ByLayer
 62
  256
370
   -1
100
AcDbPolyline
 90
    4
 70
    1
 43
0
 10
120.9
 20
68.60000000000004
 10
122.8
 20
68.60000000000004
 10
122.8
 20
67.80000000000004
 10
120.9
 20
67.80000000000004
  0
LWPOLYLINE
  5
25B
100
AcDbEntity
  8
glass
  6
ByLayer
 62
  256
370
   -1
100
AcDbPolyline
 90
    4
 70
    1
 43
0
 10
122.9
 20
68.60000000000004
 10
124.8
 20
68.60000000000004
 10
124.8
 20
67.80000000000004
 10
122.9
 20
67.80000000000004
  0
LWPOLYLINE
  5
25C
100
AcDbEntity
  8
glass
  6
ByLayer
 62
  256
370
   -1
100
AcDbPolyline
 90
    4
 70
    1
 43
0
 10
124.9
 20
68.60000000000002
 10
126.8
 20
68.60000000000002
 10
126.8
 20
67.80000000000003
 10
124.9
 20
67.80000000000003
  0
LWPOLYLINE
  5
25D
100
AcDbEntity
  8
body
  6
ByLayer
 62
  256
370
   -1
100
AcDbPolyline
 90
    4
 70
    1
 43
0
 10
53.40000000000004
 20
64.00000000000003
 10
55.10000000000005
 20
67.00000000000003
 10
49.90000000000004
 20
67.00000000000003
 10
51.59999999999964
 20
63.9999999999998
  0
LWPOLYLINE
  5
25E
100
AcDbEntity
  8
body
  6
ByLayer
 62
  256
370
   -1
100
AcDbPolyline
 90
    4
 70
    1
 43
0
 10
86.40000000000005
 20
64.00000000000003
 10
88.10000000000005
 20
67.00000000000003
 10
82.90000000000003
 20
67.00000000000003
 10
84.59999999999965
 20
63.9999999999998
  0
LWPOLYLINE
  5
25F
100
AcDbEntity
  8
body
  6
ByLayer
 62
  256
370
   -1
100
AcDbPolyline
 90
    8
 70
    1
 43
0
 10
103.5
 20
63.99999999999997
 10
107.9
 20
64.00000000000001
 10
109.6
 20
67.00000000000001
 10
94.20000000000005
 20
67.00000000000003
 10
95.89999999999966
 20
63.9999999999998
 10
100.5
 20
63.99999999999994
 10
100.5
 20
36
 10
103.5
 20
36
  0
LWPOLYLINE
  5
260
100
AcDbEntity
  8
body
  6
ByLayer
 62
  256
370
   -1
100
AcDbPolyline
 90
    4
 70
    1
 43
0
 10
119.1
 20
64.00000000000003
 10
120.8
 20
67.00000000000003
 10
115.7
 20
67.00000000000001
 10
117.3999999999996
 20
63.99999999999979
  0
LWPOLYLINE
  5
261
100
AcDbEntity
  8
face
  6
ByLayer
 62
  256
370
   -1
100
AcDbPolyline
 90
    4
 70
    1
 43
0
 10
120.8
 20
67.45
 10
120.8
 20
68.70000000000003
 10
115.7
 20
68.70000000000002
 10
115.7
 20
67.44999999999999
  0
LWPOLYLINE
  5
262
100
AcDbEntity
  8
face
  6
ByLayer
 62
  256
370
   -1
100
AcDbPolyline
 90
    4
 70
    1
 43
0
 10
109.6
 20
67.44999999999999
 10
109.6
 20
68.70000000000002
 10
94.20000000000005
 20
68.70000000000003
 10
94.20000000000005
 20
67.45
  0
LWPOLYLINE
  5
263
100
AcDbEntity
  8
face
  6
ByLayer
 62
  256
370
   -1
100
AcDbPolyline
 90
    4
 70
    1
 43
0
 10
88.10000000000005
 20
67.45
 10
88.10000000000005
 20
68.70000000000003
 10
82.90000000000003
 20
68.70000000000003
 10
82.90000000000003
 20
67.45
  0
LWPOLYLINE
  5
264
100
AcDbEntity
  8
face
  6
ByLayer
 62
  256
370
   -1
100
AcDbPolyline
 90
    4
 70
    1
 43
0
 10
76.80000000000004
 20
67.45
 10
76.80000000000004
 20
68.70000000000003
 10
61.20000000000004
 20
68.70000000000003
 10
61.20000000000005
 20
67.45
  0
LWPOLYLINE
  5
265
100
AcDbEntity
  8
face
  6
ByLayer
 62
  256
370
   -1
100
AcDbPolyline
 90
    4
 70
    1
 43
0
 10
55.10000000000005
 20
67.45
 10
55.10000000000004
 20
68.70000000000003
 10
49.90000000000003
 20
68.70000000000003
 10
49.90000000000004
 20
67.45
  0
LINE
  5
266
100
AcDbEntity
  8
face
  6
ByLayer
 62
  256
370
   -1
100
AcDbLine
 10
43.80000000000003
 20
68.70000000000003
 11
49.90000000000003
 21
68.70000000000003
  0
LINE
  5
267
100
AcDbEntity
  8
face
  6
ByLayer
 62
  256
370
   -1
100
AcDbLine
 10
49.90000000000004
 20
67.45
 11
43.80000000000004
 21
67.45
  0
LINE
  5
268
100
AcDbEntity
  8
face
  6
ByLayer
 62
  256
370
   -1
100
AcDbLine
 10
55.10000000000004
 20
68.70000000000003
 11
61.20000000000004
 21
68.70000000000003
  0
LINE
  5
269
100
AcDbEntity
  8
face
  6
ByLayer
 62
  256
370
   -1
100
AcDbLine
 10
61.20000000000005
 20
67.45
 11
55.10000000000005
 21
67.45
  0
LINE
  5
26A
100
AcDbEntity
  8
face
  6
ByLayer
 62
  256
370
   -1
100
AcDbLine
 10
76.80000000000004
 20
68.70000000000003
 11
82.90000000000003
 21
68.70000000000003
  0
LINE
  5
26B
100
AcDbEntity
  8
face
  6
ByLayer
 62
  256
370
   -1
100
AcDbLine
 10
82.90000000000006
 20
67.45
 11
76.80000000000005
 21
67.45
  0
LINE
  5
26C
100
AcDbEntity
  8
face
  6
ByLayer
 62
  256
370
   -1
100
AcDbLine
 10
88.10000000000005
 20
68.70000000000003
 11
94.20000000000005
 21
68.70000000000003
  0
LINE
  5
26D
100
AcDbEntity
  8
face
  6
ByLayer
 62
  256
370
   -1
100
AcDbLine
 10
94.20000000000007
 20
67.45
 11
88.10000000000007
 21
67.45
  0
LINE
  5
26E
100
AcDbEntity
  8
face
  6
ByLayer
 62
  256
370
   -1
100
AcDbLine
 10
109.6
 20
68.70000000000002
 11
115.7
 21
68.70000000000002
  0
LINE
  5
26F
100
AcDbEntity
  8
face
  6
ByLayer
 62
  256
370
   -1
100
AcDbLine
 10
115.7
 20
67.44999999999999
 11
109.6
 21
67.44999999999999
  0
LINE
  5
270
100
AcDbEntity
  8
face
  6
ByLayer
 62
  256
370
   -1
100
AcDbLine
 10
120.8
 20
68.70000000000003
 11
126.9
 21
68.70000000000003
  0
LINE
  5
271
100
AcDbEntity
  8
face
  6
ByLayer
 62
  256
370
   -1
100
AcDbLine
 10
126.9
 20
67.45
 11
120.8
 21
67.45
  0
LINE
  5
272
100
AcDbEntity
  8
body
  6
ByLayer
 62
  256
370
   -1
100
AcDbLine
 10
43.80000000000003
 20
67.00000000000003
 11
49.90000000000004
 21
67.00000000000003
  0
LINE
  5
273
100
AcDbEntity
  8
body
  6
ByLayer
 62
  256
370
   -1
100
AcDbLine
 10
51.59999999999963
 20
63.9999999999998
 11
42.10000000000003
 21
64.00000000000003
  0
LINE
  5
274
100
AcDbEntity
  8
body
  6
ByLayer
 62
  256
370
   -1
100
AcDbLine
 10
55.10000000000007
 20
67.00000000000004
 11
61.20000000000008
 21
67.00000000000004
  0
LINE
  5
275
100
AcDbEntity
  8
body
  6
ByLayer
 62
  256
370
   -1
100
AcDbLine
 10
62.89999999999967
 20
63.99999999999982
 11
53.40000000000007
 21
64.00000000000004
  0
LINE
  5
276
100
AcDbEntity
  8
body
  6
ByLayer
 62
  256
370
   -1
100
AcDbLine
 10
76.80000000000005
 20
67.00000000000004
 11
82.90000000000006
 21
67.00000000000004
  0
LINE
  5
277
100
AcDbEntity
  8
body
  6
ByLayer
 62
  256
370
   -1
100
AcDbLine
 10
84.59999999999965
 20
63.99999999999982
 11
75.10000000000005
 21
64.00000000000004
  0
LINE
  5
278
100
AcDbEntity
  8
body
  6
ByLayer
 62
  256
370
   -1
100
AcDbLine
 10
88.10000000000005
 20
67.00000000000003
 11
94.20000000000006
 21
67.00000000000003
  0
LINE
  5
279
100
AcDbEntity
  8
body
  6
ByLayer
 62
  256
370
   -1
100
AcDbLine
 10
95.89999999999965
 20
63.9999999999998
 11
86.40000000000005
 21
64.00000000000003
  0
LINE
  5
27A
100
AcDbEntity
  8
body
  6
ByLayer
 62
  256
370
   -1
100
AcDbLine
 10
109.6
 20
67.00000000000001
 11
115.7
 21
67.00000000000001
  0
LINE
  5
27B
100
AcDbEntity
  8
body
  6
ByLayer
 62
  256
370
   -1
100
AcDbLine
 10
117.3999999999996
 20
63.99999999999979
 11
107.9
 21
64.00000000000001
  0
LINE
  5
27C
100
AcDbEntity
  8
body
  6
ByLayer
 62
  256
370
   -1
100
AcDbLine
 10
120.8
 20
67.00000000000003
 11
126.9
 21
67.00000000000003
  0
LINE
  5
27D
100
AcDbEntity
  8
body
  6
ByLayer
 62
  256
370
   -1
100
AcDbLine
 10
128.5999999999996
 20
63.9999999999998
 11
119.1
 21
64.00000000000003
  0
LWPOLYLINE
  5
27E
100
AcDbEntity
  8
body
  6
ByLayer
 62
  256
370
   -1
100
AcDbPolyline
 90
    4
 70
    1
 43
0
 10
43.80000000000003
 20
67.00000000000003
 10
43.30000000000004
 20
67.00000000000003
 10
43.30000000000004
 20
67.45000000000003
 10
43.80000000000004
 20
67.45000000000003
  0
LWPOLYLINE
  5
27F
100
AcDbEntity
  8
body
  6
ByLayer
 62
  256
370
   -1
100
AcDbPolyline
 90
    4
 70
    1
 43
0
 10
50.40000000000003
 20
67.00000000000001
 10
49.90000000000004
 20
67.00000000000001
 10
49.90000000000004
 20
67.45000000000002
 10
50.40000000000004
 20
67.45000000000002
  0
LWPOLYLINE
  5
280
100
AcDbEntity
  8
body
  6
ByLayer
 62
  256
370
   -1
100
AcDbPolyline
 90
    4
 70
    1
 43
0
 10
55.10000000000007
 20
67.00000000000004
 10
54.60000000000008
 20
67.00000000000004
 10
54.60000000000008
 20
67.45000000000005
 10
55.10000000000008
 20
67.45000000000005
  0
LWPOLYLINE
  5
281
100
AcDbEntity
  8
body
  6
ByLayer
 62
  256
370
   -1
100
AcDbPolyline
 90
    4
 70
    1
 43
0
 10
61.70000000000007
 20
67.00000000000003
 10
61.20000000000008
 20
67.00000000000003
 10
61.20000000000008
 20
67.45000000000003
 10
61.70000000000008
 20
67.45000000000003
  0
LWPOLYLINE
  5
282
100
AcDbEntity
  8
body
  6
ByLayer
 62
  256
370
   -1
100
AcDbPolyline
 90
    4
 70
    1
 43
0
 10
76.80000000000005
 20
67.00000000000004
 10
76.30000000000007
 20
67.00000000000004
 10
76.30000000000007
 20
67.45000000000005
 10
76.80000000000007
 20
67.45000000000005
  0
LWPOLYLINE
  5
283
100
AcDbEntity
  8
body
  6
ByLayer
 62
  256
370
   -1
100
AcDbPolyline
 90
    4
 70
    1
 43
0
 10
83.40000000000006
 20
67.00000000000003
 10
82.90000000000006
 20
67.00000000000003
 10
82.90000000000006
 20
67.45000000000003
 10
83.40000000000006
 20
67.45000000000003
  0
LWPOLYLINE
  5
284
100
AcDbEntity
  8
body
  6
ByLayer
 62
  256
370
   -1
100
AcDbPolyline
 90
    4
 70
    1
 43
0
 10
88.10000000000005
 20
67.00000000000003
 10
87.60000000000007
 20
67.00000000000003
 10
87.60000000000007
 20
67.45000000000003
 10
88.10000000000007
 20
67.45000000000003
  0
LWPOLYLINE
  5
285
100
AcDbEntity
  8
body
  6
ByLayer
 62
  256
370
   -1
100
AcDbPolyline
 90
    4
 70
    1
 43
0
 10
94.70000000000005
 20
67.00000000000001
 10
94.20000000000006
 20
67.00000000000001
 10
94.20000000000006
 20
67.45000000000002
 10
94.70000000000006
 20
67.45000000000002
  0
LWPOLYLINE
  5
286
100
AcDbEntity
  8
body
  6
ByLayer
 62
  256
370
   -1
100
AcDbPolyline
 90
    4
 70
    1
 43
0
 10
109.6
 20
67.00000000000001
 10
109.1
 20
67.00000000000001
 10
109.1
 20
67.45000000000002
 10
109.6
 20
67.45000000000002
  0
LWPOLYLINE
  5
287
100
AcDbEntity
  8
body
  6
ByLayer
 62
  256
370
   -1
100
AcDbPolyline
 90
    4
 70
    1
 43
0
 10
116.2
 20
67
 10
115.7
 20
67
 10
115.7
 20
67.45
 10
116.2
 20
67.45
  0
LWPOLYLINE
  5
288
100
AcDbEntity
  8
body
  6
ByLayer
 62
  256
370
   -1
100
AcDbPolyline
 90
    4
 70
    1
 43
0
 10
120.8
 20
67.00000000000003
 10
120.3
 20
67.00000000000003
 10
120.3
 20
67.45000000000003
 10
120.8
 20
67.45000000000003
  0
LWPOLYLINE
  5
289
100
AcDbEntity
  8
body
  6
ByLayer
 62
  256
370
   -1
100
AcDbPolyline
 90
    4
 70
    1
 43
0
 10
127.4
 20
67.00000000000001
 10
126.9
 20
67.00000000000001
 10
126.9
 20
67.45000000000002
 10
127.4
 20
67.45000000000002
  0
DIMENSION
  5
28A
100
AcDbEntity
  8
dimensions
  6
ByLayer
 62
  256
370
   -1
100
AcDbDimension
  2
*D1
 10
55.50000000000004
 20
73.70000000000002
 30
0
 11
52.50000000000003
 21
77.20000000000002
 31
0
 70
   32
 71
    5
 72
    0
  3
Standard
 53
0
210
0
220
0
230
1
100
AcDbAlignedDimension
 13
49.90000000000003
 23
68.70000000000003
 33
0
 14
55.10000000000004
 24
68.70000000000003
 34
0
100
AcDbRotatedDimension
  0
DIMENSION
  5
28B
100
AcDbEntity
  8
dimensions
  6
ByLayer
 62
  256
370
   -1
100
AcDbDimension
  2
*D2
 10
88.50000000000003
 20
73.70000000000002
 30
0
 11
85.50000000000004
 21
77.20000000000002
 31
0
 70
   32
 71
    5
 72
    0
  3
Standard
 53
0
210
0
220
0
230
1
100
AcDbAlignedDimension
 13
82.90000000000003
 23
68.70000000000003
 33
0
 14
88.10000000000005
 24
68.70000000000003
 34
0
100
AcDbRotatedDimension
  0
DIMENSION
  5
28C
100
AcDbEntity
  8
dimensions
  6
ByLayer
 62
  256
370
   -1
100
AcDbDimension
  2
*D3
 10
121.5
 20
73.70000000000005
 30
0
 11
118.25
 21
77.20000000000005
 31
0
 70
   32
 71
    5
 72
    0
  3
Standard
 53
0
210
0
220
0
230
1
100
AcDbAlignedDimension
 13
115.7
 23
68.70000000000002
 33
0
 14
120.8
 24
68.70000000000003
 34
0
100
AcDbRotatedDimension
  0
DIMENSION
  5
28D
100
AcDbEntity
  8
dimensions
  6
ByLayer
 62
  256
370
   -1
100
AcDbDimension
  2
*D4
 10
49.90000000000003
 20
73.70000000000002
 30
0
 11
46.85000000000002
 21
77.20000000000002
 31
0
 70
   32
 71
    5
 72
    0
  3
Standard
 53
0
210
0
220
0
230
1
100
AcDbAlignedDimension
 13
43.80000000000003
 23
68.70000000000003
 33
0
 14
49.90000000000003
 24
68.70000000000003
 34
0
100
AcDbRotatedDimension
  0
DIMENSION
  5
28E
100
AcDbEntity
  8
dimensions
  6
ByLayer
 62
  256
370
   -1
100
AcDbDimension
  2
*D5
 10
61.20000000000005
 20
73.70000000000002
 30
0
 11
58.15000000000004
 21
77.20000000000002
 31
0
 70
   32
 71
    5
 72
    0
  3
Standard
 53
0
210
0
220
0
230
1
100
AcDbAlignedDimension
 13
55.10000000000004
 23
68.70000000000003
 33
0
 14
61.20000000000005
 24
68.70000000000003
 34
0
100
AcDbRotatedDimension
  0
DIMENSION
  5
28F
100
AcDbEntity
  8
dimensions
  6
ByLayer
 62
  256
370
   -1
100
AcDbDimension
  2
*D6
 10
61.40000000000004
 20
73.70000000000002
 30
0
 11
69.00000000000004
 21
77.20000000000002
 31
0
 70
   32
 71
    5
 72
    0
  3
Standard
 53
0
210
0
220
0
230
1
100
AcDbAlignedDimension
 13
76.80000000000004
 23
68.70000000000003
 33
0
 14
61.20000000000005
 24
68.70000000000003
 34
0
100
AcDbRotatedDimension
  0
DIMENSION
  5
290
100
AcDbEntity
  8
dimensions
  6
ByLayer
 62
  256
370
   -1
100
AcDbDimension
  2
*D7
 10
82.90000000000003
 20
73.70000000000002
 30
0
 11
79.85000000000004
 21
77.20000000000002
 31
0
 70
   32
 71
    5
 72
    0
  3
Standard
 53
0
210
0
220
0
230
1
100
AcDbAlignedDimension
 13
76.80000000000004
 23
68.70000000000003
 33
0
 14
82.90000000000003
 24
68.70000000000003
 34
0
100
AcDbRotatedDimension
  0
DIMENSION
  5
291
100
AcDbEntity
  8
dimensions
  6
ByLayer
 62
  256
370
   -1
100
AcDbDimension
  2
*D8
 10
94.20000000000005
 20
73.70000000000002
 30
0
 11
91.15000000000005
 21
77.20000000000002
 31
0
 70
   32
 71
    5
 72
    0
  3
Standard
 53
0
210
0
220
0
230
1
100
AcDbAlignedDimension
 13
88.10000000000005
 23
68.70000000000003
 33
0
 14
94.20000000000005
 24
68.70000000000003
 34
0
100
AcDbRotatedDimension
  0
DIMENSION
  5
292
100
AcDbEntity
  8
dimensions
  6
ByLayer
 62
  256
370
   -1
100
AcDbDimension
  2
*D9
 10
94.40000000000003
 20
73.70000000000002
 30
0
 11
101.9
 21
77.20000000000002
 31
0
 70
   32
 71
    5
 72
    0
  3
Standard
 53
0
210
0
220
0
230
1
100
AcDbAlignedDimension
 13
109.6
 23
68.7
 33
0
 14
94.20000000000005
 24
68.70000000000003
 34
0
100
AcDbRotatedDimension
  0
DIMENSION
  5
293
100
AcDbEntity
  8
dimensions
  6
ByLayer
 62
  256
370
   -1
100
AcDbDimension
  2
*D10
 10
115.7
 20
73.70000000000002
 30
0
 11
112.65
 21
77.20000000000002
 31
0
 70
   32
 71
    5
 72
    0
  3
Standard
 53
0
210
0
220
0
230
1
100
AcDbAlignedDimension
 13
109.6
 23
68.7
 33
0
 14
115.7
 24
68.70000000000002
 34
0
100
AcDbRotatedDimension
  0
DIMENSION
  5
294
100
AcDbEntity
  8
dimensions
  6
ByLayer
 62
  256
370
   -1
100
AcDbDimension
  2
*D11
 10
126.9
 20
73.70000000000002
 30
0
 11
123.85
 21
77.20000000000002
 31
0
 70
   32
 71
    5
 72
    0
  3
Standard
 53
0
210
0
220
0
230
1
100
AcDbAlignedDimension
 13
120.8
 23
68.70000000000003
 33
0
 14
126.9
 24
68.70000000000003
 34
0
100
AcDbRotatedDimension
  0
DIMENSION
  5
295
100
AcDbEntity
  8
dimensions
  6
ByLayer
 62
  256
370
   -1
100
AcDbDimension
  2
*D12
 10
51.59999999999961
 20
55
 30
0
 11
46.84999999999984
 21
58.5
 31
0
 70
   32
 71
    5
 72
    0
  3
Standard
 53
0
210
0
220
0
230
1
100
AcDbAlignedDimension
 13
42.10000000000003
 23
64.00000000000003
 33
0
 14
51.59999999999964
 24
63.9999999999998
 34
0
100
AcDbRotatedDimension
  0
DIMENSION
  5
296
100
AcDbEntity
  8
dimensions
  6
ByLayer
 62
  256
370
   -1
100
AcDbDimension
  2
*D13
 10
62.89999999999961
 20
55
 30
0
 11
58.14999999999984
 21
58.5
 31
0
 70
   32
 71
    5
 72
    0
  3
Standard
 53
0
210
0
220
0
230
1
100
AcDbAlignedDimension
 13
53.40000000000004
 23
64.00000000000003
 33
0
 14
62.89999999999964
 24
63.99999999999982
 34
0
100
AcDbRotatedDimension
  0
DIMENSION
  5
297
100
AcDbEntity
  8
dimensions
  6
ByLayer
 62
  256
370
   -1
100
AcDbDimension
  2
*D14
 10
84.59999999999961
 20
55
 30
0
 11
79.84999999999984
 21
58.5
 31
0
 70
   32
 71
    5
 72
    0
  3
Standard
 53
0
210
0
220
0
230
1
100
AcDbAlignedDimension
 13
75.10000000000004
 23
64.00000000000003
 33
0
 14
84.59999999999964
 24
63.99999999999982
 34
0
100
AcDbRotatedDimension
  0
DIMENSION
  5
298
100
AcDbEntity
  8
dimensions
  6
ByLayer
 62
  256
370
   -1
100
AcDbDimension
  2
*D15
 10
95.89999999999962
 20
55
 30
0
 11
91.14999999999985
 21
58.5
 31
0
 70
   32
 71
    5
 72
    0
  3
Standard
 53
0
210
0
220
0
230
1
100
AcDbAlignedDimension
 13
86.40000000000005
 23
64.00000000000003
 33
0
 14
95.89999999999965
 24
63.9999999999998
 34
0
100
AcDbRotatedDimension
  0
DIMENSION
  5
299
100
AcDbEntity
  8
dimensions
  6
ByLayer
 62
  256
370
   -1
100
AcDbDimension
  2
*D16
 10
117.3999999999996
 20
55
 30
0
 11
112.6499999999998
 21
58.5
 31
0
 70
   32
 71
    5
 72
    0
  3
Standard
 53
0
210
0
220
0
230
1
100
AcDbAlignedDimension
 13
107.9
 23
64.00000000000001
 33
0
 14
117.3999999999996
 24
63.9999999999998
 34
0
100
AcDbRotatedDimension
  0
DIMENSION
  5
29A
100
AcDbEntity
  8
dimensions
  6
ByLayer
 62
  256
370
   -1
100
AcDbDimension
  2
*D17
 10
128.5999999999996
 20
55
 30
0
 11
123.8499999999998
 21
58.5
 31
0
 70
   32
 71
    5
 72
    0
  3
Standard
 53
0
210
0
220
0
230
1
100
AcDbAlignedDimension
 13
119.1
 23
64.00000000000003
 33
0
 14
128.5999999999996
 24
63.9999999999998
 34
0
100
AcDbRotatedDimension
  0
DIMENSION
  5
29B
100
AcDbEntity
  8
dimensions
  6
ByLayer
 62
  256
370
   -1
100
AcDbDimension
  2
*D18
 10
43.60000000000003
 20
73.70000000000002
 30
0
 11
22.05000000000003
 21
77.20000000000002
 31
0
 70
   32
 71
    5
 72
    0
  3
Standard
 53
0
210
0
220
0
230
1
100
AcDbAlignedDimension
 13
0.3000000000000285
 23
68.70000000000002
 33
0
 14
43.80000000000003
 24
68.70000000000003
 34
0
100
AcDbRotatedDimension
  0
LWPOLYLINE
  5
29C
100
AcDbEntity
  8
body
  6
ByLayer
 62
  256
370
   -1
100
AcDbPolyline
 90
   12
 70
    1
 43
0
 10
61.20000000000005
 20
67.00000000000003
 10
62.89999999999965
 20
63.9999999999998
 10
67.50000000000003
 20
63.99999999999994
 10
67.49999999999991
 20
4.999999999999532
 10
58.09999999999992
 20
4.999999999999162
 10
58.09999999999992
 20
1.999999999999574
 10
79.89999999999993
 20
1.999999999999574
 10
79.89999999999993
 20
4.999999999999162
 10
70.49999999999991
 20
4.999999999999532
 10
70.50000000000003
 20
63.99999999999994
 10
75.10000000000004
 20
64.00000000000003
 10
76.80000000000004
 20
67.00000000000003
  0
LINE
  5
29D
100
AcDbEntity
  8
body
  6
ByLayer
 62
  256
370
   -1
100
AcDbLine
 10
5
 20
44.70000000000001
 11
5
 21
53.90000000000002
  0
LINE
  5
29E
100
AcDbEntity
  8
body
  6
ByLayer
 62
  256
370
   -1
100
AcDbLine
 10
2
 20
53.90000000000002
 11
2
 21
44.70000000000001
  0
LINE
  5
29F
100
AcDbEntity
  8
face
  6
ByLayer
 62
  256
370
   -1
100
AcDbLine
 10
1.55
 20
53.3
 11
1.55
 21
45.30000000000003
  0
LINE
  5
2A0
100
AcDbEntity
  8
face
  6
ByLayer
 62
  256
370
   -1
100
AcDbLine
 10
0.3
 20
45.30000000000003
 11
0.3000000000000002
 21
53.3
  0
LWPOLYLINE
  5
2A1
100
AcDbEntity
  8
body
  6
ByLayer
 62
  256
370
   -1
100
AcDbPolyline
 90
    4
 70
    1
 43
0
 10
1.999999999999999
 20
44.70000000000001
 10
1.999999999999999
 20
44.20000000000001
 10
1.55
 20
44.20000000000001
 10
1.55
 20
44.70000000000001
  0
LWPOLYLINE
  5
2A2
100
AcDbEntity
  8
body
  6
ByLayer
 62
  256
370
   -1
100
AcDbPolyline
 90
    4
 70
    1
 43
0
 10
1.999999999999999
 20
54.40000000000001
 10
1.999999999999999
 20
53.90000000000002
 10
1.55
 20
53.90000000000002
 10
1.55
 20
54.40000000000002
  0
LINE
  5
2A3
100
AcDbEntity
  8
dimensions
  6
DASHDOT2
 62
  256
370
   -1
100
AcDbLine
 10
-0.7000000000000011
 20
49.3
 11
5.999999999999999
 21
49.3
  0
DIMENSION
  5
2A4
100
AcDbEntity
  8
dimensions
  6
ByLayer
 62
  256
370
   -1
100
AcDbDimension
  2
*D19
 10
-4.7
 20
53.8
 30
0
 11
-8.200000000000001
 21
49.30000000000001
 31
0
 70
   32
  1
<>%%P1
 71
    5
 72
    0
  3
Standard
 53
0
210
0
220
0
230
1
100
AcDbAlignedDimension
 13
0.3
 23
45.30000000000003
 33
0
 14
0.3000000000000002
 24
53.3
 34
0
 50
90
100
AcDbRotatedDimension
  0
DIMENSION
  5
2A5
100
AcDbEntity
  8
dimensions
  6
ByLayer
 62
  256
370
   -1
100
AcDbDimension
  2
*D20
 10
13
 20
53.8
 30
0
 11
9.5
 21
49.30000000000001
 31
0
 70
   32
  1
<>%%P1
 71
    5
 72
    0
  3
Standard
 53
0
210
0
220
0
230
1
100
AcDbAlignedDimension
 13
5
 23
44.70000000000001
 33
0
 14
5
 24
53.90000000000002
 34
0
 50
90
100
AcDbRotatedDimension
  0
DIMENSION
  5
2A6
100
AcDbEntity
  8
dimensions
  6
ByLayer
 62
  256
370
   -1
100
AcDbDimension
  2
*D21
 10
13
 20
64.29999999999997
 30
0
 11
9.5
 21
58.95
 31
0
 70
   32
 71
    5
  3
Standard
 53
0
210
0
220
0
230
1
100
AcDbAlignedDimension
 13
5
 23
53.90000000000002
 33
0
 14
5.000000000000028
 24
63.99999999999999
 34
0
 50
90
100
AcDbRotatedDimension
  0
LWPOLYLINE
  5
2A7
100
AcDbEntity
  8
face
  6
ByLayer
 62
  256
370
   -1
100
AcDbPolyline
 90
    6
 70
    1
 43
0
 10
43.80000000000003
 20
68.70000000000003
 10
43.80000000000004
 20
67.45
 10
1.550000000000028
 20
67.45000000000034
 10
1.55
 20
53.3
 10
0.3000000000000002
 20
53.3
 10
0.3000000000000285
 20
68.70000000000002
  0
DIMENSION
  5
2A8
100
AcDbEntity
  8
dimensions
  6
ByLayer
 62
  256
370
   -1
100
AcDbDimension
  2
*D22
 10
-4.7
 20
69
 30
0
 11
-8.200000000000001
 21
61.00000000000001
 31
0
 70
   32
 71
    5
 72
    0
  3
Standard
 53
0
210
0
220
0
230
1
100
AcDbAlignedDimension
 13
0.3000000000000002
 23
53.3
 33
0
 14
0.3000000000000285
 24
68.70000000000002
 34
0
 50
90
100
AcDbRotatedDimension
  0
LWPOLYLINE
  5
2A9
100
AcDbEntity
  8
body
  6
ByLayer
 62
  256
370
   -1
100
AcDbPolyline
 90
   14
 70
    1
 43
0
 10
5
 20
53.90000000000002
 10
5.000000000000028
 20
63.99999999999999
 10
34.50000000000003
 20
63.99999999999994
 10
34.49999999999991
 20
4.999999999999532
 10
25.19999999999991
 20
4.999999999999177
 10
25.19999999999991
 20
1.999999999999574
 10
46.89999999999993
 20
1.999999999999574
 10
46.89999999999993
 20
4.999999999999177
 10
37.49999999999991
 20
4.999999999999532
 10
37.50000000000003
 20
63.99999999999994
 10
42.10000000000003
 20
64.00000000000003
 10
43.80000000000003
 20
67.00000000000003
 10
2.000000000000028
 20
67.00000000000034
 10
2
 20
53.90000000000002
  0
LINE
  5
2AA
100
AcDbEntity
  8
face
  6
ByLayer
 62
  256
370
   -1
100
AcDbLine
 10
0.3000000000000009
 20
15.7
 11
0.3000000000000015
 21
23.7
  0
LINE
  5
2AB
100
AcDbEntity
  8
face
  6
ByLayer
 62
  256
370
   -1
100
AcDbLine
 10
1.550000000000001
 20
23.7
 11
1.550000000000001
 21
15.7
  0
LINE
  5
2AC
100
AcDbEntity
  8
body
  6
ByLayer
 62
  256
370
   -1
100
AcDbLine
 10
2.000000000000001
 20
15.1
 11
2.000000000000001
 21
24.3
  0
LINE
  5
2AD
100
AcDbEntity
  8
body
  6
ByLayer
 62
  256
370
   -1
100
AcDbLine
 10
5.000000000000001
 20
24.3
 11
5.000000000000001
 21
15.1
  0
LWPOLYLINE
  5
2AE
100
AcDbEntity
  8
body
  6
ByLayer
 62
  256
370
   -1
100
AcDbPolyline
 90
    4
 70
    1
 43
0
 10
2
 20
15.1
 10
2
 20
14.6
 10
1.550000000000001
 20
14.6
 10
1.550000000000001
 20
15.1
  0
LWPOLYLINE
  5
2AF
100
AcDbEntity
  8
body
  6
ByLayer
 62
  256
370
   -1
100
AcDbPolyline
 90
    4
 70
    1
 43
0
 10
2
 20
24.8
 10
2
 20
24.3
 10
1.550000000000001
 20
24.3
 10
1.550000000000001
 20
24.8
  0
LINE
  5
2B0
100
AcDbEntity
  8
dimensions
  6
DASHDOT2
 62
  256
370
   -1
100
AcDbLine
 10
-0.6999999999999991
 20
19.7
 11
6.000000000000001
 21
19.7
  0
DIMENSION
  5
2B1
100
AcDbEntity
  8
dimensions
  6
ByLayer
 62
  256
370
   -1
100
AcDbDimension
  2
*D23
 10
-4.7
 20
23.2
 30
0
 11
-8.200000000000001
 21
19.7
 31
0
 70
   32
  1
<>%%P1
 71
    5
 72
    0
  3
Standard
 53
0
210
0
220
0
230
1
100
AcDbAlignedDimension
 13
0.3000000000000009
 23
15.7
 33
0
 14
0.3000000000000015
 24
23.7
 34
0
 50
90
100
AcDbRotatedDimension
  0
DIMENSION
  5
2B2
100
AcDbEntity
  8
dimensions
  6
ByLayer
 62
  256
370
   -1
100
AcDbDimension
  2
*D24
 10
13
 20
24.4
 30
0
 11
9.5
 21
19.7
 31
0
 70
   32
  1
<>%%P1
 71
    5
 72
    0
  3
Standard
 53
0
210
0
220
0
230
1
100
AcDbAlignedDimension
 13
5.000000000000001
 23
15.1
 33
0
 14
5.000000000000001
 24
24.3
 34
0
 50
90
100
AcDbRotatedDimension
  0
LWPOLYLINE
  5
2B3
100
AcDbEntity
  8
body
  6
ByLayer
 62
  256
370
   -1
100
AcDbPolyline
 90
    7
 70
    0
 43
0
 10
13.99999999999991
 20
1.999999999999574
 10
13.99999999999991
 20
4.999999999999574
 10
4.999999999999915
 20
4.999999999999574
 10
5.000000000000001
 20
15.1
 10
2.000000000000001
 20
15.1
 10
1.999999999999915
 20
1.999999999999574
 10
13.99999999999991
 20
1.999999999999574
  0
LWPOLYLINE
  5
2B4
100
AcDbEntity
  8
face
  6
ByLayer
 62
  256
370
   -1
100
AcDbPolyline
 90
    7
 70
    0
 43
0
 10
14.19999999999991
 20
0.2999999999995736
 10
14.19999999999991
 20
1.549999999999574
 10
1.549999999999915
 20
1.549999999999574
 10
1.550000000000001
 20
15.7
 10
0.3000000000000009
 20
15.7
 10
0.2999999999999148
 20
0.2999999999995737
 10
14.19999999999991
 20
0.2999999999995736
  0
DIMENSION
  5
2B5
100
AcDbEntity
  8
dimensions
  6
ByLayer
 62
  256
370
   -1
100
AcDbDimension
  2
*D25
 10
13
 20
14.9
 30
0
 11
9.5
 21
10.04999999999979
 31
0
 70
   32
 71
    5
  3
Standard
 53
0
210
0
220
0
230
1
100
AcDbAlignedDimension
 13
4.999999999999915
 23
4.999999999999574
 33
0
 14
5.000000000000001
 24
15.1
 34
0
 50
90
100
AcDbRotatedDimension
  0
DIMENSION
  5
2B6
100
AcDbEntity
  8
dimensions
  6
ByLayer
 62
  256
370
   -1
100
AcDbDimension
  2
*D26
 10
-4.7
 20
15
 30
0
 11
-8.200000000000001
 21
7.999999999999787
 31
0
 70
   32
 71
    5
 72
    0
  3
Standard
 53
0
210
0
220
0
230
1
100
AcDbAlignedDimension
 13
0.2999999999999148
 23
0.2999999999995737
 33
0
 14
0.3000000000000009
 24
15.7
 34
0
 50
90
100
AcDbRotatedDimension
  0
LWPOLYLINE
  5
2B7
100
AcDbEntity
  8
face
  6
ByLayer
 62
  256
370
   -1
100
AcDbPolyline
 90
    5
 70
    0
 43
0
 10
0.3000000000000015
 20
23.7
 10
1.550000000000001
 20
23.7
 10
1.55
 20
45.30000000000003
 10
0.3
 20
45.30000000000003
 10
0.3000000000000015
 20
23.7
  0
LWPOLYLINE
  5
2B8
100
AcDbEntity
  8
body
  6
ByLayer
 62
  256
370
   -1
100
AcDbPolyline
 90
    5
 70
    0
 43
0
 10
2.000000000000001
 20
24.3
 10
5.000000000000001
 20
24.3
 10
5
 20
44.70000000000001
 10
2
 20
44.70000000000001
 10
2.000000000000001
 20
24.3
  0
DIMENSION
  5
2B9
100
AcDbEntity
  8
dimensions
  6
ByLayer
 62
  256
370
   -1
100
AcDbDimension
  2
*D27
 10
13
 20
44.90000000000001
 30
0
 11
9.5
 21
34.5
 31
0
 70
   32
 71
    5
  3
Standard
 53
0
210
0
220
0
230
1
100
AcDbAlignedDimension
 13
5.000000000000001
 23
24.3
 33
0
 14
5
 24
44.70000000000001
 34
0
 50
90
100
AcDbRotatedDimension
  0
DIMENSION
  5
2BA
100
AcDbEntity
  8
dimensions
  6
ByLayer
 62
  256
370
   -1
100
AcDbDimension
  2
*D28
 10
-4.7
 20
45
 30
0
 11
-8.200000000000001
 21
34.50000000000001
 31
0
 70
   32
 71
    5
 72
    0
  3
Standard
 53
0
210
0
220
0
230
1
100
AcDbAlignedDimension
 13
0.3000000000000015
 23
23.7
 33
0
 14
0.3
 24
45.30000000000003
 34
0
 50
90
100
AcDbRotatedDimension
  0
DIMENSION
  5
2BB
100
AcDbEntity
  8
dimensions
  6
ByLayer
 62
  256
370
   -1
100
AcDbDimension
  2
*D29
 10
53.40000000000002
 20
55
 30
0
 11
48
 21
50
 31
0
 70
   32
 71
    5
 72
    0
  3
Standard
 53
0
210
0
220
0
230
1
100
AcDbAlignedDimension
 13
51.59999999999963
 23
63.99999999999982
 33
0
 14
53.40000000000005
 24
64.00000000000004
 34
0
100
AcDbRotatedDimension
  0
DIMENSION
  5
2BC
100
AcDbEntity
  8
dimensions
  6
ByLayer
 62
  256
370
   -1
100
AcDbDimension
  2
*D30
 10
67.5
 20
55
 30
0
 11
64
 21
50
 31
0
 70
   32
 71
    5
 72
    0
  3
Standard
 53
0
210
0
220
0
230
1
100
AcDbAlignedDimension
 13
62.89999999999967
 23
63.99999999999982
 33
0
 14
67.50000000000003
 24
63.99999999999994
 34
0
100
AcDbRotatedDimension
  0
DIMENSION
  5
2BD
100
AcDbEntity
  8
dimensions
  6
ByLayer
 62
  256
370
   -1
100
AcDbDimension
  2
*D31
 10
42.1
 20
55
 30
0
 11
41
 21
50
 31
0
 70
   32
 71
    5
 72
    0
  3
Standard
 53
0
210
0
220
0
230
1
100
AcDbAlignedDimension
 13
37.50000000000003
 23
63.99999999999994
 33
0
 14
42.10000000000003
 24
64.00000000000003
 34
0
100
AcDbRotatedDimension
  0
DIMENSION
  5
2BE
100
AcDbEntity
  8
dimensions
  6
ByLayer
 62
  256
370
   -1
100
AcDbDimension
  2
*D32
 10
86.40000000000003
 20
55
 30
0
 11
81
 21
50
 31
0
 70
   32
 71
    5
 72
    0
  3
Standard
 53
0
210
0
220
0
230
1
100
AcDbAlignedDimension
 13
84.59999999999965
 23
63.99999999999982
 33
0
 14
86.40000000000006
 24
64.00000000000003
 34
0
100
AcDbRotatedDimension
  0
DIMENSION
  5
2BF
100
AcDbEntity
  8
dimensions
  6
ByLayer
 62
  256
370
   -1
100
AcDbDimension
  2
*D33
 10
75.10000000000002
 20
55
 30
0
 11
74
 21
50
 31
0
 70
   32
 71
    5
 72
    0
  3
Standard
 53
0
210
0
220
0
230
1
100
AcDbAlignedDimension
 13
70.50000000000003
 23
63.99999999999994
 33
0
 14
75.10000000000005
 24
64.00000000000004
 34
0
100
AcDbRotatedDimension
  0
DIMENSION
  5
2C0
100
AcDbEntity
  8
dimensions
  6
ByLayer
 62
  256
370
   -1
100
AcDbDimension
  2
*D34
 10
100.5
 20
55
 30
0
 11
97
 21
50
 31
0
 70
   32
 71
    5
 72
    0
  3
Standard
 53
0
210
0
220
0
230
1
100
AcDbAlignedDimension
 13
95.89999999999968
 23
63.99999999999982
 33
0
 14
100.5
 24
63.99999999999994
 34
0
100
AcDbRotatedDimension
  0
DIMENSION
  5
2C1
100
AcDbEntity
  8
dimensions
  6
ByLayer
 62
  256
370
   -1
100
AcDbDimension
  2
*D35
 10
107.9
 20
55
 30
0
 11
107
 21
50
 31
0
 70
   32
 71
    5
 72
    0
  3
Standard
 53
0
210
0
220
0
230
1
100
AcDbAlignedDimension
 13
103.5
 23
63.99999999999997
 33
0
 14
107.9
 24
64.00000000000001
 34
0
100
AcDbRotatedDimension
  0
DIMENSION
  5
2C2
100
AcDbEntity
  8
dimensions
  6
ByLayer
 62
  256
370
   -1
100
AcDbDimension
  2
*D36
 10
119.1
 20
55
 30
0
 11
114
 21
50
 31
0
 70
   32
 71
    5
 72
    0
  3
Standard
 53
0
210
0
220
0
230
1
100
AcDbAlignedDimension
 13
117.3999999999996
 23
63.9999999999998
 33
0
 14
119.1
 24
64.00000000000003
 34
0
100
AcDbRotatedDimension
  0
DIMENSION
  5
2C3
100
AcDbEntity
  8
dimensions
  6
ByLayer
 62
  256
370
   -1
100
AcDbDimension
  2
*D37
 10
133
 20
55
 30
0
 11
130
 21
50
 31
0
 70
   32
 71
    5
 72
    0
  3
Standard
 53
0
210
0
220
0
230
1
100
AcDbAlignedDimension
 13
128.5999999999996
 23
63.9999999999998
 33
0
 14
133
 24
64.00000000000001
 34
0
100
AcDbRotatedDimension
  0
LWPOLYLINE
  5
2C4
100
AcDbEntity
  8
glass
  6
ByLayer
 62
  256
370
   -1
100
AcDbPolyline
 90
    4
 70
    1
 43
0
 10
146.7
 20
68.60000000000007
 10
148.6
 20
68.60000000000007
 10
148.6
 20
67.80000000000007
 10
146.7
 20
67.80000000000007
  0
LWPOLYLINE
  5
2C5
100
AcDbEntity
  8
glass
  6
ByLayer
 62
  256
370
   -1
100
AcDbPolyline
 90
    4
 70
    1
 43
0
 10
148.7
 20
68.60000000000007
 10
150.6
 20
68.60000000000007
 10
150.6
 20
67.80000000000007
 10
148.7
 20
67.80000000000007
  0
LWPOLYLINE
  5
2C6
100
AcDbEntity
  8
glass
  6
ByLayer
 62
  256
370
   -1
100
AcDbPolyline
 90
    4
 70
    1
 43
0
 10
150.7
 20
68.60000000000005
 10
152.6
 20
68.60000000000005
 10
152.6
 20
67.80000000000005
 10
150.7
 20
67.80000000000005
  0
LWPOLYLINE
  5
2C7
100
AcDbEntity
  8
glass
  6
ByLayer
 62
  256
370
   -1
100
AcDbPolyline
 90
    4
 70
    1
 43
0
 10
160.3
 20
68.60000000000009
 10
162.2
 20
68.60000000000009
 10
162.2
 20
67.8000000000001
 10
160.3
 20
67.8000000000001
  0
LWPOLYLINE
  5
2C8
100
AcDbEntity
  8
glass
  6
ByLayer
 62
  256
370
   -1
100
AcDbPolyline
 90
    4
 70
    1
 43
0
 10
162.3
 20
68.60000000000009
 10
164.2
 20
68.60000000000009
 10
164.2
 20
67.8000000000001
 10
162.3
 20
67.8000000000001
  0
LWPOLYLINE
  5
2C9
100
AcDbEntity
  8
glass
  6
ByLayer
 62
  256
370
   -1
100
AcDbPolyline
 90
    4
 70
    1
 43
0
 10
164.3
 20
68.60000000000008
 10
166.2
 20
68.60000000000008
 10
166.2
 20
67.80000000000008
 10
164.3
 20
67.80000000000008
  0
LWPOLYLINE
  5
2CA
100
AcDbEntity
  8
body
  6
ByLayer
 62
  256
370
   -1
100
AcDbPolyline
 90
    4
 70
    1
 43
0
 10
158.5
 20
64.00000000000009
 10
160.2
 20
67.00000000000009
 10
152.7
 20
67.00000000000006
 10
154.3999999999996
 20
63.99999999999983
  0
LWPOLYLINE
  5
2CB
100
AcDbEntity
  8
face
  6
ByLayer
 62
  256
370
   -1
100
AcDbPolyline
 90
    4
 70
    1
 43
0
 10
160.2
 20
67.45000000000006
 10
160.2
 20
68.70000000000009
 10
152.7
 20
68.70000000000006
 10
152.7
 20
67.45000000000003
  0
LWPOLYLINE
  5
2CC
100
AcDbEntity
  8
face
  6
ByLayer
 62
  256
370
   -1
100
AcDbPolyline
 90
    4
 70
    1
 43
0
 10
146.6
 20
67.45000000000003
 10
146.6
 20
68.70000000000006
 10
126.9
 20
68.70000000000003
 10
126.9
 20
67.45
  0
LINE
  5
2CD
100
AcDbEntity
  8
body
  6
ByLayer
 62
  256
370
   -1
100
AcDbLine
 10
146.6
 20
67.00000000000006
 11
152.7
 21
67.00000000000006
  0
LINE
  5
2CE
100
AcDbEntity
  8
body
  6
ByLayer
 62
  256
370
   -1
100
AcDbLine
 10
154.3999999999996
 20
63.99999999999983
 11
144.9
 21
64.00000000000006
  0
LINE
  5
2CF
100
AcDbEntity
  8
body
  6
ByLayer
 62
  256
370
   -1
100
AcDbLine
 10
160.2
 20
67.00000000000009
 11
166.3000000000001
 21
67.00000000000009
  0
LINE
  5
2D0
100
AcDbEntity
  8
body
  6
ByLayer
 62
  256
370
   -1
100
AcDbLine
 10
167.9999999999996
 20
63.99999999999986
 11
158.5
 21
64.00000000000009
  0
LINE
  5
2D1
100
AcDbEntity
  8
face
  6
ByLayer
 62
  256
370
   -1
100
AcDbLine
 10
146.6
 20
68.70000000000006
 11
152.7
 21
68.70000000000006
  0
LINE
  5
2D2
100
AcDbEntity
  8
face
  6
ByLayer
 62
  256
370
   -1
100
AcDbLine
 10
152.7
 20
67.45000000000003
 11
146.6
 21
67.45000000000003
  0
LINE
  5
2D3
100
AcDbEntity
  8
face
  6
ByLayer
 62
  256
370
   -1
100
AcDbLine
 10
160.2
 20
68.70000000000009
 11
166.3
 21
68.70000000000009
  0
LINE
  5
2D4
100
AcDbEntity
  8
face
  6
ByLayer
 62
  256
370
   -1
100
AcDbLine
 10
166.3
 20
67.45000000000006
 11
160.2
 21
67.45000000000006
  0
LWPOLYLINE
  5
2D5
100
AcDbEntity
  8
body
  6
ByLayer
 62
  256
370
   -1
100
AcDbPolyline
 90
    4
 70
    1
 43
0
 10
146.6
 20
67.00000000000006
 10
146.1
 20
67.00000000000006
 10
146.1
 20
67.45000000000006
 10
146.6
 20
67.45000000000006
  0
LWPOLYLINE
  5
2D6
100
AcDbEntity
  8
body
  6
ByLayer
 62
  256
370
   -1
100
AcDbPolyline
 90
    4
 70
    1
 43
0
 10
153.2
 20
67.00000000000004
 10
152.7
 20
67.00000000000004
 10
152.7
 20
67.45000000000005
 10
153.2
 20
67.45000000000005
  0
LWPOLYLINE
  5
2D7
100
AcDbEntity
  8
body
  6
ByLayer
 62
  256
370
   -1
100
AcDbPolyline
 90
    4
 70
    1
 43
0
 10
160.2
 20
67.00000000000009
 10
159.7
 20
67.00000000000009
 10
159.7
 20
67.45000000000009
 10
160.2
 20
67.45000000000009
  0
LWPOLYLINE
  5
2D8
100
AcDbEntity
  8
body
  6
ByLayer
 62
  256
370
   -1
100
AcDbPolyline
 90
    4
 70
    1
 43
0
 10
166.8
 20
67.00000000000007
 10
166.3000000000001
 20
67.00000000000007
 10
166.3000000000001
 20
67.45000000000007
 10
166.8000000000001
 20
67.45000000000007
  0
DIMENSION
  5
2D9
100
AcDbEntity
  8
dimensions
  6
ByLayer
 62
  256
370
   -1
100
AcDbDimension
  2
*D38
 10
159.7
 20
73.70000000000009
 30
0
 11
156.45
 21
77.20000000000009
 31
0
 70
   32
 71
    5
 72
    0
  3
Standard
 53
0
210
0
220
0
230
1
100
AcDbAlignedDimension
 13
152.7
 23
68.70000000000006
 33
0
 14
160.2
 24
68.70000000000009
 34
0
100
AcDbRotatedDimension
  0
DIMENSION
  5
2DA
100
AcDbEntity
  8
dimensions
  6
ByLayer
 62
  256
370
   -1
100
AcDbDimension
  2
*D39
 10
126.9
 20
73.70000000000005
 30
0
 11
136.75
 21
77.20000000000005
 31
0
 70
   32
 71
    5
 72
    0
  3
Standard
 53
0
210
0
220
0
230
1
100
AcDbAlignedDimension
 13
146.6
 23
68.70000000000006
 33
0
 14
126.9
 24
68.70000000000003
 34
0
100
AcDbRotatedDimension
  0
DIMENSION
  5
2DB
100
AcDbEntity
  8
dimensions
  6
ByLayer
 62
  256
370
   -1
100
AcDbDimension
  2
*D40
 10
152.7
 20
73.70000000000002
 30
0
 11
149.65
 21
77.20000000000002
 31
0
 70
   32
 71
    5
 72
    0
  3
Standard
 53
0
210
0
220
0
230
1
100
AcDbAlignedDimension
 13
146.6
 23
68.70000000000006
 33
0
 14
152.7
 24
68.70000000000006
 34
0
100
AcDbRotatedDimension
  0
DIMENSION
  5
2DC
100
AcDbEntity
  8
dimensions
  6
ByLayer
 62
  256
370
   -1
100
AcDbDimension
  2
*D41
 10
166.3
 20
73.70000000000002
 30
0
 11
163.25
 21
77.20000000000002
 31
0
 70
   32
 71
    5
 72
    0
  3
Standard
 53
0
210
0
220
0
230
1
100
AcDbAlignedDimension
 13
160.2
 23
68.70000000000009
 33
0
 14
166.3
 24
68.70000000000009
 34
0
100
AcDbRotatedDimension
  0
DIMENSION
  5
2DD
100
AcDbEntity
  8
dimensions
  6
ByLayer
 62
  256
370
   -1
100
AcDbDimension
  2
*D42
 10
145.1
 20
55
 30
0
 11
140.95
 21
58.5
 31
0
 70
   32
 71
    5
 72
    0
  3
Standard
 53
0
210
0
220
0
230
1
100
AcDbAlignedDimension
 13
137
 23
64.00000000000001
 33
0
 14
144.9
 24
64.00000000000006
 34
0
100
AcDbRotatedDimension
  0
DIMENSION
  5
2DE
100
AcDbEntity
  8
dimensions
  6
ByLayer
 62
  256
370
   -1
100
AcDbDimension
  2
*D43
 10
154.3999999999996
 20
55
 30
0
 11
149.6499999999998
 21
58.5
 31
0
 70
   32
 71
    5
 72
    0
  3
Standard
 53
0
210
0
220
0
230
1
100
AcDbAlignedDimension
 13
144.9
 23
64.00000000000006
 33
0
 14
154.3999999999996
 24
63.99999999999983
 34
0
100
AcDbRotatedDimension
  0
DIMENSION
  5
2DF
100
AcDbEntity
  8
dimensions
  6
ByLayer
 62
  256
370
   -1
100
AcDbDimension
  2
*D44
 10
167.9999999999996
 20
55
 30
0
 11
163.2499999999998
 21
58.5
 31
0
 70
   32
 71
    5
 72
    0
  3
Standard
 53
0
210
0
220
0
230
1
100
AcDbAlignedDimension
 13
158.5
 23
64.00000000000009
 33
0
 14
167.9999999999996
 24
63.99999999999986
 34
0
100
AcDbRotatedDimension
  0
DIMENSION
  5
2E0
100
AcDbEntity
  8
dimensions
  6
ByLayer
 62
  256
370
   -1
100
AcDbDimension
  2
*D45
 10
158.5
 20
55
 30
0
 11
156.4499999999998
 21
58.5
 31
0
 70
   32
 71
    5
 72
    0
  3
Standard
 53
0
210
0
220
0
230
1
100
AcDbAlignedDimension
 13
154.3999999999996
 23
63.99999999999984
 33
0
 14
158.5
 24
64.00000000000006
 34
0
100
AcDbRotatedDimension
  0
DIMENSION
  5
2E1
100
AcDbEntity
  8
dimensions
  6
ByLayer
 62
  256
370
   -1
100
AcDbDimension
  2
*D46
 10
165.2
 20
73.70000000000009
 30
0
 11
173.5
 21
77.20000000000009
 31
0
 70
   32
 71
    5
 72
    0
  3
Standard
 53
0
210
0
220
0
230
1
100
AcDbAlignedDimension
 13
180.7
 23
68.70000000000002
 33
0
 14
166.3
 24
68.70000000000009
 34
0
100
AcDbRotatedDimension
  0
DIMENSION
  5
2E2
100
AcDbEntity
  8
dimensions
  6
ByLayer
 62
  256
370
   -1
100
AcDbDimension
  2
*D47
 10
176.3
 20
55
 30
0
 11
171.9999999999998
 21
58.5
 31
0
 70
   32
 71
    5
 72
    0
  3
Standard
 53
0
210
0
220
0
230
1
100
AcDbAlignedDimension
 13
167.9999999999996
 23
63.99999999999986
 33
0
 14
176
 24
64.00000000000001
 34
0
100
AcDbRotatedDimension
  0
LWPOLYLINE
  5
2E3
100
AcDbEntity
  8
body
  6
ByLayer
 62
  256
370
   -1
100
AcDbPolyline
 90
   12
 70
    1
 43
0
 10
137
 20
64.00000000000001
 10
136.9999999999999
 20
4.999999999999574
 10
143.0999999999999
 20
4.999999999999144
 10
143.0999999999999
 20
1.999999999999557
 10
131.7999999999999
 20
1.999999999999574
 10
131.7999999999999
 20
4.999999999999162
 10
132.9999999999999
 20
4.999999999999574
 10
133
 20
64.00000000000001
 10
128.5999999999996
 20
63.9999999999998
 10
126.9
 20
67.00000000000003
 10
146.6
 20
67.00000000000006
 10
144.9
 20
64.00000000000006
  0
LWPOLYLINE
  5
2E4
100
AcDbEntity
  8
body
  6
ByLayer
 62
  256
370
   -1
100
AcDbPolyline
 90
    8
 70
    1
 43
0
 10
170.1999999999999
 20
4.999999999999189
 10
170.1999999999999
 20
1.999999999999573
 10
179
 20
2
 10
179
 20
67.00000000000047
 10
166.3
 20
67.00000000000009
 10
167.9999999999996
 20
63.99999999999986
 10
176
 20
64.00000000000001
 10
175.9999999999999
 20
4.999999999999574
  0
LWPOLYLINE
  5
2E5
100
AcDbEntity
  8
face
  6
ByLayer
 62
  256
370
   -1
100
AcDbPolyline
 90
    8
 70
    1
 43
0
 10
169.8999999999999
 20
0.2999999999995735
 10
169.8999999999999
 20
1.549999999999573
 10
179.45
 20
1.55
 10
179.45
 20
67.45000000000049
 10
166.3
 20
67.45000000000006
 10
166.3
 20
68.70000000000009
 10
180.7
 20
68.70000000000002
 10
180.7
 20
0.3
  0
ENDSEC
  0
SECTION
  2
OBJECTS
  0
DICTIONARY
  5
C
330
0
100
AcDbDictionary
281
    1
  3
ACAD_GROUP
350
D
  0
DICTIONARY
  5
D
330
C
100
AcDbDictionary
281
    1
  0
ENDSEC
  0
EOF
