999
dxfrw 0.6.3
  0
SECTION
  2
HEADER
  9
$ACADVER
  1
AC1021
  9
$DWGCODEPAGE
  3
ANSI_1252
  9
$INSBASE
 10
0
 20
0
 30
0
  9
$EXTMIN
 10
-18
 20
-142
 30
0
  9
$EXTMAX
 10
352
 20
75.50000000000004
 30
0
  9
$LIMMIN
 10
0
 20
0
  9
$LIMMAX
 10
420
 20
297
  9
$ORTHOMODE
 70
    0
  9
$REGENMODE
 70
    1
  9
$FILLMODE
 70
    1
  9
$QTEXTMODE
 70
    0
  9
$MIRRTEXT
 70
    0
  9
$LTSCALE
 40
1
  9
$ATTMODE
 70
    0
  9
$TEXTSIZE
 40
2.5
  9
$TRACEWID
 40
15.68
  9
$TEXTSTYLE
  7
STANDARD
  9
$CLAYER
  8
wall
  9
$CELTYPE
  6
BYLAYER
  9
$CECOLOR
 62
  256
  9
$CELTSCALE
 40
1
  9
$DISPSILH
 70
    0
  9
$DIMSCALE
 40
1
  9
$DIMASZ
 40
5
  9
$DIMEXO
 40
1
  9
$DIMDLI
 40
3.75
  9
$DIMRND
 40
0
  9
$DIMDLE
 40
0
  9
$DIMEXE
 40
2
  9
$DIMTP
 40
0
  9
$DIMTM
 40
0
  9
$DIMTXT
 40
4
  9
$DIMCEN
 40
2.5
  9
$DIMTSZ
 40
2
  9
$DIMTOL
 70
    0
  9
$DIMLIM
 70
    0
  9
$DIMTIH
 70
    0
  9
$DIMTOH
 70
    0
  9
$DIMSE1
 70
    0
  9
$DIMSE2
 70
    0
  9
$DIMTAD
 70
    1
  9
$DIMZIN
 70
    8
  9
$DIMBLK
  1

  9
$DIMASO
 70
    1
  9
$DIMSHO
 70
    1
  9
$DIMPOST
  1

  9
$DIMAPOST
  1

  9
$DIMALT
 70
    0
  9
$DIMALTD
 70
    3
  9
$DIMALTF
 40
0.03937
  9
$DIMLFAC
 40
10
  9
$DIMTOFL
 70
    1
  9
$DIMTVP
 40
0
  9
$DIMTIX
 70
    0
  9
$DIMSOXD
 70
    0
  9
$DIMSAH
 70
    0
  9
$DIMBLK1
  1

  9
$DIMBLK2
  1

  9
$DIMSTYLE
  2
STANDARD
  9
$DIMCLRD
 70
    0
  9
$DIMCLRE
 70
    0
  9
$DIMCLRT
 70
    0
  9
$DIMTFAC
 40
1
  9
$DIMGAP
 40
2
  9
$DIMJUST
 70
    0
  9
$DIMSD1
 70
    0
  9
$DIMSD2
 70
    0
  9
$DIMTOLJ
 70
    0
  9
$DIMTZIN
 70
    8
  9
$DIMALTZ
 70
    0
  9
$DIMALTTZ
 70
    0
  9
$DIMUPT
 70
    0
  9
$DIMDEC
 70
    1
  9
$DIMTDEC
 70
    2
  9
$DIMALTU
 70
    2
  9
$DIMALTTD
 70
    3
  9
$DIMTXSTY
  7
standard
  9
$DIMAUNIT
 70
    0
  9
$DIMADEC
 70
    0
  9
$DIMALTRND
 40
0
  9
$DIMAZIN
 70
    0
  9
$DIMDSEP
 70
   44
  9
$DIMATFIT
 70
    3
  9
$DIMFRAC
 70
    0
  9
$DIMLDRBLK
  1
STANDARD
  9
$DIMLUNIT
 70
    2
  9
$DIMLWD
 70
   -2
  9
$DIMLWE
 70
   -2
  9
$DIMTMOVE
 70
    0
  9
$DIMFXL
 40
1
  9
$DIMFXLON
 70
    0
  9
$DIMJOGANG
 40
0.7854
  9
$DIMTFILL
 70
    0
  9
$DIMTFILLCLR
 70
    0
  9
$DIMARCSYM
 70
    0
  9
$DIMLTYPE
  6

  9
$DIMLTEX1
  6

  9
$DIMLTEX2
  6

  9
$LUNITS
 70
    2
  9
$LUPREC
 70
    2
  9
$SKETCHINC
 40
1
  9
$FILLETRAD
 40
0
  9
$AUNITS
 70
    0
  9
$AUPREC
 70
    2
  9
$MENU
  1
.
  9
$ELEVATION
 40
0
  9
$PELEVATION
 40
0
  9
$THICKNESS
 40
0
  9
$LIMCHECK
 70
    0
  9
$CHAMFERA
 40
0
  9
$CHAMFERB
 40
0
  9
$CHAMFERC
 40
0
  9
$CHAMFERD
 40
0
  9
$SKPOLY
 70
    0
  9
$USRTIMER
 70
    1
  9
$ANGBASE
 50
0
  9
$ANGDIR
 70
    0
  9
$PDMODE
 70
   34
  9
$PDSIZE
 40
0
  9
$PLINEWID
 40
0
  9
$SPLFRAME
 70
    0
  9
$SPLINETYPE
 70
    2
  9
$SPLINESEGS
 70
    8
  9
$HANDSEED
  5
20000
  9
$SURFTAB1
 70
    6
  9
$SURFTAB2
 70
    6
  9
$SURFTYPE
 70
    6
  9
$SURFU
 70
    6
  9
$SURFV
 70
    6
  9
$UCSBASE
  2

  9
$UCSNAME
  2

  9
$UCSORG
 10
0
 20
0
 30
0
  9
$UCSXDIR
 10
1
 20
0
 30
0
  9
$UCSYDIR
 10
0
 20
1
 30
0
  9
$UCSORTHOREF
  2

  9
$UCSORTHOVIEW
 70
    0
  9
$UCSORGTOP
 10
0
 20
0
 30
0
  9
$UCSORGBOTTOM
 10
0
 20
0
 30
0
  9
$UCSORGLEFT
 10
0
 20
0
 30
0
  9
$UCSORGRIGHT
 10
0
 20
0
 30
0
  9
$UCSORGFRONT
 10
0
 20
0
 30
0
  9
$UCSORGBACK
 10
0
 20
0
 30
0
  9
$PUCSBASE
  2

  9
$PUCSNAME
  2

  9
$PUCSORG
 10
0
 20
0
 30
0
  9
$PUCSXDIR
 10
1
 20
0
 30
0
  9
$PUCSYDIR
 10
0
 20
1
 30
0
  9
$PUCSORTHOREF
  2

  9
$PUCSORTHOVIEW
 70
    0
  9
$PUCSORGTOP
 10
0
 20
0
 30
0
  9
$PUCSORGBOTTOM
 10
0
 20
0
 30
0
  9
$PUCSORGLEFT
 10
0
 20
0
 30
0
  9
$PUCSORGRIGHT
 10
0
 20
0
 30
0
  9
$PUCSORGFRONT
 10
0
 20
0
 30
0
  9
$PUCSORGBACK
 10
0
 20
0
 30
0
  9
$USERI1
 70
    0
  9
$USERI2
 70
    0
  9
$USERI3
 70
    0
  9
$USERI4
 70
    0
  9
$USERI5
 70
    0
  9
$USERR1
 40
0
  9
$USERR2
 40
0
  9
$USERR3
 40
0
  9
$USERR4
 40
0
  9
$USERR5
 40
0
  9
$WORLDVIEW
 70
    1
  9
$SHADEDGE
 70
    3
  9
$SHADEDIF
 70
   70
  9
$TILEMODE
 70
    1
  9
$MAXACTVP
 70
   64
  9
$PINSBASE
 10
2.573243243243243
 20
12.94432432432432
 30
0
  9
$PLIMCHECK
 70
    0
  9
$PEXTMIN
 10
0
 20
0
 30
0
  9
$PEXTMAX
 10
0
 20
0
 30
0
  9
$GRIDMODE
 70
    1
  9
$SNAPSTYLE
 70
    0
  9
$GRIDUNIT
 10
0
 20
0
  9
$PLIMMIN
 10
0
 20
0
  9
$PLIMMAX
 10
29.7
 20
21
  9
$UNITMODE
 70
    0
  9
$VISRETAIN
 70
    1
  9
$PLINEGEN
 70
    0
  9
$PSLTSCALE
 70
    1
  9
$TREEDEPTH
 70
 3020
  9
$CMLSTYLE
  2
Standard
  9
$CMLJUST
 70
    0
  9
$CMLSCALE
 40
20
  9
$PROXYGRAPHICS
 70
    1
  9
$MEASUREMENT
 70
    1
  9
$CELWEIGHT
370
   -1
  9
$ENDCAPS
280
    0
  9
$JOINSTYLE
280
    0
  9
$LWDISPLAY
290
    0
  9
$INSUNITS
 70
    5
  9
$HYPERLINKBASE
  1

  9
$STYLESHEET
  1

  9
$XEDIT
290
    1
  9
$CEPSNTYPE
380
    0
  9
$PSTYLEMODE
290
    1
  9
$EXTNAMES
290
    1
  9
$PSVPSCALE
 40
0.07351373604157938
  9
$OLESTARTUP
290
    0
  9
$SORTENTS
280
  127
  9
$INDEXCTL
280
    0
  9
$HIDETEXT
280
    1
  9
$XCLIPFRAME
290
    0
  9
$HALOGAP
280
    0
  9
$OBSCOLOR
 70
  257
  9
$OBSLTYPE
280
    0
  9
$INTERSECTIONDISPLAY
280
    0
  9
$INTERSECTIONCOLOR
 70
  257
  9
$DIMASSOC
280
    1
  9
$PROJECTNAME
  1

  9
$CAMERADISPLAY
290
    0
  9
$LENSLENGTH
 40
50
  9
$CAMERAHEIGHT
 40
0
  9
$STEPSPERSEC
 40
2
  9
$STEPSIZE
 40
50
  9
$3DDWFPREC
 40
2
  9
$PSOLWIDTH
 40
5
  9
$PSOLHEIGHT
 40
80
  9
$LOFTANG1
 40
1.570796326794897
  9
$LOFTANG2
 40
1.570796326794897
  9
$LOFTMAG1
 40
0
  9
$LOFTMAG2
 40
0
  9
$LOFTPARAM
 70
    7
  9
$LOFTNORMALS
280
    1
  9
$LATITUDE
 40
1
  9
$LONGITUDE
 40
1
  9
$NORTHDIRECTION
 40
0
  9
$TIMEZONE
 70
-8000
  9
$LIGHTGLYPHDISPLAY
280
    1
  9
$TILEMODELIGHTSYNCH
280
    1
  9
$SOLIDHIST
280
    1
  9
$SHOWHIST
280
    1
  9
$DWFFRAME
280
    2
  9
$DGNFRAME
280
    0
  9
$REALWORLDSCALE
290
    1
  9
$INTERFERECOLOR
 62
    1
  9
$CSHADOW
280
    0
  9
$SHADOWPLANELOCATION
 40
0
  0
ENDSEC
  0
SECTION
  2
CLASSES
  0
ENDSEC
  0
SECTION
  2
TABLES
  0
TABLE
  2
VPORT
  5
8
330
0
100
AcDbSymbolTable
 70
    1
  0
VPORT
  5
31
330
2
100
AcDbSymbolTableRecord
100
AcDbViewportTableRecord
  2
*ACTIVE
 70
    0
 10
0
 20
0
 11
1
 21
1
 12
184.3571428571429
 22
39.97857142857143
 13
0
 23
0
 14
10
 24
10
 15
10
 25
10
 16
0
 26
0
 36
1
 17
0
 27
0
 37
0
 40
225.7857142857143
 41
1.78348623853211
 42
50
 43
0
 44
0
 50
0
 51
0
 71
    0
 72
  100
 73
    1
 74
    3
 75
    0
 76
    1
 77
    0
 78
    0
281
    0
 65
    1
110
0
120
0
130
0
111
1
121
0
131
0
112
0
122
1
132
0
 79
    0
146
0
348
10020
 60
    7
 61
    5
292
1
282
    1
141
0
142
0
 63
  250
421
3358443
  0
ENDTAB
  0
TABLE
  2
LTYPE
  5
5
330
0
100
AcDbSymbolTable
 70
    4
  0
LTYPE
  5
14
330
5
100
AcDbSymbolTableRecord
100
AcDbLinetypeTableRecord
  2
ByBlock
 70
    0
  3

 72
   65
 73
    0
 40
0
  0
LTYPE
  5
15
330
5
100
AcDbSymbolTableRecord
100
AcDbLinetypeTableRecord
  2
ByLayer
 70
    0
  3

 72
   65
 73
    0
 40
0
  0
LTYPE
  5
16
330
5
100
AcDbSymbolTableRecord
100
AcDbLinetypeTableRecord
  2
Continuous
 70
    0
  3
Solid line
 72
   65
 73
    0
 40
0
  0
LTYPE
  5
32
330
5
100
AcDbSymbolTableRecord
100
AcDbLinetypeTableRecord
  2
DOT
 70
    0
  3
Dot . . . . . . . . . . . . . . . . . . . . . .
 72
   65
 73
    2
 40
6.35
 49
0
 74
    0
 49
-6.35
 74
    0
  0
LTYPE
  5
33
330
5
100
AcDbSymbolTableRecord
100
AcDbLinetypeTableRecord
  2
DOTTINY
 70
    0
  3
Dot (.15x) .....................................
 72
   65
 73
    2
 40
0.9525
 49
0
 74
    0
 49
-0.9525
 74
    0
  0
LTYPE
  5
34
330
5
100
AcDbSymbolTableRecord
100
AcDbLinetypeTableRecord
  2
DOT2
 70
    0
  3
Dot (.5x) .....................................
 72
   65
 73
    2
 40
3.175
 49
0
 74
    0
 49
-3.175
 74
    0
  0
LTYPE
  5
35
330
5
100
AcDbSymbolTableRecord
100
AcDbLinetypeTableRecord
  2
DOTX2
 70
    0
  3
Dot (2x) .  .  .  .  .  .  .  .  .  .  .  .  .
 72
   65
 73
    2
 40
12.7
 49
0
 74
    0
 49
-12.7
 74
    0
  0
LTYPE
  5
36
330
5
100
AcDbSymbolTableRecord
100
AcDbLinetypeTableRecord
  2
DASHED
 70
    0
  3
Dashed _ _ _ _ _ _ _ _ _ _ _ _ _ _ _ _ _
 72
   65
 73
    2
 40
19.05
 49
12.7
 74
    0
 49
-6.35
 74
    0
  0
LTYPE
  5
37
330
5
100
AcDbSymbolTableRecord
100
AcDbLinetypeTableRecord
  2
DASHEDTINY
 70
    0
  3
Dashed (.15x) _ _ _ _ _ _ _ _ _ _ _ _ _ _ _ _ _
 72
   65
 73
    2
 40
2.8575
 49
1.905
 74
    0
 49
-0.9525
 74
    0
  0
LTYPE
  5
38
330
5
100
AcDbSymbolTableRecord
100
AcDbLinetypeTableRecord
  2
DASHED2
 70
    0
  3
Dashed (.5x) _ _ _ _ _ _ _ _ _ _ _ _ _ _ _ _ _
 72
   65
 73
    2
 40
9.524999999999999
 49
6.35
 74
    0
 49
-3.175
 74
    0
  0
LTYPE
  5
39
330
5
100
AcDbSymbolTableRecord
100
AcDbLinetypeTableRecord
  2
DASHEDX2
 70
    0
  3
Dashed (2x) ____  ____  ____  ____  ____  ___
 72
   65
 73
    2
 40
38.09999999999999
 49
25.4
 74
    0
 49
-12.7
 74
    0
  0
LTYPE
  5
3A
330
5
100
AcDbSymbolTableRecord
100
AcDbLinetypeTableRecord
  2
DASHDOT
 70
    0
  3
Dash dot __ . __ . __ . __ . __ . __ . __ . __
 72
   65
 73
    4
 40
25.4
 49
12.7
 74
    0
 49
-6.35
 74
    0
 49
0
 74
    0
 49
-6.35
 74
    0
  0
LTYPE
  5
3B
330
5
100
AcDbSymbolTableRecord
100
AcDbLinetypeTableRecord
  2
DASHDOTTINY
 70
    0
  3
Dash dot (.15x) _._._._._._._._._._._._._._._.
 72
   65
 73
    4
 40
3.81
 49
1.905
 74
    0
 49
-0.9525
 74
    0
 49
0
 74
    0
 49
-0.9525
 74
    0
  0
LTYPE
  5
3C
330
5
100
AcDbSymbolTableRecord
100
AcDbLinetypeTableRecord
  2
DASHDOT2
 70
    0
  3
Dash dot (.5x) _._._._._._._._._._._._._._._.
 72
   65
 73
    4
 40
12.7
 49
6.35
 74
    0
 49
-3.175
 74
    0
 49
0
 74
    0
 49
-3.175
 74
    0
  0
LTYPE
  5
3D
330
5
100
AcDbSymbolTableRecord
100
AcDbLinetypeTableRecord
  2
DASHDOTX2
 70
    0
  3
Dash dot (2x) ____  .  ____  .  ____  .  ___
 72
   65
 73
    4
 40
50.8
 49
25.4
 74
    0
 49
-12.7
 74
    0
 49
0
 74
    0
 49
-12.7
 74
    0
  0
LTYPE
  5
3E
330
5
100
AcDbSymbolTableRecord
100
AcDbLinetypeTableRecord
  2
DIVIDE
 70
    0
  3
Divide ____ . . ____ . . ____ . . ____ . . ____
 72
   65
 73
    6
 40
31.75
 49
12.7
 74
    0
 49
-6.35
 74
    0
 49
0
 74
    0
 49
-6.35
 74
    0
 49
0
 74
    0
 49
-6.35
 74
    0
  0
LTYPE
  5
3F
330
5
100
AcDbSymbolTableRecord
100
AcDbLinetypeTableRecord
  2
DIVIDETINY
 70
    0
  3
Divide (.15x) __..__..__..__..__..__..__..__.._
 72
   65
 73
    6
 40
4.7625
 49
1.905
 74
    0
 49
-0.9525
 74
    0
 49
0
 74
    0
 49
-0.9525
 74
    0
 49
0
 74
    0
 49
-0.9525
 74
    0
  0
LTYPE
  5
40
330
5
100
AcDbSymbolTableRecord
100
AcDbLinetypeTableRecord
  2
DIVIDE2
 70
    0
  3
Divide (.5x) __..__..__..__..__..__..__..__.._
 72
   65
 73
    6
 40
15.875
 49
6.35
 74
    0
 49
-3.175
 74
    0
 49
0
 74
    0
 49
-3.175
 74
    0
 49
0
 74
    0
 49
-3.175
 74
    0
  0
LTYPE
  5
41
330
5
100
AcDbSymbolTableRecord
100
AcDbLinetypeTableRecord
  2
DIVIDEX2
 70
    0
  3
Divide (2x) ________  .  .  ________  .  .  _
 72
   65
 73
    6
 40
63.5
 49
25.4
 74
    0
 49
-12.7
 74
    0
 49
0
 74
    0
 49
-12.7
 74
    0
 49
0
 74
    0
 49
-12.7
 74
    0
  0
LTYPE
  5
42
330
5
100
AcDbSymbolTableRecord
100
AcDbLinetypeTableRecord
  2
BORDER
 70
    0
  3
Border __ __ . __ __ . __ __ . __ __ . __ __ .
 72
   65
 73
    6
 40
44.45
 49
12.7
 74
    0
 49
-6.35
 74
    0
 49
12.7
 74
    0
 49
-6.35
 74
    0
 49
0
 74
    0
 49
-6.35
 74
    0
  0
LTYPE
  5
43
330
5
100
AcDbSymbolTableRecord
100
AcDbLinetypeTableRecord
  2
BORDERTINY
 70
    0
  3
Border (.15x) __.__.__.__.__.__.__.__.__.__.__.
 72
   65
 73
    6
 40
6.6675
 49
1.905
 74
    0
 49
-0.9525
 74
    0
 49
1.905
 74
    0
 49
-0.9525
 74
    0
 49
0
 74
    0
 49
-0.9525
 74
    0
  0
LTYPE
  5
44
330
5
100
AcDbSymbolTableRecord
100
AcDbLinetypeTableRecord
  2
BORDER2
 70
    0
  3
Border (.5x) __.__.__.__.__.__.__.__.__.__.__.
 72
   65
 73
    6
 40
22.225
 49
6.35
 74
    0
 49
-3.175
 74
    0
 49
6.35
 74
    0
 49
-3.175
 74
    0
 49
0
 74
    0
 49
-3.175
 74
    0
  0
LTYPE
  5
45
330
5
100
AcDbSymbolTableRecord
100
AcDbLinetypeTableRecord
  2
BORDERX2
 70
    0
  3
Border (2x) ____  ____  .  ____  ____  .  ___
 72
   65
 73
    6
 40
88.89999999999999
 49
25.4
 74
    0
 49
-12.7
 74
    0
 49
25.4
 74
    0
 49
-12.7
 74
    0
 49
0
 74
    0
 49
-12.7
 74
    0
  0
LTYPE
  5
46
330
5
100
AcDbSymbolTableRecord
100
AcDbLinetypeTableRecord
  2
CENTER
 70
    0
  3
Center ____ _ ____ _ ____ _ ____ _ ____ _ ____
 72
   65
 73
    4
 40
50.8
 49
31.75
 74
    0
 49
-6.35
 74
    0
 49
6.35
 74
    0
 49
-6.35
 74
    0
  0
LTYPE
  5
47
330
5
100
AcDbSymbolTableRecord
100
AcDbLinetypeTableRecord
  2
CENTERTINY
 70
    0
  3
Center (.15x) ___ _ ___ _ ___ _ ___ _ ___ _ ___
 72
   65
 73
    4
 40
7.619999999999999
 49
4.7625
 74
    0
 49
-0.9525
 74
    0
 49
0.9525
 74
    0
 49
-0.9525
 74
    0
  0
LTYPE
  5
48
330
5
100
AcDbSymbolTableRecord
100
AcDbLinetypeTableRecord
  2
CENTER2
 70
    0
  3
Center (.5x) ___ _ ___ _ ___ _ ___ _ ___ _ ___
 72
   65
 73
    4
 40
28.575
 49
19.05
 74
    0
 49
-3.175
 74
    0
 49
3.175
 74
    0
 49
-3.175
 74
    0
  0
LTYPE
  5
49
330
5
100
AcDbSymbolTableRecord
100
AcDbLinetypeTableRecord
  2
CENTERX2
 70
    0
  3
Center (2x) ________  __  ________  __  _____
 72
   65
 73
    4
 40
101.6
 49
63.5
 74
    0
 49
-12.7
 74
    0
 49
12.7
 74
    0
 49
-12.7
 74
    0
  0
ENDTAB
  0
TABLE
  2
LAYER
  5
2
330
0
100
AcDbSymbolTable
 70
    1
  0
LAYER
  5
10
330
2
100
AcDbSymbolTableRecord
100
AcDbLayerTableRecord
  2
0
 70
    1
 62
    7
  6
CONTINUOUS
370
   -3
390
F
1001
LibreCad
1070
    1
  0
LAYER
  5
4A
330
2
100
AcDbSymbolTableRecord
100
AcDbLayerTableRecord
  2
base
 70
    0
 62
  136
420
32896
  6
CONTINUOUS
370
   50
390
F
  0
LAYER
  5
4B
330
2
100
AcDbSymbolTableRecord
100
AcDbLayerTableRecord
  2
dah
 70
    0
 62
   16
420
8388608
  6
CONTINUOUS
370
   50
390
F
  0
LAYER
  5
4C
330
2
100
AcDbSymbolTableRecord
100
AcDbLayerTableRecord
  2
dimensions
 70
    0
 62
    4
  6
CONTINUOUS
370
   13
390
F
  0
LAYER
  5
4D
330
2
100
AcDbSymbolTableRecord
100
AcDbLayerTableRecord
  2
ground
 70
    0
 62
   96
420
32768
  6
CONTINUOUS
370
   50
390
F
  0
LAYER
  5
4E
330
2
100
AcDbSymbolTableRecord
100
AcDbLayerTableRecord
  2
wall
 70
    0
 62
   56
420
8421376
  6
CONTINUOUS
370
   50
390
F
  0
LAYER
  5
4F
330
2
100
AcDbSymbolTableRecord
100
AcDbLayerTableRecord
  2
windoors
 70
    0
 62
    3
  6
CONTINUOUS
370
   50
390
F
  0
ENDTAB
  0
TABLE
  2
STYLE
  5
3
330
0
100
AcDbSymbolTable
 70
    3
  0
STYLE
  5
50
330
2
100
AcDbSymbolTableRecord
100
AcDbTextStyleTableRecord
  2
Standard
 70
    0
 40
0
 41
1
 50
0
 71
    0
 42
1
  3
txt
  4

  0
ENDTAB
  0
TABLE
  2
VIEW
  5
6
330
0
100
AcDbSymbolTable
 70
    0
  0
ENDTAB
  0
TABLE
  2
UCS
  5
7
330
0
100
AcDbSymbolTable
 70
    0
  0
ENDTAB
  0
TABLE
  2
APPID
  5
9
330
0
100
AcDbSymbolTable
 70
    1
  0
APPID
  5
12
330
9
100
AcDbSymbolTableRecord
100
AcDbRegAppTableRecord
  2
ACAD
 70
    0
  0
APPID
  5
51
330
9
100
AcDbSymbolTableRecord
100
AcDbRegAppTableRecord
  2
LibreCad
 70
    0
  0
ENDTAB
  0
TABLE
  2
DIMSTYLE
  5
A
330
0
100
AcDbSymbolTable
 70
    1
100
AcDbDimStyleTable
 71
    1
  0
DIMSTYLE
105
52
330
A
100
AcDbSymbolTableRecord
100
AcDbDimStyleTableRecord
  2
Standard
 70
    0
 40
1
 41
5
 42
1
 43
0.38
 44
2
 45
0
 46
0
 47
0
 48
0
 49
1
140
4
141
0.09
142
2
143
25.4
144
10
145
0
146
1
147
2
148
0
 71
    0
 72
    0
 73
    0
 74
    1
 75
    0
 76
    0
 77
    0
 78
    8
 79
    0
170
    0
171
    2
172
    0
173
    0
174
    0
175
    0
176
    0
177
    0
178
    0
179
    0
271
    1
272
    4
273
    2
274
    2
275
    0
276
    0
277
    2
278
   44
279
    0
280
    0
281
    0
282
    0
283
    1
284
    0
285
    0
286
    0
288
    0
289
    3
340
standard
341

371
   -2
372
   -2
  0
ENDTAB
  0
TABLE
  2
BLOCK_RECORD
  5
1
330
0
100
AcDbSymbolTable
 70
    2
  0
BLOCK_RECORD
  5
1F
330
1
100
AcDbSymbolTableRecord
100
AcDbBlockTableRecord
  2
*Model_Space
 70
    0
280
    1
281
    0
  0
BLOCK_RECORD
  5
1E
330
1
100
AcDbSymbolTableRecord
100
AcDbBlockTableRecord
  2
*Paper_Space
 70
    0
280
    1
281
    0
  0
BLOCK_RECORD
  5
53
330
1
100
AcDbSymbolTableRecord
100
AcDbBlockTableRecord
  2
*D1
 70
    0
280
    1
281
    0
  0
BLOCK_RECORD
  5
56
330
1
100
AcDbSymbolTableRecord
100
AcDbBlockTableRecord
  2
*D18
 70
    0
280
    1
281
    0
  0
BLOCK_RECORD
  5
59
330
1
100
AcDbSymbolTableRecord
100
AcDbBlockTableRecord
  2
*D24
 70
    0
280
    1
281
    0
  0
BLOCK_RECORD
  5
5C
330
1
100
AcDbSymbolTableRecord
100
AcDbBlockTableRecord
  2
*D34
 70
    0
280
    1
281
    0
  0
BLOCK_RECORD
  5
5F
330
1
100
AcDbSymbolTableRecord
100
AcDbBlockTableRecord
  2
*D7
 70
    0
280
    1
281
    0
  0
BLOCK_RECORD
  5
62
330
1
100
AcDbSymbolTableRecord
100
AcDbBlockTableRecord
  2
*D27
 70
    0
280
    1
281
    0
  0
BLOCK_RECORD
  5
65
330
1
100
AcDbSymbolTableRecord
100
AcDbBlockTableRecord
  2
*D32
 70
    0
280
    1
281
    0
  0
BLOCK_RECORD
  5
68
330
1
100
AcDbSymbolTableRecord
100
AcDbBlockTableRecord
  2
*D5
 70
    0
280
    1
281
    0
  0
BLOCK_RECORD
  5
6B
330
1
100
AcDbSymbolTableRecord
100
AcDbBlockTableRecord
  2
*D19
 70
    0
280
    1
281
    0
  0
BLOCK_RECORD
  5
6E
330
1
100
AcDbSymbolTableRecord
100
AcDbBlockTableRecord
  2
*D9
 70
    0
280
    1
281
    0
  0
BLOCK_RECORD
  5
71
330
1
100
AcDbSymbolTableRecord
100
AcDbBlockTableRecord
  2
*D17
 70
    0
280
    1
281
    0
  0
BLOCK_RECORD
  5
74
330
1
100
AcDbSymbolTableRecord
100
AcDbBlockTableRecord
  2
*D6
 70
    0
280
    1
281
    0
  0
BLOCK_RECORD
  5
77
330
1
100
AcDbSymbolTableRecord
100
AcDbBlockTableRecord
  2
*D8
 70
    0
280
    1
281
    0
  0
BLOCK_RECORD
  5
7A
330
1
100
AcDbSymbolTableRecord
100
AcDbBlockTableRecord
  2
*D14
 70
    0
280
    1
281
    0
  0
BLOCK_RECORD
  5
7D
330
1
100
AcDbSymbolTableRecord
100
AcDbBlockTableRecord
  2
*D11
 70
    0
280
    1
281
    0
  0
BLOCK_RECORD
  5
80
330
1
100
AcDbSymbolTableRecord
100
AcDbBlockTableRecord
  2
*D21
 70
    0
280
    1
281
    0
  0
BLOCK_RECORD
  5
83
330
1
100
AcDbSymbolTableRecord
100
AcDbBlockTableRecord
  2
*D3
 70
    0
280
    1
281
    0
  0
BLOCK_RECORD
  5
86
330
1
100
AcDbSymbolTableRecord
100
AcDbBlockTableRecord
  2
*D23
 70
    0
280
    1
281
    0
  0
BLOCK_RECORD
  5
89
330
1
100
AcDbSymbolTableRecord
100
AcDbBlockTableRecord
  2
*D4
 70
    0
280
    1
281
    0
  0
BLOCK_RECORD
  5
8C
330
1
100
AcDbSymbolTableRecord
100
AcDbBlockTableRecord
  2
*D15
 70
    0
280
    1
281
    0
  0
BLOCK_RECORD
  5
8F
330
1
100
AcDbSymbolTableRecord
100
AcDbBlockTableRecord
  2
*D25
 70
    0
280
    1
281
    0
  0
BLOCK_RECORD
  5
92
330
1
100
AcDbSymbolTableRecord
100
AcDbBlockTableRecord
  2
*D30
 70
    0
280
    1
281
    0
  0
BLOCK_RECORD
  5
95
330
1
100
AcDbSymbolTableRecord
100
AcDbBlockTableRecord
  2
*D20
 70
    0
280
    1
281
    0
  0
BLOCK_RECORD
  5
98
330
1
100
AcDbSymbolTableRecord
100
AcDbBlockTableRecord
  2
*D12
 70
    0
280
    1
281
    0
  0
BLOCK_RECORD
  5
9B
330
1
100
AcDbSymbolTableRecord
100
AcDbBlockTableRecord
  2
*D13
 70
    0
280
    1
281
    0
  0
BLOCK_RECORD
  5
9E
330
1
100
AcDbSymbolTableRecord
100
AcDbBlockTableRecord
  2
*D31
 70
    0
280
    1
281
    0
  0
BLOCK_RECORD
  5
A1
330
1
100
AcDbSymbolTableRecord
100
AcDbBlockTableRecord
  2
*D16
 70
    0
280
    1
281
    0
  0
BLOCK_RECORD
  5
A4
330
1
100
AcDbSymbolTableRecord
100
AcDbBlockTableRecord
  2
*D26
 70
    0
280
    1
281
    0
  0
BLOCK_RECORD
  5
A7
330
1
100
AcDbSymbolTableRecord
100
AcDbBlockTableRecord
  2
*D22
 70
    0
280
    1
281
    0
  0
BLOCK_RECORD
  5
AA
330
1
100
AcDbSymbolTableRecord
100
AcDbBlockTableRecord
  2
*D29
 70
    0
280
    1
281
    0
  0
BLOCK_RECORD
  5
AD
330
1
100
AcDbSymbolTableRecord
100
AcDbBlockTableRecord
  2
*D28
 70
    0
280
    1
281
    0
  0
BLOCK_RECORD
  5
B0
330
1
100
AcDbSymbolTableRecord
100
AcDbBlockTableRecord
  2
*D10
 70
    0
280
    1
281
    0
  0
BLOCK_RECORD
  5
B3
330
1
100
AcDbSymbolTableRecord
100
AcDbBlockTableRecord
  2
*D2
 70
    0
280
    1
281
    0
  0
BLOCK_RECORD
  5
B6
330
1
100
AcDbSymbolTableRecord
100
AcDbBlockTableRecord
  2
*D33
 70
    0
280
    1
281
    0
  0
ENDTAB
  0
ENDSEC
  0
SECTION
  2
BLOCKS
  0
BLOCK
  5
20
330
1F
100
AcDbEntity
  8
0
100
AcDbBlockBegin
  2
*Model_Space
 70
    0
 10
0
 20
0
 30
0
  3
*Model_Space
  1

  0
ENDBLK
  5
21
330
1F
100
AcDbEntity
  8
0
100
AcDbBlockEnd
  0
BLOCK
  5
1C
330
1B
100
AcDbEntity
  8
0
100
AcDbBlockBegin
  2
*Paper_Space
 70
    0
 10
0
 20
0
 30
0
  3
*Paper_Space
  1

  0
ENDBLK
  5
1D
330
1F
100
AcDbEntity
  8
0
100
AcDbBlockEnd
  0
BLOCK
  5
54
330
53
100
AcDbEntity
  8
0
100
AcDbBlockBegin
  2
*D1
 70
    1
 10
0
 20
0
  3
*D1
  1

  0
LINE
  5
B9
100
AcDbEntity
  8
dimensions
  6
ByBlock
 62
    0
370
   -2
100
AcDbLine
 10
4.5
 20
-9.999999999999995
 11
34.5
 21
-9.999999999999998
  0
LINE
  5
BA
100
AcDbEntity
  8
dimensions
  6
ByBlock
 62
    0
370
   -2
100
AcDbLine
 10
13.0857864376269
 20
-11.41421356237309
 11
15.9142135623731
 21
-8.585786437626901
  0
LINE
  5
BB
100
AcDbEntity
  8
dimensions
  6
ByBlock
 62
    0
370
   -2
100
AcDbLine
 10
23.0857864376269
 20
-11.41421356237309
 11
25.9142135623731
 21
-8.585786437626901
  0
MTEXT
  5
BC
100
AcDbEntity
  8
dimensions
  6
CONTINUOUS
 62
    0
370
   -2
100
AcDbMText
 10
19.5
 20
-5.999999999999996
 30
0
 40
4
 41
7.111111111111111
 71
    5
 72
    1
  1
100
  7
standard
210
0
220
0
230
1
 50
0
 73
    2
 44
1
  0
LINE
  5
BD
100
AcDbEntity
  8
dimensions
  6
ByBlock
 62
    0
370
   -2
100
AcDbLine
 10
14.5
 20
2.000000000000004
 11
14.5
 21
-12
  0
LINE
  5
BE
100
AcDbEntity
  8
dimensions
  6
ByBlock
 62
    0
370
   -2
100
AcDbLine
 10
24.5
 20
2.000000000000004
 11
24.5
 21
-12
  0
ENDBLK
  5
55
330
53
100
AcDbEntity
  8
0
100
AcDbBlockEnd
  0
BLOCK
  5
57
330
56
100
AcDbEntity
  8
0
100
AcDbBlockBegin
  2
*D18
 70
    1
 10
0
 20
0
  3
*D18
  1

  0
LINE
  5
BF
100
AcDbEntity
  8
dimensions
  6
ByBlock
 62
    0
370
   -2
100
AcDbLine
 10
24.5
 20
-10
 11
47.50000000000027
 21
-10
  0
LINE
  5
C0
100
AcDbEntity
  8
dimensions
  6
ByBlock
 62
    0
370
   -2
100
AcDbLine
 10
25.9142135623731
 20
-8.585786437626904
 11
23.08578643762691
 21
-11.4142135623731
  0
LINE
  5
C1
100
AcDbEntity
  8
dimensions
  6
ByBlock
 62
    0
370
   -2
100
AcDbLine
 10
48.91421356237336
 20
-8.585786437626904
 11
46.08578643762718
 21
-11.4142135623731
  0
MTEXT
  5
C2
100
AcDbEntity
  8
dimensions
  6
CONTINUOUS
 62
    0
370
   -2
100
AcDbMText
 10
36.00000000000014
 20
-6
 30
0
 40
4
 41
8.000000000000249
 71
    5
 72
    1
  1
230
  7
standard
210
0
220
0
230
1
 50
0
 73
    2
 44
1
  0
LINE
  5
C3
100
AcDbEntity
  8
dimensions
  6
ByBlock
 62
    0
370
   -2
100
AcDbLine
 10
24.5
 20
2.000000000000004
 11
24.5
 21
-12
  0
LINE
  5
C4
100
AcDbEntity
  8
dimensions
  6
ByBlock
 62
    0
370
   -2
100
AcDbLine
 10
47.50000000000027
 20
2.000000000000006
 11
47.50000000000027
 21
-12
  0
ENDBLK
  5
58
330
56
100
AcDbEntity
  8
0
100
AcDbBlockEnd
  0
BLOCK
  5
5A
330
59
100
AcDbEntity
  8
0
100
AcDbBlockBegin
  2
*D24
 70
    1
 10
0
 20
0
  3
*D24
  1

  0
LINE
  5
C5
100
AcDbEntity
  8
dimensions
  6
ByBlock
 62
    0
370
   -2
100
AcDbLine
 10
280.5
 20
-60
 11
308.5
 21
-60
  0
LINE
  5
C6
100
AcDbEntity
  8
dimensions
  6
ByBlock
 62
    0
370
   -2
100
AcDbLine
 10
289.0857864376269
 20
-61.41421356237309
 11
291.9142135623731
 21
-58.58578643762691
  0
LINE
  5
C7
100
AcDbEntity
  8
dimensions
  6
ByBlock
 62
    0
370
   -2
100
AcDbLine
 10
297.0857864376269
 20
-61.41421356237309
 11
299.9142135623731
 21
-58.58578643762691
  0
MTEXT
  5
C8
100
AcDbEntity
  8
dimensions
  6
CONTINUOUS
 62
    0
370
   -2
100
AcDbMText
 10
294.5
 20
-56
 30
0
 40
4
 41
4.888888888888888
 71
    5
 72
    1
  1
80
  7
standard
210
0
220
0
230
1
 50
0
 73
    2
 44
1
  0
LINE
  5
C9
100
AcDbEntity
  8
dimensions
  6
ByBlock
 62
    0
370
   -2
100
AcDbLine
 10
290.5
 20
-80
 11
290.5
 21
-58
  0
LINE
  5
CA
100
AcDbEntity
  8
dimensions
  6
ByBlock
 62
    0
370
   -2
100
AcDbLine
 10
298.5
 20
-80
 11
298.5
 21
-58
  0
ENDBLK
  5
5B
330
59
100
AcDbEntity
  8
0
100
AcDbBlockEnd
  0
BLOCK
  5
5D
330
5C
100
AcDbEntity
  8
0
100
AcDbBlockBegin
  2
*D34
 70
    1
 10
0
 20
0
  3
*D34
  1

  0
LINE
  5
CB
100
AcDbEntity
  8
dimensions
  6
ByBlock
 62
    0
370
   -2
100
AcDbLine
 10
305.5
 20
-10
 11
283.5
 21
-10
  0
LINE
  5
CC
100
AcDbEntity
  8
dimensions
  6
ByBlock
 62
    0
370
   -2
100
AcDbLine
 10
304.0857864376269
 20
-11.4142135623731
 11
306.9142135623731
 21
-8.585786437626904
  0
LINE
  5
CD
100
AcDbEntity
  8
dimensions
  6
ByBlock
 62
    0
370
   -2
100
AcDbLine
 10
282.0857864376269
 20
-11.4142135623731
 11
284.9142135623731
 21
-8.585786437626904
  0
MTEXT
  5
CE
100
AcDbEntity
  8
dimensions
  6
CONTINUOUS
 62
    0
370
   -2
100
AcDbMText
 10
294.5
 20
-6
 30
0
 40
4
 41
11.86666666666667
 71
    5
 72
    1
  1
220*
  7
standard
210
0
220
0
230
1
 50
360
 73
    2
 44
1
  0
LINE
  5
CF
100
AcDbEntity
  8
dimensions
  6
ByBlock
 62
    0
370
   -2
100
AcDbLine
 10
305.5
 20
10
 11
305.5
 21
-12
  0
LINE
  5
D0
100
AcDbEntity
  8
dimensions
  6
ByBlock
 62
    0
370
   -2
100
AcDbLine
 10
283.5
 20
10
 11
283.5
 21
-12
  0
ENDBLK
  5
5E
330
5C
100
AcDbEntity
  8
0
100
AcDbBlockEnd
  0
BLOCK
  5
60
330
5F
100
AcDbEntity
  8
0
100
AcDbBlockBegin
  2
*D7
 70
    1
 10
0
 20
0
  3
*D7
  1

  0
LINE
  5
D1
100
AcDbEntity
  8
dimensions
  6
ByBlock
 62
    0
370
   -2
100
AcDbLine
 10
0
 20
-140
 11
181.0000000000003
 21
-140
  0
LINE
  5
D2
100
AcDbEntity
  8
dimensions
  6
ByBlock
 62
    0
370
   -2
100
AcDbLine
 10
1.414213562373095
 20
-138.5857864376269
 11
-1.414213562373095
 21
-141.4142135623731
  0
LINE
  5
D3
100
AcDbEntity
  8
dimensions
  6
ByBlock
 62
    0
370
   -2
100
AcDbLine
 10
182.4142135623734
 20
-138.5857864376269
 11
179.5857864376272
 21
-141.4142135623731
  0
MTEXT
  5
D4
100
AcDbEntity
  8
dimensions
  6
CONTINUOUS
 62
    0
370
   -2
100
AcDbMText
 10
90.50000000000016
 20
-136
 30
0
 40
4
 41
9.333333333333332
 71
    5
 72
    1
  1
1810
  7
standard
210
0
220
0
230
1
 50
0
 73
    2
 44
1
  0
LINE
  5
D5
100
AcDbEntity
  8
dimensions
  6
ByBlock
 62
    0
370
   -2
100
AcDbLine
 10
-1.83697019872103e-16
 20
-131
 11
-3.673940397442059e-16
 21
-142
  0
LINE
  5
D6
100
AcDbEntity
  8
dimensions
  6
ByBlock
 62
    0
370
   -2
100
AcDbLine
 10
181.0000000000003
 20
-131
 11
181.0000000000003
 21
-142
  0
ENDBLK
  5
61
330
5F
100
AcDbEntity
  8
0
100
AcDbBlockEnd
  0
BLOCK
  5
63
330
62
100
AcDbEntity
  8
0
100
AcDbBlockBegin
  2
*D27
 70
    1
 10
0
 20
0
  3
*D27
  1

  0
LINE
  5
D7
100
AcDbEntity
  8
dimensions
  6
ByBlock
 62
    0
370
   -2
100
AcDbLine
 10
295.2071067811864
 20
68.20710678118661
 11
301.914213562373
 21
74.91421356237318
  0
LINE
  5
D8
100
AcDbEntity
  8
dimensions
  6
ByBlock
 62
    0
370
   -2
100
AcDbLine
 10
333.7071067811866
 20
29.70710678118654
 11
340.4142135623731
 21
36.41421356237311
  0
LINE
  5
D9
100
AcDbEntity
  8
dimensions
  6
ByBlock
 62
    0
370
   -2
100
AcDbLine
 10
300.4999999999999
 20
73.50000000000009
 11
339
 21
35.00000000000001
  0
LINE
  5
DA
100
AcDbEntity
  8
dimensions
  6
ByBlock
 62
    0
370
   -2
100
AcDbLine
 10
302.4999999999999
 20
73.50000000000009
 11
298.4999999999999
 21
73.50000000000009
  0
LINE
  5
DB
100
AcDbEntity
  8
dimensions
  6
ByBlock
 62
    0
370
   -2
100
AcDbLine
 10
341
 20
35.00000000000001
 11
337
 21
35.00000000000001
  0
MTEXT
  5
DC
100
AcDbEntity
  8
dimensions
  6
CONTINUOUS
 62
    0
370
   -2
100
AcDbMText
 10
322.5784271247462
 20
57.07842712474623
 30
0
 40
4
 41
13.55555555555605
 71
    5
 72
    1
  1
544,5
  7
standard
210
0
220
0
230
1
 50
315.0000000000001
 73
    2
 44
1
  0
ENDBLK
  5
64
330
62
100
AcDbEntity
  8
0
100
AcDbBlockEnd
  0
BLOCK
  5
66
330
65
100
AcDbEntity
  8
0
100
AcDbBlockBegin
  2
*D32
 70
    1
 10
0
 20
0
  3
*D32
  1

  0
LINE
  5
DD
100
AcDbEntity
  8
dimensions
  6
ByBlock
 62
    0
370
   -2
100
AcDbLine
 10
293.5
 20
-10
 11
265.5
 21
-10
  0
LINE
  5
DE
100
AcDbEntity
  8
dimensions
  6
ByBlock
 62
    0
370
   -2
100
AcDbLine
 10
284.9142135623731
 20
-8.585786437626904
 11
282.0857864376269
 21
-11.4142135623731
  0
LINE
  5
DF
100
AcDbEntity
  8
dimensions
  6
ByBlock
 62
    0
370
   -2
100
AcDbLine
 10
276.9142135623731
 20
-8.585786437626904
 11
274.0857864376269
 21
-11.4142135623731
  0
MTEXT
  5
E0
100
AcDbEntity
  8
dimensions
  6
CONTINUOUS
 62
    0
370
   -2
100
AcDbMText
 10
279.5
 20
-6
 30
0
 40
4
 41
4.888888888888888
 71
    5
 72
    1
  1
80
  7
standard
210
0
220
0
230
1
 50
360
 73
    2
 44
1
  0
LINE
  5
E1
100
AcDbEntity
  8
dimensions
  6
ByBlock
 62
    0
370
   -2
100
AcDbLine
 10
283.5
 20
10
 11
283.5
 21
-12
  0
LINE
  5
E2
100
AcDbEntity
  8
dimensions
  6
ByBlock
 62
    0
370
   -2
100
AcDbLine
 10
275.5
 20
10
 11
275.5
 21
-12
  0
ENDBLK
  5
67
330
65
100
AcDbEntity
  8
0
100
AcDbBlockEnd
  0
BLOCK
  5
69
330
68
100
AcDbEntity
  8
0
100
AcDbBlockBegin
  2
*D5
 70
    1
 10
0
 20
0
  3
*D5
  1

  0
LINE
  5
E3
100
AcDbEntity
  8
dimensions
  6
ByBlock
 62
    0
370
   -2
100
AcDbLine
 10
144
 20
-10
 11
169
 21
-10
  0
LINE
  5
E4
100
AcDbEntity
  8
dimensions
  6
ByBlock
 62
    0
370
   -2
100
AcDbLine
 10
145.4142135623731
 20
-8.585786437626904
 11
142.5857864376269
 21
-11.4142135623731
  0
LINE
  5
E5
100
AcDbEntity
  8
dimensions
  6
ByBlock
 62
    0
370
   -2
100
AcDbLine
 10
170.4142135623731
 20
-8.585786437626904
 11
167.5857864376269
 21
-11.4142135623731
  0
MTEXT
  5
E6
100
AcDbEntity
  8
dimensions
  6
CONTINUOUS
 62
    0
370
   -2
100
AcDbMText
 10
156.5
 20
-6
 30
0
 40
4
 41
8.000000000000249
 71
    5
 72
    1
  1
250
  7
standard
210
0
220
0
230
1
 50
0
 73
    2
 44
1
  0
LINE
  5
E7
100
AcDbEntity
  8
dimensions
  6
ByBlock
 62
    0
370
   -2
100
AcDbLine
 10
144
 20
2.000000000000022
 11
144
 21
-12
  0
LINE
  5
E8
100
AcDbEntity
  8
dimensions
  6
ByBlock
 62
    0
370
   -2
100
AcDbLine
 10
169
 20
2.000000000000026
 11
169
 21
-12
  0
ENDBLK
  5
6A
330
68
100
AcDbEntity
  8
0
100
AcDbBlockEnd
  0
BLOCK
  5
6C
330
6B
100
AcDbEntity
  8
0
100
AcDbBlockBegin
  2
*D19
 70
    1
 10
0
 20
0
  3
*D19
  1

  0
LINE
  5
E9
100
AcDbEntity
  8
dimensions
  6
ByBlock
 62
    0
370
   -2
100
AcDbLine
 10
57.50000000000027
 20
-10
 11
80.50000000000054
 21
-10
  0
LINE
  5
EA
100
AcDbEntity
  8
dimensions
  6
ByBlock
 62
    0
370
   -2
100
AcDbLine
 10
58.91421356237336
 20
-8.585786437626904
 11
56.08578643762718
 21
-11.4142135623731
  0
LINE
  5
EB
100
AcDbEntity
  8
dimensions
  6
ByBlock
 62
    0
370
   -2
100
AcDbLine
 10
81.91421356237363
 20
-8.585786437626904
 11
79.08578643762745
 21
-11.4142135623731
  0
MTEXT
  5
EC
100
AcDbEntity
  8
dimensions
  6
CONTINUOUS
 62
    0
370
   -2
100
AcDbMText
 10
69.0000000000004
 20
-6.000000000000002
 30
0
 40
4
 41
8.000000000000249
 71
    5
 72
    1
  1
230
  7
standard
210
0
220
0
230
1
 50
0
 73
    2
 44
1
  0
LINE
  5
ED
100
AcDbEntity
  8
dimensions
  6
ByBlock
 62
    0
370
   -2
100
AcDbLine
 10
57.50000000000027
 20
2.000000000000008
 11
57.50000000000027
 21
-12
  0
LINE
  5
EE
100
AcDbEntity
  8
dimensions
  6
ByBlock
 62
    0
370
   -2
100
AcDbLine
 10
80.50000000000054
 20
2.000000000000011
 11
80.50000000000054
 21
-12
  0
ENDBLK
  5
6D
330
6B
100
AcDbEntity
  8
0
100
AcDbBlockEnd
  0
BLOCK
  5
6F
330
6E
100
AcDbEntity
  8
0
100
AcDbBlockBegin
  2
*D9
 70
    1
 10
0
 20
0
  3
*D9
  1

  0
LINE
  5
EF
100
AcDbEntity
  8
dimensions
  6
ByBlock
 62
    0
370
   -2
100
AcDbLine
 10
167
 20
28.00000000000002
 11
167
 21
3.000000000000024
  0
LINE
  5
F0
100
AcDbEntity
  8
dimensions
  6
ByBlock
 62
    0
370
   -2
100
AcDbLine
 10
168.4142135623731
 20
26.58578643762693
 11
165.5857864376269
 21
29.41421356237312
  0
LINE
  5
F1
100
AcDbEntity
  8
dimensions
  6
ByBlock
 62
    0
370
   -2
100
AcDbLine
 10
168.4142135623731
 20
1.585786437626929
 11
165.5857864376269
 21
4.414213562373119
  0
MTEXT
  5
F2
100
AcDbEntity
  8
dimensions
  6
CONTINUOUS
 62
    0
370
   -2
100
AcDbMText
 10
163
 20
15.50000000000002
 30
0
 40
4
 41
8.000000000000249
 71
    5
 72
    1
  1
250
  7
standard
210
0
220
0
230
1
 50
90
 73
    2
 44
1
  0
LINE
  5
F3
100
AcDbEntity
  8
dimensions
  6
ByBlock
 62
    0
370
   -2
100
AcDbLine
 10
168
 20
28.00000000000003
 11
165
 21
28.00000000000002
  0
LINE
  5
F4
100
AcDbEntity
  8
dimensions
  6
ByBlock
 62
    0
370
   -2
100
AcDbLine
 10
168
 20
3.000000000000024
 11
165
 21
3.000000000000024
  0
ENDBLK
  5
70
330
6E
100
AcDbEntity
  8
0
100
AcDbBlockEnd
  0
BLOCK
  5
72
330
71
100
AcDbEntity
  8
0
100
AcDbBlockBegin
  2
*D17
 70
    1
 10
0
 20
0
  3
*D17
  1

  0
LINE
  5
F5
100
AcDbEntity
  8
dimensions
  6
ByBlock
 62
    0
370
   -2
100
AcDbLine
 10
0
 20
-10
 11
14.5
 21
-10
  0
LINE
  5
F6
100
AcDbEntity
  8
dimensions
  6
ByBlock
 62
    0
370
   -2
100
AcDbLine
 10
1.414213562373095
 20
-8.585786437626904
 11
-1.414213562373095
 21
-11.4142135623731
  0
LINE
  5
F7
100
AcDbEntity
  8
dimensions
  6
ByBlock
 62
    0
370
   -2
100
AcDbLine
 10
15.9142135623731
 20
-8.585786437626904
 11
13.0857864376269
 21
-11.4142135623731
  0
MTEXT
  5
F8
100
AcDbEntity
  8
dimensions
  6
CONTINUOUS
 62
    0
370
   -2
100
AcDbMText
 10
7.25
 20
-6
 30
0
 40
4
 41
7.555555555555803
 71
    5
 72
    1
  1
145
  7
standard
210
0
220
0
230
1
 50
0
 73
    2
 44
1
  0
LINE
  5
F9
100
AcDbEntity
  8
dimensions
  6
ByBlock
 62
    0
370
   -2
100
AcDbLine
 10
-1.83697019872103e-16
 20
2
 11
-3.673940397442059e-16
 21
-12
  0
LINE
  5
FA
100
AcDbEntity
  8
dimensions
  6
ByBlock
 62
    0
370
   -2
100
AcDbLine
 10
14.5
 20
2.000000000000004
 11
14.5
 21
-12
  0
ENDBLK
  5
73
330
71
100
AcDbEntity
  8
0
100
AcDbBlockEnd
  0
BLOCK
  5
75
330
74
100
AcDbEntity
  8
0
100
AcDbBlockBegin
  2
*D6
 70
    1
 10
0
 20
0
  3
*D6
  1

  0
LINE
  5
FB
100
AcDbEntity
  8
dimensions
  6
ByBlock
 62
    0
370
   -2
100
AcDbLine
 10
240
 20
3
 11
240
 21
33
  0
LINE
  5
FC
100
AcDbEntity
  8
dimensions
  6
ByBlock
 62
    0
370
   -2
100
AcDbLine
 10
238.5857864376269
 20
4.414213562373096
 11
241.4142135623731
 21
1.585786437626905
  0
LINE
  5
FD
100
AcDbEntity
  8
dimensions
  6
ByBlock
 62
    0
370
   -2
100
AcDbLine
 10
238.5857864376269
 20
34.41421356237309
 11
241.4142135623731
 21
31.5857864376269
  0
MTEXT
  5
FE
100
AcDbEntity
  8
dimensions
  6
CONTINUOUS
 62
    0
370
   -2
100
AcDbMText
 10
236
 20
18
 30
0
 40
4
 41
8.000000000000249
 71
    5
 72
    1
  1
300
  7
standard
210
0
220
0
230
1
 50
90
 73
    2
 44
1
  0
LINE
  5
FF
100
AcDbEntity
  8
dimensions
  6
ByBlock
 62
    0
370
   -2
100
AcDbLine
 10
259
 20
3
 11
238
 21
3
  0
LINE
  5
100
100
AcDbEntity
  8
dimensions
  6
ByBlock
 62
    0
370
   -2
100
AcDbLine
 10
259
 20
33
 11
238
 21
33
  0
ENDBLK
  5
76
330
74
100
AcDbEntity
  8
0
100
AcDbBlockEnd
  0
BLOCK
  5
78
330
77
100
AcDbEntity
  8
0
100
AcDbBlockBegin
  2
*D8
 70
    1
 10
0
 20
0
  3
*D8
  1

  0
LINE
  5
101
100
AcDbEntity
  8
dimensions
  6
ByBlock
 62
    0
370
   -2
100
AcDbLine
 10
350
 20
-81
 11
350
 21
-97
  0
LINE
  5
102
100
AcDbEntity
  8
dimensions
  6
ByBlock
 62
    0
370
   -2
100
AcDbLine
 10
351.4142135623731
 20
-82.41421356237309
 11
348.5857864376269
 21
-79.58578643762691
  0
LINE
  5
103
100
AcDbEntity
  8
dimensions
  6
ByBlock
 62
    0
370
   -2
100
AcDbLine
 10
351.4142135623731
 20
-98.41421356237309
 11
348.5857864376269
 21
-95.58578643762691
  0
MTEXT
  5
104
100
AcDbEntity
  8
dimensions
  6
CONTINUOUS
 62
    0
370
   -2
100
AcDbMText
 10
346
 20
-89
 30
0
 40
4
 41
7.111111111111359
 71
    5
 72
    1
  1
160
  7
standard
210
0
220
0
230
1
 50
90
 73
    2
 44
1
  0
LINE
  5
105
100
AcDbEntity
  8
dimensions
  6
ByBlock
 62
    0
370
   -2
100
AcDbLine
 10
300
 20
-81
 11
352
 21
-81
  0
LINE
  5
106
100
AcDbEntity
  8
dimensions
  6
ByBlock
 62
    0
370
   -2
100
AcDbLine
 10
300
 20
-97
 11
352
 21
-97
  0
ENDBLK
  5
79
330
77
100
AcDbEntity
  8
0
100
AcDbBlockEnd
  0
BLOCK
  5
7B
330
7A
100
AcDbEntity
  8
0
100
AcDbBlockBegin
  2
*D14
 70
    1
 10
0
 20
0
  3
*D14
  1

  0
LINE
  5
107
100
AcDbEntity
  8
dimensions
  6
ByBlock
 62
    0
370
   -2
100
AcDbLine
 10
240
 20
-10
 11
240
 21
13
  0
LINE
  5
108
100
AcDbEntity
  8
dimensions
  6
ByBlock
 62
    0
370
   -2
100
AcDbLine
 10
241.4142135623731
 20
-1.414213562373095
 11
238.5857864376269
 21
1.414213562373095
  0
LINE
  5
109
100
AcDbEntity
  8
dimensions
  6
ByBlock
 62
    0
370
   -2
100
AcDbLine
 10
241.4142135623731
 20
1.585786437626905
 11
238.5857864376269
 21
4.414213562373095
  0
MTEXT
  5
10A
100
AcDbEntity
  8
dimensions
  6
CONTINUOUS
 62
    0
370
   -2
100
AcDbMText
 10
236
 20
-5.055555555555432
 30
0
 40
4
 41
4.888888888889136
 71
    5
 72
    1
  1
30
  7
standard
210
0
220
0
230
1
 50
90
 73
    2
 44
1
  0
LINE
  5
10B
100
AcDbEntity
  8
dimensions
  6
ByBlock
 62
    0
370
   -2
100
AcDbLine
 10
259
 20
-9.957992501029609e-17
 11
238
 21
2.449293598294706e-16
  0
LINE
  5
10C
100
AcDbEntity
  8
dimensions
  6
ByBlock
 62
    0
370
   -2
100
AcDbLine
 10
259
 20
3
 11
238
 21
3
  0
ENDBLK
  5
7C
330
7A
100
AcDbEntity
  8
0
100
AcDbBlockEnd
  0
BLOCK
  5
7E
330
7D
100
AcDbEntity
  8
0
100
AcDbBlockBegin
  2
*D11
 70
    1
 10
0
 20
0
  3
*D11
  1

  0
LINE
  5
10D
100
AcDbEntity
  8
dimensions
  6
ByBlock
 62
    0
370
   -2
100
AcDbLine
 10
89
 20
23.00000000000001
 11
89
 21
3.000000000000013
  0
LINE
  5
10E
100
AcDbEntity
  8
dimensions
  6
ByBlock
 62
    0
370
   -2
100
AcDbLine
 10
90.41421356237309
 20
21.58578643762691
 11
87.58578643762691
 21
24.41421356237311
  0
LINE
  5
10F
100
AcDbEntity
  8
dimensions
  6
ByBlock
 62
    0
370
   -2
100
AcDbLine
 10
90.41421356237309
 20
1.585786437626918
 11
87.58578643762691
 21
4.414213562373108
  0
MTEXT
  5
110
100
AcDbEntity
  8
dimensions
  6
CONTINUOUS
 62
    0
370
   -2
100
AcDbMText
 10
85
 20
13.00000000000001
 30
0
 40
4
 41
8
 71
    5
 72
    1
  1
200
  7
standard
210
0
220
0
230
1
 50
90
 73
    2
 44
1
  0
LINE
  5
111
100
AcDbEntity
  8
dimensions
  6
ByBlock
 62
    0
370
   -2
100
AcDbLine
 10
89.50000000000054
 20
23.00000000000001
 11
87
 21
23.00000000000001
  0
LINE
  5
112
100
AcDbEntity
  8
dimensions
  6
ByBlock
 62
    0
370
   -2
100
AcDbLine
 10
89.50000000000054
 20
3.000000000000013
 11
87
 21
3.000000000000013
  0
ENDBLK
  5
7F
330
7D
100
AcDbEntity
  8
0
100
AcDbBlockEnd
  0
BLOCK
  5
81
330
80
100
AcDbEntity
  8
0
100
AcDbBlockBegin
  2
*D21
 70
    1
 10
0
 20
0
  3
*D21
  1

  0
LINE
  5
113
100
AcDbEntity
  8
dimensions
  6
ByBlock
 62
    0
370
   -2
100
AcDbLine
 10
131
 20
-10
 11
144
 21
-10
  0
LINE
  5
114
100
AcDbEntity
  8
dimensions
  6
ByBlock
 62
    0
370
   -2
100
AcDbLine
 10
132.4142135623731
 20
-8.585786437626904
 11
129.5857864376269
 21
-11.4142135623731
  0
LINE
  5
115
100
AcDbEntity
  8
dimensions
  6
ByBlock
 62
    0
370
   -2
100
AcDbLine
 10
145.4142135623731
 20
-8.585786437626904
 11
142.5857864376269
 21
-11.4142135623731
  0
MTEXT
  5
116
100
AcDbEntity
  8
dimensions
  6
CONTINUOUS
 62
    0
370
   -2
100
AcDbMText
 10
137.5
 20
-6
 30
0
 40
4
 41
7.111111111111359
 71
    5
 72
    1
  1
130
  7
standard
210
0
220
0
230
1
 50
0
 73
    2
 44
1
  0
LINE
  5
117
100
AcDbEntity
  8
dimensions
  6
ByBlock
 62
    0
370
   -2
100
AcDbLine
 10
131
 20
2
 11
131
 21
-12
  0
LINE
  5
118
100
AcDbEntity
  8
dimensions
  6
ByBlock
 62
    0
370
   -2
100
AcDbLine
 10
144
 20
2
 11
144
 21
-12
  0
ENDBLK
  5
82
330
80
100
AcDbEntity
  8
0
100
AcDbBlockEnd
  0
BLOCK
  5
84
330
83
100
AcDbEntity
  8
0
100
AcDbBlockBegin
  2
*D3
 70
    1
 10
0
 20
0
  3
*D3
  1

  0
LINE
  5
119
100
AcDbEntity
  8
dimensions
  6
ByBlock
 62
    0
370
   -2
100
AcDbLine
 10
70.50000000000054
 20
-9.999999999999998
 11
100.5000000000005
 21
-10
  0
LINE
  5
11A
100
AcDbEntity
  8
dimensions
  6
ByBlock
 62
    0
370
   -2
100
AcDbLine
 10
79.08578643762745
 20
-11.4142135623731
 11
81.91421356237363
 21
-8.585786437626904
  0
LINE
  5
11B
100
AcDbEntity
  8
dimensions
  6
ByBlock
 62
    0
370
   -2
100
AcDbLine
 10
89.08578643762745
 20
-11.4142135623731
 11
91.91421356237363
 21
-8.585786437626904
  0
MTEXT
  5
11C
100
AcDbEntity
  8
dimensions
  6
CONTINUOUS
 62
    0
370
   -2
100
AcDbMText
 10
85.50000000000054
 20
-6
 30
0
 40
4
 41
7.111111111111111
 71
    5
 72
    1
  1
100
  7
standard
210
0
220
0
230
1
 50
0
 73
    2
 44
1
  0
LINE
  5
11D
100
AcDbEntity
  8
dimensions
  6
ByBlock
 62
    0
370
   -2
100
AcDbLine
 10
80.50000000000054
 20
2.000000000000014
 11
80.50000000000054
 21
-12
  0
LINE
  5
11E
100
AcDbEntity
  8
dimensions
  6
ByBlock
 62
    0
370
   -2
100
AcDbLine
 10
90.50000000000054
 20
2.000000000000014
 11
90.50000000000054
 21
-12
  0
ENDBLK
  5
85
330
83
100
AcDbEntity
  8
0
100
AcDbBlockEnd
  0
BLOCK
  5
87
330
86
100
AcDbEntity
  8
0
100
AcDbBlockBegin
  2
*D23
 70
    1
 10
0
 20
0
  3
*D23
  1

  0
LINE
  5
11F
100
AcDbEntity
  8
dimensions
  6
ByBlock
 62
    0
370
   -2
100
AcDbLine
 10
260
 20
-60
 11
290.5
 21
-60
  0
LINE
  5
120
100
AcDbEntity
  8
dimensions
  6
ByBlock
 62
    0
370
   -2
100
AcDbLine
 10
261.4142135623731
 20
-58.58578643762691
 11
258.5857864376269
 21
-61.41421356237309
  0
LINE
  5
121
100
AcDbEntity
  8
dimensions
  6
ByBlock
 62
    0
370
   -2
100
AcDbLine
 10
291.9142135623731
 20
-58.58578643762691
 11
289.0857864376269
 21
-61.41421356237309
  0
MTEXT
  5
122
100
AcDbEntity
  8
dimensions
  6
CONTINUOUS
 62
    0
370
   -2
100
AcDbMText
 10
275.25
 20
-56
 30
0
 40
4
 41
8.000000000000496
 71
    5
 72
    1
  1
305
  7
standard
210
0
220
0
230
1
 50
0
 73
    2
 44
1
  0
LINE
  5
123
100
AcDbEntity
  8
dimensions
  6
ByBlock
 62
    0
370
   -2
100
AcDbLine
 10
260
 20
-95.99999999999999
 11
260
 21
-58
  0
LINE
  5
124
100
AcDbEntity
  8
dimensions
  6
ByBlock
 62
    0
370
   -2
100
AcDbLine
 10
290.5
 20
-80
 11
290.5
 21
-58
  0
ENDBLK
  5
88
330
86
100
AcDbEntity
  8
0
100
AcDbBlockEnd
  0
BLOCK
  5
8A
330
89
100
AcDbEntity
  8
0
100
AcDbBlockBegin
  2
*D4
 70
    1
 10
0
 20
0
  3
*D4
  1

  0
LINE
  5
125
100
AcDbEntity
  8
dimensions
  6
ByBlock
 62
    0
370
   -2
100
AcDbLine
 10
106
 20
-10
 11
131
 21
-10
  0
LINE
  5
126
100
AcDbEntity
  8
dimensions
  6
ByBlock
 62
    0
370
   -2
100
AcDbLine
 10
107.4142135623731
 20
-8.585786437626904
 11
104.5857864376269
 21
-11.4142135623731
  0
LINE
  5
127
100
AcDbEntity
  8
dimensions
  6
ByBlock
 62
    0
370
   -2
100
AcDbLine
 10
132.4142135623731
 20
-8.585786437626904
 11
129.5857864376269
 21
-11.4142135623731
  0
MTEXT
  5
128
100
AcDbEntity
  8
dimensions
  6
CONTINUOUS
 62
    0
370
   -2
100
AcDbMText
 10
118.5
 20
-6
 30
0
 40
4
 41
8.000000000000249
 71
    5
 72
    1
  1
250
  7
standard
210
0
220
0
230
1
 50
0
 73
    2
 44
1
  0
LINE
  5
129
100
AcDbEntity
  8
dimensions
  6
ByBlock
 62
    0
370
   -2
100
AcDbLine
 10
106
 20
2.000000000000018
 11
106
 21
-12
  0
LINE
  5
12A
100
AcDbEntity
  8
dimensions
  6
ByBlock
 62
    0
370
   -2
100
AcDbLine
 10
131
 20
2.00000000000002
 11
131
 21
-12
  0
ENDBLK
  5
8B
330
89
100
AcDbEntity
  8
0
100
AcDbBlockEnd
  0
BLOCK
  5
8D
330
8C
100
AcDbEntity
  8
0
100
AcDbBlockBegin
  2
*D15
 70
    1
 10
0
 20
0
  3
*D15
  1

  0
LINE
  5
12B
100
AcDbEntity
  8
dimensions
  6
ByBlock
 62
    0
370
   -2
100
AcDbLine
 10
-4
 20
-50
 11
185
 21
-50
  0
LINE
  5
12C
100
AcDbEntity
  8
dimensions
  6
ByBlock
 62
    0
370
   -2
100
AcDbLine
 10
-2.585786437626905
 20
-48.58578643762691
 11
-5.414213562373096
 21
-51.41421356237309
  0
LINE
  5
12D
100
AcDbEntity
  8
dimensions
  6
ByBlock
 62
    0
370
   -2
100
AcDbLine
 10
186.4142135623731
 20
-48.58578643762691
 11
183.5857864376269
 21
-51.41421356237309
  0
MTEXT
  5
12E
100
AcDbEntity
  8
dimensions
  6
CONTINUOUS
 62
    0
370
   -2
100
AcDbMText
 10
90.50000000000001
 20
-46
 30
0
 40
4
 41
10.22222222222222
 71
    5
 72
    1
  1
1890
  7
standard
210
0
220
0
230
1
 50
0
 73
    2
 44
1
  0
LINE
  5
12F
100
AcDbEntity
  8
dimensions
  6
ByBlock
 62
    0
370
   -2
100
AcDbLine
 10
-4
 20
-62.49999999999999
 11
-4
 21
-48
  0
LINE
  5
130
100
AcDbEntity
  8
dimensions
  6
ByBlock
 62
    0
370
   -2
100
AcDbLine
 10
185
 20
-62.49999999999999
 11
185
 21
-48
  0
ENDBLK
  5
8E
330
8C
100
AcDbEntity
  8
0
100
AcDbBlockEnd
  0
BLOCK
  5
90
330
8F
100
AcDbEntity
  8
0
100
AcDbBlockBegin
  2
*D25
 70
    1
 10
0
 20
0
  3
*D25
  1

  0
LINE
  5
131
100
AcDbEntity
  8
dimensions
  6
ByBlock
 62
    0
370
   -2
100
AcDbLine
 10
298.5
 20
-60
 11
329
 21
-60
  0
LINE
  5
132
100
AcDbEntity
  8
dimensions
  6
ByBlock
 62
    0
370
   -2
100
AcDbLine
 10
299.9142135623731
 20
-58.58578643762691
 11
297.0857864376269
 21
-61.41421356237309
  0
LINE
  5
133
100
AcDbEntity
  8
dimensions
  6
ByBlock
 62
    0
370
   -2
100
AcDbLine
 10
330.4142135623731
 20
-58.58578643762691
 11
327.5857864376269
 21
-61.41421356237309
  0
MTEXT
  5
134
100
AcDbEntity
  8
dimensions
  6
CONTINUOUS
 62
    0
370
   -2
100
AcDbMText
 10
313.75
 20
-56
 30
0
 40
4
 41
8.000000000000496
 71
    5
 72
    1
  1
305
  7
standard
210
0
220
0
230
1
 50
0
 73
    2
 44
1
  0
LINE
  5
135
100
AcDbEntity
  8
dimensions
  6
ByBlock
 62
    0
370
   -2
100
AcDbLine
 10
298.5
 20
-80
 11
298.5
 21
-58
  0
LINE
  5
136
100
AcDbEntity
  8
dimensions
  6
ByBlock
 62
    0
370
   -2
100
AcDbLine
 10
329
 20
-96
 11
329
 21
-58
  0
ENDBLK
  5
91
330
8F
100
AcDbEntity
  8
0
100
AcDbBlockEnd
  0
BLOCK
  5
93
330
92
100
AcDbEntity
  8
0
100
AcDbBlockBegin
  2
*D30
 70
    1
 10
0
 20
0
  3
*D30
  1

  0
LINE
  5
137
100
AcDbEntity
  8
dimensions
  6
ByBlock
 62
    0
370
   -2
100
AcDbLine
 10
329
 20
-10
 11
313.5
 21
-10
  0
LINE
  5
138
100
AcDbEntity
  8
dimensions
  6
ByBlock
 62
    0
370
   -2
100
AcDbLine
 10
327.5857864376269
 20
-11.4142135623731
 11
330.4142135623731
 21
-8.585786437626904
  0
LINE
  5
139
100
AcDbEntity
  8
dimensions
  6
ByBlock
 62
    0
370
   -2
100
AcDbLine
 10
312.0857864376269
 20
-11.4142135623731
 11
314.9142135623731
 21
-8.585786437626904
  0
MTEXT
  5
13A
100
AcDbEntity
  8
dimensions
  6
CONTINUOUS
 62
    0
370
   -2
100
AcDbMText
 10
321.25
 20
-6
 30
0
 40
4
 41
7.111111111111606
 71
    5
 72
    1
  1
155
  7
standard
210
0
220
0
230
1
 50
360
 73
    2
 44
1
  0
LINE
  5
13B
100
AcDbEntity
  8
dimensions
  6
ByBlock
 62
    0
370
   -2
100
AcDbLine
 10
329
 20
-1
 11
329
 21
-12
  0
LINE
  5
13C
100
AcDbEntity
  8
dimensions
  6
ByBlock
 62
    0
370
   -2
100
AcDbLine
 10
313.5
 20
10
 11
313.5
 21
-12
  0
ENDBLK
  5
94
330
92
100
AcDbEntity
  8
0
100
AcDbBlockEnd
  0
BLOCK
  5
96
330
95
100
AcDbEntity
  8
0
100
AcDbBlockBegin
  2
*D20
 70
    1
 10
0
 20
0
  3
*D20
  1

  0
LINE
  5
13D
100
AcDbEntity
  8
dimensions
  6
ByBlock
 62
    0
370
   -2
100
AcDbLine
 10
90.50000000000054
 20
-10
 11
106
 21
-10
  0
LINE
  5
13E
100
AcDbEntity
  8
dimensions
  6
ByBlock
 62
    0
370
   -2
100
AcDbLine
 10
91.91421356237363
 20
-8.585786437626904
 11
89.08578643762745
 21
-11.4142135623731
  0
LINE
  5
13F
100
AcDbEntity
  8
dimensions
  6
ByBlock
 62
    0
370
   -2
100
AcDbLine
 10
107.4142135623731
 20
-8.585786437626904
 11
104.5857864376269
 21
-11.4142135623731
  0
MTEXT
  5
140
100
AcDbEntity
  8
dimensions
  6
CONTINUOUS
 62
    0
370
   -2
100
AcDbMText
 10
98.25000000000027
 20
-6
 30
0
 40
4
 41
7.111111111111606
 71
    5
 72
    1
  1
155
  7
standard
210
0
220
0
230
1
 50
0
 73
    2
 44
1
  0
LINE
  5
141
100
AcDbEntity
  8
dimensions
  6
ByBlock
 62
    0
370
   -2
100
AcDbLine
 10
90.50000000000054
 20
2.000000000000013
 11
90.50000000000054
 21
-12
  0
LINE
  5
142
100
AcDbEntity
  8
dimensions
  6
ByBlock
 62
    0
370
   -2
100
AcDbLine
 10
106
 20
2.000000000000018
 11
106
 21
-12
  0
ENDBLK
  5
97
330
95
100
AcDbEntity
  8
0
100
AcDbBlockEnd
  0
BLOCK
  5
99
330
98
100
AcDbEntity
  8
0
100
AcDbBlockBegin
  2
*D12
 70
    1
 10
0
 20
0
  3
*D12
  1

  0
LINE
  5
143
100
AcDbEntity
  8
dimensions
  6
ByBlock
 62
    0
370
   -2
100
AcDbLine
 10
23
 20
23
 11
23
 21
3.000000000000004
  0
LINE
  5
144
100
AcDbEntity
  8
dimensions
  6
ByBlock
 62
    0
370
   -2
100
AcDbLine
 10
24.4142135623731
 20
21.5857864376269
 11
21.5857864376269
 21
24.4142135623731
  0
LINE
  5
145
100
AcDbEntity
  8
dimensions
  6
ByBlock
 62
    0
370
   -2
100
AcDbLine
 10
24.4142135623731
 20
1.585786437626909
 11
21.5857864376269
 21
4.414213562373099
  0
MTEXT
  5
146
100
AcDbEntity
  8
dimensions
  6
CONTINUOUS
 62
    0
370
   -2
100
AcDbMText
 10
19
 20
13
 30
0
 40
4
 41
8
 71
    5
 72
    1
  1
200
  7
standard
210
0
220
0
230
1
 50
90
 73
    2
 44
1
  0
LINE
  5
147
100
AcDbEntity
  8
dimensions
  6
ByBlock
 62
    0
370
   -2
100
AcDbLine
 10
23.5
 20
23
 11
21
 21
23
  0
LINE
  5
148
100
AcDbEntity
  8
dimensions
  6
ByBlock
 62
    0
370
   -2
100
AcDbLine
 10
23.5
 20
3.000000000000004
 11
21
 21
3.000000000000004
  0
ENDBLK
  5
9A
330
98
100
AcDbEntity
  8
0
100
AcDbBlockEnd
  0
BLOCK
  5
9C
330
9B
100
AcDbEntity
  8
0
100
AcDbBlockBegin
  2
*D13
 70
    1
 10
0
 20
0
  3
*D13
  1

  0
LINE
  5
149
100
AcDbEntity
  8
dimensions
  6
ByBlock
 62
    0
370
   -2
100
AcDbLine
 10
56
 20
23.00000000000001
 11
56
 21
3.000000000000008
  0
LINE
  5
14A
100
AcDbEntity
  8
dimensions
  6
ByBlock
 62
    0
370
   -2
100
AcDbLine
 10
57.41421356237309
 20
21.58578643762691
 11
54.58578643762691
 21
24.4142135623731
  0
LINE
  5
14B
100
AcDbEntity
  8
dimensions
  6
ByBlock
 62
    0
370
   -2
100
AcDbLine
 10
57.41421356237309
 20
1.585786437626913
 11
54.58578643762691
 21
4.414213562373103
  0
MTEXT
  5
14C
100
AcDbEntity
  8
dimensions
  6
CONTINUOUS
 62
    0
370
   -2
100
AcDbMText
 10
52
 20
13.00000000000001
 30
0
 40
4
 41
8
 71
    5
 72
    1
  1
200
  7
standard
210
0
220
0
230
1
 50
90
 73
    2
 44
1
  0
LINE
  5
14D
100
AcDbEntity
  8
dimensions
  6
ByBlock
 62
    0
370
   -2
100
AcDbLine
 10
56.50000000000027
 20
23.00000000000001
 11
54
 21
23
  0
LINE
  5
14E
100
AcDbEntity
  8
dimensions
  6
ByBlock
 62
    0
370
   -2
100
AcDbLine
 10
56.50000000000027
 20
3.000000000000008
 11
54
 21
3.000000000000008
  0
ENDBLK
  5
9D
330
9B
100
AcDbEntity
  8
0
100
AcDbBlockEnd
  0
BLOCK
  5
9F
330
9E
100
AcDbEntity
  8
0
100
AcDbBlockBegin
  2
*D31
 70
    1
 10
0
 20
0
  3
*D31
  1

  0
LINE
  5
14F
100
AcDbEntity
  8
dimensions
  6
ByBlock
 62
    0
370
   -2
100
AcDbLine
 10
323.5000000000001
 20
-10
 11
295.5
 21
-10
  0
LINE
  5
150
100
AcDbEntity
  8
dimensions
  6
ByBlock
 62
    0
370
   -2
100
AcDbLine
 10
314.9142135623732
 20
-8.585786437626904
 11
312.085786437627
 21
-11.4142135623731
  0
LINE
  5
151
100
AcDbEntity
  8
dimensions
  6
ByBlock
 62
    0
370
   -2
100
AcDbLine
 10
306.9142135623731
 20
-8.585786437626904
 11
304.0857864376269
 21
-11.4142135623731
  0
MTEXT
  5
152
100
AcDbEntity
  8
dimensions
  6
CONTINUOUS
 62
    0
370
   -2
100
AcDbMText
 10
309.5
 20
-6
 30
0
 40
4
 41
4.888888888888888
 71
    5
 72
    1
  1
80
  7
standard
210
0
220
0
230
1
 50
360
 73
    2
 44
1
  0
LINE
  5
153
100
AcDbEntity
  8
dimensions
  6
ByBlock
 62
    0
370
   -2
100
AcDbLine
 10
313.5000000000001
 20
10
 11
313.5000000000001
 21
-12
  0
LINE
  5
154
100
AcDbEntity
  8
dimensions
  6
ByBlock
 62
    0
370
   -2
100
AcDbLine
 10
305.5
 20
10
 11
305.5
 21
-12
  0
ENDBLK
  5
A0
330
9E
100
AcDbEntity
  8
0
100
AcDbBlockEnd
  0
BLOCK
  5
A2
330
A1
100
AcDbEntity
  8
0
100
AcDbBlockBegin
  2
*D16
 70
    1
 10
0
 20
0
  3
*D16
  1

  0
LINE
  5
155
100
AcDbEntity
  8
dimensions
  6
ByBlock
 62
    0
370
   -2
100
AcDbLine
 10
-12
 20
-63.5
 11
-12
 21
-130
  0
LINE
  5
156
100
AcDbEntity
  8
dimensions
  6
ByBlock
 62
    0
370
   -2
100
AcDbLine
 10
-10.5857864376269
 20
-64.91421356237309
 11
-13.41421356237309
 21
-62.08578643762691
  0
LINE
  5
157
100
AcDbEntity
  8
dimensions
  6
ByBlock
 62
    0
370
   -2
100
AcDbLine
 10
-10.5857864376269
 20
-131.4142135623731
 11
-13.4142135623731
 21
-128.5857864376269
  0
MTEXT
  5
158
100
AcDbEntity
  8
dimensions
  6
CONTINUOUS
 62
    0
370
   -2
100
AcDbMText
 10
-16
 20
-96.75
 30
0
 40
4
 41
8.000000000000743
 71
    5
 72
    1
  1
665
  7
standard
210
0
220
0
230
1
 50
90
 73
    2
 44
1
  0
LINE
  5
159
100
AcDbEntity
  8
dimensions
  6
ByBlock
 62
    0
370
   -2
100
AcDbLine
 10
-5
 20
-63.49999999999999
 11
-14
 21
-63.5
  0
LINE
  5
15A
100
AcDbEntity
  8
dimensions
  6
ByBlock
 62
    0
370
   -2
100
AcDbLine
 10
-1
 20
-130
 11
-14
 21
-130
  0
ENDBLK
  5
A3
330
A1
100
AcDbEntity
  8
0
100
AcDbBlockEnd
  0
BLOCK
  5
A5
330
A4
100
AcDbEntity
  8
0
100
AcDbBlockBegin
  2
*D26
 70
    1
 10
0
 20
0
  3
*D26
  1

  0
LINE
  5
15B
100
AcDbEntity
  8
dimensions
  6
ByBlock
 62
    0
370
   -2
100
AcDbLine
 10
293.7928932188134
 20
68.20710678118661
 11
287.0857864376269
 21
74.91421356237313
  0
LINE
  5
15C
100
AcDbEntity
  8
dimensions
  6
ByBlock
 62
    0
370
   -2
100
AcDbLine
 10
255.2928932188134
 20
29.70710678118655
 11
248.5857864376269
 21
36.41421356237309
  0
LINE
  5
15D
100
AcDbEntity
  8
dimensions
  6
ByBlock
 62
    0
370
   -2
100
AcDbLine
 10
288.5
 20
73.50000000000004
 11
250
 21
34.99999999999999
  0
LINE
  5
15E
100
AcDbEntity
  8
dimensions
  6
ByBlock
 62
    0
370
   -2
100
AcDbLine
 10
288.5
 20
71.50000000000004
 11
288.5
 21
75.50000000000004
  0
LINE
  5
15F
100
AcDbEntity
  8
dimensions
  6
ByBlock
 62
    0
370
   -2
100
AcDbLine
 10
250
 20
32.99999999999999
 11
250
 21
36.99999999999999
  0
MTEXT
  5
160
100
AcDbEntity
  8
dimensions
  6
CONTINUOUS
 62
    0
370
   -2
100
AcDbMText
 10
266.4215728752538
 20
57.0784271247462
 30
0
 40
4
 41
13.55555555555605
 71
    5
 72
    1
  1
544,5
  7
standard
210
0
220
0
230
1
 50
45.00000000000005
 73
    2
 44
1
  0
ENDBLK
  5
A6
330
A4
100
AcDbEntity
  8
0
100
AcDbBlockEnd
  0
BLOCK
  5
A8
330
A7
100
AcDbEntity
  8
0
100
AcDbBlockBegin
  2
*D22
 70
    1
 10
0
 20
0
  3
*D22
  1

  0
LINE
  5
161
100
AcDbEntity
  8
dimensions
  6
ByBlock
 62
    0
370
   -2
100
AcDbLine
 10
159
 20
-9.999999999999998
 11
191.0000000000003
 21
-10
  0
LINE
  5
162
100
AcDbEntity
  8
dimensions
  6
ByBlock
 62
    0
370
   -2
100
AcDbLine
 10
167.5857864376269
 20
-11.4142135623731
 11
170.4142135623731
 21
-8.585786437626904
  0
LINE
  5
163
100
AcDbEntity
  8
dimensions
  6
ByBlock
 62
    0
370
   -2
100
AcDbLine
 10
179.5857864376272
 20
-11.4142135623731
 11
182.4142135623734
 21
-8.585786437626904
  0
MTEXT
  5
164
100
AcDbEntity
  8
dimensions
  6
CONTINUOUS
 62
    0
370
   -2
100
AcDbMText
 10
175.0000000000002
 20
-6
 30
0
 40
4
 41
7.111111111111111
 71
    5
 72
    1
  1
120
  7
standard
210
0
220
0
230
1
 50
0
 73
    2
 44
1
  0
LINE
  5
165
100
AcDbEntity
  8
dimensions
  6
ByBlock
 62
    0
370
   -2
100
AcDbLine
 10
169
 20
2
 11
169
 21
-12
  0
LINE
  5
166
100
AcDbEntity
  8
dimensions
  6
ByBlock
 62
    0
370
   -2
100
AcDbLine
 10
181.0000000000003
 20
2.000000000000028
 11
181.0000000000003
 21
-12
  0
ENDBLK
  5
A9
330
A7
100
AcDbEntity
  8
0
100
AcDbBlockEnd
  0
BLOCK
  5
AB
330
AA
100
AcDbEntity
  8
0
100
AcDbBlockBegin
  2
*D29
 70
    1
 10
0
 20
0
  3
*D29
  1

  0
LINE
  5
167
100
AcDbEntity
  8
dimensions
  6
ByBlock
 62
    0
370
   -2
100
AcDbLine
 10
260
 20
-20
 11
329
 21
-20
  0
LINE
  5
168
100
AcDbEntity
  8
dimensions
  6
ByBlock
 62
    0
370
   -2
100
AcDbLine
 10
261.4142135623731
 20
-18.5857864376269
 11
258.5857864376269
 21
-21.4142135623731
  0
LINE
  5
169
100
AcDbEntity
  8
dimensions
  6
ByBlock
 62
    0
370
   -2
100
AcDbLine
 10
330.4142135623731
 20
-18.5857864376269
 11
327.5857864376269
 21
-21.4142135623731
  0
MTEXT
  5
16A
100
AcDbEntity
  8
dimensions
  6
CONTINUOUS
 62
    0
370
   -2
100
AcDbMText
 10
294.5
 20
-16
 30
0
 40
4
 41
8.000000000000249
 71
    5
 72
    1
  1
690
  7
standard
210
0
220
0
230
1
 50
0
 73
    2
 44
1
  0
LINE
  5
16B
100
AcDbEntity
  8
dimensions
  6
ByBlock
 62
    0
370
   -2
100
AcDbLine
 10
260
 20
-1
 11
260
 21
-22
  0
LINE
  5
16C
100
AcDbEntity
  8
dimensions
  6
ByBlock
 62
    0
370
   -2
100
AcDbLine
 10
329
 20
-1
 11
329
 21
-22
  0
ENDBLK
  5
AC
330
AA
100
AcDbEntity
  8
0
100
AcDbBlockEnd
  0
BLOCK
  5
AE
330
AD
100
AcDbEntity
  8
0
100
AcDbBlockBegin
  2
*D28
 70
    1
 10
0
 20
0
  3
*D28
  1

  0
LINE
  5
16D
100
AcDbEntity
  8
dimensions
  6
ByBlock
 62
    0
370
   -2
100
AcDbLine
 10
319
 20
25
 11
343
 21
25
  0
LINE
  5
16E
100
AcDbEntity
  8
dimensions
  6
ByBlock
 62
    0
370
   -2
100
AcDbLine
 10
327.5857864376269
 20
23.5857864376269
 11
330.4142135623731
 21
26.4142135623731
  0
LINE
  5
16F
100
AcDbEntity
  8
dimensions
  6
ByBlock
 62
    0
370
   -2
100
AcDbLine
 10
331.5857864376269
 20
23.5857864376269
 11
334.4142135623731
 21
26.4142135623731
  0
MTEXT
  5
170
100
AcDbEntity
  8
dimensions
  6
CONTINUOUS
 62
    0
370
   -2
100
AcDbMText
 10
341.6666666666667
 20
29
 30
0
 40
4
 41
5.333333333333333
 71
    5
 72
    1
  1
40
  7
standard
210
0
220
0
230
1
 50
0
 73
    2
 44
1
  0
LINE
  5
171
100
AcDbEntity
  8
dimensions
  6
ByBlock
 62
    0
370
   -2
100
AcDbLine
 10
329
 20
32
 11
329
 21
23
  0
LINE
  5
172
100
AcDbEntity
  8
dimensions
  6
ByBlock
 62
    0
370
   -2
100
AcDbLine
 10
333
 20
28
 11
333
 21
23
  0
ENDBLK
  5
AF
330
AD
100
AcDbEntity
  8
0
100
AcDbBlockEnd
  0
BLOCK
  5
B1
330
B0
100
AcDbEntity
  8
0
100
AcDbBlockBegin
  2
*D10
 70
    1
 10
0
 20
0
  3
*D10
  1

  0
LINE
  5
173
100
AcDbEntity
  8
dimensions
  6
ByBlock
 62
    0
370
   -2
100
AcDbLine
 10
129
 20
3.000000000000018
 11
129
 21
28.00000000000002
  0
LINE
  5
174
100
AcDbEntity
  8
dimensions
  6
ByBlock
 62
    0
370
   -2
100
AcDbLine
 10
127.5857864376269
 20
4.414213562373114
 11
130.4142135623731
 21
1.585786437626922
  0
LINE
  5
175
100
AcDbEntity
  8
dimensions
  6
ByBlock
 62
    0
370
   -2
100
AcDbLine
 10
127.5857864376269
 20
29.41421356237312
 11
130.4142135623731
 21
26.58578643762693
  0
MTEXT
  5
176
100
AcDbEntity
  8
dimensions
  6
CONTINUOUS
 62
    0
370
   -2
100
AcDbMText
 10
125
 20
15.50000000000002
 30
0
 40
4
 41
8.000000000000249
 71
    5
 72
    1
  1
250
  7
standard
210
0
220
0
230
1
 50
90
 73
    2
 44
1
  0
LINE
  5
177
100
AcDbEntity
  8
dimensions
  6
ByBlock
 62
    0
370
   -2
100
AcDbLine
 10
130
 20
3.000000000000018
 11
127
 21
3.000000000000018
  0
LINE
  5
178
100
AcDbEntity
  8
dimensions
  6
ByBlock
 62
    0
370
   -2
100
AcDbLine
 10
130
 20
28.00000000000002
 11
127
 21
28.00000000000002
  0
ENDBLK
  5
B2
330
B0
100
AcDbEntity
  8
0
100
AcDbBlockEnd
  0
BLOCK
  5
B4
330
B3
100
AcDbEntity
  8
0
100
AcDbBlockBegin
  2
*D2
 70
    1
 10
0
 20
0
  3
*D2
  1

  0
LINE
  5
179
100
AcDbEntity
  8
dimensions
  6
ByBlock
 62
    0
370
   -2
100
AcDbLine
 10
37.50000000000027
 20
-9.999999999999998
 11
67.50000000000027
 21
-10
  0
LINE
  5
17A
100
AcDbEntity
  8
dimensions
  6
ByBlock
 62
    0
370
   -2
100
AcDbLine
 10
46.08578643762718
 20
-11.4142135623731
 11
48.91421356237336
 21
-8.585786437626904
  0
LINE
  5
17B
100
AcDbEntity
  8
dimensions
  6
ByBlock
 62
    0
370
   -2
100
AcDbLine
 10
56.08578643762718
 20
-11.4142135623731
 11
58.91421356237336
 21
-8.585786437626904
  0
MTEXT
  5
17C
100
AcDbEntity
  8
dimensions
  6
CONTINUOUS
 62
    0
370
   -2
100
AcDbMText
 10
52.50000000000027
 20
-6
 30
0
 40
4
 41
7.111111111111111
 71
    5
 72
    1
  1
100
  7
standard
210
0
220
0
230
1
 50
0
 73
    2
 44
1
  0
LINE
  5
17D
100
AcDbEntity
  8
dimensions
  6
ByBlock
 62
    0
370
   -2
100
AcDbLine
 10
47.50000000000027
 20
2.000000000000007
 11
47.50000000000027
 21
-12
  0
LINE
  5
17E
100
AcDbEntity
  8
dimensions
  6
ByBlock
 62
    0
370
   -2
100
AcDbLine
 10
57.50000000000027
 20
2.000000000000007
 11
57.50000000000027
 21
-12
  0
ENDBLK
  5
B5
330
B3
100
AcDbEntity
  8
0
100
AcDbBlockEnd
  0
BLOCK
  5
B7
330
B6
100
AcDbEntity
  8
0
100
AcDbBlockBegin
  2
*D33
 70
    1
 10
0
 20
0
  3
*D33
  1

  0
LINE
  5
17F
100
AcDbEntity
  8
dimensions
  6
ByBlock
 62
    0
370
   -2
100
AcDbLine
 10
275.5
 20
-10
 11
260
 21
-10
  0
LINE
  5
180
100
AcDbEntity
  8
dimensions
  6
ByBlock
 62
    0
370
   -2
100
AcDbLine
 10
274.0857864376269
 20
-11.4142135623731
 11
276.9142135623731
 21
-8.585786437626904
  0
LINE
  5
181
100
AcDbEntity
  8
dimensions
  6
ByBlock
 62
    0
370
   -2
100
AcDbLine
 10
258.5857864376269
 20
-11.4142135623731
 11
261.4142135623731
 21
-8.585786437626904
  0
MTEXT
  5
182
100
AcDbEntity
  8
dimensions
  6
CONTINUOUS
 62
    0
370
   -2
100
AcDbMText
 10
267.75
 20
-6
 30
0
 40
4
 41
7.111111111111606
 71
    5
 72
    1
  1
155
  7
standard
210
0
220
0
230
1
 50
360
 73
    2
 44
1
  0
LINE
  5
183
100
AcDbEntity
  8
dimensions
  6
ByBlock
 62
    0
370
   -2
100
AcDbLine
 10
275.5
 20
10
 11
275.5
 21
-12
  0
LINE
  5
184
100
AcDbEntity
  8
dimensions
  6
ByBlock
 62
    0
370
   -2
100
AcDbLine
 10
260
 20
2
 11
260
 21
-12
  0
ENDBLK
  5
B8
330
B6
100
AcDbEntity
  8
0
100
AcDbBlockEnd
  0
ENDSEC
  0
SECTION
  2
ENTITIES
  0
HATCH
  5
185
100
AcDbEntity
  8
wall
  6
ByLayer
 62
  256
370
   -1
100
AcDbHatch
 10
0
 20
0
 30
0
210
0
220
0
230
1
  2
ar-brstd
 70
    0
 71
    0
 91
    1
 92
    0
 93
   12
 72
    1
 10
329
 20
3
 11
329
 21
33
 72
    1
 10
329
 20
33
 11
260
 21
33
 72
    1
 10
260
 20
33
 11
260
 21
3
 72
    1
 10
260
 20
3
 11
329
 21
3
 72
    2
 10
309.4999999999999
 20
13.17609589041271
 40
11.32390410958929
 50
69.3146857190513
 51
110.6853142809487
 73
    1
 72
    1
 10
305.4999999999999
 20
23.77000000000203
 11
305.5
 21
11
 72
    1
 10
305.5
 20
11
 11
313.5
 21
11
 72
    1
 10
313.5
 20
11
 11
313.4999999999999
 21
23.77000000000204
 72
    2
 10
279.4999999999999
 20
13.17609589041271
 40
11.32390410958929
 50
69.3146857190513
 51
110.6853142809487
 73
    1
 72
    1
 10
275.4999999999999
 20
23.77000000000203
 11
275.5
 21
11
 72
    1
 10
275.5
 20
11
 11
283.5
 21
11
 72
    1
 10
283.5
 20
11
 11
283.4999999999999
 21
23.77000000000204
 97
    0
 75
    0
 76
    1
 52
0
 41
0.1
 77
    0
 78
    0
 98
    0
  0
HATCH
  5
186
100
AcDbEntity
  8
wall
  6
ByLayer
 62
  256
370
   -1
100
AcDbHatch
 10
0
 20
0
 30
0
210
0
220
0
230
1
  2
ar-brstd
 70
    0
 71
    0
 91
    1
 92
    0
 93
    4
 72
    1
 10
329
 20
-127
 11
329
 21
-97
 72
    1
 10
329
 20
-97
 11
260
 21
-97
 72
    1
 10
260
 20
-97
 11
260
 21
-127
 72
    1
 10
260
 20
-127
 11
329
 21
-127
 97
    0
 75
    0
 76
    1
 52
0
 41
0.1
 77
    0
 78
    0
 98
    0
  0
HATCH
  5
187
100
AcDbEntity
  8
dah
  6
ByLayer
 62
  256
370
   13
100
AcDbHatch
 10
0
 20
0
 30
0
210
0
220
0
230
1
  2
ar-roof
 70
    0
 71
    0
 91
    1
 92
    0
 93
    4
 72
    1
 10
-4
 20
-63.49999999999999
 11
-4
 21
-100.8908729652601
 72
    1
 10
-4
 20
-100.8908729652601
 11
185
 21
-100.8908729652601
 72
    1
 10
185
 20
-100.8908729652601
 11
185
 21
-63.5
 72
    1
 10
185
 20
-63.5
 11
-4
 21
-63.49999999999999
 97
    0
 75
    0
 76
    1
 52
0
 41
0.1
 77
    0
 78
    0
 98
    0
  0
HATCH
  5
188
100
AcDbEntity
  8
dah
  6
ByLayer
 62
  256
370
   13
100
AcDbHatch
 10
0
 20
0
 30
0
210
0
220
0
230
1
  2
ar-roof
 70
    0
 71
    0
 91
    1
 92
    0
 93
    4
 72
    1
 10
185
 20
29.10912703473988
 11
185
 21
66.49999999999997
 72
    1
 10
185
 20
66.49999999999997
 11
-4.000000000000028
 21
66.49999999999999
 72
    1
 10
-4.000000000000028
 20
66.49999999999999
 11
-4
 21
29.10912703473988
 72
    1
 10
-4
 20
29.10912703473988
 11
185
 21
29.10912703473988
 97
    0
 75
    0
 76
    1
 52
0
 41
0.1
 77
    0
 78
    0
 98
    0
  0
HATCH
  5
189
100
AcDbEntity
  8
wall
  6
ByLayer
 62
  256
370
   13
100
AcDbHatch
 10
0
 20
0
 30
0
210
0
220
0
230
1
  2
ar-brstd
 70
    0
 71
    0
 91
    1
 92
    0
 93
   19
 72
    1
 10
277
 20
36
 11
277
 21
42
 72
    1
 10
277
 20
42
 11
279
 21
42
 72
    1
 10
279
 20
42
 11
279
 21
36
 72
    1
 10
279
 20
36
 11
277
 21
36
 72
    1
 10
294.5
 20
67.50000000000006
 11
329
 21
33
 72
    1
 10
329
 20
33
 11
260
 21
33
 72
    1
 10
260
 20
33
 11
294.5
 21
67.50000000000006
 72
    1
 10
293.5
 20
55
 11
293.5
 21
59
 72
    1
 10
293.5
 20
59
 11
295.5
 21
59
 72
    1
 10
295.5
 20
59
 11
295.5
 21
55
 72
    1
 10
295.5
 20
55
 11
293.5
 21
55
 72
    1
 10
308
 20
40
 11
308
 21
46
 72
    1
 10
308
 20
46
 11
310
 21
46
 72
    1
 10
310
 20
46
 11
310
 21
40
 72
    1
 10
310
 20
40
 11
308
 21
40
 72
    1
 10
290.5
 20
33
 11
290.5
 21
49
 72
    1
 10
290.5
 20
49
 11
298.5
 21
49
 72
    1
 10
298.5
 20
49
 11
298.5
 21
33
 72
    1
 10
298.5
 20
33
 11
290.5
 21
33
 97
    0
 75
    0
 76
    1
 52
0
 41
0.1
 77
    0
 78
    0
 98
    0
  0
HATCH
  5
18A
100
AcDbEntity
  8
wall
  6
ByLayer
 62
  256
370
   13
100
AcDbHatch
 10
0
 20
0
 30
0
210
0
220
0
230
1
  2
ar-brstd
 70
    0
 71
    0
 91
    1
 92
    0
 93
   19
 72
    1
 10
277
 20
-94
 11
277
 21
-88
 72
    1
 10
277
 20
-88
 11
279
 21
-88
 72
    1
 10
279
 20
-88
 11
279
 21
-94
 72
    1
 10
279
 20
-94
 11
277
 21
-94
 72
    1
 10
294.5000000000001
 20
-62.49999999999997
 11
329
 21
-97
 72
    1
 10
329
 20
-97
 11
260
 21
-97
 72
    1
 10
260
 20
-97
 11
294.5000000000001
 21
-62.49999999999997
 72
    1
 10
290.5
 20
-97
 11
290.5
 21
-81
 72
    1
 10
290.5
 20
-81
 11
298.5
 21
-81
 72
    1
 10
298.5
 20
-81
 11
298.5
 21
-97
 72
    1
 10
298.5
 20
-97
 11
290.5
 21
-97
 72
    1
 10
293.5
 20
-75
 11
293.5
 21
-71
 72
    1
 10
293.5
 20
-71
 11
295.5
 21
-71
 72
    1
 10
295.5
 20
-71
 11
295.5
 21
-75
 72
    1
 10
295.5
 20
-75
 11
293.5
 21
-75
 72
    1
 10
308
 20
-90
 11
308
 21
-84
 72
    1
 10
308
 20
-84
 11
310
 21
-84
 72
    1
 10
310
 20
-84
 11
310
 21
-90
 72
    1
 10
310
 20
-90
 11
308
 21
-90
 97
    0
 75
    0
 76
    1
 52
0
 41
0.1
 77
    0
 78
    0
 98
    0
  0
HATCH
  5
18B
100
AcDbEntity
  8
base
  6
ByLayer
 62
  256
370
   13
100
AcDbHatch
 10
0
 20
0
 30
0
210
0
220
0
230
1
  2
concrete
 70
    0
 71
    0
 91
    1
 92
    0
 93
    4
 72
    1
 10
260
 20
3
 11
260
 21
0
 72
    1
 10
260
 20
0
 11
329
 21
0
 72
    1
 10
329
 20
0
 11
329
 21
3
 72
    1
 10
329
 20
3
 11
260
 21
3
 97
    0
 75
    0
 76
    1
 52
0
 41
1
 77
    0
 78
    0
 98
    0
  0
HATCH
  5
18C
100
AcDbEntity
  8
base
  6
ByLayer
 62
  256
370
   13
100
AcDbHatch
 10
0
 20
0
 30
0
210
0
220
0
230
1
  2
concrete
 70
    0
 71
    0
 91
    1
 92
    0
 93
    4
 72
    1
 10
260
 20
-127
 11
260
 21
-130
 72
    1
 10
260
 20
-130
 11
329
 21
-130
 72
    1
 10
329
 20
-130
 11
329
 21
-127
 72
    1
 10
329
 20
-127
 11
260
 21
-127
 97
    0
 75
    0
 76
    1
 52
0
 41
1
 77
    0
 78
    0
 98
    0
  0
HATCH
  5
18D
100
AcDbEntity
  8
wall
  6
ByLayer
 62
  256
370
   13
100
AcDbHatch
 10
0
 20
0
 30
0
210
0
220
0
230
1
  2
ar-brstd
 70
    0
 71
    0
 91
    1
 92
    0
 93
    4
 72
    1
 10
181
 20
-100.8908729652601
 11
0
 21
-100.8908729652601
 72
    1
 10
0
 20
-100.8908729652601
 11
0
 21
-127
 72
    1
 10
0
 20
-127
 11
181.0000000000003
 21
-127
 72
    1
 10
181.0000000000003
 20
-127
 11
181
 21
-100.8908729652601
 97
    0
 75
    0
 76
    1
 52
0
 41
0.1
 77
    0
 78
    0
 98
    0
  0
HATCH
  5
18E
100
AcDbEntity
  8
wall
  6
ByLayer
 62
  256
370
   13
100
AcDbHatch
 10
0
 20
0
 30
0
210
0
220
0
230
1
  2
ar-brstd
 70
    0
 71
    0
 91
    1
 92
    0
 93
   24
 72
    1
 10
0
 20
3
 11
181.0000000000003
 21
3.000000000000028
 72
    1
 10
181.0000000000003
 20
3.000000000000028
 11
181
 21
29.10912703473988
 72
    1
 10
181
 20
29.10912703473988
 11
0
 21
29.10912703473988
 72
    1
 10
0
 20
29.10912703473988
 11
0
 21
3
 72
    1
 10
14.5
 20
3.000000000000004
 11
14.5
 21
23
 72
    1
 10
14.5
 20
23
 11
24.5
 21
23
 72
    1
 10
24.5
 20
23
 11
24.5
 21
3.000000000000004
 72
    1
 10
24.5
 20
3.000000000000004
 11
14.5
 21
3.000000000000002
 72
    1
 10
47.50000000000027
 20
3.000000000000008
 11
47.50000000000027
 21
23
 72
    1
 10
47.50000000000027
 20
23
 11
57.50000000000027
 21
23
 72
    1
 10
57.50000000000027
 20
23
 11
57.50000000000027
 21
3.000000000000008
 72
    1
 10
57.50000000000027
 20
3.000000000000008
 11
47.50000000000027
 21
3.000000000000006
 72
    1
 10
80.50000000000054
 20
3.000000000000013
 11
80.50000000000054
 21
23.00000000000001
 72
    1
 10
80.50000000000054
 20
23.00000000000001
 11
90.50000000000054
 21
23.00000000000001
 72
    1
 10
90.50000000000054
 20
23.00000000000001
 11
90.50000000000054
 21
3.000000000000013
 72
    1
 10
90.50000000000054
 20
3.000000000000013
 11
80.50000000000054
 21
3.000000000000011
 72
    1
 10
106
 20
3.000000000000018
 11
106
 21
28.00000000000002
 72
    1
 10
106
 20
28.00000000000002
 11
131
 21
28.00000000000002
 72
    1
 10
131
 20
28.00000000000002
 11
131
 21
3.000000000000018
 72
    1
 10
131
 20
3.000000000000018
 11
106
 21
3.000000000000016
 72
    1
 10
144
 20
3.000000000000022
 11
144
 21
28.00000000000002
 72
    1
 10
144
 20
28.00000000000002
 11
169
 21
28.00000000000002
 72
    1
 10
169
 20
28.00000000000002
 11
169
 21
3.000000000000022
 72
    1
 10
169
 20
3.000000000000022
 11
144
 21
3.00000000000002
 97
    0
 75
    0
 76
    1
 52
0
 41
0.1
 77
    0
 78
    0
 98
    0
  0
HATCH
  5
18F
100
AcDbEntity
  8
base
  6
ByLayer
 62
  256
370
   13
100
AcDbHatch
 10
0
 20
0
 30
0
210
0
220
0
230
1
  2
concrete
 70
    0
 71
    0
 91
    1
 92
    0
 93
    4
 72
    1
 10
0
 20
0
 11
181.0000000000003
 21
2.8421709430404e-14
 72
    1
 10
181.0000000000003
 20
2.8421709430404e-14
 11
181.0000000000003
 21
3.000000000000028
 72
    1
 10
181.0000000000003
 20
3.000000000000028
 11
0
 21
3
 72
    1
 10
0
 20
3
 11
0
 21
0
 97
    0
 75
    0
 76
    1
 52
0
 41
1
 77
    0
 78
    0
 98
    0
  0
HATCH
  5
190
100
AcDbEntity
  8
base
  6
ByLayer
 62
  256
370
   13
100
AcDbHatch
 10
0
 20
0
 30
0
210
0
220
0
230
1
  2
concrete
 70
    0
 71
    0
 91
    1
 92
    0
 93
    4
 72
    1
 10
0
 20
-130
 11
181.0000000000003
 21
-130
 72
    1
 10
181.0000000000003
 20
-130
 11
181.0000000000003
 21
-127
 72
    1
 10
181.0000000000003
 20
-127
 11
0
 21
-127
 72
    1
 10
0
 20
-127
 11
0
 21
-130
 97
    0
 75
    0
 76
    1
 52
0
 41
1
 77
    0
 78
    0
 98
    0
  0
LWPOLYLINE
  5
191
100
AcDbEntity
  8
windoors
  6
ByLayer
 62
  256
370
   -1
100
AcDbPolyline
 90
    5
 70
    1
 43
0
 10
14.5
 20
3.000000000000004
 10
24.5
 20
3.000000000000004
 10
24.5
 20
23
 10
14.5
 20
23
 10
14.5
 20
23
  0
LWPOLYLINE
  5
192
100
AcDbEntity
  8
windoors
  6
ByLayer
 62
  256
370
   -1
100
AcDbPolyline
 90
    5
 70
    1
 43
0
 10
47.50000000000027
 20
3.000000000000008
 10
57.50000000000027
 20
3.000000000000008
 10
57.50000000000027
 20
23.00000000000001
 10
47.50000000000027
 20
23.00000000000001
 10
47.50000000000027
 20
23.00000000000001
  0
LWPOLYLINE
  5
193
100
AcDbEntity
  8
windoors
  6
ByLayer
 62
  256
370
   -1
100
AcDbPolyline
 90
    5
 70
    1
 43
0
 10
80.50000000000054
 20
3.000000000000013
 10
90.50000000000054
 20
3.000000000000013
 10
90.50000000000054
 20
23.00000000000001
 10
80.50000000000054
 20
23.00000000000001
 10
80.50000000000054
 20
23.00000000000001
  0
LWPOLYLINE
  5
194
100
AcDbEntity
  8
windoors
  6
ByLayer
 62
  256
370
   -1
100
AcDbPolyline
 90
    4
 70
    1
 43
0
 10
106
 20
3.000000000000018
 10
131
 20
3.000000000000018
 10
131
 20
28.00000000000002
 10
106
 20
28.00000000000002
  0
LWPOLYLINE
  5
195
100
AcDbEntity
  8
windoors
  6
ByLayer
 62
  256
370
   -1
100
AcDbPolyline
 90
    4
 70
    1
 43
0
 10
144
 20
3.000000000000024
 10
169
 20
3.000000000000024
 10
169
 20
28.00000000000003
 10
144
 20
28.00000000000003
  0
LINE
  5
196
100
AcDbEntity
  8
windoors
  6
ByLayer
 62
  256
370
   -1
100
AcDbLine
 10
118.5
 20
28.00000000000002
 11
118.5
 21
3.000000000000018
  0
LINE
  5
197
100
AcDbEntity
  8
windoors
  6
ByLayer
 62
  256
370
   -1
100
AcDbLine
 10
156.5
 20
3.000000000000024
 11
156.5
 21
28.00000000000003
  0
DIMENSION
  5
198
100
AcDbEntity
  8
dimensions
  6
ByLayer
 62
  256
370
   -1
100
AcDbDimension
  2
*D1
 10
24
 20
-9.999999999999996
 30
0
 11
19.5
 21
-5.999999999999996
 31
0
 70
   32
 71
    5
 72
    0
  3
Standard
 53
0
210
0
220
0
230
1
100
AcDbAlignedDimension
 13
14.5
 23
3.000000000000004
 33
0
 14
24.5
 24
3.000000000000004
 34
0
100
AcDbRotatedDimension
  0
DIMENSION
  5
199
100
AcDbEntity
  8
dimensions
  6
ByLayer
 62
  256
370
   -1
100
AcDbDimension
  2
*D2
 10
58
 20
-10
 30
0
 11
52.50000000000027
 21
-6
 31
0
 70
   32
 71
    5
 72
    0
  3
Standard
 53
0
210
0
220
0
230
1
100
AcDbAlignedDimension
 13
47.50000000000027
 23
3.000000000000007
 33
0
 14
57.50000000000027
 24
3.000000000000007
 34
0
100
AcDbRotatedDimension
  0
DIMENSION
  5
19A
100
AcDbEntity
  8
dimensions
  6
ByLayer
 62
  256
370
   -1
100
AcDbDimension
  2
*D3
 10
92
 20
-10
 30
0
 11
85.50000000000054
 21
-6
 31
0
 70
   32
 71
    5
 72
    0
  3
Standard
 53
0
210
0
220
0
230
1
100
AcDbAlignedDimension
 13
80.50000000000054
 23
3.000000000000014
 33
0
 14
90.50000000000054
 24
3.000000000000014
 34
0
100
AcDbRotatedDimension
  0
DIMENSION
  5
19B
100
AcDbEntity
  8
dimensions
  6
ByLayer
 62
  256
370
   -1
100
AcDbDimension
  2
*D4
 10
131
 20
-10
 30
0
 11
118.5
 21
-6
 31
0
 70
   32
 71
    5
 72
    0
  3
Standard
 53
0
210
0
220
0
230
1
100
AcDbAlignedDimension
 13
106
 23
3.000000000000018
 33
0
 14
131
 24
3.00000000000002
 34
0
100
AcDbRotatedDimension
  0
DIMENSION
  5
19C
100
AcDbEntity
  8
dimensions
  6
ByLayer
 62
  256
370
   -1
100
AcDbDimension
  2
*D5
 10
169
 20
-10
 30
0
 11
156.5
 21
-6
 31
0
 70
   32
 71
    5
 72
    0
  3
Standard
 53
0
210
0
220
0
230
1
100
AcDbAlignedDimension
 13
144
 23
3.000000000000022
 33
0
 14
169
 24
3.000000000000026
 34
0
100
AcDbRotatedDimension
  0
LINE
  5
19D
100
AcDbEntity
  8
ground
  6
ByLayer
 62
  256
370
   -1
100
AcDbLine
 10
0
 20
0
 11
-10
 21
0
  0
LINE
  5
19E
100
AcDbEntity
  8
ground
  6
ByLayer
 62
  256
370
   -1
100
AcDbLine
 10
181.0000000000003
 20
0
 11
191
 21
1.110223024625157e-16
  0
LWPOLYLINE
  5
19F
100
AcDbEntity
  8
windoors
  6
ByLayer
 62
  256
370
   -1
100
AcDbPolyline
 90
    4
 70
    1
 43
0
 10
108
 20
5
 10
115
 20
5
 10
115
 20
23
 10
108
 20
23
  0
LWPOLYLINE
  5
1A0
100
AcDbEntity
  8
windoors
  6
ByLayer
 62
  256
370
   -1
100
AcDbPolyline
 90
    4
 70
    1
 43
0
 10
146
 20
5
 10
153
 20
5
 10
153
 20
23
 10
146
 20
23
  0
LWPOLYLINE
  5
1A1
100
AcDbEntity
  8
wall
  6
ByLayer
 62
  256
370
   -1
100
AcDbPolyline
 90
    4
 70
    1
 43
0
 10
0
 20
3
 10
181.0000000000003
 20
3.000000000000028
 10
181
 20
29.10912703473988
 10
0
 20
29.10912703473988
  0
LINE
  5
1A2
100
AcDbEntity
  8
ground
  6
ByLayer
 62
  256
370
   -1
100
AcDbLine
 10
260
 20
0
 11
255
 21
0
  0
DIMENSION
  5
1A3
100
AcDbEntity
  8
dimensions
  6
ByLayer
 62
  256
370
   -1
100
AcDbDimension
  2
*D6
 10
240
 20
30
 30
0
 11
236
 21
18
 31
0
 70
   32
 71
    5
 72
    0
  3
Standard
 53
0
210
0
220
0
230
1
100
AcDbAlignedDimension
 13
260
 23
3
 33
0
 14
260
 24
33
 34
0
 50
90
100
AcDbRotatedDimension
  0
LINE
  5
1A4
100
AcDbEntity
  8
ground
  6
ByLayer
 62
  256
370
   -1
100
AcDbLine
 10
260
 20
-130
 11
255
 21
-130
  0
LINE
  5
1A5
100
AcDbEntity
  8
ground
  6
ByLayer
 62
  256
370
   -1
100
AcDbLine
 10
181.0000000000003
 20
-130
 11
191
 21
-130
  0
LWPOLYLINE
  5
1A6
100
AcDbEntity
  8
wall
  6
ByLayer
 62
  256
370
   -1
100
AcDbPolyline
 90
    4
 70
    1
 43
0
 10
0
 20
-127
 10
181.0000000000003
 20
-127
 10
181
 20
-100.8908729652601
 10
0
 20
-100.8908729652601
  0
LINE
  5
1A7
100
AcDbEntity
  8
ground
  6
ByLayer
 62
  256
370
   -1
100
AcDbLine
 10
0
 20
-130
 11
-10
 21
-130
  0
DIMENSION
  5
1A8
100
AcDbEntity
  8
dimensions
  6
ByLayer
 62
  256
370
   -1
100
AcDbDimension
  2
*D7
 10
180
 20
-140
 30
0
 11
90.50000000000016
 21
-136
 31
0
 70
   32
 71
    5
 72
    0
  3
Standard
 53
0
210
0
220
0
230
1
100
AcDbAlignedDimension
 13
0
 23
-130
 33
0
 14
181.0000000000003
 24
-130
 34
0
100
AcDbRotatedDimension
  0
LWPOLYLINE
  5
1A9
100
AcDbEntity
  8
base
  6
ByLayer
 62
  256
370
   -1
100
AcDbPolyline
 90
    4
 70
    1
 43
0
 10
0
 20
0
 10
181.0000000000003
 20
2.8421709430404e-14
 10
181.0000000000003
 20
3.000000000000028
 10
0
 20
3
  0
LWPOLYLINE
  5
1AA
100
AcDbEntity
  8
base
  6
ByLayer
 62
  256
370
   -1
100
AcDbPolyline
 90
    4
 70
    1
 43
0
 10
0
 20
-130
 10
181.0000000000003
 20
-130
 10
181.0000000000003
 20
-127
 10
0
 20
-127
  0
DIMENSION
  5
1AB
100
AcDbEntity
  8
dimensions
  6
ByLayer
 62
  256
370
   -1
100
AcDbDimension
  2
*D8
 10
350
 20
-100
 30
0
 11
346
 21
-89
 31
0
 70
   32
 71
    5
 72
    0
  3
Standard
 53
0
210
0
220
0
230
1
100
AcDbAlignedDimension
 13
299
 23
-81
 33
0
 14
299
 24
-97
 34
0
 50
90
100
AcDbRotatedDimension
  0
LWPOLYLINE
  5
1AC
100
AcDbEntity
  8
wall
  6
ByLayer
 62
  256
370
   -1
100
AcDbPolyline
 90
    5
 70
    0
 43
0
 10
14.5
 20
3.000000000000004
 10
14.5
 20
23
 10
24.5
 20
23
 10
24.5
 20
3.000000000000004
 10
14.5
 20
3.000000000000002
  0
LWPOLYLINE
  5
1AD
100
AcDbEntity
  8
wall
  6
ByLayer
 62
  256
370
   -1
100
AcDbPolyline
 90
    5
 70
    0
 43
0
 10
47.50000000000027
 20
3.000000000000008
 10
47.50000000000027
 20
23
 10
57.50000000000027
 20
23
 10
57.50000000000027
 20
3.000000000000008
 10
47.50000000000027
 20
3.000000000000006
  0
LWPOLYLINE
  5
1AE
100
AcDbEntity
  8
wall
  6
ByLayer
 62
  256
370
   -1
100
AcDbPolyline
 90
    5
 70
    0
 43
0
 10
80.50000000000054
 20
3.000000000000013
 10
80.50000000000054
 20
23.00000000000001
 10
90.50000000000054
 20
23.00000000000001
 10
90.50000000000054
 20
3.000000000000013
 10
80.50000000000054
 20
3.000000000000011
  0
LWPOLYLINE
  5
1AF
100
AcDbEntity
  8
wall
  6
ByLayer
 62
  256
370
   -1
100
AcDbPolyline
 90
    5
 70
    0
 43
0
 10
106
 20
3.000000000000018
 10
106
 20
28.00000000000002
 10
131
 20
28.00000000000002
 10
131
 20
3.000000000000018
 10
106
 20
3.000000000000016
  0
LWPOLYLINE
  5
1B0
100
AcDbEntity
  8
wall
  6
ByLayer
 62
  256
370
   -1
100
AcDbPolyline
 90
    5
 70
    0
 43
0
 10
144
 20
3.000000000000022
 10
144
 20
28.00000000000002
 10
169
 20
28.00000000000002
 10
169
 20
3.000000000000022
 10
144
 20
3.00000000000002
  0
DIMENSION
  5
1B1
100
AcDbEntity
  8
dimensions
  6
ByLayer
 62
  256
370
   -1
100
AcDbDimension
  2
*D9
 10
167
 20
7
 30
0
 11
163
 21
15.50000000000002
 31
0
 70
   32
 71
    5
 72
    0
  3
Standard
 53
0
210
0
220
0
230
1
100
AcDbAlignedDimension
 13
169
 23
28.00000000000003
 33
0
 14
169
 24
3.000000000000024
 34
0
 50
90
100
AcDbRotatedDimension
  0
DIMENSION
  5
1B2
100
AcDbEntity
  8
dimensions
  6
ByLayer
 62
  256
370
   -1
100
AcDbDimension
  2
*D10
 10
129
 20
28
 30
0
 11
125
 21
15.50000000000002
 31
0
 70
   32
 71
    5
 72
    0
  3
Standard
 53
0
210
0
220
0
230
1
100
AcDbAlignedDimension
 13
131
 23
3.000000000000018
 33
0
 14
131
 24
28.00000000000002
 34
0
 50
90
100
AcDbRotatedDimension
  0
DIMENSION
  5
1B3
100
AcDbEntity
  8
dimensions
  6
ByLayer
 62
  256
370
   -1
100
AcDbDimension
  2
*D11
 10
89
 20
3
 30
0
 11
85
 21
13.00000000000001
 31
0
 70
   32
 71
    5
 72
    0
  3
Standard
 53
0
210
0
220
0
230
1
100
AcDbAlignedDimension
 13
90.50000000000054
 23
23.00000000000001
 33
0
 14
90.50000000000054
 24
3.000000000000013
 34
0
 50
90
100
AcDbRotatedDimension
  0
DIMENSION
  5
1B4
100
AcDbEntity
  8
dimensions
  6
ByLayer
 62
  256
370
   -1
100
AcDbDimension
  2
*D12
 10
23
 20
3
 30
0
 11
19
 21
13
 31
0
 70
   32
 71
    5
 72
    0
  3
Standard
 53
0
210
0
220
0
230
1
100
AcDbAlignedDimension
 13
24.5
 23
23
 33
0
 14
24.5
 24
3.000000000000004
 34
0
 50
90
100
AcDbRotatedDimension
  0
DIMENSION
  5
1B5
100
AcDbEntity
  8
dimensions
  6
ByLayer
 62
  256
370
   -1
100
AcDbDimension
  2
*D13
 10
56
 20
2
 30
0
 11
52
 21
13.00000000000001
 31
0
 70
   32
 71
    5
 72
    0
  3
Standard
 53
0
210
0
220
0
230
1
100
AcDbAlignedDimension
 13
57.50000000000027
 23
23.00000000000001
 33
0
 14
57.50000000000027
 24
3.000000000000008
 34
0
 50
90
100
AcDbRotatedDimension
  0
LINE
  5
1B6
100
AcDbEntity
  8
ground
  6
ByLayer
 62
  256
370
   -1
100
AcDbLine
 10
329
 20
-130
 11
334
 21
-130
  0
LWPOLYLINE
  5
1B7
100
AcDbEntity
  8
wall
  6
ByLayer
 62
  256
370
   -1
100
AcDbPolyline
 90
    4
 70
    1
 43
0
 10
329
 20
-127
 10
329
 20
-97
 10
260
 20
-97
 10
260
 20
-127
  0
LWPOLYLINE
  5
1B8
100
AcDbEntity
  8
base
  6
ByLayer
 62
  256
370
   -1
100
AcDbPolyline
 90
    4
 70
    1
 43
0
 10
260
 20
-130
 10
329
 20
-130
 10
329
 20
-127
 10
260
 20
-127
  0
LINE
  5
1B9
100
AcDbEntity
  8
ground
  6
ByLayer
 62
  256
370
   -1
100
AcDbLine
 10
329
 20
0
 11
334
 21
0
  0
LWPOLYLINE
  5
1BA
100
AcDbEntity
  8
wall
  6
ByLayer
 62
  256
370
   -1
100
AcDbPolyline
 90
    4
 70
    1
 43
0
 10
329
 20
3
 10
329
 20
33
 10
260
 20
33
 10
260
 20
3
  0
LWPOLYLINE
  5
1BB
100
AcDbEntity
  8
base
  6
ByLayer
 62
  256
370
   -1
100
AcDbPolyline
 90
    4
 70
    1
 43
0
 10
260
 20
0
 10
329
 20
0
 10
329
 20
3
 10
260
 20
3
  0
DIMENSION
  5
1BC
100
AcDbEntity
  8
dimensions
  6
ByLayer
 62
  256
370
   -1
100
AcDbDimension
  2
*D14
 10
240
 20
-20
 30
0
 11
236
 21
-11
 31
0
 70
   32
 71
    5
 72
    0
  3
Standard
 53
0
210
0
220
0
230
1
100
AcDbAlignedDimension
 13
260
 23
-2.220446049250314e-16
 33
0
 14
260
 24
3
 34
0
 50
90
100
AcDbRotatedDimension
  0
LINE
  5
1BD
100
AcDbEntity
  8
0
  6
ByLayer
 62
  256
370
   -1
100
AcDbLine
 10
294.5
 20
32.99999999999999
 11
294.5
 21
2.999999999999992
  0
LWPOLYLINE
  5
1BE
100
AcDbEntity
  8
wall
  6
ByLayer
 62
  256
370
   -1
100
AcDbPolyline
 90
    4
 70
    0
 43
0
 10
294.5
 20
67.50000000000006
 10
329
 20
33
 10
260
 20
33
 10
294.5
 20
67.50000000000006
  0
LWPOLYLINE
  5
1BF
100
AcDbEntity
  8
wall
  6
ByLayer
 62
  256
370
   -1
100
AcDbPolyline
 90
    4
 70
    0
 43
0
 10
294.5000000000001
 20
-62.49999999999997
 10
329
 20
-97
 10
260
 20
-97
 10
294.5000000000001
 20
-62.49999999999997
  0
LWPOLYLINE
  5
1C0
100
AcDbEntity
  8
wall
  6
ByLayer
 62
  256
370
   -1
100
AcDbPolyline
 90
    5
 70
    0
 43
0
 10
290.5
 20
-97
 10
290.5
 20
-81
 10
298.5
 20
-81
 10
298.5
 20
-97
 10
290.5
 20
-97
  0
LWPOLYLINE
  5
1C1
100
AcDbEntity
  8
windoors
  6
ByLayer
 62
  256
370
   -1
100
AcDbPolyline
 90
    5
 70
    1
 43
0
 10
290.5
 20
-97
 10
298.5
 20
-97
 10
298.5
 20
-81
 10
290.5
 20
-81
 10
290.5
 20
-81
  0
LWPOLYLINE
  5
1C2
100
AcDbEntity
  8
wall
  6
ByLayer
 62
  256
370
   -1
100
AcDbPolyline
 90
    5
 70
    0
 43
0
 10
290.5
 20
33
 10
290.5
 20
49
 10
298.5
 20
49
 10
298.5
 20
33
 10
290.5
 20
33
  0
LWPOLYLINE
  5
1C3
100
AcDbEntity
  8
windoors
  6
ByLayer
 62
  256
370
   -1
100
AcDbPolyline
 90
    5
 70
    1
 43
0
 10
290.5
 20
33
 10
298.5
 20
33
 10
298.5
 20
49
 10
290.5
 20
49
 10
290.5
 20
49
  0
LWPOLYLINE
  5
1C4
100
AcDbEntity
  8
dah
  6
ByLayer
 62
  256
370
   -1
100
AcDbPolyline
 90
    4
 70
    1
 43
0
 10
-4
 20
29.10912703473988
 10
185
 20
29.10912703473988
 10
185
 20
66.49999999999999
 10
-4.000000000000028
 20
66.5
  0
LWPOLYLINE
  5
1C5
100
AcDbEntity
  8
dah
  6
ByLayer
 62
  256
370
   -1
100
AcDbPolyline
 90
    4
 70
    1
 43
0
 10
-4
 20
-100.8908729652601
 10
185
 20
-100.8908729652601
 10
185
 20
-63.5
 10
-4
 20
-63.49999999999999
  0
DIMENSION
  5
1C6
100
AcDbEntity
  8
dimensions
  6
ByLayer
 62
  256
370
   -1
100
AcDbDimension
  2
*D15
 10
185
 20
-50
 30
0
 11
90.50000000000001
 21
-46
 31
0
 70
   32
 71
    5
  3
Standard
 53
0
210
0
220
0
230
1
100
AcDbAlignedDimension
 13
-4
 23
-63.49999999999999
 33
0
 14
185
 24
-63.49999999999999
 34
0
100
AcDbRotatedDimension
  0
DIMENSION
  5
1C7
100
AcDbEntity
  8
dimensions
  6
ByLayer
 62
  256
370
   -1
100
AcDbDimension
  2
*D16
 10
-12
 20
-130
 30
0
 11
-16
 21
-96.75
 31
0
 70
   32
 71
    5
 72
    0
  3
Standard
 53
0
210
0
220
0
230
1
100
AcDbAlignedDimension
 13
-4
 23
-63.49999999999999
 33
0
 14
0
 24
-130
 34
0
 50
90
100
AcDbRotatedDimension
  0
LINE
  5
1C8
100
AcDbEntity
  8
dah
  6
ByLayer
 62
  256
370
   -1
100
AcDbLine
 10
256
 20
29
 11
294.5
 21
67.50000000000006
  0
LINE
  5
1C9
100
AcDbEntity
  8
dah
  6
ByLayer
 62
  256
370
   -1
100
AcDbLine
 10
294.5
 20
67.50000000000006
 11
333
 21
29
  0
LINE
  5
1CA
100
AcDbEntity
  8
dah
  6
ByLayer
 62
  256
370
   -1
100
AcDbLine
 10
294.5000000000001
 20
-62.49999999999997
 11
333
 21
-101
  0
LINE
  5
1CB
100
AcDbEntity
  8
dah
  6
ByLayer
 62
  256
370
   -1
100
AcDbLine
 10
256
 20
-101
 11
294.5000000000001
 21
-62.49999999999997
  0
DIMENSION
  5
1CC
100
AcDbEntity
  8
dimensions
  6
ByLayer
 62
  256
370
   -1
100
AcDbDimension
  2
*D17
 10
14.5
 20
-10
 30
0
 11
7.25
 21
-6
 31
0
 70
   32
 71
    5
  3
Standard
 53
0
210
0
220
0
230
1
100
AcDbAlignedDimension
 13
0
 23
3
 33
0
 14
14.5
 24
3.000000000000004
 34
0
100
AcDbRotatedDimension
  0
DIMENSION
  5
1CD
100
AcDbEntity
  8
dimensions
  6
ByLayer
 62
  256
370
   -1
100
AcDbDimension
  2
*D18
 10
47.50000000000027
 20
-10
 30
0
 11
36.00000000000014
 21
-6
 31
0
 70
   32
 71
    5
  3
Standard
 53
0
210
0
220
0
230
1
100
AcDbAlignedDimension
 13
24.5
 23
3.000000000000004
 33
0
 14
47.50000000000027
 24
3.000000000000006
 34
0
100
AcDbRotatedDimension
  0
DIMENSION
  5
1CE
100
AcDbEntity
  8
dimensions
  6
ByLayer
 62
  256
370
   -1
100
AcDbDimension
  2
*D19
 10
80.50000000000054
 20
-10
 30
0
 11
69.0000000000004
 21
-6.000000000000002
 31
0
 70
   32
 71
    5
  3
Standard
 53
0
210
0
220
0
230
1
100
AcDbAlignedDimension
 13
57.50000000000027
 23
3.000000000000008
 33
0
 14
80.50000000000054
 24
3.000000000000011
 34
0
100
AcDbRotatedDimension
  0
DIMENSION
  5
1CF
100
AcDbEntity
  8
dimensions
  6
ByLayer
 62
  256
370
   -1
100
AcDbDimension
  2
*D20
 10
106
 20
-10
 30
0
 11
98.25000000000027
 21
-6
 31
0
 70
   32
 71
    5
  3
Standard
 53
0
210
0
220
0
230
1
100
AcDbAlignedDimension
 13
90.50000000000054
 23
3.000000000000013
 33
0
 14
106
 24
3.000000000000018
 34
0
100
AcDbRotatedDimension
  0
DIMENSION
  5
1D0
100
AcDbEntity
  8
dimensions
  6
ByLayer
 62
  256
370
   -1
100
AcDbDimension
  2
*D21
 10
144
 20
-10
 30
0
 11
137.5
 21
-6
 31
0
 70
   32
 71
    5
  3
Standard
 53
0
210
0
220
0
230
1
100
AcDbAlignedDimension
 13
131
 23
3
 33
0
 14
144
 24
3
 34
0
100
AcDbRotatedDimension
  0
DIMENSION
  5
1D1
100
AcDbEntity
  8
dimensions
  6
ByLayer
 62
  256
370
   -1
100
AcDbDimension
  2
*D22
 10
181.0000000000003
 20
-10
 30
0
 11
175.0000000000002
 21
-6
 31
0
 70
   32
 71
    5
  3
Standard
 53
0
210
0
220
0
230
1
100
AcDbAlignedDimension
 13
169
 23
3
 33
0
 14
181.0000000000003
 24
3.000000000000028
 34
0
100
AcDbRotatedDimension
  0
DIMENSION
  5
1D2
100
AcDbEntity
  8
dimensions
  6
ByLayer
 62
  256
370
   -1
100
AcDbDimension
  2
*D23
 10
290.5
 20
-60
 30
0
 11
275.25
 21
-56
 31
0
 70
   32
 71
    5
  3
Standard
 53
0
210
0
220
0
230
1
100
AcDbAlignedDimension
 13
260
 23
-96.99999999999999
 33
0
 14
290.5
 24
-81
 34
0
100
AcDbRotatedDimension
  0
DIMENSION
  5
1D3
100
AcDbEntity
  8
dimensions
  6
ByLayer
 62
  256
370
   -1
100
AcDbDimension
  2
*D24
 10
300
 20
-60
 30
0
 11
294.5
 21
-56
 31
0
 70
   32
 71
    5
 72
    0
  3
Standard
 53
0
210
0
220
0
230
1
100
AcDbAlignedDimension
 13
290.5
 23
-81
 33
0
 14
298.5
 24
-81
 34
0
100
AcDbRotatedDimension
  0
DIMENSION
  5
1D4
100
AcDbEntity
  8
dimensions
  6
ByLayer
 62
  256
370
   -1
100
AcDbDimension
  2
*D25
 10
329
 20
-60
 30
0
 11
313.75
 21
-56
 31
0
 70
   32
 71
    5
  3
Standard
 53
0
210
0
220
0
230
1
100
AcDbAlignedDimension
 13
298.5
 23
-81
 33
0
 14
329
 24
-97
 34
0
100
AcDbRotatedDimension
  0
DIMENSION
  5
1D5
100
AcDbEntity
  8
dimensions
  6
ByLayer
 62
  256
370
   -1
100
AcDbDimension
  2
*D26
 10
250
 20
34.99999999999999
 30
0
 11
266.4215728752538
 21
57.0784271247462
 31
0
 70
   33
 71
    5
  3
Standard
 53
0
210
0
220
0
230
1
100
AcDbAlignedDimension
 13
294.5
 23
67.50000000000006
 33
0
 14
256
 24
29
 34
0
  0
DIMENSION
  5
1D6
100
AcDbEntity
  8
dimensions
  6
ByLayer
 62
  256
370
   -1
100
AcDbDimension
  2
*D27
 10
339
 20
35.00000000000001
 30
0
 11
322.5784271247462
 21
57.07842712474623
 31
0
 70
   33
 71
    5
 72
    0
  3
Standard
 53
0
210
0
220
0
230
1
100
AcDbAlignedDimension
 13
294.4999999999999
 23
67.50000000000006
 33
0
 14
333
 24
28.99999999999999
 34
0
  0
DIMENSION
  5
1D7
100
AcDbEntity
  8
dimensions
  6
ByLayer
 62
  256
370
   -1
100
AcDbDimension
  2
*D28
 10
341
 20
25
 30
0
 11
335
 21
29
 31
0
 70
   32
 71
    5
  3
Standard
 53
0
210
0
220
0
230
1
100
AcDbAlignedDimension
 13
329
 23
33
 33
0
 14
333
 24
29
 34
0
100
AcDbRotatedDimension
  0
LINE
  5
1D8
100
AcDbEntity
  8
0
  6
ByLayer
 62
  256
370
   -1
100
AcDbLine
 10
329
 20
11
 11
340
 21
11
  0
LWPOLYLINE
  5
1D9
100
AcDbEntity
  8
windoors
  6
ByLayer
 62
  256
370
   -1
100
AcDbPolyline
 90
    4
 70
    1
 43
0
 10
305.8
 20
19.2
 10
309.1
 20
19.2
 10
309.1
 20
11.9
 10
305.8
 20
11.9
  0
LWPOLYLINE
  5
1DA
100
AcDbEntity
  8
windoors
  6
ByLayer
 62
  256
370
   -1
100
AcDbPolyline
 90
    4
 70
    1
 43
0
 10
309.9
 20
19.2
 10
313.2
 20
19.2
 10
313.2
 20
11.9
 10
309.9
 20
11.9
  0
LWPOLYLINE
  5
1DB
100
AcDbEntity
  8
windoors
  6
ByLayer
 62
  256
370
   -1
100
AcDbPolyline
 90
    4
 70
    1
 43
0
 10
275.8
 20
19.2
 10
279.1
 20
19.2
 10
279.1
 20
11.9
 10
275.8
 20
11.9
  0
LWPOLYLINE
  5
1DC
100
AcDbEntity
  8
windoors
  6
ByLayer
 62
  256
370
   -1
100
AcDbPolyline
 90
    4
 70
    1
 43
0
 10
279.9
 20
19.2
 10
283.2
 20
19.2
 10
283.2
 20
11.9
 10
279.9
 20
11.9
  0
LINE
  5
1DD
100
AcDbEntity
  8
windoors
  6
ByLayer
 62
  256
370
   -1
100
AcDbLine
 10
305.5
 20
11.3
 11
313.5
 21
11.3
  0
LINE
  5
1DE
100
AcDbEntity
  8
windoors
  6
ByLayer
 62
  256
370
   -1
100
AcDbLine
 10
275.5
 20
11.3
 11
283.5
 21
11.3
  0
DIMENSION
  5
1DF
100
AcDbEntity
  8
dimensions
  6
ByLayer
 62
  256
370
   -1
100
AcDbDimension
  2
*D29
 10
329
 20
-20
 30
0
 11
294.5
 21
-16
 31
0
 70
   32
 71
    5
 72
    0
  3
Standard
 53
0
210
0
220
0
230
1
100
AcDbAlignedDimension
 13
260
 23
0
 33
0
 14
329
 24
0
 34
0
100
AcDbRotatedDimension
  0
DIMENSION
  5
1E0
100
AcDbEntity
  8
dimensions
  6
ByLayer
 62
  256
370
   -1
100
AcDbDimension
  2
*D30
 10
313.5
 20
-10
 30
0
 11
321.25
 21
-6
 31
0
 70
   32
 71
    5
  3
Standard
 53
0
210
0
220
0
230
1
100
AcDbAlignedDimension
 13
329
 23
0
 33
0
 14
313.5
 24
11
 34
0
100
AcDbRotatedDimension
  0
DIMENSION
  5
1E1
100
AcDbEntity
  8
dimensions
  6
ByLayer
 62
  256
370
   -1
100
AcDbDimension
  2
*D31
 10
305.5
 20
-10
 30
0
 11
309.5
 21
-6
 31
0
 70
   32
 71
    5
  3
Standard
 53
0
210
0
220
0
230
1
100
AcDbAlignedDimension
 13
313.5000000000001
 23
11
 33
0
 14
305.5
 24
11
 34
0
100
AcDbRotatedDimension
  0
DIMENSION
  5
1E2
100
AcDbEntity
  8
dimensions
  6
ByLayer
 62
  256
370
   -1
100
AcDbDimension
  2
*D32
 10
275.5
 20
-10
 30
0
 11
279.5
 21
-6
 31
0
 70
   32
 71
    5
  3
Standard
 53
0
210
0
220
0
230
1
100
AcDbAlignedDimension
 13
283.5
 23
11
 33
0
 14
275.5
 24
11
 34
0
100
AcDbRotatedDimension
  0
DIMENSION
  5
1E3
100
AcDbEntity
  8
dimensions
  6
ByLayer
 62
  256
370
   -1
100
AcDbDimension
  2
*D33
 10
260
 20
-10
 30
0
 11
267.75
 21
-6
 31
0
 70
   32
 71
    5
  3
Standard
 53
0
210
0
220
0
230
1
100
AcDbAlignedDimension
 13
275.5
 23
11
 33
0
 14
260
 24
3
 34
0
100
AcDbRotatedDimension
  0
DIMENSION
  5
1E4
100
AcDbEntity
  8
dimensions
  6
ByLayer
 62
  256
370
   -1
100
AcDbDimension
  2
*D34
 10
283.5
 20
-10
 30
0
 11
294.5
 21
-6
 31
0
 70
   32
  1
<>*
 71
    5
  3
Standard
 53
0
210
0
220
0
230
1
100
AcDbAlignedDimension
 13
305.5
 23
11
 33
0
 14
283.5
 24
11
 34
0
100
AcDbRotatedDimension
  0
LINE
  5
1E5
100
AcDbEntity
  8
0
  6
ByLayer
 62
  256
370
   -1
100
AcDbLine
 10
279.5
 20
10
 11
279.5
 21
26
  0
LWPOLYLINE
  5
1E6
100
AcDbEntity
  8
wall
  6
ByLayer
 62
  256
370
   -1
100
AcDbPolyline
 90
    4
 70
    1
 43
0
 10
313.4999999999999
 20
23.77000000000202
 42
0.1824999999999954
 10
305.4999999999999
 20
23.77000000000203
 10
305.5
 20
11
 10
313.5
 20
11
  0
LWPOLYLINE
  5
1E7
100
AcDbEntity
  8
wall
  6
ByLayer
 62
  256
370
   -1
100
AcDbPolyline
 90
    4
 70
    1
 43
0
 10
283.4999999999999
 20
23.77000000000202
 42
0.1824999999999954
 10
275.4999999999999
 20
23.77000000000203
 10
275.5
 20
11
 10
283.5
 20
11
  0
LWPOLYLINE
  5
1E8
100
AcDbEntity
  8
windoors
  6
ByLayer
 62
  256
370
   -1
100
AcDbPolyline
 90
    4
 70
    1
 43
0
 10
313.4999999999999
 20
23.77000000000202
 42
0.1824999999999954
 10
305.4999999999999
 20
23.77000000000203
 10
305.5
 20
11
 10
313.5
 20
11
  0
LWPOLYLINE
  5
1E9
100
AcDbEntity
  8
windoors
  6
ByLayer
 62
  256
370
   -1
100
AcDbPolyline
 90
    4
 70
    1
 43
0
 10
305.8
 20
23.47000000000204
 10
313.1999999999999
 20
23.47000000000204
 10
313.2
 20
20
 10
305.8
 20
20
  0
LWPOLYLINE
  5
1EA
100
AcDbEntity
  8
windoors
  6
ByLayer
 62
  256
370
   -1
100
AcDbPolyline
 90
    4
 70
    1
 43
0
 10
283.4999999999999
 20
23.77000000000202
 42
0.1824999999999954
 10
275.4999999999999
 20
23.77000000000203
 10
275.5
 20
11
 10
283.5
 20
11
  0
LWPOLYLINE
  5
1EB
100
AcDbEntity
  8
windoors
  6
ByLayer
 62
  256
370
   -1
100
AcDbPolyline
 90
    4
 70
    1
 43
0
 10
275.8
 20
23.47000000000204
 10
283.1999999999999
 20
23.47000000000204
 10
283.2
 20
20
 10
275.8
 20
20
  0
ENDSEC
  0
SECTION
  2
OBJECTS
  0
DICTIONARY
  5
C
330
0
100
AcDbDictionary
281
    1
  3
ACAD_GROUP
350
D
  0
DICTIONARY
  5
D
330
C
100
AcDbDictionary
281
    1
  0
ENDSEC
  0
EOF
