999
dxfrw 0.6.3
  0
SECTION
  2
HEADER
  9
$ACADVER
  1
AC1021
  9
$DWGCODEPAGE
  3
ANSI_1252
  9
$INSBASE
 10
0
 20
0
 30
0
  9
$EXTMIN
 10
-65
 20
-52.6
 30
0
  9
$EXTMAX
 10
289.5
 20
285
 30
0
  9
$LIMMIN
 10
0
 20
0
  9
$LIMMAX
 10
420
 20
297
  9
$ORTHOMODE
 70
    0
  9
$REGENMODE
 70
    1
  9
$FILLMODE
 70
    1
  9
$QTEXTMODE
 70
    0
  9
$MIRRTEXT
 70
    0
  9
$LTSCALE
 40
1
  9
$ATTMODE
 70
    0
  9
$TEXTSIZE
 40
2.5
  9
$TRACEWID
 40
15.68
  9
$TEXTSTYLE
  7
STANDARD
  9
$CLAYER
  8
rozmir
  9
$CELTYPE
  6
BYLAYER
  9
$CECOLOR
 62
  256
  9
$CELTSCALE
 40
1
  9
$DISPSILH
 70
    0
  9
$DIMSCALE
 40
1
  9
$DIMASZ
 40
5
  9
$DIMEXO
 40
1
  9
$DIMDLI
 40
3.75
  9
$DIMRND
 40
0
  9
$DIMDLE
 40
0
  9
$DIMEXE
 40
2
  9
$DIMTP
 40
0
  9
$DIMTM
 40
0
  9
$DIMTXT
 40
4
  9
$DIMCEN
 40
2.5
  9
$DIMTSZ
 40
0
  9
$DIMTOL
 70
    0
  9
$DIMLIM
 70
    0
  9
$DIMTIH
 70
    0
  9
$DIMTOH
 70
    0
  9
$DIMSE1
 70
    0
  9
$DIMSE2
 70
    0
  9
$DIMTAD
 70
    1
  9
$DIMZIN
 70
    8
  9
$DIMBLK
  1

  9
$DIMASO
 70
    1
  9
$DIMSHO
 70
    1
  9
$DIMPOST
  1

  9
$DIMAPOST
  1

  9
$DIMALT
 70
    0
  9
$DIMALTD
 70
    3
  9
$DIMALTF
 40
0.03937
  9
$DIMLFAC
 40
1
  9
$DIMTOFL
 70
    1
  9
$DIMTVP
 40
0
  9
$DIMTIX
 70
    0
  9
$DIMSOXD
 70
    0
  9
$DIMSAH
 70
    0
  9
$DIMBLK1
  1

  9
$DIMBLK2
  1

  9
$DIMSTYLE
  2
STANDARD
  9
$DIMCLRD
 70
    0
  9
$DIMCLRE
 70
    0
  9
$DIMCLRT
 70
    0
  9
$DIMTFAC
 40
1
  9
$DIMGAP
 40
1
  9
$DIMJUST
 70
    0
  9
$DIMSD1
 70
    0
  9
$DIMSD2
 70
    0
  9
$DIMTOLJ
 70
    0
  9
$DIMTZIN
 70
    8
  9
$DIMALTZ
 70
    0
  9
$DIMALTTZ
 70
    0
  9
$DIMUPT
 70
    0
  9
$DIMDEC
 70
    1
  9
$DIMTDEC
 70
    2
  9
$DIMALTU
 70
    2
  9
$DIMALTTD
 70
    3
  9
$DIMTXSTY
  7
standard
  9
$DIMAUNIT
 70
    0
  9
$DIMADEC
 70
    0
  9
$DIMALTRND
 40
0
  9
$DIMAZIN
 70
    0
  9
$DIMDSEP
 70
   44
  9
$DIMATFIT
 70
    3
  9
$DIMFRAC
 70
    0
  9
$DIMLDRBLK
  1
STANDARD
  9
$DIMLUNIT
 70
    2
  9
$DIMLWD
 70
   -2
  9
$DIMLWE
 70
   -2
  9
$DIMTMOVE
 70
    0
  9
$DIMFXL
 40
1
  9
$DIMFXLON
 70
    0
  9
$DIMJOGANG
 40
0.7854
  9
$DIMTFILL
 70
    0
  9
$DIMTFILLCLR
 70
    0
  9
$DIMARCSYM
 70
    0
  9
$DIMLTYPE
  6

  9
$DIMLTEX1
  6

  9
$DIMLTEX2
  6

  9
$LUNITS
 70
    2
  9
$LUPREC
 70
    2
  9
$SKETCHINC
 40
1
  9
$FILLETRAD
 40
0
  9
$AUNITS
 70
    0
  9
$AUPREC
 70
    2
  9
$MENU
  1
.
  9
$ELEVATION
 40
0
  9
$PELEVATION
 40
0
  9
$THICKNESS
 40
0
  9
$LIMCHECK
 70
    0
  9
$CHAMFERA
 40
0
  9
$CHAMFERB
 40
0
  9
$CHAMFERC
 40
0
  9
$CHAMFERD
 40
0
  9
$SKPOLY
 70
    0
  9
$USRTIMER
 70
    1
  9
$ANGBASE
 50
0
  9
$ANGDIR
 70
    0
  9
$PDMODE
 70
   34
  9
$PDSIZE
 40
0
  9
$PLINEWID
 40
0
  9
$SPLFRAME
 70
    0
  9
$SPLINETYPE
 70
    2
  9
$SPLINESEGS
 70
    8
  9
$HANDSEED
  5
20000
  9
$SURFTAB1
 70
    6
  9
$SURFTAB2
 70
    6
  9
$SURFTYPE
 70
    6
  9
$SURFU
 70
    6
  9
$SURFV
 70
    6
  9
$UCSBASE
  2

  9
$UCSNAME
  2

  9
$UCSORG
 10
0
 20
0
 30
0
  9
$UCSXDIR
 10
1
 20
0
 30
0
  9
$UCSYDIR
 10
0
 20
1
 30
0
  9
$UCSORTHOREF
  2

  9
$UCSORTHOVIEW
 70
    0
  9
$UCSORGTOP
 10
0
 20
0
 30
0
  9
$UCSORGBOTTOM
 10
0
 20
0
 30
0
  9
$UCSORGLEFT
 10
0
 20
0
 30
0
  9
$UCSORGRIGHT
 10
0
 20
0
 30
0
  9
$UCSORGFRONT
 10
0
 20
0
 30
0
  9
$UCSORGBACK
 10
0
 20
0
 30
0
  9
$PUCSBASE
  2

  9
$PUCSNAME
  2

  9
$PUCSORG
 10
0
 20
0
 30
0
  9
$PUCSXDIR
 10
1
 20
0
 30
0
  9
$PUCSYDIR
 10
0
 20
1
 30
0
  9
$PUCSORTHOREF
  2

  9
$PUCSORTHOVIEW
 70
    0
  9
$PUCSORGTOP
 10
0
 20
0
 30
0
  9
$PUCSORGBOTTOM
 10
0
 20
0
 30
0
  9
$PUCSORGLEFT
 10
0
 20
0
 30
0
  9
$PUCSORGRIGHT
 10
0
 20
0
 30
0
  9
$PUCSORGFRONT
 10
0
 20
0
 30
0
  9
$PUCSORGBACK
 10
0
 20
0
 30
0
  9
$USERI1
 70
    0
  9
$USERI2
 70
    0
  9
$USERI3
 70
    0
  9
$USERI4
 70
    0
  9
$USERI5
 70
    0
  9
$USERR1
 40
0
  9
$USERR2
 40
0
  9
$USERR3
 40
0
  9
$USERR4
 40
0
  9
$USERR5
 40
0
  9
$WORLDVIEW
 70
    1
  9
$SHADEDGE
 70
    3
  9
$SHADEDIF
 70
   70
  9
$TILEMODE
 70
    1
  9
$MAXACTVP
 70
   64
  9
$PINSBASE
 10
7.1
 20
13
 30
0
  9
$PLIMCHECK
 70
    0
  9
$PEXTMIN
 10
0
 20
0
 30
0
  9
$PEXTMAX
 10
0
 20
0
 30
0
  9
$GRIDMODE
 70
    1
  9
$SNAPSTYLE
 70
    0
  9
$GRIDUNIT
 10
0
 20
0
  9
$PLIMMIN
 10
0
 20
0
  9
$PLIMMAX
 10
29.7
 20
21
  9
$UNITMODE
 70
    0
  9
$VISRETAIN
 70
    1
  9
$PLINEGEN
 70
    0
  9
$PSLTSCALE
 70
    1
  9
$TREEDEPTH
 70
 3020
  9
$CMLSTYLE
  2
Standard
  9
$CMLJUST
 70
    0
  9
$CMLSCALE
 40
20
  9
$PROXYGRAPHICS
 70
    1
  9
$MEASUREMENT
 70
    1
  9
$CELWEIGHT
370
   -1
  9
$ENDCAPS
280
    0
  9
$JOINSTYLE
280
    0
  9
$LWDISPLAY
290
    0
  9
$INSUNITS
 70
    5
  9
$HYPERLINKBASE
  1

  9
$STYLESHEET
  1

  9
$XEDIT
290
    1
  9
$CEPSNTYPE
380
    0
  9
$PSTYLEMODE
290
    1
  9
$EXTNAMES
290
    1
  9
$PSVPSCALE
 40
0.125
  9
$OLESTARTUP
290
    0
  9
$SORTENTS
280
  127
  9
$INDEXCTL
280
    0
  9
$HIDETEXT
280
    1
  9
$XCLIPFRAME
290
    0
  9
$HALOGAP
280
    0
  9
$OBSCOLOR
 70
  257
  9
$OBSLTYPE
280
    0
  9
$INTERSECTIONDISPLAY
280
    0
  9
$INTERSECTIONCOLOR
 70
  257
  9
$DIMASSOC
280
    1
  9
$PROJECTNAME
  1

  9
$CAMERADISPLAY
290
    0
  9
$LENSLENGTH
 40
50
  9
$CAMERAHEIGHT
 40
0
  9
$STEPSPERSEC
 40
2
  9
$STEPSIZE
 40
50
  9
$3DDWFPREC
 40
2
  9
$PSOLWIDTH
 40
5
  9
$PSOLHEIGHT
 40
80
  9
$LOFTANG1
 40
1.570796326794897
  9
$LOFTANG2
 40
1.570796326794897
  9
$LOFTMAG1
 40
0
  9
$LOFTMAG2
 40
0
  9
$LOFTPARAM
 70
    7
  9
$LOFTNORMALS
280
    1
  9
$LATITUDE
 40
1
  9
$LONGITUDE
 40
1
  9
$NORTHDIRECTION
 40
0
  9
$TIMEZONE
 70
-8000
  9
$LIGHTGLYPHDISPLAY
280
    1
  9
$TILEMODELIGHTSYNCH
280
    1
  9
$SOLIDHIST
280
    1
  9
$SHOWHIST
280
    1
  9
$DWFFRAME
280
    2
  9
$DGNFRAME
280
    0
  9
$REALWORLDSCALE
290
    1
  9
$INTERFERECOLOR
 62
    1
  9
$CSHADOW
280
    0
  9
$SHADOWPLANELOCATION
 40
0
  0
ENDSEC
  0
SECTION
  2
CLASSES
  0
ENDSEC
  0
SECTION
  2
TABLES
  0
TABLE
  2
VPORT
  5
8
330
0
100
AcDbSymbolTable
 70
    1
  0
VPORT
  5
31
330
2
100
AcDbSymbolTableRecord
100
AcDbViewportTableRecord
  2
*ACTIVE
 70
    0
 10
0
 20
0
 11
1
 21
1
 12
52.27924879352537
 22
143.1308023622473
 13
0
 23
0
 14
10
 24
10
 15
10
 25
10
 16
0
 26
0
 36
1
 17
0
 27
0
 37
0
 40
75.07823608029335
 41
1.695412844036697
 42
50
 43
0
 44
0
 50
0
 51
0
 71
    0
 72
  100
 73
    1
 74
    3
 75
    0
 76
    1
 77
    0
 78
    0
281
    0
 65
    1
110
0
120
0
130
0
111
1
121
0
131
0
112
0
122
1
132
0
 79
    0
146
0
348
10020
 60
    7
 61
    5
292
1
282
    1
141
0
142
0
 63
  250
421
3358443
  0
ENDTAB
  0
TABLE
  2
LTYPE
  5
5
330
0
100
AcDbSymbolTable
 70
    4
  0
LTYPE
  5
14
330
5
100
AcDbSymbolTableRecord
100
AcDbLinetypeTableRecord
  2
ByBlock
 70
    0
  3

 72
   65
 73
    0
 40
0
  0
LTYPE
  5
15
330
5
100
AcDbSymbolTableRecord
100
AcDbLinetypeTableRecord
  2
ByLayer
 70
    0
  3

 72
   65
 73
    0
 40
0
  0
LTYPE
  5
16
330
5
100
AcDbSymbolTableRecord
100
AcDbLinetypeTableRecord
  2
Continuous
 70
    0
  3
Solid line
 72
   65
 73
    0
 40
0
  0
LTYPE
  5
32
330
5
100
AcDbSymbolTableRecord
100
AcDbLinetypeTableRecord
  2
DOT
 70
    0
  3
Dot . . . . . . . . . . . . . . . . . . . . . .
 72
   65
 73
    2
 40
6.35
 49
0
 74
    0
 49
-6.35
 74
    0
  0
LTYPE
  5
33
330
5
100
AcDbSymbolTableRecord
100
AcDbLinetypeTableRecord
  2
DOTTINY
 70
    0
  3
Dot (.15x) .....................................
 72
   65
 73
    2
 40
0.9525
 49
0
 74
    0
 49
-0.9525
 74
    0
  0
LTYPE
  5
34
330
5
100
AcDbSymbolTableRecord
100
AcDbLinetypeTableRecord
  2
DOT2
 70
    0
  3
Dot (.5x) .....................................
 72
   65
 73
    2
 40
3.175
 49
0
 74
    0
 49
-3.175
 74
    0
  0
LTYPE
  5
35
330
5
100
AcDbSymbolTableRecord
100
AcDbLinetypeTableRecord
  2
DOTX2
 70
    0
  3
Dot (2x) .  .  .  .  .  .  .  .  .  .  .  .  .
 72
   65
 73
    2
 40
12.7
 49
0
 74
    0
 49
-12.7
 74
    0
  0
LTYPE
  5
36
330
5
100
AcDbSymbolTableRecord
100
AcDbLinetypeTableRecord
  2
DASHED
 70
    0
  3
Dashed _ _ _ _ _ _ _ _ _ _ _ _ _ _ _ _ _
 72
   65
 73
    2
 40
19.05
 49
12.7
 74
    0
 49
-6.35
 74
    0
  0
LTYPE
  5
37
330
5
100
AcDbSymbolTableRecord
100
AcDbLinetypeTableRecord
  2
DASHEDTINY
 70
    0
  3
Dashed (.15x) _ _ _ _ _ _ _ _ _ _ _ _ _ _ _ _ _
 72
   65
 73
    2
 40
2.8575
 49
1.905
 74
    0
 49
-0.9525
 74
    0
  0
LTYPE
  5
38
330
5
100
AcDbSymbolTableRecord
100
AcDbLinetypeTableRecord
  2
DASHED2
 70
    0
  3
Dashed (.5x) _ _ _ _ _ _ _ _ _ _ _ _ _ _ _ _ _
 72
   65
 73
    2
 40
9.524999999999999
 49
6.35
 74
    0
 49
-3.175
 74
    0
  0
LTYPE
  5
39
330
5
100
AcDbSymbolTableRecord
100
AcDbLinetypeTableRecord
  2
DASHEDX2
 70
    0
  3
Dashed (2x) ____  ____  ____  ____  ____  ___
 72
   65
 73
    2
 40
38.09999999999999
 49
25.4
 74
    0
 49
-12.7
 74
    0
  0
LTYPE
  5
3A
330
5
100
AcDbSymbolTableRecord
100
AcDbLinetypeTableRecord
  2
DASHDOT
 70
    0
  3
Dash dot __ . __ . __ . __ . __ . __ . __ . __
 72
   65
 73
    4
 40
25.4
 49
12.7
 74
    0
 49
-6.35
 74
    0
 49
0
 74
    0
 49
-6.35
 74
    0
  0
LTYPE
  5
3B
330
5
100
AcDbSymbolTableRecord
100
AcDbLinetypeTableRecord
  2
DASHDOTTINY
 70
    0
  3
Dash dot (.15x) _._._._._._._._._._._._._._._.
 72
   65
 73
    4
 40
3.81
 49
1.905
 74
    0
 49
-0.9525
 74
    0
 49
0
 74
    0
 49
-0.9525
 74
    0
  0
LTYPE
  5
3C
330
5
100
AcDbSymbolTableRecord
100
AcDbLinetypeTableRecord
  2
DASHDOT2
 70
    0
  3
Dash dot (.5x) _._._._._._._._._._._._._._._.
 72
   65
 73
    4
 40
12.7
 49
6.35
 74
    0
 49
-3.175
 74
    0
 49
0
 74
    0
 49
-3.175
 74
    0
  0
LTYPE
  5
3D
330
5
100
AcDbSymbolTableRecord
100
AcDbLinetypeTableRecord
  2
DASHDOTX2
 70
    0
  3
Dash dot (2x) ____  .  ____  .  ____  .  ___
 72
   65
 73
    4
 40
50.8
 49
25.4
 74
    0
 49
-12.7
 74
    0
 49
0
 74
    0
 49
-12.7
 74
    0
  0
LTYPE
  5
3E
330
5
100
AcDbSymbolTableRecord
100
AcDbLinetypeTableRecord
  2
DIVIDE
 70
    0
  3
Divide ____ . . ____ . . ____ . . ____ . . ____
 72
   65
 73
    6
 40
31.75
 49
12.7
 74
    0
 49
-6.35
 74
    0
 49
0
 74
    0
 49
-6.35
 74
    0
 49
0
 74
    0
 49
-6.35
 74
    0
  0
LTYPE
  5
3F
330
5
100
AcDbSymbolTableRecord
100
AcDbLinetypeTableRecord
  2
DIVIDETINY
 70
    0
  3
Divide (.15x) __..__..__..__..__..__..__..__.._
 72
   65
 73
    6
 40
4.7625
 49
1.905
 74
    0
 49
-0.9525
 74
    0
 49
0
 74
    0
 49
-0.9525
 74
    0
 49
0
 74
    0
 49
-0.9525
 74
    0
  0
LTYPE
  5
40
330
5
100
AcDbSymbolTableRecord
100
AcDbLinetypeTableRecord
  2
DIVIDE2
 70
    0
  3
Divide (.5x) __..__..__..__..__..__..__..__.._
 72
   65
 73
    6
 40
15.875
 49
6.35
 74
    0
 49
-3.175
 74
    0
 49
0
 74
    0
 49
-3.175
 74
    0
 49
0
 74
    0
 49
-3.175
 74
    0
  0
LTYPE
  5
41
330
5
100
AcDbSymbolTableRecord
100
AcDbLinetypeTableRecord
  2
DIVIDEX2
 70
    0
  3
Divide (2x) ________  .  .  ________  .  .  _
 72
   65
 73
    6
 40
63.5
 49
25.4
 74
    0
 49
-12.7
 74
    0
 49
0
 74
    0
 49
-12.7
 74
    0
 49
0
 74
    0
 49
-12.7
 74
    0
  0
LTYPE
  5
42
330
5
100
AcDbSymbolTableRecord
100
AcDbLinetypeTableRecord
  2
BORDER
 70
    0
  3
Border __ __ . __ __ . __ __ . __ __ . __ __ .
 72
   65
 73
    6
 40
44.45
 49
12.7
 74
    0
 49
-6.35
 74
    0
 49
12.7
 74
    0
 49
-6.35
 74
    0
 49
0
 74
    0
 49
-6.35
 74
    0
  0
LTYPE
  5
43
330
5
100
AcDbSymbolTableRecord
100
AcDbLinetypeTableRecord
  2
BORDERTINY
 70
    0
  3
Border (.15x) __.__.__.__.__.__.__.__.__.__.__.
 72
   65
 73
    6
 40
6.6675
 49
1.905
 74
    0
 49
-0.9525
 74
    0
 49
1.905
 74
    0
 49
-0.9525
 74
    0
 49
0
 74
    0
 49
-0.9525
 74
    0
  0
LTYPE
  5
44
330
5
100
AcDbSymbolTableRecord
100
AcDbLinetypeTableRecord
  2
BORDER2
 70
    0
  3
Border (.5x) __.__.__.__.__.__.__.__.__.__.__.
 72
   65
 73
    6
 40
22.225
 49
6.35
 74
    0
 49
-3.175
 74
    0
 49
6.35
 74
    0
 49
-3.175
 74
    0
 49
0
 74
    0
 49
-3.175
 74
    0
  0
LTYPE
  5
45
330
5
100
AcDbSymbolTableRecord
100
AcDbLinetypeTableRecord
  2
BORDERX2
 70
    0
  3
Border (2x) ____  ____  .  ____  ____  .  ___
 72
   65
 73
    6
 40
88.89999999999999
 49
25.4
 74
    0
 49
-12.7
 74
    0
 49
25.4
 74
    0
 49
-12.7
 74
    0
 49
0
 74
    0
 49
-12.7
 74
    0
  0
LTYPE
  5
46
330
5
100
AcDbSymbolTableRecord
100
AcDbLinetypeTableRecord
  2
CENTER
 70
    0
  3
Center ____ _ ____ _ ____ _ ____ _ ____ _ ____
 72
   65
 73
    4
 40
50.8
 49
31.75
 74
    0
 49
-6.35
 74
    0
 49
6.35
 74
    0
 49
-6.35
 74
    0
  0
LTYPE
  5
47
330
5
100
AcDbSymbolTableRecord
100
AcDbLinetypeTableRecord
  2
CENTERTINY
 70
    0
  3
Center (.15x) ___ _ ___ _ ___ _ ___ _ ___ _ ___
 72
   65
 73
    4
 40
7.619999999999999
 49
4.7625
 74
    0
 49
-0.9525
 74
    0
 49
0.9525
 74
    0
 49
-0.9525
 74
    0
  0
LTYPE
  5
48
330
5
100
AcDbSymbolTableRecord
100
AcDbLinetypeTableRecord
  2
CENTER2
 70
    0
  3
Center (.5x) ___ _ ___ _ ___ _ ___ _ ___ _ ___
 72
   65
 73
    4
 40
28.575
 49
19.05
 74
    0
 49
-3.175
 74
    0
 49
3.175
 74
    0
 49
-3.175
 74
    0
  0
LTYPE
  5
49
330
5
100
AcDbSymbolTableRecord
100
AcDbLinetypeTableRecord
  2
CENTERX2
 70
    0
  3
Center (2x) ________  __  ________  __  _____
 72
   65
 73
    4
 40
101.6
 49
63.5
 74
    0
 49
-12.7
 74
    0
 49
12.7
 74
    0
 49
-12.7
 74
    0
  0
ENDTAB
  0
TABLE
  2
LAYER
  5
2
330
0
100
AcDbSymbolTable
 70
    1
  0
LAYER
  5
10
330
2
100
AcDbSymbolTableRecord
100
AcDbLayerTableRecord
  2
0
 70
    0
 62
    7
  6
CONTINUOUS
370
   -3
390
F
1001
LibreCad
1070
    1
  0
LAYER
  5
4A
330
2
100
AcDbSymbolTableRecord
100
AcDbLayerTableRecord
  2
body
 70
    0
 62
   56
420
8421376
  6
CONTINUOUS
370
   50
390
F
  0
LAYER
  5
4B
330
2
100
AcDbSymbolTableRecord
100
AcDbLayerTableRecord
  2
fasad
 70
    4
 62
    3
  6
CONTINUOUS
370
   50
390
F
  0
LAYER
  5
4C
330
2
100
AcDbSymbolTableRecord
100
AcDbLayerTableRecord
  2
list
 70
    4
 62
    2
  6
CONTINUOUS
370
   50
390
F
  0
LAYER
  5
4D
330
2
100
AcDbSymbolTableRecord
100
AcDbLayerTableRecord
  2
ramka
 70
    0
 62
  136
420
32896
  6
CONTINUOUS
370
   50
390
F
  0
LAYER
  5
4E
330
2
100
AcDbSymbolTableRecord
100
AcDbLayerTableRecord
  2
rozmir
 70
    0
 62
    4
  6
CONTINUOUS
370
   13
390
F
  0
LAYER
  5
4F
330
2
100
AcDbSymbolTableRecord
100
AcDbLayerTableRecord
  2
vorota
 70
    0
 62
   96
420
32768
  6
CONTINUOUS
370
   50
390
F
  0
ENDTAB
  0
TABLE
  2
STYLE
  5
3
330
0
100
AcDbSymbolTable
 70
    3
  0
STYLE
  5
50
330
2
100
AcDbSymbolTableRecord
100
AcDbTextStyleTableRecord
  2
Standard
 70
    0
 40
0
 41
1
 50
0
 71
    0
 42
1
  3
txt
  4

  0
ENDTAB
  0
TABLE
  2
VIEW
  5
6
330
0
100
AcDbSymbolTable
 70
    0
  0
ENDTAB
  0
TABLE
  2
UCS
  5
7
330
0
100
AcDbSymbolTable
 70
    0
  0
ENDTAB
  0
TABLE
  2
APPID
  5
9
330
0
100
AcDbSymbolTable
 70
    1
  0
APPID
  5
12
330
9
100
AcDbSymbolTableRecord
100
AcDbRegAppTableRecord
  2
ACAD
 70
    0
  0
APPID
  5
51
330
9
100
AcDbSymbolTableRecord
100
AcDbRegAppTableRecord
  2
LibreCad
 70
    0
  0
ENDTAB
  0
TABLE
  2
DIMSTYLE
  5
A
330
0
100
AcDbSymbolTable
 70
    1
100
AcDbDimStyleTable
 71
    1
  0
DIMSTYLE
105
52
330
A
100
AcDbSymbolTableRecord
100
AcDbDimStyleTableRecord
  2
Standard
 70
    0
 40
1
 41
5
 42
1
 43
0.38
 44
2
 45
0
 46
0
 47
0
 48
0
 49
1
140
4
141
0.09
142
0
143
25.4
144
1
145
0
146
1
147
1
148
0
 71
    0
 72
    0
 73
    0
 74
    1
 75
    0
 76
    0
 77
    0
 78
    8
 79
    0
170
    0
171
    2
172
    0
173
    0
174
    0
175
    0
176
    0
177
    0
178
    0
179
    0
271
    1
272
    4
273
    2
274
    2
275
    0
276
    0
277
    2
278
   44
279
    0
280
    0
281
    0
282
    0
283
    1
284
    0
285
    0
286
    0
288
    0
289
    3
340
standard
341

371
   -2
372
   -2
  0
ENDTAB
  0
TABLE
  2
BLOCK_RECORD
  5
1
330
0
100
AcDbSymbolTable
 70
    2
  0
BLOCK_RECORD
  5
1F
330
1
100
AcDbSymbolTableRecord
100
AcDbBlockTableRecord
  2
*Model_Space
 70
    0
280
    1
281
    0
  0
BLOCK_RECORD
  5
1E
330
1
100
AcDbSymbolTableRecord
100
AcDbBlockTableRecord
  2
*Paper_Space
 70
    0
280
    1
281
    0
  0
BLOCK_RECORD
  5
53
330
1
100
AcDbSymbolTableRecord
100
AcDbBlockTableRecord
  2
*D1
 70
    0
280
    1
281
    0
  0
BLOCK_RECORD
  5
56
330
1
100
AcDbSymbolTableRecord
100
AcDbBlockTableRecord
  2
*D4
 70
    0
280
    1
281
    0
  0
BLOCK_RECORD
  5
59
330
1
100
AcDbSymbolTableRecord
100
AcDbBlockTableRecord
  2
*D5
 70
    0
280
    1
281
    0
  0
BLOCK_RECORD
  5
5C
330
1
100
AcDbSymbolTableRecord
100
AcDbBlockTableRecord
  2
*D6
 70
    0
280
    1
281
    0
  0
BLOCK_RECORD
  5
5F
330
1
100
AcDbSymbolTableRecord
100
AcDbBlockTableRecord
  2
*D2
 70
    0
280
    1
281
    0
  0
BLOCK_RECORD
  5
62
330
1
100
AcDbSymbolTableRecord
100
AcDbBlockTableRecord
  2
*D7
 70
    0
280
    1
281
    0
  0
BLOCK_RECORD
  5
65
330
1
100
AcDbSymbolTableRecord
100
AcDbBlockTableRecord
  2
*D3
 70
    0
280
    1
281
    0
  0
BLOCK_RECORD
  5
68
330
1
100
AcDbSymbolTableRecord
100
AcDbBlockTableRecord
  2
*D10
 70
    0
280
    1
281
    0
  0
BLOCK_RECORD
  5
6B
330
1
100
AcDbSymbolTableRecord
100
AcDbBlockTableRecord
  2
*D8
 70
    0
280
    1
281
    0
  0
BLOCK_RECORD
  5
6E
330
1
100
AcDbSymbolTableRecord
100
AcDbBlockTableRecord
  2
*D9
 70
    0
280
    1
281
    0
  0
ENDTAB
  0
ENDSEC
  0
SECTION
  2
BLOCKS
  0
BLOCK
  5
20
330
1F
100
AcDbEntity
  8
0
100
AcDbBlockBegin
  2
*Model_Space
 70
    0
 10
0
 20
0
 30
0
  3
*Model_Space
  1

  0
ENDBLK
  5
21
330
1F
100
AcDbEntity
  8
0
100
AcDbBlockEnd
  0
BLOCK
  5
1C
330
1B
100
AcDbEntity
  8
0
100
AcDbBlockBegin
  2
*Paper_Space
 70
    0
 10
0
 20
0
 30
0
  3
*Paper_Space
  1

  0
ENDBLK
  5
1D
330
1F
100
AcDbEntity
  8
0
100
AcDbBlockEnd
  0
BLOCK
  5
54
330
53
100
AcDbEntity
  8
0
100
AcDbBlockBegin
  2
*D1
 70
    1
 10
0
 20
0
  3
*D1
  1

  0
LINE
  5
71
100
AcDbEntity
  8
rozmir
  6
ByBlock
 62
    0
370
   -2
100
AcDbLine
 10
-50.00000000000001
 20
-2
 11
-50
 21
199.2
  0
SOLID
  5
72
100
AcDbEntity
  8
rozmir
  6
ByBlock
 62
    0
370
   -2
100
AcDbTrace
 10
-50.00000000000001
 20
-2
 30
0
 11
-50.8325693155457
 21
3
 31
0
 12
-49.16743068445433
 22
3
 32
0
 13
-49.16743068445433
 23
3
 33
0
  0
SOLID
  5
73
100
AcDbEntity
  8
rozmir
  6
ByBlock
 62
    0
370
   -2
100
AcDbTrace
 10
-50
 20
199.2
 30
0
 11
-49.16743068445432
 21
194.2
 31
0
 12
-50.83256931554568
 22
194.2
 32
0
 13
-50.83256931554568
 23
194.2
 33
0
  0
MTEXT
  5
74
100
AcDbEntity
  8
rozmir
  6
CONTINUOUS
 62
    0
370
   -2
100
AcDbMText
 10
-53
 20
98.60000000000001
 30
0
 40
4
 41
11.77777777777778
 71
    5
 72
    1
  1
201,2
  7
standard
210
0
220
0
230
1
 50
90
 73
    2
 44
1
  0
LINE
  5
75
100
AcDbEntity
  8
rozmir
  6
ByBlock
 62
    0
370
   -2
100
AcDbLine
 10
-45.5
 20
-2
 11
-52.00000000000001
 21
-2
  0
LINE
  5
76
100
AcDbEntity
  8
rozmir
  6
ByBlock
 62
    0
370
   -2
100
AcDbLine
 10
-45.3
 20
199.2
 11
-52
 21
199.2
  0
ENDBLK
  5
55
330
53
100
AcDbEntity
  8
0
100
AcDbBlockEnd
  0
BLOCK
  5
57
330
56
100
AcDbEntity
  8
0
100
AcDbBlockBegin
  2
*D4
 70
    1
 10
0
 20
0
  3
*D4
  1

  0
LINE
  5
77
100
AcDbEntity
  8
rozmir
  6
ByBlock
 62
    0
370
   -2
100
AcDbLine
 10
103.3
 20
-30
 11
-3.400000000000002
 21
-30
  0
SOLID
  5
78
100
AcDbEntity
  8
rozmir
  6
ByBlock
 62
    0
370
   -2
100
AcDbTrace
 10
103.3
 20
-30
 30
0
 11
98.3
 21
-30.83256931554568
 31
0
 12
98.3
 22
-29.16743068445432
 32
0
 13
98.3
 23
-29.16743068445432
 33
0
  0
SOLID
  5
79
100
AcDbEntity
  8
rozmir
  6
ByBlock
 62
    0
370
   -2
100
AcDbTrace
 10
-3.400000000000002
 20
-30
 30
0
 11
1.599999999999998
 21
-29.16743068445432
 31
0
 12
1.599999999999998
 22
-30.83256931554568
 32
0
 13
1.599999999999998
 23
-30.83256931554568
 33
0
  0
MTEXT
  5
7A
100
AcDbEntity
  8
rozmir
  6
CONTINUOUS
 62
    0
370
   -2
100
AcDbMText
 10
49.95
 20
-27
 30
0
 40
4
 41
11.77777777777803
 71
    5
 72
    1
  1
106,7
  7
standard
210
0
220
0
230
1
 50
360
 73
    2
 44
1
  0
LINE
  5
7B
100
AcDbEntity
  8
rozmir
  6
ByBlock
 62
    0
370
   -2
100
AcDbLine
 10
103.3
 20
-48.8
 11
103.3
 21
-28
  0
LINE
  5
7C
100
AcDbEntity
  8
rozmir
  6
ByBlock
 62
    0
370
   -2
100
AcDbLine
 10
-3.400000000000002
 20
-48.8
 11
-3.400000000000002
 21
-28
  0
ENDBLK
  5
58
330
56
100
AcDbEntity
  8
0
100
AcDbBlockEnd
  0
BLOCK
  5
5A
330
59
100
AcDbEntity
  8
0
100
AcDbBlockBegin
  2
*D5
 70
    1
 10
0
 20
0
  3
*D5
  1

  0
LINE
  5
7D
100
AcDbEntity
  8
rozmir
  6
ByBlock
 62
    0
370
   -2
100
AcDbLine
 10
18.5
 20
280
 11
289.5
 21
280
  0
SOLID
  5
7E
100
AcDbEntity
  8
rozmir
  6
ByBlock
 62
    0
370
   -2
100
AcDbTrace
 10
18.5
 20
280
 30
0
 11
23.5
 21
280.8325693155457
 31
0
 12
23.5
 22
279.1674306844543
 32
0
 13
23.5
 23
279.1674306844543
 33
0
  0
SOLID
  5
7F
100
AcDbEntity
  8
rozmir
  6
ByBlock
 62
    0
370
   -2
100
AcDbTrace
 10
289.5
 20
280
 30
0
 11
284.5
 21
279.1674306844543
 31
0
 12
284.5
 22
280.8325693155457
 32
0
 13
284.5
 23
280.8325693155457
 33
0
  0
MTEXT
  5
80
100
AcDbEntity
  8
rozmir
  6
CONTINUOUS
 62
    0
370
   -2
100
AcDbMText
 10
154
 20
283
 30
0
 40
4
 41
7.111111111111111
 71
    5
 72
    1
  1
271
  7
standard
210
0
220
0
230
1
 50
0
 73
    2
 44
1
  0
LINE
  5
81
100
AcDbEntity
  8
rozmir
  6
ByBlock
 62
    0
370
   -2
100
AcDbLine
 10
18.5
 20
257
 11
18.5
 21
282
  0
LINE
  5
82
100
AcDbEntity
  8
rozmir
  6
ByBlock
 62
    0
370
   -2
100
AcDbLine
 10
289.5
 20
257
 11
289.5
 21
282
  0
ENDBLK
  5
5B
330
59
100
AcDbEntity
  8
0
100
AcDbBlockEnd
  0
BLOCK
  5
5D
330
5C
100
AcDbEntity
  8
0
100
AcDbBlockBegin
  2
*D6
 70
    1
 10
0
 20
0
  3
*D6
  1

  0
LINE
  5
83
100
AcDbEntity
  8
rozmir
  6
ByBlock
 62
    0
370
   -2
100
AcDbLine
 10
-9.999999999999986
 20
256
 11
-10
 21
-3.000000000000005
  0
SOLID
  5
84
100
AcDbEntity
  8
rozmir
  6
ByBlock
 62
    0
370
   -2
100
AcDbTrace
 10
-9.999999999999986
 20
256
 30
0
 11
-9.167430684454304
 21
251
 31
0
 12
-10.83256931554567
 22
251
 32
0
 13
-10.83256931554567
 23
251
 33
0
  0
SOLID
  5
85
100
AcDbEntity
  8
rozmir
  6
ByBlock
 62
    0
370
   -2
100
AcDbTrace
 10
-10
 20
-3.000000000000005
 30
0
 11
-10.83256931554568
 21
1.999999999999995
 31
0
 12
-9.167430684454319
 22
1.999999999999995
 32
0
 13
-9.167430684454319
 23
1.999999999999995
 33
0
  0
MTEXT
  5
86
100
AcDbEntity
  8
rozmir
  6
CONTINUOUS
 62
    0
370
   -2
100
AcDbMText
 10
-12.99999999999999
 20
126.5
 30
0
 40
4
 41
8.000000000000249
 71
    5
 72
    1
  1
259
  7
standard
210
0
220
0
230
1
 50
90
 73
    2
 44
1
  0
LINE
  5
87
100
AcDbEntity
  8
rozmir
  6
ByBlock
 62
    0
370
   -2
100
AcDbLine
 10
17.5
 20
256
 11
-11.99999999999999
 21
256
  0
LINE
  5
88
100
AcDbEntity
  8
rozmir
  6
ByBlock
 62
    0
370
   -2
100
AcDbLine
 10
17.5
 20
-3.000000000000007
 11
-12
 21
-3.000000000000005
  0
ENDBLK
  5
5E
330
5C
100
AcDbEntity
  8
0
100
AcDbBlockEnd
  0
BLOCK
  5
60
330
5F
100
AcDbEntity
  8
0
100
AcDbBlockBegin
  2
*D2
 70
    1
 10
0
 20
0
  3
*D2
  1

  0
LINE
  5
89
100
AcDbEntity
  8
rozmir
  6
ByBlock
 62
    0
370
   -2
100
AcDbLine
 10
-59.99999999999999
 20
203.3
 11
-60
 21
-1.999999999999999
  0
SOLID
  5
8A
100
AcDbEntity
  8
rozmir
  6
ByBlock
 62
    0
370
   -2
100
AcDbTrace
 10
-59.99999999999999
 20
203.3
 30
0
 11
-59.1674306844543
 21
198.3
 31
0
 12
-60.83256931554567
 22
198.3
 32
0
 13
-60.83256931554567
 23
198.3
 33
0
  0
SOLID
  5
8B
100
AcDbEntity
  8
rozmir
  6
ByBlock
 62
    0
370
   -2
100
AcDbTrace
 10
-60
 20
-1.999999999999999
 30
0
 11
-60.83256931554568
 21
3.000000000000001
 31
0
 12
-59.16743068445432
 22
3.000000000000001
 32
0
 13
-59.16743068445432
 23
3.000000000000001
 33
0
  0
MTEXT
  5
8C
100
AcDbEntity
  8
rozmir
  6
CONTINUOUS
 62
    0
370
   -2
100
AcDbMText
 10
-63
 20
100.65
 30
0
 40
4
 41
12.66666666666716
 71
    5
 72
    1
  1
205,3
  7
standard
210
0
220
0
230
1
 50
90
 73
    2
 44
1
  0
LINE
  5
8D
100
AcDbEntity
  8
rozmir
  6
ByBlock
 62
    0
370
   -2
100
AcDbLine
 10
-41.19999999999999
 20
203.3
 11
-61.99999999999999
 21
203.3
  0
LINE
  5
8E
100
AcDbEntity
  8
rozmir
  6
ByBlock
 62
    0
370
   -2
100
AcDbLine
 10
-45.5
 20
-2
 11
-62
 21
-1.999999999999999
  0
ENDBLK
  5
61
330
5F
100
AcDbEntity
  8
0
100
AcDbBlockEnd
  0
BLOCK
  5
63
330
62
100
AcDbEntity
  8
0
100
AcDbBlockBegin
  2
*D7
 70
    1
 10
0
 20
0
  3
*D7
  1

  0
LINE
  5
8F
100
AcDbEntity
  8
rozmir
  6
ByBlock
 62
    0
370
   -2
100
AcDbLine
 10
9.999999999999986
 20
-3
 11
10
 21
252
  0
SOLID
  5
90
100
AcDbEntity
  8
rozmir
  6
ByBlock
 62
    0
370
   -2
100
AcDbTrace
 10
9.999999999999986
 20
-3
 30
0
 11
9.167430684454306
 21
2
 31
0
 12
10.83256931554567
 22
2
 32
0
 13
10.83256931554567
 23
2
 33
0
  0
SOLID
  5
91
100
AcDbEntity
  8
rozmir
  6
ByBlock
 62
    0
370
   -2
100
AcDbTrace
 10
10
 20
252
 30
0
 11
10.83256931554568
 21
247
 31
0
 12
9.167430684454319
 22
247
 32
0
 13
9.167430684454319
 23
247
 33
0
  0
MTEXT
  5
92
100
AcDbEntity
  8
rozmir
  6
CONTINUOUS
 62
    0
370
   -2
100
AcDbMText
 10
6.999999999999993
 20
124.5
 30
0
 40
4
 41
8.000000000000497
 71
    5
 72
    1
  1
255
  7
standard
210
0
220
0
230
1
 50
90
 73
    2
 44
1
  0
LINE
  5
93
100
AcDbEntity
  8
rozmir
  6
ByBlock
 62
    0
370
   -2
100
AcDbLine
 10
20.3
 20
-3
 11
7.999999999999986
 21
-3
  0
LINE
  5
94
100
AcDbEntity
  8
rozmir
  6
ByBlock
 62
    0
370
   -2
100
AcDbLine
 10
20.3
 20
252
 11
8
 21
252
  0
ENDBLK
  5
64
330
62
100
AcDbEntity
  8
0
100
AcDbBlockEnd
  0
BLOCK
  5
66
330
65
100
AcDbEntity
  8
0
100
AcDbBlockBegin
  2
*D3
 70
    1
 10
0
 20
0
  3
*D3
  1

  0
LINE
  5
95
100
AcDbEntity
  8
rozmir
  6
ByBlock
 62
    0
370
   -2
100
AcDbLine
 10
0.6999999999999886
 20
-40
 11
99.20000000000002
 21
-40
  0
SOLID
  5
96
100
AcDbEntity
  8
rozmir
  6
ByBlock
 62
    0
370
   -2
100
AcDbTrace
 10
0.6999999999999886
 20
-40
 30
0
 11
5.699999999999989
 21
-39.16743068445432
 31
0
 12
5.699999999999989
 22
-40.83256931554568
 32
0
 13
5.699999999999989
 23
-40.83256931554568
 33
0
  0
SOLID
  5
97
100
AcDbEntity
  8
rozmir
  6
ByBlock
 62
    0
370
   -2
100
AcDbTrace
 10
99.20000000000002
 20
-40
 30
0
 11
94.20000000000002
 21
-40.83256931554568
 31
0
 12
94.20000000000002
 22
-39.16743068445432
 32
0
 13
94.20000000000002
 23
-39.16743068445432
 33
0
  0
MTEXT
  5
98
100
AcDbEntity
  8
rozmir
  6
CONTINUOUS
 62
    0
370
   -2
100
AcDbMText
 10
49.95
 20
-37
 30
0
 40
4
 41
9.555555555556051
 71
    5
 72
    1
  1
98,5
  7
standard
210
0
220
0
230
1
 50
0
 73
    2
 44
1
  0
LINE
  5
99
100
AcDbEntity
  8
rozmir
  6
ByBlock
 62
    0
370
   -2
100
AcDbLine
 10
0.6999999999999983
 20
-44.7
 11
0.6999999999999843
 21
-38
  0
LINE
  5
9A
100
AcDbEntity
  8
rozmir
  6
ByBlock
 62
    0
370
   -2
100
AcDbLine
 10
99.20000000000002
 20
-44.7
 11
99.20000000000002
 21
-38
  0
ENDBLK
  5
67
330
65
100
AcDbEntity
  8
0
100
AcDbBlockEnd
  0
BLOCK
  5
69
330
68
100
AcDbEntity
  8
0
100
AcDbBlockBegin
  2
*D10
 70
    1
 10
0
 20
0
  3
*D10
  1

  0
LINE
  5
9B
100
AcDbEntity
  8
rozmir
  6
ByBlock
 62
    0
370
   -2
100
AcDbLine
 10
286.5
 20
260
 11
21.5
 21
260
  0
SOLID
  5
9C
100
AcDbEntity
  8
rozmir
  6
ByBlock
 62
    0
370
   -2
100
AcDbTrace
 10
286.5
 20
260
 30
0
 11
281.5
 21
259.1674306844543
 31
0
 12
281.5
 22
260.8325693155457
 32
0
 13
281.5
 23
260.8325693155457
 33
0
  0
SOLID
  5
9D
100
AcDbEntity
  8
rozmir
  6
ByBlock
 62
    0
370
   -2
100
AcDbTrace
 10
21.5
 20
260
 30
0
 11
26.5
 21
260.8325693155457
 31
0
 12
26.5
 22
259.1674306844543
 32
0
 13
26.5
 23
259.1674306844543
 33
0
  0
MTEXT
  5
9E
100
AcDbEntity
  8
rozmir
  6
CONTINUOUS
 62
    0
370
   -2
100
AcDbMText
 10
154
 20
263
 30
0
 40
4
 41
8.000000000000497
 71
    5
 72
    1
  1
265
  7
standard
210
0
220
0
230
1
 50
360
 73
    2
 44
1
  0
LINE
  5
9F
100
AcDbEntity
  8
rozmir
  6
ByBlock
 62
    0
370
   -2
100
AcDbLine
 10
286.5
 20
253
 11
286.5
 21
262
  0
LINE
  5
A0
100
AcDbEntity
  8
rozmir
  6
ByBlock
 62
    0
370
   -2
100
AcDbLine
 10
21.5
 20
253
 11
21.5
 21
262
  0
ENDBLK
  5
6A
330
68
100
AcDbEntity
  8
0
100
AcDbBlockEnd
  0
BLOCK
  5
6C
330
6B
100
AcDbEntity
  8
0
100
AcDbBlockBegin
  2
*D8
 70
    1
 10
0
 20
0
  3
*D8
  1

  0
LINE
  5
A1
100
AcDbEntity
  8
rozmir
  6
ByBlock
 62
    0
370
   -2
100
AcDbLine
 10
1.567547902908613e-14
 20
254.0000000000001
 11
-6.123233995736759e-17
 21
-2.999999999999999
  0
SOLID
  5
A2
100
AcDbEntity
  8
rozmir
  6
ByBlock
 62
    0
370
   -2
100
AcDbTrace
 10
1.567547902908613e-14
 20
254.0000000000001
 30
0
 11
0.8325693155456964
 21
249.0000000000001
 31
0
 12
-0.8325693155456656
 22
249.0000000000001
 32
0
 13
-0.8325693155456656
 23
249.0000000000001
 33
0
  0
SOLID
  5
A3
100
AcDbEntity
  8
rozmir
  6
ByBlock
 62
    0
370
   -2
100
AcDbTrace
 10
-6.123233995736759e-17
 20
-2.999999999999999
 30
0
 11
-0.8325693155456801
 21
2.000000000000001
 31
0
 12
0.8325693155456817
 22
2.000000000000001
 32
0
 13
0.8325693155456817
 23
2.000000000000001
 33
0
  0
MTEXT
  5
A4
100
AcDbEntity
  8
rozmir
  6
CONTINUOUS
 62
    0
370
   -2
100
AcDbMText
 10
-2.999999999999992
 20
125.5000000000001
 30
0
 40
4
 41
8.000000000000249
 71
    5
 72
    1
  1
257
  7
standard
210
0
220
0
230
1
 50
90
 73
    2
 44
1
  0
LINE
  5
A5
100
AcDbEntity
  8
rozmir
  6
ByBlock
 62
    0
370
   -2
100
AcDbLine
 10
18.8
 20
254.0000000000001
 11
-1.999999999999984
 21
254.0000000000001
  0
LINE
  5
A6
100
AcDbEntity
  8
rozmir
  6
ByBlock
 62
    0
370
   -2
100
AcDbLine
 10
18.8
 20
-3
 11
-2
 21
-2.999999999999998
  0
ENDBLK
  5
6D
330
6B
100
AcDbEntity
  8
0
100
AcDbBlockEnd
  0
BLOCK
  5
6F
330
6E
100
AcDbEntity
  8
0
100
AcDbBlockBegin
  2
*D9
 70
    1
 10
0
 20
0
  3
*D9
  1

  0
LINE
  5
A7
100
AcDbEntity
  8
rozmir
  6
ByBlock
 62
    0
370
   -2
100
AcDbLine
 10
19.80000000000001
 20
270
 11
288.2
 21
270
  0
SOLID
  5
A8
100
AcDbEntity
  8
rozmir
  6
ByBlock
 62
    0
370
   -2
100
AcDbTrace
 10
19.80000000000001
 20
270
 30
0
 11
24.80000000000001
 21
270.8325693155457
 31
0
 12
24.80000000000001
 22
269.1674306844543
 32
0
 13
24.80000000000001
 23
269.1674306844543
 33
0
  0
SOLID
  5
A9
100
AcDbEntity
  8
rozmir
  6
ByBlock
 62
    0
370
   -2
100
AcDbTrace
 10
288.2
 20
270
 30
0
 11
283.2
 21
269.1674306844543
 31
0
 12
283.2
 22
270.8325693155457
 32
0
 13
283.2
 23
270.8325693155457
 33
0
  0
MTEXT
  5
AA
100
AcDbEntity
  8
rozmir
  6
CONTINUOUS
 62
    0
370
   -2
100
AcDbMText
 10
154
 20
273
 30
0
 40
4
 41
13.11111111111136
 71
    5
 72
    1
  1
268,4
  7
standard
210
0
220
0
230
1
 50
0
 73
    2
 44
1
  0
LINE
  5
AB
100
AcDbEntity
  8
rozmir
  6
ByBlock
 62
    0
370
   -2
100
AcDbLine
 10
19.8
 20
255.0000000000001
 11
19.80000000000001
 21
272
  0
LINE
  5
AC
100
AcDbEntity
  8
rozmir
  6
ByBlock
 62
    0
370
   -2
100
AcDbLine
 10
288.2
 20
255
 11
288.2
 21
272
  0
ENDBLK
  5
70
330
6E
100
AcDbEntity
  8
0
100
AcDbBlockEnd
  0
ENDSEC
  0
SECTION
  2
ENTITIES
  0
HATCH
  5
AD
100
AcDbEntity
  8
ramka
  6
ByLayer
 62
  256
370
   -1
100
AcDbHatch
 10
0
 20
0
 30
0
210
0
220
0
230
1
  2
gost_metal
 70
    0
 71
    0
 91
    1
 92
    0
 93
    9
 72
    1
 10
98.8
 20
-45.5
 11
98.8
 21
-50
 72
    1
 10
98.8
 20
-50
 11
103.3
 21
-50
 72
    1
 10
103.3
 20
-50
 11
103.3
 21
-49.8
 72
    1
 10
103.3
 20
-49.8
 11
103.1
 21
-49.6
 72
    1
 10
103.1
 20
-49.6
 11
99.50000000000001
 21
-49.6
 72
    1
 10
99.50000000000001
 20
-49.6
 11
99.20000000000002
 21
-49.3
 72
    1
 10
99.20000000000002
 20
-49.3
 11
99.20000000000002
 21
-45.7
 72
    1
 10
99.20000000000002
 20
-45.7
 11
99.00000000000001
 21
-45.5
 72
    1
 10
99.00000000000001
 20
-45.5
 11
98.8
 21
-45.5
 97
    0
 75
    0
 76
    1
 52
1.570796326794897
 41
0.1
 77
    0
 78
    0
 98
    0
  0
HATCH
  5
AE
100
AcDbEntity
  8
vorota
  6
ByLayer
 62
  256
370
   -1
100
AcDbHatch
 10
0
 20
0
 30
0
210
0
220
0
230
1
  2
gost_metal
 70
    0
 71
    0
 91
    1
 92
    0
 93
    9
 72
    1
 10
97.8
 20
-49.6
 11
98.10000000000002
 21
-49.3
 72
    1
 10
98.10000000000002
 20
-49.3
 11
98.10000000000002
 21
-45.7
 72
    1
 10
98.10000000000002
 20
-45.7
 11
98.3
 21
-45.5
 72
    1
 10
98.3
 20
-45.5
 11
98.50000000000001
 21
-45.5
 72
    1
 10
98.50000000000001
 20
-45.5
 11
98.50000000000001
 21
-50
 72
    1
 10
98.50000000000001
 20
-50
 11
94.00000000000001
 21
-50
 72
    1
 10
94.00000000000001
 20
-50
 11
94.00000000000001
 21
-49.8
 72
    1
 10
94.00000000000001
 20
-49.8
 11
94.20000000000002
 21
-49.6
 72
    1
 10
94.20000000000002
 20
-49.6
 11
97.8
 21
-49.6
 97
    0
 75
    0
 76
    1
 52
3.141592653589793
 41
0.1
 77
    0
 78
    0
 98
    0
  0
HATCH
  5
AF
100
AcDbEntity
  8
vorota
  6
ByLayer
 62
  256
370
   -1
100
AcDbHatch
 10
0
 20
0
 30
0
210
0
220
0
230
1
  2
gost_metal
 70
    0
 71
    0
 91
    1
 92
    0
 93
    9
 72
    1
 10
1.8
 20
-49.3
 11
1.8
 21
-45.7
 72
    1
 10
1.8
 20
-45.7
 11
1.600000000000002
 21
-45.5
 72
    1
 10
1.600000000000002
 20
-45.5
 11
1.400000000000001
 21
-45.5
 72
    1
 10
1.400000000000001
 20
-45.5
 11
1.400000000000001
 21
-50
 72
    1
 10
1.400000000000001
 20
-50
 11
5.9
 21
-50
 72
    1
 10
5.9
 20
-50
 11
5.9
 21
-49.8
 72
    1
 10
5.9
 20
-49.8
 11
5.700000000000001
 21
-49.6
 72
    1
 10
5.700000000000001
 20
-49.6
 11
2.099999999999999
 21
-49.6
 72
    1
 10
2.099999999999999
 20
-49.6
 11
1.8
 21
-49.3
 97
    0
 75
    0
 76
    1
 52
0
 41
0.1
 77
    0
 78
    0
 98
    0
  0
HATCH
  5
B0
100
AcDbEntity
  8
ramka
  6
ByLayer
 62
  256
370
   -1
100
AcDbHatch
 10
0
 20
0
 30
0
210
0
220
0
230
1
  2
gost_metal
 70
    0
 71
    0
 91
    1
 92
    0
 93
    8
 72
    1
 10
-3.4
 20
-50
 11
-3.4
 21
-49.8
 72
    1
 10
-3.4
 20
-49.8
 11
-3.2
 21
-49.6
 72
    1
 10
-3.2
 20
-49.6
 11
0.4000000000000008
 21
-49.6
 72
    1
 10
0.4000000000000008
 20
-49.6
 11
0.7000000000000014
 21
-49.3
 72
    1
 10
0.7000000000000014
 20
-49.3
 11
0.7000000000000014
 21
-48.5
 72
    1
 10
0.7000000000000014
 20
-48.5
 11
1.100000000000002
 21
-48.5
 72
    1
 10
1.100000000000002
 20
-48.5
 11
1.099999999999999
 21
-50
 72
    1
 10
1.099999999999999
 20
-50
 11
-3.4
 21
-50
 97
    0
 75
    0
 76
    1
 52
1.570796326794897
 41
0.1
 77
    0
 78
    0
 98
    0
  0
HATCH
  5
B1
100
AcDbEntity
  8
ramka
  6
ByLayer
 62
  256
370
   -1
100
AcDbHatch
 10
0
 20
0
 30
0
210
0
220
0
230
1
  2
gost_metal
 70
    0
 71
    0
 91
    1
 92
    0
 93
    9
 72
    1
 10
-40
 20
198.8
 11
-40
 21
203.3
 72
    1
 10
-40
 20
203.3
 11
-40.19999999999999
 21
203.3
 72
    1
 10
-40.19999999999999
 20
203.3
 11
-40.40000000000001
 21
203.1
 72
    1
 10
-40.40000000000001
 20
203.1
 11
-40.40000000000001
 21
199.5
 72
    1
 10
-40.40000000000001
 20
199.5
 11
-40.69999999999999
 21
199.2
 72
    1
 10
-40.69999999999999
 20
199.2
 11
-44.3
 21
199.2
 72
    1
 10
-44.3
 20
199.2
 11
-44.5
 21
199
 72
    1
 10
-44.5
 20
199
 11
-44.5
 21
198.8
 72
    1
 10
-44.5
 20
198.8
 11
-40
 21
198.8
 97
    0
 75
    0
 76
    1
 52
3.141592653589794
 41
0.1
 77
    0
 78
    0
 98
    0
  0
HATCH
  5
B2
100
AcDbEntity
  8
vorota
  6
ByLayer
 62
  256
370
   -1
100
AcDbHatch
 10
0
 20
0
 30
0
210
0
220
0
230
1
  2
gost_metal
 70
    0
 71
    0
 91
    1
 92
    0
 93
    9
 72
    1
 10
-40.69999999999999
 20
198.1
 11
-44.3
 21
198.1
 72
    1
 10
-44.3
 20
198.1
 11
-44.5
 21
198.3
 72
    1
 10
-44.5
 20
198.3
 11
-44.5
 21
198.5
 72
    1
 10
-44.5
 20
198.5
 11
-40
 21
198.5
 72
    1
 10
-40
 20
198.5
 11
-40
 21
194
 72
    1
 10
-40
 20
194
 11
-40.19999999999999
 21
194
 72
    1
 10
-40.19999999999999
 20
194
 11
-40.40000000000001
 21
194.2
 72
    1
 10
-40.40000000000001
 20
194.2
 11
-40.40000000000001
 21
197.8
 72
    1
 10
-40.40000000000001
 20
197.8
 11
-40.69999999999999
 21
198.1
 97
    0
 75
    0
 76
    1
 52
4.71238898038469
 41
0.1
 77
    0
 78
    0
 98
    0
  0
HATCH
  5
B3
100
AcDbEntity
  8
vorota
  6
ByLayer
 62
  256
370
   -1
100
AcDbHatch
 10
0
 20
0
 30
0
210
0
220
0
230
1
  2
gost_metal
 70
    0
 71
    0
 91
    1
 92
    0
 93
    9
 72
    1
 10
-40
 20
5.299999999999997
 11
-40.19999999999999
 21
5.299999999999997
 72
    1
 10
-40.19999999999999
 20
5.299999999999997
 11
-40.40000000000001
 21
5.099999999999994
 72
    1
 10
-40.40000000000001
 20
5.099999999999994
 11
-40.40000000000001
 21
1.499999999999986
 72
    1
 10
-40.40000000000001
 20
1.499999999999986
 11
-40.69999999999999
 21
1.199999999999989
 72
    1
 10
-40.69999999999999
 20
1.199999999999989
 11
-44.3
 21
1.199999999999989
 72
    1
 10
-44.3
 20
1.199999999999989
 11
-44.5
 21
0.9999999999999859
 72
    1
 10
-44.5
 20
0.9999999999999859
 11
-44.5
 21
0.7999999999999973
 72
    1
 10
-44.5
 20
0.7999999999999973
 11
-40
 21
0.7999999999999973
 72
    1
 10
-40
 20
0.7999999999999973
 11
-40
 21
5.299999999999997
 97
    0
 75
    0
 76
    1
 52
1.570796326794897
 41
0.1
 77
    0
 78
    0
 98
    0
  0
HATCH
  5
B4
100
AcDbEntity
  8
ramka
  6
ByLayer
 62
  256
370
   -1
100
AcDbHatch
 10
0
 20
0
 30
0
210
0
220
0
230
1
  2
gost_metal
 70
    0
 71
    0
 91
    1
 92
    0
 93
   16
 72
    1
 10
-40
 20
0.3
 11
-40
 21
-1.8
 72
    1
 10
-40
 20
-1.8
 11
-40.19999999999999
 21
-2
 72
    1
 10
-40.19999999999999
 20
-2
 11
-43.8
 21
-2
 72
    1
 10
-43.8
 20
-2
 11
-44
 21
-1.8
 72
    1
 10
-44
 20
-1.8
 11
-44
 21
0.2999999999999999
 72
    1
 10
-44
 20
0.2999999999999999
 11
-43.8
 21
0.4999999999999999
 72
    1
 10
-43.8
 20
0.4999999999999999
 11
-40.19999999999999
 21
0.4999999999999999
 72
    1
 10
-40.19999999999999
 20
0.4999999999999999
 11
-40
 21
0.3
 72
    1
 10
-43.7
 20
0.3000000000000002
 11
-40.30000000000001
 21
0.3000000000000002
 72
    1
 10
-40.30000000000001
 20
0.3000000000000002
 11
-40.19999999999999
 21
0.2000000000000001
 72
    1
 10
-40.19999999999999
 20
0.2000000000000001
 11
-40.19999999999999
 21
-1.7
 72
    1
 10
-40.19999999999999
 20
-1.7
 11
-40.30000000000001
 21
-1.8
 72
    1
 10
-40.30000000000001
 20
-1.8
 11
-43.7
 21
-1.8
 72
    1
 10
-43.7
 20
-1.8
 11
-43.8
 21
-1.7
 72
    1
 10
-43.8
 20
-1.7
 11
-43.8
 21
0.2000000000000001
 72
    1
 10
-43.8
 20
0.2000000000000001
 11
-43.7
 21
0.3000000000000002
 97
    0
 75
    0
 76
    1
 52
0
 41
0.1
 77
    0
 78
    0
 98
    0
  0
LWPOLYLINE
  5
B5
100
AcDbEntity
  8
ramka
  6
ByLayer
 62
  256
370
   -1
100
AcDbPolyline
 90
   10
 70
    0
 43
0
 10
-40
 20
198.8
 10
-40
 20
203.3
 10
-40.19999999999999
 20
203.3
 10
-40.40000000000001
 20
203.1
 10
-40.40000000000001
 20
199.5
 10
-40.69999999999999
 20
199.2
 10
-44.3
 20
199.2
 10
-44.5
 20
199
 10
-44.5
 20
198.8
 10
-40
 20
198.8
  0
LWPOLYLINE
  5
B6
100
AcDbEntity
  8
vorota
  6
ByLayer
 62
  256
370
   -1
100
AcDbPolyline
 90
   10
 70
    0
 43
0
 10
-40
 20
198.5
 10
-40
 20
194
 10
-40.19999999999999
 20
194
 10
-40.40000000000001
 20
194.2
 10
-40.40000000000001
 20
197.8
 10
-40.69999999999999
 20
198.1
 10
-44.3
 20
198.1
 10
-44.5
 20
198.3
 10
-44.5
 20
198.5
 10
-40
 20
198.5
  0
LWPOLYLINE
  5
B7
100
AcDbEntity
  8
vorota
  6
ByLayer
 62
  256
370
   -1
100
AcDbPolyline
 90
   10
 70
    0
 43
0
 10
-40
 20
0.7999999999999973
 10
-40
 20
5.299999999999997
 10
-40.19999999999999
 20
5.299999999999997
 10
-40.40000000000001
 20
5.099999999999994
 10
-40.40000000000001
 20
1.499999999999986
 10
-40.69999999999999
 20
1.199999999999989
 10
-44.3
 20
1.199999999999989
 10
-44.5
 20
0.9999999999999859
 10
-44.5
 20
0.7999999999999973
 10
-40
 20
0.7999999999999973
  0
LINE
  5
B8
100
AcDbEntity
  8
vorota
  6
ByLayer
 62
  256
370
   -1
100
AcDbLine
 10
-44.5
 20
0.9999999999999859
 11
-44.5
 21
198.3
  0
LINE
  5
B9
100
AcDbEntity
  8
vorota
  6
ByLayer
 62
  256
370
   -1
100
AcDbLine
 10
-40
 20
5.299999999999997
 11
-40
 21
194
  0
LINE
  5
BA
100
AcDbEntity
  8
vorota
  6
ByLayer
 62
  256
370
   -1
100
AcDbLine
 10
-40.40000000000001
 20
5.099999999999994
 11
-40.40000000000001
 21
194.2
  0
LWPOLYLINE
  5
BB
100
AcDbEntity
  8
list
  6
ByLayer
 62
  256
370
   -1
100
AcDbPolyline
 90
    4
 70
    1
 43
0
 10
-40
 20
200
 10
-39.80000000000001
 20
200
 10
-39.80000000000001
 20
0
 10
-40
 20
0
  0
LWPOLYLINE
  5
BC
100
AcDbEntity
  8
ramka
  6
ByLayer
 62
  256
370
   -1
100
AcDbPolyline
 90
    9
 70
    0
 43
0
 10
-43.8
 20
0.4999999999999999
 10
-40.19999999999999
 20
0.4999999999999999
 10
-40
 20
0.3
 10
-40
 20
-1.8
 10
-40.19999999999999
 20
-2
 10
-43.8
 20
-2
 10
-44
 20
-1.8
 10
-44
 20
0.2999999999999999
 10
-43.8
 20
0.4999999999999999
  0
LWPOLYLINE
  5
BD
100
AcDbEntity
  8
ramka
  6
ByLayer
 62
  256
370
   -1
100
AcDbPolyline
 90
    9
 70
    0
 43
0
 10
-43.7
 20
0.3000000000000002
 10
-40.30000000000001
 20
0.3000000000000002
 10
-40.19999999999999
 20
0.2000000000000001
 10
-40.19999999999999
 20
-1.7
 10
-40.30000000000001
 20
-1.8
 10
-43.7
 20
-1.8
 10
-43.8
 20
-1.7
 10
-43.8
 20
0.2000000000000001
 10
-43.7
 20
0.3000000000000002
  0
LWPOLYLINE
  5
BE
100
AcDbEntity
  8
ramka
  6
ByLayer
 62
  256
370
   -1
100
AcDbPolyline
 90
    4
 70
    0
 43
0
 10
-44.5
 20
198.8
 10
-44.5
 20
-2
 10
-40
 20
-2
 10
-40
 20
198.8
  0
LWPOLYLINE
  5
BF
100
AcDbEntity
  8
ramka
  6
ByLayer
 62
  256
370
   -1
100
AcDbPolyline
 90
    4
 70
    1
 43
0
 10
-40
 20
20.8
 10
-37.80000000000001
 20
20.8
 10
-37.80000000000001
 20
25.8
 10
-40
 20
25.8
  0
LWPOLYLINE
  5
C0
100
AcDbEntity
  8
vorota
  6
ByLayer
 62
  256
370
   -1
100
AcDbPolyline
 90
    4
 70
    1
 43
0
 10
-40
 20
25.8
 10
-37.80000000000001
 20
25.8
 10
-37.80000000000001
 20
30.8
 10
-40
 20
30.8
  0
LINE
  5
C1
100
AcDbEntity
  8
rozmir
  6
DASHDOT2
 62
  256
370
   -1
100
AcDbLine
 10
-38.90000000000001
 20
19.8
 11
-38.90000000000001
 21
31.8
  0
LWPOLYLINE
  5
C2
100
AcDbEntity
  8
ramka
  6
ByLayer
 62
  256
370
   -1
100
AcDbPolyline
 90
    4
 70
    1
 43
0
 10
-40
 20
143.5
 10
-37.80000000000001
 20
143.5
 10
-37.80000000000001
 20
148.5
 10
-40
 20
148.5
  0
LWPOLYLINE
  5
C3
100
AcDbEntity
  8
vorota
  6
ByLayer
 62
  256
370
   -1
100
AcDbPolyline
 90
    4
 70
    1
 43
0
 10
-40
 20
148.5
 10
-37.80000000000001
 20
148.5
 10
-37.80000000000001
 20
153.5
 10
-40
 20
153.5
  0
LINE
  5
C4
100
AcDbEntity
  8
rozmir
  6
DASHDOT2
 62
  256
370
   -1
100
AcDbLine
 10
-38.90000000000001
 20
142.5
 11
-38.90000000000001
 21
154.5
  0
LWPOLYLINE
  5
C5
100
AcDbEntity
  8
ramka
  6
ByLayer
 62
  256
370
   -1
100
AcDbPolyline
 90
    4
 70
    1
 43
0
 10
-40
 20
168.5
 10
-37.80000000000001
 20
168.5
 10
-37.80000000000001
 20
173.5
 10
-40
 20
173.5
  0
LWPOLYLINE
  5
C6
100
AcDbEntity
  8
vorota
  6
ByLayer
 62
  256
370
   -1
100
AcDbPolyline
 90
    4
 70
    1
 43
0
 10
-40
 20
173.5
 10
-37.80000000000001
 20
173.5
 10
-37.80000000000001
 20
178.5
 10
-40
 20
178.5
  0
LINE
  5
C7
100
AcDbEntity
  8
rozmir
  6
DASHDOT2
 62
  256
370
   -1
100
AcDbLine
 10
-38.90000000000001
 20
167.5
 11
-38.90000000000001
 21
179.5
  0
DIMENSION
  5
C8
100
AcDbEntity
  8
rozmir
  6
ByLayer
 62
  256
370
   -1
100
AcDbDimension
  2
*D1
 10
-50
 20
199.2
 30
0
 11
-53
 21
98.60000000000001
 31
0
 70
   32
 71
    5
  3
Standard
 53
0
210
0
220
0
230
1
100
AcDbAlignedDimension
 13
-44.5
 23
-2
 33
0
 14
-44.3
 24
199.2
 34
0
 50
90
100
AcDbRotatedDimension
  0
DIMENSION
  5
C9
100
AcDbEntity
  8
rozmir
  6
ByLayer
 62
  256
370
   -1
100
AcDbDimension
  2
*D2
 10
-60
 20
-1.999999999999998
 30
0
 11
-63
 21
100.65
 31
0
 70
   32
 71
    5
  3
Standard
 53
0
210
0
220
0
230
1
100
AcDbAlignedDimension
 13
-40.19999999999999
 23
203.3
 33
0
 14
-44.5
 24
-2
 34
0
 50
90
100
AcDbRotatedDimension
  0
LWPOLYLINE
  5
CA
100
AcDbEntity
  8
vorota
  6
ByLayer
 62
  256
370
   -1
100
AcDbPolyline
 90
   10
 70
    0
 43
0
 10
1.400000000000001
 20
-50
 10
5.9
 20
-50
 10
5.9
 20
-49.8
 10
5.700000000000001
 20
-49.6
 10
2.099999999999999
 20
-49.6
 10
1.8
 20
-49.3
 10
1.8
 20
-45.7
 10
1.600000000000002
 20
-45.5
 10
1.400000000000001
 20
-45.5
 10
1.400000000000001
 20
-50
  0
CIRCLE
  5
CB
100
AcDbEntity
  8
ramka
  6
ByLayer
 62
  256
370
   -1
100
AcDbCircle
 10
-0.1999999999999986
 20
-51.1
 40
1.100000000000001
  0
LINE
  5
CC
100
AcDbEntity
  8
rozmir
  6
DASHDOT2
 62
  256
370
   -1
100
AcDbLine
 10
-0.1999999999999998
 20
-52.6
 11
-0.1999999999999998
 21
-49.6
  0
LINE
  5
CD
100
AcDbEntity
  8
rozmir
  6
DASHDOT2
 62
  256
370
   -1
100
AcDbLine
 10
-1.7
 20
-51.1
 11
1.3
 21
-51.1
  0
LWPOLYLINE
  5
CE
100
AcDbEntity
  8
vorota
  6
ByLayer
 62
  256
370
   -1
100
AcDbPolyline
 90
    4
 70
    1
 43
0
 10
3.900000000000001
 20
-50.5
 10
0.7219544457293072
 20
-50.5
 10
0.4000000000000006
 20
-50
 10
3.900000000000001
 20
-50
  0
LWPOLYLINE
  5
CF
100
AcDbEntity
  8
ramka
  6
ByLayer
 62
  256
370
   -1
100
AcDbPolyline
 90
    4
 70
    1
 43
0
 10
-3
 20
-50.5
 10
-1.121954445729307
 20
-50.5
 10
-0.7999999999999998
 20
-50
 10
-3
 20
-50
  0
LWPOLYLINE
  5
D0
100
AcDbEntity
  8
vorota
  6
ByLayer
 62
  256
370
   -1
100
AcDbPolyline
 90
    7
 70
    0
 43
0
 10
1.400000000000001
 20
-48.1
 10
-0.3999999999999992
 20
-48.1
 10
-0.5999999999999996
 20
-47.9
 10
-0.5999999999999996
 20
-47.1
 10
-0.3999999999999992
 20
-46.9
 10
1.400000000000001
 20
-46.9
 10
1.400000000000001
 20
-48.1
  0
LINE
  5
D1
100
AcDbEntity
  8
rozmir
  6
DASHDOT2
 62
  256
370
   -1
100
AcDbLine
 10
-1.099999999999999
 20
-47.5
 11
2.3
 21
-47.5
  0
LWPOLYLINE
  5
D2
100
AcDbEntity
  8
ramka
  6
ByLayer
 62
  256
370
   -1
100
AcDbPolyline
 90
    9
 70
    0
 43
0
 10
1.100000000000002
 20
-48.5
 10
1.099999999999999
 20
-50
 10
-3.4
 20
-50
 10
-3.4
 20
-49.8
 10
-3.2
 20
-49.6
 10
0.4000000000000008
 20
-49.6
 10
0.7000000000000014
 20
-49.3
 10
0.7000000000000014
 20
-48.5
 10
1.100000000000002
 20
-48.5
  0
LWPOLYLINE
  5
D3
100
AcDbEntity
  8
ramka
  6
ByLayer
 62
  256
370
   -1
100
AcDbPolyline
 90
    7
 70
    0
 43
0
 10
0.7000000000000004
 20
-46.8
 10
1.099999999999999
 20
-46.8
 10
1.099999999999999
 20
-45.5
 10
0.9000000000000008
 20
-45.5
 10
0.7000000000000004
 20
-45.7
 10
0.7000000000000004
 20
-46.8
 10
1.099999999999999
 20
-46.8
  0
LINE
  5
D4
100
AcDbEntity
  8
ramka
  6
ByLayer
 62
  256
370
   -1
100
AcDbLine
 10
0.7000000000000014
 20
-48.5
 11
0.7000000000000015
 21
-48.1
  0
LINE
  5
D5
100
AcDbEntity
  8
ramka
  6
ByLayer
 62
  256
370
   -1
100
AcDbLine
 10
1.100000000000002
 20
-48.5
 11
1.100000000000002
 21
-48.1
  0
LINE
  5
D6
100
AcDbEntity
  8
ramka
  6
DASHED2
 62
  256
370
   -1
100
AcDbLine
 10
0.7000000000000015
 20
-46.8
 11
0.7000000000000015
 21
-48.1
  0
LINE
  5
D7
100
AcDbEntity
  8
ramka
  6
DASHED2
 62
  256
370
   -1
100
AcDbLine
 10
1.099999999999999
 20
-46.8
 11
1.100000000000002
 21
-48.1
  0
LWPOLYLINE
  5
D8
100
AcDbEntity
  8
ramka
  6
ByLayer
 62
  256
370
   -1
100
AcDbPolyline
 90
   10
 70
    0
 43
0
 10
98.8
 20
-50
 10
103.3
 20
-50
 10
103.3
 20
-49.8
 10
103.1
 20
-49.6
 10
99.50000000000001
 20
-49.6
 10
99.20000000000002
 20
-49.3
 10
99.20000000000002
 20
-45.7
 10
99.00000000000001
 20
-45.5
 10
98.8
 20
-45.5
 10
98.8
 20
-50
  0
LWPOLYLINE
  5
D9
100
AcDbEntity
  8
vorota
  6
ByLayer
 62
  256
370
   -1
100
AcDbPolyline
 90
   10
 70
    0
 43
0
 10
98.50000000000001
 20
-50
 10
94.00000000000001
 20
-50
 10
94.00000000000001
 20
-49.8
 10
94.20000000000002
 20
-49.6
 10
97.8
 20
-49.6
 10
98.10000000000002
 20
-49.3
 10
98.10000000000002
 20
-45.7
 10
98.3
 20
-45.5
 10
98.50000000000001
 20
-45.5
 10
98.50000000000001
 20
-50
  0
LWPOLYLINE
  5
DA
100
AcDbEntity
  8
list
  6
DASHED2
 62
  256
370
   -1
100
AcDbPolyline
 90
    4
 70
    0
 43
0
 10
3.900000000000001
 20
-50.2
 10
0.5999999999999994
 20
-50.2
 10
0.5999999999999994
 20
-50
 10
3.900000000000001
 20
-50
  0
LWPOLYLINE
  5
DB
100
AcDbEntity
  8
list
  6
ByLayer
 62
  256
370
   -1
100
AcDbPolyline
 90
    4
 70
    0
 43
0
 10
3.900000000000001
 20
-50.2
 10
100
 20
-50.2
 10
100
 20
-50
 10
3.900000000000001
 20
-50
  0
LINE
  5
DC
100
AcDbEntity
  8
vorota
  6
ByLayer
 62
  256
370
   -1
100
AcDbLine
 10
1.600000000000002
 20
-45.5
 11
98.3
 21
-45.5
  0
LINE
  5
DD
100
AcDbEntity
  8
vorota
  6
ByLayer
 62
  256
370
   -1
100
AcDbLine
 10
5.9
 20
-50
 11
94.00000000000001
 21
-50
  0
LINE
  5
DE
100
AcDbEntity
  8
vorota
  6
ByLayer
 62
  256
370
   -1
100
AcDbLine
 10
5.7
 20
-49.6
 11
94.20000000000002
 21
-49.6
  0
LINE
  5
DF
100
AcDbEntity
  8
ramka
  6
ByLayer
 62
  256
370
   -1
100
AcDbLine
 10
98.8
 20
-45.5
 11
1.099999999999999
 21
-45.5
  0
LINE
  5
E0
100
AcDbEntity
  8
ramka
  6
ByLayer
 62
  256
370
   -1
100
AcDbLine
 10
1.099999999999999
 20
-50
 11
98.8
 21
-50
  0
DIMENSION
  5
E1
100
AcDbEntity
  8
rozmir
  6
ByLayer
 62
  256
370
   -1
100
AcDbDimension
  2
*D3
 10
99.20000000000002
 20
-40
 30
0
 11
49.95
 21
-37
 31
0
 70
   32
 71
    5
  3
Standard
 53
0
210
0
220
0
230
1
100
AcDbAlignedDimension
 13
0.7000000000000004
 23
-45.7
 33
0
 14
99.20000000000002
 24
-45.7
 34
0
100
AcDbRotatedDimension
  0
DIMENSION
  5
E2
100
AcDbEntity
  8
rozmir
  6
ByLayer
 62
  256
370
   -1
100
AcDbDimension
  2
*D4
 10
-3.400000000000001
 20
-30
 30
0
 11
49.95
 21
-27
 31
0
 70
   32
 71
    5
  3
Standard
 53
0
210
0
220
0
230
1
100
AcDbAlignedDimension
 13
103.3
 23
-49.8
 33
0
 14
-3.400000000000002
 24
-49.8
 34
0
100
AcDbRotatedDimension
  0
LWPOLYLINE
  5
E3
100
AcDbEntity
  8
ramka
  6
ByLayer
 62
  256
370
   -1
100
AcDbPolyline
 90
    4
 70
    1
 43
0
 10
-35.3
 20
20.8
 10
-33.1
 20
20.8
 10
-33.1
 20
25.8
 10
-35.3
 20
25.8
  0
LWPOLYLINE
  5
E4
100
AcDbEntity
  8
vorota
  6
ByLayer
 62
  256
370
   -1
100
AcDbPolyline
 90
    4
 70
    1
 43
0
 10
-35.3
 20
25.8
 10
-33.1
 20
25.8
 10
-33.1
 20
30.8
 10
-35.3
 20
30.8
  0
LINE
  5
E5
100
AcDbEntity
  8
rozmir
  6
DASHDOT2
 62
  256
370
   -1
100
AcDbLine
 10
-34.2
 20
19.8
 11
-34.2
 21
31.8
  0
LWPOLYLINE
  5
E6
100
AcDbEntity
  8
ramka
  6
ByLayer
 62
  256
370
   -1
100
AcDbPolyline
 90
    4
 70
    1
 43
0
 10
-35.3
 20
143.5
 10
-33.1
 20
143.5
 10
-33.1
 20
148.5
 10
-35.3
 20
148.5
  0
LWPOLYLINE
  5
E7
100
AcDbEntity
  8
vorota
  6
ByLayer
 62
  256
370
   -1
100
AcDbPolyline
 90
    4
 70
    1
 43
0
 10
-35.3
 20
148.5
 10
-33.1
 20
148.5
 10
-33.1
 20
153.5
 10
-35.3
 20
153.5
  0
LINE
  5
E8
100
AcDbEntity
  8
rozmir
  6
DASHDOT2
 62
  256
370
   -1
100
AcDbLine
 10
-34.2
 20
142.5
 11
-34.2
 21
154.5
  0
LWPOLYLINE
  5
E9
100
AcDbEntity
  8
ramka
  6
ByLayer
 62
  256
370
   -1
100
AcDbPolyline
 90
    4
 70
    1
 43
0
 10
-35.3
 20
168.5
 10
-33.1
 20
168.5
 10
-33.1
 20
173.5
 10
-35.3
 20
173.5
  0
LWPOLYLINE
  5
EA
100
AcDbEntity
  8
vorota
  6
ByLayer
 62
  256
370
   -1
100
AcDbPolyline
 90
    4
 70
    1
 43
0
 10
-35.3
 20
173.5
 10
-33.1
 20
173.5
 10
-33.1
 20
178.5
 10
-35.3
 20
178.5
  0
LINE
  5
EB
100
AcDbEntity
  8
rozmir
  6
DASHDOT2
 62
  256
370
   -1
100
AcDbLine
 10
-34.2
 20
167.5
 11
-34.2
 21
179.5
  0
LWPOLYLINE
  5
EC
100
AcDbEntity
  8
vorota
  6
ByLayer
 62
  256
370
   -1
100
AcDbPolyline
 90
    4
 70
    1
 43
0
 10
-33.1
 20
30.8
 10
-30.1
 20
30.8
 10
-30.1
 20
25.8
 10
-33.1
 20
25.8
  0
LWPOLYLINE
  5
ED
100
AcDbEntity
  8
ramka
  6
ByLayer
 62
  256
370
   -1
100
AcDbPolyline
 90
    4
 70
    1
 43
0
 10
-35.3
 20
25.8
 10
-36.8
 20
25.8
 10
-36.8
 20
20.8
 10
-35.3
 20
20.8
  0
LWPOLYLINE
  5
EE
100
AcDbEntity
  8
vorota
  6
ByLayer
 62
  256
370
   -1
100
AcDbPolyline
 90
    4
 70
    1
 43
0
 10
-33.1
 20
153.5
 10
-30.1
 20
153.5
 10
-30.1
 20
148.5
 10
-33.1
 20
148.5
  0
LWPOLYLINE
  5
EF
100
AcDbEntity
  8
ramka
  6
ByLayer
 62
  256
370
   -1
100
AcDbPolyline
 90
    4
 70
    1
 43
0
 10
-35.3
 20
148.5
 10
-36.8
 20
148.5
 10
-36.8
 20
143.5
 10
-35.3
 20
143.5
  0
LWPOLYLINE
  5
F0
100
AcDbEntity
  8
vorota
  6
ByLayer
 62
  256
370
   -1
100
AcDbPolyline
 90
    4
 70
    1
 43
0
 10
-33.1
 20
178.5
 10
-30.1
 20
178.5
 10
-30.1
 20
173.5
 10
-33.1
 20
173.5
  0
LWPOLYLINE
  5
F1
100
AcDbEntity
  8
ramka
  6
ByLayer
 62
  256
370
   -1
100
AcDbPolyline
 90
    4
 70
    1
 43
0
 10
-35.3
 20
173.5
 10
-36.8
 20
173.5
 10
-36.8
 20
168.5
 10
-35.3
 20
168.5
  0
DIMENSION
  5
F2
100
AcDbEntity
  8
rozmir
  6
ByLayer
 62
  256
370
   -1
100
AcDbDimension
  2
*D5
 10
289.5
 20
280
 30
0
 11
154
 21
283
 31
0
 70
   32
 71
    5
  3
Standard
 53
0
210
0
220
0
230
1
100
AcDbAlignedDimension
 13
18.5
 23
256
 33
0
 14
289.5
 24
256
 34
0
100
AcDbRotatedDimension
  0
LWPOLYLINE
  5
F3
100
AcDbEntity
  8
body
  6
ByLayer
 62
  256
370
   -1
100
AcDbPolyline
 90
    4
 70
    1
 43
0
 10
18.5
 20
256
 10
289.5
 20
256
 10
289.5
 20
-3
 10
18.5
 20
-3
  0
DIMENSION
  5
F4
100
AcDbEntity
  8
rozmir
  6
ByLayer
 62
  256
370
   -1
100
AcDbDimension
  2
*D6
 10
-10
 20
-2.000000000000003
 30
0
 11
-12.99999999999999
 21
126.5
 31
0
 70
   32
 71
    5
  3
Standard
 53
0
210
0
220
0
230
1
100
AcDbAlignedDimension
 13
18.5
 23
256
 33
0
 14
18.5
 24
-3.000000000000007
 34
0
 50
90
100
AcDbRotatedDimension
  0
LWPOLYLINE
  5
F5
100
AcDbEntity
  8
fasad
  6
ByLayer
 62
  256
370
   -1
100
AcDbPolyline
 90
    4
 70
    1
 43
0
 10
21.5
 20
252
 10
286.5
 20
252
 10
286.5
 20
-3
 10
21.5
 20
-3
  0
LWPOLYLINE
  5
F6
100
AcDbEntity
  8
list
  6
DASHED2
 62
  256
370
   -1
100
AcDbPolyline
 90
    5
 70
    1
 43
0
 10
28.8
 20
-5.551115123125783e-17
 10
153.8
 20
-5.551115123125783e-17
 10
153.8
 20
249
 10
28.8
 20
249
 10
28.8
 20
249
  0
LWPOLYLINE
  5
F7
100
AcDbEntity
  8
list
  6
DASHED2
 62
  256
370
   -1
100
AcDbPolyline
 90
    5
 70
    1
 43
0
 10
154.2
 20
-2.220446049250313e-16
 10
279.2
 20
-2.220446049250313e-16
 10
279.2
 20
249
 10
154.2
 20
249
 10
154.2
 20
249
  0
LWPOLYLINE
  5
F8
100
AcDbEntity
  8
ramka
  6
ByLayer
 62
  256
370
   -1
100
AcDbPolyline
 90
    4
 70
    1
 43
0
 10
288.2
 20
-3
 10
278.2
 20
-3
 10
278.2
 20
254
 10
288.2
 20
254
  0
DIMENSION
  5
F9
100
AcDbEntity
  8
rozmir
  6
ByLayer
 62
  256
370
   -1
100
AcDbDimension
  2
*D7
 10
10
 20
253
 30
0
 11
6.999999999999993
 21
124.5
 31
0
 70
   32
 71
    5
  3
Standard
 53
0
210
0
220
0
230
1
100
AcDbAlignedDimension
 13
21.3
 23
-3
 33
0
 14
21.3
 24
252
 34
0
 50
90
100
AcDbRotatedDimension
  0
LWPOLYLINE
  5
FA
100
AcDbEntity
  8
ramka
  6
ByLayer
 62
  256
370
   -1
100
AcDbPolyline
 90
    4
 70
    1
 43
0
 10
29.8
 20
-3.000000000000001
 10
19.8
 20
-3
 10
19.8
 20
254
 10
29.8
 20
254
  0
DIMENSION
  5
FB
100
AcDbEntity
  8
rozmir
  6
ByLayer
 62
  256
370
   -1
100
AcDbDimension
  2
*D8
 10
0
 20
-2
 30
0
 11
-2.999999999999992
 21
125.5000000000001
 31
0
 70
   32
 71
    5
  3
Standard
 53
0
210
0
220
0
230
1
100
AcDbAlignedDimension
 13
19.8
 23
254.0000000000001
 33
0
 14
19.8
 24
-3
 34
0
 50
90
100
AcDbRotatedDimension
  0
LWPOLYLINE
  5
FC
100
AcDbEntity
  8
ramka
  6
ByLayer
 62
  256
370
   -1
100
AcDbPolyline
 90
    4
 70
    1
 43
0
 10
278.2
 20
1
 10
29.8
 20
1
 10
29.8
 20
-3
 10
278.2
 20
-3
  0
DIMENSION
  5
FD
100
AcDbEntity
  8
rozmir
  6
ByLayer
 62
  256
370
   -1
100
AcDbDimension
  2
*D9
 10
287
 20
270
 30
0
 11
154
 21
273
 31
0
 70
   32
 71
    5
  3
Standard
 53
0
210
0
220
0
230
1
100
AcDbAlignedDimension
 13
19.8
 23
254.0000000000001
 33
0
 14
288.2
 24
254
 34
0
100
AcDbRotatedDimension
  0
LWPOLYLINE
  5
FE
100
AcDbEntity
  8
ramka
  6
ByLayer
 62
  256
370
   -1
100
AcDbPolyline
 90
    4
 70
    1
 43
0
 10
278.2
 20
248
 10
29.8
 20
248
 10
29.8
 20
254.0000000000001
 10
278.2
 20
254
  0
DIMENSION
  5
FF
100
AcDbEntity
  8
rozmir
  6
ByLayer
 62
  256
370
   -1
100
AcDbDimension
  2
*D10
 10
21.5
 20
260
 30
0
 11
154
 21
263
 31
0
 70
   32
 71
    5
  3
Standard
 53
0
210
0
220
0
230
1
100
AcDbAlignedDimension
 13
286.5
 23
252
 33
0
 14
21.5
 24
252
 34
0
100
AcDbRotatedDimension
  0
ENDSEC
  0
SECTION
  2
OBJECTS
  0
DICTIONARY
  5
C
330
0
100
AcDbDictionary
281
    1
  3
ACAD_GROUP
350
D
  0
DICTIONARY
  5
D
330
C
100
AcDbDictionary
281
    1
  0
ENDSEC
  0
EOF
