999
dxfrw 0.6.3
  0
SECTION
  2
HEADER
  9
$ACADVER
  1
AC1021
  9
$DWGCODEPAGE
  3
ANSI_1252
  9
$INSBASE
 10
0
 20
0
 30
0
  9
$EXTMIN
 10
10000000000
 20
10000000000
 30
0
  9
$EXTMAX
 10
-10000000000
 20
-10000000000
 30
0
  9
$LIMMIN
 10
0
 20
0
  9
$LIMMAX
 10
420
 20
297
  9
$ORTHOMODE
 70
    0
  9
$REGENMODE
 70
    1
  9
$FILLMODE
 70
    1
  9
$QTEXTMODE
 70
    0
  9
$MIRRTEXT
 70
    0
  9
$LTSCALE
 40
1
  9
$ATTMODE
 70
    0
  9
$TEXTSIZE
 40
2.5
  9
$TRACEWID
 40
15.68
  9
$TEXTSTYLE
  7
STANDARD
  9
$CLAYER
  8
body
  9
$CELTYPE
  6
BYLAYER
  9
$CECOLOR
 62
  256
  9
$CELTSCALE
 40
1
  9
$DISPSILH
 70
    0
  9
$DIMSCALE
 40
1
  9
$DIMASZ
 40
2
  9
$DIMEXO
 40
1
  9
$DIMDLI
 40
3.75
  9
$DIMRND
 40
0
  9
$DIMDLE
 40
0
  9
$DIMEXE
 40
2
  9
$DIMTP
 40
0
  9
$DIMTM
 40
0
  9
$DIMTXT
 40
3
  9
$DIMCEN
 40
2.5
  9
$DIMTSZ
 40
2
  9
$DIMTOL
 70
    0
  9
$DIMLIM
 70
    0
  9
$DIMTIH
 70
    0
  9
$DIMTOH
 70
    0
  9
$DIMSE1
 70
    0
  9
$DIMSE2
 70
    0
  9
$DIMTAD
 70
    1
  9
$DIMZIN
 70
    8
  9
$DIMBLK
  1

  9
$DIMASO
 70
    1
  9
$DIMSHO
 70
    1
  9
$DIMPOST
  1

  9
$DIMAPOST
  1

  9
$DIMALT
 70
    0
  9
$DIMALTD
 70
    3
  9
$DIMALTF
 40
0.03937
  9
$DIMLFAC
 40
10
  9
$DIMTOFL
 70
    1
  9
$DIMTVP
 40
0
  9
$DIMTIX
 70
    0
  9
$DIMSOXD
 70
    0
  9
$DIMSAH
 70
    0
  9
$DIMBLK1
  1

  9
$DIMBLK2
  1

  9
$DIMSTYLE
  2
STANDARD
  9
$DIMCLRD
 70
    0
  9
$DIMCLRE
 70
    0
  9
$DIMCLRT
 70
    0
  9
$DIMTFAC
 40
1
  9
$DIMGAP
 40
2
  9
$DIMJUST
 70
    0
  9
$DIMSD1
 70
    0
  9
$DIMSD2
 70
    0
  9
$DIMTOLJ
 70
    0
  9
$DIMTZIN
 70
    8
  9
$DIMALTZ
 70
    0
  9
$DIMALTTZ
 70
    0
  9
$DIMUPT
 70
    0
  9
$DIMDEC
 70
    1
  9
$DIMTDEC
 70
    2
  9
$DIMALTU
 70
    2
  9
$DIMALTTD
 70
    3
  9
$DIMTXSTY
  7
standard
  9
$DIMAUNIT
 70
    0
  9
$DIMADEC
 70
    0
  9
$DIMALTRND
 40
0
  9
$DIMAZIN
 70
    0
  9
$DIMDSEP
 70
   44
  9
$DIMATFIT
 70
    3
  9
$DIMFRAC
 70
    0
  9
$DIMLDRBLK
  1
STANDARD
  9
$DIMLUNIT
 70
    2
  9
$DIMLWD
 70
   -2
  9
$DIMLWE
 70
   -2
  9
$DIMTMOVE
 70
    0
  9
$DIMFXL
 40
1
  9
$DIMFXLON
 70
    0
  9
$DIMJOGANG
 40
0.7854
  9
$DIMTFILL
 70
    0
  9
$DIMTFILLCLR
 70
    0
  9
$DIMARCSYM
 70
    0
  9
$DIMLTYPE
  6

  9
$DIMLTEX1
  6

  9
$DIMLTEX2
  6

  9
$LUNITS
 70
    2
  9
$LUPREC
 70
    2
  9
$SKETCHINC
 40
1
  9
$FILLETRAD
 40
0
  9
$AUNITS
 70
    0
  9
$AUPREC
 70
    2
  9
$MENU
  1
.
  9
$ELEVATION
 40
0
  9
$PELEVATION
 40
0
  9
$THICKNESS
 40
0
  9
$LIMCHECK
 70
    0
  9
$CHAMFERA
 40
0
  9
$CHAMFERB
 40
0
  9
$CHAMFERC
 40
0
  9
$CHAMFERD
 40
0
  9
$SKPOLY
 70
    0
  9
$USRTIMER
 70
    1
  9
$ANGBASE
 50
0
  9
$ANGDIR
 70
    0
  9
$PDMODE
 70
   34
  9
$PDSIZE
 40
0
  9
$PLINEWID
 40
0
  9
$SPLFRAME
 70
    0
  9
$SPLINETYPE
 70
    2
  9
$SPLINESEGS
 70
    8
  9
$HANDSEED
  5
20000
  9
$SURFTAB1
 70
    6
  9
$SURFTAB2
 70
    6
  9
$SURFTYPE
 70
    6
  9
$SURFU
 70
    6
  9
$SURFV
 70
    6
  9
$UCSBASE
  2

  9
$UCSNAME
  2

  9
$UCSORG
 10
0
 20
0
 30
0
  9
$UCSXDIR
 10
1
 20
0
 30
0
  9
$UCSYDIR
 10
0
 20
1
 30
0
  9
$UCSORTHOREF
  2

  9
$UCSORTHOVIEW
 70
    0
  9
$UCSORGTOP
 10
0
 20
0
 30
0
  9
$UCSORGBOTTOM
 10
0
 20
0
 30
0
  9
$UCSORGLEFT
 10
0
 20
0
 30
0
  9
$UCSORGRIGHT
 10
0
 20
0
 30
0
  9
$UCSORGFRONT
 10
0
 20
0
 30
0
  9
$UCSORGBACK
 10
0
 20
0
 30
0
  9
$PUCSBASE
  2

  9
$PUCSNAME
  2

  9
$PUCSORG
 10
0
 20
0
 30
0
  9
$PUCSXDIR
 10
1
 20
0
 30
0
  9
$PUCSYDIR
 10
0
 20
1
 30
0
  9
$PUCSORTHOREF
  2

  9
$PUCSORTHOVIEW
 70
    0
  9
$PUCSORGTOP
 10
0
 20
0
 30
0
  9
$PUCSORGBOTTOM
 10
0
 20
0
 30
0
  9
$PUCSORGLEFT
 10
0
 20
0
 30
0
  9
$PUCSORGRIGHT
 10
0
 20
0
 30
0
  9
$PUCSORGFRONT
 10
0
 20
0
 30
0
  9
$PUCSORGBACK
 10
0
 20
0
 30
0
  9
$USERI1
 70
    0
  9
$USERI2
 70
    0
  9
$USERI3
 70
    0
  9
$USERI4
 70
    0
  9
$USERI5
 70
    0
  9
$USERR1
 40
0
  9
$USERR2
 40
0
  9
$USERR3
 40
0
  9
$USERR4
 40
0
  9
$USERR5
 40
0
  9
$WORLDVIEW
 70
    1
  9
$SHADEDGE
 70
    3
  9
$SHADEDIF
 70
   70
  9
$TILEMODE
 70
    1
  9
$MAXACTVP
 70
   64
  9
$PINSBASE
 10
3.268957617411224
 20
8.751718213058417
 30
0
  9
$PLIMCHECK
 70
    0
  9
$PEXTMIN
 10
0
 20
0
 30
0
  9
$PEXTMAX
 10
0
 20
0
 30
0
  9
$GRIDMODE
 70
    1
  9
$SNAPSTYLE
 70
    0
  9
$GRIDUNIT
 10
0
 20
0
  9
$PLIMMIN
 10
0
 20
0
  9
$PLIMMAX
 10
29.7
 20
21
  9
$UNITMODE
 70
    0
  9
$VISRETAIN
 70
    1
  9
$PLINEGEN
 70
    0
  9
$PSLTSCALE
 70
    1
  9
$TREEDEPTH
 70
 3020
  9
$CMLSTYLE
  2
Standard
  9
$CMLJUST
 70
    0
  9
$CMLSCALE
 40
20
  9
$PROXYGRAPHICS
 70
    1
  9
$MEASUREMENT
 70
    1
  9
$CELWEIGHT
370
   -1
  9
$ENDCAPS
280
    0
  9
$JOINSTYLE
280
    0
  9
$LWDISPLAY
290
    0
  9
$INSUNITS
 70
    5
  9
$HYPERLINKBASE
  1

  9
$STYLESHEET
  1

  9
$XEDIT
290
    1
  9
$CEPSNTYPE
380
    0
  9
$PSTYLEMODE
290
    1
  9
$EXTNAMES
290
    1
  9
$PSVPSCALE
 40
0.1271478449711756
  9
$OLESTARTUP
290
    0
  9
$SORTENTS
280
  127
  9
$INDEXCTL
280
    0
  9
$HIDETEXT
280
    1
  9
$XCLIPFRAME
290
    0
  9
$HALOGAP
280
    0
  9
$OBSCOLOR
 70
  257
  9
$OBSLTYPE
280
    0
  9
$INTERSECTIONDISPLAY
280
    0
  9
$INTERSECTIONCOLOR
 70
  257
  9
$DIMASSOC
280
    1
  9
$PROJECTNAME
  1

  9
$CAMERADISPLAY
290
    0
  9
$LENSLENGTH
 40
50
  9
$CAMERAHEIGHT
 40
0
  9
$STEPSPERSEC
 40
2
  9
$STEPSIZE
 40
50
  9
$3DDWFPREC
 40
2
  9
$PSOLWIDTH
 40
5
  9
$PSOLHEIGHT
 40
80
  9
$LOFTANG1
 40
1.570796326794897
  9
$LOFTANG2
 40
1.570796326794897
  9
$LOFTMAG1
 40
0
  9
$LOFTMAG2
 40
0
  9
$LOFTPARAM
 70
    7
  9
$LOFTNORMALS
280
    1
  9
$LATITUDE
 40
1
  9
$LONGITUDE
 40
1
  9
$NORTHDIRECTION
 40
0
  9
$TIMEZONE
 70
-8000
  9
$LIGHTGLYPHDISPLAY
280
    1
  9
$TILEMODELIGHTSYNCH
280
    1
  9
$SOLIDHIST
280
    1
  9
$SHOWHIST
280
    1
  9
$DWFFRAME
280
    2
  9
$DGNFRAME
280
    0
  9
$REALWORLDSCALE
290
    1
  9
$INTERFERECOLOR
 62
    1
  9
$CSHADOW
280
    0
  9
$SHADOWPLANELOCATION
 40
0
  0
ENDSEC
  0
SECTION
  2
CLASSES
  0
ENDSEC
  0
SECTION
  2
TABLES
  0
TABLE
  2
VPORT
  5
8
330
0
100
AcDbSymbolTable
 70
    1
  0
VPORT
  5
31
330
2
100
AcDbSymbolTableRecord
100
AcDbViewportTableRecord
  2
*ACTIVE
 70
    0
 10
0
 20
0
 11
1
 21
1
 12
121.2635159767251
 22
37.86581054445632
 13
0
 23
0
 14
10
 24
10
 15
10
 25
10
 16
0
 26
0
 36
1
 17
0
 27
0
 37
0
 40
126.6065444584582
 41
1.695412844036697
 42
50
 43
0
 44
0
 50
0
 51
0
 71
    0
 72
  100
 73
    1
 74
    3
 75
    0
 76
    1
 77
    0
 78
    0
281
    0
 65
    1
110
0
120
0
130
0
111
1
121
0
131
0
112
0
122
1
132
0
 79
    0
146
0
348
10020
 60
    7
 61
    5
292
1
282
    1
141
0
142
0
 63
  250
421
3358443
  0
ENDTAB
  0
TABLE
  2
LTYPE
  5
5
330
0
100
AcDbSymbolTable
 70
    4
  0
LTYPE
  5
14
330
5
100
AcDbSymbolTableRecord
100
AcDbLinetypeTableRecord
  2
ByBlock
 70
    0
  3

 72
   65
 73
    0
 40
0
  0
LTYPE
  5
15
330
5
100
AcDbSymbolTableRecord
100
AcDbLinetypeTableRecord
  2
ByLayer
 70
    0
  3

 72
   65
 73
    0
 40
0
  0
LTYPE
  5
16
330
5
100
AcDbSymbolTableRecord
100
AcDbLinetypeTableRecord
  2
Continuous
 70
    0
  3
Solid line
 72
   65
 73
    0
 40
0
  0
LTYPE
  5
32
330
5
100
AcDbSymbolTableRecord
100
AcDbLinetypeTableRecord
  2
DOT
 70
    0
  3
Dot . . . . . . . . . . . . . . . . . . . . . .
 72
   65
 73
    2
 40
6.35
 49
0
 74
    0
 49
-6.35
 74
    0
  0
LTYPE
  5
33
330
5
100
AcDbSymbolTableRecord
100
AcDbLinetypeTableRecord
  2
DOTTINY
 70
    0
  3
Dot (.15x) .....................................
 72
   65
 73
    2
 40
0.9525
 49
0
 74
    0
 49
-0.9525
 74
    0
  0
LTYPE
  5
34
330
5
100
AcDbSymbolTableRecord
100
AcDbLinetypeTableRecord
  2
DOT2
 70
    0
  3
Dot (.5x) .....................................
 72
   65
 73
    2
 40
3.175
 49
0
 74
    0
 49
-3.175
 74
    0
  0
LTYPE
  5
35
330
5
100
AcDbSymbolTableRecord
100
AcDbLinetypeTableRecord
  2
DOTX2
 70
    0
  3
Dot (2x) .  .  .  .  .  .  .  .  .  .  .  .  .
 72
   65
 73
    2
 40
12.7
 49
0
 74
    0
 49
-12.7
 74
    0
  0
LTYPE
  5
36
330
5
100
AcDbSymbolTableRecord
100
AcDbLinetypeTableRecord
  2
DASHED
 70
    0
  3
Dashed _ _ _ _ _ _ _ _ _ _ _ _ _ _ _ _ _
 72
   65
 73
    2
 40
19.05
 49
12.7
 74
    0
 49
-6.35
 74
    0
  0
LTYPE
  5
37
330
5
100
AcDbSymbolTableRecord
100
AcDbLinetypeTableRecord
  2
DASHEDTINY
 70
    0
  3
Dashed (.15x) _ _ _ _ _ _ _ _ _ _ _ _ _ _ _ _ _
 72
   65
 73
    2
 40
2.8575
 49
1.905
 74
    0
 49
-0.9525
 74
    0
  0
LTYPE
  5
38
330
5
100
AcDbSymbolTableRecord
100
AcDbLinetypeTableRecord
  2
DASHED2
 70
    0
  3
Dashed (.5x) _ _ _ _ _ _ _ _ _ _ _ _ _ _ _ _ _
 72
   65
 73
    2
 40
9.524999999999999
 49
6.35
 74
    0
 49
-3.175
 74
    0
  0
LTYPE
  5
39
330
5
100
AcDbSymbolTableRecord
100
AcDbLinetypeTableRecord
  2
DASHEDX2
 70
    0
  3
Dashed (2x) ____  ____  ____  ____  ____  ___
 72
   65
 73
    2
 40
38.09999999999999
 49
25.4
 74
    0
 49
-12.7
 74
    0
  0
LTYPE
  5
3A
330
5
100
AcDbSymbolTableRecord
100
AcDbLinetypeTableRecord
  2
DASHDOT
 70
    0
  3
Dash dot __ . __ . __ . __ . __ . __ . __ . __
 72
   65
 73
    4
 40
25.4
 49
12.7
 74
    0
 49
-6.35
 74
    0
 49
0
 74
    0
 49
-6.35
 74
    0
  0
LTYPE
  5
3B
330
5
100
AcDbSymbolTableRecord
100
AcDbLinetypeTableRecord
  2
DASHDOTTINY
 70
    0
  3
Dash dot (.15x) _._._._._._._._._._._._._._._.
 72
   65
 73
    4
 40
3.81
 49
1.905
 74
    0
 49
-0.9525
 74
    0
 49
0
 74
    0
 49
-0.9525
 74
    0
  0
LTYPE
  5
3C
330
5
100
AcDbSymbolTableRecord
100
AcDbLinetypeTableRecord
  2
DASHDOT2
 70
    0
  3
Dash dot (.5x) _._._._._._._._._._._._._._._.
 72
   65
 73
    4
 40
12.7
 49
6.35
 74
    0
 49
-3.175
 74
    0
 49
0
 74
    0
 49
-3.175
 74
    0
  0
LTYPE
  5
3D
330
5
100
AcDbSymbolTableRecord
100
AcDbLinetypeTableRecord
  2
DASHDOTX2
 70
    0
  3
Dash dot (2x) ____  .  ____  .  ____  .  ___
 72
   65
 73
    4
 40
50.8
 49
25.4
 74
    0
 49
-12.7
 74
    0
 49
0
 74
    0
 49
-12.7
 74
    0
  0
LTYPE
  5
3E
330
5
100
AcDbSymbolTableRecord
100
AcDbLinetypeTableRecord
  2
DIVIDE
 70
    0
  3
Divide ____ . . ____ . . ____ . . ____ . . ____
 72
   65
 73
    6
 40
31.75
 49
12.7
 74
    0
 49
-6.35
 74
    0
 49
0
 74
    0
 49
-6.35
 74
    0
 49
0
 74
    0
 49
-6.35
 74
    0
  0
LTYPE
  5
3F
330
5
100
AcDbSymbolTableRecord
100
AcDbLinetypeTableRecord
  2
DIVIDETINY
 70
    0
  3
Divide (.15x) __..__..__..__..__..__..__..__.._
 72
   65
 73
    6
 40
4.7625
 49
1.905
 74
    0
 49
-0.9525
 74
    0
 49
0
 74
    0
 49
-0.9525
 74
    0
 49
0
 74
    0
 49
-0.9525
 74
    0
  0
LTYPE
  5
40
330
5
100
AcDbSymbolTableRecord
100
AcDbLinetypeTableRecord
  2
DIVIDE2
 70
    0
  3
Divide (.5x) __..__..__..__..__..__..__..__.._
 72
   65
 73
    6
 40
15.875
 49
6.35
 74
    0
 49
-3.175
 74
    0
 49
0
 74
    0
 49
-3.175
 74
    0
 49
0
 74
    0
 49
-3.175
 74
    0
  0
LTYPE
  5
41
330
5
100
AcDbSymbolTableRecord
100
AcDbLinetypeTableRecord
  2
DIVIDEX2
 70
    0
  3
Divide (2x) ________  .  .  ________  .  .  _
 72
   65
 73
    6
 40
63.5
 49
25.4
 74
    0
 49
-12.7
 74
    0
 49
0
 74
    0
 49
-12.7
 74
    0
 49
0
 74
    0
 49
-12.7
 74
    0
  0
LTYPE
  5
42
330
5
100
AcDbSymbolTableRecord
100
AcDbLinetypeTableRecord
  2
BORDER
 70
    0
  3
Border __ __ . __ __ . __ __ . __ __ . __ __ .
 72
   65
 73
    6
 40
44.45
 49
12.7
 74
    0
 49
-6.35
 74
    0
 49
12.7
 74
    0
 49
-6.35
 74
    0
 49
0
 74
    0
 49
-6.35
 74
    0
  0
LTYPE
  5
43
330
5
100
AcDbSymbolTableRecord
100
AcDbLinetypeTableRecord
  2
BORDERTINY
 70
    0
  3
Border (.15x) __.__.__.__.__.__.__.__.__.__.__.
 72
   65
 73
    6
 40
6.6675
 49
1.905
 74
    0
 49
-0.9525
 74
    0
 49
1.905
 74
    0
 49
-0.9525
 74
    0
 49
0
 74
    0
 49
-0.9525
 74
    0
  0
LTYPE
  5
44
330
5
100
AcDbSymbolTableRecord
100
AcDbLinetypeTableRecord
  2
BORDER2
 70
    0
  3
Border (.5x) __.__.__.__.__.__.__.__.__.__.__.
 72
   65
 73
    6
 40
22.225
 49
6.35
 74
    0
 49
-3.175
 74
    0
 49
6.35
 74
    0
 49
-3.175
 74
    0
 49
0
 74
    0
 49
-3.175
 74
    0
  0
LTYPE
  5
45
330
5
100
AcDbSymbolTableRecord
100
AcDbLinetypeTableRecord
  2
BORDERX2
 70
    0
  3
Border (2x) ____  ____  .  ____  ____  .  ___
 72
   65
 73
    6
 40
88.89999999999999
 49
25.4
 74
    0
 49
-12.7
 74
    0
 49
25.4
 74
    0
 49
-12.7
 74
    0
 49
0
 74
    0
 49
-12.7
 74
    0
  0
LTYPE
  5
46
330
5
100
AcDbSymbolTableRecord
100
AcDbLinetypeTableRecord
  2
CENTER
 70
    0
  3
Center ____ _ ____ _ ____ _ ____ _ ____ _ ____
 72
   65
 73
    4
 40
50.8
 49
31.75
 74
    0
 49
-6.35
 74
    0
 49
6.35
 74
    0
 49
-6.35
 74
    0
  0
LTYPE
  5
47
330
5
100
AcDbSymbolTableRecord
100
AcDbLinetypeTableRecord
  2
CENTERTINY
 70
    0
  3
Center (.15x) ___ _ ___ _ ___ _ ___ _ ___ _ ___
 72
   65
 73
    4
 40
7.619999999999999
 49
4.7625
 74
    0
 49
-0.9525
 74
    0
 49
0.9525
 74
    0
 49
-0.9525
 74
    0
  0
LTYPE
  5
48
330
5
100
AcDbSymbolTableRecord
100
AcDbLinetypeTableRecord
  2
CENTER2
 70
    0
  3
Center (.5x) ___ _ ___ _ ___ _ ___ _ ___ _ ___
 72
   65
 73
    4
 40
28.575
 49
19.05
 74
    0
 49
-3.175
 74
    0
 49
3.175
 74
    0
 49
-3.175
 74
    0
  0
LTYPE
  5
49
330
5
100
AcDbSymbolTableRecord
100
AcDbLinetypeTableRecord
  2
CENTERX2
 70
    0
  3
Center (2x) ________  __  ________  __  _____
 72
   65
 73
    4
 40
101.6
 49
63.5
 74
    0
 49
-12.7
 74
    0
 49
12.7
 74
    0
 49
-12.7
 74
    0
  0
ENDTAB
  0
TABLE
  2
LAYER
  5
2
330
0
100
AcDbSymbolTable
 70
    1
  0
LAYER
  5
10
330
2
100
AcDbSymbolTableRecord
100
AcDbLayerTableRecord
  2
0
 70
    0
 62
    7
  6
CONTINUOUS
370
   -3
390
F
  0
LAYER
  5
4A
330
2
100
AcDbSymbolTableRecord
100
AcDbLayerTableRecord
  2
base
 70
    0
 62
  136
420
32896
  6
CONTINUOUS
370
   50
390
F
  0
LAYER
  5
4B
330
2
100
AcDbSymbolTableRecord
100
AcDbLayerTableRecord
  2
body
 70
    0
 62
   56
420
8421376
  6
CONTINUOUS
370
   50
390
F
  0
LAYER
  5
4C
330
2
100
AcDbSymbolTableRecord
100
AcDbLayerTableRecord
  2
dimensions
 70
    0
 62
    4
  6
CONTINUOUS
370
   13
390
F
  0
LAYER
  5
4D
330
2
100
AcDbSymbolTableRecord
100
AcDbLayerTableRecord
  2
face
 70
    0
 62
    3
  6
CONTINUOUS
370
   50
390
F
  0
ENDTAB
  0
TABLE
  2
STYLE
  5
3
330
0
100
AcDbSymbolTable
 70
    3
  0
STYLE
  5
4E
330
2
100
AcDbSymbolTableRecord
100
AcDbTextStyleTableRecord
  2
cyrillic_ii
 70
    0
 40
0
 41
1
 50
0
 71
    0
 42
1
  3
cyrillic_ii
  4

  0
STYLE
  5
4F
330
2
100
AcDbSymbolTableRecord
100
AcDbTextStyleTableRecord
  2
Standard
 70
    0
 40
0
 41
1
 50
0
 71
    0
 42
1
  3
txt
  4

  0
ENDTAB
  0
TABLE
  2
VIEW
  5
6
330
0
100
AcDbSymbolTable
 70
    0
  0
ENDTAB
  0
TABLE
  2
UCS
  5
7
330
0
100
AcDbSymbolTable
 70
    0
  0
ENDTAB
  0
TABLE
  2
APPID
  5
9
330
0
100
AcDbSymbolTable
 70
    1
  0
APPID
  5
12
330
9
100
AcDbSymbolTableRecord
100
AcDbRegAppTableRecord
  2
ACAD
 70
    0
  0
APPID
  5
50
330
9
100
AcDbSymbolTableRecord
100
AcDbRegAppTableRecord
  2
LibreCad
 70
    0
  0
ENDTAB
  0
TABLE
  2
DIMSTYLE
  5
A
330
0
100
AcDbSymbolTable
 70
    1
100
AcDbDimStyleTable
 71
    1
  0
DIMSTYLE
105
51
330
A
100
AcDbSymbolTableRecord
100
AcDbDimStyleTableRecord
  2
Standard
 70
    0
 40
1
 41
2
 42
1
 43
0.38
 44
2
 45
0
 46
0
 47
0
 48
0
 49
1
140
3
141
0.09
142
2
143
25.4
144
10
145
0
146
1
147
2
148
0
 71
    0
 72
    0
 73
    0
 74
    1
 75
    0
 76
    0
 77
    0
 78
    8
 79
    0
170
    0
171
    2
172
    0
173
    0
174
    0
175
    0
176
    0
177
    0
178
    0
179
    0
271
    1
272
    4
273
    2
274
    2
275
    0
276
    0
277
    2
278
   44
279
    0
280
    0
281
    0
282
    0
283
    1
284
    0
285
    0
286
    0
288
    0
289
    3
340
standard
341

371
   -2
372
   -2
  0
ENDTAB
  0
TABLE
  2
BLOCK_RECORD
  5
1
330
0
100
AcDbSymbolTable
 70
    2
  0
BLOCK_RECORD
  5
1F
330
1
100
AcDbSymbolTableRecord
100
AcDbBlockTableRecord
  2
*Model_Space
 70
    0
280
    1
281
    0
  0
BLOCK_RECORD
  5
1E
330
1
100
AcDbSymbolTableRecord
100
AcDbBlockTableRecord
  2
*Paper_Space
 70
    0
280
    1
281
    0
  0
BLOCK_RECORD
  5
52
330
1
100
AcDbSymbolTableRecord
100
AcDbBlockTableRecord
  2
*D1
 70
    0
280
    1
281
    0
  0
BLOCK_RECORD
  5
55
330
1
100
AcDbSymbolTableRecord
100
AcDbBlockTableRecord
  2
*D38
 70
    0
280
    1
281
    0
  0
BLOCK_RECORD
  5
58
330
1
100
AcDbSymbolTableRecord
100
AcDbBlockTableRecord
  2
*D21
 70
    0
280
    1
281
    0
  0
BLOCK_RECORD
  5
5B
330
1
100
AcDbSymbolTableRecord
100
AcDbBlockTableRecord
  2
*D26
 70
    0
280
    1
281
    0
  0
BLOCK_RECORD
  5
5E
330
1
100
AcDbSymbolTableRecord
100
AcDbBlockTableRecord
  2
*D49
 70
    0
280
    1
281
    0
  0
BLOCK_RECORD
  5
61
330
1
100
AcDbSymbolTableRecord
100
AcDbBlockTableRecord
  2
*D16
 70
    0
280
    1
281
    0
  0
BLOCK_RECORD
  5
64
330
1
100
AcDbSymbolTableRecord
100
AcDbBlockTableRecord
  2
*D13
 70
    0
280
    1
281
    0
  0
BLOCK_RECORD
  5
67
330
1
100
AcDbSymbolTableRecord
100
AcDbBlockTableRecord
  2
*D45
 70
    0
280
    1
281
    0
  0
BLOCK_RECORD
  5
6A
330
1
100
AcDbSymbolTableRecord
100
AcDbBlockTableRecord
  2
*D6
 70
    0
280
    1
281
    0
  0
BLOCK_RECORD
  5
6D
330
1
100
AcDbSymbolTableRecord
100
AcDbBlockTableRecord
  2
*D37
 70
    0
280
    1
281
    0
  0
BLOCK_RECORD
  5
70
330
1
100
AcDbSymbolTableRecord
100
AcDbBlockTableRecord
  2
*D36
 70
    0
280
    1
281
    0
  0
BLOCK_RECORD
  5
73
330
1
100
AcDbSymbolTableRecord
100
AcDbBlockTableRecord
  2
*D2
 70
    0
280
    1
281
    0
  0
BLOCK_RECORD
  5
76
330
1
100
AcDbSymbolTableRecord
100
AcDbBlockTableRecord
  2
*D15
 70
    0
280
    1
281
    0
  0
BLOCK_RECORD
  5
79
330
1
100
AcDbSymbolTableRecord
100
AcDbBlockTableRecord
  2
*D11
 70
    0
280
    1
281
    0
  0
BLOCK_RECORD
  5
7C
330
1
100
AcDbSymbolTableRecord
100
AcDbBlockTableRecord
  2
*D48
 70
    0
280
    1
281
    0
  0
BLOCK_RECORD
  5
7F
330
1
100
AcDbSymbolTableRecord
100
AcDbBlockTableRecord
  2
*D4
 70
    0
280
    1
281
    0
  0
BLOCK_RECORD
  5
82
330
1
100
AcDbSymbolTableRecord
100
AcDbBlockTableRecord
  2
*D19
 70
    0
280
    1
281
    0
  0
BLOCK_RECORD
  5
85
330
1
100
AcDbSymbolTableRecord
100
AcDbBlockTableRecord
  2
*D8
 70
    0
280
    1
281
    0
  0
BLOCK_RECORD
  5
88
330
1
100
AcDbSymbolTableRecord
100
AcDbBlockTableRecord
  2
*D29
 70
    0
280
    1
281
    0
  0
BLOCK_RECORD
  5
8B
330
1
100
AcDbSymbolTableRecord
100
AcDbBlockTableRecord
  2
*D24
 70
    0
280
    1
281
    0
  0
BLOCK_RECORD
  5
8E
330
1
100
AcDbSymbolTableRecord
100
AcDbBlockTableRecord
  2
*D44
 70
    0
280
    1
281
    0
  0
BLOCK_RECORD
  5
91
330
1
100
AcDbSymbolTableRecord
100
AcDbBlockTableRecord
  2
*D9
 70
    0
280
    1
281
    0
  0
BLOCK_RECORD
  5
94
330
1
100
AcDbSymbolTableRecord
100
AcDbBlockTableRecord
  2
*D12
 70
    0
280
    1
281
    0
  0
BLOCK_RECORD
  5
97
330
1
100
AcDbSymbolTableRecord
100
AcDbBlockTableRecord
  2
*D23
 70
    0
280
    1
281
    0
  0
BLOCK_RECORD
  5
9A
330
1
100
AcDbSymbolTableRecord
100
AcDbBlockTableRecord
  2
*D39
 70
    0
280
    1
281
    0
  0
BLOCK_RECORD
  5
9D
330
1
100
AcDbSymbolTableRecord
100
AcDbBlockTableRecord
  2
*D47
 70
    0
280
    1
281
    0
  0
BLOCK_RECORD
  5
A0
330
1
100
AcDbSymbolTableRecord
100
AcDbBlockTableRecord
  2
*D30
 70
    0
280
    1
281
    0
  0
BLOCK_RECORD
  5
A3
330
1
100
AcDbSymbolTableRecord
100
AcDbBlockTableRecord
  2
*D35
 70
    0
280
    1
281
    0
  0
BLOCK_RECORD
  5
A6
330
1
100
AcDbSymbolTableRecord
100
AcDbBlockTableRecord
  2
*D10
 70
    0
280
    1
281
    0
  0
BLOCK_RECORD
  5
A9
330
1
100
AcDbSymbolTableRecord
100
AcDbBlockTableRecord
  2
*D3
 70
    0
280
    1
281
    0
  0
BLOCK_RECORD
  5
AC
330
1
100
AcDbSymbolTableRecord
100
AcDbBlockTableRecord
  2
*D32
 70
    0
280
    1
281
    0
  0
BLOCK_RECORD
  5
AF
330
1
100
AcDbSymbolTableRecord
100
AcDbBlockTableRecord
  2
*D41
 70
    0
280
    1
281
    0
  0
BLOCK_RECORD
  5
B2
330
1
100
AcDbSymbolTableRecord
100
AcDbBlockTableRecord
  2
*D20
 70
    0
280
    1
281
    0
  0
BLOCK_RECORD
  5
B5
330
1
100
AcDbSymbolTableRecord
100
AcDbBlockTableRecord
  2
*D17
 70
    0
280
    1
281
    0
  0
BLOCK_RECORD
  5
B8
330
1
100
AcDbSymbolTableRecord
100
AcDbBlockTableRecord
  2
*D43
 70
    0
280
    1
281
    0
  0
BLOCK_RECORD
  5
BB
330
1
100
AcDbSymbolTableRecord
100
AcDbBlockTableRecord
  2
*D18
 70
    0
280
    1
281
    0
  0
BLOCK_RECORD
  5
BE
330
1
100
AcDbSymbolTableRecord
100
AcDbBlockTableRecord
  2
*D5
 70
    0
280
    1
281
    0
  0
BLOCK_RECORD
  5
C1
330
1
100
AcDbSymbolTableRecord
100
AcDbBlockTableRecord
  2
*D28
 70
    0
280
    1
281
    0
  0
BLOCK_RECORD
  5
C4
330
1
100
AcDbSymbolTableRecord
100
AcDbBlockTableRecord
  2
*D27
 70
    0
280
    1
281
    0
  0
BLOCK_RECORD
  5
C7
330
1
100
AcDbSymbolTableRecord
100
AcDbBlockTableRecord
  2
*D33
 70
    0
280
    1
281
    0
  0
BLOCK_RECORD
  5
CA
330
1
100
AcDbSymbolTableRecord
100
AcDbBlockTableRecord
  2
*D34
 70
    0
280
    1
281
    0
  0
BLOCK_RECORD
  5
CD
330
1
100
AcDbSymbolTableRecord
100
AcDbBlockTableRecord
  2
*D31
 70
    0
280
    1
281
    0
  0
BLOCK_RECORD
  5
D0
330
1
100
AcDbSymbolTableRecord
100
AcDbBlockTableRecord
  2
*D42
 70
    0
280
    1
281
    0
  0
BLOCK_RECORD
  5
D3
330
1
100
AcDbSymbolTableRecord
100
AcDbBlockTableRecord
  2
*D7
 70
    0
280
    1
281
    0
  0
BLOCK_RECORD
  5
D6
330
1
100
AcDbSymbolTableRecord
100
AcDbBlockTableRecord
  2
*D25
 70
    0
280
    1
281
    0
  0
BLOCK_RECORD
  5
D9
330
1
100
AcDbSymbolTableRecord
100
AcDbBlockTableRecord
  2
*D22
 70
    0
280
    1
281
    0
  0
BLOCK_RECORD
  5
DC
330
1
100
AcDbSymbolTableRecord
100
AcDbBlockTableRecord
  2
*D14
 70
    0
280
    1
281
    0
  0
BLOCK_RECORD
  5
DF
330
1
100
AcDbSymbolTableRecord
100
AcDbBlockTableRecord
  2
*D40
 70
    0
280
    1
281
    0
  0
BLOCK_RECORD
  5
E2
330
1
100
AcDbSymbolTableRecord
100
AcDbBlockTableRecord
  2
*D46
 70
    0
280
    1
281
    0
  0
ENDTAB
  0
ENDSEC
  0
SECTION
  2
BLOCKS
  0
BLOCK
  5
20
330
1F
100
AcDbEntity
  8
0
100
AcDbBlockBegin
  2
*Model_Space
 70
    0
 10
0
 20
0
 30
0
  3
*Model_Space
  1

  0
ENDBLK
  5
21
330
1F
100
AcDbEntity
  8
0
100
AcDbBlockEnd
  0
BLOCK
  5
1C
330
1B
100
AcDbEntity
  8
0
100
AcDbBlockBegin
  2
*Paper_Space
 70
    0
 10
0
 20
0
 30
0
  3
*Paper_Space
  1

  0
ENDBLK
  5
1D
330
1F
100
AcDbEntity
  8
0
100
AcDbBlockEnd
  0
BLOCK
  5
53
330
52
100
AcDbEntity
  8
0
100
AcDbBlockBegin
  2
*D1
 70
    1
 10
0
 20
0
  3
*D1
  1

  0
LINE
  5
E5
100
AcDbEntity
  8
dimensions
  6
CONTINUOUS
 62
    7
370
    0
100
AcDbLine
 10
35.70000000000012
 20
49.70000000000043
 11
42.70000000000012
 21
55.70000000000043
  0
LINE
  5
E6
100
AcDbEntity
  8
dimensions
  6
CONTINUOUS
 62
    7
370
    0
100
AcDbLine
 10
42.70000000000012
 20
55.70000000000043
 11
49.70000000000012
 21
55.70000000000043
  0
SOLID
  5
E7
100
AcDbEntity
  8
dimensions
  6
CONTINUOUS
 62
    7
370
    0
100
AcDbTrace
 10
35.70000000000012
 20
49.70000000000043
 30
0
 11
37.0017816333862
 21
51.25443624681429
 31
0
 12
37.43524477607522
 22
50.74872924701044
 32
0
 13
37.43524477607522
 23
50.74872924701044
 33
0
  0
ENDBLK
  5
54
330
52
100
AcDbEntity
  8
0
100
AcDbBlockEnd
  0
BLOCK
  5
56
330
55
100
AcDbEntity
  8
0
100
AcDbBlockBegin
  2
*D38
 70
    1
 10
0
 20
0
  3
*D38
  1

  0
LINE
  5
E8
100
AcDbEntity
  8
dimensions
  6
ByBlock
 62
    0
370
   -2
100
AcDbLine
 10
90.80000000000001
 20
10
 11
79.60000000000002
 21
10
  0
LINE
  5
E9
100
AcDbEntity
  8
dimensions
  6
ByBlock
 62
    0
370
   -2
100
AcDbLine
 10
89.38578643762692
 20
8.585786437626904
 11
92.2142135623731
 21
11.4142135623731
  0
LINE
  5
EA
100
AcDbEntity
  8
dimensions
  6
ByBlock
 62
    0
370
   -2
100
AcDbLine
 10
78.18578643762693
 20
8.585786437626904
 11
81.01421356237311
 21
11.4142135623731
  0
MTEXT
  5
EB
100
AcDbEntity
  8
dimensions
  6
CONTINUOUS
 62
    0
370
   -2
100
AcDbMText
 10
85.01666666666675
 20
15
 30
0
 40
3
 41
12.83333333333352
 71
    5
 72
    1
  1
112%%P0,5
  7
standard
210
0
220
0
230
1
 50
360
 73
    2
 44
1
  0
LINE
  5
EC
100
AcDbEntity
  8
dimensions
  6
ByBlock
 62
    0
370
   -2
100
AcDbLine
 10
90.80000000000001
 20
5.699999999999589
 11
90.80000000000001
 21
12
  0
LINE
  5
ED
100
AcDbEntity
  8
dimensions
  6
ByBlock
 62
    0
370
   -2
100
AcDbLine
 10
79.60000000000002
 20
5.699999999999589
 11
79.60000000000002
 21
12
  0
ENDBLK
  5
57
330
55
100
AcDbEntity
  8
0
100
AcDbBlockEnd
  0
BLOCK
  5
59
330
58
100
AcDbEntity
  8
0
100
AcDbBlockBegin
  2
*D21
 70
    1
 10
0
 20
0
  3
*D21
  1

  0
LINE
  5
EE
100
AcDbEntity
  8
dimensions
  6
ByBlock
 62
    0
370
   -2
100
AcDbLine
 10
-9.999999999999883
 20
68.40000000000043
 11
-9.999999999999886
 21
6.661338147750939e-16
  0
LINE
  5
EF
100
AcDbEntity
  8
dimensions
  6
ByBlock
 62
    0
370
   -2
100
AcDbLine
 10
-8.585786437626787
 20
66.98578643762734
 11
-11.41421356237298
 21
69.81421356237352
  0
LINE
  5
F0
100
AcDbEntity
  8
dimensions
  6
ByBlock
 62
    0
370
   -2
100
AcDbLine
 10
-8.585786437626791
 20
-1.414213562373094
 11
-11.41421356237298
 21
1.414213562373096
  0
MTEXT
  5
F1
100
AcDbEntity
  8
dimensions
  6
CONTINUOUS
 62
    0
370
   -2
100
AcDbMText
 10
-13.49999999999988
 20
34.20000000000022
 30
0
 40
3
 41
6.333333333333519
 71
    5
 72
    1
  1
684
  7
standard
210
0
220
0
230
1
 50
90
 73
    2
 44
1
  0
LINE
  5
F2
100
AcDbEntity
  8
dimensions
  6
ByBlock
 62
    0
370
   -2
100
AcDbLine
 10
-0.9999999999998863
 20
68.40000000000043
 11
-11.99999999999988
 21
68.40000000000043
  0
LINE
  5
F3
100
AcDbEntity
  8
dimensions
  6
ByBlock
 62
    0
370
   -2
100
AcDbLine
 10
-1
 20
1.224646799147353e-16
 11
-11.99999999999989
 21
9.110631746045646e-16
  0
ENDBLK
  5
5A
330
58
100
AcDbEntity
  8
0
100
AcDbBlockEnd
  0
BLOCK
  5
5C
330
5B
100
AcDbEntity
  8
0
100
AcDbBlockBegin
  2
*D26
 70
    1
 10
0
 20
0
  3
*D26
  1

  0
LINE
  5
F4
100
AcDbEntity
  8
dimensions
  6
ByBlock
 62
    0
370
   -2
100
AcDbLine
 10
8.700000000000113
 20
79.40000000000079
 11
-3.999999999999886
 21
79.40000000000079
  0
LINE
  5
F5
100
AcDbEntity
  8
dimensions
  6
ByBlock
 62
    0
370
   -2
100
AcDbLine
 10
6.114213562373209
 20
80.81421356237388
 11
3.285786437627018
 21
77.9857864376277
  0
LINE
  5
F6
100
AcDbEntity
  8
dimensions
  6
ByBlock
 62
    0
370
   -2
100
AcDbLine
 10
1.414213562373209
 20
80.81421356237388
 11
-1.414213562372982
 21
77.9857864376277
  0
MTEXT
  5
F7
100
AcDbEntity
  8
dimensions
  6
CONTINUOUS
 62
    0
370
   -2
100
AcDbMText
 10
3.433333333333426
 20
83
 30
0
 40
3
 41
12.16666666666685
 71
    5
 72
    1
  1
47%%P0,5
  7
standard
210
0
220
0
230
1
 50
360
 73
    2
 44
1
  0
LINE
  5
F8
100
AcDbEntity
  8
dimensions
  6
ByBlock
 62
    0
370
   -2
100
AcDbLine
 10
4.700000000000114
 20
64.7000000000004
 11
4.700000000000114
 21
81.40000000000079
  0
LINE
  5
F9
100
AcDbEntity
  8
dimensions
  6
ByBlock
 62
    0
370
   -2
100
AcDbLine
 10
1.137480700615734e-13
 20
70.40000000000076
 11
1.138093024015308e-13
 21
81.40000000000079
  0
ENDBLK
  5
5D
330
5B
100
AcDbEntity
  8
0
100
AcDbBlockEnd
  0
BLOCK
  5
5F
330
5E
100
AcDbEntity
  8
0
100
AcDbBlockBegin
  2
*D49
 70
    1
 10
0
 20
0
  3
*D49
  1

  0
LINE
  5
FA
100
AcDbEntity
  8
dimensions
  6
ByBlock
 62
    0
370
   -2
100
AcDbLine
 10
96.70000000000012
 20
28.9
 11
96.70000000000012
 21
39.5
  0
LINE
  5
FB
100
AcDbEntity
  8
dimensions
  6
ByBlock
 62
    0
370
   -2
100
AcDbLine
 10
98.11421356237321
 20
31.4857864376269
 11
95.28578643762702
 21
34.31421356237309
  0
LINE
  5
FC
100
AcDbEntity
  8
dimensions
  6
ByBlock
 62
    0
370
   -2
100
AcDbLine
 10
98.11421356237321
 20
34.08578643762691
 11
95.28578643762702
 21
36.91421356237309
  0
MTEXT
  5
FD
100
AcDbEntity
  8
dimensions
  6
CONTINUOUS
 62
    0
370
   -2
100
AcDbMText
 10
93.20000000000012
 20
39.33333333333343
 30
0
 40
3
 41
3.666666666666853
 71
    5
 72
    1
  1
26
  7
standard
210
0
220
0
230
1
 50
90
 73
    2
 44
1
  0
LINE
  5
FE
100
AcDbEntity
  8
dimensions
  6
ByBlock
 62
    0
370
   -2
100
AcDbLine
 10
99.2
 20
32.9
 11
94.70000000000012
 21
32.9
  0
LINE
  5
FF
100
AcDbEntity
  8
dimensions
  6
ByBlock
 62
    0
370
   -2
100
AcDbLine
 10
99.2
 20
35.5
 11
94.70000000000012
 21
35.5
  0
ENDBLK
  5
60
330
5E
100
AcDbEntity
  8
0
100
AcDbBlockEnd
  0
BLOCK
  5
62
330
61
100
AcDbEntity
  8
0
100
AcDbBlockBegin
  2
*D16
 70
    1
 10
0
 20
0
  3
*D16
  1

  0
LINE
  5
100
100
AcDbEntity
  8
dimensions
  6
ByBlock
 62
    0
370
   -2
100
AcDbLine
 10
46.60000000000002
 20
10
 11
37.2
 21
10
  0
LINE
  5
101
100
AcDbEntity
  8
dimensions
  6
ByBlock
 62
    0
370
   -2
100
AcDbLine
 10
45.18578643762693
 20
8.585786437626904
 11
48.01421356237311
 21
11.4142135623731
  0
LINE
  5
102
100
AcDbEntity
  8
dimensions
  6
ByBlock
 62
    0
370
   -2
100
AcDbLine
 10
35.78578643762691
 20
8.585786437626904
 11
38.6142135623731
 21
11.4142135623731
  0
MTEXT
  5
103
100
AcDbEntity
  8
dimensions
  6
CONTINUOUS
 62
    0
370
   -2
100
AcDbMText
 10
41.90000000000001
 20
13.5
 30
0
 40
3
 41
4.000000000000186
 71
    5
 72
    1
  1
94
  7
standard
210
0
220
0
230
1
 50
360
 73
    2
 44
1
  0
LINE
  5
104
100
AcDbEntity
  8
dimensions
  6
ByBlock
 62
    0
370
   -2
100
AcDbLine
 10
46.60000000000002
 20
5.699999999999603
 11
46.60000000000002
 21
12
  0
LINE
  5
105
100
AcDbEntity
  8
dimensions
  6
ByBlock
 62
    0
370
   -2
100
AcDbLine
 10
37.2
 20
5.699999999999958
 11
37.2
 21
12
  0
ENDBLK
  5
63
330
61
100
AcDbEntity
  8
0
100
AcDbBlockEnd
  0
BLOCK
  5
65
330
64
100
AcDbEntity
  8
0
100
AcDbBlockBegin
  2
*D13
 70
    1
 10
0
 20
0
  3
*D13
  1

  0
LINE
  5
106
100
AcDbEntity
  8
dimensions
  6
ByBlock
 62
    0
370
   -2
100
AcDbLine
 10
104.7
 20
-10
 11
90.60000000000001
 21
-10
  0
LINE
  5
107
100
AcDbEntity
  8
dimensions
  6
ByBlock
 62
    0
370
   -2
100
AcDbLine
 10
103.2857864376269
 20
-11.4142135623731
 11
106.1142135623731
 21
-8.585786437626904
  0
LINE
  5
108
100
AcDbEntity
  8
dimensions
  6
ByBlock
 62
    0
370
   -2
100
AcDbLine
 10
89.18578643762692
 20
-11.4142135623731
 11
92.0142135623731
 21
-8.585786437626904
  0
MTEXT
  5
109
100
AcDbEntity
  8
dimensions
  6
CONTINUOUS
 62
    0
370
   -2
100
AcDbMText
 10
97.65000000000001
 20
-6.499999999999999
 30
0
 40
3
 41
5
 71
    5
 72
    1
  1
141
  7
standard
210
0
220
0
230
1
 50
360
 73
    2
 44
1
  0
LINE
  5
10A
100
AcDbEntity
  8
dimensions
  6
ByBlock
 62
    0
370
   -2
100
AcDbLine
 10
104.7
 20
-1
 11
104.7
 21
-12
  0
LINE
  5
10B
100
AcDbEntity
  8
dimensions
  6
ByBlock
 62
    0
370
   -2
100
AcDbLine
 10
90.60000000000001
 20
-1
 11
90.60000000000001
 21
-12
  0
ENDBLK
  5
66
330
64
100
AcDbEntity
  8
0
100
AcDbBlockEnd
  0
BLOCK
  5
68
330
67
100
AcDbEntity
  8
0
100
AcDbBlockBegin
  2
*D45
 70
    1
 10
0
 20
0
  3
*D45
  1

  0
LINE
  5
10C
100
AcDbEntity
  8
dimensions
  6
ByBlock
 62
    0
370
   -2
100
AcDbLine
 10
0
 20
-20.3
 11
180.4000000000001
 21
-20.3
  0
LINE
  5
10D
100
AcDbEntity
  8
dimensions
  6
ByBlock
 62
    0
370
   -2
100
AcDbLine
 10
1.414213562373095
 20
-18.8857864376269
 11
-1.414213562373095
 21
-21.7142135623731
  0
LINE
  5
10E
100
AcDbEntity
  8
dimensions
  6
ByBlock
 62
    0
370
   -2
100
AcDbLine
 10
181.8142135623732
 20
-18.8857864376269
 11
178.985786437627
 21
-21.7142135623731
  0
MTEXT
  5
10F
100
AcDbEntity
  8
dimensions
  6
CONTINUOUS
 62
    0
370
   -2
100
AcDbMText
 10
101
 20
-17
 30
0
 40
3
 41
12.66666666666685
 71
    5
 72
    1
  1
1804%%P5
  7
standard
210
0
220
0
230
1
 50
0
 73
    2
 44
1
  0
LINE
  5
110
100
AcDbEntity
  8
dimensions
  6
ByBlock
 62
    0
370
   -2
100
AcDbLine
 10
-1.83697019872103e-16
 20
-0.9999999999996589
 11
-3.673940397442059e-16
 21
-22.3
  0
LINE
  5
111
100
AcDbEntity
  8
dimensions
  6
ByBlock
 62
    0
370
   -2
100
AcDbLine
 10
180.4000000000001
 20
-0.9999999999995737
 11
180.4000000000001
 21
-22.3
  0
ENDBLK
  5
69
330
67
100
AcDbEntity
  8
0
100
AcDbBlockEnd
  0
BLOCK
  5
6B
330
6A
100
AcDbEntity
  8
0
100
AcDbBlockBegin
  2
*D6
 70
    1
 10
0
 20
0
  3
*D6
  1

  0
LINE
  5
112
100
AcDbEntity
  8
dimensions
  6
ByBlock
 62
    0
370
   -2
100
AcDbLine
 10
70.20000000000012
 20
79.40000000000043
 11
100.2000000000001
 21
79.40000000000043
  0
LINE
  5
113
100
AcDbEntity
  8
dimensions
  6
ByBlock
 62
    0
370
   -2
100
AcDbLine
 10
71.61421356237321
 20
80.81421356237352
 11
68.78578643762702
 21
77.98578643762734
  0
LINE
  5
114
100
AcDbEntity
  8
dimensions
  6
ByBlock
 62
    0
370
   -2
100
AcDbLine
 10
101.6142135623732
 20
80.81421356237352
 11
98.78578643762701
 21
77.98578643762734
  0
MTEXT
  5
115
100
AcDbEntity
  8
dimensions
  6
CONTINUOUS
 62
    0
370
   -2
100
AcDbMText
 10
85.20000000000012
 20
82.90000000000043
 30
0
 40
3
 41
6.000000000000185
 71
    5
 72
    1
  1
300
  7
standard
210
0
220
0
230
1
 50
0
 73
    2
 44
1
  0
LINE
  5
116
100
AcDbEntity
  8
dimensions
  6
ByBlock
 62
    0
370
   -2
100
AcDbLine
 10
70.20000000000012
 20
64.70000000000036
 11
70.20000000000012
 21
81.40000000000043
  0
LINE
  5
117
100
AcDbEntity
  8
dimensions
  6
ByBlock
 62
    0
370
   -2
100
AcDbLine
 10
100.2000000000001
 20
64.70000000000036
 11
100.2000000000001
 21
81.40000000000043
  0
ENDBLK
  5
6C
330
6A
100
AcDbEntity
  8
0
100
AcDbBlockEnd
  0
BLOCK
  5
6E
330
6D
100
AcDbEntity
  8
0
100
AcDbBlockBegin
  2
*D37
 70
    1
 10
0
 20
0
  3
*D37
  1

  0
LINE
  5
118
100
AcDbEntity
  8
dimensions
  6
ByBlock
 62
    0
370
   -2
100
AcDbLine
 10
25.1
 20
10
 11
13.9
 21
10
  0
LINE
  5
119
100
AcDbEntity
  8
dimensions
  6
ByBlock
 62
    0
370
   -2
100
AcDbLine
 10
23.68578643762691
 20
8.585786437626904
 11
26.5142135623731
 21
11.4142135623731
  0
LINE
  5
11A
100
AcDbEntity
  8
dimensions
  6
ByBlock
 62
    0
370
   -2
100
AcDbLine
 10
12.4857864376269
 20
8.585786437626904
 11
15.3142135623731
 21
11.4142135623731
  0
MTEXT
  5
11B
100
AcDbEntity
  8
dimensions
  6
CONTINUOUS
 62
    0
370
   -2
100
AcDbMText
 10
19.01666666666676
 20
15
 30
0
 40
3
 41
12.83333333333352
 71
    5
 72
    1
  1
112%%P0,5
  7
standard
210
0
220
0
230
1
 50
360
 73
    2
 44
1
  0
LINE
  5
11C
100
AcDbEntity
  8
dimensions
  6
ByBlock
 62
    0
370
   -2
100
AcDbLine
 10
25.1
 20
5.699999999999603
 11
25.1
 21
12
  0
LINE
  5
11D
100
AcDbEntity
  8
dimensions
  6
ByBlock
 62
    0
370
   -2
100
AcDbLine
 10
13.9
 20
5.7
 11
13.9
 21
12
  0
ENDBLK
  5
6F
330
6D
100
AcDbEntity
  8
0
100
AcDbBlockEnd
  0
BLOCK
  5
71
330
70
100
AcDbEntity
  8
0
100
AcDbBlockBegin
  2
*D36
 70
    1
 10
0
 20
0
  3
*D36
  1

  0
LINE
  5
11E
100
AcDbEntity
  8
dimensions
  6
ByBlock
 62
    0
370
   -2
100
AcDbLine
 10
0
 20
-10
 11
14.1
 21
-10
  0
LINE
  5
11F
100
AcDbEntity
  8
dimensions
  6
ByBlock
 62
    0
370
   -2
100
AcDbLine
 10
1.414213562373095
 20
-8.585786437626904
 11
-1.414213562373095
 21
-11.4142135623731
  0
LINE
  5
120
100
AcDbEntity
  8
dimensions
  6
ByBlock
 62
    0
370
   -2
100
AcDbLine
 10
15.5142135623731
 20
-8.585786437626904
 11
12.6857864376269
 21
-11.4142135623731
  0
MTEXT
  5
121
100
AcDbEntity
  8
dimensions
  6
CONTINUOUS
 62
    0
370
   -2
100
AcDbMText
 10
7.050000000000001
 20
-6.5
 30
0
 40
3
 41
5
 71
    5
 72
    1
  1
141
  7
standard
210
0
220
0
230
1
 50
0
 73
    2
 44
1
  0
LINE
  5
122
100
AcDbEntity
  8
dimensions
  6
ByBlock
 62
    0
370
   -2
100
AcDbLine
 10
-1.83697019872103e-16
 20
-1
 11
-3.673940397442059e-16
 21
-12
  0
LINE
  5
123
100
AcDbEntity
  8
dimensions
  6
ByBlock
 62
    0
370
   -2
100
AcDbLine
 10
14.1
 20
-1
 11
14.1
 21
-12
  0
ENDBLK
  5
72
330
70
100
AcDbEntity
  8
0
100
AcDbBlockEnd
  0
BLOCK
  5
74
330
73
100
AcDbEntity
  8
0
100
AcDbBlockBegin
  2
*D2
 70
    1
 10
0
 20
0
  3
*D2
  1

  0
LINE
  5
124
100
AcDbEntity
  8
dimensions
  6
CONTINUOUS
 62
    7
370
    0
100
AcDbLine
 10
68.70000000000012
 20
49.70000000000043
 11
75.70000000000012
 21
55.70000000000043
  0
LINE
  5
125
100
AcDbEntity
  8
dimensions
  6
CONTINUOUS
 62
    7
370
    0
100
AcDbLine
 10
75.70000000000012
 20
55.70000000000043
 11
82.70000000000012
 21
55.70000000000043
  0
SOLID
  5
126
100
AcDbEntity
  8
dimensions
  6
CONTINUOUS
 62
    7
370
    0
100
AcDbTrace
 10
68.70000000000012
 20
49.70000000000043
 30
0
 11
70.0017816333862
 21
51.25443624681429
 31
0
 12
70.43524477607522
 22
50.74872924701044
 32
0
 13
70.43524477607522
 23
50.74872924701044
 33
0
  0
ENDBLK
  5
75
330
73
100
AcDbEntity
  8
0
100
AcDbBlockEnd
  0
BLOCK
  5
77
330
76
100
AcDbEntity
  8
0
100
AcDbBlockBegin
  2
*D15
 70
    1
 10
0
 20
0
  3
*D15
  1

  0
LINE
  5
127
100
AcDbEntity
  8
dimensions
  6
ByBlock
 62
    0
370
   -2
100
AcDbLine
 10
57.8
 20
10
 11
67.2
 21
10
  0
LINE
  5
128
100
AcDbEntity
  8
dimensions
  6
ByBlock
 62
    0
370
   -2
100
AcDbLine
 10
59.21421356237309
 20
11.4142135623731
 11
56.3857864376269
 21
8.585786437626904
  0
LINE
  5
129
100
AcDbEntity
  8
dimensions
  6
ByBlock
 62
    0
370
   -2
100
AcDbLine
 10
68.6142135623731
 20
11.4142135623731
 11
65.78578643762691
 21
8.585786437626904
  0
MTEXT
  5
12A
100
AcDbEntity
  8
dimensions
  6
CONTINUOUS
 62
    0
370
   -2
100
AcDbMText
 10
62.5
 20
13.5
 30
0
 40
3
 41
4.000000000000186
 71
    5
 72
    1
  1
94
  7
standard
210
0
220
0
230
1
 50
0
 73
    2
 44
1
  0
LINE
  5
12B
100
AcDbEntity
  8
dimensions
  6
ByBlock
 62
    0
370
   -2
100
AcDbLine
 10
57.8
 20
5.699999999999589
 11
57.8
 21
12
  0
LINE
  5
12C
100
AcDbEntity
  8
dimensions
  6
ByBlock
 62
    0
370
   -2
100
AcDbLine
 10
67.2
 20
5.699999999999958
 11
67.2
 21
12
  0
ENDBLK
  5
78
330
76
100
AcDbEntity
  8
0
100
AcDbBlockEnd
  0
BLOCK
  5
7A
330
79
100
AcDbEntity
  8
0
100
AcDbBlockBegin
  2
*D11
 70
    1
 10
0
 20
0
  3
*D11
  1

  0
LINE
  5
12D
100
AcDbEntity
  8
dimensions
  6
ByBlock
 62
    0
370
   -2
100
AcDbLine
 10
128.7000000000001
 20
79.40000000000079
 11
140.7000000000001
 21
79.40000000000079
  0
LINE
  5
12E
100
AcDbEntity
  8
dimensions
  6
ByBlock
 62
    0
370
   -2
100
AcDbLine
 10
131.285786437627
 20
77.9857864376277
 11
134.1142135623732
 21
80.81421356237388
  0
LINE
  5
12F
100
AcDbEntity
  8
dimensions
  6
ByBlock
 62
    0
370
   -2
100
AcDbLine
 10
135.285786437627
 20
77.9857864376277
 11
138.1142135623732
 21
80.81421356237388
  0
MTEXT
  5
130
100
AcDbEntity
  8
dimensions
  6
CONTINUOUS
 62
    0
370
   -2
100
AcDbMText
 10
142.1500000000001
 20
82.90000000000079
 30
0
 40
3
 41
6.9
 71
    5
 72
    1
  1
40*
  7
standard
210
0
220
0
230
1
 50
0
 73
    2
 44
1
  0
LINE
  5
131
100
AcDbEntity
  8
dimensions
  6
ByBlock
 62
    0
370
   -2
100
AcDbLine
 10
132.7000000000001
 20
64.70000000000043
 11
132.7000000000001
 21
81.40000000000079
  0
LINE
  5
132
100
AcDbEntity
  8
dimensions
  6
ByBlock
 62
    0
370
   -2
100
AcDbLine
 10
136.7000000000001
 20
64.70000000000043
 11
136.7000000000001
 21
81.40000000000079
  0
ENDBLK
  5
7B
330
79
100
AcDbEntity
  8
0
100
AcDbBlockEnd
  0
BLOCK
  5
7D
330
7C
100
AcDbEntity
  8
0
100
AcDbBlockBegin
  2
*D48
 70
    1
 10
0
 20
0
  3
*D48
  1

  0
LINE
  5
133
100
AcDbEntity
  8
dimensions
  6
ByBlock
 62
    0
370
   -2
100
AcDbLine
 10
96.70000000000012
 20
4.699999999999964
 11
96.70000000000012
 21
32.9
  0
LINE
  5
134
100
AcDbEntity
  8
dimensions
  6
ByBlock
 62
    0
370
   -2
100
AcDbLine
 10
95.28578643762702
 20
6.11421356237306
 11
98.11421356237321
 21
3.285786437626868
  0
LINE
  5
135
100
AcDbEntity
  8
dimensions
  6
ByBlock
 62
    0
370
   -2
100
AcDbLine
 10
95.28578643762702
 20
34.31421356237309
 11
98.11421356237321
 21
31.4857864376269
  0
MTEXT
  5
136
100
AcDbEntity
  8
dimensions
  6
CONTINUOUS
 62
    0
370
   -2
100
AcDbMText
 10
93.20000000000012
 20
18.79999999999998
 30
0
 40
3
 41
6
 71
    5
 72
    1
  1
282
  7
standard
210
0
220
0
230
1
 50
90
 73
    2
 44
1
  0
LINE
  5
137
100
AcDbEntity
  8
dimensions
  6
ByBlock
 62
    0
370
   -2
100
AcDbLine
 10
99.2
 20
4.69999999999996
 11
94.70000000000012
 21
4.699999999999966
  0
LINE
  5
138
100
AcDbEntity
  8
dimensions
  6
ByBlock
 62
    0
370
   -2
100
AcDbLine
 10
99.2
 20
32.9
 11
94.70000000000012
 21
32.9
  0
ENDBLK
  5
7E
330
7C
100
AcDbEntity
  8
0
100
AcDbBlockEnd
  0
BLOCK
  5
80
330
7F
100
AcDbEntity
  8
0
100
AcDbBlockBegin
  2
*D4
 70
    1
 10
0
 20
0
  3
*D4
  1

  0
LINE
  5
139
100
AcDbEntity
  8
dimensions
  6
CONTINUOUS
 62
    7
370
    0
100
AcDbLine
 10
134.7000000000001
 20
49.70000000000043
 11
141.7000000000001
 21
55.70000000000043
  0
LINE
  5
13A
100
AcDbEntity
  8
dimensions
  6
CONTINUOUS
 62
    7
370
    0
100
AcDbLine
 10
141.7000000000001
 20
55.70000000000043
 11
148.7000000000001
 21
55.70000000000043
  0
SOLID
  5
13B
100
AcDbEntity
  8
dimensions
  6
CONTINUOUS
 62
    7
370
    0
100
AcDbTrace
 10
134.7000000000001
 20
49.70000000000043
 30
0
 11
136.0017816333862
 21
51.25443624681429
 31
0
 12
136.4352447760752
 22
50.74872924701044
 32
0
 13
136.4352447760752
 23
50.74872924701044
 33
0
  0
ENDBLK
  5
81
330
7F
100
AcDbEntity
  8
0
100
AcDbBlockEnd
  0
BLOCK
  5
83
330
82
100
AcDbEntity
  8
0
100
AcDbBlockBegin
  2
*D19
 70
    1
 10
0
 20
0
  3
*D19
  1

  0
LINE
  5
13C
100
AcDbEntity
  8
dimensions
  6
ByBlock
 62
    0
370
   -2
100
AcDbLine
 10
90.80000000000001
 20
10
 11
100.2
 21
10
  0
LINE
  5
13D
100
AcDbEntity
  8
dimensions
  6
ByBlock
 62
    0
370
   -2
100
AcDbLine
 10
92.2142135623731
 20
11.4142135623731
 11
89.38578643762692
 21
8.585786437626904
  0
LINE
  5
13E
100
AcDbEntity
  8
dimensions
  6
ByBlock
 62
    0
370
   -2
100
AcDbLine
 10
101.6142135623731
 20
11.4142135623731
 11
98.78578643762691
 21
8.585786437626904
  0
MTEXT
  5
13F
100
AcDbEntity
  8
dimensions
  6
CONTINUOUS
 62
    0
370
   -2
100
AcDbMText
 10
95.50000000000001
 20
13.5
 30
0
 40
3
 41
4.000000000000186
 71
    5
 72
    1
  1
94
  7
standard
210
0
220
0
230
1
 50
0
 73
    2
 44
1
  0
LINE
  5
140
100
AcDbEntity
  8
dimensions
  6
ByBlock
 62
    0
370
   -2
100
AcDbLine
 10
90.80000000000001
 20
5.699999999999589
 11
90.80000000000001
 21
12
  0
LINE
  5
141
100
AcDbEntity
  8
dimensions
  6
ByBlock
 62
    0
370
   -2
100
AcDbLine
 10
100.2
 20
5.699999999999958
 11
100.2
 21
12
  0
ENDBLK
  5
84
330
82
100
AcDbEntity
  8
0
100
AcDbBlockEnd
  0
BLOCK
  5
86
330
85
100
AcDbEntity
  8
0
100
AcDbBlockBegin
  2
*D8
 70
    1
 10
0
 20
0
  3
*D8
  1

  0
LINE
  5
142
100
AcDbEntity
  8
dimensions
  6
ByBlock
 62
    0
370
   -2
100
AcDbLine
 10
30.20000000000012
 20
79.40000000000079
 11
41.20000000000012
 21
79.40000000000079
  0
LINE
  5
143
100
AcDbEntity
  8
dimensions
  6
ByBlock
 62
    0
370
   -2
100
AcDbLine
 10
32.78578643762702
 20
77.9857864376277
 11
35.61421356237321
 21
80.81421356237388
  0
LINE
  5
144
100
AcDbEntity
  8
dimensions
  6
ByBlock
 62
    0
370
   -2
100
AcDbLine
 10
35.78578643762702
 20
77.9857864376277
 11
38.61421356237321
 21
80.81421356237388
  0
MTEXT
  5
145
100
AcDbEntity
  8
dimensions
  6
CONTINUOUS
 62
    0
370
   -2
100
AcDbMText
 10
42.48333333333354
 20
82.90000000000079
 30
0
 40
3
 41
6.566666666666853
 71
    5
 72
    1
  1
30*
  7
standard
210
0
220
0
230
1
 50
0
 73
    2
 44
1
  0
LINE
  5
146
100
AcDbEntity
  8
dimensions
  6
ByBlock
 62
    0
370
   -2
100
AcDbLine
 10
34.20000000000012
 20
64.70000000000036
 11
34.20000000000012
 21
81.40000000000079
  0
LINE
  5
147
100
AcDbEntity
  8
dimensions
  6
ByBlock
 62
    0
370
   -2
100
AcDbLine
 10
37.20000000000012
 20
64.70000000000036
 11
37.20000000000012
 21
81.40000000000079
  0
ENDBLK
  5
87
330
85
100
AcDbEntity
  8
0
100
AcDbBlockEnd
  0
BLOCK
  5
89
330
88
100
AcDbEntity
  8
0
100
AcDbBlockBegin
  2
*D29
 70
    1
 10
0
 20
0
  3
*D29
  1

  0
LINE
  5
148
100
AcDbEntity
  8
dimensions
  6
ByBlock
 62
    0
370
   -2
100
AcDbLine
 10
169.4
 20
-10
 11
180.4
 21
-10
  0
LINE
  5
149
100
AcDbEntity
  8
dimensions
  6
ByBlock
 62
    0
370
   -2
100
AcDbLine
 10
170.8142135623731
 20
-8.585786437626904
 11
167.9857864376269
 21
-11.4142135623731
  0
LINE
  5
14A
100
AcDbEntity
  8
dimensions
  6
ByBlock
 62
    0
370
   -2
100
AcDbLine
 10
181.8142135623731
 20
-8.585786437626904
 11
178.9857864376269
 21
-11.4142135623731
  0
MTEXT
  5
14B
100
AcDbEntity
  8
dimensions
  6
CONTINUOUS
 62
    0
370
   -2
100
AcDbMText
 10
174.9
 20
-6.5
 30
0
 40
3
 41
4.666666666666666
 71
    5
 72
    1
  1
110
  7
standard
210
0
220
0
230
1
 50
0
 73
    2
 44
1
  0
LINE
  5
14C
100
AcDbEntity
  8
dimensions
  6
ByBlock
 62
    0
370
   -2
100
AcDbLine
 10
169.4
 20
-1
 11
169.4
 21
-12
  0
LINE
  5
14D
100
AcDbEntity
  8
dimensions
  6
ByBlock
 62
    0
370
   -2
100
AcDbLine
 10
180.4
 20
-1
 11
180.4
 21
-12
  0
ENDBLK
  5
8A
330
88
100
AcDbEntity
  8
0
100
AcDbBlockEnd
  0
BLOCK
  5
8C
330
8B
100
AcDbEntity
  8
0
100
AcDbBlockBegin
  2
*D24
 70
    1
 10
0
 20
0
  3
*D24
  1

  0
LINE
  5
14E
100
AcDbEntity
  8
dimensions
  6
ByBlock
 62
    0
370
   -2
100
AcDbLine
 10
189.4
 20
8.699999999999999
 11
189.4
 21
-4
  0
LINE
  5
14F
100
AcDbEntity
  8
dimensions
  6
ByBlock
 62
    0
370
   -2
100
AcDbLine
 10
187.9857864376269
 20
6.114213562373095
 11
190.8142135623731
 21
3.285786437626905
  0
LINE
  5
150
100
AcDbEntity
  8
dimensions
  6
ByBlock
 62
    0
370
   -2
100
AcDbLine
 10
187.9857864376269
 20
1.414213562373095
 11
190.8142135623731
 21
-1.414213562373095
  0
MTEXT
  5
151
100
AcDbEntity
  8
dimensions
  6
CONTINUOUS
 62
    0
370
   -2
100
AcDbMText
 10
185.9
 20
12.78333333333343
 30
0
 40
3
 41
12.16666666666685
 71
    5
 72
    1
  1
47%%P0,5
  7
standard
210
0
220
0
230
1
 50
90
 73
    2
 44
1
  0
LINE
  5
152
100
AcDbEntity
  8
dimensions
  6
ByBlock
 62
    0
370
   -2
100
AcDbLine
 10
176.7
 20
4.7
 11
191.4
 21
4.7
  0
LINE
  5
153
100
AcDbEntity
  8
dimensions
  6
ByBlock
 62
    0
370
   -2
100
AcDbLine
 10
181.4
 20
0
 11
191.4
 21
0
  0
ENDBLK
  5
8D
330
8B
100
AcDbEntity
  8
0
100
AcDbBlockEnd
  0
BLOCK
  5
8F
330
8E
100
AcDbEntity
  8
0
100
AcDbBlockBegin
  2
*D44
 70
    1
 10
0
 20
0
  3
*D44
  1

  0
LINE
  5
154
100
AcDbEntity
  8
dimensions
  6
ByBlock
 62
    0
370
   -2
100
AcDbLine
 10
79.80000000000003
 20
-10
 11
90.60000000000001
 21
-10
  0
LINE
  5
155
100
AcDbEntity
  8
dimensions
  6
ByBlock
 62
    0
370
   -2
100
AcDbLine
 10
81.21421356237312
 20
-8.585786437626904
 11
78.38578643762693
 21
-11.4142135623731
  0
LINE
  5
156
100
AcDbEntity
  8
dimensions
  6
ByBlock
 62
    0
370
   -2
100
AcDbLine
 10
92.0142135623731
 20
-8.585786437626904
 11
89.18578643762692
 21
-11.4142135623731
  0
MTEXT
  5
157
100
AcDbEntity
  8
dimensions
  6
CONTINUOUS
 62
    0
370
   -2
100
AcDbMText
 10
85.15000000000009
 20
-15
 30
0
 40
3
 41
13.50000000000018
 71
    5
 72
    1
  1
108%%P0,5
  7
standard
210
0
220
0
230
1
 50
0
 73
    2
 44
1
  0
LINE
  5
158
100
AcDbEntity
  8
dimensions
  6
ByBlock
 62
    0
370
   -2
100
AcDbLine
 10
79.80000000000003
 20
-1
 11
79.80000000000003
 21
-12
  0
LINE
  5
159
100
AcDbEntity
  8
dimensions
  6
ByBlock
 62
    0
370
   -2
100
AcDbLine
 10
90.60000000000001
 20
-1
 11
90.60000000000001
 21
-12
  0
ENDBLK
  5
90
330
8E
100
AcDbEntity
  8
0
100
AcDbBlockEnd
  0
BLOCK
  5
92
330
91
100
AcDbEntity
  8
0
100
AcDbBlockBegin
  2
*D9
 70
    1
 10
0
 20
0
  3
*D9
  1

  0
LINE
  5
15A
100
AcDbEntity
  8
dimensions
  6
ByBlock
 62
    0
370
   -2
100
AcDbLine
 10
63.20000000000012
 20
79.40000000000079
 11
74.20000000000012
 21
79.40000000000079
  0
LINE
  5
15B
100
AcDbEntity
  8
dimensions
  6
ByBlock
 62
    0
370
   -2
100
AcDbLine
 10
65.78578643762702
 20
77.9857864376277
 11
68.61421356237321
 21
80.81421356237388
  0
LINE
  5
15C
100
AcDbEntity
  8
dimensions
  6
ByBlock
 62
    0
370
   -2
100
AcDbLine
 10
68.78578643762702
 20
77.9857864376277
 11
71.61421356237321
 21
80.81421356237388
  0
MTEXT
  5
15D
100
AcDbEntity
  8
dimensions
  6
CONTINUOUS
 62
    0
370
   -2
100
AcDbMText
 10
75.48333333333355
 20
82.90000000000079
 30
0
 40
3
 41
6.566666666666853
 71
    5
 72
    1
  1
30*
  7
standard
210
0
220
0
230
1
 50
0
 73
    2
 44
1
  0
LINE
  5
15E
100
AcDbEntity
  8
dimensions
  6
ByBlock
 62
    0
370
   -2
100
AcDbLine
 10
67.20000000000012
 20
64.70000000000036
 11
67.20000000000012
 21
81.40000000000079
  0
LINE
  5
15F
100
AcDbEntity
  8
dimensions
  6
ByBlock
 62
    0
370
   -2
100
AcDbLine
 10
70.20000000000012
 20
64.70000000000036
 11
70.20000000000012
 21
81.40000000000079
  0
ENDBLK
  5
93
330
91
100
AcDbEntity
  8
0
100
AcDbBlockEnd
  0
BLOCK
  5
95
330
94
100
AcDbEntity
  8
0
100
AcDbBlockBegin
  2
*D12
 70
    1
 10
0
 20
0
  3
*D12
  1

  0
LINE
  5
160
100
AcDbEntity
  8
dimensions
  6
ByBlock
 62
    0
370
   -2
100
AcDbLine
 10
79.80000000000003
 20
-10
 11
57.60000000000002
 21
-10
  0
LINE
  5
161
100
AcDbEntity
  8
dimensions
  6
ByBlock
 62
    0
370
   -2
100
AcDbLine
 10
78.38578643762693
 20
-11.4142135623731
 11
81.21421356237312
 21
-8.585786437626904
  0
LINE
  5
162
100
AcDbEntity
  8
dimensions
  6
ByBlock
 62
    0
370
   -2
100
AcDbLine
 10
56.18578643762693
 20
-11.4142135623731
 11
59.01421356237311
 21
-8.585786437626904
  0
MTEXT
  5
163
100
AcDbEntity
  8
dimensions
  6
CONTINUOUS
 62
    0
370
   -2
100
AcDbMText
 10
68.70000000000002
 20
-6.499999999999999
 30
0
 40
3
 41
6
 71
    5
 72
    1
  1
222
  7
standard
210
0
220
0
230
1
 50
360
 73
    2
 44
1
  0
LINE
  5
164
100
AcDbEntity
  8
dimensions
  6
ByBlock
 62
    0
370
   -2
100
AcDbLine
 10
79.80000000000003
 20
-1
 11
79.80000000000003
 21
-12
  0
LINE
  5
165
100
AcDbEntity
  8
dimensions
  6
ByBlock
 62
    0
370
   -2
100
AcDbLine
 10
57.60000000000002
 20
-1
 11
57.60000000000002
 21
-12
  0
ENDBLK
  5
96
330
94
100
AcDbEntity
  8
0
100
AcDbBlockEnd
  0
BLOCK
  5
98
330
97
100
AcDbEntity
  8
0
100
AcDbBlockBegin
  2
*D23
 70
    1
 10
0
 20
0
  3
*D23
  1

  0
LINE
  5
166
100
AcDbEntity
  8
dimensions
  6
ByBlock
 62
    0
370
   -2
100
AcDbLine
 10
189.4000000000001
 20
59.70000000000043
 11
189.4000000000001
 21
72.40000000000043
  0
LINE
  5
167
100
AcDbEntity
  8
dimensions
  6
ByBlock
 62
    0
370
   -2
100
AcDbLine
 10
190.8142135623732
 20
62.28578643762734
 11
187.985786437627
 21
65.11421356237352
  0
LINE
  5
168
100
AcDbEntity
  8
dimensions
  6
ByBlock
 62
    0
370
   -2
100
AcDbLine
 10
190.8142135623732
 20
66.98578643762734
 11
187.985786437627
 21
69.81421356237352
  0
MTEXT
  5
169
100
AcDbEntity
  8
dimensions
  6
CONTINUOUS
 62
    0
370
   -2
100
AcDbMText
 10
185.9000000000001
 20
76.48333333333385
 30
0
 40
3
 41
12.16666666666685
 71
    5
 72
    1
  1
47%%P0,5
  7
standard
210
0
220
0
230
1
 50
90
 73
    2
 44
1
  0
LINE
  5
16A
100
AcDbEntity
  8
dimensions
  6
ByBlock
 62
    0
370
   -2
100
AcDbLine
 10
176.7000000000001
 20
63.70000000000043
 11
191.4000000000001
 21
63.70000000000043
  0
LINE
  5
16B
100
AcDbEntity
  8
dimensions
  6
ByBlock
 62
    0
370
   -2
100
AcDbLine
 10
181.4000000000001
 20
68.40000000000043
 11
191.4000000000001
 21
68.40000000000043
  0
ENDBLK
  5
99
330
97
100
AcDbEntity
  8
0
100
AcDbBlockEnd
  0
BLOCK
  5
9B
330
9A
100
AcDbEntity
  8
0
100
AcDbBlockBegin
  2
*D39
 70
    1
 10
0
 20
0
  3
*D39
  1

  0
LINE
  5
16C
100
AcDbEntity
  8
dimensions
  6
ByBlock
 62
    0
370
   -2
100
AcDbLine
 10
57.8
 20
10
 11
46.60000000000002
 21
10
  0
LINE
  5
16D
100
AcDbEntity
  8
dimensions
  6
ByBlock
 62
    0
370
   -2
100
AcDbLine
 10
56.3857864376269
 20
8.585786437626904
 11
59.21421356237309
 21
11.4142135623731
  0
LINE
  5
16E
100
AcDbEntity
  8
dimensions
  6
ByBlock
 62
    0
370
   -2
100
AcDbLine
 10
45.18578643762693
 20
8.585786437626904
 11
48.01421356237311
 21
11.4142135623731
  0
MTEXT
  5
16F
100
AcDbEntity
  8
dimensions
  6
CONTINUOUS
 62
    0
370
   -2
100
AcDbMText
 10
52.01666666666675
 20
15
 30
0
 40
3
 41
12.83333333333352
 71
    5
 72
    1
  1
112%%P0,5
  7
standard
210
0
220
0
230
1
 50
360
 73
    2
 44
1
  0
LINE
  5
170
100
AcDbEntity
  8
dimensions
  6
ByBlock
 62
    0
370
   -2
100
AcDbLine
 10
57.8
 20
5.699999999999589
 11
57.8
 21
12
  0
LINE
  5
171
100
AcDbEntity
  8
dimensions
  6
ByBlock
 62
    0
370
   -2
100
AcDbLine
 10
46.60000000000002
 20
5.699999999999603
 11
46.60000000000002
 21
12
  0
ENDBLK
  5
9C
330
9A
100
AcDbEntity
  8
0
100
AcDbBlockEnd
  0
BLOCK
  5
9E
330
9D
100
AcDbEntity
  8
0
100
AcDbBlockBegin
  2
*D47
 70
    1
 10
0
 20
0
  3
*D47
  1

  0
LINE
  5
172
100
AcDbEntity
  8
dimensions
  6
ByBlock
 62
    0
370
   -2
100
AcDbLine
 10
96.70000000000012
 20
35.5
 11
96.70000000000012
 21
63.70000000000036
  0
LINE
  5
173
100
AcDbEntity
  8
dimensions
  6
ByBlock
 62
    0
370
   -2
100
AcDbLine
 10
95.28578643762702
 20
36.91421356237309
 11
98.11421356237321
 21
34.08578643762691
  0
LINE
  5
174
100
AcDbEntity
  8
dimensions
  6
ByBlock
 62
    0
370
   -2
100
AcDbLine
 10
95.28578643762702
 20
65.11421356237345
 11
98.11421356237321
 21
62.28578643762727
  0
MTEXT
  5
175
100
AcDbEntity
  8
dimensions
  6
CONTINUOUS
 62
    0
370
   -2
100
AcDbMText
 10
93.20000000000012
 20
49.60000000000018
 30
0
 40
3
 41
6
 71
    5
 72
    1
  1
282
  7
standard
210
0
220
0
230
1
 50
90
 73
    2
 44
1
  0
LINE
  5
176
100
AcDbEntity
  8
dimensions
  6
ByBlock
 62
    0
370
   -2
100
AcDbLine
 10
99.2
 20
35.5
 11
94.70000000000012
 21
35.5
  0
LINE
  5
177
100
AcDbEntity
  8
dimensions
  6
ByBlock
 62
    0
370
   -2
100
AcDbLine
 10
99.2000000000001
 20
63.70000000000036
 11
94.70000000000012
 21
63.70000000000036
  0
ENDBLK
  5
9F
330
9D
100
AcDbEntity
  8
0
100
AcDbBlockEnd
  0
BLOCK
  5
A1
330
A0
100
AcDbEntity
  8
0
100
AcDbBlockBegin
  2
*D30
 70
    1
 10
0
 20
0
  3
*D30
  1

  0
LINE
  5
178
100
AcDbEntity
  8
dimensions
  6
ByBlock
 62
    0
370
   -2
100
AcDbLine
 10
169.7
 20
10
 11
175.7
 21
10
  0
LINE
  5
179
100
AcDbEntity
  8
dimensions
  6
ByBlock
 62
    0
370
   -2
100
AcDbLine
 10
171.1142135623731
 20
11.4142135623731
 11
168.2857864376269
 21
8.585786437626904
  0
LINE
  5
17A
100
AcDbEntity
  8
dimensions
  6
ByBlock
 62
    0
370
   -2
100
AcDbLine
 10
177.1142135623731
 20
11.4142135623731
 11
174.2857864376269
 21
8.585786437626904
  0
MTEXT
  5
17B
100
AcDbEntity
  8
dimensions
  6
CONTINUOUS
 62
    0
370
   -2
100
AcDbMText
 10
172.7
 20
13.5
 30
0
 40
3
 41
3.666666666666852
 71
    5
 72
    1
  1
60
  7
standard
210
0
220
0
230
1
 50
0
 73
    2
 44
1
  0
LINE
  5
17C
100
AcDbEntity
  8
dimensions
  6
ByBlock
 62
    0
370
   -2
100
AcDbLine
 10
169.7
 20
5.699999999999616
 11
169.7
 21
12
  0
LINE
  5
17D
100
AcDbEntity
  8
dimensions
  6
ByBlock
 62
    0
370
   -2
100
AcDbLine
 10
175.7
 20
5.7
 11
175.7
 21
12
  0
ENDBLK
  5
A2
330
A0
100
AcDbEntity
  8
0
100
AcDbBlockEnd
  0
BLOCK
  5
A4
330
A3
100
AcDbEntity
  8
0
100
AcDbBlockBegin
  2
*D35
 70
    1
 10
0
 20
0
  3
*D35
  1

  0
LINE
  5
17E
100
AcDbEntity
  8
dimensions
  6
ByBlock
 62
    0
370
   -2
100
AcDbLine
 10
13.9
 20
10
 11
4.699999999999999
 21
10
  0
LINE
  5
17F
100
AcDbEntity
  8
dimensions
  6
ByBlock
 62
    0
370
   -2
100
AcDbLine
 10
12.4857864376269
 20
8.585786437626904
 11
15.3142135623731
 21
11.4142135623731
  0
LINE
  5
180
100
AcDbEntity
  8
dimensions
  6
ByBlock
 62
    0
370
   -2
100
AcDbLine
 10
3.285786437626904
 20
8.585786437626904
 11
6.114213562373094
 21
11.4142135623731
  0
MTEXT
  5
181
100
AcDbEntity
  8
dimensions
  6
CONTINUOUS
 62
    0
370
   -2
100
AcDbMText
 10
9.300000000000001
 20
13.5
 30
0
 40
3
 41
3.666666666666853
 71
    5
 72
    1
  1
92
  7
standard
210
0
220
0
230
1
 50
360
 73
    2
 44
1
  0
LINE
  5
182
100
AcDbEntity
  8
dimensions
  6
ByBlock
 62
    0
370
   -2
100
AcDbLine
 10
13.9
 20
5.7
 11
13.9
 21
12
  0
LINE
  5
183
100
AcDbEntity
  8
dimensions
  6
ByBlock
 62
    0
370
   -2
100
AcDbLine
 10
4.699999999999999
 20
5.699999999999998
 11
4.699999999999999
 21
12
  0
ENDBLK
  5
A5
330
A3
100
AcDbEntity
  8
0
100
AcDbBlockEnd
  0
BLOCK
  5
A7
330
A6
100
AcDbEntity
  8
0
100
AcDbBlockBegin
  2
*D10
 70
    1
 10
0
 20
0
  3
*D10
  1

  0
LINE
  5
184
100
AcDbEntity
  8
dimensions
  6
ByBlock
 62
    0
370
   -2
100
AcDbLine
 10
96.2000000000001
 20
79.40000000000079
 11
107.2000000000001
 21
79.40000000000079
  0
LINE
  5
185
100
AcDbEntity
  8
dimensions
  6
ByBlock
 62
    0
370
   -2
100
AcDbLine
 10
98.78578643762701
 20
77.9857864376277
 11
101.6142135623732
 21
80.81421356237388
  0
LINE
  5
186
100
AcDbEntity
  8
dimensions
  6
ByBlock
 62
    0
370
   -2
100
AcDbLine
 10
101.785786437627
 20
77.9857864376277
 11
104.6142135623732
 21
80.81421356237388
  0
MTEXT
  5
187
100
AcDbEntity
  8
dimensions
  6
CONTINUOUS
 62
    0
370
   -2
100
AcDbMText
 10
108.4833333333335
 20
82.90000000000079
 30
0
 40
3
 41
6.566666666666853
 71
    5
 72
    1
  1
30*
  7
standard
210
0
220
0
230
1
 50
0
 73
    2
 44
1
  0
LINE
  5
188
100
AcDbEntity
  8
dimensions
  6
ByBlock
 62
    0
370
   -2
100
AcDbLine
 10
100.2000000000001
 20
64.70000000000036
 11
100.2000000000001
 21
81.40000000000079
  0
LINE
  5
189
100
AcDbEntity
  8
dimensions
  6
ByBlock
 62
    0
370
   -2
100
AcDbLine
 10
103.2000000000001
 20
64.70000000000039
 11
103.2000000000001
 21
81.40000000000079
  0
ENDBLK
  5
A8
330
A6
100
AcDbEntity
  8
0
100
AcDbBlockEnd
  0
BLOCK
  5
AA
330
A9
100
AcDbEntity
  8
0
100
AcDbBlockBegin
  2
*D3
 70
    1
 10
0
 20
0
  3
*D3
  1

  0
LINE
  5
18A
100
AcDbEntity
  8
dimensions
  6
CONTINUOUS
 62
    7
370
    0
100
AcDbLine
 10
101.7000000000001
 20
49.70000000000043
 11
108.7000000000001
 21
55.70000000000043
  0
LINE
  5
18B
100
AcDbEntity
  8
dimensions
  6
CONTINUOUS
 62
    7
370
    0
100
AcDbLine
 10
108.7000000000001
 20
55.70000000000043
 11
115.7000000000001
 21
55.70000000000043
  0
SOLID
  5
18C
100
AcDbEntity
  8
dimensions
  6
CONTINUOUS
 62
    7
370
    0
100
AcDbTrace
 10
101.7000000000001
 20
49.70000000000043
 30
0
 11
103.0017816333862
 21
51.25443624681429
 31
0
 12
103.4352447760752
 22
50.74872924701044
 32
0
 13
103.4352447760752
 23
50.74872924701044
 33
0
  0
ENDBLK
  5
AB
330
A9
100
AcDbEntity
  8
0
100
AcDbBlockEnd
  0
BLOCK
  5
AD
330
AC
100
AcDbEntity
  8
0
100
AcDbBlockBegin
  2
*D32
 70
    1
 10
0
 20
0
  3
*D32
  1

  0
LINE
  5
18D
100
AcDbEntity
  8
dimensions
  6
ByBlock
 62
    0
370
   -2
100
AcDbLine
 10
142.9
 20
-10
 11
169.4
 21
-10
  0
LINE
  5
18E
100
AcDbEntity
  8
dimensions
  6
ByBlock
 62
    0
370
   -2
100
AcDbLine
 10
144.3142135623731
 20
-8.585786437626904
 11
141.4857864376269
 21
-11.4142135623731
  0
LINE
  5
18F
100
AcDbEntity
  8
dimensions
  6
ByBlock
 62
    0
370
   -2
100
AcDbLine
 10
170.8142135623731
 20
-8.585786437626904
 11
167.9857864376269
 21
-11.4142135623731
  0
MTEXT
  5
190
100
AcDbEntity
  8
dimensions
  6
CONTINUOUS
 62
    0
370
   -2
100
AcDbMText
 10
156.15
 20
-6.5
 30
0
 40
3
 41
14.16666666666723
 71
    5
 72
    1
  1
265%%P0,5
  7
standard
210
0
220
0
230
1
 50
0
 73
    2
 44
1
  0
LINE
  5
191
100
AcDbEntity
  8
dimensions
  6
ByBlock
 62
    0
370
   -2
100
AcDbLine
 10
142.9
 20
-1.000000000000441
 11
142.9
 21
-12
  0
LINE
  5
192
100
AcDbEntity
  8
dimensions
  6
ByBlock
 62
    0
370
   -2
100
AcDbLine
 10
169.4
 20
-1
 11
169.4
 21
-12
  0
ENDBLK
  5
AE
330
AC
100
AcDbEntity
  8
0
100
AcDbBlockEnd
  0
BLOCK
  5
B0
330
AF
100
AcDbEntity
  8
0
100
AcDbBlockBegin
  2
*D41
 70
    1
 10
0
 20
0
  3
*D41
  1

  0
LINE
  5
193
100
AcDbEntity
  8
dimensions
  6
ByBlock
 62
    0
370
   -2
100
AcDbLine
 10
127.5
 20
10
 11
136.7
 21
10
  0
LINE
  5
194
100
AcDbEntity
  8
dimensions
  6
ByBlock
 62
    0
370
   -2
100
AcDbLine
 10
130.0857864376269
 20
8.585786437626904
 11
132.9142135623731
 21
11.4142135623731
  0
LINE
  5
195
100
AcDbEntity
  8
dimensions
  6
ByBlock
 62
    0
370
   -2
100
AcDbLine
 10
131.2857864376269
 20
8.585786437626904
 11
134.1142135623731
 21
11.4142135623731
  0
MTEXT
  5
196
100
AcDbEntity
  8
dimensions
  6
CONTINUOUS
 62
    0
370
   -2
100
AcDbMText
 10
130.1
 20
15
 30
0
 40
3
 41
3
 71
    5
 72
    1
  1
12
  7
standard
210
0
220
0
230
1
 50
0
 73
    2
 44
1
  0
LINE
  5
197
100
AcDbEntity
  8
dimensions
  6
ByBlock
 62
    0
370
   -2
100
AcDbLine
 10
131.5
 20
5.699999999999589
 11
131.5
 21
12
  0
LINE
  5
198
100
AcDbEntity
  8
dimensions
  6
ByBlock
 62
    0
370
   -2
100
AcDbLine
 10
132.7
 20
5.7
 11
132.7
 21
12
  0
ENDBLK
  5
B1
330
AF
100
AcDbEntity
  8
0
100
AcDbBlockEnd
  0
BLOCK
  5
B3
330
B2
100
AcDbEntity
  8
0
100
AcDbBlockBegin
  2
*D20
 70
    1
 10
0
 20
0
  3
*D20
  1

  0
LINE
  5
199
100
AcDbEntity
  8
dimensions
  6
ByBlock
 62
    0
370
   -2
100
AcDbLine
 10
4.700000000000113
 20
79.40000000000043
 11
34.20000000000012
 21
79.40000000000043
  0
LINE
  5
19A
100
AcDbEntity
  8
dimensions
  6
ByBlock
 62
    0
370
   -2
100
AcDbLine
 10
6.114213562373209
 20
80.81421356237352
 11
3.285786437627018
 21
77.98578643762734
  0
LINE
  5
19B
100
AcDbEntity
  8
dimensions
  6
ByBlock
 62
    0
370
   -2
100
AcDbLine
 10
35.61421356237321
 20
80.81421356237352
 11
32.78578643762702
 21
77.98578643762734
  0
MTEXT
  5
19C
100
AcDbEntity
  8
dimensions
  6
CONTINUOUS
 62
    0
370
   -2
100
AcDbMText
 10
19.45000000000011
 20
82.90000000000043
 30
0
 40
3
 41
6.000000000000187
 71
    5
 72
    1
  1
295
  7
standard
210
0
220
0
230
1
 50
0
 73
    2
 44
1
  0
LINE
  5
19D
100
AcDbEntity
  8
dimensions
  6
ByBlock
 62
    0
370
   -2
100
AcDbLine
 10
4.700000000000114
 20
64.7000000000004
 11
4.700000000000113
 21
81.40000000000043
  0
LINE
  5
19E
100
AcDbEntity
  8
dimensions
  6
ByBlock
 62
    0
370
   -2
100
AcDbLine
 10
34.20000000000012
 20
64.70000000000036
 11
34.20000000000012
 21
81.40000000000043
  0
ENDBLK
  5
B4
330
B2
100
AcDbEntity
  8
0
100
AcDbBlockEnd
  0
BLOCK
  5
B6
330
B5
100
AcDbEntity
  8
0
100
AcDbBlockBegin
  2
*D17
 70
    1
 10
0
 20
0
  3
*D17
  1

  0
LINE
  5
19F
100
AcDbEntity
  8
dimensions
  6
ByBlock
 62
    0
370
   -2
100
AcDbLine
 10
131.5
 20
10
 11
104.4
 21
10
  0
LINE
  5
1A0
100
AcDbEntity
  8
dimensions
  6
ByBlock
 62
    0
370
   -2
100
AcDbLine
 10
130.0857864376269
 20
8.585786437626904
 11
132.9142135623731
 21
11.4142135623731
  0
LINE
  5
1A1
100
AcDbEntity
  8
dimensions
  6
ByBlock
 62
    0
370
   -2
100
AcDbLine
 10
102.9857864376269
 20
8.585786437626904
 11
105.8142135623731
 21
11.4142135623731
  0
MTEXT
  5
1A2
100
AcDbEntity
  8
dimensions
  6
CONTINUOUS
 62
    0
370
   -2
100
AcDbMText
 10
117.95
 20
13.5
 30
0
 40
3
 41
13.50000000000018
 71
    5
 72
    1
  1
271%%P0,5
  7
standard
210
0
220
0
230
1
 50
360
 73
    2
 44
1
  0
LINE
  5
1A3
100
AcDbEntity
  8
dimensions
  6
ByBlock
 62
    0
370
   -2
100
AcDbLine
 10
131.5
 20
5.699999999999589
 11
131.5
 21
12
  0
LINE
  5
1A4
100
AcDbEntity
  8
dimensions
  6
ByBlock
 62
    0
370
   -2
100
AcDbLine
 10
104.4
 20
5.699999999999603
 11
104.4
 21
12
  0
ENDBLK
  5
B7
330
B5
100
AcDbEntity
  8
0
100
AcDbBlockEnd
  0
BLOCK
  5
B9
330
B8
100
AcDbEntity
  8
0
100
AcDbBlockBegin
  2
*D43
 70
    1
 10
0
 20
0
  3
*D43
  1

  0
LINE
  5
1A5
100
AcDbEntity
  8
dimensions
  6
ByBlock
 62
    0
370
   -2
100
AcDbLine
 10
46.8
 20
-10
 11
57.60000000000002
 21
-10
  0
LINE
  5
1A6
100
AcDbEntity
  8
dimensions
  6
ByBlock
 62
    0
370
   -2
100
AcDbLine
 10
48.21421356237309
 20
-8.585786437626904
 11
45.3857864376269
 21
-11.4142135623731
  0
LINE
  5
1A7
100
AcDbEntity
  8
dimensions
  6
ByBlock
 62
    0
370
   -2
100
AcDbLine
 10
59.01421356237311
 20
-8.585786437626904
 11
56.18578643762693
 21
-11.4142135623731
  0
MTEXT
  5
1A8
100
AcDbEntity
  8
dimensions
  6
CONTINUOUS
 62
    0
370
   -2
100
AcDbMText
 10
52.15000000000011
 20
-15
 30
0
 40
3
 41
13.50000000000018
 71
    5
 72
    1
  1
108%%P0,5
  7
standard
210
0
220
0
230
1
 50
0
 73
    2
 44
1
  0
LINE
  5
1A9
100
AcDbEntity
  8
dimensions
  6
ByBlock
 62
    0
370
   -2
100
AcDbLine
 10
46.8
 20
-0.9999999999999998
 11
46.8
 21
-12
  0
LINE
  5
1AA
100
AcDbEntity
  8
dimensions
  6
ByBlock
 62
    0
370
   -2
100
AcDbLine
 10
57.60000000000002
 20
-1
 11
57.60000000000002
 21
-12
  0
ENDBLK
  5
BA
330
B8
100
AcDbEntity
  8
0
100
AcDbBlockEnd
  0
BLOCK
  5
BC
330
BB
100
AcDbEntity
  8
0
100
AcDbBlockBegin
  2
*D18
 70
    1
 10
0
 20
0
  3
*D18
  1

  0
LINE
  5
1AB
100
AcDbEntity
  8
dimensions
  6
ByBlock
 62
    0
370
   -2
100
AcDbLine
 10
104.7
 20
-10
 11
131.2
 21
-10
  0
LINE
  5
1AC
100
AcDbEntity
  8
dimensions
  6
ByBlock
 62
    0
370
   -2
100
AcDbLine
 10
106.1142135623731
 20
-8.585786437626904
 11
103.2857864376269
 21
-11.4142135623731
  0
LINE
  5
1AD
100
AcDbEntity
  8
dimensions
  6
ByBlock
 62
    0
370
   -2
100
AcDbLine
 10
132.6142135623731
 20
-8.585786437626904
 11
129.7857864376269
 21
-11.4142135623731
  0
MTEXT
  5
1AE
100
AcDbEntity
  8
dimensions
  6
CONTINUOUS
 62
    0
370
   -2
100
AcDbMText
 10
117.95
 20
-6.499999999999999
 30
0
 40
3
 41
14.16666666666723
 71
    5
 72
    1
  1
265%%P0,5
  7
standard
210
0
220
0
230
1
 50
0
 73
    2
 44
1
  0
LINE
  5
1AF
100
AcDbEntity
  8
dimensions
  6
ByBlock
 62
    0
370
   -2
100
AcDbLine
 10
104.7
 20
-1
 11
104.7
 21
-12
  0
LINE
  5
1B0
100
AcDbEntity
  8
dimensions
  6
ByBlock
 62
    0
370
   -2
100
AcDbLine
 10
131.2
 20
-1
 11
131.2
 21
-12
  0
ENDBLK
  5
BD
330
BB
100
AcDbEntity
  8
0
100
AcDbBlockEnd
  0
BLOCK
  5
BF
330
BE
100
AcDbEntity
  8
0
100
AcDbBlockBegin
  2
*D5
 70
    1
 10
0
 20
0
  3
*D5
  1

  0
LINE
  5
1B1
100
AcDbEntity
  8
dimensions
  6
ByBlock
 62
    0
370
   -2
100
AcDbLine
 10
37.20000000000012
 20
79.40000000000043
 11
67.20000000000012
 21
79.40000000000043
  0
LINE
  5
1B2
100
AcDbEntity
  8
dimensions
  6
ByBlock
 62
    0
370
   -2
100
AcDbLine
 10
38.61421356237321
 20
80.81421356237352
 11
35.78578643762702
 21
77.98578643762734
  0
LINE
  5
1B3
100
AcDbEntity
  8
dimensions
  6
ByBlock
 62
    0
370
   -2
100
AcDbLine
 10
68.61421356237321
 20
80.81421356237352
 11
65.78578643762702
 21
77.98578643762734
  0
MTEXT
  5
1B4
100
AcDbEntity
  8
dimensions
  6
CONTINUOUS
 62
    0
370
   -2
100
AcDbMText
 10
52.20000000000012
 20
82.90000000000043
 30
0
 40
3
 41
6.000000000000185
 71
    5
 72
    1
  1
300
  7
standard
210
0
220
0
230
1
 50
0
 73
    2
 44
1
  0
LINE
  5
1B5
100
AcDbEntity
  8
dimensions
  6
ByBlock
 62
    0
370
   -2
100
AcDbLine
 10
37.20000000000012
 20
64.70000000000036
 11
37.20000000000012
 21
81.40000000000043
  0
LINE
  5
1B6
100
AcDbEntity
  8
dimensions
  6
ByBlock
 62
    0
370
   -2
100
AcDbLine
 10
67.20000000000012
 20
64.70000000000036
 11
67.20000000000012
 21
81.40000000000043
  0
ENDBLK
  5
C0
330
BE
100
AcDbEntity
  8
0
100
AcDbBlockEnd
  0
BLOCK
  5
C2
330
C1
100
AcDbEntity
  8
0
100
AcDbBlockBegin
  2
*D28
 70
    1
 10
0
 20
0
  3
*D28
  1

  0
LINE
  5
1B7
100
AcDbEntity
  8
dimensions
  6
ByBlock
 62
    0
370
   -2
100
AcDbLine
 10
142.6
 20
10
 11
136.7
 21
10
  0
LINE
  5
1B8
100
AcDbEntity
  8
dimensions
  6
ByBlock
 62
    0
370
   -2
100
AcDbLine
 10
141.1857864376269
 20
8.585786437626904
 11
144.0142135623731
 21
11.4142135623731
  0
LINE
  5
1B9
100
AcDbEntity
  8
dimensions
  6
ByBlock
 62
    0
370
   -2
100
AcDbLine
 10
135.2857864376269
 20
8.585786437626904
 11
138.1142135623731
 21
11.4142135623731
  0
MTEXT
  5
1BA
100
AcDbEntity
  8
dimensions
  6
CONTINUOUS
 62
    0
370
   -2
100
AcDbMText
 10
139.65
 20
13.5
 30
0
 40
3
 41
3.666666666666853
 71
    5
 72
    1
  1
59
  7
standard
210
0
220
0
230
1
 50
360
 73
    2
 44
1
  0
LINE
  5
1BB
100
AcDbEntity
  8
dimensions
  6
ByBlock
 62
    0
370
   -2
100
AcDbLine
 10
142.6
 20
5.69999999999957
 11
142.6
 21
12
  0
LINE
  5
1BC
100
AcDbEntity
  8
dimensions
  6
ByBlock
 62
    0
370
   -2
100
AcDbLine
 10
136.7
 20
5.7
 11
136.7
 21
12
  0
ENDBLK
  5
C3
330
C1
100
AcDbEntity
  8
0
100
AcDbBlockEnd
  0
BLOCK
  5
C5
330
C4
100
AcDbEntity
  8
0
100
AcDbBlockBegin
  2
*D27
 70
    1
 10
0
 20
0
  3
*D27
  1

  0
LINE
  5
1BD
100
AcDbEntity
  8
dimensions
  6
ByBlock
 62
    0
370
   -2
100
AcDbLine
 10
131.2
 20
-10
 11
142.9
 21
-10
  0
LINE
  5
1BE
100
AcDbEntity
  8
dimensions
  6
ByBlock
 62
    0
370
   -2
100
AcDbLine
 10
132.6142135623731
 20
-8.585786437626904
 11
129.7857864376269
 21
-11.4142135623731
  0
LINE
  5
1BF
100
AcDbEntity
  8
dimensions
  6
ByBlock
 62
    0
370
   -2
100
AcDbLine
 10
144.3142135623731
 20
-8.585786437626904
 11
141.4857864376269
 21
-11.4142135623731
  0
MTEXT
  5
1C0
100
AcDbEntity
  8
dimensions
  6
CONTINUOUS
 62
    0
370
   -2
100
AcDbMText
 10
137.05
 20
-6.5
 30
0
 40
3
 41
4.666666666666666
 71
    5
 72
    1
  1
117
  7
standard
210
0
220
0
230
1
 50
0
 73
    2
 44
1
  0
LINE
  5
1C1
100
AcDbEntity
  8
dimensions
  6
ByBlock
 62
    0
370
   -2
100
AcDbLine
 10
131.2
 20
-1
 11
131.2
 21
-12
  0
LINE
  5
1C2
100
AcDbEntity
  8
dimensions
  6
ByBlock
 62
    0
370
   -2
100
AcDbLine
 10
142.9
 20
-1.000000000000441
 11
142.9
 21
-12
  0
ENDBLK
  5
C6
330
C4
100
AcDbEntity
  8
0
100
AcDbBlockEnd
  0
BLOCK
  5
C8
330
C7
100
AcDbEntity
  8
0
100
AcDbBlockBegin
  2
*D33
 70
    1
 10
0
 20
0
  3
*D33
  1

  0
LINE
  5
1C3
100
AcDbEntity
  8
dimensions
  6
ByBlock
 62
    0
370
   -2
100
AcDbLine
 10
46.8
 20
-10
 11
24.9
 21
-10
  0
LINE
  5
1C4
100
AcDbEntity
  8
dimensions
  6
ByBlock
 62
    0
370
   -2
100
AcDbLine
 10
45.3857864376269
 20
-11.4142135623731
 11
48.21421356237309
 21
-8.585786437626904
  0
LINE
  5
1C5
100
AcDbEntity
  8
dimensions
  6
ByBlock
 62
    0
370
   -2
100
AcDbLine
 10
23.4857864376269
 20
-11.4142135623731
 11
26.31421356237309
 21
-8.585786437626904
  0
MTEXT
  5
1C6
100
AcDbEntity
  8
dimensions
  6
CONTINUOUS
 62
    0
370
   -2
100
AcDbMText
 10
35.85
 20
-6.5
 30
0
 40
3
 41
5.333333333333333
 71
    5
 72
    1
  1
219
  7
standard
210
0
220
0
230
1
 50
360
 73
    2
 44
1
  0
LINE
  5
1C7
100
AcDbEntity
  8
dimensions
  6
ByBlock
 62
    0
370
   -2
100
AcDbLine
 10
46.8
 20
-0.9999999999999999
 11
46.8
 21
-12
  0
LINE
  5
1C8
100
AcDbEntity
  8
dimensions
  6
ByBlock
 62
    0
370
   -2
100
AcDbLine
 10
24.9
 20
-1
 11
24.9
 21
-12
  0
ENDBLK
  5
C9
330
C7
100
AcDbEntity
  8
0
100
AcDbBlockEnd
  0
BLOCK
  5
CB
330
CA
100
AcDbEntity
  8
0
100
AcDbBlockBegin
  2
*D34
 70
    1
 10
0
 20
0
  3
*D34
  1

  0
LINE
  5
1C9
100
AcDbEntity
  8
dimensions
  6
ByBlock
 62
    0
370
   -2
100
AcDbLine
 10
25.1
 20
10
 11
34.2
 21
10
  0
LINE
  5
1CA
100
AcDbEntity
  8
dimensions
  6
ByBlock
 62
    0
370
   -2
100
AcDbLine
 10
26.5142135623731
 20
11.4142135623731
 11
23.68578643762691
 21
8.585786437626904
  0
LINE
  5
1CB
100
AcDbEntity
  8
dimensions
  6
ByBlock
 62
    0
370
   -2
100
AcDbLine
 10
35.6142135623731
 20
11.4142135623731
 11
32.78578643762691
 21
8.585786437626904
  0
MTEXT
  5
1CC
100
AcDbEntity
  8
dimensions
  6
CONTINUOUS
 62
    0
370
   -2
100
AcDbMText
 10
29.65
 20
13.5
 30
0
 40
3
 41
3.000000000000186
 71
    5
 72
    1
  1
91
  7
standard
210
0
220
0
230
1
 50
0
 73
    2
 44
1
  0
LINE
  5
1CD
100
AcDbEntity
  8
dimensions
  6
ByBlock
 62
    0
370
   -2
100
AcDbLine
 10
25.1
 20
5.699999999999603
 11
25.1
 21
12
  0
LINE
  5
1CE
100
AcDbEntity
  8
dimensions
  6
ByBlock
 62
    0
370
   -2
100
AcDbLine
 10
34.2
 20
5.699999999999958
 11
34.2
 21
12
  0
ENDBLK
  5
CC
330
CA
100
AcDbEntity
  8
0
100
AcDbBlockEnd
  0
BLOCK
  5
CE
330
CD
100
AcDbEntity
  8
0
100
AcDbBlockBegin
  2
*D31
 70
    1
 10
0
 20
0
  3
*D31
  1

  0
LINE
  5
1CF
100
AcDbEntity
  8
dimensions
  6
ByBlock
 62
    0
370
   -2
100
AcDbLine
 10
169.7
 20
10
 11
142.6
 21
10
  0
LINE
  5
1D0
100
AcDbEntity
  8
dimensions
  6
ByBlock
 62
    0
370
   -2
100
AcDbLine
 10
168.2857864376269
 20
8.585786437626904
 11
171.1142135623731
 21
11.4142135623731
  0
LINE
  5
1D1
100
AcDbEntity
  8
dimensions
  6
ByBlock
 62
    0
370
   -2
100
AcDbLine
 10
141.1857864376269
 20
8.585786437626904
 11
144.0142135623731
 21
11.4142135623731
  0
MTEXT
  5
1D2
100
AcDbEntity
  8
dimensions
  6
CONTINUOUS
 62
    0
370
   -2
100
AcDbMText
 10
156.15
 20
13.5
 30
0
 40
3
 41
13.50000000000018
 71
    5
 72
    1
  1
271%%P0,5
  7
standard
210
0
220
0
230
1
 50
360
 73
    2
 44
1
  0
LINE
  5
1D3
100
AcDbEntity
  8
dimensions
  6
ByBlock
 62
    0
370
   -2
100
AcDbLine
 10
169.7
 20
5.699999999999616
 11
169.7
 21
12
  0
LINE
  5
1D4
100
AcDbEntity
  8
dimensions
  6
ByBlock
 62
    0
370
   -2
100
AcDbLine
 10
142.6
 20
5.69999999999957
 11
142.6
 21
12
  0
ENDBLK
  5
CF
330
CD
100
AcDbEntity
  8
0
100
AcDbBlockEnd
  0
BLOCK
  5
D1
330
D0
100
AcDbEntity
  8
0
100
AcDbBlockBegin
  2
*D42
 70
    1
 10
0
 20
0
  3
*D42
  1

  0
LINE
  5
1D5
100
AcDbEntity
  8
dimensions
  6
ByBlock
 62
    0
370
   -2
100
AcDbLine
 10
14.1
 20
-10
 11
24.9
 21
-10
  0
LINE
  5
1D6
100
AcDbEntity
  8
dimensions
  6
ByBlock
 62
    0
370
   -2
100
AcDbLine
 10
15.5142135623731
 20
-8.585786437626904
 11
12.6857864376269
 21
-11.4142135623731
  0
LINE
  5
1D7
100
AcDbEntity
  8
dimensions
  6
ByBlock
 62
    0
370
   -2
100
AcDbLine
 10
26.31421356237309
 20
-8.585786437626904
 11
23.4857864376269
 21
-11.4142135623731
  0
MTEXT
  5
1D8
100
AcDbEntity
  8
dimensions
  6
CONTINUOUS
 62
    0
370
   -2
100
AcDbMText
 10
19.15000000000009
 20
-15
 30
0
 40
3
 41
13.50000000000018
 71
    5
 72
    1
  1
108%%P0,5
  7
standard
210
0
220
0
230
1
 50
0
 73
    2
 44
1
  0
LINE
  5
1D9
100
AcDbEntity
  8
dimensions
  6
ByBlock
 62
    0
370
   -2
100
AcDbLine
 10
14.1
 20
-1
 11
14.1
 21
-12
  0
LINE
  5
1DA
100
AcDbEntity
  8
dimensions
  6
ByBlock
 62
    0
370
   -2
100
AcDbLine
 10
24.9
 20
-1
 11
24.9
 21
-12
  0
ENDBLK
  5
D2
330
D0
100
AcDbEntity
  8
0
100
AcDbBlockEnd
  0
BLOCK
  5
D4
330
D3
100
AcDbEntity
  8
0
100
AcDbBlockBegin
  2
*D7
 70
    1
 10
0
 20
0
  3
*D7
  1

  0
LINE
  5
1DB
100
AcDbEntity
  8
dimensions
  6
ByBlock
 62
    0
370
   -2
100
AcDbLine
 10
103.2000000000001
 20
79.40000000000043
 11
132.7000000000001
 21
79.40000000000043
  0
LINE
  5
1DC
100
AcDbEntity
  8
dimensions
  6
ByBlock
 62
    0
370
   -2
100
AcDbLine
 10
104.6142135623732
 20
80.81421356237352
 11
101.785786437627
 21
77.98578643762734
  0
LINE
  5
1DD
100
AcDbEntity
  8
dimensions
  6
ByBlock
 62
    0
370
   -2
100
AcDbLine
 10
134.1142135623732
 20
80.81421356237352
 11
131.285786437627
 21
77.98578643762734
  0
MTEXT
  5
1DE
100
AcDbEntity
  8
dimensions
  6
CONTINUOUS
 62
    0
370
   -2
100
AcDbMText
 10
117.9500000000001
 20
82.90000000000043
 30
0
 40
3
 41
6.000000000000187
 71
    5
 72
    1
  1
295
  7
standard
210
0
220
0
230
1
 50
0
 73
    2
 44
1
  0
LINE
  5
1DF
100
AcDbEntity
  8
dimensions
  6
ByBlock
 62
    0
370
   -2
100
AcDbLine
 10
103.2000000000001
 20
64.70000000000039
 11
103.2000000000001
 21
81.40000000000043
  0
LINE
  5
1E0
100
AcDbEntity
  8
dimensions
  6
ByBlock
 62
    0
370
   -2
100
AcDbLine
 10
132.7000000000001
 20
64.70000000000043
 11
132.7000000000001
 21
81.40000000000043
  0
ENDBLK
  5
D5
330
D3
100
AcDbEntity
  8
0
100
AcDbBlockEnd
  0
BLOCK
  5
D7
330
D6
100
AcDbEntity
  8
0
100
AcDbBlockBegin
  2
*D25
 70
    1
 10
0
 20
0
  3
*D25
  1

  0
LINE
  5
1E1
100
AcDbEntity
  8
dimensions
  6
ByBlock
 62
    0
370
   -2
100
AcDbLine
 10
189.4000000000001
 20
63.70000000000042
 11
189.4000000000001
 21
4.699999999999998
  0
LINE
  5
1E2
100
AcDbEntity
  8
dimensions
  6
ByBlock
 62
    0
370
   -2
100
AcDbLine
 10
190.8142135623732
 20
62.28578643762733
 11
187.985786437627
 21
65.11421356237352
  0
LINE
  5
1E3
100
AcDbEntity
  8
dimensions
  6
ByBlock
 62
    0
370
   -2
100
AcDbLine
 10
190.8142135623732
 20
3.285786437626903
 11
187.985786437627
 21
6.114213562373093
  0
MTEXT
  5
1E4
100
AcDbEntity
  8
dimensions
  6
CONTINUOUS
 62
    0
370
   -2
100
AcDbMText
 10
185.9000000000001
 20
34.20000000000021
 30
0
 40
3
 41
6.000000000000185
 71
    5
 72
    1
  1
590
  7
standard
210
0
220
0
230
1
 50
90
 73
    2
 44
1
  0
LINE
  5
1E5
100
AcDbEntity
  8
dimensions
  6
ByBlock
 62
    0
370
   -2
100
AcDbLine
 10
176.7000000000001
 20
63.70000000000043
 11
191.4000000000001
 21
63.70000000000042
  0
LINE
  5
1E6
100
AcDbEntity
  8
dimensions
  6
ByBlock
 62
    0
370
   -2
100
AcDbLine
 10
176.7
 20
4.699999999999998
 11
191.4000000000001
 21
4.699999999999998
  0
ENDBLK
  5
D8
330
D6
100
AcDbEntity
  8
0
100
AcDbBlockEnd
  0
BLOCK
  5
DA
330
D9
100
AcDbEntity
  8
0
100
AcDbBlockBegin
  2
*D22
 70
    1
 10
0
 20
0
  3
*D22
  1

  0
LINE
  5
1E7
100
AcDbEntity
  8
dimensions
  6
ByBlock
 62
    0
370
   -2
100
AcDbLine
 10
136.7000000000001
 20
79.40000000000043
 11
175.7000000000001
 21
79.40000000000043
  0
LINE
  5
1E8
100
AcDbEntity
  8
dimensions
  6
ByBlock
 62
    0
370
   -2
100
AcDbLine
 10
138.1142135623732
 20
80.81421356237352
 11
135.285786437627
 21
77.98578643762734
  0
LINE
  5
1E9
100
AcDbEntity
  8
dimensions
  6
ByBlock
 62
    0
370
   -2
100
AcDbLine
 10
177.1142135623732
 20
80.81421356237352
 11
174.285786437627
 21
77.98578643762734
  0
MTEXT
  5
1EA
100
AcDbEntity
  8
dimensions
  6
CONTINUOUS
 62
    0
370
   -2
100
AcDbMText
 10
156.2000000000001
 20
82.90000000000043
 30
0
 40
3
 41
6.000000000000185
 71
    5
 72
    1
  1
390
  7
standard
210
0
220
0
230
1
 50
0
 73
    2
 44
1
  0
LINE
  5
1EB
100
AcDbEntity
  8
dimensions
  6
ByBlock
 62
    0
370
   -2
100
AcDbLine
 10
136.7000000000001
 20
64.70000000000043
 11
136.7000000000001
 21
81.40000000000043
  0
LINE
  5
1EC
100
AcDbEntity
  8
dimensions
  6
ByBlock
 62
    0
370
   -2
100
AcDbLine
 10
175.7000000000001
 20
64.70000000000043
 11
175.7000000000001
 21
81.40000000000043
  0
ENDBLK
  5
DB
330
D9
100
AcDbEntity
  8
0
100
AcDbBlockEnd
  0
BLOCK
  5
DD
330
DC
100
AcDbEntity
  8
0
100
AcDbBlockBegin
  2
*D14
 70
    1
 10
0
 20
0
  3
*D14
  1

  0
LINE
  5
1ED
100
AcDbEntity
  8
dimensions
  6
ByBlock
 62
    0
370
   -2
100
AcDbLine
 10
79.60000000000002
 20
10
 11
70.2
 21
10
  0
LINE
  5
1EE
100
AcDbEntity
  8
dimensions
  6
ByBlock
 62
    0
370
   -2
100
AcDbLine
 10
78.18578643762693
 20
8.585786437626904
 11
81.01421356237311
 21
11.4142135623731
  0
LINE
  5
1EF
100
AcDbEntity
  8
dimensions
  6
ByBlock
 62
    0
370
   -2
100
AcDbLine
 10
68.78578643762691
 20
8.585786437626904
 11
71.6142135623731
 21
11.4142135623731
  0
MTEXT
  5
1F0
100
AcDbEntity
  8
dimensions
  6
CONTINUOUS
 62
    0
370
   -2
100
AcDbMText
 10
74.90000000000002
 20
13.5
 30
0
 40
3
 41
4.000000000000186
 71
    5
 72
    1
  1
94
  7
standard
210
0
220
0
230
1
 50
360
 73
    2
 44
1
  0
LINE
  5
1F1
100
AcDbEntity
  8
dimensions
  6
ByBlock
 62
    0
370
   -2
100
AcDbLine
 10
79.60000000000002
 20
5.699999999999589
 11
79.60000000000002
 21
12
  0
LINE
  5
1F2
100
AcDbEntity
  8
dimensions
  6
ByBlock
 62
    0
370
   -2
100
AcDbLine
 10
70.2
 20
5.699999999999958
 11
70.2
 21
12
  0
ENDBLK
  5
DE
330
DC
100
AcDbEntity
  8
0
100
AcDbBlockEnd
  0
BLOCK
  5
E0
330
DF
100
AcDbEntity
  8
0
100
AcDbBlockBegin
  2
*D40
 70
    1
 10
0
 20
0
  3
*D40
  1

  0
LINE
  5
1F3
100
AcDbEntity
  8
dimensions
  6
ByBlock
 62
    0
370
   -2
100
AcDbLine
 10
99.2
 20
10
 11
108.4
 21
10
  0
LINE
  5
1F4
100
AcDbEntity
  8
dimensions
  6
ByBlock
 62
    0
370
   -2
100
AcDbLine
 10
101.7857864376269
 20
8.585786437626904
 11
104.6142135623731
 21
11.4142135623731
  0
LINE
  5
1F5
100
AcDbEntity
  8
dimensions
  6
ByBlock
 62
    0
370
   -2
100
AcDbLine
 10
102.9857864376269
 20
8.585786437626904
 11
105.8142135623731
 21
11.4142135623731
  0
MTEXT
  5
1F6
100
AcDbEntity
  8
dimensions
  6
CONTINUOUS
 62
    0
370
   -2
100
AcDbMText
 10
106.1
 20
15
 30
0
 40
3
 41
3
 71
    5
 72
    1
  1
12
  7
standard
210
0
220
0
230
1
 50
0
 73
    2
 44
1
  0
LINE
  5
1F7
100
AcDbEntity
  8
dimensions
  6
ByBlock
 62
    0
370
   -2
100
AcDbLine
 10
103.2
 20
5.700000000000001
 11
103.2
 21
12
  0
LINE
  5
1F8
100
AcDbEntity
  8
dimensions
  6
ByBlock
 62
    0
370
   -2
100
AcDbLine
 10
104.4
 20
5.699999999999603
 11
104.4
 21
12
  0
ENDBLK
  5
E1
330
DF
100
AcDbEntity
  8
0
100
AcDbBlockEnd
  0
BLOCK
  5
E3
330
E2
100
AcDbEntity
  8
0
100
AcDbBlockBegin
  2
*D46
 70
    1
 10
0
 20
0
  3
*D46
  1

  0
LINE
  5
1F9
100
AcDbEntity
  8
dimensions
  6
ByBlock
 62
    0
370
   -2
100
AcDbLine
 10
171.7000000000001
 20
79.40000000000079
 11
184.4000000000001
 21
79.40000000000079
  0
LINE
  5
1FA
100
AcDbEntity
  8
dimensions
  6
ByBlock
 62
    0
370
   -2
100
AcDbLine
 10
174.285786437627
 20
77.9857864376277
 11
177.1142135623732
 21
80.81421356237388
  0
LINE
  5
1FB
100
AcDbEntity
  8
dimensions
  6
ByBlock
 62
    0
370
   -2
100
AcDbLine
 10
178.985786437627
 20
77.9857864376277
 11
181.8142135623732
 21
80.81421356237388
  0
MTEXT
  5
1FC
100
AcDbEntity
  8
dimensions
  6
CONTINUOUS
 62
    0
370
   -2
100
AcDbMText
 10
178.4333333333334
 20
85
 30
0
 40
3
 41
12.16666666666685
 71
    5
 72
    1
  1
47%%P0,5
  7
standard
210
0
220
0
230
1
 50
0
 73
    2
 44
1
  0
LINE
  5
1FD
100
AcDbEntity
  8
dimensions
  6
ByBlock
 62
    0
370
   -2
100
AcDbLine
 10
175.7000000000001
 20
64.70000000000043
 11
175.7000000000001
 21
81.40000000000079
  0
LINE
  5
1FE
100
AcDbEntity
  8
dimensions
  6
ByBlock
 62
    0
370
   -2
100
AcDbLine
 10
180.4000000000001
 20
69.40000000000089
 11
180.4000000000001
 21
81.40000000000079
  0
ENDBLK
  5
E4
330
E2
100
AcDbEntity
  8
0
100
AcDbBlockEnd
  0
ENDSEC
  0
SECTION
  2
ENTITIES
  0
HATCH
  5
1FF
100
AcDbEntity
  8
body
  6
ByLayer
 62
  256
370
   -1
100
AcDbHatch
 10
0
 20
0
 30
0
210
0
220
0
230
1
  2
gost_stone
 70
    0
 71
    0
 91
    1
 92
    0
 93
    8
 72
    1
 10
104.4
 20
4.699999999999603
 11
103.2
 21
4.700000000000001
 72
    1
 10
103.2
 20
4.700000000000001
 11
103.2
 21
32.9
 72
    1
 10
103.2
 20
32.9
 11
100.2
 21
32.9
 72
    1
 10
100.2
 20
32.9
 11
100.2
 21
4.699999999999958
 72
    1
 10
100.2
 20
4.699999999999958
 11
90.80000000000001
 21
4.699999999999589
 72
    1
 10
90.80000000000001
 20
4.699999999999589
 11
90.80000000000001
 21
1.699999999999999
 72
    1
 10
90.80000000000001
 20
1.699999999999999
 11
104.4
 21
1.7
 72
    1
 10
104.4
 20
1.7
 11
104.4
 21
4.699999999999603
 97
    0
 75
    0
 76
    1
 52
0
 41
0.2
 77
    0
 78
    0
 98
    0
  0
HATCH
  5
200
100
AcDbEntity
  8
body
  6
ByLayer
 62
  256
370
   -1
100
AcDbHatch
 10
0
 20
0
 30
0
210
0
220
0
230
1
  2
gost_stone
 70
    0
 71
    0
 91
    1
 92
    0
 93
   40
 72
    1
 10
25.1
 20
1.7
 11
46.60000000000002
 21
1.7
 72
    1
 10
46.60000000000002
 20
1.7
 11
46.60000000000002
 21
4.699999999999603
 72
    1
 10
46.60000000000002
 20
4.699999999999603
 11
37.2
 21
4.699999999999958
 72
    1
 10
37.2
 20
4.699999999999958
 11
37.20000000000012
 21
63.70000000000036
 72
    1
 10
37.20000000000012
 20
63.70000000000036
 11
67.20000000000012
 21
63.70000000000036
 72
    1
 10
67.20000000000012
 20
63.70000000000036
 11
67.2
 21
4.699999999999958
 72
    1
 10
67.2
 20
4.699999999999958
 11
57.8
 21
4.699999999999589
 72
    1
 10
57.8
 20
4.699999999999589
 11
57.8
 21
1.7
 72
    1
 10
57.8
 20
1.7
 11
79.60000000000002
 21
1.7
 72
    1
 10
79.60000000000002
 20
1.7
 11
79.60000000000002
 21
4.699999999999589
 72
    1
 10
79.60000000000002
 20
4.699999999999589
 11
70.2
 21
4.699999999999958
 72
    1
 10
70.2
 20
4.699999999999958
 11
70.20000000000012
 21
63.70000000000036
 72
    1
 10
70.20000000000012
 20
63.70000000000036
 11
100.2000000000001
 21
63.70000000000036
 72
    1
 10
100.2000000000001
 20
63.70000000000036
 11
100.2
 21
35.5
 72
    1
 10
100.2
 20
35.5
 11
103.2
 21
35.5
 72
    1
 10
103.2
 20
35.5
 11
103.2000000000001
 21
63.70000000000039
 72
    1
 10
103.2000000000001
 20
63.70000000000039
 11
132.7000000000001
 21
63.70000000000043
 72
    1
 10
132.7000000000001
 20
63.70000000000043
 11
132.7
 21
4.7
 72
    1
 10
132.7
 20
4.7
 11
131.5
 21
4.699999999999589
 72
    1
 10
131.5
 20
4.699999999999589
 11
131.5
 21
1.7
 72
    1
 10
131.5
 20
1.7
 11
142.6
 21
1.699999999999983
 72
    1
 10
142.6
 20
1.699999999999983
 11
142.6
 21
4.69999999999957
 72
    1
 10
142.6
 20
4.69999999999957
 11
136.7
 21
4.7
 72
    1
 10
136.7
 20
4.7
 11
136.7000000000001
 21
63.70000000000043
 72
    1
 10
136.7000000000001
 20
63.70000000000043
 11
175.7000000000001
 21
63.70000000000043
 72
    1
 10
175.7000000000001
 20
63.70000000000043
 11
175.7
 21
4.7
 72
    1
 10
175.7
 20
4.7
 11
169.7
 21
4.699999999999616
 72
    1
 10
169.7
 20
4.699999999999616
 11
169.7
 21
1.699999999999999
 72
    1
 10
169.7
 20
1.699999999999999
 11
178.7000000000001
 21
1.700000000000426
 72
    1
 10
178.7000000000001
 20
1.700000000000426
 11
178.7000000000001
 21
66.70000000000088
 72
    1
 10
178.7000000000001
 20
66.70000000000088
 11
1.700000000000114
 21
66.70000000000076
 72
    1
 10
1.700000000000114
 20
66.70000000000076
 11
1.7
 21
1.700000000000003
 72
    1
 10
1.7
 20
1.700000000000003
 11
13.9
 21
1.7
 72
    1
 10
13.9
 20
1.7
 11
13.9
 21
4.7
 72
    1
 10
13.9
 20
4.7
 11
4.7
 21
4.7
 72
    1
 10
4.7
 20
4.7
 11
4.700000000000114
 21
63.7000000000004
 72
    1
 10
4.700000000000114
 20
63.7000000000004
 11
34.20000000000012
 21
63.70000000000036
 72
    1
 10
34.20000000000012
 20
63.70000000000036
 11
34.2
 21
4.699999999999958
 72
    1
 10
34.2
 20
4.699999999999958
 11
25.1
 21
4.699999999999603
 72
    1
 10
25.1
 20
4.699999999999603
 11
25.1
 21
1.7
 97
    0
 75
    0
 76
    1
 52
0
 41
0.2
 77
    0
 78
    0
 98
    0
  0
HATCH
  5
201
100
AcDbEntity
  8
face
  6
ByLayer
 62
  256
370
   -1
100
AcDbHatch
 10
0
 20
0
 30
0
210
0
220
0
230
1
  2
gost_stone
 70
    0
 71
    0
 91
    1
 92
    0
 93
    4
 72
    1
 10
46.8
 20
1.110223024625157e-16
 11
24.9
 21
-2.775557561562891e-17
 72
    1
 10
24.9
 20
-2.775557561562891e-17
 11
24.9
 21
1.259999999999999
 72
    1
 10
24.9
 20
1.259999999999999
 11
46.8
 21
1.25
 72
    1
 10
46.8
 20
1.25
 11
46.8
 21
1.110223024625157e-16
 97
    0
 75
    0
 76
    1
 52
1.570796326794897
 41
0.2
 77
    0
 78
    0
 98
    0
  0
HATCH
  5
202
100
AcDbEntity
  8
face
  6
ByLayer
 62
  256
370
   -1
100
AcDbHatch
 10
0
 20
0
 30
0
210
0
220
0
230
1
  2
gost_stone
 70
    0
 71
    0
 91
    1
 92
    0
 93
   13
 72
    1
 10
14.1
 20
-8.326672684688674e-17
 11
0
 21
0
 72
    1
 10
0
 20
0
 11
1.13686837721616e-13
 21
68.40000000000043
 72
    1
 10
1.13686837721616e-13
 20
68.40000000000043
 11
180.4000000000001
 21
68.40000000000043
 72
    1
 10
180.4000000000001
 20
68.40000000000043
 11
180.4000000000001
 21
4.263256414560601e-13
 72
    1
 10
180.4000000000001
 20
4.263256414560601e-13
 11
169.4
 21
-4.163336342344337e-16
 72
    1
 10
169.4
 20
-4.163336342344337e-16
 11
169.4
 21
1.249999999999999
 72
    1
 10
169.4
 20
1.249999999999999
 11
179.1500000000001
 21
1.250000000000426
 72
    1
 10
179.1500000000001
 20
1.250000000000426
 11
179.1500000000001
 21
67.1500000000009
 72
    1
 10
179.1500000000001
 20
67.1500000000009
 11
1.250000000000114
 21
67.15000000000076
 72
    1
 10
1.250000000000114
 20
67.15000000000076
 11
1.25
 21
1.25
 72
    1
 10
1.25
 20
1.25
 11
14.1
 21
1.25
 72
    1
 10
14.1
 20
1.25
 11
14.1
 21
-8.326672684688674e-17
 72
    1
 10
14.1
 20
-8.326672684688674e-17
 11
14.1
 21
-8.326672684688674e-17
 97
    0
 75
    0
 76
    1
 52
0
 41
0.2
 77
    0
 78
    0
 98
    0
  0
HATCH
  5
203
100
AcDbEntity
  8
face
  6
ByLayer
 62
  256
370
   -1
100
AcDbHatch
 10
0
 20
0
 30
0
210
0
220
0
230
1
  2
gost_stone
 70
    0
 71
    0
 91
    1
 92
    0
 93
    4
 72
    1
 10
142.9
 20
1.25
 11
131.2
 21
1.25
 72
    1
 10
131.2
 20
1.25
 11
131.2
 21
0
 72
    1
 10
131.2
 20
0
 11
142.9
 21
-1.110223024625157e-16
 72
    1
 10
142.9
 20
-1.110223024625157e-16
 11
142.9
 21
1.25
 97
    0
 75
    0
 76
    1
 52
1.570796326794897
 41
0.2
 77
    0
 78
    0
 98
    0
  0
HATCH
  5
204
100
AcDbEntity
  8
face
  6
ByLayer
 62
  256
370
   -1
100
AcDbHatch
 10
0
 20
0
 30
0
210
0
220
0
230
1
  2
gost_stone
 70
    0
 71
    0
 91
    1
 92
    0
 93
    4
 72
    1
 10
104.7
 20
1.25
 11
90.60000000000001
 21
1.249999999999999
 72
    1
 10
90.60000000000001
 20
1.249999999999999
 11
90.60000000000001
 21
-2.775557561562891e-16
 72
    1
 10
90.60000000000001
 20
-2.775557561562891e-16
 11
104.7
 21
5.551115123125783e-17
 72
    1
 10
104.7
 20
5.551115123125783e-17
 11
104.7
 21
1.25
 97
    0
 75
    0
 76
    1
 52
1.570796326794897
 41
0.2
 77
    0
 78
    0
 98
    0
  0
HATCH
  5
205
100
AcDbEntity
  8
face
  6
ByLayer
 62
  256
370
   -1
100
AcDbHatch
 10
0
 20
0
 30
0
210
0
220
0
230
1
  2
gost_stone
 70
    0
 71
    0
 91
    1
 92
    0
 93
    4
 72
    1
 10
57.60000000000002
 20
1.25
 11
79.80000000000003
 21
1.25
 72
    1
 10
79.80000000000003
 20
1.25
 11
79.80000000000003
 21
0
 72
    1
 10
79.80000000000003
 20
0
 11
57.60000000000002
 21
-1.665334536937735e-16
 72
    1
 10
57.60000000000002
 20
-1.665334536937735e-16
 11
57.60000000000002
 21
1.25
 97
    0
 75
    0
 76
    1
 52
1.570796326794897
 41
0.2
 77
    0
 78
    0
 98
    0
  0
MTEXT
  5
206
100
AcDbEntity
  8
dimensions
  6
ByLayer
 62
  256
370
   -1
100
AcDbMText
 10
-0.9444444444444446
 20
-26.5
 30
0
 40
3.5
 41
162.6527777777783
 71
    1
 72
    1
  3
1. i i i %%P2 .\P2. i i  i i i  %%P0,5 .\P3. i   ii 
  1
 . 13, 14.\P4.  i  ii  . 15, 16.\P5. * - i i
  7
cyrillic_ii
210
0
220
0
230
1
 50
0
 73
    2
 44
1
  0
MTEXT
  5
207
100
AcDbEntity
  8
dimensions
  6
ByLayer
 62
  256
370
   -1
100
AcDbMText
 10
203.2222222222222
 20
-52.5
 30
0
 40
5
 41
20.4166666666669
 71
    6
 72
    1
  1
. 7
  7
cyrillic_ii
210
0
220
0
230
1
 50
0
 73
    2
 44
1
  0
MTEXT
  5
208
100
AcDbEntity
  8
dimensions
  6
ByLayer
 62
  256
370
   -1
100
AcDbMText
 10
85.34722222222184
 20
98.5
 30
0
 40
5
 41
86.80555555555631
 71
    5
 72
    1
  1
i -.  .
  7
cyrillic_ii
210
0
220
0
230
1
 50
0
 73
    2
 44
1
  0
LINE
  5
209
100
AcDbEntity
  8
dimensions
  6
ByLayer
 62
  256
370
   -1
100
AcDbLine
 10
40.68055555555519
 20
94
 11
129.6805555555552
 21
94
  0
LWPOLYLINE
  5
20A
100
AcDbEntity
  8
base
  6
ByLayer
 62
  256
370
   -1
100
AcDbPolyline
 90
    4
 70
    1
 43
0
 10
70.70000000000009
 20
63.19999999999972
 10
99.70000000000009
 20
63.19999999999972
 10
99.70000000000012
 20
5.200000000000228
 10
70.70000000000012
 20
5.200000000000228
  0
LWPOLYLINE
  5
20B
100
AcDbEntity
  8
base
  6
ByLayer
 62
  256
370
   -1
100
AcDbPolyline
 90
    4
 70
    1
 43
0
 10
37.70000000000009
 20
63.19999999999972
 10
66.70000000000009
 20
63.19999999999972
 10
66.70000000000012
 20
5.200000000000228
 10
37.70000000000012
 20
5.200000000000228
  0
LWPOLYLINE
  5
20C
100
AcDbEntity
  8
base
  6
ByLayer
 62
  256
370
   -1
100
AcDbPolyline
 90
    4
 70
    1
 43
0
 10
103.7000000000001
 20
63.19999999999972
 10
132.7000000000001
 20
63.19999999999972
 10
132.7000000000001
 20
5.200000000000228
 10
103.7000000000001
 20
5.200000000000228
  0
LWPOLYLINE
  5
20D
100
AcDbEntity
  8
base
  6
ByLayer
 62
  256
370
   -1
100
AcDbPolyline
 90
    4
 70
    1
 43
0
 10
136.7000000000001
 20
63.19999999999972
 10
175.2000000000001
 20
63.19999999999983
 10
175.2000000000001
 20
5.200000000000228
 10
136.7000000000001
 20
5.200000000000228
  0
LWPOLYLINE
  5
20E
100
AcDbEntity
  8
base
  6
CONTINUOUS
 62
  136
420
32896
370
   50
100
AcDbPolyline
 90
    8
 70
    1
 43
0
 10
5.200000000000085
 20
63.19999999999952
 10
33.70000000000009
 20
63.19999999999952
 10
33.70000000000011
 20
37.70000000000023
 10
20.70000000000011
 20
37.69999999999992
 10
20.70000000000011
 20
30.70000000000026
 10
33.70000000000012
 20
30.70000000000026
 10
33.70000000000012
 20
5.200000000000029
 10
5.200000000000114
 20
5.200000000000029
  0
LINE
  5
20F
100
AcDbEntity
  8
base
  6
ByLayer
 62
  256
370
   -1
100
AcDbLine
 10
46.80000000000012
 20
0.2000000000000709
 11
57.60000000000009
 21
0.2000000000000569
  0
LINE
  5
210
100
AcDbEntity
  8
base
  6
ByLayer
 62
  256
370
   -1
100
AcDbLine
 10
79.80000000000013
 20
0.2000000000000568
 11
90.60000000000012
 21
0.2000000000000565
  0
LEADER
  5
211
100
AcDbEntity
  8
dimensions
  6
ByLayer
 62
  256
370
   -1
100
AcDbLeader
  3
Standard
 71
    1
 72
    0
 73
    3
 74
    0
 75
    0
 40
1
 41
10
 76
3
 76
3
 10
35.70000000000012
 20
49.70000000000043
 30
0
 10
42.70000000000012
 20
55.70000000000043
 30
0
 10
49.70000000000012
 20
55.70000000000043
 30
0
  0
LEADER
  5
212
100
AcDbEntity
  8
dimensions
  6
ByLayer
 62
  256
370
   -1
100
AcDbLeader
  3
Standard
 71
    1
 72
    0
 73
    3
 74
    0
 75
    0
 40
1
 41
10
 76
3
 76
3
 10
68.70000000000012
 20
49.70000000000043
 30
0
 10
75.70000000000012
 20
55.70000000000043
 30
0
 10
82.70000000000012
 20
55.70000000000043
 30
0
  0
LEADER
  5
213
100
AcDbEntity
  8
dimensions
  6
ByLayer
 62
  256
370
   -1
100
AcDbLeader
  3
Standard
 71
    1
 72
    0
 73
    3
 74
    0
 75
    0
 40
1
 41
10
 76
3
 76
3
 10
101.7000000000001
 20
49.70000000000043
 30
0
 10
108.7000000000001
 20
55.70000000000043
 30
0
 10
115.7000000000001
 20
55.70000000000043
 30
0
  0
LEADER
  5
214
100
AcDbEntity
  8
dimensions
  6
ByLayer
 62
  256
370
   -1
100
AcDbLeader
  3
Standard
 71
    1
 72
    0
 73
    3
 74
    0
 75
    0
 40
1
 41
10
 76
3
 76
3
 10
134.7000000000001
 20
49.70000000000043
 30
0
 10
141.7000000000001
 20
55.70000000000043
 30
0
 10
148.7000000000001
 20
55.70000000000043
 30
0
  0
MTEXT
  5
215
100
AcDbEntity
  8
dimensions
  6
ByLayer
 62
  256
370
   -1
100
AcDbMText
 10
46.36666666666677
 20
59.20000000000043
 30
0
 40
5
 41
0
 71
    5
 72
    1
  1
I
  7
cyrillic_ii
210
0
220
0
230
1
 50
0
 73
    2
 44
1
  0
MTEXT
  5
216
100
AcDbEntity
  8
dimensions
  6
ByLayer
 62
  256
370
   -1
100
AcDbMText
 10
79.36666666666677
 20
59.20000000000043
 30
0
 40
5
 41
1.666666666666667
 71
    5
 72
    1
  1
II
  7
cyrillic_ii
210
0
220
0
230
1
 50
0
 73
    2
 44
1
  0
MTEXT
  5
217
100
AcDbEntity
  8
dimensions
  6
ByLayer
 62
  256
370
   -1
100
AcDbMText
 10
112.3666666666668
 20
59.20000000000043
 30
0
 40
5
 41
3.333333333333333
 71
    5
 72
    1
  1
III
  7
cyrillic_ii
210
0
220
0
230
1
 50
0
 73
    2
 44
1
  0
MTEXT
  5
218
100
AcDbEntity
  8
dimensions
  6
ByLayer
 62
  256
370
   -1
100
AcDbMText
 10
145.3666666666668
 20
59.20000000000043
 30
0
 40
5
 41
5
 71
    5
 72
    1
  1
IV
  7
cyrillic_ii
210
0
220
0
230
1
 50
0
 73
    2
 44
1
  0
DIMENSION
  5
219
100
AcDbEntity
  8
dimensions
  6
ByLayer
 62
  256
370
   -1
100
AcDbDimension
  2
*D5
 10
67.20000000000012
 20
79.40000000000043
 30
0
 11
52.20000000000012
 21
82.90000000000043
 31
0
 70
   32
 71
    5
 72
    0
  3
Standard
 53
0
210
0
220
0
230
1
100
AcDbAlignedDimension
 13
37.20000000000012
 23
63.70000000000036
 33
0
 14
67.20000000000012
 24
63.70000000000036
 34
0
100
AcDbRotatedDimension
  0
DIMENSION
  5
21A
100
AcDbEntity
  8
dimensions
  6
ByLayer
 62
  256
370
   -1
100
AcDbDimension
  2
*D6
 10
100.2000000000001
 20
79.40000000000043
 30
0
 11
85.20000000000012
 21
82.90000000000043
 31
0
 70
   32
 71
    5
 72
    0
  3
Standard
 53
0
210
0
220
0
230
1
100
AcDbAlignedDimension
 13
70.20000000000012
 23
63.70000000000036
 33
0
 14
100.2000000000001
 24
63.70000000000036
 34
0
100
AcDbRotatedDimension
  0
DIMENSION
  5
21B
100
AcDbEntity
  8
dimensions
  6
ByLayer
 62
  256
370
   -1
100
AcDbDimension
  2
*D7
 10
133.2000000000001
 20
79.40000000000043
 30
0
 11
117.9500000000001
 21
82.90000000000043
 31
0
 70
   32
 71
    5
 72
    0
  3
Standard
 53
0
210
0
220
0
230
1
100
AcDbAlignedDimension
 13
103.2000000000001
 23
63.70000000000039
 33
0
 14
132.7000000000001
 24
63.70000000000043
 34
0
100
AcDbRotatedDimension
  0
DIMENSION
  5
21C
100
AcDbEntity
  8
dimensions
  6
ByLayer
 62
  256
370
   -1
100
AcDbDimension
  2
*D8
 10
37.20000000000012
 20
79.40000000000079
 30
0
 11
35.70000000000012
 21
82.90000000000079
 31
0
 70
   32
  1
<>*
 71
    5
 72
    0
  3
Standard
 53
0
210
0
220
0
230
1
100
AcDbAlignedDimension
 13
34.20000000000012
 23
63.70000000000036
 33
0
 14
37.20000000000012
 24
63.70000000000036
 34
0
100
AcDbRotatedDimension
  0
DIMENSION
  5
21D
100
AcDbEntity
  8
dimensions
  6
ByLayer
 62
  256
370
   -1
100
AcDbDimension
  2
*D9
 10
70.20000000000012
 20
79.40000000000079
 30
0
 11
68.70000000000012
 21
82.90000000000079
 31
0
 70
   32
  1
<>*
 71
    5
 72
    0
  3
Standard
 53
0
210
0
220
0
230
1
100
AcDbAlignedDimension
 13
67.20000000000012
 23
63.70000000000036
 33
0
 14
70.20000000000012
 24
63.70000000000036
 34
0
100
AcDbRotatedDimension
  0
DIMENSION
  5
21E
100
AcDbEntity
  8
dimensions
  6
ByLayer
 62
  256
370
   -1
100
AcDbDimension
  2
*D10
 10
103.2000000000001
 20
79.40000000000079
 30
0
 11
101.7000000000001
 21
82.90000000000079
 31
0
 70
   32
  1
<>*
 71
    5
 72
    0
  3
Standard
 53
0
210
0
220
0
230
1
100
AcDbAlignedDimension
 13
100.2000000000001
 23
63.70000000000036
 33
0
 14
103.2000000000001
 24
63.70000000000039
 34
0
100
AcDbRotatedDimension
  0
DIMENSION
  5
21F
100
AcDbEntity
  8
dimensions
  6
ByLayer
 62
  256
370
   -1
100
AcDbDimension
  2
*D11
 10
136.2000000000001
 20
79.40000000000079
 30
0
 11
134.7000000000001
 21
82.90000000000079
 31
0
 70
   32
  1
<>*
 71
    5
 72
    0
  3
Standard
 53
0
210
0
220
0
230
1
100
AcDbAlignedDimension
 13
132.7000000000001
 23
63.70000000000043
 33
0
 14
136.7000000000001
 24
63.70000000000043
 34
0
100
AcDbRotatedDimension
  0
LINE
  5
220
100
AcDbEntity
  8
dimensions
  6
DASHDOT2
 62
  256
370
   -1
100
AcDbLine
 10
52.2
 20
-1
 11
52.2
 21
5.7
  0
LINE
  5
221
100
AcDbEntity
  8
dimensions
  6
DASHDOT2
 62
  256
370
   -1
100
AcDbLine
 10
85.20000000000002
 20
-1
 11
85.20000000000002
 21
5.7
  0
LWPOLYLINE
  5
222
100
AcDbEntity
  8
body
  6
ByLayer
 62
  256
370
   -1
100
AcDbPolyline
 90
    4
 70
    1
 43
0
 10
46.60000000000002
 20
1.25
 10
46.10000000000002
 20
1.25
 10
46.10000000000002
 20
1.7
 10
46.60000000000002
 20
1.7
  0
LWPOLYLINE
  5
223
100
AcDbEntity
  8
body
  6
ByLayer
 62
  256
370
   -1
100
AcDbPolyline
 90
    4
 70
    1
 43
0
 10
58.29999999999999
 20
1.25
 10
57.79999999999999
 20
1.25
 10
57.79999999999999
 20
1.7
 10
58.29999999999999
 20
1.7
  0
LWPOLYLINE
  5
224
100
AcDbEntity
  8
body
  6
ByLayer
 62
  256
370
   -1
100
AcDbPolyline
 90
    4
 70
    1
 43
0
 10
79.60000000000002
 20
1.25
 10
79.10000000000002
 20
1.25
 10
79.10000000000002
 20
1.7
 10
79.60000000000002
 20
1.7
  0
LWPOLYLINE
  5
225
100
AcDbEntity
  8
face
  6
ByLayer
 62
  256
370
   -1
100
AcDbPolyline
 90
    5
 70
    0
 43
0
 10
57.60000000000002
 20
1.25
 10
79.80000000000003
 20
1.25
 10
79.80000000000003
 20
0
 10
57.60000000000002
 20
-1.665334536937735e-16
 10
57.60000000000002
 20
1.25
  0
DIMENSION
  5
226
100
AcDbEntity
  8
dimensions
  6
ByLayer
 62
  256
370
   -1
100
AcDbDimension
  2
*D12
 10
57.40000000000001
 20
-10
 30
0
 11
68.70000000000002
 21
-6.499999999999999
 31
0
 70
   32
 71
    5
  3
Standard
 53
0
210
0
220
0
230
1
100
AcDbAlignedDimension
 13
79.80000000000003
 23
0
 33
0
 14
57.60000000000002
 24
-1.110223024625157e-16
 34
0
100
AcDbRotatedDimension
  0
LWPOLYLINE
  5
227
100
AcDbEntity
  8
body
  6
ByLayer
 62
  256
370
   -1
100
AcDbPolyline
 90
    4
 70
    1
 43
0
 10
91.30000000000005
 20
1.24999999999927
 10
90.80000000000005
 20
1.24999999999927
 10
90.80000000000005
 20
1.69999999999927
 10
91.30000000000005
 20
1.69999999999927
  0
LWPOLYLINE
  5
228
100
AcDbEntity
  8
face
  6
ByLayer
 62
  256
370
   -1
100
AcDbPolyline
 90
    5
 70
    0
 43
0
 10
90.60000000000001
 20
-2.775557561562891e-16
 10
104.7
 20
5.551115123125783e-17
 10
104.7
 20
1.25
 10
90.60000000000001
 20
1.249999999999999
 10
90.60000000000001
 20
-2.775557561562891e-16
  0
DIMENSION
  5
229
100
AcDbEntity
  8
dimensions
  6
ByLayer
 62
  256
370
   -1
100
AcDbDimension
  2
*D13
 10
90.40000000000001
 20
-10
 30
0
 11
97.65000000000001
 21
-6.499999999999999
 31
0
 70
   32
 71
    5
  3
Standard
 53
0
210
0
220
0
230
1
100
AcDbAlignedDimension
 13
104.7
 23
5.551115123125783e-17
 33
0
 14
90.60000000000001
 24
-2.775557561562891e-16
 34
0
100
AcDbRotatedDimension
  0
LWPOLYLINE
  5
22A
100
AcDbEntity
  8
body
  6
ByLayer
 62
  256
370
   -1
100
AcDbPolyline
 90
    4
 70
    1
 43
0
 10
104.4000000000001
 20
1.249999999998872
 10
103.9000000000001
 20
1.249999999998872
 10
103.9000000000001
 20
1.699999999998872
 10
104.4000000000001
 20
1.699999999998872
  0
LWPOLYLINE
  5
22B
100
AcDbEntity
  8
body
  6
ByLayer
 62
  256
370
   -1
100
AcDbPolyline
 90
    4
 70
    1
 43
0
 10
132
 20
1.25
 10
131.5
 20
1.25
 10
131.5
 20
1.7
 10
132
 20
1.7
  0
LINE
  5
22C
100
AcDbEntity
  8
dimensions
  6
DASHDOT2
 62
  256
370
   -1
100
AcDbLine
 10
117.9
 20
-0.9999999999999998
 11
117.9
 21
5.7
  0
DIMENSION
  5
22D
100
AcDbEntity
  8
dimensions
  6
ByLayer
 62
  256
370
   -1
100
AcDbDimension
  2
*D14
 10
70.2
 20
10
 30
0
 11
74.90000000000002
 21
13.5
 31
0
 70
   32
 71
    5
 72
    0
  3
Standard
 53
0
210
0
220
0
230
1
100
AcDbAlignedDimension
 13
79.60000000000002
 23
4.699999999999589
 33
0
 14
70.2
 24
4.699999999999958
 34
0
100
AcDbRotatedDimension
  0
DIMENSION
  5
22E
100
AcDbEntity
  8
dimensions
  6
ByLayer
 62
  256
370
   -1
100
AcDbDimension
  2
*D15
 10
67.2
 20
10
 30
0
 11
62.5
 21
13.5
 31
0
 70
   32
 71
    5
 72
    0
  3
Standard
 53
0
210
0
220
0
230
1
100
AcDbAlignedDimension
 13
57.8
 23
4.699999999999589
 33
0
 14
67.2
 24
4.699999999999958
 34
0
100
AcDbRotatedDimension
  0
DIMENSION
  5
22F
100
AcDbEntity
  8
dimensions
  6
ByLayer
 62
  256
370
   -1
100
AcDbDimension
  2
*D16
 10
37.2
 20
10
 30
0
 11
41.90000000000001
 21
13.5
 31
0
 70
   32
 71
    5
 72
    0
  3
Standard
 53
0
210
0
220
0
230
1
100
AcDbAlignedDimension
 13
46.60000000000002
 23
4.699999999999603
 33
0
 14
37.2
 24
4.699999999999958
 34
0
100
AcDbRotatedDimension
  0
DIMENSION
  5
230
100
AcDbEntity
  8
dimensions
  6
ByLayer
 62
  256
370
   -1
100
AcDbDimension
  2
*D17
 10
105.1
 20
10
 30
0
 11
117.95
 21
13.5
 31
0
 70
   32
  1
<>%%P0,5
 71
    5
  3
Standard
 53
0
210
0
220
0
230
1
100
AcDbAlignedDimension
 13
131.5
 23
4.699999999999589
 33
0
 14
104.4
 24
4.699999999999603
 34
0
100
AcDbRotatedDimension
  0
DIMENSION
  5
231
100
AcDbEntity
  8
dimensions
  6
ByLayer
 62
  256
370
   -1
100
AcDbDimension
  2
*D18
 10
105.8
 20
-10
 30
0
 11
117.95
 21
-6.499999999999999
 31
0
 70
   32
  1
<>%%P0,5
 71
    5
 72
    0
  3
Standard
 53
0
210
0
220
0
230
1
100
AcDbAlignedDimension
 13
104.7
 23
5.551115123125783e-17
 33
0
 14
131.2
 24
0
 34
0
100
AcDbRotatedDimension
  0
DIMENSION
  5
232
100
AcDbEntity
  8
dimensions
  6
ByLayer
 62
  256
370
   -1
100
AcDbDimension
  2
*D19
 10
100.2
 20
10
 30
0
 11
95.50000000000001
 21
13.5
 31
0
 70
   32
 71
    5
 72
    0
  3
Standard
 53
0
210
0
220
0
230
1
100
AcDbAlignedDimension
 13
90.80000000000001
 23
4.699999999999589
 33
0
 14
100.2
 24
4.699999999999958
 34
0
100
AcDbRotatedDimension
  0
DIMENSION
  5
233
100
AcDbEntity
  8
dimensions
  6
ByLayer
 62
  256
370
   -1
100
AcDbDimension
  2
*D20
 10
34.20000000000012
 20
79.40000000000043
 30
0
 11
19.45000000000011
 21
82.90000000000043
 31
0
 70
   32
 71
    5
 72
    0
  3
Standard
 53
0
210
0
220
0
230
1
100
AcDbAlignedDimension
 13
4.700000000000114
 23
63.7000000000004
 33
0
 14
34.20000000000012
 24
63.70000000000036
 34
0
100
AcDbRotatedDimension
  0
DIMENSION
  5
234
100
AcDbEntity
  8
dimensions
  6
ByLayer
 62
  256
370
   -1
100
AcDbDimension
  2
*D21
 10
-9.999999999999886
 20
-1.299999999999574
 30
0
 11
-13.49999999999988
 21
34.20000000000022
 31
0
 70
   32
 71
    5
  3
Standard
 53
0
210
0
220
0
230
1
100
AcDbAlignedDimension
 13
1.13686837721616e-13
 23
68.40000000000043
 33
0
 14
0
 24
0
 34
0
 50
90
100
AcDbRotatedDimension
  0
DIMENSION
  5
235
100
AcDbEntity
  8
dimensions
  6
ByLayer
 62
  256
370
   -1
100
AcDbDimension
  2
*D22
 10
176.2000000000001
 20
79.40000000000043
 30
0
 11
156.2000000000001
 21
82.90000000000043
 31
0
 70
   32
 71
    5
 72
    0
  3
Standard
 53
0
210
0
220
0
230
1
100
AcDbAlignedDimension
 13
136.7000000000001
 23
63.70000000000043
 33
0
 14
175.7000000000001
 24
63.70000000000043
 34
0
100
AcDbRotatedDimension
  0
DIMENSION
  5
236
100
AcDbEntity
  8
dimensions
  6
ByLayer
 62
  256
370
   -1
100
AcDbDimension
  2
*D23
 10
189.4000000000001
 20
68.40000000000043
 30
0
 11
185.9000000000001
 21
66.05000000000042
 31
0
 70
   32
  1
<>%%P0,5
 71
    5
  3
Standard
 53
0
210
0
220
0
230
1
100
AcDbAlignedDimension
 13
175.7000000000001
 23
63.70000000000043
 33
0
 14
180.4000000000001
 24
68.40000000000043
 34
0
 50
90
100
AcDbRotatedDimension
  0
DIMENSION
  5
237
100
AcDbEntity
  8
dimensions
  6
ByLayer
 62
  256
370
   -1
100
AcDbDimension
  2
*D24
 10
189.4
 20
-1.110223024625157e-15
 30
0
 11
185.9
 21
2.350000000000001
 31
0
 70
   32
  1
<>%%P0,5
 71
    5
  3
Standard
 53
0
210
0
220
0
230
1
100
AcDbAlignedDimension
 13
175.7
 23
4.7
 33
0
 14
180.4
 24
0
 34
0
 50
90
100
AcDbRotatedDimension
  0
DIMENSION
  5
238
100
AcDbEntity
  8
dimensions
  6
ByLayer
 62
  256
370
   -1
100
AcDbDimension
  2
*D25
 10
189.4000000000001
 20
4.200000000000765
 30
0
 11
185.9000000000001
 21
34.20000000000021
 31
0
 70
   32
 71
    5
  3
Standard
 53
0
210
0
220
0
230
1
100
AcDbAlignedDimension
 13
175.7000000000001
 23
63.70000000000043
 33
0
 14
175.7
 24
4.699999999999998
 34
0
 50
90
100
AcDbRotatedDimension
  0
DIMENSION
  5
239
100
AcDbEntity
  8
dimensions
  6
ByLayer
 62
  256
370
   -1
100
AcDbDimension
  2
*D26
 10
-0.2999999999998864
 20
79.40000000000079
 30
0
 11
-7
 21
83
 31
0
 70
   32
  1
<>%%P0,5
 71
    5
 72
    0
  3
Standard
 53
0
210
0
220
0
230
1
100
AcDbAlignedDimension
 13
4.700000000000114
 23
63.7000000000004
 33
0
 14
1.13686837721616e-13
 24
69.40000000000076
 34
0
100
AcDbRotatedDimension
  0
LINE
  5
23A
100
AcDbEntity
  8
base
  6
ByLayer
 62
  256
370
   -1
100
AcDbLine
 10
104.7
 20
0.1999999999999999
 11
131.2
 21
0.2
  0
LWPOLYLINE
  5
23B
100
AcDbEntity
  8
face
  6
ByLayer
 62
  256
370
   -1
100
AcDbPolyline
 90
    5
 70
    0
 43
0
 10
131.2
 20
0
 10
142.9
 20
-1.110223024625157e-16
 10
142.9
 20
1.25
 10
131.2
 20
1.25
 10
131.2
 20
0
  0
DIMENSION
  5
23C
100
AcDbEntity
  8
dimensions
  6
ByLayer
 62
  256
370
   -1
100
AcDbDimension
  2
*D27
 10
118.1
 20
-10
 30
0
 11
137.05
 21
-6.5
 31
0
 70
   32
 71
    5
 72
    0
  3
Standard
 53
0
210
0
220
0
230
1
100
AcDbAlignedDimension
 13
131.2
 23
0
 33
0
 14
142.9
 24
-4.406475184737246e-13
 34
0
100
AcDbRotatedDimension
  0
LWPOLYLINE
  5
23D
100
AcDbEntity
  8
body
  6
ByLayer
 62
  256
370
   -1
100
AcDbPolyline
 90
    4
 70
    1
 43
0
 10
142.6
 20
1.25
 10
142.1
 20
1.25
 10
142.1
 20
1.7
 10
142.6
 20
1.7
  0
LINE
  5
23E
100
AcDbEntity
  8
dimensions
  6
DASHDOT2
 62
  256
370
   -1
100
AcDbLine
 10
156.15
 20
-1
 11
156.15
 21
5.7
  0
DIMENSION
  5
23F
100
AcDbEntity
  8
dimensions
  6
ByLayer
 62
  256
370
   -1
100
AcDbDimension
  2
*D28
 10
136.7
 20
10
 30
0
 11
139.65
 21
13.5
 31
0
 70
   32
 71
    5
 72
    0
  3
Standard
 53
0
210
0
220
0
230
1
100
AcDbAlignedDimension
 13
142.6
 23
4.69999999999957
 33
0
 14
136.7
 24
4.7
 34
0
100
AcDbRotatedDimension
  0
DIMENSION
  5
240
100
AcDbEntity
  8
dimensions
  6
ByLayer
 62
  256
370
   -1
100
AcDbDimension
  2
*D29
 10
180.4
 20
-10
 30
0
 11
174.9
 21
-6.5
 31
0
 70
   32
 71
    5
 72
    0
  3
Standard
 53
0
210
0
220
0
230
1
100
AcDbAlignedDimension
 13
169.4
 23
-4.163336342344337e-16
 33
0
 14
180.4
 24
0
 34
0
100
AcDbRotatedDimension
  0
LWPOLYLINE
  5
241
100
AcDbEntity
  8
body
  6
ByLayer
 62
  256
370
   -1
100
AcDbPolyline
 90
    4
 70
    1
 43
0
 10
170.2
 20
1.249999999999999
 10
169.7
 20
1.249999999999999
 10
169.7
 20
1.699999999999999
 10
170.2
 20
1.699999999999999
  0
DIMENSION
  5
242
100
AcDbEntity
  8
dimensions
  6
ByLayer
 62
  256
370
   -1
100
AcDbDimension
  2
*D30
 10
175.7
 20
10
 30
0
 11
172.7
 21
13.5
 31
0
 70
   32
 71
    5
 72
    0
  3
Standard
 53
0
210
0
220
0
230
1
100
AcDbAlignedDimension
 13
169.7
 23
4.699999999999616
 33
0
 14
175.7
 24
4.7
 34
0
100
AcDbRotatedDimension
  0
DIMENSION
  5
243
100
AcDbEntity
  8
dimensions
  6
ByLayer
 62
  256
370
   -1
100
AcDbDimension
  2
*D31
 10
143.3
 20
10
 30
0
 11
156.15
 21
13.5
 31
0
 70
   32
  1
<>%%P0,5
 71
    5
  3
Standard
 53
0
210
0
220
0
230
1
100
AcDbAlignedDimension
 13
169.7
 23
4.699999999999616
 33
0
 14
142.6
 24
4.69999999999957
 34
0
100
AcDbRotatedDimension
  0
DIMENSION
  5
244
100
AcDbEntity
  8
dimensions
  6
ByLayer
 62
  256
370
   -1
100
AcDbDimension
  2
*D32
 10
168.9
 20
-10
 30
0
 11
156.15
 21
-6.5
 31
0
 70
   32
  1
<>%%P0,5
 71
    5
  3
Standard
 53
0
210
0
220
0
230
1
100
AcDbAlignedDimension
 13
142.9
 23
-4.406475184737246e-13
 33
0
 14
169.4
 24
-4.163336342344337e-16
 34
0
100
AcDbRotatedDimension
  0
LINE
  5
245
100
AcDbEntity
  8
base
  6
ByLayer
 62
  256
370
   -1
100
AcDbLine
 10
142.9
 20
0.1999999999999998
 11
169.4
 21
0.1999999999999997
  0
LINE
  5
246
100
AcDbEntity
  8
dimensions
  6
DASHDOT2
 62
  256
370
   -1
100
AcDbLine
 10
19.5
 20
-1
 11
19.5
 21
5.7
  0
LWPOLYLINE
  5
247
100
AcDbEntity
  8
body
  6
ByLayer
 62
  256
370
   -1
100
AcDbPolyline
 90
    4
 70
    1
 43
0
 10
25.59999999999999
 20
1.249999999999999
 10
25.1
 20
1.249999999999999
 10
25.1
 20
1.7
 10
25.6
 20
1.7
  0
LWPOLYLINE
  5
248
100
AcDbEntity
  8
face
  6
ByLayer
 62
  256
370
   -1
100
AcDbPolyline
 90
    5
 70
    0
 43
0
 10
24.9
 20
-2.775557561562891e-17
 10
24.9
 20
1.259999999999999
 10
46.8
 20
1.25
 10
46.8
 20
1.110223024625157e-16
 10
24.9
 20
-2.775557561562891e-17
  0
DIMENSION
  5
249
100
AcDbEntity
  8
dimensions
  6
ByLayer
 62
  256
370
   -1
100
AcDbDimension
  2
*D33
 10
24.5
 20
-10
 30
0
 11
35.85
 21
-6.5
 31
0
 70
   32
 71
    5
  3
Standard
 53
0
210
0
220
0
230
1
100
AcDbAlignedDimension
 13
46.8
 23
1.110223024625157e-16
 33
0
 14
24.9
 24
-2.775557561562891e-17
 34
0
100
AcDbRotatedDimension
  0
DIMENSION
  5
24A
100
AcDbEntity
  8
dimensions
  6
ByLayer
 62
  256
370
   -1
100
AcDbDimension
  2
*D34
 10
34.2
 20
10
 30
0
 11
29.65
 21
13.5
 31
0
 70
   32
 71
    5
 72
    0
  3
Standard
 53
0
210
0
220
0
230
1
100
AcDbAlignedDimension
 13
25.1
 23
4.699999999999603
 33
0
 14
34.2
 24
4.699999999999958
 34
0
100
AcDbRotatedDimension
  0
LWPOLYLINE
  5
24B
100
AcDbEntity
  8
body
  6
ByLayer
 62
  256
370
   -1
100
AcDbPolyline
 90
    4
 70
    1
 43
0
 10
13.9
 20
1.25
 10
13.4
 20
1.25
 10
13.4
 20
1.7
 10
13.9
 20
1.7
  0
DIMENSION
  5
24C
100
AcDbEntity
  8
dimensions
  6
ByLayer
 62
  256
370
   -1
100
AcDbDimension
  2
*D35
 10
5
 20
10
 30
0
 11
9.300000000000001
 21
13.5
 31
0
 70
   32
 71
    5
 72
    0
  3
Standard
 53
0
210
0
220
0
230
1
100
AcDbAlignedDimension
 13
13.9
 23
4.7
 33
0
 14
4.699999999999999
 24
4.699999999999998
 34
0
100
AcDbRotatedDimension
  0
DIMENSION
  5
24D
100
AcDbEntity
  8
dimensions
  6
ByLayer
 62
  256
370
   -1
100
AcDbDimension
  2
*D36
 10
14
 20
-10
 30
0
 11
7.050000000000001
 21
-6.5
 31
0
 70
   32
 71
    5
  3
Standard
 53
0
210
0
220
0
230
1
100
AcDbAlignedDimension
 13
0
 23
-5.551115123125783e-17
 33
0
 14
14.1
 24
-8.326672684688674e-17
 34
0
100
AcDbRotatedDimension
  0
LINE
  5
24E
100
AcDbEntity
  8
base
  6
ByLayer
 62
  256
370
   -1
100
AcDbLine
 10
14.1
 20
0.1999999999999998
 11
24.90000000000012
 21
0.2000000000004261
  0
LWPOLYLINE
  5
24F
100
AcDbEntity
  8
face
  6
CONTINUOUS
 62
    3
370
   50
100
AcDbPolyline
 90
   14
 70
    0
 43
0
 10
14.1
 20
-8.326672684688674e-17
 10
0
 20
0
 10
1.13686837721616e-13
 20
68.40000000000043
 10
180.4000000000001
 20
68.40000000000043
 10
180.4000000000001
 20
4.263256414560601e-13
 10
169.4
 20
-4.163336342344337e-16
 10
169.4
 20
1.249999999999999
 10
179.1500000000001
 20
1.250000000000426
 10
179.1500000000001
 20
67.1500000000009
 10
1.250000000000114
 20
67.15000000000076
 10
1.25
 20
1.25
 10
14.1
 20
1.25
 10
14.1
 20
-8.326672684688674e-17
 10
14.1
 20
-8.326672684688674e-17
  0
DIMENSION
  5
250
100
AcDbEntity
  8
dimensions
  6
ByLayer
 62
  256
370
   -1
100
AcDbDimension
  2
*D37
 10
14.1
 20
10
 30
0
 11
5
 21
15
 31
0
 70
   32
  1
<>%%P0,5
 71
    5
  3
Standard
 53
0
210
0
220
0
230
1
100
AcDbAlignedDimension
 13
25.1
 23
4.699999999999603
 33
0
 14
13.9
 24
4.7
 34
0
100
AcDbRotatedDimension
  0
DIMENSION
  5
251
100
AcDbEntity
  8
dimensions
  6
ByLayer
 62
  256
370
   -1
100
AcDbDimension
  2
*D38
 10
79.80000000000001
 20
10
 30
0
 11
71
 21
15
 31
0
 70
   32
  1
<>%%P0,5
 71
    5
  3
Standard
 53
0
210
0
220
0
230
1
100
AcDbAlignedDimension
 13
90.80000000000001
 23
4.699999999999589
 33
0
 14
79.60000000000002
 24
4.699999999999589
 34
0
100
AcDbRotatedDimension
  0
DIMENSION
  5
252
100
AcDbEntity
  8
dimensions
  6
ByLayer
 62
  256
370
   -1
100
AcDbDimension
  2
*D39
 10
46.8
 20
10
 30
0
 11
38
 21
15
 31
0
 70
   32
  1
<>%%P0,5
 71
    5
  3
Standard
 53
0
210
0
220
0
230
1
100
AcDbAlignedDimension
 13
57.8
 23
4.699999999999589
 33
0
 14
46.60000000000002
 24
4.699999999999603
 34
0
100
AcDbRotatedDimension
  0
DIMENSION
  5
253
100
AcDbEntity
  8
dimensions
  6
ByLayer
 62
  256
370
   -1
100
AcDbDimension
  2
*D40
 10
104.4
 20
10
 30
0
 11
102
 21
15
 31
0
 70
   32
 71
    5
 72
    0
  3
Standard
 53
0
210
0
220
0
230
1
100
AcDbAlignedDimension
 13
103.2
 23
4.700000000000001
 33
0
 14
104.4
 24
4.699999999999603
 34
0
100
AcDbRotatedDimension
  0
DIMENSION
  5
254
100
AcDbEntity
  8
dimensions
  6
ByLayer
 62
  256
370
   -1
100
AcDbDimension
  2
*D41
 10
132.7
 20
10
 30
0
 11
126
 21
15
 31
0
 70
   32
 71
    5
 72
    0
  3
Standard
 53
0
210
0
220
0
230
1
100
AcDbAlignedDimension
 13
131.5
 23
4.699999999999589
 33
0
 14
132.7
 24
4.7
 34
0
100
AcDbRotatedDimension
  0
DIMENSION
  5
255
100
AcDbEntity
  8
dimensions
  6
ByLayer
 62
  256
370
   -1
100
AcDbDimension
  2
*D42
 10
14.30000000000002
 20
-10
 30
0
 11
5
 21
-15
 31
0
 70
   32
  1
<>%%P0,5
 71
    5
 72
    0
  3
Standard
 53
0
210
0
220
0
230
1
100
AcDbAlignedDimension
 13
14.1
 23
-8.326672684688674e-17
 33
0
 14
24.9
 24
-2.775557561562891e-17
 34
0
100
AcDbRotatedDimension
  0
DIMENSION
  5
256
100
AcDbEntity
  8
dimensions
  6
ByLayer
 62
  256
370
   -1
100
AcDbDimension
  2
*D43
 10
47.29999999999998
 20
-10
 30
0
 11
38
 21
-15
 31
0
 70
   32
  1
<>%%P0,5
 71
    5
 72
    0
  3
Standard
 53
0
210
0
220
0
230
1
100
AcDbAlignedDimension
 13
46.8
 23
2.775557561562891e-16
 33
0
 14
57.60000000000002
 24
-2.775557561562891e-16
 34
0
100
AcDbRotatedDimension
  0
DIMENSION
  5
257
100
AcDbEntity
  8
dimensions
  6
ByLayer
 62
  256
370
   -1
100
AcDbDimension
  2
*D44
 10
80.30000000000003
 20
-10
 30
0
 11
71
 21
-15
 31
0
 70
   32
  1
<>%%P0,5
 71
    5
 72
    0
  3
Standard
 53
0
210
0
220
0
230
1
100
AcDbAlignedDimension
 13
79.80000000000003
 23
0
 33
0
 14
90.60000000000001
 24
0
 34
0
100
AcDbRotatedDimension
  0
DIMENSION
  5
258
100
AcDbEntity
  8
dimensions
  6
ByLayer
 62
  256
370
   -1
100
AcDbDimension
  2
*D45
 10
180.7000000000002
 20
-20.3
 30
0
 11
101
 21
-17
 31
0
 70
   32
  1
<>%%P5
 71
    5
  3
Standard
 53
0
210
0
220
0
230
1
100
AcDbAlignedDimension
 13
0
 23
3.410605131648481e-13
 33
0
 14
180.4000000000001
 24
4.263256414560601e-13
 34
0
100
AcDbRotatedDimension
  0
DIMENSION
  5
259
100
AcDbEntity
  8
dimensions
  6
ByLayer
 62
  256
370
   -1
100
AcDbDimension
  2
*D46
 10
180.4000000000001
 20
79.40000000000079
 30
0
 11
168
 21
85
 31
0
 70
   32
  1
<>%%P0,5
 71
    5
 72
    0
  3
Standard
 53
0
210
0
220
0
230
1
100
AcDbAlignedDimension
 13
175.7000000000001
 23
63.70000000000043
 33
0
 14
180.4000000000001
 24
68.40000000000089
 34
0
100
AcDbRotatedDimension
  0
DIMENSION
  5
25A
100
AcDbEntity
  8
dimensions
  6
ByLayer
 62
  256
370
   -1
100
AcDbDimension
  2
*D47
 10
96.70000000000012
 20
64.00000000000036
 30
0
 11
93.20000000000012
 21
49.60000000000018
 31
0
 70
   32
 71
    5
  3
Standard
 53
0
210
0
220
0
230
1
100
AcDbAlignedDimension
 13
100.2
 23
35.5
 33
0
 14
100.2000000000001
 24
63.70000000000036
 34
0
 50
90
100
AcDbRotatedDimension
  0
LWPOLYLINE
  5
25B
100
AcDbEntity
  8
body
  6
CONTINUOUS
 62
   56
420
8421376
370
   50
100
AcDbPolyline
 90
   40
 70
    1
 43
0
 10
70.2
 20
4.699999999999958
 10
70.20000000000012
 20
63.70000000000036
 10
100.2000000000001
 20
63.70000000000036
 10
100.2
 20
35.5
 10
103.2
 20
35.5
 10
103.2000000000001
 20
63.70000000000039
 10
132.7000000000001
 20
63.70000000000043
 10
132.7
 20
4.7
 10
131.5
 20
4.699999999999589
 10
131.5
 20
1.7
 10
142.6
 20
1.699999999999983
 10
142.6
 20
4.69999999999957
 10
136.7
 20
4.7
 10
136.7000000000001
 20
63.70000000000043
 10
175.7000000000001
 20
63.70000000000043
 10
175.7
 20
4.7
 10
169.7
 20
4.699999999999616
 10
169.7
 20
1.699999999999999
 10
178.7000000000001
 20
1.700000000000426
 10
178.7000000000001
 20
66.70000000000088
 10
1.700000000000114
 20
66.70000000000076
 10
1.7
 20
1.700000000000003
 10
13.9
 20
1.7
 10
13.9
 20
4.7
 10
4.7
 20
4.7
 10
4.700000000000114
 20
63.7000000000004
 10
34.20000000000012
 20
63.70000000000036
 10
34.2
 20
4.699999999999958
 10
25.1
 20
4.699999999999603
 10
25.1
 20
1.7
 10
46.60000000000002
 20
1.7
 10
46.60000000000002
 20
4.699999999999603
 10
37.2
 20
4.699999999999958
 10
37.20000000000012
 20
63.70000000000036
 10
67.20000000000012
 20
63.70000000000036
 10
67.2
 20
4.699999999999958
 10
57.8
 20
4.699999999999589
 10
57.8
 20
1.7
 10
79.60000000000002
 20
1.7
 10
79.60000000000002
 20
4.699999999999589
  0
LWPOLYLINE
  5
25C
100
AcDbEntity
  8
body
  6
ByLayer
 62
  256
370
   -1
100
AcDbPolyline
 90
    8
 70
    1
 43
0
 10
100.2
 20
4.699999999999958
 10
90.80000000000001
 20
4.699999999999589
 10
90.80000000000001
 20
1.699999999999999
 10
104.4
 20
1.7
 10
104.4
 20
4.699999999999603
 10
103.2
 20
4.700000000000001
 10
103.2
 20
32.9
 10
100.2
 20
32.9
  0
DIMENSION
  5
25D
100
AcDbEntity
  8
dimensions
  6
ByLayer
 62
  256
370
   -1
100
AcDbDimension
  2
*D48
 10
96.70000000000012
 20
32.70000000000043
 30
0
 11
93.20000000000012
 21
18.79999999999998
 31
0
 70
   32
 71
    5
  3
Standard
 53
0
210
0
220
0
230
1
100
AcDbAlignedDimension
 13
100.2
 23
4.699999999999958
 33
0
 14
100.2
 24
32.9
 34
0
 50
90
100
AcDbRotatedDimension
  0
DIMENSION
  5
25E
100
AcDbEntity
  8
dimensions
  6
ByLayer
 62
  256
370
   -1
100
AcDbDimension
  2
*D49
 10
96.70000000000012
 20
35.70000000000043
 30
0
 11
93.20000000000012
 21
34.2
 31
0
 70
   32
 71
    5
  3
Standard
 53
0
210
0
220
0
230
1
100
AcDbAlignedDimension
 13
100.2
 23
32.9
 33
0
 14
100.2
 24
35.5
 34
0
 50
90
100
AcDbRotatedDimension
  0
ENDSEC
  0
SECTION
  2
OBJECTS
  0
DICTIONARY
  5
C
330
0
100
AcDbDictionary
281
    1
  3
ACAD_GROUP
350
D
  0
DICTIONARY
  5
D
330
C
100
AcDbDictionary
281
    1
  0
ENDSEC
  0
EOF
