999
dxfrw 0.6.3
  0
SECTION
  2
HEADER
  9
$ACADVER
  1
AC1021
  9
$DWGCODEPAGE
  3
ANSI_1252
  9
$INSBASE
 10
0
 20
0
 30
0
  9
$EXTMIN
 10
-68
 20
-33.08333333333333
 30
0
  9
$EXTMAX
 10
127
 20
80.00132003423577
 30
0
  9
$LIMMIN
 10
0
 20
0
  9
$LIMMAX
 10
420
 20
297
  9
$ORTHOMODE
 70
    0
  9
$REGENMODE
 70
    1
  9
$FILLMODE
 70
    1
  9
$QTEXTMODE
 70
    0
  9
$MIRRTEXT
 70
    0
  9
$LTSCALE
 40
1
  9
$ATTMODE
 70
    0
  9
$TEXTSIZE
 40
2.5
  9
$TRACEWID
 40
15.68
  9
$TEXTSTYLE
  7
STANDARD
  9
$CLAYER
  8
wall
  9
$CELTYPE
  6
BYLAYER
  9
$CECOLOR
 62
  256
  9
$CELTSCALE
 40
1
  9
$DISPSILH
 70
    0
  9
$DIMSCALE
 40
1
  9
$DIMASZ
 40
5
  9
$DIMEXO
 40
1
  9
$DIMDLI
 40
3.75
  9
$DIMRND
 40
0
  9
$DIMDLE
 40
0
  9
$DIMEXE
 40
2
  9
$DIMTP
 40
0
  9
$DIMTM
 40
0
  9
$DIMTXT
 40
4
  9
$DIMCEN
 40
2.5
  9
$DIMTSZ
 40
0
  9
$DIMTOL
 70
    0
  9
$DIMLIM
 70
    0
  9
$DIMTIH
 70
    0
  9
$DIMTOH
 70
    0
  9
$DIMSE1
 70
    0
  9
$DIMSE2
 70
    0
  9
$DIMTAD
 70
    1
  9
$DIMZIN
 70
    8
  9
$DIMBLK
  1

  9
$DIMASO
 70
    1
  9
$DIMSHO
 70
    1
  9
$DIMPOST
  1

  9
$DIMAPOST
  1

  9
$DIMALT
 70
    0
  9
$DIMALTD
 70
    3
  9
$DIMALTF
 40
0.03937
  9
$DIMLFAC
 40
1
  9
$DIMTOFL
 70
    1
  9
$DIMTVP
 40
0
  9
$DIMTIX
 70
    0
  9
$DIMSOXD
 70
    0
  9
$DIMSAH
 70
    0
  9
$DIMBLK1
  1

  9
$DIMBLK2
  1

  9
$DIMSTYLE
  2
STANDARD
  9
$DIMCLRD
 70
    0
  9
$DIMCLRE
 70
    0
  9
$DIMCLRT
 70
    0
  9
$DIMTFAC
 40
1
  9
$DIMGAP
 40
1
  9
$DIMJUST
 70
    0
  9
$DIMSD1
 70
    0
  9
$DIMSD2
 70
    0
  9
$DIMTOLJ
 70
    0
  9
$DIMTZIN
 70
    8
  9
$DIMALTZ
 70
    0
  9
$DIMALTTZ
 70
    0
  9
$DIMUPT
 70
    0
  9
$DIMDEC
 70
    1
  9
$DIMTDEC
 70
    2
  9
$DIMALTU
 70
    2
  9
$DIMALTTD
 70
    3
  9
$DIMTXSTY
  7
standard
  9
$DIMAUNIT
 70
    0
  9
$DIMADEC
 70
    0
  9
$DIMALTRND
 40
0
  9
$DIMAZIN
 70
    0
  9
$DIMDSEP
 70
   44
  9
$DIMATFIT
 70
    3
  9
$DIMFRAC
 70
    0
  9
$DIMLDRBLK
  1
STANDARD
  9
$DIMLUNIT
 70
    2
  9
$DIMLWD
 70
   -2
  9
$DIMLWE
 70
   -2
  9
$DIMTMOVE
 70
    0
  9
$DIMFXL
 40
1
  9
$DIMFXLON
 70
    0
  9
$DIMJOGANG
 40
0.7854
  9
$DIMTFILL
 70
    0
  9
$DIMTFILLCLR
 70
    0
  9
$DIMARCSYM
 70
    0
  9
$DIMLTYPE
  6

  9
$DIMLTEX1
  6

  9
$DIMLTEX2
  6

  9
$LUNITS
 70
    2
  9
$LUPREC
 70
    2
  9
$SKETCHINC
 40
1
  9
$FILLETRAD
 40
0
  9
$AUNITS
 70
    0
  9
$AUPREC
 70
    2
  9
$MENU
  1
.
  9
$ELEVATION
 40
0
  9
$PELEVATION
 40
0
  9
$THICKNESS
 40
0
  9
$LIMCHECK
 70
    0
  9
$CHAMFERA
 40
0
  9
$CHAMFERB
 40
0
  9
$CHAMFERC
 40
0
  9
$CHAMFERD
 40
0
  9
$SKPOLY
 70
    0
  9
$USRTIMER
 70
    1
  9
$ANGBASE
 50
0
  9
$ANGDIR
 70
    0
  9
$PDMODE
 70
   34
  9
$PDSIZE
 40
0
  9
$PLINEWID
 40
0
  9
$SPLFRAME
 70
    0
  9
$SPLINETYPE
 70
    2
  9
$SPLINESEGS
 70
    8
  9
$HANDSEED
  5
20000
  9
$SURFTAB1
 70
    6
  9
$SURFTAB2
 70
    6
  9
$SURFTYPE
 70
    6
  9
$SURFU
 70
    6
  9
$SURFV
 70
    6
  9
$UCSBASE
  2

  9
$UCSNAME
  2

  9
$UCSORG
 10
0
 20
0
 30
0
  9
$UCSXDIR
 10
1
 20
0
 30
0
  9
$UCSYDIR
 10
0
 20
1
 30
0
  9
$UCSORTHOREF
  2

  9
$UCSORTHOVIEW
 70
    0
  9
$UCSORGTOP
 10
0
 20
0
 30
0
  9
$UCSORGBOTTOM
 10
0
 20
0
 30
0
  9
$UCSORGLEFT
 10
0
 20
0
 30
0
  9
$UCSORGRIGHT
 10
0
 20
0
 30
0
  9
$UCSORGFRONT
 10
0
 20
0
 30
0
  9
$UCSORGBACK
 10
0
 20
0
 30
0
  9
$PUCSBASE
  2

  9
$PUCSNAME
  2

  9
$PUCSORG
 10
0
 20
0
 30
0
  9
$PUCSXDIR
 10
1
 20
0
 30
0
  9
$PUCSYDIR
 10
0
 20
1
 30
0
  9
$PUCSORTHOREF
  2

  9
$PUCSORTHOVIEW
 70
    0
  9
$PUCSORGTOP
 10
0
 20
0
 30
0
  9
$PUCSORGBOTTOM
 10
0
 20
0
 30
0
  9
$PUCSORGLEFT
 10
0
 20
0
 30
0
  9
$PUCSORGRIGHT
 10
0
 20
0
 30
0
  9
$PUCSORGFRONT
 10
0
 20
0
 30
0
  9
$PUCSORGBACK
 10
0
 20
0
 30
0
  9
$USERI1
 70
    0
  9
$USERI2
 70
    0
  9
$USERI3
 70
    0
  9
$USERI4
 70
    0
  9
$USERI5
 70
    0
  9
$USERR1
 40
0
  9
$USERR2
 40
0
  9
$USERR3
 40
0
  9
$USERR4
 40
0
  9
$USERR5
 40
0
  9
$WORLDVIEW
 70
    1
  9
$SHADEDGE
 70
    3
  9
$SHADEDIF
 70
   70
  9
$TILEMODE
 70
    1
  9
$MAXACTVP
 70
   64
  9
$PINSBASE
 10
10.59564102564103
 20
8.181025641025641
 30
0
  9
$PLIMCHECK
 70
    0
  9
$PEXTMIN
 10
0
 20
0
 30
0
  9
$PEXTMAX
 10
0
 20
0
 30
0
  9
$GRIDMODE
 70
    1
  9
$SNAPSTYLE
 70
    0
  9
$GRIDUNIT
 10
0
 20
0
  9
$PLIMMIN
 10
0
 20
0
  9
$PLIMMAX
 10
29.7
 20
21
  9
$UNITMODE
 70
    0
  9
$VISRETAIN
 70
    1
  9
$PLINEGEN
 70
    0
  9
$PSLTSCALE
 70
    1
  9
$TREEDEPTH
 70
 3020
  9
$CMLSTYLE
  2
Standard
  9
$CMLJUST
 70
    0
  9
$CMLSCALE
 40
20
  9
$PROXYGRAPHICS
 70
    1
  9
$MEASUREMENT
 70
    1
  9
$CELWEIGHT
370
   -1
  9
$ENDCAPS
280
    0
  9
$JOINSTYLE
280
    0
  9
$LWDISPLAY
290
    0
  9
$INSUNITS
 70
    5
  9
$HYPERLINKBASE
  1

  9
$STYLESHEET
  1

  9
$XEDIT
290
    1
  9
$CEPSNTYPE
380
    0
  9
$PSTYLEMODE
290
    1
  9
$EXTNAMES
290
    1
  9
$PSVPSCALE
 40
0.1394871337067869
  9
$OLESTARTUP
290
    0
  9
$SORTENTS
280
  127
  9
$INDEXCTL
280
    0
  9
$HIDETEXT
280
    1
  9
$XCLIPFRAME
290
    0
  9
$HALOGAP
280
    0
  9
$OBSCOLOR
 70
  257
  9
$OBSLTYPE
280
    0
  9
$INTERSECTIONDISPLAY
280
    0
  9
$INTERSECTIONCOLOR
 70
  257
  9
$DIMASSOC
280
    1
  9
$PROJECTNAME
  1

  9
$CAMERADISPLAY
290
    0
  9
$LENSLENGTH
 40
50
  9
$CAMERAHEIGHT
 40
0
  9
$STEPSPERSEC
 40
2
  9
$STEPSIZE
 40
50
  9
$3DDWFPREC
 40
2
  9
$PSOLWIDTH
 40
5
  9
$PSOLHEIGHT
 40
80
  9
$LOFTANG1
 40
1.570796326794897
  9
$LOFTANG2
 40
1.570796326794897
  9
$LOFTMAG1
 40
0
  9
$LOFTMAG2
 40
0
  9
$LOFTPARAM
 70
    7
  9
$LOFTNORMALS
280
    1
  9
$LATITUDE
 40
1
  9
$LONGITUDE
 40
1
  9
$NORTHDIRECTION
 40
0
  9
$TIMEZONE
 70
-8000
  9
$LIGHTGLYPHDISPLAY
280
    1
  9
$TILEMODELIGHTSYNCH
280
    1
  9
$SOLIDHIST
280
    1
  9
$SHOWHIST
280
    1
  9
$DWFFRAME
280
    2
  9
$DGNFRAME
280
    0
  9
$REALWORLDSCALE
290
    1
  9
$INTERFERECOLOR
 62
    1
  9
$CSHADOW
280
    0
  9
$SHADOWPLANELOCATION
 40
0
  0
ENDSEC
  0
SECTION
  2
CLASSES
  0
ENDSEC
  0
SECTION
  2
TABLES
  0
TABLE
  2
VPORT
  5
8
330
0
100
AcDbSymbolTable
 70
    1
  0
VPORT
  5
31
330
2
100
AcDbSymbolTableRecord
100
AcDbViewportTableRecord
  2
*ACTIVE
 70
    0
 10
0
 20
0
 11
1
 21
1
 12
-24.375
 22
-11.10896017699115
 13
0
 23
0
 14
10
 24
10
 15
10
 25
10
 16
0
 26
0
 36
1
 17
0
 27
0
 37
0
 40
12.94247787610619
 41
1.65
 42
50
 43
0
 44
0
 50
0
 51
0
 71
    0
 72
  100
 73
    1
 74
    3
 75
    0
 76
    1
 77
    0
 78
    0
281
    0
 65
    1
110
0
120
0
130
0
111
1
121
0
131
0
112
0
122
1
132
0
 79
    0
146
0
348
10020
 60
    7
 61
    5
292
1
282
    1
141
0
142
0
 63
  250
421
3358443
  0
ENDTAB
  0
TABLE
  2
LTYPE
  5
5
330
0
100
AcDbSymbolTable
 70
    4
  0
LTYPE
  5
14
330
5
100
AcDbSymbolTableRecord
100
AcDbLinetypeTableRecord
  2
ByBlock
 70
    0
  3

 72
   65
 73
    0
 40
0
  0
LTYPE
  5
15
330
5
100
AcDbSymbolTableRecord
100
AcDbLinetypeTableRecord
  2
ByLayer
 70
    0
  3

 72
   65
 73
    0
 40
0
  0
LTYPE
  5
16
330
5
100
AcDbSymbolTableRecord
100
AcDbLinetypeTableRecord
  2
Continuous
 70
    0
  3
Solid line
 72
   65
 73
    0
 40
0
  0
LTYPE
  5
32
330
5
100
AcDbSymbolTableRecord
100
AcDbLinetypeTableRecord
  2
DOT
 70
    0
  3
Dot . . . . . . . . . . . . . . . . . . . . . .
 72
   65
 73
    2
 40
6.35
 49
0
 74
    0
 49
-6.35
 74
    0
  0
LTYPE
  5
33
330
5
100
AcDbSymbolTableRecord
100
AcDbLinetypeTableRecord
  2
DOTTINY
 70
    0
  3
Dot (.15x) .....................................
 72
   65
 73
    2
 40
0.9525
 49
0
 74
    0
 49
-0.9525
 74
    0
  0
LTYPE
  5
34
330
5
100
AcDbSymbolTableRecord
100
AcDbLinetypeTableRecord
  2
DOT2
 70
    0
  3
Dot (.5x) .....................................
 72
   65
 73
    2
 40
3.175
 49
0
 74
    0
 49
-3.175
 74
    0
  0
LTYPE
  5
35
330
5
100
AcDbSymbolTableRecord
100
AcDbLinetypeTableRecord
  2
DOTX2
 70
    0
  3
Dot (2x) .  .  .  .  .  .  .  .  .  .  .  .  .
 72
   65
 73
    2
 40
12.7
 49
0
 74
    0
 49
-12.7
 74
    0
  0
LTYPE
  5
36
330
5
100
AcDbSymbolTableRecord
100
AcDbLinetypeTableRecord
  2
DASHED
 70
    0
  3
Dashed _ _ _ _ _ _ _ _ _ _ _ _ _ _ _ _ _
 72
   65
 73
    2
 40
19.05
 49
12.7
 74
    0
 49
-6.35
 74
    0
  0
LTYPE
  5
37
330
5
100
AcDbSymbolTableRecord
100
AcDbLinetypeTableRecord
  2
DASHEDTINY
 70
    0
  3
Dashed (.15x) _ _ _ _ _ _ _ _ _ _ _ _ _ _ _ _ _
 72
   65
 73
    2
 40
2.8575
 49
1.905
 74
    0
 49
-0.9525
 74
    0
  0
LTYPE
  5
38
330
5
100
AcDbSymbolTableRecord
100
AcDbLinetypeTableRecord
  2
DASHED2
 70
    0
  3
Dashed (.5x) _ _ _ _ _ _ _ _ _ _ _ _ _ _ _ _ _
 72
   65
 73
    2
 40
9.524999999999999
 49
6.35
 74
    0
 49
-3.175
 74
    0
  0
LTYPE
  5
39
330
5
100
AcDbSymbolTableRecord
100
AcDbLinetypeTableRecord
  2
DASHEDX2
 70
    0
  3
Dashed (2x) ____  ____  ____  ____  ____  ___
 72
   65
 73
    2
 40
38.09999999999999
 49
25.4
 74
    0
 49
-12.7
 74
    0
  0
LTYPE
  5
3A
330
5
100
AcDbSymbolTableRecord
100
AcDbLinetypeTableRecord
  2
DASHDOT
 70
    0
  3
Dash dot __ . __ . __ . __ . __ . __ . __ . __
 72
   65
 73
    4
 40
25.4
 49
12.7
 74
    0
 49
-6.35
 74
    0
 49
0
 74
    0
 49
-6.35
 74
    0
  0
LTYPE
  5
3B
330
5
100
AcDbSymbolTableRecord
100
AcDbLinetypeTableRecord
  2
DASHDOTTINY
 70
    0
  3
Dash dot (.15x) _._._._._._._._._._._._._._._.
 72
   65
 73
    4
 40
3.81
 49
1.905
 74
    0
 49
-0.9525
 74
    0
 49
0
 74
    0
 49
-0.9525
 74
    0
  0
LTYPE
  5
3C
330
5
100
AcDbSymbolTableRecord
100
AcDbLinetypeTableRecord
  2
DASHDOT2
 70
    0
  3
Dash dot (.5x) _._._._._._._._._._._._._._._.
 72
   65
 73
    4
 40
12.7
 49
6.35
 74
    0
 49
-3.175
 74
    0
 49
0
 74
    0
 49
-3.175
 74
    0
  0
LTYPE
  5
3D
330
5
100
AcDbSymbolTableRecord
100
AcDbLinetypeTableRecord
  2
DASHDOTX2
 70
    0
  3
Dash dot (2x) ____  .  ____  .  ____  .  ___
 72
   65
 73
    4
 40
50.8
 49
25.4
 74
    0
 49
-12.7
 74
    0
 49
0
 74
    0
 49
-12.7
 74
    0
  0
LTYPE
  5
3E
330
5
100
AcDbSymbolTableRecord
100
AcDbLinetypeTableRecord
  2
DIVIDE
 70
    0
  3
Divide ____ . . ____ . . ____ . . ____ . . ____
 72
   65
 73
    6
 40
31.75
 49
12.7
 74
    0
 49
-6.35
 74
    0
 49
0
 74
    0
 49
-6.35
 74
    0
 49
0
 74
    0
 49
-6.35
 74
    0
  0
LTYPE
  5
3F
330
5
100
AcDbSymbolTableRecord
100
AcDbLinetypeTableRecord
  2
DIVIDETINY
 70
    0
  3
Divide (.15x) __..__..__..__..__..__..__..__.._
 72
   65
 73
    6
 40
4.7625
 49
1.905
 74
    0
 49
-0.9525
 74
    0
 49
0
 74
    0
 49
-0.9525
 74
    0
 49
0
 74
    0
 49
-0.9525
 74
    0
  0
LTYPE
  5
40
330
5
100
AcDbSymbolTableRecord
100
AcDbLinetypeTableRecord
  2
DIVIDE2
 70
    0
  3
Divide (.5x) __..__..__..__..__..__..__..__.._
 72
   65
 73
    6
 40
15.875
 49
6.35
 74
    0
 49
-3.175
 74
    0
 49
0
 74
    0
 49
-3.175
 74
    0
 49
0
 74
    0
 49
-3.175
 74
    0
  0
LTYPE
  5
41
330
5
100
AcDbSymbolTableRecord
100
AcDbLinetypeTableRecord
  2
DIVIDEX2
 70
    0
  3
Divide (2x) ________  .  .  ________  .  .  _
 72
   65
 73
    6
 40
63.5
 49
25.4
 74
    0
 49
-12.7
 74
    0
 49
0
 74
    0
 49
-12.7
 74
    0
 49
0
 74
    0
 49
-12.7
 74
    0
  0
LTYPE
  5
42
330
5
100
AcDbSymbolTableRecord
100
AcDbLinetypeTableRecord
  2
BORDER
 70
    0
  3
Border __ __ . __ __ . __ __ . __ __ . __ __ .
 72
   65
 73
    6
 40
44.45
 49
12.7
 74
    0
 49
-6.35
 74
    0
 49
12.7
 74
    0
 49
-6.35
 74
    0
 49
0
 74
    0
 49
-6.35
 74
    0
  0
LTYPE
  5
43
330
5
100
AcDbSymbolTableRecord
100
AcDbLinetypeTableRecord
  2
BORDERTINY
 70
    0
  3
Border (.15x) __.__.__.__.__.__.__.__.__.__.__.
 72
   65
 73
    6
 40
6.6675
 49
1.905
 74
    0
 49
-0.9525
 74
    0
 49
1.905
 74
    0
 49
-0.9525
 74
    0
 49
0
 74
    0
 49
-0.9525
 74
    0
  0
LTYPE
  5
44
330
5
100
AcDbSymbolTableRecord
100
AcDbLinetypeTableRecord
  2
BORDER2
 70
    0
  3
Border (.5x) __.__.__.__.__.__.__.__.__.__.__.
 72
   65
 73
    6
 40
22.225
 49
6.35
 74
    0
 49
-3.175
 74
    0
 49
6.35
 74
    0
 49
-3.175
 74
    0
 49
0
 74
    0
 49
-3.175
 74
    0
  0
LTYPE
  5
45
330
5
100
AcDbSymbolTableRecord
100
AcDbLinetypeTableRecord
  2
BORDERX2
 70
    0
  3
Border (2x) ____  ____  .  ____  ____  .  ___
 72
   65
 73
    6
 40
88.89999999999999
 49
25.4
 74
    0
 49
-12.7
 74
    0
 49
25.4
 74
    0
 49
-12.7
 74
    0
 49
0
 74
    0
 49
-12.7
 74
    0
  0
LTYPE
  5
46
330
5
100
AcDbSymbolTableRecord
100
AcDbLinetypeTableRecord
  2
CENTER
 70
    0
  3
Center ____ _ ____ _ ____ _ ____ _ ____ _ ____
 72
   65
 73
    4
 40
50.8
 49
31.75
 74
    0
 49
-6.35
 74
    0
 49
6.35
 74
    0
 49
-6.35
 74
    0
  0
LTYPE
  5
47
330
5
100
AcDbSymbolTableRecord
100
AcDbLinetypeTableRecord
  2
CENTERTINY
 70
    0
  3
Center (.15x) ___ _ ___ _ ___ _ ___ _ ___ _ ___
 72
   65
 73
    4
 40
7.619999999999999
 49
4.7625
 74
    0
 49
-0.9525
 74
    0
 49
0.9525
 74
    0
 49
-0.9525
 74
    0
  0
LTYPE
  5
48
330
5
100
AcDbSymbolTableRecord
100
AcDbLinetypeTableRecord
  2
CENTER2
 70
    0
  3
Center (.5x) ___ _ ___ _ ___ _ ___ _ ___ _ ___
 72
   65
 73
    4
 40
28.575
 49
19.05
 74
    0
 49
-3.175
 74
    0
 49
3.175
 74
    0
 49
-3.175
 74
    0
  0
LTYPE
  5
49
330
5
100
AcDbSymbolTableRecord
100
AcDbLinetypeTableRecord
  2
CENTERX2
 70
    0
  3
Center (2x) ________  __  ________  __  _____
 72
   65
 73
    4
 40
101.6
 49
63.5
 74
    0
 49
-12.7
 74
    0
 49
12.7
 74
    0
 49
-12.7
 74
    0
  0
ENDTAB
  0
TABLE
  2
LAYER
  5
2
330
0
100
AcDbSymbolTable
 70
    1
  0
LAYER
  5
10
330
2
100
AcDbSymbolTableRecord
100
AcDbLayerTableRecord
  2
0
 70
    0
 62
    7
  6
CONTINUOUS
370
   -3
390
F
1001
LibreCad
1070
    1
  0
LAYER
  5
4A
330
2
100
AcDbSymbolTableRecord
100
AcDbLayerTableRecord
  2
concreet
 70
    0
 62
    6
  6
CONTINUOUS
370
   50
390
F
  0
LAYER
  5
4B
330
2
100
AcDbSymbolTableRecord
100
AcDbLayerTableRecord
  2
fasad
 70
    0
 62
    3
  6
CONTINUOUS
370
   50
390
F
  0
LAYER
  5
4C
330
2
100
AcDbSymbolTableRecord
100
AcDbLayerTableRecord
  2
metal
 70
    0
 62
    5
  6
CONTINUOUS
370
   50
390
F
  0
LAYER
  5
4D
330
2
100
AcDbSymbolTableRecord
100
AcDbLayerTableRecord
  2
rozmir
 70
    0
 62
    4
  6
CONTINUOUS
370
   13
390
F
  0
LAYER
  5
4E
330
2
100
AcDbSymbolTableRecord
100
AcDbLayerTableRecord
  2
wall
 70
    0
 62
   56
420
8421376
  6
CONTINUOUS
370
   50
390
F
  0
ENDTAB
  0
TABLE
  2
STYLE
  5
3
330
0
100
AcDbSymbolTable
 70
    3
  0
STYLE
  5
4F
330
2
100
AcDbSymbolTableRecord
100
AcDbTextStyleTableRecord
  2
cyrillic_ii
 70
    0
 40
0
 41
1
 50
0
 71
    0
 42
1
  3
cyrillic_ii
  4

  0
STYLE
  5
50
330
2
100
AcDbSymbolTableRecord
100
AcDbTextStyleTableRecord
  2
Standard
 70
    0
 40
0
 41
1
 50
0
 71
    0
 42
1
  3
txt
  4

  0
ENDTAB
  0
TABLE
  2
VIEW
  5
6
330
0
100
AcDbSymbolTable
 70
    0
  0
ENDTAB
  0
TABLE
  2
UCS
  5
7
330
0
100
AcDbSymbolTable
 70
    0
  0
ENDTAB
  0
TABLE
  2
APPID
  5
9
330
0
100
AcDbSymbolTable
 70
    1
  0
APPID
  5
12
330
9
100
AcDbSymbolTableRecord
100
AcDbRegAppTableRecord
  2
ACAD
 70
    0
  0
APPID
  5
51
330
9
100
AcDbSymbolTableRecord
100
AcDbRegAppTableRecord
  2
LibreCad
 70
    0
  0
ENDTAB
  0
TABLE
  2
DIMSTYLE
  5
A
330
0
100
AcDbSymbolTable
 70
    1
100
AcDbDimStyleTable
 71
    1
  0
DIMSTYLE
105
52
330
A
100
AcDbSymbolTableRecord
100
AcDbDimStyleTableRecord
  2
Standard
 70
    0
 40
1
 41
5
 42
1
 43
0.38
 44
2
 45
0
 46
0
 47
0
 48
0
 49
1
140
4
141
0.09
142
0
143
25.4
144
1
145
0
146
1
147
1
148
0
 71
    0
 72
    0
 73
    0
 74
    1
 75
    0
 76
    0
 77
    0
 78
    8
 79
    0
170
    0
171
    2
172
    0
173
    0
174
    0
175
    0
176
    0
177
    0
178
    0
179
    0
271
    1
272
    4
273
    2
274
    2
275
    0
276
    0
277
    2
278
   44
279
    0
280
    0
281
    0
282
    0
283
    1
284
    0
285
    0
286
    0
288
    0
289
    3
340
standard
341

371
   -2
372
   -2
  0
ENDTAB
  0
TABLE
  2
BLOCK_RECORD
  5
1
330
0
100
AcDbSymbolTable
 70
    2
  0
BLOCK_RECORD
  5
1F
330
1
100
AcDbSymbolTableRecord
100
AcDbBlockTableRecord
  2
*Model_Space
 70
    0
280
    1
281
    0
  0
BLOCK_RECORD
  5
1E
330
1
100
AcDbSymbolTableRecord
100
AcDbBlockTableRecord
  2
*Paper_Space
 70
    0
280
    1
281
    0
  0
BLOCK_RECORD
  5
53
330
1
100
AcDbSymbolTableRecord
100
AcDbBlockTableRecord
  2
*D5
 70
    0
280
    1
281
    0
  0
BLOCK_RECORD
  5
56
330
1
100
AcDbSymbolTableRecord
100
AcDbBlockTableRecord
  2
*D3
 70
    0
280
    1
281
    0
  0
BLOCK_RECORD
  5
59
330
1
100
AcDbSymbolTableRecord
100
AcDbBlockTableRecord
  2
*D8
 70
    0
280
    1
281
    0
  0
BLOCK_RECORD
  5
5C
330
1
100
AcDbSymbolTableRecord
100
AcDbBlockTableRecord
  2
*D13
 70
    0
280
    1
281
    0
  0
BLOCK_RECORD
  5
5F
330
1
100
AcDbSymbolTableRecord
100
AcDbBlockTableRecord
  2
*D7
 70
    0
280
    1
281
    0
  0
BLOCK_RECORD
  5
62
330
1
100
AcDbSymbolTableRecord
100
AcDbBlockTableRecord
  2
*D16
 70
    0
280
    1
281
    0
  0
BLOCK_RECORD
  5
65
330
1
100
AcDbSymbolTableRecord
100
AcDbBlockTableRecord
  2
*D15
 70
    0
280
    1
281
    0
  0
BLOCK_RECORD
  5
68
330
1
100
AcDbSymbolTableRecord
100
AcDbBlockTableRecord
  2
*D4
 70
    0
280
    1
281
    0
  0
BLOCK_RECORD
  5
6B
330
1
100
AcDbSymbolTableRecord
100
AcDbBlockTableRecord
  2
*D11
 70
    0
280
    1
281
    0
  0
BLOCK_RECORD
  5
6E
330
1
100
AcDbSymbolTableRecord
100
AcDbBlockTableRecord
  2
*D2
 70
    0
280
    1
281
    0
  0
BLOCK_RECORD
  5
71
330
1
100
AcDbSymbolTableRecord
100
AcDbBlockTableRecord
  2
*D18
 70
    0
280
    1
281
    0
  0
BLOCK_RECORD
  5
74
330
1
100
AcDbSymbolTableRecord
100
AcDbBlockTableRecord
  2
*D12
 70
    0
280
    1
281
    0
  0
BLOCK_RECORD
  5
77
330
1
100
AcDbSymbolTableRecord
100
AcDbBlockTableRecord
  2
*D17
 70
    0
280
    1
281
    0
  0
BLOCK_RECORD
  5
7A
330
1
100
AcDbSymbolTableRecord
100
AcDbBlockTableRecord
  2
*D9
 70
    0
280
    1
281
    0
  0
BLOCK_RECORD
  5
7D
330
1
100
AcDbSymbolTableRecord
100
AcDbBlockTableRecord
  2
*D10
 70
    0
280
    1
281
    0
  0
BLOCK_RECORD
  5
80
330
1
100
AcDbSymbolTableRecord
100
AcDbBlockTableRecord
  2
*D19
 70
    0
280
    1
281
    0
  0
BLOCK_RECORD
  5
83
330
1
100
AcDbSymbolTableRecord
100
AcDbBlockTableRecord
  2
*D6
 70
    0
280
    1
281
    0
  0
BLOCK_RECORD
  5
86
330
1
100
AcDbSymbolTableRecord
100
AcDbBlockTableRecord
  2
*D14
 70
    0
280
    1
281
    0
  0
BLOCK_RECORD
  5
89
330
1
100
AcDbSymbolTableRecord
100
AcDbBlockTableRecord
  2
*D1
 70
    0
280
    1
281
    0
  0
ENDTAB
  0
ENDSEC
  0
SECTION
  2
BLOCKS
  0
BLOCK
  5
20
330
1F
100
AcDbEntity
  8
0
100
AcDbBlockBegin
  2
*Model_Space
 70
    0
 10
0
 20
0
 30
0
  3
*Model_Space
  1

  0
ENDBLK
  5
21
330
1F
100
AcDbEntity
  8
0
100
AcDbBlockEnd
  0
BLOCK
  5
1C
330
1B
100
AcDbEntity
  8
0
100
AcDbBlockBegin
  2
*Paper_Space
 70
    0
 10
0
 20
0
 30
0
  3
*Paper_Space
  1

  0
ENDBLK
  5
1D
330
1F
100
AcDbEntity
  8
0
100
AcDbBlockEnd
  0
BLOCK
  5
54
330
53
100
AcDbEntity
  8
0
100
AcDbBlockBegin
  2
*D5
 70
    1
 10
0
 20
0
  3
*D5
  1

  0
LINE
  5
8C
100
AcDbEntity
  8
rozmir
  6
CONTINUOUS
 62
    7
370
    0
100
AcDbLine
 10
15
 20
-8
 11
0
 21
-30
  0
LINE
  5
8D
100
AcDbEntity
  8
rozmir
  6
CONTINUOUS
 62
    7
370
    0
100
AcDbLine
 10
0
 20
-30
 11
-62
 21
-30
  0
SOLID
  5
8E
100
AcDbEntity
  8
rozmir
  6
CONTINUOUS
 62
    7
370
    0
100
AcDbTrace
 10
15
 20
-8
 30
0
 11
12.87120741007886
 21
-12.6001536685512
 31
0
 12
11.49542434350604
 22
-11.66211975952428
 32
0
 13
11.49542434350604
 23
-11.66211975952428
 33
0
  0
ENDBLK
  5
55
330
53
100
AcDbEntity
  8
0
100
AcDbBlockEnd
  0
BLOCK
  5
57
330
56
100
AcDbEntity
  8
0
100
AcDbBlockBegin
  2
*D3
 70
    1
 10
0
 20
0
  3
*D3
  1

  0
LINE
  5
8F
100
AcDbEntity
  8
rozmir
  6
ByBlock
 62
    0
370
   -2
100
AcDbLine
 10
56
 20
50
 11
43
 21
50
  0
SOLID
  5
90
100
AcDbEntity
  8
rozmir
  6
ByBlock
 62
    0
370
   -2
100
AcDbTrace
 10
56
 20
50
 30
0
 11
51
 21
49.16743068445432
 31
0
 12
51
 22
50.83256931554568
 32
0
 13
51
 23
50.83256931554568
 33
0
  0
SOLID
  5
91
100
AcDbEntity
  8
rozmir
  6
ByBlock
 62
    0
370
   -2
100
AcDbTrace
 10
43
 20
50
 30
0
 11
48
 21
50.83256931554568
 31
0
 12
48
 22
49.16743068445432
 32
0
 13
48
 23
49.16743068445432
 33
0
  0
MTEXT
  5
92
100
AcDbEntity
  8
rozmir
  6
CONTINUOUS
 62
    0
370
   -2
100
AcDbMText
 10
49.5
 20
53
 30
0
 40
4
 41
4.000000000000248
 71
    5
 72
    1
  1
13
  7
standard
210
0
220
0
230
1
 50
360
 73
    2
 44
1
  0
LINE
  5
93
100
AcDbEntity
  8
rozmir
  6
ByBlock
 62
    0
370
   -2
100
AcDbLine
 10
56
 20
26
 11
56
 21
52
  0
LINE
  5
94
100
AcDbEntity
  8
rozmir
  6
ByBlock
 62
    0
370
   -2
100
AcDbLine
 10
43
 20
26
 11
43
 21
52
  0
ENDBLK
  5
58
330
56
100
AcDbEntity
  8
0
100
AcDbBlockEnd
  0
BLOCK
  5
5A
330
59
100
AcDbEntity
  8
0
100
AcDbBlockBegin
  2
*D8
 70
    1
 10
0
 20
0
  3
*D8
  1

  0
LINE
  5
95
100
AcDbEntity
  8
rozmir
  6
CONTINUOUS
 62
    7
370
    0
100
AcDbLine
 10
58
 20
16
 11
80
 21
30
  0
LINE
  5
96
100
AcDbEntity
  8
rozmir
  6
CONTINUOUS
 62
    7
370
    0
100
AcDbLine
 10
80
 20
30
 11
124
 21
30
  0
SOLID
  5
97
100
AcDbEntity
  8
rozmir
  6
CONTINUOUS
 62
    7
370
    0
100
AcDbTrace
 10
58
 20
16
 30
0
 11
61.77132137759203
 21
19.38678412835917
 31
0
 12
62.66529349972905
 22
17.98197079357243
 32
0
 13
62.66529349972905
 23
17.98197079357243
 33
0
  0
ENDBLK
  5
5B
330
59
100
AcDbEntity
  8
0
100
AcDbBlockEnd
  0
BLOCK
  5
5D
330
5C
100
AcDbEntity
  8
0
100
AcDbBlockBegin
  2
*D13
 70
    1
 10
0
 20
0
  3
*D13
  1

  0
LINE
  5
98
100
AcDbEntity
  8
rozmir
  6
ByBlock
 62
    0
370
   -2
100
AcDbLine
 10
60
 20
-30
 11
47.5
 21
-30
  0
SOLID
  5
99
100
AcDbEntity
  8
rozmir
  6
ByBlock
 62
    0
370
   -2
100
AcDbTrace
 10
60
 20
-30
 30
0
 11
55
 21
-30.83256931554568
 31
0
 12
55
 22
-29.16743068445432
 32
0
 13
55
 23
-29.16743068445432
 33
0
  0
SOLID
  5
9A
100
AcDbEntity
  8
rozmir
  6
ByBlock
 62
    0
370
   -2
100
AcDbTrace
 10
47.5
 20
-30
 30
0
 11
52.5
 21
-29.16743068445432
 31
0
 12
52.5
 22
-30.83256931554568
 32
0
 13
52.5
 23
-30.83256931554568
 33
0
  0
MTEXT
  5
9B
100
AcDbEntity
  8
rozmir
  6
CONTINUOUS
 62
    0
370
   -2
100
AcDbMText
 10
53.75
 20
-27
 30
0
 40
4
 41
8.666666666666915
 71
    5
 72
    1
  1
12,5
  7
standard
210
0
220
0
230
1
 50
360
 73
    2
 44
1
  0
LINE
  5
9C
100
AcDbEntity
  8
rozmir
  6
ByBlock
 62
    0
370
   -2
100
AcDbLine
 10
60
 20
-4
 11
60
 21
-32
  0
LINE
  5
9D
100
AcDbEntity
  8
rozmir
  6
ByBlock
 62
    0
370
   -2
100
AcDbLine
 10
47.5
 20
-1
 11
47.5
 21
-32
  0
ENDBLK
  5
5E
330
5C
100
AcDbEntity
  8
0
100
AcDbBlockEnd
  0
BLOCK
  5
60
330
5F
100
AcDbEntity
  8
0
100
AcDbBlockBegin
  2
*D7
 70
    1
 10
0
 20
0
  3
*D7
  1

  0
LINE
  5
9E
100
AcDbEntity
  8
rozmir
  6
CONTINUOUS
 62
    7
370
    0
100
AcDbLine
 10
58
 20
-7
 11
80
 21
-20
  0
LINE
  5
9F
100
AcDbEntity
  8
rozmir
  6
CONTINUOUS
 62
    7
370
    0
100
AcDbLine
 10
80
 20
-20
 11
127
 21
-20
  0
SOLID
  5
A0
100
AcDbEntity
  8
rozmir
  6
CONTINUOUS
 62
    7
370
    0
100
AcDbTrace
 10
58
 20
-7
 30
0
 11
62.72818505626688
 21
-8.826865550302694
 31
0
 12
61.88108022587627
 22
-10.26042757096372
 32
0
 13
61.88108022587627
 23
-10.26042757096372
 33
0
  0
ENDBLK
  5
61
330
5F
100
AcDbEntity
  8
0
100
AcDbBlockEnd
  0
BLOCK
  5
63
330
62
100
AcDbEntity
  8
0
100
AcDbBlockBegin
  2
*D16
 70
    1
 10
0
 20
0
  3
*D16
  1

  0
LINE
  5
A1
100
AcDbEntity
  8
rozmir
  6
ByBlock
 62
    0
370
   -2
100
AcDbLine
 10
70
 20
10
 11
70
 21
-13
  0
SOLID
  5
A2
100
AcDbEntity
  8
rozmir
  6
ByBlock
 62
    0
370
   -2
100
AcDbTrace
 10
70
 20
3.552713678800501e-15
 30
0
 11
69.16743068445432
 21
5.000000000000004
 31
0
 12
70.83256931554568
 22
5.000000000000004
 32
0
 13
70.83256931554568
 23
5.000000000000004
 33
0
  0
SOLID
  5
A3
100
AcDbEntity
  8
rozmir
  6
ByBlock
 62
    0
370
   -2
100
AcDbTrace
 10
70
 20
-2.999999999999999
 30
0
 11
70.83256931554568
 21
-7.999999999999998
 31
0
 12
69.16743068445432
 22
-7.999999999999998
 32
0
 13
69.16743068445432
 23
-7.999999999999998
 33
0
  0
MTEXT
  5
A4
100
AcDbEntity
  8
rozmir
  6
CONTINUOUS
 62
    0
370
   -2
100
AcDbMText
 10
73
 20
-1.499999999999998
 30
0
 40
4
 41
1.777777777778026
 71
    5
 72
    1
  1
3
  7
standard
210
0
220
0
230
1
 50
90
 73
    2
 44
1
  0
LINE
  5
A5
100
AcDbEntity
  8
rozmir
  6
ByBlock
 62
    0
370
   -2
100
AcDbLine
 10
48.5
 20
0
 11
72
 21
3.552713678800501e-15
  0
LINE
  5
A6
100
AcDbEntity
  8
rozmir
  6
ByBlock
 62
    0
370
   -2
100
AcDbLine
 10
61
 20
-3
 11
72
 21
-2.999999999999999
  0
ENDBLK
  5
64
330
62
100
AcDbEntity
  8
0
100
AcDbBlockEnd
  0
BLOCK
  5
66
330
65
100
AcDbEntity
  8
0
100
AcDbBlockBegin
  2
*D15
 70
    1
 10
0
 20
0
  3
*D15
  1

  0
LINE
  5
A7
100
AcDbEntity
  8
rozmir
  6
ByBlock
 62
    0
370
   -2
100
AcDbLine
 10
80
 20
-13
 11
80
 21
13
  0
SOLID
  5
A8
100
AcDbEntity
  8
rozmir
  6
ByBlock
 62
    0
370
   -2
100
AcDbTrace
 10
80
 20
-2.999999999999997
 30
0
 11
80.83256931554568
 21
-7.999999999999997
 31
0
 12
79.16743068445432
 22
-7.999999999999997
 32
0
 13
79.16743068445432
 23
-7.999999999999997
 33
0
  0
SOLID
  5
A9
100
AcDbEntity
  8
rozmir
  6
ByBlock
 62
    0
370
   -2
100
AcDbTrace
 10
80
 20
3.000000000000004
 30
0
 11
79.16743068445432
 21
8.000000000000004
 31
0
 12
80.83256931554568
 22
8.000000000000004
 32
0
 13
80.83256931554568
 23
8.000000000000004
 33
0
  0
MTEXT
  5
AA
100
AcDbEntity
  8
rozmir
  6
CONTINUOUS
 62
    0
370
   -2
100
AcDbMText
 10
83
 20
5.20784379955919e-16
 30
0
 40
4
 41
1.777777777778026
 71
    5
 72
    1
  1
6
  7
standard
210
0
220
0
230
1
 50
90
 73
    2
 44
1
  0
LINE
  5
AB
100
AcDbEntity
  8
rozmir
  6
ByBlock
 62
    0
370
   -2
100
AcDbLine
 10
61
 20
-3
 11
82
 21
-2.999999999999997
  0
LINE
  5
AC
100
AcDbEntity
  8
rozmir
  6
ByBlock
 62
    0
370
   -2
100
AcDbLine
 10
57
 20
3.000000000000001
 11
82
 21
3.000000000000004
  0
ENDBLK
  5
67
330
65
100
AcDbEntity
  8
0
100
AcDbBlockEnd
  0
BLOCK
  5
69
330
68
100
AcDbEntity
  8
0
100
AcDbBlockBegin
  2
*D4
 70
    1
 10
0
 20
0
  3
*D4
  1

  0
LINE
  5
AD
100
AcDbEntity
  8
rozmir
  6
CONTINUOUS
 62
    7
370
    0
100
AcDbLine
 10
16
 20
3
 11
0
 21
-20
  0
LINE
  5
AE
100
AcDbEntity
  8
rozmir
  6
CONTINUOUS
 62
    7
370
    0
100
AcDbLine
 10
0
 20
-20
 11
-68
 21
-20
  0
SOLID
  5
AF
100
AcDbEntity
  8
rozmir
  6
CONTINUOUS
 62
    7
370
    0
100
AcDbTrace
 10
16
 20
3
 30
0
 11
13.82813804098543
 21
-1.579976778999389
 31
0
 12
12.46121707702857
 22
-0.6290752388554823
 32
0
 13
12.46121707702857
 23
-0.6290752388554823
 33
0
  0
ENDBLK
  5
6A
330
68
100
AcDbEntity
  8
0
100
AcDbBlockEnd
  0
BLOCK
  5
6C
330
6B
100
AcDbEntity
  8
0
100
AcDbBlockBegin
  2
*D11
 70
    1
 10
0
 20
0
  3
*D11
  1

  0
LINE
  5
B0
100
AcDbEntity
  8
rozmir
  6
CONTINUOUS
 62
    7
370
    0
100
AcDbLine
 10
28
 20
16
 11
20
 21
50
  0
LINE
  5
B1
100
AcDbEntity
  8
rozmir
  6
CONTINUOUS
 62
    7
370
    0
100
AcDbLine
 10
20
 20
50
 11
2
 21
50
  0
SOLID
  5
B2
100
AcDbEntity
  8
rozmir
  6
CONTINUOUS
 62
    7
370
    0
100
AcDbTrace
 10
28
 20
16
 30
0
 11
26.04436606579237
 21
20.67639472035496
 31
0
 12
27.66524059695217
 22
21.0577769629808
 32
0
 13
27.66524059695217
 23
21.0577769629808
 33
0
  0
ENDBLK
  5
6D
330
6B
100
AcDbEntity
  8
0
100
AcDbBlockEnd
  0
BLOCK
  5
6F
330
6E
100
AcDbEntity
  8
0
100
AcDbBlockBegin
  2
*D2
 70
    1
 10
0
 20
0
  3
*D2
  1

  0
LINE
  5
B3
100
AcDbEntity
  8
rozmir
  6
ByBlock
 62
    0
370
   -2
100
AcDbLine
 10
57.49999999999999
 20
40
 11
33
 21
40
  0
SOLID
  5
B4
100
AcDbEntity
  8
rozmir
  6
ByBlock
 62
    0
370
   -2
100
AcDbTrace
 10
47.49999999999999
 20
40
 30
0
 11
52.49999999999999
 21
40.83256931554568
 31
0
 12
52.49999999999999
 22
39.16743068445432
 32
0
 13
52.49999999999999
 23
39.16743068445432
 33
0
  0
SOLID
  5
B5
100
AcDbEntity
  8
rozmir
  6
ByBlock
 62
    0
370
   -2
100
AcDbTrace
 10
43
 20
40
 30
0
 11
38
 21
39.16743068445432
 31
0
 12
38
 22
40.83256931554568
 32
0
 13
38
 23
40.83256931554568
 33
0
  0
MTEXT
  5
B6
100
AcDbEntity
  8
rozmir
  6
CONTINUOUS
 62
    0
370
   -2
100
AcDbMText
 10
51.94444444444456
 20
43
 30
0
 40
4
 41
6.888888888889136
 71
    5
 72
    1
  1
4,5
  7
standard
210
0
220
0
230
1
 50
360
 73
    2
 44
1
  0
LINE
  5
B7
100
AcDbEntity
  8
rozmir
  6
ByBlock
 62
    0
370
   -2
100
AcDbLine
 10
47.49999999999999
 20
26
 11
47.49999999999999
 21
42
  0
LINE
  5
B8
100
AcDbEntity
  8
rozmir
  6
ByBlock
 62
    0
370
   -2
100
AcDbLine
 10
43
 20
26
 11
43
 21
42
  0
ENDBLK
  5
70
330
6E
100
AcDbEntity
  8
0
100
AcDbBlockEnd
  0
BLOCK
  5
72
330
71
100
AcDbEntity
  8
0
100
AcDbBlockBegin
  2
*D18
 70
    1
 10
0
 20
0
  3
*D18
  1

  0
LINE
  5
B9
100
AcDbEntity
  8
rozmir
  6
ByBlock
 62
    0
370
   -2
100
AcDbLine
 10
-9.525027413988791e-16
 20
9.499999999999996
 11
1.83697019872103e-15
 21
35
  0
SOLID
  5
BA
100
AcDbEntity
  8
rozmir
  6
ByBlock
 62
    0
370
   -2
100
AcDbTrace
 10
8.844674573221506e-16
 20
19.5
 30
0
 11
0.8325693155456827
 21
14.5
 31
0
 12
-0.8325693155456793
 22
14.5
 32
0
 13
-0.8325693155456793
 23
14.5
 33
0
  0
SOLID
  5
BB
100
AcDbEntity
  8
rozmir
  6
ByBlock
 62
    0
370
   -2
100
AcDbTrace
 10
4.913511067165714e-31
 20
25
 30
0
 11
-0.83256931554568
 21
30
 31
0
 12
0.8325693155456818
 22
30
 32
0
 13
0.8325693155456818
 23
30
 33
0
  0
MTEXT
  5
BC
100
AcDbEntity
  8
rozmir
  6
CONTINUOUS
 62
    0
370
   -2
100
AcDbMText
 10
-3
 20
29.22222222222247
 30
0
 40
4
 41
6.44444444444494
 71
    5
 72
    1
  1
5,5
  7
standard
210
0
220
0
230
1
 50
90
 73
    2
 44
1
  0
LINE
  5
BD
100
AcDbEntity
  8
rozmir
  6
ByBlock
 62
    0
370
   -2
100
AcDbLine
 10
19
 20
19.5
 11
-1.999999999999999
 21
19.5
  0
LINE
  5
BE
100
AcDbEntity
  8
rozmir
  6
ByBlock
 62
    0
370
   -2
100
AcDbLine
 10
18
 20
25
 11
-2
 21
25
  0
ENDBLK
  5
73
330
71
100
AcDbEntity
  8
0
100
AcDbBlockEnd
  0
BLOCK
  5
75
330
74
100
AcDbEntity
  8
0
100
AcDbBlockBegin
  2
*D12
 70
    1
 10
0
 20
0
  3
*D12
  1

  0
LINE
  5
BF
100
AcDbEntity
  8
rozmir
  6
ByBlock
 62
    0
370
   -2
100
AcDbLine
 10
70
 20
-20
 11
46
 21
-20
  0
SOLID
  5
C0
100
AcDbEntity
  8
rozmir
  6
ByBlock
 62
    0
370
   -2
100
AcDbTrace
 10
60
 20
-20
 30
0
 11
65
 21
-19.16743068445432
 31
0
 12
65
 22
-20.83256931554568
 32
0
 13
65
 23
-20.83256931554568
 33
0
  0
SOLID
  5
C1
100
AcDbEntity
  8
rozmir
  6
ByBlock
 62
    0
370
   -2
100
AcDbTrace
 10
56
 20
-20
 30
0
 11
51
 21
-20.83256931554568
 31
0
 12
51
 22
-19.16743068445432
 32
0
 13
51
 23
-19.16743068445432
 33
0
  0
MTEXT
  5
C2
100
AcDbEntity
  8
rozmir
  6
CONTINUOUS
 62
    0
370
   -2
100
AcDbMText
 10
58
 20
-17
 30
0
 40
4
 41
2.222222222222222
 71
    5
 72
    1
  1
4
  7
standard
210
0
220
0
230
1
 50
360
 73
    2
 44
1
  0
LINE
  5
C3
100
AcDbEntity
  8
rozmir
  6
ByBlock
 62
    0
370
   -2
100
AcDbLine
 10
60
 20
-4
 11
60
 21
-22
  0
LINE
  5
C4
100
AcDbEntity
  8
rozmir
  6
ByBlock
 62
    0
370
   -2
100
AcDbLine
 10
56
 20
3
 11
56
 21
-22
  0
ENDBLK
  5
76
330
74
100
AcDbEntity
  8
0
100
AcDbBlockEnd
  0
BLOCK
  5
78
330
77
100
AcDbEntity
  8
0
100
AcDbBlockBegin
  2
*D17
 70
    1
 10
0
 20
0
  3
*D17
  1

  0
LINE
  5
C5
100
AcDbEntity
  8
rozmir
  6
ByBlock
 62
    0
370
   -2
100
AcDbLine
 10
-7.999999999999998
 20
25
 11
-8
 21
1.305622276959184e-15
  0
SOLID
  5
C6
100
AcDbEntity
  8
rozmir
  6
ByBlock
 62
    0
370
   -2
100
AcDbTrace
 10
-7.999999999999998
 20
25
 30
0
 11
-7.167430684454318
 21
20
 31
0
 12
-8.83256931554568
 22
20
 32
0
 13
-8.83256931554568
 23
20
 33
0
  0
SOLID
  5
C7
100
AcDbEntity
  8
rozmir
  6
ByBlock
 62
    0
370
   -2
100
AcDbTrace
 10
-8
 20
1.305622276959184e-15
 30
0
 11
-8.83256931554568
 21
5.000000000000001
 31
0
 12
-7.167430684454319
 22
5.000000000000001
 32
0
 13
-7.167430684454319
 23
5.000000000000001
 33
0
  0
MTEXT
  5
C8
100
AcDbEntity
  8
rozmir
  6
CONTINUOUS
 62
    0
370
   -2
100
AcDbMText
 10
-11
 20
12.5
 30
0
 40
4
 41
4.888888888889136
 71
    5
 72
    1
  1
25
  7
standard
210
0
220
0
230
1
 50
90
 73
    2
 44
1
  0
LINE
  5
C9
100
AcDbEntity
  8
rozmir
  6
ByBlock
 62
    0
370
   -2
100
AcDbLine
 10
12
 20
25
 11
-9.999999999999998
 21
25
  0
LINE
  5
CA
100
AcDbEntity
  8
rozmir
  6
ByBlock
 62
    0
370
   -2
100
AcDbLine
 10
12
 20
1.224646799147353e-16
 11
-10
 21
1.550551636788655e-15
  0
ENDBLK
  5
79
330
77
100
AcDbEntity
  8
0
100
AcDbBlockEnd
  0
BLOCK
  5
7B
330
7A
100
AcDbEntity
  8
0
100
AcDbBlockBegin
  2
*D9
 70
    1
 10
0
 20
0
  3
*D9
  1

  0
LINE
  5
CB
100
AcDbEntity
  8
rozmir
  6
CONTINUOUS
 62
    7
370
    0
100
AcDbLine
 10
38
 20
20
 11
25
 21
60
  0
LINE
  5
CC
100
AcDbEntity
  8
rozmir
  6
CONTINUOUS
 62
    7
370
    0
100
AcDbLine
 10
25
 20
60
 11
-26
 21
60
  0
SOLID
  5
CD
100
AcDbEntity
  8
rozmir
  6
CONTINUOUS
 62
    7
370
    0
100
AcDbTrace
 10
38
 20
20
 30
0
 11
35.66276785464827
 21
24.49783476396396
 31
0
 12
37.24637142197616
 22
25.01250592334553
 32
0
 13
37.24637142197616
 23
25.01250592334553
 33
0
  0
ENDBLK
  5
7C
330
7A
100
AcDbEntity
  8
0
100
AcDbBlockEnd
  0
BLOCK
  5
7E
330
7D
100
AcDbEntity
  8
0
100
AcDbBlockBegin
  2
*D10
 70
    1
 10
0
 20
0
  3
*D10
  1

  0
LINE
  5
CE
100
AcDbEntity
  8
rozmir
  6
CONTINUOUS
 62
    7
370
    0
100
AcDbLine
 10
48
 20
15
 11
80
 21
50
  0
LINE
  5
CF
100
AcDbEntity
  8
rozmir
  6
CONTINUOUS
 62
    7
370
    0
100
AcDbLine
 10
80
 20
50
 11
97
 21
50
  0
SOLID
  5
D0
100
AcDbEntity
  8
rozmir
  6
CONTINUOUS
 62
    7
370
    0
100
AcDbTrace
 10
48
 20
15
 30
0
 11
50.75938585486296
 21
19.2519361906278
 31
0
 12
51.9883061405864
 22
18.12835192939493
 32
0
 13
51.9883061405864
 23
18.12835192939493
 33
0
  0
ENDBLK
  5
7F
330
7D
100
AcDbEntity
  8
0
100
AcDbBlockEnd
  0
BLOCK
  5
81
330
80
100
AcDbEntity
  8
0
100
AcDbBlockBegin
  2
*D19
 70
    1
 10
0
 20
0
  3
*D19
  1

  0
LINE
  5
D1
100
AcDbEntity
  8
rozmir
  6
ByBlock
 62
    0
370
   -2
100
AcDbLine
 10
-2.814214636934114e-15
 20
17.5
 11
1.608122649676637e-15
 21
-10
  0
SOLID
  5
D2
100
AcDbEntity
  8
rozmir
  6
ByBlock
 62
    0
370
   -2
100
AcDbTrace
 10
-1.206091987257477e-15
 20
7.499999999999996
 30
0
 11
-0.8325693155456813
 21
12.5
 31
0
 12
0.8325693155456806
 22
12.5
 32
0
 13
0.8325693155456806
 23
12.5
 33
0
  0
SOLID
  5
D3
100
AcDbEntity
  8
rozmir
  6
ByBlock
 62
    0
370
   -2
100
AcDbTrace
 10
2.08873590860525e-32
 20
-2.090559444579628e-15
 30
0
 11
0.8325693155456818
 21
-5.000000000000002
 31
0
 12
-0.8325693155456801
 22
-5.000000000000002
 32
0
 13
-0.8325693155456801
 23
-5.000000000000002
 33
0
  0
MTEXT
  5
D4
100
AcDbEntity
  8
rozmir
  6
CONTINUOUS
 62
    0
370
   -2
100
AcDbMText
 10
-3
 20
3.749999999999998
 30
0
 40
4
 41
6.444444444444692
 71
    5
 72
    1
  1
7,5
  7
standard
210
0
220
0
230
1
 50
90
 73
    2
 44
1
  0
LINE
  5
D5
100
AcDbEntity
  8
rozmir
  6
ByBlock
 62
    0
370
   -2
100
AcDbLine
 10
19
 20
7.5
 11
-2.000000000000001
 21
7.499999999999996
  0
LINE
  5
D6
100
AcDbEntity
  8
rozmir
  6
ByBlock
 62
    0
370
   -2
100
AcDbLine
 10
12
 20
1.224646799147353e-16
 11
-2
 21
-1.845630084750157e-15
  0
ENDBLK
  5
82
330
80
100
AcDbEntity
  8
0
100
AcDbBlockEnd
  0
BLOCK
  5
84
330
83
100
AcDbEntity
  8
0
100
AcDbBlockBegin
  2
*D6
 70
    1
 10
0
 20
0
  3
*D6
  1

  0
LINE
  5
D7
100
AcDbEntity
  8
rozmir
  6
CONTINUOUS
 62
    7
370
    0
100
AcDbLine
 10
57
 20
29
 11
80
 21
60
  0
LINE
  5
D8
100
AcDbEntity
  8
rozmir
  6
CONTINUOUS
 62
    7
370
    0
100
AcDbLine
 10
80
 20
60
 11
127
 21
60
  0
SOLID
  5
D9
100
AcDbEntity
  8
rozmir
  6
CONTINUOUS
 62
    7
370
    0
100
AcDbTrace
 10
57
 20
29
 30
0
 11
59.31059984518463
 21
33.51157400699811
 31
0
 12
60.64786939655003
 22
32.5194062753399
 32
0
 13
60.64786939655003
 23
32.5194062753399
 33
0
  0
ENDBLK
  5
85
330
83
100
AcDbEntity
  8
0
100
AcDbBlockEnd
  0
BLOCK
  5
87
330
86
100
AcDbEntity
  8
0
100
AcDbBlockBegin
  2
*D14
 70
    1
 10
0
 20
0
  3
*D14
  1

  0
LINE
  5
DA
100
AcDbEntity
  8
rozmir
  6
ByBlock
 62
    0
370
   -2
100
AcDbLine
 10
90
 20
-2.999999999999993
 11
90
 21
22
  0
SOLID
  5
DB
100
AcDbEntity
  8
rozmir
  6
ByBlock
 62
    0
370
   -2
100
AcDbTrace
 10
90
 20
-2.999999999999993
 30
0
 11
89.16743068445432
 21
2.000000000000007
 31
0
 12
90.83256931554568
 22
2.000000000000007
 32
0
 13
90.83256931554568
 23
2.000000000000007
 33
0
  0
SOLID
  5
DC
100
AcDbEntity
  8
rozmir
  6
ByBlock
 62
    0
370
   -2
100
AcDbTrace
 10
90
 20
22
 30
0
 11
90.83256931554568
 21
17
 31
0
 12
89.16743068445432
 22
17
 32
0
 13
89.16743068445432
 23
17
 33
0
  0
MTEXT
  5
DD
100
AcDbEntity
  8
rozmir
  6
CONTINUOUS
 62
    0
370
   -2
100
AcDbMText
 10
93
 20
9.500000000000002
 30
0
 40
4
 41
4.888888888889136
 71
    5
 72
    1
  1
25
  7
standard
210
0
220
0
230
1
 50
90
 73
    2
 44
1
  0
LINE
  5
DE
100
AcDbEntity
  8
rozmir
  6
ByBlock
 62
    0
370
   -2
100
AcDbLine
 10
61
 20
-3
 11
92
 21
-2.999999999999992
  0
LINE
  5
DF
100
AcDbEntity
  8
rozmir
  6
ByBlock
 62
    0
370
   -2
100
AcDbLine
 10
61
 20
22
 11
92
 21
22
  0
ENDBLK
  5
88
330
86
100
AcDbEntity
  8
0
100
AcDbBlockEnd
  0
BLOCK
  5
8A
330
89
100
AcDbEntity
  8
0
100
AcDbBlockBegin
  2
*D1
 70
    1
 10
0
 20
0
  3
*D1
  1

  0
LINE
  5
E0
100
AcDbEntity
  8
rozmir
  6
ByBlock
 62
    0
370
   -2
100
AcDbLine
 10
43
 20
-20
 11
13
 21
-20
  0
SOLID
  5
E1
100
AcDbEntity
  8
rozmir
  6
ByBlock
 62
    0
370
   -2
100
AcDbTrace
 10
43
 20
-20
 30
0
 11
38
 21
-20.83256931554568
 31
0
 12
38
 22
-19.16743068445432
 32
0
 13
38
 23
-19.16743068445432
 33
0
  0
SOLID
  5
E2
100
AcDbEntity
  8
rozmir
  6
ByBlock
 62
    0
370
   -2
100
AcDbTrace
 10
13
 20
-20
 30
0
 11
18
 21
-19.16743068445432
 31
0
 12
18
 22
-20.83256931554568
 32
0
 13
18
 23
-20.83256931554568
 33
0
  0
MTEXT
  5
E3
100
AcDbEntity
  8
rozmir
  6
CONTINUOUS
 62
    0
370
   -2
100
AcDbMText
 10
28
 20
-17
 30
0
 40
4
 41
4.888888888889136
 71
    5
 72
    1
  1
30
  7
standard
210
0
220
0
230
1
 50
360
 73
    2
 44
1
  0
LINE
  5
E4
100
AcDbEntity
  8
rozmir
  6
ByBlock
 62
    0
370
   -2
100
AcDbLine
 10
43
 20
-11
 11
43
 21
-22
  0
LINE
  5
E5
100
AcDbEntity
  8
rozmir
  6
ByBlock
 62
    0
370
   -2
100
AcDbLine
 10
13
 20
-11
 11
13
 21
-22
  0
ENDBLK
  5
8B
330
89
100
AcDbEntity
  8
0
100
AcDbBlockEnd
  0
ENDSEC
  0
SECTION
  2
ENTITIES
  0
HATCH
  5
E6
100
AcDbEntity
  8
metal
  6
ByLayer
 62
  256
370
   -1
100
AcDbHatch
 10
0
 20
0
 30
0
210
0
220
0
230
1
  2
SOLID
 70
    1
 71
    0
 91
    1
 92
    0
 93
    1
 72
    2
 10
21
 20
21
 40
0.5
 50
0
 51
360
 73
    1
 97
    0
 75
    0
 76
    1
 98
    0
  0
HATCH
  5
E7
100
AcDbEntity
  8
metal
  6
ByLayer
 62
  256
370
   -1
100
AcDbHatch
 10
0
 20
0
 30
0
210
0
220
0
230
1
  2
SOLID
 70
    1
 71
    0
 91
    1
 92
    0
 93
    1
 72
    2
 10
21
 20
8
 40
0.5
 50
0
 51
360
 73
    1
 97
    0
 75
    0
 76
    1
 98
    0
  0
HATCH
  5
E8
100
AcDbEntity
  8
concreet
  6
ByLayer
 62
  256
370
   -1
100
AcDbHatch
 10
0
 20
0
 30
0
210
0
220
0
230
1
  2
gost_concrete
 70
    0
 71
    0
 91
    1
 92
    0
 93
    4
 72
    1
 10
35
 20
6
 11
20
 21
6
 72
    1
 10
20
 20
6
 11
19
 21
25
 72
    1
 10
19
 20
25
 11
36
 21
25
 72
    1
 10
36
 20
25
 11
35
 21
6
 97
    0
 75
    0
 76
    1
 52
4.71238898038469
 41
0.5
 77
    0
 78
    0
 98
    0
  0
HATCH
  5
E9
100
AcDbEntity
  8
wall
  6
ByLayer
 62
  256
370
   -1
100
AcDbHatch
 10
0
 20
0
 30
0
210
0
220
0
230
1
  2
gost_stone
 70
    0
 71
    0
 91
    1
 92
    0
 93
    8
 72
    1
 10
20
 20
6
 11
35
 21
6
 72
    1
 10
35
 20
6
 11
36
 21
25
 72
    1
 10
36
 20
25
 11
43
 21
25
 72
    1
 10
43
 20
25
 11
43
 21
0
 72
    1
 10
43
 20
0
 11
13
 21
0
 72
    1
 10
13
 20
0
 11
13
 21
25
 72
    1
 10
13
 20
25
 11
19
 21
25
 72
    1
 10
19
 20
25
 11
20
 21
6
 97
    0
 75
    0
 76
    1
 52
3.141592653589793
 41
0.5
 77
    0
 78
    0
 98
    0
  0
HATCH
  5
EA
100
AcDbEntity
  8
metal
  6
ByLayer
 62
  256
370
   -1
100
AcDbHatch
 10
0
 20
0
 30
0
210
0
220
0
230
1
  2
SOLID
 70
    1
 71
    0
 91
    1
 92
    0
 93
    1
 72
    2
 10
54
 20
6.000000000000002
 40
0.5
 50
0
 51
360
 73
    1
 97
    0
 75
    0
 76
    1
 98
    0
  0
HATCH
  5
EB
100
AcDbEntity
  8
metal
  6
ByLayer
 62
  256
370
   -1
100
AcDbHatch
 10
0
 20
0
 30
0
210
0
220
0
230
1
  2
SOLID
 70
    1
 71
    0
 91
    1
 92
    0
 93
    1
 72
    2
 10
45
 20
6
 40
0.5
 50
0
 51
360
 73
    1
 97
    0
 75
    0
 76
    1
 98
    0
  0
HATCH
  5
EC
100
AcDbEntity
  8
metal
  6
ByLayer
 62
  256
370
   -1
100
AcDbHatch
 10
0
 20
0
 30
0
210
0
220
0
230
1
  2
SOLID
 70
    1
 71
    0
 91
    1
 92
    0
 93
    1
 72
    2
 10
34
 20
8
 40
0.5
 50
0
 51
360
 73
    1
 97
    0
 75
    0
 76
    1
 98
    0
  0
HATCH
  5
ED
100
AcDbEntity
  8
concreet
  6
ByLayer
 62
  256
370
   -1
100
AcDbHatch
 10
0
 20
0
 30
0
210
0
220
0
230
1
  2
gost_concrete
 70
    0
 71
    0
 91
    1
 92
    0
 93
    6
 72
    1
 10
43
 20
22
 11
56
 21
22
 72
    1
 10
56
 20
22
 11
56
 21
3.000000000000001
 72
    1
 10
56
 20
3.000000000000001
 11
47.5
 21
3.000000000000001
 72
    1
 10
47.5
 20
3.000000000000001
 11
47.5
 21
0
 72
    1
 10
47.5
 20
0
 11
43
 21
0
 72
    1
 10
43
 20
0
 11
43
 21
22
 97
    0
 75
    0
 76
    1
 52
4.71238898038469
 41
0.5
 77
    0
 78
    0
 98
    0
  0
HATCH
  5
EE
100
AcDbEntity
  8
fasad
  6
ByLayer
 62
  256
370
   -1
100
AcDbHatch
 10
0
 20
0
 30
0
210
0
220
0
230
1
  2
gost_stone
 70
    0
 71
    0
 91
    1
 92
    0
 93
    6
 72
    1
 10
56
 20
3
 11
56
 21
22
 72
    1
 10
56
 20
22
 11
60
 21
22
 72
    1
 10
60
 20
22
 11
60
 21
-3
 72
    1
 10
60
 20
-3
 11
47.5
 21
-3
 72
    1
 10
47.5
 20
-3
 11
47.5
 21
3
 72
    1
 10
47.5
 20
3
 11
56
 21
3
 97
    0
 75
    0
 76
    1
 52
3.141592653589793
 41
0.5
 77
    0
 78
    0
 98
    0
  0
HATCH
  5
EF
100
AcDbEntity
  8
fasad
  6
ByLayer
 62
  256
370
   50
100
AcDbHatch
 10
0
 20
0
 30
0
210
0
220
0
230
1
  2
gost_stone
 70
    0
 71
    0
 91
    1
 92
    0
 93
    8
 72
    1
 10
54.5
 20
30
 11
54
 21
31
 72
    1
 10
54
 20
31
 11
53
 21
29
 72
    1
 10
53
 20
29
 11
52.5
 21
30
 72
    1
 10
52.5
 20
30
 11
47.49999999999999
 21
30
 72
    1
 10
47.49999999999999
 20
30
 11
47.49999999999999
 21
22
 72
    1
 10
47.49999999999999
 20
22
 11
60
 21
22
 72
    1
 10
60
 20
22
 11
60
 21
30
 72
    1
 10
60
 20
30
 11
54.5
 21
30
 97
    0
 75
    0
 76
    1
 52
3.141592653589793
 41
0.5
 77
    0
 78
    0
 98
    0
  0
HATCH
  5
F0
100
AcDbEntity
  8
metal
  6
ByLayer
 62
  256
370
   -1
100
AcDbHatch
 10
0
 20
0
 30
0
210
0
220
0
230
1
  2
SOLID
 70
    1
 71
    0
 91
    1
 92
    0
 93
    1
 72
    2
 10
54
 20
19
 40
0.5
 50
0
 51
360
 73
    1
 97
    0
 75
    0
 76
    1
 98
    0
  0
HATCH
  5
F1
100
AcDbEntity
  8
metal
  6
ByLayer
 62
  256
370
   -1
100
AcDbHatch
 10
0
 20
0
 30
0
210
0
220
0
230
1
  2
SOLID
 70
    1
 71
    0
 91
    1
 92
    0
 93
    1
 72
    2
 10
45
 20
19
 40
0.5
 50
0
 51
360
 73
    1
 97
    0
 75
    0
 76
    1
 98
    0
  0
HATCH
  5
F2
100
AcDbEntity
  8
metal
  6
ByLayer
 62
  256
370
   -1
100
AcDbHatch
 10
0
 20
0
 30
0
210
0
220
0
230
1
  2
SOLID
 70
    1
 71
    0
 91
    1
 92
    0
 93
    1
 72
    2
 10
34
 20
21
 40
0.5
 50
0
 51
360
 73
    1
 97
    0
 75
    0
 76
    1
 98
    0
  0
MTEXT
  5
F3
100
AcDbEntity
  8
rozmir
  6
ByLayer
 62
  256
370
   -1
100
AcDbMText
 10
29.86111111111123
 20
73.33333333333333
 30
0
 40
5
 41
88.88888888888913
 71
    8
 72
    1
  1
Перемичка над воротами
  7
cyrillic_ii
210
0
220
0
230
1
 50
0
 73
    2
 44
1
  0
LWPOLYLINE
  5
F4
100
AcDbEntity
  8
fasad
  6
ByLayer
 62
  256
370
   13
100
AcDbPolyline
 90
    6
 70
    0
 43
0
 10
60
 20
-10
 10
54.5
 20
-10
 10
54
 20
-11
 10
53
 20
-9
 10
52.5
 20
-10
 10
47.49999999999999
 20
-10
  0
CIRCLE
  5
F5
100
AcDbEntity
  8
metal
  6
ByLayer
 62
  256
370
   -1
100
AcDbCircle
 10
54
 20
6.000000000000002
 40
0.5
  0
CIRCLE
  5
F6
100
AcDbEntity
  8
metal
  6
ByLayer
 62
  256
370
   -1
100
AcDbCircle
 10
45
 20
6
 40
0.5
  0
CIRCLE
  5
F7
100
AcDbEntity
  8
metal
  6
ByLayer
 62
  256
370
   -1
100
AcDbCircle
 10
34
 20
8
 40
0.5
  0
LINE
  5
F8
100
AcDbEntity
  8
wall
  6
ByLayer
 62
  256
370
   -1
100
AcDbLine
 10
43
 20
0
 11
43
 21
-10
  0
LINE
  5
F9
100
AcDbEntity
  8
wall
  6
ByLayer
 62
  256
370
   -1
100
AcDbLine
 10
13
 20
0
 11
13
 21
-10
  0
LWPOLYLINE
  5
FA
100
AcDbEntity
  8
wall
  6
ByLayer
 62
  256
370
   13
100
AcDbPolyline
 90
    6
 70
    0
 43
0
 10
43
 20
-10
 10
29.5
 20
-10
 10
29
 20
-11
 10
28
 20
-9
 10
27.5
 20
-10
 10
13
 20
-10
  0
LINE
  5
FB
100
AcDbEntity
  8
wall
  6
ByLayer
 62
  256
370
   -1
100
AcDbLine
 10
43
 20
25
 11
43
 21
30
  0
DIMENSION
  5
FC
100
AcDbEntity
  8
rozmir
  6
ByLayer
 62
  256
370
   -1
100
AcDbDimension
  2
*D1
 10
13
 20
-20
 30
0
 11
28
 21
-17
 31
0
 70
   32
 71
    5
 72
    0
  3
Standard
 53
0
210
0
220
0
230
1
100
AcDbAlignedDimension
 13
43
 23
-10
 33
0
 14
13
 24
-10
 34
0
 50
180
100
AcDbRotatedDimension
  0
DIMENSION
  5
FD
100
AcDbEntity
  8
rozmir
  6
ByLayer
 62
  256
370
   -1
100
AcDbDimension
  2
*D2
 10
43
 20
40
 30
0
 11
45.24999999999999
 21
43
 31
0
 70
   32
 71
    5
 72
    0
  3
Standard
 53
0
210
0
220
0
230
1
100
AcDbAlignedDimension
 13
47.49999999999999
 23
25
 33
0
 14
43
 24
25
 34
0
 50
180
100
AcDbRotatedDimension
  0
DIMENSION
  5
FE
100
AcDbEntity
  8
rozmir
  6
ByLayer
 62
  256
370
   -1
100
AcDbDimension
  2
*D3
 10
43
 20
50
 30
0
 11
49.5
 21
53
 31
0
 70
   32
 71
    5
 72
    0
  3
Standard
 53
0
210
0
220
0
230
1
100
AcDbAlignedDimension
 13
56
 23
25
 33
0
 14
43
 24
25
 34
0
 50
180
100
AcDbRotatedDimension
  0
MTEXT
  5
FF
100
AcDbEntity
  8
rozmir
  6
ByLayer
 62
  256
370
   -1
100
AcDbMText
 10
-1
 20
-26.75
 30
0
 40
4
 41
59.6666666666672
 71
    6
 72
    1
  1
Блок AEROC 30×20 см
  7
cyrillic_ii
210
0
220
0
230
1
 50
360
 73
    2
 44
1
  0
MTEXT
  5
100
100
AcDbEntity
  8
rozmir
  6
ByLayer
 62
  256
370
   -1
100
AcDbMText
 10
-1
 20
-16.75
 30
0
 40
4
 41
66.33333333333412
 71
    6
 72
    1
  1
U-Блок AEROC 30×25 см
  7
cyrillic_ii
210
0
220
0
230
1
 50
360
 73
    2
 44
1
  0
LEADER
  5
101
100
AcDbEntity
  8
rozmir
  6
ByLayer
 62
  256
370
   -1
100
AcDbLeader
  3
Standard
 71
    1
 72
    0
 73
    3
 74
    0
 75
    0
 40
1
 41
10
 76
3
 76
3
 10
16
 20
3
 30
0
 10
0
 20
-20
 30
0
 10
-68
 20
-20
 30
0
  0
LEADER
  5
102
100
AcDbEntity
  8
rozmir
  6
ByLayer
 62
  256
370
   -1
100
AcDbLeader
  3
Standard
 71
    1
 72
    0
 73
    3
 74
    0
 75
    0
 40
1
 41
10
 76
3
 76
3
 10
15
 20
-8
 30
0
 10
0
 20
-30
 30
0
 10
-62
 20
-30
 30
0
  0
MTEXT
  5
103
100
AcDbEntity
  8
rozmir
  6
ByLayer
 62
  256
370
   -1
100
AcDbMText
 10
23.83333333333348
 20
63.25
 30
0
 40
4
 41
49.55555555555573
 71
    6
 72
    1
  1
Арматура %%C10 мм
  7
cyrillic_ii
210
0
220
0
230
1
 50
360
 73
    2
 44
1
  0
MTEXT
  5
104
100
AcDbEntity
  8
rozmir
  6
ByLayer
 62
  256
370
   -1
100
AcDbMText
 10
18.83333333333348
 20
53.25
 30
0
 40
4
 41
15.55555555555604
 71
    6
 72
    1
  1
Бетон
  7
cyrillic_ii
210
0
220
0
230
1
 50
360
 73
    2
 44
1
  0
MTEXT
  5
105
100
AcDbEntity
  8
rozmir
  6
ByLayer
 62
  256
370
   -1
100
AcDbMText
 10
125.8333333333335
 20
-16.75
 30
0
 40
4
 41
45.88888888888889
 71
    6
 72
    1
  1
Фасадна кладка
  7
cyrillic_ii
210
0
220
0
230
1
 50
360
 73
    2
 44
1
  0
MTEXT
  5
106
100
AcDbEntity
  8
rozmir
  6
ByLayer
 62
  256
370
   -1
100
AcDbMText
 10
125.8333333333335
 20
63.25
 30
0
 40
4
 41
45.88888888888889
 71
    6
 72
    1
  1
Фасадна кладка
  7
cyrillic_ii
210
0
220
0
230
1
 50
360
 73
    2
 44
1
  0
MTEXT
  5
107
100
AcDbEntity
  8
rozmir
  6
ByLayer
 62
  256
370
   -1
100
AcDbMText
 10
95.83333333333348
 20
53.25
 30
0
 40
4
 41
15.55555555555604
 71
    6
 72
    1
  1
Бетон
  7
cyrillic_ii
210
0
220
0
230
1
 50
360
 73
    2
 44
1
  0
LEADER
  5
108
100
AcDbEntity
  8
rozmir
  6
ByLayer
 62
  256
370
   -1
100
AcDbLeader
  3
Standard
 71
    1
 72
    0
 73
    3
 74
    0
 75
    0
 40
1
 41
10
 76
3
 76
3
 10
57
 20
29
 30
0
 10
80
 20
60
 30
0
 10
127
 20
60
 30
0
  0
LEADER
  5
109
100
AcDbEntity
  8
rozmir
  6
ByLayer
 62
  256
370
   -1
100
AcDbLeader
  3
Standard
 71
    1
 72
    0
 73
    3
 74
    0
 75
    0
 40
1
 41
10
 76
3
 76
3
 10
58
 20
-7
 30
0
 10
80
 20
-20
 30
0
 10
127
 20
-20
 30
0
  0
MTEXT
  5
10A
100
AcDbEntity
  8
rozmir
  6
ByLayer
 62
  256
370
   -1
100
AcDbMText
 10
122.8333333333335
 20
37.25
 30
0
 40
4
 41
42.55555555555555
 71
    6
 72
    1
  1
Фасадна цегла\Pз вирiзом
  7
cyrillic_ii
210
0
220
0
230
1
 50
360
 73
    2
 44
1
  0
LEADER
  5
10B
100
AcDbEntity
  8
rozmir
  6
ByLayer
 62
  256
370
   -1
100
AcDbLeader
  3
Standard
 71
    1
 72
    0
 73
    3
 74
    0
 75
    0
 40
1
 41
10
 76
3
 76
3
 10
58
 20
16
 30
0
 10
80
 20
30
 30
0
 10
124
 20
30
 30
0
  0
LINE
  5
10C
100
AcDbEntity
  8
fasad
  6
ByLayer
 62
  256
370
   -1
100
AcDbLine
 10
60
 20
-3
 11
60
 21
-10
  0
LINE
  5
10D
100
AcDbEntity
  8
fasad
  6
ByLayer
 62
  256
370
   -1
100
AcDbLine
 10
47.49999999999999
 20
-3
 11
47.49999999999999
 21
-10
  0
LINE
  5
10E
100
AcDbEntity
  8
fasad
  6
ByLayer
 62
  256
370
   -1
100
AcDbLine
 10
60
 20
22
 11
60
 21
30
  0
LINE
  5
10F
100
AcDbEntity
  8
fasad
  6
ByLayer
 62
  256
370
   -1
100
AcDbLine
 10
47.49999999999999
 20
22
 11
47.49999999999999
 21
30
  0
LWPOLYLINE
  5
110
100
AcDbEntity
  8
fasad
  6
CONTINUOUS
 62
    3
370
   13
100
AcDbPolyline
 90
    8
 70
    1
 43
0
 10
60
 20
30
 10
54.5
 20
30
 10
54
 20
31
 10
53
 20
29
 10
52.5
 20
30
 10
47.49999999999999
 20
30
 10
47.49999999999999
 20
22
 10
60
 20
22
  0
LWPOLYLINE
  5
111
100
AcDbEntity
  8
concreet
  6
CONTINUOUS
 62
    6
370
   50
100
AcDbPolyline
 90
    6
 70
    1
 43
0
 10
47.5
 20
0
 10
43
 20
0
 10
43
 20
22
 10
56
 20
22
 10
56
 20
3.000000000000001
 10
47.5
 20
3.000000000000001
  0
LWPOLYLINE
  5
112
100
AcDbEntity
  8
fasad
  6
ByLayer
 62
  256
370
   -1
100
AcDbPolyline
 90
    7
 70
    0
 43
0
 10
56
 20
22
 10
60
 20
22
 10
60
 20
-3
 10
47.5
 20
-3
 10
47.5
 20
3
 10
56
 20
3
 10
56
 20
22
  0
CIRCLE
  5
113
100
AcDbEntity
  8
metal
  6
ByLayer
 62
  256
370
   -1
100
AcDbCircle
 10
34
 20
21
 40
0.5
  0
CIRCLE
  5
114
100
AcDbEntity
  8
metal
  6
ByLayer
 62
  256
370
   -1
100
AcDbCircle
 10
54
 20
19
 40
0.5
  0
CIRCLE
  5
115
100
AcDbEntity
  8
metal
  6
ByLayer
 62
  256
370
   -1
100
AcDbCircle
 10
45
 20
19
 40
0.5
  0
LEADER
  5
116
100
AcDbEntity
  8
rozmir
  6
ByLayer
 62
  256
370
   -1
100
AcDbLeader
  3
Standard
 71
    1
 72
    0
 73
    3
 74
    0
 75
    0
 40
1
 41
10
 76
3
 76
3
 10
38
 20
20
 30
0
 10
25
 20
60
 30
0
 10
-26
 20
60
 30
0
  0
LEADER
  5
117
100
AcDbEntity
  8
rozmir
  6
ByLayer
 62
  256
370
   -1
100
AcDbLeader
  3
Standard
 71
    1
 72
    0
 73
    3
 74
    0
 75
    0
 40
1
 41
10
 76
3
 76
3
 10
48
 20
15
 30
0
 10
80
 20
50
 30
0
 10
97
 20
50
 30
0
  0
LEADER
  5
118
100
AcDbEntity
  8
rozmir
  6
ByLayer
 62
  256
370
   -1
100
AcDbLeader
  3
Standard
 71
    1
 72
    0
 73
    3
 74
    0
 75
    0
 40
1
 41
10
 76
3
 76
3
 10
28
 20
16
 30
0
 10
20
 20
50
 30
0
 10
2
 20
50
 30
0
  0
DIMENSION
  5
119
100
AcDbEntity
  8
rozmir
  6
ByLayer
 62
  256
370
   -1
100
AcDbDimension
  2
*D12
 10
56
 20
-20
 30
0
 11
58
 21
-17
 31
0
 70
   32
 71
    5
 72
    0
  3
Standard
 53
0
210
0
220
0
230
1
100
AcDbAlignedDimension
 13
60
 23
-3
 33
0
 14
56
 24
4
 34
0
 50
180
100
AcDbRotatedDimension
  0
DIMENSION
  5
11A
100
AcDbEntity
  8
rozmir
  6
ByLayer
 62
  256
370
   -1
100
AcDbDimension
  2
*D13
 10
47.5
 20
-30
 30
0
 11
53.75
 21
-27
 31
0
 70
   32
 71
    5
 72
    0
  3
Standard
 53
0
210
0
220
0
230
1
100
AcDbAlignedDimension
 13
60
 23
-3
 33
0
 14
47.5
 24
0
 34
0
 50
180
100
AcDbRotatedDimension
  0
DIMENSION
  5
11B
100
AcDbEntity
  8
rozmir
  6
ByLayer
 62
  256
370
   -1
100
AcDbDimension
  2
*D14
 10
90
 20
21
 30
0
 11
93
 21
9.500000000000002
 31
0
 70
   32
 71
    5
 72
    0
  3
Standard
 53
0
210
0
220
0
230
1
100
AcDbAlignedDimension
 13
60
 23
-3
 33
0
 14
60
 24
22
 34
0
 50
90.00000000000001
100
AcDbRotatedDimension
  0
DIMENSION
  5
11C
100
AcDbEntity
  8
rozmir
  6
ByLayer
 62
  256
370
   -1
100
AcDbDimension
  2
*D15
 10
80
 20
5
 30
0
 11
83
 21
5.20784379955919e-16
 31
0
 70
   32
 71
    5
 72
    0
  3
Standard
 53
0
210
0
220
0
230
1
100
AcDbAlignedDimension
 13
60
 23
-3
 33
0
 14
56
 24
3.000000000000001
 34
0
 50
90.00000000000001
100
AcDbRotatedDimension
  0
DIMENSION
  5
11D
100
AcDbEntity
  8
rozmir
  6
ByLayer
 62
  256
370
   -1
100
AcDbDimension
  2
*D16
 10
70
 20
-3.000000000000001
 30
0
 11
73
 21
-1.499999999999998
 31
0
 70
   32
 71
    5
 72
    0
  3
Standard
 53
0
210
0
220
0
230
1
100
AcDbAlignedDimension
 13
47.5
 23
0
 33
0
 14
60
 24
-3
 34
0
 50
90.00000000000001
100
AcDbRotatedDimension
  0
DIMENSION
  5
11E
100
AcDbEntity
  8
rozmir
  6
ByLayer
 62
  256
370
   -1
100
AcDbDimension
  2
*D17
 10
-8
 20
2.571758278209442e-15
 30
0
 11
-11
 21
12.5
 31
0
 70
   32
 71
    5
 72
    0
  3
Standard
 53
0
210
0
220
0
230
1
100
AcDbAlignedDimension
 13
13
 23
25
 33
0
 14
13
 24
0
 34
0
 50
90
100
AcDbRotatedDimension
  0
LWPOLYLINE
  5
11F
100
AcDbEntity
  8
metal
  6
DASHED2
 62
  256
370
   -1
100
AcDbPolyline
 90
    4
 70
    1
 43
0
 10
56
 20
7.5
 10
20
 20
7.5
 10
20
 20
6.5
 10
56
 20
6.5
  0
CIRCLE
  5
120
100
AcDbEntity
  8
metal
  6
ByLayer
 62
  256
370
   -1
100
AcDbCircle
 10
21
 20
8
 40
0.5
  0
LWPOLYLINE
  5
121
100
AcDbEntity
  8
concreet
  6
ByLayer
 62
  256
370
   -1
100
AcDbPolyline
 90
    5
 70
    0
 43
0
 10
36
 20
25
 10
35
 20
6
 10
20
 20
6
 10
19
 20
25
 10
36
 20
25
  0
LWPOLYLINE
  5
122
100
AcDbEntity
  8
wall
  6
CONTINUOUS
 62
   56
420
8421376
370
   50
100
AcDbPolyline
 90
    9
 70
    0
 43
0
 10
43
 20
25
 10
43
 20
0
 10
13
 20
0
 10
13
 20
25
 10
19
 20
25
 10
20
 20
6
 10
35
 20
6
 10
36
 20
25
 10
43
 20
25
  0
LWPOLYLINE
  5
123
100
AcDbEntity
  8
metal
  6
DASHED2
 62
  256
370
   -1
100
AcDbPolyline
 90
    4
 70
    1
 43
0
 10
56
 20
20.5
 10
20
 20
20.5
 10
20
 20
19.5
 10
56
 20
19.5
  0
CIRCLE
  5
124
100
AcDbEntity
  8
metal
  6
ByLayer
 62
  256
370
   -1
100
AcDbCircle
 10
21
 20
21
 40
0.5
  0
DIMENSION
  5
125
100
AcDbEntity
  8
rozmir
  6
ByLayer
 62
  256
370
   -1
100
AcDbDimension
  2
*D18
 10
0
 20
25
 30
0
 11
-3
 21
22.25
 31
0
 70
   32
 71
    5
 72
    0
  3
Standard
 53
0
210
0
220
0
230
1
100
AcDbAlignedDimension
 13
20
 23
19.5
 33
0
 14
19
 24
25
 34
0
 50
90.00000000000001
100
AcDbRotatedDimension
  0
DIMENSION
  5
126
100
AcDbEntity
  8
rozmir
  6
ByLayer
 62
  256
370
   -1
100
AcDbDimension
  2
*D19
 10
0
 20
-1.960672839908942e-15
 30
0
 11
-3
 21
3.749999999999998
 31
0
 70
   32
 71
    5
 72
    0
  3
Standard
 53
0
210
0
220
0
230
1
100
AcDbAlignedDimension
 13
20
 23
7.5
 33
0
 14
13
 24
0
 34
0
 50
90.00000000000001
100
AcDbRotatedDimension
  0
LINE
  5
127
100
AcDbEntity
  8
rozmir
  6
ByLayer
 62
  256
370
   -1
100
AcDbLine
 10
-16
 20
74
 11
76
 21
74
  0
MTEXT
  5
128
100
AcDbEntity
  8
rozmir
  6
ByLayer
 62
  256
370
   -1
100
AcDbMText
 10
125.8333333333335
 20
-29.75
 30
0
 40
4
 41
18.55555555555599
 71
    6
 72
    1
  1
Стр. 16
  7
cyrillic_ii
210
0
220
0
230
1
 50
360
 73
    2
 44
1
  0
ENDSEC
  0
SECTION
  2
OBJECTS
  0
DICTIONARY
  5
C
330
0
100
AcDbDictionary
281
    1
  3
ACAD_GROUP
350
D
  0
DICTIONARY
  5
D
330
C
100
AcDbDictionary
281
    1
  0
ENDSEC
  0
EOF
