999
dxfrw 0.6.3
  0
SECTION
  2
HEADER
  9
$ACADVER
  1
AC1021
  9
$DWGCODEPAGE
  3
ANSI_1252
  9
$INSBASE
 10
0
 20
0
 30
0
  9
$EXTMIN
 10
-7.433333333333333
 20
-14
 30
0
  9
$EXTMAX
 10
54.4
 20
32.50039601027073
 30
0
  9
$LIMMIN
 10
0
 20
0
  9
$LIMMAX
 10
420
 20
297
  9
$ORTHOMODE
 70
    0
  9
$REGENMODE
 70
    1
  9
$FILLMODE
 70
    1
  9
$QTEXTMODE
 70
    0
  9
$MIRRTEXT
 70
    0
  9
$LTSCALE
 40
1
  9
$ATTMODE
 70
    0
  9
$TEXTSIZE
 40
2.5
  9
$TRACEWID
 40
15.68
  9
$TEXTSTYLE
  7
STANDARD
  9
$CLAYER
  8
body
  9
$CELTYPE
  6
BYLAYER
  9
$CECOLOR
 62
  256
  9
$CELTSCALE
 40
1
  9
$DISPSILH
 70
    0
  9
$DIMSCALE
 40
1
  9
$DIMASZ
 40
1
  9
$DIMEXO
 40
1
  9
$DIMDLI
 40
3.75
  9
$DIMRND
 40
0
  9
$DIMDLE
 40
0
  9
$DIMEXE
 40
0.5
  9
$DIMTP
 40
0
  9
$DIMTM
 40
0
  9
$DIMTXT
 40
1
  9
$DIMCEN
 40
2.5
  9
$DIMTSZ
 40
0
  9
$DIMTOL
 70
    0
  9
$DIMLIM
 70
    0
  9
$DIMTIH
 70
    0
  9
$DIMTOH
 70
    0
  9
$DIMSE1
 70
    0
  9
$DIMSE2
 70
    0
  9
$DIMTAD
 70
    1
  9
$DIMZIN
 70
    8
  9
$DIMBLK
  1

  9
$DIMASO
 70
    1
  9
$DIMSHO
 70
    1
  9
$DIMPOST
  1

  9
$DIMAPOST
  1

  9
$DIMALT
 70
    0
  9
$DIMALTD
 70
    3
  9
$DIMALTF
 40
0.03937
  9
$DIMLFAC
 40
10
  9
$DIMTOFL
 70
    1
  9
$DIMTVP
 40
0
  9
$DIMTIX
 70
    0
  9
$DIMSOXD
 70
    0
  9
$DIMSAH
 70
    0
  9
$DIMBLK1
  1

  9
$DIMBLK2
  1

  9
$DIMSTYLE
  2
STANDARD
  9
$DIMCLRD
 70
    0
  9
$DIMCLRE
 70
    0
  9
$DIMCLRT
 70
    0
  9
$DIMTFAC
 40
1
  9
$DIMGAP
 40
0.5
  9
$DIMJUST
 70
    0
  9
$DIMSD1
 70
    0
  9
$DIMSD2
 70
    0
  9
$DIMTOLJ
 70
    0
  9
$DIMTZIN
 70
    8
  9
$DIMALTZ
 70
    0
  9
$DIMALTTZ
 70
    0
  9
$DIMUPT
 70
    0
  9
$DIMDEC
 70
    1
  9
$DIMTDEC
 70
    2
  9
$DIMALTU
 70
    2
  9
$DIMALTTD
 70
    3
  9
$DIMTXSTY
  7
standard
  9
$DIMAUNIT
 70
    0
  9
$DIMADEC
 70
    0
  9
$DIMALTRND
 40
0
  9
$DIMAZIN
 70
    0
  9
$DIMDSEP
 70
   44
  9
$DIMATFIT
 70
    3
  9
$DIMFRAC
 70
    0
  9
$DIMLDRBLK
  1
STANDARD
  9
$DIMLUNIT
 70
    2
  9
$DIMLWD
 70
   -2
  9
$DIMLWE
 70
   -2
  9
$DIMTMOVE
 70
    0
  9
$DIMFXL
 40
1
  9
$DIMFXLON
 70
    0
  9
$DIMJOGANG
 40
0.7854
  9
$DIMTFILL
 70
    0
  9
$DIMTFILLCLR
 70
    0
  9
$DIMARCSYM
 70
    0
  9
$DIMLTYPE
  6

  9
$DIMLTEX1
  6

  9
$DIMLTEX2
  6

  9
$LUNITS
 70
    2
  9
$LUPREC
 70
    2
  9
$SKETCHINC
 40
1
  9
$FILLETRAD
 40
0
  9
$AUNITS
 70
    0
  9
$AUPREC
 70
    2
  9
$MENU
  1
.
  9
$ELEVATION
 40
0
  9
$PELEVATION
 40
0
  9
$THICKNESS
 40
0
  9
$LIMCHECK
 70
    0
  9
$CHAMFERA
 40
0
  9
$CHAMFERB
 40
0
  9
$CHAMFERC
 40
0
  9
$CHAMFERD
 40
0
  9
$SKPOLY
 70
    0
  9
$USRTIMER
 70
    1
  9
$ANGBASE
 50
0
  9
$ANGDIR
 70
    0
  9
$PDMODE
 70
   34
  9
$PDSIZE
 40
0
  9
$PLINEWID
 40
0
  9
$SPLFRAME
 70
    0
  9
$SPLINETYPE
 70
    2
  9
$SPLINESEGS
 70
    8
  9
$HANDSEED
  5
20000
  9
$SURFTAB1
 70
    6
  9
$SURFTAB2
 70
    6
  9
$SURFTYPE
 70
    6
  9
$SURFU
 70
    6
  9
$SURFV
 70
    6
  9
$UCSBASE
  2

  9
$UCSNAME
  2

  9
$UCSORG
 10
0
 20
0
 30
0
  9
$UCSXDIR
 10
1
 20
0
 30
0
  9
$UCSYDIR
 10
0
 20
1
 30
0
  9
$UCSORTHOREF
  2

  9
$UCSORTHOVIEW
 70
    0
  9
$UCSORGTOP
 10
0
 20
0
 30
0
  9
$UCSORGBOTTOM
 10
0
 20
0
 30
0
  9
$UCSORGLEFT
 10
0
 20
0
 30
0
  9
$UCSORGRIGHT
 10
0
 20
0
 30
0
  9
$UCSORGFRONT
 10
0
 20
0
 30
0
  9
$UCSORGBACK
 10
0
 20
0
 30
0
  9
$PUCSBASE
  2

  9
$PUCSNAME
  2

  9
$PUCSORG
 10
0
 20
0
 30
0
  9
$PUCSXDIR
 10
1
 20
0
 30
0
  9
$PUCSYDIR
 10
0
 20
1
 30
0
  9
$PUCSORTHOREF
  2

  9
$PUCSORTHOVIEW
 70
    0
  9
$PUCSORGTOP
 10
0
 20
0
 30
0
  9
$PUCSORGBOTTOM
 10
0
 20
0
 30
0
  9
$PUCSORGLEFT
 10
0
 20
0
 30
0
  9
$PUCSORGRIGHT
 10
0
 20
0
 30
0
  9
$PUCSORGFRONT
 10
0
 20
0
 30
0
  9
$PUCSORGBACK
 10
0
 20
0
 30
0
  9
$USERI1
 70
    0
  9
$USERI2
 70
    0
  9
$USERI3
 70
    0
  9
$USERI4
 70
    0
  9
$USERI5
 70
    0
  9
$USERR1
 40
0
  9
$USERR2
 40
0
  9
$USERR3
 40
0
  9
$USERR4
 40
0
  9
$USERR5
 40
0
  9
$WORLDVIEW
 70
    1
  9
$SHADEDGE
 70
    3
  9
$SHADEDIF
 70
   70
  9
$TILEMODE
 70
    1
  9
$MAXACTVP
 70
   64
  9
$PINSBASE
 10
3.668500797448166
 20
9.171386932938413
 30
0
  9
$PLIMCHECK
 70
    0
  9
$PEXTMIN
 10
0
 20
0
 30
0
  9
$PEXTMAX
 10
0
 20
0
 30
0
  9
$GRIDMODE
 70
    1
  9
$SNAPSTYLE
 70
    0
  9
$GRIDUNIT
 10
0
 20
0
  9
$PLIMMIN
 10
0
 20
0
  9
$PLIMMAX
 10
29.7
 20
21
  9
$UNITMODE
 70
    0
  9
$VISRETAIN
 70
    1
  9
$PLINEGEN
 70
    0
  9
$PSLTSCALE
 70
    1
  9
$TREEDEPTH
 70
 3020
  9
$CMLSTYLE
  2
Standard
  9
$CMLJUST
 70
    0
  9
$CMLSCALE
 40
20
  9
$PROXYGRAPHICS
 70
    1
  9
$MEASUREMENT
 70
    1
  9
$CELWEIGHT
370
   -1
  9
$ENDCAPS
280
    0
  9
$JOINSTYLE
280
    0
  9
$LWDISPLAY
290
    0
  9
$INSUNITS
 70
    5
  9
$HYPERLINKBASE
  1

  9
$STYLESHEET
  1

  9
$XEDIT
290
    1
  9
$CEPSNTYPE
380
    0
  9
$PSTYLEMODE
290
    1
  9
$EXTNAMES
290
    1
  9
$PSVPSCALE
 40
0.3253587894050164
  9
$OLESTARTUP
290
    0
  9
$SORTENTS
280
  127
  9
$INDEXCTL
280
    0
  9
$HIDETEXT
280
    1
  9
$XCLIPFRAME
290
    0
  9
$HALOGAP
280
    0
  9
$OBSCOLOR
 70
  257
  9
$OBSLTYPE
280
    0
  9
$INTERSECTIONDISPLAY
280
    0
  9
$INTERSECTIONCOLOR
 70
  257
  9
$DIMASSOC
280
    1
  9
$PROJECTNAME
  1

  9
$CAMERADISPLAY
290
    0
  9
$LENSLENGTH
 40
50
  9
$CAMERAHEIGHT
 40
0
  9
$STEPSPERSEC
 40
2
  9
$STEPSIZE
 40
50
  9
$3DDWFPREC
 40
2
  9
$PSOLWIDTH
 40
5
  9
$PSOLHEIGHT
 40
80
  9
$LOFTANG1
 40
1.570796326794897
  9
$LOFTANG2
 40
1.570796326794897
  9
$LOFTMAG1
 40
0
  9
$LOFTMAG2
 40
0
  9
$LOFTPARAM
 70
    7
  9
$LOFTNORMALS
280
    1
  9
$LATITUDE
 40
1
  9
$LONGITUDE
 40
1
  9
$NORTHDIRECTION
 40
0
  9
$TIMEZONE
 70
-8000
  9
$LIGHTGLYPHDISPLAY
280
    1
  9
$TILEMODELIGHTSYNCH
280
    1
  9
$SOLIDHIST
280
    1
  9
$SHOWHIST
280
    1
  9
$DWFFRAME
280
    2
  9
$DGNFRAME
280
    0
  9
$REALWORLDSCALE
290
    1
  9
$INTERFERECOLOR
 62
    1
  9
$CSHADOW
280
    0
  9
$SHADOWPLANELOCATION
 40
0
  0
ENDSEC
  0
SECTION
  2
CLASSES
  0
ENDSEC
  0
SECTION
  2
TABLES
  0
TABLE
  2
VPORT
  5
8
330
0
100
AcDbSymbolTable
 70
    1
  0
VPORT
  5
31
330
2
100
AcDbSymbolTableRecord
100
AcDbViewportTableRecord
  2
*ACTIVE
 70
    0
 10
0
 20
0
 11
1
 21
1
 12
32.46170502431281
 22
16.69585647225911
 13
0
 23
0
 14
10
 24
10
 15
10
 25
10
 16
0
 26
0
 36
1
 17
0
 27
0
 37
0
 40
48.27183966780485
 41
1.715596330275229
 42
50
 43
0
 44
0
 50
0
 51
0
 71
    0
 72
  100
 73
    1
 74
    3
 75
    0
 76
    1
 77
    0
 78
    0
281
    0
 65
    1
110
0
120
0
130
0
111
1
121
0
131
0
112
0
122
1
132
0
 79
    0
146
0
348
10020
 60
    7
 61
    5
292
1
282
    1
141
0
142
0
 63
  250
421
3358443
  0
ENDTAB
  0
TABLE
  2
LTYPE
  5
5
330
0
100
AcDbSymbolTable
 70
    4
  0
LTYPE
  5
14
330
5
100
AcDbSymbolTableRecord
100
AcDbLinetypeTableRecord
  2
ByBlock
 70
    0
  3

 72
   65
 73
    0
 40
0
  0
LTYPE
  5
15
330
5
100
AcDbSymbolTableRecord
100
AcDbLinetypeTableRecord
  2
ByLayer
 70
    0
  3

 72
   65
 73
    0
 40
0
  0
LTYPE
  5
16
330
5
100
AcDbSymbolTableRecord
100
AcDbLinetypeTableRecord
  2
Continuous
 70
    0
  3
Solid line
 72
   65
 73
    0
 40
0
  0
LTYPE
  5
32
330
5
100
AcDbSymbolTableRecord
100
AcDbLinetypeTableRecord
  2
DOT
 70
    0
  3
Dot . . . . . . . . . . . . . . . . . . . . . .
 72
   65
 73
    2
 40
6.35
 49
0
 74
    0
 49
-6.35
 74
    0
  0
LTYPE
  5
33
330
5
100
AcDbSymbolTableRecord
100
AcDbLinetypeTableRecord
  2
DOTTINY
 70
    0
  3
Dot (.15x) .....................................
 72
   65
 73
    2
 40
0.9525
 49
0
 74
    0
 49
-0.9525
 74
    0
  0
LTYPE
  5
34
330
5
100
AcDbSymbolTableRecord
100
AcDbLinetypeTableRecord
  2
DOT2
 70
    0
  3
Dot (.5x) .....................................
 72
   65
 73
    2
 40
3.175
 49
0
 74
    0
 49
-3.175
 74
    0
  0
LTYPE
  5
35
330
5
100
AcDbSymbolTableRecord
100
AcDbLinetypeTableRecord
  2
DOTX2
 70
    0
  3
Dot (2x) .  .  .  .  .  .  .  .  .  .  .  .  .
 72
   65
 73
    2
 40
12.7
 49
0
 74
    0
 49
-12.7
 74
    0
  0
LTYPE
  5
36
330
5
100
AcDbSymbolTableRecord
100
AcDbLinetypeTableRecord
  2
DASHED
 70
    0
  3
Dashed _ _ _ _ _ _ _ _ _ _ _ _ _ _ _ _ _
 72
   65
 73
    2
 40
19.05
 49
12.7
 74
    0
 49
-6.35
 74
    0
  0
LTYPE
  5
37
330
5
100
AcDbSymbolTableRecord
100
AcDbLinetypeTableRecord
  2
DASHEDTINY
 70
    0
  3
Dashed (.15x) _ _ _ _ _ _ _ _ _ _ _ _ _ _ _ _ _
 72
   65
 73
    2
 40
2.8575
 49
1.905
 74
    0
 49
-0.9525
 74
    0
  0
LTYPE
  5
38
330
5
100
AcDbSymbolTableRecord
100
AcDbLinetypeTableRecord
  2
DASHED2
 70
    0
  3
Dashed (.5x) _ _ _ _ _ _ _ _ _ _ _ _ _ _ _ _ _
 72
   65
 73
    2
 40
9.524999999999999
 49
6.35
 74
    0
 49
-3.175
 74
    0
  0
LTYPE
  5
39
330
5
100
AcDbSymbolTableRecord
100
AcDbLinetypeTableRecord
  2
DASHEDX2
 70
    0
  3
Dashed (2x) ____  ____  ____  ____  ____  ___
 72
   65
 73
    2
 40
38.09999999999999
 49
25.4
 74
    0
 49
-12.7
 74
    0
  0
LTYPE
  5
3A
330
5
100
AcDbSymbolTableRecord
100
AcDbLinetypeTableRecord
  2
DASHDOT
 70
    0
  3
Dash dot __ . __ . __ . __ . __ . __ . __ . __
 72
   65
 73
    4
 40
25.4
 49
12.7
 74
    0
 49
-6.35
 74
    0
 49
0
 74
    0
 49
-6.35
 74
    0
  0
LTYPE
  5
3B
330
5
100
AcDbSymbolTableRecord
100
AcDbLinetypeTableRecord
  2
DASHDOTTINY
 70
    0
  3
Dash dot (.15x) _._._._._._._._._._._._._._._.
 72
   65
 73
    4
 40
3.81
 49
1.905
 74
    0
 49
-0.9525
 74
    0
 49
0
 74
    0
 49
-0.9525
 74
    0
  0
LTYPE
  5
3C
330
5
100
AcDbSymbolTableRecord
100
AcDbLinetypeTableRecord
  2
DASHDOT2
 70
    0
  3
Dash dot (.5x) _._._._._._._._._._._._._._._.
 72
   65
 73
    4
 40
12.7
 49
6.35
 74
    0
 49
-3.175
 74
    0
 49
0
 74
    0
 49
-3.175
 74
    0
  0
LTYPE
  5
3D
330
5
100
AcDbSymbolTableRecord
100
AcDbLinetypeTableRecord
  2
DASHDOTX2
 70
    0
  3
Dash dot (2x) ____  .  ____  .  ____  .  ___
 72
   65
 73
    4
 40
50.8
 49
25.4
 74
    0
 49
-12.7
 74
    0
 49
0
 74
    0
 49
-12.7
 74
    0
  0
LTYPE
  5
3E
330
5
100
AcDbSymbolTableRecord
100
AcDbLinetypeTableRecord
  2
DIVIDE
 70
    0
  3
Divide ____ . . ____ . . ____ . . ____ . . ____
 72
   65
 73
    6
 40
31.75
 49
12.7
 74
    0
 49
-6.35
 74
    0
 49
0
 74
    0
 49
-6.35
 74
    0
 49
0
 74
    0
 49
-6.35
 74
    0
  0
LTYPE
  5
3F
330
5
100
AcDbSymbolTableRecord
100
AcDbLinetypeTableRecord
  2
DIVIDETINY
 70
    0
  3
Divide (.15x) __..__..__..__..__..__..__..__.._
 72
   65
 73
    6
 40
4.7625
 49
1.905
 74
    0
 49
-0.9525
 74
    0
 49
0
 74
    0
 49
-0.9525
 74
    0
 49
0
 74
    0
 49
-0.9525
 74
    0
  0
LTYPE
  5
40
330
5
100
AcDbSymbolTableRecord
100
AcDbLinetypeTableRecord
  2
DIVIDE2
 70
    0
  3
Divide (.5x) __..__..__..__..__..__..__..__.._
 72
   65
 73
    6
 40
15.875
 49
6.35
 74
    0
 49
-3.175
 74
    0
 49
0
 74
    0
 49
-3.175
 74
    0
 49
0
 74
    0
 49
-3.175
 74
    0
  0
LTYPE
  5
41
330
5
100
AcDbSymbolTableRecord
100
AcDbLinetypeTableRecord
  2
DIVIDEX2
 70
    0
  3
Divide (2x) ________  .  .  ________  .  .  _
 72
   65
 73
    6
 40
63.5
 49
25.4
 74
    0
 49
-12.7
 74
    0
 49
0
 74
    0
 49
-12.7
 74
    0
 49
0
 74
    0
 49
-12.7
 74
    0
  0
LTYPE
  5
42
330
5
100
AcDbSymbolTableRecord
100
AcDbLinetypeTableRecord
  2
BORDER
 70
    0
  3
Border __ __ . __ __ . __ __ . __ __ . __ __ .
 72
   65
 73
    6
 40
44.45
 49
12.7
 74
    0
 49
-6.35
 74
    0
 49
12.7
 74
    0
 49
-6.35
 74
    0
 49
0
 74
    0
 49
-6.35
 74
    0
  0
LTYPE
  5
43
330
5
100
AcDbSymbolTableRecord
100
AcDbLinetypeTableRecord
  2
BORDERTINY
 70
    0
  3
Border (.15x) __.__.__.__.__.__.__.__.__.__.__.
 72
   65
 73
    6
 40
6.6675
 49
1.905
 74
    0
 49
-0.9525
 74
    0
 49
1.905
 74
    0
 49
-0.9525
 74
    0
 49
0
 74
    0
 49
-0.9525
 74
    0
  0
LTYPE
  5
44
330
5
100
AcDbSymbolTableRecord
100
AcDbLinetypeTableRecord
  2
BORDER2
 70
    0
  3
Border (.5x) __.__.__.__.__.__.__.__.__.__.__.
 72
   65
 73
    6
 40
22.225
 49
6.35
 74
    0
 49
-3.175
 74
    0
 49
6.35
 74
    0
 49
-3.175
 74
    0
 49
0
 74
    0
 49
-3.175
 74
    0
  0
LTYPE
  5
45
330
5
100
AcDbSymbolTableRecord
100
AcDbLinetypeTableRecord
  2
BORDERX2
 70
    0
  3
Border (2x) ____  ____  .  ____  ____  .  ___
 72
   65
 73
    6
 40
88.89999999999999
 49
25.4
 74
    0
 49
-12.7
 74
    0
 49
25.4
 74
    0
 49
-12.7
 74
    0
 49
0
 74
    0
 49
-12.7
 74
    0
  0
LTYPE
  5
46
330
5
100
AcDbSymbolTableRecord
100
AcDbLinetypeTableRecord
  2
CENTER
 70
    0
  3
Center ____ _ ____ _ ____ _ ____ _ ____ _ ____
 72
   65
 73
    4
 40
50.8
 49
31.75
 74
    0
 49
-6.35
 74
    0
 49
6.35
 74
    0
 49
-6.35
 74
    0
  0
LTYPE
  5
47
330
5
100
AcDbSymbolTableRecord
100
AcDbLinetypeTableRecord
  2
CENTERTINY
 70
    0
  3
Center (.15x) ___ _ ___ _ ___ _ ___ _ ___ _ ___
 72
   65
 73
    4
 40
7.619999999999999
 49
4.7625
 74
    0
 49
-0.9525
 74
    0
 49
0.9525
 74
    0
 49
-0.9525
 74
    0
  0
LTYPE
  5
48
330
5
100
AcDbSymbolTableRecord
100
AcDbLinetypeTableRecord
  2
CENTER2
 70
    0
  3
Center (.5x) ___ _ ___ _ ___ _ ___ _ ___ _ ___
 72
   65
 73
    4
 40
28.575
 49
19.05
 74
    0
 49
-3.175
 74
    0
 49
3.175
 74
    0
 49
-3.175
 74
    0
  0
LTYPE
  5
49
330
5
100
AcDbSymbolTableRecord
100
AcDbLinetypeTableRecord
  2
CENTERX2
 70
    0
  3
Center (2x) ________  __  ________  __  _____
 72
   65
 73
    4
 40
101.6
 49
63.5
 74
    0
 49
-12.7
 74
    0
 49
12.7
 74
    0
 49
-12.7
 74
    0
  0
ENDTAB
  0
TABLE
  2
LAYER
  5
2
330
0
100
AcDbSymbolTable
 70
    1
  0
LAYER
  5
10
330
2
100
AcDbSymbolTableRecord
100
AcDbLayerTableRecord
  2
0
 70
    0
 62
    7
  6
CONTINUOUS
370
   -3
390
F
1001
LibreCad
1070
    1
  0
LAYER
  5
4A
330
2
100
AcDbSymbolTableRecord
100
AcDbLayerTableRecord
  2
body
 70
    0
 62
   56
420
8421376
  6
CONTINUOUS
370
   50
390
F
  0
LAYER
  5
4B
330
2
100
AcDbSymbolTableRecord
100
AcDbLayerTableRecord
  2
dimensions
 70
    0
 62
    4
  6
CONTINUOUS
370
   13
390
F
  0
LAYER
  5
4C
330
2
100
AcDbSymbolTableRecord
100
AcDbLayerTableRecord
  2
face
 70
    0
 62
    3
  6
CONTINUOUS
370
   50
390
F
  0
LAYER
  5
4D
330
2
100
AcDbSymbolTableRecord
100
AcDbLayerTableRecord
  2
glass
 70
    0
 62
    5
  6
CONTINUOUS
370
   50
390
F
  0
LAYER
  5
4E
330
2
100
AcDbSymbolTableRecord
100
AcDbLayerTableRecord
  2
u-block
 70
    0
 62
    6
  6
CONTINUOUS
370
   50
390
F
  0
ENDTAB
  0
TABLE
  2
STYLE
  5
3
330
0
100
AcDbSymbolTable
 70
    3
  0
STYLE
  5
4F
330
2
100
AcDbSymbolTableRecord
100
AcDbTextStyleTableRecord
  2
unicode
 70
    0
 40
0
 41
1
 50
0
 71
    0
 42
1
  3
unicode
  4

  0
STYLE
  5
50
330
2
100
AcDbSymbolTableRecord
100
AcDbTextStyleTableRecord
  2
cyrillic_ii
 70
    0
 40
0
 41
1
 50
0
 71
    0
 42
1
  3
cyrillic_ii
  4

  0
STYLE
  5
51
330
2
100
AcDbSymbolTableRecord
100
AcDbTextStyleTableRecord
  2
Standard
 70
    0
 40
0
 41
1
 50
0
 71
    0
 42
1
  3
txt
  4

  0
ENDTAB
  0
TABLE
  2
VIEW
  5
6
330
0
100
AcDbSymbolTable
 70
    0
  0
ENDTAB
  0
TABLE
  2
UCS
  5
7
330
0
100
AcDbSymbolTable
 70
    0
  0
ENDTAB
  0
TABLE
  2
APPID
  5
9
330
0
100
AcDbSymbolTable
 70
    1
  0
APPID
  5
12
330
9
100
AcDbSymbolTableRecord
100
AcDbRegAppTableRecord
  2
ACAD
 70
    0
  0
APPID
  5
52
330
9
100
AcDbSymbolTableRecord
100
AcDbRegAppTableRecord
  2
LibreCad
 70
    0
  0
ENDTAB
  0
TABLE
  2
DIMSTYLE
  5
A
330
0
100
AcDbSymbolTable
 70
    1
100
AcDbDimStyleTable
 71
    1
  0
DIMSTYLE
105
53
330
A
100
AcDbSymbolTableRecord
100
AcDbDimStyleTableRecord
  2
Standard
 70
    0
 40
1
 41
1
 42
1
 43
0.38
 44
0.5
 45
0
 46
0
 47
0
 48
0
 49
1
140
1
141
0.09
142
0
143
25.4
144
10
145
0
146
1
147
0.5
148
0
 71
    0
 72
    0
 73
    0
 74
    1
 75
    0
 76
    0
 77
    0
 78
    8
 79
    0
170
    0
171
    2
172
    0
173
    0
174
    0
175
    0
176
    0
177
    0
178
    0
179
    0
271
    1
272
    4
273
    2
274
    2
275
    0
276
    0
277
    2
278
   44
279
    0
280
    0
281
    0
282
    0
283
    1
284
    0
285
    0
286
    0
288
    0
289
    3
340
standard
341

371
   -2
372
   -2
  0
ENDTAB
  0
TABLE
  2
BLOCK_RECORD
  5
1
330
0
100
AcDbSymbolTable
 70
    2
  0
BLOCK_RECORD
  5
1F
330
1
100
AcDbSymbolTableRecord
100
AcDbBlockTableRecord
  2
*Model_Space
 70
    0
280
    1
281
    0
  0
BLOCK_RECORD
  5
1E
330
1
100
AcDbSymbolTableRecord
100
AcDbBlockTableRecord
  2
*Paper_Space
 70
    0
280
    1
281
    0
  0
BLOCK_RECORD
  5
54
330
1
100
AcDbSymbolTableRecord
100
AcDbBlockTableRecord
  2
*D6
 70
    0
280
    1
281
    0
  0
BLOCK_RECORD
  5
57
330
1
100
AcDbSymbolTableRecord
100
AcDbBlockTableRecord
  2
*D10
 70
    0
280
    1
281
    0
  0
BLOCK_RECORD
  5
5A
330
1
100
AcDbSymbolTableRecord
100
AcDbBlockTableRecord
  2
*D16
 70
    0
280
    1
281
    0
  0
BLOCK_RECORD
  5
5D
330
1
100
AcDbSymbolTableRecord
100
AcDbBlockTableRecord
  2
*D14
 70
    0
280
    1
281
    0
  0
BLOCK_RECORD
  5
60
330
1
100
AcDbSymbolTableRecord
100
AcDbBlockTableRecord
  2
*D25
 70
    0
280
    1
281
    0
  0
BLOCK_RECORD
  5
63
330
1
100
AcDbSymbolTableRecord
100
AcDbBlockTableRecord
  2
*D4
 70
    0
280
    1
281
    0
  0
BLOCK_RECORD
  5
66
330
1
100
AcDbSymbolTableRecord
100
AcDbBlockTableRecord
  2
*D5
 70
    0
280
    1
281
    0
  0
BLOCK_RECORD
  5
69
330
1
100
AcDbSymbolTableRecord
100
AcDbBlockTableRecord
  2
*D20
 70
    0
280
    1
281
    0
  0
BLOCK_RECORD
  5
6C
330
1
100
AcDbSymbolTableRecord
100
AcDbBlockTableRecord
  2
*D22
 70
    0
280
    1
281
    0
  0
BLOCK_RECORD
  5
6F
330
1
100
AcDbSymbolTableRecord
100
AcDbBlockTableRecord
  2
*D13
 70
    0
280
    1
281
    0
  0
BLOCK_RECORD
  5
72
330
1
100
AcDbSymbolTableRecord
100
AcDbBlockTableRecord
  2
*D9
 70
    0
280
    1
281
    0
  0
BLOCK_RECORD
  5
75
330
1
100
AcDbSymbolTableRecord
100
AcDbBlockTableRecord
  2
*D15
 70
    0
280
    1
281
    0
  0
BLOCK_RECORD
  5
78
330
1
100
AcDbSymbolTableRecord
100
AcDbBlockTableRecord
  2
*D28
 70
    0
280
    1
281
    0
  0
BLOCK_RECORD
  5
7B
330
1
100
AcDbSymbolTableRecord
100
AcDbBlockTableRecord
  2
*D1
 70
    0
280
    1
281
    0
  0
BLOCK_RECORD
  5
7E
330
1
100
AcDbSymbolTableRecord
100
AcDbBlockTableRecord
  2
*D23
 70
    0
280
    1
281
    0
  0
BLOCK_RECORD
  5
81
330
1
100
AcDbSymbolTableRecord
100
AcDbBlockTableRecord
  2
*D21
 70
    0
280
    1
281
    0
  0
BLOCK_RECORD
  5
84
330
1
100
AcDbSymbolTableRecord
100
AcDbBlockTableRecord
  2
*D8
 70
    0
280
    1
281
    0
  0
BLOCK_RECORD
  5
87
330
1
100
AcDbSymbolTableRecord
100
AcDbBlockTableRecord
  2
*D17
 70
    0
280
    1
281
    0
  0
BLOCK_RECORD
  5
8A
330
1
100
AcDbSymbolTableRecord
100
AcDbBlockTableRecord
  2
*D3
 70
    0
280
    1
281
    0
  0
BLOCK_RECORD
  5
8D
330
1
100
AcDbSymbolTableRecord
100
AcDbBlockTableRecord
  2
*D2
 70
    0
280
    1
281
    0
  0
BLOCK_RECORD
  5
90
330
1
100
AcDbSymbolTableRecord
100
AcDbBlockTableRecord
  2
*D24
 70
    0
280
    1
281
    0
  0
BLOCK_RECORD
  5
93
330
1
100
AcDbSymbolTableRecord
100
AcDbBlockTableRecord
  2
*D7
 70
    0
280
    1
281
    0
  0
BLOCK_RECORD
  5
96
330
1
100
AcDbSymbolTableRecord
100
AcDbBlockTableRecord
  2
*D18
 70
    0
280
    1
281
    0
  0
BLOCK_RECORD
  5
99
330
1
100
AcDbSymbolTableRecord
100
AcDbBlockTableRecord
  2
*D19
 70
    0
280
    1
281
    0
  0
BLOCK_RECORD
  5
9C
330
1
100
AcDbSymbolTableRecord
100
AcDbBlockTableRecord
  2
*D27
 70
    0
280
    1
281
    0
  0
BLOCK_RECORD
  5
9F
330
1
100
AcDbSymbolTableRecord
100
AcDbBlockTableRecord
  2
*D11
 70
    0
280
    1
281
    0
  0
BLOCK_RECORD
  5
A2
330
1
100
AcDbSymbolTableRecord
100
AcDbBlockTableRecord
  2
*D12
 70
    0
280
    1
281
    0
  0
BLOCK_RECORD
  5
A5
330
1
100
AcDbSymbolTableRecord
100
AcDbBlockTableRecord
  2
*D26
 70
    0
280
    1
281
    0
  0
BLOCK_RECORD
  5
A8
330
1
100
AcDbSymbolTableRecord
100
AcDbBlockTableRecord
  2
*D29
 70
    0
280
    1
281
    0
  0
ENDTAB
  0
ENDSEC
  0
SECTION
  2
BLOCKS
  0
BLOCK
  5
20
330
1F
100
AcDbEntity
  8
0
100
AcDbBlockBegin
  2
*Model_Space
 70
    0
 10
0
 20
0
 30
0
  3
*Model_Space
  1

  0
ENDBLK
  5
21
330
1F
100
AcDbEntity
  8
0
100
AcDbBlockEnd
  0
BLOCK
  5
1C
330
1B
100
AcDbEntity
  8
0
100
AcDbBlockBegin
  2
*Paper_Space
 70
    0
 10
0
 20
0
 30
0
  3
*Paper_Space
  1

  0
ENDBLK
  5
1D
330
1F
100
AcDbEntity
  8
0
100
AcDbBlockEnd
  0
BLOCK
  5
55
330
54
100
AcDbEntity
  8
0
100
AcDbBlockBegin
  2
*D6
 70
    1
 10
0
 20
0
  3
*D6
  1

  0
ENDBLK
  5
56
330
54
100
AcDbEntity
  8
0
100
AcDbBlockEnd
  0
BLOCK
  5
58
330
57
100
AcDbEntity
  8
0
100
AcDbBlockBegin
  2
*D10
 70
    1
 10
0
 20
0
  3
*D10
  1

  0
LINE
  5
AB
100
AcDbEntity
  8
dimensions
  6
ByBlock
 62
    0
370
   -2
100
AcDbLine
 10
27
 20
16
 11
27
 21
9.9
  0
SOLID
  5
AC
100
AcDbEntity
  8
dimensions
  6
ByBlock
 62
    0
370
   -2
100
AcDbTrace
 10
27
 20
14
 30
0
 11
26.83348613689087
 21
15
 31
0
 12
27.16651386310914
 22
15
 32
0
 13
27.16651386310914
 23
15
 33
0
  0
SOLID
  5
AD
100
AcDbEntity
  8
dimensions
  6
ByBlock
 62
    0
370
   -2
100
AcDbTrace
 10
27
 20
11.9
 30
0
 11
27.16651386310913
 21
10.9
 31
0
 12
26.83348613689087
 22
10.9
 32
0
 13
26.83348613689087
 23
10.9
 33
0
  0
MTEXT
  5
AE
100
AcDbEntity
  8
dimensions
  6
CONTINUOUS
 62
    0
370
   -2
100
AcDbMText
 10
26
 20
15.66666666666667
 30
0
 40
1
 41
2.333333333333333
 71
    5
 72
    1
  1
21+1
  7
standard
210
0
220
0
230
1
 50
90
 73
    2
 44
1
  0
LINE
  5
AF
100
AcDbEntity
  8
dimensions
  6
ByBlock
 62
    0
370
   -2
100
AcDbLine
 10
25.7
 20
14
 11
27.5
 21
14
  0
LINE
  5
B0
100
AcDbEntity
  8
dimensions
  6
ByBlock
 62
    0
370
   -2
100
AcDbLine
 10
25.7
 20
11.9
 11
27.5
 21
11.9
  0
ENDBLK
  5
59
330
57
100
AcDbEntity
  8
0
100
AcDbBlockEnd
  0
BLOCK
  5
5B
330
5A
100
AcDbEntity
  8
0
100
AcDbBlockBegin
  2
*D16
 70
    1
 10
0
 20
0
  3
*D16
  1

  0
LINE
  5
B1
100
AcDbEntity
  8
dimensions
  6
ByBlock
 62
    0
370
   -2
100
AcDbLine
 10
-1.999999999999999
 20
12
 11
-1.999999999999998
 21
16.9
  0
SOLID
  5
B2
100
AcDbEntity
  8
dimensions
  6
ByBlock
 62
    0
370
   -2
100
AcDbTrace
 10
-1.999999999999999
 20
14
 30
0
 11
-1.833486136890863
 21
13
 31
0
 12
-2.166513863109135
 22
13
 32
0
 13
-2.166513863109135
 23
13
 33
0
  0
SOLID
  5
B3
100
AcDbEntity
  8
dimensions
  6
ByBlock
 62
    0
370
   -2
100
AcDbTrace
 10
-1.999999999999999
 20
14.9
 30
0
 11
-2.166513863109135
 21
15.9
 31
0
 12
-1.833486136890863
 22
15.9
 32
0
 13
-1.833486136890863
 23
15.9
 33
0
  0
MTEXT
  5
B4
100
AcDbEntity
  8
dimensions
  6
CONTINUOUS
 62
    0
370
   -2
100
AcDbMText
 10
-2.999999999999999
 20
14.45
 30
0
 40
1
 41
0.4444444444445064
 71
    5
 72
    1
  1
9
  7
standard
210
0
220
0
230
1
 50
89.99999999999999
 73
    2
 44
1
  0
LINE
  5
B5
100
AcDbEntity
  8
dimensions
  6
ByBlock
 62
    0
370
   -2
100
AcDbLine
 10
0.6000000000000001
 20
14
 11
-2.499999999999999
 21
14
  0
LINE
  5
B6
100
AcDbEntity
  8
dimensions
  6
ByBlock
 62
    0
370
   -2
100
AcDbLine
 10
0.6000000000000001
 20
14.9
 11
-2.499999999999999
 21
14.9
  0
ENDBLK
  5
5C
330
5A
100
AcDbEntity
  8
0
100
AcDbBlockEnd
  0
BLOCK
  5
5E
330
5D
100
AcDbEntity
  8
0
100
AcDbBlockBegin
  2
*D14
 70
    1
 10
0
 20
0
  3
*D14
  1

  0
LINE
  5
B7
100
AcDbEntity
  8
dimensions
  6
ByBlock
 62
    0
370
   -2
100
AcDbLine
 10
1.900000000000001
 20
-10
 11
8.000000000000005
 21
-10
  0
SOLID
  5
B8
100
AcDbEntity
  8
dimensions
  6
ByBlock
 62
    0
370
   -2
100
AcDbTrace
 10
1.900000000000001
 20
-10
 30
0
 11
2.900000000000001
 21
-9.833486136890864
 31
0
 12
2.900000000000001
 22
-10.16651386310914
 32
0
 13
2.900000000000001
 23
-10.16651386310914
 33
0
  0
SOLID
  5
B9
100
AcDbEntity
  8
dimensions
  6
ByBlock
 62
    0
370
   -2
100
AcDbTrace
 10
8.000000000000005
 20
-10
 30
0
 11
7.000000000000005
 21
-10.16651386310914
 31
0
 12
7.000000000000005
 22
-9.833486136890864
 32
0
 13
7.000000000000005
 23
-9.833486136890864
 33
0
  0
MTEXT
  5
BA
100
AcDbEntity
  8
dimensions
  6
CONTINUOUS
 62
    0
370
   -2
100
AcDbMText
 10
4.950000000000003
 20
-9
 30
0
 40
1
 41
1.000000000000062
 71
    5
 72
    1
  1
61
  7
standard
210
0
220
0
230
1
 50
0
 73
    2
 44
1
  0
LINE
  5
BB
100
AcDbEntity
  8
dimensions
  6
ByBlock
 62
    0
370
   -2
100
AcDbLine
 10
1.9
 20
-8.699999999999999
 11
1.900000000000001
 21
-10.5
  0
LINE
  5
BC
100
AcDbEntity
  8
dimensions
  6
ByBlock
 62
    0
370
   -2
100
AcDbLine
 10
8.000000000000005
 20
-8.699999999999999
 11
8.000000000000005
 21
-10.5
  0
ENDBLK
  5
5F
330
5D
100
AcDbEntity
  8
0
100
AcDbBlockEnd
  0
BLOCK
  5
61
330
60
100
AcDbEntity
  8
0
100
AcDbBlockBegin
  2
*D25
 70
    1
 10
0
 20
0
  3
*D25
  1

  0
LINE
  5
BD
100
AcDbEntity
  8
dimensions
  6
ByBlock
 62
    0
370
   -2
100
AcDbLine
 10
-1.1
 20
-10
 11
3.900000000000004
 21
-10
  0
SOLID
  5
BE
100
AcDbEntity
  8
dimensions
  6
ByBlock
 62
    0
370
   -2
100
AcDbTrace
 10
0.9000000000000004
 20
-10
 30
0
 11
-0.09999999999999964
 21
-10.16651386310914
 31
0
 12
-0.09999999999999964
 22
-9.833486136890864
 32
0
 13
-0.09999999999999964
 23
-9.833486136890864
 33
0
  0
SOLID
  5
BF
100
AcDbEntity
  8
dimensions
  6
ByBlock
 62
    0
370
   -2
100
AcDbTrace
 10
1.900000000000004
 20
-10
 30
0
 11
2.900000000000004
 21
-9.833486136890864
 31
0
 12
2.900000000000004
 22
-10.16651386310914
 32
0
 13
2.900000000000004
 23
-10.16651386310914
 33
0
  0
MTEXT
  5
C0
100
AcDbEntity
  8
dimensions
  6
CONTINUOUS
 62
    0
370
   -2
100
AcDbMText
 10
-1
 20
-9
 30
0
 40
1
 41
1
 71
    5
 72
    1
  1
10
  7
standard
210
0
220
0
230
1
 50
0
 73
    2
 44
1
  0
LINE
  5
C1
100
AcDbEntity
  8
dimensions
  6
ByBlock
 62
    0
370
   -2
100
AcDbLine
 10
0.9000000000000001
 20
-4
 11
0.9000000000000002
 21
-10.5
  0
LINE
  5
C2
100
AcDbEntity
  8
dimensions
  6
ByBlock
 62
    0
370
   -2
100
AcDbLine
 10
1.900000000000004
 20
-7.449999999999999
 11
1.900000000000004
 21
-10.5
  0
ENDBLK
  5
62
330
60
100
AcDbEntity
  8
0
100
AcDbBlockEnd
  0
BLOCK
  5
64
330
63
100
AcDbEntity
  8
0
100
AcDbBlockBegin
  2
*D4
 70
    1
 10
0
 20
0
  3
*D4
  1

  0
LINE
  5
C3
100
AcDbEntity
  8
dimensions
  6
CONTINUOUS
 62
    7
370
    0
100
AcDbLine
 10
5
 20
20.3
 11
3
 21
20.3
  0
SOLID
  5
C4
100
AcDbEntity
  8
dimensions
  6
CONTINUOUS
 62
    7
370
    0
100
AcDbTrace
 10
5
 20
20.3
 30
0
 11
4
 21
20.13348613689087
 31
0
 12
4
 22
20.46651386310914
 32
0
 13
4
 23
20.46651386310914
 33
0
  0
ENDBLK
  5
65
330
63
100
AcDbEntity
  8
0
100
AcDbBlockEnd
  0
BLOCK
  5
67
330
66
100
AcDbEntity
  8
0
100
AcDbBlockBegin
  2
*D5
 70
    1
 10
0
 20
0
  3
*D5
  1

  0
LINE
  5
C5
100
AcDbEntity
  8
dimensions
  6
CONTINUOUS
 62
    7
370
    0
100
AcDbLine
 10
-6.4
 20
13
 11
-6.4
 21
15
  0
SOLID
  5
C6
100
AcDbEntity
  8
dimensions
  6
CONTINUOUS
 62
    7
370
    0
100
AcDbTrace
 10
-6.4
 20
13
 30
0
 11
-6.566513863109137
 21
14
 31
0
 12
-6.233486136890864
 22
14
 32
0
 13
-6.233486136890864
 23
14
 33
0
  0
ENDBLK
  5
68
330
66
100
AcDbEntity
  8
0
100
AcDbBlockEnd
  0
BLOCK
  5
6A
330
69
100
AcDbEntity
  8
0
100
AcDbBlockBegin
  2
*D20
 70
    1
 10
0
 20
0
  3
*D20
  1

  0
LINE
  5
C7
100
AcDbEntity
  8
dimensions
  6
CONTINUOUS
 62
    7
370
    0
100
AcDbLine
 10
1.6
 20
14.9
 11
-2
 21
18
  0
LINE
  5
C8
100
AcDbEntity
  8
dimensions
  6
CONTINUOUS
 62
    7
370
    0
100
AcDbLine
 10
-2
 20
18
 11
-4
 21
18
  0
SOLID
  5
C9
100
AcDbEntity
  8
dimensions
  6
CONTINUOUS
 62
    7
370
    0
100
AcDbTrace
 10
1.6
 20
14.9
 30
0
 11
0.7335770496097355
 21
15.42634412473643
 31
0
 12
0.9508853456834534
 22
15.67870214598333
 32
0
 13
0.9508853456834534
 23
15.67870214598333
 33
0
  0
ENDBLK
  5
6B
330
69
100
AcDbEntity
  8
0
100
AcDbBlockEnd
  0
BLOCK
  5
6D
330
6C
100
AcDbEntity
  8
0
100
AcDbBlockBegin
  2
*D22
 70
    1
 10
0
 20
0
  3
*D22
  1

  0
LINE
  5
CA
100
AcDbEntity
  8
dimensions
  6
ByBlock
 62
    0
370
   -2
100
AcDbLine
 10
0.9000000000000004
 20
-1
 11
9
 21
-1
  0
SOLID
  5
CB
100
AcDbEntity
  8
dimensions
  6
ByBlock
 62
    0
370
   -2
100
AcDbTrace
 10
0.9000000000000004
 20
-1
 30
0
 11
1.9
 21
-0.8334861368908639
 31
0
 12
1.9
 22
-1.166513863109136
 32
0
 13
1.9
 23
-1.166513863109136
 33
0
  0
SOLID
  5
CC
100
AcDbEntity
  8
dimensions
  6
ByBlock
 62
    0
370
   -2
100
AcDbTrace
 10
9
 20
-1
 30
0
 11
8
 21
-1.166513863109136
 31
0
 12
8
 22
-0.8334861368908638
 32
0
 13
8
 23
-0.8334861368908638
 33
0
  0
MTEXT
  5
CD
100
AcDbEntity
  8
dimensions
  6
CONTINUOUS
 62
    0
370
   -2
100
AcDbMText
 10
4.95
 20
0
 30
0
 40
1
 41
2.555555555555555
 71
    5
 72
    1
  1
81%%P2
  7
standard
210
0
220
0
230
1
 50
0
 73
    2
 44
1
  0
LINE
  5
CE
100
AcDbEntity
  8
dimensions
  6
ByBlock
 62
    0
370
   -2
100
AcDbLine
 10
0.9000000000000002
 20
-2
 11
0.9000000000000004
 21
-0.5
  0
LINE
  5
CF
100
AcDbEntity
  8
dimensions
  6
ByBlock
 62
    0
370
   -2
100
AcDbLine
 10
9
 20
-2
 11
9
 21
-0.5
  0
ENDBLK
  5
6E
330
6C
100
AcDbEntity
  8
0
100
AcDbBlockEnd
  0
BLOCK
  5
70
330
6F
100
AcDbEntity
  8
0
100
AcDbBlockBegin
  2
*D13
 70
    1
 10
0
 20
0
  3
*D13
  1

  0
LINE
  5
D0
100
AcDbEntity
  8
dimensions
  6
CONTINUOUS
 62
    7
370
    0
100
AcDbLine
 10
27
 20
11.9
 11
27
 21
2.9
  0
SOLID
  5
D1
100
AcDbEntity
  8
dimensions
  6
CONTINUOUS
 62
    7
370
    0
100
AcDbTrace
 10
27
 20
11.9
 30
0
 11
27.16651386310913
 21
10.9
 31
0
 12
26.83348613689087
 22
10.9
 32
0
 13
26.83348613689087
 23
10.9
 33
0
  0
ENDBLK
  5
71
330
6F
100
AcDbEntity
  8
0
100
AcDbBlockEnd
  0
BLOCK
  5
73
330
72
100
AcDbEntity
  8
0
100
AcDbBlockBegin
  2
*D9
 70
    1
 10
0
 20
0
  3
*D9
  1

  0
LINE
  5
D2
100
AcDbEntity
  8
dimensions
  6
CONTINUOUS
 62
    7
370
    0
100
AcDbLine
 10
8.300000000000001
 20
13.5
 11
13
 21
23.8
  0
LINE
  5
D3
100
AcDbEntity
  8
dimensions
  6
CONTINUOUS
 62
    7
370
    0
100
AcDbLine
 10
13
 20
23.8
 11
27
 21
23.8
  0
SOLID
  5
D4
100
AcDbEntity
  8
dimensions
  6
CONTINUOUS
 62
    7
370
    0
100
AcDbTrace
 10
8.300000000000001
 20
13.5
 30
0
 11
8.563645705412132
 21
14.47888600389691
 31
0
 12
8.866621186165395
 22
14.34063505636873
 32
0
 13
8.866621186165395
 23
14.34063505636873
 33
0
  0
ENDBLK
  5
74
330
72
100
AcDbEntity
  8
0
100
AcDbBlockEnd
  0
BLOCK
  5
76
330
75
100
AcDbEntity
  8
0
100
AcDbBlockBegin
  2
*D15
 70
    1
 10
0
 20
0
  3
*D15
  1

  0
LINE
  5
D5
100
AcDbEntity
  8
dimensions
  6
ByBlock
 62
    0
370
   -2
100
AcDbLine
 10
-3
 20
-9.699999999999999
 11
-3
 21
-5.6
  0
SOLID
  5
D6
100
AcDbEntity
  8
dimensions
  6
ByBlock
 62
    0
370
   -2
100
AcDbTrace
 10
-3
 20
-7.699999999999998
 30
0
 11
-2.833486136890864
 21
-8.699999999999999
 31
0
 12
-3.166513863109136
 22
-8.699999999999999
 32
0
 13
-3.166513863109136
 23
-8.699999999999999
 33
0
  0
SOLID
  5
D7
100
AcDbEntity
  8
dimensions
  6
ByBlock
 62
    0
370
   -2
100
AcDbTrace
 10
-3
 20
-7.6
 30
0
 11
-3.166513863109136
 21
-6.6
 31
0
 12
-2.833486136890864
 22
-6.6
 32
0
 13
-2.833486136890864
 23
-6.6
 33
0
  0
MTEXT
  5
D8
100
AcDbEntity
  8
dimensions
  6
CONTINUOUS
 62
    0
370
   -2
100
AcDbMText
 10
-4
 20
-5.627777777777746
 30
0
 40
1
 41
2.944444444444506
 71
    5
 72
    1
  1
1+0,5
  7
standard
210
0
220
0
230
1
 50
89.99999999999999
 73
    2
 44
1
  0
LINE
  5
D9
100
AcDbEntity
  8
dimensions
  6
ByBlock
 62
    0
370
   -2
100
AcDbLine
 10
0.9000000000000039
 20
-7.699999999999998
 11
-3.5
 21
-7.699999999999998
  0
LINE
  5
DA
100
AcDbEntity
  8
dimensions
  6
ByBlock
 62
    0
370
   -2
100
AcDbLine
 10
0.9999999999999909
 20
-7.6
 11
-3.5
 21
-7.6
  0
ENDBLK
  5
77
330
75
100
AcDbEntity
  8
0
100
AcDbBlockEnd
  0
BLOCK
  5
79
330
78
100
AcDbEntity
  8
0
100
AcDbBlockBegin
  2
*D28
 70
    1
 10
0
 20
0
  3
*D28
  1

  0
LINE
  5
DB
100
AcDbEntity
  8
dimensions
  6
ByBlock
 62
    0
370
   -2
100
AcDbLine
 10
45
 20
17
 11
47.50000000000001
 21
17
  0
SOLID
  5
DC
100
AcDbEntity
  8
dimensions
  6
ByBlock
 62
    0
370
   -2
100
AcDbTrace
 10
45
 20
17
 30
0
 11
46
 21
17.16651386310913
 31
0
 12
46
 22
16.83348613689086
 32
0
 13
46
 23
16.83348613689086
 33
0
  0
SOLID
  5
DD
100
AcDbEntity
  8
dimensions
  6
ByBlock
 62
    0
370
   -2
100
AcDbTrace
 10
47.50000000000001
 20
17
 30
0
 11
46.50000000000001
 21
16.83348613689087
 31
0
 12
46.50000000000001
 22
17.16651386310913
 32
0
 13
46.50000000000001
 23
17.16651386310913
 33
0
  0
MTEXT
  5
DE
100
AcDbEntity
  8
dimensions
  6
CONTINUOUS
 62
    0
370
   -2
100
AcDbMText
 10
46.25
 20
18
 30
0
 40
1
 41
1.222222222222284
 71
    5
 72
    1
  1
25
  7
standard
210
0
220
0
230
1
 50
0
 73
    2
 44
1
  0
LINE
  5
DF
100
AcDbEntity
  8
dimensions
  6
ByBlock
 62
    0
370
   -2
100
AcDbLine
 10
45
 20
15
 11
45
 21
17.5
  0
LINE
  5
E0
100
AcDbEntity
  8
dimensions
  6
ByBlock
 62
    0
370
   -2
100
AcDbLine
 10
47.50000000000001
 20
17
 11
47.50000000000001
 21
17.5
  0
ENDBLK
  5
7A
330
78
100
AcDbEntity
  8
0
100
AcDbBlockEnd
  0
BLOCK
  5
7C
330
7B
100
AcDbEntity
  8
0
100
AcDbBlockBegin
  2
*D1
 70
    1
 10
0
 20
0
  3
*D1
  1

  0
LINE
  5
E1
100
AcDbEntity
  8
dimensions
  6
CONTINUOUS
 62
    7
370
    0
100
AcDbLine
 10
38
 20
15
 11
41
 21
20
  0
LINE
  5
E2
100
AcDbEntity
  8
dimensions
  6
CONTINUOUS
 62
    7
370
    0
100
AcDbLine
 10
41
 20
20
 11
47
 21
20
  0
SOLID
  5
E3
100
AcDbEntity
  8
dimensions
  6
CONTINUOUS
 62
    7
370
    0
100
AcDbTrace
 10
38
 20
15
 30
0
 11
38.37171129577838
 21
15.94316360150203
 31
0
 12
38.65728021507667
 22
15.77182224992305
 32
0
 13
38.65728021507667
 23
15.77182224992305
 33
0
  0
ENDBLK
  5
7D
330
7B
100
AcDbEntity
  8
0
100
AcDbBlockEnd
  0
BLOCK
  5
7F
330
7E
100
AcDbEntity
  8
0
100
AcDbBlockBegin
  2
*D23
 70
    1
 10
0
 20
0
  3
*D23
  1

  0
LINE
  5
E4
100
AcDbEntity
  8
dimensions
  6
ByBlock
 62
    0
370
   -2
100
AcDbLine
 10
33
 20
14
 11
33
 21
9.899999999999999
  0
SOLID
  5
E5
100
AcDbEntity
  8
dimensions
  6
ByBlock
 62
    0
370
   -2
100
AcDbTrace
 10
33
 20
14
 30
0
 11
33.16651386310914
 21
13
 31
0
 12
32.83348613689086
 22
13
 32
0
 13
32.83348613689086
 23
13
 33
0
  0
SOLID
  5
E6
100
AcDbEntity
  8
dimensions
  6
ByBlock
 62
    0
370
   -2
100
AcDbTrace
 10
33
 20
9.899999999999999
 30
0
 11
32.83348613689086
 21
10.9
 31
0
 12
33.16651386310914
 22
10.9
 32
0
 13
33.16651386310914
 23
10.9
 33
0
  0
MTEXT
  5
E7
100
AcDbEntity
  8
dimensions
  6
CONTINUOUS
 62
    0
370
   -2
100
AcDbMText
 10
32
 20
11.95
 30
0
 40
1
 41
3.611111111111173
 71
    5
 72
    1
  1
41+1,5
  7
standard
210
0
220
0
230
1
 50
90
 73
    2
 44
1
  0
LINE
  5
E8
100
AcDbEntity
  8
dimensions
  6
ByBlock
 62
    0
370
   -2
100
AcDbLine
 10
35
 20
14
 11
32.5
 21
14
  0
LINE
  5
E9
100
AcDbEntity
  8
dimensions
  6
ByBlock
 62
    0
370
   -2
100
AcDbLine
 10
36.9
 20
9.899999999999999
 11
32.5
 21
9.899999999999999
  0
ENDBLK
  5
80
330
7E
100
AcDbEntity
  8
0
100
AcDbBlockEnd
  0
BLOCK
  5
82
330
81
100
AcDbEntity
  8
0
100
AcDbBlockBegin
  2
*D21
 70
    1
 10
0
 20
0
  3
*D21
  1

  0
LINE
  5
EA
100
AcDbEntity
  8
dimensions
  6
ByBlock
 62
    0
370
   -2
100
AcDbLine
 10
17
 20
9.9
 11
17
 21
14
  0
SOLID
  5
EB
100
AcDbEntity
  8
dimensions
  6
ByBlock
 62
    0
370
   -2
100
AcDbTrace
 10
17
 20
9.9
 30
0
 11
16.83348613689087
 21
10.9
 31
0
 12
17.16651386310914
 22
10.9
 32
0
 13
17.16651386310914
 23
10.9
 33
0
  0
SOLID
  5
EC
100
AcDbEntity
  8
dimensions
  6
ByBlock
 62
    0
370
   -2
100
AcDbTrace
 10
17
 20
14
 30
0
 11
17.16651386310913
 21
13
 31
0
 12
16.83348613689087
 22
13
 32
0
 13
16.83348613689087
 23
13
 33
0
  0
MTEXT
  5
ED
100
AcDbEntity
  8
dimensions
  6
CONTINUOUS
 62
    0
370
   -2
100
AcDbMText
 10
16
 20
11.95
 30
0
 40
1
 41
3.611111111111173
 71
    5
 72
    1
  1
41%%P1,5
  7
standard
210
0
220
0
230
1
 50
90
 73
    2
 44
1
  0
LINE
  5
EE
100
AcDbEntity
  8
dimensions
  6
ByBlock
 62
    0
370
   -2
100
AcDbLine
 10
19
 20
9.9
 11
16.5
 21
9.9
  0
LINE
  5
EF
100
AcDbEntity
  8
dimensions
  6
ByBlock
 62
    0
370
   -2
100
AcDbLine
 10
19
 20
14
 11
16.5
 21
14
  0
ENDBLK
  5
83
330
81
100
AcDbEntity
  8
0
100
AcDbBlockEnd
  0
BLOCK
  5
85
330
84
100
AcDbEntity
  8
0
100
AcDbBlockBegin
  2
*D8
 70
    1
 10
0
 20
0
  3
*D8
  1

  0
LINE
  5
F0
100
AcDbEntity
  8
dimensions
  6
CONTINUOUS
 62
    7
370
    0
100
AcDbLine
 10
21.1
 20
15
 11
18
 21
17
  0
LINE
  5
F1
100
AcDbEntity
  8
dimensions
  6
CONTINUOUS
 62
    7
370
    0
100
AcDbLine
 10
18
 20
17
 11
16
 21
17
  0
SOLID
  5
F2
100
AcDbEntity
  8
dimensions
  6
CONTINUOUS
 62
    7
370
    0
100
AcDbTrace
 10
21.1
 20
15
 30
0
 11
20.16943171238642
 21
15.40220582876861
 31
0
 12
20.3499749911651
 22
15.68204791087557
 32
0
 13
20.3499749911651
 23
15.68204791087557
 33
0
  0
ENDBLK
  5
86
330
84
100
AcDbEntity
  8
0
100
AcDbBlockEnd
  0
BLOCK
  5
88
330
87
100
AcDbEntity
  8
0
100
AcDbBlockBegin
  2
*D17
 70
    1
 10
0
 20
0
  3
*D17
  1

  0
LINE
  5
F3
100
AcDbEntity
  8
dimensions
  6
ByBlock
 62
    0
370
   -2
100
AcDbLine
 10
-4
 20
9.9
 11
-4
 21
16
  0
SOLID
  5
F4
100
AcDbEntity
  8
dimensions
  6
ByBlock
 62
    0
370
   -2
100
AcDbTrace
 10
-4
 20
11.9
 30
0
 11
-3.833486136890864
 21
10.9
 31
0
 12
-4.166513863109136
 22
10.9
 32
0
 13
-4.166513863109136
 23
10.9
 33
0
  0
SOLID
  5
F5
100
AcDbEntity
  8
dimensions
  6
ByBlock
 62
    0
370
   -2
100
AcDbTrace
 10
-4
 20
14
 30
0
 11
-4.166513863109136
 21
15
 31
0
 12
-3.833486136890864
 22
15
 32
0
 13
-3.833486136890864
 23
15
 33
0
  0
MTEXT
  5
F6
100
AcDbEntity
  8
dimensions
  6
CONTINUOUS
 62
    0
370
   -2
100
AcDbMText
 10
-5
 20
15.66666666666667
 30
0
 40
1
 41
2.333333333333333
 71
    5
 72
    1
  1
21+1
  7
standard
210
0
220
0
230
1
 50
90
 73
    2
 44
1
  0
LINE
  5
F7
100
AcDbEntity
  8
dimensions
  6
ByBlock
 62
    0
370
   -2
100
AcDbLine
 10
0.8999999999999999
 20
11.9
 11
-4.5
 21
11.9
  0
LINE
  5
F8
100
AcDbEntity
  8
dimensions
  6
ByBlock
 62
    0
370
   -2
100
AcDbLine
 10
0.8999999999999999
 20
14
 11
-4.5
 21
14
  0
ENDBLK
  5
89
330
87
100
AcDbEntity
  8
0
100
AcDbBlockEnd
  0
BLOCK
  5
8B
330
8A
100
AcDbEntity
  8
0
100
AcDbBlockBegin
  2
*D3
 70
    1
 10
0
 20
0
  3
*D3
  1

  0
LINE
  5
F9
100
AcDbEntity
  8
dimensions
  6
CONTINUOUS
 62
    7
370
    0
100
AcDbLine
 10
13.3
 20
13
 11
13.3
 21
15
  0
SOLID
  5
FA
100
AcDbEntity
  8
dimensions
  6
CONTINUOUS
 62
    7
370
    0
100
AcDbTrace
 10
13.3
 20
13
 30
0
 11
13.13348613689086
 21
14
 31
0
 12
13.46651386310914
 22
14
 32
0
 13
13.46651386310914
 23
14
 33
0
  0
ENDBLK
  5
8C
330
8A
100
AcDbEntity
  8
0
100
AcDbBlockEnd
  0
BLOCK
  5
8E
330
8D
100
AcDbEntity
  8
0
100
AcDbBlockBegin
  2
*D2
 70
    1
 10
0
 20
0
  3
*D2
  1

  0
LINE
  5
FB
100
AcDbEntity
  8
dimensions
  6
CONTINUOUS
 62
    7
370
    0
100
AcDbLine
 10
23.2
 20
14.3
 11
27
 21
23.8
  0
LINE
  5
FC
100
AcDbEntity
  8
dimensions
  6
CONTINUOUS
 62
    7
370
    0
100
AcDbLine
 10
27
 20
23.8
 11
51
 21
23.8
  0
SOLID
  5
FD
100
AcDbEntity
  8
dimensions
  6
CONTINUOUS
 62
    7
370
    0
100
AcDbTrace
 10
23.2
 20
14.3
 30
0
 11
23.41678643574801
 21
15.2903183871277
 31
0
 12
23.7259949169602
 22
15.16663499464282
 32
0
 13
23.7259949169602
 23
15.16663499464282
 33
0
  0
ENDBLK
  5
8F
330
8D
100
AcDbEntity
  8
0
100
AcDbBlockEnd
  0
BLOCK
  5
91
330
90
100
AcDbEntity
  8
0
100
AcDbBlockBegin
  2
*D24
 70
    1
 10
0
 20
0
  3
*D24
  1

  0
LINE
  5
FE
100
AcDbEntity
  8
dimensions
  6
ByBlock
 62
    0
370
   -2
100
AcDbLine
 10
37.9
 20
4
 11
46
 21
4
  0
SOLID
  5
FF
100
AcDbEntity
  8
dimensions
  6
ByBlock
 62
    0
370
   -2
100
AcDbTrace
 10
37.9
 20
4
 30
0
 11
38.9
 21
4.166513863109136
 31
0
 12
38.9
 22
3.833486136890864
 32
0
 13
38.9
 23
3.833486136890864
 33
0
  0
SOLID
  5
100
100
AcDbEntity
  8
dimensions
  6
ByBlock
 62
    0
370
   -2
100
AcDbTrace
 10
46
 20
4
 30
0
 11
45
 21
3.833486136890864
 31
0
 12
45
 22
4.166513863109136
 32
0
 13
45
 23
4.166513863109136
 33
0
  0
MTEXT
  5
101
100
AcDbEntity
  8
dimensions
  6
CONTINUOUS
 62
    0
370
   -2
100
AcDbMText
 10
41.95
 20
5
 30
0
 40
1
 41
1
 71
    5
 72
    1
  1
81
  7
standard
210
0
220
0
230
1
 50
0
 73
    2
 44
1
  0
LINE
  5
102
100
AcDbEntity
  8
dimensions
  6
ByBlock
 62
    0
370
   -2
100
AcDbLine
 10
37.9
 20
8.9
 11
37.9
 21
3.5
  0
LINE
  5
103
100
AcDbEntity
  8
dimensions
  6
ByBlock
 62
    0
370
   -2
100
AcDbLine
 10
46
 20
8.899999999999999
 11
46
 21
3.5
  0
ENDBLK
  5
92
330
90
100
AcDbEntity
  8
0
100
AcDbBlockEnd
  0
BLOCK
  5
94
330
93
100
AcDbEntity
  8
0
100
AcDbBlockBegin
  2
*D7
 70
    1
 10
0
 20
0
  3
*D7
  1

  0
ENDBLK
  5
95
330
93
100
AcDbEntity
  8
0
100
AcDbBlockEnd
  0
BLOCK
  5
97
330
96
100
AcDbEntity
  8
0
100
AcDbBlockBegin
  2
*D18
 70
    1
 10
0
 20
0
  3
*D18
  1

  0
LINE
  5
104
100
AcDbEntity
  8
dimensions
  6
ByBlock
 62
    0
370
   -2
100
AcDbLine
 10
1.9
 20
9
 11
7.999999999999999
 21
9
  0
SOLID
  5
105
100
AcDbEntity
  8
dimensions
  6
ByBlock
 62
    0
370
   -2
100
AcDbTrace
 10
1.9
 20
9
 30
0
 11
2.9
 21
9.166513863109136
 31
0
 12
2.9
 22
8.833486136890864
 32
0
 13
2.9
 23
8.833486136890864
 33
0
  0
SOLID
  5
106
100
AcDbEntity
  8
dimensions
  6
ByBlock
 62
    0
370
   -2
100
AcDbTrace
 10
7.999999999999999
 20
9
 30
0
 11
6.999999999999999
 21
8.833486136890864
 31
0
 12
6.999999999999999
 22
9.166513863109136
 32
0
 13
6.999999999999999
 23
9.166513863109136
 33
0
  0
MTEXT
  5
107
100
AcDbEntity
  8
dimensions
  6
CONTINUOUS
 62
    0
370
   -2
100
AcDbMText
 10
4.949999999999999
 20
10
 30
0
 40
1
 41
1.000000000000062
 71
    5
 72
    1
  1
61
  7
standard
210
0
220
0
230
1
 50
0
 73
    2
 44
1
  0
LINE
  5
108
100
AcDbEntity
  8
dimensions
  6
ByBlock
 62
    0
370
   -2
100
AcDbLine
 10
1.9
 20
11.66999999999999
 11
1.9
 21
8.5
  0
LINE
  5
109
100
AcDbEntity
  8
dimensions
  6
ByBlock
 62
    0
370
   -2
100
AcDbLine
 10
7.999999999999999
 20
11.77
 11
7.999999999999999
 21
8.5
  0
ENDBLK
  5
98
330
96
100
AcDbEntity
  8
0
100
AcDbBlockEnd
  0
BLOCK
  5
9A
330
99
100
AcDbEntity
  8
0
100
AcDbBlockBegin
  2
*D19
 70
    1
 10
0
 20
0
  3
*D19
  1

  0
LINE
  5
10A
100
AcDbEntity
  8
dimensions
  6
ByBlock
 62
    0
370
   -2
100
AcDbLine
 10
1.6
 20
23
 11
8.300000000000001
 21
23
  0
SOLID
  5
10B
100
AcDbEntity
  8
dimensions
  6
ByBlock
 62
    0
370
   -2
100
AcDbTrace
 10
1.6
 20
23
 30
0
 11
2.6
 21
23.16651386310913
 31
0
 12
2.6
 22
22.83348613689086
 32
0
 13
2.6
 23
22.83348613689086
 33
0
  0
SOLID
  5
10C
100
AcDbEntity
  8
dimensions
  6
ByBlock
 62
    0
370
   -2
100
AcDbTrace
 10
8.300000000000001
 20
23
 30
0
 11
7.300000000000001
 21
22.83348613689087
 31
0
 12
7.300000000000001
 22
23.16651386310913
 32
0
 13
7.300000000000001
 23
23.16651386310913
 33
0
  0
MTEXT
  5
10D
100
AcDbEntity
  8
dimensions
  6
CONTINUOUS
 62
    0
370
   -2
100
AcDbMText
 10
4.95
 20
24
 30
0
 40
1
 41
1.222222222222284
 71
    5
 72
    1
  1
67
  7
standard
210
0
220
0
230
1
 50
0
 73
    2
 44
1
  0
LINE
  5
10E
100
AcDbEntity
  8
dimensions
  6
ByBlock
 62
    0
370
   -2
100
AcDbLine
 10
1.6
 20
15.9
 11
1.6
 21
23.5
  0
LINE
  5
10F
100
AcDbEntity
  8
dimensions
  6
ByBlock
 62
    0
370
   -2
100
AcDbLine
 10
8.300000000000001
 20
15.9
 11
8.300000000000001
 21
23.5
  0
ENDBLK
  5
9B
330
99
100
AcDbEntity
  8
0
100
AcDbBlockEnd
  0
BLOCK
  5
9D
330
9C
100
AcDbEntity
  8
0
100
AcDbBlockBegin
  2
*D27
 70
    1
 10
0
 20
0
  3
*D27
  1

  0
LINE
  5
110
100
AcDbEntity
  8
dimensions
  6
ByBlock
 62
    0
370
   -2
100
AcDbLine
 10
34.40000000000001
 20
17
 11
40.9
 21
17
  0
SOLID
  5
111
100
AcDbEntity
  8
dimensions
  6
ByBlock
 62
    0
370
   -2
100
AcDbTrace
 10
36.40000000000001
 20
17
 30
0
 11
35.40000000000001
 21
16.83348613689087
 31
0
 12
35.40000000000001
 22
17.16651386310913
 32
0
 13
35.40000000000001
 23
17.16651386310913
 33
0
  0
SOLID
  5
112
100
AcDbEntity
  8
dimensions
  6
ByBlock
 62
    0
370
   -2
100
AcDbTrace
 10
38.9
 20
17
 30
0
 11
39.9
 21
17.16651386310913
 31
0
 12
39.9
 22
16.83348613689086
 32
0
 13
39.9
 23
16.83348613689086
 33
0
  0
MTEXT
  5
113
100
AcDbEntity
  8
dimensions
  6
CONTINUOUS
 62
    0
370
   -2
100
AcDbMText
 10
37.65000000000001
 20
18
 30
0
 40
1
 41
1.222222222222284
 71
    5
 72
    1
  1
25
  7
standard
210
0
220
0
230
1
 50
0
 73
    2
 44
1
  0
LINE
  5
114
100
AcDbEntity
  8
dimensions
  6
ByBlock
 62
    0
370
   -2
100
AcDbLine
 10
36.40000000000001
 20
17
 11
36.40000000000001
 21
17.5
  0
LINE
  5
115
100
AcDbEntity
  8
dimensions
  6
ByBlock
 62
    0
370
   -2
100
AcDbLine
 10
38.9
 20
15
 11
38.9
 21
17.5
  0
ENDBLK
  5
9E
330
9C
100
AcDbEntity
  8
0
100
AcDbBlockEnd
  0
BLOCK
  5
A0
330
9F
100
AcDbEntity
  8
0
100
AcDbBlockBegin
  2
*D11
 70
    1
 10
0
 20
0
  3
*D11
  1

  0
LINE
  5
116
100
AcDbEntity
  8
dimensions
  6
CONTINUOUS
 62
    7
370
    0
100
AcDbLine
 10
5
 20
4.699999999999999
 11
3
 21
4.699999999999999
  0
SOLID
  5
117
100
AcDbEntity
  8
dimensions
  6
CONTINUOUS
 62
    7
370
    0
100
AcDbTrace
 10
5
 20
4.699999999999999
 30
0
 11
4
 21
4.533486136890863
 31
0
 12
4
 22
4.866513863109136
 32
0
 13
4
 23
4.866513863109136
 33
0
  0
ENDBLK
  5
A1
330
9F
100
AcDbEntity
  8
0
100
AcDbBlockEnd
  0
BLOCK
  5
A3
330
A2
100
AcDbEntity
  8
0
100
AcDbBlockBegin
  2
*D12
 70
    1
 10
0
 20
0
  3
*D12
  1

  0
LINE
  5
118
100
AcDbEntity
  8
dimensions
  6
CONTINUOUS
 62
    7
370
    0
100
AcDbLine
 10
44.5
 20
15
 11
47
 21
20
  0
LINE
  5
119
100
AcDbEntity
  8
dimensions
  6
CONTINUOUS
 62
    7
370
    0
100
AcDbLine
 10
47
 20
20
 11
54.4
 21
20
  0
SOLID
  5
11A
100
AcDbEntity
  8
dimensions
  6
CONTINUOUS
 62
    7
370
    0
100
AcDbTrace
 10
44.5
 20
15
 30
0
 11
44.79827906865671
 21
15.96889445442154
 31
0
 12
45.09614812234321
 22
15.81995992757829
 32
0
 13
45.09614812234321
 23
15.81995992757829
 33
0
  0
ENDBLK
  5
A4
330
A2
100
AcDbEntity
  8
0
100
AcDbBlockEnd
  0
BLOCK
  5
A6
330
A5
100
AcDbEntity
  8
0
100
AcDbBlockBegin
  2
*D26
 70
    1
 10
0
 20
0
  3
*D26
  1

  0
LINE
  5
11B
100
AcDbEntity
  8
dimensions
  6
ByBlock
 62
    0
370
   -2
100
AcDbLine
 10
6.000000000000005
 20
-10
 11
11
 21
-10
  0
SOLID
  5
11C
100
AcDbEntity
  8
dimensions
  6
ByBlock
 62
    0
370
   -2
100
AcDbTrace
 10
8.000000000000005
 20
-10
 30
0
 11
7.000000000000005
 21
-10.16651386310914
 31
0
 12
7.000000000000005
 22
-9.833486136890864
 32
0
 13
7.000000000000005
 23
-9.833486136890864
 33
0
  0
SOLID
  5
11D
100
AcDbEntity
  8
dimensions
  6
ByBlock
 62
    0
370
   -2
100
AcDbTrace
 10
8.999999999999998
 20
-10
 30
0
 11
9.999999999999998
 21
-9.833486136890864
 31
0
 12
9.999999999999998
 22
-10.16651386310914
 32
0
 13
9.999999999999998
 23
-10.16651386310914
 33
0
  0
MTEXT
  5
11E
100
AcDbEntity
  8
dimensions
  6
CONTINUOUS
 62
    0
370
   -2
100
AcDbMText
 10
10.5
 20
-9
 30
0
 40
1
 41
1
 71
    5
 72
    1
  1
10
  7
standard
210
0
220
0
230
1
 50
0
 73
    2
 44
1
  0
LINE
  5
11F
100
AcDbEntity
  8
dimensions
  6
ByBlock
 62
    0
370
   -2
100
AcDbLine
 10
8.000000000000005
 20
-8.699999999999999
 11
8.000000000000005
 21
-10.5
  0
LINE
  5
120
100
AcDbEntity
  8
dimensions
  6
ByBlock
 62
    0
370
   -2
100
AcDbLine
 10
8.999999999999998
 20
-4
 11
8.999999999999998
 21
-10.5
  0
ENDBLK
  5
A7
330
A5
100
AcDbEntity
  8
0
100
AcDbBlockEnd
  0
BLOCK
  5
A9
330
A8
100
AcDbEntity
  8
0
100
AcDbBlockBegin
  2
*D29
 70
    1
 10
0
 20
0
  3
*D29
  1

  0
LINE
  5
121
100
AcDbEntity
  8
dimensions
  6
ByBlock
 62
    0
370
   -2
100
AcDbLine
 10
44.4
 20
9
 11
49.5
 21
9
  0
SOLID
  5
122
100
AcDbEntity
  8
dimensions
  6
ByBlock
 62
    0
370
   -2
100
AcDbTrace
 10
46.4
 20
9
 30
0
 11
45.4
 21
8.833486136890864
 31
0
 12
45.4
 22
9.166513863109136
 32
0
 13
45.4
 23
9.166513863109136
 33
0
  0
SOLID
  5
123
100
AcDbEntity
  8
dimensions
  6
ByBlock
 62
    0
370
   -2
100
AcDbTrace
 10
47.5
 20
9
 30
0
 11
48.5
 21
9.166513863109136
 31
0
 12
48.5
 22
8.833486136890864
 32
0
 13
48.5
 23
8.833486136890864
 33
0
  0
MTEXT
  5
124
100
AcDbEntity
  8
dimensions
  6
CONTINUOUS
 62
    0
370
   -2
100
AcDbMText
 10
46.95
 20
10
 30
0
 40
1
 41
0.7777777777777777
 71
    5
 72
    1
  1
11
  7
standard
210
0
220
0
230
1
 50
0
 73
    2
 44
1
  0
LINE
  5
125
100
AcDbEntity
  8
dimensions
  6
ByBlock
 62
    0
370
   -2
100
AcDbLine
 10
46.4
 20
13
 11
46.4
 21
8.5
  0
LINE
  5
126
100
AcDbEntity
  8
dimensions
  6
ByBlock
 62
    0
370
   -2
100
AcDbLine
 10
47.5
 20
13
 11
47.5
 21
8.5
  0
ENDBLK
  5
AA
330
A8
100
AcDbEntity
  8
0
100
AcDbBlockEnd
  0
ENDSEC
  0
SECTION
  2
ENTITIES
  0
HATCH
  5
127
100
AcDbEntity
  8
body
  6
ByLayer
 62
  256
370
   -1
100
AcDbHatch
 10
0
 20
0
 30
0
210
0
220
0
230
1
  2
gost_stone
 70
    0
 71
    0
 91
    1
 92
    0
 93
    8
 72
    1
 10
11
 20
-5.5
 11
10.5
 21
-5.199999999999999
 72
    1
 10
10.5
 20
-5.199999999999999
 11
11.5
 21
-4.6
 72
    1
 10
11.5
 20
-4.6
 11
11
 21
-4.300000000000001
 72
    1
 10
11
 20
-4.300000000000001
 11
11
 21
-3
 72
    1
 10
11
 20
-3
 11
9
 21
-3
 72
    1
 10
9
 20
-3
 11
8.000000000000005
 21
-6.000000000000002
 72
    1
 10
8.000000000000005
 20
-6.000000000000002
 11
11
 21
-6
 72
    1
 10
11
 20
-6
 11
11
 21
-5.5
 97
    0
 75
    0
 76
    1
 52
1.570796326794897
 41
0.1
 77
    0
 78
    0
 98
    0
  0
HATCH
  5
128
100
AcDbEntity
  8
body
  6
ByLayer
 62
  256
370
   -1
100
AcDbHatch
 10
0
 20
0
 30
0
210
0
220
0
230
1
  2
gost_stone
 70
    0
 71
    0
 91
    1
 92
    0
 93
    8
 72
    1
 10
-1.600000000000004
 20
-4.6
 11
-1.100000000000004
 21
-4.300000000000001
 72
    1
 10
-1.100000000000004
 20
-4.300000000000001
 11
-1.100000000000004
 21
-3
 72
    1
 10
-1.100000000000004
 20
-3
 11
0.9000000000000001
 21
-3
 72
    1
 10
0.9000000000000001
 20
-3
 11
1.9
 21
-6
 72
    1
 10
1.9
 20
-6
 11
-1.100000000000004
 21
-6
 72
    1
 10
-1.100000000000004
 20
-6
 11
-1.100000000000004
 21
-5.5
 72
    1
 10
-1.100000000000004
 20
-5.5
 11
-0.6000000000000039
 21
-5.199999999999999
 72
    1
 10
-0.6000000000000039
 20
-5.199999999999999
 11
-1.600000000000004
 21
-4.6
 97
    0
 75
    0
 76
    1
 52
4.71238898038469
 41
0.1
 77
    0
 78
    0
 98
    0
  0
HATCH
  5
129
100
AcDbEntity
  8
body
  6
ByLayer
 62
  256
370
   -1
100
AcDbHatch
 10
0
 20
0
 30
0
210
0
220
0
230
1
  2
gost_concrete
 70
    0
 71
    0
 91
    1
 92
    0
 93
    4
 72
    1
 10
23.45
 20
11.9
 11
23
 21
11.9
 72
    1
 10
23
 20
11.9
 11
23
 21
11.4
 72
    1
 10
23
 20
11.4
 11
23.45
 21
11.4
 72
    1
 10
23.45
 20
11.4
 11
23.45
 21
11.9
 97
    0
 75
    0
 76
    1
 52
0
 41
0.1
 77
    0
 78
    0
 98
    0
  0
HATCH
  5
12A
100
AcDbEntity
  8
body
  6
ByLayer
 62
  256
370
   -1
100
AcDbHatch
 10
0
 20
0
 30
0
210
0
220
0
230
1
  2
gost_stone
 70
    0
 71
    0
 91
    1
 92
    0
 93
    8
 72
    1
 10
20
 20
9.9
 11
23
 21
11.9
 72
    1
 10
23
 20
11.9
 11
23
 21
7
 72
    1
 10
23
 20
7
 11
22.5
 21
7
 72
    1
 10
22.5
 20
7
 11
22.2
 21
7.5
 72
    1
 10
22.2
 20
7.5
 11
21.6
 21
6.5
 72
    1
 10
21.6
 20
6.5
 11
21.3
 21
7
 72
    1
 10
21.3
 20
7
 11
20
 21
7
 72
    1
 10
20
 20
7
 11
20
 21
9.9
 97
    0
 75
    0
 76
    1
 52
0
 41
0.1
 77
    0
 78
    0
 98
    0
  0
HATCH
  5
12B
100
AcDbEntity
  8
face
  6
ByLayer
 62
  256
370
   -1
100
AcDbHatch
 10
0
 20
0
 30
0
210
0
220
0
230
1
  2
gost_stone
 70
    0
 71
    0
 91
    1
 92
    0
 93
    4
 72
    1
 10
8.000000000000004
 20
-6.449999999999999
 11
8.000000000000005
 21
-7.699999999999999
 72
    1
 10
8.000000000000005
 20
-7.699999999999999
 11
11.00000000000001
 21
-7.699999999999999
 72
    1
 10
11.00000000000001
 20
-7.699999999999999
 11
11
 21
-6.449999999999999
 72
    1
 10
11
 20
-6.449999999999999
 11
8.000000000000004
 21
-6.449999999999999
 97
    0
 75
    0
 76
    1
 52
4.71238898038469
 41
0.1
 77
    0
 78
    0
 98
    0
  0
HATCH
  5
12C
100
AcDbEntity
  8
face
  6
ByLayer
 62
  256
370
   -1
100
AcDbHatch
 10
0
 20
0
 30
0
210
0
220
0
230
1
  2
gost_stone
 70
    0
 71
    0
 91
    1
 92
    0
 93
    4
 72
    1
 10
1.899999999999995
 20
-7.699999999999999
 11
-1.100000000000005
 21
-7.699999999999999
 72
    1
 10
-1.100000000000005
 20
-7.699999999999999
 11
-1.100000000000004
 21
-6.449999999999999
 72
    1
 10
-1.100000000000004
 20
-6.449999999999999
 11
1.899999999999996
 21
-6.449999999999999
 72
    1
 10
1.899999999999996
 20
-6.449999999999999
 11
1.899999999999995
 21
-7.699999999999999
 97
    0
 75
    0
 76
    1
 52
1.570796326794897
 41
0.1
 77
    0
 78
    0
 98
    0
  0
HATCH
  5
12D
100
AcDbEntity
  8
body
  6
ByLayer
 62
  256
370
   -1
100
AcDbHatch
 10
0
 20
0
 30
0
210
0
220
0
230
1
  2
gost_stone
 70
    0
 71
    0
 91
    1
 92
    0
 93
    4
 72
    1
 10
1.900000000000004
 20
-6.449999999999999
 11
1.400000000000004
 21
-6.449999999999999
 72
    1
 10
1.400000000000004
 20
-6.449999999999999
 11
1.400000000000004
 21
-6
 72
    1
 10
1.400000000000004
 20
-6
 11
1.900000000000004
 21
-6
 72
    1
 10
1.900000000000004
 20
-6
 11
1.900000000000004
 21
-6.449999999999999
 97
    0
 75
    0
 76
    1
 52
1.570796326794897
 41
0.1
 77
    0
 78
    0
 98
    0
  0
HATCH
  5
12E
100
AcDbEntity
  8
body
  6
ByLayer
 62
  256
370
   -1
100
AcDbHatch
 10
0
 20
0
 30
0
210
0
220
0
230
1
  2
gost_stone
 70
    0
 71
    0
 91
    1
 92
    0
 93
    4
 72
    1
 10
8
 20
-6.000000000000002
 11
8
 21
-6.450000000000001
 72
    1
 10
8
 20
-6.450000000000001
 11
8.5
 21
-6.450000000000001
 72
    1
 10
8.5
 20
-6.450000000000001
 11
8.5
 21
-6.000000000000002
 72
    1
 10
8.5
 20
-6.000000000000002
 11
8
 21
-6.000000000000002
 97
    0
 75
    0
 76
    1
 52
4.71238898038469
 41
0.1
 77
    0
 78
    0
 98
    0
  0
HATCH
  5
12F
100
AcDbEntity
  8
glass
  6
ByLayer
 62
  256
370
   -1
100
AcDbHatch
 10
0
 20
0
 30
0
210
0
220
0
230
1
  2
gost_glass1
 70
    0
 71
    0
 91
    1
 92
    0
 93
    4
 72
    1
 10
5.999999999999991
 20
-7.6
 11
5.999999999999991
 21
-6.799999999999988
 72
    1
 10
5.999999999999991
 20
-6.799999999999988
 11
7.9
 21
-6.799999999999988
 72
    1
 10
7.9
 20
-6.799999999999988
 11
7.9
 21
-7.6
 72
    1
 10
7.9
 20
-7.6
 11
5.999999999999991
 21
-7.6
 97
    0
 75
    0
 76
    1
 52
3.141592653589794
 41
0.1
 77
    0
 78
    0
 98
    0
  0
HATCH
  5
130
100
AcDbEntity
  8
glass
  6
ByLayer
 62
  256
370
   -1
100
AcDbHatch
 10
0
 20
0
 30
0
210
0
220
0
230
1
  2
gost_glass1
 70
    0
 71
    0
 91
    1
 92
    0
 93
    4
 72
    1
 10
5.9
 20
-6.799999999999988
 11
5.9
 21
-7.6
 72
    1
 10
5.9
 20
-7.6
 11
3.999999999999991
 21
-7.6
 72
    1
 10
3.999999999999991
 20
-7.6
 11
3.999999999999991
 21
-6.799999999999988
 72
    1
 10
3.999999999999991
 20
-6.799999999999988
 11
5.9
 21
-6.799999999999988
 97
    0
 75
    0
 76
    1
 52
3.141592653589794
 41
0.1
 77
    0
 78
    0
 98
    0
  0
HATCH
  5
131
100
AcDbEntity
  8
glass
  6
ByLayer
 62
  256
370
   -1
100
AcDbHatch
 10
0
 20
0
 30
0
210
0
220
0
230
1
  2
gost_glass1
 70
    0
 71
    0
 91
    1
 92
    0
 93
    4
 72
    1
 10
3.9
 20
-6.799999999999988
 11
3.9
 21
-7.6
 72
    1
 10
3.9
 20
-7.6
 11
1.999999999999991
 21
-7.6
 72
    1
 10
1.999999999999991
 20
-7.6
 11
1.999999999999991
 21
-6.799999999999988
 72
    1
 10
1.999999999999991
 20
-6.799999999999988
 11
3.9
 21
-6.799999999999988
 97
    0
 75
    0
 76
    1
 52
3.141592653589794
 41
0.1
 77
    0
 78
    0
 98
    0
  0
HATCH
  5
132
100
AcDbEntity
  8
glass
  6
ByLayer
 62
  256
370
   -1
100
AcDbHatch
 10
0
 20
0
 30
0
210
0
220
0
230
1
  2
gost_glass1
 70
    0
 71
    0
 91
    1
 92
    0
 93
    4
 72
    1
 10
40.9
 20
13.90000000000001
 11
40.9
 21
12
 72
    1
 10
40.9
 20
12
 11
39
 21
12
 72
    1
 10
39
 20
12
 11
39
 21
13.90000000000001
 72
    1
 10
39
 20
13.90000000000001
 11
40.9
 21
13.90000000000001
 97
    0
 75
    0
 76
    1
 52
1.570796326794897
 41
0.1
 77
    0
 78
    0
 98
    0
  0
HATCH
  5
133
100
AcDbEntity
  8
glass
  6
ByLayer
 62
  256
370
   -1
100
AcDbHatch
 10
0
 20
0
 30
0
210
0
220
0
230
1
  2
gost_glass1
 70
    0
 71
    0
 91
    1
 92
    0
 93
    4
 72
    1
 10
41
 20
12
 11
41
 21
13.90000000000001
 72
    1
 10
41
 20
13.90000000000001
 11
42.9
 21
13.90000000000001
 72
    1
 10
42.9
 20
13.90000000000001
 11
42.9
 21
12
 72
    1
 10
42.9
 20
12
 11
41
 21
12
 97
    0
 75
    0
 76
    1
 52
1.570796326794897
 41
0.1
 77
    0
 78
    0
 98
    0
  0
HATCH
  5
134
100
AcDbEntity
  8
glass
  6
ByLayer
 62
  256
370
   -1
100
AcDbHatch
 10
0
 20
0
 30
0
210
0
220
0
230
1
  2
gost_glass1
 70
    0
 71
    0
 91
    1
 92
    0
 93
    4
 72
    1
 10
43
 20
12
 11
43
 21
13.90000000000001
 72
    1
 10
43
 20
13.90000000000001
 11
44.9
 21
13.90000000000001
 72
    1
 10
44.9
 20
13.90000000000001
 11
44.9
 21
12.00000000000001
 72
    1
 10
44.9
 20
12.00000000000001
 11
43
 21
12
 97
    0
 75
    0
 76
    1
 52
1.570796326794897
 41
0.1
 77
    0
 78
    0
 98
    0
  0
HATCH
  5
135
100
AcDbEntity
  8
face
  6
ByLayer
 62
  256
370
   -1
100
AcDbHatch
 10
0
 20
0
 30
0
210
0
220
0
230
1
  2
gost_stone
 70
    0
 71
    0
 91
    1
 92
    0
 93
    4
 72
    1
 10
23.45
 20
11.9
 11
24.7
 21
11.9
 72
    1
 10
24.7
 20
11.9
 11
24.7
 21
7
 72
    1
 10
24.7
 20
7
 11
23.45
 21
7
 72
    1
 10
23.45
 20
7
 11
23.45
 21
11.9
 97
    0
 75
    0
 76
    1
 52
1.570796326794897
 41
0.1
 77
    0
 78
    0
 98
    0
  0
HATCH
  5
136
100
AcDbEntity
  8
glass
  6
ByLayer
 62
  256
370
   -1
100
AcDbHatch
 10
0
 20
0
 30
0
210
0
220
0
230
1
  2
gost_glass1
 70
    0
 71
    0
 91
    1
 92
    0
 93
    4
 72
    1
 10
24.59999999999999
 20
13.90000000000001
 11
24.59999999999999
 21
12
 72
    1
 10
24.59999999999999
 20
12
 11
23.79999999999998
 21
12
 72
    1
 10
23.79999999999998
 20
12
 11
23.79999999999998
 21
13.90000000000001
 72
    1
 10
23.79999999999998
 20
13.90000000000001
 11
24.59999999999999
 21
13.90000000000001
 97
    0
 75
    0
 76
    1
 52
1.570796326794897
 41
0.1
 77
    0
 78
    0
 98
    0
  0
HATCH
  5
137
100
AcDbEntity
  8
glass
  6
ByLayer
 62
  256
370
   -1
100
AcDbHatch
 10
0
 20
0
 30
0
210
0
220
0
230
1
  2
gost_glass1
 70
    0
 71
    0
 91
    1
 92
    0
 93
    4
 72
    1
 10
7.9
 20
13.90000000000001
 11
7.9
 21
12.00000000000001
 72
    1
 10
7.9
 20
12.00000000000001
 11
6
 21
12
 72
    1
 10
6
 20
12
 11
6
 21
13.90000000000001
 72
    1
 10
6
 20
13.90000000000001
 11
7.9
 21
13.90000000000001
 97
    0
 75
    0
 76
    1
 52
1.570796326794897
 41
0.1
 77
    0
 78
    0
 98
    0
  0
HATCH
  5
138
100
AcDbEntity
  8
glass
  6
ByLayer
 62
  256
370
   -1
100
AcDbHatch
 10
0
 20
0
 30
0
210
0
220
0
230
1
  2
gost_glass1
 70
    0
 71
    0
 91
    1
 92
    0
 93
    4
 72
    1
 10
5.9
 20
13.90000000000001
 11
5.9
 21
12
 72
    1
 10
5.9
 20
12
 11
4
 21
12
 72
    1
 10
4
 20
12
 11
4
 21
13.90000000000001
 72
    1
 10
4
 20
13.90000000000001
 11
5.9
 21
13.90000000000001
 97
    0
 75
    0
 76
    1
 52
1.570796326794897
 41
0.1
 77
    0
 78
    0
 98
    0
  0
HATCH
  5
139
100
AcDbEntity
  8
glass
  6
ByLayer
 62
  256
370
   -1
100
AcDbHatch
 10
0
 20
0
 30
0
210
0
220
0
230
1
  2
gost_glass1
 70
    0
 71
    0
 91
    1
 92
    0
 93
    4
 72
    1
 10
2
 20
12
 11
2
 21
13.90000000000001
 72
    1
 10
2
 20
13.90000000000001
 11
3.9
 21
13.90000000000001
 72
    1
 10
3.9
 20
13.90000000000001
 11
3.9
 21
12
 72
    1
 10
3.9
 20
12
 11
2
 21
12
 97
    0
 75
    0
 76
    1
 52
1.570796326794897
 41
0.1
 77
    0
 78
    0
 98
    0
  0
HATCH
  5
13A
100
AcDbEntity
  8
body
  6
ByLayer
 62
  256
370
   -1
100
AcDbHatch
 10
0
 20
0
 30
0
210
0
220
0
230
1
  2
gost_stone
 70
    0
 71
    0
 91
    1
 92
    0
 93
    4
 72
    1
 10
23
 20
14
 11
23
 21
14.5
 72
    1
 10
23
 20
14.5
 11
23.45
 21
14.5
 72
    1
 10
23.45
 20
14.5
 11
23.45
 21
14
 72
    1
 10
23.45
 20
14
 11
23
 21
14
 97
    0
 75
    0
 76
    1
 52
0
 41
0.1
 77
    0
 78
    0
 98
    0
  0
HATCH
  5
13B
100
AcDbEntity
  8
face
  6
ByLayer
 62
  256
370
   -1
100
AcDbHatch
 10
0
 20
0
 30
0
210
0
220
0
230
1
  2
gost_stone
 70
    0
 71
    0
 91
    1
 92
    0
 93
    4
 72
    1
 10
24.7
 20
18
 11
24.7
 21
14
 72
    1
 10
24.7
 20
14
 11
23.45
 21
14
 72
    1
 10
23.45
 20
14
 11
23.45
 21
18
 72
    1
 10
23.45
 20
18
 11
24.7
 21
18
 97
    0
 75
    0
 76
    1
 52
1.570796326794897
 41
0.1
 77
    0
 78
    0
 98
    0
  0
HATCH
  5
13C
100
AcDbEntity
  8
u-block
  6
ByLayer
 62
  256
370
   -1
100
AcDbHatch
 10
0
 20
0
 30
0
210
0
220
0
230
1
  2
gost_stone
 70
    0
 71
    0
 91
    1
 92
    0
 93
    4
 72
    1
 10
20
 20
16
 11
23
 21
16
 72
    1
 10
23
 20
16
 11
23
 21
14
 72
    1
 10
23
 20
14
 11
20
 21
14
 72
    1
 10
20
 20
14
 11
20
 21
16
 97
    0
 75
    0
 76
    1
 52
0
 41
0.1
 77
    0
 78
    0
 98
    0
  0
HATCH
  5
13D
100
AcDbEntity
  8
body
  6
ByLayer
 62
  256
370
   -1
100
AcDbHatch
 10
0
 20
0
 30
0
210
0
220
0
230
1
  2
gost_stone
 70
    0
 71
    0
 91
    1
 92
    0
 93
    8
 72
    1
 10
23
 20
16
 11
23
 21
18
 72
    1
 10
23
 20
18
 11
22.5
 21
18
 72
    1
 10
22.5
 20
18
 11
22.1
 21
18.6
 72
    1
 10
22.1
 20
18.6
 11
21.6
 21
17.5
 72
    1
 10
21.6
 20
17.5
 11
21.3
 21
18
 72
    1
 10
21.3
 20
18
 11
20
 21
18
 72
    1
 10
20
 20
18
 11
20
 21
16
 72
    1
 10
20
 20
16
 11
23
 21
16
 97
    0
 75
    0
 76
    1
 52
0
 41
0.1
 77
    0
 78
    0
 98
    0
  0
LINE
  5
13E
100
AcDbEntity
  8
face
  6
ByLayer
 62
  256
370
   -1
100
AcDbLine
 10
23.45
 20
18
 11
23
 21
18
  0
MTEXT
  5
13F
100
AcDbEntity
  8
dimensions
  6
ByLayer
 62
  256
370
   -1
100
AcDbMText
 10
28.22222222222218
 20
27.5
 30
0
 40
1
 41
21.19444444444454
 71
    4
 72
    1
  1
   5  \P i i \P. i AEROC.
  7
cyrillic_ii
210
0
220
0
230
1
 50
0
 73
    2
 44
1
  0
LWPOLYLINE
  5
140
100
AcDbEntity
  8
body
  6
ByLayer
 62
  256
370
   -1
100
AcDbPolyline
 90
    9
 70
    0
 43
0
 10
20
 20
16
 10
23
 20
16
 10
23
 20
18
 10
22.5
 20
18
 10
22.1
 20
18.6
 10
21.6
 20
17.5
 10
21.3
 20
18
 10
20
 20
18
 10
20
 20
16
  0
LWPOLYLINE
  5
141
100
AcDbEntity
  8
u-block
  6
ByLayer
 62
  256
370
   -1
100
AcDbPolyline
 90
    4
 70
    1
 43
0
 10
20
 20
16
 10
23
 20
16
 10
23
 20
14
 10
20
 20
14
  0
LINE
  5
142
100
AcDbEntity
  8
dimensions
  6
ByLayer
 62
  256
370
   70
100
AcDbLine
 10
21
 20
21
 11
24
 21
21
  0
MTEXT
  5
143
100
AcDbEntity
  8
dimensions
  6
ByLayer
 62
  256
370
   -1
100
AcDbMText
 10
22.42222222222222
 20
21.7
 30
0
 40
1
 41
2.222222222222222
 71
    5
 72
    1
  1
B-B
  7
unicode
210
0
220
0
230
1
 50
360
 73
    2
 44
1
  0
LEADER
  5
144
100
AcDbEntity
  8
dimensions
  6
ByLayer
 62
  256
370
   -1
100
AcDbLeader
  3
Standard
 71
    1
 72
    0
 73
    3
 74
    0
 75
    0
 40
1
 41
10
 76
3
 76
3
 10
38
 20
15
 30
0
 10
41
 20
20
 30
0
 10
47
 20
20
 30
0
  0
MTEXT
  5
145
100
AcDbEntity
  8
dimensions
  6
ByLayer
 62
  256
370
   -1
100
AcDbMText
 10
19.06250000000004
 20
31.75
 30
0
 40
1.5
 41
14.79166666666674
 71
    5
 72
    1
  1
i i
  7
cyrillic_ii
210
0
220
0
230
1
 50
0
 73
    2
 44
1
  0
LWPOLYLINE
  5
146
100
AcDbEntity
  8
face
  6
ByLayer
 62
  256
370
   -1
100
AcDbPolyline
 90
    4
 70
    1
 43
0
 10
23.45
 20
18
 10
24.7
 20
18
 10
24.7
 20
14
 10
23.45
 20
14
  0
LWPOLYLINE
  5
147
100
AcDbEntity
  8
body
  6
ByLayer
 62
  256
370
   -1
100
AcDbPolyline
 90
    4
 70
    1
 43
0
 10
23
 20
14.5
 10
23.45
 20
14.5
 10
23.45
 20
14
 10
23
 20
14
  0
LEADER
  5
148
100
AcDbEntity
  8
dimensions
  6
ByLayer
 62
  256
370
   -1
100
AcDbLeader
  3
Standard
 71
    1
 72
    0
 73
    3
 74
    0
 75
    0
 40
1
 41
10
 76
3
 76
3
 10
23.2
 20
14.3
 30
0
 10
27
 20
23.8
 30
0
 10
51
 20
23.8
 30
0
  0
LINE
  5
149
100
AcDbEntity
  8
dimensions
  6
ByLayer
 62
  256
370
   70
100
AcDbLine
 10
13
 20
13
 11
14
 21
13
  0
LEADER
  5
14A
100
AcDbEntity
  8
dimensions
  6
ByLayer
 62
  256
370
   -1
100
AcDbLeader
  3
Standard
 71
    1
 72
    0
 73
    3
 74
    0
 75
    0
 40
1
 41
10
 76
2
 76
2
 10
13.3
 20
13
 30
0
 10
13.3
 20
15
 30
0
  0
MTEXT
  5
14B
100
AcDbEntity
  8
dimensions
  6
ByLayer
 62
  256
370
   -1
100
AcDbMText
 10
14
 20
14
 30
0
 40
1
 41
0.6666666666666666
 71
    5
 72
    1
  1
A
  7
unicode
210
0
220
0
230
1
 50
360
 73
    2
 44
1
  0
LINE
  5
14C
100
AcDbEntity
  8
dimensions
  6
ByLayer
 62
  256
370
   70
100
AcDbLine
 10
5
 20
21
 11
5
 21
20
  0
LEADER
  5
14D
100
AcDbEntity
  8
dimensions
  6
ByLayer
 62
  256
370
   -1
100
AcDbLeader
  3
Standard
 71
    1
 72
    0
 73
    3
 74
    0
 75
    0
 40
1
 41
10
 76
2
 76
2
 10
5
 20
20.3
 30
0
 10
3
 20
20.3
 30
0
  0
MTEXT
  5
14E
100
AcDbEntity
  8
dimensions
  6
ByLayer
 62
  256
370
   -1
100
AcDbMText
 10
3.477777777777778
 20
21
 30
0
 40
1
 41
0.5555555555555556
 71
    5
 72
    1
  1
B
  7
unicode
210
0
220
0
230
1
 50
0
 73
    2
 44
1
  0
LINE
  5
14F
100
AcDbEntity
  8
dimensions
  6
ByLayer
 62
  256
370
   70
100
AcDbLine
 10
-6.1
 20
13
 11
-7.1
 21
13
  0
LEADER
  5
150
100
AcDbEntity
  8
dimensions
  6
ByLayer
 62
  256
370
   -1
100
AcDbLeader
  3
Standard
 71
    1
 72
    0
 73
    3
 74
    0
 75
    0
 40
1
 41
10
 76
2
 76
2
 10
-6.4
 20
13
 30
0
 10
-6.4
 20
15
 30
0
  0
MTEXT
  5
151
100
AcDbEntity
  8
dimensions
  6
ByLayer
 62
  256
370
   -1
100
AcDbMText
 10
-7.1
 20
14
 30
0
 40
1
 41
0.6666666666666666
 71
    5
 72
    1
  1
A
  7
unicode
210
0
220
0
230
1
 50
0
 73
    2
 44
1
  0
LEADER
  5
152
100
AcDbEntity
  8
dimensions
  6
ByLayer
 62
  256
370
   -1
100
AcDbLeader
  3
Standard
 71
    1
 72
    0
 73
    3
 74
    0
 75
    0
 40
1
 41
10
 76
0
 76
0
  0
LEADER
  5
153
100
AcDbEntity
  8
dimensions
  6
ByLayer
 62
  256
370
   -1
100
AcDbLeader
  3
Standard
 71
    1
 72
    0
 73
    3
 74
    0
 75
    0
 40
1
 41
10
 76
0
 76
0
  0
LWPOLYLINE
  5
154
100
AcDbEntity
  8
face
  6
ByLayer
 62
  256
370
   -1
100
AcDbPolyline
 90
    4
 70
    1
 43
0
 10
7.999999999999998
 20
14
 10
1.9
 20
14
 10
1.9
 20
11.9
 10
7.999999999999998
 20
11.9
  0
LWPOLYLINE
  5
155
100
AcDbEntity
  8
body
  6
DASHED2
 62
  256
370
   -1
100
AcDbPolyline
 90
    4
 70
    1
 43
0
 10
1.4
 20
11.4
 10
8.5
 20
11.4
 10
8.5
 20
14.5
 10
1.4
 20
14.5
  0
LWPOLYLINE
  5
156
100
AcDbEntity
  8
glass
  6
ByLayer
 62
  256
370
   -1
100
AcDbPolyline
 90
    4
 70
    1
 43
0
 10
2
 20
12
 10
2
 20
13.90000000000001
 10
3.9
 20
13.90000000000001
 10
3.9
 20
12
  0
LWPOLYLINE
  5
157
100
AcDbEntity
  8
glass
  6
ByLayer
 62
  256
370
   -1
100
AcDbPolyline
 90
    4
 70
    1
 43
0
 10
4
 20
12
 10
4
 20
13.90000000000001
 10
5.9
 20
13.90000000000001
 10
5.9
 20
12
  0
LWPOLYLINE
  5
158
100
AcDbEntity
  8
glass
  6
ByLayer
 62
  256
370
   -1
100
AcDbPolyline
 90
    4
 70
    1
 43
0
 10
6
 20
12
 10
6
 20
13.90000000000001
 10
7.9
 20
13.90000000000001
 10
7.9
 20
12.00000000000001
  0
LEADER
  5
159
100
AcDbEntity
  8
dimensions
  6
ByLayer
 62
  256
370
   -1
100
AcDbLeader
  3
Standard
 71
    1
 72
    0
 73
    3
 74
    0
 75
    0
 40
1
 41
10
 76
3
 76
3
 10
21.1
 20
15
 30
0
 10
18
 20
17
 30
0
 10
16
 20
17
 30
0
  0
LEADER
  5
15A
100
AcDbEntity
  8
dimensions
  6
ByLayer
 62
  256
370
   -1
100
AcDbLeader
  3
Standard
 71
    1
 72
    0
 73
    3
 74
    0
 75
    0
 40
1
 41
10
 76
3
 76
3
 10
8.300000000000001
 20
13.5
 30
0
 10
13
 20
23.8
 30
0
 10
27
 20
23.8
 30
0
  0
LWPOLYLINE
  5
15B
100
AcDbEntity
  8
glass
  6
ByLayer
 62
  256
370
   -1
100
AcDbPolyline
 90
    4
 70
    1
 43
0
 10
23.79999999999998
 20
12
 10
23.79999999999998
 20
13.90000000000001
 10
24.59999999999999
 20
13.90000000000001
 10
24.59999999999999
 20
12
  0
LINE
  5
15C
100
AcDbEntity
  8
face
  6
ByLayer
 62
  256
370
   -1
100
AcDbLine
 10
23.45
 20
14
 11
23.45
 21
11.9
  0
LINE
  5
15D
100
AcDbEntity
  8
face
  6
ByLayer
 62
  256
370
   -1
100
AcDbLine
 10
24.7
 20
14
 11
24.7
 21
11.9
  0
DIMENSION
  5
15E
100
AcDbEntity
  8
dimensions
  6
ByLayer
 62
  256
370
   -1
100
AcDbDimension
  2
*D10
 10
27
 20
-5.592245199601805e-16
 30
0
 11
26
 21
12.95
 31
0
 70
   32
  1
<>+1
 71
    5
  3
Standard
 53
0
210
0
220
0
230
1
100
AcDbAlignedDimension
 13
24.7
 23
14
 33
0
 14
24.7
 24
11.9
 34
0
 50
90
100
AcDbRotatedDimension
  0
LINE
  5
15F
100
AcDbEntity
  8
face
  6
ByLayer
 62
  256
370
   -1
100
AcDbLine
 10
23.45
 20
7
 11
23
 21
7
  0
LWPOLYLINE
  5
160
100
AcDbEntity
  8
face
  6
ByLayer
 62
  256
370
   -1
100
AcDbPolyline
 90
    4
 70
    1
 43
0
 10
23.45
 20
11.9
 10
24.7
 20
11.9
 10
24.7
 20
7
 10
23.45
 20
7
  0
LINE
  5
161
100
AcDbEntity
  8
dimensions
  6
ByLayer
 62
  256
370
   70
100
AcDbLine
 10
5
 20
5
 11
5
 21
4
  0
LEADER
  5
162
100
AcDbEntity
  8
dimensions
  6
ByLayer
 62
  256
370
   -1
100
AcDbLeader
  3
Standard
 71
    1
 72
    0
 73
    3
 74
    0
 75
    0
 40
1
 41
10
 76
2
 76
2
 10
5
 20
4.699999999999999
 30
0
 10
3
 20
4.699999999999999
 30
0
  0
MTEXT
  5
163
100
AcDbEntity
  8
dimensions
  6
ByLayer
 62
  256
370
   -1
100
AcDbMText
 10
3.5
 20
4
 30
0
 40
1
 41
0.5555555555555556
 71
    5
 72
    1
  1
B
  7
unicode
210
0
220
0
230
1
 50
0
 73
    2
 44
1
  0
LWPOLYLINE
  5
164
100
AcDbEntity
  8
body
  6
ByLayer
 62
  256
370
   -1
100
AcDbPolyline
 90
    4
 70
    1
 43
0
 10
45
 20
14
 10
38.9
 20
14
 10
38.9
 20
11.9
 10
45
 20
11.9
  0
LWPOLYLINE
  5
165
100
AcDbEntity
  8
body
  6
DASHED2
 62
  256
370
   -1
100
AcDbPolyline
 90
    4
 70
    1
 43
0
 10
38.4
 20
11.4
 10
45.5
 20
11.4
 10
45.5
 20
14.5
 10
38.4
 20
14.5
  0
LWPOLYLINE
  5
166
100
AcDbEntity
  8
glass
  6
ByLayer
 62
  256
370
   -1
100
AcDbPolyline
 90
    4
 70
    1
 43
0
 10
39
 20
12
 10
39
 20
13.90000000000001
 10
40.9
 20
13.90000000000001
 10
40.9
 20
12
  0
LWPOLYLINE
  5
167
100
AcDbEntity
  8
glass
  6
ByLayer
 62
  256
370
   -1
100
AcDbPolyline
 90
    4
 70
    1
 43
0
 10
41
 20
12
 10
41
 20
13.90000000000001
 10
42.9
 20
13.90000000000001
 10
42.9
 20
12
  0
LWPOLYLINE
  5
168
100
AcDbEntity
  8
glass
  6
ByLayer
 62
  256
370
   -1
100
AcDbPolyline
 90
    4
 70
    1
 43
0
 10
43
 20
12
 10
43
 20
13.90000000000001
 10
44.9
 20
13.90000000000001
 10
44.9
 20
12.00000000000001
  0
LWPOLYLINE
  5
169
100
AcDbEntity
  8
face
  6
CONTINUOUS
 62
    3
370
   13
100
AcDbPolyline
 90
   21
 70
    0
 43
0
 10
-0.9999999999999993
 20
18
 10
4
 20
18
 10
4.5
 20
19
 10
5.5
 20
17
 10
6
 20
18
 10
11
 20
18
 10
11
 20
14
 10
10
 20
13.5
 10
12
 20
12.5
 10
11
 20
12
 10
11
 20
7
 10
6
 20
7
 10
5.5
 20
8
 10
4.5
 20
6
 10
4
 20
7
 10
-0.9999999999999993
 20
7
 10
-0.9999999999999993
 20
12
 10
-2.1
 20
12.5
 10
8.881784197001252e-16
 20
13.5
 10
-0.9999999999999993
 20
14
 10
-0.9999999999999993
 20
18
  0
MTEXT
  5
16A
100
AcDbEntity
  8
dimensions
  6
ByLayer
 62
  256
370
   -1
100
AcDbMText
 10
48.64444444444444
 20
20.4
 30
0
 40
1
 41
4.333333333333333
 71
    7
 72
    1
  1
u-
  7
unicode
210
0
220
0
230
1
 50
360
 73
    2
 44
1
  0
LEADER
  5
16B
100
AcDbEntity
  8
dimensions
  6
ByLayer
 62
  256
370
   -1
100
AcDbLeader
  3
Standard
 71
    1
 72
    0
 73
    3
 74
    0
 75
    0
 40
1
 41
10
 76
3
 76
3
 10
44.5
 20
15
 30
0
 10
47
 20
20
 30
0
 10
54.4
 20
20
 30
0
  0
LINE
  5
16C
100
AcDbEntity
  8
dimensions
  6
ByLayer
 62
  256
370
   70
100
AcDbLine
 10
34
 20
21
 11
47
 21
21
  0
MTEXT
  5
16D
100
AcDbEntity
  8
dimensions
  6
ByLayer
 62
  256
370
   -1
100
AcDbMText
 10
40.32166666666667
 20
21.8
 30
0
 40
1
 41
11.66555555555556
 71
    5
 72
    1
  1
 (. I)
  7
unicode
210
0
220
0
230
1
 50
360
 73
    2
 44
1
  0
LINE
  5
16E
100
AcDbEntity
  8
dimensions
  6
ByLayer
 62
  256
370
   -1
100
AcDbLine
 10
11.4
 20
30.7
 11
26.7
 21
30.7
  0
LEADER
  5
16F
100
AcDbEntity
  8
dimensions
  6
ByLayer
 62
  256
370
   -1
100
AcDbLeader
  3
Standard
 71
    1
 72
    0
 73
    3
 74
    0
 75
    0
 40
1
 41
10
 76
2
 76
2
 10
27
 20
11.9
 30
0
 10
27
 20
2.9
 30
0
  0
LINE
  5
170
100
AcDbEntity
  8
face
  6
ByLayer
 62
  256
370
   -1
100
AcDbLine
 10
11
 20
-6.449999999999999
 11
11
 21
-6
  0
LWPOLYLINE
  5
171
100
AcDbEntity
  8
face
  6
ByLayer
 62
  256
370
   -1
100
AcDbPolyline
 90
    4
 70
    1
 43
0
 10
8.000000000000004
 20
-6.449999999999999
 10
8.000000000000005
 20
-7.699999999999999
 10
11.00000000000001
 20
-7.699999999999999
 10
11
 20
-6.449999999999999
  0
LINE
  5
172
100
AcDbEntity
  8
face
  6
ByLayer
 62
  256
370
   -1
100
AcDbLine
 10
-1.100000000000004
 20
-6.449999999999999
 11
-1.100000000000004
 21
-6
  0
LWPOLYLINE
  5
173
100
AcDbEntity
  8
face
  6
ByLayer
 62
  256
370
   -1
100
AcDbPolyline
 90
    4
 70
    1
 43
0
 10
1.899999999999996
 20
-6.449999999999999
 10
1.899999999999995
 20
-7.699999999999999
 10
-1.100000000000005
 20
-7.699999999999999
 10
-1.100000000000004
 20
-6.449999999999999
  0
LINE
  5
174
100
AcDbEntity
  8
face
  6
ByLayer
 62
  256
370
   -1
100
AcDbLine
 10
1.899999999999996
 20
-6.449999999999999
 11
8.000000000000004
 21
-6.449999999999999
  0
LINE
  5
175
100
AcDbEntity
  8
face
  6
ByLayer
 62
  256
370
   -1
100
AcDbLine
 10
8.000000000000005
 20
-7.699999999999999
 11
1.899999999999995
 21
-7.699999999999999
  0
DIMENSION
  5
176
100
AcDbEntity
  8
dimensions
  6
ByLayer
 62
  256
370
   -1
100
AcDbDimension
  2
*D14
 10
8.000000000000005
 20
-10
 30
0
 11
4.950000000000003
 21
-9
 31
0
 70
   32
 71
    5
  3
Standard
 53
0
210
0
220
0
230
1
100
AcDbAlignedDimension
 13
1.9
 23
-7.699999999999999
 33
0
 14
8.000000000000005
 24
-7.699999999999999
 34
0
100
AcDbRotatedDimension
  0
LINE
  5
177
100
AcDbEntity
  8
dimensions
  6
ByLayer
 62
  256
370
   70
100
AcDbLine
 10
4
 20
1
 11
7
 21
1
  0
MTEXT
  5
178
100
AcDbEntity
  8
dimensions
  6
ByLayer
 62
  256
370
   -1
100
AcDbMText
 10
5.422222222222224
 20
1.699999999999999
 30
0
 40
1
 41
2.444444444444445
 71
    5
 72
    1
  1
A-A
  7
unicode
210
0
220
0
230
1
 50
360
 73
    2
 44
1
  0
LWPOLYLINE
  5
179
100
AcDbEntity
  8
body
  6
ByLayer
 62
  256
370
   -1
100
AcDbPolyline
 90
    4
 70
    1
 43
0
 10
1.900000000000004
 20
-6
 10
1.900000000000004
 20
-6.449999999999999
 10
1.400000000000004
 20
-6.449999999999999
 10
1.400000000000004
 20
-6
  0
LWPOLYLINE
  5
17A
100
AcDbEntity
  8
body
  6
ByLayer
 62
  256
370
   -1
100
AcDbPolyline
 90
    4
 70
    1
 43
0
 10
8
 20
-6.000000000000002
 10
8
 20
-6.450000000000001
 10
8.5
 20
-6.450000000000001
 10
8.5
 20
-6.000000000000002
  0
LINE
  5
17B
100
AcDbEntity
  8
body
  6
ByLayer
 62
  256
370
   -1
100
AcDbLine
 10
8.000000000000005
 20
-6.000000000000002
 11
1.900000000000004
 21
-6
  0
LWPOLYLINE
  5
17C
100
AcDbEntity
  8
glass
  6
ByLayer
 62
  256
370
   -1
100
AcDbPolyline
 90
    4
 70
    1
 43
0
 10
7.9
 20
-7.6
 10
5.999999999999991
 20
-7.6
 10
5.999999999999991
 20
-6.799999999999988
 10
7.9
 20
-6.799999999999988
  0
LWPOLYLINE
  5
17D
100
AcDbEntity
  8
glass
  6
ByLayer
 62
  256
370
   -1
100
AcDbPolyline
 90
    4
 70
    1
 43
0
 10
5.9
 20
-7.6
 10
3.999999999999991
 20
-7.6
 10
3.999999999999991
 20
-6.799999999999988
 10
5.9
 20
-6.799999999999988
  0
LWPOLYLINE
  5
17E
100
AcDbEntity
  8
glass
  6
ByLayer
 62
  256
370
   -1
100
AcDbPolyline
 90
    4
 70
    1
 43
0
 10
3.9
 20
-7.6
 10
1.999999999999991
 20
-7.6
 10
1.999999999999991
 20
-6.799999999999988
 10
3.9
 20
-6.799999999999988
  0
DIMENSION
  5
17F
100
AcDbEntity
  8
dimensions
  6
ByLayer
 62
  256
370
   -1
100
AcDbDimension
  2
*D15
 10
-3
 20
-7.6
 30
0
 11
-4
 21
-7.649999999999999
 31
0
 70
   32
  1
<>+0,5
 71
    5
 72
    0
  3
Standard
 53
0
210
0
220
0
230
1
100
AcDbAlignedDimension
 13
1.900000000000004
 23
-7.699999999999998
 33
0
 14
1.999999999999991
 24
-7.6
 34
0
 50
90
100
AcDbRotatedDimension
  0
MTEXT
  5
180
100
AcDbEntity
  8
dimensions
  6
ByLayer
 62
  256
370
   -1
100
AcDbMText
 10
26.5
 20
2.499999999999998
 30
0
 40
1
 41
8.166666666666666
 71
    6
 72
    1
  1
i \P\P180%%P2 
  7
unicode
210
0
220
0
230
1
 50
360
 73
    2
 44
1
  0
LWPOLYLINE
  5
181
100
AcDbEntity
  8
body
  6
CONTINUOUS
 62
  256
370
   13
100
AcDbPolyline
 90
   21
 70
    0
 43
0
 10
35
 20
18
 10
41.4
 20
18
 10
41.7
 20
18.5
 10
42.3
 20
17.5
 10
42.6
 20
18
 10
49
 20
18
 10
49.00000000000001
 20
13.6
 10
48.50000000000001
 20
13.3
 10
49.50000000000001
 20
12.7
 10
49.00000000000001
 20
12.4
 10
49
 20
7.000000000000001
 10
42.6
 20
7.000000000000001
 10
42.3
 20
7.500000000000001
 10
41.7
 20
6.500000000000001
 10
41.4
 20
7.000000000000001
 10
35
 20
7.000000000000004
 10
35
 20
12.4
 10
34.5
 20
12.7
 10
35.5
 20
13.3
 10
35
 20
13.6
 10
35
 20
18
  0
LWPOLYLINE
  5
182
100
AcDbEntity
  8
face
  6
ByLayer
 62
  256
370
   -1
100
AcDbPolyline
 90
    4
 70
    1
 43
0
 10
1.6
 20
14
 10
8.300000000000001
 20
14
 10
8.300000000000001
 20
14.9
 10
1.6
 20
14.9
  0
DIMENSION
  5
183
100
AcDbEntity
  8
dimensions
  6
ByLayer
 62
  256
370
   -1
100
AcDbDimension
  2
*D16
 10
-1.999999999999999
 20
14.9
 30
0
 11
-2.999999999999999
 21
14.45
 31
0
 70
   32
 71
    5
 72
    0
  3
Standard
 53
0
210
0
220
0
230
1
100
AcDbAlignedDimension
 13
1.6
 23
14
 33
0
 14
1.6
 24
14.9
 34
0
 50
90
100
AcDbRotatedDimension
  0
DIMENSION
  5
184
100
AcDbEntity
  8
dimensions
  6
ByLayer
 62
  256
370
   -1
100
AcDbDimension
  2
*D17
 10
-4
 20
14
 30
0
 11
-5
 21
12.95
 31
0
 70
   32
  1
<>+1
 71
    5
 72
    0
  3
Standard
 53
0
210
0
220
0
230
1
100
AcDbAlignedDimension
 13
1.9
 23
11.9
 33
0
 14
1.9
 24
14
 34
0
 50
90
100
AcDbRotatedDimension
  0
DIMENSION
  5
185
100
AcDbEntity
  8
dimensions
  6
ByLayer
 62
  256
370
   -1
100
AcDbDimension
  2
*D18
 10
9
 20
9
 30
0
 11
4.949999999999999
 21
10
 31
0
 70
   32
 71
    5
  3
Standard
 53
0
210
0
220
0
230
1
100
AcDbAlignedDimension
 13
1.9
 23
12.66999999999999
 33
0
 14
7.999999999999999
 24
12.77
 34
0
100
AcDbRotatedDimension
  0
DIMENSION
  5
186
100
AcDbEntity
  8
dimensions
  6
ByLayer
 62
  256
370
   -1
100
AcDbDimension
  2
*D19
 10
8.300000000000001
 20
23
 30
0
 11
4.95
 21
24
 31
0
 70
   32
 71
    5
 72
    0
  3
Standard
 53
0
210
0
220
0
230
1
100
AcDbAlignedDimension
 13
1.6
 23
14.9
 33
0
 14
8.300000000000001
 24
14.9
 34
0
100
AcDbRotatedDimension
  0
MTEXT
  5
187
100
AcDbEntity
  8
dimensions
  6
ByLayer
 62
  256
370
   -1
100
AcDbMText
 10
17
 20
18
 30
0
 40
1
 41
0.3333333333333333
 71
    5
 72
    1
  1
II
  7
unicode
210
0
220
0
230
1
 50
360
 73
    2
 44
1
  0
LEADER
  5
188
100
AcDbEntity
  8
dimensions
  6
ByLayer
 62
  256
370
   -1
100
AcDbLeader
  3
Standard
 71
    1
 72
    0
 73
    3
 74
    0
 75
    0
 40
1
 41
10
 76
3
 76
3
 10
1.6
 20
14.9
 30
0
 10
-2
 20
18
 30
0
 10
-4
 20
18
 30
0
  0
MTEXT
  5
189
100
AcDbEntity
  8
dimensions
  6
ByLayer
 62
  256
370
   -1
100
AcDbMText
 10
-3
 20
19
 30
0
 40
1
 41
0
 71
    5
 72
    1
  1
I
  7
unicode
210
0
220
0
230
1
 50
360
 73
    2
 44
1
  0
MTEXT
  5
18A
100
AcDbEntity
  8
dimensions
  6
ByLayer
 62
  256
370
   -1
100
AcDbMText
 10
14.75
 20
-4
 30
0
 40
1
 41
30.66666666666675
 71
    1
 72
    1
  3
1.  I    \P  ,   .\P2.  II ()  \P  u-i   i
  1
 ii.\P3. i i i %%P1 .\P4. * - i   i
  7
cyrillic_ii
210
0
220
0
230
1
 50
0
 73
    2
 44
1
  0
LINE
  5
18B
100
AcDbEntity
  8
body
  6
ByLayer
 62
  256
370
   -1
100
AcDbLine
 10
20
 20
16
 11
20
 21
9.9
  0
DIMENSION
  5
18C
100
AcDbEntity
  8
dimensions
  6
ByLayer
 62
  256
370
   -1
100
AcDbDimension
  2
*D21
 10
17
 20
13
 30
0
 11
16
 21
11.95
 31
0
 70
   32
  1
<>%%P1,5
 71
    5
  3
Standard
 53
0
210
0
220
0
230
1
100
AcDbAlignedDimension
 13
20
 23
9.9
 33
0
 14
20
 24
14
 34
0
 50
90
100
AcDbRotatedDimension
  0
LINE
  5
18D
100
AcDbEntity
  8
body
  6
ByLayer
 62
  256
370
   -1
100
AcDbLine
 10
23
 20
11.9
 11
23
 21
16
  0
LWPOLYLINE
  5
18E
100
AcDbEntity
  8
body
  6
ByLayer
 62
  256
370
   -1
100
AcDbPolyline
 90
    9
 70
    0
 43
0
 10
20
 20
9.9
 10
23
 20
11.9
 10
23
 20
7
 10
22.5
 20
7
 10
22.2
 20
7.5
 10
21.6
 20
6.5
 10
21.3
 20
7
 10
20
 20
7
 10
20
 20
9.9
  0
LWPOLYLINE
  5
18F
100
AcDbEntity
  8
body
  6
ByLayer
 62
  256
370
   -1
100
AcDbPolyline
 90
    4
 70
    1
 43
0
 10
23.45
 20
11.9
 10
23
 20
11.9
 10
23
 20
11.4
 10
23.45
 20
11.4
  0
MTEXT
  5
190
100
AcDbEntity
  8
dimensions
  6
ByLayer
 62
  256
370
   -1
100
AcDbMText
 10
48
 20
-14
 30
0
 40
1
 41
4.638888888888889
 71
    7
 72
    1
  1
. 12
  7
unicode
210
0
220
0
230
1
 50
360
 73
    2
 44
1
  0
LWPOLYLINE
  5
191
100
AcDbEntity
  8
body
  6
ByLayer
 62
  256
370
   -1
100
AcDbPolyline
 90
    9
 70
    0
 43
0
 10
0.9000000000000001
 20
-3
 10
1.9
 20
-6
 10
-1.100000000000004
 20
-6
 10
-1.100000000000004
 20
-5.5
 10
-0.6000000000000039
 20
-5.199999999999999
 10
-1.600000000000004
 20
-4.6
 10
-1.100000000000004
 20
-4.300000000000001
 10
-1.100000000000004
 20
-3
 10
0.9000000000000001
 20
-3
  0
LWPOLYLINE
  5
192
100
AcDbEntity
  8
body
  6
ByLayer
 62
  256
370
   -1
100
AcDbPolyline
 90
    9
 70
    0
 43
0
 10
9
 20
-3
 10
8.000000000000005
 20
-6.000000000000002
 10
11
 20
-6
 10
11
 20
-5.5
 10
10.5
 20
-5.199999999999999
 10
11.5
 20
-4.6
 10
11
 20
-4.300000000000001
 10
11
 20
-3
 10
9
 20
-3
  0
LINE
  5
193
100
AcDbEntity
  8
body
  6
ByLayer
 62
  256
370
   -1
100
AcDbLine
 10
0.9000000000000001
 20
-3
 11
8.999999999999998
 21
-3
  0
DIMENSION
  5
194
100
AcDbEntity
  8
dimensions
  6
ByLayer
 62
  256
370
   -1
100
AcDbDimension
  2
*D22
 10
9
 20
-1
 30
0
 11
4.95
 21
0
 31
0
 70
   32
  1
<>%%P2
 71
    5
  3
Standard
 53
0
210
0
220
0
230
1
100
AcDbAlignedDimension
 13
0.9000000000000001
 23
-3
 33
0
 14
9
 24
-3
 34
0
100
AcDbRotatedDimension
  0
LINE
  5
195
100
AcDbEntity
  8
body
  6
ByLayer
 62
  256
370
   -1
100
AcDbLine
 10
38.9
 20
11.9
 11
37.9
 21
9.9
  0
DIMENSION
  5
196
100
AcDbEntity
  8
dimensions
  6
ByLayer
 62
  256
370
   -1
100
AcDbDimension
  2
*D23
 10
33
 20
9
 30
0
 11
32
 21
11.95
 31
0
 70
   32
  1
<>+1,5
 71
    5
  3
Standard
 53
0
210
0
220
0
230
1
100
AcDbAlignedDimension
 13
36
 23
14
 33
0
 14
37.9
 24
9.899999999999999
 34
0
 50
90
100
AcDbRotatedDimension
  0
LINE
  5
197
100
AcDbEntity
  8
body
  6
ByLayer
 62
  256
370
   -1
100
AcDbLine
 10
45
 20
11.9
 11
46
 21
9.9
  0
LWPOLYLINE
  5
198
100
AcDbEntity
  8
body
  6
ByLayer
 62
  256
370
   -1
100
AcDbPolyline
 90
    4
 70
    1
 43
0
 10
37.9
 20
9.9
 10
46
 20
9.9
 10
46
 20
14
 10
37.9
 20
14
  0
DIMENSION
  5
199
100
AcDbEntity
  8
dimensions
  6
ByLayer
 62
  256
370
   -1
100
AcDbDimension
  2
*D24
 10
46
 20
4
 30
0
 11
41.95
 21
5
 31
0
 70
   32
 71
    5
  3
Standard
 53
0
210
0
220
0
230
1
100
AcDbAlignedDimension
 13
37.9
 23
9.9
 33
0
 14
46
 24
9.899999999999999
 34
0
100
AcDbRotatedDimension
  0
DIMENSION
  5
19A
100
AcDbEntity
  8
dimensions
  6
ByLayer
 62
  256
370
   -1
100
AcDbDimension
  2
*D25
 10
1.3
 20
-10
 30
0
 11
-1
 21
-9
 31
0
 70
   32
 71
    5
  3
Standard
 53
0
210
0
220
0
230
1
100
AcDbAlignedDimension
 13
0.9000000000000004
 23
-3
 33
0
 14
1.900000000000004
 24
-6.449999999999999
 34
0
100
AcDbRotatedDimension
  0
DIMENSION
  5
19B
100
AcDbEntity
  8
dimensions
  6
ByLayer
 62
  256
370
   -1
100
AcDbDimension
  2
*D26
 10
8.6
 20
-10
 30
0
 11
9
 21
-9
 31
0
 70
   32
 71
    5
  3
Standard
 53
0
210
0
220
0
230
1
100
AcDbAlignedDimension
 13
8.000000000000005
 23
-7.699999999999999
 33
0
 14
8.999999999999998
 24
-3
 34
0
100
AcDbRotatedDimension
  0
DIMENSION
  5
19C
100
AcDbEntity
  8
dimensions
  6
ByLayer
 62
  256
370
   -1
100
AcDbDimension
  2
*D27
 10
39
 20
17
 30
0
 11
37.65000000000001
 21
18
 31
0
 70
   32
 71
    5
 72
    0
  3
Standard
 53
0
210
0
220
0
230
1
100
AcDbAlignedDimension
 13
36.40000000000001
 23
16
 33
0
 14
38.9
 24
14
 34
0
100
AcDbRotatedDimension
  0
LWPOLYLINE
  5
19D
100
AcDbEntity
  8
u-block
  6
ByLayer
 62
  256
370
   -1
100
AcDbPolyline
 90
    4
 70
    1
 43
0
 10
41.4
 20
16
 10
46.4
 20
16
 10
46.4
 20
14
 10
41.4
 20
14
  0
LWPOLYLINE
  5
19E
100
AcDbEntity
  8
u-block
  6
ByLayer
 62
  256
370
   -1
100
AcDbPolyline
 90
    4
 70
    1
 43
0
 10
36.4
 20
16
 10
41.4
 20
16
 10
41.4
 20
14
 10
36.4
 20
14
  0
DIMENSION
  5
19F
100
AcDbEntity
  8
dimensions
  6
ByLayer
 62
  256
370
   -1
100
AcDbDimension
  2
*D28
 10
47.8
 20
17
 30
0
 11
46.25
 21
18
 31
0
 70
   32
 71
    5
 72
    0
  3
Standard
 53
0
210
0
220
0
230
1
100
AcDbAlignedDimension
 13
45
 23
14
 33
0
 14
47.50000000000001
 24
16
 34
0
100
AcDbRotatedDimension
  0
LWPOLYLINE
  5
1A0
100
AcDbEntity
  8
u-block
  6
ByLayer
 62
  256
370
   -1
100
AcDbPolyline
 90
    4
 70
    1
 43
0
 10
46.4
 20
16
 10
47.50000000000001
 20
16
 10
47.5
 20
14
 10
46.4
 20
14
  0
DIMENSION
  5
1A1
100
AcDbEntity
  8
dimensions
  6
ByLayer
 62
  256
370
   -1
100
AcDbDimension
  2
*D29
 10
48
 20
9
 30
0
 11
46.95
 21
10
 31
0
 70
   32
 71
    5
 72
    0
  3
Standard
 53
0
210
0
220
0
230
1
100
AcDbAlignedDimension
 13
46.4
 23
14
 33
0
 14
47.5
 24
14
 34
0
100
AcDbRotatedDimension
  0
ENDSEC
  0
SECTION
  2
OBJECTS
  0
DICTIONARY
  5
C
330
0
100
AcDbDictionary
281
    1
  3
ACAD_GROUP
350
D
  0
DICTIONARY
  5
D
330
C
100
AcDbDictionary
281
    1
  0
ENDSEC
  0
EOF
